<?xml version="1.0" encoding="utf-8"?>
<!-- Generator: Adobe Illustrator 24.1.0, SVG Export Plug-In . SVG Version: 6.00 Build 0)  -->
<svg version="1.1" id="Capa_1" xmlns="http://www.w3.org/2000/svg" xmlns:xlink="http://www.w3.org/1999/xlink" x="0px" y="0px"
	 viewBox="0 0 740 517.6" style="enable-background:new 0 0 740 517.6;" xml:space="preserve">
<style type="text/css">
	.st0{fill:#F2F0F3;}
	.st1{fill:none;stroke:#FFFFFF;stroke-miterlimit:10;}
	.st2{fill:#EDEDED;}
	.st3{fill:none;stroke:#BDB3C1;stroke-width:2;stroke-miterlimit:10;}
	.st4{fill:none;stroke:#472C53;stroke-width:3;stroke-miterlimit:10;}
	.st5{fill:#563D61;}
	.st6{fill:#4D4F52;}
	.st7{fill:#5C5E60;}
	.st8{fill:#FFFFFF;}
	.st9{fill:#EA8058;}
	.st10{fill:#F3946F;}
	.st11{fill:#2E3033;}
	.st12{fill:#3D404E;}
	.st13{fill:#010101;}
	.st14{fill:#15191F;}
	.st15{fill:#472C53;}
	.st16{fill:#F7A836;}
	.st17{fill:#FECA36;}
	.st18{fill:#F49F7D;}
	.st19{fill:#EC8C68;}
	.st20{fill:none;stroke:#2E3033;stroke-width:3;stroke-miterlimit:10;}
	.st21{fill:#6D6E71;}
	.st22{fill:#828385;}
	.st23{fill:#715C7A;}
	.st24{fill:#897891;}
</style>
<g id="a64a038c-59e0-467b-b89f-796622e8f401">
	<g>
		<defs>
			<rect id="SVGID_1_" x="-435.9" y="578.6" width="1580.6" height="980.3"/>
		</defs>
		<clipPath id="SVGID_2_">
			<use xlink:href="#SVGID_1_"  style="overflow:visible;"/>
		</clipPath>
	</g>
	<path class="st0" d="M183.6,485.5c54.1-10.2,45-38.2,114.1-48.1c98.2-14.1,211.7,57.8,304.3,22.3
		c110.4-42.3,256.1-348.2-45.8-433.9c-134.5-38.2-448.6,26.4-529.4,205C-58.3,418.9,108.9,499.6,183.6,485.5z"/>
	<path class="st1" d="M537.5,97.1H552c1.1,0,2,0.9,2,2v68c0,1.1-0.9,2-2,2h-14.5c-1.1,0-2-0.9-2-2v-68
		C535.5,98,536.4,97.1,537.5,97.1z"/>
	<path class="st1" d="M635.8,105.5h3.5c1.1,0,2,0.9,2,2v59.5c0,1.1-0.9,2-2,2h-3.5c-1.1,0-2-0.9-2-2v-59.5
		C633.8,106.4,634.6,105.5,635.8,105.5z"/>
	<path class="st1" d="M645.4,105.5h3.5c1.1,0,2,0.9,2,2v59.5c0,1.1-0.9,2-2,2h-3.5c-1.1,0-2-0.9-2-2v-59.5
		C643.4,106.4,644.3,105.5,645.4,105.5z"/>
	<path class="st1" d="M655,105.5h3.5c1.1,0,2,0.9,2,2v59.5c0,1.1-0.9,2-2,2H655c-1.1,0-2-0.9-2-2v-59.5
		C653,106.4,653.9,105.5,655,105.5z"/>
	<path class="st1" d="M664.6,105.5h3.5c1.1,0,2,0.9,2,2v59.5c0,1.1-0.9,2-2,2h-3.5c-1.1,0-2-0.9-2-2v-59.5
		C662.6,106.4,663.5,105.5,664.6,105.5z"/>
	<path class="st1" d="M674.3,105.5h3.5c1.1,0,2,0.9,2,2v59.5c0,1.1-0.9,2-2,2h-3.5c-1.1,0-2-0.9-2-2v-59.5
		C672.3,106.4,673.2,105.5,674.3,105.5z"/>
	<path class="st1" d="M559.8,97.1h14.5c1.1,0,2,0.9,2,2v68c0,1.1-0.9,2-2,2h-14.5c-1.1,0-2-0.9-2-2v-68
		C557.8,98,558.6,97.1,559.8,97.1z"/>
	<path class="st1" d="M581.2,97.1h14.5c1.1,0,2,0.9,2,2v68c0,1.1-0.9,2-2,2h-14.5c-1.1,0-2-0.9-2-2v-68
		C579.2,98,580.1,97.1,581.2,97.1z"/>
	<path class="st1" d="M620.9,97.1l9,2.4c1.1,0.3,1.7,1.4,1.4,2.4l-17.3,65.7c-0.3,1.1-1.4,1.7-2.4,1.4l-9-2.4
		c-1.1-0.3-1.7-1.4-1.4-2.4l17.3-65.7C618.7,97.5,619.8,96.9,620.9,97.1z"/>
	<path class="st1" d="M84.5,178.7H99c1.1,0,2,0.9,2,2v68c0,1.1-0.9,2-2,2H84.5c-1.1,0-2-0.9-2-2v-68
		C82.5,179.6,83.4,178.7,84.5,178.7z"/>
	<path class="st1" d="M157.2,264h20.9c1.1,0,2,0.9,2,2v59.5c0,1.1-0.9,2-2,2h-20.9c-1.1,0-2-0.9-2-2V266
		C155.2,264.9,156.1,264,157.2,264z"/>
	<path class="st1" d="M189.3,264h20.9c1.1,0,2,0.9,2,2v59.5c0,1.1-0.9,2-2,2h-20.9c-1.1,0-2-0.9-2-2V266
		C187.3,264.9,188.2,264,189.3,264z"/>
	<path class="st1" d="M221.4,264h20.9c1.1,0,2,0.9,2,2v59.5c0,1.1-0.9,2-2,2h-20.9c-1.1,0-2-0.9-2-2V266
		C219.4,264.9,220.3,264,221.4,264z"/>
	<path class="st1" d="M253.6,264h20.9c1.1,0,2,0.9,2,2v59.5c0,1.1-0.9,2-2,2h-20.9c-1.1,0-2-0.9-2-2V266
		C251.6,264.9,252.5,264,253.6,264z"/>
	<path class="st1" d="M285.7,264h20.9c1.1,0,2,0.9,2,2v59.5c0,1.1-0.9,2-2,2h-20.9c-1.1,0-2-0.9-2-2V266
		C283.7,264.9,284.6,264,285.7,264z"/>
	<path class="st1" d="M525.4,180.3h10.7c1.1,0,2,0.9,2,2v59.5c0,1.1-0.9,2-2,2h-10.7c-1.1,0-2-0.9-2-2v-59.5
		C523.4,181.2,524.3,180.3,525.4,180.3z"/>
	<path class="st1" d="M544.4,180.3h10.7c1.1,0,2,0.9,2,2v59.5c0,1.1-0.9,2-2,2h-10.7c-1.1,0-2-0.9-2-2v-59.5
		C542.4,181.2,543.3,180.3,544.4,180.3z"/>
	<path class="st1" d="M563.4,180.3h10.7c1.1,0,2,0.9,2,2v59.5c0,1.1-0.9,2-2,2h-10.7c-1.1,0-2-0.9-2-2v-59.5
		C561.4,181.2,562.3,180.3,563.4,180.3z"/>
	<path class="st1" d="M582.4,180.3h10.7c1.1,0,2,0.9,2,2v59.5c0,1.1-0.9,2-2,2h-10.7c-1.1,0-2-0.9-2-2v-59.5
		C580.4,181.2,581.3,180.3,582.4,180.3z"/>
	<path class="st1" d="M601.4,180.3h10.7c1.1,0,2,0.9,2,2v59.5c0,1.1-0.9,2-2,2h-10.7c-1.1,0-2-0.9-2-2v-59.5
		C599.4,181.2,600.3,180.3,601.4,180.3z"/>
	<path class="st1" d="M119,263.5h1.7c1.1,0,2,0.9,2,2V325c0,1.1-0.9,2-2,2H119c-1.1,0-2-0.9-2-2v-59.5
		C117,264.4,117.9,263.5,119,263.5z"/>
	<path class="st1" d="M126.3,263.5h1.7c1.1,0,2,0.9,2,2V325c0,1.1-0.9,2-2,2h-1.7c-1.1,0-2-0.9-2-2v-59.5
		C124.3,264.4,125.2,263.5,126.3,263.5z"/>
	<path class="st1" d="M133.6,263.5h1.7c1.1,0,2,0.9,2,2V325c0,1.1-0.9,2-2,2h-1.7c-1.1,0-2-0.9-2-2v-59.5
		C131.6,264.4,132.5,263.5,133.6,263.5z"/>
	<path class="st1" d="M140.9,263.5h1.7c1.1,0,2,0.9,2,2V325c0,1.1-0.9,2-2,2h-1.7c-1.1,0-2-0.9-2-2v-59.5
		C138.9,264.4,139.8,263.5,140.9,263.5z"/>
	<path class="st1" d="M148.2,263.5h1.7c1.1,0,2,0.9,2,2V325c0,1.1-0.9,2-2,2h-1.7c-1.1,0-2-0.9-2-2v-59.5
		C146.2,264.4,147.1,263.5,148.2,263.5z"/>
	<path class="st1" d="M365.4,183.1h20.9c1.1,0,2,0.9,2,2v59.5c0,1.1-0.9,2-2,2h-20.9c-1.1,0-2-0.9-2-2v-59.5
		C363.4,184,364.3,183.1,365.4,183.1z"/>
	<path class="st1" d="M356.4,182.6h1.7c1.1,0,2,0.9,2,2v59.5c0,1.1-0.9,2-2,2h-1.7c-1.1,0-2-0.9-2-2v-59.5
		C354.4,183.5,355.3,182.6,356.4,182.6z"/>
	<path class="st1" d="M106.8,178.7h14.5c1.1,0,2,0.9,2,2v68c0,1.1-0.9,2-2,2h-14.5c-1.1,0-2-0.9-2-2v-68
		C104.8,179.6,105.7,178.7,106.8,178.7z"/>
	<path class="st1" d="M128.2,178.7h14.5c1.1,0,2,0.9,2,2v68c0,1.1-0.9,2-2,2h-14.5c-1.1,0-2-0.9-2-2v-68
		C126.2,179.6,127.1,178.7,128.2,178.7z"/>
	<path class="st2" d="M544.5,489.9h66.1c2.6,0,4.7,2.1,4.7,4.7v4.4c0,2.6-2.1,4.7-4.7,4.7h-66.1l0,0V489.9L544.5,489.9z"/>
	<path class="st3" d="M540.3,504.1h68.2c3.9,0,7.1-3.2,7.1-7.1c0,0,0,0,0,0l0,0c0-3.9-3.1-7-7-7.1l-68.3-0.8"/>
	<path class="st2" d="M607.5,468.2H548c-2.6,0-4.7-2.1-4.7-4.7v-4.4c0-2.6,2.1-4.7,4.7-4.7h59.5l0,0V468.2L607.5,468.2L607.5,468.2z
		"/>
	<path class="st4" d="M610.4,454h-61.1c-3.5,0-6.4,3.2-6.4,7.1l0,0c0,3.9,2.8,7,6.3,7.1l61.2,0.8"/>
	<rect x="540.9" y="470.7" class="st2" width="31" height="15.4"/>
	<rect x="538.3" y="486.1" class="st5" width="34.5" height="2.5"/>
	<rect x="538.3" y="469.4" class="st5" width="34.5" height="2.4"/>
	<polygon class="st5" points="615.8,489.3 570.9,488.6 570.9,469.3 615.8,470.8 	"/>
	<rect x="573.2" y="435.6" class="st2" width="42.6" height="13.7"/>
	<rect x="573.5" y="433.1" class="st6" width="44.9" height="4.1"/>
	<rect x="573.5" y="448.2" class="st6" width="44.9" height="4.1"/>
	<polygon class="st7" points="540.9,434.4 574.8,433.1 574.8,452.4 540.9,452.5 	"/>
	<path class="st8" d="M315.5,398.5c7.6-0.4,14.2-4,20.5-8c-3.5-14.3-18.2-25.7-31.4-24c0.8,2.6,3.9,23.9,3.9,23.9
		S315.7,392.8,315.5,398.5z"/>
	<path class="st9" d="M315.5,398.2c0,2.3-1.1,5.2-4.5,8.8c-0.8,0.9-2,13.8-1,18.9c24.7-10.4,29.5-23.3,25.8-36.4
		C329.9,394,322.9,397,315.5,398.2z"/>
	<path class="st10" d="M322.6,418c2.6-2,5.1-4.3,7.2-6.8c3.5-4.4,5.9-9.6,7-15.1c-0.1-2.2-0.4-4.4-1-6.5c-5.9,4.5-12.8,7.5-20.2,8.7
		c0,2.3-1.1,5.2-4.5,8.8c-0.8,0.8-2.4,14.2-1.8,20.3c4-3.3,8.7-5.7,12.9-8.7C322.2,418.4,322.4,418.2,322.6,418z"/>
	<path class="st9" d="M320.4,428.2c2.7-3.8,4.2-8.6,1.3-14.8s-8.3-7.8-13.9-4.6c-2.7,1.7-5.1,3.9-7.1,6.4c-2,2.3-4.1,5-4,8.1
		c0,3.7,1.8,7.3,4.8,9.5c1.8,1.3,7.5,4.3,10.3,4.3c2,0.1,4.1-0.4,5.9-1.3c1.4-0.7,2.5-1.8,3.2-3.1c0.7-1.4,0.6-3-0.3-4.3
		L320.4,428.2z"/>
	<path class="st10" d="M315,431.7c-0.7,0-1.3-0.6-1.3-1.4c0-0.5,0.3-0.9,0.6-1.1c3.5-1.8,6.2-4.9,7.4-8.7c0.4-1.3,0.8-2.6,1.1-4
		c-0.3-1.1-0.6-2.1-1.1-3.2c-2.9-6.3-8.3-7.8-13.9-4.6c-2.7,1.7-5.1,3.9-7.1,6.4c-2,2.3-4.1,5-4,8.1c0,3.7,1.8,7.3,4.8,9.5
		c1.8,1.3,7.1,4.1,10.3,4.3c2,0.1,4.1-0.3,5.9-1.3c1.4-0.7,2.5-1.8,3.2-3.1c0.6-1.1,0.6-2.4,0.1-3.5
		C320.1,430.2,316.3,431.7,315,431.7z"/>
	<path class="st8" d="M508.4,395.9c7.6-0.4,14.2-4,20.5-8c-3.5-14.3-18.2-25.7-31.4-24c-12.9,0-16.7-0.2-16,4.2
		c1.1,6.7,19.9,19.7,19.9,19.7S508.6,390.1,508.4,395.9z"/>
	<path class="st9" d="M508.4,395.6c0,2.3-1.1,5.2-4.5,8.8c-0.8,0.9-2,13.8-1,18.9c24.7-10.4,29.5-23.3,25.8-36.4
		C522.7,391.4,515.8,394.4,508.4,395.6z"/>
	<path class="st10" d="M515.5,415.3c2.6-2,5.1-4.3,7.2-6.8c3.5-4.4,5.9-9.6,7-15.1c-0.1-2.2-0.4-4.4-1-6.5
		c-5.9,4.5-12.8,7.5-20.2,8.7c0,2.3-1.1,5.2-4.5,8.8c-0.8,0.8-2.4,14.2-1.8,20.3c4-3.3,8.7-5.7,12.9-8.7
		C515.1,415.7,515.2,415.5,515.5,415.3z"/>
	<path class="st9" d="M513.3,425.5c2.7-3.8,4.2-8.6,1.3-14.8s-8.3-7.8-13.9-4.6c-2.7,1.7-5.1,3.9-7.1,6.4c-2,2.3-4.1,5-4,8.1
		c0,3.7,1.8,7.3,4.8,9.5c1.8,1.3,7.5,4.3,10.3,4.3c2,0.1,4.1-0.4,5.9-1.3c1.4-0.7,2.5-1.8,3.2-3.1c0.7-1.4,0.6-3-0.3-4.3
		L513.3,425.5z"/>
	<path class="st10" d="M512.2,427.7L512.2,427.7c-0.3,0.4-0.6,0.6-1,0.5c-1.1,0.5-2.2,0.8-3.4,0.8c-0.7,0-1.3-0.6-1.3-1.4
		c0-0.5,0.3-0.9,0.6-1.1c1.8-1.1,3.5-2.4,5-3.9c0-0.1,0.1-0.3,0.1-0.4c0.8-1.4,1.6-2.9,2.2-4.4c0.4-1.3,0.8-2.6,1.1-4
		c-0.3-1.1-0.6-2.1-1.1-3.2c-2.9-6.3-8.3-7.8-13.9-4.6c-2.7,1.7-5.1,3.9-7.1,6.4c-2,2.3-4.1,5-4,8.1c0,3.7,1.8,7.3,4.8,9.5
		c1.8,1.3,7.1,4.1,10.3,4.3c2,0.1,4.1-0.3,5.9-1.3c1.4-0.7,2.5-1.8,3.2-3.1c0.6-1.1,0.6-2.4,0.1-3.5
		C513.3,426.9,512.8,427.3,512.2,427.7z"/>
	<path class="st11" d="M214.9,498.4c0,0,0.9-56.3,7.3-74.3c2.2-2,86.1,3.9,86.1,3.9l1.1,70.4h9.2v7h-26.2l-5.4-3.5v3.5h-11.3
		c0,0-1.2-40.9-9.6-59.5c-7.1,8.3-14.6,38.4-17.1,52.5c-0.8,4.3-1.5,7-1.5,7h-12V502l-5.4,3.4h-24.9v-7L214.9,498.4z"/>
	<path class="st12" d="M214.9,498.4h34.2c5.3-33.4,16.9-52.5,16.9-52.5s8,27.9,8.5,52.5h35c3.5-47.3-1.2-70.4-1.2-70.4l-86.1-3.9
		L214.9,498.4z"/>
	<path class="st11" d="M266,445.9c6.3,21,8.5,52.5,8.5,52.5H286C286,498.4,277.9,459.8,266,445.9z"/>
	<polygon class="st13" points="274.5,498.4 275.6,505.4 287,505.4 287,502.4 285.4,498.4 	"/>
	<polyline class="st11" points="214.9,498.4 234,424.1 222.2,424.1 214.9,498.4 	"/>
	<polygon class="st14" points="274.5,498.4 275.6,505.4 287,505.4 287,502.4 285.4,498.4 	"/>
	<polyline class="st14" points="214.9,498.4 205.1,498.4 205.1,505.4 216.9,505.4 216.9,498.4 214.9,498.4 	"/>
	<path class="st11" d="M509,498.2c0,0-0.9-56.5-7.3-74.7c-2.3-2-86.5,3.9-86.5,3.9l-1.1,70.7h-9.2v7h26.4l5.4-3.5v3.5h11.4
		c0,0,1.2-41.1,9.7-59.8c7.2,8.3,14.6,38.6,17.2,52.8c0.8,4.3,1.5,7,1.5,7h12v-3.4l5.5,3.4h25v-7H509z"/>
	<path class="st12" d="M509,498.2h-34.4c-5.4-33.6-17-52.8-17-52.8s-8,28.1-8.5,52.8h-35.2c-3.5-47.5,1.2-70.7,1.2-70.7l86.6-3.9
		L509,498.2z"/>
	<path class="st11" d="M457.6,445.5c-6.3,21.1-8.5,52.8-8.5,52.8h-11.6C437.5,498.2,445.7,459.4,457.6,445.5z"/>
	<polygon class="st14" points="449.1,498.2 447.9,505.2 436.6,505.2 436.6,502.3 438.1,498.2 	"/>
	<polyline class="st11" points="509,498.2 489.8,423.6 501.6,423.6 509,498.2 	"/>
	<polygon class="st14" points="449.1,498.2 447.9,505.2 436.6,505.2 436.6,502.3 438.1,498.2 	"/>
	<polyline class="st14" points="509,498.2 518.8,498.2 518.8,505.2 507,505.2 507,498.2 509,498.2 	"/>
	<path class="st8" d="M432.6,363.3c45.7,2.2,67.9,3.4,67.9,3.4s2.5,6.7,1.4,21.2c-0.6,0-1.1,0.2-1.6,0.5c-2,1.5-2.4,4.1-2,7.8
		c0.8,5.1,2,10,3.8,14.8c0,5.5-0.1,11,0,16.6h-88.7l-0.2-45.3C413.2,382.3,418.2,363,432.6,363.3z"/>
	<path class="st15" d="M301.7,403.8h-95.3c-15.8,0-28.6-12.8-28.6-28.6c0,0,0,0,0,0V259.7h123.9V403.8z"/>
	<path class="st8" d="M287.4,360.4c-45.8,2.2-64.5,7.9-64.5,7.9s1.8,6.1,0.9,19.4c0.6,0,1.1,0.2,1.6,0.5c2,1.5,2.4,4.1,2,7.9
		c-0.7,5.1-2,10.1-3.8,14.9c0.1,5.5,0.1,11.1,0,16.6h84.6l0.2-45.4C308.3,382.1,301.9,360.1,287.4,360.4z"/>
	<path class="st16" d="M219.2,405.5c0,0,34.1-8.4,10.2-42.2l15.2-11.3l30.4,34l10.6-28.5c11.5,0,22.9,9,22.9,20.6v50h-89.3
		L219.2,405.5z"/>
	<rect x="219.1" y="408.9" class="st11" width="89.6" height="9"/>
	<path class="st11" d="M269.9,412.4c-13.8-33.6-41.1-54.3-41.3-54.5l5.4-7.2c1.2,0.9,29.5,22.4,44.2,58.3L269.9,412.4z"/>
	<path class="st11" d="M283.5,411.4l-8.3-1.3c4.5-28.6,17.3-51.8,17.9-52.8l7.4,4.1l0,0C300.2,361.8,287.7,384.4,283.5,411.4z"/>
	<path class="st9" d="M318.9,333c11.4,0.2,20.8-8.9,21-20.3c0.2-11.4-8.9-20.8-20.3-21c-11.4-0.2-20.8,8.9-21,20.3
		c0,0.1,0,0.2,0,0.3C298.5,323.7,307.6,332.9,318.9,333z"/>
	<path class="st9" d="M329.1,308c0,41.6-29.8,66.1-66.6,66.1s-66.6-24.5-66.6-66.1s29.8-84.7,66.6-84.7S329.1,266.4,329.1,308z"/>
	<path class="st10" d="M324.8,311.5h-82.7c-11.3,0-20.4,9.1-20.4,20.3c0,0,0,0,0,0.1v30.1c11.3,8,25.4,12.2,40.7,12.2
		c28.5,0,52.9-14.8,62.3-40.8L324.8,311.5L324.8,311.5z"/>
	<path class="st15" d="M251.6,302h-73.8v-52.4L283.6,270C283.6,287.7,269.3,302,251.6,302z"/>
	<path class="st15" d="M301.7,302h-23.5v-34.8h58.3C336.5,286.4,320.9,302,301.7,302C301.7,302,301.7,302,301.7,302z"/>
	<path class="st17" d="M159.9,271.5c0,1.5,1,2.8,2.4,3.2c16,6.4,175.3,6.4,191.3,0c1.9-0.7,2.9-2.9,2.1-4.8
		c-0.1-0.1-0.1-0.3-0.2-0.4c-0.7-3.8-3.2-7-6.7-8.5c0.6-4.1,0.9-8.2,0.8-12.4c0-38.4-23.9-72.8-60-86.1c-3.5-1.3-6.4-4.1-7.8-7.6
		c-2-5.1-7-8.4-12.5-8.4h-23c-5.5,0-10.4,3.4-12.4,8.5c-1.4,3.5-4.2,6.3-7.8,7.6c-36,13.3-60,47.6-60,86c0,4.2,0.3,8.3,0.9,12.4
		C162.8,262.8,159.9,266.8,159.9,271.5L159.9,271.5z"/>
	<path class="st11" d="M250.8,220.9l19.7,11.4l19.8-11.4l-19.8-32L250.8,220.9z"/>
	<path class="st11" d="M250.8,228.1l19.7,28l19.8-28l-19.8,12.2L250.8,228.1z"/>
	<path class="st16" d="M162.2,274.7c3.7,1.5,15.4,2.7,31.4,3.5l16.4,0.7l-1.2-26c-1.1-26.1,4-52.1,15-75.9l9.5-20.6
		c-1.5,2.9-4.1,5.2-7.2,6.3c-36,13.3-60,47.6-60,86c0,4.2,0.3,8.3,0.9,12.4c-4.2,1.7-7.1,5.8-7.2,10.3h0.1
		C159.9,272.9,160.8,274.2,162.2,274.7z"/>
	<path class="st9" d="M201.9,333c11.4,0.2,20.8-8.9,21-20.3c0.2-11.4-8.9-20.8-20.3-21c-11.4-0.2-20.8,8.9-21,20.3
		c0,0.1,0,0.2,0,0.3C181.4,323.7,190.5,332.9,201.9,333z"/>
	<path class="st11" d="M249.6,309.9L249.6,309.9c-5.2,0-9.5,4.2-9.5,9.5v7.4c0,5.2,4.3,9.5,9.5,9.5l0,0c5.2,0,9.5-4.3,9.5-9.5v-7.4
		C259.1,314.2,254.9,310,249.6,309.9C249.7,309.9,249.7,309.9,249.6,309.9z"/>
	<path class="st11" d="M292.3,309.9L292.3,309.9c-5.2,0-9.5,4.3-9.5,9.5v7.4c0,5.2,4.2,9.5,9.5,9.5l0,0c5.2,0,9.5-4.3,9.5-9.5v-7.4
		C301.8,314.2,297.6,309.9,292.3,309.9C292.4,309.9,292.3,309.9,292.3,309.9z"/>
	<path class="st8" d="M270.3,357.1c6.9,0,12.5-5.6,12.5-12.4c0,0,0,0,0,0h-24.9C257.8,351.5,263.4,357.1,270.3,357.1
		C270.2,357.1,270.3,357.1,270.3,357.1z"/>
	<path class="st10" d="M196.7,314.7c-5-1.7-5.4-8.9-0.5-10.9c2.3-1.1,4.9-1.2,7.3-0.3c5.1,2,6.5,5.3,6.5,11.2c0,3.4-1.2,6.6-3.4,9.2
		c0-0.3,0.1-0.6,0.1-1C206.7,319.3,201.4,316.3,196.7,314.7z"/>
	<path class="st9" d="M245.8,345.7c-11.6,0-21.1-9.4-21.1-21.1c0-11.6,9.4-21.1,21.1-21.1s21.1,9.4,21.1,21.1c0,0,0,0,0,0
		C266.9,336.3,257.4,345.7,245.8,345.7z M245.8,306.9c-9.8,0-17.8,8-17.8,17.8s8,17.8,17.8,17.8s17.8-8,17.8-17.8l0,0
		C263.6,314.8,255.6,306.9,245.8,306.9z"/>
	<path class="st9" d="M295.7,345.7c-11.6-0.3-20.9-9.9-20.6-21.5c0.2-11.3,9.3-20.4,20.6-20.6c11.6,0,19,9.4,19,21
		S303.3,345.7,295.7,345.7z M295.7,306.9c-9.8,0-17.8,8-17.8,17.8s8,17.8,17.8,17.8s17.8-8,17.8-17.8l0,0
		C313.5,314.8,305.5,306.9,295.7,306.9z"/>
	<path class="st18" d="M228,318.6c-2.1,10.3,4.5,20.3,14.8,22.4c10.3,2.1,20.3-4.5,22.4-14.8c0.5-2.3,0.5-4.7,0.1-7.1
		C264.3,317.5,231.8,315.4,228,318.6z"/>
	<path class="st19" d="M265.3,319.1c-1.8-10.3-11.7-17.2-22-15.4c-7.7,1.4-13.8,7.3-15.3,14.9C231.8,315.4,264.3,317.5,265.3,319.1z
		"/>
	<path class="st18" d="M277.5,318.6c-2.1,10.3,4.6,20.3,14.9,22.4s20.3-4.6,22.4-14.9c0.5-2.3,0.5-4.7,0.1-7
		C313.9,317.5,281.3,315.4,277.5,318.6z"/>
	<path class="st19" d="M314.8,319.1c-1.8-10.3-11.6-17.3-22-15.5c-7.7,1.3-13.8,7.3-15.4,14.9C281.3,315.4,313.9,317.5,314.8,319.1z
		"/>
	<path class="st11" d="M249.6,309.9L249.6,309.9c-5.2,0-9.5,4.2-9.5,9.5v7.4c0,5.2,4.3,9.5,9.5,9.5l0,0c5.2,0,9.5-4.3,9.5-9.5v-7.4
		C259.1,314.2,254.9,310,249.6,309.9C249.7,309.9,249.7,309.9,249.6,309.9z"/>
	<path class="st11" d="M292.3,309.9L292.3,309.9c-5.2,0-9.5,4.3-9.5,9.5v7.4c0,5.2,4.2,9.5,9.5,9.5l0,0c5.2,0,9.5-4.3,9.5-9.5v-7.4
		C301.8,314.2,297.6,309.9,292.3,309.9C292.4,309.9,292.3,309.9,292.3,309.9z"/>
	<path class="st20" d="M227.5,322.3c0-10.5,8.5-19,19-19c10.5,0,19,8.5,19,19"/>
	<path class="st20" d="M277,322.3c0-10.5,8.5-19,19-19s19,8.5,19,19"/>
	<path class="st20" d="M265.3,322.3c0.4-3.3,3.4-5.6,6.7-5.2c2.7,0.3,4.9,2.5,5.2,5.2"/>
	<path class="st21" d="M256,385.4l11,1.3l-4.6,32.7c-0.4,2.5-2.7,4.2-5.2,3.8c-0.1,0-0.1,0-0.2,0c-8.3-1.6-24.5-5.7-23.8-12.5
		C234.1,402.6,256,385.4,256,385.4z"/>
	<path class="st2" d="M259.6,386.9l5.3,1.1l-3.4,31c-0.2,1.7-1.8,2.9-3.5,2.7c-0.1,0-0.1,0-0.2,0l0,0c-1.1-0.2-14.4-5.6-14.4-5.6
		L259.6,386.9z"/>
	<path class="st22" d="M222.3,389.3l37.8-4.4l-3.6,36.3c0.2,0.7,0.6,1.4,1.1,2l-31-3.6L222.3,389.3z"/>
	<path class="st23" d="M241.9,386l12-0.2l-3.8,32.7c-0.3,2.7-2.8,4.6-5.4,4.3c-0.1,0-0.1,0-0.2,0c-9-1.4-26.6-5.2-26.1-12.6
		C219,401.5,241.9,386,241.9,386z"/>
	<path class="st2" d="M240.5,387.2h2.8l0.7,0.2l0.8-0.1l1.1,0.2l0.6-0.1l0.9,0.2l0.7-0.2l0.9,0.1l0.9-0.1l1,0.1l0.8-0.1l-2.6,30.9
		c-0.2,1.8-1.8,3.2-3.7,3c-0.1,0-0.1,0-0.2,0l0,0c-1.1-0.2-21-1.7-21-1.7L240.5,387.2z"/>
	<path class="st24" d="M203.4,390.3l40.1-5.3l-2.7,32.6c-0.1,1.2,0.3,2.4,1,3.3l0,0l3.1,1.9l-41.6,0.4L203.4,390.3z"/>
	<polygon class="st23" points="224.8,389.2 239.9,428.5 203.3,424 203.8,389.9 	"/>
	<path class="st9" d="M223.8,402.2c-4.2,3.1-19.1-7.4-22.6-5.3c-0.8,0.5,0.8,9.1,1.2,10.2c6.6,17.5,26.5,22.9,38,21.4
		c7.1-0.9-4.9,1.8-6.6-3.5C213.4,427.4,225.3,407.1,223.8,402.2z"/>
	<path class="st10" d="M240.9,415.1c-8.9,0.5-15.9-5.6-17-13c-5-3.1-15.9-7.1-21-4.7c-1.4,0.6,0.1,5.7,1.2,9.3
		c0.1,2.8,9.6,18.8,31.7,21.2c0.9,0.1,10.7,0.2,15.6-2.2C248.2,421.3,242.6,420.3,240.9,415.1z"/>
	<path class="st10" d="M238.4,415.3c5.6-6.1,13.9-5.2,13.9-5.2c1.7,0,3.7,0.6,3.7,2.7l0,0c0,1.4-4.9,5.4-4.9,5.4l0.1,0.1
		c0.9,1.4,2.4,2.2,4.1,2.3l6,0.2c2.2,0,2.8,2.3,2.2,4.5c-2.2,9.7-22.4,10.4-28.7,3.1C236.4,424.1,237.6,419.8,238.4,415.3z"/>
	<path class="st8" d="M201.9,387.8c-1.4,5.1-1.5,10.4-0.3,15.6c0.1,0,19.9,0.8,22.3-1.2c-1.7-6.9,0.8-12.9,8.6-16.2
		c4.1-5-2.8-19.3-2.8-19.3S207.7,366.3,201.9,387.8z"/>
	<path class="st9" d="M235.6,429.4c-0.4-0.3-0.7-0.7-0.9-1.1c0,0-1.9-2.8-1.8-2.8c5.7,6.5,23.3,6.2,23.3,6.2
		C249.4,434.5,241.7,433.7,235.6,429.4z"/>
	<path class="st9" d="M412,402.2c-4.2,3.1-19.1-7.4-22.6-5.3c-0.8,0.5,0.8,9.1,1.2,10.2c6.6,17.5,26.5,22.9,38,21.4
		c7.1-0.9-4.9,1.8-6.6-3.5C401.6,427.4,413.5,407.1,412,402.2z"/>
	<path class="st10" d="M429.1,415.1c-8.9,0.5-15.9-5.6-17-13c-5-3.1-15.9-7.1-21-4.7c-1.4,0.6,0.1,5.7,1.2,9.3
		c0.1,2.8,9.6,18.8,31.7,21.2c0.9,0.1,10.7,0.2,15.6-2.2C436.4,421.3,430.8,420.3,429.1,415.1z"/>
	<path class="st10" d="M426.6,415.3c5.6-6.1,14-5.2,14-5.2c1.7,0,3.7,0.6,3.7,2.7l0,0c0,1.4-4.9,5.4-4.9,5.4l0.1,0.1
		c0.9,1.4,2.4,2.2,4.1,2.3l6,0.2c2.2,0,2.8,2.3,2.2,4.5c-2.2,9.7-22.4,10.4-28.7,3.1C424.7,424.1,425.9,419.8,426.6,415.3z"/>
	<path class="st8" d="M390.1,387.8c-1.4,5.1-1.5,10.4-0.3,15.6c0.1,0,19.9,0.8,22.3-1.2c-1.7-6.9,0.8-12.9,8.5-16.2
		c4.1-5-2.8-19.3-2.8-19.3S396,366.3,390.1,387.8z"/>
	<path class="st9" d="M423.9,429.4c-0.4-0.3-0.7-0.7-0.9-1.1c0,0-1.9-2.8-1.8-2.8c5.7,6.5,23.3,6.2,23.3,6.2
		C437.7,434.5,429.9,433.7,423.9,429.4z"/>
	<polygon class="st9" points="445.1,405.5 441.9,408.2 447.6,405.5 	"/>
	<path class="st16" d="M502.2,427.6v-22c0,0-23.1-12.1-10.2-42.2l-15.2-11.3l-30.3,33.9l-10.6-28.5c-11.5,0-22.9,9-22.9,20.5v49.5
		L502.2,427.6L502.2,427.6z"/>
	<rect x="412.9" y="409" class="st11" width="89.4" height="8.9"/>
	<path class="st11" d="M451.5,412.6c13.7-33.5,41-54.2,41.3-54.5l-5.4-7.1c-1.2,0.9-29.5,22.4-44.2,58.2L451.5,412.6z"/>
	<path class="st11" d="M438,411.5l8.3-1.3c-4.5-28.6-17.3-51.7-17.9-52.7l-7.4,4.1C421.3,361.9,433.8,384.5,438,411.5z"/>
	<path class="st9" d="M407.6,330.8c12.9,0,23.4-10.5,23.4-23.4c0-12.9-10.5-23.4-23.4-23.4c-12.9,0-23.4,10.5-23.4,23.4c0,0,0,0,0,0
		C384.2,320.4,394.7,330.8,407.6,330.8z"/>
	<path class="st9" d="M504.1,163.7c10.8,5.7,15.3,15.5,18.1,26.5c1,3.7,2.7,6.8,7.1,5.8c4.6-1.1,4-4.9,3.2-8.4
		C529.3,173.2,518.2,163.3,504.1,163.7z"/>
	<path class="st9" d="M402,338.2c0.3,2.1,0.7,4.3,1.3,6.3c2.8,9.8,8.9,18.3,17.2,24.2c8,5,18.4,7.5,31,7.3
		c23.9,0.6,43.1-13.6,59.1-28.4v-16.3c0-21.4-17.4-38.8-38.8-38.8h-76.1v0.7L402,338.2z M463.4,310.4c0-5.2,4.2-9.5,9.5-9.5
		s9.5,4.2,9.5,9.5v7.4c0,5.2-4.2,9.5-9.5,9.5s-9.5-4.2-9.5-9.5V310.4z M437.7,340.2h24.9c0.2,6.9-5.2,12.6-12.1,12.8
		c-6.9,0.2-12.6-5.2-12.8-12.1C437.7,340.7,437.7,340.5,437.7,340.2z M420.8,310.4c0-5.2,4.2-9.5,9.5-9.5s9.5,4.2,9.5,9.5v7.4
		c0,5.2-4.2,9.5-9.5,9.5s-9.5-4.2-9.5-9.5V310.4z"/>
	<path class="st11" d="M430.3,300.9c5.2,0,9.5,4.2,9.5,9.4c0,0,0,0,0,0v7.4c0,5.2-4.2,9.5-9.5,9.5s-9.5-4.2-9.5-9.5v-7.4
		C420.8,305.1,425,300.9,430.3,300.9z"/>
	<path class="st11" d="M472.9,300.9c5.2,0,9.5,4.2,9.5,9.4c0,0,0,0,0,0v7.4c0,5.2-4.2,9.5-9.5,9.5s-9.5-4.2-9.5-9.5v-7.4
		C463.4,305.1,467.7,300.9,472.9,300.9z"/>
	<path class="st11" d="M450.1,352.7c-6.9,0-12.4-5.6-12.4-12.4c0,0,0,0,0-0.1h24.9C462.6,347.1,457,352.7,450.1,352.7
		C450.1,352.7,450.1,352.7,450.1,352.7z"/>
	<path class="st9" d="M429.7,220.2l66.7-9.6c23.9-3.5,46.7,13.5,49.6,37.8c4.4,37.6-11.6,74.9-35.3,99.4l-0.1-0.1l0,0v-16.3
		c0-21.4-17.4-38.8-38.8-38.8h-76.1l-3.3-22C389.1,246.3,405.9,223.6,429.7,220.2z"/>
	<path class="st10" d="M395.8,292.6v0.7l6.2,44.9c0.3,2.1,0.7,4.3,1.3,6.3c2.8,9.8,8.9,18.3,17.2,24.2c8,5,18.4,7.5,31,7.3
		c23.9,0.6,43.4-12.3,59.1-28.4v-16.3c0-21.4-17.4-38.8-38.8-38.8L395.8,292.6z M463.4,310.4c0-5.2,4.2-9.5,9.5-9.5s9.5,4.2,9.5,9.5
		v7.4c0,5.2-4.2,9.5-9.5,9.5s-9.5-4.2-9.5-9.5V310.4z M437.7,340.2h24.9c0.2,6.9-5.2,12.6-12.1,12.8c-6.9,0.2-12.6-5.2-12.8-12.1
		C437.7,340.7,437.7,340.5,437.7,340.2z M420.8,310.4c0-5.2,4.2-9.5,9.5-9.5s9.5,4.2,9.5,9.5v7.4c0,5.2-4.2,9.5-9.5,9.5
		s-9.5-4.2-9.5-9.5V310.4z"/>
	<path class="st8" d="M450.1,352.7c-6.9,0-12.4-5.6-12.4-12.4c0,0,0,0,0-0.1h24.9C462.6,347.1,457,352.7,450.1,352.7
		C450.1,352.7,450.1,352.7,450.1,352.7z"/>
	<path class="st11" d="M430.3,300.9c5.2,0,9.5,4.2,9.5,9.4c0,0,0,0,0,0v7.4c0,5.2-4.2,9.5-9.5,9.5s-9.5-4.2-9.5-9.5v-7.4
		C420.8,305.1,425,300.9,430.3,300.9z"/>
	<path class="st11" d="M472.9,300.9c5.2,0,9.5,4.2,9.5,9.4c0,0,0,0,0,0v7.4c0,5.2-4.2,9.5-9.5,9.5s-9.5-4.2-9.5-9.5v-7.4
		C463.4,305.1,467.7,300.9,472.9,300.9z"/>
	<path class="st15" d="M392.1,264.6c0,2,0.2,4,0.4,6l1,7h30.7c3.7,0,7,1.9,8.9,5.1s5.2,5.1,8.9,5.1h65.4c6.7,0,12.9,3.6,16.2,9.5
		l21.2-6.6c1.5-8.6,2.3-17.2,2.4-25.9L392.1,264.6L392.1,264.6z"/>
	<path class="st9" d="M504.1,163.7c10.8,5.7,15.3,15.5,18.1,26.5c1,3.7,2.7,6.8,7.1,5.8c4.6-1.1,4-4.9,3.2-8.4
		C529.3,173.2,518.2,163.3,504.1,163.7z"/>
	<path class="st9" d="M530.7,331.5c12.9,0.2,23.5-10.1,23.7-23c0.2-12.9-10.1-23.5-23-23.7c-12.9-0.2-23.5,10.1-23.7,23
		c0,0.1,0,0.2,0,0.4C507.6,320.9,517.9,331.4,530.7,331.5z"/>
	<path class="st10" d="M536.1,306.9c5-1.7,5.4-8.8,0.5-10.9c-2.3-1.1-4.9-1.2-7.3-0.3c-5.1,2-6.5,5.3-6.5,11.2
		c0,3.4,1.2,6.6,3.4,9.2c0-0.3-0.1-0.6-0.1-1C526.1,311.6,531.4,308.6,536.1,306.9z"/>
	<path class="st17" d="M377.1,251.6L377.1,251.6c-0.2-1.9-0.4-3.9-0.6-5.9c-0.2-2.1-0.2-4.3-0.2-6.5c0-17.8,5.2-35.2,14.9-50.1
		c1.6-2.4,3.2-4.7,5-7c0.7-0.9,1.4-1.8,2.2-2.6c0.4-0.4,0.8-0.9,1.1-1.3c0.8-0.9,1.5-1.7,2.3-2.5c3.2-3.3,6.6-6.4,10.2-9.1
		c0.9-0.7,1.8-1.3,2.8-2c6.6-4.7,13.8-8.5,21.3-11.3c0.7-0.2,1.3-0.5,1.9-0.9c0.5-0.3,1-0.6,1.4-0.9c0.2-0.1,0.4-0.3,0.6-0.5
		c1.7-1.4,3-3.2,3.8-5.3c0.9-2.2,2.3-4.1,4.2-5.5c0.8-0.6,1.6-1.1,2.5-1.6c0.6-0.3,1.2-0.5,1.8-0.7c0.6-0.2,1.3-0.3,2-0.4
		c0.7-0.1,1.3-0.1,2-0.1h22.9c1.4,0,2.7,0.2,4,0.6c0.6,0.2,1.2,0.4,1.8,0.7c1.8,0.9,3.4,2.1,4.6,3.7c0.4,0.5,0.8,1.1,1.1,1.6
		c0.3,0.6,0.6,1.2,0.9,1.8c1.2,3,3.6,5.5,6.5,7c0.4,0.2,0.8,0.4,1.3,0.6c7.1,2.6,13.8,6,20,10.3l1.4,1c9.3,6.6,17.4,15,23.7,24.6
		c0.6,1,1.2,1.9,1.8,2.9c0.9,1.5,1.7,3,2.5,4.5c6.9,13.2,10.6,27.8,10.5,42.7c0,4.2-0.3,8.3-0.9,12.4c1.3,0.6,2.5,1.3,3.5,2.3
		c2.3,2,3.7,5,3.7,8.1l0,0l-0.1,0.1c0,0.3-0.1,0.6-0.2,0.9c-0.4,1-1.2,1.9-2.2,2.3c-16,6.4-175,6.4-191,0l0,0
		C368.4,263.7,370.9,252.9,377.1,251.6z"/>
	<path class="st11" d="M447.8,179.6l-19.7,31.9l19.7,11.4l19.7-11.4L447.8,179.6z"/>
	<path class="st11" d="M447.8,230.9l-19.7-12.2l19.7,27.9l19.7-27.9L447.8,230.9z"/>
	<path class="st16" d="M565.7,261.9h0.1c-0.2-4.6-3-8.6-7.2-10.3c0.6-4.1,0.9-8.3,0.9-12.4c0-38.3-23.9-72.6-59.9-85.9
		c-3.1-1.2-5.6-3.4-7.2-6.3l9.6,20.6c11,23.7,16.1,49.7,15,75.8l-1.2,26l16.4-0.7c15.8-0.8,27.5-2,31.3-3.5
		C564.8,264.6,565.6,263.4,565.7,261.9z"/>
	<polygon class="st24" points="458.8,438.3 417.8,435.5 411.8,380.8 417.8,377.3 458.8,380 	"/>
	<polygon class="st2" points="418,378.7 413.9,381.3 453.4,383.9 453.1,440.4 457,437.4 457.4,381.4 	"/>
	<polygon class="st23" points="453.4,441.8 411.8,439 411.8,380.8 453.4,383.5 	"/>
	<path class="st9" d="M426.4,336.7c-11.6,0-21.1-9.4-21.1-21.1s9.4-21.1,21.1-21.1s21.1,9.4,21.1,21.1c0,0,0,0,0,0
		C447.4,327.3,438,336.7,426.4,336.7z M426.4,297.8c-9.8,0-17.8,8-17.8,17.8s8,17.8,17.8,17.8s17.8-8,17.8-17.8l0,0
		C444.1,305.8,436.2,297.9,426.4,297.8L426.4,297.8z"/>
	<path class="st9" d="M476.3,336.7c-11.6-0.3-20.9-9.9-20.6-21.5c0.2-11.3,9.3-20.4,20.6-20.6c11.6,0,19,9.4,19,21
		S483.9,336.7,476.3,336.7z M476.3,297.8c-9.8,0-17.8,8-17.8,17.8s8,17.8,17.8,17.8s17.8-8,17.8-17.8l0,0
		C494.1,305.8,486.1,297.9,476.3,297.8L476.3,297.8z"/>
	<path class="st18" d="M408.5,309.6c-2.1,10.3,4.6,20.3,14.8,22.4c10.3,2.1,20.3-4.6,22.4-14.8c0.3-1.3,0.4-2.5,0.4-3.8
		c0-1.1-0.1-2.2-0.3-3.2C444.9,308.5,412.3,306.4,408.5,309.6z"/>
	<path class="st19" d="M445.8,310.1c-1.8-10.3-11.7-17.2-22-15.4c-7.7,1.3-13.8,7.3-15.3,14.9C412.3,306.4,444.9,308.5,445.8,310.1z
		"/>
	<path class="st18" d="M458,309.6c-2.1,10.3,4.6,20.3,14.9,22.4c10.3,2.1,20.3-4.6,22.4-14.9c0.2-1.2,0.4-2.5,0.4-3.7
		c0-1.1-0.1-2.2-0.3-3.2C494.4,308.5,461.9,306.4,458,309.6z"/>
	<path class="st19" d="M495.4,310.1c-1.8-10.3-11.6-17.3-22-15.5c-7.7,1.3-13.8,7.3-15.4,14.9C461.9,306.4,494.4,308.5,495.4,310.1z
		"/>
	<path class="st11" d="M430.2,300.9L430.2,300.9c-5.2,0-9.5,4.3-9.5,9.5v7.4c0,5.2,4.3,9.5,9.5,9.5l0,0c5.2,0,9.5-4.3,9.5-9.5v-7.4
		C439.7,305.2,435.5,301,430.2,300.9C430.3,300.9,430.2,300.9,430.2,300.9z"/>
	<path class="st11" d="M472.9,300.9L472.9,300.9c-5.2,0-9.5,4.3-9.5,9.5v7.4c0,5.2,4.3,9.5,9.5,9.5l0,0c5.2,0,9.5-4.2,9.5-9.5v-7.4
		C482.4,305.2,478.2,301,472.9,300.9C472.9,300.9,472.9,300.9,472.9,300.9z"/>
	<path class="st20" d="M408.1,313.3c0-10.5,8.5-19,19-19s19,8.5,19,19"/>
	<path class="st20" d="M457.6,313.3c0-10.5,8.5-19,19-19s19,8.5,19,19"/>
	<path class="st20" d="M445.9,313.3c0.4-3.3,3.4-5.7,6.7-5.3c2.8,0.3,4.9,2.5,5.3,5.3"/>
	<path class="st9" d="M412,402.2c-4.2,3.1-19.1-7.4-22.6-5.3c-0.8,0.5,0.8,9.1,1.2,10.2c6.6,17.5,26.5,22.9,38,21.4
		c7.1-0.9-4.9,1.8-6.6-3.5C401.6,427.4,413.5,407.1,412,402.2z"/>
	<path class="st10" d="M429.1,415.1c-8.9,0.5-15.9-5.6-17-13c-5-3.1-15.9-7.1-21-4.7c-1.4,0.6,0.1,5.7,1.2,9.3
		c0.1,2.8,9.6,18.8,31.7,21.2c0.9,0.1,10.7,0.2,15.6-2.2C436.4,421.3,430.8,420.3,429.1,415.1z"/>
	<path class="st10" d="M426.6,415.3c5.6-6.1,14-5.2,14-5.2c1.7,0,3.7,0.6,3.7,2.7l0,0c0,1.4-4.9,5.4-4.9,5.4l0.1,0.1
		c0.9,1.4,2.4,2.2,4.1,2.3l6,0.2c2.2,0,2.8,2.3,2.2,4.5c-2.2,9.7-22.4,10.4-28.7,3.1C424.7,424.1,425.9,419.8,426.6,415.3z"/>
	<path class="st9" d="M423.9,429.4c-0.4-0.3-0.7-0.7-0.9-1.1c0,0-1.9-2.8-1.8-2.8c5.7,6.5,23.3,6.2,23.3,6.2
		C437.7,434.5,429.9,433.7,423.9,429.4z"/>
	<path class="st8" d="M389.9,403.4c0.1,0,19.9,0.8,22.3-1.2c-0.2-0.8-0.4-1.6-0.4-2.5L390,388.3
		C388.7,393.2,388.7,398.4,389.9,403.4z"/>
</g>
</svg>
