<svg id="fcb71749-37f2-4f73-a00c-fe87ec098c25" data-name="Capa 1" xmlns="http://www.w3.org/2000/svg" viewBox="0 0 740 340"><defs><style>.a567af59-6554-47db-8e3e-0d5ef393f60f{fill:#fff;}.f2c33aa3-fe40-4938-84fc-c8f5faab0d9f{fill:#2e3033;}.f4262e33-da2e-4616-a9d9-e9eda3636b3d{fill:#3d404e;}.acb54dd5-e1b9-40a2-8274-bf442e9e3019{fill:#15191f;}.b1506de7-aa51-428c-99eb-c68ba3108093{fill:#ededed;}.b5cda06a-d7c3-4857-9c93-de9f27a62b7e{fill:#ea8058;}.ba7d4c6d-1b39-4b6f-a99e-8d07e28103d4{fill:#f7a836;}.aebf2934-5f03-4ee4-9b7b-a3fcf992200a{fill:#f3946f;}.f9ba2e95-8039-4e47-87e9-689e85bfcb3c{fill:#472c53;}.ae21c72d-422b-4985-b43c-e524d89d5487{fill:#feca36;}.ab5e2c22-c3e1-4522-b9b3-abb71e112446{fill:#696b70;}</style></defs><path class="a567af59-6554-47db-8e3e-0d5ef393f60f" d="M412,220.2c-4.2-1.62-9,.15-9-.4.19-8.59,3.48-17,10.39-20.15C412,207.3,411.45,212.49,412,220.2Z"/><path class="f2c33aa3-fe40-4938-84fc-c8f5faab0d9f" d="M407.37,241.89s58.62-4.12,60.2-2.73c2.57,26.26,4.75,48.55,5.05,51.57h-23.8c-1.83-10-7-30.63-11.88-36.35-4.36,9.54-9.61,27.49-10.14,36.35H406.61Z"/><path class="f4262e33-da2e-4616-a9d9-e9eda3636b3d" d="M472.65,291.08H448.76c-7.89-23.67-11.82-36.7-11.82-36.7a241.53,241.53,0,0,0-9.59,36.7H404c2.38-28.24,2.62-30.66,3.38-49.19l60.2-2.73Z"/><path class="f2c33aa3-fe40-4938-84fc-c8f5faab0d9f" d="M436.94,254.38c-5.77,22.88-9.59,36.7-9.59,36.7h-4.41S430.14,272.32,436.94,254.38Z"/><polygon class="f2c33aa3-fe40-4938-84fc-c8f5faab0d9f" points="472.65 291.08 459.33 239.16 467.57 239.16 472.65 291.08 472.65 291.08"/><polygon class="f2c33aa3-fe40-4938-84fc-c8f5faab0d9f" points="419.7 291.1 418.64 293.9 418.64 295.95 418.64 295.95 418.64 293.53 414.87 295.95 396.54 295.95 396.54 291.1 419.7 291.1"/><polygon class="acb54dd5-e1b9-40a2-8274-bf442e9e3019" points="419.7 291.09 419.7 291.09 427.35 291.09 426.55 295.95 418.64 295.95 418.64 295.95 418.64 293.9 419.7 291.09"/><path class="f2c33aa3-fe40-4938-84fc-c8f5faab0d9f" d="M471.26,291.1V296h-9.15l-3.8-2.38V296h-8.38s-.5-1.86-1-4.85Z"/><polygon class="f2c33aa3-fe40-4938-84fc-c8f5faab0d9f" points="473.1 291.08 479.5 291.08 479.5 291.08 473.1 291.08 473.1 291.08"/><polygon class="acb54dd5-e1b9-40a2-8274-bf442e9e3019" points="479.5 291.09 479.5 291.09 479.5 295.95 471.26 295.95 471.26 295.95 471.26 291.09 479.5 291.09"/><path class="f2c33aa3-fe40-4938-84fc-c8f5faab0d9f" d="M432.07,235.06c-.72-4.07-1.55-8.32-1.93-12.58L461,238.29h-28.4C432.44,237.22,432.26,236.14,432.07,235.06Z"/><path class="b1506de7-aa51-428c-99eb-c68ba3108093" d="M421.31,189.6c18.41.88,30.44,4.09,37.3,6.63A58.32,58.32,0,0,0,460,202a56.73,56.73,0,0,1,1.82,6.39c.94,4.33,1.61,8.71,3.85,12.61a.83.83,0,0,0,.33.34,56.27,56.27,0,0,0,2.49,9.1c0,3.79-.08,7.68,0,11.52h-61.7l-.15-31.51S411.24,189.38,421.31,189.6Z"/><path class="b5cda06a-d7c3-4857-9c93-de9f27a62b7e" d="M468.48,241.92,466,231.46,462,229.78A13.8,13.8,0,0,1,454.57,212l6.09-20.47-17.49,9.58-13.41,12L421.35,193a14.54,14.54,0,0,0-14.53,14.53v34.33l61.66,0Z"/><path class="ba7d4c6d-1b39-4b6f-a99e-8d07e28103d4" d="M468.48,241.92v-17.1L462,222.46c-6.92-2.93-7.44-7.9-4.66-14.89l5.09-8.27-13.72-3.21-18.95,17-7.39-19.82c-8,0-15.92,6.28-15.92,14.29v34.33l62,0Z"/><rect class="f2c33aa3-fe40-4938-84fc-c8f5faab0d9f" x="406.37" y="229.03" width="62.21" height="6.22"/><path class="f2c33aa3-fe40-4938-84fc-c8f5faab0d9f" d="M433.26,231.49c9.56-23.26,28.52-37.73,28.71-37.87l-3.74-5c-.83.63-20.5,15.59-30.72,40.49Z"/><path class="f2c33aa3-fe40-4938-84fc-c8f5faab0d9f" d="M423.85,230.76l5.79-.9a120.72,120.72,0,0,0-12.42-36.63l-5.1,2.86A117.45,117.45,0,0,1,423.85,230.76Z"/><path class="b5cda06a-d7c3-4857-9c93-de9f27a62b7e" d="M402.69,174.63a16.25,16.25,0,1,0-16.25-16.25A16.26,16.26,0,0,0,402.69,174.63Z"/><path class="f2c33aa3-fe40-4938-84fc-c8f5faab0d9f" d="M432.26,189.85a8.64,8.64,0,0,1-8.64-8.67h17.31A8.67,8.67,0,0,1,432.26,189.85Z"/><path class="b5cda06a-d7c3-4857-9c93-de9f27a62b7e" d="M418.06,97.71l46.4-6.7a30.41,30.41,0,0,1,34.47,26.31c3.09,26.12-8.09,52.09-24.54,69.14a.12.12,0,0,0-.05-.05l0,0V175a27,27,0,0,0-27-27h-53l-2.27-15.33C389.81,115.86,401.48,100.09,418.06,97.71Z"/><path class="aebf2934-5f03-4ee4-9b7b-a3fcf992200a" d="M394.46,148.06v.51l4.35,31.22a39.54,39.54,0,0,0,.88,4.41,31,31,0,0,0,12,16.8c5.55,3.45,12.78,5.23,21.59,5.1,15.65,0,29.05-8,41.1-19.73V175a27,27,0,0,0-27-27Zm47.06,12.33a6.59,6.59,0,0,1,13.17,0v5.13a6.59,6.59,0,0,1-13.17,0Zm-17.9,20.79h17.31a8.66,8.66,0,1,1-17.31,0Zm-11.74-20.79a6.59,6.59,0,0,1,13.17,0v5.13a6.59,6.59,0,0,1-13.17,0Z"/><path class="a567af59-6554-47db-8e3e-0d5ef393f60f" d="M432.26,189.85a8.64,8.64,0,0,1-8.64-8.67h17.31A8.67,8.67,0,0,1,432.26,189.85Z"/><path class="f9ba2e95-8039-4e47-87e9-689e85bfcb3c" d="M391.9,128.56a32.36,32.36,0,0,0,.29,4.13l.69,4.87h21.34a7.18,7.18,0,0,1,6.18,3.55,7.2,7.2,0,0,0,6.19,3.55H472a12.89,12.89,0,0,1,11.23,6.58l14.77-4.6a113.55,113.55,0,0,0,1.7-18l-107.84,0Z"/><path class="b5cda06a-d7c3-4857-9c93-de9f27a62b7e" d="M488.28,175.1a16.25,16.25,0,1,0-16-16.24A16.13,16.13,0,0,0,488.28,175.1Z"/><path class="aebf2934-5f03-4ee4-9b7b-a3fcf992200a" d="M492.05,158a4.07,4.07,0,0,0,.37-7.57,6.52,6.52,0,0,0-5.09-.18c-3.55,1.39-4.54,3.69-4.54,7.79a9.8,9.8,0,0,0,2.38,6.37c0-.22,0-.44,0-.66C485.1,161.24,488.83,159.15,492.05,158Z"/><path class="ae21c72d-422b-4985-b43c-e524d89d5487" d="M381.5,119.52h0c-.17-1.35-.31-2.71-.41-4.08s-.17-3-.17-4.52a63.43,63.43,0,0,1,10.36-34.85c1.09-1.67,2.26-3.29,3.5-4.84.5-.62,1-1.24,1.52-1.84.26-.3.52-.6.79-.89.53-.6,1.07-1.18,1.62-1.75a63.86,63.86,0,0,1,7.09-6.36c.63-.49,1.27-1,1.92-1.42a64,64,0,0,1,14.84-7.85,9,9,0,0,0,1.34-.61,10.43,10.43,0,0,0,1-.64l.42-.34A9.31,9.31,0,0,0,428,45.85a9.27,9.27,0,0,1,1.42-2.39A9.6,9.6,0,0,1,430.87,42a9.19,9.19,0,0,1,1.74-1.08,9.48,9.48,0,0,1,1.28-.51,8.81,8.81,0,0,1,1.35-.31,9.36,9.36,0,0,1,1.41-.11h16a9.36,9.36,0,0,1,2.76.42,9.42,9.42,0,0,1,4.48,3,10.17,10.17,0,0,1,.79,1.15,9.28,9.28,0,0,1,.61,1.27,9.37,9.37,0,0,0,2.89,3.85,9.16,9.16,0,0,0,1.63,1,7.19,7.19,0,0,0,.9.39,63.17,63.17,0,0,1,13.87,7.14l1,.69A63.2,63.2,0,0,1,493,69.4a65.32,65.32,0,0,1,5,6.67c.44.67.86,1.34,1.27,2,.62,1,1.21,2.07,1.77,3.13a63.43,63.43,0,0,1,7.33,29.69,59.83,59.83,0,0,1-.63,8.63,8.77,8.77,0,0,1,2.43,1.58,7.6,7.6,0,0,1,2.59,5.6h0l0,0a2.48,2.48,0,0,1-.12.66A2.63,2.63,0,0,1,511,129c-11.12,4.46-121.71,4.46-132.83,0h0C375.4,128,377.14,120.42,381.5,119.52Z"/><path class="f2c33aa3-fe40-4938-84fc-c8f5faab0d9f" d="M430.68,69.42,417,91.63l13.72,7.94,13.73-7.94Z"/><path class="f2c33aa3-fe40-4938-84fc-c8f5faab0d9f" d="M430.68,105.1,417,96.65l13.72,19.43,13.73-19.43Z"/><path class="ba7d4c6d-1b39-4b6f-a99e-8d07e28103d4" d="M512.65,126.73h.08a8.05,8.05,0,0,0-5-7.18,59.83,59.83,0,0,0,.63-8.63,63.74,63.74,0,0,0-41.65-59.76,9.36,9.36,0,0,1-5-4.35l6.62,14.3a113.62,113.62,0,0,1,10.39,52.7l-.8,18.08,11.38-.48c11-.55,19.14-1.35,21.77-2.41A2.67,2.67,0,0,0,512.65,126.73Z"/><path class="aebf2934-5f03-4ee4-9b7b-a3fcf992200a" d="M468.74,206.12c1.46,2.44,5.33,18.93-7,25.25-6.43,3.3-14.53,3.27-21.29.7l-15.82-6c7.6-6.92,17.43-8.38,27.41-6,6-5.22,3.6-16.21,7-19.64C462.67,196.71,466.93,203.06,468.74,206.12Z"/><path class="b5cda06a-d7c3-4857-9c93-de9f27a62b7e" d="M448.71,219.42a2.34,2.34,0,0,1-.84.19.85.85,0,0,0-.23,0c-6.3.36-12.72,3.49-14.76,9.52L424.65,226C431.4,219.9,439.9,218.06,448.71,219.42Z"/><path class="b1506de7-aa51-428c-99eb-c68ba3108093" d="M452.88,219c4.07-5.6,2.62-15.36,5.9-18.55,2.79-2.73,8.66-1.07,11.44,2.9,3.88,5.53,3.52,15.56-3.83,24.45C463.8,222.62,458.85,218.63,452.88,219Z"/><path class="aebf2934-5f03-4ee4-9b7b-a3fcf992200a" d="M412,220.24s0,.1,0,.15c8.45-7.68,26.52-12.54,35.51-.93-5.28-.81-11.72-.16-13.94,1.4-3.76,2.67-21.59,22.17-32.13,5.71C403,223.17,407.24,219.63,412,220.24Z"/><path class="b1506de7-aa51-428c-99eb-c68ba3108093" d="M409.34,199.56c-11,1.54-11.12,18.6-7.85,27A10.94,10.94,0,0,1,412,220.2S406.26,209,409.34,199.56Z"/><path class="b5cda06a-d7c3-4857-9c93-de9f27a62b7e" d="M398.13,175.49c-.35-.93-.9-.8-1.32-1.7.5,1.09-.31-.72-.35-.83a44.83,44.83,0,0,1-2.2-9.51c-.68-4.62-1.17-9.27-1.74-13.9,8.28-.08,20.54.64,25.12,1.45,4.66.64,10.15,4.07,10.15,4.07a15.93,15.93,0,0,1,3.08-.46,12.64,12.64,0,0,1,3.08.46s5.48-3.43,10.15-4.07c6.89-1.22,31.22-2.24,33.12-.64,3.87,3.26-1.79,7.91-2.2,8.42-1.51,10.38-4.17,19.48-13.51,20.9a37.82,37.82,0,0,1-13.54-.05c-12-3.38-12.54-13.21-15-18.66a2.22,2.22,0,0,0-2-.67,3.72,3.72,0,0,0-2.18.67c-2.49,5.45-3,15.28-15,18.66a37.87,37.87,0,0,1-13.55.05,11.26,11.26,0,0,1-1.47-.34C398.38,178.14,398.49,176.44,398.13,175.49Z"/><path class="acb54dd5-e1b9-40a2-8274-bf442e9e3019" d="M384.52,147.52c1.89-1.6,26.22-.58,33.12.64,4.66.64,10.15,4.07,10.15,4.07a15.93,15.93,0,0,1,3.08-.46,12.12,12.12,0,0,1,3.08.46s5.48-3.43,10.15-4.07c6.89-1.22,31.22-2.24,33.12-.64,3.87,3.26-1.79,7.91-2.2,8.41-1.51,10.39-4.17,19.49-13.51,20.91a37.82,37.82,0,0,1-13.54-.05c-12-3.38-12.54-13.21-15-18.66a2.19,2.19,0,0,0-2-.67,3.64,3.64,0,0,0-2.18.67c-2.49,5.45-3,15.28-15,18.66a37.87,37.87,0,0,1-13.55.05c-9.34-1.42-12-10.52-13.51-20.91C386.3,155.43,380.65,150.78,384.52,147.52Z"/><path class="f2c33aa3-fe40-4938-84fc-c8f5faab0d9f" d="M470.45,159.68c-2.38,14.37-10.14,13.73-19.31,13.73s-13.59-12.44-14-14.73c-1.19-7.46,17.14-8.14,26.31-8.14S470.83,157.39,470.45,159.68Z"/><path class="ab5e2c22-c3e1-4522-b9b3-abb71e112446" d="M437.36,159.45a7.11,7.11,0,0,1-.18-.77c-1.19-7.46,17.14-8.14,26.31-8.14,8.84,0,7.46,6.36,7,8.87C469.68,156,438,158,437.36,159.45Z"/><path class="f2c33aa3-fe40-4938-84fc-c8f5faab0d9f" d="M391.29,159.68c2.38,14.37,10.13,13.73,19.3,13.73s13.6-12.44,14-14.73c1.19-7.46-17.14-8.14-26.31-8.14S390.91,157.39,391.29,159.68Z"/><path class="ab5e2c22-c3e1-4522-b9b3-abb71e112446" d="M424.38,159.45c.08-.32.14-.58.17-.77,1.19-7.46-17.14-8.14-26.31-8.14-8.84,0-7.45,6.36-7,8.87C392.05,156,423.77,158,424.38,159.45Z"/><path class="f9ba2e95-8039-4e47-87e9-689e85bfcb3c" d="M328.68,225.66H261.93a19.87,19.87,0,0,1-19.87-19.87V123.63h86.62v102Z"/><path class="f2c33aa3-fe40-4938-84fc-c8f5faab0d9f" d="M305.62,234.77c.73-4.07,1.55-8.32,1.94-12.58L276.67,238h28.4C305.25,236.92,305.43,235.85,305.62,234.77Z"/><path class="b1506de7-aa51-428c-99eb-c68ba3108093" d="M316.39,189.3c-18.42.89-30.44,4.09-37.31,6.63a58.51,58.51,0,0,1-1.39,5.78,59.34,59.34,0,0,0-1.81,6.38c-.94,4.34-1.61,8.72-3.86,12.62a.9.9,0,0,1-.33.34,55.12,55.12,0,0,1-2.49,9.09c0,3.8.08,7.69,0,11.53h61.69l.15-31.51S326.45,189.09,316.39,189.3Z"/><polygon class="f2c33aa3-fe40-4938-84fc-c8f5faab0d9f" points="278.89 293.35 278.82 293.17 273.21 296 278.89 293.35"/><polygon class="f2c33aa3-fe40-4938-84fc-c8f5faab0d9f" points="301.69 291.02 277.82 290.62 282.69 296 301.75 296 301.69 291.02"/><polygon class="acb54dd5-e1b9-40a2-8274-bf442e9e3019" points="278.92 296 278.89 293.35 278.92 290.62 277.79 290.55 272.34 290.66 273.21 296 273.21 296 278.92 296"/><path class="f2c33aa3-fe40-4938-84fc-c8f5faab0d9f" d="M269.76,290.49a.2.2,0,0,1-.08-.14l-.24-17.6-2.73,1.07-2,0-.11-7.91h0l.11,7.91,2.41,0-2.36,3.8L265,296h4.86Z"/><polygon class="acb54dd5-e1b9-40a2-8274-bf442e9e3019" points="264.66 273.85 266.71 273.82 269.44 272.75 269.51 272.72 269.41 265.07 264.55 265.94 264.55 265.94 264.66 273.85"/><path class="f2c33aa3-fe40-4938-84fc-c8f5faab0d9f" d="M272.71,238.42c-3.51,3-3.55,17.06-2.31,29.53,0,.22,1.48.44,1.5.66,1.17,11.53,1.31,22.35,1.31,22.35l24.41-.58,4.51-49S273.62,237.53,272.71,238.42Z"/><polygon class="f4262e33-da2e-4616-a9d9-e9eda3636b3d" points="275.86 265.62 271.73 265.44 272.4 290.98 297.62 290.38 302.13 241.37 275.86 265.62"/><path class="f4262e33-da2e-4616-a9d9-e9eda3636b3d" d="M330.31,241.3s-47.34-.14-52.15-.14c-1.42,3.55-5.3,9.43-4.86,23.92a41.31,41.31,0,0,1-4.26,0l.35,25.42h2.12l.93.69,25.18-.1.23-2.64C315.21,284.06,333.5,272.23,330.31,241.3Z"/><path class="f2c33aa3-fe40-4938-84fc-c8f5faab0d9f" d="M269,265.07l.1,7.33c2,.11,32.31,1.42,33.09-21.78C299.63,268.61,269,265.07,269,265.07Z"/><path class="b5cda06a-d7c3-4857-9c93-de9f27a62b7e" d="M269.22,241.63l2.52-10.46,3.95-1.69a13.78,13.78,0,0,0,7.43-17.82L277,191.19l17.5,9.58,13.4,12,8.42-20.06a14.55,14.55,0,0,1,14.53,14.53V241.6l-61.66,0Z"/><path class="ba7d4c6d-1b39-4b6f-a99e-8d07e28103d4" d="M269.22,241.63l0-17.1,6.49-2.37c6.92-2.92,7.44-7.89,4.66-14.88L275.26,199,289,195.8l18.95,17L315.32,193c8,0,15.92,6.28,15.92,14.29V241.6l-62,0Z"/><rect class="f2c33aa3-fe40-4938-84fc-c8f5faab0d9f" x="269.11" y="228.74" width="62.21" height="6.22"/><path class="f2c33aa3-fe40-4938-84fc-c8f5faab0d9f" d="M304.43,231.2c-9.58-23.33-28.51-37.73-28.7-37.87l3.73-5c.84.63,20.5,15.59,30.73,40.49Z"/><path class="f2c33aa3-fe40-4938-84fc-c8f5faab0d9f" d="M313.84,230.47l-5.78-.9a120.66,120.66,0,0,1,12.41-36.64l5.11,2.87h0A116.68,116.68,0,0,0,313.84,230.47Z"/><path class="aebf2934-5f03-4ee4-9b7b-a3fcf992200a" d="M269,205.83c-1.45,2.44-5.32,18.93,7,25.25,6.43,3.3,14.54,3.27,21.29.69l15.83-6c-7.61-6.91-17.43-8.37-27.42-6-6-5.22-3.6-16.22-7-19.65C275,196.42,270.77,202.77,269,205.83Z"/><path class="b5cda06a-d7c3-4857-9c93-de9f27a62b7e" d="M289,219.13a2.35,2.35,0,0,0,.85.19,1.46,1.46,0,0,1,.22,0c6.31.36,12.72,3.5,14.77,9.53l8.23-3.14C306.3,219.61,297.79,217.77,289,219.13Z"/><path class="b1506de7-aa51-428c-99eb-c68ba3108093" d="M284.82,218.7c-4.08-5.6-2.63-15.36-5.91-18.56-2.78-2.72-8.66-1.06-11.44,2.9-3.87,5.54-3.51,15.57,3.84,24.46C273.9,222.32,278.84,218.33,284.82,218.7Z"/><path class="aebf2934-5f03-4ee4-9b7b-a3fcf992200a" d="M325.66,220a.76.76,0,0,0,0,.15c-8.46-7.68-26.52-12.54-35.52-.93,5.28-.82,11.73-.17,13.94,1.4,3.77,2.67,21.59,22.17,32.13,5.71C334.73,222.88,330.45,219.34,325.66,220Z"/><path class="b1506de7-aa51-428c-99eb-c68ba3108093" d="M328.35,199.27c11,1.53,11.12,18.6,7.85,27a10.94,10.94,0,0,0-10.54-6.37S331.44,208.72,328.35,199.27Z"/><path class="b5cda06a-d7c3-4857-9c93-de9f27a62b7e" d="M340.06,174.5a14.35,14.35,0,1,0-14.12-14.34A14.25,14.25,0,0,0,340.06,174.5Z"/><path class="b5cda06a-d7c3-4857-9c93-de9f27a62b7e" d="M347.12,157.19c0,28.91-20.71,45.93-46.25,45.93s-46.26-17-46.26-45.93,20.72-58.8,46.26-58.8S347.12,128.25,347.12,157.19Z"/><path class="aebf2934-5f03-4ee4-9b7b-a3fcf992200a" d="M344.16,159.57H286.74a14.15,14.15,0,0,0-14.16,14.16v20.9a48.8,48.8,0,0,0,28.29,8.49c19.8,0,36.7-10.25,43.29-28.33V159.57Z"/><path class="f9ba2e95-8039-4e47-87e9-689e85bfcb3c" d="M293.29,153H242V116.65l73.51,14.12A22.28,22.28,0,0,1,293.29,153Z"/><path class="f9ba2e95-8039-4e47-87e9-689e85bfcb3c" d="M328.1,153H311.77V128.87h40.48A24.13,24.13,0,0,1,328.1,153Z"/><path class="ae21c72d-422b-4985-b43c-e524d89d5487" d="M229.58,131.8a2.43,2.43,0,0,0,1.65,2.23c11.13,4.46,121.71,4.46,132.84,0a2.56,2.56,0,0,0,1.35-3.59,7.85,7.85,0,0,0-4.65-5.89,59.54,59.54,0,0,0,.59-8.6,63.66,63.66,0,0,0-41.64-59.76,9.35,9.35,0,0,1-5.42-5.27,9.3,9.3,0,0,0-8.67-5.85h-16A9.29,9.29,0,0,0,281,51a9.29,9.29,0,0,1-5.42,5.27A63.7,63.7,0,0,0,233.94,116a61.41,61.41,0,0,0,.62,8.63,8.06,8.06,0,0,0-5,7.18Z"/><path class="f2c33aa3-fe40-4938-84fc-c8f5faab0d9f" d="M292.71,96.7l13.69,7.94,13.72-7.94L306.4,74.49Z"/><path class="f2c33aa3-fe40-4938-84fc-c8f5faab0d9f" d="M292.71,101.72l13.69,19.43,13.72-19.43-13.72,8.45Z"/><path class="ba7d4c6d-1b39-4b6f-a99e-8d07e28103d4" d="M231.23,134c2.6,1.06,10.72,1.86,21.77,2.41l11.39.48-.81-18.08A113.68,113.68,0,0,1,274,66.15l6.63-14.28a9.08,9.08,0,0,1-5,4.36A63.72,63.72,0,0,0,234,116a61.41,61.41,0,0,0,.62,8.63,8.05,8.05,0,0,0-5,7.18h.08A2.35,2.35,0,0,0,231.23,134Z"/><path class="b5cda06a-d7c3-4857-9c93-de9f27a62b7e" d="M258.75,174.5a14.35,14.35,0,1,0-14.13-14.34A14.26,14.26,0,0,0,258.75,174.5Z"/><path class="aebf2934-5f03-4ee4-9b7b-a3fcf992200a" d="M261.6,164.51a3.7,3.7,0,0,1,0,.59,8.69,8.69,0,0,0,2.08-5.64,8.58,8.58,0,0,0-5.38-8,4.79,4.79,0,0,0-4.17.33s0,0,0,0a5.05,5.05,0,0,0-2.42,3.37,12.09,12.09,0,0,0-.26,2.56,7.55,7.55,0,0,0,0,.95,6.47,6.47,0,0,1,3.51-1A6.74,6.74,0,0,1,261.6,164.51Z"/><path class="a567af59-6554-47db-8e3e-0d5ef393f60f" d="M306.29,191.26a8.67,8.67,0,0,0,8.67-8.67H297.65A8.64,8.64,0,0,0,306.29,191.26Z"/><path class="b5cda06a-d7c3-4857-9c93-de9f27a62b7e" d="M341.68,180.49c.35-.93-.48-1.14-.06-2-.51,1.09.3-.72.34-.83a45.62,45.62,0,0,0,2.21-9.51c.68-4.62,1.17-9.27,1.73-13.91-8.28-.07-20.53.65-25.11,1.45-4.67.65-10.15,4.08-10.15,4.08a16.09,16.09,0,0,0-3.08-.46,12.12,12.12,0,0,0-3.08.46s-5.49-3.43-10.15-4.08c-6.9-1.21-31.23-2.23-33.12-.64-3.87,3.27,1.78,7.92,2.19,8.42,1.51,10.38,4.17,19.49,13.51,20.91a38.34,38.34,0,0,0,13.55-.05c12-3.38,12.54-13.21,15-18.66a2.15,2.15,0,0,1,1.95-.67,3.69,3.69,0,0,1,2.19.67c2.49,5.45,3,15.28,15,18.66a38.28,38.28,0,0,0,13.54.05,12,12,0,0,0,1.3-.26A27.36,27.36,0,0,0,341.68,180.49Z"/><path class="acb54dd5-e1b9-40a2-8274-bf442e9e3019" d="M353.91,152.17c-1.9-1.59-26.23-.57-33.12.64-4.67.64-10.15,4.07-10.15,4.07a16.48,16.48,0,0,0-3.08-.45,12.33,12.33,0,0,0-3.08.45s-5.49-3.43-10.15-4.07c-6.9-1.21-31.23-2.23-33.12-.64-3.87,3.26,1.78,7.92,2.19,8.42,1.51,10.38,4.17,19.48,13.51,20.9a38.12,38.12,0,0,0,13.55,0c12-3.38,12.54-13.22,15-18.67a2.19,2.19,0,0,1,1.95-.67,3.78,3.78,0,0,1,2.19.67c2.49,5.45,3,15.29,15,18.67a38.07,38.07,0,0,0,13.54,0c9.34-1.42,12-10.52,13.51-20.9C352.12,160.09,357.78,155.43,353.91,152.17Z"/><path class="f2c33aa3-fe40-4938-84fc-c8f5faab0d9f" d="M268,164.34c2.38,14.36,10.13,13.72,19.3,13.72s13.6-12.43,14-14.73c1.19-7.45-17.14-8.14-26.31-8.14S267.6,162.05,268,164.34Z"/><path class="ab5e2c22-c3e1-4522-b9b3-abb71e112446" d="M301.07,164.1c.08-.31.14-.58.17-.77,1.19-7.45-17.14-8.14-26.31-8.14-8.84,0-7.45,6.37-7,8.88C268.74,160.62,300.46,162.63,301.07,164.1Z"/><path class="f2c33aa3-fe40-4938-84fc-c8f5faab0d9f" d="M347.14,164.34c-2.38,14.36-10.13,13.72-19.31,13.72s-13.59-12.43-14-14.73c-1.19-7.45,17.14-8.14,26.32-8.14S347.52,162.05,347.14,164.34Z"/><path class="ab5e2c22-c3e1-4522-b9b3-abb71e112446" d="M314.05,164.1a6.6,6.6,0,0,1-.18-.77c-1.19-7.45,17.14-8.14,26.32-8.14,8.83,0,7.45,6.37,7,8.88C346.38,160.62,314.66,162.63,314.05,164.1Z"/></svg>