<?xml version="1.0" encoding="UTF-8"?>
<svg width="211px" height="36px" viewBox="0 0 211 36" version="1.1" xmlns="http://www.w3.org/2000/svg" xmlns:xlink="http://www.w3.org/1999/xlink">
    <!-- Generator: Sketch 51.3 (57544) - http://www.bohemiancoding.com/sketch -->
    <title>decentraland</title>
    <desc>Created with Sketch.</desc>
    <defs></defs>
    <g id="Page-1" stroke="none" stroke-width="1" fill="none" fill-rule="evenodd" fill-opacity="0.57">
        <g id="Buidler-Web-v1" transform="translate(-708.000000, -2135.000000)" fill="#8B8B8B" fill-rule="nonzero">
            <g id="Used-By" transform="translate(360.000000, 2050.000000)">
                <g id="Group-2" transform="translate(137.000000, 78.000000)">
                    <g id="decentraland" transform="translate(211.000000, 7.000000)">
                        <path d="M12.4722271,10.4566025 L1.19705214,23.9850521 C0.422488992,22.004635 0,19.8569826 0,17.603708 C0,7.87765933 7.87765933,0 17.603708,0 C27.3297567,0 35.207416,7.87765933 35.207416,17.603708 C35.207416,22.9816408 32.795708,27.7962549 28.9933071,31.0265353 L6.21410892,31.0265353 C5.21949942,30.1727555 4.31290846,29.2133534 3.5207416,28.1659328 L23.6241761,28.1659328 L23.6241761,20.5435272 L29.9703129,28.1659328 L31.6866744,28.1659328 L23.6153743,18.4838934 L21.3885052,21.159657 L12.4722271,10.4566025 Z M23.6153743,7.0414832 C21.1860626,7.0414832 19.2144473,9.01309849 19.2144473,11.4424102 C19.2144473,13.8717219 21.1860626,15.8433372 23.6153743,15.8433372 C26.044686,15.8433372 28.0163013,13.8717219 28.0163013,11.4424102 C28.0163013,9.01309849 26.044686,7.0414832 23.6153743,7.0414832 Z M12.4722271,3.85521205 C11.2575713,3.85521205 10.2717636,4.8410197 10.2717636,6.05567555 C10.2717636,7.2703314 11.2575713,8.25613905 12.4722271,8.25613905 C13.686883,8.25613905 14.6726906,7.2703314 14.6726906,6.05567555 C14.6726906,4.8410197 13.686883,3.85521205 12.4722271,3.85521205 Z M7.98328158,32.3468134 L27.2241344,32.3468134 C24.4603523,34.1511935 21.1508552,35.207416 17.603708,35.207416 C14.0565608,35.207416 10.7470637,34.1511935 7.98328158,32.3468134 Z M20.5347254,22.1894739 L16.6531078,26.8456547 L2.62295249,26.8456547 C2.06843569,25.9390637 1.58433372,24.9884635 1.19705214,23.9850521 L12.4722271,23.9850521 L12.4722271,12.5162364 L20.5347254,22.1894739 Z" id="144"></path>
                        <path d="M47.4322132,7.98136663 L54.5659276,7.98136663 C60.3236633,7.98136663 63.7302121,11.4522157 63.7302121,17.5295261 C63.7302121,23.6068365 60.3370224,27.1707734 54.5659276,27.1707734 L47.4322132,27.1707734 L47.4322132,7.98136663 Z M50.8788393,10.88039 L50.8788393,24.2717501 L54.205234,24.2717501 C58.0793485,24.2717501 60.2167912,21.9179559 60.2167912,17.5428243 C60.2167912,13.2474824 58.0526305,10.88039 54.205234,10.88039 L50.8788393,10.88039 Z M72.4269314,15.0161526 C70.4765151,15.0161526 69.0604594,16.4257695 68.9135103,18.5002999 L75.8334804,18.5002999 C75.7666854,16.3991729 74.4040657,15.0161526 72.4269314,15.0161526 Z M75.8468395,22.8488349 L78.972849,22.8488349 C78.5453605,25.535086 75.9537116,27.3835458 72.5471625,27.3835458 C68.2322005,27.3835458 65.5603973,24.5377154 65.5603973,19.9631099 C65.5603973,15.3885043 68.2455596,12.4362878 72.4269314,12.4362878 C76.5147901,12.4362878 79.1064391,15.2156267 79.1064391,19.6173548 L79.1064391,20.7078131 L68.8867922,20.7078131 L68.8867922,20.9072872 C68.8867922,23.2477831 70.383002,24.803681 72.6139576,24.803681 C74.2170395,24.803681 75.4594278,24.0456794 75.8468395,22.8488349 Z M94.1219727,17.7821932 L90.9826039,17.7821932 C90.7421417,16.2528919 89.5932665,15.1358371 87.7230043,15.1358371 C85.5321258,15.1358371 84.102711,16.9709986 84.102711,19.8966185 C84.102711,22.9153263 85.5454848,24.6839966 87.7363633,24.6839966 C89.5131124,24.6839966 90.6887056,23.7664157 90.9959629,22.11743 L94.1353317,22.11743 C93.8547924,25.2957172 91.3566566,27.3835458 87.7096453,27.3835458 C83.4748374,27.3835458 80.72288,24.5377154 80.72288,19.8966185 C80.72288,15.3486094 83.4614784,12.4362878 87.6829272,12.4362878 C91.5036057,12.4362878 93.8948694,14.790082 94.1219727,17.7821932 Z M102.444639,15.0161526 C100.494223,15.0161526 99.0781676,16.4257695 98.9312182,18.5002999 L105.851188,18.5002999 C105.784393,16.3991729 104.421774,15.0161526 102.444639,15.0161526 Z M105.864547,22.8488349 L108.990557,22.8488349 C108.563068,25.535086 105.971419,27.3835458 102.56487,27.3835458 C98.2499085,27.3835458 95.5781054,24.5377154 95.5781054,19.9631099 C95.5781054,15.3885043 98.2632675,12.4362878 102.444639,12.4362878 C106.532498,12.4362878 109.124147,15.2156267 109.124147,19.6173548 L109.124147,20.7078131 L98.9045001,20.7078131 L98.9045001,20.9072872 C98.9045001,23.2477831 100.40071,24.803681 102.631666,24.803681 C104.234747,24.803681 105.477136,24.0456794 105.864547,22.8488349 Z M111.355103,27.1707734 L111.355103,12.6357619 L114.547907,12.6357619 L114.547907,15.1624336 L114.614703,15.1624336 C115.483039,13.3937634 116.95253,12.4628844 119.196845,12.4628844 C122.429727,12.4628844 124.273271,14.49752 124.273271,17.8619829 L124.273271,27.1707734 L120.946876,27.1707734 L120.946876,18.5135982 C120.946876,16.4390677 119.958309,15.2688198 117.954456,15.2688198 C115.910527,15.2688198 114.681498,16.7050332 114.681498,18.8327567 L114.681498,27.1707734 L111.355103,27.1707734 Z M127.973718,9.39098348 L131.300113,9.39098348 L131.300113,12.6357619 L134.065429,12.6357619 L134.065429,15.2023284 L131.300113,15.2023284 L131.300113,22.8621332 C131.300113,24.0589777 131.861192,24.6308033 133.063503,24.6308033 C133.384119,24.6308033 133.838326,24.5909087 134.05207,24.5643122 L134.05207,27.104282 C133.691377,27.1840718 133.010067,27.2372648 132.302039,27.2372648 C129.202748,27.2372648 127.973718,26.1202098 127.973718,23.3142745 L127.973718,15.2023284 L125.983225,15.2023284 L125.983225,12.6357619 L127.973718,12.6357619 L127.973718,9.39098348 Z M136.416616,27.1707734 L136.416616,12.6357619 L139.609421,12.6357619 L139.609421,15.1624336 L139.676216,15.1624336 C140.143781,13.4602548 141.452965,12.4761826 143.176278,12.4761826 C143.617125,12.4761826 143.991178,12.5293757 144.244999,12.6091654 L144.244999,15.6145749 C143.96446,15.5081887 143.443458,15.4283991 142.869021,15.4283991 C140.918604,15.4283991 139.743011,16.6917349 139.743011,18.7396688 L139.743011,27.1707734 L136.416616,27.1707734 Z M150.991302,24.7903827 C153.008513,24.7903827 154.5448,23.5403451 154.5448,21.7716749 L154.5448,20.6679183 L151.205046,20.8806907 C149.38822,21.0003751 148.426371,21.6918853 148.426371,22.8754315 C148.426371,24.0456794 149.441656,24.7903827 150.991302,24.7903827 Z M150.016094,27.3303527 C147.143905,27.3303527 145.086617,25.588279 145.086617,23.0084142 C145.086617,20.4152511 147.07711,18.9391429 150.75084,18.7130723 L154.5448,18.4870017 L154.5448,17.4231399 C154.5448,15.8805403 153.502797,15.0427492 151.712689,15.0427492 C150.20312,15.0427492 149.12104,15.8273472 148.893937,16.9975952 L145.821363,16.9975952 C145.901517,14.3379407 148.386294,12.4362878 151.819561,12.4362878 C155.466572,12.4362878 157.831118,14.3246425 157.831118,17.2103675 L157.831118,27.1707734 L154.638313,27.1707734 L154.638313,24.8302776 L154.558159,24.8302776 C153.756618,26.3861754 151.953151,27.3303527 150.016094,27.3303527 Z M160.730024,27.1707734 L160.730024,7.09038239 L164.056419,7.09038239 L164.056419,27.1707734 L160.730024,27.1707734 Z M172.285573,24.7903827 C174.302784,24.7903827 175.839071,23.5403451 175.839071,21.7716749 L175.839071,20.6679183 L172.499317,20.8806907 C170.682491,21.0003751 169.720642,21.6918853 169.720642,22.8754315 C169.720642,24.0456794 170.735927,24.7903827 172.285573,24.7903827 Z M171.310365,27.3303527 C168.438176,27.3303527 166.380888,25.588279 166.380888,23.0084142 C166.380888,20.4152511 168.371381,18.9391429 172.045111,18.7130723 L175.839071,18.4870017 L175.839071,17.4231399 C175.839071,15.8805403 174.797068,15.0427492 173.00696,15.0427492 C171.497391,15.0427492 170.415311,15.8273472 170.188207,16.9975952 L167.115634,16.9975952 C167.195788,14.3379407 169.680565,12.4362878 173.113832,12.4362878 C176.760843,12.4362878 179.125389,14.3246425 179.125389,17.2103675 L179.125389,27.1707734 L175.932584,27.1707734 L175.932584,24.8302776 L175.85243,24.8302776 C175.050889,26.3861754 173.247422,27.3303527 171.310365,27.3303527 Z M181.917423,27.1707734 L181.917423,12.6357619 L185.110228,12.6357619 L185.110228,15.1624336 L185.177023,15.1624336 C186.045359,13.3937634 187.514851,12.4628844 189.759165,12.4628844 C192.992047,12.4628844 194.835591,14.49752 194.835591,17.8619829 L194.835591,27.1707734 L191.509196,27.1707734 L191.509196,18.5135982 C191.509196,16.4390677 190.520629,15.2688198 188.516777,15.2688198 C186.472847,15.2688198 185.243818,16.7050332 185.243818,18.8327567 L185.243818,27.1707734 L181.917423,27.1707734 Z M203.064745,27.3303527 C199.417733,27.3303527 196.986393,24.4180311 196.986393,19.8966185 C196.986393,15.3885043 199.431092,12.4761826 203.051386,12.4761826 C205.16211,12.4761826 206.805269,13.473553 207.593451,15.082644 L207.673605,15.082644 L207.673605,7.09038239 L211,7.09038239 L211,27.1707734 L207.7404,27.1707734 L207.7404,24.6972947 L207.673605,24.6972947 C206.885423,26.319684 205.202187,27.3303527 203.064745,27.3303527 Z M204.039953,15.228925 C201.835715,15.228925 200.392942,17.0640865 200.392942,19.9099168 C200.392942,22.7690453 201.835715,24.5776103 204.039953,24.5776103 C206.244191,24.5776103 207.686964,22.7291505 207.686964,19.9099168 C207.686964,17.1039814 206.230832,15.228925 204.039953,15.228925 Z" id="Decentraland"></path>
                    </g>
                </g>
            </g>
        </g>
    </g>
</svg>