<?xml version="1.0" encoding="UTF-8"?>
<svg width="265px" height="35px" viewBox="0 0 265 35" version="1.1" xmlns="http://www.w3.org/2000/svg" xmlns:xlink="http://www.w3.org/1999/xlink">
    <!-- Generator: Sketch 51.3 (57544) - http://www.bohemiancoding.com/sketch -->
    <title>header</title>
    <desc>Created with Sketch.</desc>
    <defs>
        <linearGradient x1="-8.13589707e-14%" y1="50%" x2="100%" y2="50%" id="linearGradient-1">
            <stop stop-color="#923967" offset="0%"></stop>
            <stop stop-color="#9B4568" offset="15%"></stop>
            <stop stop-color="#B4656C" offset="41%"></stop>
            <stop stop-color="#DB9872" offset="76%"></stop>
            <stop stop-color="#F9C077" offset="100%"></stop>
        </linearGradient>
        <linearGradient x1="-9.47274352%" y1="-7.79287803%" x2="125.498957%" y2="123.327026%" id="linearGradient-2">
            <stop stop-color="#923967" offset="0%"></stop>
            <stop stop-color="#191F54" offset="100%"></stop>
        </linearGradient>
        <linearGradient x1="-9.76491863%" y1="94.3726553%" x2="127.016275%" y2="15.5689871%" id="linearGradient-3">
            <stop stop-color="#2E99E6" offset="0%"></stop>
            <stop stop-color="#2E96E2" offset="14%"></stop>
            <stop stop-color="#2D8CD5" offset="28%"></stop>
            <stop stop-color="#2C7DC1" offset="43%"></stop>
            <stop stop-color="#2B66A4" offset="57%"></stop>
            <stop stop-color="#2A4A7F" offset="72%"></stop>
            <stop stop-color="#282C57" offset="85%"></stop>
        </linearGradient>
        <linearGradient x1="1%" y1="2%" x2="3%" y2="1%" id="linearGradient-4">
            <stop stop-color="#4E85BC" offset="0%"></stop>
            <stop stop-color="#4D83B9" offset="27%"></stop>
            <stop stop-color="#4A7BB1" offset="44%"></stop>
            <stop stop-color="#456FA3" offset="58%"></stop>
            <stop stop-color="#3D5D8F" offset="70%"></stop>
            <stop stop-color="#334675" offset="81%"></stop>
            <stop stop-color="#282C57" offset="90%"></stop>
        </linearGradient>
        <linearGradient x1="0%" y1="50%" x2="100%" y2="50%" id="linearGradient-5">
            <stop stop-color="#9C5C7D" offset="0%"></stop>
            <stop stop-color="#A7687F" offset="18%"></stop>
            <stop stop-color="#C38885" offset="50%"></stop>
            <stop stop-color="#F0BB8D" offset="93%"></stop>
            <stop stop-color="#F8C58F" offset="100%"></stop>
        </linearGradient>
        <linearGradient x1="50%" y1="100%" x2="50%" y2="0%" id="linearGradient-6">
            <stop stop-color="#2D4570" offset="0%"></stop>
            <stop stop-color="#9C5C7D" offset="100%"></stop>
        </linearGradient>
    </defs>
    <g id="Page-1" stroke="none" stroke-width="1" fill="none" fill-rule="evenodd">
        <g id="Buidler-Web-v1" transform="translate(-26.000000, -20.000000)" fill-rule="nonzero">
            <g id="header">
                <g id="Group-3" transform="translate(26.000000, 20.000000)">
                    <g id="nomic-color-horizontal-reverse" transform="translate(116.000000, 6.000000)">
                        <g id="Group" transform="translate(101.000000, 6.000000)" fill="#FFFFFF">
                            <polygon id="Shape" points="0.173521127 0.497804878 1.7228169 0.497804878 1.7228169 11.145122 7.24760563 11.145122 7.24760563 12.4831707 0.173521127 12.4831707"></polygon>
                            <polygon id="Shape" points="15.7749296 0.497804878 14.7585915 0.497804878 9.72338028 12.4863415 11.2447887 12.4863415 12.2549296 10.0765854 12.2921127 9.98780488 13.1814085 7.83170732 13.1814085 7.83170732 13.5532394 6.93756098 13.6771831 6.63634146 15.2264789 2.89487805 16.7323944 6.4904878 16.7323944 6.4904878 18.2259155 10.0765854 18.2104225 10.0765854 19.2205634 12.4863415 20.8194366 12.4863415"></polygon>
                            <path d="M24.3921127,0.497804878 L28.2591549,0.497804878 C30.6419718,0.497804878 31.6676056,1.91512195 31.6676056,3.63365854 C31.6143314,4.56759413 31.1607238,5.42978671 30.428169,5.9895122 C31.5653802,6.52237147 32.2925924,7.68695509 32.2873239,8.96682927 C32.2873239,10.9041463 31.1346479,12.4831707 28.4605634,12.4831707 L24.3921127,12.4831707 L24.3921127,0.497804878 Z M28.2591549,5.4504878 C29.7216901,5.4504878 30.1709859,4.55317073 30.1709859,3.63365854 C30.1709859,2.71414634 29.7216901,1.83585366 28.2591549,1.83585366 L25.9538028,1.83585366 L25.9538028,5.4504878 L28.2591549,5.4504878 Z M28.4543662,11.1578049 C30.2112676,11.1578049 30.7380282,10.0797561 30.7380282,8.9795122 C30.7380282,7.87926829 30.2112676,6.80439024 28.4543662,6.80439024 L25.9538028,6.80439024 L25.9538028,11.145122 L28.4543662,11.1578049 Z" id="Shape"></path>
                            <path d="M35.9746479,11.2846341 L36.3278873,9.80707317 C37.2303189,10.8443574 38.5216981,11.4393534 39.8788732,11.4431707 C41.2670423,11.4431707 42.3391549,10.6473171 42.3391549,9.34731707 C42.3391549,8.1297561 41.7535211,7.44487805 39.5690141,6.84878049 C37.384507,6.25268293 36.3061972,5.03195122 36.3061972,3.36097561 C36.3061972,1.69 37.6757746,0.244146341 40.0740845,0.244146341 C41.2233904,0.244804738 42.3409497,0.630080261 43.256338,1.34121951 L42.9061972,2.6095122 C42.0837824,1.98050155 41.0990601,1.61228001 40.0740845,1.5504878 C38.6115493,1.5504878 37.771831,2.25121951 37.771831,3.3704878 C37.771831,4.2297561 38.2985915,4.95585366 40.1329577,5.44731707 C42.6521127,6.12585366 43.8047887,7.24512195 43.8047887,9.22365854 C43.8047887,11.5604878 41.8898592,12.7590244 39.8788732,12.7590244 C37.9670423,12.7431707 36.6191549,11.9631707 35.9746479,11.2846341 Z" id="Shape"></path>
                        </g>
                        <g id="Group" transform="translate(28.000000, 6.000000)" fill="#FFFFFF">
                            <polygon id="Shape" points="0.13490566 12.61 1.98066038 12.61 1.98066038 2.26073171 6.87712264 2.26073171 6.87712264 12.61 8.72287736 12.61 8.72287736 0.355121951 0.13490566 0.355121951"></polygon>
                            <path d="M18.604717,0.107804878 C15.1964516,0.10955582 12.4347208,2.96795517 12.4358494,6.49260058 C12.436978,10.017246 15.2005388,12.8737532 18.6088045,12.8731699 C22.0170703,12.8725865 24.7797166,10.0151334 24.779717,6.4904878 C24.7763343,2.96564144 22.0131782,0.109552446 18.604717,0.107804878 Z M22.9707547,6.4904878 C22.9707547,8.9841208 21.016013,11.0056098 18.604717,11.0056098 C16.1934209,11.0056098 14.2386792,8.9841208 14.2386792,6.4904878 C14.2386792,3.99685481 16.1934209,1.97536585 18.604717,1.97536585 C21.0146126,1.97885876 22.9673771,3.99830305 22.9707547,6.4904878 Z" id="Shape"></path>
                            <polygon id="Shape" points="28.7349057 12.6195122 30.5806604 12.6195122 30.5806604 2.2702439 34.7841981 2.2702439 34.7841981 12.6195122 36.6299528 12.6195122 36.6299528 2.2702439 40.8334906 2.2702439 40.8334906 12.6195122 42.6792453 12.6195122 42.6792453 0.364634146 28.7349057 0.364634146"></polygon>
                            <path d="M63.1787736,9.45195122 C61.987844,10.8417109 60.0893969,11.3239796 58.4113542,10.6630344 C56.7333116,10.0020892 55.6261132,8.33596076 55.630935,6.47901854 C55.6357568,4.62207632 56.7515917,2.96212121 58.4330426,2.31050523 C60.1144934,1.65888925 62.0104087,2.15169486 63.1941038,3.54804878 L63.3259434,3.70658537 L64.8283019,2.67292683 L64.6658019,2.47 C63.0271046,0.414698614 60.3180721,-0.357178307 57.8927253,0.540166566 C55.4673785,1.43751144 53.8466265,3.81134895 53.8405489,6.47519437 C53.8344713,9.13903979 55.4443735,11.52076 57.8655987,12.4299305 C60.2868239,13.3391009 62.9993483,12.5804525 64.6474057,10.5331707 L64.8099057,10.3302439 L63.3106132,9.29658537 L63.1787736,9.45195122 Z" id="Shape"></path>
                            <rect id="Rectangle-path" x="48.0018868" y="0.364634146" width="1.84575472" height="12.254878"></rect>
                        </g>
                        <g id="nomic_iso-link">
                            <g id="nomic_iso">
                                <g id="Group">
                                    <polygon id="Shape" fill="url(#linearGradient-1)" points="10.3028133 0 0.0184143223 5.96923077 10.3028133 11.9261538 20.6025575 5.96923077"></polygon>
                                    <polygon id="Shape" fill="url(#linearGradient-2)" points="0.0184143223 5.96923077 0 17.8923077 10.3028133 23.8553846 10.3028133 11.9261538"></polygon>
                                    <g transform="translate(11.969309, 8.000000)" id="Shape">
                                        <polygon fill="url(#linearGradient-3)" points="7.08337596 8.99692308 0.147314578 13.0123077 0.147314578 14.8061538 8.63324808 9.89230769 8.63324808 0.0430769231 7.08644501 0.938461538"></polygon>
                                        <polygon fill="url(#linearGradient-4)" points="8.62710997 0.0479638009 8.64122762 0.0550226244 8.64122762 0.0338461538"></polygon>
                                    </g>
                                    <polygon id="Shape" fill="url(#linearGradient-5)" points="10.3058824 0.00615384615 0.0306905371 5.96923077 10.3058824 11.92 20.5964194 5.96923077"></polygon>
                                    <polygon id="Shape" fill="url(#linearGradient-6)" points="0.0306905371 5.96923077 0.0122762148 17.88 10.3058824 23.8369231 10.3058824 11.92"></polygon>
                                </g>
                            </g>
                        </g>
                    </g>
                    <g id="logo_buidlerbynomic_gris-v4" transform="translate(3.000000, 5.000000)">
                        <path d="M3.43,14.56 C3.43,15.74 4.2,16.61 5.89,16.61 C7.58,16.61 8.38,15.74 8.38,14.56 L8.38,10.85 C8.38,9.51 7.84,8.77 6.81,8.77 C6.50637587,8.77214691 6.20536057,8.82626202 5.92,8.93 L3.43,10 L3.43,14.56 Z M0.82,0.34 L3.43,0.34 L3.43,8.34 L6.22,6.24 C6.45336075,6.16952488 6.69626604,6.13578803 6.94,6.14 C9.71,6.11 11,7.75 11,10 L11,14.66 C11,17.97 8.49,18.81 5.9,18.81 C3.31,18.81 0.82,18 0.82,14.66 L0.82,0.34 Z" id="Shape" fill="#F9C838"></path>
                        <path d="M16.83,6.39 L16.83,14.07 C16.83,15.41 17.37,16.15 18.39,16.15 C18.6959923,16.147304 18.9996735,16.0966905 19.29,16 L21.77,15 L21.77,6.39 L24.39,6.39 L24.39,18.53 L21.77,18.53 L21.77,16.61 L19,18.71 C18.7667816,18.7811227 18.5237735,18.8148738 18.28,18.81 C15.52,18.81 14.28,17.18 14.28,14.92 L14.28,6.39 L16.83,6.39 Z" id="Shape" fill="#F9C838"></path>
                        <path d="M28.66,18.53 L28.66,6.39 L31.28,6.39 L31.28,18.53 L28.66,18.53 Z M28.66,3.7 L28.66,0.34 L31.28,0.34 L31.28,3.7 L28.66,3.7 Z" id="Shape" fill="#F9C838"></path>
                        <path d="M43.09,8.9 C42.2956914,8.5831538 41.4542038,8.40066253 40.6,8.36 C39.06,8.36 38.14,8.87 38.14,10.41 L38.14,14.05 C38.14,15.41 38.68,16.15 39.7,16.15 C40.0059923,16.147304 40.3096735,16.0966905 40.6,16 L43.09,15 L43.09,8.9 Z M43.09,18.53 L43.09,16.61 L40.29,18.71 C40.0600522,18.780407 39.8204493,18.8141539 39.58,18.81 C36.81,18.81 35.58,17.18 35.58,14.92 L35.58,10.33 C35.58,7.67 37.06,6.11 40.29,6.11 C41.2673913,6.07526518 42.2404382,6.25621776 43.14,6.64 L43.14,0.34 L45.7,0.34 L45.7,18.53 L43.09,18.53 Z" id="Shape" fill="#F9C838"></path>
                        <rect id="Rectangle-path" fill="#F9C838" x="49.98" y="0.34" width="2.61" height="18.19"></rect>
                        <path d="M64.91,11.41 L64.91,10.23 C64.91,9.23 64.58,8.31 62.48,8.31 C60.66,8.31 59.99,8.98 59.99,10.31 L59.99,11.44 L64.91,11.41 Z M67.53,10.41 L67.53,13.53 L60,13.53 L60,14.22 C60,16.17 61.34,16.58 63.23,16.58 C64.5343768,16.5634822 65.8366415,16.4699862 67.13,16.3 L67.13,18.55 C65.7710788,18.7343876 64.401372,18.8279286 63.03,18.83 C60.26,18.83 57.39,17.83 57.39,14.22 L57.39,10.39 C57.39,7.87 58.67,6.11 62.49,6.11 C66.31,6.11 67.53,7.87 67.53,10.39 L67.53,10.41 Z" id="Shape" fill="#F9C838"></path>
                        <path d="M71.24,18.53 L71.24,6.39 L73.85,6.39 L73.85,9.21 L74,9.21 C74.5363815,7.44466286 76.1550895,6.23063185 78,6.21 L78,9 C76.1942818,9.01762498 74.5715068,10.1060237 73.87,11.77 L73.87,18.48 L71.24,18.53 Z" id="Shape" fill="#F9C838"></path>
                        <g id="Group" transform="translate(87.000000, 6.000000)" fill="#CCCDCE">
                            <path d="M0.39,0.3 L1.66,0.3 L1.66,5.7 L3.77,4.23 C3.92594679,4.18436932 4.08751644,4.16080708 4.25,4.16 C4.98041012,4.06036457 5.71656036,4.29768081 6.25125408,4.80515375 C6.78594779,5.31262669 7.06136984,6.03538452 7,6.77 L7,9.89 C7,12.1 5.44,12.67 3.71,12.67 C1.98,12.67 0.43,12.1 0.43,9.89 L0.39,0.3 Z M1.66,9.92 C1.66,11.05 2.45,11.52 3.66,11.52 C4.87,11.52 5.66,11.05 5.66,9.92 L5.66,7.18 C5.66,6.18 5.25,5.43 4.33,5.43 C4.04894229,5.4389821 3.77293759,5.50713141 3.52,5.63 L1.63,6.68 L1.66,9.92 Z" id="Shape"></path>
                            <polygon id="Shape" points="10.46 16.11 11.68 12.48 11.1 12.48 8.34 4.35 9.66 4.35 11.96 11.35 12.13 11.35 14.43 4.35 15.75 4.35 11.75 16.11"></polygon>
                        </g>
                    </g>
                </g>
            </g>
        </g>
    </g>
</svg>