<?xml version="1.0" encoding="UTF-8"?>
<svg width="265px" height="35px" viewBox="0 0 265 35" version="1.1" xmlns="http://www.w3.org/2000/svg" xmlns:xlink="http://www.w3.org/1999/xlink">
    <!-- Generator: Sketch 51.3 (57544) - http://www.bohemiancoding.com/sketch -->
    <title>header</title>
    <desc>Created with Sketch.</desc>
    <defs>
        <linearGradient x1="-8.13589707e-14%" y1="50%" x2="100%" y2="50%" id="linearGradient-1">
            <stop stop-color="#923967" offset="0%"></stop>
            <stop stop-color="#9B4568" offset="15%"></stop>
            <stop stop-color="#B4656C" offset="41%"></stop>
            <stop stop-color="#DB9872" offset="76%"></stop>
            <stop stop-color="#F9C077" offset="100%"></stop>
        </linearGradient>
        <linearGradient x1="-9.47274352%" y1="-7.79287803%" x2="125.498957%" y2="123.327026%" id="linearGradient-2">
            <stop stop-color="#923967" offset="0%"></stop>
            <stop stop-color="#191F54" offset="100%"></stop>
        </linearGradient>
        <linearGradient x1="-9.76491863%" y1="94.3726553%" x2="127.016275%" y2="15.5689871%" id="linearGradient-3">
            <stop stop-color="#2E99E6" offset="0%"></stop>
            <stop stop-color="#2E96E2" offset="14%"></stop>
            <stop stop-color="#2D8CD5" offset="28%"></stop>
            <stop stop-color="#2C7DC1" offset="43%"></stop>
            <stop stop-color="#2B66A4" offset="57%"></stop>
            <stop stop-color="#2A4A7F" offset="72%"></stop>
            <stop stop-color="#282C57" offset="85%"></stop>
        </linearGradient>
        <linearGradient x1="1%" y1="2%" x2="3%" y2="1%" id="linearGradient-4">
            <stop stop-color="#4E85BC" offset="0%"></stop>
            <stop stop-color="#4D83B9" offset="27%"></stop>
            <stop stop-color="#4A7BB1" offset="44%"></stop>
            <stop stop-color="#456FA3" offset="58%"></stop>
            <stop stop-color="#3D5D8F" offset="70%"></stop>
            <stop stop-color="#334675" offset="81%"></stop>
            <stop stop-color="#282C57" offset="90%"></stop>
        </linearGradient>
        <linearGradient x1="0%" y1="50%" x2="100%" y2="50%" id="linearGradient-5">
            <stop stop-color="#9C5C7D" offset="0%"></stop>
            <stop stop-color="#A7687F" offset="18%"></stop>
            <stop stop-color="#C38885" offset="50%"></stop>
            <stop stop-color="#F0BB8D" offset="93%"></stop>
            <stop stop-color="#F8C58F" offset="100%"></stop>
        </linearGradient>
        <linearGradient x1="50%" y1="100%" x2="50%" y2="0%" id="linearGradient-6">
            <stop stop-color="#2D4570" offset="0%"></stop>
            <stop stop-color="#9C5C7D" offset="100%"></stop>
        </linearGradient>
    </defs>
    <g id="Page-1" stroke="none" stroke-width="1" fill="none" fill-rule="evenodd">
        <g id="Artboard" transform="translate(-201.000000, -92.000000)">
            <g id="Group" transform="translate(175.000000, 73.000000)">
                <g id="header" transform="translate(0.000000, 2.000000)">
                    <g id="logo_buidlerbynomic_gris-v4" transform="translate(26.000000, 17.000000)">
                        <path d="M6.56385069,19.8581483 C6.56385069,21.0081213 7.32023576,21.8559827 8.98035363,21.8559827 C10.6404715,21.8559827 11.4263261,21.0081213 11.4263261,19.8581483 L11.4263261,16.2425555 C11.4263261,14.936654 10.8958743,14.2154846 9.88408644,14.2154846 C9.58583091,14.2175769 9.29013809,14.2703149 9.00982318,14.3714131 L6.56385069,15.4141852 L6.56385069,19.8581483 Z M4,6 L6.56385069,6 L6.56385069,13.7964266 L9.30451866,11.7498646 C9.53375319,11.6811829 9.7723635,11.6483045 10.0117878,11.6524093 C12.7328094,11.6231727 14,13.2214402 14,15.4141852 L14,19.9556037 C14,23.1813752 11.5343811,24 8.99017682,24 C6.4459725,24 4,23.2106118 4,19.9556037 L4,6 Z" id="Shape" fill="#F9C838" fill-rule="nonzero"></path>
                        <path d="M19.5222552,12 L19.5222552,19.4200141 C19.5222552,20.714652 20.0563798,21.4296013 21.0652819,21.4296013 C21.3679449,21.4269965 21.6683219,21.3780964 21.9554896,21.2846791 L24.4085064,20.3185314 L24.4085064,12 L27,12 L27,23.7290327 L24.4085064,23.7290327 L24.4085064,21.8740292 L21.6686449,23.9029393 C21.437964,23.9716543 21.1975999,24.0042629 20.9564787,23.9995541 C18.2265084,23.9995541 17,22.4247334 17,20.2412396 L17,12 L19.5222552,12 Z" id="Shape" fill="#F9C838" fill-rule="nonzero"></path>
                        <path d="M32,24 L32,11.9868059 L35,11.9868059 L35,24 L32,24 Z M32,9.32490379 L32,6 L35,6 L35,9.32490379 L32,9.32490379 Z" id="Shape" fill="#F9C838" fill-rule="nonzero"></path>
                        <path d="M46.4209486,14.3420222 C45.6360587,14.0332444 44.8045493,13.8554002 43.9604743,13.8157731 C42.4387352,13.8157731 41.5296443,14.3127861 41.5296443,15.8135705 L41.5296443,19.360879 C41.5296443,20.686247 42.0632411,21.4074031 43.0711462,21.4074031 C43.3735101,21.4047758 43.6735904,21.3554511 43.9604743,21.2612228 L46.4209486,20.2866875 L46.4209486,14.3420222 Z M46.4209486,23.7267972 L46.4209486,21.8556894 L43.6541502,23.9022135 C43.4269291,23.9708276 43.1901673,24.0037152 42.9525692,23.999667 C40.215415,23.999667 39,22.4111745 39,20.2087247 L39,15.7356077 C39,13.1433438 40.4624506,11.6230687 43.6541502,11.6230687 C44.6199519,11.5892184 45.5814607,11.7655631 46.4703557,12.1395724 L46.4703557,6 L49,6 L49,23.7267972 L46.4209486,23.7267972 Z" id="Shape" fill="#F9C838" fill-rule="nonzero"></path>
                        <rect id="Rectangle-path" fill="#F9C838" fill-rule="nonzero" x="53" y="6" width="3" height="18"></rect>
                        <path d="M67.4161736,17 L67.4161736,15.8867925 C67.4161736,14.9433962 67.0907298,14.0754717 65.0197239,14.0754717 C63.2248521,14.0754717 62.5641026,14.7075472 62.5641026,15.9622642 L62.5641026,17.0283019 L67.4161736,17 Z M70,16.0566038 L70,19 L62.5739645,19 L62.5739645,19.6509434 C62.5739645,21.490566 63.8954635,21.8773585 65.7593688,21.8773585 C67.0457365,21.8617756 68.3300212,21.7735719 69.6055227,21.6132075 L69.6055227,23.7358491 C68.2653638,23.9097996 66.9145681,23.9980458 65.5621302,24 C62.8303748,24 60,23.0566038 60,19.6509434 L60,16.0377358 C60,13.6603774 61.2623274,12 65.0295858,12 C68.7968442,12 70,13.6603774 70,16.0377358 L70,16.0566038 Z" id="Shape" fill="#F9C838" fill-rule="nonzero"></path>
                        <path d="M74,24 L74,12.1753247 L76.7026627,12.1753247 L76.7026627,14.9220779 L76.8579882,14.9220779 C77.4134128,13.2025937 79.0895897,12.020096 81,12 L81,14.7175325 C79.1301734,14.7346997 77.4497852,15.7948283 76.7233728,17.4155844 L76.7233728,23.9512987 L74,24 Z" id="Shape" fill="#F9C838" fill-rule="nonzero"></path>
                        <text id="by" opacity="0.766462054" font-family="Helvetica" font-size="17.16" font-weight="normal" fill="#FFFFFF">
                            <tspan x="89" y="25">by</tspan>
                        </text>
                        <g id="nomic-color-horizontal-reverse" transform="translate(116.000000, 7.000000)" fill-rule="nonzero">
                            <g id="Group" transform="translate(103.000000, 4.780220)" fill="#FFFFFF">
                                <polygon id="Shape" points="0.169577465 0.512532833 1.68366197 0.512532833 1.68366197 11.4748593 7.08288732 11.4748593 7.08288732 12.8524953 0.169577465 12.8524953"></polygon>
                                <polygon id="Shape" points="15.4164085 0.512532833 14.423169 0.512532833 9.50239437 12.8557598 10.9892254 12.8557598 11.9764085 10.3747092 12.0127465 10.2833021 12.881831 8.06341463 12.881831 8.06341463 13.2452113 7.14281426 13.366338 6.83268293 14.8804225 2.98052533 16.3521127 6.68251407 16.3521127 6.68251407 17.8116901 10.3747092 17.7965493 10.3747092 18.7837324 12.8557598 20.3462676 12.8557598"></polygon>
                                <path d="M23.8377465,0.512532833 L27.6169014,0.512532833 C29.9455634,0.512532833 30.9478873,1.97178236 30.9478873,3.74116323 C30.8958238,4.70273005 30.4525255,5.59043128 29.7366197,6.1667167 C30.8479851,6.71534104 31.5586698,7.9143798 31.5535211,9.23212008 C31.5535211,11.2267542 30.4270423,12.8524953 27.8137324,12.8524953 L23.8377465,12.8524953 L23.8377465,0.512532833 Z M27.6169014,5.61174484 C29.0461972,5.61174484 29.4852817,4.68787992 29.4852817,3.74116323 C29.4852817,2.79444653 29.0461972,1.89016886 27.6169014,1.89016886 L25.3639437,1.89016886 L25.3639437,5.61174484 L27.6169014,5.61174484 Z M27.8076761,11.4879174 C29.5246479,11.4879174 30.0394366,10.3779737 30.0394366,9.24517824 C30.0394366,8.11238274 29.5246479,7.00570356 27.8076761,7.00570356 L25.3639437,7.00570356 L25.3639437,11.4748593 L27.8076761,11.4879174 Z" id="Shape"></path>
                                <path d="M35.1570423,11.6184991 L35.5022535,10.0972233 C36.3841753,11.1651964 37.646205,11.7777958 38.9725352,11.7817261 C40.3291549,11.7817261 41.3769014,10.9623265 41.3769014,9.62386492 C41.3769014,8.37028143 40.8045775,7.66514071 38.6697183,7.05140713 C36.5348592,6.43767355 35.4810563,5.18082552 35.4810563,3.46041276 C35.4810563,1.74 36.819507,0.251369606 39.1633099,0.251369606 C40.2864951,0.252047481 41.3786554,0.648721689 42.2732394,1.38090056 L41.9310563,2.6867167 C41.1273328,2.03909627 40.1649906,1.6599806 39.1633099,1.59636023 C37.7340141,1.59636023 36.9133803,2.31782364 36.9133803,3.47020638 C36.9133803,4.35489681 37.428169,5.10247655 39.2208451,5.6084803 C41.6827465,6.30709193 42.8092254,7.45947467 42.8092254,9.49654784 C42.8092254,11.9025141 40.9378169,13.1365103 38.9725352,13.1365103 C37.1041549,13.1201876 35.7869014,12.3171107 35.1570423,11.6184991 Z" id="Shape"></path>
                            </g>
                            <g id="Group" transform="translate(30.000000, 4.780220)" fill="#FFFFFF">
                                <polygon id="Shape" points="0.13490566 12.9830769 1.98066038 12.9830769 1.98066038 2.32761726 6.87712264 2.32761726 6.87712264 12.9830769 8.72287736 12.9830769 8.72287736 0.365628518 0.13490566 0.365628518"></polygon>
                                <path d="M18.604717,0.110994371 C15.1964516,0.112797116 12.4347208,3.0557645 12.4358494,6.68468935 C12.436978,10.3136142 15.2005388,13.2546335 18.6088045,13.2540329 C22.0170703,13.2534323 24.7797166,10.3114391 24.779717,6.68251407 C24.7763343,3.05338231 22.0131782,0.112793643 18.604717,0.110994371 Z M22.9707547,6.68251407 C22.9707547,9.24992319 21.016013,11.3312195 18.604717,11.3312195 C16.1934209,11.3312195 14.2386792,9.24992319 14.2386792,6.68251407 C14.2386792,4.11510495 16.1934209,2.03380863 18.604717,2.03380863 C21.0146126,2.03740488 22.9673771,4.11659604 22.9707547,6.68251407 Z" id="Shape"></path>
                                <polygon id="Shape" points="28.7349057 12.9928705 30.5806604 12.9928705 30.5806604 2.33741088 34.7841981 2.33741088 34.7841981 12.9928705 36.6299528 12.9928705 36.6299528 2.33741088 40.8334906 2.33741088 40.8334906 12.9928705 42.6792453 12.9928705 42.6792453 0.375422139 28.7349057 0.375422139"></polygon>
                                <path d="M63.1787736,9.73159475 C61.987844,11.1624715 60.0893969,11.6590086 58.4113542,10.9785088 C56.7333116,10.298009 55.6261132,8.58258681 55.630935,6.67070548 C55.6357568,4.75882414 56.7515917,3.04975793 58.4330426,2.37886337 C60.1144934,1.70796881 62.0104087,2.21535447 63.1941038,3.65302064 L63.3259434,3.81624765 L64.8283019,2.7520075 L64.6658019,2.54307692 C63.0271046,0.426967804 60.3180721,-0.367745713 57.8927253,0.556147826 C55.4673785,1.48004136 53.8466265,3.92411075 53.8405489,6.66676817 C53.8344713,9.40942559 55.4443735,11.8616109 57.8655987,12.7976799 C60.2868239,13.7337489 62.9993483,12.9526552 64.6474057,10.844803 L64.8099057,10.6358724 L63.3106132,9.57163227 L63.1787736,9.73159475 Z" id="Shape"></path>
                                <rect id="Rectangle-path" x="48.0018868" y="0.375422139" width="1.84575472" height="12.6174484"></rect>
                            </g>
                            <g id="nomic_iso-link">
                                <g id="nomic_iso">
                                    <g id="Group">
                                        <polygon id="Shape" fill="url(#linearGradient-1)" points="10.2857576 0 0.0183838384 5.94463229 10.2857576 11.8770076 20.5684512 5.94463229"></polygon>
                                        <polygon id="Shape" fill="url(#linearGradient-2)" points="0.0183838384 5.94463229 0 17.8185757 10.2857576 23.7570795 10.2857576 11.8770076"></polygon>
                                        <g transform="translate(11.949495, 7.967033)" id="Shape">
                                            <polygon fill="url(#linearGradient-3)" points="7.07164983 8.95984784 0.147070707 12.9586855 0.147070707 14.7451395 8.61895623 9.85154269 8.61895623 0.0428994083 7.0747138 0.934594252"></polygon>
                                            <polygon fill="url(#linearGradient-4)" points="8.61282828 0.0416737109 8.6209596 0.0456572274 8.6209596 0.0337066779"></polygon>
                                        </g>
                                        <polygon id="Shape" fill="url(#linearGradient-5)" points="10.2888215 0.0061284869 0.0306397306 5.94463229 10.2888215 11.8708791 20.5623232 5.94463229"></polygon>
                                        <polygon id="Shape" fill="url(#linearGradient-6)" points="0.0306397306 5.94463229 0.0122558923 17.8063187 10.2888215 23.738694 10.2888215 11.8708791"></polygon>
                                    </g>
                                </g>
                            </g>
                        </g>
                    </g>
                </g>
            </g>
        </g>
    </g>
</svg>