<?xml version="1.0" encoding="UTF-8"?>
<svg width="426px" height="381px" viewBox="0 0 426 381" version="1.1" xmlns="http://www.w3.org/2000/svg" xmlns:xlink="http://www.w3.org/1999/xlink">
    <!-- Generator: Sketch 57.1 (83088) - https://sketch.com -->
    <title>Mascotas</title>
    <desc>Created with Sketch.</desc>
    <g id="Page-1" stroke="none" stroke-width="1" fill="none" fill-rule="evenodd">
        <g id="Buidler-Web-v2" transform="translate(-893.000000, -328.000000)">
            <g id="Mascotas" transform="translate(893.000000, 328.000000)">
                <g id="el" transform="translate(224.000000, 0.000000)">
                    <path d="M36.8322148,270.419525 C29.0469799,270.039049 22.3892617,266.343 16,262.157767 C19.5973154,247.373568 34.5771812,235.633174 48,237.426846 C47.1409396,240.090176 43.9731544,262.103413 43.9731544,262.103413 C43.9731544,262.103413 36.6174497,264.494975 36.8322148,270.419525 Z" id="Path" fill="#FFFFFF" fill-rule="nonzero"></path>
                    <path d="M36.9236365,270.253676 C36.8695525,272.622115 38.1134835,275.582663 41.5748565,279.242977 C42.4401998,280.158056 43.6300468,293.345952 42.6024516,298.567282 C17.2911613,287.909309 12.3154375,274.721413 16.1553982,261.372032 C22.266885,265.893596 29.4059669,269.069457 36.9236365,270.253676 Z" id="Path" fill="#EE815A" fill-rule="nonzero"></path>
                    <path d="M29.8308192,290.858292 C27.0190282,288.783332 24.5931693,286.380748 22.2775767,283.814352 C18.5836552,279.118392 16.04753,273.930994 15,268.142951 C15.0551332,265.849575 15.4410653,263.556199 16.1026631,261.372032 C22.2775767,266.013387 29.5551534,269.235034 37.2186622,270.381722 C37.1635291,272.784306 38.4315917,275.787536 41.9601137,279.500621 C42.7871111,280.319684 44.4411058,294.243751 43.8897742,300.577836 C39.6445211,297.137773 34.7928033,294.680584 30.3821508,291.568146 C30.2167513,291.295125 30.0513518,291.076708 29.8308192,290.858292 Z" id="Path" fill="#F6926E" fill-rule="nonzero"></path>
                    <path d="M31.9185714,301.43905 C29.1362848,297.476526 27.691636,292.413301 30.5809336,285.9742 C33.5237368,279.369994 38.981299,277.829012 44.7063887,281.18615 C47.5421809,282.837202 49.7894124,285.368814 51.9831383,287.900427 C54.0163478,290.321969 56.1030628,293.128757 55.9960517,296.32079 C55.8890407,300.393384 54.3373809,303.805557 51.1270502,306.172065 C49.3613683,307.492906 43.5292675,310.684939 40.6399698,310.629904 C38.5532549,310.629904 36.4665399,310.354729 34.6473525,309.254028 C33.3097147,308.483537 32.0790879,307.437871 31.3835163,306.00696 C30.6879446,304.576048 30.6879446,302.759891 31.7045494,301.54912 C31.8115604,301.54912 31.8650659,301.494085 31.9185714,301.43905 Z" id="Path" fill="#EE815A" fill-rule="nonzero"></path>
                    <path d="M32.5922075,303.627001 C32.5922075,303.682005 32.6466349,303.682005 32.6466349,303.73701 C32.9187718,304.067036 33.2453361,304.232049 33.5719005,304.232049 C34.6060208,304.727089 35.6945685,305.002111 37.0552532,305.11212 C38.4703653,305.167125 38.9057843,303.186965 37.7628092,302.526912 C35.9122781,301.426824 34.1161743,300.051713 32.5922075,298.456584 C32.5377801,298.346576 32.5377801,298.181562 32.4289253,298.071553 C31.6125146,296.531429 30.7961038,294.991305 30.1429751,293.451181 C29.707556,292.076071 29.3265643,290.70096 29,289.270845 C29.2721369,288.225761 29.5987013,287.125672 30.1429751,285.970579 C33.1364814,279.370048 38.6880748,277.829924 44.5118052,281.185194 C47.3964566,282.835327 49.6824069,285.36553 51.9139297,287.895734 C53.9821704,290.315929 56.1048385,293.121155 55.9959837,296.311412 C55.8871289,300.381739 54.3087347,303.792014 51.0430915,306.157204 C49.2469878,307.477311 43.7498217,310.44755 40.3753238,310.612563 C38.2526557,310.722572 36.1299876,310.337541 34.2794565,309.237452 C32.9187718,308.46739 31.6669419,307.422306 30.9593859,305.992191 C30.415112,304.837098 30.3062573,303.461987 30.7961038,302.306894 C31.394805,302.801934 31.9935063,303.24197 32.5922075,303.627001 Z" id="Path" fill="#F6926E" fill-rule="nonzero"></path>
                    <path d="M142.817259,373.799797 C142.817259,373.799797 141.946008,315.602667 135.248269,296.979585 C132.906784,294.922385 45.6728196,301.03985 45.6728196,301.03985 L44.5293032,373.799797 L35,373.799797 L35,381 L62.2810337,381 L67.8897093,377.426967 L67.8897093,381 L79.6515921,381 C79.6515921,381 80.8495616,338.719108 89.6709737,319.500521 C97.0766036,328.054146 104.808952,359.23698 107.422704,373.799797 C108.239502,378.23902 109.001846,381 109.001846,381 L121.47162,381 L121.47162,377.481104 L127.134749,381 L153,381 L153,373.799797 L142.817259,373.799797 L142.817259,373.799797 Z" id="Path" fill="#292C33" fill-rule="nonzero"></path>
                    <path d="M143,373.963061 C143,373.963061 110.241661,373.963061 107.700998,373.963061 C102.187218,339.160214 90.2406953,319.249494 90.2406953,319.249494 C90.2406953,319.249494 82.0240823,348.37915 81.4835156,373.963061 C80.0239857,373.963061 47.7521569,373.963061 45.3736637,373.963061 C41.6978105,324.704485 46.5629103,300.647972 46.5629103,300.647972 L135.486124,296.556728 L143,373.963061 Z" id="Path" fill="#3E404D" fill-rule="nonzero"></path>
                    <path d="M90,319.6781 C83.4203655,341.435383 81.1174935,373.963061 81.1174935,373.963061 L69,373.963061 C69,373.963061 77.5535248,334.07471 90,319.6781 Z" id="Path" fill="#292C33" fill-rule="nonzero"></path>
                    <polygon id="Path" fill="#010101" fill-rule="nonzero" points="81 373.963061 79.7983193 381 68 381 68 378.037078 69.5840336 373.963061"></polygon>
                    <polyline id="Path" fill="#292C33" fill-rule="nonzero" points="143 373.963061 123 296.556728 135.362637 296.556728 143 373.963061"></polyline>
                    <polygon id="Path" fill="#17181C" fill-rule="nonzero" points="81 373.963061 79.7983193 381 68 381 68 378.037078 69.5840336 373.963061"></polygon>
                    <polyline id="Path" fill="#17181C" fill-rule="nonzero" points="143.026667 373.963061 153 373.963061 153 381 141 381 141 373.963061 143.026667 373.963061"></polyline>
                    <path d="M65.7753933,223.174022 C113.081737,225.445832 132.080487,237.940787 132.080487,237.940787 C132.080487,237.940787 134.693496,246.054395 135.673374,259.739346 C135.074559,259.739346 134.530183,259.901618 134.040244,260.226162 C131.917174,261.794793 131.590548,264.445238 132.026049,268.285679 C132.624864,273.478388 134.639058,279.861092 136,283.539261 C135.945562,289.164695 135.891125,294.898311 136,300.577836 C131.753861,300.577836 44.2180721,300.577836 44.2180721,300.577836 L44,254.00573 C43.9458837,254.00573 50.8050314,222.849478 65.7753933,223.174022 Z" id="Path" fill="#FFFFFF" fill-rule="nonzero"></path>
                    <path d="M136,300.577836 L132.273591,284.928346 L126.44095,282.411295 C116.233828,278.033815 111.373294,266.214619 115.477745,255.763385 L127.845104,224.136093 L109.969139,222.166227 L78.8617211,257.459659 L66.4403561,227.473921 C54.6130564,227.473921 45,237.213814 45,249.197166 L45,300.523118 L136,300.577836 L136,300.577836 Z" id="Path" fill="#EE815A" fill-rule="nonzero"></path>
                    <polygon id="Path" fill="#FFFFFF" fill-rule="nonzero" points="132.147287 281.751665 85.5348837 281.751665 122.922481 223.171504 114.077519 223.171504 76.0930233 281.751665 60.0852713 223.171504 51.1860465 223.171504 67.248062 281.751665 45 281.751665 45 290.525066 136 290.525066"></polygon>
                    <path d="M136,300.577836 L136,277.760222 C136,277.760222 100.849057,269.005262 125.476415,233.930704 C122.221698,231.468372 109.799528,222.166227 109.799528,222.166227 L78.5542453,257.459659 L67.5966981,227.856951 C55.7169811,227.856951 44,237.213814 44,249.197166 L44,300.523118 L136,300.577836 L136,300.577836 Z" id="Path" fill="#F9AA36" fill-rule="nonzero"></path>
                    <g id="Group" transform="translate(43.000000, 221.160950)" fill="#292C33" fill-rule="nonzero">
                        <rect id="Rectangle" x="0.435087719" y="60.1516944" width="92.4561404" height="9.21242167"></rect>
                        <path d="M40.4087719,63.7824724 C54.6035088,29.3171772 82.7754386,7.91184449 83.0473684,7.69508163 L77.5,0.325144294 C76.2491228,1.24638646 47.0438596,23.4103892 31.8157895,60.2600759 L40.4087719,63.7824724 Z" id="Path"></path>
                        <path d="M26.377193,62.6986581 L34.9701754,61.3438902 C30.3473684,31.9183315 17.077193,8.07441664 16.5333333,7.09898376 L8.91929825,11.3258596 C9.08245614,11.5968132 22.0263158,34.8446302 26.377193,62.6986581 Z" id="Path"></path>
                    </g>
                    <g id="Group">
                        <path d="M38.3908602,200.175626 C51.6946237,200.175626 62.5005376,189.359729 62.5005376,176.043674 C62.5005376,162.72762 51.6946237,151.911723 38.3908602,151.911723 C25.0870968,151.911723 14.2811828,162.72762 14.2811828,176.043674 C14.2811828,189.359729 25.0870968,200.175626 38.3908602,200.175626 Z" id="Path" fill="#EE815A" fill-rule="nonzero"></path>
                        <path d="M22.372043,131.747412 C22.372043,133.758408 22.5349462,135.823755 22.8064516,137.889102 L23.838172,145.117817 L55.4956989,145.117817 C59.2424731,145.117817 62.772043,147.128813 64.6725806,150.389888 C66.5731183,153.650962 70.1026882,155.661958 73.8494624,155.661958 L141.291398,155.661958 C148.187634,155.661958 154.595161,159.412194 157.961828,165.445182 L180.225269,154.955392 C181.637097,147.726677 182.397312,139.356586 182.397312,131.801763 L22.372043,131.747412 L22.372043,131.747412 Z" id="Path" fill="#010101" fill-rule="nonzero"></path>
                        <path d="M138.033333,27.5560799 C149.165054,33.4803653 153.834946,43.5896964 156.712903,54.8947548 C157.690323,58.7536931 159.536559,61.9604164 164.043548,60.8733915 C168.767742,59.7320154 168.17043,55.8730772 167.355914,52.1771927 C163.989247,37.3393035 152.53172,27.1756212 138.033333,27.5560799 Z" id="Path" fill="#EE815A" fill-rule="nonzero"></path>
                        <g transform="translate(22.263441, 75.004715)">
                            <path d="M10.3715054,132.834436 C10.6973118,135.117189 11.1317204,137.291238 11.6747312,139.356586 C14.6612903,149.737673 21.0688172,158.433872 29.4854839,164.303806 C37.7392473,169.412823 48.4365591,172.076034 61.5231183,171.858629 C86.2301075,172.456492 106.05,157.836008 122.503226,142.563309 L122.503226,125.714424 C122.503226,103.593468 104.583871,85.6575581 82.4833333,85.6575581 L3.90967742,85.6575581 L3.90967742,86.4184755 L10.3715054,132.834436 Z M73.7408602,104.028278 C73.7408602,98.647505 78.1392473,94.2450544 83.5150538,94.2450544 C88.8908602,94.2450544 93.2892473,98.5931538 93.2892473,104.028278 L93.2892473,111.637452 C93.2892473,117.018225 88.8908602,121.420676 83.5150538,121.420676 C78.1392473,121.420676 73.7408602,117.018225 73.7408602,111.637452 L73.7408602,104.028278 Z M47.1876344,134.899784 L72.872043,134.899784 C72.872043,142.019796 67.116129,147.781028 60.0026882,147.781028 C52.9435484,147.781028 47.1876344,142.074148 47.1876344,134.899784 Z M29.7569892,104.028278 C29.7569892,98.647505 34.1553763,94.2450544 39.5311828,94.2450544 C44.9069892,94.2450544 49.3053763,98.5931538 49.3053763,104.028278 L49.3053763,111.637452 C49.3053763,117.018225 44.9069892,121.420676 39.5311828,121.420676 C34.1553763,121.420676 29.7569892,117.018225 29.7569892,111.637452 L29.7569892,104.028278 L29.7569892,104.028278 Z" id="Shape" fill="#EE815A" fill-rule="nonzero"></path>
                            <g>
                                <path d="M39.5311828,94.2450544 C44.9069892,94.2450544 49.3053763,98.5931538 49.3053763,104.028278 L49.3053763,111.637452 C49.3053763,117.018225 44.9069892,121.420676 39.5311828,121.420676 C34.1553763,121.420676 29.7569892,117.018225 29.7569892,111.637452 L29.7569892,104.028278 C29.7569892,98.647505 34.1553763,94.2450544 39.5311828,94.2450544 Z" id="Path"></path>
                                <path d="M83.5150538,94.2450544 C88.8908602,94.2450544 93.2892473,98.5931538 93.2892473,104.028278 L93.2892473,111.637452 C93.2892473,117.018225 88.8908602,121.420676 83.5150538,121.420676 C78.1392473,121.420676 73.7408602,117.018225 73.7408602,111.637452 L73.7408602,104.028278 C73.7408602,98.647505 78.1392473,94.2450544 83.5150538,94.2450544 Z" id="Path"></path>
                                <path d="M60.0026882,147.781028 C52.9435484,147.781028 47.1876344,142.074148 47.1876344,134.899784 L72.872043,134.899784 C72.872043,142.019796 67.116129,147.781028 60.0026882,147.781028 Z" id="Path"></path>
                                <path d="M38.933871,10.9245997 L107.787634,0.978322364 C132.440323,-2.60885964 155.952688,14.9465917 158.939247,40.0568657 C163.500538,78.8636528 146.93871,117.398684 122.503226,142.726363 C122.503226,142.672011 122.448925,142.672011 122.448925,142.61766 C122.448925,142.61766 122.503226,142.563309 122.503226,142.563309 L122.503226,125.714424 C122.503226,103.593468 104.583871,85.6575581 82.4833333,85.6575581 L3.90967742,85.6575581 L0.543010753,62.8843875 C-2.98655914,37.882816 14.3354839,14.4574305 38.933871,10.9245997 Z" id="Path" fill="#EE815A" fill-rule="nonzero"></path>
                                <path d="M3.90967742,85.7119093 L3.90967742,86.4728267 L10.3715054,132.834436 C10.6973118,135.117189 11.1317204,137.291238 11.6747312,139.356586 C14.6612903,149.737673 21.0688172,158.433872 29.4854839,164.303806 C37.7392473,169.412823 48.4365591,172.076034 61.5231183,171.858629 C86.2301075,172.456492 106.321505,159.194789 122.503226,142.563309 L122.503226,125.714424 C122.503226,103.593468 104.583871,85.6575581 82.4833333,85.6575581 L3.90967742,85.6575581 L3.90967742,85.7119093 Z M73.7408602,104.028278 C73.7408602,98.647505 78.1392473,94.2450544 83.5150538,94.2450544 C88.8908602,94.2450544 93.2892473,98.5931538 93.2892473,104.028278 L93.2892473,111.637452 C93.2892473,117.018225 88.8908602,121.420676 83.5150538,121.420676 C78.1392473,121.420676 73.7408602,117.018225 73.7408602,111.637452 L73.7408602,104.028278 Z M47.1876344,134.899784 L72.872043,134.899784 C72.872043,142.019796 67.116129,147.781028 60.0026882,147.781028 C52.9435484,147.781028 47.1876344,142.074148 47.1876344,134.899784 Z M29.7569892,104.028278 C29.7569892,98.647505 34.1553763,94.2450544 39.5311828,94.2450544 C44.9069892,94.2450544 49.3053763,98.5931538 49.3053763,104.028278 L49.3053763,111.637452 C49.3053763,117.018225 44.9069892,121.420676 39.5311828,121.420676 C34.1553763,121.420676 29.7569892,117.018225 29.7569892,111.637452 L29.7569892,104.028278 L29.7569892,104.028278 Z" id="Shape" fill="#F6926E" fill-rule="nonzero"></path>
                            </g>
                            <path d="M60.0026882,147.781028 C52.9435484,147.781028 47.1876344,142.074148 47.1876344,134.899784 L72.872043,134.899784 C72.872043,142.019796 67.116129,147.781028 60.0026882,147.781028 Z" id="Path" fill="#FFFFFF" fill-rule="nonzero"></path>
                            <path d="M39.5311828,94.2450544 C44.9069892,94.2450544 49.3053763,98.5931538 49.3053763,104.028278 L49.3053763,111.637452 C49.3053763,117.018225 44.9069892,121.420676 39.5311828,121.420676 C34.1553763,121.420676 29.7569892,117.018225 29.7569892,111.637452 L29.7569892,104.028278 C29.7569892,98.647505 34.1553763,94.2450544 39.5311828,94.2450544 Z" id="Path" fill="#292C33" fill-rule="nonzero"></path>
                            <path d="M83.5150538,94.2450544 C88.8908602,94.2450544 93.2892473,98.5931538 93.2892473,104.028278 L93.2892473,111.637452 C93.2892473,117.018225 88.8908602,121.420676 83.5150538,121.420676 C78.1392473,121.420676 73.7408602,117.018225 73.7408602,111.637452 L73.7408602,104.028278 C73.7408602,98.647505 78.1392473,94.2450544 83.5150538,94.2450544 Z" id="Path" fill="#292C33" fill-rule="nonzero"></path>
                        </g>
                        <path d="M22.3177419,132.019168 C22.3177419,132.290924 22.3177419,132.508329 22.3177419,132.725734 C22.372043,132.508329 22.3177419,132.236573 22.3177419,132.019168 Z" id="Path" fill="#E39955" fill-rule="nonzero"></path>
                        <path d="M201.565591,129.02985 L201.674194,129.02985 C201.674194,124.301291 198.47043,120.224948 194.234946,118.377006 C194.832258,114.19196 195.158065,109.898212 195.158065,105.550113 C195.158065,64.8410322 169.419355,30.1105883 133.363441,16.7945339 C130.159677,15.5988066 127.553226,13.2617032 125.978495,10.3267361 L135.806989,31.5780718 C147.101613,56.0361309 152.423118,82.8856447 151.228495,109.843861 L150.033871,136.693375 L166.921505,135.986809 C183.266129,135.17154 195.320968,133.975813 199.230645,132.399627 C200.696774,131.747412 201.456989,130.388631 201.565591,129.02985 Z" id="Path" fill="#E6C00C" fill-rule="nonzero"></path>
                        <path d="M22.372043,131.747412 C22.372043,133.758408 22.5349462,135.823755 22.8064516,137.889102 L23.838172,145.117817 L55.4956989,145.117817 C59.2424731,145.117817 62.772043,147.128813 64.6725806,150.389888 C66.5731183,153.650962 70.1026882,155.661958 73.8494624,155.661958 L141.291398,155.661958 C148.187634,155.661958 154.595161,159.412194 157.961828,165.445182 L179.899462,158.596925 C181.31129,151.36821 182.397312,139.356586 182.397312,131.801763 L22.372043,131.747412 L22.372043,131.747412 Z" id="Path" fill="#332345" fill-rule="nonzero"></path>
                        <path d="M138.033333,27.5560799 C149.165054,33.4803653 153.834946,43.5896964 156.712903,54.8947548 C157.690323,58.7536931 159.536559,61.9604164 164.043548,60.8733915 C168.767742,59.7320154 168.17043,55.8730772 167.355914,52.1771927 C163.989247,37.3393035 152.53172,27.1756212 138.033333,27.5560799 Z" id="Path" fill="#EE815A" fill-rule="nonzero"></path>
                        <path d="M165.401075,200.882192 C178.487634,200.882192 189.130645,190.066295 189.130645,176.75024 C189.130645,163.434186 178.487634,152.618289 165.401075,152.618289 C152.314516,152.618289 141.671505,163.434186 141.671505,176.75024 C141.671505,190.066295 152.314516,200.882192 165.401075,200.882192 Z" id="Path" fill="#EE815A" fill-rule="nonzero"></path>
                        <path d="M170.994086,175.500162 C176.152688,173.706571 176.587097,166.369153 171.537097,164.249455 C168.984946,163.16243 166.106989,162.999376 163.989247,163.977698 C158.722043,166.043046 157.255914,169.467174 157.255914,175.554513 C157.255914,179.196046 158.613441,182.457121 160.785484,185.011629 C160.785484,184.685522 160.731183,184.359414 160.731183,184.033307 C160.676882,180.283071 166.215591,177.18505 170.994086,175.500162 Z" id="Path" fill="#F6926E" fill-rule="nonzero"></path>
                        <path d="M6.95053763,118.322655 C6.95053763,118.322655 6.95053763,118.322655 6.95053763,118.322655 C6.67903226,116.311659 6.46182796,114.300663 6.35322581,112.289667 C6.19032258,110.061266 6.08172043,107.832865 6.08172043,105.550113 C6.08172043,86.4184755 11.7290323,68.6456192 21.4489247,53.80773 C23.077957,51.3075728 24.8155914,48.9161182 26.661828,46.633366 C27.422043,45.7093949 28.127957,44.7854238 28.9424731,43.9158039 C29.3225806,43.4809939 29.7026882,43.046184 30.0827957,42.5570228 C30.8430108,41.6874029 31.6575269,40.8177831 32.472043,39.9481632 C35.7301075,36.5240349 39.2596774,33.3716628 43.0064516,30.491047 C43.9295699,29.7844808 44.9069892,29.0779147 45.8301075,28.3713485 C52.5634409,23.5884392 59.9483871,19.6207985 67.8763441,16.7401827 C68.5822581,16.4684265 69.233871,16.1966702 69.8854839,15.8162115 C70.3741935,15.5444553 70.8629032,15.2183479 71.3516129,14.8378892 C71.5688172,14.6748355 71.7860215,14.5117817 72.0032258,14.348728 C73.7408602,12.8812445 75.0983871,11.0333022 75.9672043,8.85925252 C76.5102151,7.5548227 77.216129,6.35909536 78.0849462,5.32642176 C78.7365591,4.51115312 79.4424731,3.80458697 80.2569892,3.2067233 C81.0715054,2.55450839 81.9403226,2.01099597 82.8634409,1.57618603 C83.4607527,1.30442982 84.1123656,1.03267361 84.7639785,0.815268636 C85.4155914,0.597863667 86.0672043,0.434809939 86.7731183,0.326107455 C87.4790323,0.21740497 88.1306452,0.163053727 88.8365591,0.163053727 L112.511828,0.163053727 C113.923656,0.163053727 115.281183,0.380458697 116.584409,0.815268636 C117.236022,1.03267361 117.887634,1.25007858 118.484946,1.57618603 C120.331183,2.44580591 121.960215,3.75023573 123.20914,5.380773 C123.643548,5.92428542 124.023656,6.46779785 124.349462,7.06566152 C124.675269,7.66352518 125.001075,8.31574009 125.272581,8.967955 C126.195699,11.2507072 127.661828,13.2073519 129.562366,14.6748355 C130.322581,15.2726991 131.137097,15.7618603 132.005914,16.1966702 C132.440323,16.4140752 132.874731,16.5771289 133.30914,16.7945339 C140.639785,19.512096 147.536022,23.0449268 153.889247,27.3930262 C154.377957,27.7191336 154.866667,28.0452411 155.355376,28.4256998 C161.6,32.8825017 167.301613,38.1002209 172.297312,43.9158039 C175.012366,47.0681759 177.455914,50.3836017 179.736559,53.80773 C180.388172,54.7860524 181.039785,55.818726 181.637097,56.7970483 C182.560215,58.3188831 183.429032,59.8950692 184.243548,61.4712552 C191.194086,74.6242558 195.103763,89.6251988 195.103763,105.550113 C195.103763,109.898212 194.777957,114.19196 194.180645,118.377006 C195.483871,118.97487 196.732796,119.735787 197.764516,120.714109 C200.099462,122.833808 201.619892,125.768775 201.619892,129.02985 L201.619892,129.02985 L201.565591,129.084201 C201.565591,129.410308 201.51129,129.736416 201.402688,130.062523 C201.076882,131.040845 200.316667,131.910465 199.122043,132.399627 C182.614516,139.030478 18.5166667,139.030478 2.00913978,132.399627 C2.00913978,132.399627 2.00913978,132.399627 2.00913978,132.399627 C-2.11774194,130.877792 0.488709677,119.681436 6.95053763,118.322655 Z" id="Path" fill="#F9C838" fill-rule="nonzero"></path>
                        <polygon id="Path" fill="#292C33" fill-rule="nonzero" points="79.9311828 43.9158039 59.5682796 76.907008 79.9311828 88.7012276 100.294086 76.907008"></polygon>
                        <polygon id="Path" fill="#292C33" fill-rule="nonzero" points="79.9311828 96.9082652 59.5682796 84.3531282 79.9311828 113.213638 100.294086 84.3531282"></polygon>
                        <path d="M201.565591,129.02985 L201.674194,129.02985 C201.674194,124.301291 198.47043,120.224948 194.234946,118.377006 C194.832258,114.19196 195.158065,109.898212 195.158065,105.550113 C195.158065,64.8410322 169.419355,30.1105883 133.363441,16.7945339 C130.159677,15.5988066 127.553226,13.2617032 125.978495,10.3267361 L135.806989,31.5780718 C147.101613,56.0361309 152.423118,82.8856447 151.228495,109.843861 L150.033871,136.693375 L166.921505,135.986809 C183.266129,135.17154 195.320968,133.975813 199.230645,132.399627 C200.696774,131.747412 201.456989,130.388631 201.565591,129.02985 Z" id="Path" fill="#F9AA36" fill-rule="nonzero"></path>
                    </g>
                    <path d="M165.589242,252.846411 C168.06357,256.898315 169.515892,261.55253 170,266.2615 C169.892421,266.316256 169.838631,266.371011 169.731051,266.425767 C166.127139,269.382562 161.770171,271.791803 157.036675,272.120335 C153.91687,272.339357 150.581907,272.558379 147.408313,272.339357 C147.623472,264.016526 138.317848,257.610136 129.92665,259.362311 C128.797066,254.270053 126,234.229551 126,234.229551 C126,234.229551 154.185819,234.284307 165.589242,252.846411 Z" id="Path" fill="#FFFFFF" fill-rule="nonzero"></path>
                    <path d="M147.318007,271.089933 C155.2252,271.254263 163.024811,269.556181 169.856195,265.39314 C171.147166,276.951056 163.562716,290.097501 154.472134,295.465633 C148.178654,299.190459 136.667503,292.617236 135,287.194328 C144.251953,282.045303 147.533169,276.18418 147.318007,271.089933 Z" id="Path" fill="#EE815A" fill-rule="nonzero"></path>
                    <path d="M135,286.932215 C144.224913,281.847226 147.550173,276.058994 147.282007,271.028101 C153.717993,271.190388 160.153979,270.05438 166,267.403694 C165.946367,269.405232 166.643599,281.30627 153.717993,293.207307 C153.020761,293.856455 151.197232,294.343316 151.089965,295.100654 C150.392734,295.857993 150.714533,297.426766 152.055363,297.426766 C152.216263,297.426766 152.377163,297.426766 152.538062,297.426766 C152.538062,297.913627 142.884083,302.674042 137.359862,303.593668 C137.413495,297.967722 136.608997,292.287682 135,286.932215 Z" id="Path" fill="#F6926E" fill-rule="nonzero"></path>
                    <path d="M139.443006,283.593138 C143.664143,284.252255 147.885281,286.119754 150.645255,289.470266 C152.106418,291.282838 153.351113,293.040484 153.946401,295.237541 C154.216987,296.17129 153.621698,300.78511 148.426452,303.201873 C149.346444,305.453856 148.372335,308.200178 146.640586,309.902897 C139.605357,316.548994 127.050179,309.188853 125.913719,307.760766 C123.316096,304.465181 122.558456,299.796434 122.017285,295.951584 C121.53023,292.820778 131.433668,282.329831 139.443006,283.593138 Z" id="Path" fill="#EE815A" fill-rule="nonzero"></path>
                    <path d="M145.786856,301.985052 C144.630551,303.079346 143.198934,304.009495 142.483126,305.377363 C139.564831,305.979224 135.435169,305.486792 129.213144,302.641628 C126.404973,301.38319 123.706927,298.70217 122,295.91172 C123.596803,290.330821 132.571936,282.451905 139.78508,283.600914 C144.079929,284.25749 148.374778,286.11779 151.182948,289.455386 C151.843694,290.276107 152.50444,291.042112 153,291.917547 C152.449378,292.191121 152.119005,292.738268 152.339254,293.449559 C153.550622,297.115444 151.238011,299.741749 148.099467,301.054902 C146.998224,301.164331 145.89698,301.875622 145.786856,301.985052 Z" id="Path" fill="#F6926E" fill-rule="nonzero"></path>
                </g>
                <g id="ella" transform="translate(0.000000, 8.000000)">
                    <path d="M147,269.448649 L48.3637516,269.448649 C32.1406844,269.448649 19,256.216461 19,239.880426 L19,117.632432 L147,117.632432 L147,269.448649 L147,269.448649 Z" id="Path" fill="#332345" fill-rule="nonzero"></path>
                    <g id="Group" transform="translate(27.000000, 211.135135)" fill-rule="nonzero">
                        <path d="M132.641115,49.9556536 C140.472125,49.572642 147.16899,45.8519581 153.595819,41.6388307 C149.977352,26.7560949 134.909408,14.9374517 121.407666,16.7430778 C122.271777,19.4241589 125.458188,41.5841147 125.458188,41.5841147 C125.458188,41.5841147 132.857143,43.9916161 132.641115,49.9556536 Z" id="Path" fill="#FFFFFF"></path>
                        <path d="M132.641115,49.6820739 C132.695122,52.0895753 131.452962,55.098952 127.996516,58.819636 C127.132404,59.7498069 125.944251,73.1552124 126.970383,78.4626586 C152.245645,67.6289024 157.214286,54.223497 153.379791,40.6539437 C147.277003,45.2500827 140.148084,48.4783232 132.641115,49.6820739 Z" id="Path" fill="#EE815A"></path>
                        <path d="M139.824042,70.1458356 C142.578397,68.0666299 144.954704,65.6591285 147.222997,63.0874793 C150.841463,58.3819084 153.325784,53.1838941 154.351916,47.3840044 C154.297909,45.0859349 153.919861,42.7878654 153.271777,40.5992278 C147.222997,45.2500827 140.094077,48.4783232 132.587108,49.627358 C132.641115,52.0348593 131.398955,55.0442361 127.942509,58.76492 C127.132404,59.5856591 125.512195,73.5382239 126.052265,79.885273 C130.210801,76.4381688 134.963415,73.9759515 139.283972,70.8571429 C139.445993,70.5835632 139.608014,70.3646994 139.824042,70.1458356 Z" id="Path" fill="#F6926E"></path>
                        <path d="M137.609756,80.7607281 C140.418118,76.8211804 141.876307,71.7873138 138.95993,65.3855488 C135.989547,58.819636 130.480836,57.2875896 124.702091,60.625262 C121.839721,62.2667402 119.571429,64.7836735 117.357143,67.3006067 C115.304878,69.7081081 113.198606,72.4986211 113.30662,75.6721456 C113.414634,79.7211252 114.980836,83.1135135 118.221254,85.466299 C120.003484,86.7794815 125.890244,89.9530061 128.80662,89.8982901 C130.912892,89.8982901 133.019164,89.6247104 134.855401,88.5303916 C136.205575,87.7643685 137.447735,86.7247656 138.149826,85.3021511 C138.851916,83.8795367 138.851916,82.0739106 137.825784,80.87016 C137.71777,80.87016 137.663763,80.815444 137.609756,80.7607281 Z" id="Path" fill="#EE815A"></path>
                        <path d="M136.529617,83.0040816 C136.529617,83.0587976 136.47561,83.0587976 136.47561,83.1135135 C136.205575,83.4418092 135.881533,83.605957 135.557491,83.605957 C134.531359,84.0984004 133.45122,84.3719801 132.101045,84.481412 C130.696864,84.536128 130.264808,82.5663541 131.398955,81.9097628 C133.235192,80.815444 135.017422,79.4475455 136.529617,77.8607832 C136.583624,77.7513514 136.583624,77.5872035 136.691638,77.4777716 C137.501742,75.9457253 138.311847,74.413679 138.95993,72.8816327 C139.391986,71.5137341 139.770035,70.1458356 140.094077,68.7232212 C139.824042,67.6836183 139.5,66.5892995 138.95993,65.4402648 C135.989547,58.8743519 130.480836,57.3423056 124.702091,60.6799779 C121.839721,62.3214562 119.571429,64.8383894 117.357143,67.3553227 C115.304878,69.762824 113.198606,72.553337 113.30662,75.7268616 C113.414634,79.7758411 114.980836,83.1682295 118.221254,85.5210149 C120.003484,86.8341975 125.458188,89.7888582 128.80662,89.9530061 C130.912892,90.0624379 133.019164,89.6794264 134.855401,88.5851076 C136.205575,87.8190844 137.447735,86.7794815 138.149826,85.3568671 C138.689895,84.2078323 138.797909,82.8399338 138.311847,81.6908991 C137.71777,82.1833425 137.123693,82.62107 136.529617,83.0040816 Z" id="Path" fill="#F6926E"></path>
                        <path d="M26.9494774,153.478213 C26.9494774,153.478213 27.8135889,94.6585769 34.456446,75.8362934 C36.7787456,73.7570877 123.297909,79.939989 123.297909,79.939989 L124.432056,153.478213 L133.883275,153.478213 L133.883275,160.755433 L106.825784,160.755433 L101.263066,157.144181 L101.263066,160.755433 L89.597561,160.755433 C89.597561,160.755433 88.4094077,118.022284 79.6602787,98.5981247 C72.315331,107.243243 64.6463415,138.759625 62.054007,153.478213 C61.2439024,157.96492 60.4878049,160.755433 60.4878049,160.755433 L48.1202091,160.755433 L48.1202091,157.198897 L42.5034843,160.755433 L16.8501742,160.755433 L16.8501742,153.478213 L26.9494774,153.478213 L26.9494774,153.478213 Z" id="Path" fill="#292C33"></path>
                        <path d="M26.9494774,153.478213 C26.9494774,153.478213 59.6777003,153.478213 62.2160279,153.478213 C67.7247387,118.569443 79.6602787,98.5981247 79.6602787,98.5981247 C79.6602787,98.5981247 87.869338,127.816437 88.4094077,153.478213 C89.8675958,153.478213 122.109756,153.478213 124.486063,153.478213 C128.158537,104.069719 123.297909,79.939989 123.297909,79.939989 L34.456446,75.8362934 L26.9494774,153.478213 Z" id="Path" fill="#3E404D"></path>
                        <path d="M79.6602787,98.5981247 C86.141115,120.593933 88.4094077,153.478213 88.4094077,153.478213 L100.344948,153.478213 C100.290941,153.478213 91.9198606,113.152565 79.6602787,98.5981247 Z" id="Path" fill="#292C33"></path>
                        <polygon id="Path" fill="#010101" points="88.4094077 153.478213 89.597561 160.755433 101.263066 160.755433 101.263066 157.69134 99.6968641 153.478213"></polygon>
                        <polyline id="Path" fill="#292C33" points="26.9494774 153.478213 46.6080139 75.8362934 34.456446 75.8362934 26.9494774 153.478213"></polyline>
                        <polygon id="Path" fill="#17181C" points="88.4094077 153.478213 89.597561 160.755433 101.263066 160.755433 101.263066 157.69134 99.6968641 153.478213"></polygon>
                        <polyline id="Path" fill="#17181C" points="26.9494774 153.478213 16.8501742 153.478213 16.8501742 160.755433 29.0017422 160.755433 29.0017422 153.478213 26.9494774 153.478213"></polyline>
                        <path d="M103.531359,1.75091009 C56.5993031,4.04897959 37.7508711,16.6883618 37.7508711,16.6883618 C37.7508711,16.6883618 35.1585366,24.8957529 34.1864111,38.7388858 C34.7804878,38.7388858 35.3205575,38.9030336 35.8066202,39.2313293 C37.912892,40.8180916 38.2369338,43.4991726 37.804878,47.3840044 C37.2108014,52.6367347 35.2125436,59.0932157 33.8623693,62.8138996 C33.9163763,68.5043574 33.9703833,74.3042471 33.8623693,80.0494208 C38.0749129,80.0494208 124.918118,80.0494208 124.918118,80.0494208 L125.134465,32.9389961 C125.188153,32.9389961 118.383275,1.42261445 103.531359,1.75091009 Z" id="Path" fill="#FFFFFF"></path>
                        <path d="M33.9163763,79.9947049 L37.6428571,64.3459459 L43.4756098,61.8290127 C53.6829268,57.4517375 58.543554,45.6330943 54.4390244,35.1823497 L42.0714286,3.55653613 L59.9477352,1.58676227 L91.0557491,36.8785438 L103.477352,6.89420849 C115.304878,6.89420849 124.918118,16.6336459 124.918118,28.6164368 L124.918118,79.939989 L33.9163763,79.9947049 L33.9163763,79.9947049 Z" id="Path" fill="#EE815A"></path>
                        <polygon id="Path" fill="#FFFFFF" points="38.2369338 60.625262 84.6289199 60.625262 47.4181185 1.80562603 56.2212544 1.80562603 94.0261324 60.625262 109.958188 1.80562603 118.815331 1.80562603 102.829268 60.625262 124.972125 60.625262 124.972125 69.4345284 34.402439 69.4345284"></polygon>
                        <path d="M33.9163763,79.9947049 L33.9163763,57.1781577 C33.9163763,57.1781577 68.912892,48.4236073 44.3937282,13.3506895 C47.6341463,10.8884721 60.0017422,1.58676227 60.0017422,1.58676227 L91.1097561,36.8785438 L102.019164,7.27722008 C113.84669,7.27722008 125.512195,16.6336459 125.512195,28.6164368 L125.512195,79.939989 L33.9163763,79.9947049 L33.9163763,79.9947049 Z" id="Path" fill="#F9AA36"></path>
                        <g transform="translate(33.484321, 0.000000)" fill="#292C33">
                            <rect id="Rectangle" x="0.270034843" y="60.7346939" width="91.8118467" height="9.30170987"></rect>
                            <path d="M52.3867596,64.4006619 C38.2369338,29.4918919 10.315331,7.9885273 10.0452962,7.76966354 L15.554007,0.328295643 C16.7961672,1.25846663 45.7979094,23.6372863 60.9198606,60.8441258 L52.3867596,64.4006619 Z" id="Path"></path>
                            <path d="M66.3205575,63.3063431 L57.7874564,61.9384446 C62.3780488,32.2276889 75.5557491,8.15267512 76.0958188,7.1677882 L83.6567944,11.4356315 C83.6567944,11.4356315 83.6567944,11.4356315 83.6567944,11.4356315 L83.6567944,11.4356315 C83.4407666,11.8186431 70.587108,35.2370656 66.3205575,63.3063431 Z" id="Path"></path>
                        </g>
                        <path d="M4.6445993,31.8993933 C2.16027875,35.9483729 0.702090592,40.5992278 0.216027875,45.3047987 C0.324041812,45.3595146 0.37804878,45.4142306 0.486062718,45.4689465 C4.10452962,48.4236073 8.47909408,50.8311087 13.2317073,51.1594043 C16.3641115,51.3782681 19.7125436,51.5971318 22.8989547,51.3782681 C22.6829268,43.0614451 32.0261324,36.6596801 40.4512195,38.4105902 C41.5853659,33.3220077 44.3937282,13.2959735 44.3937282,13.2959735 C44.3937282,13.2959735 16.0940767,13.3506895 4.6445993,31.8993933 Z" id="Path" fill="#FFFFFF"></path>
                        <path d="M22.8449477,50.6122449 C14.9059233,50.7763927 7.07491289,49.0801986 0.216027875,44.9217871 C-1.08013937,56.4668505 6.53484321,69.5986762 15.6620209,74.9608384 C21.9808362,78.6815223 33.5383275,72.1156095 35.2125436,66.6987314 C25.9233449,61.555433 22.6289199,55.7008274 22.8449477,50.6122449 Z" id="Path" fill="#EE815A"></path>
                        <path d="M35.2125436,66.6987314 C25.9233449,61.555433 22.5749129,55.7008274 22.8449477,50.6122449 C16.3641115,50.7763927 9.88327526,49.627358 3.99651568,46.9462769 C4.05052265,48.9707667 3.34843206,61.0082736 16.3641115,73.0457805 C17.0662021,73.7023718 18.902439,74.1948152 19.010453,74.9608384 C19.7125436,75.7268616 19.3885017,77.3136238 18.0383275,77.3136238 C17.8763066,77.3136238 17.7142857,77.3136238 17.5522648,77.3136238 C17.5522648,77.8060673 27.2735192,82.62107 32.8362369,83.551241 C32.78223,77.8607832 33.5383275,72.1156095 35.2125436,66.6987314 Z" id="Path" fill="#F6926E"></path>
                        <path d="M30.1358885,63.361059 C25.9233449,64.0176503 21.7108014,65.8779923 18.956446,69.2156646 C17.4982578,71.0212907 16.2560976,72.7722008 15.6620209,74.9608384 C15.3919861,75.8910094 15.9860627,80.4871484 21.1707317,82.8946498 C20.2526132,85.1380033 21.2247387,87.8738003 22.9529617,89.5699945 C29.9738676,96.1906233 42.5034843,88.8586873 43.6376307,87.4360728 C46.2299652,84.1531164 46.9860627,79.5022614 47.5261324,75.6721456 C48.0121951,72.553337 38.0749129,62.1025924 30.1358885,63.361059 Z" id="Path" fill="#EE815A"></path>
                        <path d="M24.2491289,81.8003309 C25.3832753,82.8946498 26.7874564,83.8248207 27.489547,85.1927192 C30.3519164,85.7945946 34.402439,85.3021511 40.5052265,82.4569222 C43.2595819,81.1984556 45.9059233,78.5173745 47.5801394,75.7268616 C46.0139373,70.1458356 37.2108014,62.2667402 30.1358885,63.415775 C25.9233449,64.0723662 21.7108014,65.9327082 18.956446,69.2703806 C18.3083624,70.0911197 17.6602787,70.8571429 17.174216,71.7325979 C17.7142857,72.0061776 18.0383275,72.553337 17.8222997,73.2646442 C16.6341463,76.9306122 18.902439,79.5569774 21.9808362,80.87016 C23.0609756,80.9795918 24.141115,81.6908991 24.2491289,81.8003309 Z" id="Path" fill="#F6926E"></path>
                    </g>
                    <path d="M164,193.037838 C175.588083,193.037838 185,183.332598 185,171.421622 C185,159.510645 175.588083,149.805405 164,149.805405 C152.411917,149.805405 143,159.455502 143,171.421622 C143,183.387741 152.411917,193.037838 164,193.037838 Z" id="Path" fill="#EE815A" fill-rule="nonzero"></path>
                    <path d="M174,166.929265 C174,209.9453 143.326741,235.264865 105.5,235.264865 C67.6732595,235.264865 37,209.9453 37,166.929265 C37,123.91323 67.6732595,79.427027 105.5,79.427027 C143.326741,79.427027 174,123.85878 174,166.929265 Z" id="Path" fill="#EE815A" fill-rule="nonzero"></path>
                    <path d="M170,170.918919 L84.9723926,170.918919 C73.3752556,170.918919 64,180.419578 64,192.171837 L64,223.529503 C75.597137,231.821985 90.1206544,236.27027 105.890593,236.27027 C135.208589,236.27027 160.245399,220.893482 170,193.764433 L170,170.918919 L170,170.918919 Z" id="Path" fill="#F6926E" fill-rule="nonzero"></path>
                    <path d="M94.012444,160.864865 L18,160.864865 L18,106.572973 L127,127.656142 C126.945744,146.008331 112.188153,160.864865 94.012444,160.864865 Z" id="Path" fill="#332345" fill-rule="nonzero"></path>
                    <path d="M146.195243,160.864865 L122,160.864865 L122,124.67027 L182,124.67027 C182.054112,144.632138 165.996283,160.864865 146.195243,160.864865 Z" id="Path" fill="#332345" fill-rule="nonzero"></path>
                    <path d="M0.0542890829,129.413313 C0.108578166,130.778432 0.868625326,132.143551 2.49729781,132.744204 C19.001179,139.405986 183.062787,139.405986 199.566669,132.744204 C201.955388,131.761318 202.498279,129.249498 201.575365,127.392936 C200.869607,123.406788 198.263731,120.130501 194.680651,118.601568 C195.277831,114.397 195.549276,110.137828 195.549276,105.769446 C195.549276,64.8158659 169.816251,29.9234157 133.7683,16.5998511 C130.130932,15.2347317 127.199321,12.3952835 125.733516,8.73676372 C123.616242,3.44010072 118.567357,0 112.867003,0 L89.1969631,0 C83.5508985,0 78.4477247,3.49470549 76.3847396,8.79136849 C74.9189343,12.4498883 72.041613,15.2893365 68.3499553,16.6544558 C32.2477152,30.0326253 6.51468994,64.9250754 6.51468994,105.824051 C6.51468994,110.192432 6.84042444,114.50621 7.43760435,118.710777 C3.20305589,120.567339 0,124.662697 0,129.413313 L0.0542890829,129.413313 L0.0542890829,129.413313 Z" id="Path" fill="#F9C838" fill-rule="nonzero"></path>
                    <polygon id="Path" fill="#292C33" fill-rule="nonzero" points="93 77.5662949 113.47263 89.4810811 134 77.5662949 113.47263 44.2378378"></polygon>
                    <polygon id="Path" fill="#292C33" fill-rule="nonzero" points="93 84.4540541 113.47263 113.610811 134 84.4540541 113.47263 97.1380669"></polygon>
                    <path d="M2.42109039,132.428851 C6.241033,134.009639 18.1850789,135.208857 34.4332855,136.026506 L51.1657102,136.735135 L49.982066,109.807229 C48.7984218,82.7703028 54.0710187,55.8423966 65.2618364,31.3129274 L75,10.0540541 C73.4397418,13.0521003 70.8572453,15.3960274 67.6829268,16.5407359 C31.9583931,29.8956692 6.45624103,64.7275155 6.45624103,105.555454 C6.45624103,109.916249 6.77905308,114.222533 7.37087518,118.419798 C3.17431851,120.273136 0,124.361381 0,129.103745 L0.107604017,129.103745 C0.107604017,130.466493 0.860832138,131.829241 2.42109039,132.428851 Z" id="Path" fill="#F9AA36" fill-rule="nonzero"></path>
                    <path d="M43,193.037838 C54.5880829,193.037838 64,183.332598 64,171.421622 C64,159.510645 54.5880829,149.805405 43,149.805405 C31.4119171,149.805405 22,159.455502 22,171.421622 C22,183.387741 31.4119171,193.037838 43,193.037838 Z" id="Path" fill="#EE815A" fill-rule="nonzero"></path>
                    <path d="M46.9910448,178.075681 C46.9910448,178.408111 46.9910448,178.685137 46.9373134,178.962162 C48.8179104,176.690553 50,173.698678 50,170.429778 C50,164.944673 46.7223881,160.23524 42.1014925,158.351467 C40.1134328,157.52039 37.8567164,157.742011 35.9761194,158.850113 C35.9761194,158.850113 35.9223881,158.850113 35.9223881,158.905518 C34.0955224,160.01362 32.8059701,161.841988 32.3761194,164.002786 C32.1074627,165.277104 32,166.551421 32,167.881143 C32,168.379789 32,168.82303 32.0537313,169.321676 C33.558209,168.324384 35.3313433,167.770333 37.2119403,167.770333 C42.5850746,167.770333 46.9910448,172.368956 46.9910448,178.075681 Z" id="Path" fill="#F6926E" fill-rule="nonzero"></path>
                    <g id="Group" transform="translate(82.000000, 168.908108)">
                        <path d="M10.0338983,0.110397456 L10.0338983,0.110397456 C4.66440678,0.110397456 0.271186441,4.58149444 0.271186441,10.0461685 L0.271186441,17.7739905 C0.271186441,23.2386645 4.66440678,27.7097615 10.0338983,27.7097615 L10.0338983,27.7097615 C15.4033898,27.7097615 19.7966102,23.2386645 19.7966102,17.7739905 L19.7966102,10.0461685 C19.7966102,4.52629571 15.4576271,0.110397456 10.0338983,0.110397456 Z" id="Path" fill="#292C33" fill-rule="nonzero"></path>
                        <path d="M53.9661017,0.110397456 L53.9661017,0.110397456 C48.5966102,0.110397456 44.2033898,4.58149444 44.2033898,10.0461685 L44.2033898,17.7739905 C44.2033898,23.2386645 48.5966102,27.7097615 53.9661017,27.7097615 L53.9661017,27.7097615 C59.3355932,27.7097615 63.7288136,23.2386645 63.7288136,17.7739905 L63.7288136,10.0461685 C63.7288136,4.52629571 59.3898305,0.110397456 53.9661017,0.110397456 Z" id="Path" fill="#292C33" fill-rule="nonzero"></path>
                        <path d="M14.8067797,13.799682 C16.8135593,13.799682 18.440678,12.1437202 18.440678,10.0461685 C18.440678,7.94861685 16.8135593,6.29265501 14.8067797,6.29265501 C12.8,6.29265501 11.1728814,7.94861685 11.1728814,10.0461685 C11.1728814,12.1437202 12.8,13.799682 14.8067797,13.799682 Z" id="Path"></path>
                        <path d="M59.6067797,13.799682 C61.6135593,13.799682 63.240678,12.1437202 63.240678,10.0461685 C63.240678,7.94861685 61.6135593,6.29265501 59.6067797,6.29265501 C57.6,6.29265501 55.9728814,7.94861685 55.9728814,10.0461685 C55.9728814,12.1437202 57.6,13.799682 59.6067797,13.799682 Z" id="Path"></path>
                    </g>
                    <path d="M113.972516,218.172973 C121.173362,218.172973 127,212.327198 127,205.102703 L101,205.102703 C101,212.382347 106.826638,218.172973 113.972516,218.172973 Z" id="Path" fill="#FFFFFF" fill-rule="nonzero"></path>
                </g>
            </g>
        </g>
    </g>
</svg>