<svg width="786" height="720" viewBox="0 0 786 720" fill="none" xmlns="http://www.w3.org/2000/svg">
<path d="M519.882 527.1H542.682V544.3L519.882 554.8V527.1Z" fill="#F36D4C"/>
<path d="M684.382 519.5H501.982C471.982 519.5 447.682 495.2 447.682 465.2V240.7H684.382V519.5Z" fill="#290F48"/>
<path d="M696.182 564.3L734.382 507.3C752.782 480.1 738.482 442.9 706.682 435L651.982 421.3L696.182 564.3Z" fill="#F36D4C"/>
<path d="M656.482 421.2L710.782 436.2L696.182 470.6L656.482 421.2Z" fill="white"/>
<path d="M696.182 564.3L734.382 507.3C752.782 480.1 738.482 442.9 706.682 435L651.982 421.3L696.182 564.3Z" fill="#F36D4C"/>
<path d="M519.882 527.1H542.682V544.3L519.882 554.8V527.1Z" fill="#F36D4C"/>
<path d="M522.182 480.4H512.182C511.682 480.3 510.782 426.4 510.782 426.4C513.182 425.8 656.482 421.3 656.482 421.3L710.882 436.3L696.582 478.3L696.182 564.4H527.582C527.582 564.4 527.282 562.3 527.082 558.1L539.682 502.3C542.182 491 533.682 480.4 522.182 480.4Z" fill="white"/>
<path d="M479.382 495.5L512.182 555.6C515.282 561.3 521.182 564.3 527.682 564.3L510.982 426.3C471.782 426.4 461.382 466.6 479.382 495.5Z" fill="#F36D4C"/>
<path d="M474.982 706.2V719.5H522.482L532.882 713V719.5H554.782L611.282 605.9L629.582 719.5H651.182V712.9L661.582 719.5H711.582V706.2H696.182V478L527.582 564.3L493.682 706.2H474.982Z" fill="#010101"/>
<path d="M527.582 564.3L534.482 535.7L545.282 531.1C564.182 523.1 573.182 501.5 565.582 482.4L542.682 424.6L575.782 421L633.382 485.5L656.382 430.7C678.282 430.7 696.082 448.5 696.082 470.4V564.2H527.582V564.3Z" fill="#FED30C"/>
<path d="M535.582 528.9H621.482L552.582 421.4H568.882L638.882 528.9L668.382 421.4H684.782L655.182 528.9H696.182V545H528.482L535.582 528.9Z" fill="white"/>
<path d="M517.082 534.8H538.582C545.582 534.8 551.582 539.7 552.982 546.6L557.482 564.3H527.682L517.082 534.8Z" fill="#F36D4C"/>
<path d="M479.382 495.5L512.182 555.6C515.282 561.3 521.182 564.3 527.682 564.3L510.982 426.3C471.782 426.4 461.382 466.6 479.382 495.5Z" fill="#F36D4C"/>
<path d="M474.982 706.2V719.5H522.482L532.882 713V719.5H554.782L611.282 605.9L629.582 719.5H651.182V712.9L661.582 719.5H711.582V706.2H696.182V478L527.582 564.3L493.682 706.2H474.982Z" fill="black"/>
<path d="M527.582 564.3L534.482 535.7L545.282 531.1C564.182 523.1 573.182 501.5 565.582 482.4L542.682 424.6L575.782 421L633.382 485.5L656.382 430.7C678.282 430.7 696.082 448.5 696.082 470.4V564.2H527.582V564.3Z" fill="#FED30C"/>
<path d="M535.582 528.9H621.482L552.582 421.4H568.882L638.882 528.9L668.382 421.4H684.782L655.182 528.9H696.182V545H528.482L535.582 528.9Z" fill="white"/>
<path d="M517.082 534.8H538.582C545.582 534.8 551.582 539.7 552.982 546.6L557.482 564.3H527.682L517.082 534.8Z" fill="#F36D4C"/>
<path d="M722.482 379.7C743.8 379.7 761.082 362.15 761.082 340.5C761.082 318.85 743.8 301.3 722.482 301.3C701.164 301.3 683.882 318.85 683.882 340.5C683.882 362.15 701.164 379.7 722.482 379.7Z" fill="#F36D4C"/>
<path d="M734.782 332.4C734.782 411.4 678.182 457.9 608.382 457.9C538.582 457.9 481.982 411.4 481.982 332.4C481.982 253.4 538.582 171.7 608.382 171.7C678.182 171.7 734.782 253.3 734.782 332.4Z" fill="#F36D4C"/>
<path d="M726.682 338.9H569.782C548.382 338.9 531.082 356.2 531.082 377.6V434.7C552.482 449.8 579.282 457.9 608.382 457.9C662.482 457.9 708.682 429.9 726.682 380.5V338.9Z" fill="#F6926E"/>
<path d="M596.582 132L634.082 153.7L671.582 132L634.082 71.3L596.582 132Z" fill="#010101"/>
<path d="M596.582 145.7L634.082 198.8L671.582 145.7L634.082 168.8L596.582 145.7Z" fill="#010101"/>
<path d="M587.682 321H447.582V221.6L648.482 260.2C648.382 293.8 621.182 321 587.682 321Z" fill="#290F48"/>
<path d="M682.782 321H638.182V255H748.782C748.882 291.4 719.282 321 682.782 321Z" fill="#290F48"/>
<path d="M413.582 263C413.682 265.5 415.082 268 418.082 269.1C448.482 281.3 750.682 281.3 781.082 269.1C785.482 267.3 786.482 262.7 784.782 259.3C783.482 252 778.682 246 772.082 243.2C773.182 235.5 773.682 227.7 773.682 219.7C773.682 144.7 726.282 80.8 659.882 56.4C653.182 53.9 647.782 48.7 645.082 42C641.182 32.3 631.882 26 621.382 26H577.782C567.382 26 557.982 32.4 554.182 42.1C551.482 48.8 546.182 54 539.382 56.5C472.882 81 425.482 144.9 425.482 219.8C425.482 227.8 426.082 235.7 427.182 243.4C419.382 246.8 413.482 254.3 413.482 263H413.582Z" fill="#FED30C"/>
<path d="M586.082 167.1L623.482 188.8L660.982 167.1L623.482 106.4L586.082 167.1Z" fill="black"/>
<path d="M586.082 180.8L623.482 233.9L660.982 180.8L623.482 203.9L586.082 180.8Z" fill="black"/>
<path d="M418.082 269.1C425.182 272 447.382 274.2 477.582 275.7L508.682 277L506.482 227.6C504.282 178 514.082 128.6 534.882 83.6L552.982 44.6C550.082 50.1 545.282 54.4 539.382 56.5C472.982 81 425.582 144.9 425.582 219.8C425.582 227.8 426.182 235.7 427.282 243.4C419.482 246.8 413.582 254.3 413.582 263H413.782C413.782 265.5 415.182 268 418.082 269.1Z" fill="#F9AA36"/>
<path d="M483.282 379.7C504.6 379.7 521.882 362.15 521.882 340.5C521.882 318.85 504.6 301.3 483.282 301.3C461.964 301.3 444.682 318.85 444.682 340.5C444.682 362.15 461.964 379.7 483.282 379.7Z" fill="#F36D4C"/>
<path d="M491.082 352.4C491.082 353 491.082 353.5 490.982 354C494.482 349.9 496.682 344.5 496.682 338.6C496.682 328.7 490.582 320.2 481.982 316.8C478.282 315.3 474.082 315.7 470.582 317.7C470.582 317.7 470.482 317.7 470.482 317.8C467.082 319.8 464.682 323.1 463.882 327C463.382 329.3 463.182 331.6 463.182 334C463.182 334.9 463.182 335.7 463.282 336.6C466.082 334.8 469.382 333.8 472.882 333.8C482.882 333.8 491.082 342.1 491.082 352.4Z" fill="#0A0A0B"/>
<path d="M465.082 356.3C468.782 356.3 471.782 353.256 471.782 349.5C471.782 345.744 468.782 342.7 465.082 342.7C461.382 342.7 458.382 345.744 458.382 349.5C458.382 353.256 461.382 356.3 465.082 356.3Z" fill="#F6926E"/>
<path d="M665 386C655.045 386 647 379.305 647 371.021V340.979C647 332.695 655.045 326 665 326C674.955 326 683 332.695 683 340.979V371.021C683 379.305 674.955 386 665 386Z" fill="black"/>
<path d="M584 386C574.045 386 566 379.305 566 371.021V340.979C566 332.695 574.045 326 584 326C593.955 326 602 332.695 602 340.979V371.021C602 379.305 593.855 386 584 386Z" fill="black"/>
<path d="M623.182 425.5C636.282 425.5 646.882 414.9 646.882 401.8H599.582C599.582 415 610.182 425.5 623.182 425.5Z" fill="white"/>
<path d="M258.182 554.1L235.382 543.6V526.4H258.182V554.1Z" fill="#F36D4C"/>
<path d="M343.882 332.6C343.482 328.7 343.082 325.2 339.182 325.6C334.082 326.2 328.882 327.9 327.482 333.9C326.382 338.4 329.082 341.2 333.282 341.3C339.382 341.3 342.382 337.3 343.882 332.6Z" fill="#DC5F7C"/>
<path d="M343.882 332.6C343.482 328.7 343.082 325.2 339.182 325.6C334.082 326.2 328.882 327.9 327.482 333.9C326.382 338.4 329.082 341.2 333.282 341.3C339.382 341.3 342.382 337.3 343.882 332.6Z" fill="#DC5F7C"/>
<path d="M126.082 420.6L71.3821 434.3C39.5821 442.2 25.2821 479.4 43.6821 506.6L81.8821 563.6L126.082 420.6Z" fill="#F36D4C"/>
<path d="M258.182 554.1L235.382 543.6V526.4H258.182V554.1Z" fill="#F36D4C"/>
<path d="M255.882 479.7H265.882C266.382 479.6 267.282 425.7 267.282 425.7C264.882 425.1 121.582 420.6 121.582 420.6L67.1822 435.6L81.4822 477.6L81.8822 563.7H250.482C250.482 563.7 250.782 561.6 250.982 557.4L238.382 501.6C235.882 490.3 244.382 479.7 255.882 479.7Z" fill="white"/>
<path d="M267.182 425.7L250.482 563.7C256.982 563.7 262.782 560.6 265.982 555L298.782 494.9C316.682 465.9 306.182 425.7 267.182 425.7Z" fill="#F36D4C"/>
<path d="M284.382 705.5L250.482 563.6L81.8822 477.3V705.5H66.3822V718.8H116.482L126.782 712.2V718.8H148.382L166.782 605.2L223.282 718.8H245.182V712.3L255.582 718.8H303.082V705.5H284.382Z" fill="#010101"/>
<path d="M250.382 563.6L243.482 535L232.682 530.4C213.782 522.4 204.782 500.8 212.382 481.7L235.282 423.9L202.182 420.3L144.582 484.8L121.582 430C99.6822 430 81.8822 447.8 81.8822 469.7V563.5H250.382V563.6Z" fill="#FED30C"/>
<path d="M242.482 528.2H156.582L225.482 420.7H209.182L139.182 528.2L109.682 420.7H93.2822L122.882 528.2H81.8822V544.3H249.582L242.482 528.2Z" fill="white"/>
<path d="M250.482 563.6H220.682L225.182 545.9C226.582 539.1 232.582 534.1 239.582 534.1H260.982L250.482 563.6Z" fill="#F36D4C"/>
<path d="M65.3822 367.9C89.9036 367.9 109.782 348.021 109.782 323.5C109.782 298.979 89.9036 279.1 65.3822 279.1C40.8607 279.1 20.9822 298.979 20.9822 323.5C20.9822 348.021 40.8607 367.9 65.3822 367.9Z" fill="#F36D4C"/>
<path d="M154.882 454.1C109.482 460.7 67.0822 428.3 60.6822 382.2L42.6822 253.4C36.1822 207.3 68.0822 164.2 113.382 157.7L240.182 139.4C285.582 132.8 327.982 165.2 334.382 211.3C350.782 328.2 269.982 437.5 154.882 454.1Z" fill="#F36D4C"/>
<path d="M41.8822 242C41.8822 245.7 42.1822 249.5 42.6822 253.3L44.5822 266.6H102.882C109.782 266.6 116.282 270.3 119.782 276.3C123.282 282.3 129.782 286 136.682 286H260.882C273.582 286 285.382 292.9 291.582 304L332.582 284.7C335.182 271.4 336.582 256 336.582 242.1H41.8822V242Z" fill="#010101"/>
<path d="M48.8822 296.7L60.7822 382C67.2822 428.1 109.682 460.4 154.982 453.9C198.382 447.6 236.982 428.1 267.282 400V369C267.282 328.3 234.282 295.3 193.582 295.3H48.8822V296.7Z" fill="#F6926E"/>
<path d="M254.882 50.3C275.382 61.2 283.982 79.8 289.282 100.6C291.082 107.7 294.482 113.6 302.782 111.6C311.482 109.5 310.382 102.4 308.882 95.6C302.682 68.3 281.582 49.6 254.882 50.3Z" fill="#FED30C"/>
<path d="M41.7822 242.5C41.7822 243 41.7822 243.4 41.7822 243.8C41.8822 243.4 41.7822 242.9 41.7822 242.5Z" fill="#F36D4C"/>
<path d="M117.682 364C107.782 364 99.7822 356 99.7822 346.1V320.8C99.7822 310.9 107.782 302.9 117.682 302.9C127.582 302.9 135.582 310.9 135.582 320.8V346.1C135.582 356 127.582 364 117.682 364Z" fill="#010101"/>
<path d="M191.782 364C181.882 364 173.882 356 173.882 346.1V320.8C173.882 310.9 181.882 302.9 191.782 302.9C201.682 302.9 209.682 310.9 209.682 320.8V346.1C209.682 356 201.682 364 191.782 364Z" fill="#010101"/>
<path d="M154.882 405.7C167.982 405.7 178.582 395.1 178.582 382H131.282C131.182 395.2 141.782 405.7 154.882 405.7Z" fill="#010101"/>
<path d="M314.282 369.2C338.417 369.2 357.982 349.321 357.982 324.8C357.982 300.279 338.417 280.4 314.282 280.4C290.147 280.4 270.582 300.279 270.582 324.8C270.582 349.321 290.147 369.2 314.282 369.2Z" fill="#F36D4C"/>
<path d="M326.182 317.3C330.182 317.3 333.882 318.5 336.982 320.5C337.082 319.5 337.082 318.5 337.082 317.6C337.082 314.9 336.782 312.2 336.282 309.6C335.382 305.2 332.682 301.4 328.882 299.2C328.882 299.2 328.782 299.2 328.782 299.1C324.882 296.8 320.082 296.4 315.882 298.1C306.182 301.9 299.182 311.5 299.182 322.7C299.182 329.4 301.682 335.4 305.682 340.1C305.682 339.5 305.582 338.9 305.582 338.3C305.582 326.6 314.782 317.3 326.182 317.3Z" fill="#0A0A0B"/>
<path d="M334.882 342.7C339.08 342.7 342.482 339.253 342.482 335C342.482 330.747 339.08 327.3 334.882 327.3C330.685 327.3 327.282 330.747 327.282 335C327.282 339.253 330.685 342.7 334.882 342.7Z" fill="#F6926E"/>
<path d="M372.082 237C372.082 228.3 366.182 220.8 358.382 217.4C359.482 209.7 360.082 201.8 360.082 193.8C360.082 118.8 312.682 54.9 246.182 30.5C239.482 28 234.082 22.8 231.382 16.1C227.582 6.4 218.182 0 207.782 0H164.182C153.782 0 144.382 6.4 140.482 16C137.782 22.7 132.482 27.9 125.682 30.4C59.2822 54.9 11.8822 118.8 11.8822 193.8C11.8822 201.8 12.4822 209.6 13.4822 217.3C6.88217 220.1 1.98217 226.2 0.782175 233.4C-0.917826 236.8 0.0821743 241.4 4.48217 243.2C34.8822 255.4 337.082 255.4 367.482 243.2C370.382 242 371.882 239.5 371.982 237.1H372.082V237Z" fill="#FED30C"/>
<path d="M151.382 80.4L113.882 141.1L151.382 162.8L188.882 141.1L151.382 80.4Z" fill="#010101"/>
<path d="M151.382 177.9L113.882 154.8L151.382 207.9L188.882 154.8L151.382 177.9Z" fill="#010101"/>
<path d="M371.882 237H372.082C372.082 228.3 366.182 220.8 358.382 217.4C359.482 209.7 360.082 201.8 360.082 193.8C360.082 118.9 312.682 55 246.282 30.5C240.382 28.3 235.582 24 232.682 18.6L250.782 57.7C271.582 102.7 281.382 152.1 279.182 201.7L276.982 251.1L308.082 249.8C338.182 248.3 360.382 246.1 367.582 243.2C370.282 242 371.682 239.5 371.882 237Z" fill="#F9AA36"/>
<path d="M126.082 420.6L71.3821 434.3C39.5821 442.2 25.2821 479.4 43.6821 506.6L81.8821 563.6L126.082 420.6Z" fill="#F36D4C"/>
<path d="M121.582 420.5L67.1822 435.5L81.8822 469.9L121.582 420.5Z" fill="white"/>
<path d="M267.182 425.7L250.482 563.7C256.982 563.7 262.782 560.6 265.982 555L298.782 494.9C316.682 465.9 306.182 425.7 267.182 425.7Z" fill="#F36D4C"/>
<path d="M284.382 705.5L250.482 563.6L81.8822 477.3V705.5H66.3822V718.8H116.482L126.782 712.2V718.8H148.382L166.782 605.2L223.282 718.8H245.182V712.3L255.582 718.8H303.082V705.5H284.382Z" fill="black"/>
<path d="M250.382 563.6L243.482 535L232.682 530.4C213.782 522.4 204.782 500.8 212.382 481.7L235.282 423.9L202.182 420.3L144.582 484.8L121.582 430C99.6822 430 81.8822 447.8 81.8822 469.7V563.5H250.382V563.6Z" fill="#FED30C"/>
<path d="M242.482 528.2H156.582L225.482 420.7H209.182L139.182 528.2L109.682 420.7H93.2822L122.882 528.2H81.8822V544.3H249.582L242.482 528.2Z" fill="white"/>
<path d="M250.482 563.6H220.682L225.182 545.9C226.582 539.1 232.582 534.1 239.582 534.1H260.982L250.482 563.6Z" fill="#F36D4C"/>
<path d="M65.3822 367.9C89.9036 367.9 109.782 348.021 109.782 323.5C109.782 298.979 89.9036 279.1 65.3822 279.1C40.8607 279.1 20.9822 298.979 20.9822 323.5C20.9822 348.021 40.8607 367.9 65.3822 367.9Z" fill="#F36D4C"/>
<path d="M154.882 454.1C109.482 460.7 67.0822 428.3 60.6822 382.2L42.6822 253.4C36.1822 207.3 68.0822 164.2 113.382 157.7L240.182 139.4C285.582 132.8 327.982 165.2 334.382 211.3C350.782 328.2 269.982 437.5 154.882 454.1Z" fill="#F36D4C"/>
<path d="M41.8822 242C41.8822 245.7 42.1822 249.5 42.6822 253.3L44.5822 266.6H102.882C109.782 266.6 116.282 270.3 119.782 276.3C123.282 282.3 129.782 286 136.682 286H260.882C273.582 286 285.382 292.9 291.582 304L332.582 284.7C335.182 271.4 336.582 256 336.582 242.1H41.8822V242Z" fill="black"/>
<path d="M48.8822 296.7L60.7822 382C67.2822 428.1 109.682 460.4 154.982 453.9C198.382 447.6 236.982 428.1 267.282 400V369C267.282 328.3 234.282 295.3 193.582 295.3H48.8822V296.7Z" fill="#F6926E"/>
<path d="M254.882 50.3C275.382 61.2 283.982 79.8 289.282 100.6C291.082 107.7 294.482 113.6 302.782 111.6C311.482 109.5 310.382 102.4 308.882 95.6C302.682 68.3 281.582 49.6 254.882 50.3Z" fill="#FED30C"/>
<path d="M314.282 369.2C338.417 369.2 357.982 349.321 357.982 324.8C357.982 300.279 338.417 280.4 314.282 280.4C290.147 280.4 270.582 300.279 270.582 324.8C270.582 349.321 290.147 369.2 314.282 369.2Z" fill="#F36D4C"/>
<path d="M326.182 317.3C330.182 317.3 333.882 318.5 336.982 320.5C337.082 319.5 337.082 318.5 337.082 317.6C337.082 314.9 336.782 312.2 336.282 309.6C335.382 305.2 332.682 301.4 328.882 299.2C328.882 299.2 328.782 299.2 328.782 299.1C324.882 296.8 320.082 296.4 315.882 298.1C306.182 301.9 299.182 311.5 299.182 322.7C299.182 329.4 301.682 335.4 305.682 340.1C305.682 339.5 305.582 338.9 305.582 338.3C305.582 326.6 314.782 317.3 326.182 317.3Z" fill="#0A0A0B"/>
<path d="M334.882 342.7C339.08 342.7 342.482 339.253 342.482 335C342.482 330.747 339.08 327.3 334.882 327.3C330.685 327.3 327.282 330.747 327.282 335C327.282 339.253 330.685 342.7 334.882 342.7Z" fill="#F6926E"/>
<path d="M372.082 237C372.082 228.3 366.182 220.8 358.382 217.4C359.482 209.7 360.082 201.8 360.082 193.8C360.082 118.8 312.682 54.9 246.182 30.5C239.482 28 234.082 22.8 231.382 16.1C227.582 6.4 218.182 0 207.782 0H164.182C153.782 0 144.382 6.4 140.482 16C137.782 22.7 132.482 27.9 125.682 30.4C59.2822 54.9 11.8822 118.8 11.8822 193.8C11.8822 201.8 12.4822 209.6 13.4822 217.3C6.88217 220.1 1.98217 226.2 0.782175 233.4C-0.917826 236.8 0.0821743 241.4 4.48217 243.2C34.8822 255.4 337.082 255.4 367.482 243.2C370.382 242 371.882 239.5 371.982 237.1H372.082V237Z" fill="#FED30C"/>
<path d="M133.882 80.4L96.3822 141.1L133.882 162.8L171.382 141.1L133.882 80.4Z" fill="black"/>
<path d="M133.882 177.9L96.3822 154.8L133.882 207.9L171.382 154.8L133.882 177.9Z" fill="black"/>
<path d="M371.882 237H372.082C372.082 228.3 366.182 220.8 358.382 217.4C359.482 209.7 360.082 201.8 360.082 193.8C360.082 118.9 312.682 55 246.282 30.5C240.382 28.3 235.582 24 232.682 18.6L250.782 57.7C271.582 102.7 281.382 152.1 279.182 201.7L276.982 251.1L308.082 249.8C338.182 248.3 360.382 246.1 367.582 243.2C370.282 242 371.682 239.5 371.882 237Z" fill="#F9AA36"/>
<path d="M194 370C184.045 370 176 363.305 176 355.021V324.979C176 316.695 184.045 310 194 310C203.955 310 212 316.695 212 324.979V355.021C212 363.305 203.955 370 194 370Z" fill="black"/>
<path d="M113 370C103.045 370 95 363.305 95 355.021V324.979C95 316.695 103.045 310 113 310C122.955 310 131 316.695 131 324.979V355.021C131 363.305 122.855 370 113 370Z" fill="black"/>
<path d="M152.182 409.5C165.282 409.5 175.882 398.9 175.882 385.8H128.582C128.582 399 139.182 409.5 152.182 409.5Z" fill="white"/>
</svg>
