<?xml version="1.0" encoding="UTF-8"?>
<svg width="419px" height="385px" viewBox="0 0 419 385" version="1.1" xmlns="http://www.w3.org/2000/svg" xmlns:xlink="http://www.w3.org/1999/xlink">
    <!-- Generator: Sketch 51.3 (57544) - http://www.bohemiancoding.com/sketch -->
    <title>Asset 1</title>
    <desc>Created with Sketch.</desc>
    <defs></defs>
    <g id="Page-1" stroke="none" stroke-width="1" fill="none" fill-rule="evenodd">
        <g id="Buidler-Web-v2" transform="translate(-896.000000, -323.000000)">
            <g id="Asset-1" transform="translate(896.000000, 323.000000)">
                <polygon id="Shape" fill="#292C33" fill-rule="nonzero" points="33 377.895652 33 385 58.3786285 385 63.9352125 381.52795 63.9352125 385 75.6360959 385 106.357594 324.319255 116.188473 385 127.72907 385 127.72907 381.474534 133.232225 385 160 385 160 377.895652 151.718553 377.895652 151.718553 256 61.6377787 302.098137 42.9911653 377.895652"></polygon>
                <polygon id="Shape" fill="#3E404D" fill-rule="nonzero" points="43 378 78.0192629 378 106.530663 324.377739 115.234595 378 152 378 152 256 61.6933661 302.137599"></polygon>
                <polygon id="Shape" fill="#292C33" fill-rule="nonzero" points="106 324 106 324 115.662834 385 127 385 127 382.014437"></polygon>
                <polygon id="Shape" fill="#010101" fill-rule="nonzero" points="115 378 116.176842 385 128 385 128 382.073684 126.423579 378"></polygon>
                <polyline id="Shape" fill="#292C33" fill-rule="nonzero" points="43 378 74 302 61.8451489 302 43 378"></polyline>
                <polygon id="Shape" fill="#17181C" fill-rule="nonzero" points="115 378 116.176842 385 128 385 128 382.073684 126.423579 378"></polygon>
                <polygon id="Shape" fill="#EE8165" fill-rule="nonzero" points="57 282 69 282 69 291.314079 57 297"></polygon>
                <path d="M145,278 L47.1343477,278 C39.4070021,278.001417 31.9957398,274.944446 26.5316812,269.501884 C21.0676227,264.059322 17.998577,256.677217 18.0000005,248.980272 L18,129 L145,129 L145,278 Z" id="Shape" fill="#332345" fill-rule="nonzero"></path>
                <path d="M151.440831,301 L171.699649,270.706294 C176.281563,263.916687 177.267821,255.313176 174.341637,247.659202 C171.415453,240.005228 164.945288,234.264569 157.009355,232.281119 L128,225 L151.440831,301 Z" id="Shape" fill="#EE8165" fill-rule="nonzero"></path>
                <polygon id="Shape" fill="#FFFFFF" fill-rule="nonzero" points="130 225 159 232.894737 151.202578 251"></polygon>
                <path d="M151.440831,301 L171.699649,270.706294 C176.281563,263.916687 177.267821,255.313176 174.341637,247.659202 C171.415453,240.005228 164.945288,234.264569 157.009355,232.281119 L128,225 L151.440831,301 Z" id="Shape" fill="#EE8165" fill-rule="nonzero"></path>
                <polygon id="Shape" fill="#EE8165" fill-rule="nonzero" points="57 282 69 282 69 291.314079 57 297"></polygon>
                <path d="M58.095952,256.800839 L52.7486257,256.800839 C52.4812594,256.74703 52,227.744235 52,227.744235 C53.2833583,227.421384 129.910545,225 129.910545,225 L159,233.071279 L151.353323,255.67086 L151.13943,302 L60.9835082,302 C60.9835082,302 60.8230885,300.870021 60.7161419,298.610063 L67.4537731,268.584906 C68.0997121,265.722182 67.4152593,262.719256 65.5941078,260.425926 C63.7729563,258.132596 61.0132478,256.798377 58.095952,256.800839 Z" id="Shape" fill="#FFFFFF" fill-rule="nonzero"></path>
                <path d="M35.5090262,265.107246 L52.8196668,297.334783 C54.4557334,300.391304 57.5695377,302 61,302 L52.1863507,228 C31.4980241,228.053623 26.0092844,249.610145 35.5090262,265.107246 Z" id="Shape" fill="#EE8165" fill-rule="nonzero"></path>
                <path d="M61,302 L64.6854599,286.63224 L70.4540059,284.160502 C80.5486111,279.863517 85.3689157,268.230046 81.2967359,257.992324 L69.0652819,226.934403 L86.7448071,225 L117.510386,259.65806 L129.795252,230.212142 C141.502649,230.221032 150.991163,239.766565 151,251.544313 L151,301.946267 L61,301.946267 L61,302 Z" id="Shape" fill="#F9C838" fill-rule="nonzero"></path>
                <polygon id="Shape" fill="#FFFFFF" fill-rule="nonzero" points="65.8103757 282.402913 111.910555 282.402913 74.9338104 225 83.6815742 225 121.248658 282.402913 137.080501 225 145.881932 225 129.996422 282.402913 152 282.402913 152 291 62 291"></polygon>
                <path d="M55,286 L66.7079208,286.000003 C70.520167,285.996515 73.8036885,288.676399 74.549505,292.400002 L77,302 L60.7722772,302 L55,286 Z" id="Shape" fill="#EE8165" fill-rule="nonzero"></path>
                <path d="M35.5090262,265.107246 L52.8196668,297.334783 C54.4557334,300.391304 57.5695377,302 61,302 L52.1863507,228 C31.4980241,228.053623 26.0092844,249.610145 35.5090262,265.107246 Z" id="Shape" fill="#EE8165" fill-rule="nonzero"></path>
                <path d="M61,302 L64.6854599,286.63224 L70.4540059,284.160502 C80.5486111,279.863517 85.3689157,268.230046 81.2967359,257.992324 L69.0652819,226.934403 L86.7448071,225 L117.510386,259.65806 L129.795252,230.212142 C141.502649,230.221032 150.991163,239.766565 151,251.544313 L151,301.946267 L61,301.946267 L61,302 Z" id="Shape" fill="#F9C838" fill-rule="nonzero"></path>
                <polygon id="Shape" fill="#292C33" fill-rule="nonzero" points="65.8103757 282.402913 111.910555 282.402913 74.9338104 225 83.6815742 225 121.248658 282.402913 137.080501 225 145.881932 225 129.996422 282.402913 152 282.402913 152 291 62 291"></polygon>
                <path d="M55,286 L66.7079208,286.000003 C70.520167,285.996515 73.8036885,288.676399 74.549505,292.400002 L77,302 L60.7722772,302 L55,286 Z" id="Shape" fill="#EE8165" fill-rule="nonzero"></path>
                <path d="M161.5,203 C172.822798,203 182,193.598214 182,182 C182,170.401786 172.822798,161 161.5,161 C150.177202,161 141,170.401786 141,182 C141,193.598214 150.177202,203 161.5,203 Z" id="Shape" fill="#EE8165" fill-rule="nonzero"></path>
                <path d="M172,177.908805 C172,220.141509 141.774525,245 104.5,245 C67.2254747,245 37,220.141509 37,177.908805 C37,135.676101 67.2254747,92 104.5,92 C141.774525,92 172,135.622642 172,177.908805 Z" id="Shape" fill="#EE815A" fill-rule="nonzero"></path>
                <path d="M168,181 L83.7745449,181.000006 C78.2634846,180.995721 72.976914,183.187184 69.0800047,187.091391 C65.1830954,190.995598 62.9957291,196.292069 63.0000063,201.81345 L63.0000063,232.52269 C74.4877356,240.643698 88.8742378,245 104.495403,245 C133.536812,245 158.337424,229.941178 168,203.373113 L168,181 Z" id="Shape" fill="#F6926E" fill-rule="nonzero"></path>
                <path d="M93.3150821,171 L18,171 L18,118 L126,138.581489 C125.970403,156.473565 111.35419,170.970645 93.3150821,171 Z" id="Shape" fill="#332345" fill-rule="nonzero"></path>
                <path d="M143.792032,170.999985 L120,171 L120,136 L178.999985,136 C179.008474,145.285162 175.301807,154.192457 168.697193,160.758061 C162.09258,167.323665 153.132362,171.008438 143.792032,170.999985 Z" id="Shape" fill="#332345" fill-rule="nonzero"></path>
                <path d="M0.0534794896,140.838458 C0.0936397714,142.323528 1.05403371,143.62634 2.46005652,144.103075 C18.7178214,150.632308 180.332839,150.632308 196.590604,144.103075 C197.5912,143.721134 198.380431,142.928642 198.758695,141.926028 C199.136958,140.923414 199.068031,139.806688 198.569345,138.858281 C197.910855,135.01987 195.354292,131.77652 191.77745,130.241834 C192.360549,126.075198 192.646495,121.872308 192.633122,117.665032 C192.643365,78.6515578 168.351034,43.7674023 131.773462,30.2696381 C128.170574,28.9273261 125.298024,26.1303841 123.858498,22.563002 C121.789232,17.3767862 116.764124,13.9818459 111.183859,14.000073 L87.8668014,14.000073 C82.2909474,14.0065331 77.2858004,17.4235398 75.2456419,22.6165203 C73.8214914,26.1942105 70.9434418,28.9965075 67.3306774,30.3231564 C30.7410408,43.8148977 6.42960932,78.6958311 6.41753875,117.71855 C6.42179808,121.944873 6.72561087,126.16557 7.32669008,130.34887 C3.15528989,132.168493 0,136.182366 0,140.838458 L0.0534794896,140.838458 Z" id="Shape" fill="#F9C838" fill-rule="nonzero"></path>
                <polygon id="Shape" fill="#292C33" fill-rule="nonzero" points="92 89.4126214 111.973298 101 132 89.4126214 111.973298 57"></polygon>
                <polygon id="Shape" fill="#292C33" fill-rule="nonzero" points="92 97 111.973298 125 132 97 111.973298 109.180791"></polygon>
                <path d="M2.42109039,143.784854 C6.241033,145.332186 18.1850789,146.506024 34.4332855,147.306368 L51.1657102,148 L49.982066,121.641997 C48.8117251,95.1881043 54.0513102,68.8412893 65.2618364,44.8089501 L75,24 C73.4504725,26.9518019 70.8387365,29.2181384 67.6829268,30.3493976 C30.8988528,43.824377 6.46791542,78.5916898 6.45624103,117.480207 C6.46052604,121.693734 6.76617104,125.901654 7.37087518,130.072289 C3.17431851,131.886403 0,135.888124 0,140.53012 L0.107604017,140.53012 C0.100029574,141.993275 1.02898809,143.300182 2.42109039,143.784854 Z" id="Shape" fill="#F9AA36" fill-rule="nonzero"></path>
                <path d="M42.5,203 C53.8227979,203 63,193.598214 63,182 C63,170.401786 53.8227979,161 42.5,161 C31.1772021,161 22,170.401786 22,182 C22,193.598214 31.1772021,203 42.5,203 Z" id="Shape" fill="#EE8165" fill-rule="nonzero"></path>
                <rect id="Rectangle-path" fill="#292C33" fill-rule="nonzero" x="82" y="180" width="19" height="27" rx="9.5"></rect>
                <rect id="Rectangle-path" fill="#292C33" fill-rule="nonzero" x="125" y="180" width="19" height="27" rx="9.5"></rect>
                <path d="M95.4485307,192.999619 C96.8686068,193.020505 98.1605101,192.181141 98.7184828,190.875094 C99.2764556,189.569047 98.9898567,188.055295 97.993069,187.043618 C96.9962812,186.031941 95.4869588,185.722945 94.1728046,186.261515 C92.8586504,186.800086 92.0002497,188.079428 92.0000961,189.499674 C91.9932456,190.4211 92.3527191,191.307504 92.9994315,191.963877 C93.6461439,192.620249 94.5271158,192.992819 95.4485307,192.999619 Z" id="Shape"></path>
                <path d="M140.448531,192.999619 C141.868607,193.020505 143.16051,192.181141 143.718483,190.875094 C144.276456,189.569047 143.989857,188.055295 142.993069,187.043618 C141.996281,186.031941 140.486959,185.722945 139.172805,186.261515 C137.85865,186.800086 137.00025,188.079428 137.000096,189.499674 C136.993246,190.4211 137.352719,191.307504 137.999431,191.963877 C138.646144,192.620249 139.527116,192.992819 140.448531,192.999619 Z" id="Shape"></path>
                <path d="M112.473683,227.999999 C115.796298,228.001455 118.983231,226.632283 121.332674,224.193995 C123.682118,221.755707 125.001401,218.44826 124.999999,215 L100.00011,215 C99.986166,218.44276 101.294122,221.749518 103.634875,224.189081 C105.975628,226.628643 109.156338,228.00003 112.473683,227.999999 Z" id="Shape" fill="#FFFFFF" fill-rule="nonzero"></path>
                <polygon id="Shape" fill="#EE8165" fill-rule="nonzero" points="358 296 346 290.314079 346 281 358 281"></polygon>
                <path d="M404,177.575688 C403.783736,175.592375 403.567471,173.81248 401.458894,174.015896 C398.701523,174.321021 395.890086,175.185542 395.133161,178.236792 C394.538434,180.525229 395.998218,181.949146 398.268994,182 C401.567026,182 403.189009,179.965833 404,177.575688 Z" id="Shape" fill="#DC5F7C" fill-rule="nonzero"></path>
                <path d="M287,225 L257.990645,232.281119 C250.054712,234.264569 243.584547,240.005228 240.658363,247.659202 C237.732179,255.313176 238.718437,263.916687 243.300351,270.706294 L263.559169,301 L287,225 Z" id="Shape" fill="#EE8165" fill-rule="nonzero"></path>
                <polygon id="Shape" fill="#EE8165" fill-rule="nonzero" points="358 296 346 290.314079 346 281 358 281"></polygon>
                <path d="M356.904048,256.800839 L362.251374,256.800839 C362.518741,256.74703 363,227.744235 363,227.744235 C361.716642,227.421384 285.089455,225 285.089455,225 L256,233.071279 L263.646677,255.67086 L263.86057,302 L354.005797,302 C354.005797,302 354.166217,300.870021 354.273163,298.610063 L347.535532,268.584906 C346.889173,265.720339 347.574935,262.715498 349.39853,260.421713 C351.222124,258.127928 353.984878,256.795098 356.904048,256.800839 Z" id="Shape" fill="#FFFFFF" fill-rule="nonzero"></path>
                <path d="M362.835345,228 L354,301.997315 C357.365467,302.079036 360.506476,300.290052 362.190661,297.332267 L379.523155,265.1059 C388.992616,249.55574 383.444104,228 362.835345,228 Z" id="Shape" fill="#EE8165" fill-rule="nonzero"></path>
                <polygon id="Shape" fill="#292C33" fill-rule="nonzero" points="361.000554 376.895652 353.549146 301.098137 263.297185 255 263.297185 376.895652 255 376.895652 255 384 281.818643 384 287.332257 380.474534 287.332257 384 298.894785 384 308.744347 323.319255 328.28288 384 340.005999 384 340.005999 380.52795 345.573143 384 371 384 371 376.895652"></polygon>
                <path d="M353,302 L349.304296,286.63224 L343.536435,284.160502 C333.443028,279.863517 328.623295,268.230046 332.694992,257.992324 L344.924994,226.934403 L327.247567,225 L296.48564,259.65806 L284.202231,230.212142 C272.496224,230.221032 263.008836,239.766565 263,251.544313 L263,301.946267 L352.989319,301.946267 L353,302 Z" id="Shape" fill="#F9C838" fill-rule="nonzero"></path>
                <polygon id="Shape" fill="#FFFFFF" fill-rule="nonzero" points="349.189624 282.402913 303.089445 282.402913 340.06619 225 331.318426 225 293.751342 282.402913 277.919499 225 269.118068 225 285.003578 282.402913 263 282.402913 263 291 353 291"></polygon>
                <path d="M354.26799,302 L338,302 L340.456576,292.4 C341.223499,288.687916 344.503496,286.017534 348.317618,286 L360,286 L354.26799,302 Z" id="Shape" fill="#EE8165" fill-rule="nonzero"></path>
                <path d="M302.614741,242.544027 C278.270398,246.069229 255.534712,228.763691 252.10291,204.140687 L242.450968,135.345831 C238.965545,110.722827 256.070931,87.7021876 280.361652,84.2303975 L348.354222,74.455973 C372.698565,70.9307708 395.43425,88.2363092 398.866052,112.859313 C407.660044,175.298123 364.333548,233.677609 302.614741,242.544027 Z" id="Shape" fill="#EE8165" fill-rule="nonzero"></path>
                <path d="M242,129 C242.011324,131.011956 242.154597,133.021044 242.428911,135.014516 L243.447574,142.093548 L274.704445,142.093548 C278.432049,142.101956 281.877676,144.06531 283.765185,147.256452 C285.652694,150.447593 289.098321,152.410947 292.825925,152.419355 L359.41432,152.419355 C366.241736,152.424962 372.534674,156.087929 375.87377,162 L397.855446,151.727419 C399.274655,144.2514 399.992579,136.660847 400,129.053226 L242,129.053226 L242,129 Z" id="Shape" fill="#010101" fill-rule="nonzero"></path>
                <path d="M246,158.7464 L252.375,204.223466 C255.857143,228.801341 278.571429,246.021847 302.839286,242.55642 C325.361653,239.285875 346.34754,229.26175 363,213.820033 L363,197.292611 C363,175.591901 345.323243,158 323.517857,158 L246,158 L246,158.7464 Z" id="Shape" fill="#F7DFC6" fill-rule="nonzero"></path>
                <path d="M356,27.0101637 C366.803999,32.8387033 371.336408,42.7846517 374.129637,53.9070026 C375.078281,57.7035742 376.870164,60.8584718 381.244466,59.789015 C385.829578,58.6660854 385.249851,54.8695137 384.459314,51.2333605 C381.191764,36.635275 370.07155,26.6358538 356,27.0101637 Z" id="Shape" fill="#F9C838" fill-rule="nonzero"></path>
                <path d="M242,130 L242,131 C242.050019,130.667777 242.050019,130.332223 242,130 Z" id="Shape" fill="#EE8165" fill-rule="nonzero"></path>
                <path d="M282.5,194.999994 C279.979581,195.002865 277.561581,193.985222 275.779375,192.171544 C273.997169,190.357865 272.997185,187.897165 273.000006,185.332238 L273.000006,171.667756 C273.000006,166.328402 277.253298,162 282.5,162 C287.746702,162 291.999994,166.328402 291.999994,171.667756 L291.999994,185.332238 C292.002815,187.897165 291.002831,190.357865 289.220625,192.171544 C287.438419,193.985222 285.020419,195.002865 282.5,194.999994 Z" id="Shape" fill="#010101" fill-rule="nonzero"></path>
                <path d="M322.5,194.999994 C319.979581,195.002865 317.561581,193.985222 315.779375,192.171544 C313.997169,190.357865 312.997185,187.897165 313.000006,185.332238 L313.000006,171.667756 C313.000006,166.328402 317.253298,162 322.5,162 C327.746702,162 331.999994,166.328402 331.999994,171.667756 L331.999994,185.332238 C332.002815,187.897165 331.002831,190.357865 329.220625,192.171544 C327.438419,193.985222 325.020419,195.002865 322.5,194.999994 Z" id="Shape" fill="#010101" fill-rule="nonzero"></path>
                <path d="M302.473846,216.999829 C305.796418,217.001285 308.983309,215.632131 311.332722,213.193875 C313.682135,210.755618 315.001401,207.448215 314.999999,204 L290.000547,204 C289.969371,207.448065 291.271795,210.765102 293.616237,213.208509 C295.960679,215.651916 299.151317,217.017603 302.473846,216.999829 Z" id="Shape" fill="#010101" fill-rule="nonzero"></path>
                <path d="M419,126.788191 C419,122.133941 415.84488,118.121656 411.673704,116.302754 C412.274751,112.12111 412.578547,107.902082 412.582806,103.677432 C412.60201,64.6603244 388.280637,29.7770628 351.672941,16.3166237 C348.070246,14.9748429 345.197851,12.1790078 343.758402,8.61303745 C341.718353,3.42211196 336.713475,0.00645755605 331.137921,0 L307.822117,0 C302.249515,0.0142721276 297.238028,3.39599819 295.137464,8.55954032 C293.71339,12.1358147 290.835495,14.9370028 287.222924,16.2631266 C250.646951,29.7856404 226.361993,64.6686298 226.366536,103.677432 C226.379852,107.882135 226.66566,112.081551 227.222162,116.249257 C223.643034,117.780099 221.085363,121.023744 220.430632,124.862294 C219.931973,125.810327 219.863049,126.926611 220.241292,127.928827 C220.619535,128.931044 221.408725,129.723223 222.409267,130.105013 C238.666158,136.631662 400.272489,136.631662 416.52938,130.105013 C417.90181,129.583434 418.842767,128.307426 418.935828,126.841688 L418.989305,126.841688 L419,126.788191 Z" id="Shape" fill="#F9C838" fill-rule="nonzero"></path>
                <path d="M418.892396,126.48 L419,126.48 C419,121.84 415.825681,117.84 411.629125,116.026667 C412.233829,111.857825 412.539474,107.651715 412.543759,103.44 C412.532085,64.5682095 388.101147,29.8158503 351.317073,16.3466667 C348.182128,15.1810617 345.581585,12.9254087 344,10 L353.738164,30.8533333 C364.94869,54.8753361 370.188275,81.2108191 369.017934,107.653333 L367.83429,134 L384.566714,133.306667 C400.761119,132.506667 412.705165,131.333333 416.57891,129.786667 C417.908666,129.194626 418.799011,127.922055 418.892396,126.48 Z" id="Shape" fill="#E6C00C" fill-rule="nonzero"></path>
                <path d="M287,225 L257.990645,232.281119 C250.054712,234.264569 243.584547,240.005228 240.658363,247.659202 C237.732179,255.313176 238.718437,263.916687 243.300351,270.706294 L263.559169,301 L287,225 Z" id="Shape" fill="#EE8165" fill-rule="nonzero"></path>
                <polygon id="Shape" fill="#FFFFFF" fill-rule="nonzero" points="285 225 256 232.894737 263.836397 251"></polygon>
                <path d="M362.835345,228 L354,301.997315 C357.365467,302.079036 360.506476,300.290052 362.190661,297.332267 L379.523155,265.1059 C388.992616,249.55574 383.444104,228 362.835345,228 Z" id="Shape" fill="#EE8165" fill-rule="nonzero"></path>
                <polygon id="Shape" fill="#3E404D" fill-rule="nonzero" points="362 377 326.897205 377 309.590137 323.377739 300.86411 377 264 377 264 255 354.53589 301.137599"></polygon>
                <path d="M353,302 L349.304296,286.63224 L343.536435,284.160502 C333.443028,279.863517 328.623295,268.230046 332.694992,257.992324 L344.924994,226.934403 L327.247567,225 L296.48564,259.65806 L284.202231,230.212142 C272.496224,230.221032 263.008836,239.766565 263,251.544313 L263,301.946267 L352.989319,301.946267 L353,302 Z" id="Shape" fill="#F9C838" fill-rule="nonzero"></path>
                <polygon id="Shape" fill="#292C33" fill-rule="nonzero" points="349.189624 282.402913 303.089445 282.402913 340.06619 225 331.318426 225 293.751342 282.402913 277.919499 225 269.118068 225 285.003578 282.402913 263 282.402913 263 291 353 291"></polygon>
                <path d="M354.26799,302 L338,302 L340.456576,292.4 C341.223499,288.687916 344.503496,286.017534 348.317618,286 L360,286 L354.26799,302 Z" id="Shape" fill="#EE8165" fill-rule="nonzero"></path>
                <path d="M257.999649,196 C267.706601,196 276.457744,190.274492 280.172434,181.493273 C283.887124,172.712053 281.833816,162.604432 274.969964,155.883577 C268.106112,149.162722 257.783435,147.152191 248.815381,150.789492 C239.847327,154.426792 234,162.99562 234,172.500343 C234,185.478845 244.745009,196 257.999649,196 Z" id="Shape" fill="#EE8165" fill-rule="nonzero"></path>
                <path d="M302.614741,242.544027 C278.270398,246.069229 255.534712,228.763691 252.10291,204.140687 L242.450968,135.345831 C238.965545,110.722827 256.070931,87.7021876 280.361652,84.2303975 L348.354222,74.455973 C372.698565,70.9307708 395.43425,88.2363092 398.866052,112.859313 C407.660044,175.298123 364.333548,233.677609 302.614741,242.544027 Z" id="Shape" fill="#EE8165" fill-rule="nonzero"></path>
                <path d="M242,129 C242.011324,131.011956 242.154597,133.021044 242.428911,135.014516 L243.447574,142.093548 L274.704445,142.093548 C278.432049,142.101956 281.877676,144.06531 283.765185,147.256452 C285.652694,150.447593 289.098321,152.410947 292.825925,152.419355 L359.41432,152.419355 C366.241736,152.424962 372.534674,156.087929 375.87377,162 L397.855446,151.727419 C399.274655,144.2514 399.992579,136.660847 400,129.053226 L242,129.053226 L242,129 Z" id="Shape" fill="#332345" fill-rule="nonzero"></path>
                <path d="M246,158.7464 L252.375,204.223466 C255.857143,228.801341 278.571429,246.021847 302.839286,242.55642 C325.361653,239.285875 346.34754,229.26175 363,213.820033 L363,197.292611 C363,175.591901 345.323243,158 323.517857,158 L246,158 L246,158.7464 Z" id="Shape" fill="#F6926E" fill-rule="nonzero"></path>
                <path d="M383.5,197 C396.481465,197 407,186.477928 407,173.5 C407,160.522072 396.481465,150 383.5,150 C370.518535,150 360,160.522072 360,173.5 C360,186.477928 370.523913,197 383.5,197 Z" id="Shape" fill="#EE8165" fill-rule="nonzero"></path>
                <path d="M388.865851,172.763711 C394.07648,171.043741 394.475615,163.948209 389.412611,161.88109 C386.837369,160.82912 383.945005,160.687105 381.80717,161.628617 C376.503592,163.627358 375,166.956841 375,172.847868 C375.007371,176.209525 376.268439,179.457033 378.553944,182 C378.553944,181.684409 378.499268,181.368818 378.499268,181.053228 C378.488333,177.366076 384.048889,174.357444 388.865851,172.763711 Z" id="Shape" fill="#000000" fill-rule="nonzero" opacity="0.1"></path>
                <path d="M38.1326458,182.763711 C32.9269198,181.043741 32.522273,173.948209 37.5858259,171.88109 C40.1668161,170.82912 43.0540255,170.687105 45.1975597,171.628617 C50.5017133,173.627358 52,176.956841 52,182.847868 C51.992628,186.209525 50.7314231,189.457033 48.4456703,192 C48.4456703,191.684409 48.5003523,191.368818 48.5003523,191.053228 C48.5112887,187.366076 42.9555979,184.357444 38.1326458,182.763711 Z" id="Shape" fill="#000000" fill-rule="nonzero" opacity="0.1"></path>
                <path d="M419,126.788191 C419,122.133941 415.84488,118.121656 411.673704,116.302754 C412.274751,112.12111 412.578547,107.902082 412.582806,103.677432 C412.60201,64.6603244 388.280637,29.7770628 351.672941,16.3166237 C348.070246,14.9748429 345.197851,12.1790078 343.758402,8.61303745 C341.718353,3.42211196 336.713475,0.00645755605 331.137921,0 L307.822117,0 C302.249515,0.0142721276 297.238028,3.39599819 295.137464,8.55954032 C293.71339,12.1358147 290.835495,14.9370028 287.222924,16.2631266 C250.646951,29.7856404 226.361993,64.6686298 226.366536,103.677432 C226.379852,107.882135 226.66566,112.081551 227.222162,116.249257 C223.643034,117.780099 221.085363,121.023744 220.430632,124.862294 C219.931973,125.810327 219.863049,126.926611 220.241292,127.928827 C220.619535,128.931044 221.408725,129.723223 222.409267,130.105013 C238.666158,136.631662 400.272489,136.631662 416.52938,130.105013 C417.90181,129.583434 418.842767,128.307426 418.935828,126.841688 L418.989305,126.841688 L419,126.788191 Z" id="Shape" fill="#F9C838" fill-rule="nonzero"></path>
                <polygon id="Shape" fill="#292C33" fill-rule="nonzero" points="291 43 271 75.4126214 291 87 311 75.4126214"></polygon>
                <polygon id="Shape" fill="#292C33" fill-rule="nonzero" points="291 95.180791 271 83 291 111 311 83"></polygon>
                <path d="M418.892396,126.48 L419,126.48 C419,121.84 415.825681,117.84 411.629125,116.026667 C412.233829,111.857825 412.539474,107.651715 412.543759,103.44 C412.532085,64.5682095 388.101147,29.8158503 351.317073,16.3466667 C348.182128,15.1810617 345.581585,12.9254087 344,10 L353.738164,30.8533333 C364.94869,54.8753361 370.188275,81.2108191 369.017934,107.653333 L367.83429,134 L384.566714,133.306667 C400.761119,132.506667 412.705165,131.333333 416.57891,129.786667 C417.908666,129.194626 418.799011,127.922055 418.892396,126.48 Z" id="Shape" fill="#F9AA36" fill-rule="nonzero"></path>
                <path d="M300.473683,218.999999 C303.796298,219.001455 306.983231,217.632283 309.332674,215.193995 C311.682118,212.755707 313.001401,209.44826 312.999999,206 L288.00011,206 C287.986166,209.44276 289.294122,212.749518 291.634875,215.189081 C293.975628,217.628643 297.156338,219.00003 300.473683,218.999999 Z" id="Shape" fill="#FFFFFF" fill-rule="nonzero"></path>
                <rect id="Rectangle-path" fill="#292C33" fill-rule="nonzero" x="271" y="166" width="19" height="27" rx="9.5"></rect>
                <rect id="Rectangle-path" fill="#292C33" fill-rule="nonzero" x="315" y="166" width="19" height="27" rx="9.5"></rect>
                <polygon id="Shape" fill="#292C33" fill-rule="nonzero" points="309 324 309 324 299.34 385 288 385 288 382.014437"></polygon>
                <polygon id="Shape" fill="#010101" fill-rule="nonzero" points="301 377 299.823158 384 288 384 288 381.073684 289.570947 377"></polygon>
                <polyline id="Shape" fill="#292C33" fill-rule="nonzero" points="361 377 342 301 353.744505 301 361 377"></polyline>
                <polygon id="Shape" fill="#17181C" fill-rule="nonzero" points="301 377 299.823158 384 288 384 288 381.073684 289.570947 377"></polygon>
            </g>
        </g>
    </g>
</svg>