<svg enable-background="new 0 0 1095.3 2052.1" viewBox="0 0 1095.3 2052.1" xmlns="http://www.w3.org/2000/svg"><path d="m858.5 1426.5h-609.5c-85.4 0-154.6-69.2-154.6-154.6v-559.4h764.1z" fill="#281d1e"/><path d="m345.9 1547.7 65.2-30v-48.9l-65.2 16.2z" fill="#f9a682"/><path d="m854.2 1602.1 110.1-162.9c52.3-77.4 11.7-183.3-78.9-205.9l-155.9-38.9z" fill="#f26d4a"/><path d="m225.1 1404.9 93.3 171c8.8 16.2 25.8 26.2 44.2 26.2l366.9-407.8h-229.6l-175 13.6c-96.6 7.5-150.9 114.7-99.8 197zm110-72.5c37.6-9.9 72.8 22.7 65.8 61l-38.1 208.7z" fill="#f9a682"/><path d="m335.1 1332.4-31.8-121.1c6.9-1.7 14.2-2.9 21.6-3.5l175-13.6h229.7l153.7 38.4-27.2 123.5-1.9 245.8h-491.4l38.1-208.7c7-38.1-28.2-70.7-65.8-60.8z" fill="#fff"/><path d="m379.6 1510.1 35.8-18.8c49.5-26 70.3-86 47.6-137.1l-67.6-151.8 104.6-8.1 173.9 183.7 55.6-183.7 60 15 21.5 35.2c33.4 54.7 50.2 118 48.3 182.1l-5.1 175.5h-491.4z" fill="#ffd304"/><path d="m415.4 1491.4c49.5-26 70.3-86 47.6-137.1l-67-150.2c-.3-.8.2-1.7 1-1.7l65.5-5.1c.6 0 1.1.3 1.3.8l69.1 198.4c6.6 18.9 10 38.8 10 58.9v146.8h-178.6c-.8 0-1.4-.7-1.2-1.5l16.4-89.9c.1-.4.3-.7.6-.9z" fill="#f9a936"/><path d="m362.8 1602.1h74.7l-12.9-64.6c-3.9-19.4-20.9-33.4-40.8-33.4h-31.2z" fill="#f9a682"/><path d="m612.3 1426.5-140-197.2 28.1 4.1 188.3 193.1 62.8-193.1 28-24.1-37.8 217.2h116.8v42.3h-414v-42.3z" fill="#fff"/><path d="m444.5 1468.8c11.1-12.2 19-26.7 23.5-42.3h72.5c1.6 9.5 2.3 19.2 2.3 28.8v13.4h-98.3z" fill="#ffd304"/><path d="m266.3 2006.5 96.5-404.4h491.4l-32.4 404.4h65.3v37.3h-142.9l-29.5-18.7v18.7h-61.9l-52.3-303.6-160.6 303.6h-62.3v-18.7l-29.4 18.7h-155.3v-37.3z" fill="#281d1e"/><circle cx="899.6" cy="917.3" fill="#f26d4a" r="126.4"/><path d="m639.3 1289.7c131.3 18.7 254-73.4 272.7-204.7l52.2-366.9c18.7-131.3-73.4-254-204.7-272.7l-366.9-52.2c-131.3-18.7-254 73.4-272.7 204.7-47.4 333.1 186.3 644.4 519.4 691.8z" fill="#f26d4a"/><path d="m491 838.1h456l-35.1 246.9c-18.7 131.3-141.4 223.4-272.7 204.7-107.1-15.2-203.8-57.7-284.3-119.5v-196c0-75.2 61-136.1 136.1-136.1z" fill="#f9a682"/><path d="m966.4 693.3v.8c0-.3 0-.5 0-.8z" fill="#f26d4a"/><path d="m966.5 686.8c0 1.3-.1 2.5-.1 3.8.1-1.2.1-2.5.1-3.8z" fill="#f26d4a"/><g fill="#281d1e"><path d="m521.8 1053c28.2 0 51.1-22.9 51.1-51.1v-102.3c0-28.2-22.9-51.1-51.1-51.1-28.2 0-51.1 22.9-51.1 51.1v102.3c-.1 28.2 22.8 51.1 51.1 51.1z"/><path d="m751.2 1053c28.2 0 51.1-22.9 51.1-51.1v-102.3c0-28.2-22.9-51.1-51.1-51.1-28.2 0-51.1 22.9-51.1 51.1v102.3c-.1 28.2 22.8 51.1 51.1 51.1z"/><path d="m639.8 1162.4c-37.2 0-67.4-30.2-67.4-67.4h134.8c0 37.2-30.2 67.4-67.4 67.4z"/></g><path d="m51.6 943.7c1.1-11.2 2.4-21.2 13.6-19.9 14.8 1.7 29.7 6.6 33.9 23.6 3.1 12.9-4.7 20.9-16.9 21-17.3.1-26.2-11.6-30.6-24.7z" fill="#dc5e7b"/><path d="m116.2 790.6-22.9-104.7h900.9l-31.7 69.7h-169.2c-19.9 0-38.3 10.5-48.5 27.7-10.1 17.1-28.6 27.7-48.5 27.7h-353.2c-36.3 0-69.7 19.6-87.4 51.3z" fill="#281d1e"/><circle cx="137.2" cy="917.3" fill="#f26d4a" r="126.4"/><path d="m103 895.8c-11.5 0-22.3 3.3-31.4 9-.2-2.8-.3-5.6-.3-8.4 0-7.8.8-15.3 2.4-22.7 2.6-12.5 10.4-23.3 21.5-29.6.1-.1.2-.1.3-.2 11.4-6.5 25.2-7.6 37.4-2.9 28.2 10.8 48.3 38.2 48.3 70.2 0 19-7.1 36.3-18.7 49.6.1-1.7.2-3.4.2-5.2 0-33-26.7-59.8-59.7-59.8z" fill="#070708"/><circle cx="77.8" cy="946.5" fill="#f6916d" r="21.9"/><path d="m251 862.2h351.8c55.6 0 107.7-27.1 139.5-72.7l100-143h-591.3z" fill="#281d1e"/><path d="m26.3 671.5c0-24.8 16.7-46.1 39-55.8-3-22-4.7-44.5-4.7-67.3 0-213.4 135-395.3 324.2-465 19.2-7.1 34.4-22 42-41 11-27.5 37.7-45.6 67.4-45.6h124.1c29.7 0 56.3 18.1 67.4 45.6 7.6 19 22.8 33.9 42 41 189.2 69.8 324.2 251.6 324.2 465 0 22.7-1.6 44.9-4.6 66.8 18.7 8.1 32.6 25.2 36.2 45.9 4.8 9.7 2 22.9-10.5 28-86.5 34.8-946.8 34.8-1033.3 0-8.3-3.4-12.4-10.4-12.7-17.5h-.7z" fill="#ffd304"/><path d="m664.5 225.2 106.7 172.9-106.7 61.8-106.7-61.8z" fill="#281d1e"/><path d="m664.5 503 106.7-65.8-106.7 151.2-106.7-151.2z" fill="#281d1e"/><path d="m26.8 671.5h-.5c0-24.8 16.7-46.1 39-55.8-3-22-4.7-44.5-4.7-67.3 0-213.4 135-395.3 324.2-465 16.8-6.2 30.5-18.4 38.8-34l-51.6 111.5c-59.3 128.2-87 268.8-80.8 410l6.2 140.6-88.5-3.6c-85.8-4.3-149-10.6-169.3-18.8-8.4-3.5-12.5-10.5-12.8-17.6z" fill="#f9a936"/><path d="m360 139.5c-58.5 31-82.8 84.1-98 143.2-5.2 20.2-14.9 36.9-38.4 31.3-24.9-6-21.7-26.3-17.3-45.7 17.5-77.4 77.6-130.7 153.7-128.8z" fill="#ffd304"/><path d="m747.7 899.1h52.9c19 0 34.5-15.4 34.5-34.5v-16.2h-87.4z" fill="#281d1e"/><path d="m525.1 899.1h-52.9c-19 0-34.5-15.4-34.5-34.5v-16.2h87.4z" fill="#281d1e"/></svg>