<svg enable-background="new 0 0 1095.3 2052.1" viewBox="0 0 1095.3 2052.1" xmlns="http://www.w3.org/2000/svg"><path d="m748.8 1551-65.1-30v-48.9l65.1 16.2z" fill="#f9a682"/><path d="m365.2 1197.7-155.9 38.9c-90.6 22.6-131.2 128.5-78.9 205.9l110.1 162.9z" fill="#f26d4a"/><path d="m769.9 1211.2-175-13.6h-229.7l366.9 407.8c18.4 0 35.3-10.1 44.2-26.2l93.3-171c51.2-82.3-3.1-189.5-99.7-197zm-37.9 394.2-38.1-208.7c-7-38.3 28.2-70.9 65.8-61z" fill="#f9a682"/><path d="m759.7 1335.7 31.8-121.1c-6.9-1.7-14.2-2.9-21.6-3.5l-175-13.6h-229.7l-153.7 38.5 27.2 123.5 1.9 245.8h491.4l-38.1-208.7c-7-38.2 28.2-70.8 65.8-60.9z" fill="#fff"/><path d="m715.2 1513.5-35.8-18.8c-49.5-26-70.3-86-47.6-137.1l67.6-151.8-104.6-8.1-174.1 183.7-55.6-183.7-60 15-21.5 35.2c-33.4 54.7-50.2 118-48.3 182.1l5.1 175.5h491.6z" fill="#ffd304"/><path d="m679.4 1494.7c-49.5-26-70.3-86-47.6-137.1l66.9-150.2c.3-.8-.2-1.7-1-1.7l-65.5-5.1c-.6 0-1.1.3-1.3.8l-69.1 198.4c-6.6 18.9-10 38.8-10 58.9v146.8h178.6c.8 0 1.4-.7 1.2-1.5l-16.4-89.9c-.1-.4-.3-.7-.6-.9z" fill="#f9a936"/><path d="m732 1605.4h-74.7l12.9-64.6c3.9-19.4 20.9-33.4 40.8-33.4h31z" fill="#f9a682"/><path d="m482.5 1429.8 139.9-197.2-28 4.2-188.4 193-62.7-193-28.1-24.2 37.8 217.2h-116.7v42.3h414v-42.3z" fill="#fff"/><path d="m650.2 1472.1c-11.1-12.2-19-26.7-23.5-42.3h-72.5c-1.6 9.5-2.3 19.2-2.3 28.8v13.4h98.3z" fill="#ffd304"/><path d="m828.5 2009.8-96.5-404.4h-491.5l32.4 404.4h-65.3v37.3h142.9l29.5-18.7v18.7h61.9l52.3-303.6 160.7 303.6h62.2v-18.7l29.5 18.7h155.3v-37.3z" fill="#281d1e"/><circle cx="195.2" cy="920.7" fill="#f26d4a" r="126.4"/><path d="m455.5 1293c-131.3 18.7-254-73.4-272.7-204.7l-52.2-366.9c-18.7-131.3 73.4-254 204.7-272.7l366.9-52.2c131.3-18.7 254 73.4 272.7 204.7 47.4 333.1-186.3 644.4-519.4 691.8z" fill="#f26d4a"/><path d="m603.7 841.4h-456l35.1 246.9c18.7 131.3 141.4 223.4 272.7 204.7 107.1-15.2 203.8-57.7 284.3-119.5v-196c0-75.2-60.9-136.1-136.1-136.1z" fill="#f9a682"/><path d="m128.4 696.6v.8c0-.3 0-.5 0-.8z" fill="#f26d4a"/><path d="m128.2 690.2c0 1.3.1 2.5.1 3.8 0-1.3-.1-2.6-.1-3.8z" fill="#f26d4a"/><g fill="#281d1e"><path d="m573 1056.3c-28.2 0-51.1-22.9-51.1-51.1v-102.3c0-28.2 22.9-51.1 51.1-51.1 28.2 0 51.1 22.9 51.1 51.1v102.3c0 28.2-22.9 51.1-51.1 51.1z"/><path d="m343.6 1056.3c-28.2 0-51.1-22.9-51.1-51.1v-102.3c0-28.2 22.9-51.1 51.1-51.1 28.2 0 51.1 22.9 51.1 51.1v102.3c0 28.2-22.9 51.1-51.1 51.1z"/><path d="m455 1165.7c37.2 0 67.4-30.2 67.4-67.4h-134.8c0 37.3 30.2 67.4 67.4 67.4z"/></g><path d="m1043.2 947c-1.1-11.2-2.4-21.2-13.6-19.9-14.8 1.7-29.7 6.6-33.9 23.6-3.1 12.9 4.7 20.9 16.9 21 17.3.1 26.1-11.5 30.6-24.7z" fill="#dc5e7b"/><path d="m978.6 794 22.8-104.7h-900.9l31.7 69.7h169.2c19.9 0 38.3 10.5 48.5 27.7 10.1 17.1 28.6 27.7 48.5 27.7h353.3c36.3 0 69.7 19.6 87.4 51.3z" fill="#281d1e"/><circle cx="957.5" cy="920.7" fill="#f26d4a" r="126.4"/><path d="m991.8 899.2c11.5 0 22.3 3.3 31.4 9 .2-2.8.3-5.6.3-8.4 0-7.8-.8-15.3-2.4-22.7-2.6-12.5-10.4-23.3-21.5-29.6-.1-.1-.2-.1-.3-.2-11.4-6.5-25.2-7.6-37.4-2.9-28.2 10.8-48.3 38.2-48.3 70.2 0 19 7.1 36.3 18.7 49.6-.1-1.7-.2-3.4-.2-5.2 0-33.1 26.7-59.8 59.7-59.8z" fill="#070708"/><circle cx="1017" cy="949.8" fill="#f6916d" r="21.9"/><path d="m1068.5 674.8c0-24.8-16.7-46.1-39-55.8 3-22 4.7-44.5 4.7-67.3 0-213.4-135-395.3-324.2-465-19.2-7.1-34.4-22-42-41-11-27.6-37.7-45.7-67.3-45.7h-124.2c-29.7 0-56.3 18.1-67.4 45.6-7.6 19-22.8 33.9-42 41-189.1 69.7-324.1 251.6-324.1 465 0 22.7 1.6 44.9 4.6 66.8-18.7 8.1-32.6 25.2-36.2 45.9-4.8 9.7-2 22.9 10.5 28 86.5 34.8 946.8 34.8 1033.3 0 8.3-3.4 12.4-10.4 12.7-17.5z" fill="#ffd304"/><path d="m430.3 228.6-106.8 172.8 106.8 61.9 106.7-61.9z" fill="#281d1e"/><path d="m430.3 506.3-106.8-65.8 106.8 151.2 106.7-151.2z" fill="#281d1e"/><path d="m1068 674.8h.5c0-24.8-16.7-46.1-39-55.8 3-22 4.7-44.5 4.7-67.3 0-213.4-135-395.3-324.2-465-16.8-6.2-30.5-18.4-38.8-34l51.6 111.3c59.3 128.2 87 268.8 80.8 410l-6.2 140.6 88.6-3.6c85.8-4.3 149-10.6 169.3-18.8 8.3-3.3 12.3-10.3 12.7-17.4z" fill="#f9a936"/><path d="m734.8 142.8c58.5 31 82.8 84.1 98 143.2 5.2 20.2 14.9 36.9 38.4 31.3 24.9-6 21.7-26.3 17.3-45.7-17.5-77.4-77.6-130.7-153.7-128.8z" fill="#ffd304"/></svg>