<?xml version="1.0" encoding="UTF-8"?>
<svg width="181px" height="42px" viewBox="0 0 181 42" version="1.1" xmlns="http://www.w3.org/2000/svg" xmlns:xlink="http://www.w3.org/1999/xlink">
    <!-- Generator: Sketch 51.3 (57544) - http://www.bohemiancoding.com/sketch -->
    <title>spank-logo-with-text.c4abce07</title>
    <desc>Created with Sketch.</desc>
    <defs></defs>
    <g id="Page-1" stroke="none" stroke-width="1" fill="none" fill-rule="evenodd">
        <g id="Buidler-Web-v1" transform="translate(-1002.000000, -2129.000000)">
            <g id="Used-By" transform="translate(360.000000, 2050.000000)">
                <g id="Group-2" transform="translate(137.000000, 78.000000)">
                    <g id="spank-logo-with-text.c4abce07" transform="translate(505.000000, 0.000000)">
                        <g id="Group-2" transform="translate(46.000000, 12.000000)" fill="#8B8B8B" fill-opacity="0.571444746" fill-rule="nonzero">
                            <path d="M11.1520871,6.61455136 C10.7734649,6.08234342 10.2786821,5.65943452 9.66772362,5.34581199 C9.05676518,5.03218944 8.46732818,4.87538053 7.89939501,4.87538053 C7.60682336,4.87538053 7.30995363,4.90389124 7.00877698,4.96091352 C6.70760024,5.0179358 6.43654529,5.12722686 6.19560393,5.28878999 C5.95466257,5.45035312 5.75244696,5.65943167 5.58895105,5.91603193 C5.42545512,6.17263219 5.34370839,6.50050538 5.34370839,6.89966133 C5.34370839,7.24179498 5.40824529,7.52690211 5.53732101,7.75499122 C5.66639674,7.98308039 5.85570496,8.18265535 6.10525137,8.35372218 C6.35479778,8.524789 6.6516675,8.68159794 6.99586945,8.82415367 C7.34007136,8.96670932 7.72729277,9.11401468 8.15754514,9.26607413 C8.77710864,9.49416323 9.42247761,9.74600786 10.0936714,10.0216155 C10.7648652,10.2972232 11.3758145,10.6631107 11.9265376,11.1192889 C12.4772607,11.5754671 12.9333214,12.1409296 13.2947334,12.8156933 C13.6561455,13.4904569 13.8368488,14.3315229 13.8368488,15.3389165 C13.8368488,16.4983696 13.6432381,17.5009962 13.2560109,18.3468267 C12.8687837,19.1926572 12.3481861,19.8911697 11.6942024,20.442385 C11.0402187,20.9936004 10.2915908,21.4022539 9.44829601,21.6683579 C8.60500125,21.9344619 7.73590437,22.0675119 6.84097934,22.0675119 C5.53301197,22.0675119 4.26808882,21.8156672 3.04617193,21.3119704 C1.82425505,20.8082737 0.808874559,20.090754 0,19.1593902 L2.89128183,15.9091365 C3.33874435,16.5173741 3.92818133,17.0258151 4.65961045,17.4344748 C5.39103958,17.8431345 6.11815526,18.0474613 6.84097934,18.0474613 C7.1679712,18.0474613 7.48635319,18.009447 7.79613497,17.9334173 C8.10591669,17.8573876 8.37697164,17.7338411 8.60930796,17.5627743 C8.84164428,17.3917075 9.02665002,17.1636218 9.16433081,16.8785104 C9.30201161,16.593399 9.37085096,16.2512705 9.37085096,15.8521145 C9.37085096,15.4719659 9.28480175,15.1488445 9.11270076,14.8827406 C8.94059984,14.6166366 8.6953596,14.3742955 8.37697282,14.1557102 C8.05858604,13.9371247 7.6627597,13.7375498 7.18948206,13.5569792 C6.71620439,13.3764087 6.17839693,13.1815854 5.57604354,12.9725037 C4.99090024,12.7634221 4.4186731,12.5163292 3.85934495,12.2312178 C3.3000168,11.9461064 2.80093147,11.580219 2.362074,11.1335444 C1.92321653,10.6868699 1.57041483,10.1451663 1.30365833,9.50841758 C1.03690182,8.87166882 0.903525571,8.09712777 0.903525571,7.18477129 C0.903525571,6.06333314 1.11004364,5.1034725 1.52308596,4.30516058 C1.9361283,3.50684867 2.47823821,2.85110229 3.149432,2.33790178 C3.82062578,1.82470125 4.57785868,1.44931022 5.42115344,1.21171738 C6.26444819,0.97412455 7.11633523,0.855329919 7.97684006,0.855329919 C9.00944587,0.855329919 10.0635485,1.06440847 11.1391796,1.48257186 C12.2148106,1.90073524 13.1570493,2.51846734 13.9659238,3.33578668 L11.1520871,6.61455136 Z M29.3045992,14.3980536 C29.3045992,15.3864398 29.1669205,16.3367968 28.8915589,17.2491533 C28.6161974,18.1615098 28.2160686,18.9645615 27.6911606,19.6583326 C27.1662527,20.3521037 26.5251862,20.9080626 25.7679419,21.326226 C25.0106977,21.7443893 24.1502057,21.9534679 23.1864403,21.9534679 C22.3947758,21.9534679 21.6461479,21.7776519 20.9405338,21.4260144 C20.2349199,21.074377 19.684205,20.5944467 19.2883728,19.986209 L19.2367428,19.986209 L19.2367428,28.3969533 L15.0030801,28.3969533 L15.0030801,7.35583727 L19.0302227,7.35583727 L19.0302227,9.09500815 L19.1076677,9.09500815 C19.5035,8.52478532 20.0499123,8.02584789 20.7469212,7.59818079 C21.4439302,7.17051369 22.2657,6.95668333 23.2122553,6.95668333 C24.1416005,6.95668333 24.9848826,7.15625835 25.7421269,7.55541428 C26.4993711,7.95457021 27.1404376,8.49627373 27.6653456,9.1805411 C28.1902536,9.86480848 28.5946848,10.6583566 28.8786514,11.5612094 C29.162618,12.4640621 29.3045992,13.4096674 29.3045992,14.3980536 Z M25.2000116,14.3980536 C25.2000116,13.9418754 25.1354746,13.4952076 25.0063989,13.0580367 C24.8773232,12.6208659 24.688015,12.2359713 24.4384686,11.9033413 C24.1889222,11.5707114 23.8748426,11.2998596 23.4962205,11.0907779 C23.1175983,10.8816962 22.6787475,10.777157 22.1796546,10.777157 C21.6977719,10.777157 21.267526,10.8816962 20.8889039,11.0907779 C20.5102817,11.2998596 20.1875972,11.5754632 19.9208407,11.9175968 C19.6540842,12.2597305 19.4475661,12.649377 19.3012803,13.0865477 C19.1549945,13.5237185 19.0818527,13.9703864 19.0818527,14.4265646 C19.0818527,14.8827428 19.1549945,15.3294107 19.3012803,15.7665815 C19.4475661,16.2037523 19.6540842,16.5933987 19.9208407,16.9355324 C20.1875972,17.277666 20.5102817,17.5532696 20.8889039,17.7623513 C21.267526,17.971433 21.6977719,18.0759722 22.1796546,18.0759722 C22.6787475,18.0759722 23.1175983,17.971433 23.4962205,17.7623513 C23.8748426,17.5532696 24.1889222,17.277666 24.4384686,16.9355324 C24.688015,16.5933987 24.8773232,16.1990005 25.0063989,15.752326 C25.1354746,15.3056515 25.2000116,14.8542318 25.2000116,14.3980536 Z M38.0346303,15.3674275 L37.492515,15.3674275 C37.0278423,15.3674275 36.5588742,15.3911864 36.0855966,15.438705 C35.6123189,15.4862236 35.1906778,15.5765075 34.8206608,15.7095595 C34.4506437,15.8426114 34.145169,16.0374346 33.9042277,16.2940349 C33.6632863,16.5506352 33.5428174,16.8880119 33.5428174,17.3061753 C33.5428174,17.5722793 33.5987494,17.800365 33.7106151,17.9904393 C33.8224807,18.1805135 33.9644618,18.3325707 34.1365628,18.4466152 C34.3086638,18.5606598 34.506577,18.6414401 34.7303082,18.6889587 C34.9540395,18.7364772 35.1691624,18.7602362 35.3756836,18.7602362 C36.2361885,18.7602362 36.8944648,18.498888 37.3505324,17.9761837 C37.8065999,17.4534795 38.0346303,16.7454635 38.0346303,15.8521145 L38.0346303,15.3674275 Z M30.2643104,9.29458509 C31.0215547,8.49627316 31.9035589,7.89754821 32.9103495,7.49839229 C33.9171402,7.09923629 34.9454281,6.89966133 35.995244,6.89966133 C37.0794801,6.89966133 37.995904,7.04696668 38.7445432,7.34158179 C39.4931825,7.63619689 40.0998293,8.0923683 40.5645019,8.71010968 C41.0291745,9.32785099 41.3690688,10.1071438 41.584195,11.0480115 C41.7993213,11.988879 41.9068827,13.1055486 41.9068827,14.3980536 L41.9068827,21.5543139 L38.0346303,21.5543139 L38.0346303,20.0432311 L37.9571852,20.0432311 C37.6301934,20.6324613 37.1354105,21.0886326 36.4728218,21.4117589 C35.8102331,21.7348852 35.0917223,21.8964459 34.3172679,21.8964459 C33.800965,21.8964459 33.26746,21.8204173 32.7167369,21.6683579 C32.1660138,21.5162985 31.662626,21.2692057 31.2065585,20.927072 C30.7504909,20.5849383 30.3761769,20.1287669 30.0836053,19.5585441 C29.7910336,18.9883213 29.64475,18.2850571 29.64475,17.4487303 C29.64475,16.4223293 29.8985951,15.5955186 30.4062929,14.9682735 C30.9139908,14.3410285 31.5679647,13.8563463 32.3682342,13.5142127 C33.1685037,13.172079 34.0591128,12.9439933 35.0400884,12.8299488 C36.0210639,12.7159042 36.97621,12.6588828 37.9055552,12.6588828 L37.9055552,12.4307948 C37.9055552,11.72752 37.6818273,11.2095754 37.2343648,10.8769455 C36.7869022,10.5443155 36.2361874,10.378003 35.5822037,10.378003 C34.9798503,10.378003 34.3990183,10.5205566 33.8396901,10.8056679 C33.280362,11.0907794 32.8027889,11.4329079 32.4069567,11.8320639 L30.2643104,9.29458509 Z M51.9792947,21.5543139 L51.9792947,13.7993227 C51.9792947,13.4001667 51.9491775,13.0200239 51.8889422,12.6588828 C51.8287068,12.2977417 51.7297502,11.9793721 51.5920695,11.7037644 C51.4543887,11.4281567 51.260778,11.2095746 51.0112316,11.0480115 C50.7616852,10.8864483 50.4476056,10.8056679 50.0689835,10.8056679 C49.6903614,10.8056679 49.359072,10.8864483 49.0751054,11.0480115 C48.7911388,11.2095746 48.5545035,11.4329084 48.3651924,11.7180199 C48.1758814,12.0031313 48.0339002,12.3310045 47.9392447,12.7016492 C47.8445891,13.0722941 47.7972621,13.4571887 47.7972621,13.8563446 L47.7972621,21.5543139 L43.5377844,21.5543139 L43.5377844,7.35583727 L47.642372,7.35583727 L47.642372,9.32309612 L47.694002,9.32309612 C47.8488928,9.0189773 48.0511085,8.71961482 48.3006549,8.42499972 C48.5502013,8.13038455 48.8427686,7.87853992 49.1783655,7.66945826 C49.5139623,7.46037654 49.8796714,7.28931233 50.2755036,7.15626033 C50.6713359,7.02320832 51.0929769,6.95668333 51.5404395,6.95668333 C52.4009443,6.95668333 53.1323624,7.1277476 53.7347158,7.46988125 C54.3370693,7.81201498 54.8232472,8.25393098 55.1932642,8.79564264 C55.5632814,9.33735429 55.8300338,9.95983816 55.9935298,10.663113 C56.1570257,11.3663877 56.2387724,12.069652 56.2387724,12.7729268 L56.2387724,21.5543139 L51.9792947,21.5543139 Z M71.7323377,21.5543139 L66.4918895,21.5543139 L62.2840418,14.7401856 L62.2065968,14.7401856 L62.2065968,21.5543139 L57.9471191,21.5543139 L57.9471191,0 L62.2065968,0 L62.2065968,13.1150587 L62.2840418,13.1150587 L66.3886295,7.35583727 L71.5258176,7.35583727 L66.5693346,13.7708117 L71.7323377,21.5543139 Z M88.0777988,18.7602362 C87.268924,19.7866372 86.2707535,20.5991925 85.0832566,21.1979264 C83.8957604,21.7966604 82.5275779,22.0960228 80.9786693,22.0960228 C79.5674412,22.0960228 78.2637963,21.8394265 77.0676943,21.326226 C75.8715929,20.8130254 74.8346996,20.0860023 73.9569846,19.1451346 C73.0792696,18.204267 72.390876,17.0780939 71.8917838,15.7665815 C71.3926909,14.455069 71.1431483,13.0105263 71.1431483,11.4329099 C71.1431483,9.81727861 71.3969935,8.35372875 71.9046909,7.04221632 C72.412389,5.73070389 73.1136897,4.61403433 74.0086151,3.69217414 C74.9035399,2.77031396 75.9533402,2.06229794 77.1580468,1.56810485 C78.3627534,1.07391176 79.6620964,0.826818922 81.0561141,0.826818922 C82.3468713,0.826818922 83.6160975,1.07866354 84.8638294,1.58236035 C86.1115614,2.08605715 87.122639,2.82258388 87.8970936,3.79196263 L84.9025515,7.09923834 C84.4895092,6.47199324 83.9473993,6.00631827 83.2762058,5.70219945 C82.6050122,5.39808063 81.9166187,5.2460235 81.2110043,5.2460235 C80.4365504,5.2460235 79.7266445,5.40283241 79.0812659,5.71645495 C78.4358872,6.03007748 77.8808695,6.46248996 77.4161968,7.01370533 C76.9515247,7.56492069 76.5901178,8.21591531 76.3319665,8.96670861 C76.0738152,9.71750199 75.9447413,10.5395608 75.9447413,11.4329099 C75.9447413,12.3452664 76.0738152,13.1815806 76.3319665,13.9418777 C76.5901178,14.7021747 76.9472221,15.3531693 77.4032896,15.894881 C77.8593572,16.4365926 78.4057697,16.8595015 79.0425431,17.1636204 C79.6793166,17.4677392 80.3763153,17.6197963 81.1335595,17.6197963 C82.0112746,17.6197963 82.7771122,17.4297249 83.431096,17.0495764 C84.0850798,16.6694278 84.6099793,16.1752422 85.0058119,15.5670045 L88.0777988,18.7602362 Z M96.6787546,21.5543139 L96.6787546,13.8563446 C96.6787546,13.4571887 96.6529403,13.0770459 96.6013098,12.7159048 C96.5496793,12.3547637 96.4507229,12.0363941 96.3044371,11.7607864 C96.1581514,11.4851787 95.9645405,11.2665965 95.7235989,11.1050334 C95.482658,10.9434703 95.1728811,10.8626899 94.7942589,10.8626899 C94.0542244,10.8626899 93.4862996,11.1525489 93.0904678,11.7322754 C92.6946353,12.3120018 92.4967225,13.0295215 92.4967225,13.8848557 L92.4967225,21.5543139 L88.2630591,21.5543139 L88.2630591,0 L92.4967225,0 L92.4967225,9.15203014 L92.5483523,9.15203014 C92.8409238,8.58180732 93.3055896,8.0733663 93.942363,7.62669175 C94.5791364,7.18001727 95.3449747,6.95668333 96.2398995,6.95668333 C97.1176145,6.95668333 97.8533353,7.1277476 98.4470834,7.46988125 C99.0408315,7.81201498 99.522707,8.25393098 99.8927246,8.79564264 C100.262742,9.33735429 100.529494,9.95983816 100.69299,10.663113 C100.856486,11.3663877 100.938233,12.069652 100.938233,12.7729268 L100.938233,21.5543139 L96.6787546,21.5543139 Z M110.210379,15.3674275 L109.668264,15.3674275 C109.203591,15.3674275 108.734623,15.3911864 108.261345,15.438705 C107.788067,15.4862236 107.366426,15.5765075 106.996409,15.7095595 C106.626392,15.8426114 106.320918,16.0374346 106.079976,16.2940349 C105.839035,16.5506352 105.718566,16.8880119 105.718566,17.3061753 C105.718566,17.5722793 105.774498,17.800365 105.886363,17.9904393 C105.998229,18.1805135 106.140211,18.3325707 106.312311,18.4466152 C106.484413,18.5606598 106.682326,18.6414401 106.906057,18.6889587 C107.129788,18.7364772 107.344911,18.7602362 107.551433,18.7602362 C108.411937,18.7602362 109.070213,18.498888 109.526281,17.9761837 C109.982348,17.4534795 110.210379,16.7454635 110.210379,15.8521145 L110.210379,15.3674275 Z M102.440059,9.29458509 C103.197303,8.49627316 104.079308,7.89754821 105.086098,7.49839229 C106.092889,7.09923629 107.121176,6.89966133 108.170993,6.89966133 C109.255229,6.89966133 110.171652,7.04696668 110.920292,7.34158179 C111.668931,7.63619689 112.275578,8.0923683 112.740251,8.71010968 C113.204923,9.32785099 113.544817,10.1071438 113.759943,11.0480115 C113.97507,11.988879 114.082632,13.1055486 114.082632,14.3980536 L114.082632,21.5543139 L110.210379,21.5543139 L110.210379,20.0432311 L110.132934,20.0432311 C109.805942,20.6324613 109.311159,21.0886326 108.648571,21.4117589 C107.985982,21.7348852 107.267471,21.8964459 106.493017,21.8964459 C105.976714,21.8964459 105.443209,21.8204173 104.892486,21.6683579 C104.341762,21.5162985 103.838374,21.2692057 103.382307,20.927072 C102.926239,20.5849383 102.551925,20.1287669 102.259354,19.5585441 C101.966783,18.9883213 101.820499,18.2850571 101.820499,17.4487303 C101.820499,16.4223293 102.074344,15.5955186 102.582042,14.9682735 C103.08974,14.3410285 103.743714,13.8563463 104.543983,13.5142127 C105.344252,13.172079 106.234862,12.9439933 107.215837,12.8299488 C108.196813,12.7159042 109.151958,12.6588828 110.081304,12.6588828 L110.081304,12.4307948 C110.081304,11.72752 109.857576,11.2095754 109.410113,10.8769455 C108.962651,10.5443155 108.411936,10.378003 107.757953,10.378003 C107.155599,10.378003 106.574767,10.5205566 106.015439,10.8056679 C105.456111,11.0907794 104.978538,11.4329079 104.582705,11.8320639 L102.440059,9.29458509 Z M120.308606,2.82258873 C120.308606,3.18372983 120.244069,3.52110659 120.114993,3.83472913 C119.985918,4.14835167 119.813819,4.41920344 119.598693,4.64729255 C119.383567,4.87538167 119.12542,5.05594951 118.824242,5.1890015 C118.523066,5.32205348 118.208986,5.38857848 117.881994,5.38857848 C117.19359,5.38857848 116.617061,5.13673386 116.152388,4.63303705 C115.687716,4.12934025 115.455383,3.52586351 115.455383,2.82258873 C115.455383,2.48045505 115.515617,2.15258186 115.636088,1.83895932 C115.756559,1.52533679 115.928657,1.25448502 116.152388,1.0263959 C116.37612,0.79830678 116.634267,0.612987153 116.926839,0.470431454 C117.21941,0.327875756 117.537792,0.256598976 117.881994,0.256598976 C118.208986,0.256598976 118.523066,0.32312397 118.824242,0.456175956 C119.12542,0.589227941 119.383567,0.769795784 119.598693,0.9978849 C119.813819,1.22597402 119.985918,1.49682579 120.114993,1.81044833 C120.244069,2.12407086 120.308606,2.46144762 120.308606,2.82258873 Z M115.765163,21.5543139 L115.765163,7.35583727 L119.998826,7.35583727 L119.998826,21.5543139 L115.765163,21.5543139 Z M130.277758,21.5543139 L130.277758,13.7993227 C130.277758,13.4001667 130.247641,13.0200239 130.187405,12.6588828 C130.12717,12.2977417 130.028214,11.9793721 129.890533,11.7037644 C129.752852,11.4281567 129.559241,11.2095746 129.309695,11.0480115 C129.060148,10.8864483 128.746069,10.8056679 128.367447,10.8056679 C127.988824,10.8056679 127.657535,10.8864483 127.373569,11.0480115 C127.089602,11.2095746 126.852966,11.4329084 126.663655,11.7180199 C126.474344,12.0031313 126.332363,12.3310045 126.237708,12.7016492 C126.143052,13.0722941 126.095725,13.4571887 126.095725,13.8563446 L126.095725,21.5543139 L121.836247,21.5543139 L121.836247,7.35583727 L125.940835,7.35583727 L125.940835,9.32309612 L125.992465,9.32309612 C126.147356,9.0189773 126.349572,8.71961482 126.599118,8.42499972 C126.848665,8.13038455 127.141232,7.87853992 127.476829,7.66945826 C127.812425,7.46037654 128.178135,7.28931233 128.573967,7.15626033 C128.969799,7.02320832 129.39144,6.95668333 129.838903,6.95668333 C130.699407,6.95668333 131.430825,7.1277476 132.033179,7.46988125 C132.635532,7.81201498 133.12171,8.25393098 133.491727,8.79564264 C133.861745,9.33735429 134.128497,9.95983816 134.291993,10.663113 C134.455489,11.3663877 134.537235,12.069652 134.537235,12.7729268 L134.537235,21.5543139 L130.277758,21.5543139 Z" id="SpankChain"></path>
                        </g>
                        <g id="Group-5">
                            <ellipse id="Oval-2" cx="20.346242" cy="17.7025745" rx="17.3159506" ry="17.2818909"></ellipse>
                            <path d="M6.39743033,33.8013097 L6.39743033,34.0685219 L3.66654605,34.0685219 L3.66654605,29.0247036 L3.58185252,29.3037209 L0.970293123,28.4995831 L2.44562228,23.6396421 L2.26400703,23.910856 L0,22.3729101 L2.82895831,18.1489362 L2.55916286,18.3690287 L0.840561841,16.231631 L4.91163816,12.9114366 L4.39141769,13.1126211 L3.41276349,10.5449528 L8.27529011,8.66513328 L7.7070012,8.70515012 L7.51650533,5.96154789 L12.607474,5.60302733 L12.1478482,5.49615244 L12.7621395,2.81634701 L17.6253118,3.94706187 L17.3188616,3.76892706 L18.6843286,1.38709677 L22.9258587,3.85336252 L22.760763,3.67508765 L24.7580043,1.79938492 L28.0610119,5.36659804 L27.9906823,5.22121698 L30.4451653,4.01557065 L32.5640927,8.39089814 L32.5448216,8.26846673 L35.2420808,7.83822604 L36.0367656,12.8914282 L36.0932875,12.5316771 L38.7905467,12.9619579 L37.984041,18.0908118 L38.1834076,17.6789388 L40.6378906,18.8846452 L38.365291,23.5773159 L38.6973699,23.2186653 L40.6946112,25.0943531 L37.1638271,28.9076545 L37.5912681,28.6590501 L38.9567351,31.0409504 L34.5184211,33.6216343 L34.9649345,33.5177906 L35.5792259,36.197616 L30.6751273,37.337895 L31.0529998,37.3645061 L30.8624742,40.1080583 L25.9535081,39.7623131 L26.2036352,39.8590538 L25.2249809,42.4267321 L20.525911,40.6100692 L20.822825,40.8522709 L19.10422,42.9896685 L15.2256621,39.8265401 L15.4171811,40.1123601 L13.1531244,41.650306 L10.3806682,37.5106675 L10.4631167,37.7821815 L7.85015367,38.5867194 L6.39743033,33.8013097 Z M6.39743033,30.5332372 L8.10308198,30.0081167 L9.42865576,34.3747505 L10.9034713,33.3729298 L13.4240126,37.1364104 L14.5497827,35.7363223 L18.043018,38.5851188 L18.6678388,36.9458303 L22.877383,38.5732137 L23.0007578,36.797368 L27.5052294,37.1146012 L27.0999401,35.3464586 L31.515705,34.3197274 L30.6008242,32.7237571 L34.5423609,30.4318947 L33.1923904,29.1640622 L36.305965,25.80145 L34.6449746,24.9855073 L36.6473814,20.8507709 L34.8306329,20.5609491 L35.544657,16.0206424 L33.8074763,16.2976587 L33.0937501,11.7592527 L31.5291153,12.5277755 L29.5411122,8.42279152 L28.2658419,9.62048453 L25.1896175,6.29815926 L24.3094049,7.83358409 L20.4152511,5.56934318 L20.0128427,7.32485044 L15.6320439,6.30627267 L15.7591935,8.13808197 L11.2622715,8.45477499 L11.9272239,10.1992976 L7.69297496,11.8361851 L8.8322052,13.2530801 L5.27740173,16.1521976 L6.7777565,17.1713257 L4.21495795,20.9978326 L5.94184753,21.529556 L4.60320116,25.9392079 L6.39743033,25.9392079 L6.39743033,30.5332372 Z" id="path1_fill" fill-opacity="0.57" fill="#8B8B8B" fill-rule="nonzero"></path>
                            <path d="M28.0697938,13.2068501 L26.6836064,26.2047653 L23.935556,26.4534026 L24.0206718,13.2722975 L28.0697938,13.2068501 Z M27.3037368,27.4351683 L27.1213478,31.9772344 L23.3397409,31.4797615 L23.5221322,27.1210271 L27.3037368,27.4351683 Z" id="path3_fill" fill-opacity="0.57" fill="#8B8B8B" fill-rule="nonzero" transform="translate(25.704767, 22.592042) rotate(6.000000) translate(-25.704767, -22.592042) "></path>
                            <path d="M20.4156949,17.8403987 C20.0764598,17.4094942 19.6331478,17.0670841 19.0857457,16.8131582 C18.5383436,16.5592323 18.0102241,16.4322713 17.5013715,16.4322713 C17.2392353,16.4322713 16.9732481,16.4553551 16.703402,16.5015235 C16.4335558,16.5476918 16.190698,16.6361798 15.9748211,16.7669901 C15.7589442,16.8978004 15.5777645,17.0670818 15.4312766,17.2748394 C15.2847888,17.4825969 15.2115459,17.7480609 15.2115459,18.0712393 C15.2115459,18.3482494 15.2693692,18.5790876 15.3850175,18.763761 C15.5006659,18.9484344 15.6702809,19.1100212 15.8938677,19.2485262 C16.1174544,19.3870312 16.3834416,19.5139923 16.6918372,19.6294131 C17.0002327,19.744834 17.3471725,19.8641004 17.732667,19.987216 C18.287779,20.1718894 18.866012,20.3757965 19.4673833,20.5989435 C20.0687547,20.8220905 20.6161486,21.1183329 21.1095815,21.4876797 C21.6030144,21.8570264 22.0116323,22.3148556 22.3354477,22.861181 C22.659263,23.4075064 22.8211683,24.0884793 22.8211683,24.90412 C22.8211683,25.8428763 22.6476984,26.6546575 22.3007534,27.339488 C21.9538083,28.0243184 21.4873671,28.5898721 20.9014155,29.0361661 C20.3154639,29.4824601 19.6447137,29.8133283 18.8891445,30.0287805 C18.1335754,30.2442328 17.3548883,30.3519573 16.5530599,30.3519573 C15.3811568,30.3519573 14.2478201,30.1480502 13.1530159,29.7402298 C12.0582116,29.3324095 11.1484584,28.7514665 10.4237288,27.9973836 L13.0142385,25.3658011 C13.4151528,25.8582635 13.9432722,26.269925 14.5986128,26.6007982 C15.2539534,26.9316713 15.9054292,27.0971054 16.5530599,27.0971054 C16.8460357,27.0971054 17.1312973,27.0663269 17.4088533,27.0047691 C17.6864093,26.9432113 17.9292671,26.8431814 18.1374341,26.7046764 C18.3456011,26.5661714 18.5113613,26.3815008 18.6347195,26.1506591 C18.7580777,25.9198173 18.8197559,25.6428114 18.8197559,25.319633 C18.8197559,25.0118441 18.7426582,24.7502274 18.5884604,24.5347751 C18.4342626,24.3193228 18.2145341,24.1231103 17.9292682,23.9461317 C17.6440023,23.769153 17.2893527,23.6075662 16.8653088,23.4613665 C16.4412649,23.3151667 15.9594041,23.1574273 15.4197119,22.9881433 C14.8954394,22.8188594 14.3827395,22.6187996 13.8815967,22.3879579 C13.3804539,22.1571161 12.9332871,21.8608737 12.5400827,21.4992217 C12.1468784,21.1375697 11.8307777,20.698977 11.5917711,20.1834305 C11.3527646,19.667884 11.2332631,19.0407734 11.2332631,18.3020799 C11.2332631,17.3941025 11.4182977,16.616947 11.7883723,15.9705902 C12.158447,15.3242334 12.6441627,14.7933054 13.2455341,14.3777903 C13.8469054,13.9622752 14.5253654,13.6583382 15.2809346,13.4659701 C16.0365037,13.273602 16.7997712,13.1774194 17.5707601,13.1774194 C18.4959468,13.1774194 19.440394,13.3467007 20.4041302,13.6852686 C21.3678663,14.0238364 22.2120864,14.523986 22.936816,15.1857323 L20.4156949,17.8403987 Z" id="S" fill-opacity="0.57" fill="#8B8B8B"></path>
                        </g>
                    </g>
                </g>
            </g>
        </g>
    </g>
</svg>