<svg width="516" height="566" fill="none" xmlns="http://www.w3.org/2000/svg"><g filter="url(#a)"><path d="M252.039 517.987a14.904 14.904 0 0 1-14.9-14.9h-22.7l-.028-22.846a14.923 14.923 0 0 0 14.888-15.709 14.917 14.917 0 0 0-14.92-14.14v-22.746h-.038v-.047l.3-.121h-.474v-22.701a14.904 14.904 0 0 1-14.9-14.9v-.015c0-1.992.399-3.964 1.174-5.8.135-.313.291-.618.447-.923.062-.122.111-.25.177-.371a14.9 14.9 0 0 1 13.1-7.801v-22.794h.052v.038l.225-.045-.111-.27-22.842.028a14.924 14.924 0 0 0-14.942-14.79 14.928 14.928 0 0 0-14.911 14.821H138.89v.038h-.045l-.277-.156v.021a37.562 37.562 0 0 1 0-75.124h.014v.966l.263-1h-.017v-.048h.035v-22.749a14.91 14.91 0 0 0 10.558-4.36 14.925 14.925 0 0 0-10.527-25.489l.031-22.846h22.691a14.898 14.898 0 0 1 14.9-14.899h.014a14.794 14.794 0 0 1 5.8 1.173c.315.131.62.29.924.443.125.062.253.114.37.18l.114.063a14.876 14.876 0 0 1 7.683 13.039h22.795v.083h.229l-.028-22.819a14.926 14.926 0 1 0-.031-29.852v-22.748h-.038v-.048h22.788a14.902 14.902 0 0 1 7.8-13.099c.121-.065.249-.118.37-.181.3-.152.609-.311.924-.442a14.806 14.806 0 0 1 5.8-1.178h.014a14.908 14.908 0 0 1 14.9 14.905h22.7l.094.022v-.045h22.721v-.011h-22.797v-.049h.038l.052-70.083a11.39 11.39 0 0 0 11.253 10.089h.322a11.014 11.014 0 0 0 10.116-6.893c.541-1.341.812-2.777.798-4.224v-.36a15.152 15.152 0 0 1 4.419-10.716 15.144 15.144 0 0 1 10.702-4.453h.208a14.892 14.892 0 0 1 13.703 9.276 14.879 14.879 0 0 1 1.097 5.706v.389a11.344 11.344 0 0 0 22.686.033l-.035 18.59a14.926 14.926 0 1 0-.028 29.854l-.031 22.838h.235v-.034h.045v.038l21.574-.042a14.924 14.924 0 0 0 29.846 0l23.894.073.031 22.842a14.926 14.926 0 0 0 .028 29.853L440.573 224v.053a14.9 14.9 0 0 1 14.9 14.899v.018a14.878 14.878 0 0 1-1.174 5.8c-.135.314-.291.618-.447.923-.062.121-.114.25-.177.371a14.896 14.896 0 0 1-13.1 7.8v.049l.014 45.61a14.929 14.929 0 0 0-10.531 25.493 14.927 14.927 0 0 0 10.559 4.361v22.741h.038v.052h-22.79v.021l22.811.011a37.706 37.706 0 1 1-75.412 0v-.017h.115l-.128-.284-.152 23.021a14.923 14.923 0 0 0-13.812 20.625 14.925 14.925 0 0 0 13.781 9.229l-.031 22.842h-22.7a14.9 14.9 0 0 1-14.906 14.901h-.014a14.897 14.897 0 0 1-5.8-1.179c-.315-.132-.62-.291-.921-.443-.125-.062-.253-.114-.374-.18a14.903 14.903 0 0 1-7.8-13.1h-22.784v-.023h-.1l.028 22.844a14.94 14.94 0 0 0-10.549 4.382 14.934 14.934 0 0 0-4.36 10.559 14.921 14.921 0 0 0 9.228 13.779 14.923 14.923 0 0 0 5.712 1.13v22.742h.035v.052h-22.791a14.902 14.902 0 0 1-7.8 13.106c-.118.062-.246.113-.37.175-.3.156-.609.314-.924.444a14.873 14.873 0 0 1-5.8 1.177l-.008.003Zm-5.945-104.175a.764.764 0 0 0 .128.056l.024-.011a.777.777 0 0 0 .107-.142c-.083.032-.173.057-.259.097Zm81.44-122.221a14.925 14.925 0 0 0 14.913-14.94h22.679v-.087h-.052v-22.7a14.904 14.904 0 0 1-14.9-14.9v-.014a14.837 14.837 0 0 1 1.177-5.8c.131-.315.287-.619.443-.924.062-.121.114-.25.18-.371a14.9 14.9 0 0 1 13.1-7.799v-.049l-.007-22.956-22.672.03a14.864 14.864 0 0 0-4.255-10.422l-.021-.02-.1-.101a14.919 14.919 0 0 0-7.646-4.078 14.936 14.936 0 0 0-8.625.857 14.932 14.932 0 0 0-9.199 13.802h-3.272l-19.469.022v.013h-.048v-.013h-.1v22.921a14.896 14.896 0 0 1 14.9 14.899v.018c0 1.992-.4 3.964-1.177 5.799-.132.314-.291.619-.443.924-.062.121-.114.25-.18.371a14.893 14.893 0 0 1-13.1 7.8v22.8h-.048v-.037h-.014v.058h.048v.1h.111v-.075l22.842-.031a14.924 14.924 0 0 0 14.935 14.903Zm14.726-165.775h.187v-.009h-.187v.009ZM138.699 427.572v-.038h-22.745a14.926 14.926 0 0 0-29.853-.031l-22.842-.026v-22.701a14.901 14.901 0 0 1-14.9-14.9v-.015c0-1.992.4-3.964 1.177-5.799.132-.314.287-.619.443-.924.062-.122.114-.25.18-.371a14.891 14.891 0 0 1 13.1-7.801v-22.794h.048v.038h22.741a14.926 14.926 0 0 0 29.853.031l22.845.029v22.7a14.9 14.9 0 0 1 14.9 14.899v.014a14.807 14.807 0 0 1-1.174 5.801c-.132.315-.291.619-.443.924-.062.121-.114.254-.18.371a14.9 14.9 0 0 1-13.1 7.799v22.794h-.05Zm52.646-294.4v-.038h-22.744a14.923 14.923 0 0 0-9.199-13.798 14.922 14.922 0 0 0-20.651 13.768l-22.845-.029v-22.7a14.904 14.904 0 0 1-14.9-14.9v-.014a14.836 14.836 0 0 1 1.177-5.8c.132-.315.287-.62.443-.925.062-.12.114-.249.18-.37a14.9 14.9 0 0 1 13.1-7.8V57.773h.048v.038h22.745a14.926 14.926 0 0 0 29.853.03l22.842.028v22.7a14.9 14.9 0 0 1 14.9 14.9v.014c0 1.993-.399 3.965-1.174 5.8-.135.318-.294.619-.447.924-.062.121-.114.25-.177.371a14.899 14.899 0 0 1-13.105 7.8v22.794h-.046Z" fill="#fff"/></g><path d="M304.519 148.659h-29.847v29.847h29.847v-29.847Z" fill="#fff" stroke="#fff" stroke-miterlimit="10"/><path d="m388.479 352.179-23.219.008v.016a37.703 37.703 0 0 0 37.706 37.706 37.707 37.707 0 0 0 37.706-37.706" fill="#fff"/><path d="m388.479 352.179-23.219.008v.016a37.703 37.703 0 0 0 37.706 37.706 37.707 37.707 0 0 0 37.706-37.706" stroke="#ECE5F5" stroke-miterlimit="10"/><path fill-rule="evenodd" clip-rule="evenodd" d="M289.867 134.092v199.677l-84.082-53.577 84.082-146.1Zm.14 217.119v69.21l-84.222-122.932 84.222 53.722Z" fill="url(#b)"/><path opacity=".579" fill-rule="evenodd" clip-rule="evenodd" d="m365.308 265.177 8.641 15.015-84.082 53.582V134.092l30.866 53.631a14.894 14.894 0 0 0-6.81 7.475 14.896 14.896 0 0 0-1.134 5.702h-22.693l-.029 22.842a14.926 14.926 0 1 1-.031 29.854v22.744h-.037v.048h22.794a14.902 14.902 0 0 0 7.8 13.1c.069.037.141.07.213.104.053.024.106.049.158.075.3.155.608.311.923.445a14.875 14.875 0 0 0 5.8 1.175h.013a14.9 14.9 0 0 0 14.9-14.9h22.694l.014-11.21Zm-8.071-14.025-6.807-11.827a14.926 14.926 0 0 0 6.807 11.827Zm-67.37 169.269v-69.21l84.082-53.722-84.082 122.932Z" fill="url(#c)"/><path d="M63.262 374.972a14.9 14.9 0 0 0-13.1 7.8c-.066.12-.117.248-.18.37-.154.305-.31.608-.444.925a14.853 14.853 0 0 0-1.175 5.8v.014a14.903 14.903 0 0 0 14.9 14.9v22.691l22.842.03a14.928 14.928 0 0 1 28.724-5.684 14.933 14.933 0 0 1 1.13 5.714h22.743v.037h.049v-22.792a14.896 14.896 0 0 0 13.1-7.8c.065-.119.116-.248.179-.37.154-.3.311-.609.444-.925a14.839 14.839 0 0 0 1.175-5.8v-.013a14.9 14.9 0 0 0-14.9-14.9v-22.692l-22.842-.029a14.926 14.926 0 1 1-29.854-.032H63.311v-.037h-.049v22.793ZM246.238 413.868a.563.563 0 0 1-.136-.058c.087-.037.178-.065.266-.1-.046.054-.076.13-.13.158Zm118.84-189.855v.049a14.902 14.902 0 0 0-13.1 7.8c-.066.12-.117.248-.179.37-.155.3-.312.609-.445.924a14.871 14.871 0 0 0-1.175 5.8v.013a14.9 14.9 0 0 0 14.9 14.9v22.693h.049v.086H342.45a14.927 14.927 0 0 1-14.911 14.941 14.927 14.927 0 0 1-14.941-14.911l-22.843.03v.075h-.117v-.1h-.045v-.063h.014v.037h.049v-22.79a14.896 14.896 0 0 0 13.1-7.8c.066-.12.116-.248.179-.371.154-.3.312-.607.444-.924a14.854 14.854 0 0 0 1.176-5.8v-.015a14.9 14.9 0 0 0-14.9-14.9v-22.918l22.885-.024a14.934 14.934 0 0 1 9.2-13.799 14.93 14.93 0 0 1 16.27 3.219 14.938 14.938 0 0 1 4.382 10.55l22.676-.03.01 22.958Zm51.585-98.25a14.92 14.92 0 0 1-14.923 14.923 14.922 14.922 0 0 1-14.923-14.923l-27.125.05h-69.954v.046l-.1-.02h-22.7a14.9 14.9 0 0 0-14.9-14.9h-.014a14.875 14.875 0 0 0-5.8 1.175c-.315.133-.619.291-.923.445-.123.062-.251.113-.371.179a14.903 14.903 0 0 0-7.8 13.1h-22.782v.048h.037v22.747a14.926 14.926 0 1 1 .032 29.852l.029 22.824h-.23V201.224h-22.788a14.898 14.898 0 0 0-7.8-13.1c-.12-.066-.248-.117-.371-.18-.3-.154-.608-.311-.924-.444a14.853 14.853 0 0 0-5.8-1.175h-.013a14.9 14.9 0 0 0-14.9 14.9h-22.692l-.03 22.843a14.926 14.926 0 1 1-.031 29.852v22.748h-.036v.048h.018v22.686a14.902 14.902 0 0 0-14.9 14.9v.013a14.875 14.875 0 0 0 1.175 5.8c.134.317.29.621.445.925.062.122.114.25.179.371a14.903 14.903 0 0 0 13.1 7.8v22.791h.047v-.037h22.743a14.932 14.932 0 0 1 4.361-10.559 14.938 14.938 0 0 1 10.55-4.383 14.934 14.934 0 0 1 13.799 9.2 14.926 14.926 0 0 1 1.142 5.711l22.842-.03.111.27-.226.043v-.037h-.049v22.792a14.902 14.902 0 0 0-13.1 7.8c-.065.12-.116.248-.179.37-.154.305-.311.608-.444.925a14.871 14.871 0 0 0-1.175 5.8v.014a14.9 14.9 0 0 0 14.9 14.9v22.691h.474l-.3.123v.047h.037v22.745a14.923 14.923 0 0 1 14.942 14.91 14.927 14.927 0 0 1-14.911 14.942l.029 22.842h22.697a14.9 14.9 0 0 0 14.9 14.9h.012a14.853 14.853 0 0 0 5.8-1.175c.315-.134.619-.29.924-.445.122-.061.25-.114.37-.178a14.898 14.898 0 0 0 7.8-13.1h22.794v-.049h-.032v-22.743a14.924 14.924 0 0 1-15.063-14.911 14.934 14.934 0 0 1 9.284-13.835 14.922 14.922 0 0 1 5.748-1.107l-.029-22.842 22.84.023h.048a14.9 14.9 0 0 0 7.8 13.1c.12.066.248.117.37.179.3.155.608.311.924.445a14.857 14.857 0 0 0 5.8 1.175h.014a14.9 14.9 0 0 0 14.9-14.9h22.7l.03-22.844a14.93 14.93 0 0 1-14.91-14.942 14.924 14.924 0 0 1 14.941-14.91l.152-23.02.134.291 22.743.009a14.847 14.847 0 0 0 9.152 13.735 14.86 14.86 0 0 0 5.683 1.137h.014c2.054 0 6.971-1.733 7.091-1.8a14.898 14.898 0 0 0 7.8-13.1h22.792v-.05h-.037V329.38a14.924 14.924 0 0 1-15.063-14.911 14.927 14.927 0 0 1 15.033-14.942l-.013-45.611v-.049a14.896 14.896 0 0 0 13.1-7.8c.065-.12.116-.248.178-.371.155-.3.312-.608.446-.924a14.893 14.893 0 0 0 1.175-5.8v-.015a14.9 14.9 0 0 0-14.9-14.9v-.049l.043-45.479a14.924 14.924 0 0 1-15.063-14.911 14.927 14.927 0 0 1 15.033-14.942l-.03-22.842-23.903-.071ZM115.911 80.575a14.897 14.897 0 0 0-13.1 7.8c-.065.12-.117.248-.179.371-.155.3-.311.608-.445.923a14.873 14.873 0 0 0-1.175 5.8v.013a14.9 14.9 0 0 0 14.9 14.9v22.694l22.844.029a14.925 14.925 0 0 1 29.852.032h22.744v.037h.048v-22.793a14.9 14.9 0 0 0 13.1-7.8c.064-.12.116-.248.178-.371.154-.3.311-.607.445-.923a14.928 14.928 0 0 0 1.176-5.8v-.016a14.914 14.914 0 0 0-4.364-10.536 14.913 14.913 0 0 0-10.536-4.364V57.878l-22.842-.029a14.927 14.927 0 1 1-29.854-.03h-22.744v-.038h-.048v22.794Z" stroke="#ECE5F5" stroke-miterlimit="10"/><path d="M205.93 385.207c.038-.076.07-.156.11-.23M138.593 299.874l-.007-23.131h-.016a37.56 37.56 0 0 0-37.369 37.563 37.562 37.562 0 0 0 37.369 37.562M312.529 427.619a14.9 14.9 0 0 0 7.8 13.1c.12.066.248.117.371.179.3.155.607.311.923.445a14.857 14.857 0 0 0 5.8 1.175h.013a14.9 14.9 0 0 0 14.907-14.9h22.7l.03-22.844a14.921 14.921 0 0 1-10.549-4.383 14.917 14.917 0 0 1-3.219-16.269 14.927 14.927 0 0 1 13.799-9.2v-22.743h.037v-.048h-22.803a14.898 14.898 0 0 0-7.8-13.1c-.121-.065-.249-.116-.371-.178a14.05 14.05 0 0 0-.924-.445 14.908 14.908 0 0 0-5.8-1.176h-.005a14.904 14.904 0 0 0-14.9 14.9h-22.7l-.029 22.842a14.925 14.925 0 0 1 14.79 14.942 14.928 14.928 0 0 1-14.822 14.911v22.744h-.039v.049h22.787l.004-.001ZM365.076 224.062a14.895 14.895 0 0 0-13.1 7.8c-.066.12-.117.248-.18.37-.154.3-.311.609-.444.924a14.854 14.854 0 0 0-1.176 5.8v.013a14.904 14.904 0 0 0 14.9 14.9v22.693l22.843.029a14.928 14.928 0 0 1 25.45-10.45 14.934 14.934 0 0 1 4.403 10.482h22.744v.037h.049v-22.793a14.902 14.902 0 0 0 13.1-7.8c.066-.12.117-.248.178-.371.155-.3.312-.607.446-.924a14.875 14.875 0 0 0 1.175-5.8v-.015a14.9 14.9 0 0 0-14.9-14.9v-22.7l-22.843-.03a14.93 14.93 0 0 1-9.228 13.78 14.914 14.914 0 0 1-11.424-.011 14.925 14.925 0 0 1-9.2-13.799h-22.744v-.037h-.049v22.802Z" stroke="#ECE5F5" stroke-miterlimit="10"/><path d="M365.237 299.355v-22.743h-.047v.037h-22.741a14.928 14.928 0 0 1-14.911 14.941 14.923 14.923 0 0 1-14.942-14.911l-22.842.031v22.692a14.9 14.9 0 0 0-14.9 14.9v.013a14.853 14.853 0 0 0 1.175 5.8c.134.317.29.62.445.925.062.122.113.25.178.371a14.898 14.898 0 0 0 13.101 7.8v22.791h.048v-.037h22.743a14.923 14.923 0 0 1 14.911-14.821 14.927 14.927 0 0 1 14.942 14.79l22.841.206v-22.932a14.9 14.9 0 0 0 14.901-14.9v-.016c0-1.992-.399-3.964-1.174-5.8-.134-.316-.293-.62-.447-.925-.062-.121-.112-.25-.177-.369a14.903 14.903 0 0 0-13.1-7.8l-.004-.043ZM365.237 148.508v-22.743h-.047v.037h-22.741a14.928 14.928 0 0 1-25.47 10.58 14.93 14.93 0 0 1-4.383-10.55l-22.842.03v22.695a14.892 14.892 0 0 0-10.536 4.364 14.892 14.892 0 0 0-4.364 10.536v.014a14.857 14.857 0 0 0 1.175 5.8c.134.317.29.62.445.925.062.122.113.25.178.37a14.903 14.903 0 0 0 13.101 7.8v22.793h.049v-.037h22.742a14.927 14.927 0 0 1 29.853-.031l22.843-.03v-22.699a14.9 14.9 0 0 0 14.899-14.9v-.015a14.887 14.887 0 0 0-1.173-5.8c-.134-.316-.292-.62-.446-.925-.062-.121-.114-.25-.179-.37a14.888 14.888 0 0 0-13.099-7.8l-.005-.044ZM214.17 374.972a14.9 14.9 0 0 0-13.1 7.8c-.066.12-.117.248-.18.37-.154.305-.311.608-.444.925a14.871 14.871 0 0 0-1.175 5.8v.014a14.9 14.9 0 0 0 14.9 14.9v22.691l22.843.03a14.928 14.928 0 0 1 25.45-10.451 14.926 14.926 0 0 1 4.403 10.481h22.742v.037h.049v-22.792a14.903 14.903 0 0 0 13.1-7.8c.065-.119.117-.248.179-.37.154-.3.311-.609.444-.925a14.858 14.858 0 0 0 1.176-5.8v-.013a14.896 14.896 0 0 0-14.9-14.9v-22.692l-22.842-.029a14.928 14.928 0 0 1-29.853-.032h-22.747v-.037h-.049v22.793h.004Z" stroke="#ECE5F5" stroke-miterlimit="10"/><path d="M266.995 503.081h22.743v-.049h-.033v-22.741a14.927 14.927 0 0 1-.03-29.853l-.03-22.842h-22.7a14.904 14.904 0 0 0-14.9-14.9h-.013a14.89 14.89 0 0 0-5.8 1.175c-.316.134-.62.291-.924.445-.123.063-.251.114-.371.179a14.898 14.898 0 0 0-7.8 13.1h-22.789v.047h.037v22.745a14.932 14.932 0 0 1 10.559 4.361 14.922 14.922 0 0 1-10.527 25.491l.029 22.843h22.692a14.896 14.896 0 0 0 14.9 14.9h.013a14.839 14.839 0 0 0 5.8-1.175c.315-.134.619-.29.924-.445.122-.061.25-.113.37-.178a14.895 14.895 0 0 0 7.8-13.1l.05-.003ZM161.621 276.707a14.896 14.896 0 0 0 7.8 13.1c.12.066.248.117.37.179.3.154.609.311.924.445a14.875 14.875 0 0 0 5.8 1.175h.013a14.9 14.9 0 0 0 14.9-14.9h22.693l.029-22.842a14.928 14.928 0 0 1-14.79-14.942 14.929 14.929 0 0 1 14.822-14.911v-22.742h.037v-.048h-22.792a14.905 14.905 0 0 0-7.8-13.1c-.12-.066-.248-.117-.371-.18-.3-.154-.608-.311-.924-.444a14.871 14.871 0 0 0-5.8-1.175h-.013a14.9 14.9 0 0 0-14.9 14.9h-22.692l-.03 22.843a14.926 14.926 0 1 1-.031 29.852v22.748h-.036v.048h22.791v-.006Z" stroke="#ECE5F5" stroke-miterlimit="10"/><path d="M214.17 224.062a14.9 14.9 0 0 0-13.1 7.8c-.066.12-.117.248-.18.37-.154.3-.311.609-.444.924a14.871 14.871 0 0 0-1.175 5.8v.013a14.9 14.9 0 0 0 14.9 14.9v22.693l22.843.029a14.93 14.93 0 0 1 14.943-14.79 14.926 14.926 0 0 1 14.91 14.822h22.742v.037h.049v-22.793a14.903 14.903 0 0 0 13.1-7.8c.065-.12.117-.248.179-.371.154-.3.311-.607.444-.924a14.858 14.858 0 0 0 1.176-5.8v-.015a14.896 14.896 0 0 0-14.9-14.9v-22.7l-22.842-.03a14.923 14.923 0 0 1-14.941 14.791 14.928 14.928 0 0 1-14.912-14.821h-22.747v-.037h-.049v22.792l.004.01Z" stroke="#ECE5F5" stroke-miterlimit="10"/><path d="M266.995 352.173h22.743v-.05h-.033V329.38a14.927 14.927 0 0 1-.03-29.853l-.03-22.842h-22.7a14.902 14.902 0 0 0-14.9-14.9h-.013a14.871 14.871 0 0 0-5.8 1.175c-.316.134-.62.291-.924.445-.123.062-.251.113-.371.179a14.898 14.898 0 0 0-7.8 13.1h-22.789v.049h.037v22.743a14.932 14.932 0 0 1 10.481 4.403 14.926 14.926 0 0 1-10.449 25.45l.029 22.843h22.692a14.896 14.896 0 0 0 14.9 14.9h.011a14.857 14.857 0 0 0 5.8-1.175c.315-.133.619-.29.924-.445.122-.062.25-.113.37-.179a14.903 14.903 0 0 0 7.8-13.1h.052Z" stroke="#ECE5F5" stroke-miterlimit="10"/><path d="M214.337 299.355v-22.743h-.048v.037h-22.752a14.923 14.923 0 0 1-14.911 14.941 14.926 14.926 0 0 1-14.941-14.911l-22.842.031v22.692a14.904 14.904 0 0 0-14.9 14.9v.013c0 1.993.399 3.965 1.175 5.8.134.317.29.62.445.925.062.122.114.25.179.371a14.898 14.898 0 0 0 13.1 7.8v22.791h.047v-.037h22.748a14.944 14.944 0 0 1 4.361-10.559 14.938 14.938 0 0 1 10.55-4.382 14.932 14.932 0 0 1 10.559 4.361 14.916 14.916 0 0 1 4.382 10.549l22.842-.03v-22.7a14.9 14.9 0 0 0 14.9-14.9v-.016a14.857 14.857 0 0 0-1.175-5.8c-.134-.316-.29-.62-.445-.925-.062-.121-.113-.25-.178-.369a14.9 14.9 0 0 0-13.1-7.8l.004-.039Z" stroke="#ECE5F5" stroke-miterlimit="10"/><path d="m365.019 73.11.037-18.83a11.343 11.343 0 1 1-22.687.206v-.384a14.892 14.892 0 0 0-14.794-14.984h-.21a15.143 15.143 0 0 0-15.119 15.17v.358a11.019 11.019 0 0 1-10.914 11.121h-.321a11.386 11.386 0 0 1-11.254-10.088l-.052 70.083h-.037v.049h22.793a14.896 14.896 0 0 0 7.8 13.1c.12.066.248.117.37.18.3.154.608.311.925.444a14.853 14.853 0 0 0 5.8 1.175h.014a14.9 14.9 0 0 0 14.9-14.9h22.7l.03-22.842a14.927 14.927 0 1 1 .03-29.854l-.011-.005ZM402.95 186.346a14.918 14.918 0 0 0-13.788 9.212 14.92 14.92 0 0 0 3.234 16.264 14.926 14.926 0 0 0 22.962-2.261 14.923 14.923 0 0 0-12.408-23.215Z" fill="#fff" stroke="#ECE5F5" stroke-miterlimit="10"/><path d="M304.519 148.659h-29.847v29.847h29.847v-29.847Z" fill="#FEFEFE" stroke="#ECE5F5" stroke-miterlimit="10"/><path d="M436.073 77.302h-75.49a14.902 14.902 0 0 0-13.1 7.8c-.066.119-.117.247-.18.37-.154.3-.311.609-.444.924a14.836 14.836 0 0 0-1.175 5.8v.013a14.898 14.898 0 0 0 14.9 14.9h22.692a14.919 14.919 0 0 0 14.804 15.041 14.923 14.923 0 0 0 15.042-14.804v-.237h22.951a14.902 14.902 0 0 0 13.1-7.8c.066-.12.117-.247.179-.37.154-.3.312-.61.445-.924a14.854 14.854 0 0 0 1.174-5.8v-.013a14.9 14.9 0 0 0-14.898-14.9Z" fill="#D1BFE6"/><path d="M440.483 72.888h-75.49a14.895 14.895 0 0 0-13.1 7.8c-.066.119-.117.247-.18.37-.154.3-.311.608-.444.924a14.837 14.837 0 0 0-1.175 5.8v.013a14.901 14.901 0 0 0 14.9 14.9h22.693a14.91 14.91 0 0 0 9.095 13.886 14.917 14.917 0 0 0 11.435.091 14.919 14.919 0 0 0 9.315-13.74v-.237h22.951a14.902 14.902 0 0 0 13.1-7.8c.066-.12.117-.248.179-.37.154-.3.312-.61.445-.925a14.835 14.835 0 0 0 1.174-5.8v-.013a14.898 14.898 0 0 0-14.898-14.9Z" fill="#fff" stroke="#D1BFE6" stroke-miterlimit="10"/><mask id="d" style="mask-type:alpha" maskUnits="userSpaceOnUse" x="350" y="72" width="106" height="46"><path d="M440.389 73h-75.49a14.899 14.899 0 0 0-13.1 7.8c-.066.118-.117.246-.18.37-.154.3-.311.608-.444.924a14.855 14.855 0 0 0-1.175 5.8v.012a14.901 14.901 0 0 0 14.9 14.901h22.693a14.926 14.926 0 0 0 14.804 15.07 14.919 14.919 0 0 0 13.868-9.123 14.918 14.918 0 0 0 1.173-5.71v-.237h22.951a14.9 14.9 0 0 0 13.1-7.8c.066-.12.117-.249.179-.37.154-.3.312-.61.445-.925a14.835 14.835 0 0 0 1.174-5.8v-.014A14.898 14.898 0 0 0 440.389 73Z" fill="#fff"/></mask><g mask="url(#d)"><path d="M320.07 79.401h150.855H320.07Z" fill="#fff"/><path d="M320.07 79.401h150.855" stroke="#D1BFE6" stroke-width=".7" stroke-miterlimit="10"/><path d="M320.07 86.908h150.855H320.07Z" fill="#fff"/><path d="M320.07 86.908h150.855" stroke="#D1BFE6" stroke-width=".7" stroke-miterlimit="10"/><path d="M320.07 94.418h150.855H320.07Z" fill="#fff"/><path d="M320.07 94.418h150.855" stroke="#D1BFE6" stroke-width=".7" stroke-miterlimit="10"/><path d="M320.07 101.928h150.855H320.07Z" fill="#fff"/><path d="M320.07 101.928h150.855" stroke="#D1BFE6" stroke-width=".7" stroke-miterlimit="10"/><path d="M318.799 109.438h150.593-150.593Z" fill="#fff"/><path d="M318.799 109.438h150.593" stroke="#D1BFE6" stroke-width=".7" stroke-miterlimit="10"/><path d="M318.799 116.948h146.493-146.493Z" fill="#fff"/><path d="M318.799 116.948h146.493" stroke="#D1BFE6" stroke-width=".7" stroke-miterlimit="10"/><path d="M356.367 28.438v148.769-148.77Z" fill="#fff"/><path d="M356.367 28.438v148.769" stroke="#D1BFE6" stroke-width=".7" stroke-miterlimit="10"/><path d="M363.879 28.438v148.769-148.77Z" fill="#fff"/><path d="M363.879 28.438v148.769" stroke="#D1BFE6" stroke-width=".7" stroke-miterlimit="10"/><path d="M371.387 28.438v148.769-148.77Z" fill="#fff"/><path d="M371.387 28.438v148.769" stroke="#D1BFE6" stroke-width=".7" stroke-miterlimit="10"/><path d="M378.898 38.39v138.817V38.391Z" fill="#fff"/><path d="M378.898 38.39v138.817" stroke="#D1BFE6" stroke-width=".7" stroke-miterlimit="10"/><path d="M386.408 28.438v148.769-148.77Z" fill="#fff"/><path d="M386.408 28.438v148.769" stroke="#D1BFE6" stroke-width=".7" stroke-miterlimit="10"/><path d="M393.918 38.39v146.328V38.391Z" fill="#fff"/><path d="M393.918 38.39v146.328" stroke="#D1BFE6" stroke-width=".7" stroke-miterlimit="10"/><path d="M401.428 28.438v156.278V28.437Z" fill="#fff"/><path d="M401.428 28.438v156.278" stroke="#D1BFE6" stroke-width=".7" stroke-miterlimit="10"/><path d="M408.938 34.235v142.971-142.97Z" fill="#fff"/><path d="M408.938 34.235v142.971" stroke="#D1BFE6" stroke-width=".7" stroke-miterlimit="10"/><path d="M416.447 41.655v135.551-135.55Z" fill="#fff"/><path d="M416.447 41.655v135.551" stroke="#D1BFE6" stroke-width=".7" stroke-miterlimit="10"/><path d="M423.959 41.655v135.551-135.55Z" fill="#fff"/><path d="M423.959 41.655v135.551" stroke="#D1BFE6" stroke-width=".7" stroke-miterlimit="10"/><path d="M431.469 28.438v148.769-148.77Z" fill="#fff"/><path d="M431.469 28.438v148.769" stroke="#D1BFE6" stroke-width=".7" stroke-miterlimit="10"/><path d="M438.979 28.438v148.769-148.77Z" fill="#fff"/><path d="M438.979 28.438v148.769" stroke="#D1BFE6" stroke-width=".7" stroke-miterlimit="10"/><path d="M446.488 28.438v148.769-148.77Z" fill="#fff"/><path d="M446.488 28.438v148.769" stroke="#D1BFE6" stroke-width=".7" stroke-miterlimit="10"/><path d="M453.998 28.438v148.769-148.77Z" fill="#fff"/><path d="M453.998 28.438v148.769" stroke="#D1BFE6" stroke-width=".7" stroke-miterlimit="10"/></g><path d="M323.121 5.656a37.525 37.525 0 0 0-37.605 37.446 11.326 11.326 0 0 0 3.306 8.027 11.335 11.335 0 0 0 8.014 3.335 10.951 10.951 0 0 0 11.2-10.693v-.669a15.047 15.047 0 0 1 4.366-10.725 15.043 15.043 0 0 1 10.689-4.453 15.054 15.054 0 0 1 15.056 15.178 11.292 11.292 0 0 0 6.939 10.53 11.298 11.298 0 0 0 8.69.004 11.287 11.287 0 0 0 6.95-10.524v-.01a37.53 37.53 0 0 0-37.609-37.446h.004Z" fill="#FFF04D"/><path d="M327.53 1.246a37.525 37.525 0 0 0-37.6 37.447 11.337 11.337 0 0 0 11.316 11.36 10.951 10.951 0 0 0 11.206-10.693v-.669a15.056 15.056 0 1 1 30.11 0 11.291 11.291 0 0 0 6.94 10.53 11.287 11.287 0 0 0 14.808-6.167c.562-1.382.844-2.861.831-4.353v-.01a37.53 37.53 0 0 0-37.606-37.445h-.005Z" fill="#fff" stroke="#FFF04D" stroke-miterlimit="10"/><path d="M22.76 393.796a14.923 14.923 0 0 1 14.924-14.92v-22.287A37.205 37.205 0 0 0 .48 393.796a37.206 37.206 0 0 0 37.2 37.209v-22.286a14.927 14.927 0 0 1-14.919-14.923Z" fill="#FFF04D"/><path d="M27.172 389.386a14.917 14.917 0 0 1 9.212-13.785 14.9 14.9 0 0 1 5.71-1.135v-22.287a37.207 37.207 0 0 0-.005 74.415v-22.285a14.927 14.927 0 0 1-14.917-14.923Z" fill="#fff" stroke="#FFF04D" stroke-miterlimit="10"/><path d="M66.237 99.885a14.921 14.921 0 0 1 14.924-14.92V62.678a37.206 37.206 0 0 0-37.206 37.206 37.203 37.203 0 0 0 22.962 34.377 37.2 37.2 0 0 0 14.238 2.832v-22.285a14.923 14.923 0 0 1-14.918-14.923Z" fill="#FFF04D"/><path d="M70.282 95.207a14.924 14.924 0 0 1 14.924-14.92V58A37.206 37.206 0 0 0 48 95.206a37.205 37.205 0 0 0 10.892 26.31A37.204 37.204 0 0 0 85.2 132.415v-22.281a14.926 14.926 0 0 1-14.918-14.927Z" fill="#fff" stroke="#FFF04D" stroke-miterlimit="10"/><mask id="e" style="mask-type:alpha" maskUnits="userSpaceOnUse" x="48" y="58" width="38" height="75"><path d="M70.282 95.207a14.924 14.924 0 0 1 14.924-14.92V58A37.206 37.206 0 0 0 48 95.206a37.205 37.205 0 0 0 10.892 26.31A37.204 37.204 0 0 0 85.2 132.415v-22.281a14.926 14.926 0 0 1-14.918-14.927Z" fill="#fff"/></mask><g mask="url(#e)"><path d="M7.313 61.433h150.855H7.312Z" fill="#fff"/><path d="M7.313 61.433h150.855" stroke="#FFF04D" stroke-width=".7" stroke-miterlimit="10"/><path d="M6.21 68.942h151.958H6.211Z" fill="#fff"/><path d="M6.21 68.942h151.958" stroke="#FFF04D" stroke-width=".7" stroke-miterlimit="10"/><path d="M7.313 76.452h150.855H7.312Z" fill="#fff"/><path d="M7.313 76.452h150.855" stroke="#FFF04D" stroke-width=".7" stroke-miterlimit="10"/><path d="M7.313 83.962h150.855H7.312Z" fill="#fff"/><path d="M7.313 83.962h150.855" stroke="#FFF04D" stroke-width=".7" stroke-miterlimit="10"/><path d="M7.313 91.473h150.855H7.312Z" fill="#fff"/><path d="M7.313 91.473h150.855" stroke="#FFF04D" stroke-width=".7" stroke-miterlimit="10"/><path d="M7.313 98.982h150.855H7.312Z" fill="#fff"/><path d="M7.313 98.982h150.855" stroke="#FFF04D" stroke-width=".7" stroke-miterlimit="10"/><path d="M6.037 106.492h150.6-150.6Z" fill="#fff"/><path d="M6.037 106.492h150.6" stroke="#FFF04D" stroke-width=".7" stroke-miterlimit="10"/><path d="M6.037 114.002h146.5-146.5Z" fill="#fff"/><path d="M6.037 114.002h146.5" stroke="#FFF04D" stroke-width=".7" stroke-miterlimit="10"/><path d="M7.313 121.513H148.89 7.313Z" fill="#fff"/><path d="M7.313 121.513H148.89" stroke="#FFF04D" stroke-width=".7" stroke-miterlimit="10"/><path d="M7.313 129.022h150.855H7.312Z" fill="#fff"/><path d="M7.313 129.022h150.855" stroke="#FFF04D" stroke-width=".7" stroke-miterlimit="10"/><path d="M51.121 25.492v148.769V25.492Z" fill="#fff"/><path d="M51.121 25.492v148.769" stroke="#FFF04D" stroke-width=".7" stroke-miterlimit="10"/><path d="M58.629 25.492v148.769V25.492Z" fill="#fff"/><path d="M58.629 25.492v148.769" stroke="#FFF04D" stroke-width=".7" stroke-miterlimit="10"/><path d="M66.137 35.445v138.816V35.445Z" fill="#fff"/><path d="M66.137 35.445v138.816" stroke="#FFF04D" stroke-width=".7" stroke-miterlimit="10"/><path d="M73.65 25.492v148.769V25.492Z" fill="#fff"/><path d="M73.65 25.492v148.769" stroke="#FFF04D" stroke-width=".7" stroke-miterlimit="10"/><path d="M81.16 35.445v146.327V35.445Z" fill="#fff"/><path d="M81.16 35.445v146.327" stroke="#FFF04D" stroke-width=".7" stroke-miterlimit="10"/></g><path d="M97.318 552.223a14.896 14.896 0 0 0 14.9-14.9V464.01a14.904 14.904 0 0 0-14.9-14.9 14.901 14.901 0 0 0-14.9 14.9v73.311a14.9 14.9 0 0 0 14.9 14.902Z" fill="#D1BFE6"/><path d="M101.728 547.813a14.9 14.9 0 0 0 14.9-14.9v-73.311a14.902 14.902 0 0 0-14.9-14.9 14.901 14.901 0 0 0-14.9 14.9v73.311a14.9 14.9 0 0 0 14.9 14.9Z" fill="#fff" stroke="#D1BFE6" stroke-miterlimit="10"/><path d="M233.053 527.849h-22.287a37.207 37.207 0 0 0 74.415-.006h-22.285a14.917 14.917 0 0 1-4.327 10.631 14.936 14.936 0 0 1-16.333 3.266 14.93 14.93 0 0 1-8.083-8.149 14.916 14.916 0 0 1-1.1-5.748v.006Z" fill="#FFF04D"/><path d="M237.463 523.439h-22.287a37.21 37.21 0 0 0 51.447 34.368 37.207 37.207 0 0 0 22.968-34.374h-22.285c0 3.958-1.572 7.753-4.371 10.551a14.917 14.917 0 0 1-21.102 0 14.92 14.92 0 0 1-4.37-10.551v.006Z" fill="#fff" stroke="#FFF04D" stroke-miterlimit="10"/><path d="M300.15 469.746a14.927 14.927 0 0 0 14.921 14.926v-29.846a14.925 14.925 0 0 0-14.921 14.92Z" fill="#FFF04D"/><path d="M304.561 465.336a14.922 14.922 0 0 0 14.921 14.926v-29.846a14.925 14.925 0 0 0-14.921 14.92Z" fill="#fff" stroke="#FFF04D" stroke-miterlimit="10"/><path d="M111.52 228.502a14.924 14.924 0 1 0 .004 29.846 14.924 14.924 0 0 0-.004-29.846Z" fill="#FFF04D"/><path d="M115.93 224.102a14.921 14.921 0 0 0-14.635 17.835 14.924 14.924 0 1 0 14.635-17.835Z" fill="#fff" stroke="#FFF04D" stroke-miterlimit="10"/><path d="M187.038 341.639h-29.847v29.847h29.847v-29.847Z" fill="#D1BFE6"/><path d="M191.449 337.228h-29.847v29.847h29.847v-29.847Z" fill="#fff" stroke="#D1BFE6" stroke-miterlimit="10"/><path d="M489.494 297.71a20.843 20.843 0 0 0-18.481 11.2 14.916 14.916 0 0 0-16.516-4.346 14.919 14.919 0 1 0 16.516 23.662 20.862 20.862 0 0 0 17.829 11.184 20.856 20.856 0 0 0 18.824-31.087 20.857 20.857 0 0 0-18.172-10.617v.004Z" fill="#FFF04D"/><path d="M493.904 293.302a20.843 20.843 0 0 0-18.481 11.2 14.916 14.916 0 0 0-16.516-4.346 14.923 14.923 0 0 0-9.774 14.004 14.92 14.92 0 0 0 18.715 14.428 14.922 14.922 0 0 0 7.575-4.77 20.852 20.852 0 0 0 17.829 11.184 20.856 20.856 0 0 0 21.509-20.521 20.856 20.856 0 0 0-20.857-21.183v.004Z" fill="#fff" stroke="#FFF04D" stroke-miterlimit="10"/><path d="M470.604 434.718a37.509 37.509 0 0 0-35.673-37.516 11.595 11.595 0 0 0-1.368-.09c-.069 0-.136.01-.2.01s-.136-.01-.2-.01c-.458.003-.915.033-1.369.09a37.56 37.56 0 0 0 0 75.031c.454.057.911.087 1.369.09.068 0 .135-.011.2-.011s.135.011.2.011c.457-.003.914-.033 1.368-.09a37.507 37.507 0 0 0 35.673-37.515Zm-36.146 15.018c-.3-.023-.593-.045-.894-.045v.1c-.07 0-.136.009-.2.01-.064.001-.136-.009-.2-.01v-.1c-.3 0-.6.022-.9.045a14.817 14.817 0 0 1-13.709-15.329 14.817 14.817 0 0 1 14.809-14.268 14.818 14.818 0 0 1 1.1 29.597h-.006Z" fill="#D1BFE6"/><path d="M475.498 430.605a37.508 37.508 0 0 0-35.677-37.515 11.385 11.385 0 0 0-1.368-.09c-.069 0-.136.01-.2.01s-.136-.01-.2-.01c-.458.002-.915.033-1.369.09a37.563 37.563 0 0 0 0 75.03c.454.058.911.088 1.369.091.068 0 .135-.011.2-.011s.135.011.2.011c.457-.003.914-.033 1.368-.091a37.503 37.503 0 0 0 35.677-37.515Zm-36.146 15.017c-.3-.022-.593-.044-.894-.044v.1c-.069 0-.136.009-.2.01-.064.001-.136-.009-.2-.01v-.1c-.3 0-.6.022-.895.044a14.82 14.82 0 0 1 1.1-29.597 14.82 14.82 0 0 1 1.1 29.597h-.011Z" fill="#fff" stroke="#D1BFE6" stroke-miterlimit="10"/><mask id="f" style="mask-type:alpha" maskUnits="userSpaceOnUse" x="401" y="393" width="75" height="76"><path d="M475.498 430.605a37.508 37.508 0 0 0-35.677-37.515 11.385 11.385 0 0 0-1.368-.09c-.069 0-.136.01-.2.01s-.136-.01-.2-.01c-.458.002-.915.033-1.369.09a37.563 37.563 0 0 0 0 75.03c.454.058.911.088 1.369.091.068 0 .135-.011.2-.011s.135.011.2.011c.457-.003.914-.033 1.368-.091a37.503 37.503 0 0 0 35.677-37.515Zm-36.146 15.017c-.3-.022-.593-.044-.894-.044v.1c-.069 0-.136.009-.2.01-.064.001-.136-.009-.2-.01v-.1c-.3 0-.6.022-.895.044a14.82 14.82 0 0 1 1.1-29.597 14.82 14.82 0 0 1 1.1 29.597h-.011Z" fill="#fff"/></mask><g mask="url(#f)"><path d="M369.926 392.81h150.855-150.855Z" fill="#fff"/><path d="M369.926 392.81h150.855" stroke="#D1BFE6" stroke-width=".7" stroke-miterlimit="10"/><path d="M369.926 400.32h150.855-150.855Z" fill="#fff"/><path d="M369.926 400.32h150.855" stroke="#D1BFE6" stroke-width=".7" stroke-miterlimit="10"/><path d="M368.822 407.83h151.957-151.957Z" fill="#fff"/><path d="M368.822 407.83h151.957" stroke="#D1BFE6" stroke-width=".7" stroke-miterlimit="10"/><path d="M369.926 415.34h150.855-150.855Z" fill="#fff"/><path d="M369.926 415.34h150.855" stroke="#D1BFE6" stroke-width=".7" stroke-miterlimit="10"/><path d="M369.926 422.85h150.855-150.855Z" fill="#fff"/><path d="M369.926 422.85h150.855" stroke="#D1BFE6" stroke-width=".7" stroke-miterlimit="10"/><path d="M369.926 430.36h150.855-150.855Z" fill="#fff"/><path d="M369.926 430.36h150.855" stroke="#D1BFE6" stroke-width=".7" stroke-miterlimit="10"/><path d="M369.926 437.87h150.855-150.855Z" fill="#fff"/><path d="M369.926 437.87h150.855" stroke="#D1BFE6" stroke-width=".7" stroke-miterlimit="10"/><path d="M368.652 445.38h150.594-150.594Z" fill="#fff"/><path d="M368.652 445.38h150.594" stroke="#D1BFE6" stroke-width=".7" stroke-miterlimit="10"/><path d="M368.652 452.89h146.493-146.493Z" fill="#fff"/><path d="M368.652 452.89h146.493" stroke="#D1BFE6" stroke-width=".7" stroke-miterlimit="10"/><path d="M369.926 460.402h141.578-141.578Z" fill="#fff"/><path d="M369.926 460.402h141.578" stroke="#D1BFE6" stroke-width=".7" stroke-miterlimit="10"/><path d="M369.926 467.91h150.855-150.855Z" fill="#fff"/><path d="M369.926 467.91h150.855" stroke="#D1BFE6" stroke-width=".7" stroke-miterlimit="10"/><path d="M406.223 364.38v148.769V364.38Z" fill="#fff"/><path d="M406.223 364.38v148.769" stroke="#D1BFE6" stroke-width=".7" stroke-miterlimit="10"/><path d="M413.738 364.38v148.769V364.38Z" fill="#fff"/><path d="M413.738 364.38v148.769" stroke="#D1BFE6" stroke-width=".7" stroke-miterlimit="10"/><path d="M421.242 364.38v148.769V364.38Z" fill="#fff"/><path d="M421.242 364.38v148.769" stroke="#D1BFE6" stroke-width=".7" stroke-miterlimit="10"/><path d="M428.754 374.334v138.815-138.815Z" fill="#fff"/><path d="M428.754 374.334v138.815" stroke="#D1BFE6" stroke-width=".7" stroke-miterlimit="10"/><path d="M436.264 364.38v148.769V364.38Z" fill="#fff"/><path d="M436.264 364.38v148.769" stroke="#D1BFE6" stroke-width=".7" stroke-miterlimit="10"/><path d="M443.773 374.334V520.66 374.334Z" fill="#fff"/><path d="M443.773 374.334V520.66" stroke="#D1BFE6" stroke-width=".7" stroke-miterlimit="10"/><path d="M451.283 364.38v156.279V364.38Z" fill="#fff"/><path d="M451.283 364.38v156.279" stroke="#D1BFE6" stroke-width=".7" stroke-miterlimit="10"/><path d="M458.793 370.178v142.971-142.971Z" fill="#fff"/><path d="M458.793 370.178v142.971" stroke="#D1BFE6" stroke-width=".7" stroke-miterlimit="10"/><path d="M466.303 377.602v135.547-135.547Z" fill="#fff"/><path d="M466.303 377.602v135.547" stroke="#D1BFE6" stroke-width=".7" stroke-miterlimit="10"/><path d="M473.814 377.602v135.547-135.547Z" fill="#fff"/><path d="M473.814 377.602v135.547" stroke="#D1BFE6" stroke-width=".7" stroke-miterlimit="10"/></g><defs><linearGradient id="b" x1="291.491" y1="141.384" x2="291.945" y2="420.049" gradientUnits="userSpaceOnUse"><stop offset=".205" stop-color="#E9DEFA"/><stop offset=".625" stop-color="#FBFCDB"/><stop offset=".875" stop-color="#E9DEFA"/></linearGradient><linearGradient id="c" x1="375.43" y1="141.384" x2="375.885" y2="420.049" gradientUnits="userSpaceOnUse"><stop offset=".205" stop-color="#E9DEFA"/><stop offset=".625" stop-color="#FBFCDB"/><stop offset=".875" stop-color="#E9DEFA"/></linearGradient><filter id="a" x="32.359" y="23.105" width="439.113" height="510.882" filterUnits="userSpaceOnUse" color-interpolation-filters="sRGB"><feFlood flood-opacity="0" result="BackgroundImageFix"/><feColorMatrix in="SourceAlpha" values="0 0 0 0 0 0 0 0 0 0 0 0 0 0 0 0 0 0 127 0" result="hardAlpha"/><feOffset/><feGaussianBlur stdDeviation="8"/><feColorMatrix values="0 0 0 0 0.0392157 0 0 0 0 0.0392157 0 0 0 0 0.0392157 0 0 0 0.102 0"/><feBlend in2="BackgroundImageFix" result="effect1_dropShadow_3298_201299"/><feBlend in="SourceGraphic" in2="effect1_dropShadow_3298_201299" result="shape"/></filter></defs></svg>