<svg width="516" height="566" fill="none" xmlns="http://www.w3.org/2000/svg"><g filter="url(#a)"><g filter="url(#b)"><mask id="c" fill="#fff"><path d="M252.235 517.987a14.9 14.9 0 0 1-14.9-14.901h-22.7l-.028-22.845a14.927 14.927 0 0 0 10.252-25.759 14.922 14.922 0 0 0-10.284-4.091v-22.745h-.038v-.048l.3-.121h-.474v-22.7a14.9 14.9 0 0 1-14.9-14.901v-.014a14.87 14.87 0 0 1 1.174-5.8c.135-.314.291-.619.447-.924.062-.122.111-.25.177-.371a14.903 14.903 0 0 1 13.1-7.801v-22.794h.052v.038l.225-.044-.111-.27-22.842.027a14.925 14.925 0 0 0-4.426-10.471 14.922 14.922 0 0 0-21.024.022 14.926 14.926 0 0 0-4.403 10.481h-22.746v.038h-.045l-.277-.157v.022a37.564 37.564 0 0 1 0-75.124h.014v.966l.263-1h-.017v-.048h.035v-22.749a14.923 14.923 0 0 0 13.81-20.622 14.923 14.923 0 0 0-13.779-9.228l.031-22.845h22.691a14.898 14.898 0 0 1 14.9-14.9h.014a14.802 14.802 0 0 1 5.8 1.174c.315.131.62.289.924.442.125.062.253.115.37.181l.114.062a14.898 14.898 0 0 1 5.623 5.47 14.895 14.895 0 0 1 2.06 7.57h22.795v.083h.229l-.028-22.82a14.925 14.925 0 0 0-.031-29.851v-22.748h-.038v-.048h22.788a14.898 14.898 0 0 1 7.8-13.1c.121-.065.249-.118.37-.181.3-.152.609-.311.924-.442a14.835 14.835 0 0 1 5.8-1.178h.014a14.907 14.907 0 0 1 14.9 14.906h22.7l.094.021v-.045h22.721v-.011h-22.797v-.048h.038l.052-70.083a11.383 11.383 0 0 0 11.253 10.089h.322a11.009 11.009 0 0 0 10.914-11.118v-.36a15.134 15.134 0 0 1 4.418-10.716 15.144 15.144 0 0 1 10.703-4.452h.208a14.887 14.887 0 0 1 14.8 14.981v.39a11.344 11.344 0 0 0 22.686.033l-.035 18.59a14.926 14.926 0 1 0-.028 29.854l-.031 22.838h.235v-.035h.045v.038l21.574-.042a14.923 14.923 0 0 0 29.846 0l23.894.074.031 22.841a14.929 14.929 0 0 0-10.531 25.492 14.928 14.928 0 0 0 10.559 4.362L440.769 224v.052a14.9 14.9 0 0 1 14.9 14.9v.017c0 1.993-.399 3.965-1.174 5.8-.135.314-.291.619-.447.924-.062.121-.114.25-.177.371a14.903 14.903 0 0 1-13.1 7.8v.049l.014 45.61a14.927 14.927 0 1 0 .028 29.853c0 6.338.059 20.864.059 22.826a37.707 37.707 0 0 1-75.412 0v-.018h.115l-.128-.283-.152 23.02a14.934 14.934 0 0 0-13.801 9.202 14.921 14.921 0 0 0 3.219 16.27 14.922 14.922 0 0 0 10.551 4.383l-.031 22.842h-22.7a14.902 14.902 0 0 1-14.906 14.9h-.014a14.893 14.893 0 0 1-5.8-1.179c-.315-.132-.62-.29-.921-.442-.125-.062-.253-.115-.374-.181a14.888 14.888 0 0 1-7.8-13.099h-22.784v-.024h-.1l.028 22.845a14.926 14.926 0 0 0-13.768 20.65 14.914 14.914 0 0 0 3.241 4.839 14.906 14.906 0 0 0 10.558 4.361v22.742h.035v.052h-22.791a14.912 14.912 0 0 1-7.8 13.105c-.118.062-.246.114-.37.176a11.7 11.7 0 0 1-.924.443 14.86 14.86 0 0 1-5.8 1.178l-.008.003ZM327.73 291.59a14.928 14.928 0 0 0 14.913-14.939h22.679v-.087h-.052v-22.7a14.9 14.9 0 0 1-14.9-14.901v-.013a14.798 14.798 0 0 1 1.177-5.8c.131-.315.287-.62.443-.925.062-.121.114-.249.18-.37a14.903 14.903 0 0 1 13.1-7.8v-.049l-.007-22.956-22.672.031a14.871 14.871 0 0 0-4.255-10.422l-.021-.021-.1-.1a14.925 14.925 0 0 0-25.47 10.581h-3.272l-19.469.021v.014h-.048v-.014h-.1v22.921a14.904 14.904 0 0 1 14.9 14.899v.018a14.91 14.91 0 0 1-1.177 5.8c-.132.314-.291.619-.443.924-.062.121-.114.25-.18.371a14.903 14.903 0 0 1-13.1 7.8v22.799h-.048v-.037h-.014v.059h.048v.099h.111v-.075l22.842-.031a14.92 14.92 0 0 0 14.935 14.903Zm14.726-165.774h.187v-.01h-.187v.01ZM138.895 427.572v-.038H116.15a14.929 14.929 0 0 0-14.911-14.822 14.925 14.925 0 0 0-14.942 14.79l-22.842-.026v-22.7a14.901 14.901 0 0 1-14.9-14.901v-.014c0-1.993.4-3.965 1.177-5.8.132-.314.287-.619.443-.924.062-.122.114-.25.18-.371a14.892 14.892 0 0 1 13.1-7.801v-22.794h.048v.038h22.74a14.928 14.928 0 0 0 29.854.032l22.845.028v22.7a14.9 14.9 0 0 1 14.9 14.9v.013a14.821 14.821 0 0 1-1.174 5.801c-.132.315-.291.62-.443.925-.062.121-.114.253-.18.37a14.903 14.903 0 0 1-13.1 7.8v22.794h-.05Zm52.646-294.401v-.038h-22.744a14.927 14.927 0 0 0-14.91-14.94 14.927 14.927 0 0 0-14.94 14.91l-22.845-.028v-22.7a14.897 14.897 0 0 1-14.9-14.9v-.015a14.8 14.8 0 0 1 1.177-5.8c.132-.314.287-.62.443-.924.062-.121.114-.25.18-.37a14.897 14.897 0 0 1 13.1-7.8V57.773h.048v.038h22.745a14.925 14.925 0 0 0 25.427 10.503 14.928 14.928 0 0 0 4.426-10.473l22.842.028v22.7a14.903 14.903 0 0 1 14.9 14.9v.014a14.949 14.949 0 0 1-1.174 5.8c-.135.318-.294.619-.447.924-.062.121-.114.25-.177.371a14.9 14.9 0 0 1-13.105 7.799v22.794h-.046Z"/></mask><path d="M252.235 517.987a14.9 14.9 0 0 1-14.9-14.901h-22.7l-.028-22.845a14.927 14.927 0 0 0 10.252-25.759 14.922 14.922 0 0 0-10.284-4.091v-22.745h-.038v-.048l.3-.121h-.474v-22.7a14.9 14.9 0 0 1-14.9-14.901v-.014a14.87 14.87 0 0 1 1.174-5.8c.135-.314.291-.619.447-.924.062-.122.111-.25.177-.371a14.903 14.903 0 0 1 13.1-7.801v-22.794h.052v.038l.225-.044-.111-.27-22.842.027a14.925 14.925 0 0 0-4.426-10.471 14.922 14.922 0 0 0-21.024.022 14.926 14.926 0 0 0-4.403 10.481h-22.746v.038h-.045l-.277-.157v.022a37.564 37.564 0 0 1 0-75.124h.014v.966l.263-1h-.017v-.048h.035v-22.749a14.923 14.923 0 0 0 13.81-20.622 14.923 14.923 0 0 0-13.779-9.228l.031-22.845h22.691a14.898 14.898 0 0 1 14.9-14.9h.014a14.802 14.802 0 0 1 5.8 1.174c.315.131.62.289.924.442.125.062.253.115.37.181l.114.062a14.898 14.898 0 0 1 5.623 5.47 14.895 14.895 0 0 1 2.06 7.57h22.795v.083h.229l-.028-22.82a14.925 14.925 0 0 0-.031-29.851v-22.748h-.038v-.048h22.788a14.898 14.898 0 0 1 7.8-13.1c.121-.065.249-.118.37-.181.3-.152.609-.311.924-.442a14.835 14.835 0 0 1 5.8-1.178h.014a14.907 14.907 0 0 1 14.9 14.906h22.7l.094.021v-.045h22.721v-.011h-22.797v-.048h.038l.052-70.083a11.383 11.383 0 0 0 11.253 10.089h.322a11.009 11.009 0 0 0 10.914-11.118v-.36a15.134 15.134 0 0 1 4.418-10.716 15.144 15.144 0 0 1 10.703-4.452h.208a14.887 14.887 0 0 1 14.8 14.981v.39a11.344 11.344 0 0 0 22.686.033l-.035 18.59a14.926 14.926 0 1 0-.028 29.854l-.031 22.838h.235v-.035h.045v.038l21.574-.042a14.923 14.923 0 0 0 29.846 0l23.894.074.031 22.841a14.929 14.929 0 0 0-10.531 25.492 14.928 14.928 0 0 0 10.559 4.362L440.769 224v.052a14.9 14.9 0 0 1 14.9 14.9v.017c0 1.993-.399 3.965-1.174 5.8-.135.314-.291.619-.447.924-.062.121-.114.25-.177.371a14.903 14.903 0 0 1-13.1 7.8v.049l.014 45.61a14.927 14.927 0 1 0 .028 29.853c0 6.338.059 20.864.059 22.826a37.707 37.707 0 0 1-75.412 0v-.018h.115l-.128-.283-.152 23.02a14.934 14.934 0 0 0-13.801 9.202 14.921 14.921 0 0 0 3.219 16.27 14.922 14.922 0 0 0 10.551 4.383l-.031 22.842h-22.7a14.902 14.902 0 0 1-14.906 14.9h-.014a14.893 14.893 0 0 1-5.8-1.179c-.315-.132-.62-.29-.921-.442-.125-.062-.253-.115-.374-.181a14.888 14.888 0 0 1-7.8-13.099h-22.784v-.024h-.1l.028 22.845a14.926 14.926 0 0 0-13.768 20.65 14.914 14.914 0 0 0 3.241 4.839 14.906 14.906 0 0 0 10.558 4.361v22.742h.035v.052h-22.791a14.912 14.912 0 0 1-7.8 13.105c-.118.062-.246.114-.37.176a11.7 11.7 0 0 1-.924.443 14.86 14.86 0 0 1-5.8 1.178l-.008.003ZM327.73 291.59a14.928 14.928 0 0 0 14.913-14.939h22.679v-.087h-.052v-22.7a14.9 14.9 0 0 1-14.9-14.901v-.013a14.798 14.798 0 0 1 1.177-5.8c.131-.315.287-.62.443-.925.062-.121.114-.249.18-.37a14.903 14.903 0 0 1 13.1-7.8v-.049l-.007-22.956-22.672.031a14.871 14.871 0 0 0-4.255-10.422l-.021-.021-.1-.1a14.925 14.925 0 0 0-25.47 10.581h-3.272l-19.469.021v.014h-.048v-.014h-.1v22.921a14.904 14.904 0 0 1 14.9 14.899v.018a14.91 14.91 0 0 1-1.177 5.8c-.132.314-.291.619-.443.924-.062.121-.114.25-.18.371a14.903 14.903 0 0 1-13.1 7.8v22.799h-.048v-.037h-.014v.059h.048v.099h.111v-.075l22.842-.031a14.92 14.92 0 0 0 14.935 14.903Zm14.726-165.774h.187v-.01h-.187v.01ZM138.895 427.572v-.038H116.15a14.929 14.929 0 0 0-14.911-14.822 14.925 14.925 0 0 0-14.942 14.79l-22.842-.026v-22.7a14.901 14.901 0 0 1-14.9-14.901v-.014c0-1.993.4-3.965 1.177-5.8.132-.314.287-.619.443-.924.062-.122.114-.25.18-.371a14.892 14.892 0 0 1 13.1-7.801v-22.794h.048v.038h22.74a14.928 14.928 0 0 0 29.854.032l22.845.028v22.7a14.9 14.9 0 0 1 14.9 14.9v.013a14.821 14.821 0 0 1-1.174 5.801c-.132.315-.291.62-.443.925-.062.121-.114.253-.18.37a14.903 14.903 0 0 1-13.1 7.8v22.794h-.05Zm52.646-294.401v-.038h-22.744a14.927 14.927 0 0 0-14.91-14.94 14.927 14.927 0 0 0-14.94 14.91l-22.845-.028v-22.7a14.897 14.897 0 0 1-14.9-14.9v-.015a14.8 14.8 0 0 1 1.177-5.8c.132-.314.287-.62.443-.924.062-.121.114-.25.18-.37a14.897 14.897 0 0 1 13.1-7.8V57.773h.048v.038h22.745a14.925 14.925 0 0 0 25.427 10.503 14.928 14.928 0 0 0 4.426-10.473l22.842.028v22.7a14.903 14.903 0 0 1 14.9 14.9v.014a14.949 14.949 0 0 1-1.174 5.8c-.135.318-.294.619-.447.924-.062.121-.114.25-.177.371a14.9 14.9 0 0 1-13.105 7.799v22.794h-.046Z" fill="#2A2D36"/><path d="M252.235 517.987a14.9 14.9 0 0 1-14.9-14.901h-22.7l-.028-22.845a14.927 14.927 0 0 0 10.252-25.759 14.922 14.922 0 0 0-10.284-4.091v-22.745h-.038v-.048l.3-.121h-.474v-22.7a14.9 14.9 0 0 1-14.9-14.901v-.014a14.87 14.87 0 0 1 1.174-5.8c.135-.314.291-.619.447-.924.062-.122.111-.25.177-.371a14.903 14.903 0 0 1 13.1-7.801v-22.794h.052v.038l.225-.044-.111-.27-22.842.027a14.925 14.925 0 0 0-4.426-10.471 14.922 14.922 0 0 0-21.024.022 14.926 14.926 0 0 0-4.403 10.481h-22.746v.038h-.045l-.277-.157v.022a37.564 37.564 0 0 1 0-75.124h.014v.966l.263-1h-.017v-.048h.035v-22.749a14.923 14.923 0 0 0 13.81-20.622 14.923 14.923 0 0 0-13.779-9.228l.031-22.845h22.691a14.898 14.898 0 0 1 14.9-14.9h.014a14.802 14.802 0 0 1 5.8 1.174c.315.131.62.289.924.442.125.062.253.115.37.181l.114.062a14.898 14.898 0 0 1 5.623 5.47 14.895 14.895 0 0 1 2.06 7.57h22.795v.083h.229l-.028-22.82a14.925 14.925 0 0 0-.031-29.851v-22.748h-.038v-.048h22.788a14.898 14.898 0 0 1 7.8-13.1c.121-.065.249-.118.37-.181.3-.152.609-.311.924-.442a14.835 14.835 0 0 1 5.8-1.178h.014a14.907 14.907 0 0 1 14.9 14.906h22.7l.094.021v-.045h22.721v-.011h-22.797v-.048h.038l.052-70.083a11.383 11.383 0 0 0 11.253 10.089h.322a11.009 11.009 0 0 0 10.914-11.118v-.36a15.134 15.134 0 0 1 4.418-10.716 15.144 15.144 0 0 1 10.703-4.452h.208a14.887 14.887 0 0 1 14.8 14.981v.39a11.344 11.344 0 0 0 22.686.033l-.035 18.59a14.926 14.926 0 1 0-.028 29.854l-.031 22.838h.235v-.035h.045v.038l21.574-.042a14.923 14.923 0 0 0 29.846 0l23.894.074.031 22.841a14.929 14.929 0 0 0-10.531 25.492 14.928 14.928 0 0 0 10.559 4.362L440.769 224v.052a14.9 14.9 0 0 1 14.9 14.9v.017c0 1.993-.399 3.965-1.174 5.8-.135.314-.291.619-.447.924-.062.121-.114.25-.177.371a14.903 14.903 0 0 1-13.1 7.8v.049l.014 45.61a14.927 14.927 0 1 0 .028 29.853c0 6.338.059 20.864.059 22.826a37.707 37.707 0 0 1-75.412 0v-.018h.115l-.128-.283-.152 23.02a14.934 14.934 0 0 0-13.801 9.202 14.921 14.921 0 0 0 3.219 16.27 14.922 14.922 0 0 0 10.551 4.383l-.031 22.842h-22.7a14.902 14.902 0 0 1-14.906 14.9h-.014a14.893 14.893 0 0 1-5.8-1.179c-.315-.132-.62-.29-.921-.442-.125-.062-.253-.115-.374-.181a14.888 14.888 0 0 1-7.8-13.099h-22.784v-.024h-.1l.028 22.845a14.926 14.926 0 0 0-13.768 20.65 14.914 14.914 0 0 0 3.241 4.839 14.906 14.906 0 0 0 10.558 4.361v22.742h.035v.052h-22.791a14.912 14.912 0 0 1-7.8 13.105c-.118.062-.246.114-.37.176a11.7 11.7 0 0 1-.924.443 14.86 14.86 0 0 1-5.8 1.178l-.008.003ZM327.73 291.59a14.928 14.928 0 0 0 14.913-14.939h22.679v-.087h-.052v-22.7a14.9 14.9 0 0 1-14.9-14.901v-.013a14.798 14.798 0 0 1 1.177-5.8c.131-.315.287-.62.443-.925.062-.121.114-.249.18-.37a14.903 14.903 0 0 1 13.1-7.8v-.049l-.007-22.956-22.672.031a14.871 14.871 0 0 0-4.255-10.422l-.021-.021-.1-.1a14.925 14.925 0 0 0-25.47 10.581h-3.272l-19.469.021v.014h-.048v-.014h-.1v22.921a14.904 14.904 0 0 1 14.9 14.899v.018a14.91 14.91 0 0 1-1.177 5.8c-.132.314-.291.619-.443.924-.062.121-.114.25-.18.371a14.903 14.903 0 0 1-13.1 7.8v22.799h-.048v-.037h-.014v.059h.048v.099h.111v-.075l22.842-.031a14.92 14.92 0 0 0 14.935 14.903Zm14.726-165.774h.187v-.01h-.187v.01ZM138.895 427.572v-.038H116.15a14.929 14.929 0 0 0-14.911-14.822 14.925 14.925 0 0 0-14.942 14.79l-22.842-.026v-22.7a14.901 14.901 0 0 1-14.9-14.901v-.014c0-1.993.4-3.965 1.177-5.8.132-.314.287-.619.443-.924.062-.122.114-.25.18-.371a14.892 14.892 0 0 1 13.1-7.801v-22.794h.048v.038h22.74a14.928 14.928 0 0 0 29.854.032l22.845.028v22.7a14.9 14.9 0 0 1 14.9 14.9v.013a14.821 14.821 0 0 1-1.174 5.801c-.132.315-.291.62-.443.925-.062.121-.114.253-.18.37a14.903 14.903 0 0 1-13.1 7.8v22.794h-.05Zm52.646-294.401v-.038h-22.744a14.927 14.927 0 0 0-14.91-14.94 14.927 14.927 0 0 0-14.94 14.91l-22.845-.028v-22.7a14.897 14.897 0 0 1-14.9-14.9v-.015a14.8 14.8 0 0 1 1.177-5.8c.132-.314.287-.62.443-.924.062-.121.114-.25.18-.37a14.897 14.897 0 0 1 13.1-7.8V57.773h.048v.038h22.745a14.925 14.925 0 0 0 25.427 10.503 14.928 14.928 0 0 0 4.426-10.473l22.842.028v22.7a14.903 14.903 0 0 1 14.9 14.9v.014a14.949 14.949 0 0 1-1.174 5.8c-.135.318-.294.619-.447.924-.062.121-.114.25-.177.371a14.9 14.9 0 0 1-13.105 7.799v22.794h-.046Z" stroke="#292D36" stroke-width="2" mask="url(#c)"/></g></g><path fill-rule="evenodd" clip-rule="evenodd" d="M290.062 134.092v199.677l-84.082-53.577 84.082-146.1Zm.14 217.119v69.21L205.98 297.489l84.222 53.722Z" fill="url(#d)"/><path opacity=".68" fill-rule="evenodd" clip-rule="evenodd" d="m365.504 265.177 8.641 15.015-84.083 53.582V134.092l30.866 53.631a14.896 14.896 0 0 0-7.944 13.177h-22.693l-.029 22.842a14.922 14.922 0 0 1 10.551 4.383 14.932 14.932 0 0 1-.022 21.11 14.93 14.93 0 0 1-10.56 4.361v22.744h-.037v.048h22.794a14.902 14.902 0 0 0 7.8 13.1c.069.037.141.07.213.104.053.024.106.049.158.075.3.155.608.311.923.445a14.875 14.875 0 0 0 5.8 1.175h.013a14.9 14.9 0 0 0 14.9-14.9h22.694l.015-11.21Zm-8.072-14.025-6.807-11.827a14.922 14.922 0 0 0 6.807 11.827Zm-67.37 169.269v-69.21l84.083-53.722-84.083 122.932Z" fill="url(#e)"/><path d="M63.458 374.972a14.9 14.9 0 0 0-13.1 7.8c-.066.12-.117.248-.18.37-.154.305-.311.608-.444.925a14.853 14.853 0 0 0-1.175 5.8v.014a14.903 14.903 0 0 0 14.9 14.9v22.691l22.842.03a14.929 14.929 0 0 1 20.653-13.77 14.938 14.938 0 0 1 8.07 8.086 14.934 14.934 0 0 1 1.131 5.714h22.743v.037h.049v-22.792a14.902 14.902 0 0 0 13.1-7.8c.065-.119.116-.248.179-.37.154-.3.311-.609.444-.925a14.875 14.875 0 0 0 1.175-5.8v-.013a14.897 14.897 0 0 0-14.9-14.9v-22.692l-22.842-.029a14.927 14.927 0 0 1-29.854-.032H63.507v-.037h-.05v22.793ZM116.106 80.575a14.899 14.899 0 0 0-13.1 7.8c-.065.12-.117.248-.179.37-.155.3-.311.609-.445.924a14.873 14.873 0 0 0-1.175 5.8v.013a14.903 14.903 0 0 0 14.9 14.9v22.694l22.844.029a14.926 14.926 0 1 1 29.852.032h22.744v.037h.048v-22.793a14.9 14.9 0 0 0 13.1-7.8c.064-.12.116-.248.178-.371.154-.3.311-.607.445-.923a14.914 14.914 0 0 0 1.176-5.8v-.016a14.896 14.896 0 0 0-9.198-13.766 14.9 14.9 0 0 0-5.702-1.134V57.878l-22.842-.03a14.927 14.927 0 1 1-29.854-.03h-22.744v-.037h-.048v22.794ZM138.789 299.874l-.007-23.131h-.016a37.562 37.562 0 0 0 0 75.125M312.725 427.618a14.902 14.902 0 0 0 7.8 13.1c.12.066.248.117.371.179.3.155.607.311.923.445a14.835 14.835 0 0 0 5.8 1.175h.013a14.889 14.889 0 0 0 10.54-4.361 14.903 14.903 0 0 0 4.367-10.539h22.7l.03-22.844a14.922 14.922 0 0 1-13.781-9.228 14.932 14.932 0 0 1 3.253-16.263 14.93 14.93 0 0 1 10.559-4.361v-22.743h.037v-.048h-22.803a14.902 14.902 0 0 0-7.8-13.1c-.121-.065-.249-.116-.371-.178a14.05 14.05 0 0 0-.924-.445 14.934 14.934 0 0 0-5.8-1.176h-.005a14.897 14.897 0 0 0-14.9 14.9h-22.7l-.029 22.842a14.929 14.929 0 0 1 10.449 25.45 14.923 14.923 0 0 1-10.481 4.403v22.744h-.039v.049h22.787l.004-.001ZM365.271 224.062a14.898 14.898 0 0 0-13.1 7.8c-.066.12-.117.248-.18.37-.154.3-.311.609-.444.924a14.89 14.89 0 0 0-1.176 5.8v.013a14.904 14.904 0 0 0 14.9 14.9v22.693l22.843.029a14.925 14.925 0 0 1 14.942-14.79 14.928 14.928 0 0 1 14.911 14.822h22.744v.037h.049v-22.793a14.9 14.9 0 0 0 13.1-7.8c.066-.12.117-.248.178-.371.155-.3.312-.607.446-.924a14.875 14.875 0 0 0 1.175-5.8v-.015a14.9 14.9 0 0 0-14.9-14.9v-22.7l-22.843-.03a14.93 14.93 0 0 1-9.228 13.78 14.91 14.91 0 0 1-11.424-.011 14.925 14.925 0 0 1-9.2-13.799H365.32v-.037h-.049v22.802Z" stroke="#454A59" stroke-miterlimit="10"/><path d="M365.432 299.355v-22.743h-.047v.037h-22.741a14.925 14.925 0 0 1-29.852.03l-22.843.031v22.692a14.9 14.9 0 0 0-14.9 14.9v.013a14.875 14.875 0 0 0 1.175 5.8c.134.317.29.62.445.925.062.122.114.25.179.371a14.903 14.903 0 0 0 13.1 7.8v22.791h.048v-.037h22.743a14.926 14.926 0 0 1 25.427-10.503 14.925 14.925 0 0 1 4.426 10.472l22.842.206v-22.932a14.902 14.902 0 0 0 14.9-14.9v-.016c0-1.993-.399-3.965-1.174-5.8-.134-.316-.292-.62-.446-.925-.062-.121-.113-.25-.178-.369a14.898 14.898 0 0 0-13.1-7.8l-.004-.043ZM365.432 148.508v-22.743h-.047v.037h-22.741a14.927 14.927 0 0 1-29.852.03l-22.843.03v22.695a14.896 14.896 0 0 0-13.766 9.198 14.892 14.892 0 0 0-1.134 5.702v.014a14.875 14.875 0 0 0 1.175 5.8c.134.317.29.62.445.925.062.122.114.25.179.37a14.903 14.903 0 0 0 13.1 7.8v22.793h.049v-.037h22.743a14.926 14.926 0 0 1 25.427-10.503 14.925 14.925 0 0 1 4.426 10.472l22.842-.03v-22.699a14.902 14.902 0 0 0 14.9-14.9v-.015c0-1.993-.399-3.965-1.174-5.8-.134-.316-.292-.62-.446-.925-.062-.121-.113-.25-.178-.37a14.898 14.898 0 0 0-13.1-7.8l-.005-.044ZM214.366 374.972a14.895 14.895 0 0 0-13.1 7.8c-.066.12-.117.248-.18.37-.154.305-.311.608-.444.925a14.853 14.853 0 0 0-1.175 5.8v.014a14.904 14.904 0 0 0 14.9 14.9v22.691l22.843.03a14.924 14.924 0 0 1 14.941-14.791 14.928 14.928 0 0 1 14.912 14.821h22.742v.037h.049v-22.792a14.902 14.902 0 0 0 13.1-7.8c.065-.119.117-.248.179-.37.154-.3.311-.609.444-.925a14.894 14.894 0 0 0 1.176-5.8v-.013a14.9 14.9 0 0 0-14.9-14.9v-22.692l-22.842-.029a14.929 14.929 0 0 1-25.45 10.449 14.926 14.926 0 0 1-4.403-10.481h-22.747v-.037h-.049v22.793h.004Z" stroke="#454A59" stroke-miterlimit="10"/><path d="M267.19 503.081h22.743v-.049h-.033v-22.741a14.927 14.927 0 0 1-.03-29.853l-.03-22.842h-22.7a14.9 14.9 0 0 0-14.9-14.9h-.013a14.871 14.871 0 0 0-5.8 1.175c-.316.134-.62.291-.924.445-.123.063-.251.114-.371.179a14.896 14.896 0 0 0-7.8 13.1h-22.789v.047h.037v22.745a14.932 14.932 0 0 1 13.8 9.199 14.926 14.926 0 0 1-13.768 20.653l.029 22.843h22.692a14.902 14.902 0 0 0 14.9 14.9h.013a14.871 14.871 0 0 0 5.8-1.175c.315-.134.619-.29.924-.445.122-.061.25-.113.37-.178a14.903 14.903 0 0 0 7.8-13.1l.05-.003ZM161.816 276.707a14.902 14.902 0 0 0 7.8 13.1c.12.066.248.117.37.179.3.154.609.311.924.445a14.915 14.915 0 0 0 5.8 1.175h.013a14.9 14.9 0 0 0 14.9-14.9h22.693l.029-22.842a14.925 14.925 0 0 1-14.789-14.943 14.927 14.927 0 0 1 14.821-14.91v-22.742h.037v-.048h-22.792a14.895 14.895 0 0 0-7.8-13.1c-.12-.066-.248-.117-.371-.18-.3-.154-.608-.311-.924-.444a14.853 14.853 0 0 0-5.8-1.175h-.013a14.9 14.9 0 0 0-14.9 14.9h-22.692l-.03 22.843a14.925 14.925 0 0 1 10.528 25.491 14.927 14.927 0 0 1-10.559 4.361v22.748h-.036v.048h22.791v-.006Z" stroke="#454A59" stroke-miterlimit="10"/><path d="M214.366 224.062a14.895 14.895 0 0 0-13.1 7.8c-.066.12-.117.248-.18.37-.154.3-.311.609-.444.924a14.853 14.853 0 0 0-1.175 5.8v.013a14.904 14.904 0 0 0 14.9 14.9v22.693l22.843.029a14.928 14.928 0 0 1 25.45-10.45 14.934 14.934 0 0 1 4.403 10.482h22.742v.037h.049v-22.793a14.902 14.902 0 0 0 13.1-7.8c.065-.12.117-.248.179-.371.154-.3.311-.607.444-.924a14.894 14.894 0 0 0 1.176-5.8v-.015a14.9 14.9 0 0 0-14.9-14.9v-22.7l-22.842-.03a14.932 14.932 0 0 1-4.425 10.472 14.927 14.927 0 0 1-25.428-10.502h-22.747v-.037h-.049v22.792l.004.01Z" stroke="#454A59" stroke-miterlimit="10"/><path d="M267.19 352.173h22.743v-.05h-.033V329.38a14.927 14.927 0 0 1-.03-29.853l-.03-22.842h-22.7a14.9 14.9 0 0 0-14.9-14.9h-.013a14.853 14.853 0 0 0-5.8 1.175c-.316.134-.62.291-.924.445-.123.062-.251.113-.371.179a14.893 14.893 0 0 0-7.8 13.1h-22.789v.049h.037v22.743a14.926 14.926 0 0 1 .032 29.853l.029 22.843h22.692a14.904 14.904 0 0 0 14.9 14.9h.011a14.871 14.871 0 0 0 5.8-1.175c.315-.133.619-.29.924-.445.122-.062.25-.113.37-.179a14.903 14.903 0 0 0 7.8-13.1h.052Z" stroke="#454A59" stroke-miterlimit="10"/><path d="M214.533 299.355v-22.743h-.048v.037h-22.752a14.925 14.925 0 0 1-29.852.03l-22.842.031v22.692a14.9 14.9 0 0 0-14.9 14.9v.013a14.857 14.857 0 0 0 1.175 5.8c.134.317.29.62.445.925.062.122.114.25.179.371a14.9 14.9 0 0 0 13.1 7.8v22.791h.047v-.037h22.748a14.928 14.928 0 0 1 14.91-14.942 14.91 14.91 0 0 1 5.713 1.131 14.94 14.94 0 0 1 8.087 8.069 14.926 14.926 0 0 1 1.142 5.711l22.842-.03v-22.7a14.904 14.904 0 0 0 14.9-14.9v-.016a14.89 14.89 0 0 0-1.175-5.8c-.134-.316-.29-.62-.445-.925-.062-.121-.113-.25-.178-.369a14.898 14.898 0 0 0-13.1-7.8l.004-.039ZM440.592 352.14h.037v.048h-22.743l-.039-.004a14.902 14.902 0 0 1-7.8 13.1c-.119.065-.248.116-.369.178-.305.155-.609.311-.925.445a14.893 14.893 0 0 1-5.8 1.175h-.016a14.9 14.9 0 0 1-14.9-14.9h-22.7" stroke="#454A59" stroke-miterlimit="10"/><path d="M304.083 148.659h-28.347a.75.75 0 0 0-.75.75v28.347c0 .414.336.75.75.75h28.347a.75.75 0 0 0 .75-.75v-28.347a.749.749 0 0 0-.75-.75Z" fill="#181A1F" stroke="#454A59"/><path d="m348.115 85.344.003-.004a14.395 14.395 0 0 1 12.66-7.538h75.49a14.399 14.399 0 0 1 14.398 14.4v.013a14.332 14.332 0 0 1-1.135 5.605c-.124.295-.274.588-.429.89l-.002.004c-.029.059-.058.12-.081.172l-.014.03a2.48 2.48 0 0 1-.074.15l-.003.004a14.397 14.397 0 0 1-12.66 7.539h-23.451V107.344a14.424 14.424 0 0 1-28.846-.231l.004-.504h-23.196a14.398 14.398 0 0 1-14.4-14.4v-.013a14.368 14.368 0 0 1 1.135-5.605h.001c.124-.296.273-.59.428-.89V85.7c.032-.063.061-.127.086-.18l.011-.024c.029-.062.052-.11.075-.152Z" fill="#7856A8" stroke="#7856A8"/><path d="M440.678 72.888h-75.49a14.898 14.898 0 0 0-13.1 7.8c-.066.119-.117.247-.18.37-.154.3-.311.608-.444.924a14.855 14.855 0 0 0-1.175 5.8v.013a14.901 14.901 0 0 0 14.9 14.9h22.693a14.922 14.922 0 1 0 29.845.237v-.237h22.951a14.9 14.9 0 0 0 13.1-7.8c.066-.12.117-.248.179-.37.154-.3.312-.61.445-.925a14.835 14.835 0 0 0 1.174-5.8v-.013a14.898 14.898 0 0 0-14.898-14.9Z" fill="#181A1F" stroke="#7856A8" stroke-width=".711" stroke-miterlimit="10"/><mask id="f" style="mask-type:alpha" maskUnits="userSpaceOnUse" x="349" y="72" width="107" height="47"><path d="M440.584 73h-75.49a14.901 14.901 0 0 0-13.1 7.8c-.066.118-.117.246-.18.37-.154.3-.311.608-.444.924a14.873 14.873 0 0 0-1.175 5.8v.012a14.901 14.901 0 0 0 14.9 14.901h22.693a14.926 14.926 0 0 0 20.531 13.977 14.93 14.93 0 0 0 8.142-8.03 14.917 14.917 0 0 0 1.172-5.71v-.237h22.951a14.903 14.903 0 0 0 13.1-7.8c.066-.12.117-.249.179-.37.154-.3.312-.61.445-.925a14.817 14.817 0 0 0 1.174-5.8v-.014A14.902 14.902 0 0 0 440.584 73Z" fill="#fff" stroke="#9074AD" stroke-width=".711" stroke-miterlimit="10"/></mask><g mask="url(#f)"><path d="M320.266 79.401h150.855-150.855Z" fill="#181A1F"/><path d="M320.266 79.401h150.855" stroke="#7856A8" stroke-width=".711" stroke-miterlimit="10"/><path d="M320.266 86.908h150.855-150.855Z" fill="#181A1F"/><path d="M320.266 86.908h150.855" stroke="#7856A8" stroke-width=".711" stroke-miterlimit="10"/><path d="M320.266 94.418h150.855-150.855Z" fill="#181A1F"/><path d="M320.266 94.418h150.855" stroke="#7856A8" stroke-width=".711" stroke-miterlimit="10"/><path d="M320.266 101.928h150.855-150.855Z" fill="#181A1F"/><path d="M320.266 101.928h150.855" stroke="#7856A8" stroke-width=".711" stroke-miterlimit="10"/><path d="M318.994 109.438h150.593-150.593Z" fill="#181A1F"/><path d="M318.994 109.438h150.593" stroke="#7856A8" stroke-width=".711" stroke-miterlimit="10"/><path d="M318.994 116.948h146.493-146.493Z" fill="#181A1F"/><path d="M318.994 116.948h146.493" stroke="#7856A8" stroke-width=".711" stroke-miterlimit="10"/><path d="M356.562 28.438v148.769-148.77Z" fill="#181A1F"/><path d="M356.562 28.438v148.769" stroke="#7856A8" stroke-width=".711" stroke-miterlimit="10"/><path d="M364.074 28.438v148.769-148.77Z" fill="#181A1F"/><path d="M364.074 28.438v148.769" stroke="#7856A8" stroke-width=".711" stroke-miterlimit="10"/><path d="M371.582 28.438v148.769-148.77Z" fill="#181A1F"/><path d="M371.582 28.438v148.769" stroke="#7856A8" stroke-width=".711" stroke-miterlimit="10"/><path d="M379.094 38.39v138.817V38.391Z" fill="#181A1F"/><path d="M379.094 38.39v138.817" stroke="#7856A8" stroke-width=".711" stroke-miterlimit="10"/><path d="M386.604 28.438v148.769-148.77Z" fill="#181A1F"/><path d="M386.604 28.438v148.769" stroke="#7856A8" stroke-width=".711" stroke-miterlimit="10"/><path d="M394.113 38.39v146.328V38.391Z" fill="#181A1F"/><path d="M394.113 38.39v146.328" stroke="#7856A8" stroke-width=".711" stroke-miterlimit="10"/><path d="M401.623 28.438v156.278V28.437Z" fill="#181A1F"/><path d="M401.623 28.438v156.278" stroke="#7856A8" stroke-width=".711" stroke-miterlimit="10"/><path d="M409.133 34.235v142.971-142.97Z" fill="#181A1F"/><path d="M409.133 34.235v142.971" stroke="#7856A8" stroke-width=".711" stroke-miterlimit="10"/><path d="M416.643 41.655v135.551-135.55Z" fill="#181A1F"/><path d="M416.643 41.655v135.551" stroke="#7856A8" stroke-width=".711" stroke-miterlimit="10"/><path d="M424.154 41.655v135.551-135.55Z" fill="#181A1F"/><path d="M424.154 41.655v135.551" stroke="#7856A8" stroke-width=".711" stroke-miterlimit="10"/><path d="M431.664 28.438v148.769-148.77Z" fill="#181A1F"/><path d="M431.664 28.438v148.769" stroke="#7856A8" stroke-width=".711" stroke-miterlimit="10"/><path d="M439.174 28.438v148.769-148.77Z" fill="#181A1F"/><path d="M439.174 28.438v148.769" stroke="#7856A8" stroke-width=".711" stroke-miterlimit="10"/><path d="M446.684 28.438v148.769-148.77Z" fill="#181A1F"/><path d="M446.684 28.438v148.769" stroke="#7856A8" stroke-width=".711" stroke-miterlimit="10"/><path d="M454.193 28.438v148.769-148.77Z" fill="#181A1F"/><path d="M454.193 28.438v148.769" stroke="#7856A8" stroke-width=".711" stroke-miterlimit="10"/></g><path d="M323.316 6.156a37.028 37.028 0 0 1 37.105 36.947v.013a10.782 10.782 0 0 1-3.128 7.694 10.78 10.78 0 0 1-7.666 3.193 10.795 10.795 0 0 1-7.664-3.2 10.793 10.793 0 0 1-3.121-7.696v-.001a15.553 15.553 0 0 0-26.6-11.082 15.572 15.572 0 0 0-3.364 5.09 15.582 15.582 0 0 0-1.147 5.99V43.764a10.455 10.455 0 0 1-10.689 10.2h-.01a10.84 10.84 0 0 1-10.821-10.861 37.028 37.028 0 0 1 37.101-36.947h.004Z" fill="url(#g)" stroke="url(#h)"/><path d="M327.725 1.246a37.525 37.525 0 0 0-37.6 37.447 11.338 11.338 0 0 0 11.316 11.36 10.951 10.951 0 0 0 11.206-10.693V38.69a15.053 15.053 0 0 1 15.055-15.054 15.053 15.053 0 0 1 15.055 15.055 11.285 11.285 0 0 0 11.284 11.401A11.291 11.291 0 0 0 365.336 38.7v-.01A37.526 37.526 0 0 0 327.73 1.246h-.005Z" fill="#181A1F" stroke="url(#i)" stroke-width=".711" stroke-miterlimit="10"/><path d="M37.374 430.501a36.705 36.705 0 0 1-36.2-36.705 36.709 36.709 0 0 1 36.206-36.704v21.292a15.42 15.42 0 0 0-14.924 15.412 15.423 15.423 0 0 0 14.918 15.415v21.29Z" fill="url(#j)" stroke="url(#k)"/><path d="M27.367 389.386a14.915 14.915 0 0 1 4.371-10.551 14.917 14.917 0 0 1 10.552-4.369v-22.287a37.207 37.207 0 0 0-.006 74.415v-22.285a14.927 14.927 0 0 1-14.917-14.923Z" fill="#181A1F" stroke="url(#l)" stroke-width=".711" stroke-miterlimit="10"/><path d="M65.932 99.885A15.424 15.424 0 0 0 80.85 115.3v21.29a36.714 36.714 0 0 1-25.454-10.749A36.707 36.707 0 0 1 44.65 99.884a36.706 36.706 0 0 1 36.206-36.702v21.291a15.42 15.42 0 0 0-14.924 15.412Z" fill="url(#m)" stroke="url(#n)"/><path d="M70.477 95.207a14.922 14.922 0 0 1 14.924-14.92V58a37.206 37.206 0 0 0-37.206 37.206 37.205 37.205 0 0 0 10.893 26.31 37.202 37.202 0 0 0 26.307 10.899v-22.281a14.926 14.926 0 0 1-14.918-14.927Z" fill="#181A1F" stroke="url(#o)" stroke-width=".711" stroke-miterlimit="10"/><mask id="p" style="mask-type:alpha" maskUnits="userSpaceOnUse" x="47" y="57" width="39" height="76"><path d="M70.477 95.207a14.922 14.922 0 0 1 14.924-14.92V58a37.206 37.206 0 0 0-37.206 37.206 37.205 37.205 0 0 0 10.893 26.31 37.202 37.202 0 0 0 26.307 10.899v-22.281a14.926 14.926 0 0 1-14.918-14.927Z" fill="#fff" stroke="#EDCF00" stroke-width=".711" stroke-miterlimit="10"/></mask><g mask="url(#p)"><path d="M7.508 61.433h150.855H7.508Z" fill="#181A1F"/><path d="M7.508 61.433h150.855" stroke="url(#q)" stroke-width=".711" stroke-miterlimit="10"/><path d="M6.406 68.942h151.957H6.406Z" fill="#181A1F"/><path d="M6.406 68.942h151.957" stroke="url(#r)" stroke-width=".711" stroke-miterlimit="10"/><path d="M7.508 76.452h150.855H7.508Z" fill="#181A1F"/><path d="M7.508 76.452h150.855" stroke="url(#s)" stroke-width=".711" stroke-miterlimit="10"/><path d="M7.508 83.962h150.855H7.508Z" fill="#181A1F"/><path d="M7.508 83.962h150.855" stroke="url(#t)" stroke-width=".711" stroke-miterlimit="10"/><path d="M7.508 91.473h150.855H7.508Z" fill="#181A1F"/><path d="M7.508 91.473h150.855" stroke="url(#u)" stroke-width=".711" stroke-miterlimit="10"/><path d="M7.508 98.982h150.855H7.508Z" fill="#181A1F"/><path d="M7.508 98.982h150.855" stroke="url(#v)" stroke-width=".711" stroke-miterlimit="10"/><path d="M6.232 106.492h150.6-150.6Z" fill="#181A1F"/><path d="M6.232 106.492h150.6" stroke="url(#w)" stroke-width=".711" stroke-miterlimit="10"/><path d="M6.232 114.002h146.5-146.5Z" fill="#181A1F"/><path d="M6.232 114.002h146.5" stroke="url(#x)" stroke-width=".711" stroke-miterlimit="10"/><path d="M7.508 121.513h141.578H7.508Z" fill="#181A1F"/><path d="M7.508 121.513h141.578" stroke="url(#y)" stroke-width=".711" stroke-miterlimit="10"/><path d="M7.508 129.022h150.855H7.508Z" fill="#181A1F"/><path d="M7.508 129.022h150.855" stroke="url(#z)" stroke-width=".711" stroke-miterlimit="10"/><path d="M51.316 25.492v148.769V25.492Z" fill="#181A1F"/><path d="M51.316 25.492v148.769" stroke="url(#A)" stroke-width=".711" stroke-miterlimit="10"/><path d="M58.824 25.492v148.769V25.492Z" fill="#181A1F"/><path d="M58.824 25.492v148.769" stroke="url(#B)" stroke-width=".711" stroke-miterlimit="10"/><path d="M66.332 35.445v138.816V35.445Z" fill="#181A1F"/><path d="M66.332 35.445v138.816" stroke="url(#C)" stroke-width=".711" stroke-miterlimit="10"/><path d="M73.846 25.492v148.769V25.492Z" fill="#181A1F"/><path d="M73.846 25.492v148.769" stroke="url(#D)" stroke-width=".711" stroke-miterlimit="10"/><path d="M81.356 35.445v146.327V35.445Z" fill="#181A1F"/><path d="M81.356 35.445v146.327" stroke="url(#E)" stroke-width=".711" stroke-miterlimit="10"/></g><path d="M107.696 547.506a14.404 14.404 0 0 1-20.366-.001 14.397 14.397 0 0 1-4.217-10.184V464.01a14.4 14.4 0 0 1 28.8 0v73.313c0 3.819-1.517 7.482-4.217 10.183Z" fill="#7856A8" stroke="#7856A8"/><path d="M101.923 547.813a14.9 14.9 0 0 0 14.9-14.9v-73.311a14.898 14.898 0 0 0-14.9-14.9 14.901 14.901 0 0 0-14.9 14.9v73.311a14.9 14.9 0 0 0 14.9 14.9Z" fill="#fff"/><path d="M101.923 547.813a14.9 14.9 0 0 0 14.9-14.9v-73.311a14.898 14.898 0 0 0-14.9-14.9 14.901 14.901 0 0 0-14.9 14.9v73.311a14.9 14.9 0 0 0 14.9 14.9Z" fill="#181A1F"/><path d="M101.923 547.813a14.9 14.9 0 0 0 14.9-14.9v-73.311a14.898 14.898 0 0 0-14.9-14.9 14.901 14.901 0 0 0-14.9 14.9v73.311a14.9 14.9 0 0 0 14.9 14.9Z" stroke="#7856A8" stroke-width=".711" stroke-miterlimit="10"/><path d="M262.453 533.779a15.41 15.41 0 0 0 1.134-5.436h21.286a36.72 36.72 0 0 1-10.748 25.455 36.717 36.717 0 0 1-25.955 10.751 36.71 36.71 0 0 1-36.706-36.2h21.288a15.417 15.417 0 0 0 9.487 13.852 15.419 15.419 0 0 0 20.214-8.422Z" fill="url(#F)" stroke="url(#G)"/><path d="M237.658 523.439h-22.287a37.206 37.206 0 0 0 51.447 34.367 37.195 37.195 0 0 0 20.136-20.135 37.2 37.2 0 0 0 2.832-14.238h-22.285a14.924 14.924 0 0 1-14.921 14.921 14.92 14.92 0 0 1-14.922-14.921v.006Z" fill="#181A1F" stroke="url(#H)" stroke-width=".711" stroke-miterlimit="10"/><path d="M305.069 479.946a14.424 14.424 0 0 1 9.698-24.611v28.828a14.423 14.423 0 0 1-9.698-4.217Z" fill="url(#I)" stroke="url(#J)"/><path d="M304.756 465.336a14.922 14.922 0 0 0 14.921 14.926v-29.846a14.923 14.923 0 0 0-14.921 14.92Z" fill="#181A1F" stroke="url(#K)" stroke-width=".711" stroke-miterlimit="10"/><path d="M103.702 231.433a14.43 14.43 0 0 1 13.533-1.334 14.41 14.41 0 0 1 4.679 3.127 14.41 14.41 0 0 1 4.225 10.198 14.419 14.419 0 0 1-8.903 13.325 14.416 14.416 0 0 1-15.718-3.126 14.42 14.42 0 0 1 2.184-22.19Z" fill="url(#L)" stroke="url(#M)"/><path d="M116.125 224.102a14.92 14.92 0 0 0-13.786 9.212 14.92 14.92 0 0 0 3.235 16.263 14.924 14.924 0 1 0 10.551-25.475Z" fill="#181A1F" stroke="url(#N)" stroke-width=".711" stroke-miterlimit="10"/><path d="M157.887 370.986v-28.847h28.847v28.847h-28.847Z" fill="#7856A8" stroke="#7856A8"/><path d="M191.644 337.228h-29.847v29.847h29.847v-29.847Z" fill="#181A1F" stroke="#7856A8" stroke-width=".711" stroke-miterlimit="10"/><path d="M489.689 298.21h.405a20.355 20.355 0 0 1 19.952 20.671 20.358 20.358 0 0 1-38.395 9.113l-.344-.657-.48.565a14.416 14.416 0 0 1-15.962 4.201 14.425 14.425 0 0 1-9.447-13.535 14.423 14.423 0 0 1 9.447-13.535 14.425 14.425 0 0 1 15.962 4.201l.481.566.343-.659a20.351 20.351 0 0 1 18.038-10.931Z" fill="url(#O)" stroke="url(#P)"/><path d="M494.099 293.302a20.843 20.843 0 0 0-18.481 11.2 14.917 14.917 0 0 0-23.605 1.119 14.918 14.918 0 0 0 23.605 18.197 20.862 20.862 0 0 0 28.437 8.666 20.859 20.859 0 0 0 .568-36.338 20.851 20.851 0 0 0-10.524-2.848v.004Z" fill="#191B20" stroke="url(#Q)" stroke-width=".711" stroke-miterlimit="10"/><path d="M470.299 434.717v.002a37.007 37.007 0 0 1-35.197 37.014l-.019.001-.019.003c-.434.054-.87.083-1.307.086a.871.871 0 0 1-.058-.004h-.005a1.477 1.477 0 0 0-.27 0h-.006a.804.804 0 0 1-.059.004 11.22 11.22 0 0 1-1.308-.086l-.018-.003-.019-.001a37.066 37.066 0 0 1-35.2-37.016 37.066 37.066 0 0 1 35.2-37.016l.019-.001.018-.002c.434-.055.871-.083 1.308-.086l.062.003.005.001c.031.002.081.006.132.006.051 0 .1-.004.13-.006l.006-.001.063-.003c.437.003.873.031 1.307.086l.019.002.019.001a37.006 37.006 0 0 1 35.197 37.016Zm-35.684 15.517.019.002h.044l.018-.002a15.317 15.317 0 0 0-1.137-30.595 15.318 15.318 0 0 0-1.137 30.595l.038.003.037-.003c.124-.009.244-.018.362-.025v.074l.492.008.066.004h.005a1.387 1.387 0 0 0 .262 0l.008-.001.067-.003h.5v-.082c.115.007.233.016.356.025Z" fill="#7856A8" stroke="#7856A8"/><path d="M475.693 430.605a37.504 37.504 0 0 0-35.677-37.515 11.385 11.385 0 0 0-1.368-.09c-.069 0-.136.01-.2.01s-.136-.01-.2-.01c-.458.002-.915.033-1.369.09a37.565 37.565 0 0 0-35.684 37.515 37.562 37.562 0 0 0 35.684 37.515c.454.058.911.088 1.369.091.068 0 .135-.011.2-.011s.135.011.2.011c.457-.003.914-.033 1.368-.091a37.503 37.503 0 0 0 35.677-37.515Zm-36.146 15.017c-.3-.022-.593-.044-.894-.044v.1c-.069 0-.136.009-.2.01-.064.001-.136-.009-.2-.01v-.1c-.3 0-.6.022-.895.044a14.82 14.82 0 1 1 2.2 0h-.011Z" fill="#181A1F" stroke="#7856A8" stroke-width=".711" stroke-miterlimit="10"/><mask id="R" style="mask-type:alpha" maskUnits="userSpaceOnUse" x="400" y="392" width="77" height="77"><path d="M475.693 430.605a37.504 37.504 0 0 0-35.677-37.515 11.385 11.385 0 0 0-1.368-.09c-.069 0-.136.01-.2.01s-.136-.01-.2-.01c-.458.002-.915.033-1.369.09a37.565 37.565 0 0 0-35.684 37.515 37.562 37.562 0 0 0 35.684 37.515c.454.058.911.088 1.369.091.068 0 .135-.011.2-.011s.135.011.2.011c.457-.003.914-.033 1.368-.091a37.503 37.503 0 0 0 35.677-37.515Zm-36.146 15.017c-.3-.022-.593-.044-.894-.044v.1c-.069 0-.136.009-.2.01-.064.001-.136-.009-.2-.01v-.1c-.3 0-.6.022-.895.044a14.82 14.82 0 1 1 2.2 0h-.011Z" fill="#fff" stroke="#9074AD" stroke-width=".711" stroke-miterlimit="10"/></mask><g mask="url(#R)"><path d="M370.121 392.81h150.855-150.855Z" fill="#181A1F"/><path d="M370.121 392.81h150.855" stroke="#7856A8" stroke-width=".711" stroke-miterlimit="10"/><path d="M370.121 400.32h150.855-150.855Z" fill="#181A1F"/><path d="M370.121 400.32h150.855" stroke="#7856A8" stroke-width=".711" stroke-miterlimit="10"/><path d="M369.018 407.83h151.957-151.957Z" fill="#181A1F"/><path d="M369.018 407.83h151.957" stroke="#7856A8" stroke-width=".711" stroke-miterlimit="10"/><path d="M370.121 415.34h150.855-150.855Z" fill="#181A1F"/><path d="M370.121 415.34h150.855" stroke="#7856A8" stroke-width=".711" stroke-miterlimit="10"/><path d="M370.121 422.85h150.855-150.855Z" fill="#181A1F"/><path d="M370.121 422.85h150.855" stroke="#7856A8" stroke-width=".711" stroke-miterlimit="10"/><path d="M370.121 430.36h150.855-150.855Z" fill="#181A1F"/><path d="M370.121 430.36h150.855" stroke="#7856A8" stroke-width=".711" stroke-miterlimit="10"/><path d="M370.121 437.87h150.855-150.855Z" fill="#181A1F"/><path d="M370.121 437.87h150.855" stroke="#7856A8" stroke-width=".711" stroke-miterlimit="10"/><path d="M368.848 445.38h150.594-150.594Z" fill="#181A1F"/><path d="M368.848 445.38h150.594" stroke="#7856A8" stroke-width=".711" stroke-miterlimit="10"/><path d="M368.848 452.89h146.493-146.493Z" fill="#181A1F"/><path d="M368.848 452.89h146.493" stroke="#7856A8" stroke-width=".711" stroke-miterlimit="10"/><path d="M370.121 460.402h141.578-141.578Z" fill="#181A1F"/><path d="M370.121 460.402h141.578" stroke="#7856A8" stroke-width=".711" stroke-miterlimit="10"/><path d="M370.121 467.91h150.855-150.855Z" fill="#181A1F"/><path d="M370.121 467.91h150.855" stroke="#7856A8" stroke-width=".711" stroke-miterlimit="10"/><path d="M406.418 364.38v148.769V364.38Z" fill="#181A1F"/><path d="M406.418 364.38v148.769" stroke="#7856A8" stroke-width=".711" stroke-miterlimit="10"/><path d="M413.934 364.38v148.769V364.38Z" fill="#181A1F"/><path d="M413.934 364.38v148.769" stroke="#7856A8" stroke-width=".711" stroke-miterlimit="10"/><path d="M421.438 364.38v148.769V364.38Z" fill="#181A1F"/><path d="M421.438 364.38v148.769" stroke="#7856A8" stroke-width=".711" stroke-miterlimit="10"/><path d="M428.949 374.334v138.815-138.815Z" fill="#181A1F"/><path d="M428.949 374.334v138.815" stroke="#7856A8" stroke-width=".711" stroke-miterlimit="10"/><path d="M436.459 364.38v148.769V364.38Z" fill="#181A1F"/><path d="M436.459 364.38v148.769" stroke="#7856A8" stroke-width=".711" stroke-miterlimit="10"/><path d="M443.969 374.334V520.66 374.334Z" fill="#181A1F"/><path d="M443.969 374.334V520.66" stroke="#7856A8" stroke-width=".711" stroke-miterlimit="10"/><path d="M451.479 364.38v156.279V364.38Z" fill="#181A1F"/><path d="M451.479 364.38v156.279" stroke="#7856A8" stroke-width=".711" stroke-miterlimit="10"/><path d="M458.988 370.178v142.971-142.971Z" fill="#181A1F"/><path d="M458.988 370.178v142.971" stroke="#7856A8" stroke-width=".711" stroke-miterlimit="10"/><path d="M466.498 377.602v135.547-135.547Z" fill="#181A1F"/><path d="M466.498 377.602v135.547" stroke="#7856A8" stroke-width=".711" stroke-miterlimit="10"/><path d="M474.01 377.602v135.547-135.547Z" fill="#181A1F"/><path d="M474.01 377.602v135.547" stroke="#7856A8" stroke-width=".711" stroke-miterlimit="10"/></g><defs><linearGradient id="d" x1="248.091" y1="134.092" x2="248.091" y2="420.421" gradientUnits="userSpaceOnUse"><stop stop-color="#BDABD8"/><stop offset=".458" stop-color="#E6E1DF"/><stop offset="1" stop-color="#BDABD8"/></linearGradient><linearGradient id="e" x1="332.104" y1="134.092" x2="332.104" y2="420.421" gradientUnits="userSpaceOnUse"><stop stop-color="#BDABD8"/><stop offset=".458" stop-color="#E6E1DF"/><stop offset="1" stop-color="#BDABD8"/></linearGradient><linearGradient id="g" x1="347.203" y1="5.656" x2="285.468" y2="5.964" gradientUnits="userSpaceOnUse"><stop stop-color="#F5DE0A"/><stop offset="1" stop-color="#F5C20A"/></linearGradient><linearGradient id="h" x1="347.203" y1="5.656" x2="285.468" y2="5.964" gradientUnits="userSpaceOnUse"><stop stop-color="#F5DE0A"/><stop offset="1" stop-color="#F5C20A"/></linearGradient><linearGradient id="i" x1="351.618" y1="1.246" x2="289.883" y2="1.554" gradientUnits="userSpaceOnUse"><stop stop-color="#F5DE0A"/><stop offset="1" stop-color="#F5C20A"/></linearGradient><linearGradient id="j" x1="31.093" y1="356.589" x2=".553" y2="356.638" gradientUnits="userSpaceOnUse"><stop stop-color="#F5DE0A"/><stop offset="1" stop-color="#F5C20A"/></linearGradient><linearGradient id="k" x1="31.093" y1="356.589" x2=".553" y2="356.638" gradientUnits="userSpaceOnUse"><stop stop-color="#F5DE0A"/><stop offset="1" stop-color="#F5C20A"/></linearGradient><linearGradient id="l" x1="35.504" y1="352.179" x2="4.963" y2="352.228" gradientUnits="userSpaceOnUse"><stop stop-color="#F5DE0A"/><stop offset="1" stop-color="#F5C20A"/></linearGradient><linearGradient id="m" x1="74.57" y1="62.678" x2="44.03" y2="62.728" gradientUnits="userSpaceOnUse"><stop stop-color="#F5DE0A"/><stop offset="1" stop-color="#F5C20A"/></linearGradient><linearGradient id="n" x1="74.57" y1="62.678" x2="44.03" y2="62.728" gradientUnits="userSpaceOnUse"><stop stop-color="#F5DE0A"/><stop offset="1" stop-color="#F5C20A"/></linearGradient><linearGradient id="o" x1="78.615" y1="58" x2="48.075" y2="58.05" gradientUnits="userSpaceOnUse"><stop stop-color="#F5DE0A"/><stop offset="1" stop-color="#F5C20A"/></linearGradient><linearGradient id="q" x1="130.846" y1="61.433" x2="30.947" y2="110.324" gradientUnits="userSpaceOnUse"><stop stop-color="#F5DE0A"/><stop offset="1" stop-color="#F5C20A"/></linearGradient><linearGradient id="r" x1="130.646" y1="68.942" x2="30.3" y2="118.411" gradientUnits="userSpaceOnUse"><stop stop-color="#F5DE0A"/><stop offset="1" stop-color="#F5C20A"/></linearGradient><linearGradient id="s" x1="130.846" y1="76.452" x2="30.947" y2="125.344" gradientUnits="userSpaceOnUse"><stop stop-color="#F5DE0A"/><stop offset="1" stop-color="#F5C20A"/></linearGradient><linearGradient id="t" x1="130.846" y1="83.962" x2="30.947" y2="132.854" gradientUnits="userSpaceOnUse"><stop stop-color="#F5DE0A"/><stop offset="1" stop-color="#F5C20A"/></linearGradient><linearGradient id="u" x1="130.846" y1="91.473" x2="30.947" y2="140.364" gradientUnits="userSpaceOnUse"><stop stop-color="#F5DE0A"/><stop offset="1" stop-color="#F5C20A"/></linearGradient><linearGradient id="v" x1="130.846" y1="98.982" x2="30.947" y2="147.874" gradientUnits="userSpaceOnUse"><stop stop-color="#F5DE0A"/><stop offset="1" stop-color="#F5C20A"/></linearGradient><linearGradient id="w" x1="129.362" y1="106.492" x2="29.566" y2="155.251" gradientUnits="userSpaceOnUse"><stop stop-color="#F5DE0A"/><stop offset="1" stop-color="#F5C20A"/></linearGradient><linearGradient id="x" x1="126.01" y1="114.002" x2="27.916" y2="160.625" gradientUnits="userSpaceOnUse"><stop stop-color="#F5DE0A"/><stop offset="1" stop-color="#F5C20A"/></linearGradient><linearGradient id="y" x1="123.262" y1="121.513" x2="27.294" y2="165.591" gradientUnits="userSpaceOnUse"><stop stop-color="#F5DE0A"/><stop offset="1" stop-color="#F5C20A"/></linearGradient><linearGradient id="z" x1="130.846" y1="129.022" x2="30.947" y2="177.914" gradientUnits="userSpaceOnUse"><stop stop-color="#F5DE0A"/><stop offset="1" stop-color="#F5C20A"/></linearGradient><linearGradient id="A" x1="52.134" y1="25.492" x2="51.313" y2="25.492" gradientUnits="userSpaceOnUse"><stop stop-color="#F5DE0A"/><stop offset="1" stop-color="#F5C20A"/></linearGradient><linearGradient id="B" x1="59.642" y1="25.492" x2="58.821" y2="25.492" gradientUnits="userSpaceOnUse"><stop stop-color="#F5DE0A"/><stop offset="1" stop-color="#F5C20A"/></linearGradient><linearGradient id="C" x1="67.15" y1="35.445" x2="66.329" y2="35.445" gradientUnits="userSpaceOnUse"><stop stop-color="#F5DE0A"/><stop offset="1" stop-color="#F5C20A"/></linearGradient><linearGradient id="D" x1="74.663" y1="25.492" x2="73.843" y2="25.492" gradientUnits="userSpaceOnUse"><stop stop-color="#F5DE0A"/><stop offset="1" stop-color="#F5C20A"/></linearGradient><linearGradient id="E" x1="82.173" y1="35.445" x2="81.352" y2="35.445" gradientUnits="userSpaceOnUse"><stop stop-color="#F5DE0A"/><stop offset="1" stop-color="#F5C20A"/></linearGradient><linearGradient id="F" x1="271.802" y1="527.843" x2="210.722" y2="528.239" gradientUnits="userSpaceOnUse"><stop stop-color="#F5DE0A"/><stop offset="1" stop-color="#F5C20A"/></linearGradient><linearGradient id="G" x1="271.802" y1="527.843" x2="210.722" y2="528.239" gradientUnits="userSpaceOnUse"><stop stop-color="#F5DE0A"/><stop offset="1" stop-color="#F5C20A"/></linearGradient><linearGradient id="H" x1="276.213" y1="523.433" x2="215.132" y2="523.829" gradientUnits="userSpaceOnUse"><stop stop-color="#F5DE0A"/><stop offset="1" stop-color="#F5C20A"/></linearGradient><linearGradient id="I" x1="312.545" y1="454.826" x2="300.297" y2="454.846" gradientUnits="userSpaceOnUse"><stop stop-color="#F5DE0A"/><stop offset="1" stop-color="#F5C20A"/></linearGradient><linearGradient id="J" x1="312.545" y1="454.826" x2="300.297" y2="454.846" gradientUnits="userSpaceOnUse"><stop stop-color="#F5DE0A"/><stop offset="1" stop-color="#F5C20A"/></linearGradient><linearGradient id="K" x1="316.955" y1="450.416" x2="304.707" y2="450.436" gradientUnits="userSpaceOnUse"><stop stop-color="#F5DE0A"/><stop offset="1" stop-color="#F5C20A"/></linearGradient><linearGradient id="L" x1="121.195" y1="228.501" x2="96.696" y2="228.581" gradientUnits="userSpaceOnUse"><stop stop-color="#F5DE0A"/><stop offset="1" stop-color="#F5C20A"/></linearGradient><linearGradient id="M" x1="121.195" y1="228.501" x2="96.696" y2="228.581" gradientUnits="userSpaceOnUse"><stop stop-color="#F5DE0A"/><stop offset="1" stop-color="#F5C20A"/></linearGradient><linearGradient id="N" x1="125.605" y1="224.102" x2="101.107" y2="224.181" gradientUnits="userSpaceOnUse"><stop stop-color="#F5DE0A"/><stop offset="1" stop-color="#F5C20A"/></linearGradient><linearGradient id="O" x1="498.577" y1="297.706" x2="444.706" y2="297.981" gradientUnits="userSpaceOnUse"><stop stop-color="#F5DE0A"/><stop offset="1" stop-color="#F5C20A"/></linearGradient><linearGradient id="P" x1="498.577" y1="297.706" x2="444.706" y2="297.981" gradientUnits="userSpaceOnUse"><stop stop-color="#F5DE0A"/><stop offset="1" stop-color="#F5C20A"/></linearGradient><linearGradient id="Q" x1="502.987" y1="293.298" x2="449.117" y2="293.573" gradientUnits="userSpaceOnUse"><stop stop-color="#F5DE0A"/><stop offset="1" stop-color="#F5C20A"/></linearGradient><filter id="a" x="32.555" y="23.105" width="439.113" height="510.882" filterUnits="userSpaceOnUse" color-interpolation-filters="sRGB"><feFlood flood-opacity="0" result="BackgroundImageFix"/><feColorMatrix in="SourceAlpha" values="0 0 0 0 0 0 0 0 0 0 0 0 0 0 0 0 0 0 127 0" result="hardAlpha"/><feOffset/><feGaussianBlur stdDeviation="8"/><feColorMatrix values="0 0 0 0 0.0392157 0 0 0 0 0.0392157 0 0 0 0 0.0392157 0 0 0 0.102 0"/><feBlend in2="BackgroundImageFix" result="effect1_dropShadow_5731_194072"/><feBlend in="SourceGraphic" in2="effect1_dropShadow_5731_194072" result="shape"/></filter><filter id="b" x="40.555" y="32.105" width="423.113" height="494.882" filterUnits="userSpaceOnUse" color-interpolation-filters="sRGB"><feFlood flood-opacity="0" result="BackgroundImageFix"/><feColorMatrix in="SourceAlpha" values="0 0 0 0 0 0 0 0 0 0 0 0 0 0 0 0 0 0 127 0" result="hardAlpha"/><feOffset dy="1"/><feGaussianBlur stdDeviation="4"/><feColorMatrix values="0 0 0 0 0.0156863 0 0 0 0 0.0156863 0 0 0 0 0.0196078 0 0 0 0.4 0"/><feBlend in2="BackgroundImageFix" result="effect1_dropShadow_5731_194072"/><feBlend in="SourceGraphic" in2="effect1_dropShadow_5731_194072" result="shape"/></filter></defs></svg>