<svg width="505" height="510" fill="none" xmlns="http://www.w3.org/2000/svg"><path d="M46 79.856h416.79M46 100.855h416.79M46 121.855h421.832M46 142.855h421.832M42.918 163.855h424.914M46 184.855h421.832M46 205.855h421.832M46 226.855h421.832M46 247.855h421.832M42.443 268.855h421.1M42.443 289.855h409.635M46 310.855h395.89M46 331.855h421.832M46 352.855h441.2M46 373.855h421.832M46 394.855h421.832M46 436.855h421.832M210.158 457.855h252.806M46 415.855h421.832M63.5 42.356v416M84.5 70.19v388.166M105.5 42.356v416M126.5 70.19v388.166M147.5 42.356v416M168.5 42.356v416M189.5 42.356v416M210.5 70.19v388.166M231.5 42.356v416M252.5 70.19v409.169M273.5 42.356v437M294.5 58.57v399.786M315.5 79.317v379.039M336.5 79.317v379.039M357.5 42.356v416M378.5 42.356v416M399.5 42.356v416M420.5 42.356v416M441.5 42.356v416" stroke="#2A2D36"/><g filter="url(#a)" stroke="#2A2D36"><path d="M42.5 142.856v-21h21v21h-21Z" fill="#2A2D36"/><path d="M63.5 121.856h-21v21h21v-21Z"/></g><path d="M441.5 100.856v-21h21v21h-21Z" fill="#2A2D36" stroke="#2A2D36"/><path d="M462.5 79.856h-21v21h21v-21Z" stroke="#2A2D36"/><path d="M462.5 121.856v-21h21v21h-21Z" fill="#2A2D36" stroke="#2A2D36"/><path d="M483.5 100.856h-21v21h21v-21Z" stroke="#2A2D36"/><path d="M462.5 184.856v-21h21v21h-21Z" fill="#2A2D36" stroke="#2A2D36"/><path d="M483.5 163.856h-21v21h21v-21Z" stroke="#2A2D36"/><path d="M441.5 247.856v-21h21v21h-21Z" fill="#2A2D36" stroke="#2A2D36"/><path d="M462.5 226.856h-21v21h21v-21Z" stroke="#2A2D36"/><path d="M462.5 226.856v-21h21v21h-21Z" fill="#2A2D36" stroke="#2A2D36"/><path d="M483.5 205.856h-21v21h21v-21Z" stroke="#2A2D36"/><path d="M462.5 268.856v-21h21v21h-21Z" fill="#2A2D36" stroke="#2A2D36"/><path d="M483.5 247.856h-21v21h21v-21Z" stroke="#2A2D36"/><path d="M483.5 247.856v-21h21v21h-21Z" fill="#2A2D36" stroke="#2A2D36"/><path d="M504.5 226.856h-21v21h21v-21Z" stroke="#2A2D36"/><path d="M21.5 289.856v-21h21v21h-21Z" fill="#2A2D36" stroke="#2A2D36"/><path d="M42.5 268.856h-21v21h21v-21Z" stroke="#2A2D36"/><path d="M.5 310.856v-21h21v21H.5Z" fill="#fff" stroke="#2A2D36"/><path d="M21.5 289.856H.5v21h21v-21ZM294.5 79.856v-21h21v21h-21Z" fill="#2A2D36" stroke="#2A2D36"/><path d="M315.5 58.856h-21v21h21v-21Z" stroke="#2A2D36"/><path d="M315.5 58.856v-21h21v21h-21Z" fill="#2A2D36" stroke="#2A2D36"/><path d="M336.5 37.856h-21v21h21v-21Z" stroke="#2A2D36"/><path d="M147.5 58.856v-21h21v21h-21Z" fill="#2A2D36" stroke="#2A2D36"/><path d="M168.5 37.856h-21v21h21v-21Z" stroke="#2A2D36"/><path d="M42.5 79.856v-21h21v21h-21Z" fill="#2A2D36" stroke="#2A2D36"/><path d="M63.5 58.856h-21v21h21v-21Z" stroke="#2A2D36"/><path d="M315.5 37.856v-21h21v21h-21Z" fill="#2A2D36" stroke="#2A2D36"/><path d="M336.5 16.856h-21v21h21v-21Z" stroke="#2A2D36"/><path d="M21.5 457.856v-21h21v21h-21Z" fill="#2A2D36" stroke="#2A2D36"/><path d="M42.5 436.856h-21v21h21v-21Z" stroke="#2A2D36"/><g filter="url(#b)" stroke="#2A2D36"><path d="M63.5 478.856v-21h21v21h-21Z" fill="#2A2D36"/><path d="M84.5 457.856h-21v21h21v-21Z"/></g><path d="M42.5 436.856v-21h21v21h-21Z" fill="#2A2D36" stroke="#2A2D36"/><path d="M63.5 415.856h-21v21h21v-21Z" stroke="#2A2D36"/><path d="M189.5 457.856v-21h21v21h-21Z" fill="#2A2D36" stroke="#2A2D36"/><path d="M210.5 436.856h-21v21h21v-21Z" stroke="#2A2D36"/><path d="M168.5 478.856v-21h21v21h-21Z" fill="#2A2D36" stroke="#2A2D36"/><path d="M189.5 457.856h-21v21h21v-21Z" stroke="#2A2D36"/><path d="M189.5 499.856v-21h21v21h-21Z" fill="#2A2D36" stroke="#2A2D36"/><path d="M210.5 478.856h-21v21h21v-21Z" stroke="#2A2D36"/><path d="M126 499.856h-20v-20h20v20ZM105.043 499.356h-20v-20h20v20Z" fill="#2A2D36" stroke="#2A2D36"/><g filter="url(#c)"><path d="M84 499.356H64v-20h20v20Z" fill="#2A2D36" stroke="#2A2D36"/><mask id="d" fill="#fff"><path d="M64 479.356v20h20v-20H64Zm-1-1h22v22H63v-22Z"/></mask><path d="M64 479.356v20h20v-20H64Zm-1-1h22v22H63v-22Z" fill="#2A2D36"/><path d="M64 479.356v-1h-1v1h1Zm0 20h-1v1h1v-1Zm20 0v1h1v-1h-1Zm0-20h1v-1h-1v1Zm-21-1v-1h-1v1h1Zm22 0h1v-1h-1v1Zm0 22v1h1v-1h-1Zm-22 0h-1v1h1v-1Zm0-21v20h2v-20h-2Zm1 21h20v-2H64v2Zm21-1v-20h-2v20h2Zm-1-21H64v2h20v-2Zm-21 1h22v-2H63v2Zm21-1v22h2v-22h-2Zm1 21H63v2h22v-2Zm-21 1v-22h-2v22h2Z" fill="#2A2D36" mask="url(#d)"/><mask id="e" fill="#fff"><path d="M85.924 479.356v20h20v-20h-20Zm-1-1h22v22h-22v-22Z"/></mask><path d="M85.924 479.356v20h20v-20h-20Zm-1-1h22v22h-22v-22Z" fill="#2A2D36"/><path d="M85.924 479.356v-1h-1v1h1Zm0 20h-1v1h1v-1Zm20 0v1h1v-1h-1Zm0-20h1v-1h-1v1Zm-21-1v-1h-1v1h1Zm22 0h1v-1h-1v1Zm0 22v1h1v-1h-1Zm-22 0h-1v1h1v-1Zm0-21v20h2v-20h-2Zm1 21h20v-2h-20v2Zm21-1v-20h-2v20h2Zm-1-21h-20v2h20v-2Zm-21 1h22v-2h-22v2Zm21-1v22h2v-22h-2Zm1 21h-22v2h22v-2Zm-21 1v-22h-2v22h2Z" fill="#2A2D36" mask="url(#e)"/></g><g filter="url(#f)"><path d="M126 478.356h-20v-20h20v20Z" fill="#2A2D36" stroke="#2A2D36"/><mask id="g" fill="#fff"><path d="M106 458.356v20h20v-20h-20Zm-1-1h22v22h-22v-22Z"/></mask><path d="M106 458.356v20h20v-20h-20Zm-1-1h22v22h-22v-22Z" fill="#2A2D36"/><path d="M106 458.356v-1h-1v1h1Zm0 20h-1v1h1v-1Zm20 0v1h1v-1h-1Zm0-20h1v-1h-1v1Zm-21-1v-1h-1v1h1Zm22 0h1v-1h-1v1Zm0 22v1h1v-1h-1Zm-22 0h-1v1h1v-1Zm0-21v20h2v-20h-2Zm1 21h20v-2h-20v2Zm21-1v-20h-2v20h2Zm-1-21h-20v2h20v-2Zm-21 1h22v-2h-22v2Zm21-1v22h2v-22h-2Zm1 21h-22v2h22v-2Zm-21 1v-22h-2v22h2Z" fill="#2A2D36" mask="url(#g)"/></g><g filter="url(#h)"><path d="M147 499.356h-20v-20h20v20Z" fill="#2A2D36" stroke="#2A2D36"/><mask id="i" fill="#fff"><path d="M127 479.356v20h20v-20h-20Zm-1-1h22v22h-22v-22Z"/></mask><path d="M127 479.356v20h20v-20h-20Zm-1-1h22v22h-22v-22Z" fill="#2A2D36"/><path d="M127 479.356v-1h-1v1h1Zm0 20h-1v1h1v-1Zm20 0v1h1v-1h-1Zm0-20h1v-1h-1v1Zm-21-1v-1h-1v1h1Zm22 0h1v-1h-1v1Zm0 22v1h1v-1h-1Zm-22 0h-1v1h1v-1Zm0-21v20h2v-20h-2Zm1 21h20v-2h-20v2Zm21-1v-20h-2v20h2Zm-1-21h-20v2h20v-2Zm-21 1h22v-2h-22v2Zm21-1v22h2v-22h-2Zm1 21h-22v2h22v-2Zm-21 1v-22h-2v22h2Z" fill="#2A2D36" mask="url(#i)"/></g><g filter="url(#j)"><path d="M168 478.356h-20v-20h20v20Z" fill="#2A2D36" stroke="#2A2D36"/><mask id="k" fill="#fff"><path d="M148 458.356v20h20v-20h-20Zm-1-1h22v22h-22v-22Z"/></mask><path d="M148 458.356v20h20v-20h-20Zm-1-1h22v22h-22v-22Z" fill="#2A2D36"/><path d="M148 458.356v-1h-1v1h1Zm0 20h-1v1h1v-1Zm20 0v1h1v-1h-1Zm0-20h1v-1h-1v1Zm-21-1v-1h-1v1h1Zm22 0h1v-1h-1v1Zm0 22v1h1v-1h-1Zm-22 0h-1v1h1v-1Zm0-21v20h2v-20h-2Zm1 21h20v-2h-20v2Zm21-1v-20h-2v20h2Zm-1-21h-20v2h20v-2Zm-21 1h22v-2h-22v2Zm21-1v22h2v-22h-2Zm1 21h-22v2h22v-2Zm-21 1v-22h-2v22h2Z" fill="#2A2D36" mask="url(#k)"/></g><g filter="url(#l)"><path d="M189 457.356h-20v-20h20v20Z" fill="#2A2D36" stroke="#2A2D36"/><mask id="m" fill="#fff"><path d="M169 437.356v20h20v-20h-20Zm-1-1h22v22h-22v-22Z"/></mask><path d="M169 437.356v20h20v-20h-20Zm-1-1h22v22h-22v-22Z" fill="#2A2D36"/><path d="M169 437.356v-1h-1v1h1Zm0 20h-1v1h1v-1Zm20 0v1h1v-1h-1Zm0-20h1v-1h-1v1Zm-21-1v-1h-1v1h1Zm22 0h1v-1h-1v1Zm0 22v1h1v-1h-1Zm-22 0h-1v1h1v-1Zm0-21v20h2v-20h-2Zm1 21h20v-2h-20v2Zm21-1v-20h-2v20h2Zm-1-21h-20v2h20v-2Zm-21 1h22v-2h-22v2Zm21-1v22h2v-22h-2Zm1 21h-22v2h22v-2Zm-21 1v-22h-2v22h2Z" fill="#2A2D36" mask="url(#m)"/></g><path d="M441 499.356h-20v-20h20v20Z" fill="#2A2D36" stroke="#2A2D36"/><mask id="n" fill="#fff"><path d="M421 479.356v20h20v-20h-20Zm-1-1h22v22h-22v-22Z"/></mask><path d="M421 479.356v20h20v-20h-20Zm-1-1h22v22h-22v-22Z" fill="#2A2D36"/><path d="M421 479.356v-1h-1v1h1Zm0 20h-1v1h1v-1Zm20 0v1h1v-1h-1Zm0-20h1v-1h-1v1Zm-21-1v-1h-1v1h1Zm22 0h1v-1h-1v1Zm0 22v1h1v-1h-1Zm-22 0h-1v1h1v-1Zm0-21v20h2v-20h-2Zm1 21h20v-2h-20v2Zm21-1v-20h-2v20h2Zm-1-21h-20v2h20v-2Zm-21 1h22v-2h-22v2Zm21-1v22h2v-22h-2Zm1 21h-22v2h22v-2Zm-21 1v-22h-2v22h2Z" fill="#2A2D36" mask="url(#n)"/><g filter="url(#o)"><path d="M483 457.356h-20v-20h20v20Z" fill="#2A2D36" stroke="#2A2D36"/><mask id="p" fill="#fff"><path d="M463 437.356v20h20v-20h-20Zm-1-1h22v22h-22v-22Z"/></mask><path d="M463 437.356v20h20v-20h-20Zm-1-1h22v22h-22v-22Z" fill="#2A2D36"/><path d="M463 437.356v-1h-1v1h1Zm0 20h-1v1h1v-1Zm20 0v1h1v-1h-1Zm0-20h1v-1h-1v1Zm-21-1v-1h-1v1h1Zm22 0h1v-1h-1v1Zm0 22v1h1v-1h-1Zm-22 0h-1v1h1v-1Zm0-21v20h2v-20h-2Zm1 21h20v-2h-20v2Zm21-1v-20h-2v20h2Zm-1-21h-20v2h20v-2Zm-21 1h22v-2h-22v2Zm21-1v22h2v-22h-2Zm1 21h-22v2h22v-2Zm-21 1v-22h-2v22h2Z" fill="#2A2D36" mask="url(#p)"/></g><path d="M462 436.356h-20v-20h20v20Z" fill="#2A2D36" stroke="#2A2D36"/><mask id="q" fill="#fff"><path d="M442 416.356v20h20v-20h-20Zm-1-1h22v22h-22v-22Z"/></mask><path d="M442 416.356v20h20v-20h-20Zm-1-1h22v22h-22v-22Z" fill="#2A2D36"/><path d="M442 416.356v-1h-1v1h1Zm0 20h-1v1h1v-1Zm20 0v1h1v-1h-1Zm0-20h1v-1h-1v1Zm-21-1v-1h-1v1h1Zm22 0h1v-1h-1v1Zm0 22v1h1v-1h-1Zm-22 0h-1v1h1v-1Zm0-21v20h2v-20h-2Zm1 21h20v-2h-20v2Zm21-1v-20h-2v20h2Zm-1-21h-20v2h20v-2Zm-21 1h22v-2h-22v2Zm21-1v22h2v-22h-2Zm1 21h-22v2h22v-2Zm-21 1v-22h-2v22h2Z" fill="#2A2D36" mask="url(#q)"/><g filter="url(#r)"><path d="M210 478.356h-20v-20h20v20Z" fill="#2A2D36" stroke="#2A2D36"/><mask id="s" fill="#fff"><path d="M190 458.356v20h20v-20h-20Zm-1-1h22v22h-22v-22Z"/></mask><path d="M190 458.356v20h20v-20h-20Zm-1-1h22v22h-22v-22Z" fill="#2A2D36"/><path d="M190 458.356v-1h-1v1h1Zm0 20h-1v1h1v-1Zm20 0v1h1v-1h-1Zm0-20h1v-1h-1v1Zm-21-1v-1h-1v1h1Zm22 0h1v-1h-1v1Zm0 22v1h1v-1h-1Zm-22 0h-1v1h1v-1Zm0-21v20h2v-20h-2Zm1 21h20v-2h-20v2Zm21-1v-20h-2v20h2Zm-1-21h-20v2h20v-2Zm-21 1h22v-2h-22v2Zm21-1v22h2v-22h-2Zm1 21h-22v2h22v-2Zm-21 1v-22h-2v22h2Z" fill="#2A2D36" mask="url(#s)"/></g><path d="M210 247.356h-20v-20h20v20Z" fill="#2A2D36" stroke="#2A2D36"/><mask id="t" fill="#fff"><path d="M190 227.356v20h20v-20h-20Zm-1-1h22v22h-22v-22Z"/></mask><path d="M190 227.356v20h20v-20h-20Zm-1-1h22v22h-22v-22Z" fill="#2A2D36"/><path d="M190 227.356v-1h-1v1h1Zm0 20h-1v1h1v-1Zm20 0v1h1v-1h-1Zm0-20h1v-1h-1v1Zm-21-1v-1h-1v1h1Zm22 0h1v-1h-1v1Zm0 22v1h1v-1h-1Zm-22 0h-1v1h1v-1Zm0-21v20h2v-20h-2Zm1 21h20v-2h-20v2Zm21-1v-20h-2v20h2Zm-1-21h-20v2h20v-2Zm-21 1h22v-2h-22v2Zm21-1v22h2v-22h-2Zm1 21h-22v2h22v-2Zm-21 1v-22h-2v22h2Z" fill="#2A2D36" mask="url(#t)"/><path d="M315 121.356h-20v-20h20v20Z" fill="#2A2D36" stroke="#2A2D36"/><mask id="u" fill="#fff"><path d="M295 101.356v20h20v-20h-20Zm-1-1h22v22h-22v-22Z"/></mask><path d="M295 101.356v20h20v-20h-20Zm-1-1h22v22h-22v-22Z" fill="#2A2D36"/><path d="M295 101.356v-1h-1v1h1Zm0 20h-1v1h1v-1Zm20 0v1h1v-1h-1Zm0-20h1v-1h-1v1Zm-21-1v-1h-1v1h1Zm22 0h1v-1h-1v1Zm0 22v1h1v-1h-1Zm-22 0h-1v1h1v-1Zm0-21v20h2v-20h-2Zm1 21h20v-2h-20v2Zm21-1v-20h-2v20h2Zm-1-21h-20v2h20v-2Zm-21 1h22v-2h-22v2Zm21-1v22h2v-22h-2Zm1 21h-22v2h22v-2Zm-21 1v-22h-2v22h2Z" fill="#2A2D36" mask="url(#u)"/><path d="M294 142.356h-20v-20h20v20Z" fill="#2A2D36" stroke="#2A2D36"/><mask id="v" fill="#fff"><path d="M274 122.356v20h20v-20h-20Zm-1-1h22v22h-22v-22Z"/></mask><path d="M274 122.356v20h20v-20h-20Zm-1-1h22v22h-22v-22Z" fill="#2A2D36"/><path d="M274 122.356v-1h-1v1h1Zm0 20h-1v1h1v-1Zm20 0v1h1v-1h-1Zm0-20h1v-1h-1v1Zm-21-1v-1h-1v1h1Zm22 0h1v-1h-1v1Zm0 22v1h1v-1h-1Zm-22 0h-1v1h1v-1Zm0-21v20h2v-20h-2Zm1 21h20v-2h-20v2Zm21-1v-20h-2v20h2Zm-1-21h-20v2h20v-2Zm-21 1h22v-2h-22v2Zm21-1v22h2v-22h-2Zm1 21h-22v2h22v-2Zm-21 1v-22h-2v22h2Z" fill="#2A2D36" mask="url(#v)"/><path d="M399 163.356h-20v-20h20v20Z" fill="#2A2D36" stroke="#2A2D36"/><mask id="w" fill="#fff"><path d="M379 143.356v20h20v-20h-20Zm-1-1h22v22h-22v-22Z"/></mask><path d="M379 143.356v20h20v-20h-20Zm-1-1h22v22h-22v-22Z" fill="#2A2D36"/><path d="M379 143.356v-1h-1v1h1Zm0 20h-1v1h1v-1Zm20 0v1h1v-1h-1Zm0-20h1v-1h-1v1Zm-21-1v-1h-1v1h1Zm22 0h1v-1h-1v1Zm0 22v1h1v-1h-1Zm-22 0h-1v1h1v-1Zm0-21v20h2v-20h-2Zm1 21h20v-2h-20v2Zm21-1v-20h-2v20h2Zm-1-21h-20v2h20v-2Zm-21 1h22v-2h-22v2Zm21-1v22h2v-22h-2Zm1 21h-22v2h22v-2Zm-21 1v-22h-2v22h2Z" fill="#2A2D36" mask="url(#w)"/><path d="M378 184.356h-20v-20h20v20Z" fill="#2A2D36" stroke="#2A2D36"/><mask id="x" fill="#fff"><path d="M358 164.356v20h20v-20h-20Zm-1-1h22v22h-22v-22Z"/></mask><path d="M358 164.356v20h20v-20h-20Zm-1-1h22v22h-22v-22Z" fill="#2A2D36"/><path d="M358 164.356v-1h-1v1h1Zm0 20h-1v1h1v-1Zm20 0v1h1v-1h-1Zm0-20h1v-1h-1v1Zm-21-1v-1h-1v1h1Zm22 0h1v-1h-1v1Zm0 22v1h1v-1h-1Zm-22 0h-1v1h1v-1Zm0-21v20h2v-20h-2Zm1 21h20v-2h-20v2Zm21-1v-20h-2v20h2Zm-1-21h-20v2h20v-2Zm-21 1h22v-2h-22v2Zm21-1v22h2v-22h-2Zm1 21h-22v2h22v-2Zm-21 1v-22h-2v22h2Z" fill="#2A2D36" mask="url(#x)"/><path d="M420 184.356h-20v-20h20v20Z" fill="#2A2D36" stroke="#2A2D36"/><mask id="y" fill="#fff"><path d="M400 164.356v20h20v-20h-20Zm-1-1h22v22h-22v-22Z"/></mask><path d="M400 164.356v20h20v-20h-20Zm-1-1h22v22h-22v-22Z" fill="#2A2D36"/><path d="M400 164.356v-1h-1v1h1Zm0 20h-1v1h1v-1Zm20 0v1h1v-1h-1Zm0-20h1v-1h-1v1Zm-21-1v-1h-1v1h1Zm22 0h1v-1h-1v1Zm0 22v1h1v-1h-1Zm-22 0h-1v1h1v-1Zm0-21v20h2v-20h-2Zm1 21h20v-2h-20v2Zm21-1v-20h-2v20h2Zm-1-21h-20v2h20v-2Zm-21 1h22v-2h-22v2Zm21-1v22h2v-22h-2Zm1 21h-22v2h22v-2Zm-21 1v-22h-2v22h2Z" fill="#2A2D36" mask="url(#y)"/><g filter="url(#z)"><path d="M84 142.356H64v-20h20v20Z" fill="#2A2D36" stroke="#2A2D36"/><mask id="A" fill="#fff"><path d="M64 122.356v20h20v-20H64Zm-1-1h22v22H63v-22Z"/></mask><path d="M64 122.356v20h20v-20H64Zm-1-1h22v22H63v-22Z" fill="#2A2D36"/><path d="M64 122.356v-1h-1v1h1Zm0 20h-1v1h1v-1Zm20 0v1h1v-1h-1Zm0-20h1v-1h-1v1Zm-21-1v-1h-1v1h1Zm22 0h1v-1h-1v1Zm0 22v1h1v-1h-1Zm-22 0h-1v1h1v-1Zm0-21v20h2v-20h-2Zm1 21h20v-2H64v2Zm21-1v-20h-2v20h2Zm-1-21H64v2h20v-2Zm-21 1h22v-2H63v2Zm21-1v22h2v-22h-2Zm1 21H63v2h22v-2Zm-21 1v-22h-2v22h2Z" fill="#2A2D36" mask="url(#A)"/></g><g filter="url(#B)"><path d="M84 121.356H64v-20h20v20Z" fill="#2A2D36" stroke="#2A2D36"/><mask id="C" fill="#fff"><path d="M64 101.356v20h20v-20H64Zm-1-1h22v22H63v-22Z"/></mask><path d="M64 101.356v20h20v-20H64Zm-1-1h22v22H63v-22Z" fill="#2A2D36"/><path d="M64 101.356v-1h-1v1h1Zm0 20h-1v1h1v-1Zm20 0v1h1v-1h-1Zm0-20h1v-1h-1v1Zm-21-1v-1h-1v1h1Zm22 0h1v-1h-1v1Zm0 22v1h1v-1h-1Zm-22 0h-1v1h1v-1Zm0-21v20h2v-20h-2Zm1 21h20v-2H64v2Zm21-1v-20h-2v20h2Zm-1-21H64v2h20v-2Zm-21 1h22v-2H63v2Zm21-1v22h2v-22h-2Zm1 21H63v2h22v-2Zm-21 1v-22h-2v22h2Z" fill="#2A2D36" mask="url(#C)"/></g><g filter="url(#D)"><g filter="url(#E)"><path d="M105.5 121.856h-21v-21h21v21Z" fill="#2A2D36"/><path d="M105 121.356H85v-20h20v20Z" stroke="#2A2D36"/></g><mask id="F" fill="#fff"><path d="M85 101.356v20h20v-20H85Zm-1-1h22v22H84v-22Z"/></mask><path d="M85 101.356v20h20v-20H85Zm-1-1h22v22H84v-22Z" fill="#2A2D36"/><path d="M85 101.356v-1h-1v1h1Zm0 20h-1v1h1v-1Zm20 0v1h1v-1h-1Zm0-20h1v-1h-1v1Zm-21-1v-1h-1v1h1Zm22 0h1v-1h-1v1Zm0 22v1h1v-1h-1Zm-22 0h-1v1h1v-1Zm0-21v20h2v-20h-2Zm1 21h20v-2H85v2Zm21-1v-20h-2v20h2Zm-1-21H85v2h20v-2Zm-21 1h22v-2H84v2Zm21-1v22h2v-22h-2Zm1 21H84v2h22v-2Zm-21 1v-22h-2v22h2Z" fill="#2A2D36" mask="url(#F)"/></g><g filter="url(#G)"><path d="M105 163.356H85v-20h20v20Z" fill="#2A2D36" stroke="#2A2D36"/><mask id="H" fill="#fff"><path d="M85 143.356v20h20v-20H85Zm-1-1h22v22H84v-22Z"/></mask><path d="M85 143.356v20h20v-20H85Zm-1-1h22v22H84v-22Z" fill="#2A2D36"/><path d="M85 143.356v-1h-1v1h1Zm0 20h-1v1h1v-1Zm20 0v1h1v-1h-1Zm0-20h1v-1h-1v1Zm-21-1v-1h-1v1h1Zm22 0h1v-1h-1v1Zm0 22v1h1v-1h-1Zm-22 0h-1v1h1v-1Zm0-21v20h2v-20h-2Zm1 21h20v-2H85v2Zm21-1v-20h-2v20h2Zm-1-21H85v2h20v-2Zm-21 1h22v-2H84v2Zm21-1v22h2v-22h-2Zm1 21H84v2h22v-2Zm-21 1v-22h-2v22h2Z" fill="#2A2D36" mask="url(#H)"/></g><g filter="url(#I)"><path d="M126 184.356h-20v-20h20v20Z" fill="#2A2D36" stroke="#2A2D36"/><mask id="J" fill="#fff"><path d="M106 164.356v20h20v-20h-20Zm-1-1h22v22h-22v-22Z"/></mask><path d="M106 164.356v20h20v-20h-20Zm-1-1h22v22h-22v-22Z" fill="#2A2D36"/><path d="M106 164.356v-1h-1v1h1Zm0 20h-1v1h1v-1Zm20 0v1h1v-1h-1Zm0-20h1v-1h-1v1Zm-21-1v-1h-1v1h1Zm22 0h1v-1h-1v1Zm0 22v1h1v-1h-1Zm-22 0h-1v1h1v-1Zm0-21v20h2v-20h-2Zm1 21h20v-2h-20v2Zm21-1v-20h-2v20h2Zm-1-21h-20v2h20v-2Zm-21 1h22v-2h-22v2Zm21-1v22h2v-22h-2Zm1 21h-22v2h22v-2Zm-21 1v-22h-2v22h2Z" fill="#2A2D36" mask="url(#J)"/></g><g filter="url(#K)"><path d="M336.945 268.758h-83.951v-83.786h83.951v83.786Z" fill="#2A2D36"/><path d="M336.445 268.258h-82.951v-82.786h82.951v82.786Z" stroke="#2A2D36"/></g><mask id="L" fill="#fff"><path d="M253 185.472v82.786h82.951v-82.786H253Zm-1-1h84.951v84.786H252v-84.786Z"/></mask><path d="M253 185.472v82.786h82.951v-82.786H253Zm-1-1h84.951v84.786H252v-84.786Z" fill="#2A2D36"/><path d="M253 185.472v-1h-1v1h1Zm0 82.786h-1v1h1v-1Zm82.951 0v1h1v-1h-1Zm0-82.786h1v-1h-1v1Zm-83.951-1v-1h-1v1h1Zm84.951 0h1v-1h-1v1Zm0 84.786v1h1v-1h-1Zm-84.951 0h-1v1h1v-1Zm0-83.786v82.786h2v-82.786h-2Zm1 83.786h82.951v-2H253v2Zm83.951-1v-82.786h-2v82.786h2Zm-1-83.786H253v2h82.951v-2Zm-83.951 1h84.951v-2H252v2Zm83.951-1v84.786h2v-84.786h-2Zm1 83.786H252v2h84.951v-2Zm-83.951 1v-84.786h-2v84.786h2Z" fill="#2A2D36" mask="url(#L)"/><g filter="url(#M)"><path d="M420.466 331.856h-63.001v-63h63.001v63Z" fill="#2A2D36"/><path d="M419.966 331.356h-62.001v-62h62.001v62Z" stroke="#2A2D36"/></g><path d="M357.498 268.856v63-63Z" fill="#2A2D36" stroke="#2A2D36"/><g filter="url(#N)"><path d="M231.392 373.856h-63.001v-63h63.001v63Z" fill="#2A2D36"/><path d="M230.892 373.356h-62.001v-62h62.001v62Z" stroke="#2A2D36"/></g><g filter="url(#O)"><path d="M87.5 395.313H24.497V331.41h63.001v63.903Z" fill="#2A2D36"/><path d="M87 394.813H24.997V331.91h62.001v62.903Z" stroke="#2A2D36"/></g><g filter="url(#P)"><path d="M210.91 163.97H127v-63.114h83.91v63.114Z" fill="#2A2D36"/><path d="M210.41 163.47H127.5v-62.114h82.91v62.114Z" stroke="#2A2D36"/></g><mask id="Q" fill="#fff"><path d="M127 101.356v62.114h82.91v-62.114H127Zm-1-1h84.91v64.114H126v-64.114Z"/></mask><path d="M127 101.356v62.114h82.91v-62.114H127Zm-1-1h84.91v64.114H126v-64.114Z" fill="#2A2D36"/><path d="M127 101.356v-1h-1v1h1Zm0 62.114h-1v1h1v-1Zm82.91 0v1h1v-1h-1Zm0-62.114h1v-1h-1v1Zm-83.91-1v-1h-1v1h1Zm84.91 0h1v-1h-1v1Zm0 64.114v1h1v-1h-1Zm-84.91 0h-1v1h1v-1Zm0-63.114v62.114h2v-62.114h-2Zm1 63.114h82.91v-2H127v2Zm83.91-1v-62.114h-2v62.114h2Zm-1-63.114H127v2h82.91v-2Zm-83.91 1h84.91v-2H126v2Zm83.91-1v64.114h2v-64.114h-2Zm1 63.114H126v2h84.91v-2Zm-83.91 1v-64.114h-2v64.114h2Z" fill="#2A2D36" mask="url(#Q)"/><path d="M273 499.356h-20v-20h20v20Z" fill="#2A2D36" stroke="#2A2D36"/><mask id="R" fill="#fff"><path d="M253 479.356v20h20v-20h-20Zm-1-1h22v22h-22v-22Z"/></mask><path d="M253 479.356v20h20v-20h-20Zm-1-1h22v22h-22v-22Z" fill="#2A2D36"/><path d="M253 479.356v-1h-1v1h1Zm0 20h-1v1h1v-1Zm20 0v1h1v-1h-1Zm0-20h1v-1h-1v1Zm-21-1v-1h-1v1h1Zm22 0h1v-1h-1v1Zm0 22v1h1v-1h-1Zm-22 0h-1v1h1v-1Zm0-21v20h2v-20h-2Zm1 21h20v-2h-20v2Zm21-1v-20h-2v20h2Zm-1-21h-20v2h20v-2Zm-21 1h22v-2h-22v2Zm21-1v22h2v-22h-2Zm1 21h-22v2h22v-2Zm-21 1v-22h-2v22h2Z" fill="#2A2D36" mask="url(#R)"/><g filter="url(#S)"><path d="M420 499.356h-20v-20h20v20Z" fill="#2A2D36" stroke="#2A2D36"/><mask id="T" fill="#fff"><path d="M400 479.356v20h20v-20h-20Zm-1-1h22v22h-22v-22Z"/></mask><path d="M400 479.356v20h20v-20h-20Zm-1-1h22v22h-22v-22Z" fill="#2A2D36"/><path d="M400 479.356v-1h-1v1h1Zm0 20h-1v1h1v-1Zm20 0v1h1v-1h-1Zm0-20h1v-1h-1v1Zm-21-1v-1h-1v1h1Zm22 0h1v-1h-1v1Zm0 22v1h1v-1h-1Zm-22 0h-1v1h1v-1Zm0-21v20h2v-20h-2Zm1 21h20v-2h-20v2Zm21-1v-20h-2v20h2Zm-1-21h-20v2h20v-2Zm-21 1h22v-2h-22v2Zm21-1v22h2v-22h-2Zm1 21h-22v2h22v-2Zm-21 1v-22h-2v22h2Z" fill="#2A2D36" mask="url(#T)"/></g><g filter="url(#U)" stroke="#2A2D36"><path d="M210.5 499.856v-21h21v21h-21Z" fill="#2A2D36"/><path d="M231.5 478.856h-21v21h21v-21Z"/></g><g filter="url(#V)" stroke="#2A2D36"><path d="M273.5 499.856v-21h21v21h-21Z" fill="#2A2D36"/><path d="M294.5 478.856h-21v21h21v-21Z"/></g><g filter="url(#W)" stroke="#2A2D36"><path d="M441.5 478.856v-21h21v21h-21Z" fill="#2A2D36"/><path d="M462.5 457.856h-21v21h21v-21Z"/></g><g filter="url(#X)" stroke="#2A2D36"><path d="M462.5 499.856v-21h21v21h-21Z" fill="#2A2D36"/><path d="M483.5 478.856h-21v21h21v-21Z"/></g><path d="M101.428 402.058c.746-8.478 5.913-7.247 15.681-6.388 9.768.859 17.083 8.428 16.337 16.906-.746 8.478-9.269 14.653-19.038 13.794s-13.726-15.833-12.98-24.312Z" fill="#27272D"/><path d="M157.074 402.455H99.659a13.34 13.34 0 0 1-13.33-13.33v-53.82h70.745v67.15Z" fill="url(#Y)"/><path d="M157.074 402.455H99.659a13.34 13.34 0 0 1-13.33-13.33v-53.82h70.745v67.15Z" fill="#000" fill-opacity=".2"/><path d="m114.697 453.767.553 3.936h3.347v-1.668l-.72-2.268h-3.18Z" fill="#15191F"/><path d="m117.984 453.735.071-.352c-.132.01-.267.02-.406.02-3.119 0-6.238-.004-9.357-.013-.14 2.62-.288 4.281-.288 4.281h3.346v-1.935l2.567 2h8.382v-2.693l-4.315-1.308Z" fill="#060608"/><path d="M111.865 410.109c-.385 4.879-5.593 4.111-5.642 9.027 0 .078 2.608 22.663 1.285 34.6h10.532c1.494-23.438 10.086-22.611 11.889-39.827-.001-3.278-8.726-3.987-18.064-3.8Z" fill="#27272D"/><path d="m114.713 453.736.553 3.446h3.346v-1.694l-.443-1.752h-3.456Z" fill="#060608"/><path d="M152.095 369.432a9.628 9.628 0 1 0-9.458-9.792v.168a9.56 9.56 0 0 0 9.458 9.625" fill="url(#Z)"/><path d="M103.99 387.571c-19.092-4.455-29.217-12.915-29.217-12.915l29.217 12.915Z" fill="#FF9666"/><path d="M103.99 387.571c-19.092-4.455-29.217-12.915-29.217-12.915" stroke="#FF9666" stroke-width="10" stroke-miterlimit="10" stroke-linecap="round"/><path d="M92.812 378.953c-.6 1.254-3.358 7.258-3.654 9.126a145.999 145.999 0 0 0 16.966 5.623l6.058-9.168c-4.678-1.092-15.857-4.187-19.37-5.581Z" fill="#F2EDDC"/><path d="M107.56 389.431a74.852 74.852 0 0 1-4.422 11c-1.652 3.068-3.733 5.875-5.435 8.911l36.461 7.075a43.645 43.645 0 0 1 .729-11.593l-8.371-22.873a114.89 114.89 0 0 0-15.029-1.434 71.48 71.48 0 0 0-3.933 8.914Z" fill="#F2EDDC"/><path d="M110.968 383.651c-.327-3.6 2.138-.568 5.342 2.65.145.988 2.315 9.742 2.315 9.742a78.777 78.777 0 0 0 8.06-8.29c4.529.079 6.451-.782 6.451-.782l1.375 13.838s2.002 7.523-.349 16.136a89.515 89.515 0 0 1-20.2-3.416c-10.771-3.366-17.553-11.82-19.962-14.435 2.1-6.276 9.017-.42 10.914-3.853-.495-6.56 6.381-7.989 6.054-11.59Z" fill="#F7D600"/><path d="M99.5 396.151c-.5 4 14.501 14 35.501 16.5" stroke="#E69C31" stroke-width="3.5" stroke-miterlimit="10"/><path d="m133.527 407.901 1.75-.026-.052-3.499-1.75.026.052 3.499Zm-35.213-8.962c12.153 11.193 26.685 9.088 35.213 8.962l-.052-3.499c-9.1.134-21.894 1.999-32.789-8.038l-2.372 2.575Z" fill="#E69C31"/><path d="M118.5 396.151c-4.268 7.24-5.824 17.46-5.824 17.46" stroke="#AD960C" stroke-miterlimit="10"/><path d="M72.574 374.605a4.655 4.655 0 0 0-.565-4.416 4.082 4.082 0 0 0-4.124-1.509 3.638 3.638 0 0 0-2.71 3.366" stroke="#FF8F66" stroke-width="10" stroke-miterlimit="10" stroke-linecap="round"/><path d="M168.073 333.469s-13.552-1.991-20.742-2.6c-6.859-.553-15.045-.885-23.785-.885s-16.926.332-23.785.885c-7.19.553-20.632 3.374-20.632 3.374v3.263c0 3.1 19.858 5.919 44.417 5.919s44.527-2.544 44.527-5.642v-4.314Z" fill="#363233"/><path d="M132.38 416.763c-28.977-3.684-29.524-16.226-33.548-20.423-1.714-1.788-11.627-5.425-14.414-6.186-6.673-1.822-16.59-11.31-16.59-11.31l-4.7 5.86c1.982 2.778 2.979 5.323 9.917 11.044 3.929 3.241 13.43 16.071 30.5 20.669 16.98 12.594 26.727 4.344 28.835.346Z" fill="#27272D"/><path d="m64.31 383.845 4.36-6.048-.384-.318 1.615-4.259a.642.642 0 0 0-.225-.747l-1.211-.873a.645.645 0 0 0-.716-.027.646.646 0 0 0-.184.172l-3.64 5.05a.642.642 0 0 0-.121.392l.043 1.686a.638.638 0 0 1-.342.583.642.642 0 0 1-.674-.047.646.646 0 0 0-.716-.027.647.647 0 0 0-.184.172l-1.406 1.95a.637.637 0 0 0 .047.808 89.076 89.076 0 0 0 2.418 2.5c.109.107.223.223.335.337.335-.433.658-.87.985-1.304Z" fill="#060608"/><path d="M156.85 357.817c0 19.415-13.883 30.865-31.031 30.865s-31.03-11.45-31.03-30.865 13.883-39.494 31.031-39.494 31.03 20.079 31.03 39.494Z" fill="url(#aa)"/><path d="M154.86 359.419h-38.551a9.517 9.517 0 0 0-8.79 5.873 9.512 9.512 0 0 0-.724 3.64v14.05a32.718 32.718 0 0 0 18.972 5.7c13.276 0 24.615-6.859 29.04-19.028l.053-10.235Z" fill="#FF9666"/><path fill-rule="evenodd" clip-rule="evenodd" d="M133.122 354.997h10.952l.001.001c8.96 0 16.373-5.586 16.373-14.545l2.488-18.2-29.814 2.489v14.835l-46.79-8.97v24.39h34.4l.005.003a14.976 14.976 0 0 0 12.385-6.619v6.616Z" fill="url(#ab)"/><path d="M97.556 369.432a9.628 9.628 0 1 0-9.458-9.792v.168a9.528 9.528 0 0 0 9.425 9.625h.033" fill="url(#ac)"/><path d="M119.729 358.699a4.426 4.426 0 0 0-4.34 4.484v3.475a4.343 4.343 0 1 0 8.681 0v-3.475a4.383 4.383 0 0 0-1.221-3.132 4.4 4.4 0 0 0-3.079-1.351h-.041M139.212 358.699a4.425 4.425 0 0 0-4.34 4.484v3.475a4.343 4.343 0 1 0 8.681 0v-3.475a4.384 4.384 0 0 0-.3-1.687 4.39 4.39 0 0 0-4-2.796h-.041" fill="#2E2829"/><path d="M129.417 380.717a5.808 5.808 0 0 0 5.808-5.807h-11.616a5.877 5.877 0 0 0 5.808 5.808" fill="#fff"/><path d="M95.177 360.915a2.729 2.729 0 0 1-1.442-4.031 2.74 2.74 0 0 1 1.221-1.058 4.35 4.35 0 0 1 3.43-.11c2.378.94 3.043 2.489 3.043 5.255a6.37 6.37 0 0 1-1.6 4.256v-.442c0-1.712-2.489-3.101-4.647-3.87" fill="#FF9666"/><path d="m157.871 330.416 4.011-.561-2.637-22.651-4.944-8.322.522 24.223.639 7.586 2.409-.275Z" fill="#FFF100"/><path d="M79.127 337.23v-4.37c0-2.987 18.586-5.476 42.039-5.642h2.544c24.558 0 44.527 2.544 44.527 5.642v4.37a.836.836 0 0 1-.166.72c-.055-.055-.166-.111-.221-.166a8.881 8.881 0 0 0-3.817-1.659 52.705 52.705 0 0 0-5.863-1.162 6.83 6.83 0 0 0-6.527 2.655 9.62 9.62 0 0 1-7.633 3.762h-24.06a14.587 14.587 0 0 1-8.85-2.987l-3.43-2.6a7.878 7.878 0 0 0-4.812-1.6c-4.65.055-7.855.055-8.352.111a75.65 75.65 0 0 0-11.228 1.881 10.298 10.298 0 0 0-3.983 1.825 1 1 0 0 1-.166-.776" fill="#FFF100"/><path d="M109.957 286.672a40.89 40.89 0 0 0-27.1 38.5v5.805a96.936 96.936 0 0 1 17.645-2.544c-.055-1.106-.055-2.213-.055-3.374 0-15.209 3.65-28.871 9.514-38.385" fill="url(#ad)"/><path d="M155.093 299.175a40.711 40.711 0 0 0-45.136-12.5c-5.863 9.514-9.514 23.177-9.514 38.332 0 1.106 0 2.268.055 3.374a318.23 318.23 0 0 1 20.632-.83h2.489c14.326 0 27.1.885 35.232 2.213.055-1.549.111-3.153.111-4.7a83.7 83.7 0 0 0-3.868-25.886" fill="#FFF100"/><path d="m140.06 301.884-2.6-16.207a3.104 3.104 0 0 0-2.213-2.489 40.917 40.917 0 0 0-23.066 0 3.041 3.041 0 0 0-2.157 2.489l-2.6 16.207" fill="#FFF100"/><path d="M164.441 325.172a40.729 40.729 0 0 0-9.293-25.943 85.246 85.246 0 0 1 3.872 25.831c0 1.6-.055 3.153-.111 4.7 1.866.276 3.713.664 5.531 1.163l.001-5.751Z" fill="url(#ae)"/><path d="M123.656 327.218c24.558 0 44.527 2.544 44.527 5.642v.111a3.207 3.207 0 0 1-3.209 3.209 4.793 4.793 0 0 1-.885-.111h-.055a96.742 96.742 0 0 0-16.539-2.378c-6.859-.553-15.045-.885-23.785-.885s-16.926.332-23.785.885a95.838 95.838 0 0 0-16.539 2.378l-.166.055a3.21 3.21 0 0 1-3.929-2.268 2.209 2.209 0 0 1-.166-.83v-.111c0-3.153 19.915-5.7 44.529-5.7" fill="#FFF100"/><path d="M129.883 305.403v-9.79l9.4 15.211-9.4 5.421v-10.842Z" fill="#4B4D4D"/><path d="M129.882 327.53v-7.52l-9.4-5.752 9.4 13.272ZM139.231 314.254l-9.348 5.756v7.523l9.348-13.279ZM129.882 295.613l-9.4 15.211 9.4-5.421v-9.79Z" fill="#F9C838"/><path d="m139.231 314.254-9.348 5.756v7.523l9.348-13.279Z" fill="#4B4D4D"/><path d="m120.48 310.825 9.4 5.421v-10.842l-9.4 5.421Z" fill="#F9C838"/><path d="M129.882 327.53v-7.52l-9.4-5.752 9.4 13.272ZM120.48 310.824l9.4-15.211v20.634l-9.4-5.423Z" fill="#0A0A0A"/><path d="M139.475 392.245a130.506 130.506 0 0 0 31.892-16.279l-31.892 16.279Z" fill="#FF9666"/><path d="M139.475 392.245a130.506 130.506 0 0 0 31.892-16.279" stroke="#FF9666" stroke-width="10" stroke-miterlimit="10" stroke-linecap="round"/><path d="M133.729 400.628c-6.012-.744-.523-12.7-.523-12.7l3.89-.355a115.058 115.058 0 0 0 15.663-6.458l4.316 9.232a138.797 138.797 0 0 1-17.6 7.313 57.556 57.556 0 0 0-5.746 2.968Z" fill="#F2EDDC"/><path d="M95.893 402.059c14.828 20.813 11.415 51.745 11.415 51.745h3.813c-.002-.067 4.186-29.935-15.228-51.745Z" fill="#2F2F38"/><path d="M173.3 368.906c4.108-2.87 10.427-.377 16.116 1.915.965.389.68 2.445.311 3.34-7.044 1.639-11.792 4.906-16.868 4.831-3.411-.05-1.764-2.407-1.764-4.831l-2.2-.847c-.002-2.424-.723-.825 4.405-4.408Z" fill="#FF9666"/><path d="M189.615 372.489h8.295" stroke="#FF8F66" stroke-width="3" stroke-miterlimit="10" stroke-linecap="round"/><path opacity=".997" d="m55.256 380.717-12.148-7.023a7.077 7.077 0 0 0-.025.263c0 .106-.008.2-.011.293-.007.148-.014.29-.014.45.008.49.054.978.137 1.462.045.255.14.5.279.72.048.081.09.165.126.252.073.178.112.369.115.563a.712.712 0 0 1-.6.742 21.782 21.782 0 0 1-.558-.115.833.833 0 0 1-.337-.7c0-.167.03-.333.085-.49.038-.112.082-.214.129-.318.096-.21.172-.429.227-.653.133-.494.209-1.001.225-1.512a3.401 3.401 0 0 0-.078-.693l-.105-.5-12.382-7.159a1.622 1.622 0 0 1-.805-1.556v-2.156c-.008-.066-.008-.142-.008-.228a1.623 1.623 0 0 1 .813-1.406l24.604-14.706.038-.021-.038.022-24.604 14.705 24.652-14.735.009-.006.616-.367.04-.024c.113-.057.23-.104.35-.14.256-.069.525-.074.783-.014l.066.02c.133.033.26.086.38.155h-.006l.017.008c.022.011.107.058.249.131.142.073.276.165.432.263 0 0 21.289 12.216 24.44 14.119l.186.108a.21.21 0 0 1 .038.028l.063.04a.151.151 0 0 1 .039.036 1.62 1.62 0 0 1 .672 1.277v3.559l-.255-.125c-.14.218-.332.4-.558.53l-25.655 14.9a1.62 1.62 0 0 1-1.625 0l.002.001Zm-12.117-7.262c.09-.636.29-1.592.69-1.567h-.021c-.383 0-.581.938-.67 1.567Zm.947-1.446-.062-.041c.02.014.04.028.062.041Zm15.588-2.639a.938.938 0 0 0 0 .001v-.001Zm-22.935-.13c-.175-.153-.244-.3-.51-.854.267.561.335.701.51.854Zm-5.538-4.966c.233.134.443.26.533.325a8.568 8.568 0 0 0-.533-.328l-.1-.058.1.061Zm-.31-.178c.07.038.136.074.189.105l-.186-.105-.1-.055.046.026-.065-.041c-.085-.048-.174-.1-.264-.153l-.021-.012c.129.079.259.151.375.217l-.022-.013.048.028v.003Zm-.86-.554c-.03-.026-.057-.052-.083-.077.026.026.054.052.084.078l-.001-.001Zm52.409-.2h.008-.008Zm.776-1.714v-.012.012Zm-.007-.037v-.018.018Zm-.008-.038-.005-.022.005.022Zm-.01-.037-.006-.028.007.028Zm-.01-.039-.01-.033.01.033Zm-.01-.037c0-.013-.008-.024-.012-.036.004.015.008.022.012.039v-.003Zm-.013-.04-.013-.037.013.037Zm-.141-.306a8.993 8.993 0 0 0 0 .004v-.004Zm-25.11-14.853H57.9l.077.044-.07-.044Zm-.686-.4h.008-.008Z" fill="#2A2D36"/><g opacity=".56"><g opacity=".422" fill-rule="evenodd" clip-rule="evenodd" fill="#AC64FF"><path d="M41.024 369.956c-1.436-.927-3.025-1.683-3.662-.9-.206.255-.42.358-.624.179-.175-.154-.242-.294-.51-.853l-.146-.306a5.622 5.622 0 0 0-.407-.7l-.04-.061a4.96 4.96 0 0 0-2.108-1.721l-.211-.111a63.747 63.747 0 0 1-1.582-.887c-.088-.065-.3-.19-.532-.326l-.1-.058a9.25 9.25 0 0 0-.21-.119 3.43 3.43 0 0 1-1.048-.758c-.034-.052-.065-.1-.094-.14a1.115 1.115 0 0 1-.235-.707v2.251c0 .05-.007.1-.007.151a1.624 1.624 0 0 0 .813 1.407l12.388 7.163c-.291-1.315-.752-2.904-1.685-3.504ZM83.233 361.886a1.687 1.687 0 0 1-.842 1.489l-2 1.164-1.969 1.727s-3.034-.9-4.018-.283c-.22.139-.614-.1-.964-.317l-.033-.023c-.36-.22-1.186.467-1.578.806a.697.697 0 0 0-.213.49 1.08 1.08 0 0 1-.488.92 1.64 1.64 0 0 0-1.192-.571 10.61 10.61 0 0 0-4.555.763c-.579.3-1.073.563-1.486.787a.282.282 0 0 0-.14.235.286.286 0 0 0 .121.246.598.598 0 0 1-.019.982l-.124.085s-1.344-.738-1.394-.805c0 0-.254.089-.374.135a.96.96 0 0 1-.13.039 2.758 2.758 0 0 1-1.938-.25.864.864 0 0 0-.66-.24.873.873 0 0 0-.626.322c-.026.024-.048.046-.068.063-.165.14-.137.916-.123 1.288v.3c0 .025-.465.366-.465.366a2.108 2.108 0 0 1-1.036.348 2.062 2.062 0 0 1-1.38-.551l-.059-.042a1.09 1.09 0 0 1-.52-.816s.136-1.581-1.062-.961c-.176.09-.325.178-.458.256a1.339 1.339 0 0 1-1.59.123c-.942-.456-3.409 1.276-3.409 1.276l-.619.384a3.636 3.636 0 0 1-3.7.414 1.567 1.567 0 0 1-.1-.064.513.513 0 0 0-.069-.042c-.543-.291-.77 1.115-.846 1.767l12.148 7.024a1.627 1.627 0 0 0 1.623 0l25.657-14.9c.226-.13.416-.313.556-.531l.257.126v-3.563l-.115.034Z"/></g><g opacity=".317" fill="#AC64FF"><path opacity=".317" d="M55.994 345.681c.016 0 .033 0 .048-.007-.018.004-.034.002-.048.007ZM56.535 345.641c-.047 0-.092-.014-.14-.014.046 0 .092.011.14.014ZM57.23 345.846a1.617 1.617 0 0 0-.43-.17c.149.043.293.1.43.17ZM54.963 346.226l.02-.014.617-.367-25.28 15.109 24.6-14.706.043-.022ZM82.585 360.507c-.018-.011-.03-.027-.048-.037l-.217-.126c.107.066.2.121.265.163ZM57.98 346.28l-.078-.045.01.006.067.039ZM30.894 364.096l-.257-.146.815.471-.25-.148-.1-.058a7.28 7.28 0 0 0-.208-.119ZM34.649 366.269a8.433 8.433 0 0 0-1.12-.671l-.211-.111a51.833 51.833 0 0 1-.48-.265l1.81 1.047ZM40.97 369.924a12.89 12.89 0 0 0-1.14-.658l1.14.658ZM82.667 360.568c.133.166.25.344.352.53a1.657 1.657 0 0 1-.57 2.235l.09-.052a1.606 1.606 0 0 0 .648-2.105 1.612 1.612 0 0 0-.519-.609v.001Z"/><path d="M74.407 365.983c-.221.139-.614-.1-.964-.317l-.037-.023c-.36-.22-1.186.467-1.578.806a.7.7 0 0 0-.213.49 1.083 1.083 0 0 1-.488.92 1.629 1.629 0 0 0-1.192-.571 10.64 10.64 0 0 0-4.555.763c-.58.3-1.073.563-1.486.787a.292.292 0 0 0-.14.236.288.288 0 0 0 .12.245.604.604 0 0 1 .173.772.605.605 0 0 1-.191.21l-.124.085s-1.344-.738-1.394-.805c0 0-.254.089-.374.135a.742.742 0 0 1-.13.039 2.758 2.758 0 0 1-1.938-.25.88.88 0 0 0-1.286.082c-.026.024-.048.046-.068.063-.165.14-.137.916-.123 1.288v.3c0 .025-.465.366-.465.366a2.089 2.089 0 0 1-1.036.348 2.057 2.057 0 0 1-1.38-.551l-.06-.042a1.087 1.087 0 0 1-.52-.816s.137-1.581-1.061-.961c-.176.09-.325.178-.458.256a1.34 1.34 0 0 1-1.59.123c-.942-.456-3.41 1.276-3.41 1.276l-.618.384a4.391 4.391 0 0 1-2.641.742l10.073 5.825a1.617 1.617 0 0 0 1.623 0l20.838-12.1c-.954-.231-2.622-.533-3.307-.105Z"/><path opacity=".317" d="M29.895 363.392c.118.149.263.276.427.375l.274.159a2.719 2.719 0 0 1-.701-.534ZM29.748 363.199l-.037-.056c.02.038.048.071.07.107l-.033-.051Z"/></g><path opacity=".318" fill-rule="evenodd" clip-rule="evenodd" d="m71.21 366.449-5.572-3.212a.78.78 0 0 0-.772 0l-5.577 3.212a.769.769 0 0 0-.385.667.77.77 0 0 0 .385.667l5.572 3.21a.773.773 0 0 0 .774 0l.628-.362a.744.744 0 0 0 .168-.074l4.77-2.744a.776.776 0 0 0 .393-.677v-.021a.773.773 0 0 0-.383-.666Z" fill="#AC64FF"/><path opacity=".318" d="M65.062 371.156a.368.368 0 0 0 .361 0l5.006-2.893.53-.312-5.534-3.206a.355.355 0 0 0-.359 0l-5.537 3.171.54.346 4.993 2.894Z" fill="#6800E8"/><path opacity=".318" fill-rule="evenodd" clip-rule="evenodd" d="m53.105 366.544-5.573-3.211a.78.78 0 0 0-.772 0l-5.574 3.211a.774.774 0 0 0-.282 1.053.774.774 0 0 0 .282.282l5.57 3.21a.773.773 0 0 0 .775 0l.629-.362a.78.78 0 0 0 .167-.073l4.77-2.744a.78.78 0 0 0 .393-.677v-.021a.77.77 0 0 0-.385-.668Z" fill="#AC64FF"/><path opacity=".457" fill-rule="evenodd" clip-rule="evenodd" d="m62.087 371.705-5.574-3.211a.78.78 0 0 0-.771 0l-5.575 3.211a.773.773 0 0 0-.28 1.052.773.773 0 0 0 .28.282l5.572 3.211a.773.773 0 0 0 .774 0l.629-.362a.736.736 0 0 0 .166-.073l4.77-2.744a.778.778 0 0 0 .393-.678v-.021a.771.771 0 0 0-.384-.667Z" fill="#AC64FF"/><path opacity=".318" d="M55.937 376.41a.359.359 0 0 0 .361 0l5-2.893.53-.312-5.534-3.206a.364.364 0 0 0-.359 0l-5.537 3.171.54.346 5 2.894Z" fill="#6800E8"/><path opacity=".318" fill-rule="evenodd" clip-rule="evenodd" d="M42.438 376.815c-.046.1-.09.2-.128.317a.984.984 0 0 0 .252 1.189c.183.042.369.08.559.115.42-.076.79-.5.481-1.3a2.023 2.023 0 0 0-.127-.251 1.98 1.98 0 0 1-.276-.722 8.174 8.174 0 0 1-.125-1.913c0-.092.008-.186.01-.291.028-.361.233-2.372.871-2.031a.857.857 0 0 1 .07.042c.032.022.067.043.1.064a3.624 3.624 0 0 0 3.7-.414l.618-.384s2.468-1.732 3.41-1.276a1.338 1.338 0 0 0 1.59-.123c.134-.078.282-.166.457-.256 1.2-.62 1.063.961 1.063.961a1.087 1.087 0 0 0 .52.816l.059.042c.375.349.867.546 1.38.551.37-.022.727-.142 1.036-.348 0 0 .462-.341.465-.366.002-.025 0-.269 0-.294v-.01c-.015-.372-.043-1.148.122-1.288l.069-.063a.872.872 0 0 1 .98-.271.895.895 0 0 1 .306.189 2.748 2.748 0 0 0 1.938.25.74.74 0 0 0 .13-.039c.12-.046.37-.14.373-.135.05.067 1.395.805 1.395.805l.123-.085a.596.596 0 0 0 .203-.764.604.604 0 0 0-.183-.218.28.28 0 0 1-.122-.245.288.288 0 0 1 .14-.236c.413-.224.908-.49 1.486-.787 1.445-.585 3-.845 4.556-.763a1.641 1.641 0 0 1 1.192.571 1.072 1.072 0 0 0 .487-.92.7.7 0 0 1 .214-.49c.39-.339 1.218-1.026 1.578-.806l.037.023c.35.215.742.456.963.317.984-.618 4.019.283 4.019.283l1.968-1.727 2-1.164a1.65 1.65 0 0 0 .787-1.007 1.665 1.665 0 0 0-.16-1.269 2.836 2.836 0 0 0-.383-.561c-1.709-1.089-24.726-14.3-24.726-14.3-.155-.1-.3-.184-.434-.261l-.248-.133a2.484 2.484 0 0 0-.456-.18 1.633 1.633 0 0 0-.784.014c-.12.037-.237.084-.35.14l-.046.03-.614.367-.02.014-.04.022-24.6 14.706a1.63 1.63 0 0 0-.813 1.407 1.15 1.15 0 0 0 .242.838l.095.14c.298.318.654.575 1.048.758.08.044.152.085.21.119l.1.058c.23.136.445.262.532.326.457.265 1.015.581 1.582.887l.21.111a4.96 4.96 0 0 1 2.108 1.721l.04.061c.152.224.288.458.407.7l.147.306c.267.558.334.7.51.853.2.179.417.077.623-.179.637-.786 2.227-.03 3.663.9 1.053.68 1.505 2.615 1.788 4a4.526 4.526 0 0 1-.148 2.2 3.49 3.49 0 0 1-.23.657Z" fill="url(#af)"/><path fill-rule="evenodd" clip-rule="evenodd" d="M42.438 376.815c-.046.1-.09.2-.128.317a.984.984 0 0 0 .252 1.189c.183.042.369.08.559.115.42-.076.79-.5.481-1.3a2.023 2.023 0 0 0-.127-.251 1.98 1.98 0 0 1-.276-.722 8.174 8.174 0 0 1-.125-1.913c0-.092.008-.186.01-.291.028-.361.233-2.372.871-2.031a.857.857 0 0 1 .07.042c.032.022.067.043.1.064a3.624 3.624 0 0 0 3.7-.414l.618-.384s2.468-1.732 3.41-1.276a1.338 1.338 0 0 0 1.59-.123c.134-.078.282-.166.457-.256 1.2-.62 1.063.961 1.063.961a1.087 1.087 0 0 0 .52.816l.059.042c.375.349.867.546 1.38.551.37-.022.727-.142 1.036-.348 0 0 .462-.341.465-.366.002-.025 0-.269 0-.294v-.01c-.015-.372-.043-1.148.122-1.288l.069-.063a.872.872 0 0 1 .98-.271.895.895 0 0 1 .306.189 2.748 2.748 0 0 0 1.938.25.74.74 0 0 0 .13-.039c.12-.046.37-.14.373-.135.05.067 1.395.805 1.395.805l.123-.085a.596.596 0 0 0 .203-.764.604.604 0 0 0-.183-.218.28.28 0 0 1-.122-.245.288.288 0 0 1 .14-.236c.413-.224.908-.49 1.486-.787 1.445-.585 3-.845 4.556-.763a1.641 1.641 0 0 1 1.192.571 1.072 1.072 0 0 0 .487-.92.7.7 0 0 1 .214-.49c.39-.339 1.218-1.026 1.578-.806l.037.023c.35.215.742.456.963.317.984-.618 4.019.283 4.019.283l1.968-1.727 2-1.164a1.65 1.65 0 0 0 .787-1.007 1.665 1.665 0 0 0-.16-1.269 2.836 2.836 0 0 0-.383-.561c-1.709-1.089-24.726-14.3-24.726-14.3-.155-.1-.3-.184-.434-.261l-.248-.133a2.484 2.484 0 0 0-.456-.18 1.633 1.633 0 0 0-.784.014c-.12.037-.237.084-.35.14l-.046.03-.614.367-.02.014-.04.022-24.6 14.706a1.63 1.63 0 0 0-.813 1.407 1.15 1.15 0 0 0 .242.838l.095.14c.298.318.654.575 1.048.758.08.044.152.085.21.119l.1.058c.23.136.445.262.532.326.457.265 1.015.581 1.582.887l.21.111a4.96 4.96 0 0 1 2.108 1.721l.04.061c.152.224.288.458.407.7l.147.306c.267.558.334.7.51.853.2.179.417.077.623-.179.637-.786 2.227-.03 3.663.9 1.053.68 1.505 2.615 1.788 4a4.526 4.526 0 0 1-.148 2.2 3.49 3.49 0 0 1-.23.657Z" fill="#AC64FF"/><path opacity=".278" fill-rule="evenodd" clip-rule="evenodd" d="m62.326 350.922-5.573-3.211a.77.77 0 0 0-.772 0l-5.574 3.211a.766.766 0 0 0-.385.667.77.77 0 0 0 .385.668l5.572 3.21a.773.773 0 0 0 .774 0l.628-.362a.784.784 0 0 0 .168-.073l4.77-2.744a.786.786 0 0 0 .393-.677v-.022a.774.774 0 0 0-.386-.667ZM71.308 356.13l-5.573-3.211a.77.77 0 0 0-.772 0l-5.574 3.211a.766.766 0 0 0-.385.667.77.77 0 0 0 .385.668l5.572 3.21a.77.77 0 0 0 .773 0l.63-.362a.85.85 0 0 0 .167-.073l4.77-2.744a.785.785 0 0 0 .392-.677v-.023a.777.777 0 0 0-.385-.666ZM62.277 361.337l-5.573-3.211a.77.77 0 0 0-.772 0l-5.574 3.211a.766.766 0 0 0-.385.667.77.77 0 0 0 .385.668l5.57 3.21a.772.772 0 0 0 .775 0l.629-.362a.847.847 0 0 0 .168-.073l4.77-2.744a.782.782 0 0 0 .392-.677v-.021a.772.772 0 0 0-.385-.668ZM71.212 366.449l-5.573-3.211a.78.78 0 0 0-.772 0l-5.577 3.211a.776.776 0 0 0-.28 1.053.766.766 0 0 0 .28.282l5.572 3.21a.773.773 0 0 0 .774 0l.628-.362a.744.744 0 0 0 .168-.074l4.77-2.744a.776.776 0 0 0 .393-.677v-.021a.771.771 0 0 0-.383-.667ZM53.104 366.544l-5.573-3.211a.78.78 0 0 0-.772 0l-5.574 3.211a.773.773 0 0 0-.281 1.052.773.773 0 0 0 .281.282l5.571 3.211a.773.773 0 0 0 .774 0l.63-.362a.783.783 0 0 0 .166-.073l4.77-2.744a.779.779 0 0 0 .393-.677v-.021a.77.77 0 0 0-.385-.668ZM80.194 361.289l-5.576-3.212a.78.78 0 0 0-.772 0l-5.575 3.211a.772.772 0 0 0 0 1.334l5.572 3.211a.773.773 0 0 0 .774 0l.628-.362a.741.741 0 0 0 .168-.073l4.77-2.744a.779.779 0 0 0 .393-.678v-.02a.768.768 0 0 0-.382-.667ZM53.343 356.13l-5.573-3.211a.77.77 0 0 0-.772 0l-5.574 3.211a.767.767 0 0 0-.385.667.77.77 0 0 0 .385.668l5.572 3.21a.772.772 0 0 0 .774 0l.628-.362a.847.847 0 0 0 .168-.073l4.77-2.744a.786.786 0 0 0 .393-.677v-.023a.773.773 0 0 0-.386-.666ZM44.265 361.481l-5.573-3.211a.77.77 0 0 0-.772 0l-5.574 3.211a.767.767 0 0 0-.385.667.77.77 0 0 0 .385.668l5.571 3.21a.773.773 0 0 0 .774 0l.628-.362a.788.788 0 0 0 .168-.073l4.77-2.744a.786.786 0 0 0 .393-.677v-.021a.772.772 0 0 0-.385-.668Z" fill="#2A2D36"/><g opacity=".504" fill="#2A2D36"><path opacity=".504" d="M56.177 355.627a.358.358 0 0 0 .36 0l5.007-2.892.529-.312-5.534-3.205a.356.356 0 0 0-.36 0l-5.536 3.171.538.346 4.996 2.892ZM65.16 360.835a.368.368 0 0 0 .361 0l5-2.892.53-.312-5.533-3.205a.356.356 0 0 0-.36 0l-5.537 3.171.54.346 5 2.892ZM56.129 366.042a.358.358 0 0 0 .36 0l5-2.892.53-.312-5.532-3.205a.356.356 0 0 0-.36 0l-5.537 3.171.539.346 5 2.892ZM65.062 371.155a.368.368 0 0 0 .361 0l5.006-2.893.53-.312-5.534-3.206a.355.355 0 0 0-.359 0l-5.537 3.171.54.346 4.993 2.894ZM46.955 371.25a.359.359 0 0 0 .362 0l5-2.892.529-.312-5.528-3.206a.354.354 0 0 0-.359 0l-5.541 3.172.539.346 4.998 2.892Z"/><path d="M55.937 376.411a.358.358 0 0 0 .361 0l5-2.893.53-.312L56.293 370a.354.354 0 0 0-.359 0l-5.537 3.171.54.346 5 2.894Z"/><path opacity=".504" d="M74.046 365.995a.36.36 0 0 0 .362 0l5-2.892.529-.312-5.533-3.206a.354.354 0 0 0-.36 0l-5.536 3.171.539.347 4.999 2.892ZM47.194 360.835a.368.368 0 0 0 .361 0l5.006-2.892.53-.312-5.53-3.205a.356.356 0 0 0-.36 0l-5.54 3.171.537.346 4.996 2.892ZM38.116 366.186a.36.36 0 0 0 .362 0l5-2.892.53-.312-5.534-3.205a.354.354 0 0 0-.359 0l-5.537 3.171.54.346 4.998 2.892Z"/></g></g><path d="m376.75 378.457 6.158 5.591 4.8-5.29-6.031-5.962-4.927 5.661Z" fill="#D8DFE5"/><path d="m417.686 388.723-3.25-7.354-4.276-1.289c-2.6-4.543-3.235-9.158-7.242-12.658s-6.815-5.643-12.239-4.666c-6.815 1.228-11.906 9.536-11.906 9.536l8.16 8.867s2.743-3.79 4.216-3.34c1.473.45 1.48 5.075 1.69 6.523.873 6.036-.453 15.97-.53 22.08l25.377-17.699Z" fill="#2F2F38"/><path d="m401.446 350.652-3.5-5.213-7.268 3.4 3.431 5.546 7.337-3.733Z" fill="#D8DFE5"/><path d="M362.845 500.906c3.761-2.617 3.678-8.04 3.017-12.365-1.001.084-2.007.07-3.006-.042a4.247 4.247 0 0 1-1.71-.484 10.096 10.096 0 0 1-1.917-2.069 6.406 6.406 0 0 0-6.565-1.537 16.156 16.156 0 0 0-6.027 3.867 8.455 8.455 0 0 0-2.909 4.191c-.388 1.741.555 3.942 2.174 4.058 1.825.131 3.177-2.269 5.005-2.2 1.942.068 2.805 2.646 4.132 4.215 1.881 2.225 4.928 2.458 7.701 2.484a.34.34 0 0 1 .105-.118Z" fill="url(#ag)"/><path d="M378.268 481.808a11.535 11.535 0 0 0 5.682 3.956 28.05 28.05 0 0 0 5.541 1.454c6.3-11.655 2.257-26.228 2.061-26.915a6.223 6.223 0 0 0-7.693-4.269 6.218 6.218 0 0 0-4.269 7.693c.034.12 2.966 11.032-1.322 18.081Z" fill="#F2EDDC"/><path d="M378.312 481.737a11.88 11.88 0 0 1-1.086 1.538c-2.893 3.446-7.946 5.151-15.048 5.1-.377 4.167-1 8.308-1.867 12.4.722.027 1.436.045 2.135.045 10.826 0 18.987-3.2 24.31-9.537a24.076 24.076 0 0 0 2.821-4.211 24.651 24.651 0 0 1-11.265-5.335Z" fill="url(#ah)"/><path d="m402.583 349.3-11.98 6.194s8.306 14.721 6.048 29.051c-.278 1.763-.075 3.64-.939 5.242-.976 1.811-2.809 3.044-4.471 4.337-7.057 5.49-6.716 9.4-8.46 17.84 17.259 0 29.8-.491 40.275-.136-.654-49.88-20.473-62.528-20.473-62.528Z" fill="#27272D"/><path d="M383.554 471.219c34.768 3.788 44.124-23.3 41.4-47.759-23.708-5.874-50.453-7.309-50.453-7.309s-3.689 10.046-3.494 16.87" fill="#EDCF00"/><mask id="ai" style="mask-type:alpha" maskUnits="userSpaceOnUse" x="371" y="416" width="55" height="56"><path d="M383.554 471.219c34.768 3.788 44.124-23.3 41.4-47.759-23.708-5.874-50.453-7.309-50.453-7.309s-3.689 10.046-3.494 16.87" fill="#F7D600"/></mask><g mask="url(#ai)" stroke="#E69C31" stroke-width="4" stroke-miterlimit="10"><path d="M387.957 424.224c16.532-.887 31.161 1.145 40.108 5.029M389.576 429.254c18.835 0 29.677 3.172 37.67 6.363"/></g><path d="M309.98 435.64s13-4.986 20-7.164c6.738-2.064 14.767-4.188 23.4-6.107 8.633-1.919 16.865-3.408 23.788-4.38 7.26-.99 21.317-1.223 21.317-1.223l.781 3.509c.684 3.077-18.57 10.02-42.975 15.443s-44.68 7.266-45.364 4.189l-.947-4.267Z" fill="#262223"/><path d="M388.784 410.654h34.382v12.363c-5.71-.797-35.207-4.679-35.207-4.679l.825-7.684Z" fill="#F2EDDC"/><path d="M423.374 410.654h-34.591v3.766h34.591v-3.766Z" fill="#060608"/><path d="m375.031 460.308 17.164-6.739s5.862 9.1 3.784 12.928c-2.078 3.828-13.2-.578-13.2-.578l-7.748-5.611Z" fill="#F2EDDC"/><path d="m372.412 460.308 14.55-6.739 3.326 5.245a6.001 6.001 0 0 1-2.175 8.47l-15.7 8.638-.001-15.614Z" fill="url(#aj)"/><path d="m368.344 375.353-1.783 2.8 8.335 5.308 3.036-.033-.89 1.4 3.973 2.53s.593-1.173 1.6-3.062l-14.271-8.943Z" fill="#060608"/><path d="m383.339 384.839-2.249 2.5-3.973-2.53.743-1.167 1.647-1.246 3.832 2.443ZM402.737 343.208a.353.353 0 0 0-.056.014l-2.369 1.109-1.176 2.879-7.269 3.932-1.826-2c-.515-2.011-.752-3.3-.752-3.3l3.975-1.864.68 1.453 1.674-2.555 8.35-3.91 1.408 3.005-2.639 1.237Z" fill="#060608"/><path d="m401.164 343.943 4.211-1.972-1.409-3.008-5.06 2.37 1.408 3.006.852-.4" fill="#060608"/><path d="M389.686 415.252a20.748 20.748 0 0 0-10.669-11.755 20.741 20.741 0 0 0-15.855-.766c-.108.024-.2.1-.312.125l-29.9 11.291a21.115 21.115 0 0 0-12.112 26.83l71.399-16.386c-.466-3.369-1.438-6.127-2.549-9.341" fill="url(#ak)"/><path d="M320.836 440.978c.016.113.059.22.126.312l3.78 9.87 35.2-7.823a18.364 18.364 0 0 1 21.911 13.947l.011.05 1.68 7.559.066.042a61.726 61.726 0 0 0 8.507-39.741l-71.269 15.841-.012-.057Z" fill="url(#al)"/><path d="M334.125 467.659a11.06 11.06 0 0 0 7.724-15.26 11.064 11.064 0 0 0-16.474-4.598 11.068 11.068 0 0 0-2.709 15.409 11.07 11.07 0 0 0 11.459 4.449Z" fill="url(#am)"/><path d="M332.293 471.637c.364.95.778 1.879 1.242 2.784a20.894 20.894 0 0 0 10.475 9.4c4.188 1.506 9.245 1.572 15.118.21 11.13-2.19 18.587-10.7 24.407-19.193l-1.68-7.559a18.437 18.437 0 0 0-21.922-14l-35.206 7.824 7.566 20.534Z" fill="#FF9666"/><path d="M354.715 474.044a5.87 5.87 0 0 1-7-4.452l11.5-2.556a5.842 5.842 0 0 1-4.413 6.987l-.093.02" fill="#fff"/><path d="M320.127 438.583c.2.924-.006 2.088 9.92 0l44.126-9.806c3.092-.682 8 9.052 10.114 11.413l9.144-5.261c-.18-4.133-1.056-11.971-2.4-16.004l-70.904 19.658Z" fill="url(#an)"/><path d="M391.163 455.323a11.088 11.088 0 0 0 8.672-8.757 11.093 11.093 0 1 0-21.758.106l.036.162a11.007 11.007 0 0 0 4.76 6.947 10.994 10.994 0 0 0 8.277 1.545l.013-.003Z" fill="url(#ao)"/><path d="M391.114 443.382a2.775 2.775 0 0 0-.846-5.081 4.491 4.491 0 0 0-3.426.648c-2.171 1.446-2.472 3.156-1.872 5.856a6.66 6.66 0 0 0 2.513 3.918l-.1-.432c-.436-1.717 1.735-3.672 3.726-4.908" fill="#FF9666"/><path d="M358.834 447.478a4.483 4.483 0 0 1 5.375 3.358l.007.035.756 3.4a4.515 4.515 0 0 1-1.818 4.683 4.526 4.526 0 0 1-5.022.112 4.523 4.523 0 0 1-1.986-2.834l-.756-3.4a4.52 4.52 0 0 1 3.443-5.354" fill="#262223"/><path d="m387.183 411.909-31.751 2.552-7.995 1.51-31.956 5.147 3.73 16.81c1.93 8.361 10.052 11.977 18.411 10.047l30.998-7.156-1.43-6.191a14.474 14.474 0 0 0 2.214 1.707c3.207 2.017 11.633 1.616 11.633 1.616 1.254-2.985 3.532-4.097 6.733-4.58l1.802-1.488c1.592-.368-2.389-19.974-2.389-19.974Z" fill="url(#ap)"/><path d="m387.183 411.909-31.751 2.552-7.995 1.51-31.956 5.147 3.73 16.81c1.93 8.361 10.052 11.977 18.411 10.047l30.998-7.156-1.43-6.191a14.474 14.474 0 0 0 2.214 1.707c3.207 2.017 11.633 1.616 11.633 1.616 1.254-2.985 3.532-4.097 6.733-4.58l1.802-1.488c1.592-.368-2.389-19.974-2.389-19.974Z" fill="#000" fill-opacity=".2"/><path d="M338.895 451.91a4.493 4.493 0 0 1 3.383.566 4.477 4.477 0 0 1 1.992 2.792l.008.035.756 3.4a4.512 4.512 0 0 1-.57 3.441 4.52 4.52 0 0 1-7.557.156 4.53 4.53 0 0 1-.699-1.636l-.756-3.4a4.555 4.555 0 0 1 3.444-5.354" fill="#262223"/><path d="M352.827 419.605c-24.406 5.424-43.66 12.365-42.975 15.442l.024.108a3.267 3.267 0 0 0 3.894 2.478 4.82 4.82 0 0 0 .839-.3l.054-.012a105.686 105.686 0 0 1 15.941-6.035c6.738-2.064 14.767-4.188 23.4-6.107 8.633-1.919 16.866-3.407 23.788-4.38a105.985 105.985 0 0 1 17-1.284l.173.018a3.272 3.272 0 0 0 3.384-3.132 4.324 4.324 0 0 0-.072-.834l-.024-.108c-.7-3.13-21.024-1.276-45.428 4.147" fill="#FFF100"/><path d="m399.202 419.727-.96-4.32c-.66-2.97-19.679-1.35-42.987 3.66l-2.538.565c-24.3 5.4-43.552 12.341-42.867 15.418l.96 4.32a.954.954 0 0 0 .329.72c.042-.066.138-.144.18-.21a9.815 9.815 0 0 1 3.409-2.513c1.836-.918 3.7-1.728 5.567-2.484a6.968 6.968 0 0 1 7.056 1.152 9.645 9.645 0 0 0 8.388 2.046l23.812-5.292a14.508 14.508 0 0 0 8.087-4.914l2.826-3.348a8.069 8.069 0 0 1 4.392-2.676c4.657-.978 7.841-1.686 8.34-1.74a79.596 79.596 0 0 1 11.6-.594 10.041 10.041 0 0 1 4.4.948.803.803 0 0 0 .007-.739" fill="#FFF100"/><path d="M357.465 376.356a41.456 41.456 0 0 1 35.374 32.2l1.272 5.724c-3.912-.264-10.259.24-18.112 1.361-.187-1.092-.438-2.225-.69-3.359-3.281-15.023-9.977-27.815-17.843-35.926" fill="url(#aq)"/><path d="M311.844 426.555a41.354 41.354 0 0 1 3.509-27.808 86.22 86.22 0 0 0 1.865 26.5c.348 1.566.75 3.12 1.152 4.673a38.704 38.704 0 0 0-5.189 2.4l-1.337-5.765Z" fill="url(#ar)"/><path d="M315.354 398.746a41.514 41.514 0 0 1 42.11-22.391c7.878 8.165 14.561 20.9 17.909 35.967.252 1.134.492 2.214.69 3.36-6.155.858-13.181 2.136-20.645 3.737l-2.484.552c-14.256 3.168-26.699 6.839-34.507 9.936a69.75 69.75 0 0 1-1.207-4.661 86.22 86.22 0 0 1-1.866-26.5Z" fill="#FFF100"/><path d="m330.921 398.064-.972-16.613a3.09 3.09 0 0 1 1.608-2.964 41.768 41.768 0 0 1 22.883-5.141 3.104 3.104 0 0 1 2.712 2l6.167 15.515" fill="#FFF100"/><path d="m346.713 421.298-1.656-7.451 8.069-7.8-6.413 15.251ZM334.443 410.198l10.613 3.648 1.656 7.451-12.269-11.099ZM341.829 399.322l-8.153 7.421 5.993-17.141 2.16 9.72ZM339.67 389.603l12.689 12.989-10.529-3.27-2.16-9.719ZM341.829 399.322l2.4 10.8-10.553-3.378 8.153-7.422Z" fill="#F9C838"/><path d="m334.444 410.199 10.614 3.646 1.656 7.451-12.27-11.097Zm-.767-3.454 8.154-7.424 2.4 10.8-10.554-3.376Zm5.992-17.143 2.161 9.719-8.154 7.424 5.993-17.143Z" fill="#0A0A0A"/><path d="m352.304 402.604-8.141 7.474-2.388-10.745 10.529 3.271Z" fill="#F9C838"/><path d="m346.713 421.298-1.656-7.451 8.069-7.8-6.413 15.251ZM341.776 399.332l10.53 3.27-8.143 7.477-2.387-10.747Zm.054-.01-2.16-9.721 12.69 12.988-10.53-3.267Z" fill="#4B4D4D"/><path d="M382.566 500.79c3.761-2.617 3.602-7.924 2.941-12.249-1.001.084-2.008.07-3.006-.042a4.256 4.256 0 0 1-1.711-.484 10.124 10.124 0 0 1-1.917-2.069 6.405 6.405 0 0 0-6.564-1.537 16.148 16.148 0 0 0-6.027 3.867 8.451 8.451 0 0 0-2.91 4.191c-.388 1.741.556 3.942 2.175 4.058 1.825.131 3.177-2.269 5.005-2.2 1.942.068 2.805 2.646 4.132 4.215 1.881 2.225 4.055 2.264 6.828 2.29.025-.047 1.01-.01 1.054-.04Z" fill="#FF9666"/><path d="M397.912 481.808a11.54 11.54 0 0 0 5.682 3.956 28.068 28.068 0 0 0 5.541 1.454c6.3-11.655 2.257-26.228 2.061-26.915a6.224 6.224 0 0 0-7.693-4.269 6.224 6.224 0 0 0-4.469 5.274 6.213 6.213 0 0 0 .2 2.419c.034.12 2.966 11.032-1.322 18.081Z" fill="#F2EDDC"/><path d="M397.956 481.737a11.88 11.88 0 0 1-1.086 1.538c-2.893 3.446-7.946 5.151-15.048 5.1-.376 4.167-1 8.308-1.867 12.4.722.027 1.436.045 2.135.045 10.826 0 18.987-3.2 24.31-9.537a24.02 24.02 0 0 0 2.821-4.211 24.651 24.651 0 0 1-11.265-5.335Z" fill="#FF9666"/><path d="M371.627 495.132h-60.494a2.945 2.945 0 0 0 0 5.888h60.494a2.944 2.944 0 1 0 0-5.888Z" fill="#4A4D54"/><path d="m290.785 440.865 17.053 58.041a2.945 2.945 0 0 0 5.649-1.66l-17.052-58.041a2.944 2.944 0 0 0-5.65 1.66Z" fill="#4A4D54"/><path d="M310.582 500.364a2.393 2.393 0 1 0 0-4.786 2.393 2.393 0 0 0 0 4.786Z" fill="#8E9094"/><path d="M413.38 459.266c1.723-5.22-.15-10.53-4.182-11.86-4.032-1.331-8.697 1.822-10.419 7.043-1.723 5.22.15 10.53 4.182 11.86 4.032 1.331 8.697-1.823 10.419-7.043Z" fill="#F2EDDC"/><path d="M420.866 407.997h-2.565v6.991h2.565v-6.991ZM401.219 407.997h-2.565v6.991h2.565v-6.991Z" fill="#2F2F38"/><path d="m373.283 378.447 3.853-.967 7.706 4.931-1.5 2.426-10.059-6.39Z" fill="#060608"/><path fill-rule="evenodd" clip-rule="evenodd" d="M208.032 148.133c-33.933 4.435-58.152 9.762-58.511-12.1 0 0 .741-8.473 11.13-9.006a9.002 9.002 0 0 1 8.288-8.374c4.268-.463 9.117 3.932 9.643 8.558 0 0 10.5-1.943 10.955 8.3.16 3.567-.646 9.633-10.773 9.371 0 0-5.859-.8-6.655-9.857-1.649 17.54 23.709 16.522 24.075.589.16-6.887-4.251-13.971-14.188-12.642-5.445-13.7-19.944-12.915-25.342-.207a13.265 13.265 0 0 0-5.254.978 13.304 13.304 0 0 0-7.359 7.449 13.298 13.298 0 0 0-.914 5.267c.295 24.954 35.033 17.429 64.905 11.674Z" fill="#7856A8"/><path d="M282.357 211.815a4.162 4.162 0 0 0-1.057 1.785c-.106.42-.152.853-.137 1.287-.01 3.434 0 6.868-.01 10.3 0 .754-.051 1.506-.1 2.258a1.013 1.013 0 0 1-.424.758 1.022 1.022 0 0 1-.855.156 6.281 6.281 0 0 1-.839-.414 3.838 3.838 0 0 1-1.378-1.4 4.073 4.073 0 0 1-.554-2.068c-.012-4.11-.012-8.218 0-12.325a3.724 3.724 0 0 1 1.053-2.579c.3-.323.633-.616.972-.94a1.386 1.386 0 0 0-.21-.18c-.483-.281-.972-.554-1.457-.833-.4-.23-.79-.467-1.186-.7-.321-.188-.637-.386-.966-.558-.135-.071-.362-.168-.437-.111a6.897 6.897 0 0 0-1.025.922c-.226.257-.336.614-.548.887a2.213 2.213 0 0 0-.425 1.435c-.006 3.531 0 7.062-.012 10.593 0 .806-.059 1.611-.113 2.417a.932.932 0 0 1-.309.726.94.94 0 0 1-.754.236 2.09 2.09 0 0 1-.578-.131 3.529 3.529 0 0 1-1.645-1.334 2.896 2.896 0 0 1-.467-.932 6.5 6.5 0 0 1-.35-1.676 505.35 505.35 0 0 1 0-9.695 9.209 9.209 0 0 1 .168-3.127c.131-.36.214-.74.376-1.085a5.114 5.114 0 0 1 1.333-1.542l.218-.192c-.253-.123-.477-.21-.677-.333-.461-.283-.907-.592-1.37-.871-.3-.182-.62-.323-.924-.491a21.544 21.544 0 0 1-.924-.542.453.453 0 0 0-.621.038 7.321 7.321 0 0 0-1.118 1.215 3.21 3.21 0 0 0-.641 1.906c-.012 3.917 0 7.832-.01 11.749a14.386 14.386 0 0 0 1.38 6.308c.242.491.511.968.806 1.429.43.556.79 1.166 1.239 1.7.322.327.665.633 1.027.914a10.826 10.826 0 0 0 2.306 1.58c.372.19.762.348 1.15.5.19.06.383.109.578.146a2.985 2.985 0 0 0 1.655 0c.218-.065.414-.067.532.182.064.14.145.271.241.39.368.426.73.861 1.132 1.255.477.469.984.909 1.49 1.346.159.112.326.213.5.3.481.3.946.627 1.447.889.394.194.807.348 1.231.459.38.103.768.17 1.16.2.17.012.346-.143.523-.154a2.31 2.31 0 0 0 1.69-1.132c.31-.433.54-.918.679-1.431.169-.6.259-1.22.267-1.843.024-4.087.018-8.175.012-12.262a4.022 4.022 0 0 1 .618-2.215 5.149 5.149 0 0 1 1.229-1.324c.089-.067.182-.127.275-.186l-4.159-2.441a5.042 5.042 0 0 0-1.007.781Z" fill="#7856A8"/><path d="M306.57 221.921c.469-.271.936-.548 1.411-.815.641-.362 1.294-.709 1.934-1.077.592-.342 1.17-.711 1.76-1.059.412-.243.835-.471 1.251-.709.564-.321 1.124-.651 1.692-.964a3.741 3.741 0 0 0 1.33-1.259 2.224 2.224 0 0 0-.186-2.48 6.974 6.974 0 0 0-1.043-1.095 15.495 15.495 0 0 0-6.621-3.21 1.333 1.333 0 0 1-.637-.285 12.185 12.185 0 0 0-3.84-3.074 10.65 10.65 0 0 0-1.308-.552c-2.26-.8-4.702-.933-7.036-.382-.78.243-10.9 5.546-11.579 5.894a7.379 7.379 0 0 0-.329.184l4.159 2.441c.463-.3 8.471-4.808 9.1-5.1a3.808 3.808 0 0 1 3.589.382c.5.287.891.788.784 1.247a1.714 1.714 0 0 1-.808.984c-.588.392-1.239.691-1.851 1.049-.643.374-1.269.776-1.91 1.156-.457.271-.928.521-1.389.784-.4.226-.792.459-1.188.687l-1.469.841a44.72 44.72 0 0 1-.713.4l4.188 2.458s7.506-4.248 7.907-4.5a6.798 6.798 0 0 1 3.331-.778c.73.06 1.418.362 1.956.859a.925.925 0 0 1 .377.771.932.932 0 0 1-.411.753c-.675.521-1.413.964-2.138 1.419-.424.265-.873.489-1.308.734-.5.279-1 .56-1.494.839-.691.392-1.384.782-2.074 1.176-.192.111-.378.232-.568.346-.386.234-.786.447-1.154.709-.065.048-.131.1-.2.148l4.141 2.431c.354-.206.73-.38 1.063-.62.404-.276.855-.488 1.281-.733Z" fill="#7856A8"/><path d="M299.293 221.534a5.033 5.033 0 0 0-.926 1.239 4.408 4.408 0 0 0-.313 1.866c.014 3.81 0 7.618.01 11.429a2.782 2.782 0 0 1-.408 1.68.721.721 0 0 1-.58.372 2.12 2.12 0 0 1-1.372-.439 3.759 3.759 0 0 1-1.376-1.526 3.065 3.065 0 0 1-.511-1.494.774.774 0 0 0-.445-.762c-.564-.346-1.156-.651-1.734-.976-.641-.36-1.281-.724-2.013-1.14.071.687.109 1.289.2 1.88.088.489.203.974.344 1.451.087.309.214.606.327.9.147.46.321.911.523 1.35.301.551.633 1.086.994 1.6.295.449.62.877.974 1.281.369.395.764.766 1.18 1.112.404.352.828.681 1.269.986.401.258.819.489 1.251.691a5.19 5.19 0 0 0 2.072.536 3.13 3.13 0 0 0 1.653-.323 2.9 2.9 0 0 0 1.164-1.421 6.307 6.307 0 0 0 .536-2.718c-.008-3.862-.008-7.724 0-11.587a4.802 4.802 0 0 1 1.227-3.533c.249-.294.552-.537.893-.715l-4.141-2.431a5.42 5.42 0 0 0-.798.692ZM320.663 246.219a9.254 9.254 0 0 0-.952-2.682 7.318 7.318 0 0 0-1.239-1.855 8.845 8.845 0 0 0-1.18-1.174c-.671-.485-1.405-.883-2.12-1.306-.546-.325-1.106-.627-1.657-.944-.36-.2-.732-.392-1.069-.629a4.49 4.49 0 0 1-1.441-1.669 4.39 4.39 0 0 1-.228-.653 3.338 3.338 0 0 1-.038-2.066.874.874 0 0 1 .814-.614c.459-.012.911.111 1.3.354.659.366 1.29.786 1.946 1.162.656.376 1.356.736 2.025 1.12.61.35 1.2.734 1.809 1.087.721.418 1.451.817 2.179 1.223.079.036.159.067.241.093a.48.48 0 0 0 .042-.111c0-1.486.006-2.973 0-4.459a.237.237 0 0 0-.081-.18 192.23 192.23 0 0 0-2.14-1.285c-.466-.273-.937-.54-1.411-.8-.323-.176-.661-.321-.98-.5-.538-.309-1.061-.643-1.6-.958-.315-.184-.645-.344-.968-.521-.661-.364-1.3-.762-1.985-1.087a4.746 4.746 0 0 0-1.425-.469 3.395 3.395 0 0 0-2.092.172c-.341.13-.656.321-.928.564a4.22 4.22 0 0 0-.98 2.433c-.047.768-.024 1.54-.022 2.31-.006.224.012.448.053.667.121.552.253 1.1.408 1.647.11.459.261.907.451 1.338.3.624.657 1.223 1.017 1.815.278.463.584.908.918 1.332a12.312 12.312 0 0 0 2.217 2.2c.58.433 1.172.853 1.781 1.243.368.238.788.39 1.166.614.566.307 1.067.72 1.475 1.217.257.328.477.683.657 1.057.317.721.411 1.52.269 2.294a1.137 1.137 0 0 1-.536.742 1.127 1.127 0 0 1-.909.101c-.8-.39-1.577-.843-2.365-1.269-.174-.093-.36-.166-.527-.271-.43-.271-.841-.57-1.277-.825-.932-.544-1.876-1.069-2.815-1.6-.515-.293-1.025-.59-1.54-.879-.131-.073-.273-.127-.412-.188a.527.527 0 0 0-.038.1c0 1.486-.008 2.973 0 4.459a.389.389 0 0 0 .17.273c.333.208.685.388 1.023.59.641.382 1.273.78 1.92 1.154.732.424 1.477.823 2.213 1.241.574.327 1.142.667 1.718.994.353.16.692.349 1.013.566a6.078 6.078 0 0 0 1.922.859c.7.257 1.457.319 2.189.18a2.58 2.58 0 0 0 1.589-.96c.543-.77.833-1.691.831-2.634a8.661 8.661 0 0 0-.137-3.011 10.705 10.705 0 0 1-.264-1.602Z" fill="#7856A8"/><path d="M293.682 229.241c.046-.051.057-.059.057-.067 0-1.506 0-3.01-.01-4.517a.362.362 0 0 0-.16-.269c-.667-.4-1.342-.786-2.013-1.18-.214-.125-.414-.271-.629-.39-.406-.224-.817-.435-1.269-.673 0 1.574 0 3.092.006 4.61a.314.314 0 0 0 .139.222c.7.424 1.413.839 2.124 1.253.581.338 1.165.67 1.755 1.011Z" fill="#7856A8"/><path d="M375.236 285.225c-.42.353-.826.722-1.211 1.113.391-.385.791-.76 1.211-1.113Z" fill="#BF87FF"/><path d="M403.017 309.751c-6.083 2.014-12.73-.212-17.675-3.593-4.7-3.216-8.7-8.594-8.081-14.568.62-6.013 5.559-9.7 11.442-10.113 3.352-.174 6.682.65 9.567 2.367 3.839 2.048 6.888 7.051 5.006 10.5-3.626 6.635-15.846 1.318-14.876-5.541a3.508 3.508 0 0 1 1.112-2.238c.888-.717.919.259.7.887-.679 1.96.609 3.858 2.14 4.962 2.088 1.5 6.722 2.176 7.913-.883 2.041-5.262-9.559-9.207-13.206-5.688-5.628 5.439.081 11 4.639 13.471 3.835 2.085 10.851 2.944 13.736-1.442 3.4-5.473-2.372-11.682-6.473-14.6.5.278.976.57 1.447.869a20.583 20.583 0 0 0-25.066 1c-.037.03-.07.062-.107.093-.42.353-.819.728-1.211 1.113a18.961 18.961 0 0 0 .434 26.122 32.718 32.718 0 0 0 7.882 5.822c2.041 1.081 3.549 1.593 3.484 2.091-.121.909-2.979-.019-3.831-.31a32.577 32.577 0 0 1-8.509-4.326c-.232-.173-.436-.375-.655-.562a20.623 20.623 0 0 0 15.705 7.274 20.89 20.89 0 0 0 20.715-19.279 9.95 9.95 0 0 1-6.232 6.572Z" fill="#7856A8"/><path d="M375.343 285.13c-.037.03-.072.062-.107.093.037-.029.066-.061.107-.093Z" fill="#BF87FF"/><path d="M401.951 291.929c.585-3.931-2.97-6.631-6.252-7.858-3.869-1.442-8.98-.811-11.8 2.393-2.059 2.353-1.928 5.77-.864 8.535a14.604 14.604 0 0 0 9.46 8.5 16.734 16.734 0 0 0 9.671.351c4.438-1.428 5.882-6.054 4.965-10.292a12.083 12.083 0 0 0-.9-2.653c-.559-1.177-2.278-3.559.091-.661.248.323.475.661.682 1.011.489.801.876 1.66 1.152 2.557 1.291 3.955.278 8.572-3.3 10.96-2.743 1.827-6.228 2.046-9.41 1.588a17.786 17.786 0 0 1-11.076-5.993c-2.553-3.022-4.294-7.364-3.246-11.333a8.814 8.814 0 0 1 2.213-3.746 8.812 8.812 0 0 1 3.736-2.228 13.275 13.275 0 0 1 10.715 1.259 9.472 9.472 0 0 1 3.9 3.938c.373.767.573 1.606.586 2.458a4.87 4.87 0 0 1-.08 1.03c-.022.123-.284.471-.248.185" fill="#7856A8"/><path opacity=".4" d="M193.063 359.717a3.55 3.55 0 0 1-1.747-.473l-3.1-1.776a3.585 3.585 0 0 1-1.8-3.106l.007-13.244-.007-7.48.017.009 6.333 3.751v15.45l6.7 3.694.015.043-4.689 2.668c-.527.3-1.123.459-1.729.464Z" fill="#7856A8"/><path opacity=".8" d="M206.33 352.554v-7.585l-.07-.044-6.754-3.84v.14l.018 15.344" fill="#7856A8"/><path d="m206.216 344.925-6.745-3.84 6.727 3.849.018-.009ZM206.285 337.411h.009l.28-.166-.289.166ZM212.919 341.174l-6.587 3.805v7.576l11.32-6.736a3.426 3.426 0 0 0 1.627-3.106v-3.3a3.529 3.529 0 0 0-1.723-3.106l-4.624-2.674-.009 7.541h-.004Z" fill="#7856A8"/><path opacity=".6" d="m206.328 344.97 6.6-3.805.009-7.532-6.6 3.753" fill="#7856A8"/><path opacity=".6" d="M186.873 326.223a3.651 3.651 0 0 0-.455 1.758v5.59l.017.07 6.334 3.753v15.45l6.749 3.718-.009-15.432 6.824 3.84v-7.637" fill="#7856A8"/><path opacity=".8" d="m206.328 337.388 6.6-3.753-10.183-5.9v-.007l-8-4.6a3.367 3.367 0 0 0-3.456 0l-3.087 1.76a3.627 3.627 0 0 0-1.347 1.344" fill="#7856A8"/><defs><filter id="a" x="34" y="114.356" width="38" height="38" filterUnits="userSpaceOnUse" color-interpolation-filters="sRGB"><feFlood flood-opacity="0" result="BackgroundImageFix"/><feColorMatrix in="SourceAlpha" values="0 0 0 0 0 0 0 0 0 0 0 0 0 0 0 0 0 0 127 0" result="hardAlpha"/><feOffset dy="1"/><feGaussianBlur stdDeviation="4"/><feColorMatrix values="0 0 0 0 0.0156863 0 0 0 0 0.0156863 0 0 0 0 0.0196078 0 0 0 0.4 0"/><feBlend in2="BackgroundImageFix" result="effect1_dropShadow_5731_193467"/><feBlend in="SourceGraphic" in2="effect1_dropShadow_5731_193467" result="shape"/></filter><filter id="b" x="55" y="450.356" width="38" height="38" filterUnits="userSpaceOnUse" color-interpolation-filters="sRGB"><feFlood flood-opacity="0" result="BackgroundImageFix"/><feColorMatrix in="SourceAlpha" values="0 0 0 0 0 0 0 0 0 0 0 0 0 0 0 0 0 0 127 0" result="hardAlpha"/><feOffset dy="1"/><feGaussianBlur stdDeviation="4"/><feColorMatrix values="0 0 0 0 0.0156863 0 0 0 0 0.0156863 0 0 0 0 0.0196078 0 0 0 0.4 0"/><feBlend in2="BackgroundImageFix" result="effect1_dropShadow_5731_193467"/><feBlend in="SourceGraphic" in2="effect1_dropShadow_5731_193467" result="shape"/></filter><filter id="c" x="55" y="471.356" width="59.924" height="38" filterUnits="userSpaceOnUse" color-interpolation-filters="sRGB"><feFlood flood-opacity="0" result="BackgroundImageFix"/><feColorMatrix in="SourceAlpha" values="0 0 0 0 0 0 0 0 0 0 0 0 0 0 0 0 0 0 127 0" result="hardAlpha"/><feOffset dy="1"/><feGaussianBlur stdDeviation="4"/><feColorMatrix values="0 0 0 0 0.0156863 0 0 0 0 0.0156863 0 0 0 0 0.0196078 0 0 0 0.4 0"/><feBlend in2="BackgroundImageFix" result="effect1_dropShadow_5731_193467"/><feBlend in="SourceGraphic" in2="effect1_dropShadow_5731_193467" result="shape"/></filter><filter id="f" x="97" y="450.356" width="38" height="38" filterUnits="userSpaceOnUse" color-interpolation-filters="sRGB"><feFlood flood-opacity="0" result="BackgroundImageFix"/><feColorMatrix in="SourceAlpha" values="0 0 0 0 0 0 0 0 0 0 0 0 0 0 0 0 0 0 127 0" result="hardAlpha"/><feOffset dy="1"/><feGaussianBlur stdDeviation="4"/><feColorMatrix values="0 0 0 0 0.0156863 0 0 0 0 0.0156863 0 0 0 0 0.0196078 0 0 0 0.4 0"/><feBlend in2="BackgroundImageFix" result="effect1_dropShadow_5731_193467"/><feBlend in="SourceGraphic" in2="effect1_dropShadow_5731_193467" result="shape"/></filter><filter id="h" x="118" y="471.356" width="38" height="38" filterUnits="userSpaceOnUse" color-interpolation-filters="sRGB"><feFlood flood-opacity="0" result="BackgroundImageFix"/><feColorMatrix in="SourceAlpha" values="0 0 0 0 0 0 0 0 0 0 0 0 0 0 0 0 0 0 127 0" result="hardAlpha"/><feOffset dy="1"/><feGaussianBlur stdDeviation="4"/><feColorMatrix values="0 0 0 0 0.0156863 0 0 0 0 0.0156863 0 0 0 0 0.0196078 0 0 0 0.4 0"/><feBlend in2="BackgroundImageFix" result="effect1_dropShadow_5731_193467"/><feBlend in="SourceGraphic" in2="effect1_dropShadow_5731_193467" result="shape"/></filter><filter id="j" x="139" y="450.356" width="38" height="38" filterUnits="userSpaceOnUse" color-interpolation-filters="sRGB"><feFlood flood-opacity="0" result="BackgroundImageFix"/><feColorMatrix in="SourceAlpha" values="0 0 0 0 0 0 0 0 0 0 0 0 0 0 0 0 0 0 127 0" result="hardAlpha"/><feOffset dy="1"/><feGaussianBlur stdDeviation="4"/><feColorMatrix values="0 0 0 0 0.0156863 0 0 0 0 0.0156863 0 0 0 0 0.0196078 0 0 0 0.4 0"/><feBlend in2="BackgroundImageFix" result="effect1_dropShadow_5731_193467"/><feBlend in="SourceGraphic" in2="effect1_dropShadow_5731_193467" result="shape"/></filter><filter id="l" x="160" y="429.356" width="38" height="38" filterUnits="userSpaceOnUse" color-interpolation-filters="sRGB"><feFlood flood-opacity="0" result="BackgroundImageFix"/><feColorMatrix in="SourceAlpha" values="0 0 0 0 0 0 0 0 0 0 0 0 0 0 0 0 0 0 127 0" result="hardAlpha"/><feOffset dy="1"/><feGaussianBlur stdDeviation="4"/><feColorMatrix values="0 0 0 0 0.0156863 0 0 0 0 0.0156863 0 0 0 0 0.0196078 0 0 0 0.4 0"/><feBlend in2="BackgroundImageFix" result="effect1_dropShadow_5731_193467"/><feBlend in="SourceGraphic" in2="effect1_dropShadow_5731_193467" result="shape"/></filter><filter id="o" x="454" y="429.356" width="38" height="38" filterUnits="userSpaceOnUse" color-interpolation-filters="sRGB"><feFlood flood-opacity="0" result="BackgroundImageFix"/><feColorMatrix in="SourceAlpha" values="0 0 0 0 0 0 0 0 0 0 0 0 0 0 0 0 0 0 127 0" result="hardAlpha"/><feOffset dy="1"/><feGaussianBlur stdDeviation="4"/><feColorMatrix values="0 0 0 0 0.0156863 0 0 0 0 0.0156863 0 0 0 0 0.0196078 0 0 0 0.4 0"/><feBlend in2="BackgroundImageFix" result="effect1_dropShadow_5731_193467"/><feBlend in="SourceGraphic" in2="effect1_dropShadow_5731_193467" result="shape"/></filter><filter id="r" x="181" y="450.356" width="38" height="38" filterUnits="userSpaceOnUse" color-interpolation-filters="sRGB"><feFlood flood-opacity="0" result="BackgroundImageFix"/><feColorMatrix in="SourceAlpha" values="0 0 0 0 0 0 0 0 0 0 0 0 0 0 0 0 0 0 127 0" result="hardAlpha"/><feOffset dy="1"/><feGaussianBlur stdDeviation="4"/><feColorMatrix values="0 0 0 0 0.0156863 0 0 0 0 0.0156863 0 0 0 0 0.0196078 0 0 0 0.4 0"/><feBlend in2="BackgroundImageFix" result="effect1_dropShadow_5731_193467"/><feBlend in="SourceGraphic" in2="effect1_dropShadow_5731_193467" result="shape"/></filter><filter id="z" x="55" y="114.356" width="38" height="38" filterUnits="userSpaceOnUse" color-interpolation-filters="sRGB"><feFlood flood-opacity="0" result="BackgroundImageFix"/><feColorMatrix in="SourceAlpha" values="0 0 0 0 0 0 0 0 0 0 0 0 0 0 0 0 0 0 127 0" result="hardAlpha"/><feOffset dy="1"/><feGaussianBlur stdDeviation="4"/><feColorMatrix values="0 0 0 0 0.0156863 0 0 0 0 0.0156863 0 0 0 0 0.0196078 0 0 0 0.4 0"/><feBlend in2="BackgroundImageFix" result="effect1_dropShadow_5731_193467"/><feBlend in="SourceGraphic" in2="effect1_dropShadow_5731_193467" result="shape"/></filter><filter id="B" x="55" y="93.356" width="38" height="38" filterUnits="userSpaceOnUse" color-interpolation-filters="sRGB"><feFlood flood-opacity="0" result="BackgroundImageFix"/><feColorMatrix in="SourceAlpha" values="0 0 0 0 0 0 0 0 0 0 0 0 0 0 0 0 0 0 127 0" result="hardAlpha"/><feOffset dy="1"/><feGaussianBlur stdDeviation="4"/><feColorMatrix values="0 0 0 0 0.0156863 0 0 0 0 0.0156863 0 0 0 0 0.0196078 0 0 0 0.4 0"/><feBlend in2="BackgroundImageFix" result="effect1_dropShadow_5731_193467"/><feBlend in="SourceGraphic" in2="effect1_dropShadow_5731_193467" result="shape"/></filter><filter id="D" x="76" y="93.356" width="38" height="38" filterUnits="userSpaceOnUse" color-interpolation-filters="sRGB"><feFlood flood-opacity="0" result="BackgroundImageFix"/><feColorMatrix in="SourceAlpha" values="0 0 0 0 0 0 0 0 0 0 0 0 0 0 0 0 0 0 127 0" result="hardAlpha"/><feOffset dy="1"/><feGaussianBlur stdDeviation="4"/><feColorMatrix values="0 0 0 0 0.0156863 0 0 0 0 0.0156863 0 0 0 0 0.0196078 0 0 0 0.4 0"/><feBlend in2="BackgroundImageFix" result="effect1_dropShadow_5731_193467"/><feBlend in="SourceGraphic" in2="effect1_dropShadow_5731_193467" result="shape"/></filter><filter id="E" x="76.5" y="93.856" width="37" height="37" filterUnits="userSpaceOnUse" color-interpolation-filters="sRGB"><feFlood flood-opacity="0" result="BackgroundImageFix"/><feColorMatrix in="SourceAlpha" values="0 0 0 0 0 0 0 0 0 0 0 0 0 0 0 0 0 0 127 0" result="hardAlpha"/><feOffset dy="1"/><feGaussianBlur stdDeviation="4"/><feColorMatrix values="0 0 0 0 0.0156863 0 0 0 0 0.0156863 0 0 0 0 0.0196078 0 0 0 0.4 0"/><feBlend in2="BackgroundImageFix" result="effect1_dropShadow_5731_193467"/><feBlend in="SourceGraphic" in2="effect1_dropShadow_5731_193467" result="shape"/></filter><filter id="G" x="76" y="135.356" width="38" height="38" filterUnits="userSpaceOnUse" color-interpolation-filters="sRGB"><feFlood flood-opacity="0" result="BackgroundImageFix"/><feColorMatrix in="SourceAlpha" values="0 0 0 0 0 0 0 0 0 0 0 0 0 0 0 0 0 0 127 0" result="hardAlpha"/><feOffset dy="1"/><feGaussianBlur stdDeviation="4"/><feColorMatrix values="0 0 0 0 0.0156863 0 0 0 0 0.0156863 0 0 0 0 0.0196078 0 0 0 0.4 0"/><feBlend in2="BackgroundImageFix" result="effect1_dropShadow_5731_193467"/><feBlend in="SourceGraphic" in2="effect1_dropShadow_5731_193467" result="shape"/></filter><filter id="I" x="97" y="156.356" width="38" height="38" filterUnits="userSpaceOnUse" color-interpolation-filters="sRGB"><feFlood flood-opacity="0" result="BackgroundImageFix"/><feColorMatrix in="SourceAlpha" values="0 0 0 0 0 0 0 0 0 0 0 0 0 0 0 0 0 0 127 0" result="hardAlpha"/><feOffset dy="1"/><feGaussianBlur stdDeviation="4"/><feColorMatrix values="0 0 0 0 0.0156863 0 0 0 0 0.0156863 0 0 0 0 0.0196078 0 0 0 0.4 0"/><feBlend in2="BackgroundImageFix" result="effect1_dropShadow_5731_193467"/><feBlend in="SourceGraphic" in2="effect1_dropShadow_5731_193467" result="shape"/></filter><filter id="K" x="244.994" y="177.972" width="99.951" height="99.786" filterUnits="userSpaceOnUse" color-interpolation-filters="sRGB"><feFlood flood-opacity="0" result="BackgroundImageFix"/><feColorMatrix in="SourceAlpha" values="0 0 0 0 0 0 0 0 0 0 0 0 0 0 0 0 0 0 127 0" result="hardAlpha"/><feOffset dy="1"/><feGaussianBlur stdDeviation="4"/><feColorMatrix values="0 0 0 0 0.0156863 0 0 0 0 0.0156863 0 0 0 0 0.0196078 0 0 0 0.4 0"/><feBlend in2="BackgroundImageFix" result="effect1_dropShadow_5731_193467"/><feBlend in="SourceGraphic" in2="effect1_dropShadow_5731_193467" result="shape"/></filter><filter id="M" x="349.465" y="261.856" width="79.002" height="79" filterUnits="userSpaceOnUse" color-interpolation-filters="sRGB"><feFlood flood-opacity="0" result="BackgroundImageFix"/><feColorMatrix in="SourceAlpha" values="0 0 0 0 0 0 0 0 0 0 0 0 0 0 0 0 0 0 127 0" result="hardAlpha"/><feOffset dy="1"/><feGaussianBlur stdDeviation="4"/><feColorMatrix values="0 0 0 0 0.0156863 0 0 0 0 0.0156863 0 0 0 0 0.0196078 0 0 0 0.4 0"/><feBlend in2="BackgroundImageFix" result="effect1_dropShadow_5731_193467"/><feBlend in="SourceGraphic" in2="effect1_dropShadow_5731_193467" result="shape"/></filter><filter id="N" x="160.391" y="303.856" width="79.002" height="79" filterUnits="userSpaceOnUse" color-interpolation-filters="sRGB"><feFlood flood-opacity="0" result="BackgroundImageFix"/><feColorMatrix in="SourceAlpha" values="0 0 0 0 0 0 0 0 0 0 0 0 0 0 0 0 0 0 127 0" result="hardAlpha"/><feOffset dy="1"/><feGaussianBlur stdDeviation="4"/><feColorMatrix values="0 0 0 0 0.0156863 0 0 0 0 0.0156863 0 0 0 0 0.0196078 0 0 0 0.4 0"/><feBlend in2="BackgroundImageFix" result="effect1_dropShadow_5731_193467"/><feBlend in="SourceGraphic" in2="effect1_dropShadow_5731_193467" result="shape"/></filter><filter id="O" x="16.498" y="324.41" width="79.002" height="79.903" filterUnits="userSpaceOnUse" color-interpolation-filters="sRGB"><feFlood flood-opacity="0" result="BackgroundImageFix"/><feColorMatrix in="SourceAlpha" values="0 0 0 0 0 0 0 0 0 0 0 0 0 0 0 0 0 0 127 0" result="hardAlpha"/><feOffset dy="1"/><feGaussianBlur stdDeviation="4"/><feColorMatrix values="0 0 0 0 0.0156863 0 0 0 0 0.0156863 0 0 0 0 0.0196078 0 0 0 0.4 0"/><feBlend in2="BackgroundImageFix" result="effect1_dropShadow_5731_193467"/><feBlend in="SourceGraphic" in2="effect1_dropShadow_5731_193467" result="shape"/></filter><filter id="P" x="119" y="93.856" width="99.91" height="79.113" filterUnits="userSpaceOnUse" color-interpolation-filters="sRGB"><feFlood flood-opacity="0" result="BackgroundImageFix"/><feColorMatrix in="SourceAlpha" values="0 0 0 0 0 0 0 0 0 0 0 0 0 0 0 0 0 0 127 0" result="hardAlpha"/><feOffset dy="1"/><feGaussianBlur stdDeviation="4"/><feColorMatrix values="0 0 0 0 0.0156863 0 0 0 0 0.0156863 0 0 0 0 0.0196078 0 0 0 0.4 0"/><feBlend in2="BackgroundImageFix" result="effect1_dropShadow_5731_193467"/><feBlend in="SourceGraphic" in2="effect1_dropShadow_5731_193467" result="shape"/></filter><filter id="S" x="391" y="471.356" width="38" height="38" filterUnits="userSpaceOnUse" color-interpolation-filters="sRGB"><feFlood flood-opacity="0" result="BackgroundImageFix"/><feColorMatrix in="SourceAlpha" values="0 0 0 0 0 0 0 0 0 0 0 0 0 0 0 0 0 0 127 0" result="hardAlpha"/><feOffset dy="1"/><feGaussianBlur stdDeviation="4"/><feColorMatrix values="0 0 0 0 0.0156863 0 0 0 0 0.0156863 0 0 0 0 0.0196078 0 0 0 0.4 0"/><feBlend in2="BackgroundImageFix" result="effect1_dropShadow_5731_193467"/><feBlend in="SourceGraphic" in2="effect1_dropShadow_5731_193467" result="shape"/></filter><filter id="U" x="202" y="471.356" width="38" height="38" filterUnits="userSpaceOnUse" color-interpolation-filters="sRGB"><feFlood flood-opacity="0" result="BackgroundImageFix"/><feColorMatrix in="SourceAlpha" values="0 0 0 0 0 0 0 0 0 0 0 0 0 0 0 0 0 0 127 0" result="hardAlpha"/><feOffset dy="1"/><feGaussianBlur stdDeviation="4"/><feColorMatrix values="0 0 0 0 0.0156863 0 0 0 0 0.0156863 0 0 0 0 0.0196078 0 0 0 0.4 0"/><feBlend in2="BackgroundImageFix" result="effect1_dropShadow_5731_193467"/><feBlend in="SourceGraphic" in2="effect1_dropShadow_5731_193467" result="shape"/></filter><filter id="V" x="265" y="471.356" width="38" height="38" filterUnits="userSpaceOnUse" color-interpolation-filters="sRGB"><feFlood flood-opacity="0" result="BackgroundImageFix"/><feColorMatrix in="SourceAlpha" values="0 0 0 0 0 0 0 0 0 0 0 0 0 0 0 0 0 0 127 0" result="hardAlpha"/><feOffset dy="1"/><feGaussianBlur stdDeviation="4"/><feColorMatrix values="0 0 0 0 0.0156863 0 0 0 0 0.0156863 0 0 0 0 0.0196078 0 0 0 0.4 0"/><feBlend in2="BackgroundImageFix" result="effect1_dropShadow_5731_193467"/><feBlend in="SourceGraphic" in2="effect1_dropShadow_5731_193467" result="shape"/></filter><filter id="W" x="433" y="450.356" width="38" height="38" filterUnits="userSpaceOnUse" color-interpolation-filters="sRGB"><feFlood flood-opacity="0" result="BackgroundImageFix"/><feColorMatrix in="SourceAlpha" values="0 0 0 0 0 0 0 0 0 0 0 0 0 0 0 0 0 0 127 0" result="hardAlpha"/><feOffset dy="1"/><feGaussianBlur stdDeviation="4"/><feColorMatrix values="0 0 0 0 0.0156863 0 0 0 0 0.0156863 0 0 0 0 0.0196078 0 0 0 0.4 0"/><feBlend in2="BackgroundImageFix" result="effect1_dropShadow_5731_193467"/><feBlend in="SourceGraphic" in2="effect1_dropShadow_5731_193467" result="shape"/></filter><filter id="X" x="454" y="471.356" width="38" height="38" filterUnits="userSpaceOnUse" color-interpolation-filters="sRGB"><feFlood flood-opacity="0" result="BackgroundImageFix"/><feColorMatrix in="SourceAlpha" values="0 0 0 0 0 0 0 0 0 0 0 0 0 0 0 0 0 0 127 0" result="hardAlpha"/><feOffset dy="1"/><feGaussianBlur stdDeviation="4"/><feColorMatrix values="0 0 0 0 0.0156863 0 0 0 0 0.0156863 0 0 0 0 0.0196078 0 0 0 0.4 0"/><feBlend in2="BackgroundImageFix" result="effect1_dropShadow_5731_193467"/><feBlend in="SourceGraphic" in2="effect1_dropShadow_5731_193467" result="shape"/></filter><linearGradient id="Y" x1="87.563" y1="379.602" x2="96.222" y2="350.207" gradientUnits="userSpaceOnUse"><stop stop-color="#461E76"/><stop offset="1" stop-color="#7A3BC4"/></linearGradient><linearGradient id="Z" x1="152.263" y1="360.692" x2="152.263" y2="369.434" gradientUnits="userSpaceOnUse"><stop stop-color="#F78250"/><stop offset="1" stop-color="#FF8C66"/></linearGradient><linearGradient id="aa" x1="125.82" y1="356.739" x2="125.82" y2="388.682" gradientUnits="userSpaceOnUse"><stop stop-color="#F78250"/><stop offset="1" stop-color="#FF9666"/></linearGradient><linearGradient id="ab" x1="92.279" y1="351.559" x2="119.849" y2="335.674" gradientUnits="userSpaceOnUse"><stop stop-color="#562294"/><stop offset="1" stop-color="#7A3BC4"/></linearGradient><linearGradient id="ac" x1="97.724" y1="360.692" x2="97.724" y2="369.434" gradientUnits="userSpaceOnUse"><stop stop-color="#F78250"/><stop offset="1" stop-color="#FF8C66"/></linearGradient><linearGradient id="ad" x1="96.409" y1="286.672" x2="96.409" y2="330.977" gradientUnits="userSpaceOnUse"><stop stop-color="#FFF100"/><stop offset="1" stop-color="#EDCF00"/></linearGradient><linearGradient id="ae" x1="159.795" y1="299.229" x2="159.795" y2="330.923" gradientUnits="userSpaceOnUse"><stop stop-color="#FFF100"/><stop offset="1" stop-color="#EDCF00"/></linearGradient><linearGradient id="af" x1="56.374" y1="386.477" x2="56.374" y2="348.736" gradientUnits="userSpaceOnUse"><stop stop-color="#5B00CB"/><stop offset="1" stop-color="#5100B4"/></linearGradient><linearGradient id="ag" x1="354.927" y1="493.329" x2="354.927" y2="501.024" gradientUnits="userSpaceOnUse"><stop stop-color="#F78250"/><stop offset="1" stop-color="#FF9666"/></linearGradient><linearGradient id="ah" x1="374.944" y1="492.157" x2="374.944" y2="500.82" gradientUnits="userSpaceOnUse"><stop stop-color="#F78250"/><stop offset="1" stop-color="#FF9666"/></linearGradient><linearGradient id="aj" x1="383.059" y1="465.774" x2="383.059" y2="475.922" gradientUnits="userSpaceOnUse"><stop stop-color="#F78250"/><stop offset="1" stop-color="#FF9666"/></linearGradient><linearGradient id="ak" x1="330.78" y1="425.958" x2="406.763" y2="406.617" gradientUnits="userSpaceOnUse"><stop stop-color="#562294"/><stop offset="1" stop-color="#7A3BC4"/></linearGradient><linearGradient id="al" x1="356.716" y1="446.893" x2="356.716" y2="464.935" gradientUnits="userSpaceOnUse"><stop stop-color="#F78250"/><stop offset="1" stop-color="#FF9666"/></linearGradient><linearGradient id="am" x1="331.725" y1="457.878" x2="331.725" y2="467.923" gradientUnits="userSpaceOnUse"><stop stop-color="#F78250"/><stop offset="1" stop-color="#FF9666"/></linearGradient><linearGradient id="an" x1="388.399" y1="424.789" x2="359.966" y2="422.264" gradientUnits="userSpaceOnUse"><stop stop-color="#461E76"/><stop offset="1" stop-color="#7A3BC4"/></linearGradient><linearGradient id="ao" x1="388.946" y1="445.485" x2="388.946" y2="455.564" gradientUnits="userSpaceOnUse"><stop stop-color="#F78250"/><stop offset="1" stop-color="#FF9666"/></linearGradient><linearGradient id="ap" x1="408.423" y1="431.769" x2="365.445" y2="446.266" gradientUnits="userSpaceOnUse"><stop stop-color="#461E76"/><stop offset="1" stop-color="#7A3BC4"/></linearGradient><linearGradient id="aq" x1="375.788" y1="376.356" x2="375.788" y2="415.641" gradientUnits="userSpaceOnUse"><stop stop-color="#FFF100"/><stop offset="1" stop-color="#EDCF00"/></linearGradient><linearGradient id="ar" x1="314.608" y1="398.747" x2="314.608" y2="432.32" gradientUnits="userSpaceOnUse"><stop stop-color="#FFF100"/><stop offset="1" stop-color="#EDCF00"/></linearGradient></defs></svg>