<svg width="505" height="507" fill="none" xmlns="http://www.w3.org/2000/svg"><path d="M46 84.704h416.79M46 105.704h416.79M46 126.704h421.832M46 147.704h421.832M42.918 168.704h424.914M46 189.704h421.832M63.725 210.704h404.107M46 231.704h421.832M63.725 252.704h404.107M42.443 273.704h421.1M42.443 294.704h409.635M46 315.704h395.89M46 336.704h421.832M46 357.704h441.2M46 378.704h421.832M46 399.704h421.832M46 441.704h421.832M210.158 462.704h252.806M46 420.704h421.832M63.5 64.664v398.541M84.5 63.101v400.1M105.5 42.234v420.971M126.5 84.311v378.894M147.5 47.205v416M168.5 0v463.205M189.5 21.86v441.345M210.5 75.038v388.167M231.5 47.205v416M252.5 75.038v409.17M273.5 55.331v428.877M294.5 63.418v399.787M315.5 84.166v379.039M336.5 75.038v388.167M357.5 47.205v416M378.5 47.205v416M399.5 21.86v441.345M420.5 47.205v416M441.5 35.136v428.069" stroke="#F2F2F2"/><path d="M64 126.205H42v22h22v-22Z" fill="#fff"/><path d="M63.5 126.705h-21v21h21v-21Z" stroke="#F8F2FF"/><path d="M463 84.205h-22v22h22v-22Z" fill="#fff"/><path d="M462.5 84.705h-21v21h21v-21Z" stroke="#F8F2FF"/><path d="M484 105.205h-22v22h22v-22Z" fill="#fff"/><path d="M483.5 105.705h-21v21h21v-21Z" stroke="#F8F2FF"/><path d="M484 168.205h-22v22h22v-22Z" fill="#fff"/><path d="M483.5 168.705h-21v21h21v-21Z" stroke="#F8F2FF"/><path d="M463 231.205h-22v22h22v-22Z" fill="#fff"/><path d="M462.5 231.705h-21v21h21v-21Z" stroke="#F8F2FF"/><path d="M484 210.205h-22v22h22v-22Z" fill="#fff"/><path d="M483.5 210.705h-21v21h21v-21Z" stroke="#F8F2FF"/><path d="M484 252.205h-22v22h22v-22Z" fill="#fff"/><path d="M483.5 252.705h-21v21h21v-21Z" stroke="#F8F2FF"/><path d="M505 231.205h-22v22h22v-22Z" fill="#fff"/><path d="M504.5 231.705h-21v21h21v-21Z" stroke="#F8F2FF"/><path d="M43 273.205H21v22h22v-22Z" fill="#fff"/><path d="M42.5 273.705h-21v21h21v-21Z" stroke="#F8F2FF"/><path d="M22 294.205H0v22h22v-22Z" fill="#fff"/><path d="M21.5 294.705H.5v21h21v-21Z" stroke="#F8F2FF"/><path d="M316 63.205h-22v22h22v-22Z" fill="#fff"/><path d="M315.5 63.705h-21v21h21v-21Z" stroke="#F8F2FF"/><path d="M337 42.205h-22v22h22v-22Z" fill="#fff"/><path d="M336.5 42.705h-21v21h21v-21Z" stroke="#F8F2FF"/><path d="M400 63.205h-22v22h22v-22Z" fill="#fff"/><path d="M399.5 63.705h-21v21h21v-21Z" stroke="#F8F2FF"/><path d="M379 42.205h-22v22h22v-22Z" fill="#fff"/><path d="M378.5 42.705h-21v21h21v-21Z" stroke="#F8F2FF"/><path d="M273.5 63.705h-21v-21h21v21Z" fill="#fff"/><path d="M253 43.205v20h20v-20h-20Zm-1-1h22v22h-22v-22Z" fill="#F8F2FF"/><path d="M64 63.205H42v22h22v-22Z" fill="#fff"/><path d="M63.5 63.705h-21v21h21v-21Z" stroke="#F8F2FF"/><path d="M43 441.205H21v22h22v-22Z" fill="#fff"/><path d="M42.5 441.705h-21v21h21v-21Z" stroke="#F8F2FF"/><path d="M85 462.205H63v22h22v-22Z" fill="#fff"/><path d="M84.5 462.705h-21v21h21v-21Z" stroke="#F8F2FF"/><path d="M64 420.205H42v22h22v-22Z" fill="#fff"/><path d="M63.5 420.705h-21v21h21v-21Z" stroke="#F8F2FF"/><path d="M106 483.205H84v22h22v-22Z" fill="#fff"/><path d="M105.5 483.705h-21v21h21v-21Z" stroke="#F8F2FF"/><path d="M211 441.205h-22v22h22v-22Z" fill="#fff"/><path d="M210.5 441.705h-21v21h21v-21Z" stroke="#F8F2FF"/><path d="M190 462.205h-22v22h22v-22Z" fill="#fff"/><path d="M189.5 462.705h-21v21h21v-21Z" stroke="#F8F2FF"/><path d="M211 483.205h-22v22h22v-22Z" fill="#fff"/><path d="M210.5 483.705h-21v21h21v-21Z" stroke="#F8F2FF"/><path d="M126.5 504.705h-21v-21h21v21Z" fill="#F8F2FF"/><path d="M106 484.205v20h20v-20h-20Zm-1-1h22v22h-22v-22Z" fill="#FBFAFC"/><path d="M105.5 504.705h-21v-21h21v21Z" fill="#F8F2FF"/><path d="M85 484.205v20h20v-20H85Zm-1-1h22v22H84v-22Z" fill="#FBFAFC"/><path d="M84.5 504.705h-21v-21h21v21Z" fill="#F8F2FF"/><path d="M64 484.205v20h20v-20H64Zm-1-1h22v22H63v-22Z" fill="#FBFAFC"/><path d="M126.5 483.705h-21v-21h21v21Z" fill="#F8F2FF"/><path d="M106 463.205v20h20v-20h-20Zm-1-1h22v22h-22v-22Z" fill="#FBFAFC"/><path d="M147.5 504.705h-21v-21h21v21Z" fill="#F8F2FF"/><path d="M127 484.205v20h20v-20h-20Zm-1-1h22v22h-22v-22Z" fill="#FBFAFC"/><path d="M168.5 483.705h-21v-21h21v21Z" fill="#F8F2FF"/><path d="M148 463.205v20h20v-20h-20Zm-1-1h22v22h-22v-22Z" fill="#FBFAFC"/><path d="M189.5 462.705h-21v-21h21v21Z" fill="#F8F2FF"/><path d="M169 442.205v20h20v-20h-20Zm-1-1h22v22h-22v-22Z" fill="#FBFAFC"/><path d="M442.5 504.705h-21v-21h21v21Z" fill="#F8F2FF"/><path d="M422 484.205v20h20v-20h-20Zm-1-1h22v22h-22v-22Z" fill="#FBFAFC"/><path d="M483.5 462.705h-21v-21h21v21Z" fill="#F8F2FF"/><path d="M463 442.205v20h20v-20h-20Zm-1-1h22v22h-22v-22Z" fill="#FBFAFC"/><path d="M462.5 441.705h-21v-21h21v21Z" fill="#F8F2FF"/><path d="M442 421.205v20h20v-20h-20Zm-1-1h22v22h-22v-22Z" fill="#FBFAFC"/><path d="M210.5 483.705h-21v-21h21v21Z" fill="#F8F2FF"/><path d="M190 463.205v20h20v-20h-20Zm-1-1h22v22h-22v-22Z" fill="#FBFAFC"/><path d="M336.451 273.606H252.5V189.82h83.951v83.786Z" fill="#fff"/><path d="M253 190.32v82.786h82.951V190.32H253Zm-1-1h84.951v84.786H252V189.32Z" fill="#FBFAFC"/><path d="M420.5 336.705h-63.002v-63H420.5v63Z" fill="#fff"/><path d="M357.998 274.205v62H420v-62h-62.002Zm-1-1H421v64h-64.002v-64Z" fill="#FBFAFC"/><path d="M231.5 378.705h-63.002v-63H231.5v63Z" fill="#fff"/><path d="M168.998 316.205v62H231v-62h-62.002Zm-1-1H232v64h-64.002v-64Z" fill="#FBFAFC"/><path d="M87.5 399.705H24.497v-63h63.001v63Z" fill="#fff"/><path d="M24.998 337.205v62H87v-62H25Zm-1-1h64.001v64H23.998v-64Z" fill="#FBFAFC"/><path d="M210.41 168.818H126.5v-63.113h83.91v63.113Z" fill="#fff"/><path d="M127 106.205v62.113h82.91v-62.113H127Zm-1-1h84.91v64.113H126v-64.113Z" fill="#FBFAFC"/><path d="M273.5 504.705h-21v-21h21v21Z" fill="#F8F2FF"/><path d="M253 484.205v20h20v-20h-20Zm-1-1h22v22h-22v-22Z" fill="#FBFAFC"/><path d="M420.5 504.705h-21v-21h21v21Z" fill="#F8F2FF"/><path d="M400 484.205v20h20v-20h-20Zm-1-1h22v22h-22v-22Z" fill="#FBFAFC"/><path d="M232 483.205h-22v22h22v-22Z" fill="#fff"/><path d="M231.5 483.705h-21v21h21v-21Z" stroke="#F8F2FF"/><path d="M295 483.205h-22v22h22v-22Z" fill="#fff"/><path d="M294.5 483.705h-21v21h21v-21Z" stroke="#F8F2FF"/><path d="M463 462.205h-22v22h22v-22Z" fill="#fff"/><path d="M462.5 462.705h-21v21h21v-21Z" stroke="#F8F2FF"/><path d="M484 483.205h-22v22h22v-22Z" fill="#fff"/><path d="M483.5 483.705h-21v21h21v-21Z" stroke="#F8F2FF"/><path d="M210.41 168.818H126.5v-63.113h83.91v63.113Z" fill="#F2F2F2" fill-opacity=".4"/><path d="M127 106.205v62.113h82.91v-62.113H127Zm-1-1h84.91v64.113H126v-64.113Z" fill="#FBFAFC"/><path d="M336.451 273.606H252.5V189.82h83.951v83.786Z" fill="#F2F2F2" fill-opacity=".4"/><path d="M253 190.32v82.786h82.951V190.32H253Zm-1-1h84.951v84.786H252V189.32Z" fill="#FBFAFC"/><path d="M420.5 336.705h-63.002v-63H420.5v63Z" fill="#F2F2F2" fill-opacity=".4"/><path d="M357.998 274.205v62H420v-62h-62.002Zm-1-1H421v64h-64.002v-64Z" fill="#FBFAFC"/><path d="M231.5 378.705h-63.002v-63H231.5v63Z" fill="#F2F2F2" fill-opacity=".4"/><path d="M168.998 316.205v62H231v-62h-62.002Zm-1-1H232v64h-64.002v-64Z" fill="#FBFAFC"/><path d="M87.5 399.705H24.497v-63h63.001v63Z" fill="#F2F2F2" fill-opacity=".4"/><path d="M24.998 337.205v62H87v-62H25Zm-1-1h64.001v64H23.998v-64Z" fill="#FBFAFC"/><path d="M46 84.704h416.79M46 105.704h416.79M46 126.704h421.832M46 147.704h421.832M42.918 168.704h424.914M46 189.704h421.832M46 210.704h421.832M46 231.704h421.832M46 252.704h421.832M42.443 273.704h421.1M42.443 294.704h409.635M46 315.704h395.89M46 336.704h421.832M46 357.704h441.2M46 378.704h421.832M46 399.704h421.832M46 441.704h421.832M210.158 462.704h252.806M46 420.704h421.832M63.5 47.205v416M84.5 75.038v388.167M105.5 47.205v416M126.5 75.038v388.167M147.5 47.205v416M168.5 47.205v416M189.5 47.205v416M210.5 75.038v388.167M231.5 47.205v416M252.5 75.038v409.17M273.5 47.205v437M294.5 63.418v399.787M315.5 84.166v379.039M336.5 84.166v379.039M357.5 47.205v416M378.5 47.205v416M399.5 47.205v416M420.5 47.205v416M441.5 47.205v416" stroke="#F2F2F2"/><path d="M64 126.205H42v22h22v-22Z" fill="#fff"/><path d="M63.5 126.705h-21v21h21v-21Z" stroke="#F8F2FF"/><path d="M463 84.205h-22v22h22v-22Z" fill="#fff"/><path d="M462.5 84.705h-21v21h21v-21Z" stroke="#F8F2FF"/><path d="M484 105.205h-22v22h22v-22Z" fill="#fff"/><path d="M483.5 105.705h-21v21h21v-21Z" stroke="#F8F2FF"/><path d="M484 168.205h-22v22h22v-22Z" fill="#fff"/><path d="M483.5 168.705h-21v21h21v-21Z" stroke="#F8F2FF"/><path d="M463 231.205h-22v22h22v-22Z" fill="#fff"/><path d="M462.5 231.705h-21v21h21v-21Z" stroke="#F8F2FF"/><path d="M484 210.205h-22v22h22v-22Z" fill="#fff"/><path d="M483.5 210.705h-21v21h21v-21Z" stroke="#F8F2FF"/><path d="M484 252.205h-22v22h22v-22Z" fill="#fff"/><path d="M483.5 252.705h-21v21h21v-21Z" stroke="#F8F2FF"/><path d="M505 231.205h-22v22h22v-22Z" fill="#fff"/><path d="M504.5 231.705h-21v21h21v-21Z" stroke="#F8F2FF"/><path d="M43 273.205H21v22h22v-22Z" fill="#fff"/><path d="M42.5 273.705h-21v21h21v-21Z" stroke="#F8F2FF"/><path d="M22 294.205H0v22h22v-22Z" fill="#fff"/><path d="M21.5 294.705H.5v21h21v-21Z" stroke="#F8F2FF"/><path d="M316 63.205h-22v22h22v-22Z" fill="#fff"/><path d="M315.5 63.705h-21v21h21v-21Z" stroke="#F8F2FF"/><path d="M337 42.205h-22v22h22v-22Z" fill="#fff"/><path d="M336.5 42.705h-21v21h21v-21Z" stroke="#F8F2FF"/><path d="M169 42.205h-22v22h22v-22Z" fill="#fff"/><path d="M168.5 42.705h-21v21h21v-21Z" stroke="#F8F2FF"/><path d="M64 63.205H42v22h22v-22Z" fill="#fff"/><path d="M63.5 63.705h-21v21h21v-21Z" stroke="#F8F2FF"/><path d="M337 21.205h-22v22h22v-22Z" fill="#fff"/><path d="M336.5 21.705h-21v21h21v-21Z" stroke="#F8F2FF"/><path d="M43 441.205H21v22h22v-22Z" fill="#fff"/><path d="M42.5 441.705h-21v21h21v-21Z" stroke="#F8F2FF"/><path d="M85 462.205H63v22h22v-22Z" fill="#fff"/><path d="M84.5 462.705h-21v21h21v-21Z" stroke="#F8F2FF"/><path d="M64 420.205H42v22h22v-22Z" fill="#fff"/><path d="M63.5 420.705h-21v21h21v-21Z" stroke="#F8F2FF"/><path d="M106 483.205H84v22h22v-22Z" fill="#fff"/><path d="M105.5 483.705h-21v21h21v-21Z" stroke="#F8F2FF"/><path d="M211 441.205h-22v22h22v-22Z" fill="#fff"/><path d="M210.5 441.705h-21v21h21v-21Z" stroke="#F8F2FF"/><path d="M190 462.205h-22v22h22v-22Z" fill="#fff"/><path d="M189.5 462.705h-21v21h21v-21Z" stroke="#F8F2FF"/><path d="M211 483.205h-22v22h22v-22Z" fill="#fff"/><path d="M210.5 483.705h-21v21h21v-21Z" stroke="#F8F2FF"/><path d="M126.5 504.705h-21v-21h21v21Z" fill="#F8F2FF"/><path d="M106 484.205v20h20v-20h-20Zm-1-1h22v22h-22v-22Z" fill="#FBFAFC"/><path d="M105.5 504.705h-21v-21h21v21Z" fill="#F8F2FF"/><path d="M85 484.205v20h20v-20H85Zm-1-1h22v22H84v-22Z" fill="#FBFAFC"/><path d="M84.5 504.705h-21v-21h21v21Z" fill="#F8F2FF"/><path d="M64 484.205v20h20v-20H64Zm-1-1h22v22H63v-22Z" fill="#FBFAFC"/><path d="M126.5 483.705h-21v-21h21v21Z" fill="#F8F2FF"/><path d="M106 463.205v20h20v-20h-20Zm-1-1h22v22h-22v-22Z" fill="#FBFAFC"/><path d="M147.5 504.705h-21v-21h21v21Z" fill="#F8F2FF"/><path d="M127 484.205v20h20v-20h-20Zm-1-1h22v22h-22v-22Z" fill="#FBFAFC"/><path d="M168.5 483.705h-21v-21h21v21Z" fill="#F8F2FF"/><path d="M148 463.205v20h20v-20h-20Zm-1-1h22v22h-22v-22Z" fill="#FBFAFC"/><path d="M189.5 462.705h-21v-21h21v21Z" fill="#F8F2FF"/><path d="M169 442.205v20h20v-20h-20Zm-1-1h22v22h-22v-22Z" fill="#FBFAFC"/><path d="M441.5 504.705h-21v-21h21v21Z" fill="#F8F2FF"/><path d="M421 484.205v20h20v-20h-20Zm-1-1h22v22h-22v-22Z" fill="#FBFAFC"/><path d="M483.5 462.705h-21v-21h21v21Z" fill="#F8F2FF"/><path d="M463 442.205v20h20v-20h-20Zm-1-1h22v22h-22v-22Z" fill="#FBFAFC"/><path d="M462.5 441.705h-21v-21h21v21Z" fill="#F8F2FF"/><path d="M442 421.205v20h20v-20h-20Zm-1-1h22v22h-22v-22Z" fill="#FBFAFC"/><path d="M210.5 483.705h-21v-21h21v21Z" fill="#F8F2FF"/><path d="M190 463.205v20h20v-20h-20Zm-1-1h22v22h-22v-22Z" fill="#FBFAFC"/><path d="M210.5 252.705h-21v-21h21v21Z" fill="#F8F2FF"/><path d="M190 232.205v20h20v-20h-20Zm-1-1h22v22h-22v-22Z" fill="#FBFAFC"/><path d="M315.5 126.705h-21v-21h21v21Z" fill="#F8F2FF"/><path d="M295 106.205v20h20v-20h-20Zm-1-1h22v22h-22v-22Z" fill="#FBFAFC"/><path d="M294.5 147.705h-21v-21h21v21Z" fill="#F8F2FF"/><path d="M274 127.205v20h20v-20h-20Zm-1-1h22v22h-22v-22Z" fill="#FBFAFC"/><path d="M399.5 168.705h-21v-21h21v21Z" fill="#F8F2FF"/><path d="M379 148.205v20h20v-20h-20Zm-1-1h22v22h-22v-22Z" fill="#FBFAFC"/><path d="M378.5 189.705h-21v-21h21v21Z" fill="#F8F2FF"/><path d="M358 169.205v20h20v-20h-20Zm-1-1h22v22h-22v-22Z" fill="#FBFAFC"/><path d="M420.5 189.705h-21v-21h21v21Z" fill="#F8F2FF"/><path d="M400 169.205v20h20v-20h-20Zm-1-1h22v22h-22v-22Z" fill="#FBFAFC"/><path d="M84.5 147.705h-21v-21h21v21Z" fill="#F8F2FF"/><path d="M64 127.205v20h20v-20H64Zm-1-1h22v22H63v-22Z" fill="#FBFAFC"/><path d="M84.5 126.705h-21v-21h21v21Z" fill="#F8F2FF"/><path d="M64 106.205v20h20v-20H64Zm-1-1h22v22H63v-22Z" fill="#FBFAFC"/><path d="M105.5 126.705h-21v-21h21v21Z" fill="#F8F2FF"/><path d="M85 106.205v20h20v-20H85Zm-1-1h22v22H84v-22Z" fill="#FBFAFC"/><path d="M105.5 168.705h-21v-21h21v21Z" fill="#F8F2FF"/><path d="M85 148.205v20h20v-20H85Zm-1-1h22v22H84v-22Z" fill="#FBFAFC"/><path d="M126.5 189.705h-21v-21h21v21Z" fill="#F8F2FF"/><path d="M106 169.205v20h20v-20h-20Zm-1-1h22v22h-22v-22Z" fill="#FBFAFC"/><path d="M336.451 273.606H252.5V189.82h83.951v83.786Z" fill="#fff"/><path d="M253 190.32v82.786h82.951V190.32H253Zm-1-1h84.951v84.786H252V189.32Z" fill="#FBFAFC"/><path d="M420.5 336.705h-63.002v-63H420.5v63Z" fill="#fff"/><path d="M357.998 274.205v62H420v-62h-62.002Zm-1-1H421v64h-64.002v-64Z" fill="#FBFAFC"/><path d="M231.5 378.705h-63.002v-63H231.5v63Z" fill="#fff"/><path d="M168.998 316.205v62H231v-62h-62.002Zm-1-1H232v64h-64.002v-64Z" fill="#FBFAFC"/><path d="M87.5 399.705H24.497v-63h63.001v63Z" fill="#fff"/><path d="M24.998 337.205v62H87v-62H25Zm-1-1h64.001v64H23.998v-64Z" fill="#FBFAFC"/><path d="M210.41 168.818H126.5v-63.113h83.91v63.113Z" fill="#fff"/><path d="M127 106.205v62.113h82.91v-62.113H127Zm-1-1h84.91v64.113H126v-64.113Z" fill="#FBFAFC"/><path d="M273.5 504.705h-21v-21h21v21Z" fill="#F8F2FF"/><path d="M253 484.205v20h20v-20h-20Zm-1-1h22v22h-22v-22Z" fill="#FBFAFC"/><path d="M420.5 504.705h-21v-21h21v21Z" fill="#F8F2FF"/><path d="M400 484.205v20h20v-20h-20Zm-1-1h22v22h-22v-22Z" fill="#FBFAFC"/><path d="M232 483.205h-22v22h22v-22Z" fill="#fff"/><path d="M231.5 483.705h-21v21h21v-21Z" stroke="#F8F2FF"/><path d="M295 483.205h-22v22h22v-22Z" fill="#fff"/><path d="M294.5 483.705h-21v21h21v-21Z" stroke="#F8F2FF"/><path d="M463 462.205h-22v22h22v-22Z" fill="#fff"/><path d="M462.5 462.705h-21v21h21v-21Z" stroke="#F8F2FF"/><path d="M484 483.205h-22v22h22v-22Z" fill="#fff"/><path d="M483.5 483.705h-21v21h21v-21Z" stroke="#F8F2FF"/><path d="M210.41 168.818H126.5v-63.113h83.91v63.113Z" fill="#F2F2F2" fill-opacity=".4"/><path d="M127 106.205v62.113h82.91v-62.113H127Zm-1-1h84.91v64.113H126v-64.113Z" fill="#FBFAFC"/><path d="M336.451 273.606H252.5V189.82h83.951v83.786Z" fill="#F2F2F2" fill-opacity=".4"/><path d="M253 190.32v82.786h82.951V190.32H253Zm-1-1h84.951v84.786H252V189.32Z" fill="#FBFAFC"/><path d="M420.5 336.705h-63.002v-63H420.5v63Z" fill="#F2F2F2" fill-opacity=".4"/><path d="M357.998 274.205v62H420v-62h-62.002Zm-1-1H421v64h-64.002v-64Z" fill="#FBFAFC"/><path d="M231.5 378.705h-63.002v-63H231.5v63Z" fill="#F2F2F2" fill-opacity=".4"/><path d="M168.998 316.205v62H231v-62h-62.002Zm-1-1H232v64h-64.002v-64Z" fill="#FBFAFC"/><path d="M87.5 399.705H24.497v-63h63.001v63Z" fill="#F2F2F2" fill-opacity=".4"/><path d="M24.998 337.205v62H87v-62H25Zm-1-1h64.001v64H23.998v-64Z" fill="#FBFAFC"/><path d="M101.428 406.907c.746-8.478 5.913-7.247 15.681-6.388 9.768.859 17.083 8.428 16.337 16.906-.746 8.478-9.269 14.653-19.038 13.794s-13.726-15.833-12.98-24.312Z" fill="#312D2E"/><path d="M157.074 407.303H99.659a13.336 13.336 0 0 1-13.331-13.33v-53.82h70.746v67.15Z" fill="url(#a)"/><path d="m114.697 458.615.553 3.936h3.347v-1.668l-.72-2.268h-3.18Z" fill="#15191F"/><path d="m117.984 458.584.071-.352c-.132.01-.267.02-.406.02-3.119 0-6.238-.004-9.357-.013-.14 2.62-.288 4.281-.288 4.281h3.346v-1.935l2.567 2h8.382v-2.693l-4.315-1.308Z" fill="#0A0A0A"/><path d="M111.865 414.957c-.385 4.879-5.593 4.111-5.642 9.027 0 .078 2.608 22.663 1.285 34.6h10.532c1.494-23.438 10.086-22.611 11.889-39.827-.001-3.278-8.726-3.987-18.064-3.8Z" fill="#312D2E"/><path d="m114.713 458.585.553 3.446h3.346v-1.694l-.443-1.752h-3.456Z" fill="#0A0A0A"/><path d="M152.095 374.281a9.628 9.628 0 1 0-9.458-9.792v.168a9.56 9.56 0 0 0 9.458 9.625" fill="#FB7E51"/><path d="M103.99 392.42c-19.092-4.455-29.217-12.915-29.217-12.915" stroke="#FF8F66" stroke-width="10" stroke-miterlimit="10" stroke-linecap="round"/><path d="M92.812 383.802c-.6 1.254-3.358 7.258-3.654 9.126a146.378 146.378 0 0 0 16.966 5.623l6.058-9.168c-4.678-1.092-15.857-4.187-19.37-5.581Z" fill="#F2EDDC"/><path d="M107.56 394.279a74.807 74.807 0 0 1-4.422 11c-1.652 3.068-3.733 5.875-5.435 8.911l36.461 7.075a43.65 43.65 0 0 1 .729-11.593l-8.371-22.873a114.89 114.89 0 0 0-15.029-1.434 71.61 71.61 0 0 0-3.933 8.914Z" fill="#F2EDDC"/><path d="M110.968 388.5c-.327-3.6 2.138-.568 5.342 2.65.145.988 2.315 9.742 2.315 9.742a78.777 78.777 0 0 0 8.06-8.29c4.529.079 6.451-.782 6.451-.782l1.375 13.838s2.002 7.523-.349 16.136a89.515 89.515 0 0 1-20.2-3.416c-10.771-3.366-17.553-11.82-19.962-14.435 2.1-6.276 9.017-.42 10.914-3.853-.495-6.56 6.381-7.989 6.054-11.59Z" fill="#EDCF00"/><path d="M99.5 401c-.5 4 14.501 14 35.501 16.5" stroke="#E69C31" stroke-width="3.5" stroke-miterlimit="10"/><path d="m133.527 412.75 1.75-.026-.052-3.5-1.75.026.052 3.5Zm-35.213-8.963c12.153 11.194 26.685 9.089 35.213 8.963l-.052-3.5c-9.1.134-21.894 1.999-32.789-8.037l-2.372 2.574Z" fill="#E69C31"/><path d="M118.5 401c-4.268 7.24-5.824 17.46-5.824 17.46" stroke="#AD960C" stroke-miterlimit="10"/><path d="M72.574 379.454a4.657 4.657 0 0 0-.565-4.416 4.074 4.074 0 0 0-4.124-1.509 3.632 3.632 0 0 0-2.71 3.366" stroke="#FF8F66" stroke-width="10" stroke-miterlimit="10" stroke-linecap="round"/><path d="M168.073 338.318s-13.552-1.991-20.742-2.6c-6.859-.553-15.045-.885-23.785-.885s-16.926.332-23.785.885c-7.19.553-20.632 3.374-20.632 3.374v3.263c0 3.1 19.858 5.919 44.417 5.919s44.527-2.544 44.527-5.642v-4.314Z" fill="#363233"/><path d="M132.38 421.612c-28.977-3.684-29.524-16.226-33.548-20.423-1.714-1.788-11.627-5.425-14.414-6.186-6.673-1.822-16.59-11.31-16.59-11.31l-4.7 5.86c1.982 2.778 2.979 5.323 9.917 11.044 3.929 3.241 13.43 16.071 30.5 20.669 16.98 12.594 26.727 4.344 28.835.346Z" fill="#312D2E"/><path d="m64.31 388.694 4.36-6.048-.384-.318 1.615-4.259a.643.643 0 0 0-.225-.747l-1.211-.873a.645.645 0 0 0-.716-.028.65.65 0 0 0-.184.173l-3.64 5.05a.64.64 0 0 0-.121.392l.043 1.686a.64.64 0 0 1-1.016.536.646.646 0 0 0-.48-.115.628.628 0 0 0-.42.26l-1.406 1.95a.636.636 0 0 0 .047.808 89.076 89.076 0 0 0 2.418 2.5c.109.107.223.223.335.337.335-.433.658-.87.985-1.304Z" fill="#0A0A0A"/><path d="M156.85 362.666c0 19.415-13.883 30.865-31.031 30.865s-31.03-11.45-31.03-30.865 13.883-39.494 31.031-39.494 31.03 20.079 31.03 39.494Z" fill="url(#b)"/><path d="M154.86 364.268h-38.551a9.517 9.517 0 0 0-8.79 5.872 9.521 9.521 0 0 0-.724 3.641v14.05a32.733 32.733 0 0 0 18.972 5.7c13.276 0 24.615-6.859 29.04-19.028l.053-10.235Z" fill="#FF8F66"/><path d="M120.732 359.846h-34.4v-24.39l49.339 9.458a14.98 14.98 0 0 1-14.934 14.935" fill="url(#c)"/><path d="M144.073 359.846h-10.952v-30.255l29.814-2.489-2.488 18.2c0 8.959-7.413 14.545-16.373 14.545" fill="url(#d)"/><path d="M97.556 374.281a9.628 9.628 0 1 0-9.458-9.792v.168a9.525 9.525 0 0 0 9.425 9.625h.033" fill="#FB7E51"/><path d="M119.729 363.548a4.425 4.425 0 0 0-4.34 4.484v3.475a4.346 4.346 0 0 0 2.645 4.145 4.333 4.333 0 0 0 3.392 0 4.334 4.334 0 0 0 2.357-2.438 4.346 4.346 0 0 0 .287-1.707v-3.475a4.388 4.388 0 0 0-4.3-4.483h-.041M139.212 363.548a4.429 4.429 0 0 0-4.34 4.484v3.475a4.346 4.346 0 0 0 2.644 4.145 4.336 4.336 0 0 0 3.392 0 4.328 4.328 0 0 0 2.358-2.438 4.364 4.364 0 0 0 .287-1.707v-3.475a4.39 4.39 0 0 0-1.222-3.132 4.374 4.374 0 0 0-3.078-1.351h-.041" fill="#262223"/><path d="M129.417 385.566a5.808 5.808 0 0 0 5.808-5.807h-11.616a5.883 5.883 0 0 0 5.808 5.808" fill="#fff"/><path d="M95.177 365.764a2.73 2.73 0 0 1-.22-5.089 4.35 4.35 0 0 1 3.43-.111c2.377.94 3.042 2.489 3.042 5.255a6.373 6.373 0 0 1-1.6 4.257v-.443c0-1.712-2.489-3.1-4.647-3.869" fill="#FF8F66"/><path d="m157.871 335.265 4.011-.561-2.637-22.651-4.944-8.322.522 24.223.639 7.586 2.409-.275Z" fill="#FFF100"/><path d="M79.127 342.079v-4.37c0-2.987 18.586-5.476 42.039-5.642h2.544c24.558 0 44.527 2.544 44.527 5.642v4.37a.836.836 0 0 1-.166.72c-.055-.055-.166-.111-.221-.166a8.87 8.87 0 0 0-3.817-1.659 52.253 52.253 0 0 0-5.863-1.162 6.835 6.835 0 0 0-6.527 2.655 9.62 9.62 0 0 1-7.633 3.762h-24.06a14.593 14.593 0 0 1-8.85-2.987l-3.43-2.6a7.871 7.871 0 0 0-4.812-1.6c-4.65.055-7.855.055-8.352.111a75.39 75.39 0 0 0-11.228 1.881 10.283 10.283 0 0 0-3.983 1.825.997.997 0 0 1-.166-.776" fill="#FFF100"/><path d="M109.957 291.521a40.882 40.882 0 0 0-27.1 38.5v5.805a96.849 96.849 0 0 1 17.645-2.544c-.055-1.106-.055-2.213-.055-3.374 0-15.209 3.65-28.871 9.514-38.385" fill="url(#e)"/><path d="M155.093 304.024a40.711 40.711 0 0 0-45.136-12.5c-5.863 9.514-9.514 23.177-9.514 38.332 0 1.106 0 2.268.055 3.374a318.23 318.23 0 0 1 20.632-.83h2.489c14.326 0 27.1.885 35.232 2.213.055-1.549.111-3.153.111-4.7a83.696 83.696 0 0 0-3.868-25.886" fill="#FFF100"/><path d="m140.06 306.733-2.6-16.207a3.104 3.104 0 0 0-2.213-2.489 40.917 40.917 0 0 0-23.066 0 3.04 3.04 0 0 0-2.157 2.489l-2.6 16.207" fill="#FFF100"/><path d="M164.441 330.02a40.726 40.726 0 0 0-9.293-25.942 85.242 85.242 0 0 1 3.872 25.831c0 1.6-.055 3.153-.111 4.7 1.866.276 3.713.664 5.531 1.162l.001-5.751Z" fill="url(#f)"/><path d="M123.656 332.067c24.558 0 44.527 2.544 44.527 5.642v.111a3.209 3.209 0 0 1-3.209 3.209 4.88 4.88 0 0 1-.885-.111h-.055a96.643 96.643 0 0 0-16.539-2.378c-6.859-.553-15.045-.885-23.785-.885s-16.926.332-23.785.885a95.741 95.741 0 0 0-16.539 2.378l-.166.055a3.206 3.206 0 0 1-3.929-2.268 2.209 2.209 0 0 1-.166-.83v-.111c0-3.153 19.915-5.7 44.529-5.7" fill="#FFF100"/><path d="M129.883 310.252v-9.79l9.4 15.211-9.4 5.421v-10.842Z" fill="#4B4D4D"/><path d="M129.882 332.379v-7.52l-9.4-5.752 9.4 13.272ZM139.231 319.103l-9.348 5.756v7.523l9.348-13.279ZM129.882 300.462l-9.4 15.211 9.4-5.421v-9.79Z" fill="#F9C838"/><path d="m139.231 319.103-9.348 5.756v7.523l9.348-13.279Z" fill="#4B4D4D"/><path d="m120.48 315.674 9.4 5.421v-10.842l-9.4 5.421Z" fill="#F9C838"/><path d="M129.882 332.379v-7.52l-9.4-5.752 9.4 13.272ZM120.48 315.673l9.4-15.211v20.634l-9.4-5.423Z" fill="#0A0A0A"/><path d="M139.475 397.094a130.506 130.506 0 0 0 31.892-16.279" stroke="#FF8F66" stroke-width="10" stroke-miterlimit="10" stroke-linecap="round"/><path d="M133.729 405.477c-6.012-.744-.523-12.7-.523-12.7l3.89-.355a115.185 115.185 0 0 0 15.663-6.458l4.316 9.232a138.943 138.943 0 0 1-17.6 7.313 57.138 57.138 0 0 0-5.746 2.968Z" fill="#F2EDDC"/><path d="M95.736 406.907c14.828 20.813 11.772 51.745 11.772 51.745h3.456c-.002-.067 4.186-29.935-15.228-51.745Z" fill="#262223"/><path d="M173.3 373.755c4.108-2.87 10.427-.377 16.116 1.915.965.389.68 2.445.311 3.34-7.044 1.639-11.792 4.906-16.868 4.831-3.411-.05-1.764-2.407-1.764-4.831l-2.2-.847c-.002-2.424-.723-.825 4.405-4.408Z" fill="#FF8F66"/><path d="M189.615 377.338h8.295" stroke="#FF8F66" stroke-width="3" stroke-miterlimit="10" stroke-linecap="round"/><path opacity=".997" d="m55.256 385.565-12.148-7.023a7.077 7.077 0 0 0-.025.263c0 .106-.008.2-.011.293-.007.148-.014.29-.014.45.008.49.054.979.137 1.462.045.256.14.501.279.72.048.081.09.165.126.252.073.179.112.37.115.563a.714.714 0 0 1-.6.742 18.195 18.195 0 0 1-.558-.115.825.825 0 0 1-.337-.7c0-.167.03-.332.085-.49.038-.112.082-.214.129-.318.096-.21.172-.428.227-.653.133-.493.209-1.001.225-1.512a3.417 3.417 0 0 0-.078-.693l-.105-.5-12.382-7.159a1.62 1.62 0 0 1-.805-1.556v-2.156c-.008-.066-.008-.142-.008-.228a1.622 1.622 0 0 1 .813-1.406l24.604-14.706.038-.021-.038.022-24.604 14.705 24.652-14.735.009-.006.616-.367.04-.024c.113-.056.23-.103.35-.14.256-.069.525-.074.783-.014l.066.02c.133.034.26.086.38.155h-.006l.017.008c.022.011.107.058.249.131.142.073.276.165.432.263 0 0 21.289 12.216 24.44 14.119l.186.108a.272.272 0 0 1 .038.028l.063.04c.015.01.028.022.039.036a1.623 1.623 0 0 1 .672 1.277v3.559l-.255-.125c-.14.219-.332.401-.558.53l-25.655 14.9a1.611 1.611 0 0 1-1.625 0l.002.001Zm-12.117-7.262c.09-.636.29-1.592.69-1.567h-.021c-.383 0-.581.938-.67 1.567Zm.947-1.446-.062-.041c.02.015.04.029.062.041Zm15.588-2.639a.965.965 0 0 0 0 .001v-.001Zm-22.935-.13c-.175-.153-.244-.3-.51-.854.267.561.335.701.51.854Zm-5.538-4.966c.233.134.443.26.533.325a8.568 8.568 0 0 0-.533-.328l-.1-.058.1.061Zm-.31-.178c.07.038.136.074.189.105l-.186-.105-.1-.055.046.026-.065-.041c-.085-.048-.174-.1-.264-.153l-.021-.012c.129.079.259.151.375.217l-.022-.013.048.028v.003Zm-.86-.554c-.03-.026-.057-.052-.083-.077.026.026.054.052.084.078l-.001-.001Zm52.409-.2h.008-.008Zm.776-1.714v-.012.012Zm-.007-.037v-.018.018Zm-.008-.038-.005-.022.005.022Zm-.01-.037-.006-.028.007.028Zm-.01-.039-.01-.033.01.033Zm-.01-.037c0-.013-.008-.024-.012-.036.004.015.008.022.012.039v-.003Zm-.013-.04-.013-.037.013.037Zm-.141-.306a8.993 8.993 0 0 0 0 .004v-.004Zm-25.11-14.853H57.9l.077.044-.07-.044Zm-.686-.4h.008-.008Z" fill="#fff"/><g opacity=".318"><g opacity=".422" fill-rule="evenodd" clip-rule="evenodd" fill="#4F00A3"><path opacity=".422" d="M41.024 374.804c-1.436-.927-3.025-1.683-3.662-.9-.206.255-.42.358-.624.179-.175-.154-.242-.294-.51-.853l-.146-.306a5.77 5.77 0 0 0-.407-.7l-.04-.061a4.96 4.96 0 0 0-2.108-1.721l-.211-.111a63.747 63.747 0 0 1-1.582-.887c-.088-.065-.3-.19-.532-.326l-.1-.058a9.25 9.25 0 0 0-.21-.119 3.397 3.397 0 0 1-1.048-.758c-.034-.052-.065-.1-.094-.14a1.111 1.111 0 0 1-.235-.707v2.251c0 .05-.007.1-.007.151a1.625 1.625 0 0 0 .813 1.407l12.388 7.163c-.291-1.315-.752-2.904-1.685-3.504ZM83.233 366.734a1.69 1.69 0 0 1-.842 1.489l-2 1.164-1.969 1.727s-3.034-.9-4.018-.283c-.22.139-.614-.1-.964-.317l-.033-.023c-.36-.22-1.186.467-1.578.806a.7.7 0 0 0-.213.49 1.083 1.083 0 0 1-.488.92 1.628 1.628 0 0 0-1.192-.571 10.64 10.64 0 0 0-4.555.763c-.579.3-1.073.563-1.486.787a.293.293 0 0 0-.14.236.289.289 0 0 0 .121.245.604.604 0 0 1 .173.772.605.605 0 0 1-.192.21l-.124.085s-1.344-.738-1.394-.805c0 0-.254.089-.374.135a.74.74 0 0 1-.13.039 2.758 2.758 0 0 1-1.938-.25.879.879 0 0 0-1.286.082c-.026.024-.048.046-.068.063-.165.14-.137.916-.123 1.288v.3c0 .025-.465.366-.465.366a2.089 2.089 0 0 1-1.036.348 2.057 2.057 0 0 1-1.38-.551l-.059-.042a1.087 1.087 0 0 1-.52-.816s.136-1.581-1.062-.961c-.176.09-.325.178-.458.256a1.34 1.34 0 0 1-1.59.123c-.942-.456-3.409 1.276-3.409 1.276l-.619.384a3.628 3.628 0 0 1-3.7.414 1.567 1.567 0 0 1-.1-.064.857.857 0 0 0-.069-.042c-.543-.291-.77 1.115-.846 1.767l12.148 7.024a1.617 1.617 0 0 0 1.623 0l25.657-14.9c.226-.13.416-.312.556-.531l.257.126V366.7l-.115.034Z"/></g><g opacity=".317" fill="#4F00A3"><path opacity=".317" d="M55.994 350.53c.016 0 .033 0 .048-.007-.018.004-.034.002-.048.007ZM56.535 350.49c-.047 0-.092-.014-.14-.014.046 0 .092.011.14.014ZM57.23 350.695a1.617 1.617 0 0 0-.43-.17c.149.043.293.1.43.17ZM54.963 351.074l.02-.014.617-.367-25.28 15.109 24.6-14.706.043-.022ZM82.585 365.355c-.018-.011-.03-.027-.048-.037l-.217-.126c.107.066.2.121.265.163ZM57.98 351.129l-.078-.045.01.006.067.039ZM30.894 368.945l-.257-.146.815.471-.25-.148-.1-.058a7.28 7.28 0 0 0-.208-.119ZM34.649 371.117a8.54 8.54 0 0 0-1.12-.671l-.211-.111a51.833 51.833 0 0 1-.48-.265l1.81 1.047ZM40.97 374.772a13.144 13.144 0 0 0-1.14-.658l1.14.658ZM82.667 365.417c.133.166.25.343.352.53a1.657 1.657 0 0 1-.57 2.235l.09-.052a1.615 1.615 0 0 0 .81-1.321 1.608 1.608 0 0 0-.68-1.393l-.002.001ZM74.407 370.832c-.221.139-.614-.1-.964-.317l-.037-.023c-.36-.22-1.186.467-1.578.806a.7.7 0 0 0-.213.49 1.077 1.077 0 0 1-.488.92 1.629 1.629 0 0 0-1.192-.571 10.625 10.625 0 0 0-4.555.763c-.58.3-1.073.563-1.486.787a.284.284 0 0 0-.14.235.285.285 0 0 0 .12.246.596.596 0 0 1 .246.496.598.598 0 0 1-.264.486l-.124.085s-1.344-.738-1.394-.805c0 0-.254.089-.374.135a.838.838 0 0 1-.13.039 2.758 2.758 0 0 1-1.938-.25.865.865 0 0 0-.661-.24.874.874 0 0 0-.625.322c-.026.024-.048.046-.068.063-.165.14-.137.916-.123 1.288v.3c0 .025-.465.366-.465.366a2.109 2.109 0 0 1-1.036.348 2.062 2.062 0 0 1-1.38-.551l-.06-.042a1.097 1.097 0 0 1-.52-.816s.137-1.581-1.061-.961c-.176.09-.325.178-.458.256a1.345 1.345 0 0 1-1.59.123c-.942-.456-3.41 1.276-3.41 1.276l-.618.384a4.391 4.391 0 0 1-2.641.742l10.073 5.825a1.617 1.617 0 0 0 1.623 0l20.838-12.1c-.954-.231-2.622-.533-3.307-.105ZM29.895 368.24c.118.15.263.277.427.375l.274.159a2.697 2.697 0 0 1-.701-.534ZM29.748 368.047l-.037-.056c.02.038.048.071.07.107l-.033-.051Z"/></g><path opacity=".318" fill-rule="evenodd" clip-rule="evenodd" d="m71.21 371.298-5.572-3.212a.78.78 0 0 0-.772 0l-5.577 3.212a.773.773 0 0 0-.282 1.052.773.773 0 0 0 .282.282l5.572 3.21a.773.773 0 0 0 .774 0l.628-.362a.792.792 0 0 0 .168-.074l4.77-2.744a.778.778 0 0 0 .393-.677v-.021a.77.77 0 0 0-.383-.666Z" fill="#6200D9"/><path opacity=".318" d="M65.062 376.004a.358.358 0 0 0 .361 0l5.006-2.893.53-.312-5.534-3.206a.364.364 0 0 0-.359 0l-5.537 3.171.54.346 4.993 2.894Z" fill="#6800E8"/><path opacity=".318" fill-rule="evenodd" clip-rule="evenodd" d="m53.105 371.393-5.573-3.211a.77.77 0 0 0-.772 0l-5.574 3.211a.766.766 0 0 0-.385.667.774.774 0 0 0 .385.668l5.57 3.21a.773.773 0 0 0 .775 0l.629-.362a.78.78 0 0 0 .167-.073l4.77-2.744a.787.787 0 0 0 .393-.677v-.021a.774.774 0 0 0-.385-.668Z" fill="#6200D9"/><path opacity=".457" fill-rule="evenodd" clip-rule="evenodd" d="m62.087 376.554-5.574-3.211a.78.78 0 0 0-.771 0l-5.575 3.211a.773.773 0 0 0-.28 1.052.773.773 0 0 0 .28.282l5.572 3.211a.773.773 0 0 0 .774 0l.629-.362a.783.783 0 0 0 .166-.073l4.77-2.744a.786.786 0 0 0 .393-.678v-.021a.771.771 0 0 0-.384-.667Z" fill="#4F00A3"/><path opacity=".318" d="M55.937 381.259a.358.358 0 0 0 .361 0l5-2.893.53-.312-5.534-3.206a.354.354 0 0 0-.359 0l-5.537 3.171.54.346 5 2.894Z" fill="#6800E8"/><path opacity=".318" fill-rule="evenodd" clip-rule="evenodd" d="M42.438 381.664c-.046.1-.09.2-.128.317a.982.982 0 0 0 .252 1.189c.183.042.369.08.559.115.42-.076.79-.5.481-1.3a1.956 1.956 0 0 0-.127-.251 1.98 1.98 0 0 1-.276-.722 8.177 8.177 0 0 1-.125-1.913c0-.092.008-.186.01-.291.028-.361.233-2.372.871-2.031a.857.857 0 0 1 .07.042c.032.022.067.043.1.064a3.624 3.624 0 0 0 1.907.303 3.618 3.618 0 0 0 1.793-.717l.618-.384s2.468-1.732 3.41-1.276a1.338 1.338 0 0 0 1.59-.123c.134-.078.282-.166.457-.256 1.2-.62 1.063.961 1.063.961a1.092 1.092 0 0 0 .52.816l.059.042c.375.349.867.545 1.38.551.37-.022.727-.142 1.036-.348 0 0 .462-.341.465-.366.002-.025 0-.269 0-.294v-.01c-.015-.372-.043-1.148.122-1.288l.069-.063a.87.87 0 0 1 .625-.322.878.878 0 0 1 .66.24 2.758 2.758 0 0 0 1.938.25.74.74 0 0 0 .13-.039c.12-.046.37-.14.375-.135.05.067 1.394.805 1.394.805l.123-.085a.6.6 0 0 0 .02-.982.288.288 0 0 1-.081-.381.293.293 0 0 1 .1-.1c.411-.224.907-.49 1.485-.787 1.445-.585 3-.846 4.556-.763a1.625 1.625 0 0 1 1.192.571 1.08 1.08 0 0 0 .487-.92.7.7 0 0 1 .214-.49c.39-.339 1.218-1.026 1.578-.806l.037.023c.35.215.742.456.963.317.984-.618 4.019.283 4.019.283l1.968-1.727 2-1.164a1.664 1.664 0 0 0 .626-2.276 2.808 2.808 0 0 0-.382-.561c-1.709-1.089-24.726-14.3-24.726-14.3-.155-.1-.3-.184-.434-.261l-.248-.133a2.415 2.415 0 0 0-.456-.18 1.62 1.62 0 0 0-.784.014c-.12.037-.237.084-.35.14l-.046.03-.614.367-.02.014-.04.022-24.6 14.706a1.63 1.63 0 0 0-.813 1.407c-.032.3.055.601.242.838l.095.14a3.43 3.43 0 0 0 1.048.758c.08.044.152.085.21.119l.1.058c.23.136.445.262.532.326.457.265 1.015.581 1.582.887l.21.111a4.96 4.96 0 0 1 2.108 1.721l.04.061c.152.224.288.458.407.7l.147.306c.267.558.334.7.51.853.2.179.417.077.623-.179.637-.786 2.227-.03 3.663.9 1.053.68 1.505 2.615 1.788 4 .133.734.082 1.49-.148 2.2a3.54 3.54 0 0 1-.23.657Z" fill="url(#g)"/><path fill-rule="evenodd" clip-rule="evenodd" d="M42.438 381.664c-.046.1-.09.2-.128.317a.982.982 0 0 0 .252 1.189c.183.042.369.08.559.115.42-.076.79-.5.481-1.3a1.956 1.956 0 0 0-.127-.251 1.98 1.98 0 0 1-.276-.722 8.177 8.177 0 0 1-.125-1.913c0-.092.008-.186.01-.291.028-.361.233-2.372.871-2.031a.857.857 0 0 1 .07.042c.032.022.067.043.1.064a3.624 3.624 0 0 0 1.907.303 3.618 3.618 0 0 0 1.793-.717l.618-.384s2.468-1.732 3.41-1.276a1.338 1.338 0 0 0 1.59-.123c.134-.078.282-.166.457-.256 1.2-.62 1.063.961 1.063.961a1.092 1.092 0 0 0 .52.816l.059.042c.375.349.867.545 1.38.551.37-.022.727-.142 1.036-.348 0 0 .462-.341.465-.366.002-.025 0-.269 0-.294v-.01c-.015-.372-.043-1.148.122-1.288l.069-.063a.87.87 0 0 1 .625-.322.878.878 0 0 1 .66.24 2.758 2.758 0 0 0 1.938.25.74.74 0 0 0 .13-.039c.12-.046.37-.14.375-.135.05.067 1.394.805 1.394.805l.123-.085a.6.6 0 0 0 .02-.982.288.288 0 0 1-.081-.381.293.293 0 0 1 .1-.1c.411-.224.907-.49 1.485-.787 1.445-.585 3-.846 4.556-.763a1.625 1.625 0 0 1 1.192.571 1.08 1.08 0 0 0 .487-.92.7.7 0 0 1 .214-.49c.39-.339 1.218-1.026 1.578-.806l.037.023c.35.215.742.456.963.317.984-.618 4.019.283 4.019.283l1.968-1.727 2-1.164a1.664 1.664 0 0 0 .626-2.276 2.808 2.808 0 0 0-.382-.561c-1.709-1.089-24.726-14.3-24.726-14.3-.155-.1-.3-.184-.434-.261l-.248-.133a2.415 2.415 0 0 0-.456-.18 1.62 1.62 0 0 0-.784.014c-.12.037-.237.084-.35.14l-.046.03-.614.367-.02.014-.04.022-24.6 14.706a1.63 1.63 0 0 0-.813 1.407c-.032.3.055.601.242.838l.095.14a3.43 3.43 0 0 0 1.048.758c.08.044.152.085.21.119l.1.058c.23.136.445.262.532.326.457.265 1.015.581 1.582.887l.21.111a4.96 4.96 0 0 1 2.108 1.721l.04.061c.152.224.288.458.407.7l.147.306c.267.558.334.7.51.853.2.179.417.077.623-.179.637-.786 2.227-.03 3.663.9 1.053.68 1.505 2.615 1.788 4 .133.734.082 1.49-.148 2.2a3.54 3.54 0 0 1-.23.657Z" fill="#4F00A3"/><path opacity=".278" fill-rule="evenodd" clip-rule="evenodd" d="m62.326 355.77-5.573-3.211a.779.779 0 0 0-.772 0l-5.574 3.211a.774.774 0 0 0-.282 1.053.766.766 0 0 0 .282.282l5.572 3.21a.774.774 0 0 0 .774 0l.628-.362a.737.737 0 0 0 .168-.073l4.77-2.744a.779.779 0 0 0 .393-.677v-.022a.77.77 0 0 0-.386-.667ZM71.308 360.978l-5.573-3.211a.779.779 0 0 0-.772 0l-5.574 3.211a.773.773 0 0 0-.282 1.053.766.766 0 0 0 .282.282l5.572 3.21a.772.772 0 0 0 .773 0l.63-.362a.795.795 0 0 0 .167-.073l4.77-2.744a.778.778 0 0 0 .392-.677v-.023a.773.773 0 0 0-.385-.666ZM62.277 366.185l-5.573-3.211a.78.78 0 0 0-.772 0l-5.574 3.211a.774.774 0 0 0-.282 1.053.766.766 0 0 0 .282.282l5.57 3.21a.773.773 0 0 0 .775 0l.629-.362a.793.793 0 0 0 .168-.073l4.77-2.744a.777.777 0 0 0 .392-.677v-.021a.771.771 0 0 0-.385-.668ZM71.212 371.298l-5.573-3.211a.78.78 0 0 0-.772 0l-5.577 3.211a.773.773 0 0 0 0 1.335l5.572 3.21a.773.773 0 0 0 .774 0l.628-.362a.792.792 0 0 0 .168-.074l4.77-2.744a.778.778 0 0 0 .393-.677v-.021a.771.771 0 0 0-.383-.667ZM53.104 371.393l-5.573-3.211a.77.77 0 0 0-.772 0l-5.574 3.211a.773.773 0 0 0-.281 1.052.773.773 0 0 0 .281.282l5.571 3.211a.773.773 0 0 0 .774 0l.63-.362a.783.783 0 0 0 .166-.073l4.77-2.744a.786.786 0 0 0 .393-.677v-.021a.774.774 0 0 0-.385-.668ZM80.194 366.138l-5.576-3.212a.78.78 0 0 0-.772 0l-5.575 3.211a.772.772 0 0 0 0 1.334l5.572 3.211a.773.773 0 0 0 .774 0l.628-.362a.788.788 0 0 0 .168-.073l4.77-2.744a.786.786 0 0 0 .393-.678v-.02a.772.772 0 0 0-.382-.667ZM53.343 360.978l-5.573-3.211a.78.78 0 0 0-.772 0l-5.574 3.211a.774.774 0 0 0-.282 1.053.767.767 0 0 0 .282.282l5.572 3.21a.773.773 0 0 0 .774 0l.628-.362a.793.793 0 0 0 .168-.073l4.77-2.744a.783.783 0 0 0 .393-.677v-.023a.77.77 0 0 0-.386-.666ZM44.265 366.329l-5.573-3.211a.78.78 0 0 0-.772 0l-5.574 3.211a.774.774 0 0 0-.282 1.053.767.767 0 0 0 .282.282l5.571 3.21a.773.773 0 0 0 .774 0l.628-.362a.741.741 0 0 0 .168-.073l4.77-2.744a.783.783 0 0 0 .393-.677v-.021a.771.771 0 0 0-.385-.668Z" fill="#fff"/><g opacity=".504" fill="#fff"><path opacity=".504" d="M56.177 360.475a.348.348 0 0 0 .18.049.348.348 0 0 0 .18-.049l5.007-2.892.529-.312-5.534-3.205a.355.355 0 0 0-.36 0l-5.536 3.171.538.346 4.996 2.892ZM65.16 365.683a.358.358 0 0 0 .361 0l5-2.892.53-.312-5.533-3.205a.355.355 0 0 0-.36 0l-5.537 3.171.54.346 5 2.892ZM56.129 370.89a.359.359 0 0 0 .36 0l5-2.892.53-.312-5.532-3.205a.355.355 0 0 0-.36 0l-5.537 3.171.539.346 5 2.892ZM65.062 376.003a.358.358 0 0 0 .361 0l5.006-2.893.53-.312-5.534-3.206a.364.364 0 0 0-.359 0l-5.537 3.171.54.346 4.993 2.894ZM46.955 376.098a.36.36 0 0 0 .362 0l5-2.892.529-.312-5.528-3.206a.364.364 0 0 0-.359 0l-5.541 3.172.539.346 4.998 2.892ZM55.937 381.26a.368.368 0 0 0 .361 0l5-2.893.53-.312-5.534-3.206a.354.354 0 0 0-.359 0l-5.537 3.171.54.346 5 2.894ZM74.046 370.844a.37.37 0 0 0 .362 0l5-2.892.529-.312-5.533-3.206a.354.354 0 0 0-.36 0l-5.536 3.171.539.347 4.999 2.892ZM47.194 365.683a.358.358 0 0 0 .361 0l5.006-2.892.53-.312-5.53-3.205a.355.355 0 0 0-.36 0l-5.54 3.171.537.346 4.996 2.892ZM38.116 371.035a.37.37 0 0 0 .362 0l5-2.892.53-.312-5.534-3.205a.354.354 0 0 0-.359 0l-5.537 3.171.54.346 4.998 2.892Z"/></g></g><path d="m376.75 383.306 6.158 5.591 4.8-5.29-6.031-5.962-4.927 5.661Z" fill="#D8DFE5"/><path d="m417.686 393.572-3.25-7.354-4.276-1.289c-2.6-4.543-3.235-9.158-7.242-12.658s-6.815-5.643-12.239-4.666c-6.815 1.228-11.906 9.536-11.906 9.536l8.16 8.867s2.743-3.79 4.216-3.34c1.473.45 1.48 5.075 1.69 6.523.873 6.036-.453 15.97-.53 22.08l25.377-17.699Z" fill="#262223"/><path d="m401.446 355.501-3.5-5.213-7.268 3.4 3.431 5.546 7.337-3.733Z" fill="#D8DFE5"/><path d="M362.845 505.755c3.761-2.617 3.678-8.04 3.017-12.365-1.001.084-2.007.07-3.006-.042a4.247 4.247 0 0 1-1.71-.484 10.096 10.096 0 0 1-1.917-2.069 6.394 6.394 0 0 0-6.565-1.537 16.144 16.144 0 0 0-6.027 3.867 8.451 8.451 0 0 0-2.909 4.191c-.388 1.741.555 3.942 2.174 4.058 1.825.131 3.177-2.269 5.005-2.2 1.942.068 2.805 2.646 4.132 4.215 1.881 2.225 4.928 2.458 7.701 2.484a.331.331 0 0 1 .105-.118Z" fill="#FB7E51"/><path d="M378.268 486.657a11.535 11.535 0 0 0 5.682 3.956 28.12 28.12 0 0 0 5.541 1.454c6.3-11.655 2.257-26.228 2.061-26.915a6.223 6.223 0 0 0-7.693-4.269 6.216 6.216 0 0 0-4.269 7.693c.034.12 2.966 11.032-1.322 18.081Z" fill="#F2EDDC"/><path d="M378.312 486.586a11.88 11.88 0 0 1-1.086 1.538c-2.893 3.446-7.946 5.151-15.048 5.1-.377 4.167-1 8.307-1.867 12.4.722.027 1.436.045 2.135.045 10.826 0 18.987-3.2 24.31-9.537a24.076 24.076 0 0 0 2.821-4.211 24.651 24.651 0 0 1-11.265-5.335Z" fill="#FB7E51"/><path d="m402.583 354.149-11.98 6.194s8.306 14.721 6.048 29.051c-.278 1.763-.075 3.64-.939 5.242-.976 1.811-2.809 3.044-4.471 4.337-7.057 5.49-6.716 9.4-8.46 17.84 17.259 0 29.8-.491 40.275-.136-.654-49.88-20.473-62.528-20.473-62.528Z" fill="#312D2E"/><path d="M383.554 476.068c34.768 3.788 44.124-23.3 41.4-47.759-23.708-5.874-50.453-7.309-50.453-7.309s-3.689 10.046-3.494 16.87" fill="#EDCF00"/><mask id="h" style="mask-type:alpha" maskUnits="userSpaceOnUse" x="371" y="421" width="55" height="56"><path d="M383.554 476.068c34.768 3.788 44.124-23.3 41.4-47.759-23.708-5.874-50.453-7.309-50.453-7.309s-3.689 10.046-3.494 16.87" fill="#EDCF00"/></mask><g mask="url(#h)" stroke="#E69C31" stroke-width="4" stroke-miterlimit="10"><path d="M387.957 429.072c16.532-.887 31.161 1.145 40.108 5.029M389.576 434.103c18.835 0 29.677 3.172 37.67 6.363"/></g><path d="M309.98 440.488s13-4.986 20-7.164c6.738-2.064 14.767-4.188 23.4-6.107 8.633-1.919 16.865-3.408 23.788-4.38 7.26-.99 21.317-1.223 21.317-1.223l.781 3.509c.684 3.077-18.57 10.02-42.975 15.443s-44.68 7.266-45.364 4.189l-.947-4.267Z" fill="#262223"/><path d="M388.784 415.503h34.382v11.805c-6.724-3.051-35.207-4.121-35.207-4.121l.825-7.684Z" fill="#F2EDDC"/><path d="M423.374 415.503h-34.591v3.766h34.591v-3.766Z" fill="#0A0A0A"/><path d="m375.031 465.157 17.164-6.739s5.862 9.1 3.784 12.928c-2.078 3.828-13.2-.578-13.2-.578l-7.748-5.611Z" fill="#F2EDDC"/><path d="m372.412 465.157 14.55-6.739 3.895 6.144a5 5 0 0 1-1.812 7.058l-16.632 9.151-.001-15.614Z" fill="#FB7E51"/><path d="m368.344 380.201-1.783 2.8 8.335 5.308 3.036-.033-.89 1.4 3.973 2.53s.593-1.173 1.6-3.062l-14.271-8.943Z" fill="#262223"/><path d="m383.339 389.687-2.249 2.5-3.973-2.53.743-1.167 1.647-1.246 3.832 2.443Z" fill="#0F0D0B"/><path d="M402.737 348.057a.27.27 0 0 0-.056.014l-2.369 1.109-1.176 2.879-7.269 3.932-1.826-2c-.515-2.011-.752-3.3-.752-3.3l3.975-1.864.68 1.453 1.674-2.555 8.35-3.91 1.408 3.005-2.639 1.237Z" fill="#262223"/><path d="m401.164 348.792 4.211-1.972-1.409-3.008-5.06 2.37 1.408 3.006.852-.4" fill="#0F0D0B"/><path d="M389.686 420.1a20.744 20.744 0 0 0-26.524-12.521c-.108.024-.2.1-.312.125l-29.9 11.291a21.116 21.116 0 0 0-12.112 26.83l71.221-15.827a52.217 52.217 0 0 0-2.371-9.9" fill="#4F00A3"/><path d="M320.836 445.827c.016.113.059.22.126.312l3.78 9.87 35.2-7.823a18.364 18.364 0 0 1 21.911 13.947l.011.05 1.68 7.559.066.042a61.727 61.727 0 0 0 8.507-39.741l-71.269 15.841-.012-.057Z" fill="url(#i)"/><path d="M334.125 472.508a11.062 11.062 0 1 0-4.799-21.597 11.062 11.062 0 0 0 4.799 21.597Z" fill="url(#j)"/><path d="M332.293 476.486c.364.949.778 1.879 1.242 2.784a20.894 20.894 0 0 0 10.475 9.4c4.188 1.506 9.245 1.572 15.118.21 11.13-2.19 18.587-10.7 24.407-19.193l-1.68-7.559a18.432 18.432 0 0 0-8.072-11.525 18.43 18.43 0 0 0-13.85-2.475l-35.206 7.824 7.566 20.534Z" fill="#FF8F66"/><path d="M354.715 478.893a5.87 5.87 0 0 1-7-4.452l11.5-2.556a5.843 5.843 0 0 1-4.413 6.987l-.093.02" fill="#fff"/><path d="M320.127 443.431c.2.924-.006 2.088 9.92 0l44.126-9.806c3.092-.682 8 9.053 10.114 11.414l9.144-5.262a76.248 76.248 0 0 0-1.542-12.293l-71.762 15.947Z" fill="#4F00A3"/><path d="M391.163 460.172a11.09 11.09 0 0 0 8.672-8.758 11.089 11.089 0 0 0-4.773-11.363 11.087 11.087 0 0 0-12.324.061 11.089 11.089 0 0 0-4.661 11.409l.036.162a11.007 11.007 0 0 0 4.76 6.947 10.997 10.997 0 0 0 8.277 1.545l.013-.003Z" fill="#FB7E51"/><path d="M391.114 448.231a2.773 2.773 0 0 0 .57-4.282 2.778 2.778 0 0 0-1.416-.799 4.468 4.468 0 0 0-3.426.648c-2.171 1.446-2.472 3.156-1.872 5.856a6.66 6.66 0 0 0 2.513 3.918l-.1-.432c-.436-1.717 1.735-3.672 3.726-4.908" fill="#FF8F66"/><path d="M358.834 452.327a4.48 4.48 0 0 1 5.375 3.358l.007.035.756 3.4a4.517 4.517 0 0 1-3.432 5.394 4.522 4.522 0 0 1-5.394-3.433l-.756-3.4a4.52 4.52 0 0 1 3.443-5.354" fill="#262223"/><path d="m387.183 416.757-31.751 2.552-7.995 1.51-31.956 5.148 3.73 16.81c1.93 8.361 10.052 11.977 18.411 10.047l30.998-7.157-1.43-6.191c.681.64 1.423 1.212 2.214 1.708 3.207 2.016 11.633 1.616 11.633 1.616 1.254-2.985 5.838-5.343 9.038-5.826l-1.642-.614c1.592-.368-1.25-19.603-1.25-19.603Z" fill="url(#k)"/><path d="M338.895 456.759a4.472 4.472 0 0 1 4.657 1.764c.342.479.586 1.021.718 1.594l.008.035.756 3.4a4.512 4.512 0 0 1-.57 3.441 4.52 4.52 0 0 1-7.557.156 4.538 4.538 0 0 1-.699-1.636l-.756-3.4a4.558 4.558 0 0 1 .631-3.379 4.56 4.56 0 0 1 2.813-1.975" fill="#262223"/><path d="M352.827 424.454c-24.406 5.424-43.66 12.365-42.975 15.442l.024.108a3.27 3.27 0 0 0 3.894 2.478c.288-.074.569-.175.839-.3l.054-.012a105.579 105.579 0 0 1 15.941-6.035c6.738-2.064 14.767-4.188 23.4-6.107 8.633-1.919 16.866-3.407 23.788-4.38a105.985 105.985 0 0 1 17-1.284l.173.018a3.273 3.273 0 0 0 3.384-3.132 4.317 4.317 0 0 0-.072-.834l-.024-.108c-.7-3.13-21.024-1.276-45.428 4.147" fill="#FFF100"/><path d="m399.202 424.575-.96-4.32c-.66-2.97-19.679-1.35-42.987 3.66l-2.538.565c-24.3 5.4-43.552 12.341-42.867 15.418l.96 4.32a.948.948 0 0 0 .329.72c.042-.066.138-.144.18-.21a9.827 9.827 0 0 1 3.409-2.513c1.836-.918 3.7-1.728 5.567-2.484a6.967 6.967 0 0 1 7.056 1.152 9.633 9.633 0 0 0 8.388 2.046l23.812-5.292a14.497 14.497 0 0 0 8.087-4.914l2.826-3.348a8.08 8.08 0 0 1 4.392-2.676c4.657-.978 7.841-1.686 8.34-1.74a79.736 79.736 0 0 1 11.6-.594 10.07 10.07 0 0 1 4.4.948.81.81 0 0 0 .007-.739" fill="#FFF100"/><path d="M357.465 381.205a41.456 41.456 0 0 1 35.374 32.2l1.272 5.724c-3.912-.264-10.259.24-18.112 1.361-.187-1.092-.438-2.225-.69-3.359-3.281-15.023-9.977-27.815-17.843-35.926" fill="url(#l)"/><path d="M311.844 431.404a41.353 41.353 0 0 1 3.509-27.808 86.222 86.222 0 0 0 1.865 26.5c.348 1.566.75 3.12 1.152 4.673a38.58 38.58 0 0 0-5.189 2.4l-1.337-5.765Z" fill="url(#m)"/><path d="M315.354 403.595a41.504 41.504 0 0 1 42.11-22.391c7.878 8.165 14.561 20.9 17.909 35.967.252 1.134.492 2.214.69 3.36-6.155.858-13.181 2.136-20.645 3.737l-2.484.552c-14.256 3.168-26.699 6.839-34.507 9.936a69.908 69.908 0 0 1-1.207-4.661 86.222 86.222 0 0 1-1.866-26.5Z" fill="#FFF100"/><path d="m330.921 402.913-.972-16.613a3.096 3.096 0 0 1 1.608-2.964 41.768 41.768 0 0 1 22.883-5.141 3.099 3.099 0 0 1 2.712 2l6.167 15.515" fill="#FFF100"/><path d="m346.713 426.147-1.656-7.451 8.069-7.8-6.413 15.251ZM334.443 415.047l10.613 3.648 1.656 7.451-12.269-11.099ZM341.829 404.17l-8.153 7.421 5.993-17.141 2.16 9.72ZM339.67 394.451l12.689 12.989-10.529-3.27-2.16-9.719ZM341.829 404.171l2.4 10.8-10.553-3.378 8.153-7.422Z" fill="#F9C838"/><path d="m334.444 415.047 10.614 3.647 1.656 7.451-12.27-11.098Zm-.767-3.454 8.154-7.424 2.4 10.8-10.554-3.376Zm5.992-17.142 2.161 9.718-8.154 7.424 5.993-17.142Z" fill="#0A0A0A"/><path d="m352.304 407.452-8.141 7.475-2.388-10.745 10.529 3.27Z" fill="#F9C838"/><path d="m346.713 426.147-1.656-7.451 8.069-7.8-6.413 15.251ZM341.776 404.18l10.53 3.271-8.143 7.476-2.387-10.747Zm.054-.01-2.16-9.72 12.69 12.988-10.53-3.268Z" fill="#4B4D4D"/><path d="M382.49 505.755c3.761-2.617 3.678-8.04 3.017-12.365-1.001.084-2.008.07-3.006-.042a4.256 4.256 0 0 1-1.711-.484 10.124 10.124 0 0 1-1.917-2.069 6.396 6.396 0 0 0-6.564-1.537 16.136 16.136 0 0 0-6.027 3.867 8.447 8.447 0 0 0-2.91 4.191c-.388 1.741.556 3.942 2.175 4.058 1.825.131 3.177-2.269 5.005-2.2 1.942.068 2.805 2.646 4.132 4.215 1.881 2.225 4.927 2.458 7.7 2.484a.343.343 0 0 1 .106-.118Z" fill="#FF8F66"/><path d="M397.912 486.657a11.54 11.54 0 0 0 5.682 3.956 28.137 28.137 0 0 0 5.541 1.454c6.3-11.655 2.257-26.228 2.061-26.915a6.229 6.229 0 0 0-2.962-3.728 6.235 6.235 0 0 0-4.731-.541 6.224 6.224 0 0 0-4.269 7.693c.034.12 2.966 11.032-1.322 18.081Z" fill="#F2EDDC"/><path d="M397.956 486.586a11.88 11.88 0 0 1-1.086 1.538c-2.893 3.446-7.946 5.151-15.048 5.1-.376 4.167-1 8.307-1.867 12.4.722.027 1.436.045 2.135.045 10.826 0 18.987-3.2 24.31-9.537a24.02 24.02 0 0 0 2.821-4.211 24.651 24.651 0 0 1-11.265-5.335Z" fill="#FF8F66"/><path d="M371.627 499.981h-60.494a2.945 2.945 0 0 0 0 5.888h60.494a2.944 2.944 0 1 0 0-5.888Z" fill="#7C8A98"/><path d="m290.785 445.714 17.053 58.04a2.944 2.944 0 1 0 5.649-1.659l-17.052-58.041a2.945 2.945 0 0 0-5.65 1.66Z" fill="#7C8A98"/><path d="M310.582 505.212a2.393 2.393 0 1 0 .001-4.785 2.393 2.393 0 0 0-.001 4.785Z" fill="#566068"/><path d="M413.38 464.115c1.723-5.22-.15-10.53-4.182-11.861-4.032-1.33-8.697 1.823-10.419 7.043-1.723 5.22.15 10.531 4.182 11.861s8.697-1.823 10.419-7.043Z" fill="#F2EDDC"/><path d="M420.866 412.846h-2.565v6.991h2.565v-6.991ZM401.219 412.846h-2.565v6.991h2.565v-6.991Z" fill="#312D2E"/><path d="m373.283 383.296 3.853-.967 7.706 4.931-1.5 2.426-10.059-6.39Z" fill="#262223"/><path opacity=".2" fill-rule="evenodd" clip-rule="evenodd" d="M208.032 152.981c-33.933 4.435-58.152 9.762-58.511-12.1 0 0 .741-8.473 11.13-9.006a9.002 9.002 0 0 1 8.288-8.374c4.268-.463 9.117 3.932 9.643 8.558 0 0 10.5-1.943 10.955 8.3.16 3.567-.646 9.633-10.773 9.371 0 0-5.859-.8-6.655-9.857-1.649 17.54 23.709 16.522 24.075.589.16-6.887-4.251-13.971-14.188-12.642-5.445-13.7-19.944-12.915-25.342-.207a13.284 13.284 0 0 0-9.698 3.948 13.295 13.295 0 0 0-3.829 9.746c.295 24.954 35.033 17.429 64.905 11.674Z" fill="#4F00A3"/><path opacity=".2" d="M282.357 216.663a4.168 4.168 0 0 0-1.057 1.785 4.615 4.615 0 0 0-.137 1.287c-.01 3.434 0 6.868-.01 10.3 0 .754-.051 1.506-.1 2.258a1.018 1.018 0 0 1-1.279.914 6.163 6.163 0 0 1-.839-.414 3.83 3.83 0 0 1-1.378-1.4 4.068 4.068 0 0 1-.554-2.068c-.012-4.109-.012-8.217 0-12.325a3.726 3.726 0 0 1 1.053-2.579c.3-.323.633-.616.972-.94a1.51 1.51 0 0 0-.21-.18c-.483-.281-.972-.554-1.457-.833-.4-.23-.79-.467-1.186-.7-.321-.188-.637-.386-.966-.558-.135-.071-.362-.168-.437-.111a6.953 6.953 0 0 0-1.025.922c-.226.257-.336.614-.548.887a2.216 2.216 0 0 0-.425 1.435c-.006 3.531 0 7.062-.012 10.593 0 .806-.059 1.611-.113 2.417a.936.936 0 0 1-1.063.962 2.021 2.021 0 0 1-.578-.131 3.523 3.523 0 0 1-1.645-1.334 2.876 2.876 0 0 1-.467-.932 6.482 6.482 0 0 1-.35-1.676 505.35 505.35 0 0 1 0-9.695 9.21 9.21 0 0 1 .168-3.127c.131-.36.214-.74.376-1.085a5.138 5.138 0 0 1 1.333-1.542l.218-.192c-.253-.123-.477-.21-.677-.333-.461-.283-.907-.592-1.37-.871-.3-.182-.62-.323-.924-.491a21.544 21.544 0 0 1-.924-.542.457.457 0 0 0-.621.038c-.417.362-.792.77-1.118 1.215a3.215 3.215 0 0 0-.641 1.906c-.012 3.917 0 7.832-.01 11.749a14.383 14.383 0 0 0 1.38 6.308c.242.492.511.969.806 1.429.43.556.79 1.166 1.239 1.7.322.328.665.633 1.027.914a10.754 10.754 0 0 0 2.306 1.58c.372.19.762.348 1.15.5.19.061.383.11.578.146a2.967 2.967 0 0 0 1.655 0c.218-.065.414-.067.532.182.064.14.145.271.241.39.368.426.73.861 1.132 1.255.477.469.984.909 1.49 1.346.159.113.326.213.5.3.481.3.946.627 1.447.889.394.194.807.348 1.231.459.38.104.768.171 1.16.2.17.012.346-.143.523-.154a2.296 2.296 0 0 0 1.69-1.132c.31-.432.54-.917.679-1.431.169-.6.259-1.219.267-1.843.024-4.087.018-8.175.012-12.262a4.026 4.026 0 0 1 .618-2.215c.329-.51.745-.958 1.229-1.324.089-.067.182-.127.275-.186l-4.159-2.441a5.08 5.08 0 0 0-1.007.781Z" fill="#4F00A3"/><path opacity=".2" d="M306.57 226.769c.469-.271.936-.548 1.411-.815.641-.362 1.294-.709 1.934-1.077.592-.342 1.17-.711 1.76-1.059.412-.243.835-.471 1.251-.709.564-.321 1.124-.651 1.692-.964a3.724 3.724 0 0 0 1.33-1.259 2.22 2.22 0 0 0-.186-2.48 7.063 7.063 0 0 0-1.043-1.095 15.518 15.518 0 0 0-6.621-3.21 1.323 1.323 0 0 1-.637-.285 12.185 12.185 0 0 0-3.84-3.074c-.423-.212-.86-.397-1.308-.552-2.26-.8-4.702-.932-7.036-.382-.78.243-10.9 5.546-11.579 5.894a7.379 7.379 0 0 0-.329.184l4.159 2.441c.463-.3 8.471-4.808 9.1-5.1a3.806 3.806 0 0 1 3.589.382c.5.287.891.788.784 1.247-.133.42-.422.772-.808.984-.588.392-1.239.691-1.851 1.049-.643.374-1.269.776-1.91 1.156-.457.271-.928.521-1.389.784-.4.226-.792.459-1.188.687l-1.469.841a44.72 44.72 0 0 1-.713.4l4.188 2.458s7.506-4.248 7.907-4.5a6.798 6.798 0 0 1 3.331-.778c.73.06 1.418.363 1.956.859a.929.929 0 0 1 .377.771.926.926 0 0 1-.411.753c-.675.521-1.413.964-2.138 1.419-.424.265-.873.489-1.308.734-.5.279-1 .56-1.494.839-.691.392-1.384.782-2.074 1.176-.192.111-.378.232-.568.346-.386.234-.786.447-1.154.709-.065.048-.131.1-.2.148l4.141 2.431c.354-.206.73-.38 1.063-.62.404-.276.855-.488 1.281-.733Z" fill="#4F00A3"/><path opacity=".2" d="M299.293 226.382a5.033 5.033 0 0 0-.926 1.239 4.41 4.41 0 0 0-.313 1.866c.014 3.81 0 7.618.01 11.429a2.779 2.779 0 0 1-.408 1.68.713.713 0 0 1-.58.372 2.115 2.115 0 0 1-1.372-.439 3.746 3.746 0 0 1-1.376-1.526 3.058 3.058 0 0 1-.511-1.494.778.778 0 0 0-.445-.762c-.564-.346-1.156-.651-1.734-.976-.641-.36-1.281-.724-2.013-1.14.071.687.109 1.289.2 1.88.088.49.203.974.344 1.451.087.309.214.606.327.9.147.461.321.911.523 1.35.301.552.633 1.086.994 1.6.295.449.62.877.974 1.281.369.396.764.767 1.18 1.112.404.353.828.682 1.269.986.401.259.819.49 1.251.691a5.174 5.174 0 0 0 2.072.536 3.121 3.121 0 0 0 1.653-.323c.532-.335.94-.833 1.164-1.421a6.304 6.304 0 0 0 .536-2.718c-.008-3.861-.008-7.723 0-11.587a4.795 4.795 0 0 1 1.227-3.533c.249-.293.552-.536.893-.715l-4.141-2.431a5.542 5.542 0 0 0-.798.692ZM320.663 251.068a9.244 9.244 0 0 0-.952-2.682 7.318 7.318 0 0 0-1.239-1.855 8.727 8.727 0 0 0-1.18-1.174c-.671-.485-1.405-.883-2.12-1.306-.546-.325-1.106-.627-1.657-.944-.36-.2-.732-.392-1.069-.629a4.498 4.498 0 0 1-1.441-1.669 4.39 4.39 0 0 1-.228-.653 3.338 3.338 0 0 1-.038-2.066.87.87 0 0 1 .814-.614c.459-.012.911.111 1.3.354.659.366 1.29.786 1.946 1.162.656.376 1.356.736 2.025 1.12.61.35 1.2.734 1.809 1.087.721.418 1.451.817 2.179 1.223.079.036.159.067.241.093a.48.48 0 0 0 .042-.111c0-1.486.006-2.973 0-4.459a.241.241 0 0 0-.081-.18c-.71-.433-1.424-.862-2.14-1.285-.466-.273-.937-.54-1.411-.8-.323-.176-.661-.321-.98-.5-.538-.309-1.061-.643-1.6-.958-.315-.184-.645-.344-.968-.521-.661-.364-1.3-.762-1.985-1.087a4.718 4.718 0 0 0-1.425-.469 3.395 3.395 0 0 0-2.092.172c-.341.129-.656.32-.928.564a4.217 4.217 0 0 0-.98 2.433c-.047.768-.024 1.54-.022 2.31-.006.224.012.447.053.667.121.552.253 1.1.408 1.647.11.459.261.906.451 1.338.3.624.657 1.223 1.017 1.815.278.463.584.908.918 1.332a12.345 12.345 0 0 0 2.217 2.2c.58.433 1.172.853 1.781 1.243.368.238.788.39 1.166.614.566.307 1.067.72 1.475 1.217.257.328.477.682.657 1.057.317.721.411 1.52.269 2.294a1.132 1.132 0 0 1-.98.888 1.127 1.127 0 0 1-.465-.045c-.8-.39-1.577-.843-2.365-1.269-.174-.093-.36-.166-.527-.271-.43-.271-.841-.57-1.277-.825-.932-.544-1.876-1.069-2.815-1.6-.515-.293-1.025-.59-1.54-.879-.131-.073-.273-.127-.412-.188a.503.503 0 0 0-.038.1c0 1.486-.008 2.973 0 4.459a.39.39 0 0 0 .17.273c.333.208.685.388 1.023.59.641.382 1.273.78 1.92 1.154.732.424 1.477.823 2.213 1.241.574.327 1.142.667 1.718.994.353.16.692.349 1.013.566a6.078 6.078 0 0 0 1.922.859c.7.257 1.457.319 2.189.18a2.58 2.58 0 0 0 1.589-.96 4.557 4.557 0 0 0 .831-2.634 8.66 8.66 0 0 0-.137-3.011 10.705 10.705 0 0 1-.264-1.602Z" fill="#4F00A3"/><path opacity=".2" d="M293.682 234.09c.046-.051.057-.059.057-.067 0-1.506 0-3.01-.01-4.517a.364.364 0 0 0-.16-.269c-.667-.4-1.342-.786-2.013-1.18-.214-.125-.414-.271-.629-.39-.406-.224-.817-.435-1.269-.673 0 1.574 0 3.092.006 4.61a.326.326 0 0 0 .139.222c.7.424 1.413.839 2.124 1.253.581.338 1.165.67 1.755 1.011ZM375.236 290.074c-.42.353-.826.722-1.211 1.113.391-.385.791-.76 1.211-1.113Z" fill="#4F00A3"/><path opacity=".2" d="M403.017 314.6c-6.083 2.014-12.73-.212-17.675-3.593-4.7-3.216-8.7-8.594-8.081-14.568.62-6.013 5.559-9.7 11.442-10.113a16.971 16.971 0 0 1 9.567 2.367c3.839 2.048 6.888 7.051 5.006 10.5-3.626 6.635-15.846 1.318-14.876-5.541a3.505 3.505 0 0 1 1.112-2.238c.888-.717.919.259.7.887-.679 1.96.609 3.858 2.14 4.962 2.088 1.5 6.722 2.176 7.913-.883 2.041-5.262-9.559-9.207-13.206-5.688-5.628 5.439.081 11 4.639 13.471 3.835 2.085 10.851 2.944 13.736-1.442 3.4-5.473-2.372-11.682-6.473-14.6.5.278.976.57 1.447.869a20.584 20.584 0 0 0-25.066 1c-.037.03-.07.062-.107.093-.42.353-.819.728-1.211 1.113a18.958 18.958 0 0 0 .434 26.122 32.718 32.718 0 0 0 7.882 5.822c2.041 1.081 3.549 1.593 3.484 2.091-.121.909-2.979-.019-3.831-.31a32.608 32.608 0 0 1-8.509-4.326c-.232-.173-.436-.375-.655-.562a20.633 20.633 0 0 0 15.705 7.274 20.887 20.887 0 0 0 20.715-19.279 9.957 9.957 0 0 1-6.232 6.572ZM375.343 289.979c-.037.03-.072.062-.107.093.037-.029.066-.061.107-.093Z" fill="#4F00A3"/><path opacity=".2" d="M401.951 296.778c.585-3.931-2.97-6.631-6.252-7.858-3.869-1.442-8.98-.811-11.8 2.393-2.059 2.353-1.928 5.77-.864 8.535a14.612 14.612 0 0 0 9.46 8.5 16.734 16.734 0 0 0 9.671.351c4.438-1.428 5.882-6.054 4.965-10.292a12.083 12.083 0 0 0-.9-2.653c-.559-1.177-2.278-3.559.091-.661.248.323.475.661.682 1.011.489.801.876 1.66 1.152 2.557 1.291 3.955.278 8.572-3.3 10.96-2.743 1.827-6.228 2.046-9.41 1.588a17.786 17.786 0 0 1-11.076-5.993c-2.553-3.022-4.294-7.364-3.246-11.333a8.792 8.792 0 0 1 5.949-5.974 13.275 13.275 0 0 1 10.715 1.259 9.472 9.472 0 0 1 3.9 3.938 5.82 5.82 0 0 1 .586 2.458c.01.345-.017.69-.08 1.03-.022.123-.284.471-.248.185" fill="#4F00A3"/><path opacity=".167" d="M193.063 364.565a3.55 3.55 0 0 1-1.747-.472l-3.1-1.777a3.575 3.575 0 0 1-1.8-3.105l.007-13.244-.007-7.481.017.01 6.333 3.751v15.449l6.7 3.695.015.043-4.689 2.668a3.554 3.554 0 0 1-1.729.463Z" fill="#4F00A3"/><path opacity=".3" d="M206.33 357.403v-7.585l-.07-.044-6.754-3.84v.14l.018 15.344" fill="#4F00A3"/><path opacity=".388" d="m212.925 346.012-6.587 3.805v7.576l11.32-6.736a3.43 3.43 0 0 0 1.627-3.106v-3.3a3.528 3.528 0 0 0-1.723-3.106l-4.624-2.674-.009 7.541h-.004Z" fill="#4F00A3"/><path opacity=".236" d="m206.328 349.818 6.6-3.805.009-7.532-6.6 3.753" fill="#4F00A3"/><path opacity=".227" d="M186.873 331.071a3.654 3.654 0 0 0-.455 1.758v5.59l.017.07 6.334 3.753v15.45l6.749 3.718-.009-15.432 6.824 3.84v-7.637" fill="#4F00A3"/><path opacity=".271" d="m206.328 342.236 6.6-3.753-10.183-5.9v-.007l-8-4.6a3.377 3.377 0 0 0-3.456 0l-3.087 1.76c-.56.32-1.025.784-1.347 1.344" fill="#4F00A3"/><defs><linearGradient id="a" x1="124.955" y1="407.303" x2="125.274" y2="340.153" gradientUnits="userSpaceOnUse"><stop stop-color="#260254"/><stop offset=".483" stop-color="#4F15A3"/><stop offset="1" stop-color="#23004E"/></linearGradient><linearGradient id="b" x1="125.82" y1="361.588" x2="125.82" y2="393.531" gradientUnits="userSpaceOnUse"><stop stop-color="#FB7E51"/><stop offset="1" stop-color="#FF8F66"/></linearGradient><linearGradient id="c" x1="114.061" y1="364.264" x2="113.928" y2="335.454" gradientUnits="userSpaceOnUse"><stop stop-color="#4F00A3"/><stop offset="1" stop-color="#23004E"/></linearGradient><linearGradient id="d" x1="149.877" y1="365.774" x2="149.481" y2="327.103" gradientUnits="userSpaceOnUse"><stop stop-color="#4F00A3"/><stop offset="1" stop-color="#23004E"/></linearGradient><linearGradient id="e" x1="96.409" y1="291.521" x2="96.409" y2="335.826" gradientUnits="userSpaceOnUse"><stop stop-color="#FFF100"/><stop offset="1" stop-color="#EDCF00"/></linearGradient><linearGradient id="f" x1="159.795" y1="304.078" x2="159.795" y2="335.771" gradientUnits="userSpaceOnUse"><stop stop-color="#FFF100"/><stop offset="1" stop-color="#EDCF00"/></linearGradient><linearGradient id="g" x1="56.374" y1="391.326" x2="56.374" y2="353.585" gradientUnits="userSpaceOnUse"><stop stop-color="#5B00CB"/><stop offset="1" stop-color="#5100B4"/></linearGradient><linearGradient id="i" x1="370.781" y1="457.186" x2="376.171" y2="487.449" gradientUnits="userSpaceOnUse"><stop stop-color="#FB7E51"/><stop offset="1" stop-color="#FF8F66"/></linearGradient><linearGradient id="j" x1="320.662" y1="450.646" x2="342.788" y2="450.646" gradientUnits="userSpaceOnUse"><stop stop-color="#FB7E51"/><stop offset="1" stop-color="#FF8F66"/></linearGradient><linearGradient id="k" x1="365.831" y1="439.949" x2="360.481" y2="422.14" gradientUnits="userSpaceOnUse"><stop stop-color="#4F00A3"/><stop offset="1" stop-color="#23004E"/></linearGradient><linearGradient id="l" x1="375.788" y1="381.205" x2="375.788" y2="420.49" gradientUnits="userSpaceOnUse"><stop stop-color="#FFF100"/><stop offset="1" stop-color="#EDCF00"/></linearGradient><linearGradient id="m" x1="314.608" y1="403.596" x2="314.608" y2="437.169" gradientUnits="userSpaceOnUse"><stop stop-color="#FFF100"/><stop offset="1" stop-color="#EDCF00"/></linearGradient></defs></svg>