<svg width="422" height="607" viewBox="0 0 422 607" fill="none" xmlns="http://www.w3.org/2000/svg">
<rect width="38.7055" height="38.7055" transform="matrix(0.866023 0.500004 -0.866023 0.500004 387.521 507.246)" fill="#F2F2F2" stroke="#B6B6B7" stroke-width="0.525875" stroke-linejoin="round"/>
<path d="M354.002 526.6L387.522 545.953V558.532L354.002 539.179V526.6Z" fill="#F2F2F2" stroke="#B6B6B7" stroke-width="0.526884" stroke-linejoin="round"/>
<path d="M387.521 545.953L421.041 526.6V539.18L387.521 558.533V545.953Z" fill="#F2F2F2" stroke="#B6B6B7" stroke-width="0.526884" stroke-linejoin="round"/>
<rect width="38.7055" height="38.7055" transform="matrix(0.866023 0.500004 -0.866023 0.500004 387.521 461.084)" fill="white" stroke="#B6B6B7" stroke-width="0.525875" stroke-linejoin="round"/>
<path d="M354.002 480.438L387.522 499.79V512.37L354.002 493.017V480.438Z" fill="#F2F2F2" stroke="#B6B6B7" stroke-width="0.526884" stroke-linejoin="round"/>
<path d="M387.521 499.793L421.041 480.44V493.019L387.521 512.372V499.793Z" fill="#F2F2F2" stroke="#B6B6B7" stroke-width="0.526884" stroke-linejoin="round"/>
<rect width="38.7055" height="38.7055" transform="matrix(0.866023 0.500004 -0.866023 0.500004 219.895 489.438)" fill="white" stroke="#B6B6B7" stroke-width="0.525875" stroke-linejoin="round"/>
<path d="M186.375 508.791L219.895 528.144V540.723L186.375 521.37V508.791Z" fill="#F2F2F2" stroke="#B6B6B7" stroke-width="0.526884" stroke-linejoin="round"/>
<path d="M219.896 528.146L253.416 508.794V521.373L219.896 540.726V528.146Z" fill="#F2F2F2" stroke="#B6B6B7" stroke-width="0.526884" stroke-linejoin="round"/>
<rect width="38.7055" height="38.7055" transform="matrix(0.866023 0.500004 -0.866023 0.500004 387.523 332.572)" fill="#FBFBFB" stroke="#B6B6B7" stroke-width="0.525875" stroke-linejoin="round"/>
<rect width="38.7055" height="12.5794" transform="matrix(0.866023 0.500004 0 1 354.004 351.924)" fill="#FBFBFB" stroke="#B6B6B7" stroke-width="0.525874" stroke-linejoin="round"/>
<path d="M387.523 371.279L421.043 351.926V364.506L387.523 383.859V371.279Z" fill="#F2F2F2" stroke="#B6B6B7" stroke-width="0.526884" stroke-linejoin="round"/>
<rect width="38.7055" height="38.7055" transform="matrix(0.866023 0.500004 -0.866023 0.500004 219.895 450.971)" fill="#FBFBFB" stroke="#B6B6B7" stroke-width="0.525875" stroke-linejoin="round"/>
<path d="M186.375 470.324L219.895 489.677V502.257L186.375 482.904V470.324Z" fill="#F2F2F2" stroke="#B6B6B7" stroke-width="0.526884" stroke-linejoin="round"/>
<path d="M219.895 489.678L253.414 470.325V482.904L219.895 502.257V489.678Z" fill="#F2F2F2" stroke="#B6B6B7" stroke-width="0.526884" stroke-linejoin="round"/>
<rect width="38.7055" height="38.7055" transform="matrix(0.866023 0.500004 -0.866023 0.500004 354.105 429.146)" fill="#FBFBFB" stroke="#B6B6B7" stroke-width="0.525875" stroke-linejoin="round"/>
<path d="M320.586 448.5L354.106 467.853V480.432L320.586 461.079V448.5Z" fill="#F2F2F2" stroke="#B6B6B7" stroke-width="0.526884" stroke-linejoin="round"/>
<path d="M354.107 467.855L387.627 448.503V461.082L354.107 480.435V467.855Z" fill="#F2F2F2" stroke="#B6B6B7" stroke-width="0.526884" stroke-linejoin="round"/>
<rect width="38.7055" height="38.7055" transform="matrix(0.866023 0.500004 -0.866023 0.500004 85.8555 425.582)" fill="#FBFBFB" stroke="#B6B6B7" stroke-width="0.525875" stroke-linejoin="round"/>
<path d="M52.3379 444.936L85.8578 464.288V476.868L52.3379 457.515V444.936Z" fill="#F2F2F2" stroke="#B6B6B7" stroke-width="0.526884" stroke-linejoin="round"/>
<path d="M85.8555 464.289L119.375 444.936V457.516L85.8555 476.868V464.289Z" fill="#F2F2F2" stroke="#B6B6B7" stroke-width="0.526884" stroke-linejoin="round"/>
<rect width="38.7055" height="38.7055" transform="matrix(0.866023 0.500004 -0.866023 0.500004 152.824 81)" fill="#FBFBFB" stroke="#B6B6B7" stroke-width="0.525875" stroke-linejoin="round"/>
<path d="M119.305 100.354L152.825 119.706V132.286L119.305 112.933V100.354Z" fill="#F2F2F2" stroke="#B6B6B7" stroke-width="0.526884" stroke-linejoin="round"/>
<path d="M152.824 119.703L186.344 100.35V112.93L152.824 132.283V119.703Z" fill="#F2F2F2" stroke="#B6B6B7" stroke-width="0.526884" stroke-linejoin="round"/>
<rect width="38.7055" height="38.7055" transform="matrix(0.866023 0.500004 -0.866023 0.500004 152.877 400.35)" fill="#FBFBFB" stroke="#B6B6B7" stroke-width="0.525875" stroke-linejoin="round"/>
<rect width="38.7055" height="12.5794" transform="matrix(0.866023 0.500004 0 1 119.357 419.703)" fill="#FBFBFB" stroke="#B6B6B7" stroke-width="0.525874" stroke-linejoin="round"/>
<rect width="38.7055" height="12.5794" transform="matrix(0.866023 -0.500004 0 1 152.879 439.057)" fill="white" stroke="#B6B6B7" stroke-width="0.525874" stroke-linejoin="round"/>
<rect width="38.7055" height="38.7055" transform="matrix(0.866023 0.500004 -0.866023 0.500004 52.5273 275.842)" fill="#FBFBFB" stroke="#B6B6B7" stroke-width="0.525875" stroke-linejoin="round"/>
<path d="M19.0078 295.197L52.5277 314.55V327.13L19.0078 307.777V295.197Z" fill="#F2F2F2" stroke="#B6B6B7" stroke-width="0.526884" stroke-linejoin="round"/>
<rect width="38.7055" height="12.5794" transform="matrix(0.866023 -0.500004 0 1 52.5273 314.555)" fill="white" stroke="#B6B6B7" stroke-width="0.525874" stroke-linejoin="round"/>
<rect width="38.7055" height="38.7055" transform="matrix(0.866023 0.500004 -0.866023 0.500004 219.906 405.893)" fill="#FBFBFB" stroke="#B6B6B7" stroke-width="0.525875" stroke-linejoin="round"/>
<path d="M186.389 425.246L219.909 444.599V457.178L186.389 437.825V425.246Z" fill="#F2F2F2" stroke="#B6B6B7" stroke-width="0.526884" stroke-linejoin="round"/>
<path d="M219.906 444.6L253.426 425.247V437.826L219.906 457.179V444.6Z" fill="#F2F2F2" stroke="#B6B6B7" stroke-width="0.526884" stroke-linejoin="round"/>
<path d="M320.471 202.533L320.471 88.8889L270.814 118.057L320.471 202.533Z" fill="white" stroke="#B6B6B7" stroke-width="0.53" stroke-linejoin="round"/>
<path d="M369.983 117.972L320.508 146.744L271.033 117.972L320.508 88.8481L369.983 117.972Z" fill="#FBFBFB" stroke="url(#paint0_linear_2417_301645)" stroke-width="0.53" stroke-linejoin="round"/>
<path d="M320.47 202.533L320.47 88.8846L370.127 118.057L320.47 202.533Z" fill="#F2F2F2" stroke="#B6B6B7" stroke-width="0.53" stroke-linejoin="round"/>
<path d="M369.988 117.97L320.511 146.744L271.033 117.97L320.511 88.8456L369.988 117.97Z" fill="#FBFBFB" stroke="#B6B6B7" stroke-width="0.53" stroke-linejoin="round"/>
<path d="M369.988 87.0961L320.511 58.3223L271.033 87.0961L320.511 116.221L369.988 87.0961Z" fill="#FBFBFB" stroke="url(#paint1_linear_2417_301645)" stroke-width="0.53" stroke-linejoin="round"/>
<path d="M320.471 2.53321L320.471 116.178L270.814 87.0091L320.471 2.53321Z" fill="white" stroke="#B6B6B7" stroke-width="0.53" stroke-linejoin="round"/>
<path d="M369.983 87.0948L320.508 58.3223L271.033 87.0948L320.508 116.218L369.983 87.0948Z" fill="#FBFBFB" stroke="#B6B6B7" stroke-width="0.53" stroke-linejoin="round"/>
<path d="M320.47 2.5332L320.47 116.182L370.127 87.0091L320.47 2.5332Z" fill="white" stroke="#B6B6B7" stroke-width="0.53" stroke-linejoin="round"/>
<rect width="38.7055" height="38.7055" transform="matrix(0.866023 0.500004 -0.866023 0.500004 152.824 36.9531)" fill="#FBFBFB" stroke="#B6B6B7" stroke-width="0.525875" stroke-linejoin="round"/>
<path d="M119.305 56.3066L152.825 75.6596V88.239L119.305 68.886V56.3066Z" fill="#F2F2F2" stroke="#B6B6B7" stroke-width="0.526884" stroke-linejoin="round"/>
<path d="M152.824 75.6621L186.344 56.3092V68.8886L152.824 88.2415V75.6621Z" fill="#F2F2F2" stroke="#B6B6B7" stroke-width="0.526884" stroke-linejoin="round"/>
<rect width="38.7799" height="38.7799" transform="matrix(0.866023 0.500004 -0.866023 0.500004 119.893 553)" fill="#FBFBFB" stroke="#B6B6B7" stroke-width="0.526885" stroke-linejoin="round"/>
<path d="M86.3086 572.391L119.893 591.781V604.384L86.3086 584.994V572.391Z" fill="#F2F2F2" stroke="#B6B6B7" stroke-width="0.526884" stroke-linejoin="round"/>
<path d="M119.893 591.783L153.477 572.393V584.997L119.893 604.387V591.783Z" fill="#F2F2F2" stroke="#B6B6B7" stroke-width="0.526884" stroke-linejoin="round"/>
<rect width="38.7799" height="38.7799" transform="matrix(0.866023 0.500004 -0.866023 0.500004 119.893 540.398)" fill="#FBFBFB" stroke="#B6B6B7" stroke-width="0.526885" stroke-linejoin="round"/>
<path d="M86.3086 559.789L119.893 579.179V591.783L86.3086 572.393V559.789Z" fill="#F2F2F2" stroke="#B6B6B7" stroke-width="0.526884" stroke-linejoin="round"/>
<path d="M119.893 579.182L153.477 559.792V572.395L119.893 591.785V579.182Z" fill="#F2F2F2" stroke="#B6B6B7" stroke-width="0.526884" stroke-linejoin="round"/>
<rect width="38.7799" height="38.7799" transform="matrix(0.866023 0.500004 -0.866023 0.500004 119.893 503.799)" fill="#FBFBFB" stroke="#B6B6B7" stroke-width="0.526885" stroke-linejoin="round"/>
<path d="M86.3086 523.189L119.893 542.58V555.183L86.3086 535.793V523.189Z" fill="#F2F2F2" stroke="#B6B6B7" stroke-width="0.526884" stroke-linejoin="round"/>
<path d="M119.893 542.582L153.477 523.192V535.795L119.893 555.186V542.582Z" fill="#F2F2F2" stroke="#B6B6B7" stroke-width="0.526884" stroke-linejoin="round"/>
<rect width="38.7055" height="38.7055" transform="matrix(0.866023 0.500004 -0.866023 0.500004 119.43 464.156)" fill="#FBFBFB" stroke="#B6B6B7" stroke-width="0.525875" stroke-linejoin="round"/>
<path d="M85.9102 483.51L119.43 502.863V515.442L85.9102 496.089V483.51Z" fill="#F2F2F2" stroke="#B6B6B7" stroke-width="0.526884" stroke-linejoin="round"/>
<path d="M119.43 502.865L152.95 483.512V496.092L119.43 515.445V502.865Z" fill="#F2F2F2" stroke="#B6B6B7" stroke-width="0.526884" stroke-linejoin="round"/>
<g clip-path="url(#clip0_2417_301645)">
<rect width="38.7055" height="38.7055" transform="matrix(0.866023 0.500004 -0.866023 0.500004 387.438 332.574)" fill="#FBFBFB" stroke="#B6B6B7" stroke-width="0.525875" stroke-linejoin="round"/>
<rect width="38.7055" height="12.5794" transform="matrix(0.866023 0.500004 0 1 353.92 351.926)" fill="#FBFBFB" stroke="#B6B6B7" stroke-width="0.525874" stroke-linejoin="round"/>
<rect width="38.7055" height="12.5794" transform="matrix(0.866023 -0.500004 0 1 387.438 371.281)" fill="white" stroke="#B6B6B7" stroke-width="0.525874" stroke-linejoin="round"/>
<rect width="38.7055" height="38.7055" transform="matrix(0.866023 0.500004 -0.866023 0.500004 353.914 351.924)" fill="#FBFBFB" stroke="#B6B6B7" stroke-width="0.525875" stroke-linejoin="round"/>
<rect width="38.7055" height="12.5794" transform="matrix(0.866023 0.500004 0 1 320.396 371.277)" fill="#FBFBFB" stroke="#B6B6B7" stroke-width="0.525874" stroke-linejoin="round"/>
<rect width="38.7055" height="12.5794" transform="matrix(0.866023 -0.500004 0 1 353.914 390.633)" fill="white" stroke="#B6B6B7" stroke-width="0.525874" stroke-linejoin="round"/>
<rect width="38.7055" height="38.7055" transform="matrix(0.866023 0.500004 -0.866023 0.500004 286.883 390.637)" fill="#FBFBFB" stroke="#B6B6B7" stroke-width="0.525875" stroke-linejoin="round"/>
<rect width="38.7055" height="12.5794" transform="matrix(0.866023 0.500004 0 1 253.365 409.99)" fill="#FBFBFB" stroke="#B6B6B7" stroke-width="0.525874" stroke-linejoin="round"/>
<rect width="38.7055" height="12.5794" transform="matrix(0.866023 -0.500004 0 1 286.885 429.348)" fill="white" stroke="#B6B6B7" stroke-width="0.525874" stroke-linejoin="round"/>
<rect width="38.7055" height="38.7055" transform="matrix(0.866023 0.500004 -0.866023 0.500004 354.02 429.146)" fill="#FBFBFB" stroke="#B6B6B7" stroke-width="0.525875" stroke-linejoin="round"/>
<rect width="38.7055" height="38.7055" transform="matrix(0.866023 0.500004 -0.866023 0.500004 152.738 305.436)" fill="#FBFBFB" stroke="#B6B6B7" stroke-width="0.525875" stroke-linejoin="round"/>
<rect width="38.7055" height="12.5794" transform="matrix(0.866023 0.500004 0 1 119.221 324.789)" fill="#FBFBFB" stroke="#B6B6B7" stroke-width="0.525874" stroke-linejoin="round"/>
<rect width="38.7055" height="12.5794" transform="matrix(0.866023 -0.500004 0 1 152.738 344.145)" fill="white" stroke="#B6B6B7" stroke-width="0.525874" stroke-linejoin="round"/>
<rect width="38.7055" height="38.7055" transform="matrix(0.866023 0.500004 -0.866023 0.500004 85.7695 425.582)" fill="#FBFBFB" stroke="#B6B6B7" stroke-width="0.525875" stroke-linejoin="round"/>
<rect width="38.7055" height="12.5794" transform="matrix(0.866023 0.500004 0 1 52.252 444.936)" fill="#FBFBFB" stroke="#B6B6B7" stroke-width="0.525874" stroke-linejoin="round"/>
<rect width="38.7055" height="12.5794" transform="matrix(0.866023 -0.500004 0 1 85.7695 464.289)" fill="white" stroke="#B6B6B7" stroke-width="0.525874" stroke-linejoin="round"/>
<rect width="38.7055" height="38.7055" transform="matrix(0.866023 0.500004 -0.866023 0.500004 52.2734 444.953)" fill="#FBFBFB" stroke="#B6B6B7" stroke-width="0.525875" stroke-linejoin="round"/>
<rect width="38.7055" height="38.7055" transform="matrix(0.866023 0.500004 -0.866023 0.500004 152.793 400.348)" fill="#FBFBFB" stroke="#B6B6B7" stroke-width="0.525875" stroke-linejoin="round"/>
<rect width="38.7055" height="12.5794" transform="matrix(0.866023 0.500004 0 1 119.275 419.701)" fill="#FBFBFB" stroke="#B6B6B7" stroke-width="0.525874" stroke-linejoin="round"/>
<rect width="38.7055" height="12.5794" transform="matrix(0.866023 -0.500004 0 1 152.795 439.055)" fill="white" stroke="#B6B6B7" stroke-width="0.525874" stroke-linejoin="round"/>
<rect width="38.7055" height="38.7055" transform="matrix(0.866023 0.500004 -0.866023 0.500004 152.738 261.393)" fill="#FBFBFB" stroke="#B6B6B7" stroke-width="0.525875" stroke-linejoin="round"/>
<rect width="38.7055" height="12.5794" transform="matrix(0.866023 0.500004 0 1 119.221 280.746)" fill="#FBFBFB" stroke="#B6B6B7" stroke-width="0.525874" stroke-linejoin="round"/>
<rect width="38.7055" height="12.5794" transform="matrix(0.866023 -0.500004 0 1 152.738 300.102)" fill="white" stroke="#B6B6B7" stroke-width="0.525874" stroke-linejoin="round"/>
<rect width="38.7055" height="38.7055" transform="matrix(0.866023 0.500004 -0.866023 0.500004 152.74 227.676)" fill="#FBFBFB" stroke="#B6B6B7" stroke-width="0.525875" stroke-linejoin="round"/>
<rect width="38.7055" height="12.5794" transform="matrix(0.866023 0.500004 0 1 119.223 247.029)" fill="#FBFBFB" stroke="#B6B6B7" stroke-width="0.525874" stroke-linejoin="round"/>
<rect width="38.7055" height="12.5794" transform="matrix(0.866023 -0.500004 0 1 152.742 266.383)" fill="white" stroke="#B6B6B7" stroke-width="0.525874" stroke-linejoin="round"/>
<rect width="38.7055" height="38.7055" transform="matrix(0.866023 0.500004 -0.866023 0.500004 85.7871 335.975)" fill="#FBFBFB" stroke="#B6B6B7" stroke-width="0.525875" stroke-linejoin="round"/>
<rect width="38.7055" height="12.5794" transform="matrix(0.866023 0.500004 0 1 52.2695 355.328)" fill="white" stroke="#B6B6B7" stroke-width="0.525874" stroke-linejoin="round"/>
<rect width="38.7055" height="12.5794" transform="matrix(0.866023 -0.500004 0 1 85.7871 374.684)" fill="white" stroke="#B6B6B7" stroke-width="0.525874" stroke-linejoin="round"/>
<rect width="38.7055" height="38.7055" transform="matrix(0.866023 0.500004 -0.866023 0.500004 85.7852 323.812)" fill="#FBFBFB" stroke="#B6B6B7" stroke-width="0.525875" stroke-linejoin="round"/>
<rect width="38.7055" height="12.5794" transform="matrix(0.866023 0.500004 0 1 52.2676 343.166)" fill="#FBFBFB" stroke="#B6B6B7" stroke-width="0.525874" stroke-linejoin="round"/>
<rect width="38.7055" height="12.5794" transform="matrix(0.866023 -0.500004 0 1 85.7852 362.521)" fill="white" stroke="#B6B6B7" stroke-width="0.525874" stroke-linejoin="round"/>
<rect width="38.7055" height="38.7055" transform="matrix(0.866023 0.500004 -0.866023 0.500004 52.584 275.842)" fill="#FBFBFB" stroke="#B6B6B7" stroke-width="0.525875" stroke-linejoin="round"/>
<rect width="38.7055" height="12.5794" transform="matrix(0.866023 0.500004 0 1 19.0664 295.197)" fill="#FBFBFB" stroke="#B6B6B7" stroke-width="0.525874" stroke-linejoin="round"/>
<rect width="38.7055" height="12.5794" transform="matrix(0.866023 -0.500004 0 1 52.584 314.555)" fill="white" stroke="#B6B6B7" stroke-width="0.525874" stroke-linejoin="round"/>
<rect width="38.7055" height="38.7055" transform="matrix(0.866023 0.500004 -0.866023 0.500004 85.7852 182.316)" fill="#FBFBFB" stroke="#B6B6B7" stroke-width="0.525875" stroke-linejoin="round"/>
<rect width="38.7055" height="12.5794" transform="matrix(0.866023 0.500004 0 1 52.2676 201.461)" fill="#FBFBFB" stroke="#B6B6B7" stroke-width="0.525874" stroke-linejoin="round"/>
<rect width="38.7055" height="12.5794" transform="matrix(0.866023 -0.500004 0 1 85.7871 220.816)" fill="#FBFBFB" stroke="#B6B6B7" stroke-width="0.525874" stroke-linejoin="round"/>
<rect width="38.7055" height="38.7055" transform="matrix(0.866023 0.500004 -0.866023 0.500004 85.8184 169.529)" fill="#FBFBFB" stroke="#B6B6B7" stroke-width="0.525875" stroke-linejoin="round"/>
<rect width="38.7055" height="12.5794" transform="matrix(0.866023 0.500004 0 1 52.3008 188.883)" fill="#FBFBFB" stroke="#B6B6B7" stroke-width="0.525874" stroke-linejoin="round"/>
<rect width="38.7055" height="12.5794" transform="matrix(0.866023 -0.500004 0 1 85.8184 208.238)" fill="white" stroke="#B6B6B7" stroke-width="0.525874" stroke-linejoin="round"/>
<rect width="38.7055" height="38.7055" transform="matrix(0.866023 0.500004 -0.866023 0.500004 320.42 349.188)" fill="#FBFBFB" stroke="#B6B6B7" stroke-width="0.525875" stroke-linejoin="round"/>
<rect width="38.7055" height="12.5794" transform="matrix(0.866023 0.500004 0 1 286.902 368.541)" fill="#FBFBFB" stroke="#B6B6B7" stroke-width="0.525874" stroke-linejoin="round"/>
<rect width="38.7055" height="12.5794" transform="matrix(0.866023 -0.500004 0 1 320.42 387.896)" fill="white" stroke="#B6B6B7" stroke-width="0.525874" stroke-linejoin="round"/>
<rect width="38.7055" height="38.7055" transform="matrix(0.866023 0.500004 -0.866023 0.500004 320.42 320.256)" fill="#FBFBFB" stroke="#B6B6B7" stroke-width="0.525875" stroke-linejoin="round"/>
<rect width="38.7055" height="12.5794" transform="matrix(0.866023 0.500004 0 1 286.902 339.609)" fill="#FBFBFB" stroke="#B6B6B7" stroke-width="0.525874" stroke-linejoin="round"/>
<rect width="38.7055" height="12.5794" transform="matrix(0.866023 -0.500004 0 1 320.42 358.965)" fill="white" stroke="#B6B6B7" stroke-width="0.525874" stroke-linejoin="round"/>
<rect width="38.7055" height="38.7055" transform="matrix(0.866023 0.500004 -0.866023 0.500004 320.42 291.328)" fill="#FBFBFB" stroke="#B6B6B7" stroke-width="0.525875" stroke-linejoin="round"/>
<rect width="38.7055" height="12.5794" transform="matrix(0.866023 0.500004 0 1 286.902 310.682)" fill="#FBFBFB" stroke="#B6B6B7" stroke-width="0.525874" stroke-linejoin="round"/>
<rect width="38.7055" height="12.5794" transform="matrix(0.866023 -0.500004 0 1 320.422 330.035)" fill="white" stroke="#B6B6B7" stroke-width="0.525874" stroke-linejoin="round"/>
<rect width="38.7055" height="38.7055" transform="matrix(0.866023 0.500004 -0.866023 0.500004 320.42 262.396)" fill="#FBFBFB" stroke="#B6B6B7" stroke-width="0.525875" stroke-linejoin="round"/>
<rect width="38.7055" height="12.5794" transform="matrix(0.866023 0.500004 0 1 286.902 281.75)" fill="#FBFBFB" stroke="#B6B6B7" stroke-width="0.525874" stroke-linejoin="round"/>
<rect width="38.7055" height="12.5794" transform="matrix(0.866023 -0.500004 0 1 320.422 301.105)" fill="white" stroke="#B6B6B7" stroke-width="0.525874" stroke-linejoin="round"/>
<rect width="38.7055" height="38.7055" transform="matrix(0.866023 0.500004 -0.866023 0.500004 253.221 219.258)" fill="#FBFBFB" stroke="#B6B6B7" stroke-width="0.525875" stroke-linejoin="round"/>
<rect width="38.7055" height="12.5794" transform="matrix(0.866023 0.500004 0 1 219.701 238.609)" fill="#FBFBFB" stroke="#B6B6B7" stroke-width="0.525874" stroke-linejoin="round"/>
<rect width="38.7055" height="12.5794" transform="matrix(0.866023 -0.500004 0 1 253.221 257.967)" fill="#FBFBFB" stroke="#B6B6B7" stroke-width="0.525874" stroke-linejoin="round"/>
<rect width="38.7055" height="38.7055" transform="matrix(0.866023 0.500004 -0.866023 0.500004 219.822 405.895)" fill="#FBFBFB" stroke="#B6B6B7" stroke-width="0.525875" stroke-linejoin="round"/>
<rect width="38.7055" height="12.5794" transform="matrix(0.866023 0.500004 0 1 186.305 425.248)" fill="#FBFBFB" stroke="#B6B6B7" stroke-width="0.525874" stroke-linejoin="round"/>
<rect width="38.7055" height="12.5794" transform="matrix(0.866023 -0.500004 0 1 219.822 444.602)" fill="white" stroke="#B6B6B7" stroke-width="0.525874" stroke-linejoin="round"/>
<rect width="38.7055" height="38.7055" transform="matrix(0.866023 0.500004 -0.866023 0.500004 219.82 354.426)" fill="#FBFBFB" stroke="#B6B6B7" stroke-width="0.525875" stroke-linejoin="round"/>
<rect width="38.7055" height="12.5794" transform="matrix(0.866023 0.500004 0 1 186.303 373.779)" fill="#FBFBFB" stroke="#B6B6B7" stroke-width="0.525874" stroke-linejoin="round"/>
<rect width="38.7055" height="12.5794" transform="matrix(0.866023 -0.500004 0 1 219.82 393.133)" fill="white" stroke="#B6B6B7" stroke-width="0.525874" stroke-linejoin="round"/>
<path d="M320.385 202.533L320.385 88.8885L270.729 118.057L320.385 202.533Z" fill="white" stroke="#B6B6B7" stroke-width="0.53" stroke-linejoin="round"/>
<path d="M369.898 117.971L320.423 146.744L270.947 117.971L320.423 88.8479L369.898 117.971Z" fill="#FBFBFB" stroke="url(#paint2_linear_2417_301645)" stroke-width="0.53" stroke-linejoin="round"/>
<path d="M320.386 202.533L320.386 88.8842L370.043 118.057L320.386 202.533Z" fill="#F2F2F2" stroke="#B6B6B7" stroke-width="0.53" stroke-linejoin="round"/>
<path d="M369.902 117.97L320.425 146.744L270.947 117.97L320.425 88.8454L369.902 117.97Z" fill="#FBFBFB" stroke="#B6B6B7" stroke-width="0.53" stroke-linejoin="round"/>
<rect width="38.7055" height="38.7055" transform="matrix(0.866023 0.500004 -0.866023 0.500004 253.295 180.85)" fill="#FBFBFB" stroke="#B6B6B7" stroke-width="0.525875" stroke-linejoin="round"/>
<rect width="38.7055" height="12.5794" transform="matrix(0.866023 0.500004 0 1 219.777 200.203)" fill="#FBFBFB" stroke="#B6B6B7" stroke-width="0.525874" stroke-linejoin="round"/>
<rect width="38.7055" height="12.5794" transform="matrix(0.866023 -0.500004 0 1 253.295 219.559)" fill="white" stroke="#B6B6B7" stroke-width="0.525874" stroke-linejoin="round"/>
<rect width="38.7055" height="38.7055" transform="matrix(0.866023 0.500004 -0.866023 0.500004 253.297 168.4)" fill="#FBFBFB" stroke="#B6B6B7" stroke-width="0.525875" stroke-linejoin="round"/>
<rect width="38.7055" height="12.5794" transform="matrix(0.866023 0.500004 0 1 219.775 187.754)" fill="#FBFBFB" stroke="#B6B6B7" stroke-width="0.525874" stroke-linejoin="round"/>
<rect width="38.7055" height="12.5794" transform="matrix(0.866023 -0.500004 0 1 253.297 207.109)" fill="white" stroke="#B6B6B7" stroke-width="0.525874" stroke-linejoin="round"/>
<rect width="38.7055" height="38.7055" transform="matrix(0.866023 0.500004 -0.866023 0.500004 219.742 318.084)" fill="#FBFBFB" stroke="#B6B6B7" stroke-width="0.525875" stroke-linejoin="round"/>
<rect width="38.7055" height="12.5794" transform="matrix(0.866023 0.500004 0 1 186.225 337.438)" fill="#FBFBFB" stroke="#B6B6B7" stroke-width="0.525874" stroke-linejoin="round"/>
<rect width="38.7055" height="12.5794" transform="matrix(0.866023 -0.500004 0 1 219.742 356.793)" fill="white" stroke="#B6B6B7" stroke-width="0.525874" stroke-linejoin="round"/>
</g>
<defs>
<linearGradient id="paint0_linear_2417_301645" x1="332.679" y1="114.438" x2="333.29" y2="86.4489" gradientUnits="userSpaceOnUse">
<stop stop-color="#FB7E51"/>
<stop offset="1" stop-color="#FF8F66"/>
</linearGradient>
<linearGradient id="paint1_linear_2417_301645" x1="332.682" y1="90.6297" x2="333.292" y2="118.62" gradientUnits="userSpaceOnUse">
<stop stop-color="#FB7E51"/>
<stop offset="1" stop-color="#FF8F66"/>
</linearGradient>
<linearGradient id="paint2_linear_2417_301645" x1="332.593" y1="114.438" x2="333.204" y2="86.4487" gradientUnits="userSpaceOnUse">
<stop stop-color="#FB7E51"/>
<stop offset="1" stop-color="#FF8F66"/>
</linearGradient>
<clipPath id="clip0_2417_301645">
<rect width="335" height="302" fill="white" transform="translate(52.5 145)"/>
</clipPath>
</defs>
</svg>
