<svg width="404" height="603" viewBox="0 0 404 603" fill="none" xmlns="http://www.w3.org/2000/svg">
<rect width="38.7055" height="38.7055" transform="matrix(0.866023 0.500004 -0.866023 0.500004 369.521 505.246)" fill="#F2F2F2" stroke="#B6B6B7" stroke-width="0.525875" stroke-linejoin="round"/>
<path d="M336.002 524.6L369.522 543.953V556.532L336.002 537.179V524.6Z" fill="#F2F2F2" stroke="#B6B6B7" stroke-width="0.526884" stroke-linejoin="round"/>
<path d="M369.521 543.953L403.041 524.6V537.18L369.521 556.533V543.953Z" fill="#F2F2F2" stroke="#B6B6B7" stroke-width="0.526884" stroke-linejoin="round"/>
<rect width="38.7055" height="38.7055" transform="matrix(0.866023 0.500004 -0.866023 0.500004 369.521 459.084)" fill="white" stroke="#B6B6B7" stroke-width="0.525875" stroke-linejoin="round"/>
<path d="M336.002 478.438L369.522 497.79V510.37L336.002 491.017V478.438Z" fill="#F2F2F2" stroke="#B6B6B7" stroke-width="0.526884" stroke-linejoin="round"/>
<path d="M369.521 497.793L403.041 478.44V491.019L369.521 510.372V497.793Z" fill="#F2F2F2" stroke="#B6B6B7" stroke-width="0.526884" stroke-linejoin="round"/>
<rect width="38.7055" height="38.7055" transform="matrix(0.866023 0.500004 -0.866023 0.500004 201.895 487.438)" fill="white" stroke="#B6B6B7" stroke-width="0.525875" stroke-linejoin="round"/>
<path d="M168.375 506.791L201.895 526.144V538.723L168.375 519.37V506.791Z" fill="#F2F2F2" stroke="#B6B6B7" stroke-width="0.526884" stroke-linejoin="round"/>
<path d="M201.896 526.146L235.416 506.794V519.373L201.896 538.726V526.146Z" fill="#F2F2F2" stroke="#B6B6B7" stroke-width="0.526884" stroke-linejoin="round"/>
<rect width="38.7055" height="38.7055" transform="matrix(0.866023 0.500004 -0.866023 0.500004 369.523 330.572)" fill="#FBFBFB" stroke="#B6B6B7" stroke-width="0.525875" stroke-linejoin="round"/>
<rect width="38.7055" height="12.5794" transform="matrix(0.866023 0.500004 0 1 336.004 349.924)" fill="#FBFBFB" stroke="#B6B6B7" stroke-width="0.525874" stroke-linejoin="round"/>
<path d="M369.523 369.279L403.043 349.926V362.506L369.523 381.859V369.279Z" fill="#F2F2F2" stroke="#B6B6B7" stroke-width="0.526884" stroke-linejoin="round"/>
<rect width="38.7055" height="38.7055" transform="matrix(0.866023 0.500004 -0.866023 0.500004 201.895 448.971)" fill="#FBFBFB" stroke="#B6B6B7" stroke-width="0.525875" stroke-linejoin="round"/>
<path d="M168.375 468.324L201.895 487.677V500.257L168.375 480.904V468.324Z" fill="#F2F2F2" stroke="#B6B6B7" stroke-width="0.526884" stroke-linejoin="round"/>
<path d="M201.895 487.678L235.414 468.325V480.904L201.895 500.257V487.678Z" fill="#F2F2F2" stroke="#B6B6B7" stroke-width="0.526884" stroke-linejoin="round"/>
<rect width="38.7055" height="38.7055" transform="matrix(0.866023 0.500004 -0.866023 0.500004 336.105 427.146)" fill="#FBFBFB" stroke="#B6B6B7" stroke-width="0.525875" stroke-linejoin="round"/>
<path d="M302.586 446.5L336.106 465.853V478.432L302.586 459.079V446.5Z" fill="#F2F2F2" stroke="#B6B6B7" stroke-width="0.526884" stroke-linejoin="round"/>
<path d="M336.107 465.855L369.627 446.503V459.082L336.107 478.435V465.855Z" fill="#F2F2F2" stroke="#B6B6B7" stroke-width="0.526884" stroke-linejoin="round"/>
<rect width="38.7055" height="38.7055" transform="matrix(0.866023 0.500004 -0.866023 0.500004 67.8555 423.582)" fill="#FBFBFB" stroke="#B6B6B7" stroke-width="0.525875" stroke-linejoin="round"/>
<path d="M34.3379 442.936L67.8578 462.288V474.868L34.3379 455.515V442.936Z" fill="#F2F2F2" stroke="#B6B6B7" stroke-width="0.526884" stroke-linejoin="round"/>
<path d="M67.8555 462.289L101.375 442.936V455.516L67.8555 474.868V462.289Z" fill="#F2F2F2" stroke="#B6B6B7" stroke-width="0.526884" stroke-linejoin="round"/>
<rect width="38.7055" height="38.7055" transform="matrix(0.866023 0.500004 -0.866023 0.500004 134.824 79)" fill="#FBFBFB" stroke="#B6B6B7" stroke-width="0.525875" stroke-linejoin="round"/>
<path d="M101.305 98.3535L134.825 117.706V130.286L101.305 110.933V98.3535Z" fill="#F2F2F2" stroke="#B6B6B7" stroke-width="0.526884" stroke-linejoin="round"/>
<path d="M134.824 117.703L168.344 98.3502V110.93L134.824 130.283V117.703Z" fill="#F2F2F2" stroke="#B6B6B7" stroke-width="0.526884" stroke-linejoin="round"/>
<rect width="38.7055" height="38.7055" transform="matrix(0.866023 0.500004 -0.866023 0.500004 134.877 398.35)" fill="#FBFBFB" stroke="#B6B6B7" stroke-width="0.525875" stroke-linejoin="round"/>
<rect width="38.7055" height="12.5794" transform="matrix(0.866023 0.500004 0 1 101.357 417.703)" fill="#FBFBFB" stroke="#B6B6B7" stroke-width="0.525874" stroke-linejoin="round"/>
<rect width="38.7055" height="12.5794" transform="matrix(0.866023 -0.500004 0 1 134.879 437.057)" fill="white" stroke="#B6B6B7" stroke-width="0.525874" stroke-linejoin="round"/>
<rect width="38.7055" height="38.7055" transform="matrix(0.866023 0.500004 -0.866023 0.500004 34.5273 273.842)" fill="#FBFBFB" stroke="#B6B6B7" stroke-width="0.525875" stroke-linejoin="round"/>
<path d="M1.00781 293.197L34.5277 312.55V325.13L1.00781 305.777V293.197Z" fill="#F2F2F2" stroke="#B6B6B7" stroke-width="0.526884" stroke-linejoin="round"/>
<rect width="38.7055" height="12.5794" transform="matrix(0.866023 -0.500004 0 1 34.5273 312.555)" fill="white" stroke="#B6B6B7" stroke-width="0.525874" stroke-linejoin="round"/>
<rect width="38.7055" height="38.7055" transform="matrix(0.866023 0.500004 -0.866023 0.500004 201.906 403.893)" fill="#FBFBFB" stroke="#B6B6B7" stroke-width="0.525875" stroke-linejoin="round"/>
<path d="M168.389 423.246L201.909 442.599V455.178L168.389 435.825V423.246Z" fill="#F2F2F2" stroke="#B6B6B7" stroke-width="0.526884" stroke-linejoin="round"/>
<path d="M201.906 442.6L235.426 423.247V435.826L201.906 455.179V442.6Z" fill="#F2F2F2" stroke="#B6B6B7" stroke-width="0.526884" stroke-linejoin="round"/>
<path d="M302.471 200.533L302.471 86.8889L252.814 116.057L302.471 200.533Z" fill="white" stroke="#B6B6B7" stroke-width="0.53" stroke-linejoin="round"/>
<path d="M351.983 115.972L302.508 144.744L253.033 115.972L302.508 86.8481L351.983 115.972Z" fill="#FBFBFB" stroke="url(#paint0_linear_3010_340426)" stroke-width="0.53" stroke-linejoin="round"/>
<path d="M302.47 200.533L302.47 86.8846L352.127 116.057L302.47 200.533Z" fill="#F2F2F2" stroke="#B6B6B7" stroke-width="0.53" stroke-linejoin="round"/>
<path d="M351.988 115.97L302.511 144.744L253.033 115.97L302.511 86.8456L351.988 115.97Z" fill="#FBFBFB" stroke="#B6B6B7" stroke-width="0.53" stroke-linejoin="round"/>
<path d="M351.988 85.0961L302.511 56.3223L253.033 85.0961L302.511 114.221L351.988 85.0961Z" fill="#FBFBFB" stroke="url(#paint1_linear_3010_340426)" stroke-width="0.53" stroke-linejoin="round"/>
<path d="M302.471 0.533207L302.471 114.178L252.814 85.0091L302.471 0.533207Z" fill="white" stroke="#B6B6B7" stroke-width="0.53" stroke-linejoin="round"/>
<path d="M351.983 85.0948L302.508 56.3223L253.033 85.0948L302.508 114.218L351.983 85.0948Z" fill="#FBFBFB" stroke="#B6B6B7" stroke-width="0.53" stroke-linejoin="round"/>
<path d="M302.47 0.533199L302.47 114.182L352.127 85.0091L302.47 0.533199Z" fill="white" stroke="#B6B6B7" stroke-width="0.53" stroke-linejoin="round"/>
<rect width="38.7055" height="38.7055" transform="matrix(0.866023 0.500004 -0.866023 0.500004 134.824 34.9531)" fill="#FBFBFB" stroke="#B6B6B7" stroke-width="0.525875" stroke-linejoin="round"/>
<path d="M101.305 54.3066L134.825 73.6596V86.239L101.305 66.886V54.3066Z" fill="#F2F2F2" stroke="#B6B6B7" stroke-width="0.526884" stroke-linejoin="round"/>
<path d="M134.824 73.6621L168.344 54.3092V66.8886L134.824 86.2415V73.6621Z" fill="#F2F2F2" stroke="#B6B6B7" stroke-width="0.526884" stroke-linejoin="round"/>
<rect width="38.7799" height="38.7799" transform="matrix(0.866023 0.500004 -0.866023 0.500004 101.893 551)" fill="#FBFBFB" stroke="#B6B6B7" stroke-width="0.526885" stroke-linejoin="round"/>
<path d="M68.3086 570.391L101.893 589.781V602.384L68.3086 582.994V570.391Z" fill="#F2F2F2" stroke="#B6B6B7" stroke-width="0.526884" stroke-linejoin="round"/>
<path d="M101.893 589.783L135.477 570.393V582.997L101.893 602.387V589.783Z" fill="#F2F2F2" stroke="#B6B6B7" stroke-width="0.526884" stroke-linejoin="round"/>
<rect width="38.7799" height="38.7799" transform="matrix(0.866023 0.500004 -0.866023 0.500004 101.893 538.398)" fill="#FBFBFB" stroke="#B6B6B7" stroke-width="0.526885" stroke-linejoin="round"/>
<path d="M68.3086 557.789L101.893 577.179V589.783L68.3086 570.393V557.789Z" fill="#F2F2F2" stroke="#B6B6B7" stroke-width="0.526884" stroke-linejoin="round"/>
<path d="M101.893 577.182L135.477 557.792V570.395L101.893 589.785V577.182Z" fill="#F2F2F2" stroke="#B6B6B7" stroke-width="0.526884" stroke-linejoin="round"/>
<rect width="38.7799" height="38.7799" transform="matrix(0.866023 0.500004 -0.866023 0.500004 101.893 501.799)" fill="#FBFBFB" stroke="#B6B6B7" stroke-width="0.526885" stroke-linejoin="round"/>
<path d="M68.3086 521.189L101.893 540.58V553.183L68.3086 533.793V521.189Z" fill="#F2F2F2" stroke="#B6B6B7" stroke-width="0.526884" stroke-linejoin="round"/>
<path d="M101.893 540.582L135.477 521.192V533.795L101.893 553.186V540.582Z" fill="#F2F2F2" stroke="#B6B6B7" stroke-width="0.526884" stroke-linejoin="round"/>
<rect width="38.7055" height="38.7055" transform="matrix(0.866023 0.500004 -0.866023 0.500004 101.43 462.156)" fill="#FBFBFB" stroke="#B6B6B7" stroke-width="0.525875" stroke-linejoin="round"/>
<path d="M67.9102 481.51L101.43 500.863V513.442L67.9102 494.089V481.51Z" fill="#F2F2F2" stroke="#B6B6B7" stroke-width="0.526884" stroke-linejoin="round"/>
<path d="M101.43 500.865L134.95 481.512V494.092L101.43 513.445V500.865Z" fill="#F2F2F2" stroke="#B6B6B7" stroke-width="0.526884" stroke-linejoin="round"/>
<g clip-path="url(#clip0_3010_340426)">
<rect width="38.7055" height="38.7055" transform="matrix(0.866023 0.500004 -0.866023 0.500004 369.438 330.574)" fill="#FBFBFB" stroke="#B6B6B7" stroke-width="0.525875" stroke-linejoin="round"/>
<rect width="38.7055" height="12.5794" transform="matrix(0.866023 0.500004 0 1 335.92 349.926)" fill="#FBFBFB" stroke="#B6B6B7" stroke-width="0.525874" stroke-linejoin="round"/>
<rect width="38.7055" height="12.5794" transform="matrix(0.866023 -0.500004 0 1 369.438 369.281)" fill="white" stroke="#B6B6B7" stroke-width="0.525874" stroke-linejoin="round"/>
<rect width="38.7055" height="38.7055" transform="matrix(0.866023 0.500004 -0.866023 0.500004 335.914 349.924)" fill="#FBFBFB" stroke="#B6B6B7" stroke-width="0.525875" stroke-linejoin="round"/>
<rect width="38.7055" height="12.5794" transform="matrix(0.866023 0.500004 0 1 302.396 369.277)" fill="#FBFBFB" stroke="#B6B6B7" stroke-width="0.525874" stroke-linejoin="round"/>
<rect width="38.7055" height="12.5794" transform="matrix(0.866023 -0.500004 0 1 335.914 388.633)" fill="white" stroke="#B6B6B7" stroke-width="0.525874" stroke-linejoin="round"/>
<rect width="38.7055" height="38.7055" transform="matrix(0.866023 0.500004 -0.866023 0.500004 268.883 388.637)" fill="#FBFBFB" stroke="#B6B6B7" stroke-width="0.525875" stroke-linejoin="round"/>
<rect width="38.7055" height="12.5794" transform="matrix(0.866023 0.500004 0 1 235.365 407.99)" fill="#FBFBFB" stroke="#B6B6B7" stroke-width="0.525874" stroke-linejoin="round"/>
<rect width="38.7055" height="12.5794" transform="matrix(0.866023 -0.500004 0 1 268.885 427.348)" fill="white" stroke="#B6B6B7" stroke-width="0.525874" stroke-linejoin="round"/>
<rect width="38.7055" height="38.7055" transform="matrix(0.866023 0.500004 -0.866023 0.500004 336.02 427.146)" fill="#FBFBFB" stroke="#B6B6B7" stroke-width="0.525875" stroke-linejoin="round"/>
<rect width="38.7055" height="38.7055" transform="matrix(0.866023 0.500004 -0.866023 0.500004 134.738 303.436)" fill="#FBFBFB" stroke="#B6B6B7" stroke-width="0.525875" stroke-linejoin="round"/>
<rect width="38.7055" height="12.5794" transform="matrix(0.866023 0.500004 0 1 101.221 322.789)" fill="#FBFBFB" stroke="#B6B6B7" stroke-width="0.525874" stroke-linejoin="round"/>
<rect width="38.7055" height="12.5794" transform="matrix(0.866023 -0.500004 0 1 134.738 342.145)" fill="white" stroke="#B6B6B7" stroke-width="0.525874" stroke-linejoin="round"/>
<rect width="38.7055" height="38.7055" transform="matrix(0.866023 0.500004 -0.866023 0.500004 67.7695 423.582)" fill="#FBFBFB" stroke="#B6B6B7" stroke-width="0.525875" stroke-linejoin="round"/>
<rect width="38.7055" height="12.5794" transform="matrix(0.866023 0.500004 0 1 34.252 442.936)" fill="#FBFBFB" stroke="#B6B6B7" stroke-width="0.525874" stroke-linejoin="round"/>
<rect width="38.7055" height="12.5794" transform="matrix(0.866023 -0.500004 0 1 67.7695 462.289)" fill="white" stroke="#B6B6B7" stroke-width="0.525874" stroke-linejoin="round"/>
<rect width="38.7055" height="38.7055" transform="matrix(0.866023 0.500004 -0.866023 0.500004 34.2734 442.953)" fill="#FBFBFB" stroke="#B6B6B7" stroke-width="0.525875" stroke-linejoin="round"/>
<rect width="38.7055" height="38.7055" transform="matrix(0.866023 0.500004 -0.866023 0.500004 134.793 398.348)" fill="#FBFBFB" stroke="#B6B6B7" stroke-width="0.525875" stroke-linejoin="round"/>
<rect width="38.7055" height="12.5794" transform="matrix(0.866023 0.500004 0 1 101.275 417.701)" fill="#FBFBFB" stroke="#B6B6B7" stroke-width="0.525874" stroke-linejoin="round"/>
<rect width="38.7055" height="12.5794" transform="matrix(0.866023 -0.500004 0 1 134.795 437.055)" fill="white" stroke="#B6B6B7" stroke-width="0.525874" stroke-linejoin="round"/>
<rect width="38.7055" height="38.7055" transform="matrix(0.866023 0.500004 -0.866023 0.500004 134.738 259.393)" fill="#FBFBFB" stroke="#B6B6B7" stroke-width="0.525875" stroke-linejoin="round"/>
<rect width="38.7055" height="12.5794" transform="matrix(0.866023 0.500004 0 1 101.221 278.746)" fill="#FBFBFB" stroke="#B6B6B7" stroke-width="0.525874" stroke-linejoin="round"/>
<rect width="38.7055" height="12.5794" transform="matrix(0.866023 -0.500004 0 1 134.738 298.102)" fill="white" stroke="#B6B6B7" stroke-width="0.525874" stroke-linejoin="round"/>
<rect width="38.7055" height="38.7055" transform="matrix(0.866023 0.500004 -0.866023 0.500004 134.74 225.676)" fill="#FBFBFB" stroke="#B6B6B7" stroke-width="0.525875" stroke-linejoin="round"/>
<rect width="38.7055" height="12.5794" transform="matrix(0.866023 0.500004 0 1 101.223 245.029)" fill="#FBFBFB" stroke="#B6B6B7" stroke-width="0.525874" stroke-linejoin="round"/>
<rect width="38.7055" height="12.5794" transform="matrix(0.866023 -0.500004 0 1 134.742 264.383)" fill="white" stroke="#B6B6B7" stroke-width="0.525874" stroke-linejoin="round"/>
<rect width="38.7055" height="38.7055" transform="matrix(0.866023 0.500004 -0.866023 0.500004 67.7871 333.975)" fill="#FBFBFB" stroke="#B6B6B7" stroke-width="0.525875" stroke-linejoin="round"/>
<rect width="38.7055" height="12.5794" transform="matrix(0.866023 0.500004 0 1 34.2695 353.328)" fill="white" stroke="#B6B6B7" stroke-width="0.525874" stroke-linejoin="round"/>
<rect width="38.7055" height="12.5794" transform="matrix(0.866023 -0.500004 0 1 67.7871 372.684)" fill="white" stroke="#B6B6B7" stroke-width="0.525874" stroke-linejoin="round"/>
<rect width="38.7055" height="38.7055" transform="matrix(0.866023 0.500004 -0.866023 0.500004 67.7852 321.812)" fill="#FBFBFB" stroke="#B6B6B7" stroke-width="0.525875" stroke-linejoin="round"/>
<rect width="38.7055" height="12.5794" transform="matrix(0.866023 0.500004 0 1 34.2676 341.166)" fill="#FBFBFB" stroke="#B6B6B7" stroke-width="0.525874" stroke-linejoin="round"/>
<rect width="38.7055" height="12.5794" transform="matrix(0.866023 -0.500004 0 1 67.7852 360.521)" fill="white" stroke="#B6B6B7" stroke-width="0.525874" stroke-linejoin="round"/>
<rect width="38.7055" height="38.7055" transform="matrix(0.866023 0.500004 -0.866023 0.500004 34.584 273.842)" fill="#FBFBFB" stroke="#B6B6B7" stroke-width="0.525875" stroke-linejoin="round"/>
<rect width="38.7055" height="12.5794" transform="matrix(0.866023 0.500004 0 1 1.06641 293.197)" fill="#FBFBFB" stroke="#B6B6B7" stroke-width="0.525874" stroke-linejoin="round"/>
<rect width="38.7055" height="12.5794" transform="matrix(0.866023 -0.500004 0 1 34.584 312.555)" fill="white" stroke="#B6B6B7" stroke-width="0.525874" stroke-linejoin="round"/>
<rect width="38.7055" height="38.7055" transform="matrix(0.866023 0.500004 -0.866023 0.500004 67.7852 180.316)" fill="#FBFBFB" stroke="#B6B6B7" stroke-width="0.525875" stroke-linejoin="round"/>
<rect width="38.7055" height="12.5794" transform="matrix(0.866023 0.500004 0 1 34.2676 199.461)" fill="#FBFBFB" stroke="#B6B6B7" stroke-width="0.525874" stroke-linejoin="round"/>
<rect width="38.7055" height="12.5794" transform="matrix(0.866023 -0.500004 0 1 67.7871 218.816)" fill="#FBFBFB" stroke="#B6B6B7" stroke-width="0.525874" stroke-linejoin="round"/>
<rect width="38.7055" height="38.7055" transform="matrix(0.866023 0.500004 -0.866023 0.500004 67.8184 167.529)" fill="#FBFBFB" stroke="#B6B6B7" stroke-width="0.525875" stroke-linejoin="round"/>
<rect width="38.7055" height="12.5794" transform="matrix(0.866023 0.500004 0 1 34.3008 186.883)" fill="#FBFBFB" stroke="#B6B6B7" stroke-width="0.525874" stroke-linejoin="round"/>
<rect width="38.7055" height="12.5794" transform="matrix(0.866023 -0.500004 0 1 67.8184 206.238)" fill="white" stroke="#B6B6B7" stroke-width="0.525874" stroke-linejoin="round"/>
<rect width="38.7055" height="38.7055" transform="matrix(0.866023 0.500004 -0.866023 0.500004 302.42 347.188)" fill="#FBFBFB" stroke="#B6B6B7" stroke-width="0.525875" stroke-linejoin="round"/>
<rect width="38.7055" height="12.5794" transform="matrix(0.866023 0.500004 0 1 268.902 366.541)" fill="#FBFBFB" stroke="#B6B6B7" stroke-width="0.525874" stroke-linejoin="round"/>
<rect width="38.7055" height="12.5794" transform="matrix(0.866023 -0.500004 0 1 302.42 385.896)" fill="white" stroke="#B6B6B7" stroke-width="0.525874" stroke-linejoin="round"/>
<rect width="38.7055" height="38.7055" transform="matrix(0.866023 0.500004 -0.866023 0.500004 302.42 318.256)" fill="#FBFBFB" stroke="#B6B6B7" stroke-width="0.525875" stroke-linejoin="round"/>
<rect width="38.7055" height="12.5794" transform="matrix(0.866023 0.500004 0 1 268.902 337.609)" fill="#FBFBFB" stroke="#B6B6B7" stroke-width="0.525874" stroke-linejoin="round"/>
<rect width="38.7055" height="12.5794" transform="matrix(0.866023 -0.500004 0 1 302.42 356.965)" fill="white" stroke="#B6B6B7" stroke-width="0.525874" stroke-linejoin="round"/>
<rect width="38.7055" height="38.7055" transform="matrix(0.866023 0.500004 -0.866023 0.500004 302.42 289.328)" fill="#FBFBFB" stroke="#B6B6B7" stroke-width="0.525875" stroke-linejoin="round"/>
<rect width="38.7055" height="12.5794" transform="matrix(0.866023 0.500004 0 1 268.902 308.682)" fill="#FBFBFB" stroke="#B6B6B7" stroke-width="0.525874" stroke-linejoin="round"/>
<rect width="38.7055" height="12.5794" transform="matrix(0.866023 -0.500004 0 1 302.422 328.035)" fill="white" stroke="#B6B6B7" stroke-width="0.525874" stroke-linejoin="round"/>
<rect width="38.7055" height="38.7055" transform="matrix(0.866023 0.500004 -0.866023 0.500004 302.42 260.396)" fill="#FBFBFB" stroke="#B6B6B7" stroke-width="0.525875" stroke-linejoin="round"/>
<rect width="38.7055" height="12.5794" transform="matrix(0.866023 0.500004 0 1 268.902 279.75)" fill="#FBFBFB" stroke="#B6B6B7" stroke-width="0.525874" stroke-linejoin="round"/>
<rect width="38.7055" height="12.5794" transform="matrix(0.866023 -0.500004 0 1 302.422 299.105)" fill="white" stroke="#B6B6B7" stroke-width="0.525874" stroke-linejoin="round"/>
<rect width="38.7055" height="38.7055" transform="matrix(0.866023 0.500004 -0.866023 0.500004 235.221 217.258)" fill="#FBFBFB" stroke="#B6B6B7" stroke-width="0.525875" stroke-linejoin="round"/>
<rect width="38.7055" height="12.5794" transform="matrix(0.866023 0.500004 0 1 201.701 236.609)" fill="#FBFBFB" stroke="#B6B6B7" stroke-width="0.525874" stroke-linejoin="round"/>
<rect width="38.7055" height="12.5794" transform="matrix(0.866023 -0.500004 0 1 235.221 255.967)" fill="#FBFBFB" stroke="#B6B6B7" stroke-width="0.525874" stroke-linejoin="round"/>
<rect width="38.7055" height="38.7055" transform="matrix(0.866023 0.500004 -0.866023 0.500004 201.822 403.895)" fill="#FBFBFB" stroke="#B6B6B7" stroke-width="0.525875" stroke-linejoin="round"/>
<rect width="38.7055" height="12.5794" transform="matrix(0.866023 0.500004 0 1 168.305 423.248)" fill="#FBFBFB" stroke="#B6B6B7" stroke-width="0.525874" stroke-linejoin="round"/>
<rect width="38.7055" height="12.5794" transform="matrix(0.866023 -0.500004 0 1 201.822 442.602)" fill="white" stroke="#B6B6B7" stroke-width="0.525874" stroke-linejoin="round"/>
<rect width="38.7055" height="38.7055" transform="matrix(0.866023 0.500004 -0.866023 0.500004 201.82 352.426)" fill="#FBFBFB" stroke="#B6B6B7" stroke-width="0.525875" stroke-linejoin="round"/>
<rect width="38.7055" height="12.5794" transform="matrix(0.866023 0.500004 0 1 168.303 371.779)" fill="#FBFBFB" stroke="#B6B6B7" stroke-width="0.525874" stroke-linejoin="round"/>
<rect width="38.7055" height="12.5794" transform="matrix(0.866023 -0.500004 0 1 201.82 391.133)" fill="white" stroke="#B6B6B7" stroke-width="0.525874" stroke-linejoin="round"/>
<path d="M302.385 200.533L302.385 86.8885L252.729 116.057L302.385 200.533Z" fill="white" stroke="#B6B6B7" stroke-width="0.53" stroke-linejoin="round"/>
<path d="M351.898 115.971L302.423 144.744L252.947 115.971L302.423 86.8479L351.898 115.971Z" fill="#FBFBFB" stroke="url(#paint2_linear_3010_340426)" stroke-width="0.53" stroke-linejoin="round"/>
<path d="M302.386 200.533L302.386 86.8842L352.043 116.057L302.386 200.533Z" fill="#F2F2F2" stroke="#B6B6B7" stroke-width="0.53" stroke-linejoin="round"/>
<path d="M351.902 115.97L302.425 144.744L252.947 115.97L302.425 86.8454L351.902 115.97Z" fill="#FBFBFB" stroke="#B6B6B7" stroke-width="0.53" stroke-linejoin="round"/>
<rect width="38.7055" height="38.7055" transform="matrix(0.866023 0.500004 -0.866023 0.500004 235.295 178.85)" fill="#FBFBFB" stroke="#B6B6B7" stroke-width="0.525875" stroke-linejoin="round"/>
<rect width="38.7055" height="12.5794" transform="matrix(0.866023 0.500004 0 1 201.777 198.203)" fill="#FBFBFB" stroke="#B6B6B7" stroke-width="0.525874" stroke-linejoin="round"/>
<rect width="38.7055" height="12.5794" transform="matrix(0.866023 -0.500004 0 1 235.295 217.559)" fill="white" stroke="#B6B6B7" stroke-width="0.525874" stroke-linejoin="round"/>
<rect width="38.7055" height="38.7055" transform="matrix(0.866023 0.500004 -0.866023 0.500004 235.297 166.4)" fill="#FBFBFB" stroke="#B6B6B7" stroke-width="0.525875" stroke-linejoin="round"/>
<rect width="38.7055" height="12.5794" transform="matrix(0.866023 0.500004 0 1 201.775 185.754)" fill="#FBFBFB" stroke="#B6B6B7" stroke-width="0.525874" stroke-linejoin="round"/>
<rect width="38.7055" height="12.5794" transform="matrix(0.866023 -0.500004 0 1 235.297 205.109)" fill="white" stroke="#B6B6B7" stroke-width="0.525874" stroke-linejoin="round"/>
<rect width="38.7055" height="38.7055" transform="matrix(0.866023 0.500004 -0.866023 0.500004 201.742 316.084)" fill="#FBFBFB" stroke="#B6B6B7" stroke-width="0.525875" stroke-linejoin="round"/>
<rect width="38.7055" height="12.5794" transform="matrix(0.866023 0.500004 0 1 168.225 335.438)" fill="#FBFBFB" stroke="#B6B6B7" stroke-width="0.525874" stroke-linejoin="round"/>
<rect width="38.7055" height="12.5794" transform="matrix(0.866023 -0.500004 0 1 201.742 354.793)" fill="white" stroke="#B6B6B7" stroke-width="0.525874" stroke-linejoin="round"/>
</g>
<defs>
<linearGradient id="paint0_linear_3010_340426" x1="314.679" y1="112.438" x2="315.29" y2="84.4489" gradientUnits="userSpaceOnUse">
<stop stop-color="#FB7E51"/>
<stop offset="1" stop-color="#FF8F66"/>
</linearGradient>
<linearGradient id="paint1_linear_3010_340426" x1="314.682" y1="88.6297" x2="315.292" y2="116.62" gradientUnits="userSpaceOnUse">
<stop stop-color="#FB7E51"/>
<stop offset="1" stop-color="#FF8F66"/>
</linearGradient>
<linearGradient id="paint2_linear_3010_340426" x1="314.593" y1="112.438" x2="315.204" y2="84.4487" gradientUnits="userSpaceOnUse">
<stop stop-color="#FB7E51"/>
<stop offset="1" stop-color="#FF8F66"/>
</linearGradient>
<clipPath id="clip0_3010_340426">
<rect width="335" height="302" fill="white" transform="translate(34.5 143)"/>
</clipPath>
</defs>
</svg>
