<svg width="649" height="649" viewBox="0 0 649 649" fill="none" xmlns="http://www.w3.org/2000/svg">
<path d="M528.211 574.832L576.188 602.532L528.211 630.232L480.233 602.532L528.211 574.832Z" fill="#FBFBFB" stroke="#B6B6B7" stroke-width="0.752692" stroke-linejoin="round"/>
<rect width="55.3998" height="18.0051" transform="matrix(0.866023 0.500004 0 1 480.236 602.533)" fill="#F2F2F2" stroke="#B6B6B7" stroke-width="0.752691" stroke-linejoin="round"/>
<rect width="55.3998" height="18.0051" transform="matrix(0.866023 -0.500004 0 1 528.211 630.234)" fill="#F2F2F2" stroke="#B6B6B7" stroke-width="0.752691" stroke-linejoin="round"/>
<path d="M528.211 508.758L576.188 536.458L528.211 564.158L480.233 536.458L528.211 508.758Z" fill="#FBFBFB" stroke="#B6B6B7" stroke-width="0.752692" stroke-linejoin="round"/>
<path d="M480.236 536.459L528.214 564.159V582.164L480.236 554.464V536.459Z" fill="#F2F2F2" stroke="#B6B6B7" stroke-width="0.752691" stroke-linejoin="round"/>
<path d="M528.211 564.162L576.188 536.462V554.467L528.211 582.167V564.162Z" fill="#F2F2F2" stroke="#B6B6B7" stroke-width="0.752691" stroke-linejoin="round"/>
<path d="M288.285 549.342L336.263 577.042L288.285 604.742L240.308 577.042L288.285 549.342Z" fill="#FBFBFB" stroke="#B6B6B7" stroke-width="0.752692" stroke-linejoin="round"/>
<rect width="55.3998" height="18.0051" transform="matrix(0.866023 0.500004 0 1 240.311 577.043)" fill="#F2F2F2" stroke="#B6B6B7" stroke-width="0.752691" stroke-linejoin="round"/>
<rect width="55.3998" height="18.0051" transform="matrix(0.866023 -0.500004 0 1 288.287 604.746)" fill="#F2F2F2" stroke="#B6B6B7" stroke-width="0.752691" stroke-linejoin="round"/>
<rect width="55.3998" height="55.3998" transform="matrix(0.866023 0.500004 -0.866023 0.500004 600.188 106.678)" fill="#FBFBFB" stroke="#B6B6B7" stroke-width="0.752692" stroke-linejoin="round"/>
<rect width="55.3998" height="18.0051" transform="matrix(0.866023 0.500004 0 1 552.211 134.379)" fill="#FBFBFB" stroke="#B6B6B7" stroke-width="0.752691" stroke-linejoin="round"/>
<rect width="55.3998" height="18.0051" transform="matrix(0.866023 -0.500004 0 1 600.188 162.082)" fill="#F2F2F2" stroke="#B6B6B7" stroke-width="0.752691" stroke-linejoin="round"/>
<rect width="55.3998" height="55.3998" transform="matrix(0.866023 0.500004 -0.866023 0.500004 600.188 70.6777)" fill="#FBFBFB" stroke="#B6B6B7" stroke-width="0.752692" stroke-linejoin="round"/>
<rect width="55.3998" height="18.0051" transform="matrix(0.866023 0.500004 0 1 552.211 98.3789)" fill="#FBFBFB" stroke="#B6B6B7" stroke-width="0.752691" stroke-linejoin="round"/>
<rect width="55.3998" height="18.0051" transform="matrix(0.866023 -0.500004 0 1 600.188 126.082)" fill="#F2F2F2" stroke="#B6B6B7" stroke-width="0.752691" stroke-linejoin="round"/>
<rect width="55.3998" height="55.3998" transform="matrix(0.866023 0.500004 -0.866023 0.500004 288.285 494.283)" fill="#FBFBFB" stroke="#B6B6B7" stroke-width="0.752692" stroke-linejoin="round"/>
<rect width="55.3998" height="18.0051" transform="matrix(0.866023 0.500004 0 1 240.311 521.984)" fill="#FBFBFB" stroke="#B6B6B7" stroke-width="0.752691" stroke-linejoin="round"/>
<rect width="55.3998" height="18.0051" transform="matrix(0.866023 -0.500004 0 1 288.285 549.686)" fill="white" stroke="#B6B6B7" stroke-width="0.752691" stroke-linejoin="round"/>
<rect width="55.3998" height="55.3998" transform="matrix(0.866023 0.500004 -0.866023 0.500004 288.285 465.398)" fill="#FBFBFB" stroke="#B6B6B7" stroke-width="0.752692" stroke-linejoin="round"/>
<rect width="55.3998" height="18.0051" transform="matrix(0.866023 0.500004 0 1 240.311 493.1)" fill="#FBFBFB" stroke="#B6B6B7" stroke-width="0.752691" stroke-linejoin="round"/>
<rect width="55.3998" height="18.0051" transform="matrix(0.866023 -0.500004 0 1 288.285 520.801)" fill="white" stroke="#B6B6B7" stroke-width="0.752691" stroke-linejoin="round"/>
<rect width="55.3998" height="55.3998" transform="matrix(0.866023 0.500004 -0.866023 0.500004 48.4844 485.668)" fill="#FBFBFB" stroke="#B6B6B7" stroke-width="0.752692" stroke-linejoin="round"/>
<path d="M0.509766 513.369L48.4873 541.069V559.074L0.509766 531.374V513.369Z" fill="#F2F2F2" stroke="#B6B6B7" stroke-width="0.752691" stroke-linejoin="round"/>
<path d="M48.4844 541.072L96.4619 513.372V531.377L48.4844 559.077V541.072Z" fill="#F2F2F2" stroke="#B6B6B7" stroke-width="0.752691" stroke-linejoin="round"/>
<rect width="55.3998" height="55.3998" transform="matrix(0.866023 0.500004 -0.866023 0.500004 144.484 467.355)" fill="#FBFBFB" stroke="#B6B6B7" stroke-width="0.752692" stroke-linejoin="round"/>
<rect width="55.3998" height="18.0051" transform="matrix(0.866023 0.500004 0 1 96.5098 495.057)" fill="#FBFBFB" stroke="#B6B6B7" stroke-width="0.752691" stroke-linejoin="round"/>
<rect width="55.3998" height="18.0051" transform="matrix(0.866023 -0.500004 0 1 144.484 522.76)" fill="white" stroke="#B6B6B7" stroke-width="0.752691" stroke-linejoin="round"/>
<path d="M432.239 252.197L432.239 109.461L369.871 146.096L432.239 252.197Z" fill="white" stroke="#B6B6B7" stroke-width="0.75" stroke-linejoin="round"/>
<path d="M494.425 145.989L432.285 182.127L370.145 145.989L432.285 109.41L494.425 145.989Z" fill="#FBFBFB" stroke="url(#paint0_linear_3007_327709)" stroke-width="0.75" stroke-linejoin="round"/>
<path d="M432.239 252.197L432.239 109.456L494.607 146.096L432.239 252.197Z" fill="#F2F2F2" stroke="#B6B6B7" stroke-width="0.75" stroke-linejoin="round"/>
<path d="M494.431 145.987L432.288 182.127L370.145 145.987L432.288 109.407L494.431 145.987Z" fill="#FBFBFB" stroke="#B6B6B7" stroke-width="0.752692" stroke-linejoin="round"/>
<path d="M494.431 107.21L432.288 71.0703L370.145 107.21L432.288 143.79L494.431 107.21Z" fill="#FBFBFB" stroke="url(#paint1_linear_3007_327709)" stroke-width="0.75" stroke-linejoin="round"/>
<path d="M432.239 1.00001L432.239 143.736L369.871 107.101L432.239 1.00001Z" fill="white" stroke="#B6B6B7" stroke-width="0.75" stroke-linejoin="round"/>
<path d="M494.425 107.208L432.285 71.0703L370.145 107.208L432.285 143.787L494.425 107.208Z" fill="#FBFBFB" stroke="#B6B6B7" stroke-width="0.752692" stroke-linejoin="round"/>
<path d="M432.239 0.999995L432.239 143.742L494.607 107.101L432.239 0.999995Z" fill="#F2F2F2" stroke="#B6B6B7" stroke-width="0.752691" stroke-linejoin="round"/>
<g clip-path="url(#clip0_3007_327709)">
<path d="M240.518 340.814V286.643" stroke="#D2D3D5" stroke-width="0.752692" stroke-linejoin="round"/>
<rect width="55.3998" height="55.3998" transform="matrix(0.866023 0.500004 -0.866023 0.500004 192.562 331.6)" fill="#FBFBFB" stroke="#B6B6B7" stroke-width="0.752692" stroke-linejoin="round"/>
<rect width="55.3998" height="18.0051" transform="matrix(0.866023 0.500004 0 1 144.588 359.301)" fill="white" stroke="#B6B6B7" stroke-width="0.752691" stroke-linejoin="round"/>
<rect width="55.3998" height="18.0051" transform="matrix(0.866023 -0.500004 0 1 192.562 386.996)" fill="white" stroke="#B6B6B7" stroke-width="0.752691" stroke-linejoin="round"/>
<rect width="55.3998" height="55.3998" transform="matrix(0.866023 0.500004 -0.866023 0.500004 528.412 509.002)" fill="white" stroke="#B6B6B7" stroke-width="0.752692" stroke-linejoin="round"/>
<rect width="55.3998" height="18.0051" transform="matrix(0.866023 0.500004 0 1 480.438 536.703)" fill="#FBFBFB" stroke="#B6B6B7" stroke-width="0.752691" stroke-linejoin="round"/>
<rect width="55.3998" height="18.0051" transform="matrix(0.866023 -0.500004 0 1 528.412 564.406)" fill="white" stroke="#B6B6B7" stroke-width="0.752691" stroke-linejoin="round"/>
<rect width="55.3998" height="55.3998" transform="matrix(0.866023 0.500004 -0.866023 0.500004 600.391 106.922)" fill="#FBFBFB" stroke="#B6B6B7" stroke-width="0.752692" stroke-linejoin="round"/>
<rect width="55.3998" height="18.0051" transform="matrix(0.866023 0.500004 0 1 552.414 134.623)" fill="#FBFBFB" stroke="#B6B6B7" stroke-width="0.752691" stroke-linejoin="round"/>
<rect width="55.3998" height="55.3998" transform="matrix(0.866023 0.500004 -0.866023 0.500004 600.391 70.9219)" fill="#FBFBFB" stroke="#B6B6B7" stroke-width="0.752692" stroke-linejoin="round"/>
<rect width="55.3998" height="18.0051" transform="matrix(0.866023 0.500004 0 1 552.414 98.623)" fill="#FBFBFB" stroke="#B6B6B7" stroke-width="0.752691" stroke-linejoin="round"/>
<rect width="55.3998" height="55.3998" transform="matrix(0.866023 0.500004 -0.866023 0.500004 480.432 352.76)" fill="#FBFBFB" stroke="#B6B6B7" stroke-width="0.752692" stroke-linejoin="round"/>
<rect width="55.3998" height="18.0051" transform="matrix(0.866023 0.500004 0 1 432.457 380.461)" fill="#FBFBFB" stroke="#B6B6B7" stroke-width="0.752691" stroke-linejoin="round"/>
<rect width="55.3998" height="18.0051" transform="matrix(0.866023 -0.500004 0 1 480.432 408.164)" fill="white" stroke="#B6B6B7" stroke-width="0.752691" stroke-linejoin="round"/>
<rect width="55.3998" height="55.3998" transform="matrix(0.866023 0.500004 -0.866023 0.500004 384.484 408.17)" fill="#FBFBFB" stroke="#B6B6B7" stroke-width="0.752692" stroke-linejoin="round"/>
<rect width="55.3998" height="18.0051" transform="matrix(0.866023 0.500004 0 1 336.51 435.871)" fill="#FBFBFB" stroke="#B6B6B7" stroke-width="0.752691" stroke-linejoin="round"/>
<rect width="55.3998" height="18.0051" transform="matrix(0.866023 -0.500004 0 1 384.486 463.576)" fill="white" stroke="#B6B6B7" stroke-width="0.752691" stroke-linejoin="round"/>
<rect width="55.3998" height="55.3998" transform="matrix(0.866023 0.500004 -0.866023 0.500004 288.486 494.527)" fill="#FBFBFB" stroke="#B6B6B7" stroke-width="0.752692" stroke-linejoin="round"/>
<rect width="55.3998" height="18.0051" transform="matrix(0.866023 0.500004 0 1 240.512 522.229)" fill="#FBFBFB" stroke="#B6B6B7" stroke-width="0.752691" stroke-linejoin="round"/>
<rect width="55.3998" height="18.0051" transform="matrix(0.866023 -0.500004 0 1 288.486 549.93)" fill="white" stroke="#B6B6B7" stroke-width="0.752691" stroke-linejoin="round"/>
<rect width="55.3998" height="55.3998" transform="matrix(0.866023 0.500004 -0.866023 0.500004 288.486 465.643)" fill="#FBFBFB" stroke="#B6B6B7" stroke-width="0.752692" stroke-linejoin="round"/>
<rect width="55.3998" height="18.0051" transform="matrix(0.866023 0.500004 0 1 240.512 493.344)" fill="#FBFBFB" stroke="#B6B6B7" stroke-width="0.752691" stroke-linejoin="round"/>
<rect width="55.3998" height="18.0051" transform="matrix(0.866023 -0.500004 0 1 288.486 521.045)" fill="white" stroke="#B6B6B7" stroke-width="0.752691" stroke-linejoin="round"/>
<rect width="55.3998" height="55.3998" transform="matrix(0.866023 0.500004 -0.866023 0.500004 432.602 435.596)" fill="#FBFBFB" stroke="#B6B6B7" stroke-width="0.752692" stroke-linejoin="round"/>
<rect width="55.3998" height="18.0051" transform="matrix(0.866023 0.500004 0 1 384.627 463.297)" fill="white" stroke="#B6B6B7" stroke-width="0.752691" stroke-linejoin="round"/>
<rect width="55.3998" height="18.0051" transform="matrix(0.866023 -0.500004 0 1 432.602 491)" fill="#FBFBFB" stroke="#B6B6B7" stroke-width="0.752691" stroke-linejoin="round"/>
<rect width="55.3998" height="55.3998" transform="matrix(0.866023 0.500004 -0.866023 0.500004 480.582 463.291)" fill="#FBFBFB" stroke="#B6B6B7" stroke-width="0.752692" stroke-linejoin="round"/>
<rect width="55.3998" height="18.0051" transform="matrix(0.866023 0.500004 0 1 432.607 490.992)" fill="white" stroke="#B6B6B7" stroke-width="0.752691" stroke-linejoin="round"/>
<rect width="55.3998" height="18.0051" transform="matrix(0.866023 -0.500004 0 1 480.584 518.695)" fill="#FBFBFB" stroke="#B6B6B7" stroke-width="0.752691" stroke-linejoin="round"/>
<rect width="55.3998" height="55.3998" transform="matrix(0.866023 0.500004 -0.866023 0.500004 192.486 286.221)" fill="#FBFBFB" stroke="#B6B6B7" stroke-width="0.752692" stroke-linejoin="round"/>
<rect width="55.3998" height="18.0051" transform="matrix(0.866023 0.500004 0 1 144.512 313.922)" fill="#FBFBFB" stroke="#B6B6B7" stroke-width="0.752691" stroke-linejoin="round"/>
<rect width="55.3998" height="18.0051" transform="matrix(0.866023 -0.500004 0 1 192.488 341.625)" fill="white" stroke="#B6B6B7" stroke-width="0.752691" stroke-linejoin="round"/>
<rect width="55.3998" height="55.3998" transform="matrix(0.866023 0.500004 -0.866023 0.500004 528.412 290.65)" fill="#FBFBFB" stroke="#B6B6B7" stroke-width="0.752692" stroke-linejoin="round"/>
<rect width="55.3998" height="18.0051" transform="matrix(0.866023 0.500004 0 1 480.438 318.352)" fill="#FBFBFB" stroke="#B6B6B7" stroke-width="0.752691" stroke-linejoin="round"/>
<rect width="55.3998" height="18.0051" transform="matrix(0.866023 -0.500004 0 1 528.412 346.055)" fill="white" stroke="#B6B6B7" stroke-width="0.752691" stroke-linejoin="round"/>
<rect width="55.3998" height="55.3998" transform="matrix(0.866023 0.500004 -0.866023 0.500004 192.588 440.189)" fill="#FBFBFB" stroke="#B6B6B7" stroke-width="0.752692" stroke-linejoin="round"/>
<rect width="55.3998" height="18.0051" transform="matrix(0.866023 0.500004 0 1 144.613 467.891)" fill="white" stroke="#B6B6B7" stroke-width="0.752691" stroke-linejoin="round"/>
<rect width="55.3998" height="18.0051" transform="matrix(0.866023 -0.500004 0 1 192.59 495.592)" fill="#FBFBFB" stroke="#B6B6B7" stroke-width="0.752691" stroke-linejoin="round"/>
<rect width="55.3998" height="55.3998" transform="matrix(0.866023 0.500004 -0.866023 0.500004 48.6855 485.912)" fill="#FBFBFB" stroke="#B6B6B7" stroke-width="0.752692" stroke-linejoin="round"/>
<rect width="55.3998" height="18.0051" transform="matrix(0.866023 0.500004 0 1 0.710938 513.613)" fill="#FBFBFB" stroke="#B6B6B7" stroke-width="0.752691" stroke-linejoin="round"/>
<rect width="55.3998" height="18.0051" transform="matrix(0.866023 -0.500004 0 1 48.6855 541.316)" fill="white" stroke="#B6B6B7" stroke-width="0.752691" stroke-linejoin="round"/>
<rect width="55.3998" height="55.3998" transform="matrix(0.866023 0.500004 -0.866023 0.500004 144.686 467.6)" fill="#FBFBFB" stroke="#B6B6B7" stroke-width="0.752692" stroke-linejoin="round"/>
<rect width="55.3998" height="18.0051" transform="matrix(0.866023 0.500004 0 1 96.7109 495.301)" fill="#FBFBFB" stroke="#B6B6B7" stroke-width="0.752691" stroke-linejoin="round"/>
<rect width="55.3998" height="18.0051" transform="matrix(0.866023 -0.500004 0 1 144.686 523.004)" fill="white" stroke="#B6B6B7" stroke-width="0.752691" stroke-linejoin="round"/>
<rect width="55.3998" height="55.3998" transform="matrix(0.866023 0.500004 -0.866023 0.500004 192.564 422.072)" fill="#FBFBFB" stroke="#B6B6B7" stroke-width="0.752692" stroke-linejoin="round"/>
<rect width="55.3998" height="18.0051" transform="matrix(0.866023 0.500004 0 1 144.59 449.773)" fill="#FBFBFB" stroke="#B6B6B7" stroke-width="0.752691" stroke-linejoin="round"/>
<rect width="55.3998" height="18.0051" transform="matrix(0.866023 -0.500004 0 1 192.566 477.475)" fill="white" stroke="#B6B6B7" stroke-width="0.752691" stroke-linejoin="round"/>
<rect width="55.3998" height="55.3998" transform="matrix(0.866023 0.500004 -0.866023 0.500004 192.584 404.803)" fill="#FBFBFB" stroke="#B6B6B7" stroke-width="0.752692" stroke-linejoin="round"/>
<rect width="55.3998" height="18.0051" transform="matrix(0.866023 0.500004 0 1 144.609 432.504)" fill="#FBFBFB" stroke="#B6B6B7" stroke-width="0.752691" stroke-linejoin="round"/>
<rect width="55.3998" height="18.0051" transform="matrix(0.866023 -0.500004 0 1 192.586 460.205)" fill="white" stroke="#B6B6B7" stroke-width="0.752691" stroke-linejoin="round"/>
<rect width="55.3998" height="55.3998" transform="matrix(0.866023 0.500004 -0.866023 0.500004 288.594 168.291)" fill="#FBFBFB" stroke="#B6B6B7" stroke-width="0.752692" stroke-linejoin="round"/>
<rect width="55.3998" height="18.0051" transform="matrix(0.866023 0.500004 0 1 240.619 195.992)" fill="#FBFBFB" stroke="#B6B6B7" stroke-width="0.752691" stroke-linejoin="round"/>
<rect width="55.3998" height="18.0051" transform="matrix(0.866023 -0.500004 0 1 288.594 223.695)" fill="white" stroke="#B6B6B7" stroke-width="0.752691" stroke-linejoin="round"/>
<rect width="55.3998" height="55.3998" transform="matrix(0.866023 0.500004 -0.866023 0.500004 192.486 223.182)" fill="#FBFBFB" stroke="#B6B6B7" stroke-width="0.752692" stroke-linejoin="round"/>
<rect width="55.3998" height="18.0051" transform="matrix(0.866023 0.500004 0 1 144.512 250.883)" fill="#FBFBFB" stroke="#B6B6B7" stroke-width="0.752691" stroke-linejoin="round"/>
<rect width="55.3998" height="18.0051" transform="matrix(0.866023 -0.500004 0 1 192.486 278.586)" fill="white" stroke="#B6B6B7" stroke-width="0.752691" stroke-linejoin="round"/>
<rect width="55.3998" height="55.3998" transform="matrix(0.866023 0.500004 -0.866023 0.500004 192.486 174.92)" fill="#FBFBFB" stroke="#B6B6B7" stroke-width="0.752692" stroke-linejoin="round"/>
<rect width="55.3998" height="18.0051" transform="matrix(0.866023 0.500004 0 1 144.512 202.621)" fill="#FBFBFB" stroke="#B6B6B7" stroke-width="0.752691" stroke-linejoin="round"/>
<rect width="55.3998" height="18.0051" transform="matrix(0.866023 -0.500004 0 1 192.488 230.322)" fill="white" stroke="#B6B6B7" stroke-width="0.752691" stroke-linejoin="round"/>
<rect width="55.3998" height="55.3998" transform="matrix(0.866023 0.500004 -0.866023 0.500004 288.594 150.471)" fill="#FBFBFB" stroke="#B6B6B7" stroke-width="0.752692" stroke-linejoin="round"/>
<rect width="55.3998" height="18.0051" transform="matrix(0.866023 0.500004 0 1 240.619 178.172)" fill="#FBFBFB" stroke="#B6B6B7" stroke-width="0.752691" stroke-linejoin="round"/>
<rect width="55.3998" height="18.0051" transform="matrix(0.866023 -0.500004 0 1 288.596 205.875)" fill="white" stroke="#B6B6B7" stroke-width="0.752691" stroke-linejoin="round"/>
<rect width="55.3998" height="55.3998" transform="matrix(0.866023 0.500004 -0.866023 0.500004 528.41 405.803)" fill="#FBFBFB" stroke="#B6B6B7" stroke-width="0.752692" stroke-linejoin="round"/>
<rect width="55.3998" height="18.0051" transform="matrix(0.866023 0.500004 0 1 480.436 433.504)" fill="white" stroke="#B6B6B7" stroke-width="0.752691" stroke-linejoin="round"/>
<rect width="55.3998" height="18.0051" transform="matrix(0.866023 -0.500004 0 1 528.412 461.207)" fill="#FBFBFB" stroke="#B6B6B7" stroke-width="0.752691" stroke-linejoin="round"/>
<rect width="55.3998" height="55.3998" transform="matrix(0.866023 0.500004 -0.866023 0.500004 528.41 239.586)" fill="#FBFBFB" stroke="#B6B6B7" stroke-width="0.752692" stroke-linejoin="round"/>
<rect width="55.3998" height="18.0051" transform="matrix(0.866023 0.500004 0 1 480.436 267.287)" fill="#FBFBFB" stroke="#B6B6B7" stroke-width="0.752691" stroke-linejoin="round"/>
<rect width="55.3998" height="18.0051" transform="matrix(0.866023 -0.500004 0 1 528.412 294.99)" fill="white" stroke="#B6B6B7" stroke-width="0.752691" stroke-linejoin="round"/>
<rect width="55.3998" height="55.3998" transform="matrix(0.866023 0.500004 -0.866023 0.500004 528.41 170.246)" fill="#FBFBFB" stroke="#B6B6B7" stroke-width="0.752692" stroke-linejoin="round"/>
<rect width="55.3998" height="18.0051" transform="matrix(0.866023 0.500004 0 1 480.434 197.646)" fill="#FBFBFB" stroke="#B6B6B7" stroke-width="0.752691" stroke-linejoin="round"/>
<rect width="55.3998" height="18.0051" transform="matrix(0.866023 -0.500004 0 1 528.412 225.35)" fill="#FBFBFB" stroke="#B6B6B7" stroke-width="0.752691" stroke-linejoin="round"/>
<rect width="55.3998" height="55.3998" transform="matrix(0.866023 0.500004 -0.866023 0.500004 96.6562 329.932)" fill="#FBFBFB" stroke="#B6B6B7" stroke-width="0.752692" stroke-linejoin="round"/>
<rect width="55.3998" height="18.0051" transform="matrix(0.866023 0.500004 0 1 48.6816 357.631)" fill="white" stroke="#B6B6B7" stroke-width="0.752691" stroke-linejoin="round"/>
<rect width="55.3998" height="18.0051" transform="matrix(0.866023 -0.500004 0 1 96.6562 385.336)" fill="white" stroke="#B6B6B7" stroke-width="0.752691" stroke-linejoin="round"/>
<rect width="55.3998" height="55.3998" transform="matrix(0.866023 0.500004 -0.866023 0.500004 96.6562 243.861)" fill="#FBFBFB" stroke="#B6B6B7" stroke-width="0.752692" stroke-linejoin="round"/>
<rect width="55.3998" height="18.0051" transform="matrix(0.866023 0.500004 0 1 48.6816 271.564)" fill="#FBFBFB" stroke="#B6B6B7" stroke-width="0.752691" stroke-linejoin="round"/>
<rect width="55.3998" height="18.0051" transform="matrix(0.866023 -0.500004 0 1 96.6562 299.271)" fill="white" stroke="#B6B6B7" stroke-width="0.752691" stroke-linejoin="round"/>
<rect width="55.3998" height="55.3998" transform="matrix(0.866023 0.500004 -0.866023 0.500004 432.49 348.842)" fill="#FBFBFB" stroke="#B6B6B7" stroke-width="0.752692" stroke-linejoin="round"/>
<rect width="55.3998" height="18.0051" transform="matrix(0.866023 0.500004 0 1 384.516 376.543)" fill="#FBFBFB" stroke="#B6B6B7" stroke-width="0.752691" stroke-linejoin="round"/>
<rect width="55.3998" height="18.0051" transform="matrix(0.866023 -0.500004 0 1 432.492 404.246)" fill="white" stroke="#B6B6B7" stroke-width="0.752691" stroke-linejoin="round"/>
<rect width="55.3998" height="55.3998" transform="matrix(0.866023 0.500004 -0.866023 0.500004 432.49 307.434)" fill="#FBFBFB" stroke="#B6B6B7" stroke-width="0.752692" stroke-linejoin="round"/>
<rect width="55.3998" height="18.0051" transform="matrix(0.866023 0.500004 0 1 384.516 335.135)" fill="#FBFBFB" stroke="#B6B6B7" stroke-width="0.752691" stroke-linejoin="round"/>
<rect width="55.3998" height="18.0051" transform="matrix(0.866023 -0.500004 0 1 432.49 362.838)" fill="white" stroke="#B6B6B7" stroke-width="0.752691" stroke-linejoin="round"/>
<rect width="55.3998" height="55.3998" transform="matrix(0.866023 0.500004 -0.866023 0.500004 432.49 266.027)" fill="#FBFBFB" stroke="#B6B6B7" stroke-width="0.752692" stroke-linejoin="round"/>
<rect width="55.3998" height="18.0051" transform="matrix(0.866023 0.500004 0 1 384.516 293.729)" fill="#FBFBFB" stroke="#B6B6B7" stroke-width="0.752691" stroke-linejoin="round"/>
<rect width="55.3998" height="18.0051" transform="matrix(0.866023 -0.500004 0 1 432.492 321.43)" fill="white" stroke="#B6B6B7" stroke-width="0.752691" stroke-linejoin="round"/>
<rect width="55.3998" height="55.3998" transform="matrix(0.866023 0.500004 -0.866023 0.500004 432.49 224.619)" fill="#FBFBFB" stroke="#B6B6B7" stroke-width="0.752692" stroke-linejoin="round"/>
<rect width="55.3998" height="18.0051" transform="matrix(0.866023 0.500004 0 1 384.516 252.32)" fill="#FBFBFB" stroke="#B6B6B7" stroke-width="0.752691" stroke-linejoin="round"/>
<rect width="55.3998" height="18.0051" transform="matrix(0.866023 -0.500004 0 1 432.492 280.023)" fill="white" stroke="#B6B6B7" stroke-width="0.752691" stroke-linejoin="round"/>
<rect width="55.3998" height="55.3998" transform="matrix(0.866023 0.500004 -0.866023 0.500004 287.918 259.195)" fill="#FBFBFB" stroke="#B6B6B7" stroke-width="0.752692" stroke-linejoin="round"/>
<rect width="55.3998" height="18.0051" transform="matrix(0.866023 0.500004 0 1 239.943 286.896)" fill="#FBFBFB" stroke="#B6B6B7" stroke-width="0.752691" stroke-linejoin="round"/>
<rect width="55.3998" height="18.0051" transform="matrix(0.866023 -0.500004 0 1 287.92 314.6)" fill="white" stroke="#B6B6B7" stroke-width="0.752691" stroke-linejoin="round"/>
<rect width="55.3998" height="55.3998" transform="matrix(0.866023 0.500004 -0.866023 0.500004 288.49 223.264)" fill="#FBFBFB" stroke="#B6B6B7" stroke-width="0.752692" stroke-linejoin="round"/>
<rect width="55.3998" height="18.0051" transform="matrix(0.866023 0.500004 0 1 240.514 250.965)" fill="#FBFBFB" stroke="#B6B6B7" stroke-width="0.752691" stroke-linejoin="round"/>
<rect width="55.3998" height="18.0051" transform="matrix(0.866023 -0.500004 0 1 288.49 278.668)" fill="#FBFBFB" stroke="#B6B6B7" stroke-width="0.752691" stroke-linejoin="round"/>
<rect width="55.3998" height="55.3998" transform="matrix(0.866023 0.500004 -0.866023 0.500004 240.57 286.221)" fill="#FBFBFB" stroke="#B6B6B7" stroke-width="0.752692" stroke-linejoin="round"/>
<rect width="55.3998" height="18.0051" transform="matrix(0.866023 0.500004 0 1 192.596 313.922)" fill="#FBFBFB" stroke="#B6B6B7" stroke-width="0.752691" stroke-linejoin="round"/>
<rect width="55.3998" height="18.0051" transform="matrix(0.866023 -0.500004 0 1 240.572 341.623)" fill="white" stroke="#B6B6B7" stroke-width="0.752691" stroke-linejoin="round"/>
<rect width="55.3998" height="55.3998" transform="matrix(0.866023 0.500004 -0.866023 0.500004 336.502 435.588)" fill="#FBFBFB" stroke="#B6B6B7" stroke-width="0.752692" stroke-linejoin="round"/>
<rect width="55.3998" height="18.0051" transform="matrix(0.866023 0.500004 0 1 288.527 463.289)" fill="#FBFBFB" stroke="#B6B6B7" stroke-width="0.752691" stroke-linejoin="round"/>
<rect width="55.3998" height="18.0051" transform="matrix(0.866023 -0.500004 0 1 336.504 490.99)" fill="white" stroke="#B6B6B7" stroke-width="0.752691" stroke-linejoin="round"/>
<rect width="55.3998" height="55.3998" transform="matrix(0.866023 0.500004 -0.866023 0.500004 288.502 430.008)" fill="#FBFBFB" stroke="#B6B6B7" stroke-width="0.752692" stroke-linejoin="round"/>
<rect width="55.3998" height="18.0051" transform="matrix(0.866023 0.500004 0 1 240.527 457.709)" fill="#FBFBFB" stroke="#B6B6B7" stroke-width="0.752691" stroke-linejoin="round"/>
<rect width="55.3998" height="18.0051" transform="matrix(0.866023 -0.500004 0 1 288.504 485.41)" fill="white" stroke="#B6B6B7" stroke-width="0.752691" stroke-linejoin="round"/>
<rect width="55.3998" height="55.3998" transform="matrix(0.866023 0.500004 -0.866023 0.500004 288.502 387.008)" fill="#FBFBFB" stroke="#B6B6B7" stroke-width="0.752692" stroke-linejoin="round"/>
<rect width="55.3998" height="18.0051" transform="matrix(0.866023 0.500004 0 1 240.527 414.709)" fill="#FBFBFB" stroke="#B6B6B7" stroke-width="0.752691" stroke-linejoin="round"/>
<rect width="55.3998" height="18.0051" transform="matrix(0.866023 -0.500004 0 1 288.504 442.41)" fill="white" stroke="#B6B6B7" stroke-width="0.752691" stroke-linejoin="round"/>
<path d="M432.44 252.441L432.44 109.705L370.072 146.341L432.44 252.441Z" fill="white" stroke="#B6B6B7" stroke-width="0.75" stroke-linejoin="round"/>
<path d="M494.626 146.233L432.486 182.371L370.346 146.233L432.486 109.654L494.626 146.233Z" fill="#FBFBFB" stroke="url(#paint2_linear_3007_327709)" stroke-width="0.75" stroke-linejoin="round"/>
<path d="M432.44 252.441L432.44 109.7L494.809 146.341L432.44 252.441Z" fill="#F2F2F2" stroke="#B6B6B7" stroke-width="0.75" stroke-linejoin="round"/>
<path d="M494.632 146.231L432.489 182.371L370.346 146.231L432.489 109.651L494.632 146.231Z" fill="#FBFBFB" stroke="#B6B6B7" stroke-width="0.752692" stroke-linejoin="round"/>
<path d="M494.388 107.366L432.245 71.2266L370.102 107.366L432.245 143.947L494.388 107.366Z" fill="#FBFBFB" stroke="url(#paint3_linear_3007_327709)" stroke-width="0.75" stroke-linejoin="round"/>
<path d="M432.196 1.15626L432.196 143.892L369.828 107.257L432.196 1.15626Z" fill="white" stroke="#B6B6B7" stroke-width="0.75" stroke-linejoin="round"/>
<path d="M494.382 107.365L432.242 71.2266L370.102 107.365L432.242 143.943L494.382 107.365Z" fill="#FBFBFB" stroke="#B6B6B7" stroke-width="0.752692" stroke-linejoin="round"/>
<path d="M432.196 1.15624L432.196 143.898L494.564 107.257L432.196 1.15624Z" fill="white" stroke="#B6B6B7" stroke-width="0.75" stroke-linejoin="round"/>
</g>
<defs>
<linearGradient id="paint0_linear_3007_327709" x1="447.571" y1="141.551" x2="448.338" y2="106.397" gradientUnits="userSpaceOnUse">
<stop stop-color="#FB7E51"/>
<stop offset="1" stop-color="#FF8F66"/>
</linearGradient>
<linearGradient id="paint1_linear_3007_327709" x1="447.575" y1="111.648" x2="448.341" y2="146.804" gradientUnits="userSpaceOnUse">
<stop stop-color="#FB7E51"/>
<stop offset="1" stop-color="#FF8F66"/>
</linearGradient>
<linearGradient id="paint2_linear_3007_327709" x1="447.772" y1="141.795" x2="448.539" y2="106.641" gradientUnits="userSpaceOnUse">
<stop stop-color="#FB7E51"/>
<stop offset="1" stop-color="#FF8F66"/>
</linearGradient>
<linearGradient id="paint3_linear_3007_327709" x1="447.532" y1="111.804" x2="448.298" y2="146.96" gradientUnits="userSpaceOnUse">
<stop stop-color="#FB7E51"/>
<stop offset="1" stop-color="#FF8F66"/>
</linearGradient>
<clipPath id="clip0_3007_327709">
<rect width="528" height="480" fill="white" transform="translate(48.5 56.7598)"/>
</clipPath>
</defs>
</svg>
