<svg width="699" height="649" viewBox="0 0 699 649" fill="none" xmlns="http://www.w3.org/2000/svg">
<rect width="55.5292" height="55.5292" transform="matrix(0.866695 0.498838 -0.866695 0.498838 578.172 574.973)" fill="white" stroke="#B6B6B7" stroke-width="0.752692" stroke-linejoin="round"/>
<rect width="55.5292" height="18.0051" transform="matrix(0.866695 0.498838 0 1 530.047 602.674)" fill="#F2F2F2" stroke="#B6B6B7" stroke-width="0.752691" stroke-linejoin="round"/>
<rect width="55.5292" height="18.0051" transform="matrix(0.866695 -0.498839 0 1 578.17 630.375)" fill="#F2F2F2" stroke="#B6B6B7" stroke-width="0.752691" stroke-linejoin="round"/>
<rect width="55.5292" height="55.5292" transform="matrix(0.866695 0.498839 -0.866695 0.498839 578.172 508.898)" fill="white" stroke="#B6B6B7" stroke-width="0.752692" stroke-linejoin="round"/>
<rect width="55.5293" height="18.0051" transform="matrix(0.866695 0.498838 0 1 530.045 536.6)" fill="#FBFBFB" stroke="#B6B6B7" stroke-width="0.752691" stroke-linejoin="round"/>
<rect width="55.5292" height="18.0051" transform="matrix(0.866695 -0.498838 0 1 578.17 564.303)" fill="white" stroke="#B6B6B7" stroke-width="0.752691" stroke-linejoin="round"/>
<rect width="55.5292" height="55.5292" transform="matrix(0.866695 0.498839 -0.866695 0.498839 337.498 549.482)" fill="white" stroke="#B6B6B7" stroke-width="0.752692" stroke-linejoin="round"/>
<rect width="55.5292" height="18.0051" transform="matrix(0.866695 0.498839 0 1 289.373 577.184)" fill="#F2F2F2" stroke="#B6B6B7" stroke-width="0.752691" stroke-linejoin="round"/>
<rect width="55.5293" height="18.0051" transform="matrix(0.866695 -0.498838 0 1 337.498 604.887)" fill="#F2F2F2" stroke="#B6B6B7" stroke-width="0.752691" stroke-linejoin="round"/>
<rect width="55.5293" height="55.5293" transform="matrix(0.866695 0.498838 -0.866695 0.498838 650.373 106.818)" fill="#FBFBFB" stroke="#B6B6B7" stroke-width="0.752692" stroke-linejoin="round"/>
<rect width="55.5292" height="18.0051" transform="matrix(0.866695 0.498839 0 1 602.246 134.52)" fill="#FBFBFB" stroke="#B6B6B7" stroke-width="0.752691" stroke-linejoin="round"/>
<rect width="55.5293" height="18.0051" transform="matrix(0.866695 -0.498838 0 1 650.373 162.223)" fill="#F2F2F2" stroke="#B6B6B7" stroke-width="0.752691" stroke-linejoin="round"/>
<rect width="55.5293" height="55.5293" transform="matrix(0.866695 0.498838 -0.866695 0.498838 650.373 70.8184)" fill="#FBFBFB" stroke="#B6B6B7" stroke-width="0.752692" stroke-linejoin="round"/>
<rect width="55.5292" height="18.0051" transform="matrix(0.866695 0.498839 0 1 602.246 98.5195)" fill="#FBFBFB" stroke="#B6B6B7" stroke-width="0.752691" stroke-linejoin="round"/>
<rect width="55.5293" height="18.0051" transform="matrix(0.866695 -0.498838 0 1 650.373 126.223)" fill="#F2F2F2" stroke="#B6B6B7" stroke-width="0.752691" stroke-linejoin="round"/>
<rect width="55.5292" height="55.5292" transform="matrix(0.866695 0.498839 -0.866695 0.498839 48.793 513.494)" fill="white" stroke="#B6B6B7" stroke-width="0.752692" stroke-linejoin="round"/>
<rect width="55.5292" height="18.0051" transform="matrix(0.866695 0.498839 0 1 0.667969 541.195)" fill="#F2F2F2" stroke="#B6B6B7" stroke-width="0.752691" stroke-linejoin="round"/>
<rect width="55.5292" height="18.0051" transform="matrix(0.866695 -0.498839 0 1 48.793 568.891)" fill="#F2F2F2" stroke="#B6B6B7" stroke-width="0.752691" stroke-linejoin="round"/>
<path d="M481.9 252.338L481.9 109.602L419.338 146.237L481.9 252.338Z" fill="white" stroke="#B6B6B7" stroke-width="0.75" stroke-linejoin="round"/>
<path d="M544.281 146.13L481.947 182.268L419.613 146.13L481.947 109.551L544.281 146.13Z" fill="#FBFBFB" stroke="url(#paint0_linear_2420_940880)" stroke-width="0.75" stroke-linejoin="round"/>
<path d="M481.901 252.338L481.901 109.596L544.463 146.237L481.901 252.338Z" fill="#F2F2F2" stroke="#B6B6B7" stroke-width="0.75" stroke-linejoin="round"/>
<path d="M544.286 146.128L481.95 182.268L419.613 146.128L481.95 109.548L544.286 146.128Z" fill="#FBFBFB" stroke="#B6B6B7" stroke-width="0.752692" stroke-linejoin="round"/>
<path d="M544.286 107.351L481.95 71.2109L419.613 107.351L481.95 143.931L544.286 107.351Z" fill="#FBFBFB" stroke="url(#paint1_linear_2420_940880)" stroke-width="0.75" stroke-linejoin="round"/>
<path d="M481.9 1.14063L481.9 143.877L419.338 107.242L481.9 1.14063Z" fill="white" stroke="#B6B6B7" stroke-width="0.75" stroke-linejoin="round"/>
<path d="M544.281 107.349L481.947 71.2109L419.613 107.349L481.947 143.928L544.281 107.349Z" fill="#FBFBFB" stroke="#B6B6B7" stroke-width="0.752692" stroke-linejoin="round"/>
<path d="M481.901 1.14062L481.9 143.882L544.463 107.242L481.901 1.14062Z" fill="#F2F2F2" stroke="#B6B6B7" stroke-width="0.752691" stroke-linejoin="round"/>
<rect width="55.3998" height="55.3998" transform="matrix(0.866023 0.500004 -0.866023 0.500004 337.484 494.527)" fill="#FBFBFB" stroke="#B6B6B7" stroke-width="0.752692" stroke-linejoin="round"/>
<rect width="55.3998" height="18.0051" transform="matrix(0.866023 0.500004 0 1 289.51 522.229)" fill="#FBFBFB" stroke="#B6B6B7" stroke-width="0.752691" stroke-linejoin="round"/>
<rect width="55.3998" height="18.0051" transform="matrix(0.866023 -0.500004 0 1 337.484 549.93)" fill="white" stroke="#B6B6B7" stroke-width="0.752691" stroke-linejoin="round"/>
<g clip-path="url(#clip0_2420_940880)">
<path d="M289.518 340.814V286.643" stroke="#D2D3D5" stroke-width="0.752692" stroke-linejoin="round"/>
<rect width="55.3998" height="55.3998" transform="matrix(0.866023 0.500004 -0.866023 0.500004 241.562 331.6)" fill="#FBFBFB" stroke="#B6B6B7" stroke-width="0.752692" stroke-linejoin="round"/>
<rect width="55.3998" height="18.0051" transform="matrix(0.866023 0.500004 0 1 193.588 359.301)" fill="white" stroke="#B6B6B7" stroke-width="0.752691" stroke-linejoin="round"/>
<rect width="55.3998" height="18.0051" transform="matrix(0.866023 -0.500004 0 1 241.562 386.996)" fill="white" stroke="#B6B6B7" stroke-width="0.752691" stroke-linejoin="round"/>
<rect width="55.3998" height="55.3998" transform="matrix(0.866023 0.500004 -0.866023 0.500004 577.412 509.002)" fill="white" stroke="#B6B6B7" stroke-width="0.752692" stroke-linejoin="round"/>
<rect width="55.3998" height="18.0051" transform="matrix(0.866023 0.500004 0 1 529.438 536.703)" fill="#FBFBFB" stroke="#B6B6B7" stroke-width="0.752691" stroke-linejoin="round"/>
<rect width="55.3998" height="18.0051" transform="matrix(0.866023 -0.500004 0 1 577.412 564.406)" fill="white" stroke="#B6B6B7" stroke-width="0.752691" stroke-linejoin="round"/>
<rect width="55.3998" height="55.3998" transform="matrix(0.866023 0.500004 -0.866023 0.500004 337.484 549.586)" fill="white" stroke="#B6B6B7" stroke-width="0.752692" stroke-linejoin="round"/>
<rect width="55.3998" height="55.3998" transform="matrix(0.866023 0.500004 -0.866023 0.500004 650.389 106.922)" fill="#FBFBFB" stroke="#B6B6B7" stroke-width="0.752692" stroke-linejoin="round"/>
<rect width="55.3998" height="18.0051" transform="matrix(0.866023 0.500004 0 1 602.412 134.623)" fill="#FBFBFB" stroke="#B6B6B7" stroke-width="0.752691" stroke-linejoin="round"/>
<rect width="55.3998" height="18.0051" transform="matrix(0.866023 -0.500004 0 1 650.389 162.326)" fill="white" stroke="#B6B6B7" stroke-width="0.752691" stroke-linejoin="round"/>
<rect width="55.3998" height="55.3998" transform="matrix(0.866023 0.500004 -0.866023 0.500004 650.389 70.9219)" fill="#FBFBFB" stroke="#B6B6B7" stroke-width="0.752692" stroke-linejoin="round"/>
<rect width="55.3998" height="18.0051" transform="matrix(0.866023 0.500004 0 1 602.412 98.623)" fill="#FBFBFB" stroke="#B6B6B7" stroke-width="0.752691" stroke-linejoin="round"/>
<rect width="55.3998" height="18.0051" transform="matrix(0.866023 -0.500004 0 1 650.389 126.326)" fill="white" stroke="#B6B6B7" stroke-width="0.752691" stroke-linejoin="round"/>
<rect width="55.3998" height="55.3998" transform="matrix(0.866023 0.500004 -0.866023 0.500004 529.43 352.76)" fill="#FBFBFB" stroke="#B6B6B7" stroke-width="0.752692" stroke-linejoin="round"/>
<rect width="55.3998" height="18.0051" transform="matrix(0.866023 0.500004 0 1 481.455 380.461)" fill="#FBFBFB" stroke="#B6B6B7" stroke-width="0.752691" stroke-linejoin="round"/>
<rect width="55.3998" height="18.0051" transform="matrix(0.866023 -0.500004 0 1 529.43 408.164)" fill="white" stroke="#B6B6B7" stroke-width="0.752691" stroke-linejoin="round"/>
<rect width="55.3998" height="55.3998" transform="matrix(0.866023 0.500004 -0.866023 0.500004 433.484 408.17)" fill="#FBFBFB" stroke="#B6B6B7" stroke-width="0.752692" stroke-linejoin="round"/>
<rect width="55.3998" height="18.0051" transform="matrix(0.866023 0.500004 0 1 385.51 435.871)" fill="#FBFBFB" stroke="#B6B6B7" stroke-width="0.752691" stroke-linejoin="round"/>
<rect width="55.3998" height="18.0051" transform="matrix(0.866023 -0.500004 0 1 433.486 463.576)" fill="white" stroke="#B6B6B7" stroke-width="0.752691" stroke-linejoin="round"/>
<rect width="55.3998" height="55.3998" transform="matrix(0.866023 0.500004 -0.866023 0.500004 337.484 494.527)" fill="#FBFBFB" stroke="#B6B6B7" stroke-width="0.752692" stroke-linejoin="round"/>
<rect width="55.3998" height="18.0051" transform="matrix(0.866023 0.500004 0 1 289.51 522.229)" fill="#FBFBFB" stroke="#B6B6B7" stroke-width="0.752691" stroke-linejoin="round"/>
<rect width="55.3998" height="18.0051" transform="matrix(0.866023 -0.500004 0 1 337.484 549.93)" fill="white" stroke="#B6B6B7" stroke-width="0.752691" stroke-linejoin="round"/>
<rect width="55.3998" height="55.3998" transform="matrix(0.866023 0.500004 -0.866023 0.500004 337.484 465.643)" fill="#FBFBFB" stroke="#B6B6B7" stroke-width="0.752692" stroke-linejoin="round"/>
<rect width="55.3998" height="18.0051" transform="matrix(0.866023 0.500004 0 1 289.51 493.344)" fill="#FBFBFB" stroke="#B6B6B7" stroke-width="0.752691" stroke-linejoin="round"/>
<rect width="55.3998" height="18.0051" transform="matrix(0.866023 -0.500004 0 1 337.484 521.045)" fill="white" stroke="#B6B6B7" stroke-width="0.752691" stroke-linejoin="round"/>
<rect width="55.3998" height="55.3998" transform="matrix(0.866023 0.500004 -0.866023 0.500004 481.6 435.596)" fill="#FBFBFB" stroke="#B6B6B7" stroke-width="0.752692" stroke-linejoin="round"/>
<rect width="55.3998" height="18.0051" transform="matrix(0.866023 0.500004 0 1 433.625 463.297)" fill="white" stroke="#B6B6B7" stroke-width="0.752691" stroke-linejoin="round"/>
<rect width="55.3998" height="18.0051" transform="matrix(0.866023 -0.500004 0 1 481.6 491)" fill="#FBFBFB" stroke="#B6B6B7" stroke-width="0.752691" stroke-linejoin="round"/>
<rect width="55.3998" height="55.3998" transform="matrix(0.866023 0.500004 -0.866023 0.500004 529.582 463.291)" fill="#FBFBFB" stroke="#B6B6B7" stroke-width="0.752692" stroke-linejoin="round"/>
<rect width="55.3998" height="18.0051" transform="matrix(0.866023 0.500004 0 1 481.607 490.992)" fill="white" stroke="#B6B6B7" stroke-width="0.752691" stroke-linejoin="round"/>
<rect width="55.3998" height="18.0051" transform="matrix(0.866023 -0.500004 0 1 529.584 518.695)" fill="#FBFBFB" stroke="#B6B6B7" stroke-width="0.752691" stroke-linejoin="round"/>
<rect width="55.3998" height="55.3998" transform="matrix(0.866023 0.500004 -0.866023 0.500004 241.484 286.221)" fill="#FBFBFB" stroke="#B6B6B7" stroke-width="0.752692" stroke-linejoin="round"/>
<rect width="55.3998" height="18.0051" transform="matrix(0.866023 0.500004 0 1 193.51 313.922)" fill="#FBFBFB" stroke="#B6B6B7" stroke-width="0.752691" stroke-linejoin="round"/>
<rect width="55.3998" height="18.0051" transform="matrix(0.866023 -0.500004 0 1 241.486 341.625)" fill="white" stroke="#B6B6B7" stroke-width="0.752691" stroke-linejoin="round"/>
<rect width="55.3998" height="55.3998" transform="matrix(0.866023 0.500004 -0.866023 0.500004 577.412 290.65)" fill="#FBFBFB" stroke="#B6B6B7" stroke-width="0.752692" stroke-linejoin="round"/>
<rect width="55.3998" height="18.0051" transform="matrix(0.866023 0.500004 0 1 529.438 318.352)" fill="#FBFBFB" stroke="#B6B6B7" stroke-width="0.752691" stroke-linejoin="round"/>
<rect width="55.3998" height="18.0051" transform="matrix(0.866023 -0.500004 0 1 577.412 346.055)" fill="white" stroke="#B6B6B7" stroke-width="0.752691" stroke-linejoin="round"/>
<rect width="55.3998" height="55.3998" transform="matrix(0.866023 0.500004 -0.866023 0.500004 241.588 440.189)" fill="#FBFBFB" stroke="#B6B6B7" stroke-width="0.752692" stroke-linejoin="round"/>
<rect width="55.3998" height="18.0051" transform="matrix(0.866023 0.500004 0 1 193.613 467.891)" fill="white" stroke="#B6B6B7" stroke-width="0.752691" stroke-linejoin="round"/>
<rect width="55.3998" height="18.0051" transform="matrix(0.866023 -0.500004 0 1 241.59 495.592)" fill="#FBFBFB" stroke="#B6B6B7" stroke-width="0.752691" stroke-linejoin="round"/>
<rect width="55.3998" height="55.3998" transform="matrix(0.866023 0.500004 -0.866023 0.500004 145.633 458.189)" fill="#FBFBFB" stroke="#B6B6B7" stroke-width="0.752692" stroke-linejoin="round"/>
<rect width="55.3998" height="18.0051" transform="matrix(0.866023 0.500004 0 1 97.6562 485.891)" fill="#FBFBFB" stroke="#B6B6B7" stroke-width="0.752691" stroke-linejoin="round"/>
<rect width="55.3998" height="18.0051" transform="matrix(0.866023 -0.500004 0 1 145.633 513.592)" fill="white" stroke="#B6B6B7" stroke-width="0.752691" stroke-linejoin="round"/>
<rect width="55.3998" height="55.3998" transform="matrix(0.866023 0.500004 -0.866023 0.500004 193.686 467.6)" fill="#FBFBFB" stroke="#B6B6B7" stroke-width="0.752692" stroke-linejoin="round"/>
<rect width="55.3998" height="18.0051" transform="matrix(0.866023 0.500004 0 1 145.711 495.301)" fill="#FBFBFB" stroke="#B6B6B7" stroke-width="0.752691" stroke-linejoin="round"/>
<rect width="55.3998" height="18.0051" transform="matrix(0.866023 -0.500004 0 1 193.686 523.004)" fill="white" stroke="#B6B6B7" stroke-width="0.752691" stroke-linejoin="round"/>
<rect width="55.3998" height="55.3998" transform="matrix(0.866023 0.500004 -0.866023 0.500004 48.6758 513.598)" fill="#FBFBFB" stroke="#B6B6B7" stroke-width="0.752692" stroke-linejoin="round"/>
<rect width="55.3998" height="18.0051" transform="matrix(0.866023 -0.500004 0 1 48.6758 568.994)" fill="white" stroke="#B6B6B7" stroke-width="0.752691" stroke-linejoin="round"/>
<rect width="55.3998" height="55.3998" transform="matrix(0.866023 0.500004 -0.866023 0.500004 241.562 422.072)" fill="#FBFBFB" stroke="#B6B6B7" stroke-width="0.752692" stroke-linejoin="round"/>
<rect width="55.3998" height="18.0051" transform="matrix(0.866023 0.500004 0 1 193.588 449.773)" fill="#FBFBFB" stroke="#B6B6B7" stroke-width="0.752691" stroke-linejoin="round"/>
<rect width="55.3998" height="18.0051" transform="matrix(0.866023 -0.500004 0 1 241.564 477.475)" fill="white" stroke="#B6B6B7" stroke-width="0.752691" stroke-linejoin="round"/>
<rect width="55.3998" height="55.3998" transform="matrix(0.866023 0.500004 -0.866023 0.500004 241.584 404.803)" fill="#FBFBFB" stroke="#B6B6B7" stroke-width="0.752692" stroke-linejoin="round"/>
<rect width="55.3998" height="18.0051" transform="matrix(0.866023 0.500004 0 1 193.609 432.504)" fill="#FBFBFB" stroke="#B6B6B7" stroke-width="0.752691" stroke-linejoin="round"/>
<rect width="55.3998" height="18.0051" transform="matrix(0.866023 -0.500004 0 1 241.586 460.205)" fill="white" stroke="#B6B6B7" stroke-width="0.752691" stroke-linejoin="round"/>
<rect width="55.3998" height="55.3998" transform="matrix(0.866023 0.500004 -0.866023 0.500004 337.594 168.291)" fill="#FBFBFB" stroke="#B6B6B7" stroke-width="0.752692" stroke-linejoin="round"/>
<rect width="55.3998" height="18.0051" transform="matrix(0.866023 0.500004 0 1 289.619 195.992)" fill="#FBFBFB" stroke="#B6B6B7" stroke-width="0.752691" stroke-linejoin="round"/>
<rect width="55.3998" height="18.0051" transform="matrix(0.866023 -0.500004 0 1 337.594 223.695)" fill="white" stroke="#B6B6B7" stroke-width="0.752691" stroke-linejoin="round"/>
<rect width="55.3998" height="55.3998" transform="matrix(0.866023 0.500004 -0.866023 0.500004 241.484 223.182)" fill="#FBFBFB" stroke="#B6B6B7" stroke-width="0.752692" stroke-linejoin="round"/>
<rect width="55.3998" height="18.0051" transform="matrix(0.866023 0.500004 0 1 193.51 250.883)" fill="#FBFBFB" stroke="#B6B6B7" stroke-width="0.752691" stroke-linejoin="round"/>
<rect width="55.3998" height="18.0051" transform="matrix(0.866023 -0.500004 0 1 241.484 278.586)" fill="white" stroke="#B6B6B7" stroke-width="0.752691" stroke-linejoin="round"/>
<rect width="55.3998" height="55.3998" transform="matrix(0.866023 0.500004 -0.866023 0.500004 241.484 174.92)" fill="#FBFBFB" stroke="#B6B6B7" stroke-width="0.752692" stroke-linejoin="round"/>
<rect width="55.3998" height="18.0051" transform="matrix(0.866023 0.500004 0 1 193.51 202.621)" fill="#FBFBFB" stroke="#B6B6B7" stroke-width="0.752691" stroke-linejoin="round"/>
<rect width="55.3998" height="18.0051" transform="matrix(0.866023 -0.500004 0 1 241.486 230.322)" fill="white" stroke="#B6B6B7" stroke-width="0.752691" stroke-linejoin="round"/>
<rect width="55.3998" height="55.3998" transform="matrix(0.866023 0.500004 -0.866023 0.500004 337.594 150.471)" fill="#FBFBFB" stroke="#B6B6B7" stroke-width="0.752692" stroke-linejoin="round"/>
<rect width="55.3998" height="18.0051" transform="matrix(0.866023 0.500004 0 1 289.619 178.172)" fill="#FBFBFB" stroke="#B6B6B7" stroke-width="0.752691" stroke-linejoin="round"/>
<rect width="55.3998" height="18.0051" transform="matrix(0.866023 -0.500004 0 1 337.596 205.875)" fill="white" stroke="#B6B6B7" stroke-width="0.752691" stroke-linejoin="round"/>
<rect width="55.3998" height="55.3998" transform="matrix(0.866023 0.500004 -0.866023 0.500004 577.41 405.803)" fill="#FBFBFB" stroke="#B6B6B7" stroke-width="0.752692" stroke-linejoin="round"/>
<rect width="55.3998" height="18.0051" transform="matrix(0.866023 0.500004 0 1 529.436 433.504)" fill="white" stroke="#B6B6B7" stroke-width="0.752691" stroke-linejoin="round"/>
<rect width="55.3998" height="18.0051" transform="matrix(0.866023 -0.500004 0 1 577.412 461.207)" fill="#FBFBFB" stroke="#B6B6B7" stroke-width="0.752691" stroke-linejoin="round"/>
<rect width="55.3998" height="55.3998" transform="matrix(0.866023 0.500004 -0.866023 0.500004 577.41 222.178)" fill="#FBFBFB" stroke="#B6B6B7" stroke-width="0.752692" stroke-linejoin="round"/>
<rect width="55.3998" height="18.0051" transform="matrix(0.866023 0.500004 0 1 529.436 249.877)" fill="white" stroke="#B6B6B7" stroke-width="0.752691" stroke-linejoin="round"/>
<rect width="55.3998" height="18.0051" transform="matrix(0.866023 -0.500004 0 1 577.41 277.582)" fill="white" stroke="#B6B6B7" stroke-width="0.752691" stroke-linejoin="round"/>
<rect width="55.3998" height="55.3998" transform="matrix(0.866023 0.500004 -0.866023 0.500004 577.41 170.246)" fill="#FBFBFB" stroke="#B6B6B7" stroke-width="0.752692" stroke-linejoin="round"/>
<rect width="55.3998" height="18.0051" transform="matrix(0.866023 0.500004 0 1 529.434 197.646)" fill="#FBFBFB" stroke="#B6B6B7" stroke-width="0.752691" stroke-linejoin="round"/>
<rect width="55.3998" height="18.0051" transform="matrix(0.866023 -0.500004 0 1 577.412 225.35)" fill="#FBFBFB" stroke="#B6B6B7" stroke-width="0.752691" stroke-linejoin="round"/>
<rect width="55.3998" height="55.3998" transform="matrix(0.866023 0.500004 -0.866023 0.500004 145.654 367.342)" fill="#FBFBFB" stroke="#B6B6B7" stroke-width="0.752692" stroke-linejoin="round"/>
<rect width="55.3998" height="18.0051" transform="matrix(0.866023 0.500004 0 1 97.6797 395.043)" fill="#FBFBFB" stroke="#B6B6B7" stroke-width="0.752691" stroke-linejoin="round"/>
<rect width="55.3998" height="18.0051" transform="matrix(0.866023 -0.500004 0 1 145.656 422.744)" fill="white" stroke="#B6B6B7" stroke-width="0.752691" stroke-linejoin="round"/>
<rect width="55.3998" height="55.3998" transform="matrix(0.866023 0.500004 -0.866023 0.500004 145.654 329.932)" fill="#FBFBFB" stroke="#B6B6B7" stroke-width="0.752692" stroke-linejoin="round"/>
<rect width="55.3998" height="18.0051" transform="matrix(0.866023 0.500004 0 1 97.6797 357.631)" fill="white" stroke="#B6B6B7" stroke-width="0.752691" stroke-linejoin="round"/>
<rect width="55.3998" height="18.0051" transform="matrix(0.866023 -0.500004 0 1 145.654 385.336)" fill="white" stroke="#B6B6B7" stroke-width="0.752691" stroke-linejoin="round"/>
<rect width="55.3998" height="55.3998" transform="matrix(0.866023 0.500004 -0.866023 0.500004 145.654 243.861)" fill="#FBFBFB" stroke="#B6B6B7" stroke-width="0.752692" stroke-linejoin="round"/>
<rect width="55.3998" height="18.0051" transform="matrix(0.866023 0.500004 0 1 97.6797 271.564)" fill="#FBFBFB" stroke="#B6B6B7" stroke-width="0.752691" stroke-linejoin="round"/>
<rect width="55.3998" height="18.0051" transform="matrix(0.866023 -0.500004 0 1 145.656 299.271)" fill="white" stroke="#B6B6B7" stroke-width="0.752691" stroke-linejoin="round"/>
<rect width="55.3998" height="55.3998" transform="matrix(0.866023 0.500004 -0.866023 0.500004 145.656 110)" fill="#FBFBFB" stroke="#B6B6B7" stroke-width="0.752692" stroke-linejoin="round"/>
<rect width="55.3998" height="18.0051" transform="matrix(0.866023 0.500004 0 1 97.6797 137.4)" fill="#FBFBFB" stroke="#B6B6B7" stroke-width="0.752691" stroke-linejoin="round"/>
<rect width="55.3998" height="18.0051" transform="matrix(0.866023 -0.500004 0 1 145.656 165.104)" fill="#FBFBFB" stroke="#B6B6B7" stroke-width="0.752691" stroke-linejoin="round"/>
<rect width="55.3998" height="55.3998" transform="matrix(0.866023 0.500004 -0.866023 0.500004 145.699 91.6973)" fill="#FBFBFB" stroke="#B6B6B7" stroke-width="0.752692" stroke-linejoin="round"/>
<rect width="55.3998" height="18.0051" transform="matrix(0.866023 0.500004 0 1 97.7246 119.398)" fill="#FBFBFB" stroke="#B6B6B7" stroke-width="0.752691" stroke-linejoin="round"/>
<rect width="55.3998" height="18.0051" transform="matrix(0.866023 -0.500004 0 1 145.701 147.102)" fill="white" stroke="#B6B6B7" stroke-width="0.752691" stroke-linejoin="round"/>
<rect width="55.3998" height="55.3998" transform="matrix(0.866023 0.500004 -0.866023 0.500004 481.49 348.842)" fill="#FBFBFB" stroke="#B6B6B7" stroke-width="0.752692" stroke-linejoin="round"/>
<rect width="55.3998" height="18.0051" transform="matrix(0.866023 0.500004 0 1 433.516 376.543)" fill="#FBFBFB" stroke="#B6B6B7" stroke-width="0.752691" stroke-linejoin="round"/>
<rect width="55.3998" height="18.0051" transform="matrix(0.866023 -0.500004 0 1 481.492 404.246)" fill="white" stroke="#B6B6B7" stroke-width="0.752691" stroke-linejoin="round"/>
<rect width="55.3998" height="55.3998" transform="matrix(0.866023 0.500004 -0.866023 0.500004 481.49 307.434)" fill="#FBFBFB" stroke="#B6B6B7" stroke-width="0.752692" stroke-linejoin="round"/>
<rect width="55.3998" height="18.0051" transform="matrix(0.866023 0.500004 0 1 433.516 335.135)" fill="#FBFBFB" stroke="#B6B6B7" stroke-width="0.752691" stroke-linejoin="round"/>
<rect width="55.3998" height="18.0051" transform="matrix(0.866023 -0.500004 0 1 481.49 362.838)" fill="white" stroke="#B6B6B7" stroke-width="0.752691" stroke-linejoin="round"/>
<rect width="55.3998" height="55.3998" transform="matrix(0.866023 0.500004 -0.866023 0.500004 481.49 266.027)" fill="#FBFBFB" stroke="#B6B6B7" stroke-width="0.752692" stroke-linejoin="round"/>
<rect width="55.3998" height="18.0051" transform="matrix(0.866023 0.500004 0 1 433.516 293.729)" fill="#FBFBFB" stroke="#B6B6B7" stroke-width="0.752691" stroke-linejoin="round"/>
<rect width="55.3998" height="18.0051" transform="matrix(0.866023 -0.500004 0 1 481.492 321.43)" fill="white" stroke="#B6B6B7" stroke-width="0.752691" stroke-linejoin="round"/>
<rect width="55.3998" height="55.3998" transform="matrix(0.866023 0.500004 -0.866023 0.500004 481.49 224.619)" fill="#FBFBFB" stroke="#B6B6B7" stroke-width="0.752692" stroke-linejoin="round"/>
<rect width="55.3998" height="18.0051" transform="matrix(0.866023 0.500004 0 1 433.516 252.32)" fill="#FBFBFB" stroke="#B6B6B7" stroke-width="0.752691" stroke-linejoin="round"/>
<rect width="55.3998" height="18.0051" transform="matrix(0.866023 -0.500004 0 1 481.492 280.023)" fill="white" stroke="#B6B6B7" stroke-width="0.752691" stroke-linejoin="round"/>
<rect width="55.3998" height="55.3998" transform="matrix(0.866023 0.500004 -0.866023 0.500004 336.918 259.195)" fill="#FBFBFB" stroke="#B6B6B7" stroke-width="0.752692" stroke-linejoin="round"/>
<rect width="55.3998" height="18.0051" transform="matrix(0.866023 0.500004 0 1 288.943 286.896)" fill="#FBFBFB" stroke="#B6B6B7" stroke-width="0.752691" stroke-linejoin="round"/>
<rect width="55.3998" height="18.0051" transform="matrix(0.866023 -0.500004 0 1 336.92 314.6)" fill="white" stroke="#B6B6B7" stroke-width="0.752691" stroke-linejoin="round"/>
<rect width="55.3998" height="55.3998" transform="matrix(0.866023 0.500004 -0.866023 0.500004 337.488 223.264)" fill="#FBFBFB" stroke="#B6B6B7" stroke-width="0.752692" stroke-linejoin="round"/>
<rect width="55.3998" height="18.0051" transform="matrix(0.866023 0.500004 0 1 289.512 250.965)" fill="#FBFBFB" stroke="#B6B6B7" stroke-width="0.752691" stroke-linejoin="round"/>
<rect width="55.3998" height="18.0051" transform="matrix(0.866023 -0.500004 0 1 337.488 278.668)" fill="#FBFBFB" stroke="#B6B6B7" stroke-width="0.752691" stroke-linejoin="round"/>
<rect width="55.3998" height="55.3998" transform="matrix(0.866023 0.500004 -0.866023 0.500004 289.57 286.221)" fill="#FBFBFB" stroke="#B6B6B7" stroke-width="0.752692" stroke-linejoin="round"/>
<rect width="55.3998" height="18.0051" transform="matrix(0.866023 0.500004 0 1 241.596 313.922)" fill="#FBFBFB" stroke="#B6B6B7" stroke-width="0.752691" stroke-linejoin="round"/>
<rect width="55.3998" height="18.0051" transform="matrix(0.866023 -0.500004 0 1 289.572 341.623)" fill="white" stroke="#B6B6B7" stroke-width="0.752691" stroke-linejoin="round"/>
<rect width="55.3998" height="55.3998" transform="matrix(0.866023 0.500004 -0.866023 0.500004 385.5 435.588)" fill="#FBFBFB" stroke="#B6B6B7" stroke-width="0.752692" stroke-linejoin="round"/>
<rect width="55.3998" height="18.0051" transform="matrix(0.866023 0.500004 0 1 337.525 463.289)" fill="#FBFBFB" stroke="#B6B6B7" stroke-width="0.752691" stroke-linejoin="round"/>
<rect width="55.3998" height="18.0051" transform="matrix(0.866023 -0.500004 0 1 385.502 490.99)" fill="white" stroke="#B6B6B7" stroke-width="0.752691" stroke-linejoin="round"/>
<rect width="55.3998" height="55.3998" transform="matrix(0.866023 0.500004 -0.866023 0.500004 337.5 430.008)" fill="#FBFBFB" stroke="#B6B6B7" stroke-width="0.752692" stroke-linejoin="round"/>
<rect width="55.3998" height="18.0051" transform="matrix(0.866023 0.500004 0 1 289.525 457.709)" fill="#FBFBFB" stroke="#B6B6B7" stroke-width="0.752691" stroke-linejoin="round"/>
<rect width="55.3998" height="18.0051" transform="matrix(0.866023 -0.500004 0 1 337.502 485.41)" fill="white" stroke="#B6B6B7" stroke-width="0.752691" stroke-linejoin="round"/>
<rect width="55.3998" height="55.3998" transform="matrix(0.866023 0.500004 -0.866023 0.500004 337.5 387.008)" fill="#FBFBFB" stroke="#B6B6B7" stroke-width="0.752692" stroke-linejoin="round"/>
<rect width="55.3998" height="18.0051" transform="matrix(0.866023 0.500004 0 1 289.525 414.709)" fill="#FBFBFB" stroke="#B6B6B7" stroke-width="0.752691" stroke-linejoin="round"/>
<rect width="55.3998" height="18.0051" transform="matrix(0.866023 -0.500004 0 1 337.502 442.41)" fill="white" stroke="#B6B6B7" stroke-width="0.752691" stroke-linejoin="round"/>
<path d="M481.808 252.441L481.808 109.705L419.809 146.341L481.808 252.441Z" fill="white" stroke="#B6B6B7" stroke-width="0.75" stroke-linejoin="round"/>
<path d="M543.627 146.233L481.853 182.371L420.08 146.233L481.853 109.654L543.627 146.233Z" fill="#FBFBFB" stroke="url(#paint2_linear_2420_940880)" stroke-width="0.75" stroke-linejoin="round"/>
<path d="M481.809 252.441L481.809 109.7L543.809 146.341L481.809 252.441Z" fill="#F2F2F2" stroke="#B6B6B7" stroke-width="0.75" stroke-linejoin="round"/>
<path d="M543.632 146.231L481.856 182.371L420.08 146.231L481.856 109.651L543.632 146.231Z" fill="#FBFBFB" stroke="#B6B6B7" stroke-width="0.752692" stroke-linejoin="round"/>
<path d="M543.632 107.454L481.856 71.3145L420.08 107.454L481.856 144.034L543.632 107.454Z" fill="#FBFBFB" stroke="url(#paint3_linear_2420_940880)" stroke-width="0.75" stroke-linejoin="round"/>
<path d="M481.808 1.24415L481.808 143.98L419.809 107.345L481.808 1.24415Z" fill="white" stroke="#B6B6B7" stroke-width="0.75" stroke-linejoin="round"/>
<path d="M543.627 107.453L481.853 71.3145L420.08 107.452L481.853 144.031L543.627 107.453Z" fill="#FBFBFB" stroke="#B6B6B7" stroke-width="0.752692" stroke-linejoin="round"/>
<path d="M481.809 1.24414L481.809 143.986L543.809 107.345L481.809 1.24414Z" fill="white" stroke="#B6B6B7" stroke-width="0.75" stroke-linejoin="round"/>
</g>
<defs>
<linearGradient id="paint0_linear_2420_940880" x1="497.281" y1="141.692" x2="498.045" y2="106.537" gradientUnits="userSpaceOnUse">
<stop stop-color="#FB7E51"/>
<stop offset="1" stop-color="#FF8F66"/>
</linearGradient>
<linearGradient id="paint1_linear_2420_940880" x1="497.285" y1="111.789" x2="498.049" y2="146.945" gradientUnits="userSpaceOnUse">
<stop stop-color="#FB7E51"/>
<stop offset="1" stop-color="#FF8F66"/>
</linearGradient>
<linearGradient id="paint2_linear_2420_940880" x1="497.05" y1="141.795" x2="497.821" y2="106.641" gradientUnits="userSpaceOnUse">
<stop stop-color="#FB7E51"/>
<stop offset="1" stop-color="#FF8F66"/>
</linearGradient>
<linearGradient id="paint3_linear_2420_940880" x1="497.053" y1="111.892" x2="497.824" y2="147.048" gradientUnits="userSpaceOnUse">
<stop stop-color="#FB7E51"/>
<stop offset="1" stop-color="#FF8F66"/>
</linearGradient>
<clipPath id="clip0_2420_940880">
<rect width="576" height="528" fill="white" transform="translate(74.5 32.7598)"/>
</clipPath>
</defs>
</svg>
