<svg width="349" height="325" viewBox="0 0 349 325" fill="none" xmlns="http://www.w3.org/2000/svg">
<rect width="27.6999" height="27.6999" transform="matrix(0.866023 0.500004 -0.866023 0.500004 288.354 287.916)" fill="white" stroke="#B6B6B7" stroke-width="0.376346" stroke-linejoin="round"/>
<rect width="27.6999" height="9.00254" transform="matrix(0.866023 0.500004 0 1 264.367 301.766)" fill="#F2F2F2" stroke="#B6B6B7" stroke-width="0.376346" stroke-linejoin="round"/>
<rect width="27.6999" height="9.00254" transform="matrix(0.866023 -0.500004 0 1 288.354 315.617)" fill="#F2F2F2" stroke="#B6B6B7" stroke-width="0.376346" stroke-linejoin="round"/>
<rect width="27.6999" height="27.6999" transform="matrix(0.866023 0.500004 -0.866023 0.500004 288.354 254.879)" fill="white" stroke="#B6B6B7" stroke-width="0.376346" stroke-linejoin="round"/>
<rect width="27.6999" height="9.00254" transform="matrix(0.866023 0.500004 0 1 264.367 268.73)" fill="#FBFBFB" stroke="#B6B6B7" stroke-width="0.376346" stroke-linejoin="round"/>
<rect width="27.6999" height="9.00254" transform="matrix(0.866023 -0.500004 0 1 288.354 282.582)" fill="white" stroke="#B6B6B7" stroke-width="0.376346" stroke-linejoin="round"/>
<rect width="27.6999" height="27.6999" transform="matrix(0.866023 0.500004 -0.866023 0.500004 168.391 275.17)" fill="white" stroke="#B6B6B7" stroke-width="0.376346" stroke-linejoin="round"/>
<rect width="27.6999" height="9.00254" transform="matrix(0.866023 0.500004 0 1 144.404 289.02)" fill="#F2F2F2" stroke="#B6B6B7" stroke-width="0.376346" stroke-linejoin="round"/>
<rect width="27.6999" height="9.00254" transform="matrix(0.866023 -0.500004 0 1 168.393 302.871)" fill="#F2F2F2" stroke="#B6B6B7" stroke-width="0.376346" stroke-linejoin="round"/>
<rect width="27.6999" height="27.6999" transform="matrix(0.866023 0.500004 -0.866023 0.500004 324.342 53.8398)" fill="#FBFBFB" stroke="#B6B6B7" stroke-width="0.376346" stroke-linejoin="round"/>
<rect width="27.6999" height="9.00254" transform="matrix(0.866023 0.500004 0 1 300.354 67.6914)" fill="#FBFBFB" stroke="#B6B6B7" stroke-width="0.376346" stroke-linejoin="round"/>
<rect width="27.6999" height="9.00254" transform="matrix(0.866023 -0.500004 0 1 324.342 81.543)" fill="#F2F2F2" stroke="#B6B6B7" stroke-width="0.376346" stroke-linejoin="round"/>
<rect width="27.6999" height="27.6999" transform="matrix(0.866023 0.500004 -0.866023 0.500004 324.342 35.8398)" fill="#FBFBFB" stroke="#B6B6B7" stroke-width="0.376346" stroke-linejoin="round"/>
<rect width="27.6999" height="9.00254" transform="matrix(0.866023 0.500004 0 1 300.354 49.6914)" fill="#FBFBFB" stroke="#B6B6B7" stroke-width="0.376346" stroke-linejoin="round"/>
<rect width="27.6999" height="9.00254" transform="matrix(0.866023 -0.500004 0 1 324.342 63.543)" fill="#F2F2F2" stroke="#B6B6B7" stroke-width="0.376346" stroke-linejoin="round"/>
<rect width="27.6999" height="27.6999" transform="matrix(0.866023 0.500004 -0.866023 0.500004 24.4844 257.176)" fill="white" stroke="#B6B6B7" stroke-width="0.376346" stroke-linejoin="round"/>
<rect width="27.6999" height="9.00254" transform="matrix(0.866023 0.500004 0 1 0.498047 271.027)" fill="#F2F2F2" stroke="#B6B6B7" stroke-width="0.376346" stroke-linejoin="round"/>
<rect width="27.6999" height="9.00254" transform="matrix(0.866023 -0.500004 0 1 24.4844 284.875)" fill="#F2F2F2" stroke="#B6B6B7" stroke-width="0.376346" stroke-linejoin="round"/>
<path d="M240.368 126.598L240.368 55.2296L209.184 73.5472L240.368 126.598Z" fill="white" stroke="#B6B6B7" stroke-width="0.375" stroke-linejoin="round"/>
<path d="M271.461 73.4935L240.39 91.5625L209.32 73.4935L240.39 55.2041L271.461 73.4935Z" fill="#FBFBFB" stroke="url(#paint0_linear_2417_311535)" stroke-width="0.375" stroke-linejoin="round"/>
<path d="M240.367 126.598L240.367 55.2269L271.551 73.5472L240.367 126.598Z" fill="#F2F2F2" stroke="#B6B6B7" stroke-width="0.375" stroke-linejoin="round"/>
<path d="M271.463 73.4927L240.392 91.5625L209.32 73.4927L240.392 55.2025L271.463 73.4927Z" fill="#FBFBFB" stroke="#B6B6B7" stroke-width="0.376346" stroke-linejoin="round"/>
<path d="M271.463 54.105L240.392 36.0352L209.32 54.105L240.392 72.3952L271.463 54.105Z" fill="#FBFBFB" stroke="url(#paint1_linear_2417_311535)" stroke-width="0.375" stroke-linejoin="round"/>
<path d="M240.368 1L240.368 72.3681L209.184 54.0504L240.368 1Z" fill="white" stroke="#B6B6B7" stroke-width="0.375" stroke-linejoin="round"/>
<path d="M271.461 54.1042L240.39 36.0352L209.32 54.1042L240.39 72.3936L271.461 54.1042Z" fill="#FBFBFB" stroke="#B6B6B7" stroke-width="0.376346" stroke-linejoin="round"/>
<path d="M240.369 0.999997L240.369 72.3708L271.553 54.0504L240.369 0.999997Z" fill="#F2F2F2" stroke="#B6B6B7" stroke-width="0.376346" stroke-linejoin="round"/>
<rect width="27.6999" height="27.6999" transform="matrix(0.866023 0.500004 -0.866023 0.500004 168.391 247.641)" fill="#FBFBFB" stroke="#B6B6B7" stroke-width="0.376346" stroke-linejoin="round"/>
<path d="M144.404 261.492L168.393 275.342V284.345L144.404 270.495V261.492Z" fill="#F2F2F2" stroke="#B6B6B7" stroke-width="0.376346" stroke-linejoin="round"/>
<path d="M168.391 275.342L192.379 261.492V270.494L168.391 284.344V275.342Z" fill="#F2F2F2" stroke="#B6B6B7" stroke-width="0.376346" stroke-linejoin="round"/>
<g clip-path="url(#clip0_2417_311535)">
<path d="M144.406 170.785V143.699" stroke="#D2D3D5" stroke-width="0.376346" stroke-linejoin="round"/>
<rect width="27.6999" height="27.6999" transform="matrix(0.866023 0.500004 -0.866023 0.500004 120.43 166.178)" fill="#FBFBFB" stroke="#B6B6B7" stroke-width="0.376346" stroke-linejoin="round"/>
<rect width="27.6999" height="9.00254" transform="matrix(0.866023 0.500004 0 1 96.4434 180.027)" fill="white" stroke="#B6B6B7" stroke-width="0.376346" stroke-linejoin="round"/>
<rect width="27.6999" height="9.00254" transform="matrix(0.866023 -0.500004 0 1 120.43 193.875)" fill="white" stroke="#B6B6B7" stroke-width="0.376346" stroke-linejoin="round"/>
<rect width="27.6999" height="27.6999" transform="matrix(0.866023 0.500004 -0.866023 0.500004 288.354 254.879)" fill="white" stroke="#B6B6B7" stroke-width="0.376346" stroke-linejoin="round"/>
<rect width="27.6999" height="9.00254" transform="matrix(0.866023 0.500004 0 1 264.367 268.73)" fill="#FBFBFB" stroke="#B6B6B7" stroke-width="0.376346" stroke-linejoin="round"/>
<rect width="27.6999" height="9.00254" transform="matrix(0.866023 -0.500004 0 1 288.354 282.582)" fill="white" stroke="#B6B6B7" stroke-width="0.376346" stroke-linejoin="round"/>
<rect width="27.6999" height="27.6999" transform="matrix(0.866023 0.500004 -0.866023 0.500004 168.391 275.17)" fill="white" stroke="#B6B6B7" stroke-width="0.376346" stroke-linejoin="round"/>
<rect width="27.6999" height="27.6999" transform="matrix(0.866023 0.500004 -0.866023 0.500004 324.342 53.8398)" fill="#FBFBFB" stroke="#B6B6B7" stroke-width="0.376346" stroke-linejoin="round"/>
<rect width="27.6999" height="9.00254" transform="matrix(0.866023 0.500004 0 1 300.354 67.6914)" fill="#FBFBFB" stroke="#B6B6B7" stroke-width="0.376346" stroke-linejoin="round"/>
<rect width="27.6999" height="9.00254" transform="matrix(0.866023 -0.500004 0 1 324.342 81.543)" fill="white" stroke="#B6B6B7" stroke-width="0.376346" stroke-linejoin="round"/>
<rect width="27.6999" height="27.6999" transform="matrix(0.866023 0.500004 -0.866023 0.500004 324.342 35.8398)" fill="#FBFBFB" stroke="#B6B6B7" stroke-width="0.376346" stroke-linejoin="round"/>
<rect width="27.6999" height="9.00254" transform="matrix(0.866023 0.500004 0 1 300.354 49.6914)" fill="#FBFBFB" stroke="#B6B6B7" stroke-width="0.376346" stroke-linejoin="round"/>
<rect width="27.6999" height="9.00254" transform="matrix(0.866023 -0.500004 0 1 324.342 63.543)" fill="white" stroke="#B6B6B7" stroke-width="0.376346" stroke-linejoin="round"/>
<rect width="27.6999" height="27.6999" transform="matrix(0.866023 0.500004 -0.866023 0.500004 288.354 162.91)" fill="#FBFBFB" stroke="#B6B6B7" stroke-width="0.376346" stroke-linejoin="round"/>
<rect width="27.6999" height="9.00254" transform="matrix(0.866023 0.500004 0 1 264.367 176.76)" fill="#FBFBFB" stroke="#B6B6B7" stroke-width="0.376346" stroke-linejoin="round"/>
<rect width="27.6999" height="9.00254" transform="matrix(0.866023 -0.500004 0 1 288.354 190.611)" fill="white" stroke="#B6B6B7" stroke-width="0.376346" stroke-linejoin="round"/>
<rect width="27.6999" height="27.6999" transform="matrix(0.866023 0.500004 -0.866023 0.500004 240.377 190.602)" fill="#FBFBFB" stroke="#B6B6B7" stroke-width="0.376346" stroke-linejoin="round"/>
<rect width="27.6999" height="9.00254" transform="matrix(0.866023 0.500004 0 1 216.391 204.453)" fill="#FBFBFB" stroke="#B6B6B7" stroke-width="0.376346" stroke-linejoin="round"/>
<rect width="27.6999" height="9.00254" transform="matrix(0.866023 -0.500004 0 1 240.379 218.301)" fill="white" stroke="#B6B6B7" stroke-width="0.376346" stroke-linejoin="round"/>
<rect width="27.6999" height="27.6999" transform="matrix(0.866023 0.500004 -0.866023 0.500004 216.391 204.463)" fill="#FBFBFB" stroke="#B6B6B7" stroke-width="0.376346" stroke-linejoin="round"/>
<rect width="27.6999" height="9.00254" transform="matrix(0.866023 0.500004 0 1 192.404 218.312)" fill="#FBFBFB" stroke="#B6B6B7" stroke-width="0.376346" stroke-linejoin="round"/>
<rect width="27.6999" height="9.00254" transform="matrix(0.866023 -0.500004 0 1 216.393 232.166)" fill="white" stroke="#B6B6B7" stroke-width="0.376346" stroke-linejoin="round"/>
<rect width="27.6999" height="27.6999" transform="matrix(0.866023 0.500004 -0.866023 0.500004 168.391 247.641)" fill="#FBFBFB" stroke="#B6B6B7" stroke-width="0.376346" stroke-linejoin="round"/>
<rect width="27.6999" height="9.00254" transform="matrix(0.866023 0.500004 0 1 144.404 261.492)" fill="#FBFBFB" stroke="#B6B6B7" stroke-width="0.376346" stroke-linejoin="round"/>
<rect width="27.6999" height="9.00254" transform="matrix(0.866023 -0.500004 0 1 168.391 275.342)" fill="white" stroke="#B6B6B7" stroke-width="0.376346" stroke-linejoin="round"/>
<rect width="27.6999" height="27.6999" transform="matrix(0.866023 0.500004 -0.866023 0.500004 168.391 233.199)" fill="#FBFBFB" stroke="#B6B6B7" stroke-width="0.376346" stroke-linejoin="round"/>
<rect width="27.6999" height="9.00254" transform="matrix(0.866023 0.500004 0 1 144.404 247.051)" fill="#FBFBFB" stroke="#B6B6B7" stroke-width="0.376346" stroke-linejoin="round"/>
<rect width="27.6999" height="9.00254" transform="matrix(0.866023 -0.500004 0 1 168.391 260.9)" fill="white" stroke="#B6B6B7" stroke-width="0.376346" stroke-linejoin="round"/>
<rect width="27.6999" height="27.6999" transform="matrix(0.866023 0.500004 -0.866023 0.500004 240.447 218.176)" fill="#FBFBFB" stroke="#B6B6B7" stroke-width="0.376346" stroke-linejoin="round"/>
<rect width="27.6999" height="9.00254" transform="matrix(0.866023 0.500004 0 1 216.461 232.027)" fill="white" stroke="#B6B6B7" stroke-width="0.376346" stroke-linejoin="round"/>
<rect width="27.6999" height="9.00254" transform="matrix(0.866023 -0.500004 0 1 240.447 245.879)" fill="#FBFBFB" stroke="#B6B6B7" stroke-width="0.376346" stroke-linejoin="round"/>
<rect width="27.6999" height="27.6999" transform="matrix(0.866023 0.500004 -0.866023 0.500004 264.438 232.023)" fill="#FBFBFB" stroke="#B6B6B7" stroke-width="0.376346" stroke-linejoin="round"/>
<rect width="27.6999" height="9.00254" transform="matrix(0.866023 0.500004 0 1 240.451 245.875)" fill="white" stroke="#B6B6B7" stroke-width="0.376346" stroke-linejoin="round"/>
<rect width="27.6999" height="9.00254" transform="matrix(0.866023 -0.500004 0 1 264.439 259.727)" fill="#FBFBFB" stroke="#B6B6B7" stroke-width="0.376346" stroke-linejoin="round"/>
<rect width="27.6999" height="27.6999" transform="matrix(0.866023 0.500004 -0.866023 0.500004 120.391 143.488)" fill="#FBFBFB" stroke="#B6B6B7" stroke-width="0.376346" stroke-linejoin="round"/>
<rect width="27.6999" height="9.00254" transform="matrix(0.866023 0.500004 0 1 96.4043 157.34)" fill="#FBFBFB" stroke="#B6B6B7" stroke-width="0.376346" stroke-linejoin="round"/>
<rect width="27.6999" height="9.00254" transform="matrix(0.866023 -0.500004 0 1 120.393 171.191)" fill="white" stroke="#B6B6B7" stroke-width="0.376346" stroke-linejoin="round"/>
<rect width="27.6999" height="27.6999" transform="matrix(0.866023 0.500004 -0.866023 0.500004 288.354 145.703)" fill="#FBFBFB" stroke="#B6B6B7" stroke-width="0.376346" stroke-linejoin="round"/>
<rect width="27.6999" height="9.00254" transform="matrix(0.866023 0.500004 0 1 264.367 159.555)" fill="#FBFBFB" stroke="#B6B6B7" stroke-width="0.376346" stroke-linejoin="round"/>
<rect width="27.6999" height="9.00254" transform="matrix(0.866023 -0.500004 0 1 288.354 173.406)" fill="white" stroke="#B6B6B7" stroke-width="0.376346" stroke-linejoin="round"/>
<rect width="27.6999" height="27.6999" transform="matrix(0.866023 0.500004 -0.866023 0.500004 120.441 220.473)" fill="#FBFBFB" stroke="#B6B6B7" stroke-width="0.376346" stroke-linejoin="round"/>
<rect width="27.6999" height="9.00254" transform="matrix(0.866023 0.500004 0 1 96.4551 234.324)" fill="white" stroke="#B6B6B7" stroke-width="0.376346" stroke-linejoin="round"/>
<rect width="27.6999" height="9.00254" transform="matrix(0.866023 -0.500004 0 1 120.443 248.174)" fill="#FBFBFB" stroke="#B6B6B7" stroke-width="0.376346" stroke-linejoin="round"/>
<rect width="27.6999" height="27.6999" transform="matrix(0.866023 0.500004 -0.866023 0.500004 72.4648 229.473)" fill="#FBFBFB" stroke="#B6B6B7" stroke-width="0.376346" stroke-linejoin="round"/>
<rect width="27.6999" height="9.00254" transform="matrix(0.866023 0.500004 0 1 48.4766 243.324)" fill="#FBFBFB" stroke="#B6B6B7" stroke-width="0.376346" stroke-linejoin="round"/>
<rect width="27.6999" height="9.00254" transform="matrix(0.866023 -0.500004 0 1 72.4648 257.174)" fill="white" stroke="#B6B6B7" stroke-width="0.376346" stroke-linejoin="round"/>
<rect width="27.6999" height="27.6999" transform="matrix(0.866023 0.500004 -0.866023 0.500004 96.4902 234.178)" fill="#FBFBFB" stroke="#B6B6B7" stroke-width="0.376346" stroke-linejoin="round"/>
<rect width="27.6999" height="9.00254" transform="matrix(0.866023 0.500004 0 1 72.5039 248.027)" fill="#FBFBFB" stroke="#B6B6B7" stroke-width="0.376346" stroke-linejoin="round"/>
<rect width="27.6999" height="9.00254" transform="matrix(0.866023 -0.500004 0 1 96.4902 261.879)" fill="white" stroke="#B6B6B7" stroke-width="0.376346" stroke-linejoin="round"/>
<rect width="27.6999" height="27.6999" transform="matrix(0.866023 0.500004 -0.866023 0.500004 24.4844 257.176)" fill="#FBFBFB" stroke="#B6B6B7" stroke-width="0.376346" stroke-linejoin="round"/>
<rect width="27.6999" height="9.00254" transform="matrix(0.866023 -0.500004 0 1 24.4844 284.875)" fill="white" stroke="#B6B6B7" stroke-width="0.376346" stroke-linejoin="round"/>
<rect width="27.6999" height="27.6999" transform="matrix(0.866023 0.500004 -0.866023 0.500004 120.43 211.414)" fill="#FBFBFB" stroke="#B6B6B7" stroke-width="0.376346" stroke-linejoin="round"/>
<rect width="27.6999" height="9.00254" transform="matrix(0.866023 0.500004 0 1 96.4434 225.266)" fill="#FBFBFB" stroke="#B6B6B7" stroke-width="0.376346" stroke-linejoin="round"/>
<rect width="27.6999" height="9.00254" transform="matrix(0.866023 -0.500004 0 1 120.432 239.115)" fill="white" stroke="#B6B6B7" stroke-width="0.376346" stroke-linejoin="round"/>
<rect width="27.6999" height="27.6999" transform="matrix(0.866023 0.500004 -0.866023 0.500004 120.439 202.779)" fill="#FBFBFB" stroke="#B6B6B7" stroke-width="0.376346" stroke-linejoin="round"/>
<rect width="27.6999" height="9.00254" transform="matrix(0.866023 0.500004 0 1 96.4531 216.629)" fill="#FBFBFB" stroke="#B6B6B7" stroke-width="0.376346" stroke-linejoin="round"/>
<rect width="27.6999" height="9.00254" transform="matrix(0.866023 -0.500004 0 1 120.441 230.48)" fill="white" stroke="#B6B6B7" stroke-width="0.376346" stroke-linejoin="round"/>
<rect width="27.6999" height="27.6999" transform="matrix(0.866023 0.500004 -0.866023 0.500004 168.445 84.5234)" fill="#FBFBFB" stroke="#B6B6B7" stroke-width="0.376346" stroke-linejoin="round"/>
<rect width="27.6999" height="9.00254" transform="matrix(0.866023 0.500004 0 1 144.459 98.375)" fill="#FBFBFB" stroke="#B6B6B7" stroke-width="0.376346" stroke-linejoin="round"/>
<rect width="27.6999" height="9.00254" transform="matrix(0.866023 -0.500004 0 1 168.445 112.227)" fill="white" stroke="#B6B6B7" stroke-width="0.376346" stroke-linejoin="round"/>
<rect width="27.6999" height="27.6999" transform="matrix(0.866023 0.500004 -0.866023 0.500004 120.391 111.969)" fill="#FBFBFB" stroke="#B6B6B7" stroke-width="0.376346" stroke-linejoin="round"/>
<rect width="27.6999" height="9.00254" transform="matrix(0.866023 0.500004 0 1 96.4043 125.82)" fill="#FBFBFB" stroke="#B6B6B7" stroke-width="0.376346" stroke-linejoin="round"/>
<rect width="27.6999" height="9.00254" transform="matrix(0.866023 -0.500004 0 1 120.391 139.672)" fill="white" stroke="#B6B6B7" stroke-width="0.376346" stroke-linejoin="round"/>
<rect width="27.6999" height="27.6999" transform="matrix(0.866023 0.500004 -0.866023 0.500004 120.391 87.8379)" fill="#FBFBFB" stroke="#B6B6B7" stroke-width="0.376346" stroke-linejoin="round"/>
<rect width="27.6999" height="9.00254" transform="matrix(0.866023 0.500004 0 1 96.4043 101.688)" fill="#FBFBFB" stroke="#B6B6B7" stroke-width="0.376346" stroke-linejoin="round"/>
<rect width="27.6999" height="9.00254" transform="matrix(0.866023 -0.500004 0 1 120.393 115.539)" fill="white" stroke="#B6B6B7" stroke-width="0.376346" stroke-linejoin="round"/>
<rect width="27.6999" height="27.6999" transform="matrix(0.866023 0.500004 -0.866023 0.500004 168.445 75.6133)" fill="#FBFBFB" stroke="#B6B6B7" stroke-width="0.376346" stroke-linejoin="round"/>
<rect width="27.6999" height="9.00254" transform="matrix(0.866023 0.500004 0 1 144.459 89.4648)" fill="#FBFBFB" stroke="#B6B6B7" stroke-width="0.376346" stroke-linejoin="round"/>
<rect width="27.6999" height="9.00254" transform="matrix(0.866023 -0.500004 0 1 168.447 103.316)" fill="white" stroke="#B6B6B7" stroke-width="0.376346" stroke-linejoin="round"/>
<rect width="27.6999" height="27.6999" transform="matrix(0.866023 0.500004 -0.866023 0.500004 288.352 203.279)" fill="#FBFBFB" stroke="#B6B6B7" stroke-width="0.376346" stroke-linejoin="round"/>
<rect width="27.6999" height="9.00254" transform="matrix(0.866023 0.500004 0 1 264.365 217.129)" fill="white" stroke="#B6B6B7" stroke-width="0.376346" stroke-linejoin="round"/>
<rect width="27.6999" height="9.00254" transform="matrix(0.866023 -0.500004 0 1 288.354 230.98)" fill="#FBFBFB" stroke="#B6B6B7" stroke-width="0.376346" stroke-linejoin="round"/>
<rect width="27.6999" height="27.6999" transform="matrix(0.866023 0.500004 -0.866023 0.500004 288.352 120.172)" fill="#FBFBFB" stroke="#B6B6B7" stroke-width="0.376346" stroke-linejoin="round"/>
<rect width="27.6999" height="9.00254" transform="matrix(0.866023 0.500004 0 1 264.365 134.023)" fill="#FBFBFB" stroke="#B6B6B7" stroke-width="0.376346" stroke-linejoin="round"/>
<rect width="27.6999" height="9.00254" transform="matrix(0.866023 -0.500004 0 1 288.354 147.875)" fill="white" stroke="#B6B6B7" stroke-width="0.376346" stroke-linejoin="round"/>
<rect width="27.6999" height="27.6999" transform="matrix(0.866023 0.500004 -0.866023 0.500004 288.352 102.762)" fill="#FBFBFB" stroke="#B6B6B7" stroke-width="0.376346" stroke-linejoin="round"/>
<rect width="27.6999" height="9.00254" transform="matrix(0.866023 0.500004 0 1 264.365 116.613)" fill="#FBFBFB" stroke="#B6B6B7" stroke-width="0.376346" stroke-linejoin="round"/>
<rect width="27.6999" height="9.00254" transform="matrix(0.866023 -0.500004 0 1 288.352 130.465)" fill="white" stroke="#B6B6B7" stroke-width="0.376346" stroke-linejoin="round"/>
<rect width="27.6999" height="27.6999" transform="matrix(0.866023 0.500004 -0.866023 0.500004 288.352 85.5)" fill="#FBFBFB" stroke="#B6B6B7" stroke-width="0.376346" stroke-linejoin="round"/>
<rect width="27.6999" height="9.00254" transform="matrix(0.866023 0.500004 0 1 264.363 99.1992)" fill="#FBFBFB" stroke="#B6B6B7" stroke-width="0.376346" stroke-linejoin="round"/>
<rect width="27.6999" height="9.00254" transform="matrix(0.866023 -0.500004 0 1 288.354 113.051)" fill="#FBFBFB" stroke="#B6B6B7" stroke-width="0.376346" stroke-linejoin="round"/>
<rect width="27.6999" height="27.6999" transform="matrix(0.866023 0.500004 -0.866023 0.500004 72.4746 184.049)" fill="#FBFBFB" stroke="#B6B6B7" stroke-width="0.376346" stroke-linejoin="round"/>
<rect width="27.6999" height="9.00254" transform="matrix(0.866023 0.500004 0 1 48.4883 197.898)" fill="#FBFBFB" stroke="#B6B6B7" stroke-width="0.376346" stroke-linejoin="round"/>
<rect width="27.6999" height="9.00254" transform="matrix(0.866023 -0.500004 0 1 72.4766 211.75)" fill="white" stroke="#B6B6B7" stroke-width="0.376346" stroke-linejoin="round"/>
<rect width="27.6999" height="27.6999" transform="matrix(0.866023 0.500004 -0.866023 0.500004 72.4766 156.641)" fill="#FBFBFB" stroke="#B6B6B7" stroke-width="0.376346" stroke-linejoin="round"/>
<rect width="27.6999" height="9.00254" transform="matrix(0.866023 0.500004 0 1 48.4883 170.492)" fill="#FBFBFB" stroke="#B6B6B7" stroke-width="0.376346" stroke-linejoin="round"/>
<rect width="27.6999" height="9.00254" transform="matrix(0.866023 -0.500004 0 1 72.4766 184.344)" fill="white" stroke="#B6B6B7" stroke-width="0.376346" stroke-linejoin="round"/>
<rect width="27.6999" height="27.6999" transform="matrix(0.866023 0.500004 -0.866023 0.500004 72.4746 122.309)" fill="#FBFBFB" stroke="#B6B6B7" stroke-width="0.376346" stroke-linejoin="round"/>
<rect width="27.6999" height="9.00254" transform="matrix(0.866023 0.500004 0 1 48.4883 136.16)" fill="#FBFBFB" stroke="#B6B6B7" stroke-width="0.376346" stroke-linejoin="round"/>
<rect width="27.6999" height="9.00254" transform="matrix(0.866023 -0.500004 0 1 72.4766 150.014)" fill="white" stroke="#B6B6B7" stroke-width="0.376346" stroke-linejoin="round"/>
<rect width="27.6999" height="27.6999" transform="matrix(0.866023 0.500004 -0.866023 0.500004 72.4766 55.3789)" fill="#FBFBFB" stroke="#B6B6B7" stroke-width="0.376346" stroke-linejoin="round"/>
<rect width="27.6999" height="9.00254" transform="matrix(0.866023 0.500004 0 1 48.4883 69.0781)" fill="#FBFBFB" stroke="#B6B6B7" stroke-width="0.376346" stroke-linejoin="round"/>
<rect width="27.6999" height="9.00254" transform="matrix(0.866023 -0.500004 0 1 72.4766 82.9297)" fill="#FBFBFB" stroke="#B6B6B7" stroke-width="0.376346" stroke-linejoin="round"/>
<rect width="27.6999" height="27.6999" transform="matrix(0.866023 0.500004 -0.866023 0.500004 72.4961 46.2266)" fill="#FBFBFB" stroke="#B6B6B7" stroke-width="0.376346" stroke-linejoin="round"/>
<rect width="27.6999" height="9.00254" transform="matrix(0.866023 0.500004 0 1 48.5098 60.0781)" fill="#FBFBFB" stroke="#B6B6B7" stroke-width="0.376346" stroke-linejoin="round"/>
<rect width="27.6999" height="9.00254" transform="matrix(0.866023 -0.500004 0 1 72.498 73.9297)" fill="white" stroke="#B6B6B7" stroke-width="0.376346" stroke-linejoin="round"/>
<rect width="27.6999" height="27.6999" transform="matrix(0.866023 0.500004 -0.866023 0.500004 240.393 154.094)" fill="#FBFBFB" stroke="#B6B6B7" stroke-width="0.376346" stroke-linejoin="round"/>
<rect width="27.6999" height="9.00254" transform="matrix(0.866023 0.500004 0 1 216.406 167.945)" fill="#FBFBFB" stroke="#B6B6B7" stroke-width="0.376346" stroke-linejoin="round"/>
<rect width="27.6999" height="9.00254" transform="matrix(0.866023 -0.500004 0 1 240.393 181.797)" fill="white" stroke="#B6B6B7" stroke-width="0.376346" stroke-linejoin="round"/>
<rect width="27.6999" height="27.6999" transform="matrix(0.866023 0.500004 -0.866023 0.500004 240.393 133.391)" fill="#FBFBFB" stroke="#B6B6B7" stroke-width="0.376346" stroke-linejoin="round"/>
<rect width="27.6999" height="9.00254" transform="matrix(0.866023 0.500004 0 1 216.406 147.242)" fill="#FBFBFB" stroke="#B6B6B7" stroke-width="0.376346" stroke-linejoin="round"/>
<rect width="27.6999" height="9.00254" transform="matrix(0.866023 -0.500004 0 1 240.395 161.092)" fill="white" stroke="#B6B6B7" stroke-width="0.376346" stroke-linejoin="round"/>
<rect width="27.6999" height="27.6999" transform="matrix(0.866023 0.500004 -0.866023 0.500004 240.393 112.688)" fill="#FBFBFB" stroke="#B6B6B7" stroke-width="0.376346" stroke-linejoin="round"/>
<rect width="27.6999" height="9.00254" transform="matrix(0.866023 0.500004 0 1 216.406 126.539)" fill="#FBFBFB" stroke="#B6B6B7" stroke-width="0.376346" stroke-linejoin="round"/>
<rect width="27.6999" height="9.00254" transform="matrix(0.866023 -0.500004 0 1 240.395 140.391)" fill="white" stroke="#B6B6B7" stroke-width="0.376346" stroke-linejoin="round"/>
<rect width="27.6999" height="27.6999" transform="matrix(0.866023 0.500004 -0.866023 0.500004 168.105 129.977)" fill="#FBFBFB" stroke="#B6B6B7" stroke-width="0.376346" stroke-linejoin="round"/>
<rect width="27.6999" height="9.00254" transform="matrix(0.866023 0.500004 0 1 144.119 143.828)" fill="#FBFBFB" stroke="#B6B6B7" stroke-width="0.376346" stroke-linejoin="round"/>
<rect width="27.6999" height="9.00254" transform="matrix(0.866023 -0.500004 0 1 168.107 157.68)" fill="white" stroke="#B6B6B7" stroke-width="0.376346" stroke-linejoin="round"/>
<rect width="27.6999" height="27.6999" transform="matrix(0.866023 0.500004 -0.866023 0.500004 168.391 112.01)" fill="#FBFBFB" stroke="#B6B6B7" stroke-width="0.376346" stroke-linejoin="round"/>
<rect width="27.6999" height="9.00254" transform="matrix(0.866023 0.500004 0 1 144.402 125.859)" fill="#FBFBFB" stroke="#B6B6B7" stroke-width="0.376346" stroke-linejoin="round"/>
<rect width="27.6999" height="9.00254" transform="matrix(0.866023 -0.500004 0 1 168.391 139.711)" fill="#FBFBFB" stroke="#B6B6B7" stroke-width="0.376346" stroke-linejoin="round"/>
<rect width="27.6999" height="27.6999" transform="matrix(0.866023 0.500004 -0.866023 0.500004 144.434 143.488)" fill="#FBFBFB" stroke="#B6B6B7" stroke-width="0.376346" stroke-linejoin="round"/>
<rect width="27.6999" height="9.00254" transform="matrix(0.866023 0.500004 0 1 120.447 157.34)" fill="#FBFBFB" stroke="#B6B6B7" stroke-width="0.376346" stroke-linejoin="round"/>
<rect width="27.6999" height="9.00254" transform="matrix(0.866023 -0.500004 0 1 144.436 171.189)" fill="white" stroke="#B6B6B7" stroke-width="0.376346" stroke-linejoin="round"/>
<rect width="27.6999" height="27.6999" transform="matrix(0.866023 0.500004 -0.866023 0.500004 192.398 218.172)" fill="#FBFBFB" stroke="#B6B6B7" stroke-width="0.376346" stroke-linejoin="round"/>
<rect width="27.6999" height="9.00254" transform="matrix(0.866023 0.500004 0 1 168.412 232.023)" fill="#FBFBFB" stroke="#B6B6B7" stroke-width="0.376346" stroke-linejoin="round"/>
<rect width="27.6999" height="9.00254" transform="matrix(0.866023 -0.500004 0 1 192.4 245.873)" fill="white" stroke="#B6B6B7" stroke-width="0.376346" stroke-linejoin="round"/>
<rect width="27.6999" height="27.6999" transform="matrix(0.866023 0.500004 -0.866023 0.500004 168.398 215.383)" fill="#FBFBFB" stroke="#B6B6B7" stroke-width="0.376346" stroke-linejoin="round"/>
<rect width="27.6999" height="9.00254" transform="matrix(0.866023 0.500004 0 1 144.412 229.234)" fill="#FBFBFB" stroke="#B6B6B7" stroke-width="0.376346" stroke-linejoin="round"/>
<rect width="27.6999" height="9.00254" transform="matrix(0.866023 -0.500004 0 1 168.4 243.084)" fill="white" stroke="#B6B6B7" stroke-width="0.376346" stroke-linejoin="round"/>
<rect width="27.6999" height="27.6999" transform="matrix(0.866023 0.500004 -0.866023 0.500004 168.398 202.883)" fill="#FBFBFB" stroke="#B6B6B7" stroke-width="0.376346" stroke-linejoin="round"/>
<rect width="27.6999" height="9.00254" transform="matrix(0.866023 0.500004 0 1 144.412 216.734)" fill="#FBFBFB" stroke="#B6B6B7" stroke-width="0.376346" stroke-linejoin="round"/>
<rect width="27.6999" height="9.00254" transform="matrix(0.866023 -0.500004 0 1 168.4 230.584)" fill="white" stroke="#B6B6B7" stroke-width="0.376346" stroke-linejoin="round"/>
<rect width="27.6999" height="27.6999" transform="matrix(0.866023 0.500004 -0.866023 0.500004 168.398 193.883)" fill="#FBFBFB" stroke="#B6B6B7" stroke-width="0.376346" stroke-linejoin="round"/>
<rect width="27.6999" height="9.00254" transform="matrix(0.866023 0.500004 0 1 144.412 207.734)" fill="#FBFBFB" stroke="#B6B6B7" stroke-width="0.376346" stroke-linejoin="round"/>
<rect width="27.6999" height="9.00254" transform="matrix(0.866023 -0.500004 0 1 168.4 221.584)" fill="white" stroke="#B6B6B7" stroke-width="0.376346" stroke-linejoin="round"/>
<path d="M240.368 126.598L240.368 55.2296L209.184 73.5472L240.368 126.598Z" fill="white" stroke="#B6B6B7" stroke-width="0.375" stroke-linejoin="round"/>
<path d="M271.461 73.4935L240.39 91.5625L209.32 73.4935L240.39 55.2041L271.461 73.4935Z" fill="#FBFBFB" stroke="url(#paint2_linear_2417_311535)" stroke-width="0.375" stroke-linejoin="round"/>
<path d="M240.367 126.598L240.367 55.2269L271.551 73.5472L240.367 126.598Z" fill="#F2F2F2" stroke="#B6B6B7" stroke-width="0.375" stroke-linejoin="round"/>
<path d="M271.463 73.4927L240.392 91.5625L209.32 73.4927L240.392 55.2025L271.463 73.4927Z" fill="#FBFBFB" stroke="#B6B6B7" stroke-width="0.376346" stroke-linejoin="round"/>
<path d="M271.463 54.105L240.392 36.0352L209.32 54.105L240.392 72.3952L271.463 54.105Z" fill="#FBFBFB" stroke="url(#paint3_linear_2417_311535)" stroke-width="0.375" stroke-linejoin="round"/>
<path d="M240.368 1L240.368 72.3681L209.184 54.0504L240.368 1Z" fill="white" stroke="#B6B6B7" stroke-width="0.375" stroke-linejoin="round"/>
<path d="M271.461 54.1042L240.39 36.0352L209.32 54.1042L240.39 72.3936L271.461 54.1042Z" fill="#FBFBFB" stroke="#B6B6B7" stroke-width="0.376346" stroke-linejoin="round"/>
<path d="M240.369 0.999997L240.369 72.3708L271.553 54.0504L240.369 0.999997Z" fill="white" stroke="#B6B6B7" stroke-width="0.375" stroke-linejoin="round"/>
</g>
<defs>
<linearGradient id="paint0_linear_2417_311535" x1="248.034" y1="71.2745" x2="248.417" y2="53.6974" gradientUnits="userSpaceOnUse">
<stop stop-color="#FB7E51"/>
<stop offset="1" stop-color="#FF8F66"/>
</linearGradient>
<linearGradient id="paint1_linear_2417_311535" x1="248.035" y1="56.324" x2="248.419" y2="73.9019" gradientUnits="userSpaceOnUse">
<stop stop-color="#FB7E51"/>
<stop offset="1" stop-color="#FF8F66"/>
</linearGradient>
<linearGradient id="paint2_linear_2417_311535" x1="248.034" y1="71.2745" x2="248.417" y2="53.6974" gradientUnits="userSpaceOnUse">
<stop stop-color="#FB7E51"/>
<stop offset="1" stop-color="#FF8F66"/>
</linearGradient>
<linearGradient id="paint3_linear_2417_311535" x1="248.035" y1="56.324" x2="248.419" y2="73.9019" gradientUnits="userSpaceOnUse">
<stop stop-color="#FB7E51"/>
<stop offset="1" stop-color="#FF8F66"/>
</linearGradient>
<clipPath id="clip0_2417_311535">
<rect width="288" height="264" fill="white" transform="translate(36.3984 16.7578)"/>
</clipPath>
</defs>
</svg>
