<svg width="649" height="650" viewBox="0 0 649 650" fill="none" xmlns="http://www.w3.org/2000/svg">
<rect width="55.3998" height="55.3998" transform="matrix(0.866023 0.500004 -0.866023 0.500004 528.211 575.832)" fill="#16181D" stroke="#333538" stroke-width="0.75" stroke-linejoin="round"/>
<rect width="55.3998" height="18.0051" transform="matrix(0.866023 0.500004 0 1 480.236 603.533)" fill="#181A1F" stroke="#333538" stroke-width="0.75" stroke-linejoin="round"/>
<rect width="55.3998" height="18.0051" transform="matrix(0.866023 -0.500004 0 1 528.211 631.234)" fill="#181A1F" stroke="#333538" stroke-width="0.75" stroke-linejoin="round"/>
<rect width="55.3998" height="55.3998" transform="matrix(0.866023 0.500004 -0.866023 0.500004 528.211 509.758)" fill="#181A1F" stroke="#333538" stroke-width="0.75" stroke-linejoin="round"/>
<rect width="55.3998" height="18.0051" transform="matrix(0.866023 0.500004 0 1 480.236 537.459)" fill="#181A1F" stroke="#333538" stroke-width="0.75" stroke-linejoin="round"/>
<rect width="55.3998" height="18.0051" transform="matrix(0.866023 -0.500004 0 1 528.211 565.162)" fill="#181A1F" stroke="#333538" stroke-width="0.75" stroke-linejoin="round"/>
<rect width="55.3998" height="55.3998" transform="matrix(0.866023 0.500004 -0.866023 0.500004 288.285 550.342)" fill="#16181D" stroke="#333538" stroke-width="0.75" stroke-linejoin="round"/>
<rect width="55.3998" height="18.0051" transform="matrix(0.866023 0.500004 0 1 240.311 578.043)" fill="#181A1F" stroke="#333538" stroke-width="0.75" stroke-linejoin="round"/>
<rect width="55.3998" height="18.0051" transform="matrix(0.866023 -0.500004 0 1 288.287 605.746)" fill="#181A1F" stroke="#333538" stroke-width="0.75" stroke-linejoin="round"/>
<rect width="55.3998" height="55.3998" transform="matrix(0.866023 0.500004 -0.866023 0.500004 600.188 107.678)" fill="#181A1F" stroke="#333538" stroke-width="0.75" stroke-linejoin="round"/>
<rect width="55.3998" height="18.0051" transform="matrix(0.866023 0.500004 0 1 552.211 135.379)" fill="#181A1F" stroke="#333538" stroke-width="0.75" stroke-linejoin="round"/>
<rect width="55.3998" height="18.0051" transform="matrix(0.866023 -0.500004 0 1 600.188 163.082)" fill="#181A1F" stroke="#333538" stroke-width="0.75" stroke-linejoin="round"/>
<rect width="55.3998" height="55.3998" transform="matrix(0.866023 0.500004 -0.866023 0.500004 600.188 71.6777)" fill="#181A1F" stroke="#333538" stroke-width="0.75" stroke-linejoin="round"/>
<rect width="55.3998" height="18.0051" transform="matrix(0.866023 0.500004 0 1 552.211 99.3789)" fill="#181A1F" stroke="#333538" stroke-width="0.75" stroke-linejoin="round"/>
<rect width="55.3998" height="18.0051" transform="matrix(0.866023 -0.500004 0 1 600.188 127.082)" fill="#181A1F" stroke="#333538" stroke-width="0.75" stroke-linejoin="round"/>
<rect width="55.3998" height="55.3998" transform="matrix(0.866023 0.500004 -0.866023 0.500004 288.285 495.283)" fill="#16181D" stroke="#333538" stroke-width="0.752692" stroke-linejoin="round"/>
<rect width="55.3998" height="18.0051" transform="matrix(0.866023 0.500004 0 1 240.311 522.984)" fill="#16181D" stroke="#333538" stroke-width="0.75" stroke-linejoin="round"/>
<rect width="55.3998" height="18.0051" transform="matrix(0.866023 -0.500004 0 1 288.285 550.686)" fill="#16181D" stroke="#333538" stroke-width="0.75" stroke-linejoin="round"/>
<rect width="55.3998" height="55.3998" transform="matrix(0.866023 0.500004 -0.866023 0.500004 288.285 466.398)" fill="#16181D" stroke="#333538" stroke-width="0.752692" stroke-linejoin="round"/>
<rect width="55.3998" height="18.0051" transform="matrix(0.866023 0.500004 0 1 240.311 494.1)" fill="#16181D" stroke="#333538" stroke-width="0.752691" stroke-linejoin="round"/>
<rect width="55.3998" height="18.0051" transform="matrix(0.866023 -0.500004 0 1 288.285 521.801)" fill="#16181D" stroke="#333538" stroke-width="0.752691" stroke-linejoin="round"/>
<rect width="55.3998" height="55.3998" transform="matrix(0.866023 0.500004 -0.866023 0.500004 48.4844 486.668)" fill="#16181D" stroke="#333538" stroke-width="0.75" stroke-linejoin="round"/>
<rect width="55.3998" height="18.0051" transform="matrix(0.866023 0.500004 0 1 0.509766 514.369)" fill="#16181D" stroke="#333538" stroke-width="0.75" stroke-linejoin="round"/>
<rect width="55.3998" height="18.0051" transform="matrix(0.866023 -0.500004 0 1 48.4844 542.072)" fill="#16181D" stroke="#333538" stroke-width="0.75" stroke-linejoin="round"/>
<rect width="55.3998" height="55.3998" transform="matrix(0.866023 0.500004 -0.866023 0.500004 144.484 468.355)" fill="#16181D" stroke="#333538" stroke-width="0.752692" stroke-linejoin="round"/>
<rect width="55.3998" height="18.0051" transform="matrix(0.866023 0.500004 0 1 96.5098 496.057)" fill="#16181D" stroke="#333538" stroke-width="0.752691" stroke-linejoin="round"/>
<rect width="55.3998" height="18.0051" transform="matrix(0.866023 -0.500004 0 1 144.484 523.76)" fill="#16181D" stroke="#333538" stroke-width="0.752691" stroke-linejoin="round"/>
<path d="M432.239 253.197L432.239 110.461L369.871 147.096L432.239 253.197Z" fill="#16181D" stroke="#333538" stroke-width="0.75" stroke-linejoin="round"/>
<path d="M494.425 146.989L432.285 183.127L370.145 146.989L432.285 110.41L494.425 146.989Z" fill="#16181D" stroke="url(#paint0_linear_3007_329666)" stroke-width="0.75" stroke-linejoin="round"/>
<path d="M432.239 253.197L432.239 110.456L494.607 147.096L432.239 253.197Z" fill="#F2F2F2" stroke="#333538" stroke-width="0.75" stroke-linejoin="round"/>
<path d="M494.431 146.987L432.288 183.127L370.145 146.987L432.288 110.407L494.431 146.987Z" fill="#16181D" stroke="#333538" stroke-width="0.752692" stroke-linejoin="round"/>
<path d="M494.431 108.21L432.288 72.0703L370.145 108.21L432.288 144.79L494.431 108.21Z" fill="#16181D" stroke="url(#paint1_linear_3007_329666)" stroke-width="0.75" stroke-linejoin="round"/>
<path d="M432.239 2.00001L432.239 144.736L369.871 108.101L432.239 2.00001Z" fill="#1A1C21" stroke="#333538" stroke-width="0.75"/>
<path d="M494.425 108.208L432.285 72.0703L370.145 108.208L432.285 144.787L494.425 108.208Z" fill="#16181D" stroke="#333538" stroke-width="0.752692" stroke-linejoin="round"/>
<path d="M432.239 1.99999L432.239 144.742L494.607 108.101L432.239 1.99999Z" fill="#181A1F" stroke="#333538" stroke-width="0.75"/>
<g clip-path="url(#clip0_3007_329666)">
<path d="M240.518 342.055V287.883" stroke="#333538" stroke-width="0.752692" stroke-linejoin="round"/>
<rect width="55.3998" height="55.3998" transform="matrix(0.866023 0.500004 -0.866023 0.500004 192.562 332.84)" fill="#15171C" stroke="#333538" stroke-width="0.75" stroke-linejoin="round"/>
<rect width="55.3998" height="18.0051" transform="matrix(0.866023 0.500004 0 1 144.588 360.541)" fill="#16181D" stroke="#333538" stroke-width="0.75" stroke-linejoin="round"/>
<rect width="55.3998" height="18.0051" transform="matrix(0.866023 -0.500004 0 1 192.562 388.236)" fill="#16181D" stroke="#333538" stroke-width="0.75" stroke-linejoin="round"/>
<rect width="55.3998" height="55.3998" transform="matrix(0.866023 0.500004 -0.866023 0.500004 528.412 510.242)" fill="#15171C" stroke="#333538" stroke-width="0.75" stroke-linejoin="round"/>
<rect width="55.3998" height="18.0051" transform="matrix(0.866023 0.500004 0 1 480.438 537.943)" fill="#16181D" stroke="#333538" stroke-width="0.75" stroke-linejoin="round"/>
<rect width="55.3998" height="18.0051" transform="matrix(0.866023 -0.500004 0 1 528.412 565.646)" fill="#16181D" stroke="#333538" stroke-width="0.75" stroke-linejoin="round"/>
<rect width="55.3998" height="55.3998" transform="matrix(0.866023 0.500004 -0.866023 0.500004 600.389 108.162)" fill="#16181D" stroke="#333538" stroke-width="0.75" stroke-linejoin="round"/>
<rect width="55.3998" height="18.0051" transform="matrix(0.866023 0.500004 0 1 552.412 135.863)" fill="#16181D" stroke="#333538" stroke-width="0.75" stroke-linejoin="round"/>
<rect width="55.3998" height="55.3998" transform="matrix(0.866023 0.500004 -0.866023 0.500004 600.389 72.1621)" fill="#15171C" stroke="#333538" stroke-width="0.75" stroke-linejoin="round"/>
<rect width="55.3998" height="18.0051" transform="matrix(0.866023 0.500004 0 1 552.412 99.8633)" fill="#16181D" stroke="#333538" stroke-width="0.75" stroke-linejoin="round"/>
<rect width="55.3998" height="55.3998" transform="matrix(0.866023 0.500004 -0.866023 0.500004 480.43 354)" fill="#15171C" stroke="#333538" stroke-width="0.75" stroke-linejoin="round"/>
<rect width="55.3998" height="18.0051" transform="matrix(0.866023 0.500004 0 1 432.455 381.701)" fill="#16181D" stroke="#333538" stroke-width="0.75" stroke-linejoin="round"/>
<rect width="55.3998" height="18.0051" transform="matrix(0.866023 -0.500004 0 1 480.43 409.404)" fill="#16181D" stroke="#333538" stroke-width="0.75" stroke-linejoin="round"/>
<rect width="55.3998" height="55.3998" transform="matrix(0.866023 0.500004 -0.866023 0.500004 384.484 409.41)" fill="#15171C" stroke="#333538" stroke-width="0.75" stroke-linejoin="round"/>
<rect width="55.3998" height="18.0051" transform="matrix(0.866023 0.500004 0 1 336.51 437.111)" fill="#16181D" stroke="#333538" stroke-width="0.752691" stroke-linejoin="round"/>
<rect width="55.3998" height="18.0051" transform="matrix(0.866023 -0.500004 0 1 384.486 464.816)" fill="#16181D" stroke="#333538" stroke-width="0.752691" stroke-linejoin="round"/>
<rect width="55.3998" height="55.3998" transform="matrix(0.866023 0.500004 -0.866023 0.500004 288.484 495.768)" fill="#16181D" stroke="#333538" stroke-width="0.75" stroke-linejoin="round"/>
<rect width="55.3998" height="18.0051" transform="matrix(0.866023 0.500004 0 1 240.51 523.469)" fill="#16181D" stroke="#333538" stroke-width="0.75" stroke-linejoin="round"/>
<rect width="55.3998" height="18.0051" transform="matrix(0.866023 -0.500004 0 1 288.484 551.17)" fill="#16181D" stroke="#333538" stroke-width="0.75" stroke-linejoin="round"/>
<rect width="55.3998" height="55.3998" transform="matrix(0.866023 0.500004 -0.866023 0.500004 288.484 466.883)" fill="#16181D" stroke="#333538" stroke-width="0.75" stroke-linejoin="round"/>
<rect width="55.3998" height="18.0051" transform="matrix(0.866023 0.500004 0 1 240.51 494.584)" fill="#16181D" stroke="#333538" stroke-width="0.75" stroke-linejoin="round"/>
<rect width="55.3998" height="18.0051" transform="matrix(0.866023 -0.500004 0 1 288.484 522.285)" fill="#16181D" stroke="#333538" stroke-width="0.75" stroke-linejoin="round"/>
<rect width="55.3998" height="55.3998" transform="matrix(0.866023 0.500004 -0.866023 0.500004 432.6 436.836)" fill="#15171C" stroke="#333538" stroke-width="0.75" stroke-linejoin="round"/>
<rect width="55.3998" height="18.0051" transform="matrix(0.866023 0.500004 0 1 384.625 464.537)" fill="#16181D" stroke="#333538" stroke-width="0.75" stroke-linejoin="round"/>
<rect width="55.3998" height="18.0051" transform="matrix(0.866023 -0.500004 0 1 432.6 492.24)" fill="#16181D" stroke="#333538" stroke-width="0.75" stroke-linejoin="round"/>
<rect width="55.3998" height="55.3998" transform="matrix(0.866023 0.500004 -0.866023 0.500004 480.582 464.531)" fill="#15171C" stroke="#333538" stroke-width="0.75" stroke-linejoin="round"/>
<rect width="55.3998" height="18.0051" transform="matrix(0.866023 0.500004 0 1 432.607 492.232)" fill="#16181D" stroke="#333538" stroke-width="0.75" stroke-linejoin="round"/>
<rect width="55.3998" height="18.0051" transform="matrix(0.866023 -0.500004 0 1 480.584 519.936)" fill="#16181D" stroke="#333538" stroke-width="0.75" stroke-linejoin="round"/>
<rect width="55.3998" height="55.3998" transform="matrix(0.866023 0.500004 -0.866023 0.500004 192.484 287.461)" fill="#15171C" stroke="#333538" stroke-width="0.75" stroke-linejoin="round"/>
<rect width="55.3998" height="18.0051" transform="matrix(0.866023 0.500004 0 1 144.51 315.162)" fill="#16181D" stroke="#333538" stroke-width="0.75" stroke-linejoin="round"/>
<rect width="55.3998" height="18.0051" transform="matrix(0.866023 -0.500004 0 1 192.486 342.865)" fill="#16181D" stroke="#333538" stroke-width="0.75" stroke-linejoin="round"/>
<rect width="55.3998" height="55.3998" transform="matrix(0.866023 0.500004 -0.866023 0.500004 528.412 291.891)" fill="#15171C" stroke="#333538" stroke-width="0.75" stroke-linejoin="round"/>
<rect width="55.3998" height="18.0051" transform="matrix(0.866023 0.500004 0 1 480.438 319.592)" fill="#16181D" stroke="#333538" stroke-width="0.75" stroke-linejoin="round"/>
<rect width="55.3998" height="18.0051" transform="matrix(0.866023 -0.500004 0 1 528.412 347.295)" fill="#16181D" stroke="#333538" stroke-width="0.75" stroke-linejoin="round"/>
<rect width="55.3998" height="55.3998" transform="matrix(0.866023 0.500004 -0.866023 0.500004 192.588 441.43)" fill="#16181D" stroke="#333538" stroke-width="0.75" stroke-linejoin="round"/>
<rect width="55.3998" height="18.0051" transform="matrix(0.866023 0.500004 0 1 144.613 469.131)" fill="#16181D" stroke="#333538" stroke-width="0.75" stroke-linejoin="round"/>
<rect width="55.3998" height="18.0051" transform="matrix(0.866023 -0.500004 0 1 192.59 496.832)" fill="#16181D" stroke="#333538" stroke-width="0.75" stroke-linejoin="round"/>
<rect width="55.3998" height="55.3998" transform="matrix(0.866023 0.500004 -0.866023 0.500004 48.6836 487.152)" fill="#15171C" stroke="#333538" stroke-width="0.75" stroke-linejoin="round"/>
<rect width="55.3998" height="18.0051" transform="matrix(0.866023 0.500004 0 1 0.708984 514.854)" fill="#16181D" stroke="#333538" stroke-width="0.75" stroke-linejoin="round"/>
<rect width="55.3998" height="18.0051" transform="matrix(0.866023 -0.500004 0 1 48.6836 542.557)" fill="#16181D" stroke="#333538" stroke-width="0.75" stroke-linejoin="round"/>
<rect width="55.3998" height="55.3998" transform="matrix(0.866023 0.500004 -0.866023 0.500004 144.686 468.84)" fill="#15171C" stroke="#333538" stroke-width="0.75" stroke-linejoin="round"/>
<rect width="55.3998" height="18.0051" transform="matrix(0.866023 0.500004 0 1 96.7109 496.541)" fill="#16181D" stroke="#333538" stroke-width="0.75" stroke-linejoin="round"/>
<rect width="55.3998" height="18.0051" transform="matrix(0.866023 -0.500004 0 1 144.686 524.244)" fill="#16181D" stroke="#333538" stroke-width="0.75" stroke-linejoin="round"/>
<rect width="55.3998" height="55.3998" transform="matrix(0.866023 0.500004 -0.866023 0.500004 0.675781 514.838)" fill="#16181D" stroke="#333538" stroke-width="0.75" stroke-linejoin="round"/>
<rect width="55.3998" height="55.3998" transform="matrix(0.866023 0.500004 -0.866023 0.500004 192.562 423.312)" fill="#16181D" stroke="#333538" stroke-width="0.75" stroke-linejoin="round"/>
<rect width="55.3998" height="18.0051" transform="matrix(0.866023 0.500004 0 1 144.588 451.014)" fill="#16181D" stroke="#333538" stroke-width="0.75" stroke-linejoin="round"/>
<rect width="55.3998" height="18.0051" transform="matrix(0.866023 -0.500004 0 1 192.564 478.715)" fill="#16181D" stroke="#333538" stroke-width="0.75" stroke-linejoin="round"/>
<rect width="55.3998" height="55.3998" transform="matrix(0.866023 0.500004 -0.866023 0.500004 192.584 406.043)" fill="#15171C" stroke="#333538" stroke-width="0.75" stroke-linejoin="round"/>
<rect width="55.3998" height="18.0051" transform="matrix(0.866023 0.500004 0 1 144.609 433.744)" fill="#16181D" stroke="#333538" stroke-width="0.75" stroke-linejoin="round"/>
<rect width="55.3998" height="18.0051" transform="matrix(0.866023 -0.500004 0 1 192.586 461.445)" fill="#16181D" stroke="#333538" stroke-width="0.75" stroke-linejoin="round"/>
<rect width="55.3998" height="55.3998" transform="matrix(0.866023 0.500004 -0.866023 0.500004 288.594 169.531)" fill="#16181D" stroke="#333538" stroke-width="0.75" stroke-linejoin="round"/>
<rect width="55.3998" height="18.0051" transform="matrix(0.866023 0.500004 0 1 240.619 197.232)" fill="#16181D" stroke="#333538" stroke-width="0.75" stroke-linejoin="round"/>
<rect width="55.3998" height="18.0051" transform="matrix(0.866023 -0.500004 0 1 288.594 224.936)" fill="#16181D" stroke="#333538" stroke-width="0.75" stroke-linejoin="round"/>
<rect width="55.3998" height="55.3998" transform="matrix(0.866023 0.500004 -0.866023 0.500004 192.484 224.422)" fill="#15171C" stroke="#333538" stroke-width="0.75" stroke-linejoin="round"/>
<rect width="55.3998" height="18.0051" transform="matrix(0.866023 0.500004 0 1 144.51 252.123)" fill="#16181D" stroke="#333538" stroke-width="0.75" stroke-linejoin="round"/>
<rect width="55.3998" height="18.0051" transform="matrix(0.866023 -0.500004 0 1 192.484 279.826)" fill="#16181D" stroke="#333538" stroke-width="0.75" stroke-linejoin="round"/>
<rect width="55.3998" height="55.3998" transform="matrix(0.866023 0.500004 -0.866023 0.500004 192.484 176.16)" fill="#15171C" stroke="#333538" stroke-width="0.75" stroke-linejoin="round"/>
<rect width="55.3998" height="18.0051" transform="matrix(0.866023 0.500004 0 1 144.51 203.861)" fill="#16181D" stroke="#333538" stroke-width="0.75" stroke-linejoin="round"/>
<rect width="55.3998" height="18.0051" transform="matrix(0.866023 -0.500004 0 1 192.486 231.562)" fill="#16181D" stroke="#333538" stroke-width="0.75" stroke-linejoin="round"/>
<rect width="55.3998" height="55.3998" transform="matrix(0.866023 0.500004 -0.866023 0.500004 288.594 151.711)" fill="#15171C" stroke="#333538" stroke-width="0.75" stroke-linejoin="round"/>
<rect width="55.3998" height="18.0051" transform="matrix(0.866023 0.500004 0 1 240.619 179.412)" fill="#16181D" stroke="#333538" stroke-width="0.75" stroke-linejoin="round"/>
<rect width="55.3998" height="18.0051" transform="matrix(0.866023 -0.500004 0 1 288.596 207.115)" fill="#16181D" stroke="#333538" stroke-width="0.75" stroke-linejoin="round"/>
<rect width="55.3998" height="55.3998" transform="matrix(0.866023 0.500004 -0.866023 0.500004 528.41 407.043)" fill="#15171C" stroke="#333538" stroke-width="0.75" stroke-linejoin="round"/>
<rect width="55.3998" height="18.0051" transform="matrix(0.866023 0.500004 0 1 480.436 434.744)" fill="#16181D" stroke="#333538" stroke-width="0.75" stroke-linejoin="round"/>
<rect width="55.3998" height="18.0051" transform="matrix(0.866023 -0.500004 0 1 528.412 462.447)" fill="#16181D" stroke="#333538" stroke-width="0.75" stroke-linejoin="round"/>
<rect width="55.3998" height="55.3998" transform="matrix(0.866023 0.500004 -0.866023 0.500004 528.41 240.826)" fill="#16181D" stroke="#333538" stroke-width="0.75" stroke-linejoin="round"/>
<rect width="55.3998" height="18.0051" transform="matrix(0.866023 0.500004 0 1 480.436 268.527)" fill="#16181D" stroke="#333538" stroke-width="0.75" stroke-linejoin="round"/>
<rect width="55.3998" height="18.0051" transform="matrix(0.866023 -0.500004 0 1 528.412 296.23)" fill="#16181D" stroke="#333538" stroke-width="0.75" stroke-linejoin="round"/>
<rect width="55.3998" height="55.3998" transform="matrix(0.866023 0.500004 -0.866023 0.500004 528.41 171.486)" fill="#15171C" stroke="#333538" stroke-width="0.75" stroke-linejoin="round"/>
<rect width="55.3998" height="18.0051" transform="matrix(0.866023 0.500004 0 1 480.434 198.887)" fill="#16181D" stroke="#333538" stroke-width="0.75" stroke-linejoin="round"/>
<rect width="55.3998" height="18.0051" transform="matrix(0.866023 -0.500004 0 1 528.412 226.59)" fill="#16181D" stroke="#333538" stroke-width="0.75" stroke-linejoin="round"/>
<rect width="55.3998" height="55.3998" transform="matrix(0.866023 0.500004 -0.866023 0.500004 96.6543 331.172)" fill="#16181D" stroke="#333538" stroke-width="0.75" stroke-linejoin="round"/>
<rect width="55.3998" height="18.0051" transform="matrix(0.866023 0.500004 0 1 48.6797 358.871)" fill="#16181D" stroke="#333538" stroke-width="0.75" stroke-linejoin="round"/>
<rect width="55.3998" height="18.0051" transform="matrix(0.866023 -0.500004 0 1 96.6543 386.576)" fill="#16181D" stroke="#333538" stroke-width="0.75" stroke-linejoin="round"/>
<rect width="55.3998" height="55.3998" transform="matrix(0.866023 0.500004 -0.866023 0.500004 96.6543 245.102)" fill="#15171C" stroke="#333538" stroke-width="0.75" stroke-linejoin="round"/>
<rect width="55.3998" height="18.0051" transform="matrix(0.866023 0.500004 0 1 48.6797 272.805)" fill="#16181D" stroke="#333538" stroke-width="0.75" stroke-linejoin="round"/>
<rect width="55.3998" height="18.0051" transform="matrix(0.866023 -0.500004 0 1 96.6562 300.512)" fill="#16181D" stroke="#333538" stroke-width="0.75" stroke-linejoin="round"/>
<rect width="55.3998" height="55.3998" transform="matrix(0.866023 0.500004 -0.866023 0.500004 432.49 350.082)" fill="#15171C" stroke="#333538" stroke-width="0.75" stroke-linejoin="round"/>
<rect width="55.3998" height="18.0051" transform="matrix(0.866023 0.500004 0 1 384.516 377.783)" fill="#16181D" stroke="#333538" stroke-width="0.75" stroke-linejoin="round"/>
<rect width="55.3998" height="18.0051" transform="matrix(0.866023 -0.500004 0 1 432.492 405.486)" fill="#16181D" stroke="#333538" stroke-width="0.75" stroke-linejoin="round"/>
<rect width="55.3998" height="55.3998" transform="matrix(0.866023 0.500004 -0.866023 0.500004 432.49 308.674)" fill="#15171C" stroke="#333538" stroke-width="0.75" stroke-linejoin="round"/>
<rect width="55.3998" height="18.0051" transform="matrix(0.866023 0.500004 0 1 384.516 336.375)" fill="#16181D" stroke="#333538" stroke-width="0.75" stroke-linejoin="round"/>
<rect width="55.3998" height="18.0051" transform="matrix(0.866023 -0.500004 0 1 432.492 364.078)" fill="#16181D" stroke="#333538" stroke-width="0.75" stroke-linejoin="round"/>
<rect width="55.3998" height="55.3998" transform="matrix(0.866023 0.500004 -0.866023 0.500004 432.49 267.268)" fill="#15171C" stroke="#333538" stroke-width="0.75" stroke-linejoin="round"/>
<rect width="55.3998" height="18.0051" transform="matrix(0.866023 0.500004 0 1 384.516 294.969)" fill="#16181D" stroke="#333538" stroke-width="0.75" stroke-linejoin="round"/>
<rect width="55.3998" height="18.0051" transform="matrix(0.866023 -0.500004 0 1 432.492 322.67)" fill="#16181D" stroke="#333538" stroke-width="0.75" stroke-linejoin="round"/>
<rect width="55.3998" height="55.3998" transform="matrix(0.866023 0.500004 -0.866023 0.500004 432.49 225.859)" fill="#15171C" stroke="#333538" stroke-width="0.75" stroke-linejoin="round"/>
<rect width="55.3998" height="18.0051" transform="matrix(0.866023 0.500004 0 1 384.516 253.561)" fill="#16181D" stroke="#333538" stroke-width="0.75" stroke-linejoin="round"/>
<rect width="55.3998" height="18.0051" transform="matrix(0.866023 -0.500004 0 1 432.492 281.264)" fill="#16181D" stroke="#333538" stroke-width="0.75" stroke-linejoin="round"/>
<rect width="55.3998" height="55.3998" transform="matrix(0.866023 0.500004 -0.866023 0.500004 287.918 260.436)" fill="#16181D" stroke="#333538" stroke-width="0.75" stroke-linejoin="round"/>
<rect width="55.3998" height="18.0051" transform="matrix(0.866023 0.500004 0 1 239.943 288.137)" fill="#16181D" stroke="#333538" stroke-width="0.75" stroke-linejoin="round"/>
<rect width="55.3998" height="18.0051" transform="matrix(0.866023 -0.500004 0 1 287.92 315.84)" fill="#16181D" stroke="#333538" stroke-width="0.75" stroke-linejoin="round"/>
<rect width="55.3998" height="55.3998" transform="matrix(0.866023 0.500004 -0.866023 0.500004 288.488 224.504)" fill="#15171C" stroke="#333538" stroke-width="0.75" stroke-linejoin="round"/>
<rect width="55.3998" height="18.0051" transform="matrix(0.866023 0.500004 0 1 240.512 252.205)" fill="#16181D" stroke="#333538" stroke-width="0.75" stroke-linejoin="round"/>
<rect width="55.3998" height="18.0051" transform="matrix(0.866023 -0.500004 0 1 288.488 279.908)" fill="#16181D" stroke="#333538" stroke-width="0.75" stroke-linejoin="round"/>
<rect width="55.3998" height="55.3998" transform="matrix(0.866023 0.500004 -0.866023 0.500004 240.57 287.461)" fill="#16181D" stroke="#333538" stroke-width="0.75" stroke-linejoin="round"/>
<rect width="55.3998" height="18.0051" transform="matrix(0.866023 0.500004 0 1 192.596 315.162)" fill="#16181D" stroke="#333538" stroke-width="0.75" stroke-linejoin="round"/>
<rect width="55.3998" height="18.0051" transform="matrix(0.866023 -0.500004 0 1 240.572 342.863)" fill="#16181D" stroke="#333538" stroke-width="0.75" stroke-linejoin="round"/>
<rect width="55.3998" height="55.3998" transform="matrix(0.866023 0.500004 -0.866023 0.500004 336.5 436.828)" fill="#15171C" stroke="#333538" stroke-width="0.75" stroke-linejoin="round"/>
<rect width="55.3998" height="18.0051" transform="matrix(0.866023 0.500004 0 1 288.525 464.529)" fill="#16181D" stroke="#333538" stroke-width="0.75" stroke-linejoin="round"/>
<rect width="55.3998" height="18.0051" transform="matrix(0.866023 -0.500004 0 1 336.502 492.23)" fill="#16181D" stroke="#333538" stroke-width="0.75" stroke-linejoin="round"/>
<rect width="55.3998" height="55.3998" transform="matrix(0.866023 0.500004 -0.866023 0.500004 288.5 431.248)" fill="#16181D" stroke="#333538" stroke-width="0.75" stroke-linejoin="round"/>
<rect width="55.3998" height="18.0051" transform="matrix(0.866023 0.500004 0 1 240.525 458.949)" fill="#16181D" stroke="#333538" stroke-width="0.75" stroke-linejoin="round"/>
<rect width="55.3998" height="18.0051" transform="matrix(0.866023 -0.500004 0 1 288.502 486.65)" fill="#16181D" stroke="#333538" stroke-width="0.75" stroke-linejoin="round"/>
<rect width="55.3998" height="55.3998" transform="matrix(0.866023 0.500004 -0.866023 0.500004 288.5 388.248)" fill="#15171C" stroke="#333538" stroke-width="0.75" stroke-linejoin="round"/>
<rect width="55.3998" height="18.0051" transform="matrix(0.866023 0.500004 0 1 240.525 415.949)" fill="#16181D" stroke="#333538" stroke-width="0.75" stroke-linejoin="round"/>
<rect width="55.3998" height="18.0051" transform="matrix(0.866023 -0.500004 0 1 288.502 443.65)" fill="#16181D" stroke="#333538" stroke-width="0.75" stroke-linejoin="round"/>
<path d="M432.44 253.682L432.44 110.946L370.072 147.581L432.44 253.682Z" fill="#1A1C21" stroke="#333538" stroke-width="0.75"/>
<path d="M494.626 147.473L432.486 183.611L370.346 147.473L432.486 110.895L494.626 147.473Z" fill="#16181D" stroke="url(#paint2_linear_3007_329666)" stroke-width="0.75" stroke-linejoin="round"/>
<path d="M432.44 253.682L432.44 110.94L494.809 147.581L432.44 253.682Z" fill="#181A1F" stroke="#333538" stroke-width="0.75"/>
<path d="M494.632 147.472L432.489 183.611L370.346 147.472L432.489 110.891L494.632 147.472Z" fill="#15171C" stroke="#333538" stroke-width="0.75" stroke-linejoin="round"/>
<path d="M494.632 108.065L432.489 71.9258L370.346 108.065L432.489 144.646L494.632 108.065Z" fill="#16181D" stroke="url(#paint3_linear_3007_329666)" stroke-width="0.75" stroke-linejoin="round"/>
<path d="M432.44 1.85547L432.44 144.592L370.072 107.956L432.44 1.85547Z" fill="#1A1C21" stroke="#333538" stroke-width="0.75"/>
<path d="M494.626 108.064L432.486 71.9258L370.346 108.064L432.486 144.643L494.626 108.064Z" fill="#15171C" stroke="#333538" stroke-width="0.75" stroke-linejoin="round"/>
<path d="M432.44 1.85546L432.44 144.597L494.809 107.956L432.44 1.85546Z" fill="#1A1C21" stroke="#333538" stroke-width="0.75"/>
</g>
<defs>
<linearGradient id="paint0_linear_3007_329666" x1="447.571" y1="142.551" x2="448.338" y2="107.397" gradientUnits="userSpaceOnUse">
<stop stop-color="#FB7E51"/>
<stop offset="1" stop-color="#FF8F66"/>
</linearGradient>
<linearGradient id="paint1_linear_3007_329666" x1="447.575" y1="112.648" x2="448.341" y2="147.804" gradientUnits="userSpaceOnUse">
<stop stop-color="#FB7E51"/>
<stop offset="1" stop-color="#FF8F66"/>
</linearGradient>
<linearGradient id="paint2_linear_3007_329666" x1="447.772" y1="143.035" x2="448.539" y2="107.881" gradientUnits="userSpaceOnUse">
<stop stop-color="#FB7E51"/>
<stop offset="1" stop-color="#FF8F66"/>
</linearGradient>
<linearGradient id="paint3_linear_3007_329666" x1="447.776" y1="112.504" x2="448.542" y2="147.659" gradientUnits="userSpaceOnUse">
<stop stop-color="#FB7E51"/>
<stop offset="1" stop-color="#FF8F66"/>
</linearGradient>
<clipPath id="clip0_3007_329666">
<rect width="528" height="480" fill="white" transform="translate(48.5 58)"/>
</clipPath>
</defs>
</svg>
