<svg width="349" height="325" viewBox="0 0 349 325" fill="none" xmlns="http://www.w3.org/2000/svg">
<path d="M144.408 170.785V143.699" stroke="#333538" stroke-width="0.376346" stroke-linejoin="round"/>
<rect width="27.6999" height="27.6999" transform="matrix(0.866023 0.500004 -0.866023 0.500004 120.432 166.178)" fill="#16181D" stroke="#333538" stroke-width="0.376346" stroke-linejoin="round"/>
<rect width="27.6999" height="9.00254" transform="matrix(0.866023 0.500004 0 1 96.4453 180.027)" fill="#16181D" stroke="#333538" stroke-width="0.376346" stroke-linejoin="round"/>
<rect width="27.6999" height="9.00254" transform="matrix(0.866023 -0.500004 0 1 120.432 193.875)" fill="#16181D" stroke="#333538" stroke-width="0.376346" stroke-linejoin="round"/>
<rect width="27.6999" height="27.6999" transform="matrix(0.866023 0.500004 -0.866023 0.500004 144.436 180.076)" fill="#16181D" stroke="#333538" stroke-width="0.376346" stroke-linejoin="round"/>
<rect width="27.6999" height="9.00254" transform="matrix(0.866023 0.500004 0 1 120.449 193.926)" fill="#16181D" stroke="#333538" stroke-width="0.376346" stroke-linejoin="round"/>
<rect width="27.6999" height="9.00254" transform="matrix(0.866023 -0.500004 0 1 144.436 207.773)" fill="#16181D" stroke="#333538" stroke-width="0.376346" stroke-linejoin="round"/>
<rect width="27.6999" height="27.6999" transform="matrix(0.866023 0.500004 -0.866023 0.500004 288.355 287.916)" fill="#16181D" stroke="#333538" stroke-width="0.375" stroke-linejoin="round"/>
<rect width="27.6999" height="9.00254" transform="matrix(0.866023 0.500004 0 1 264.369 301.766)" fill="#181A1F" stroke="#333538" stroke-width="0.375" stroke-linejoin="round"/>
<rect width="27.6999" height="9.00254" transform="matrix(0.866023 -0.500004 0 1 288.355 315.617)" fill="#181A1F" stroke="#333538" stroke-width="0.375" stroke-linejoin="round"/>
<rect width="27.6999" height="27.6999" transform="matrix(0.866023 0.500004 -0.866023 0.500004 288.355 254.879)" fill="#181A1F" stroke="#333538" stroke-width="0.375" stroke-linejoin="round"/>
<rect width="27.6999" height="9.00254" transform="matrix(0.866023 0.500004 0 1 264.369 268.73)" fill="#181A1F" stroke="#333538" stroke-width="0.375" stroke-linejoin="round"/>
<rect width="27.6999" height="9.00254" transform="matrix(0.866023 -0.500004 0 1 288.355 282.582)" fill="#181A1F" stroke="#333538" stroke-width="0.375" stroke-linejoin="round"/>
<rect width="27.6999" height="27.6999" transform="matrix(0.866023 0.500004 -0.866023 0.500004 168.393 275.17)" fill="#16181D" stroke="#333538" stroke-width="0.375" stroke-linejoin="round"/>
<rect width="27.6999" height="9.00254" transform="matrix(0.866023 0.500004 0 1 144.406 289.02)" fill="#181A1F" stroke="#333538" stroke-width="0.375" stroke-linejoin="round"/>
<rect width="27.6999" height="9.00254" transform="matrix(0.866023 -0.500004 0 1 168.395 302.871)" fill="#181A1F" stroke="#333538" stroke-width="0.375" stroke-linejoin="round"/>
<rect width="27.6999" height="27.6999" transform="matrix(0.866023 0.500004 -0.866023 0.500004 324.344 53.8379)" fill="#181A1F" stroke="#333538" stroke-width="0.375" stroke-linejoin="round"/>
<rect width="27.6999" height="9.00254" transform="matrix(0.866023 0.500004 0 1 300.355 67.6875)" fill="#181A1F" stroke="#333538" stroke-width="0.375" stroke-linejoin="round"/>
<rect width="27.6999" height="9.00254" transform="matrix(0.866023 -0.500004 0 1 324.344 81.5391)" fill="#181A1F" stroke="#333538" stroke-width="0.375" stroke-linejoin="round"/>
<rect width="27.6999" height="27.6999" transform="matrix(0.866023 0.500004 -0.866023 0.500004 324.344 35.8379)" fill="#181A1F" stroke="#333538" stroke-width="0.375" stroke-linejoin="round"/>
<rect width="27.6999" height="9.00254" transform="matrix(0.866023 0.500004 0 1 300.355 49.6875)" fill="#181A1F" stroke="#333538" stroke-width="0.375" stroke-linejoin="round"/>
<rect width="27.6999" height="9.00254" transform="matrix(0.866023 -0.500004 0 1 324.344 63.5391)" fill="#181A1F" stroke="#333538" stroke-width="0.375" stroke-linejoin="round"/>
<rect width="27.6999" height="27.6999" transform="matrix(0.866023 0.500004 -0.866023 0.500004 288.355 162.91)" fill="#16181D" stroke="#333538" stroke-width="0.376346" stroke-linejoin="round"/>
<rect width="27.6999" height="9.00254" transform="matrix(0.866023 0.500004 0 1 264.369 176.76)" fill="#16181D" stroke="#333538" stroke-width="0.376346" stroke-linejoin="round"/>
<rect width="27.6999" height="9.00254" transform="matrix(0.866023 -0.500004 0 1 288.355 190.611)" fill="#16181D" stroke="#333538" stroke-width="0.376346" stroke-linejoin="round"/>
<rect width="27.6999" height="27.6999" transform="matrix(0.866023 0.500004 -0.866023 0.500004 264.365 176.758)" fill="#16181D" stroke="#333538" stroke-width="0.376346" stroke-linejoin="round"/>
<rect width="27.6999" height="9.00254" transform="matrix(0.866023 0.500004 0 1 240.379 190.609)" fill="#16181D" stroke="#333538" stroke-width="0.376346" stroke-linejoin="round"/>
<rect width="27.6999" height="9.00254" transform="matrix(0.866023 -0.500004 0 1 264.365 204.461)" fill="#16181D" stroke="#333538" stroke-width="0.376346" stroke-linejoin="round"/>
<rect width="27.6999" height="27.6999" transform="matrix(0.866023 0.500004 -0.866023 0.500004 240.379 190.602)" fill="#16181D" stroke="#333538" stroke-width="0.376346" stroke-linejoin="round"/>
<rect width="27.6999" height="9.00254" transform="matrix(0.866023 0.500004 0 1 216.393 204.453)" fill="#16181D" stroke="#333538" stroke-width="0.376346" stroke-linejoin="round"/>
<rect width="27.6999" height="9.00254" transform="matrix(0.866023 -0.500004 0 1 240.381 218.301)" fill="#16181D" stroke="#333538" stroke-width="0.376346" stroke-linejoin="round"/>
<rect width="27.6999" height="27.6999" transform="matrix(0.866023 0.500004 -0.866023 0.500004 216.393 204.463)" fill="#16181D" stroke="#333538" stroke-width="0.376346" stroke-linejoin="round"/>
<rect width="27.6999" height="9.00254" transform="matrix(0.866023 0.500004 0 1 192.406 218.312)" fill="#16181D" stroke="#333538" stroke-width="0.376346" stroke-linejoin="round"/>
<rect width="27.6999" height="9.00254" transform="matrix(0.866023 -0.500004 0 1 216.395 232.166)" fill="#16181D" stroke="#333538" stroke-width="0.376346" stroke-linejoin="round"/>
<rect width="27.6999" height="27.6999" transform="matrix(0.866023 0.500004 -0.866023 0.500004 168.393 247.643)" fill="#16181D" stroke="#333538" stroke-width="0.376346" stroke-linejoin="round"/>
<path d="M144.406 261.492L168.395 275.342V284.345L144.406 270.495V261.492Z" fill="#181A1F" stroke="#333538" stroke-width="0.375" stroke-linejoin="round"/>
<path d="M168.393 275.344L192.381 261.494V270.496L168.393 284.346V275.344Z" fill="#181A1F" stroke="#333538" stroke-width="0.375" stroke-linejoin="round"/>
<rect width="27.6999" height="27.6999" transform="matrix(0.866023 0.500004 -0.866023 0.500004 168.393 233.199)" fill="#16181D" stroke="#333538" stroke-width="0.376346" stroke-linejoin="round"/>
<rect width="27.6999" height="9.00254" transform="matrix(0.866023 0.500004 0 1 144.406 247.051)" fill="#16181D" stroke="#333538" stroke-width="0.376346" stroke-linejoin="round"/>
<rect width="27.6999" height="9.00254" transform="matrix(0.866023 -0.500004 0 1 168.393 260.9)" fill="#16181D" stroke="#333538" stroke-width="0.376346" stroke-linejoin="round"/>
<rect width="27.6999" height="27.6999" transform="matrix(0.866023 0.500004 -0.866023 0.500004 240.451 218.176)" fill="#16181D" stroke="#333538" stroke-width="0.376346" stroke-linejoin="round"/>
<rect width="27.6999" height="9.00254" transform="matrix(0.866023 0.500004 0 1 216.465 232.027)" fill="#16181D" stroke="#333538" stroke-width="0.376346" stroke-linejoin="round"/>
<rect width="27.6999" height="9.00254" transform="matrix(0.866023 -0.500004 0 1 240.451 245.879)" fill="#16181D" stroke="#333538" stroke-width="0.376346" stroke-linejoin="round"/>
<rect width="27.6999" height="27.6999" transform="matrix(0.866023 0.500004 -0.866023 0.500004 264.439 232.023)" fill="#16181D" stroke="#333538" stroke-width="0.375" stroke-linejoin="round"/>
<rect width="27.6999" height="9.00254" transform="matrix(0.866023 0.500004 0 1 240.453 245.875)" fill="#16181D" stroke="#333538" stroke-width="0.376346" stroke-linejoin="round"/>
<rect width="27.6999" height="9.00254" transform="matrix(0.866023 -0.500004 0 1 264.441 259.727)" fill="#16181D" stroke="#333538" stroke-width="0.376346" stroke-linejoin="round"/>
<rect width="27.6999" height="27.6999" transform="matrix(0.866023 0.500004 -0.866023 0.500004 120.393 143.488)" fill="#16181D" stroke="#333538" stroke-width="0.376346" stroke-linejoin="round"/>
<rect width="27.6999" height="9.00254" transform="matrix(0.866023 0.500004 0 1 96.4062 157.34)" fill="#16181D" stroke="#333538" stroke-width="0.376346" stroke-linejoin="round"/>
<rect width="27.6999" height="9.00254" transform="matrix(0.866023 -0.500004 0 1 120.395 171.191)" fill="#16181D" stroke="#333538" stroke-width="0.376346" stroke-linejoin="round"/>
<rect width="27.6999" height="27.6999" transform="matrix(0.866023 0.500004 -0.866023 0.500004 288.355 145.703)" fill="#16181D" stroke="#333538" stroke-width="0.376346" stroke-linejoin="round"/>
<rect width="27.6999" height="9.00254" transform="matrix(0.866023 0.500004 0 1 264.369 159.555)" fill="#16181D" stroke="#333538" stroke-width="0.376346" stroke-linejoin="round"/>
<rect width="27.6999" height="9.00254" transform="matrix(0.866023 -0.500004 0 1 288.355 173.406)" fill="#16181D" stroke="#333538" stroke-width="0.376346" stroke-linejoin="round"/>
<rect width="27.6999" height="27.6999" transform="matrix(0.866023 0.500004 -0.866023 0.500004 96.4512 206.623)" fill="#16181D" stroke="#333538" stroke-width="0.376346" stroke-linejoin="round"/>
<rect width="27.6999" height="9.00254" transform="matrix(0.866023 0.500004 0 1 72.4648 220.473)" fill="#16181D" stroke="#333538" stroke-width="0.376346" stroke-linejoin="round"/>
<rect width="27.6999" height="9.00254" transform="matrix(0.866023 -0.500004 0 1 96.4512 234.324)" fill="#16181D" stroke="#333538" stroke-width="0.376346" stroke-linejoin="round"/>
<rect width="27.6999" height="27.6999" transform="matrix(0.866023 0.500004 -0.866023 0.500004 120.443 220.473)" fill="#16181D" stroke="#333538" stroke-width="0.376346" stroke-linejoin="round"/>
<rect width="27.6999" height="9.00254" transform="matrix(0.866023 0.500004 0 1 96.457 234.324)" fill="#16181D" stroke="#333538" stroke-width="0.376346" stroke-linejoin="round"/>
<rect width="27.6999" height="9.00254" transform="matrix(0.866023 -0.500004 0 1 120.445 248.174)" fill="#16181D" stroke="#333538" stroke-width="0.376346" stroke-linejoin="round"/>
<rect width="27.6999" height="27.6999" transform="matrix(0.866023 0.500004 -0.866023 0.500004 72.4648 229.473)" fill="#16181D" stroke="#333538" stroke-width="0.376346" stroke-linejoin="round"/>
<rect width="27.6999" height="9.00254" transform="matrix(0.866023 0.500004 0 1 48.4766 243.324)" fill="#16181D" stroke="#333538" stroke-width="0.376346" stroke-linejoin="round"/>
<rect width="27.6999" height="9.00254" transform="matrix(0.866023 -0.500004 0 1 72.4648 257.174)" fill="#16181D" stroke="#333538" stroke-width="0.376346" stroke-linejoin="round"/>
<rect width="27.6999" height="27.6999" transform="matrix(0.866023 0.500004 -0.866023 0.500004 24.4922 257.395)" fill="#16181D" stroke="#333538" stroke-width="0.375" stroke-linejoin="round"/>
<path d="M0.505859 271.246L24.4946 285.096V294.099L0.505859 280.249V271.246Z" fill="#181A1F" stroke="#333538" stroke-width="0.375" stroke-linejoin="round"/>
<path d="M24.4922 285.098L48.481 271.248V280.25L24.4922 294.1V285.098Z" fill="#181A1F" stroke="#333538" stroke-width="0.375" stroke-linejoin="round"/>
<rect width="27.6999" height="27.6999" transform="matrix(0.866023 0.500004 -0.866023 0.500004 96.4922 234.178)" fill="#16181D" stroke="#333538" stroke-width="0.376346" stroke-linejoin="round"/>
<rect width="27.6999" height="9.00254" transform="matrix(0.866023 0.500004 0 1 72.5059 248.027)" fill="#16181D" stroke="#333538" stroke-width="0.376346" stroke-linejoin="round"/>
<rect width="27.6999" height="9.00254" transform="matrix(0.866023 -0.500004 0 1 96.4922 261.879)" fill="#16181D" stroke="#333538" stroke-width="0.376346" stroke-linejoin="round"/>
<rect width="27.6999" height="27.6999" transform="matrix(0.866023 0.500004 -0.866023 0.500004 120.432 211.414)" fill="#16181D" stroke="#333538" stroke-width="0.376346" stroke-linejoin="round"/>
<rect width="27.6999" height="9.00254" transform="matrix(0.866023 0.500004 0 1 96.4453 225.266)" fill="#16181D" stroke="#333538" stroke-width="0.376346" stroke-linejoin="round"/>
<rect width="27.6999" height="9.00254" transform="matrix(0.866023 -0.500004 0 1 120.434 239.115)" fill="#16181D" stroke="#333538" stroke-width="0.376346" stroke-linejoin="round"/>
<rect width="27.6999" height="27.6999" transform="matrix(0.866023 0.500004 -0.866023 0.500004 120.441 202.779)" fill="#16181D" stroke="#333538" stroke-width="0.376346" stroke-linejoin="round"/>
<rect width="27.6999" height="9.00254" transform="matrix(0.866023 0.500004 0 1 96.4551 216.629)" fill="#16181D" stroke="#333538" stroke-width="0.376346" stroke-linejoin="round"/>
<rect width="27.6999" height="9.00254" transform="matrix(0.866023 -0.500004 0 1 120.443 230.48)" fill="#16181D" stroke="#333538" stroke-width="0.376346" stroke-linejoin="round"/>
<rect width="27.6999" height="27.6999" transform="matrix(0.866023 0.500004 -0.866023 0.500004 168.447 84.5234)" fill="#16181D" stroke="#333538" stroke-width="0.376346" stroke-linejoin="round"/>
<rect width="27.6999" height="9.00254" transform="matrix(0.866023 0.500004 0 1 144.461 98.375)" fill="#16181D" stroke="#333538" stroke-width="0.376346" stroke-linejoin="round"/>
<rect width="27.6999" height="9.00254" transform="matrix(0.866023 -0.500004 0 1 168.449 112.227)" fill="#16181D" stroke="#333538" stroke-width="0.376346" stroke-linejoin="round"/>
<rect width="27.6999" height="27.6999" transform="matrix(0.866023 0.500004 -0.866023 0.500004 120.393 111.969)" fill="#16181D" stroke="#333538" stroke-width="0.376346" stroke-linejoin="round"/>
<rect width="27.6999" height="9.00254" transform="matrix(0.866023 0.500004 0 1 96.4062 125.82)" fill="#16181D" stroke="#333538" stroke-width="0.376346" stroke-linejoin="round"/>
<rect width="27.6999" height="9.00254" transform="matrix(0.866023 -0.500004 0 1 120.393 139.672)" fill="#16181D" stroke="#333538" stroke-width="0.376346" stroke-linejoin="round"/>
<rect width="27.6999" height="27.6999" transform="matrix(0.866023 0.500004 -0.866023 0.500004 120.393 87.8379)" fill="#16181D" stroke="#333538" stroke-width="0.376346" stroke-linejoin="round"/>
<rect width="27.6999" height="9.00254" transform="matrix(0.866023 0.500004 0 1 96.4062 101.688)" fill="#16181D" stroke="#333538" stroke-width="0.376346" stroke-linejoin="round"/>
<rect width="27.6999" height="9.00254" transform="matrix(0.866023 -0.500004 0 1 120.395 115.539)" fill="#16181D" stroke="#333538" stroke-width="0.376346" stroke-linejoin="round"/>
<rect width="27.6999" height="27.6999" transform="matrix(0.866023 0.500004 -0.866023 0.500004 168.447 75.6133)" fill="#16181D" stroke="#333538" stroke-width="0.376346" stroke-linejoin="round"/>
<rect width="27.6999" height="9.00254" transform="matrix(0.866023 0.500004 0 1 144.461 89.4648)" fill="#16181D" stroke="#333538" stroke-width="0.376346" stroke-linejoin="round"/>
<rect width="27.6999" height="9.00254" transform="matrix(0.866023 -0.500004 0 1 168.449 103.316)" fill="#16181D" stroke="#333538" stroke-width="0.376346" stroke-linejoin="round"/>
<rect width="27.6999" height="27.6999" transform="matrix(0.866023 0.500004 -0.866023 0.500004 288.355 203.279)" fill="#16181D" stroke="#333538" stroke-width="0.376346" stroke-linejoin="round"/>
<rect width="27.6999" height="9.00254" transform="matrix(0.866023 0.500004 0 1 264.367 217.129)" fill="#16181D" stroke="#333538" stroke-width="0.376346" stroke-linejoin="round"/>
<rect width="27.6999" height="9.00254" transform="matrix(0.866023 -0.500004 0 1 288.355 230.98)" fill="#16181D" stroke="#333538" stroke-width="0.376346" stroke-linejoin="round"/>
<rect width="27.6999" height="27.6999" transform="matrix(0.866023 0.500004 -0.866023 0.500004 288.354 120.17)" fill="#16181D" stroke="#333538" stroke-width="0.376346" stroke-linejoin="round"/>
<rect width="27.6999" height="9.00254" transform="matrix(0.866023 0.500004 0 1 264.367 134.02)" fill="#16181D" stroke="#333538" stroke-width="0.376346" stroke-linejoin="round"/>
<rect width="27.6999" height="9.00254" transform="matrix(0.866023 -0.500004 0 1 288.355 147.871)" fill="#16181D" stroke="#333538" stroke-width="0.376346" stroke-linejoin="round"/>
<rect width="27.6999" height="27.6999" transform="matrix(0.866023 0.500004 -0.866023 0.500004 288.352 111.467)" fill="#16181D" stroke="#333538" stroke-width="0.376346" stroke-linejoin="round"/>
<rect width="27.6999" height="9.00254" transform="matrix(0.866023 0.500004 0 1 264.365 125.316)" fill="#16181D" stroke="#333538" stroke-width="0.376346" stroke-linejoin="round"/>
<rect width="27.6999" height="9.00254" transform="matrix(0.866023 -0.500004 0 1 288.352 139.168)" fill="#16181D" stroke="#333538" stroke-width="0.376346" stroke-linejoin="round"/>
<rect width="27.6999" height="27.6999" transform="matrix(0.866023 0.500004 -0.866023 0.500004 288.355 102.762)" fill="#16181D" stroke="#333538" stroke-width="0.376346" stroke-linejoin="round"/>
<rect width="27.6999" height="9.00254" transform="matrix(0.866023 0.500004 0 1 264.367 116.613)" fill="#16181D" stroke="#333538" stroke-width="0.376346" stroke-linejoin="round"/>
<rect width="27.6999" height="9.00254" transform="matrix(0.866023 -0.500004 0 1 288.355 130.465)" fill="#16181D" stroke="#333538" stroke-width="0.376346" stroke-linejoin="round"/>
<rect width="27.6999" height="27.6999" transform="matrix(0.866023 0.500004 -0.866023 0.500004 288.354 94.0547)" fill="#16181D" stroke="#333538" stroke-width="0.376346" stroke-linejoin="round"/>
<rect width="27.6999" height="9.00254" transform="matrix(0.866023 0.500004 0 1 264.367 107.906)" fill="#16181D" stroke="#333538" stroke-width="0.376346" stroke-linejoin="round"/>
<rect width="27.6999" height="9.00254" transform="matrix(0.866023 -0.500004 0 1 288.355 121.76)" fill="#16181D" stroke="#333538" stroke-width="0.376346" stroke-linejoin="round"/>
<rect width="27.6999" height="27.6999" transform="matrix(0.866023 0.500004 -0.866023 0.500004 288.354 85.502)" fill="#16181D" stroke="#333538" stroke-width="0.376346" stroke-linejoin="round"/>
<rect width="27.6999" height="9.00254" transform="matrix(0.866023 0.500004 0 1 264.367 99.2031)" fill="#16181D" stroke="#333538" stroke-width="0.376346" stroke-linejoin="round"/>
<rect width="27.6999" height="9.00254" transform="matrix(0.866023 -0.500004 0 1 288.355 113.055)" fill="#16181D" stroke="#333538" stroke-width="0.376346" stroke-linejoin="round"/>
<rect width="27.6999" height="27.6999" transform="matrix(0.866023 0.500004 -0.866023 0.500004 72.4785 184.049)" fill="#16181D" stroke="#333538" stroke-width="0.376346" stroke-linejoin="round"/>
<rect width="27.6999" height="9.00254" transform="matrix(0.866023 0.500004 0 1 48.4922 197.898)" fill="#16181D" stroke="#333538" stroke-width="0.376346" stroke-linejoin="round"/>
<rect width="27.6999" height="9.00254" transform="matrix(0.866023 -0.500004 0 1 72.4805 211.75)" fill="#16181D" stroke="#333538" stroke-width="0.376346" stroke-linejoin="round"/>
<rect width="27.6999" height="27.6999" transform="matrix(0.866023 0.500004 -0.866023 0.500004 72.4805 165.344)" fill="#16181D" stroke="#333538" stroke-width="0.376346" stroke-linejoin="round"/>
<rect width="27.6999" height="9.00254" transform="matrix(0.866023 0.500004 0 1 48.4941 179.193)" fill="#16181D" stroke="#333538" stroke-width="0.376346" stroke-linejoin="round"/>
<rect width="27.6999" height="9.00254" transform="matrix(0.866023 -0.500004 0 1 72.4805 193.047)" fill="#16181D" stroke="#333538" stroke-width="0.376346" stroke-linejoin="round"/>
<rect width="27.6999" height="27.6999" transform="matrix(0.866023 0.500004 -0.866023 0.500004 72.4805 156.639)" fill="#16181D" stroke="#333538" stroke-width="0.376346" stroke-linejoin="round"/>
<rect width="27.6999" height="9.00254" transform="matrix(0.866023 0.500004 0 1 48.4922 170.488)" fill="#16181D" stroke="#333538" stroke-width="0.376346" stroke-linejoin="round"/>
<rect width="27.6999" height="9.00254" transform="matrix(0.866023 -0.500004 0 1 72.4805 184.34)" fill="#16181D" stroke="#333538" stroke-width="0.376346" stroke-linejoin="round"/>
<rect width="27.6999" height="27.6999" transform="matrix(0.866023 0.500004 -0.866023 0.500004 72.4785 122.309)" fill="#16181D" stroke="#333538" stroke-width="0.376346" stroke-linejoin="round"/>
<rect width="27.6999" height="9.00254" transform="matrix(0.866023 0.500004 0 1 48.4922 136.16)" fill="#16181D" stroke="#333538" stroke-width="0.376346" stroke-linejoin="round"/>
<rect width="27.6999" height="9.00254" transform="matrix(0.866023 -0.500004 0 1 72.4805 150.014)" fill="#16181D" stroke="#333538" stroke-width="0.376346" stroke-linejoin="round"/>
<rect width="27.6999" height="27.6999" transform="matrix(0.866023 0.500004 -0.866023 0.500004 72.4805 55.3789)" fill="#16181D" stroke="#333538" stroke-width="0.376346" stroke-linejoin="round"/>
<rect width="27.6999" height="9.00254" transform="matrix(0.866023 0.500004 0 1 48.4922 69.0781)" fill="#16181D" stroke="#333538" stroke-width="0.376346" stroke-linejoin="round"/>
<rect width="27.6999" height="9.00254" transform="matrix(0.866023 -0.500004 0 1 72.4805 82.9297)" fill="#16181D" stroke="#333538" stroke-width="0.376346" stroke-linejoin="round"/>
<rect width="27.6999" height="27.6999" transform="matrix(0.866023 0.500004 -0.866023 0.500004 72.502 46.2266)" fill="#16181D" stroke="#333538" stroke-width="0.376346" stroke-linejoin="round"/>
<rect width="27.6999" height="9.00254" transform="matrix(0.866023 0.500004 0 1 48.5156 60.0781)" fill="#16181D" stroke="#333538" stroke-width="0.376346" stroke-linejoin="round"/>
<rect width="27.6999" height="9.00254" transform="matrix(0.866023 -0.500004 0 1 72.5039 73.9297)" fill="#16181D" stroke="#333538" stroke-width="0.376346" stroke-linejoin="round"/>
<rect width="27.6999" height="27.6999" transform="matrix(0.866023 0.500004 -0.866023 0.500004 240.395 174.799)" fill="#16181D" stroke="#333538" stroke-width="0.376346" stroke-linejoin="round"/>
<rect width="27.6999" height="9.00254" transform="matrix(0.866023 0.500004 0 1 216.408 188.648)" fill="#16181D" stroke="#333538" stroke-width="0.376346" stroke-linejoin="round"/>
<rect width="27.6999" height="9.00254" transform="matrix(0.866023 -0.500004 0 1 240.396 202.5)" fill="#16181D" stroke="#333538" stroke-width="0.376346" stroke-linejoin="round"/>
<rect width="27.6999" height="27.6999" transform="matrix(0.866023 0.500004 -0.866023 0.500004 240.395 154.096)" fill="#16181D" stroke="#333538" stroke-width="0.376346" stroke-linejoin="round"/>
<rect width="27.6999" height="9.00254" transform="matrix(0.866023 0.500004 0 1 216.408 167.945)" fill="#16181D" stroke="#333538" stroke-width="0.376346" stroke-linejoin="round"/>
<rect width="27.6999" height="9.00254" transform="matrix(0.866023 -0.500004 0 1 240.395 181.797)" fill="#16181D" stroke="#333538" stroke-width="0.376346" stroke-linejoin="round"/>
<rect width="27.6999" height="27.6999" transform="matrix(0.866023 0.500004 -0.866023 0.500004 240.395 133.393)" fill="#16181D" stroke="#333538" stroke-width="0.376346" stroke-linejoin="round"/>
<rect width="27.6999" height="9.00254" transform="matrix(0.866023 0.500004 0 1 216.408 147.242)" fill="#16181D" stroke="#333538" stroke-width="0.376346" stroke-linejoin="round"/>
<rect width="27.6999" height="9.00254" transform="matrix(0.866023 -0.500004 0 1 240.396 161.094)" fill="#16181D" stroke="#333538" stroke-width="0.376346" stroke-linejoin="round"/>
<rect width="27.6999" height="27.6999" transform="matrix(0.866023 0.500004 -0.866023 0.500004 240.395 112.688)" fill="#16181D" stroke="#333538" stroke-width="0.376346" stroke-linejoin="round"/>
<rect width="27.6999" height="9.00254" transform="matrix(0.866023 0.500004 0 1 216.408 126.539)" fill="#16181D" stroke="#333538" stroke-width="0.376346" stroke-linejoin="round"/>
<rect width="27.6999" height="9.00254" transform="matrix(0.866023 -0.500004 0 1 240.396 140.391)" fill="#16181D" stroke="#333538" stroke-width="0.376346" stroke-linejoin="round"/>
<rect width="27.6999" height="27.6999" transform="matrix(0.866023 0.500004 -0.866023 0.500004 168.107 129.975)" fill="#16181D" stroke="#333538" stroke-width="0.376346" stroke-linejoin="round"/>
<rect width="27.6999" height="9.00254" transform="matrix(0.866023 0.500004 0 1 144.121 143.824)" fill="#16181D" stroke="#333538" stroke-width="0.376346" stroke-linejoin="round"/>
<rect width="27.6999" height="9.00254" transform="matrix(0.866023 -0.500004 0 1 168.109 157.676)" fill="#16181D" stroke="#333538" stroke-width="0.376346" stroke-linejoin="round"/>
<rect width="27.6999" height="27.6999" transform="matrix(0.866023 0.500004 -0.866023 0.500004 168.395 112.01)" fill="#16181D" stroke="#333538" stroke-width="0.376346" stroke-linejoin="round"/>
<rect width="27.6999" height="9.00254" transform="matrix(0.866023 0.500004 0 1 144.406 125.859)" fill="#16181D" stroke="#333538" stroke-width="0.376346" stroke-linejoin="round"/>
<rect width="27.6999" height="9.00254" transform="matrix(0.866023 -0.500004 0 1 168.395 139.711)" fill="#16181D" stroke="#333538" stroke-width="0.376346" stroke-linejoin="round"/>
<rect width="27.6999" height="27.6999" transform="matrix(0.866023 0.500004 -0.866023 0.500004 144.436 143.488)" fill="#16181D" stroke="#333538" stroke-width="0.376346" stroke-linejoin="round"/>
<rect width="27.6999" height="9.00254" transform="matrix(0.866023 0.500004 0 1 120.449 157.34)" fill="#16181D" stroke="#333538" stroke-width="0.376346" stroke-linejoin="round"/>
<rect width="27.6999" height="9.00254" transform="matrix(0.866023 -0.500004 0 1 144.438 171.189)" fill="#16181D" stroke="#333538" stroke-width="0.376346" stroke-linejoin="round"/>
<rect width="27.6999" height="27.6999" transform="matrix(0.866023 0.500004 -0.866023 0.500004 144.436 134.834)" fill="#16181D" stroke="#333538" stroke-width="0.376346" stroke-linejoin="round"/>
<rect width="27.6999" height="9.00254" transform="matrix(0.866023 0.500004 0 1 120.449 148.684)" fill="#16181D" stroke="#333538" stroke-width="0.376346" stroke-linejoin="round"/>
<rect width="27.6999" height="9.00254" transform="matrix(0.866023 -0.500004 0 1 144.436 162.535)" fill="#16181D" stroke="#333538" stroke-width="0.376346" stroke-linejoin="round"/>
<rect width="27.6999" height="27.6999" transform="matrix(0.866023 0.500004 -0.866023 0.500004 144.436 125.787)" fill="#16181D" stroke="#333538" stroke-width="0.376346" stroke-linejoin="round"/>
<rect width="27.6999" height="9.00254" transform="matrix(0.866023 0.500004 0 1 120.449 139.637)" fill="#16181D" stroke="#333538" stroke-width="0.376346" stroke-linejoin="round"/>
<rect width="27.6999" height="9.00254" transform="matrix(0.866023 -0.500004 0 1 144.436 153.488)" fill="#16181D" stroke="#333538" stroke-width="0.376346" stroke-linejoin="round"/>
<rect width="27.6999" height="27.6999" transform="matrix(0.866023 0.500004 -0.866023 0.500004 192.4 218.172)" fill="#16181D" stroke="#333538" stroke-width="0.376346" stroke-linejoin="round"/>
<rect width="27.6999" height="9.00254" transform="matrix(0.866023 0.500004 0 1 168.414 232.023)" fill="#16181D" stroke="#333538" stroke-width="0.376346" stroke-linejoin="round"/>
<rect width="27.6999" height="9.00254" transform="matrix(0.866023 -0.500004 0 1 192.402 245.873)" fill="#16181D" stroke="#333538" stroke-width="0.376346" stroke-linejoin="round"/>
<rect width="27.6999" height="27.6999" transform="matrix(0.866023 0.500004 -0.866023 0.500004 168.4 215.381)" fill="#16181D" stroke="#333538" stroke-width="0.376346" stroke-linejoin="round"/>
<rect width="27.6999" height="9.00254" transform="matrix(0.866023 0.500004 0 1 144.414 229.23)" fill="#16181D" stroke="#333538" stroke-width="0.376346" stroke-linejoin="round"/>
<rect width="27.6999" height="9.00254" transform="matrix(0.866023 -0.500004 0 1 168.402 243.082)" fill="#16181D" stroke="#333538" stroke-width="0.376346" stroke-linejoin="round"/>
<rect width="27.6999" height="27.6999" transform="matrix(0.866023 0.500004 -0.866023 0.500004 168.4 202.881)" fill="#16181D" stroke="#333538" stroke-width="0.376346" stroke-linejoin="round"/>
<rect width="27.6999" height="9.00254" transform="matrix(0.866023 0.500004 0 1 144.414 216.73)" fill="#16181D" stroke="#333538" stroke-width="0.376346" stroke-linejoin="round"/>
<rect width="27.6999" height="9.00254" transform="matrix(0.866023 -0.500004 0 1 168.402 230.582)" fill="#16181D" stroke="#333538" stroke-width="0.376346" stroke-linejoin="round"/>
<rect width="27.6999" height="27.6999" transform="matrix(0.866023 0.500004 -0.866023 0.500004 168.4 193.881)" fill="#16181D" stroke="#333538" stroke-width="0.376346" stroke-linejoin="round"/>
<rect width="27.6999" height="9.00254" transform="matrix(0.866023 0.500004 0 1 144.414 207.73)" fill="#16181D" stroke="#333538" stroke-width="0.376346" stroke-linejoin="round"/>
<rect width="27.6999" height="9.00254" transform="matrix(0.866023 -0.500004 0 1 168.402 221.582)" fill="#16181D" stroke="#333538" stroke-width="0.376346" stroke-linejoin="round"/>
<path d="M240.37 126.6L240.37 55.2315L209.186 73.5492L240.37 126.6Z" fill="#16181D" stroke="#333538" stroke-width="0.375" stroke-linejoin="round"/>
<path d="M271.463 73.4954L240.392 91.5645L209.322 73.4954L240.392 55.2061L271.463 73.4954Z" fill="#16181D" stroke="url(#paint0_linear_2417_312615)" stroke-width="0.375" stroke-linejoin="round"/>
<path d="M240.371 126.6L240.371 55.2288L271.555 73.5492L240.371 126.6Z" fill="#333538" stroke="#333538" stroke-width="0.375" stroke-linejoin="round"/>
<path d="M271.465 73.4946L240.394 91.5645L209.322 73.4946L240.394 55.2045L271.465 73.4946Z" fill="#16181D" stroke="#333538" stroke-width="0.376346" stroke-linejoin="round"/>
<path d="M271.465 54.105L240.394 36.0352L209.322 54.105L240.394 72.3952L271.465 54.105Z" fill="#16181D" stroke="url(#paint1_linear_2417_312615)" stroke-width="0.375" stroke-linejoin="round"/>
<path d="M240.37 1L240.37 72.3681L209.186 54.0504L240.37 1Z" fill="#1A1C21" stroke="#333538" stroke-width="0.375"/>
<path d="M271.463 54.1042L240.392 36.0352L209.322 54.1042L240.392 72.3936L271.463 54.1042Z" fill="#16181D" stroke="#333538" stroke-width="0.376346" stroke-linejoin="round"/>
<path d="M240.371 0.999997L240.371 72.3708L271.555 54.0504L240.371 0.999997Z" fill="#181A1F" stroke="#333538" stroke-width="0.375"/>
<defs>
<linearGradient id="paint0_linear_2417_312615" x1="248.036" y1="71.2765" x2="248.419" y2="53.6993" gradientUnits="userSpaceOnUse">
<stop stop-color="#FB7E51"/>
<stop offset="1" stop-color="#FF8F66"/>
</linearGradient>
<linearGradient id="paint1_linear_2417_312615" x1="248.037" y1="56.324" x2="248.421" y2="73.9019" gradientUnits="userSpaceOnUse">
<stop stop-color="#FB7E51"/>
<stop offset="1" stop-color="#FF8F66"/>
</linearGradient>
</defs>
</svg>
