<svg width="650" height="1242" viewBox="0 0 650 1242" fill="none" xmlns="http://www.w3.org/2000/svg">
<path d="M600.535 1032.03H576.201V1056.03H600.535V1032.03Z" stroke="#181A1F" stroke-width="0.75" stroke-miterlimit="10"/>
<path d="M600.535 1008.03H576.201V1032.03H600.535V1008.03Z" stroke="#181A1F" stroke-width="0.75" stroke-miterlimit="10"/>
<path d="M600.535 984.025H576.201V1008.03H600.535V984.025Z" stroke="#181A1F" stroke-width="0.75" stroke-miterlimit="10"/>
<path d="M624.867 984.025H600.533V1008.03H624.867V984.025Z" stroke="#181A1F" stroke-width="0.75" stroke-miterlimit="10"/>
<path d="M600.535 936.025H576.201V960.025H600.535V936.025Z" stroke="#181A1F" stroke-width="0.75" stroke-miterlimit="10"/>
<path d="M624.867 936.025H600.533V960.025H624.867V936.025Z" stroke="#181A1F" stroke-width="0.75" stroke-miterlimit="10"/>
<path d="M649.202 936.025H624.869V960.025H649.202V936.025Z" stroke="#181A1F" stroke-width="0.75" stroke-miterlimit="10"/>
<path d="M600.535 888.025H576.201V912.025H600.535V888.025Z" stroke="#181A1F" stroke-width="0.75" stroke-miterlimit="10"/>
<path d="M624.867 888.025H600.533V912.025H624.867V888.025Z" stroke="#181A1F" stroke-width="0.75" stroke-miterlimit="10"/>
<path d="M600.535 792.025H576.201V816.025H600.535V792.025Z" stroke="#181A1F" stroke-width="0.75" stroke-miterlimit="10"/>
<path d="M624.867 792.025H600.533V816.025H624.867V792.025Z" fill="#16181D" stroke="#333538" stroke-width="0.75" stroke-linejoin="round"/>
<path d="M649.202 792.025H624.869V816.025H649.202V792.025Z" fill="#16181D" stroke="#333538" stroke-width="0.75" stroke-linejoin="round"/>
<path d="M600.535 768.025H576.201V792.025H600.535V768.025Z" stroke="#181A1F" stroke-width="0.75" stroke-miterlimit="10"/>
<path d="M624.867 768.025H600.533V792.025H624.867V768.025Z" fill="#16181D" stroke="#333538" stroke-width="0.75" stroke-linejoin="round"/>
<rect width="55.3998" height="55.3998" transform="matrix(0.866023 0.500004 -0.866023 0.500004 288.365 535.525)" fill="#16181D" stroke="#333538" stroke-width="0.75" stroke-linejoin="round"/>
<rect width="55.3998" height="18.0051" transform="matrix(0.866023 0.500004 0 1 240.391 563.227)" fill="#16181D" stroke="#333538" stroke-width="0.75" stroke-linejoin="round"/>
<rect width="55.3998" height="18.0051" transform="matrix(0.866023 -0.500004 0 1 288.367 590.93)" fill="#181A1F" stroke="#333538" stroke-width="0.75" stroke-linejoin="round"/>
<rect width="55.3998" height="55.3998" transform="matrix(0.866023 0.500004 -0.866023 0.500004 240.383 563.266)" fill="#16181D" stroke="#333538" stroke-width="0.75" stroke-linejoin="round"/>
<rect width="55.3998" height="18.0051" transform="matrix(0.866023 0.500004 0 1 192.408 590.967)" fill="#16181D" stroke="#333538" stroke-width="0.75" stroke-linejoin="round"/>
<rect width="55.3998" height="18.0051" transform="matrix(0.866023 -0.500004 0 1 240.383 618.67)" fill="#181A1F" stroke="#333538" stroke-width="0.75" stroke-linejoin="round"/>
<rect width="55.3998" height="55.3998" transform="matrix(0.866023 0.500004 -0.866023 0.500004 192.402 590.945)" fill="#16181D" stroke="#333538" stroke-width="0.75" stroke-linejoin="round"/>
<rect width="55.3998" height="18.0051" transform="matrix(0.866023 0.500004 0 1 144.428 618.646)" fill="#16181D" stroke="#333538" stroke-width="0.75" stroke-linejoin="round"/>
<rect width="55.3998" height="18.0051" transform="matrix(0.866023 -0.500004 0 1 192.402 646.348)" fill="#16181D" stroke="#333538" stroke-width="0.75" stroke-linejoin="round"/>
<rect width="55.3998" height="55.3998" transform="matrix(0.866023 0.500004 -0.866023 0.500004 240.391 618.65)" fill="#16181D" stroke="#333538" stroke-width="0.75" stroke-linejoin="round"/>
<rect width="55.3998" height="18.0051" transform="matrix(0.866023 0.500004 0 1 192.416 646.352)" fill="#16181D" stroke="#333538" stroke-width="0.75" stroke-linejoin="round"/>
<rect width="55.3998" height="18.0051" transform="matrix(0.866023 -0.500004 0 1 240.391 674.055)" fill="#16181D" stroke="#333538" stroke-width="0.75" stroke-linejoin="round"/>
<rect width="55.3998" height="55.3998" transform="matrix(0.866023 0.500004 -0.866023 0.500004 288.373 646.346)" fill="#16181D" stroke="#333538" stroke-width="0.75" stroke-linejoin="round"/>
<rect width="55.3998" height="18.0051" transform="matrix(0.866023 0.500004 0 1 240.398 674.047)" fill="#16181D" stroke="#333538" stroke-width="0.75" stroke-linejoin="round"/>
<rect width="55.3998" height="18.0051" transform="matrix(0.866023 -0.500004 0 1 288.375 701.75)" fill="#16181D" stroke="#333538" stroke-width="0.75" stroke-linejoin="round"/>
<rect width="55.3998" height="55.3998" transform="matrix(0.866023 0.500004 -0.866023 0.500004 144.43 618.65)" fill="#16181D" stroke="#333538" stroke-width="0.75" stroke-linejoin="round"/>
<rect width="55.3998" height="18.0051" transform="matrix(0.866023 0.500004 0 1 96.4551 646.352)" fill="#16181D" stroke="#333538" stroke-width="0.75" stroke-linejoin="round"/>
<rect width="55.3998" height="18.0051" transform="matrix(0.866023 -0.500004 0 1 144.432 674.055)" fill="#16181D" stroke="#333538" stroke-width="0.75" stroke-linejoin="round"/>
<rect width="55.3998" height="55.3998" transform="matrix(0.866023 0.500004 -0.866023 0.500004 96.457 646.344)" fill="#16181D" stroke="#333538" stroke-width="0.75" stroke-linejoin="round"/>
<rect width="55.3998" height="18.0051" transform="matrix(0.866023 0.500004 0 1 48.4824 674.045)" fill="#16181D" stroke="#333538" stroke-width="0.75" stroke-linejoin="round"/>
<rect width="55.3998" height="18.0051" transform="matrix(0.866023 -0.500004 0 1 96.457 701.748)" fill="#16181D" stroke="#333538" stroke-width="0.75" stroke-linejoin="round"/>
<rect width="55.3998" height="55.3998" transform="matrix(0.866023 0.500004 -0.866023 0.500004 48.4766 674.041)" fill="#16181D" stroke="#333538" stroke-width="0.75" stroke-linejoin="round"/>
<rect width="55.3998" height="18.0051" transform="matrix(0.866023 0.500004 0 1 0.501953 701.742)" fill="#181A1F" stroke="#333538" stroke-width="0.75" stroke-linejoin="round"/>
<rect width="55.3998" height="18.0051" transform="matrix(0.866023 -0.500004 0 1 48.4766 729.445)" fill="#16181D" stroke="#333538" stroke-width="0.75" stroke-linejoin="round"/>
<path d="M432.385 982.775V691.9" stroke="#333538" stroke-width="0.75" stroke-linejoin="round"/>
<path d="M384.383 989.578V718.83" stroke="#333538" stroke-width="0.75" stroke-linejoin="round"/>
<path d="M336.354 989.569V747.043" stroke="#333538" stroke-width="0.75" stroke-linejoin="round"/>
<path d="M288.379 992.83V774.564" stroke="#333538" stroke-width="0.75" stroke-linejoin="round"/>
<path d="M240.385 856.24V802.068" stroke="#333538" stroke-width="0.75" stroke-linejoin="round"/>
<path d="M192.35 884.433V830.262" stroke="#333538" stroke-width="0.75" stroke-linejoin="round"/>
<rect width="55.3998" height="55.3998" transform="matrix(0.866023 0.500004 -0.866023 0.500004 432.301 618.646)" fill="#16181D" stroke="#333538" stroke-width="0.75" stroke-linejoin="round"/>
<rect width="55.3998" height="18.0051" transform="matrix(0.866023 0.500004 0 1 384.326 646.348)" fill="#16181D" stroke="#333538" stroke-width="0.75" stroke-linejoin="round"/>
<rect width="55.3998" height="18.0051" transform="matrix(0.866023 -0.500004 0 1 432.303 674.049)" fill="#16181D" stroke="#333538" stroke-width="0.75" stroke-linejoin="round"/>
<rect width="55.3998" height="55.3998" transform="matrix(0.866023 0.500004 -0.866023 0.500004 384.322 646.367)" fill="#16181D" stroke="#333538" stroke-width="0.75" stroke-linejoin="round"/>
<rect width="55.3998" height="18.0051" transform="matrix(0.866023 0.500004 0 1 336.348 674.068)" fill="#16181D" stroke="#333538" stroke-width="0.75" stroke-linejoin="round"/>
<rect width="55.3998" height="18.0051" transform="matrix(0.866023 -0.500004 0 1 384.324 701.771)" fill="#16181D" stroke="#333538" stroke-width="0.75" stroke-linejoin="round"/>
<rect width="55.3998" height="55.3998" transform="matrix(0.866023 0.500004 -0.866023 0.500004 336.344 674.053)" fill="#16181D" stroke="#333538" stroke-width="0.75" stroke-linejoin="round"/>
<rect width="55.3998" height="18.0051" transform="matrix(0.866023 0.500004 0 1 288.369 701.756)" fill="#16181D" stroke="#333538" stroke-width="0.75" stroke-linejoin="round"/>
<rect width="55.3998" height="18.0051" transform="matrix(0.866023 -0.500004 0 1 336.346 729.463)" fill="#16181D" stroke="#333538" stroke-width="0.75" stroke-linejoin="round"/>
<rect width="55.3998" height="55.3998" transform="matrix(0.866023 0.500004 -0.866023 0.500004 288.371 701.762)" fill="#16181D" stroke="#333538" stroke-width="0.75" stroke-linejoin="round"/>
<rect width="55.3998" height="18.0051" transform="matrix(0.866023 0.500004 0 1 240.396 729.463)" fill="#16181D" stroke="#333538" stroke-width="0.75" stroke-linejoin="round"/>
<rect width="55.3998" height="18.0051" transform="matrix(0.866023 -0.500004 0 1 288.373 757.164)" fill="#16181D" stroke="#333538" stroke-width="0.75" stroke-linejoin="round"/>
<rect width="55.3998" height="55.3998" transform="matrix(0.866023 0.500004 -0.866023 0.500004 240.396 729.467)" fill="#16181D" stroke="#333538" stroke-width="0.75" stroke-linejoin="round"/>
<rect width="55.3998" height="18.0051" transform="matrix(0.866023 0.500004 0 1 192.422 757.168)" fill="#16181D" stroke="#333538" stroke-width="0.75" stroke-linejoin="round"/>
<rect width="55.3998" height="18.0051" transform="matrix(0.866023 -0.500004 0 1 240.398 784.871)" fill="#16181D" stroke="#333538" stroke-width="0.75" stroke-linejoin="round"/>
<rect width="55.3998" height="55.3998" transform="matrix(0.866023 0.500004 -0.866023 0.500004 192.416 757.164)" fill="#16181D" stroke="#333538" stroke-width="0.75" stroke-linejoin="round"/>
<rect width="55.3998" height="18.0051" transform="matrix(0.866023 0.500004 0 1 144.441 784.865)" fill="#16181D" stroke="#333538" stroke-width="0.75" stroke-linejoin="round"/>
<rect width="55.3998" height="18.0051" transform="matrix(0.866023 -0.500004 0 1 192.418 812.566)" fill="#16181D" stroke="#333538" stroke-width="0.75" stroke-linejoin="round"/>
<rect width="55.3998" height="55.3998" transform="matrix(0.866023 0.500004 -0.866023 0.500004 432.316 744.5)" fill="#16181D" stroke="#333538" stroke-width="0.75" stroke-linejoin="round"/>
<rect width="55.3998" height="18.0051" transform="matrix(0.866023 0.500004 0 1 384.342 772.201)" fill="#16181D" stroke="#333538" stroke-width="0.75" stroke-linejoin="round"/>
<rect width="55.3998" height="18.0051" transform="matrix(0.866023 -0.500004 0 1 432.318 799.902)" fill="#16181D" stroke="#333538" stroke-width="0.75" stroke-linejoin="round"/>
<rect width="55.3998" height="55.3998" transform="matrix(0.866023 0.500004 -0.866023 0.500004 384.336 772.229)" fill="#16181D" stroke="#333538" stroke-width="0.75" stroke-linejoin="round"/>
<rect width="55.3998" height="18.0051" transform="matrix(0.866023 0.500004 0 1 336.361 799.93)" fill="#16181D" stroke="#333538" stroke-width="0.75" stroke-linejoin="round"/>
<rect width="55.3998" height="18.0051" transform="matrix(0.866023 -0.500004 0 1 384.338 827.631)" fill="#16181D" stroke="#333538" stroke-width="0.75" stroke-linejoin="round"/>
<rect width="55.3998" height="55.3998" transform="matrix(0.866023 0.500004 -0.866023 0.500004 336.357 799.92)" fill="#16181D" stroke="#333538" stroke-width="0.75" stroke-linejoin="round"/>
<rect width="55.3998" height="18.0051" transform="matrix(0.866023 0.500004 0 1 288.383 827.621)" fill="#16181D" stroke="#333538" stroke-width="0.75" stroke-linejoin="round"/>
<rect width="55.3998" height="18.0051" transform="matrix(0.866023 -0.500004 0 1 336.357 855.324)" fill="#16181D" stroke="#333538" stroke-width="0.75" stroke-linejoin="round"/>
<rect width="55.3998" height="55.3998" transform="matrix(0.866023 0.500004 -0.866023 0.500004 384.34 827.615)" fill="#16181D" stroke="#333538" stroke-width="0.75" stroke-linejoin="round"/>
<rect width="55.3998" height="18.0051" transform="matrix(0.866023 0.500004 0 1 336.365 855.316)" fill="#16181D" stroke="#333538" stroke-width="0.75" stroke-linejoin="round"/>
<rect width="55.3998" height="18.0051" transform="matrix(0.866023 -0.500004 0 1 384.342 883.018)" fill="#16181D" stroke="#333538" stroke-width="0.75" stroke-linejoin="round"/>
<rect width="55.3998" height="55.3998" transform="matrix(0.866023 0.500004 -0.866023 0.500004 432.324 855.338)" fill="#16181D" stroke="#333538" stroke-width="0.75" stroke-linejoin="round"/>
<rect width="55.3998" height="18.0051" transform="matrix(0.866023 0.500004 0 1 384.348 883.039)" fill="#16181D" stroke="#333538" stroke-width="0.75" stroke-linejoin="round"/>
<rect width="55.3998" height="18.0051" transform="matrix(0.866023 -0.500004 0 1 432.324 910.742)" fill="#16181D" stroke="#333538" stroke-width="0.75" stroke-linejoin="round"/>
<rect width="55.3998" height="55.3998" transform="matrix(0.866023 0.500004 -0.866023 0.500004 288.385 827.615)" fill="#16181D" stroke="#333538" stroke-width="0.75" stroke-linejoin="round"/>
<rect width="55.3998" height="18.0051" transform="matrix(0.866023 0.500004 0 1 240.408 855.316)" fill="#16181D" stroke="#333538" stroke-width="0.75" stroke-linejoin="round"/>
<rect width="55.3998" height="18.0051" transform="matrix(0.866023 -0.500004 0 1 288.385 883.018)" fill="#16181D" stroke="#333538" stroke-width="0.75" stroke-linejoin="round"/>
<rect width="55.3998" height="55.3998" transform="matrix(0.866023 0.500004 -0.866023 0.500004 240.438 855.338)" fill="#16181D" stroke="#333538" stroke-width="0.75" stroke-linejoin="round"/>
<rect width="55.3998" height="18.0051" transform="matrix(0.866023 0.500004 0 1 192.463 883.039)" fill="#16181D" stroke="#333538" stroke-width="0.75" stroke-linejoin="round"/>
<rect width="55.3998" height="18.0051" transform="matrix(0.866023 -0.500004 0 1 240.438 910.742)" fill="#16181D" stroke="#333538" stroke-width="0.75" stroke-linejoin="round"/>
<rect width="55.3998" height="55.3998" transform="matrix(0.866023 0.500004 -0.866023 0.500004 192.43 883.025)" fill="#16181D" stroke="#333538" stroke-width="0.75" stroke-linejoin="round"/>
<rect width="55.3998" height="18.0051" transform="matrix(0.866023 0.500004 0 1 144.455 910.727)" fill="#16181D" stroke="#333538" stroke-width="0.75" stroke-linejoin="round"/>
<rect width="55.3998" height="18.0051" transform="matrix(0.866023 -0.500004 0 1 192.43 938.422)" fill="#16181D" stroke="#333538" stroke-width="0.75" stroke-linejoin="round"/>
<rect width="55.3998" height="55.3998" transform="matrix(0.866023 0.500004 -0.866023 0.500004 528.279 1167.12)" fill="#16181D" stroke="#333538" stroke-width="0.75" stroke-linejoin="round"/>
<rect width="55.3998" height="18.0051" transform="matrix(0.866023 0.500004 0 1 480.305 1194.82)" fill="#181A1F" stroke="#333538" stroke-width="0.75" stroke-miterlimit="10"/>
<rect width="55.3998" height="18.0051" transform="matrix(0.866023 -0.500004 0 1 528.279 1222.52)" fill="#181A1F" stroke="#333538" stroke-width="0.75" stroke-miterlimit="10"/>
<rect width="55.3998" height="55.3998" transform="matrix(0.866023 0.500004 -0.866023 0.500004 528.279 1079)" fill="#16181D" stroke="#333538" stroke-width="0.75" stroke-linejoin="round"/>
<rect width="55.3998" height="18.0051" transform="matrix(0.866023 0.500004 0 1 480.305 1106.7)" fill="#181A1F" stroke="#333538" stroke-width="0.75" stroke-miterlimit="10"/>
<rect width="55.3998" height="18.0051" transform="matrix(0.866023 -0.500004 0 1 528.279 1134.4)" fill="#181A1F" stroke="#333538" stroke-width="0.75" stroke-miterlimit="10"/>
<rect width="55.3998" height="55.3998" transform="matrix(0.866023 0.500004 -0.866023 0.500004 528.279 1002.69)" fill="#16181D" stroke="#333538" stroke-width="0.75" stroke-linejoin="round"/>
<rect width="55.3998" height="18.0051" transform="matrix(0.866023 0.500004 0 1 480.305 1030.39)" fill="#16181D" stroke="#333538" stroke-width="0.75" stroke-linejoin="round"/>
<rect width="55.3998" height="18.0051" transform="matrix(0.866023 -0.500004 0 1 528.279 1058.1)" fill="#16181D" stroke="#333538" stroke-width="0.75" stroke-linejoin="round"/>
<rect width="55.3998" height="55.3998" transform="matrix(0.866023 0.500004 -0.866023 0.500004 336.352 1122.4)" fill="#16181D" stroke="#333538" stroke-width="0.75" stroke-linejoin="round"/>
<rect width="55.3998" height="18.0051" transform="matrix(0.866023 0.500004 0 1 288.377 1150.1)" fill="#181A1F" stroke="#333538" stroke-width="0.75" stroke-linejoin="round"/>
<rect width="55.3998" height="18.0051" transform="matrix(0.866023 -0.500004 0 1 336.354 1177.8)" fill="#181A1F" stroke="#333538" stroke-width="0.75" stroke-linejoin="round"/>
<rect width="55.3998" height="55.3998" transform="matrix(0.866023 0.500004 -0.866023 0.500004 336.352 1067.5)" fill="#16181D" stroke="#333538" stroke-width="0.75" stroke-linejoin="round"/>
<rect width="55.3998" height="18.0051" transform="matrix(0.866023 0.500004 0 1 288.377 1095.2)" fill="#181A1F" stroke="#333538" stroke-width="0.75" stroke-linejoin="round"/>
<rect width="55.3998" height="18.0051" transform="matrix(0.866023 -0.500004 0 1 336.354 1122.9)" fill="#181A1F" stroke="#333538" stroke-width="0.75" stroke-linejoin="round"/>
<rect width="55.3998" height="55.3998" transform="matrix(0.866023 0.500004 -0.866023 0.500004 576.256 826.385)" fill="#16181D" stroke="#333538" stroke-width="0.75" stroke-linejoin="round"/>
<rect width="55.3998" height="18.0051" transform="matrix(0.866023 0.500004 0 1 528.281 854.086)" fill="#16181D" stroke="#333538" stroke-width="0.75" stroke-linejoin="round"/>
<rect width="55.3998" height="18.0051" transform="matrix(0.866023 -0.500004 0 1 576.256 881.789)" fill="#181A1F" stroke="#333538" stroke-width="0.75" stroke-linejoin="round"/>
<rect width="55.3998" height="55.3998" transform="matrix(0.866023 0.500004 -0.866023 0.500004 528.279 854.107)" fill="#16181D" stroke="#333538" stroke-width="0.75" stroke-linejoin="round"/>
<rect width="55.3998" height="18.0051" transform="matrix(0.866023 0.500004 0 1 480.305 881.807)" fill="#16181D" stroke="#333538" stroke-width="0.75" stroke-linejoin="round"/>
<rect width="55.3998" height="18.0051" transform="matrix(0.866023 -0.500004 0 1 528.279 909.51)" fill="#16181D" stroke="#333538" stroke-width="0.75" stroke-linejoin="round"/>
<rect width="55.3998" height="55.3998" transform="matrix(0.866023 0.500004 -0.866023 0.500004 528.277 975.168)" fill="#16181D" stroke="#333538" stroke-width="0.75" stroke-linejoin="round"/>
<rect width="55.3998" height="18.0051" transform="matrix(0.866023 0.500004 0 1 480.303 1002.87)" fill="#16181D" stroke="#333538" stroke-width="0.75" stroke-linejoin="round"/>
<rect width="55.3998" height="18.0051" transform="matrix(0.866023 -0.500004 0 1 528.277 1030.57)" fill="#16181D" stroke="#333538" stroke-width="0.75" stroke-linejoin="round"/>
<rect width="55.3998" height="55.3998" transform="matrix(0.866023 0.500004 -0.866023 0.500004 480.297 881.803)" fill="#16181D" stroke="#333538" stroke-width="0.75" stroke-linejoin="round"/>
<rect width="55.3998" height="18.0051" transform="matrix(0.866023 0.500004 0 1 432.322 909.504)" fill="#16181D" stroke="#333538" stroke-width="0.75" stroke-linejoin="round"/>
<rect width="55.3998" height="18.0051" transform="matrix(0.866023 -0.500004 0 1 480.297 937.207)" fill="#16181D" stroke="#333538" stroke-width="0.75" stroke-linejoin="round"/>
<rect width="55.3998" height="55.3998" transform="matrix(0.866023 0.500004 -0.866023 0.500004 432.326 909.488)" fill="#16181D" stroke="#333538" stroke-width="0.75" stroke-linejoin="round"/>
<rect width="55.3998" height="18.0051" transform="matrix(0.866023 0.500004 0 1 384.352 937.189)" fill="#16181D" stroke="#333538" stroke-width="0.75" stroke-linejoin="round"/>
<rect width="55.3998" height="18.0051" transform="matrix(0.866023 -0.500004 0 1 432.328 964.889)" fill="#16181D" stroke="#333538" stroke-width="0.75" stroke-linejoin="round"/>
<rect width="55.3998" height="55.3998" transform="matrix(0.866023 0.500004 -0.866023 0.500004 384.352 937.213)" fill="#16181D" stroke="#333538" stroke-width="0.75" stroke-linejoin="round"/>
<rect width="55.3998" height="18.0051" transform="matrix(0.866023 0.500004 0 1 336.377 964.914)" fill="#16181D" stroke="#333538" stroke-width="0.75" stroke-linejoin="round"/>
<rect width="55.3998" height="18.0051" transform="matrix(0.866023 -0.500004 0 1 384.354 992.619)" fill="#16181D" stroke="#333538" stroke-width="0.75" stroke-linejoin="round"/>
<rect width="55.3998" height="55.3998" transform="matrix(0.866023 0.500004 -0.866023 0.500004 336.369 964.906)" fill="#16181D" stroke="#333538" stroke-width="0.75" stroke-linejoin="round"/>
<rect width="55.3998" height="18.0051" transform="matrix(0.866023 0.500004 0 1 288.395 992.607)" fill="#16181D" stroke="#333538" stroke-width="0.75" stroke-linejoin="round"/>
<rect width="55.3998" height="18.0051" transform="matrix(0.866023 -0.500004 0 1 336.371 1020.31)" fill="#16181D" stroke="#333538" stroke-width="0.75" stroke-linejoin="round"/>
<rect width="55.3998" height="55.3998" transform="matrix(0.866023 0.500004 -0.866023 0.500004 336.354 1038.46)" fill="#16181D" stroke="#333538" stroke-width="0.75" stroke-linejoin="round"/>
<rect width="55.3998" height="18.0051" transform="matrix(0.866023 0.500004 0 1 288.379 1066.16)" fill="#16181D" stroke="#333538" stroke-width="0.75" stroke-linejoin="round"/>
<rect width="55.3998" height="18.0051" transform="matrix(0.866023 -0.500004 0 1 336.354 1093.86)" fill="#16181D" stroke="#333538" stroke-width="0.75" stroke-linejoin="round"/>
<g clip-path="url(#clip0_2417_278812)">
<rect width="55.3998" height="18.0051" transform="matrix(0.866023 0.500004 0 1 144.561 618.461)" fill="#16181D" stroke="#333538" stroke-width="0.75" stroke-linejoin="round"/>
<rect width="55.3998" height="18.0051" transform="matrix(0.866023 -0.500004 0 1 192.535 646.162)" fill="#16181D" stroke="#333538" stroke-width="0.75" stroke-linejoin="round"/>
<rect width="55.3998" height="55.3998" transform="matrix(0.866023 0.500004 -0.866023 0.500004 240.523 618.465)" fill="#16181D" stroke="#333538" stroke-width="0.75" stroke-linejoin="round"/>
<rect width="55.3998" height="18.0051" transform="matrix(0.866023 0.500004 0 1 192.549 646.166)" fill="#16181D" stroke="#333538" stroke-width="0.75" stroke-linejoin="round"/>
<rect width="55.3998" height="18.0051" transform="matrix(0.866023 -0.500004 0 1 240.523 673.869)" fill="#16181D" stroke="#333538" stroke-width="0.75" stroke-linejoin="round"/>
<rect width="55.3998" height="55.3998" transform="matrix(0.866023 0.500004 -0.866023 0.500004 288.506 646.16)" fill="#16181D" stroke="#333538" stroke-width="0.75" stroke-linejoin="round"/>
<rect width="55.3998" height="18.0051" transform="matrix(0.866023 0.500004 0 1 240.531 673.861)" fill="#16181D" stroke="#333538" stroke-width="0.75" stroke-linejoin="round"/>
<rect width="55.3998" height="18.0051" transform="matrix(0.866023 -0.500004 0 1 288.508 701.564)" fill="#16181D" stroke="#333538" stroke-width="0.75" stroke-linejoin="round"/>
<rect width="55.3998" height="55.3998" transform="matrix(0.866023 0.500004 -0.866023 0.500004 144.562 618.465)" fill="#16181D" stroke="#333538" stroke-width="0.75" stroke-linejoin="round"/>
<rect width="55.3998" height="18.0051" transform="matrix(0.866023 0.500004 0 1 96.5879 646.166)" fill="#16181D" stroke="#333538" stroke-width="0.75" stroke-linejoin="round"/>
<rect width="55.3998" height="18.0051" transform="matrix(0.866023 -0.500004 0 1 144.564 673.869)" fill="#16181D" stroke="#333538" stroke-width="0.75" stroke-linejoin="round"/>
<rect width="55.3998" height="55.3998" transform="matrix(0.866023 0.500004 -0.866023 0.500004 96.5898 646.158)" fill="#16181D" stroke="#333538" stroke-width="0.75" stroke-linejoin="round"/>
<rect width="55.3998" height="18.0051" transform="matrix(0.866023 0.500004 0 1 48.6152 673.859)" fill="#16181D" stroke="#333538" stroke-width="0.75" stroke-linejoin="round"/>
<rect width="55.3998" height="18.0051" transform="matrix(0.866023 -0.500004 0 1 96.5898 701.562)" fill="#16181D" stroke="#333538" stroke-width="0.75" stroke-linejoin="round"/>
<rect width="55.3998" height="55.3998" transform="matrix(0.866023 0.500004 -0.866023 0.500004 48.6094 673.855)" fill="#16181D" stroke="#333538" stroke-width="0.75" stroke-linejoin="round"/>
<rect width="55.3998" height="18.0051" transform="matrix(0.866023 0.500004 0 1 0.634766 701.557)" fill="#16181D" stroke="#333538" stroke-width="0.75" stroke-linejoin="round"/>
<rect width="55.3998" height="18.0051" transform="matrix(0.866023 -0.500004 0 1 48.6113 729.26)" fill="#16181D" stroke="#333538" stroke-width="0.75" stroke-linejoin="round"/>
<path d="M432.518 982.589V691.715" stroke="#333538" stroke-width="0.75" stroke-linejoin="round"/>
<path d="M384.516 989.393V718.645" stroke="#333538" stroke-width="0.75" stroke-linejoin="round"/>
<path d="M336.486 989.383V746.857" stroke="#333538" stroke-width="0.75" stroke-linejoin="round"/>
<path d="M288.512 992.644V774.379" stroke="#333538" stroke-width="0.75" stroke-linejoin="round"/>
<path d="M240.518 856.055V801.883" stroke="#333538" stroke-width="0.75" stroke-linejoin="round"/>
<path d="M192.482 884.248V830.076" stroke="#333538" stroke-width="0.75" stroke-linejoin="round"/>
<rect width="55.3998" height="55.3998" transform="matrix(0.866023 0.500004 -0.866023 0.500004 432.434 618.461)" fill="#16181D" stroke="#333538" stroke-width="0.75" stroke-linejoin="round"/>
<rect width="55.3998" height="18.0051" transform="matrix(0.866023 0.500004 0 1 384.459 646.162)" fill="#16181D" stroke="#333538" stroke-width="0.75" stroke-linejoin="round"/>
<rect width="55.3998" height="18.0051" transform="matrix(0.866023 -0.500004 0 1 432.436 673.863)" fill="#16181D" stroke="#333538" stroke-width="0.75" stroke-linejoin="round"/>
<rect width="55.3998" height="55.3998" transform="matrix(0.866023 0.500004 -0.866023 0.500004 384.455 646.182)" fill="#16181D" stroke="#333538" stroke-width="0.75" stroke-linejoin="round"/>
<rect width="55.3998" height="18.0051" transform="matrix(0.866023 0.500004 0 1 336.48 673.883)" fill="#16181D" stroke="#333538" stroke-width="0.75" stroke-linejoin="round"/>
<rect width="55.3998" height="18.0051" transform="matrix(0.866023 -0.500004 0 1 384.457 701.586)" fill="#16181D" stroke="#333538" stroke-width="0.75" stroke-linejoin="round"/>
<rect width="55.3998" height="55.3998" transform="matrix(0.866023 0.500004 -0.866023 0.500004 336.477 673.867)" fill="#16181D" stroke="#333538" stroke-width="0.75" stroke-linejoin="round"/>
<rect width="55.3998" height="18.0051" transform="matrix(0.866023 0.500004 0 1 288.502 701.57)" fill="#16181D" stroke="#333538" stroke-width="0.75" stroke-linejoin="round"/>
<rect width="55.3998" height="18.0051" transform="matrix(0.866023 -0.500004 0 1 336.479 729.277)" fill="#16181D" stroke="#333538" stroke-width="0.75" stroke-linejoin="round"/>
<rect width="55.3998" height="55.3998" transform="matrix(0.866023 0.500004 -0.866023 0.500004 288.504 701.576)" fill="#16181D" stroke="#333538" stroke-width="0.75" stroke-linejoin="round"/>
<rect width="55.3998" height="18.0051" transform="matrix(0.866023 0.500004 0 1 240.529 729.277)" fill="#16181D" stroke="#333538" stroke-width="0.75" stroke-linejoin="round"/>
<rect width="55.3998" height="18.0051" transform="matrix(0.866023 -0.500004 0 1 288.506 756.979)" fill="#16181D" stroke="#333538" stroke-width="0.75" stroke-linejoin="round"/>
<rect width="55.3998" height="55.3998" transform="matrix(0.866023 0.500004 -0.866023 0.500004 240.529 729.281)" fill="#16181D" stroke="#333538" stroke-width="0.75" stroke-linejoin="round"/>
<rect width="55.3998" height="18.0051" transform="matrix(0.866023 0.500004 0 1 192.555 756.982)" fill="#16181D" stroke="#333538" stroke-width="0.75" stroke-linejoin="round"/>
<rect width="55.3998" height="18.0051" transform="matrix(0.866023 -0.500004 0 1 240.531 784.686)" fill="#16181D" stroke="#333538" stroke-width="0.75" stroke-linejoin="round"/>
<rect width="55.3998" height="55.3998" transform="matrix(0.866023 0.500004 -0.866023 0.500004 192.549 756.979)" fill="#16181D" stroke="#333538" stroke-width="0.75" stroke-linejoin="round"/>
<rect width="55.3998" height="18.0051" transform="matrix(0.866023 0.500004 0 1 144.572 784.68)" fill="#16181D" stroke="#333538" stroke-width="0.75" stroke-linejoin="round"/>
<rect width="55.3998" height="18.0051" transform="matrix(0.866023 -0.500004 0 1 192.551 812.381)" fill="#16181D" stroke="#333538" stroke-width="0.75" stroke-linejoin="round"/>
<rect width="55.3998" height="55.3998" transform="matrix(0.866023 0.500004 -0.866023 0.500004 432.449 744.314)" fill="#16181D" stroke="#333538" stroke-width="0.75" stroke-linejoin="round"/>
<rect width="55.3998" height="18.0051" transform="matrix(0.866023 0.500004 0 1 384.475 772.016)" fill="#16181D" stroke="#333538" stroke-width="0.75" stroke-linejoin="round"/>
<rect width="55.3998" height="18.0051" transform="matrix(0.866023 -0.500004 0 1 432.451 799.717)" fill="#16181D" stroke="#333538" stroke-width="0.75" stroke-linejoin="round"/>
<rect width="55.3998" height="55.3998" transform="matrix(0.866023 0.500004 -0.866023 0.500004 384.469 772.043)" fill="#16181D" stroke="#333538" stroke-width="0.75" stroke-linejoin="round"/>
<rect width="55.3998" height="18.0051" transform="matrix(0.866023 0.500004 0 1 336.494 799.744)" fill="#16181D" stroke="#333538" stroke-width="0.75" stroke-linejoin="round"/>
<rect width="55.3998" height="18.0051" transform="matrix(0.866023 -0.500004 0 1 384.471 827.445)" fill="#16181D" stroke="#333538" stroke-width="0.75" stroke-linejoin="round"/>
<rect width="55.3998" height="55.3998" transform="matrix(0.866023 0.500004 -0.866023 0.500004 336.49 799.734)" fill="#16181D" stroke="#333538" stroke-width="0.75" stroke-linejoin="round"/>
<rect width="55.3998" height="18.0051" transform="matrix(0.866023 0.500004 0 1 288.514 827.436)" fill="#16181D" stroke="#333538" stroke-width="0.75" stroke-linejoin="round"/>
<rect width="55.3998" height="18.0051" transform="matrix(0.866023 -0.500004 0 1 336.49 855.139)" fill="#16181D" stroke="#333538" stroke-width="0.75" stroke-linejoin="round"/>
<rect width="55.3998" height="55.3998" transform="matrix(0.866023 0.500004 -0.866023 0.500004 384.473 827.43)" fill="#16181D" stroke="#333538" stroke-width="0.75" stroke-linejoin="round"/>
<rect width="55.3998" height="18.0051" transform="matrix(0.866023 0.500004 0 1 336.498 855.131)" fill="#16181D" stroke="#333538" stroke-width="0.75" stroke-linejoin="round"/>
<rect width="55.3998" height="18.0051" transform="matrix(0.866023 -0.500004 0 1 384.475 882.832)" fill="#16181D" stroke="#333538" stroke-width="0.75" stroke-linejoin="round"/>
<rect width="55.3998" height="55.3998" transform="matrix(0.866023 0.500004 -0.866023 0.500004 432.455 855.152)" fill="#16181D" stroke="#333538" stroke-width="0.75" stroke-linejoin="round"/>
<rect width="55.3998" height="18.0051" transform="matrix(0.866023 0.500004 0 1 384.48 882.854)" fill="#16181D" stroke="#333538" stroke-width="0.75" stroke-linejoin="round"/>
<rect width="55.3998" height="18.0051" transform="matrix(0.866023 -0.500004 0 1 432.457 910.557)" fill="#16181D" stroke="#333538" stroke-width="0.75" stroke-linejoin="round"/>
<rect width="55.3998" height="55.3998" transform="matrix(0.866023 0.500004 -0.866023 0.500004 288.518 827.43)" fill="#16181D" stroke="#333538" stroke-width="0.75" stroke-linejoin="round"/>
<rect width="55.3998" height="18.0051" transform="matrix(0.866023 0.500004 0 1 240.543 855.131)" fill="#16181D" stroke="#333538" stroke-width="0.75" stroke-linejoin="round"/>
<rect width="55.3998" height="18.0051" transform="matrix(0.866023 -0.500004 0 1 288.52 882.832)" fill="#16181D" stroke="#333538" stroke-width="0.75" stroke-linejoin="round"/>
<rect width="55.3998" height="55.3998" transform="matrix(0.866023 0.500004 -0.866023 0.500004 240.57 855.152)" fill="#16181D" stroke="#333538" stroke-width="0.75" stroke-linejoin="round"/>
<rect width="55.3998" height="18.0051" transform="matrix(0.866023 0.500004 0 1 192.596 882.854)" fill="#16181D" stroke="#333538" stroke-width="0.75" stroke-linejoin="round"/>
<rect width="55.3998" height="18.0051" transform="matrix(0.866023 -0.500004 0 1 240.57 910.557)" fill="#16181D" stroke="#333538" stroke-width="0.75" stroke-linejoin="round"/>
<rect width="55.3998" height="55.3998" transform="matrix(0.866023 0.500004 -0.866023 0.500004 192.562 882.84)" fill="#16181D" stroke="#333538" stroke-width="0.75" stroke-linejoin="round"/>
<rect width="55.3998" height="18.0051" transform="matrix(0.866023 0.500004 0 1 144.588 910.541)" fill="#16181D" stroke="#333538" stroke-width="0.75" stroke-linejoin="round"/>
<rect width="55.3998" height="18.0051" transform="matrix(0.866023 -0.500004 0 1 192.562 938.236)" fill="#16181D" stroke="#333538" stroke-width="0.75" stroke-linejoin="round"/>
<rect width="55.3998" height="55.3998" transform="matrix(0.866023 0.500004 -0.866023 0.500004 528.412 1002.51)" fill="#16181D" stroke="#333538" stroke-width="0.75" stroke-linejoin="round"/>
<rect width="55.3998" height="18.0051" transform="matrix(0.866023 0.500004 0 1 480.438 1030.21)" fill="#16181D" stroke="#333538" stroke-width="0.75" stroke-linejoin="round"/>
<rect width="55.3998" height="18.0051" transform="matrix(0.866023 -0.500004 0 1 528.412 1057.91)" fill="#16181D" stroke="#333538" stroke-width="0.75" stroke-linejoin="round"/>
<rect width="55.3998" height="55.3998" transform="matrix(0.866023 0.500004 -0.866023 0.500004 528.41 1078.86)" fill="#16181D" stroke="#333538" stroke-width="0.75" stroke-linejoin="round"/>
<rect width="55.3998" height="18.0051" transform="matrix(0.866023 0.500004 0 1 480.436 1106.56)" fill="#16181D" stroke="#333538" stroke-width="0.75" stroke-linejoin="round"/>
<rect width="55.3998" height="18.0051" transform="matrix(0.866023 -0.500004 0 1 528.41 1134.26)" fill="#16181D" stroke="#333538" stroke-width="0.75" stroke-linejoin="round"/>
<rect width="55.3998" height="55.3998" transform="matrix(0.866023 0.500004 -0.866023 0.500004 336.484 1122.21)" fill="#16181D" stroke="#333538" stroke-width="0.75" stroke-linejoin="round"/>
<rect width="55.3998" height="55.3998" transform="matrix(0.866023 0.500004 -0.866023 0.500004 576.389 826.199)" fill="#16181D" stroke="#333538" stroke-width="0.75" stroke-linejoin="round"/>
<rect width="55.3998" height="18.0051" transform="matrix(0.866023 0.500004 0 1 528.412 853.9)" fill="#16181D" stroke="#333538" stroke-width="0.75" stroke-linejoin="round"/>
<rect width="55.3998" height="18.0051" transform="matrix(0.866023 -0.500004 0 1 576.389 881.604)" fill="#16181D" stroke="#333538" stroke-width="0.75" stroke-linejoin="round"/>
<rect width="55.3998" height="55.3998" transform="matrix(0.866023 0.500004 -0.866023 0.500004 528.412 853.922)" fill="#16181D" stroke="#333538" stroke-width="0.75" stroke-linejoin="round"/>
<rect width="55.3998" height="18.0051" transform="matrix(0.866023 0.500004 0 1 480.438 881.621)" fill="#16181D" stroke="#333538" stroke-width="0.75" stroke-linejoin="round"/>
<rect width="55.3998" height="18.0051" transform="matrix(0.866023 -0.500004 0 1 528.412 909.324)" fill="#16181D" stroke="#333538" stroke-width="0.75" stroke-linejoin="round"/>
<rect width="55.3998" height="55.3998" transform="matrix(0.866023 0.500004 -0.866023 0.500004 528.41 974.982)" fill="#16181D" stroke="#333538" stroke-width="0.75" stroke-linejoin="round"/>
<rect width="55.3998" height="18.0051" transform="matrix(0.866023 0.500004 0 1 480.436 1002.68)" fill="#16181D" stroke="#333538" stroke-width="0.75" stroke-linejoin="round"/>
<rect width="55.3998" height="18.0051" transform="matrix(0.866023 -0.500004 0 1 528.41 1030.39)" fill="#16181D" stroke="#333538" stroke-width="0.75" stroke-linejoin="round"/>
<rect width="55.3998" height="55.3998" transform="matrix(0.866023 0.500004 -0.866023 0.500004 480.43 881.617)" fill="#16181D" stroke="#333538" stroke-width="0.75" stroke-linejoin="round"/>
<rect width="55.3998" height="18.0051" transform="matrix(0.866023 0.500004 0 1 432.455 909.318)" fill="#16181D" stroke="#333538" stroke-width="0.75" stroke-linejoin="round"/>
<rect width="55.3998" height="18.0051" transform="matrix(0.866023 -0.500004 0 1 480.43 937.021)" fill="#16181D" stroke="#333538" stroke-width="0.75" stroke-linejoin="round"/>
<rect width="55.3998" height="55.3998" transform="matrix(0.866023 0.500004 -0.866023 0.500004 432.457 909.303)" fill="#16181D" stroke="#333538" stroke-width="0.75" stroke-linejoin="round"/>
<rect width="55.3998" height="18.0051" transform="matrix(0.866023 0.500004 0 1 384.482 937.004)" fill="#16181D" stroke="#333538" stroke-width="0.75" stroke-linejoin="round"/>
<rect width="55.3998" height="18.0051" transform="matrix(0.866023 -0.500004 0 1 432.459 964.703)" fill="#16181D" stroke="#333538" stroke-width="0.75" stroke-linejoin="round"/>
<rect width="55.3998" height="55.3998" transform="matrix(0.866023 0.500004 -0.866023 0.500004 384.482 937.027)" fill="#16181D" stroke="#333538" stroke-width="0.75" stroke-linejoin="round"/>
<rect width="55.3998" height="18.0051" transform="matrix(0.866023 0.500004 0 1 336.508 964.729)" fill="#16181D" stroke="#333538" stroke-width="0.75" stroke-linejoin="round"/>
<rect width="55.3998" height="18.0051" transform="matrix(0.866023 -0.500004 0 1 384.484 992.434)" fill="#16181D" stroke="#333538" stroke-width="0.75" stroke-linejoin="round"/>
<rect width="55.3998" height="55.3998" transform="matrix(0.866023 0.500004 -0.866023 0.500004 336.5 964.721)" fill="#16181D" stroke="#333538" stroke-width="0.75" stroke-linejoin="round"/>
<rect width="55.3998" height="18.0051" transform="matrix(0.866023 0.500004 0 1 288.525 992.422)" fill="#16181D" stroke="#333538" stroke-width="0.75" stroke-linejoin="round"/>
<rect width="55.3998" height="18.0051" transform="matrix(0.866023 -0.500004 0 1 336.502 1020.12)" fill="#16181D" stroke="#333538" stroke-width="0.75" stroke-linejoin="round"/>
<rect width="55.3998" height="55.3998" transform="matrix(0.866023 0.500004 -0.866023 0.500004 336.484 1067.16)" fill="#16181D" stroke="#333538" stroke-width="0.75" stroke-linejoin="round"/>
<rect width="55.3998" height="18.0051" transform="matrix(0.866023 0.500004 0 1 288.51 1094.86)" fill="#16181D" stroke="#333538" stroke-width="0.75" stroke-linejoin="round"/>
<rect width="55.3998" height="18.0051" transform="matrix(0.866023 -0.500004 0 1 336.484 1122.56)" fill="#16181D" stroke="#333538" stroke-width="0.75" stroke-linejoin="round"/>
<rect width="55.3998" height="55.3998" transform="matrix(0.866023 0.500004 -0.866023 0.500004 336.484 1038.27)" fill="#16181D" stroke="#333538" stroke-width="0.75" stroke-linejoin="round"/>
<rect width="55.3998" height="18.0051" transform="matrix(0.866023 0.500004 0 1 288.51 1065.97)" fill="#16181D" stroke="#333538" stroke-width="0.75" stroke-linejoin="round"/>
<rect width="55.3998" height="18.0051" transform="matrix(0.866023 -0.500004 0 1 336.484 1093.67)" fill="#16181D" stroke="#333538" stroke-width="0.75" stroke-linejoin="round"/>
</g>
<rect x="48.5" y="648" width="528" height="480" stroke="#333538" stroke-width="0.75"/>
<path d="M432.365 15L432.363 619" stroke="url(#paint0_linear_2417_278812)" stroke-width="0.752692" stroke-linejoin="round"/>
<defs>
<linearGradient id="paint0_linear_2417_278812" x1="432.863" y1="56" x2="432.863" y2="860" gradientUnits="userSpaceOnUse">
<stop stop-color="#333538"/>
<stop offset="1" stop-color="#282C34"/>
</linearGradient>
<clipPath id="clip0_2417_278812">
<rect x="48.5" y="648" width="528" height="480" fill="white"/>
</clipPath>
</defs>
</svg>
