<svg width="650" height="706" viewBox="0 0 650 706" fill="none" xmlns="http://www.w3.org/2000/svg">
<path d="M600.884 497.381H576.551V521.362H600.884V497.381Z" stroke="#F2F2F2" stroke-width="0.75" stroke-miterlimit="10"/>
<path d="M600.884 473.4H576.551V497.382H600.884V473.4Z" stroke="#F2F2F2" stroke-width="0.75" stroke-miterlimit="10"/>
<path d="M600.884 449.418H576.551V473.399H600.884V449.418Z" stroke="#F2F2F2" stroke-width="0.75" stroke-miterlimit="10"/>
<path d="M625.216 449.418H600.883V473.399H625.216V449.418Z" stroke="#F2F2F2" stroke-width="0.75" stroke-miterlimit="10"/>
<path d="M600.884 401.455H576.551V425.436H600.884V401.455Z" fill="white" stroke="#F2F2F2" stroke-width="0.75" stroke-miterlimit="10"/>
<path d="M625.216 401.455H600.883V425.436H625.216V401.455Z" stroke="#F2F2F2" stroke-width="0.75" stroke-miterlimit="10"/>
<path d="M649.552 401.455H625.219V425.436H649.552V401.455Z" stroke="#F2F2F2" stroke-width="0.75" stroke-miterlimit="10"/>
<path d="M600.884 353.492H576.551V377.473H600.884V353.492Z" stroke="#F2F2F2" stroke-width="0.75" stroke-miterlimit="10"/>
<path d="M625.216 353.492H600.883V377.473H625.216V353.492Z" stroke="#F2F2F2" stroke-width="0.75" stroke-miterlimit="10"/>
<path d="M600.884 257.568H576.551V281.55H600.884V257.568Z" stroke="#F2F2F2" stroke-width="0.75" stroke-miterlimit="10"/>
<path d="M625.216 257.568H600.883V281.55H625.216V257.568Z" fill="#F2F2F2" stroke="#B6B6B7" stroke-width="0.75" stroke-linejoin="round"/>
<path d="M649.552 257.568H625.219V281.55H649.552V257.568Z" fill="#F2F2F2" stroke="#B6B6B7" stroke-width="0.75" stroke-linejoin="round"/>
<path d="M600.884 233.588H576.551V257.569H600.884V233.588Z" stroke="#F2F2F2" stroke-width="0.75" stroke-miterlimit="10"/>
<path d="M625.216 233.588H600.883V257.569H625.216V233.588Z" fill="#F2F2F2" stroke="#B6B6B7" stroke-width="0.75" stroke-linejoin="round"/>
<rect width="55.379" height="55.379" transform="matrix(0.866719 0.498796 -0.866719 0.498796 288.625 0.285156)" fill="#FBFBFB" stroke="#B6B6B7" stroke-width="0.752692" stroke-linejoin="round"/>
<rect width="55.379" height="17.9548" transform="matrix(0.866719 0.498796 0 1 240.629 27.9102)" fill="#FBFBFB" stroke="#B6B6B7" stroke-width="0.752691" stroke-linejoin="round"/>
<rect width="55.379" height="17.9548" transform="matrix(0.866719 -0.498796 0 1 288.627 55.5352)" fill="#F2F2F2" stroke="#B6B6B7" stroke-width="0.752691" stroke-linejoin="round"/>
<rect width="55.379" height="55.379" transform="matrix(0.866719 0.498796 -0.866719 0.498796 240.623 27.9473)" fill="#FBFBFB" stroke="#B6B6B7" stroke-width="0.752692" stroke-linejoin="round"/>
<rect width="55.379" height="17.9548" transform="matrix(0.866849 0.498571 0 1 192.627 55.5723)" fill="#FBFBFB" stroke="#B6B6B7" stroke-width="0.752691" stroke-linejoin="round"/>
<rect width="55.379" height="17.9548" transform="matrix(0.866719 -0.498796 0 1 240.623 83.1973)" fill="#F2F2F2" stroke="#B6B6B7" stroke-width="0.752691" stroke-linejoin="round"/>
<rect width="55.379" height="55.379" transform="matrix(0.866719 0.498796 -0.866719 0.498796 192.617 55.5527)" fill="#FBFBFB" stroke="#B6B6B7" stroke-width="0.752692" stroke-linejoin="round"/>
<rect width="55.379" height="17.9548" transform="matrix(0.866719 0.498796 0 1 144.621 83.1777)" fill="#FBFBFB" stroke="#B6B6B7" stroke-width="0.752691" stroke-linejoin="round"/>
<rect width="55.379" height="17.9548" transform="matrix(0.866719 -0.498796 0 1 192.617 110.801)" fill="#FBFBFB" stroke="#B6B6B7" stroke-width="0.752691" stroke-linejoin="round"/>
<rect width="55.379" height="55.379" transform="matrix(0.866719 0.498796 -0.866719 0.498796 240.629 83.1777)" fill="#FBFBFB" stroke="#B6B6B7" stroke-width="0.752692" stroke-linejoin="round"/>
<rect width="55.379" height="17.9548" transform="matrix(0.866849 0.498571 0 1 192.633 110.803)" fill="white" stroke="#B6B6B7" stroke-width="0.752691" stroke-linejoin="round"/>
<rect width="55.379" height="17.9548" transform="matrix(0.866719 -0.498796 0 1 240.629 138.428)" fill="#FBFBFB" stroke="#B6B6B7" stroke-width="0.752691" stroke-linejoin="round"/>
<rect width="55.379" height="55.379" transform="matrix(0.866719 0.498796 -0.866719 0.498796 288.633 110.795)" fill="#FBFBFB" stroke="#B6B6B7" stroke-width="0.752692" stroke-linejoin="round"/>
<rect width="55.379" height="17.9548" transform="matrix(0.866719 0.498796 0 1 240.637 138.42)" fill="white" stroke="#B6B6B7" stroke-width="0.752691" stroke-linejoin="round"/>
<rect width="55.379" height="17.9548" transform="matrix(0.866719 -0.498796 0 1 288.635 166.045)" fill="#FBFBFB" stroke="#B6B6B7" stroke-width="0.752691" stroke-linejoin="round"/>
<rect width="55.379" height="55.379" transform="matrix(0.866719 0.498796 -0.866719 0.498796 144.625 83.1777)" fill="#FBFBFB" stroke="#B6B6B7" stroke-width="0.752692" stroke-linejoin="round"/>
<rect width="55.379" height="17.9548" transform="matrix(0.866719 0.498796 0 1 96.6289 110.803)" fill="#FBFBFB" stroke="#B6B6B7" stroke-width="0.752691" stroke-linejoin="round"/>
<rect width="55.379" height="17.9548" transform="matrix(0.866719 -0.498796 0 1 144.627 138.428)" fill="white" stroke="#B6B6B7" stroke-width="0.752691" stroke-linejoin="round"/>
<rect width="55.379" height="55.379" transform="matrix(0.866719 0.498796 -0.866719 0.498796 96.6328 110.793)" fill="#FBFBFB" stroke="#B6B6B7" stroke-width="0.752692" stroke-linejoin="round"/>
<rect width="55.379" height="17.9548" transform="matrix(0.866592 0.499017 0 1 48.6367 138.418)" fill="#FBFBFB" stroke="#B6B6B7" stroke-width="0.752691" stroke-linejoin="round"/>
<rect width="55.379" height="17.9548" transform="matrix(0.866719 -0.498796 0 1 96.6328 166.043)" fill="white" stroke="#B6B6B7" stroke-width="0.752691" stroke-linejoin="round"/>
<rect width="55.379" height="55.379" transform="matrix(0.866719 0.498796 -0.866719 0.498796 48.6309 138.416)" fill="#FBFBFB" stroke="#B6B6B7" stroke-width="0.752692" stroke-linejoin="round"/>
<rect width="55.379" height="17.9548" transform="matrix(0.866719 0.498796 0 1 0.634766 166.041)" fill="#F2F2F2" stroke="#B6B6B7" stroke-width="0.752691" stroke-linejoin="round"/>
<rect width="55.379" height="17.9548" transform="matrix(0.866719 -0.498796 0 1 48.6309 193.666)" fill="white" stroke="#B6B6B7" stroke-width="0.752691" stroke-linejoin="round"/>
<path d="M432.518 447.004V156.498" stroke="#D2D3D5" stroke-width="0.752692" stroke-linejoin="round"/>
<path d="M384.516 453.799V183.395" stroke="#D2D3D5" stroke-width="0.752692" stroke-linejoin="round"/>
<path d="M336.486 453.788V211.57" stroke="#D2D3D5" stroke-width="0.752692" stroke-linejoin="round"/>
<path d="M288.512 457.045V239.057" stroke="#D2D3D5" stroke-width="0.752692" stroke-linejoin="round"/>
<path d="M240.518 320.626V266.523" stroke="#D2D3D5" stroke-width="0.752692" stroke-linejoin="round"/>
<path d="M192.482 348.787V294.684" stroke="#D2D3D5" stroke-width="0.752692" stroke-linejoin="round"/>
<rect width="55.3823" height="55.3823" transform="matrix(0.866298 0.499528 -0.866298 0.499528 432.434 83.3398)" fill="#FBFBFB" stroke="#B6B6B7" stroke-width="0.752692" stroke-linejoin="round"/>
<rect width="55.3823" height="17.9822" transform="matrix(0.866298 0.499528 0 1 384.459 111.006)" fill="#FBFBFB" stroke="#B6B6B7" stroke-width="0.752691" stroke-linejoin="round"/>
<rect width="55.3823" height="17.9822" transform="matrix(0.866298 -0.499528 0 1 432.436 138.67)" fill="white" stroke="#B6B6B7" stroke-width="0.752691" stroke-linejoin="round"/>
<rect width="55.3823" height="55.3823" transform="matrix(0.866298 0.499528 -0.866298 0.499528 384.455 111.027)" fill="#FBFBFB" stroke="#B6B6B7" stroke-width="0.752692" stroke-linejoin="round"/>
<rect width="55.3823" height="17.9822" transform="matrix(0.866298 0.499528 0 1 336.48 138.693)" fill="#FBFBFB" stroke="#B6B6B7" stroke-width="0.752691" stroke-linejoin="round"/>
<rect width="55.3823" height="17.9822" transform="matrix(0.866298 -0.499528 0 1 384.457 166.361)" fill="white" stroke="#B6B6B7" stroke-width="0.752691" stroke-linejoin="round"/>
<rect width="55.3823" height="55.3823" transform="matrix(0.866298 0.499528 -0.866298 0.499528 336.477 138.676)" fill="#FBFBFB" stroke="#B6B6B7" stroke-width="0.752692" stroke-linejoin="round"/>
<rect width="55.3823" height="17.9822" transform="matrix(0.866298 0.499528 0 1 288.502 166.344)" fill="#FBFBFB" stroke="#B6B6B7" stroke-width="0.752691" stroke-linejoin="round"/>
<rect width="55.3823" height="17.9822" transform="matrix(0.866298 -0.499528 0 1 336.479 194.016)" fill="white" stroke="#B6B6B7" stroke-width="0.752691" stroke-linejoin="round"/>
<rect width="55.3823" height="55.3823" transform="matrix(0.866298 0.499528 -0.866298 0.499528 288.504 166.35)" fill="#FBFBFB" stroke="#B6B6B7" stroke-width="0.752692" stroke-linejoin="round"/>
<rect width="55.3823" height="17.9822" transform="matrix(0.866298 0.499528 0 1 240.529 194.016)" fill="#FBFBFB" stroke="#B6B6B7" stroke-width="0.752691" stroke-linejoin="round"/>
<rect width="55.3823" height="17.9822" transform="matrix(0.866298 -0.499528 0 1 288.506 221.68)" fill="white" stroke="#B6B6B7" stroke-width="0.752691" stroke-linejoin="round"/>
<rect width="55.3823" height="55.3823" transform="matrix(0.866298 0.499528 -0.866298 0.499528 240.529 194.021)" fill="#FBFBFB" stroke="#B6B6B7" stroke-width="0.752692" stroke-linejoin="round"/>
<rect width="55.3823" height="17.9822" transform="matrix(0.866298 0.499528 0 1 192.555 221.688)" fill="#FBFBFB" stroke="#B6B6B7" stroke-width="0.752691" stroke-linejoin="round"/>
<rect width="55.3823" height="17.9822" transform="matrix(0.866298 -0.499528 0 1 240.531 249.355)" fill="white" stroke="#B6B6B7" stroke-width="0.752691" stroke-linejoin="round"/>
<rect width="55.3823" height="55.3823" transform="matrix(0.866298 0.499528 -0.866298 0.499528 192.549 221.684)" fill="#FBFBFB" stroke="#B6B6B7" stroke-width="0.752692" stroke-linejoin="round"/>
<rect width="55.3823" height="17.9822" transform="matrix(0.866298 0.499528 0 1 144.574 249.35)" fill="#FBFBFB" stroke="#B6B6B7" stroke-width="0.752691" stroke-linejoin="round"/>
<rect width="55.3823" height="17.9822" transform="matrix(0.866298 -0.499528 0 1 192.551 277.014)" fill="white" stroke="#B6B6B7" stroke-width="0.752691" stroke-linejoin="round"/>
<rect width="55.389" height="55.389" transform="matrix(0.866193 0.49971 -0.866193 0.49971 432.449 209.096)" fill="#FBFBFB" stroke="#B6B6B7" stroke-width="0.752692" stroke-linejoin="round"/>
<rect width="55.389" height="17.991" transform="matrix(0.866193 0.49971 0 1 384.475 236.775)" fill="#FBFBFB" stroke="#B6B6B7" stroke-width="0.752691" stroke-linejoin="round"/>
<rect width="55.389" height="17.991" transform="matrix(0.866193 -0.49971 0 1 432.451 264.453)" fill="white" stroke="#B6B6B7" stroke-width="0.752691" stroke-linejoin="round"/>
<rect width="55.389" height="55.389" transform="matrix(0.866193 0.49971 -0.866193 0.49971 384.469 236.803)" fill="#FBFBFB" stroke="#B6B6B7" stroke-width="0.752692" stroke-linejoin="round"/>
<rect width="55.389" height="17.991" transform="matrix(0.866193 0.49971 0 1 336.494 264.482)" fill="#FBFBFB" stroke="#B6B6B7" stroke-width="0.752691" stroke-linejoin="round"/>
<rect width="55.389" height="17.991" transform="matrix(0.866193 -0.49971 0 1 384.471 292.16)" fill="white" stroke="#B6B6B7" stroke-width="0.752691" stroke-linejoin="round"/>
<rect width="55.389" height="55.389" transform="matrix(0.866193 0.49971 -0.866193 0.49971 336.49 264.473)" fill="#FBFBFB" stroke="#B6B6B7" stroke-width="0.752692" stroke-linejoin="round"/>
<rect width="55.389" height="17.991" transform="matrix(0.866193 0.49971 0 1 288.516 292.152)" fill="#FBFBFB" stroke="#B6B6B7" stroke-width="0.752691" stroke-linejoin="round"/>
<rect width="55.389" height="17.991" transform="matrix(0.866193 -0.49971 0 1 336.49 319.832)" fill="#FBFBFB" stroke="#B6B6B7" stroke-width="0.752691" stroke-linejoin="round"/>
<rect width="55.389" height="55.389" transform="matrix(0.866193 0.49971 -0.866193 0.49971 384.475 292.145)" fill="#FBFBFB" stroke="#B6B6B7" stroke-width="0.752692" stroke-linejoin="round"/>
<rect width="55.389" height="17.991" transform="matrix(0.866193 0.49971 0 1 336.5 319.824)" fill="white" stroke="#B6B6B7" stroke-width="0.752691" stroke-linejoin="round"/>
<rect width="55.389" height="17.991" transform="matrix(0.866193 -0.49971 0 1 384.477 347.502)" fill="#FBFBFB" stroke="#B6B6B7" stroke-width="0.752691" stroke-linejoin="round"/>
<rect width="55.389" height="55.389" transform="matrix(0.866193 0.49971 -0.866193 0.49971 432.457 319.846)" fill="#FBFBFB" stroke="#B6B6B7" stroke-width="0.752692" stroke-linejoin="round"/>
<rect width="55.389" height="17.991" transform="matrix(0.866193 0.49971 0 1 384.48 347.525)" fill="white" stroke="#B6B6B7" stroke-width="0.752691" stroke-linejoin="round"/>
<rect width="55.389" height="17.991" transform="matrix(0.866193 -0.49971 0 1 432.457 375.205)" fill="#FBFBFB" stroke="#B6B6B7" stroke-width="0.752691" stroke-linejoin="round"/>
<rect width="55.389" height="55.389" transform="matrix(0.866193 0.49971 -0.866193 0.49971 288.52 292.145)" fill="#FBFBFB" stroke="#B6B6B7" stroke-width="0.752692" stroke-linejoin="round"/>
<rect width="55.389" height="17.991" transform="matrix(0.866193 0.49971 0 1 240.543 319.824)" fill="#FBFBFB" stroke="#B6B6B7" stroke-width="0.752691" stroke-linejoin="round"/>
<rect width="55.389" height="17.991" transform="matrix(0.866193 -0.49971 0 1 288.52 347.502)" fill="white" stroke="#B6B6B7" stroke-width="0.752691" stroke-linejoin="round"/>
<rect width="55.389" height="55.389" transform="matrix(0.866193 0.49971 -0.866193 0.49971 240.57 319.846)" fill="#FBFBFB" stroke="#B6B6B7" stroke-width="0.752692" stroke-linejoin="round"/>
<rect width="55.389" height="17.991" transform="matrix(0.866193 0.49971 0 1 192.596 347.525)" fill="#FBFBFB" stroke="#B6B6B7" stroke-width="0.752691" stroke-linejoin="round"/>
<rect width="55.389" height="17.991" transform="matrix(0.866193 -0.49971 0 1 240.57 375.205)" fill="white" stroke="#B6B6B7" stroke-width="0.752691" stroke-linejoin="round"/>
<rect width="55.389" height="55.389" transform="matrix(0.866193 0.49971 -0.866193 0.49971 192.562 347.512)" fill="#FBFBFB" stroke="#B6B6B7" stroke-width="0.752692" stroke-linejoin="round"/>
<rect width="55.389" height="17.991" transform="matrix(0.866193 0.49971 0 1 144.588 375.191)" fill="white" stroke="#B6B6B7" stroke-width="0.752691" stroke-linejoin="round"/>
<rect width="55.389" height="17.991" transform="matrix(0.866193 -0.49971 0 1 192.562 402.865)" fill="white" stroke="#B6B6B7" stroke-width="0.752691" stroke-linejoin="round"/>
<rect width="55.389" height="55.389" transform="matrix(0.866193 0.49971 -0.866193 0.49971 528.414 631.383)" fill="white" stroke="#B6B6B7" stroke-width="0.752692" stroke-linejoin="round"/>
<rect width="55.389" height="17.991" transform="matrix(0.866193 0.49971 0 1 480.439 659.062)" fill="#F2F2F2" stroke="#B6B6B7" stroke-width="0.752691" stroke-linejoin="round"/>
<rect width="55.389" height="17.991" transform="matrix(0.866193 -0.49971 0 1 528.414 686.74)" fill="#F2F2F2" stroke="#B6B6B7" stroke-width="0.752691" stroke-linejoin="round"/>
<rect width="55.389" height="55.389" transform="matrix(0.866193 0.49971 -0.866193 0.49971 528.414 467.084)" fill="#FBFBFB" stroke="#B6B6B7" stroke-width="0.752692" stroke-linejoin="round"/>
<rect width="55.389" height="17.991" transform="matrix(0.866193 0.49971 0 1 480.439 494.764)" fill="#FBFBFB" stroke="#B6B6B7" stroke-width="0.752691" stroke-linejoin="round"/>
<rect width="55.389" height="17.991" transform="matrix(0.866193 -0.49971 0 1 528.414 522.443)" fill="white" stroke="#B6B6B7" stroke-width="0.752691" stroke-linejoin="round"/>
<rect width="55.389" height="55.389" transform="matrix(0.866193 0.49971 -0.866193 0.49971 528.412 543.381)" fill="white" stroke="#B6B6B7" stroke-width="0.752692" stroke-linejoin="round"/>
<rect width="55.389" height="17.991" transform="matrix(0.866193 0.49971 0 1 480.438 571.061)" fill="#FBFBFB" stroke="#B6B6B7" stroke-width="0.752691" stroke-linejoin="round"/>
<rect width="55.389" height="17.991" transform="matrix(0.866193 -0.49971 0 1 528.412 598.74)" fill="white" stroke="#B6B6B7" stroke-width="0.752691" stroke-linejoin="round"/>
<rect width="55.389" height="55.389" transform="matrix(0.866193 0.49971 -0.866193 0.49971 336.486 586.701)" fill="white" stroke="#B6B6B7" stroke-width="0.752692" stroke-linejoin="round"/>
<rect width="55.389" height="17.991" transform="matrix(0.866193 0.49971 0 1 288.512 614.381)" fill="#F2F2F2" stroke="#B6B6B7" stroke-width="0.752691" stroke-linejoin="round"/>
<rect width="55.389" height="17.991" transform="matrix(0.866193 -0.49971 0 1 336.488 642.061)" fill="#F2F2F2" stroke="#B6B6B7" stroke-width="0.752691" stroke-linejoin="round"/>
<rect width="55.389" height="55.389" transform="matrix(0.866193 0.49971 -0.866193 0.49971 576.391 290.918)" fill="#FBFBFB" stroke="#B6B6B7" stroke-width="0.752692" stroke-linejoin="round"/>
<rect width="55.389" height="17.991" transform="matrix(0.866193 0.49971 0 1 528.414 318.598)" fill="#FBFBFB" stroke="#B6B6B7" stroke-width="0.752691" stroke-linejoin="round"/>
<rect width="55.389" height="17.991" transform="matrix(0.866193 -0.49971 0 1 576.391 346.277)" fill="#F2F2F2" stroke="#B6B6B7" stroke-width="0.752691" stroke-linejoin="round"/>
<rect width="55.389" height="55.389" transform="matrix(0.866193 0.49971 -0.866193 0.49971 528.414 318.619)" fill="#FBFBFB" stroke="#B6B6B7" stroke-width="0.752692" stroke-linejoin="round"/>
<rect width="55.389" height="17.991" transform="matrix(0.866193 0.49971 0 1 480.439 346.297)" fill="#FBFBFB" stroke="#B6B6B7" stroke-width="0.752691" stroke-linejoin="round"/>
<rect width="55.389" height="17.991" transform="matrix(0.866193 -0.49971 0 1 528.414 373.977)" fill="white" stroke="#B6B6B7" stroke-width="0.752691" stroke-linejoin="round"/>
<rect width="55.389" height="55.389" transform="matrix(0.866193 0.49971 -0.866193 0.49971 528.412 439.584)" fill="#FBFBFB" stroke="#B6B6B7" stroke-width="0.752692" stroke-linejoin="round"/>
<rect width="55.389" height="17.991" transform="matrix(0.866193 0.49971 0 1 480.438 467.264)" fill="white" stroke="#B6B6B7" stroke-width="0.752691" stroke-linejoin="round"/>
<rect width="55.389" height="17.991" transform="matrix(0.866193 -0.49971 0 1 528.412 494.943)" fill="white" stroke="#B6B6B7" stroke-width="0.752691" stroke-linejoin="round"/>
<rect width="55.389" height="55.389" transform="matrix(0.866193 0.49971 -0.866193 0.49971 480.432 346.293)" fill="#FBFBFB" stroke="#B6B6B7" stroke-width="0.752692" stroke-linejoin="round"/>
<rect width="55.389" height="17.991" transform="matrix(0.866193 0.49971 0 1 432.457 373.973)" fill="#FBFBFB" stroke="#B6B6B7" stroke-width="0.752691" stroke-linejoin="round"/>
<rect width="55.389" height="17.991" transform="matrix(0.866193 -0.49971 0 1 480.432 401.652)" fill="white" stroke="#B6B6B7" stroke-width="0.752691" stroke-linejoin="round"/>
<rect width="55.389" height="55.389" transform="matrix(0.866193 0.49971 -0.866193 0.49971 432.459 373.957)" fill="#FBFBFB" stroke="#B6B6B7" stroke-width="0.752692" stroke-linejoin="round"/>
<rect width="55.389" height="17.991" transform="matrix(0.866193 0.49971 0 1 384.484 401.637)" fill="#FBFBFB" stroke="#B6B6B7" stroke-width="0.752691" stroke-linejoin="round"/>
<rect width="55.389" height="17.991" transform="matrix(0.866193 -0.49971 0 1 432.461 429.314)" fill="white" stroke="#B6B6B7" stroke-width="0.752691" stroke-linejoin="round"/>
<rect width="55.389" height="55.389" transform="matrix(0.866193 0.49971 -0.866193 0.49971 384.484 401.658)" fill="#FBFBFB" stroke="#B6B6B7" stroke-width="0.752692" stroke-linejoin="round"/>
<rect width="55.389" height="17.991" transform="matrix(0.866193 0.49971 0 1 336.51 429.338)" fill="#FBFBFB" stroke="#B6B6B7" stroke-width="0.752691" stroke-linejoin="round"/>
<rect width="55.389" height="17.991" transform="matrix(0.866193 -0.49971 0 1 384.486 457.02)" fill="white" stroke="#B6B6B7" stroke-width="0.752691" stroke-linejoin="round"/>
<rect width="55.389" height="55.389" transform="matrix(0.866193 0.49971 -0.866193 0.49971 336.502 429.332)" fill="#FBFBFB" stroke="#B6B6B7" stroke-width="0.752692" stroke-linejoin="round"/>
<rect width="55.389" height="17.991" transform="matrix(0.866193 0.49971 0 1 288.527 457.012)" fill="#FBFBFB" stroke="#B6B6B7" stroke-width="0.752691" stroke-linejoin="round"/>
<rect width="55.389" height="17.991" transform="matrix(0.866193 -0.49971 0 1 336.504 484.689)" fill="white" stroke="#B6B6B7" stroke-width="0.752691" stroke-linejoin="round"/>
<rect width="55.389" height="55.389" transform="matrix(0.866193 0.49971 -0.866193 0.49971 336.486 531.684)" fill="#FBFBFB" stroke="#B6B6B7" stroke-width="0.752692" stroke-linejoin="round"/>
<rect width="55.389" height="17.991" transform="matrix(0.866193 0.49971 0 1 288.512 559.363)" fill="#FBFBFB" stroke="#B6B6B7" stroke-width="0.752691" stroke-linejoin="round"/>
<rect width="55.389" height="17.991" transform="matrix(0.866193 -0.49971 0 1 336.486 587.041)" fill="white" stroke="#B6B6B7" stroke-width="0.752691" stroke-linejoin="round"/>
<rect width="55.389" height="55.389" transform="matrix(0.866193 0.49971 -0.866193 0.49971 336.486 502.822)" fill="#FBFBFB" stroke="#B6B6B7" stroke-width="0.752692" stroke-linejoin="round"/>
<rect width="55.389" height="17.991" transform="matrix(0.866193 0.49971 0 1 288.512 530.502)" fill="#FBFBFB" stroke="#B6B6B7" stroke-width="0.752691" stroke-linejoin="round"/>
<rect width="55.389" height="17.991" transform="matrix(0.866193 -0.49971 0 1 336.486 558.18)" fill="white" stroke="#B6B6B7" stroke-width="0.752691" stroke-linejoin="round"/>
<g clip-path="url(#clip0_3006_321616)">
<rect width="55.3998" height="18.0051" transform="matrix(0.866023 0.500004 0 1 144.428 83.123)" fill="#FBFBFB" stroke="#B6B6B7" stroke-width="0.752691" stroke-linejoin="round"/>
<rect width="55.3998" height="18.0051" transform="matrix(0.866023 -0.500004 0 1 192.402 110.824)" fill="#FBFBFB" stroke="#B6B6B7" stroke-width="0.752691" stroke-linejoin="round"/>
<rect width="55.3998" height="55.3998" transform="matrix(0.866023 0.500004 -0.866023 0.500004 240.391 83.127)" fill="#FBFBFB" stroke="#B6B6B7" stroke-width="0.752692" stroke-linejoin="round"/>
<rect width="55.3998" height="18.0051" transform="matrix(0.866023 0.500004 0 1 192.416 110.828)" fill="white" stroke="#B6B6B7" stroke-width="0.752691" stroke-linejoin="round"/>
<rect width="55.3998" height="18.0051" transform="matrix(0.866023 -0.500004 0 1 240.391 138.531)" fill="#FBFBFB" stroke="#B6B6B7" stroke-width="0.752691" stroke-linejoin="round"/>
<rect width="55.3998" height="55.3998" transform="matrix(0.866023 0.500004 -0.866023 0.500004 288.373 110.822)" fill="#FBFBFB" stroke="#B6B6B7" stroke-width="0.752692" stroke-linejoin="round"/>
<rect width="55.3998" height="18.0051" transform="matrix(0.866023 0.500004 0 1 240.398 138.523)" fill="white" stroke="#B6B6B7" stroke-width="0.752691" stroke-linejoin="round"/>
<rect width="55.3998" height="18.0051" transform="matrix(0.866023 -0.500004 0 1 288.375 166.227)" fill="#FBFBFB" stroke="#B6B6B7" stroke-width="0.752691" stroke-linejoin="round"/>
<rect width="55.3998" height="55.3998" transform="matrix(0.866023 0.500004 -0.866023 0.500004 144.43 83.127)" fill="#FBFBFB" stroke="#B6B6B7" stroke-width="0.752692" stroke-linejoin="round"/>
<rect width="55.3998" height="18.0051" transform="matrix(0.866023 0.500004 0 1 96.4551 110.828)" fill="#FBFBFB" stroke="#B6B6B7" stroke-width="0.752691" stroke-linejoin="round"/>
<rect width="55.3998" height="18.0051" transform="matrix(0.866023 -0.500004 0 1 144.432 138.531)" fill="white" stroke="#B6B6B7" stroke-width="0.752691" stroke-linejoin="round"/>
<rect width="55.3998" height="55.3998" transform="matrix(0.866023 0.500004 -0.866023 0.500004 96.457 110.82)" fill="#FBFBFB" stroke="#B6B6B7" stroke-width="0.752692" stroke-linejoin="round"/>
<rect width="55.3998" height="18.0051" transform="matrix(0.866023 0.500004 0 1 48.4824 138.521)" fill="#FBFBFB" stroke="#B6B6B7" stroke-width="0.752691" stroke-linejoin="round"/>
<rect width="55.3998" height="18.0051" transform="matrix(0.866023 -0.500004 0 1 96.457 166.225)" fill="white" stroke="#B6B6B7" stroke-width="0.752691" stroke-linejoin="round"/>
<rect width="55.3998" height="55.3998" transform="matrix(0.866023 0.500004 -0.866023 0.500004 48.4766 138.518)" fill="#FBFBFB" stroke="#B6B6B7" stroke-width="0.752692" stroke-linejoin="round"/>
<rect width="55.3998" height="18.0051" transform="matrix(0.866023 0.500004 0 1 0.501953 166.219)" fill="#FBFBFB" stroke="#B6B6B7" stroke-width="0.752691" stroke-linejoin="round"/>
<rect width="55.3998" height="18.0051" transform="matrix(0.866023 -0.500004 0 1 48.4766 193.922)" fill="white" stroke="#B6B6B7" stroke-width="0.752691" stroke-linejoin="round"/>
<path d="M432.385 447.252V156.377" stroke="#D2D3D5" stroke-width="0.752692" stroke-linejoin="round"/>
<path d="M384.383 454.055V183.307" stroke="#D2D3D5" stroke-width="0.752692" stroke-linejoin="round"/>
<path d="M336.354 454.045V211.52" stroke="#D2D3D5" stroke-width="0.752692" stroke-linejoin="round"/>
<path d="M288.379 457.306V239.041" stroke="#D2D3D5" stroke-width="0.752692" stroke-linejoin="round"/>
<path d="M240.385 320.717V266.545" stroke="#D2D3D5" stroke-width="0.752692" stroke-linejoin="round"/>
<path d="M192.35 348.91V294.738" stroke="#D2D3D5" stroke-width="0.752692" stroke-linejoin="round"/>
<rect width="55.3998" height="55.3998" transform="matrix(0.866023 0.500004 -0.866023 0.500004 432.301 83.123)" fill="#FBFBFB" stroke="#B6B6B7" stroke-width="0.752692" stroke-linejoin="round"/>
<rect width="55.3998" height="18.0051" transform="matrix(0.866023 0.500004 0 1 384.326 110.824)" fill="#FBFBFB" stroke="#B6B6B7" stroke-width="0.752691" stroke-linejoin="round"/>
<rect width="55.3998" height="18.0051" transform="matrix(0.866023 -0.500004 0 1 432.303 138.525)" fill="white" stroke="#B6B6B7" stroke-width="0.752691" stroke-linejoin="round"/>
<rect width="55.3998" height="55.3998" transform="matrix(0.866023 0.500004 -0.866023 0.500004 384.32 110.844)" fill="#FBFBFB" stroke="#B6B6B7" stroke-width="0.752692" stroke-linejoin="round"/>
<rect width="55.3998" height="18.0051" transform="matrix(0.866023 0.500004 0 1 336.346 138.545)" fill="#FBFBFB" stroke="#B6B6B7" stroke-width="0.752691" stroke-linejoin="round"/>
<rect width="55.3998" height="18.0051" transform="matrix(0.866023 -0.500004 0 1 384.32 166.248)" fill="white" stroke="#B6B6B7" stroke-width="0.752691" stroke-linejoin="round"/>
<rect width="55.3998" height="55.3998" transform="matrix(0.866023 0.500004 -0.866023 0.500004 336.344 138.529)" fill="#FBFBFB" stroke="#B6B6B7" stroke-width="0.752692" stroke-linejoin="round"/>
<rect width="55.3998" height="18.0051" transform="matrix(0.866023 0.500004 0 1 288.369 166.232)" fill="#FBFBFB" stroke="#B6B6B7" stroke-width="0.752691" stroke-linejoin="round"/>
<rect width="55.3998" height="18.0051" transform="matrix(0.866023 -0.500004 0 1 336.344 193.939)" fill="white" stroke="#B6B6B7" stroke-width="0.752691" stroke-linejoin="round"/>
<rect width="55.3998" height="55.3998" transform="matrix(0.866023 0.500004 -0.866023 0.500004 288.371 166.238)" fill="#FBFBFB" stroke="#B6B6B7" stroke-width="0.752692" stroke-linejoin="round"/>
<rect width="55.3998" height="18.0051" transform="matrix(0.866023 0.500004 0 1 240.396 193.939)" fill="#FBFBFB" stroke="#B6B6B7" stroke-width="0.752691" stroke-linejoin="round"/>
<rect width="55.3998" height="18.0051" transform="matrix(0.866023 -0.500004 0 1 288.371 221.641)" fill="white" stroke="#B6B6B7" stroke-width="0.752691" stroke-linejoin="round"/>
<rect width="55.3998" height="55.3998" transform="matrix(0.866023 0.500004 -0.866023 0.500004 240.396 193.943)" fill="#FBFBFB" stroke="#B6B6B7" stroke-width="0.752692" stroke-linejoin="round"/>
<rect width="55.3998" height="18.0051" transform="matrix(0.866023 0.500004 0 1 192.422 221.645)" fill="#FBFBFB" stroke="#B6B6B7" stroke-width="0.752691" stroke-linejoin="round"/>
<rect width="55.3998" height="18.0051" transform="matrix(0.866023 -0.500004 0 1 240.398 249.348)" fill="white" stroke="#B6B6B7" stroke-width="0.752691" stroke-linejoin="round"/>
<rect width="55.3998" height="55.3998" transform="matrix(0.866023 0.500004 -0.866023 0.500004 192.416 221.641)" fill="#FBFBFB" stroke="#B6B6B7" stroke-width="0.752692" stroke-linejoin="round"/>
<rect width="55.3998" height="18.0051" transform="matrix(0.866023 0.500004 0 1 144.441 249.342)" fill="#FBFBFB" stroke="#B6B6B7" stroke-width="0.752691" stroke-linejoin="round"/>
<rect width="55.3998" height="18.0051" transform="matrix(0.866023 -0.500004 0 1 192.418 277.043)" fill="white" stroke="#B6B6B7" stroke-width="0.752691" stroke-linejoin="round"/>
<rect width="55.3998" height="55.3998" transform="matrix(0.866023 0.500004 -0.866023 0.500004 432.316 208.977)" fill="#FBFBFB" stroke="#B6B6B7" stroke-width="0.752692" stroke-linejoin="round"/>
<rect width="55.3998" height="18.0051" transform="matrix(0.866023 0.500004 0 1 384.342 236.678)" fill="#FBFBFB" stroke="#B6B6B7" stroke-width="0.752691" stroke-linejoin="round"/>
<rect width="55.3998" height="18.0051" transform="matrix(0.866023 -0.500004 0 1 432.318 264.379)" fill="white" stroke="#B6B6B7" stroke-width="0.752691" stroke-linejoin="round"/>
<rect width="55.3998" height="55.3998" transform="matrix(0.866023 0.500004 -0.866023 0.500004 384.336 236.705)" fill="#FBFBFB" stroke="#B6B6B7" stroke-width="0.752692" stroke-linejoin="round"/>
<rect width="55.3998" height="18.0051" transform="matrix(0.866023 0.500004 0 1 336.361 264.406)" fill="#FBFBFB" stroke="#B6B6B7" stroke-width="0.752691" stroke-linejoin="round"/>
<rect width="55.3998" height="18.0051" transform="matrix(0.866023 -0.500004 0 1 384.336 292.107)" fill="white" stroke="#B6B6B7" stroke-width="0.752691" stroke-linejoin="round"/>
<rect width="55.3998" height="55.3998" transform="matrix(0.866023 0.500004 -0.866023 0.500004 336.357 264.396)" fill="#FBFBFB" stroke="#B6B6B7" stroke-width="0.752692" stroke-linejoin="round"/>
<rect width="55.3998" height="18.0051" transform="matrix(0.866023 0.500004 0 1 288.383 292.098)" fill="#FBFBFB" stroke="#B6B6B7" stroke-width="0.752691" stroke-linejoin="round"/>
<rect width="55.3998" height="18.0051" transform="matrix(0.866023 -0.500004 0 1 336.357 319.801)" fill="#FBFBFB" stroke="#B6B6B7" stroke-width="0.752691" stroke-linejoin="round"/>
<rect width="55.3998" height="55.3998" transform="matrix(0.866023 0.500004 -0.866023 0.500004 384.34 292.092)" fill="#FBFBFB" stroke="#B6B6B7" stroke-width="0.752692" stroke-linejoin="round"/>
<rect width="55.3998" height="18.0051" transform="matrix(0.866023 0.500004 0 1 336.363 319.793)" fill="white" stroke="#B6B6B7" stroke-width="0.752691" stroke-linejoin="round"/>
<rect width="55.3998" height="18.0051" transform="matrix(0.866023 -0.500004 0 1 384.34 347.494)" fill="#FBFBFB" stroke="#B6B6B7" stroke-width="0.752691" stroke-linejoin="round"/>
<rect width="55.3998" height="55.3998" transform="matrix(0.866023 0.500004 -0.866023 0.500004 432.324 319.814)" fill="#FBFBFB" stroke="#B6B6B7" stroke-width="0.752692" stroke-linejoin="round"/>
<rect width="55.3998" height="18.0051" transform="matrix(0.866023 0.500004 0 1 384.348 347.516)" fill="white" stroke="#B6B6B7" stroke-width="0.752691" stroke-linejoin="round"/>
<rect width="55.3998" height="18.0051" transform="matrix(0.866023 -0.500004 0 1 432.324 375.219)" fill="#FBFBFB" stroke="#B6B6B7" stroke-width="0.752691" stroke-linejoin="round"/>
<rect width="55.3998" height="55.3998" transform="matrix(0.866023 0.500004 -0.866023 0.500004 288.383 292.092)" fill="#FBFBFB" stroke="#B6B6B7" stroke-width="0.752692" stroke-linejoin="round"/>
<rect width="55.3998" height="18.0051" transform="matrix(0.866023 0.500004 0 1 240.408 319.793)" fill="#FBFBFB" stroke="#B6B6B7" stroke-width="0.752691" stroke-linejoin="round"/>
<rect width="55.3998" height="18.0051" transform="matrix(0.866023 -0.500004 0 1 288.383 347.494)" fill="white" stroke="#B6B6B7" stroke-width="0.752691" stroke-linejoin="round"/>
<rect width="55.3998" height="55.3998" transform="matrix(0.866023 0.500004 -0.866023 0.500004 240.438 319.814)" fill="#FBFBFB" stroke="#B6B6B7" stroke-width="0.752692" stroke-linejoin="round"/>
<rect width="55.3998" height="18.0051" transform="matrix(0.866023 0.500004 0 1 192.463 347.516)" fill="#FBFBFB" stroke="#B6B6B7" stroke-width="0.752691" stroke-linejoin="round"/>
<rect width="55.3998" height="18.0051" transform="matrix(0.866023 -0.500004 0 1 240.438 375.219)" fill="white" stroke="#B6B6B7" stroke-width="0.752691" stroke-linejoin="round"/>
<rect width="55.3998" height="55.3998" transform="matrix(0.866023 0.500004 -0.866023 0.500004 192.43 347.502)" fill="#FBFBFB" stroke="#B6B6B7" stroke-width="0.752692" stroke-linejoin="round"/>
<rect width="55.3998" height="18.0051" transform="matrix(0.866023 0.500004 0 1 144.455 375.203)" fill="white" stroke="#B6B6B7" stroke-width="0.752691" stroke-linejoin="round"/>
<rect width="55.3998" height="18.0051" transform="matrix(0.866023 -0.500004 0 1 192.43 402.898)" fill="white" stroke="#B6B6B7" stroke-width="0.752691" stroke-linejoin="round"/>
<rect width="55.3998" height="55.3998" transform="matrix(0.866023 0.500004 -0.866023 0.500004 528.43 467.168)" fill="#FBFBFB" stroke="#B6B6B7" stroke-width="0.752692" stroke-linejoin="round"/>
<rect width="55.3998" height="18.0051" transform="matrix(0.866023 0.500004 0 1 480.455 494.869)" fill="#FBFBFB" stroke="#B6B6B7" stroke-width="0.752691" stroke-linejoin="round"/>
<rect width="55.3998" height="18.0051" transform="matrix(0.866023 -0.500004 0 1 528.43 522.572)" fill="white" stroke="#B6B6B7" stroke-width="0.752691" stroke-linejoin="round"/>
<rect width="55.3998" height="55.3998" transform="matrix(0.866023 0.500004 -0.866023 0.500004 528.43 543.521)" fill="white" stroke="#B6B6B7" stroke-width="0.752692" stroke-linejoin="round"/>
<rect width="55.3998" height="18.0051" transform="matrix(0.866023 0.500004 0 1 480.455 571.223)" fill="#FBFBFB" stroke="#B6B6B7" stroke-width="0.752691" stroke-linejoin="round"/>
<rect width="55.3998" height="18.0051" transform="matrix(0.866023 -0.500004 0 1 528.43 598.926)" fill="white" stroke="#B6B6B7" stroke-width="0.752691" stroke-linejoin="round"/>
<rect width="55.3998" height="55.3998" transform="matrix(0.866023 0.500004 -0.866023 0.500004 336.352 586.875)" fill="white" stroke="#B6B6B7" stroke-width="0.752692" stroke-linejoin="round"/>
<rect width="55.3998" height="55.3998" transform="matrix(0.866023 0.500004 -0.866023 0.500004 576.256 290.861)" fill="#FBFBFB" stroke="#B6B6B7" stroke-width="0.752692" stroke-linejoin="round"/>
<rect width="55.3998" height="18.0051" transform="matrix(0.866023 0.500004 0 1 528.281 318.562)" fill="#FBFBFB" stroke="#B6B6B7" stroke-width="0.752691" stroke-linejoin="round"/>
<rect width="55.3998" height="18.0051" transform="matrix(0.866023 -0.500004 0 1 576.258 346.266)" fill="white" stroke="#B6B6B7" stroke-width="0.752691" stroke-linejoin="round"/>
<rect width="55.3998" height="55.3998" transform="matrix(0.866023 0.500004 -0.866023 0.500004 528.277 318.584)" fill="#FBFBFB" stroke="#B6B6B7" stroke-width="0.752692" stroke-linejoin="round"/>
<rect width="55.3998" height="18.0051" transform="matrix(0.866023 0.500004 0 1 480.303 346.283)" fill="#FBFBFB" stroke="#B6B6B7" stroke-width="0.752691" stroke-linejoin="round"/>
<path d="M528.277 373.986L576.519 346.083L576.496 364.115L528.277 391.991V373.986Z" fill="white" stroke="#B6B6B7" stroke-width="0.752691" stroke-linejoin="round"/>
<rect width="55.3998" height="55.3998" transform="matrix(0.866023 0.500004 -0.866023 0.500004 528.43 439.645)" fill="#FBFBFB" stroke="#B6B6B7" stroke-width="0.752692" stroke-linejoin="round"/>
<rect width="55.3998" height="18.0051" transform="matrix(0.866023 0.500004 0 1 480.453 467.346)" fill="white" stroke="#B6B6B7" stroke-width="0.752691" stroke-linejoin="round"/>
<rect width="55.3998" height="18.0051" transform="matrix(0.866023 -0.500004 0 1 528.43 495.049)" fill="white" stroke="#B6B6B7" stroke-width="0.752691" stroke-linejoin="round"/>
<rect width="55.3998" height="55.3998" transform="matrix(0.866023 0.500004 -0.866023 0.500004 480.297 346.279)" fill="#FBFBFB" stroke="#B6B6B7" stroke-width="0.752692" stroke-linejoin="round"/>
<rect width="55.3998" height="18.0051" transform="matrix(0.866023 0.500004 0 1 432.322 373.98)" fill="#FBFBFB" stroke="#B6B6B7" stroke-width="0.752691" stroke-linejoin="round"/>
<rect width="55.3998" height="18.0051" transform="matrix(0.866023 -0.500004 0 1 480.297 401.684)" fill="white" stroke="#B6B6B7" stroke-width="0.752691" stroke-linejoin="round"/>
<rect width="55.3998" height="55.3998" transform="matrix(0.866023 0.500004 -0.866023 0.500004 432.324 373.965)" fill="#FBFBFB" stroke="#B6B6B7" stroke-width="0.752692" stroke-linejoin="round"/>
<rect width="55.3998" height="18.0051" transform="matrix(0.866023 0.500004 0 1 384.348 401.666)" fill="#FBFBFB" stroke="#B6B6B7" stroke-width="0.752691" stroke-linejoin="round"/>
<rect width="55.3998" height="18.0051" transform="matrix(0.866023 -0.500004 0 1 432.324 429.365)" fill="white" stroke="#B6B6B7" stroke-width="0.752691" stroke-linejoin="round"/>
<rect width="55.3998" height="55.3998" transform="matrix(0.866023 0.500004 -0.866023 0.500004 384.352 401.689)" fill="#FBFBFB" stroke="#B6B6B7" stroke-width="0.752692" stroke-linejoin="round"/>
<rect width="55.3998" height="18.0051" transform="matrix(0.866023 0.500004 0 1 336.377 429.391)" fill="#FBFBFB" stroke="#B6B6B7" stroke-width="0.752691" stroke-linejoin="round"/>
<rect width="55.3998" height="18.0051" transform="matrix(0.866023 -0.500004 0 1 384.354 457.096)" fill="white" stroke="#B6B6B7" stroke-width="0.752691" stroke-linejoin="round"/>
<rect width="55.3998" height="55.3998" transform="matrix(0.866023 0.500004 -0.866023 0.500004 336.367 429.383)" fill="#FBFBFB" stroke="#B6B6B7" stroke-width="0.752692" stroke-linejoin="round"/>
<rect width="55.3998" height="18.0051" transform="matrix(0.866023 0.500004 0 1 288.395 457.084)" fill="#FBFBFB" stroke="#B6B6B7" stroke-width="0.752691" stroke-linejoin="round"/>
<rect width="55.3998" height="18.0051" transform="matrix(0.866023 -0.500004 0 1 336.367 484.785)" fill="white" stroke="#B6B6B7" stroke-width="0.752691" stroke-linejoin="round"/>
<rect width="55.3998" height="55.3998" transform="matrix(0.866023 0.500004 -0.866023 0.500004 336.352 531.818)" fill="#FBFBFB" stroke="#B6B6B7" stroke-width="0.752692" stroke-linejoin="round"/>
<rect width="55.3998" height="18.0051" transform="matrix(0.866023 0.500004 0 1 288.375 559.52)" fill="#FBFBFB" stroke="#B6B6B7" stroke-width="0.752691" stroke-linejoin="round"/>
<rect width="55.3998" height="18.0051" transform="matrix(0.866023 -0.500004 0 1 336.352 587.221)" fill="white" stroke="#B6B6B7" stroke-width="0.752691" stroke-linejoin="round"/>
<rect width="55.3998" height="55.3998" transform="matrix(0.866023 0.500004 -0.866023 0.500004 336.352 502.932)" fill="#FBFBFB" stroke="#B6B6B7" stroke-width="0.752692" stroke-linejoin="round"/>
<rect width="55.3998" height="18.0051" transform="matrix(0.866023 0.500004 0 1 288.377 530.633)" fill="#FBFBFB" stroke="#B6B6B7" stroke-width="0.752691" stroke-linejoin="round"/>
<rect width="55.3998" height="18.0051" transform="matrix(0.866023 -0.500004 0 1 336.352 558.334)" fill="white" stroke="#B6B6B7" stroke-width="0.752691" stroke-linejoin="round"/>
</g>
<defs>
<clipPath id="clip0_3006_321616">
<rect width="528" height="480" fill="white" transform="translate(48.5 113)"/>
</clipPath>
</defs>
</svg>
