<svg width="371" height="608" viewBox="0 0 371 608" fill="none" xmlns="http://www.w3.org/2000/svg">
<rect width="38.7799" height="38.7799" transform="matrix(0.866023 0.500004 -0.866023 0.500004 202.555 1.00195)" fill="#FBFBFB" stroke="#B6B6B7" stroke-width="0.526885" stroke-linejoin="round"/>
<rect width="38.7799" height="12.6035" transform="matrix(0.866023 0.500004 0 1 168.971 20.3926)" fill="#FBFBFB" stroke="#B6B6B7" stroke-width="0.526884" stroke-linejoin="round"/>
<rect width="38.7799" height="12.6035" transform="matrix(0.866023 -0.500004 0 1 202.555 39.7852)" fill="#F2F2F2" stroke="#B6B6B7" stroke-width="0.526884" stroke-linejoin="round"/>
<rect width="38.7799" height="38.7799" transform="matrix(0.866023 0.500004 -0.866023 0.500004 168.969 20.4199)" fill="#FBFBFB" stroke="#B6B6B7" stroke-width="0.526885" stroke-linejoin="round"/>
<rect width="38.7799" height="12.6035" transform="matrix(0.866023 0.500004 0 1 135.387 39.8105)" fill="#FBFBFB" stroke="#B6B6B7" stroke-width="0.526884" stroke-linejoin="round"/>
<rect width="38.7799" height="12.6035" transform="matrix(0.866023 -0.500004 0 1 168.969 59.2031)" fill="#F2F2F2" stroke="#B6B6B7" stroke-width="0.526884" stroke-linejoin="round"/>
<rect width="38.7799" height="38.7799" transform="matrix(0.866023 0.500004 -0.866023 0.500004 135.381 39.7969)" fill="#FBFBFB" stroke="#B6B6B7" stroke-width="0.526885" stroke-linejoin="round"/>
<rect width="38.7799" height="12.6035" transform="matrix(0.866023 0.500004 0 1 101.799 59.1875)" fill="#FBFBFB" stroke="#B6B6B7" stroke-width="0.526884" stroke-linejoin="round"/>
<rect width="38.7799" height="12.6035" transform="matrix(0.866023 -0.500004 0 1 135.381 78.5781)" fill="#FBFBFB" stroke="#B6B6B7" stroke-width="0.526884" stroke-linejoin="round"/>
<rect width="38.7799" height="38.7799" transform="matrix(0.866023 0.500004 -0.866023 0.500004 168.975 59.1895)" fill="#FBFBFB" stroke="#B6B6B7" stroke-width="0.526885" stroke-linejoin="round"/>
<path d="M135.391 78.5801L168.975 97.9702V110.574L135.391 91.1836V78.5801Z" fill="#F2F2F2" stroke="#B6B6B7" stroke-width="0.526884" stroke-linejoin="round"/>
<rect width="38.7799" height="12.6035" transform="matrix(0.866023 -0.500004 0 1 168.975 97.9727)" fill="#FBFBFB" stroke="#B6B6B7" stroke-width="0.526884" stroke-linejoin="round"/>
<rect width="38.7799" height="38.7799" transform="matrix(0.866023 0.500004 -0.866023 0.500004 202.561 78.5762)" fill="#FBFBFB" stroke="#B6B6B7" stroke-width="0.526885" stroke-linejoin="round"/>
<path d="M168.979 97.9668L202.563 117.357V129.96L168.979 110.57V97.9668Z" fill="#F2F2F2" stroke="#B6B6B7" stroke-width="0.526884" stroke-linejoin="round"/>
<rect width="38.7799" height="12.6035" transform="matrix(0.866023 -0.500004 0 1 202.561 117.359)" fill="#FBFBFB" stroke="#B6B6B7" stroke-width="0.526884" stroke-linejoin="round"/>
<rect width="38.7799" height="38.7799" transform="matrix(0.866023 0.500004 -0.866023 0.500004 101.801 59.1895)" fill="#FBFBFB" stroke="#B6B6B7" stroke-width="0.526885" stroke-linejoin="round"/>
<rect width="38.7799" height="12.6035" transform="matrix(0.866023 0.500004 0 1 68.2188 78.5801)" fill="#FBFBFB" stroke="#B6B6B7" stroke-width="0.526884" stroke-linejoin="round"/>
<path d="M101.801 97.9727L135.385 78.5826V91.1861L101.801 110.576V97.9727Z" fill="#F2F2F2" stroke="#B6B6B7" stroke-width="0.526884" stroke-linejoin="round"/>
<rect width="38.7799" height="38.7799" transform="matrix(0.866023 0.500004 -0.866023 0.500004 68.2207 78.5742)" fill="#FBFBFB" stroke="#B6B6B7" stroke-width="0.526885" stroke-linejoin="round"/>
<rect width="38.7799" height="12.6035" transform="matrix(0.866023 0.500004 0 1 34.6387 97.9648)" fill="#FBFBFB" stroke="#B6B6B7" stroke-width="0.526884" stroke-linejoin="round"/>
<path d="M68.2207 117.357L101.805 97.9673V110.571L68.2207 129.961V117.357Z" fill="#F2F2F2" stroke="#B6B6B7" stroke-width="0.526884" stroke-linejoin="round"/>
<rect width="38.7799" height="38.7799" transform="matrix(0.866023 0.500004 -0.866023 0.500004 34.6328 97.9629)" fill="#FBFBFB" stroke="#B6B6B7" stroke-width="0.526885" stroke-linejoin="round"/>
<rect width="38.7799" height="12.6035" transform="matrix(0.866023 0.500004 0 1 1.05078 117.354)" fill="#F2F2F2" stroke="#B6B6B7" stroke-width="0.526884" stroke-linejoin="round"/>
<path d="M34.6328 136.746L68.2171 117.356V129.96L34.6328 149.35V136.746Z" fill="#F2F2F2" stroke="#B6B6B7" stroke-width="0.526884" stroke-linejoin="round"/>
<path d="M303.371 314.077V110.465" stroke="#D2D3D5" stroke-width="0.526884" stroke-linejoin="round"/>
<path d="M269.77 318.84V129.316" stroke="#D2D3D5" stroke-width="0.526884" stroke-linejoin="round"/>
<path d="M236.148 318.832V149.064" stroke="#D2D3D5" stroke-width="0.526884" stroke-linejoin="round"/>
<path d="M202.566 321.116V168.33" stroke="#D2D3D5" stroke-width="0.526884" stroke-linejoin="round"/>
<path d="M168.971 225.502V187.582" stroke="#D2D3D5" stroke-width="0.526884" stroke-linejoin="round"/>
<path d="M135.346 245.239V207.318" stroke="#D2D3D5" stroke-width="0.526884" stroke-linejoin="round"/>
<rect width="38.7799" height="38.7799" transform="matrix(0.866023 0.500004 -0.866023 0.500004 303.311 59.1875)" fill="#FBFBFB" stroke="#B6B6B7" stroke-width="0.526885" stroke-linejoin="round"/>
<rect width="38.7799" height="12.6035" transform="matrix(0.866023 0.500004 0 1 269.729 78.5781)" fill="#FBFBFB" stroke="#B6B6B7" stroke-width="0.526884" stroke-linejoin="round"/>
<path d="M303.311 97.9688L336.895 78.5787V91.1822L303.311 110.572V97.9688Z" fill="#F2F2F2" stroke="#B6B6B7" stroke-width="0.526884" stroke-linejoin="round"/>
<rect width="38.7799" height="38.7799" transform="matrix(0.866023 0.500004 -0.866023 0.500004 269.727 78.5918)" fill="#FBFBFB" stroke="#B6B6B7" stroke-width="0.526885" stroke-linejoin="round"/>
<rect width="38.7799" height="12.6035" transform="matrix(0.866023 0.500004 0 1 236.145 97.9824)" fill="#FBFBFB" stroke="#B6B6B7" stroke-width="0.526884" stroke-linejoin="round"/>
<path d="M269.727 117.375L303.311 97.9849V110.588L269.727 129.979V117.375Z" fill="#F2F2F2" stroke="#B6B6B7" stroke-width="0.526884" stroke-linejoin="round"/>
<rect width="38.7799" height="38.7799" transform="matrix(0.866023 0.500004 -0.866023 0.500004 236.141 97.9707)" fill="#FBFBFB" stroke="#B6B6B7" stroke-width="0.526885" stroke-linejoin="round"/>
<rect width="38.7799" height="12.6035" transform="matrix(0.866023 0.500004 0 1 202.559 117.363)" fill="#FBFBFB" stroke="#B6B6B7" stroke-width="0.526884" stroke-linejoin="round"/>
<path d="M236.141 136.758L269.725 117.368V129.971L236.141 149.361V136.758Z" fill="#F2F2F2" stroke="#B6B6B7" stroke-width="0.526884" stroke-linejoin="round"/>
<rect width="38.7799" height="38.7799" transform="matrix(0.866023 0.500004 -0.866023 0.500004 202.561 117.367)" fill="#FBFBFB" stroke="#B6B6B7" stroke-width="0.526885" stroke-linejoin="round"/>
<rect width="38.7799" height="12.6035" transform="matrix(0.866023 0.500004 0 1 168.979 136.758)" fill="#FBFBFB" stroke="#B6B6B7" stroke-width="0.526884" stroke-linejoin="round"/>
<rect width="38.7799" height="12.6035" transform="matrix(0.866023 -0.500004 0 1 202.561 156.148)" fill="white" stroke="#B6B6B7" stroke-width="0.526884" stroke-linejoin="round"/>
<rect width="38.7799" height="38.7799" transform="matrix(0.866023 0.500004 -0.866023 0.500004 168.979 136.762)" fill="#FBFBFB" stroke="#B6B6B7" stroke-width="0.526885" stroke-linejoin="round"/>
<rect width="38.7799" height="12.6035" transform="matrix(0.866023 0.500004 0 1 135.396 156.152)" fill="#FBFBFB" stroke="#B6B6B7" stroke-width="0.526884" stroke-linejoin="round"/>
<rect width="38.7799" height="12.6035" transform="matrix(0.866023 -0.500004 0 1 168.979 175.545)" fill="white" stroke="#B6B6B7" stroke-width="0.526884" stroke-linejoin="round"/>
<rect width="38.7799" height="38.7799" transform="matrix(0.866023 0.500004 -0.866023 0.500004 135.393 156.148)" fill="#FBFBFB" stroke="#B6B6B7" stroke-width="0.526885" stroke-linejoin="round"/>
<rect width="38.7799" height="12.6035" transform="matrix(0.866023 0.500004 0 1 101.809 175.539)" fill="#FBFBFB" stroke="#B6B6B7" stroke-width="0.526884" stroke-linejoin="round"/>
<rect width="38.7799" height="12.6035" transform="matrix(0.866023 -0.500004 0 1 135.393 194.93)" fill="white" stroke="#B6B6B7" stroke-width="0.526884" stroke-linejoin="round"/>
<rect width="38.7799" height="38.7799" transform="matrix(0.866023 0.500004 -0.866023 0.500004 303.365 423.664)" fill="#FBFBFB" stroke="#B6B6B7" stroke-width="0.526885" stroke-linejoin="round"/>
<path d="M269.783 443.055L303.367 462.445V475.048L269.783 455.658V443.055Z" fill="#F2F2F2" stroke="#B6B6B7" stroke-width="0.526884" stroke-linejoin="round"/>
<path d="M303.365 462.447L336.95 443.057V455.661L303.365 475.051V462.447Z" fill="#F2F2F2" stroke="#B6B6B7" stroke-width="0.526884" stroke-linejoin="round"/>
<rect width="38.7799" height="38.7799" transform="matrix(0.866023 0.500004 -0.866023 0.500004 303.365 555.762)" fill="white" stroke="#B6B6B7" stroke-width="0.526885" stroke-linejoin="round"/>
<rect width="38.7799" height="12.6035" transform="matrix(0.866023 0.500004 0 1 269.783 575.152)" fill="#F2F2F2" stroke="#B6B6B7" stroke-width="0.526884" stroke-linejoin="round"/>
<rect width="38.7799" height="12.6035" transform="matrix(0.866023 -0.500004 0 1 303.363 594.543)" fill="#F2F2F2" stroke="#B6B6B7" stroke-width="0.526884" stroke-linejoin="round"/>
<rect width="38.7799" height="38.7799" transform="matrix(0.866023 0.500004 -0.866023 0.500004 303.365 494.113)" fill="white" stroke="#B6B6B7" stroke-width="0.526885" stroke-linejoin="round"/>
<path d="M269.781 513.504L303.366 532.894V545.498L269.781 526.107V513.504Z" fill="#F2F2F2" stroke="#B6B6B7" stroke-width="0.526884" stroke-linejoin="round"/>
<path d="M303.365 532.896L336.95 513.506V526.11L303.365 545.5V532.896Z" fill="#F2F2F2" stroke="#B6B6B7" stroke-width="0.526884" stroke-linejoin="round"/>
<rect width="38.7799" height="38.7799" transform="matrix(0.866023 0.500004 -0.866023 0.500004 169.018 508.459)" fill="white" stroke="#B6B6B7" stroke-width="0.526885" stroke-linejoin="round"/>
<rect width="38.7799" height="12.6035" transform="matrix(0.866023 0.500004 0 1 135.436 527.85)" fill="#F2F2F2" stroke="#B6B6B7" stroke-width="0.526884" stroke-linejoin="round"/>
<rect width="38.7799" height="12.6035" transform="matrix(0.866023 -0.500004 0 1 169.02 547.242)" fill="#F2F2F2" stroke="#B6B6B7" stroke-width="0.526884" stroke-linejoin="round"/>
<rect width="38.7799" height="38.7799" transform="matrix(0.866023 0.500004 -0.866023 0.500004 336.949 301.25)" fill="#FBFBFB" stroke="#B6B6B7" stroke-width="0.526885" stroke-linejoin="round"/>
<rect width="38.7799" height="12.6035" transform="matrix(0.866023 0.500004 0 1 303.365 320.641)" fill="#FBFBFB" stroke="#B6B6B7" stroke-width="0.526884" stroke-linejoin="round"/>
<rect width="38.7799" height="12.6035" transform="matrix(0.866023 -0.500004 0 1 336.949 340.033)" fill="#F2F2F2" stroke="#B6B6B7" stroke-width="0.526884" stroke-linejoin="round"/>
<rect width="38.7799" height="38.7799" transform="matrix(0.866023 0.500004 -0.866023 0.500004 303.367 320.656)" fill="#FBFBFB" stroke="#B6B6B7" stroke-width="0.526885" stroke-linejoin="round"/>
<rect width="38.7799" height="12.6035" transform="matrix(0.866023 0.500004 0 1 269.785 340.045)" fill="#FBFBFB" stroke="#B6B6B7" stroke-width="0.526884" stroke-linejoin="round"/>
<rect width="38.7799" height="12.6035" transform="matrix(0.866023 -0.500004 0 1 303.367 359.438)" fill="white" stroke="#B6B6B7" stroke-width="0.526884" stroke-linejoin="round"/>
<rect width="38.7799" height="38.7799" transform="matrix(0.866023 0.500004 -0.866023 0.500004 303.365 404.398)" fill="#FBFBFB" stroke="#B6B6B7" stroke-width="0.526885" stroke-linejoin="round"/>
<path d="M269.781 423.789L303.366 443.179V455.783L269.781 436.393V423.789Z" fill="#F2F2F2" stroke="#B6B6B7" stroke-width="0.526884" stroke-linejoin="round"/>
<path d="M303.365 443.182L336.95 423.792V436.395L303.365 455.785V443.182Z" fill="#F2F2F2" stroke="#B6B6B7" stroke-width="0.526884" stroke-linejoin="round"/>
<rect width="38.7799" height="38.7799" transform="matrix(0.866023 0.500004 -0.866023 0.500004 269.779 340.043)" fill="#FBFBFB" stroke="#B6B6B7" stroke-width="0.526885" stroke-linejoin="round"/>
<rect width="38.7799" height="12.6035" transform="matrix(0.866023 0.500004 0 1 236.197 359.434)" fill="#FBFBFB" stroke="#B6B6B7" stroke-width="0.526884" stroke-linejoin="round"/>
<rect width="38.7799" height="12.6035" transform="matrix(0.866023 -0.500004 0 1 269.779 378.826)" fill="white" stroke="#B6B6B7" stroke-width="0.526884" stroke-linejoin="round"/>
<rect width="38.7799" height="38.7799" transform="matrix(0.866023 0.500004 -0.866023 0.500004 236.199 359.422)" fill="#FBFBFB" stroke="#B6B6B7" stroke-width="0.526885" stroke-linejoin="round"/>
<rect width="38.7799" height="12.6035" transform="matrix(0.866023 0.500004 0 1 202.615 378.812)" fill="#FBFBFB" stroke="#B6B6B7" stroke-width="0.526884" stroke-linejoin="round"/>
<rect width="38.7799" height="12.6035" transform="matrix(0.866023 -0.500004 0 1 236.199 398.201)" fill="white" stroke="#B6B6B7" stroke-width="0.526884" stroke-linejoin="round"/>
<rect width="38.7799" height="38.7799" transform="matrix(0.866023 0.500004 -0.866023 0.500004 202.617 378.83)" fill="#FBFBFB" stroke="#B6B6B7" stroke-width="0.526885" stroke-linejoin="round"/>
<rect width="38.7799" height="12.6035" transform="matrix(0.866023 0.500004 0 1 169.035 398.221)" fill="#FBFBFB" stroke="#B6B6B7" stroke-width="0.526884" stroke-linejoin="round"/>
<rect width="38.7799" height="12.6035" transform="matrix(0.866023 -0.500004 0 1 202.617 417.615)" fill="white" stroke="#B6B6B7" stroke-width="0.526884" stroke-linejoin="round"/>
<rect width="38.7799" height="38.7799" transform="matrix(0.866023 0.500004 -0.866023 0.500004 169.029 398.215)" fill="#FBFBFB" stroke="#B6B6B7" stroke-width="0.526885" stroke-linejoin="round"/>
<rect width="38.7799" height="12.6035" transform="matrix(0.866023 0.500004 0 1 135.447 417.605)" fill="#FBFBFB" stroke="#B6B6B7" stroke-width="0.526884" stroke-linejoin="round"/>
<rect width="38.7799" height="12.6035" transform="matrix(0.866023 -0.500004 0 1 169.029 436.996)" fill="white" stroke="#B6B6B7" stroke-width="0.526884" stroke-linejoin="round"/>
<rect width="38.7799" height="38.7799" transform="matrix(0.866023 0.500004 -0.866023 0.500004 169.018 469.92)" fill="#FBFBFB" stroke="#B6B6B7" stroke-width="0.526885" stroke-linejoin="round"/>
<path d="M135.434 489.311L169.018 508.701V521.304L135.434 501.914V489.311Z" fill="#F2F2F2" stroke="#B6B6B7" stroke-width="0.526884" stroke-linejoin="round"/>
<path d="M169.018 508.701L202.602 489.311V501.915L169.018 521.305V508.701Z" fill="#F2F2F2" stroke="#B6B6B7" stroke-width="0.526884" stroke-linejoin="round"/>
<path d="M169.018 449.699L202.602 469.089L169.018 488.479L135.433 469.089L169.018 449.699Z" fill="white" stroke="#B6B6B7" stroke-width="0.526885" stroke-linejoin="round"/>
<path d="M135.436 469.09L169.02 488.48V501.083L135.436 481.693V469.09Z" fill="#F2F2F2" stroke="#B6B6B7" stroke-width="0.526884" stroke-linejoin="round"/>
<path d="M169.018 488.48L202.602 469.09V481.694L169.018 501.084V488.48Z" fill="#F2F2F2" stroke="#B6B6B7" stroke-width="0.526884" stroke-linejoin="round"/>
<rect width="38.7799" height="38.7799" transform="matrix(0.866023 0.500004 -0.866023 0.500004 236.275 242.92)" fill="#FBFBFB" stroke="#B6B6B7" stroke-width="0.526885" stroke-linejoin="round"/>
<rect width="38.7799" height="12.6035" transform="matrix(0.866023 0.500004 0 1 202.693 262.311)" fill="#FBFBFB" stroke="#B6B6B7" stroke-width="0.526884" stroke-linejoin="round"/>
<rect width="38.7799" height="12.6035" transform="matrix(0.866023 -0.500004 0 1 236.277 281.701)" fill="white" stroke="#B6B6B7" stroke-width="0.526884" stroke-linejoin="round"/>
<rect width="38.7799" height="38.7799" transform="matrix(0.866023 0.500004 -0.866023 0.500004 202.689 262.312)" fill="#FBFBFB" stroke="#B6B6B7" stroke-width="0.526885" stroke-linejoin="round"/>
<rect width="38.7799" height="12.6035" transform="matrix(0.866023 0.500004 0 1 169.107 281.703)" fill="#FBFBFB" stroke="#B6B6B7" stroke-width="0.526884" stroke-linejoin="round"/>
<rect width="38.7799" height="12.6035" transform="matrix(0.866023 -0.500004 0 1 202.689 301.094)" fill="white" stroke="#B6B6B7" stroke-width="0.526884" stroke-linejoin="round"/>
<rect width="38.7799" height="38.7799" transform="matrix(0.866023 0.500004 -0.866023 0.500004 169.105 281.883)" fill="#FBFBFB" stroke="#B6B6B7" stroke-width="0.526885" stroke-linejoin="round"/>
<rect width="38.7799" height="12.6035" transform="matrix(0.866023 0.500004 0 1 135.521 301.273)" fill="#FBFBFB" stroke="#B6B6B7" stroke-width="0.526884" stroke-linejoin="round"/>
<rect width="38.7799" height="12.6035" transform="matrix(0.866023 -0.500004 0 1 169.105 320.666)" fill="#FBFBFB" stroke="#B6B6B7" stroke-width="0.526884" stroke-linejoin="round"/>
<rect width="38.7799" height="38.7799" transform="matrix(0.866023 0.500004 -0.866023 0.500004 202.693 301.115)" fill="#FBFBFB" stroke="#B6B6B7" stroke-width="0.526885" stroke-linejoin="round"/>
<rect width="38.7799" height="12.6035" transform="matrix(0.866023 0.500004 0 1 169.109 320.506)" fill="white" stroke="#B6B6B7" stroke-width="0.526884" stroke-linejoin="round"/>
<rect width="38.7799" height="12.6035" transform="matrix(0.866023 -0.500004 0 1 202.693 339.896)" fill="#FBFBFB" stroke="#B6B6B7" stroke-width="0.526884" stroke-linejoin="round"/>
<rect width="38.7799" height="38.7799" transform="matrix(0.866023 0.500004 -0.866023 0.500004 236.281 320.508)" fill="#FBFBFB" stroke="#B6B6B7" stroke-width="0.526885" stroke-linejoin="round"/>
<rect width="38.7799" height="12.6035" transform="matrix(0.866023 0.500004 0 1 202.699 339.898)" fill="white" stroke="#B6B6B7" stroke-width="0.526884" stroke-linejoin="round"/>
<rect width="38.7799" height="12.6035" transform="matrix(0.866023 -0.500004 0 1 236.281 359.291)" fill="#FBFBFB" stroke="#B6B6B7" stroke-width="0.526884" stroke-linejoin="round"/>
<rect width="38.7799" height="38.7799" transform="matrix(0.866023 0.500004 -0.866023 0.500004 135.523 301.037)" fill="#FBFBFB" stroke="#B6B6B7" stroke-width="0.526885" stroke-linejoin="round"/>
<rect width="38.7799" height="12.6035" transform="matrix(0.866023 0.500004 0 1 101.941 320.428)" fill="#FBFBFB" stroke="#B6B6B7" stroke-width="0.526884" stroke-linejoin="round"/>
<rect width="38.7799" height="12.6035" transform="matrix(0.866023 -0.500004 0 1 135.523 339.818)" fill="white" stroke="#B6B6B7" stroke-width="0.526884" stroke-linejoin="round"/>
<rect width="38.7799" height="38.7799" transform="matrix(0.866023 0.500004 -0.866023 0.500004 101.961 320.512)" fill="#FBFBFB" stroke="#B6B6B7" stroke-width="0.526885" stroke-linejoin="round"/>
<rect width="38.7799" height="12.6035" transform="matrix(0.866023 0.500004 0 1 68.3789 339.902)" fill="#FBFBFB" stroke="#B6B6B7" stroke-width="0.526884" stroke-linejoin="round"/>
<rect width="38.7799" height="12.6035" transform="matrix(0.866023 -0.500004 0 1 101.961 359.295)" fill="white" stroke="#B6B6B7" stroke-width="0.526884" stroke-linejoin="round"/>
<rect width="38.7799" height="38.7799" transform="matrix(0.866023 0.500004 -0.866023 0.500004 68.3555 339.898)" fill="#FBFBFB" stroke="#B6B6B7" stroke-width="0.526885" stroke-linejoin="round"/>
<rect width="38.7799" height="12.6035" transform="matrix(0.866023 0.500004 0 1 34.7734 359.289)" fill="white" stroke="#B6B6B7" stroke-width="0.526884" stroke-linejoin="round"/>
<rect width="38.7799" height="12.6035" transform="matrix(0.866023 -0.500004 0 1 68.3555 378.676)" fill="white" stroke="#B6B6B7" stroke-width="0.526884" stroke-linejoin="round"/>
</svg>
