<svg width="325" height="353" viewBox="0 0 325 353" fill="none" xmlns="http://www.w3.org/2000/svg">
<rect width="27.6999" height="27.6999" transform="matrix(0.866023 0.500004 -0.866023 0.500004 144.432 0.261719)" fill="#FBFBFB" stroke="#D2D3D5" stroke-width="0.376346" stroke-linejoin="round"/>
<rect width="27.6999" height="9.00254" transform="matrix(0.866023 0.500004 0 1 120.445 14.1133)" fill="#FBFBFB" stroke="#D2D3D5" stroke-width="0.376346" stroke-linejoin="round"/>
<rect width="27.6999" height="9.00254" transform="matrix(0.866023 -0.500004 0 1 144.434 27.9648)" fill="#F2F2F2" stroke="#D2D3D5" stroke-width="0.376346" stroke-linejoin="round"/>
<rect width="27.6999" height="27.6999" transform="matrix(0.866023 0.500004 -0.866023 0.500004 120.443 14.1328)" fill="#FBFBFB" stroke="#D2D3D5" stroke-width="0.376346" stroke-linejoin="round"/>
<rect width="27.6999" height="9.00254" transform="matrix(0.866023 0.500004 0 1 96.457 27.9844)" fill="#FBFBFB" stroke="#D2D3D5" stroke-width="0.376346" stroke-linejoin="round"/>
<rect width="27.6999" height="9.00254" transform="matrix(0.866023 -0.500004 0 1 120.443 41.8359)" fill="#F2F2F2" stroke="#D2D3D5" stroke-width="0.376346" stroke-linejoin="round"/>
<rect width="27.6999" height="27.6999" transform="matrix(0.866023 0.500004 -0.866023 0.500004 96.4512 27.9727)" fill="#FBFBFB" stroke="#D2D3D5" stroke-width="0.376346" stroke-linejoin="round"/>
<rect width="27.6999" height="9.00254" transform="matrix(0.866023 0.500004 0 1 72.4648 41.8242)" fill="#FBFBFB" stroke="#D2D3D5" stroke-width="0.376346" stroke-linejoin="round"/>
<rect width="27.6999" height="9.00254" transform="matrix(0.866023 -0.500004 0 1 96.4512 55.6738)" fill="#FBFBFB" stroke="#D2D3D5" stroke-width="0.376346" stroke-linejoin="round"/>
<rect width="27.6999" height="27.6999" transform="matrix(0.866023 0.500004 -0.866023 0.500004 120.445 41.8242)" fill="#FBFBFB" stroke="#D2D3D5" stroke-width="0.376346" stroke-linejoin="round"/>
<rect width="27.6999" height="9.00254" transform="matrix(0.866023 0.500004 0 1 96.459 55.6758)" fill="white" stroke="#D2D3D5" stroke-width="0.376346" stroke-linejoin="round"/>
<rect width="27.6999" height="9.00254" transform="matrix(0.866023 -0.500004 0 1 120.445 69.5273)" fill="#FBFBFB" stroke="#D2D3D5" stroke-width="0.376346" stroke-linejoin="round"/>
<rect width="27.6999" height="27.6999" transform="matrix(0.866023 0.500004 -0.866023 0.500004 144.436 55.6719)" fill="#FBFBFB" stroke="#D2D3D5" stroke-width="0.376346" stroke-linejoin="round"/>
<rect width="27.6999" height="9.00254" transform="matrix(0.866023 0.500004 0 1 120.449 69.5234)" fill="white" stroke="#D2D3D5" stroke-width="0.376346" stroke-linejoin="round"/>
<rect width="27.6999" height="9.00254" transform="matrix(0.866023 -0.500004 0 1 144.438 83.375)" fill="#FBFBFB" stroke="#D2D3D5" stroke-width="0.376346" stroke-linejoin="round"/>
<rect width="27.6999" height="27.6999" transform="matrix(0.866023 0.500004 -0.866023 0.500004 72.4648 41.8242)" fill="#FBFBFB" stroke="#D2D3D5" stroke-width="0.376346" stroke-linejoin="round"/>
<rect width="27.6999" height="9.00254" transform="matrix(0.866023 0.500004 0 1 48.4785 55.6758)" fill="#FBFBFB" stroke="#D2D3D5" stroke-width="0.376346" stroke-linejoin="round"/>
<rect width="27.6999" height="9.00254" transform="matrix(0.866023 -0.500004 0 1 72.4668 69.5273)" fill="white" stroke="#D2D3D5" stroke-width="0.376346" stroke-linejoin="round"/>
<rect width="27.6999" height="27.6999" transform="matrix(0.866023 0.500004 -0.866023 0.500004 48.4785 55.6719)" fill="#FBFBFB" stroke="#D2D3D5" stroke-width="0.376346" stroke-linejoin="round"/>
<rect width="27.6999" height="9.00254" transform="matrix(0.866023 0.500004 0 1 24.4922 69.5234)" fill="#FBFBFB" stroke="#D2D3D5" stroke-width="0.376346" stroke-linejoin="round"/>
<rect width="27.6999" height="9.00254" transform="matrix(0.866023 -0.500004 0 1 48.4785 83.375)" fill="white" stroke="#D2D3D5" stroke-width="0.376346" stroke-linejoin="round"/>
<rect width="27.6999" height="27.6999" transform="matrix(0.866023 0.500004 -0.866023 0.500004 24.4883 69.5195)" fill="#FBFBFB" stroke="#D2D3D5" stroke-width="0.376346" stroke-linejoin="round"/>
<rect width="27.6999" height="9.00254" transform="matrix(0.866023 0.500004 0 1 0.501953 83.3711)" fill="#F2F2F2" stroke="#D2D3D5" stroke-width="0.376346" stroke-linejoin="round"/>
<rect width="27.6999" height="9.00254" transform="matrix(0.866023 -0.500004 0 1 24.4883 97.2227)" fill="white" stroke="#D2D3D5" stroke-width="0.376346" stroke-linejoin="round"/>
<path d="M216.443 223.887V78.4492" stroke="#D2D3D5" stroke-width="0.376346" stroke-linejoin="round"/>
<path d="M192.441 227.288V91.9141" stroke="#D2D3D5" stroke-width="0.376346" stroke-linejoin="round"/>
<path d="M168.428 227.282V106.02" stroke="#D2D3D5" stroke-width="0.376346" stroke-linejoin="round"/>
<path d="M144.441 228.914V119.781" stroke="#D2D3D5" stroke-width="0.376346" stroke-linejoin="round"/>
<path d="M120.443 160.619V133.533" stroke="#D2D3D5" stroke-width="0.376346" stroke-linejoin="round"/>
<path d="M96.4258 174.715V147.629" stroke="#D2D3D5" stroke-width="0.376346" stroke-linejoin="round"/>
<rect width="27.6999" height="27.6999" transform="matrix(0.866023 0.500004 -0.866023 0.500004 216.402 41.8223)" fill="#FBFBFB" stroke="#D2D3D5" stroke-width="0.376346" stroke-linejoin="round"/>
<rect width="27.6999" height="9.00254" transform="matrix(0.866023 0.500004 0 1 192.416 55.6719)" fill="#FBFBFB" stroke="#D2D3D5" stroke-width="0.376346" stroke-linejoin="round"/>
<rect width="27.6999" height="9.00254" transform="matrix(0.866023 -0.500004 0 1 216.404 69.5234)" fill="white" stroke="#D2D3D5" stroke-width="0.376346" stroke-linejoin="round"/>
<rect width="27.6999" height="27.6999" transform="matrix(0.866023 0.500004 -0.866023 0.500004 192.414 55.6836)" fill="#FBFBFB" stroke="#D2D3D5" stroke-width="0.376346" stroke-linejoin="round"/>
<rect width="27.6999" height="9.00254" transform="matrix(0.866023 0.500004 0 1 168.428 69.5352)" fill="#FBFBFB" stroke="#D2D3D5" stroke-width="0.376346" stroke-linejoin="round"/>
<rect width="27.6999" height="9.00254" transform="matrix(0.866023 -0.500004 0 1 192.416 83.3867)" fill="white" stroke="#D2D3D5" stroke-width="0.376346" stroke-linejoin="round"/>
<rect width="27.6999" height="27.6999" transform="matrix(0.866023 0.500004 -0.866023 0.500004 168.424 69.5254)" fill="#FBFBFB" stroke="#D2D3D5" stroke-width="0.376346" stroke-linejoin="round"/>
<rect width="27.6999" height="9.00254" transform="matrix(0.866023 0.500004 0 1 144.438 83.377)" fill="#FBFBFB" stroke="#D2D3D5" stroke-width="0.376346" stroke-linejoin="round"/>
<rect width="27.6999" height="9.00254" transform="matrix(0.866023 -0.500004 0 1 168.426 97.2305)" fill="white" stroke="#D2D3D5" stroke-width="0.376346" stroke-linejoin="round"/>
<rect width="27.6999" height="27.6999" transform="matrix(0.866023 0.500004 -0.866023 0.500004 144.438 83.3789)" fill="#FBFBFB" stroke="#D2D3D5" stroke-width="0.376346" stroke-linejoin="round"/>
<rect width="27.6999" height="9.00254" transform="matrix(0.866023 0.500004 0 1 120.451 97.2305)" fill="#FBFBFB" stroke="#D2D3D5" stroke-width="0.376346" stroke-linejoin="round"/>
<rect width="27.6999" height="9.00254" transform="matrix(0.866023 -0.500004 0 1 144.439 111.08)" fill="white" stroke="#D2D3D5" stroke-width="0.376346" stroke-linejoin="round"/>
<rect width="27.6999" height="27.6999" transform="matrix(0.866023 0.500004 -0.866023 0.500004 120.449 97.2324)" fill="#FBFBFB" stroke="#D2D3D5" stroke-width="0.376346" stroke-linejoin="round"/>
<rect width="27.6999" height="9.00254" transform="matrix(0.866023 0.500004 0 1 96.4629 111.082)" fill="#FBFBFB" stroke="#D2D3D5" stroke-width="0.376346" stroke-linejoin="round"/>
<rect width="27.6999" height="9.00254" transform="matrix(0.866023 -0.500004 0 1 120.451 124.934)" fill="white" stroke="#D2D3D5" stroke-width="0.376346" stroke-linejoin="round"/>
<rect width="27.6999" height="27.6999" transform="matrix(0.866023 0.500004 -0.866023 0.500004 96.4609 111.082)" fill="#FBFBFB" stroke="#D2D3D5" stroke-width="0.376346" stroke-linejoin="round"/>
<rect width="27.6999" height="9.00254" transform="matrix(0.866023 0.500004 0 1 72.4746 124.934)" fill="#FBFBFB" stroke="#D2D3D5" stroke-width="0.376346" stroke-linejoin="round"/>
<rect width="27.6999" height="9.00254" transform="matrix(0.866023 -0.500004 0 1 96.4629 138.783)" fill="white" stroke="#D2D3D5" stroke-width="0.376346" stroke-linejoin="round"/>
<path d="M312.5 116.801H300.5V128.801H312.5V116.801Z" fill="#F2F2F2" stroke="#B6B6B7" stroke-width="0.375" stroke-linejoin="round"/>
<path d="M312.5 128.801H300.5V140.801H312.5V128.801Z" fill="#F2F2F2" stroke="#B6B6B7" stroke-width="0.375" stroke-linejoin="round"/>
<path d="M324.5 128.801H312.5V140.801H324.5V128.801Z" fill="#F2F2F2" stroke="#B6B6B7" stroke-width="0.375" stroke-linejoin="round"/>
<path d="M312.5 188.801H300.5V200.801H312.5V188.801Z" stroke="#F2F2F2" stroke-width="0.375" stroke-miterlimit="10"/>
<path d="M312.5 212.801H300.5V224.801H312.5V212.801Z" stroke="#F2F2F2" stroke-width="0.375" stroke-miterlimit="10"/>
<path d="M324.5 212.801H312.5V224.801H324.5V212.801Z" stroke="#F2F2F2" stroke-width="0.375" stroke-miterlimit="10"/>
<path d="M312.5 236.801H300.5V248.801H312.5V236.801Z" stroke="#F2F2F2" stroke-width="0.375" stroke-miterlimit="10"/>
<rect width="27.6999" height="27.6999" transform="matrix(0.866023 0.500004 -0.866023 0.500004 216.408 104.75)" fill="#FBFBFB" stroke="#B6B6B7" stroke-width="0.376346" stroke-linejoin="round"/>
<rect width="27.6999" height="9.00254" transform="matrix(0.866023 0.500004 0 1 192.422 118.602)" fill="#FBFBFB" stroke="#B6B6B7" stroke-width="0.376346" stroke-linejoin="round"/>
<rect width="27.6999" height="9.00254" transform="matrix(0.866023 -0.500004 0 1 216.41 132.451)" fill="white" stroke="#B6B6B7" stroke-width="0.376346" stroke-linejoin="round"/>
<rect width="27.6999" height="27.6999" transform="matrix(0.866023 0.500004 -0.866023 0.500004 192.418 118.613)" fill="#FBFBFB" stroke="#B6B6B7" stroke-width="0.376346" stroke-linejoin="round"/>
<rect width="27.6999" height="9.00254" transform="matrix(0.866023 0.500004 0 1 168.432 132.465)" fill="#FBFBFB" stroke="#B6B6B7" stroke-width="0.376346" stroke-linejoin="round"/>
<rect width="27.6999" height="9.00254" transform="matrix(0.866023 -0.500004 0 1 192.42 146.314)" fill="white" stroke="#B6B6B7" stroke-width="0.376346" stroke-linejoin="round"/>
<rect width="27.6999" height="27.6999" transform="matrix(0.866023 0.500004 -0.866023 0.500004 168.428 132.461)" fill="#FBFBFB" stroke="#B6B6B7" stroke-width="0.376346" stroke-linejoin="round"/>
<rect width="27.6999" height="9.00254" transform="matrix(0.866023 0.500004 0 1 144.441 146.312)" fill="#FBFBFB" stroke="#B6B6B7" stroke-width="0.376346" stroke-linejoin="round"/>
<rect width="27.6999" height="9.00254" transform="matrix(0.866023 -0.500004 0 1 168.428 160.164)" fill="#FBFBFB" stroke="#B6B6B7" stroke-width="0.376346" stroke-linejoin="round"/>
<rect width="27.6999" height="27.6999" transform="matrix(0.866023 0.500004 -0.866023 0.500004 192.42 146.309)" fill="#FBFBFB" stroke="#B6B6B7" stroke-width="0.376346" stroke-linejoin="round"/>
<rect width="27.6999" height="9.00254" transform="matrix(0.866023 0.500004 0 1 168.434 160.16)" fill="white" stroke="#B6B6B7" stroke-width="0.376346" stroke-linejoin="round"/>
<rect width="27.6999" height="9.00254" transform="matrix(0.866023 -0.500004 0 1 192.422 174.01)" fill="#FBFBFB" stroke="#B6B6B7" stroke-width="0.376346" stroke-linejoin="round"/>
<rect width="27.6999" height="27.6999" transform="matrix(0.866023 0.500004 -0.866023 0.500004 216.414 160.168)" fill="#FBFBFB" stroke="#B6B6B7" stroke-width="0.376346" stroke-linejoin="round"/>
<rect width="27.6999" height="9.00254" transform="matrix(0.866023 0.500004 0 1 192.426 174.02)" fill="white" stroke="#B6B6B7" stroke-width="0.376346" stroke-linejoin="round"/>
<rect width="27.6999" height="9.00254" transform="matrix(0.866023 -0.500004 0 1 216.414 187.871)" fill="#FBFBFB" stroke="#B6B6B7" stroke-width="0.376346" stroke-linejoin="round"/>
<rect width="27.6999" height="27.6999" transform="matrix(0.866023 0.500004 -0.866023 0.500004 144.445 146.309)" fill="#FBFBFB" stroke="#B6B6B7" stroke-width="0.376346" stroke-linejoin="round"/>
<rect width="27.6999" height="9.00254" transform="matrix(0.866023 0.500004 0 1 120.457 160.16)" fill="#FBFBFB" stroke="#B6B6B7" stroke-width="0.376346" stroke-linejoin="round"/>
<rect width="27.6999" height="9.00254" transform="matrix(0.866023 -0.500004 0 1 144.445 174.01)" fill="white" stroke="#B6B6B7" stroke-width="0.376346" stroke-linejoin="round"/>
<rect width="27.6999" height="27.6999" transform="matrix(0.866023 0.500004 -0.866023 0.500004 120.469 160.168)" fill="#FBFBFB" stroke="#B6B6B7" stroke-width="0.376346" stroke-linejoin="round"/>
<rect width="27.6999" height="9.00254" transform="matrix(0.866023 0.500004 0 1 96.4824 174.02)" fill="#FBFBFB" stroke="#B6B6B7" stroke-width="0.376346" stroke-linejoin="round"/>
<rect width="27.6999" height="9.00254" transform="matrix(0.866023 -0.500004 0 1 120.469 187.871)" fill="white" stroke="#B6B6B7" stroke-width="0.376346" stroke-linejoin="round"/>
<rect width="27.6999" height="27.6999" transform="matrix(0.866023 0.500004 -0.866023 0.500004 96.4648 174.012)" fill="#FBFBFB" stroke="#B6B6B7" stroke-width="0.376346" stroke-linejoin="round"/>
<rect width="27.6999" height="9.00254" transform="matrix(0.866023 0.500004 0 1 72.4785 187.863)" fill="white" stroke="#B6B6B7" stroke-width="0.376346" stroke-linejoin="round"/>
<rect width="27.6999" height="9.00254" transform="matrix(0.866023 -0.500004 0 1 96.4648 201.711)" fill="white" stroke="#B6B6B7" stroke-width="0.376346" stroke-linejoin="round"/>
<rect width="27.6999" height="27.6999" transform="matrix(0.866023 0.500004 -0.866023 0.500004 264.393 316.059)" fill="white" stroke="#B6B6B7" stroke-width="0.376346" stroke-linejoin="round"/>
<rect width="27.6999" height="9.00254" transform="matrix(0.866023 0.500004 0 1 240.406 329.91)" fill="#F2F2F2" stroke="#B6B6B7" stroke-width="0.376346" stroke-linejoin="round"/>
<rect width="27.6999" height="9.00254" transform="matrix(0.866023 -0.500004 0 1 264.393 343.76)" fill="#F2F2F2" stroke="#B6B6B7" stroke-width="0.376346" stroke-linejoin="round"/>
<rect width="27.6999" height="27.6999" transform="matrix(0.866023 0.500004 -0.866023 0.500004 264.393 233.844)" fill="#FBFBFB" stroke="#B6B6B7" stroke-width="0.376346" stroke-linejoin="round"/>
<rect width="27.6999" height="9.00254" transform="matrix(0.866023 0.500004 0 1 240.406 247.695)" fill="#FBFBFB" stroke="#B6B6B7" stroke-width="0.376346" stroke-linejoin="round"/>
<rect width="27.6999" height="9.00254" transform="matrix(0.866023 -0.500004 0 1 264.393 261.547)" fill="white" stroke="#B6B6B7" stroke-width="0.376346" stroke-linejoin="round"/>
<rect width="27.6999" height="27.6999" transform="matrix(0.866023 0.500004 -0.866023 0.500004 264.391 272.021)" fill="white" stroke="#B6B6B7" stroke-width="0.376346" stroke-linejoin="round"/>
<rect width="27.6999" height="9.00254" transform="matrix(0.866023 0.500004 0 1 240.404 285.871)" fill="#FBFBFB" stroke="#B6B6B7" stroke-width="0.376346" stroke-linejoin="round"/>
<rect width="27.6999" height="9.00254" transform="matrix(0.866023 -0.500004 0 1 264.391 299.723)" fill="white" stroke="#B6B6B7" stroke-width="0.376346" stroke-linejoin="round"/>
<rect width="27.6999" height="27.6999" transform="matrix(0.866023 0.500004 -0.866023 0.500004 168.43 293.699)" fill="white" stroke="#B6B6B7" stroke-width="0.376346" stroke-linejoin="round"/>
<rect width="27.6999" height="9.00254" transform="matrix(0.866023 0.500004 0 1 144.443 307.551)" fill="#F2F2F2" stroke="#B6B6B7" stroke-width="0.376346" stroke-linejoin="round"/>
<rect width="27.6999" height="9.00254" transform="matrix(0.866023 -0.500004 0 1 168.432 321.402)" fill="#F2F2F2" stroke="#B6B6B7" stroke-width="0.376346" stroke-linejoin="round"/>
<rect width="27.6999" height="27.6999" transform="matrix(0.866023 0.500004 -0.866023 0.500004 288.381 145.691)" fill="#FBFBFB" stroke="#B6B6B7" stroke-width="0.376346" stroke-linejoin="round"/>
<rect width="27.6999" height="9.00254" transform="matrix(0.866023 0.500004 0 1 264.393 159.543)" fill="#FBFBFB" stroke="#B6B6B7" stroke-width="0.376346" stroke-linejoin="round"/>
<rect width="27.6999" height="9.00254" transform="matrix(0.866023 -0.500004 0 1 288.381 173.395)" fill="#F2F2F2" stroke="#B6B6B7" stroke-width="0.376346" stroke-linejoin="round"/>
<rect width="27.6999" height="27.6999" transform="matrix(0.866023 0.500004 -0.866023 0.500004 264.393 159.553)" fill="#FBFBFB" stroke="#B6B6B7" stroke-width="0.376346" stroke-linejoin="round"/>
<rect width="27.6999" height="9.00254" transform="matrix(0.866023 0.500004 0 1 240.406 173.402)" fill="#FBFBFB" stroke="#B6B6B7" stroke-width="0.376346" stroke-linejoin="round"/>
<rect width="27.6999" height="9.00254" transform="matrix(0.866023 -0.500004 0 1 264.393 187.254)" fill="white" stroke="#B6B6B7" stroke-width="0.376346" stroke-linejoin="round"/>
<rect width="27.6999" height="27.6999" transform="matrix(0.866023 0.500004 -0.866023 0.500004 264.391 220.082)" fill="#FBFBFB" stroke="#B6B6B7" stroke-width="0.376346" stroke-linejoin="round"/>
<rect width="27.6999" height="9.00254" transform="matrix(0.866023 0.500004 0 1 240.404 233.934)" fill="white" stroke="#B6B6B7" stroke-width="0.376346" stroke-linejoin="round"/>
<rect width="27.6999" height="9.00254" transform="matrix(0.866023 -0.500004 0 1 264.391 247.785)" fill="white" stroke="#B6B6B7" stroke-width="0.376346" stroke-linejoin="round"/>
<rect width="27.6999" height="27.6999" transform="matrix(0.866023 0.500004 -0.866023 0.500004 240.402 173.4)" fill="#FBFBFB" stroke="#B6B6B7" stroke-width="0.376346" stroke-linejoin="round"/>
<rect width="27.6999" height="9.00254" transform="matrix(0.866023 0.500004 0 1 216.416 187.25)" fill="#FBFBFB" stroke="#B6B6B7" stroke-width="0.376346" stroke-linejoin="round"/>
<rect width="27.6999" height="9.00254" transform="matrix(0.866023 -0.500004 0 1 240.402 201.102)" fill="white" stroke="#B6B6B7" stroke-width="0.376346" stroke-linejoin="round"/>
<rect width="27.6999" height="27.6999" transform="matrix(0.866023 0.500004 -0.866023 0.500004 216.414 187.242)" fill="#FBFBFB" stroke="#B6B6B7" stroke-width="0.376346" stroke-linejoin="round"/>
<rect width="27.6999" height="9.00254" transform="matrix(0.866023 0.500004 0 1 192.428 201.094)" fill="#FBFBFB" stroke="#B6B6B7" stroke-width="0.376346" stroke-linejoin="round"/>
<rect width="27.6999" height="9.00254" transform="matrix(0.866023 -0.500004 0 1 216.416 214.941)" fill="white" stroke="#B6B6B7" stroke-width="0.376346" stroke-linejoin="round"/>
<rect width="27.6999" height="27.6999" transform="matrix(0.866023 0.500004 -0.866023 0.500004 192.428 201.105)" fill="#FBFBFB" stroke="#B6B6B7" stroke-width="0.376346" stroke-linejoin="round"/>
<rect width="27.6999" height="9.00254" transform="matrix(0.866023 0.500004 0 1 168.441 214.957)" fill="#FBFBFB" stroke="#B6B6B7" stroke-width="0.376346" stroke-linejoin="round"/>
<rect width="27.6999" height="9.00254" transform="matrix(0.866023 -0.500004 0 1 192.43 228.809)" fill="white" stroke="#B6B6B7" stroke-width="0.376346" stroke-linejoin="round"/>
<rect width="27.6999" height="27.6999" transform="matrix(0.866023 0.500004 -0.866023 0.500004 168.438 214.953)" fill="#FBFBFB" stroke="#B6B6B7" stroke-width="0.376346" stroke-linejoin="round"/>
<rect width="27.6999" height="9.00254" transform="matrix(0.866023 0.500004 0 1 144.451 228.805)" fill="#FBFBFB" stroke="#B6B6B7" stroke-width="0.376346" stroke-linejoin="round"/>
<rect width="27.6999" height="9.00254" transform="matrix(0.866023 -0.500004 0 1 168.439 242.654)" fill="white" stroke="#B6B6B7" stroke-width="0.376346" stroke-linejoin="round"/>
<rect width="27.6999" height="27.6999" transform="matrix(0.866023 0.500004 -0.866023 0.500004 168.43 266.17)" fill="#FBFBFB" stroke="#B6B6B7" stroke-width="0.376346" stroke-linejoin="round"/>
<rect width="27.6999" height="9.00254" transform="matrix(0.866023 0.500004 0 1 144.443 280.02)" fill="#FBFBFB" stroke="#B6B6B7" stroke-width="0.376346" stroke-linejoin="round"/>
<rect width="27.6999" height="9.00254" transform="matrix(0.866023 -0.500004 0 1 168.43 293.871)" fill="white" stroke="#B6B6B7" stroke-width="0.376346" stroke-linejoin="round"/>
<rect width="27.6999" height="27.6999" transform="matrix(0.866023 0.500004 -0.866023 0.500004 168.43 251.727)" fill="#FBFBFB" stroke="#B6B6B7" stroke-width="0.376346" stroke-linejoin="round"/>
<rect width="27.6999" height="9.00254" transform="matrix(0.866023 0.500004 0 1 144.443 265.578)" fill="#FBFBFB" stroke="#B6B6B7" stroke-width="0.376346" stroke-linejoin="round"/>
<rect width="27.6999" height="9.00254" transform="matrix(0.866023 -0.500004 0 1 168.43 279.428)" fill="white" stroke="#B6B6B7" stroke-width="0.376346" stroke-linejoin="round"/>
<g clip-path="url(#clip0_2417_305357)">
<rect width="27.6999" height="9.00254" transform="matrix(0.866023 0.500004 0 1 96.4922 27.9844)" fill="#FBFBFB" stroke="#B6B6B7" stroke-width="0.376346" stroke-linejoin="round"/>
<rect width="27.6999" height="9.00254" transform="matrix(0.866023 -0.500004 0 1 120.479 41.8359)" fill="white" stroke="#B6B6B7" stroke-width="0.376346" stroke-linejoin="round"/>
<rect width="27.6999" height="27.6999" transform="matrix(0.866023 0.500004 -0.866023 0.500004 96.4863 27.9727)" fill="#FBFBFB" stroke="#B6B6B7" stroke-width="0.376346" stroke-linejoin="round"/>
<rect width="27.6999" height="9.00254" transform="matrix(0.866023 0.500004 0 1 72.5 41.8242)" fill="#FBFBFB" stroke="#B6B6B7" stroke-width="0.376346" stroke-linejoin="round"/>
<rect width="27.6999" height="9.00254" transform="matrix(0.866023 -0.500004 0 1 96.4863 55.6738)" fill="#FBFBFB" stroke="#B6B6B7" stroke-width="0.376346" stroke-linejoin="round"/>
<rect width="27.6999" height="27.6999" transform="matrix(0.866023 0.500004 -0.866023 0.500004 120.48 41.8262)" fill="#FBFBFB" stroke="#B6B6B7" stroke-width="0.376346" stroke-linejoin="round"/>
<rect width="27.6999" height="9.00254" transform="matrix(0.866023 0.500004 0 1 96.4941 55.6758)" fill="white" stroke="#B6B6B7" stroke-width="0.376346" stroke-linejoin="round"/>
<rect width="27.6999" height="9.00254" transform="matrix(0.866023 -0.500004 0 1 120.48 69.5273)" fill="#FBFBFB" stroke="#B6B6B7" stroke-width="0.376346" stroke-linejoin="round"/>
<rect width="27.6999" height="27.6999" transform="matrix(0.866023 0.500004 -0.866023 0.500004 144.471 55.6738)" fill="#FBFBFB" stroke="#B6B6B7" stroke-width="0.376346" stroke-linejoin="round"/>
<rect width="27.6999" height="9.00254" transform="matrix(0.866023 0.500004 0 1 120.484 69.5234)" fill="white" stroke="#B6B6B7" stroke-width="0.376346" stroke-linejoin="round"/>
<rect width="27.6999" height="9.00254" transform="matrix(0.866023 -0.500004 0 1 144.473 83.375)" fill="#FBFBFB" stroke="#B6B6B7" stroke-width="0.376346" stroke-linejoin="round"/>
<rect width="27.6999" height="27.6999" transform="matrix(0.866023 0.500004 -0.866023 0.500004 72.5 41.8262)" fill="#FBFBFB" stroke="#B6B6B7" stroke-width="0.376346" stroke-linejoin="round"/>
<rect width="27.6999" height="9.00254" transform="matrix(0.866023 0.500004 0 1 48.5137 55.6758)" fill="#FBFBFB" stroke="#B6B6B7" stroke-width="0.376346" stroke-linejoin="round"/>
<rect width="27.6999" height="9.00254" transform="matrix(0.866023 -0.500004 0 1 72.502 69.5273)" fill="white" stroke="#B6B6B7" stroke-width="0.376346" stroke-linejoin="round"/>
<rect width="27.6999" height="27.6999" transform="matrix(0.866023 0.500004 -0.866023 0.500004 48.5137 55.6719)" fill="#FBFBFB" stroke="#B6B6B7" stroke-width="0.376346" stroke-linejoin="round"/>
<rect width="27.6999" height="9.00254" transform="matrix(0.866023 0.500004 0 1 24.5273 69.5234)" fill="#FBFBFB" stroke="#B6B6B7" stroke-width="0.376346" stroke-linejoin="round"/>
<rect width="27.6999" height="9.00254" transform="matrix(0.866023 -0.500004 0 1 48.5137 83.375)" fill="white" stroke="#B6B6B7" stroke-width="0.376346" stroke-linejoin="round"/>
<rect width="27.6999" height="27.6999" transform="matrix(0.866023 0.500004 -0.866023 0.500004 24.5234 69.5215)" fill="#FBFBFB" stroke="#B6B6B7" stroke-width="0.376346" stroke-linejoin="round"/>
<rect width="27.6999" height="9.00254" transform="matrix(0.866023 0.500004 0 1 0.537109 83.3711)" fill="#FBFBFB" stroke="#B6B6B7" stroke-width="0.376346" stroke-linejoin="round"/>
<rect width="27.6999" height="9.00254" transform="matrix(0.866023 -0.500004 0 1 24.5234 97.2227)" fill="white" stroke="#B6B6B7" stroke-width="0.376346" stroke-linejoin="round"/>
<path d="M216.479 223.888V78.4512" stroke="#D2D3D5" stroke-width="0.376346" stroke-linejoin="round"/>
<path d="M192.477 227.29V91.916" stroke="#D2D3D5" stroke-width="0.376346" stroke-linejoin="round"/>
<path d="M168.463 227.286V106.023" stroke="#D2D3D5" stroke-width="0.376346" stroke-linejoin="round"/>
<path d="M144.477 228.916V119.783" stroke="#D2D3D5" stroke-width="0.376346" stroke-linejoin="round"/>
<path d="M120.479 160.621V133.535" stroke="#D2D3D5" stroke-width="0.376346" stroke-linejoin="round"/>
<path d="M96.4609 174.719V147.633" stroke="#D2D3D5" stroke-width="0.376346" stroke-linejoin="round"/>
<rect width="27.6999" height="27.6999" transform="matrix(0.866023 0.500004 -0.866023 0.500004 216.438 41.8242)" fill="#FBFBFB" stroke="#B6B6B7" stroke-width="0.376346" stroke-linejoin="round"/>
<rect width="27.6999" height="9.00254" transform="matrix(0.866023 0.500004 0 1 192.451 55.6758)" fill="#FBFBFB" stroke="#B6B6B7" stroke-width="0.376346" stroke-linejoin="round"/>
<rect width="27.6999" height="9.00254" transform="matrix(0.866023 -0.500004 0 1 216.439 69.5254)" fill="white" stroke="#B6B6B7" stroke-width="0.376346" stroke-linejoin="round"/>
<rect width="27.6999" height="27.6999" transform="matrix(0.866023 0.500004 -0.866023 0.500004 192.449 55.6836)" fill="#FBFBFB" stroke="#B6B6B7" stroke-width="0.376346" stroke-linejoin="round"/>
<rect width="27.6999" height="9.00254" transform="matrix(0.866023 0.500004 0 1 168.463 69.5352)" fill="#FBFBFB" stroke="#B6B6B7" stroke-width="0.376346" stroke-linejoin="round"/>
<rect width="27.6999" height="9.00254" transform="matrix(0.866023 -0.500004 0 1 192.451 83.3867)" fill="white" stroke="#B6B6B7" stroke-width="0.376346" stroke-linejoin="round"/>
<rect width="27.6999" height="27.6999" transform="matrix(0.866023 0.500004 -0.866023 0.500004 168.459 69.5273)" fill="#FBFBFB" stroke="#B6B6B7" stroke-width="0.376346" stroke-linejoin="round"/>
<rect width="27.6999" height="9.00254" transform="matrix(0.866023 0.500004 0 1 144.473 83.3789)" fill="#FBFBFB" stroke="#B6B6B7" stroke-width="0.376346" stroke-linejoin="round"/>
<rect width="27.6999" height="9.00254" transform="matrix(0.866023 -0.500004 0 1 168.461 97.2324)" fill="white" stroke="#B6B6B7" stroke-width="0.376346" stroke-linejoin="round"/>
<rect width="27.6999" height="27.6999" transform="matrix(0.866023 0.500004 -0.866023 0.500004 144.473 83.3828)" fill="#FBFBFB" stroke="#B6B6B7" stroke-width="0.376346" stroke-linejoin="round"/>
<rect width="27.6999" height="9.00254" transform="matrix(0.866023 0.500004 0 1 120.486 97.2344)" fill="#FBFBFB" stroke="#B6B6B7" stroke-width="0.376346" stroke-linejoin="round"/>
<rect width="27.6999" height="9.00254" transform="matrix(0.866023 -0.500004 0 1 144.475 111.084)" fill="white" stroke="#B6B6B7" stroke-width="0.376346" stroke-linejoin="round"/>
<rect width="27.6999" height="27.6999" transform="matrix(0.866023 0.500004 -0.866023 0.500004 120.484 97.2344)" fill="#FBFBFB" stroke="#B6B6B7" stroke-width="0.376346" stroke-linejoin="round"/>
<rect width="27.6999" height="9.00254" transform="matrix(0.866023 0.500004 0 1 96.498 111.086)" fill="#FBFBFB" stroke="#B6B6B7" stroke-width="0.376346" stroke-linejoin="round"/>
<rect width="27.6999" height="9.00254" transform="matrix(0.866023 -0.500004 0 1 120.486 124.938)" fill="white" stroke="#B6B6B7" stroke-width="0.376346" stroke-linejoin="round"/>
<rect width="27.6999" height="27.6999" transform="matrix(0.866023 0.500004 -0.866023 0.500004 96.4961 111.082)" fill="#FBFBFB" stroke="#B6B6B7" stroke-width="0.376346" stroke-linejoin="round"/>
<rect width="27.6999" height="9.00254" transform="matrix(0.866023 0.500004 0 1 72.5098 124.934)" fill="#FBFBFB" stroke="#B6B6B7" stroke-width="0.376346" stroke-linejoin="round"/>
<rect width="27.6999" height="9.00254" transform="matrix(0.866023 -0.500004 0 1 96.498 138.783)" fill="white" stroke="#B6B6B7" stroke-width="0.376346" stroke-linejoin="round"/>
<rect width="27.6999" height="27.6999" transform="matrix(0.866023 0.500004 -0.866023 0.500004 216.443 104.75)" fill="#FBFBFB" stroke="#B6B6B7" stroke-width="0.376346" stroke-linejoin="round"/>
<rect width="27.6999" height="9.00254" transform="matrix(0.866023 0.500004 0 1 192.457 118.602)" fill="#FBFBFB" stroke="#B6B6B7" stroke-width="0.376346" stroke-linejoin="round"/>
<rect width="27.6999" height="9.00254" transform="matrix(0.866023 -0.500004 0 1 216.445 132.451)" fill="white" stroke="#B6B6B7" stroke-width="0.376346" stroke-linejoin="round"/>
<rect width="27.6999" height="27.6999" transform="matrix(0.866023 0.500004 -0.866023 0.500004 192.453 118.613)" fill="#FBFBFB" stroke="#B6B6B7" stroke-width="0.376346" stroke-linejoin="round"/>
<rect width="27.6999" height="9.00254" transform="matrix(0.866023 0.500004 0 1 168.467 132.465)" fill="#FBFBFB" stroke="#B6B6B7" stroke-width="0.376346" stroke-linejoin="round"/>
<rect width="27.6999" height="9.00254" transform="matrix(0.866023 -0.500004 0 1 192.455 146.314)" fill="white" stroke="#B6B6B7" stroke-width="0.376346" stroke-linejoin="round"/>
<rect width="27.6999" height="27.6999" transform="matrix(0.866023 0.500004 -0.866023 0.500004 168.463 132.461)" fill="#FBFBFB" stroke="#B6B6B7" stroke-width="0.376346" stroke-linejoin="round"/>
<rect width="27.6999" height="9.00254" transform="matrix(0.866023 0.500004 0 1 144.477 146.312)" fill="#FBFBFB" stroke="#B6B6B7" stroke-width="0.376346" stroke-linejoin="round"/>
<rect width="27.6999" height="9.00254" transform="matrix(0.866023 -0.500004 0 1 168.463 160.164)" fill="#FBFBFB" stroke="#B6B6B7" stroke-width="0.376346" stroke-linejoin="round"/>
<rect width="27.6999" height="27.6999" transform="matrix(0.866023 0.500004 -0.866023 0.500004 192.455 146.309)" fill="#FBFBFB" stroke="#B6B6B7" stroke-width="0.376346" stroke-linejoin="round"/>
<rect width="27.6999" height="9.00254" transform="matrix(0.866023 0.500004 0 1 168.469 160.16)" fill="white" stroke="#B6B6B7" stroke-width="0.376346" stroke-linejoin="round"/>
<rect width="27.6999" height="9.00254" transform="matrix(0.866023 -0.500004 0 1 192.457 174.01)" fill="#FBFBFB" stroke="#B6B6B7" stroke-width="0.376346" stroke-linejoin="round"/>
<rect width="27.6999" height="27.6999" transform="matrix(0.866023 0.500004 -0.866023 0.500004 216.449 160.168)" fill="#FBFBFB" stroke="#B6B6B7" stroke-width="0.376346" stroke-linejoin="round"/>
<rect width="27.6999" height="9.00254" transform="matrix(0.866023 0.500004 0 1 192.461 174.02)" fill="white" stroke="#B6B6B7" stroke-width="0.376346" stroke-linejoin="round"/>
<rect width="27.6999" height="9.00254" transform="matrix(0.866023 -0.500004 0 1 216.449 187.871)" fill="#FBFBFB" stroke="#B6B6B7" stroke-width="0.376346" stroke-linejoin="round"/>
<rect width="27.6999" height="27.6999" transform="matrix(0.866023 0.500004 -0.866023 0.500004 144.48 146.309)" fill="#FBFBFB" stroke="#B6B6B7" stroke-width="0.376346" stroke-linejoin="round"/>
<rect width="27.6999" height="9.00254" transform="matrix(0.866023 0.500004 0 1 120.492 160.16)" fill="#FBFBFB" stroke="#B6B6B7" stroke-width="0.376346" stroke-linejoin="round"/>
<rect width="27.6999" height="9.00254" transform="matrix(0.866023 -0.500004 0 1 144.48 174.01)" fill="white" stroke="#B6B6B7" stroke-width="0.376346" stroke-linejoin="round"/>
<rect width="27.6999" height="27.6999" transform="matrix(0.866023 0.500004 -0.866023 0.500004 120.504 160.168)" fill="#FBFBFB" stroke="#B6B6B7" stroke-width="0.376346" stroke-linejoin="round"/>
<rect width="27.6999" height="9.00254" transform="matrix(0.866023 0.500004 0 1 96.5176 174.02)" fill="#FBFBFB" stroke="#B6B6B7" stroke-width="0.376346" stroke-linejoin="round"/>
<rect width="27.6999" height="9.00254" transform="matrix(0.866023 -0.500004 0 1 120.504 187.871)" fill="white" stroke="#B6B6B7" stroke-width="0.376346" stroke-linejoin="round"/>
<rect width="27.6999" height="27.6999" transform="matrix(0.866023 0.500004 -0.866023 0.500004 96.5 174.012)" fill="#FBFBFB" stroke="#B6B6B7" stroke-width="0.376346" stroke-linejoin="round"/>
<rect width="27.6999" height="9.00254" transform="matrix(0.866023 0.500004 0 1 72.5137 187.863)" fill="white" stroke="#B6B6B7" stroke-width="0.376346" stroke-linejoin="round"/>
<rect width="27.6999" height="9.00254" transform="matrix(0.866023 -0.500004 0 1 96.5 201.711)" fill="white" stroke="#B6B6B7" stroke-width="0.376346" stroke-linejoin="round"/>
<rect width="27.6999" height="27.6999" transform="matrix(0.866023 0.500004 -0.866023 0.500004 264.428 233.844)" fill="#FBFBFB" stroke="#B6B6B7" stroke-width="0.376346" stroke-linejoin="round"/>
<rect width="27.6999" height="9.00254" transform="matrix(0.866023 0.500004 0 1 240.441 247.695)" fill="#FBFBFB" stroke="#B6B6B7" stroke-width="0.376346" stroke-linejoin="round"/>
<rect width="27.6999" height="9.00254" transform="matrix(0.866023 -0.500004 0 1 264.428 261.547)" fill="white" stroke="#B6B6B7" stroke-width="0.376346" stroke-linejoin="round"/>
<rect width="27.6999" height="27.6999" transform="matrix(0.866023 0.500004 -0.866023 0.500004 264.426 272.021)" fill="white" stroke="#B6B6B7" stroke-width="0.376346" stroke-linejoin="round"/>
<rect width="27.6999" height="9.00254" transform="matrix(0.866023 0.500004 0 1 240.439 285.871)" fill="#FBFBFB" stroke="#B6B6B7" stroke-width="0.376346" stroke-linejoin="round"/>
<rect width="27.6999" height="9.00254" transform="matrix(0.866023 -0.500004 0 1 264.426 299.723)" fill="white" stroke="#B6B6B7" stroke-width="0.376346" stroke-linejoin="round"/>
<rect width="27.6999" height="27.6999" transform="matrix(0.866023 0.500004 -0.866023 0.500004 168.465 293.699)" fill="white" stroke="#B6B6B7" stroke-width="0.376346" stroke-linejoin="round"/>
<rect width="27.6999" height="9.00254" transform="matrix(0.866023 0.500004 0 1 144.479 307.551)" fill="#FBFBFB" stroke="#B6B6B7" stroke-width="0.376346" stroke-linejoin="round"/>
<rect width="27.6999" height="9.00254" transform="matrix(0.866023 -0.500004 0 1 168.467 321.402)" fill="white" stroke="#B6B6B7" stroke-width="0.376346" stroke-linejoin="round"/>
<rect width="27.6999" height="27.6999" transform="matrix(0.866023 0.500004 -0.866023 0.500004 288.416 145.691)" fill="#FBFBFB" stroke="#B6B6B7" stroke-width="0.376346" stroke-linejoin="round"/>
<rect width="27.6999" height="9.00254" transform="matrix(0.866023 0.500004 0 1 264.428 159.543)" fill="#FBFBFB" stroke="#B6B6B7" stroke-width="0.376346" stroke-linejoin="round"/>
<rect width="27.6999" height="9.00254" transform="matrix(0.866023 -0.500004 0 1 288.416 173.395)" fill="white" stroke="#B6B6B7" stroke-width="0.376346" stroke-linejoin="round"/>
<rect width="27.6999" height="27.6999" transform="matrix(0.866023 0.500004 -0.866023 0.500004 264.428 159.553)" fill="#FBFBFB" stroke="#B6B6B7" stroke-width="0.376346" stroke-linejoin="round"/>
<rect width="27.6999" height="9.00254" transform="matrix(0.866023 0.500004 0 1 240.441 173.402)" fill="#FBFBFB" stroke="#B6B6B7" stroke-width="0.376346" stroke-linejoin="round"/>
<rect width="27.6999" height="9.00254" transform="matrix(0.866023 -0.500004 0 1 264.428 187.254)" fill="white" stroke="#B6B6B7" stroke-width="0.376346" stroke-linejoin="round"/>
<rect width="27.6999" height="27.6999" transform="matrix(0.866023 0.500004 -0.866023 0.500004 264.426 220.082)" fill="#FBFBFB" stroke="#B6B6B7" stroke-width="0.376346" stroke-linejoin="round"/>
<rect width="27.6999" height="9.00254" transform="matrix(0.866023 0.500004 0 1 240.439 233.934)" fill="white" stroke="#B6B6B7" stroke-width="0.376346" stroke-linejoin="round"/>
<rect width="27.6999" height="9.00254" transform="matrix(0.866023 -0.500004 0 1 264.426 247.785)" fill="white" stroke="#B6B6B7" stroke-width="0.376346" stroke-linejoin="round"/>
<rect width="27.6999" height="27.6999" transform="matrix(0.866023 0.500004 -0.866023 0.500004 240.438 173.4)" fill="#FBFBFB" stroke="#B6B6B7" stroke-width="0.376346" stroke-linejoin="round"/>
<rect width="27.6999" height="9.00254" transform="matrix(0.866023 0.500004 0 1 216.451 187.25)" fill="#FBFBFB" stroke="#B6B6B7" stroke-width="0.376346" stroke-linejoin="round"/>
<rect width="27.6999" height="9.00254" transform="matrix(0.866023 -0.500004 0 1 240.438 201.102)" fill="white" stroke="#B6B6B7" stroke-width="0.376346" stroke-linejoin="round"/>
<rect width="27.6999" height="27.6999" transform="matrix(0.866023 0.500004 -0.866023 0.500004 216.449 187.242)" fill="#FBFBFB" stroke="#B6B6B7" stroke-width="0.376346" stroke-linejoin="round"/>
<rect width="27.6999" height="9.00254" transform="matrix(0.866023 0.500004 0 1 192.463 201.094)" fill="#FBFBFB" stroke="#B6B6B7" stroke-width="0.376346" stroke-linejoin="round"/>
<rect width="27.6999" height="9.00254" transform="matrix(0.866023 -0.500004 0 1 216.451 214.941)" fill="white" stroke="#B6B6B7" stroke-width="0.376346" stroke-linejoin="round"/>
<rect width="27.6999" height="27.6999" transform="matrix(0.866023 0.500004 -0.866023 0.500004 192.463 201.105)" fill="#FBFBFB" stroke="#B6B6B7" stroke-width="0.376346" stroke-linejoin="round"/>
<rect width="27.6999" height="9.00254" transform="matrix(0.866023 0.500004 0 1 168.477 214.957)" fill="#FBFBFB" stroke="#B6B6B7" stroke-width="0.376346" stroke-linejoin="round"/>
<rect width="27.6999" height="9.00254" transform="matrix(0.866023 -0.500004 0 1 192.465 228.809)" fill="white" stroke="#B6B6B7" stroke-width="0.376346" stroke-linejoin="round"/>
<rect width="27.6999" height="27.6999" transform="matrix(0.866023 0.500004 -0.866023 0.500004 168.473 214.953)" fill="#FBFBFB" stroke="#B6B6B7" stroke-width="0.376346" stroke-linejoin="round"/>
<rect width="27.6999" height="9.00254" transform="matrix(0.866023 0.500004 0 1 144.486 228.805)" fill="#FBFBFB" stroke="#B6B6B7" stroke-width="0.376346" stroke-linejoin="round"/>
<rect width="27.6999" height="9.00254" transform="matrix(0.866023 -0.500004 0 1 168.475 242.654)" fill="white" stroke="#B6B6B7" stroke-width="0.376346" stroke-linejoin="round"/>
<rect width="27.6999" height="27.6999" transform="matrix(0.866023 0.500004 -0.866023 0.500004 168.465 266.17)" fill="#FBFBFB" stroke="#B6B6B7" stroke-width="0.376346" stroke-linejoin="round"/>
<rect width="27.6999" height="9.00254" transform="matrix(0.866023 0.500004 0 1 144.479 280.02)" fill="#FBFBFB" stroke="#B6B6B7" stroke-width="0.376346" stroke-linejoin="round"/>
<rect width="27.6999" height="9.00254" transform="matrix(0.866023 -0.500004 0 1 168.465 293.871)" fill="white" stroke="#B6B6B7" stroke-width="0.376346" stroke-linejoin="round"/>
<rect width="27.6999" height="27.6999" transform="matrix(0.866023 0.500004 -0.866023 0.500004 168.465 251.727)" fill="#FBFBFB" stroke="#B6B6B7" stroke-width="0.376346" stroke-linejoin="round"/>
<rect width="27.6999" height="9.00254" transform="matrix(0.866023 0.500004 0 1 144.479 265.578)" fill="#FBFBFB" stroke="#B6B6B7" stroke-width="0.376346" stroke-linejoin="round"/>
<rect width="27.6999" height="9.00254" transform="matrix(0.866023 -0.500004 0 1 168.465 279.428)" fill="white" stroke="#B6B6B7" stroke-width="0.376346" stroke-linejoin="round"/>
</g>
<defs>
<clipPath id="clip0_2417_305357">
<rect width="288" height="264" fill="white" transform="translate(12.5 45)"/>
</clipPath>
</defs>
</svg>
