<svg width="649" height="707" viewBox="0 0 649 707" fill="none" xmlns="http://www.w3.org/2000/svg">
<path d="M624.201 449.025H600.201V473.025H624.201V449.025Z" stroke="#181A1F" stroke-width="0.75" stroke-miterlimit="10"/>
<path d="M624.201 401.025H600.201V425.025H624.201V401.025Z" stroke="#181A1F" stroke-width="0.75" stroke-miterlimit="10"/>
<path d="M648.201 401.025H624.201V425.025H648.201V401.025Z" stroke="#181A1F" stroke-width="0.75" stroke-miterlimit="10"/>
<path d="M624.201 353.025H600.201V377.025H624.201V353.025Z" stroke="#181A1F" stroke-width="0.75" stroke-miterlimit="10"/>
<path d="M624.201 257.025H600.201V281.025H624.201V257.025Z" fill="#16181D" stroke="#333538" stroke-width="0.75" stroke-linejoin="round"/>
<path d="M648.201 257.025H624.201V281.025H648.201V257.025Z" fill="#16181D" stroke="#333538" stroke-width="0.75" stroke-linejoin="round"/>
<path d="M624.201 233.025H600.201V257.025H624.201V233.025Z" fill="#16181D" stroke="#333538" stroke-width="0.75" stroke-linejoin="round"/>
<rect width="55.3998" height="55.3998" transform="matrix(0.866023 0.500004 -0.866023 0.500004 288.365 0.525391)" fill="#16181D" stroke="#333538" stroke-width="0.75" stroke-linejoin="round"/>
<rect width="55.3998" height="18.0051" transform="matrix(0.866023 0.500004 0 1 240.391 28.2266)" fill="#16181D" stroke="#333538" stroke-width="0.75" stroke-linejoin="round"/>
<rect width="55.3998" height="18.0051" transform="matrix(0.866023 -0.500004 0 1 288.367 55.9297)" fill="#181A1F" stroke="#333538" stroke-width="0.75" stroke-linejoin="round"/>
<rect width="55.3998" height="55.3998" transform="matrix(0.866023 0.500004 -0.866023 0.500004 240.383 28.2656)" fill="#16181D" stroke="#333538" stroke-width="0.75" stroke-linejoin="round"/>
<rect width="55.3998" height="18.0051" transform="matrix(0.866023 0.500004 0 1 192.408 55.9668)" fill="#16181D" stroke="#333538" stroke-width="0.75" stroke-linejoin="round"/>
<rect width="55.3998" height="18.0051" transform="matrix(0.866023 -0.500004 0 1 240.383 83.6699)" fill="#181A1F" stroke="#333538" stroke-width="0.75" stroke-linejoin="round"/>
<rect width="55.3998" height="55.3998" transform="matrix(0.866023 0.500004 -0.866023 0.500004 192.402 55.9453)" fill="#16181D" stroke="#333538" stroke-width="0.75" stroke-linejoin="round"/>
<rect width="55.3998" height="18.0051" transform="matrix(0.866023 0.500004 0 1 144.428 83.6465)" fill="#16181D" stroke="#333538" stroke-width="0.75" stroke-linejoin="round"/>
<rect width="55.3998" height="18.0051" transform="matrix(0.866023 -0.500004 0 1 192.402 111.348)" fill="#16181D" stroke="#333538" stroke-width="0.75" stroke-linejoin="round"/>
<rect width="55.3998" height="55.3998" transform="matrix(0.866023 0.500004 -0.866023 0.500004 240.391 83.6504)" fill="#16181D" stroke="#333538" stroke-width="0.75" stroke-linejoin="round"/>
<rect width="55.3998" height="18.0051" transform="matrix(0.866023 0.500004 0 1 192.416 111.352)" fill="#16181D" stroke="#333538" stroke-width="0.75" stroke-linejoin="round"/>
<rect width="55.3998" height="18.0051" transform="matrix(0.866023 -0.500004 0 1 240.391 139.055)" fill="#16181D" stroke="#333538" stroke-width="0.75" stroke-linejoin="round"/>
<rect width="55.3998" height="55.3998" transform="matrix(0.866023 0.500004 -0.866023 0.500004 288.373 111.346)" fill="#16181D" stroke="#333538" stroke-width="0.75" stroke-linejoin="round"/>
<rect width="55.3998" height="18.0051" transform="matrix(0.866023 0.500004 0 1 240.398 139.047)" fill="#16181D" stroke="#333538" stroke-width="0.75" stroke-linejoin="round"/>
<rect width="55.3998" height="18.0051" transform="matrix(0.866023 -0.500004 0 1 288.375 166.75)" fill="#16181D" stroke="#333538" stroke-width="0.75" stroke-linejoin="round"/>
<rect width="55.3998" height="55.3998" transform="matrix(0.866023 0.500004 -0.866023 0.500004 144.43 83.6504)" fill="#16181D" stroke="#333538" stroke-width="0.75" stroke-linejoin="round"/>
<rect width="55.3998" height="18.0051" transform="matrix(0.866023 0.500004 0 1 96.4551 111.352)" fill="#16181D" stroke="#333538" stroke-width="0.75" stroke-linejoin="round"/>
<rect width="55.3998" height="18.0051" transform="matrix(0.866023 -0.500004 0 1 144.432 139.055)" fill="#16181D" stroke="#333538" stroke-width="0.75" stroke-linejoin="round"/>
<rect width="55.3998" height="55.3998" transform="matrix(0.866023 0.500004 -0.866023 0.500004 96.457 111.344)" fill="#16181D" stroke="#333538" stroke-width="0.75" stroke-linejoin="round"/>
<rect width="55.3998" height="18.0051" transform="matrix(0.866023 0.500004 0 1 48.4824 139.045)" fill="#16181D" stroke="#333538" stroke-width="0.75" stroke-linejoin="round"/>
<rect width="55.3998" height="18.0051" transform="matrix(0.866023 -0.500004 0 1 96.457 166.748)" fill="#16181D" stroke="#333538" stroke-width="0.75" stroke-linejoin="round"/>
<rect width="55.3998" height="55.3998" transform="matrix(0.866023 0.500004 -0.866023 0.500004 48.4766 139.041)" fill="#16181D" stroke="#333538" stroke-width="0.75" stroke-linejoin="round"/>
<rect width="55.3998" height="18.0051" transform="matrix(0.866023 0.500004 0 1 0.501953 166.742)" fill="#181A1F" stroke="#333538" stroke-width="0.75" stroke-linejoin="round"/>
<rect width="55.3998" height="18.0051" transform="matrix(0.866023 -0.500004 0 1 48.4766 194.445)" fill="#16181D" stroke="#333538" stroke-width="0.75" stroke-linejoin="round"/>
<path d="M432.385 447.775V156.9" stroke="#333538" stroke-width="0.75" stroke-linejoin="round"/>
<path d="M384.383 454.578V183.83" stroke="#333538" stroke-width="0.75" stroke-linejoin="round"/>
<path d="M336.354 454.569V212.043" stroke="#333538" stroke-width="0.75" stroke-linejoin="round"/>
<path d="M288.379 457.83V239.564" stroke="#333538" stroke-width="0.75" stroke-linejoin="round"/>
<path d="M240.385 321.24V267.068" stroke="#333538" stroke-width="0.75" stroke-linejoin="round"/>
<path d="M192.35 349.433V295.262" stroke="#333538" stroke-width="0.75" stroke-linejoin="round"/>
<rect width="55.3998" height="55.3998" transform="matrix(0.866023 0.500004 -0.866023 0.500004 432.301 83.6465)" fill="#16181D" stroke="#333538" stroke-width="0.75" stroke-linejoin="round"/>
<rect width="55.3998" height="18.0051" transform="matrix(0.866023 0.500004 0 1 384.326 111.348)" fill="#16181D" stroke="#333538" stroke-width="0.75" stroke-linejoin="round"/>
<rect width="55.3998" height="18.0051" transform="matrix(0.866023 -0.500004 0 1 432.303 139.049)" fill="#16181D" stroke="#333538" stroke-width="0.75" stroke-linejoin="round"/>
<rect width="55.3998" height="55.3998" transform="matrix(0.866023 0.500004 -0.866023 0.500004 384.322 111.367)" fill="#16181D" stroke="#333538" stroke-width="0.75" stroke-linejoin="round"/>
<rect width="55.3998" height="18.0051" transform="matrix(0.866023 0.500004 0 1 336.348 139.068)" fill="#16181D" stroke="#333538" stroke-width="0.75" stroke-linejoin="round"/>
<rect width="55.3998" height="18.0051" transform="matrix(0.866023 -0.500004 0 1 384.324 166.771)" fill="#16181D" stroke="#333538" stroke-width="0.75" stroke-linejoin="round"/>
<rect width="55.3998" height="55.3998" transform="matrix(0.866023 0.500004 -0.866023 0.500004 336.344 139.053)" fill="#16181D" stroke="#333538" stroke-width="0.75" stroke-linejoin="round"/>
<rect width="55.3998" height="18.0051" transform="matrix(0.866023 0.500004 0 1 288.369 166.756)" fill="#16181D" stroke="#333538" stroke-width="0.75" stroke-linejoin="round"/>
<rect width="55.3998" height="18.0051" transform="matrix(0.866023 -0.500004 0 1 336.346 194.463)" fill="#16181D" stroke="#333538" stroke-width="0.75" stroke-linejoin="round"/>
<rect width="55.3998" height="55.3998" transform="matrix(0.866023 0.500004 -0.866023 0.500004 288.371 166.762)" fill="#16181D" stroke="#333538" stroke-width="0.75" stroke-linejoin="round"/>
<rect width="55.3998" height="18.0051" transform="matrix(0.866023 0.500004 0 1 240.396 194.463)" fill="#16181D" stroke="#333538" stroke-width="0.75" stroke-linejoin="round"/>
<rect width="55.3998" height="18.0051" transform="matrix(0.866023 -0.500004 0 1 288.373 222.164)" fill="#16181D" stroke="#333538" stroke-width="0.75" stroke-linejoin="round"/>
<rect width="55.3998" height="55.3998" transform="matrix(0.866023 0.500004 -0.866023 0.500004 240.396 194.467)" fill="#16181D" stroke="#333538" stroke-width="0.75" stroke-linejoin="round"/>
<rect width="55.3998" height="18.0051" transform="matrix(0.866023 0.500004 0 1 192.422 222.168)" fill="#16181D" stroke="#333538" stroke-width="0.75" stroke-linejoin="round"/>
<rect width="55.3998" height="18.0051" transform="matrix(0.866023 -0.500004 0 1 240.398 249.871)" fill="#16181D" stroke="#333538" stroke-width="0.75" stroke-linejoin="round"/>
<rect width="55.3998" height="55.3998" transform="matrix(0.866023 0.500004 -0.866023 0.500004 192.416 222.164)" fill="#16181D" stroke="#333538" stroke-width="0.75" stroke-linejoin="round"/>
<rect width="55.3998" height="18.0051" transform="matrix(0.866023 0.500004 0 1 144.441 249.865)" fill="#16181D" stroke="#333538" stroke-width="0.75" stroke-linejoin="round"/>
<rect width="55.3998" height="18.0051" transform="matrix(0.866023 -0.500004 0 1 192.418 277.566)" fill="#16181D" stroke="#333538" stroke-width="0.75" stroke-linejoin="round"/>
<rect width="55.3998" height="55.3998" transform="matrix(0.866023 0.500004 -0.866023 0.500004 432.316 209.5)" fill="#16181D" stroke="#333538" stroke-width="0.75" stroke-linejoin="round"/>
<rect width="55.3998" height="18.0051" transform="matrix(0.866023 0.500004 0 1 384.342 237.201)" fill="#16181D" stroke="#333538" stroke-width="0.75" stroke-linejoin="round"/>
<rect width="55.3998" height="18.0051" transform="matrix(0.866023 -0.500004 0 1 432.318 264.902)" fill="#16181D" stroke="#333538" stroke-width="0.75" stroke-linejoin="round"/>
<rect width="55.3998" height="55.3998" transform="matrix(0.866023 0.500004 -0.866023 0.500004 384.336 237.229)" fill="#16181D" stroke="#333538" stroke-width="0.75" stroke-linejoin="round"/>
<rect width="55.3998" height="18.0051" transform="matrix(0.866023 0.500004 0 1 336.361 264.93)" fill="#16181D" stroke="#333538" stroke-width="0.75" stroke-linejoin="round"/>
<rect width="55.3998" height="18.0051" transform="matrix(0.866023 -0.500004 0 1 384.338 292.631)" fill="#16181D" stroke="#333538" stroke-width="0.75" stroke-linejoin="round"/>
<rect width="55.3998" height="55.3998" transform="matrix(0.866023 0.500004 -0.866023 0.500004 336.357 264.92)" fill="#16181D" stroke="#333538" stroke-width="0.75" stroke-linejoin="round"/>
<rect width="55.3998" height="18.0051" transform="matrix(0.866023 0.500004 0 1 288.383 292.621)" fill="#16181D" stroke="#333538" stroke-width="0.75" stroke-linejoin="round"/>
<rect width="55.3998" height="18.0051" transform="matrix(0.866023 -0.500004 0 1 336.357 320.324)" fill="#16181D" stroke="#333538" stroke-width="0.75" stroke-linejoin="round"/>
<rect width="55.3998" height="55.3998" transform="matrix(0.866023 0.500004 -0.866023 0.500004 384.34 292.615)" fill="#16181D" stroke="#333538" stroke-width="0.75" stroke-linejoin="round"/>
<rect width="55.3998" height="18.0051" transform="matrix(0.866023 0.500004 0 1 336.365 320.316)" fill="#16181D" stroke="#333538" stroke-width="0.75" stroke-linejoin="round"/>
<rect width="55.3998" height="18.0051" transform="matrix(0.866023 -0.500004 0 1 384.342 348.018)" fill="#16181D" stroke="#333538" stroke-width="0.75" stroke-linejoin="round"/>
<rect width="55.3998" height="55.3998" transform="matrix(0.866023 0.500004 -0.866023 0.500004 432.324 320.338)" fill="#16181D" stroke="#333538" stroke-width="0.75" stroke-linejoin="round"/>
<rect width="55.3998" height="18.0051" transform="matrix(0.866023 0.500004 0 1 384.348 348.039)" fill="#16181D" stroke="#333538" stroke-width="0.75" stroke-linejoin="round"/>
<rect width="55.3998" height="18.0051" transform="matrix(0.866023 -0.500004 0 1 432.324 375.742)" fill="#16181D" stroke="#333538" stroke-width="0.75" stroke-linejoin="round"/>
<rect width="55.3998" height="55.3998" transform="matrix(0.866023 0.500004 -0.866023 0.500004 288.385 292.615)" fill="#16181D" stroke="#333538" stroke-width="0.75" stroke-linejoin="round"/>
<rect width="55.3998" height="18.0051" transform="matrix(0.866023 0.500004 0 1 240.408 320.316)" fill="#16181D" stroke="#333538" stroke-width="0.75" stroke-linejoin="round"/>
<rect width="55.3998" height="18.0051" transform="matrix(0.866023 -0.500004 0 1 288.385 348.018)" fill="#16181D" stroke="#333538" stroke-width="0.75" stroke-linejoin="round"/>
<rect width="55.3998" height="55.3998" transform="matrix(0.866023 0.500004 -0.866023 0.500004 240.438 320.338)" fill="#16181D" stroke="#333538" stroke-width="0.75" stroke-linejoin="round"/>
<rect width="55.3998" height="18.0051" transform="matrix(0.866023 0.500004 0 1 192.463 348.039)" fill="#16181D" stroke="#333538" stroke-width="0.75" stroke-linejoin="round"/>
<rect width="55.3998" height="18.0051" transform="matrix(0.866023 -0.500004 0 1 240.438 375.742)" fill="#16181D" stroke="#333538" stroke-width="0.75" stroke-linejoin="round"/>
<rect width="55.3998" height="55.3998" transform="matrix(0.866023 0.500004 -0.866023 0.500004 192.43 348.025)" fill="#16181D" stroke="#333538" stroke-width="0.75" stroke-linejoin="round"/>
<rect width="55.3998" height="18.0051" transform="matrix(0.866023 0.500004 0 1 144.455 375.727)" fill="#16181D" stroke="#333538" stroke-width="0.75" stroke-linejoin="round"/>
<rect width="55.3998" height="18.0051" transform="matrix(0.866023 -0.500004 0 1 192.43 403.422)" fill="#16181D" stroke="#333538" stroke-width="0.75" stroke-linejoin="round"/>
<rect width="55.3998" height="55.3998" transform="matrix(0.866023 0.500004 -0.866023 0.500004 528.279 632.117)" fill="#16181D" stroke="#333538" stroke-width="0.75" stroke-linejoin="round"/>
<rect width="55.3998" height="18.0051" transform="matrix(0.866023 0.500004 0 1 480.305 659.818)" fill="#181A1F" stroke="#333538" stroke-width="0.75" stroke-miterlimit="10"/>
<rect width="55.3998" height="18.0051" transform="matrix(0.866023 -0.500004 0 1 528.279 687.52)" fill="#181A1F" stroke="#333538" stroke-width="0.75" stroke-miterlimit="10"/>
<rect width="55.3998" height="55.3998" transform="matrix(0.866023 0.500004 -0.866023 0.500004 528.279 467.691)" fill="#16181D" stroke="#333538" stroke-width="0.75" stroke-linejoin="round"/>
<rect width="55.3998" height="18.0051" transform="matrix(0.866023 0.500004 0 1 480.305 495.393)" fill="#16181D" stroke="#333538" stroke-width="0.75" stroke-linejoin="round"/>
<rect width="55.3998" height="18.0051" transform="matrix(0.866023 -0.500004 0 1 528.279 523.096)" fill="#16181D" stroke="#333538" stroke-width="0.75" stroke-linejoin="round"/>
<rect width="55.3998" height="55.3998" transform="matrix(0.866023 0.500004 -0.866023 0.500004 528.277 544.045)" fill="#16181D" stroke="#333538" stroke-width="0.75" stroke-linejoin="round"/>
<rect width="55.3998" height="18.0051" transform="matrix(0.866023 0.500004 0 1 480.303 571.746)" fill="#16181D" stroke="#333538" stroke-width="0.75" stroke-linejoin="round"/>
<rect width="55.3998" height="18.0051" transform="matrix(0.866023 -0.500004 0 1 528.277 599.449)" fill="#16181D" stroke="#333538" stroke-width="0.75" stroke-linejoin="round"/>
<rect width="55.3998" height="55.3998" transform="matrix(0.866023 0.500004 -0.866023 0.500004 336.352 587.398)" fill="#16181D" stroke="#333538" stroke-width="0.75" stroke-linejoin="round"/>
<rect width="55.3998" height="18.0051" transform="matrix(0.866023 0.500004 0 1 288.377 615.1)" fill="#181A1F" stroke="#333538" stroke-width="0.75" stroke-linejoin="round"/>
<rect width="55.3998" height="18.0051" transform="matrix(0.866023 -0.500004 0 1 336.354 642.803)" fill="#181A1F" stroke="#333538" stroke-width="0.75" stroke-linejoin="round"/>
<rect width="55.3998" height="55.3998" transform="matrix(0.866023 0.500004 -0.866023 0.500004 576.256 291.385)" fill="#16181D" stroke="#333538" stroke-width="0.75" stroke-linejoin="round"/>
<rect width="55.3998" height="18.0051" transform="matrix(0.866023 0.500004 0 1 528.281 319.086)" fill="#16181D" stroke="#333538" stroke-width="0.75" stroke-linejoin="round"/>
<rect width="55.3998" height="18.0051" transform="matrix(0.866023 -0.500004 0 1 576.256 346.789)" fill="#181A1F" stroke="#333538" stroke-width="0.75" stroke-linejoin="round"/>
<rect width="55.3998" height="55.3998" transform="matrix(0.866023 0.500004 -0.866023 0.500004 528.279 319.107)" fill="#16181D" stroke="#333538" stroke-width="0.75" stroke-linejoin="round"/>
<rect width="55.3998" height="18.0051" transform="matrix(0.866023 0.500004 0 1 480.305 346.807)" fill="#16181D" stroke="#333538" stroke-width="0.75" stroke-linejoin="round"/>
<rect width="55.3998" height="18.0051" transform="matrix(0.866023 -0.500004 0 1 528.279 374.51)" fill="#16181D" stroke="#333538" stroke-width="0.75" stroke-linejoin="round"/>
<rect width="55.3998" height="55.3998" transform="matrix(0.866023 0.500004 -0.866023 0.500004 528.277 440.168)" fill="#16181D" stroke="#333538" stroke-width="0.75" stroke-linejoin="round"/>
<rect width="55.3998" height="18.0051" transform="matrix(0.866023 0.500004 0 1 480.303 467.869)" fill="#16181D" stroke="#333538" stroke-width="0.75" stroke-linejoin="round"/>
<rect width="55.3998" height="18.0051" transform="matrix(0.866023 -0.500004 0 1 528.277 495.572)" fill="#16181D" stroke="#333538" stroke-width="0.75" stroke-linejoin="round"/>
<rect width="55.3998" height="55.3998" transform="matrix(0.866023 0.500004 -0.866023 0.500004 480.297 346.803)" fill="#16181D" stroke="#333538" stroke-width="0.75" stroke-linejoin="round"/>
<rect width="55.3998" height="18.0051" transform="matrix(0.866023 0.500004 0 1 432.322 374.504)" fill="#16181D" stroke="#333538" stroke-width="0.75" stroke-linejoin="round"/>
<rect width="55.3998" height="18.0051" transform="matrix(0.866023 -0.500004 0 1 480.297 402.207)" fill="#16181D" stroke="#333538" stroke-width="0.75" stroke-linejoin="round"/>
<rect width="55.3998" height="55.3998" transform="matrix(0.866023 0.500004 -0.866023 0.500004 432.324 374.488)" fill="#16181D" stroke="#333538" stroke-width="0.75" stroke-linejoin="round"/>
<rect width="55.3998" height="18.0051" transform="matrix(0.866023 0.500004 0 1 384.35 402.189)" fill="#16181D" stroke="#333538" stroke-width="0.75" stroke-linejoin="round"/>
<rect width="55.3998" height="18.0051" transform="matrix(0.866023 -0.500004 0 1 432.326 429.889)" fill="#16181D" stroke="#333538" stroke-width="0.75" stroke-linejoin="round"/>
<rect width="55.3998" height="55.3998" transform="matrix(0.866023 0.500004 -0.866023 0.500004 384.352 402.213)" fill="#16181D" stroke="#333538" stroke-width="0.75" stroke-linejoin="round"/>
<rect width="55.3998" height="18.0051" transform="matrix(0.866023 0.500004 0 1 336.377 429.914)" fill="#16181D" stroke="#333538" stroke-width="0.75" stroke-linejoin="round"/>
<rect width="55.3998" height="18.0051" transform="matrix(0.866023 -0.500004 0 1 384.354 457.619)" fill="#16181D" stroke="#333538" stroke-width="0.75" stroke-linejoin="round"/>
<rect width="55.3998" height="55.3998" transform="matrix(0.866023 0.500004 -0.866023 0.500004 336.367 429.906)" fill="#16181D" stroke="#333538" stroke-width="0.75" stroke-linejoin="round"/>
<rect width="55.3998" height="18.0051" transform="matrix(0.866023 0.500004 0 1 288.393 457.607)" fill="#16181D" stroke="#333538" stroke-width="0.75" stroke-linejoin="round"/>
<rect width="55.3998" height="18.0051" transform="matrix(0.866023 -0.500004 0 1 336.369 485.309)" fill="#16181D" stroke="#333538" stroke-width="0.75" stroke-linejoin="round"/>
<rect width="55.3998" height="55.3998" transform="matrix(0.866023 0.500004 -0.866023 0.500004 336.352 532.342)" fill="#16181D" stroke="#333538" stroke-width="0.75" stroke-linejoin="round"/>
<rect width="55.3998" height="18.0051" transform="matrix(0.866023 0.500004 0 1 288.377 560.043)" fill="#16181D" stroke="#333538" stroke-width="0.75" stroke-linejoin="round"/>
<rect width="55.3998" height="18.0051" transform="matrix(0.866023 -0.500004 0 1 336.352 587.744)" fill="#16181D" stroke="#333538" stroke-width="0.75" stroke-linejoin="round"/>
<rect width="55.3998" height="55.3998" transform="matrix(0.866023 0.500004 -0.866023 0.500004 336.352 503.455)" fill="#16181D" stroke="#333538" stroke-width="0.75" stroke-linejoin="round"/>
<rect width="55.3998" height="18.0051" transform="matrix(0.866023 0.500004 0 1 288.377 531.156)" fill="#16181D" stroke="#333538" stroke-width="0.75" stroke-linejoin="round"/>
<rect width="55.3998" height="18.0051" transform="matrix(0.866023 -0.500004 0 1 336.352 558.857)" fill="#16181D" stroke="#333538" stroke-width="0.75" stroke-linejoin="round"/>
</svg>
