<svg width="325" height="354" viewBox="0 0 325 354" fill="none" xmlns="http://www.w3.org/2000/svg">
<path d="M312.5 117.801H300.5V129.801H312.5V117.801Z" fill="#16181D" stroke="#333538" stroke-width="0.375" stroke-linejoin="round"/>
<path d="M312.5 129.801H300.5V141.801H312.5V129.801Z" fill="#16181D" stroke="#333538" stroke-width="0.375" stroke-linejoin="round"/>
<path d="M324.5 129.801H312.5V141.801H324.5V129.801Z" fill="#16181D" stroke="#333538" stroke-width="0.375" stroke-linejoin="round"/>
<rect width="27.6999" height="27.6999" transform="matrix(0.866023 0.500004 -0.866023 0.500004 144.432 0.525391)" fill="#16181D" stroke="#333538" stroke-width="0.375" stroke-linejoin="round"/>
<rect width="27.6999" height="9.00254" transform="matrix(0.866023 0.500004 0 1 120.445 14.375)" fill="#16181D" stroke="#333538" stroke-width="0.375" stroke-linejoin="round"/>
<rect width="27.6999" height="9.00254" transform="matrix(0.866023 -0.500004 0 1 144.434 28.2266)" fill="#181A1F" stroke="#333538" stroke-width="0.375" stroke-linejoin="round"/>
<rect width="27.6999" height="27.6999" transform="matrix(0.866023 0.500004 -0.866023 0.500004 120.441 14.3965)" fill="#16181D" stroke="#333538" stroke-width="0.375" stroke-linejoin="round"/>
<rect width="27.6999" height="9.00254" transform="matrix(0.866023 0.500004 0 1 96.4551 28.2461)" fill="#16181D" stroke="#333538" stroke-width="0.375" stroke-linejoin="round"/>
<rect width="27.6999" height="9.00254" transform="matrix(0.866023 -0.500004 0 1 120.441 42.0977)" fill="#181A1F" stroke="#333538" stroke-width="0.375" stroke-linejoin="round"/>
<rect width="27.6999" height="27.6999" transform="matrix(0.866023 0.500004 -0.866023 0.500004 96.4512 28.2363)" fill="#16181D" stroke="#333538" stroke-width="0.375" stroke-linejoin="round"/>
<rect width="27.6999" height="9.00254" transform="matrix(0.866023 0.500004 0 1 72.4648 42.0859)" fill="#16181D" stroke="#333538" stroke-width="0.375" stroke-linejoin="round"/>
<rect width="27.6999" height="9.00254" transform="matrix(0.866023 -0.500004 0 1 96.4512 55.9375)" fill="#16181D" stroke="#333538" stroke-width="0.375" stroke-linejoin="round"/>
<rect width="27.6999" height="27.6999" transform="matrix(0.866023 0.500004 -0.866023 0.500004 120.445 42.0879)" fill="#16181D" stroke="#333538" stroke-width="0.375" stroke-linejoin="round"/>
<rect width="27.6999" height="9.00254" transform="matrix(0.866023 0.500004 0 1 96.459 55.9375)" fill="#16181D" stroke="#333538" stroke-width="0.375" stroke-linejoin="round"/>
<rect width="27.6999" height="9.00254" transform="matrix(0.866023 -0.500004 0 1 120.445 69.7891)" fill="#16181D" stroke="#333538" stroke-width="0.375" stroke-linejoin="round"/>
<rect width="27.6999" height="27.6999" transform="matrix(0.866023 0.500004 -0.866023 0.500004 144.436 55.9355)" fill="#16181D" stroke="#333538" stroke-width="0.375" stroke-linejoin="round"/>
<rect width="27.6999" height="9.00254" transform="matrix(0.866023 0.500004 0 1 120.449 69.7852)" fill="#16181D" stroke="#333538" stroke-width="0.375" stroke-linejoin="round"/>
<rect width="27.6999" height="9.00254" transform="matrix(0.866023 -0.500004 0 1 144.438 83.6367)" fill="#16181D" stroke="#333538" stroke-width="0.375" stroke-linejoin="round"/>
<rect width="27.6999" height="27.6999" transform="matrix(0.866023 0.500004 -0.866023 0.500004 72.4648 42.0879)" fill="#16181D" stroke="#333538" stroke-width="0.375" stroke-linejoin="round"/>
<rect width="27.6999" height="9.00254" transform="matrix(0.866023 0.500004 0 1 48.4785 55.9375)" fill="#16181D" stroke="#333538" stroke-width="0.375" stroke-linejoin="round"/>
<rect width="27.6999" height="9.00254" transform="matrix(0.866023 -0.500004 0 1 72.4668 69.7891)" fill="#16181D" stroke="#333538" stroke-width="0.375" stroke-linejoin="round"/>
<rect width="27.6999" height="27.6999" transform="matrix(0.866023 0.500004 -0.866023 0.500004 48.4785 55.9355)" fill="#16181D" stroke="#333538" stroke-width="0.375" stroke-linejoin="round"/>
<rect width="27.6999" height="9.00254" transform="matrix(0.866023 0.500004 0 1 24.4922 69.7852)" fill="#16181D" stroke="#333538" stroke-width="0.375" stroke-linejoin="round"/>
<rect width="27.6999" height="9.00254" transform="matrix(0.866023 -0.500004 0 1 48.4785 83.6367)" fill="#16181D" stroke="#333538" stroke-width="0.375" stroke-linejoin="round"/>
<rect width="27.6999" height="27.6999" transform="matrix(0.866023 0.500004 -0.866023 0.500004 24.4883 69.7832)" fill="#16181D" stroke="#333538" stroke-width="0.375" stroke-linejoin="round"/>
<rect width="27.6999" height="9.00254" transform="matrix(0.866023 0.500004 0 1 0.501953 83.6328)" fill="#181A1F" stroke="#333538" stroke-width="0.375" stroke-linejoin="round"/>
<rect width="27.6999" height="9.00254" transform="matrix(0.866023 -0.500004 0 1 24.4883 97.4844)" fill="#16181D" stroke="#333538" stroke-width="0.375" stroke-linejoin="round"/>
<path d="M216.443 224.15V78.7129" stroke="#333538" stroke-width="0.375" stroke-linejoin="round"/>
<path d="M192.441 227.552V92.1777" stroke="#333538" stroke-width="0.375" stroke-linejoin="round"/>
<path d="M168.428 227.548V106.285" stroke="#333538" stroke-width="0.375" stroke-linejoin="round"/>
<path d="M144.441 229.178V120.045" stroke="#333538" stroke-width="0.375" stroke-linejoin="round"/>
<path d="M120.443 160.883V133.797" stroke="#333538" stroke-width="0.375" stroke-linejoin="round"/>
<path d="M96.4258 174.98V147.895" stroke="#333538" stroke-width="0.375" stroke-linejoin="round"/>
<rect width="27.6999" height="27.6999" transform="matrix(0.866023 0.500004 -0.866023 0.500004 216.402 42.0859)" fill="#16181D" stroke="#333538" stroke-width="0.375" stroke-linejoin="round"/>
<rect width="27.6999" height="9.00254" transform="matrix(0.866023 0.500004 0 1 192.416 55.9375)" fill="#16181D" stroke="#333538" stroke-width="0.375" stroke-linejoin="round"/>
<rect width="27.6999" height="9.00254" transform="matrix(0.866023 -0.500004 0 1 216.404 69.7871)" fill="#16181D" stroke="#333538" stroke-width="0.375" stroke-linejoin="round"/>
<rect width="27.6999" height="27.6999" transform="matrix(0.866023 0.500004 -0.866023 0.500004 192.414 55.9473)" fill="#16181D" stroke="#333538" stroke-width="0.375" stroke-linejoin="round"/>
<rect width="27.6999" height="9.00254" transform="matrix(0.866023 0.500004 0 1 168.428 69.7969)" fill="#333538" stroke="#333538" stroke-width="0.375" stroke-linejoin="round"/>
<rect width="27.6999" height="9.00254" transform="matrix(0.866023 -0.500004 0 1 192.416 83.6484)" fill="#16181D" stroke="#333538" stroke-width="0.375" stroke-linejoin="round"/>
<rect width="27.6999" height="27.6999" transform="matrix(0.866023 0.500004 -0.866023 0.500004 168.424 69.7891)" fill="#333538" stroke="#333538" stroke-width="0.375" stroke-linejoin="round"/>
<rect width="27.6999" height="9.00254" transform="matrix(0.866023 0.500004 0 1 144.438 83.6406)" fill="#333538" stroke="#333538" stroke-width="0.375" stroke-linejoin="round"/>
<rect width="27.6999" height="9.00254" transform="matrix(0.866023 -0.500004 0 1 168.426 97.4941)" fill="#16181D" stroke="#333538" stroke-width="0.375" stroke-linejoin="round"/>
<rect width="27.6999" height="27.6999" transform="matrix(0.866023 0.500004 -0.866023 0.500004 144.438 83.6426)" fill="#333538" stroke="#333538" stroke-width="0.375" stroke-linejoin="round"/>
<rect width="27.6999" height="9.00254" transform="matrix(0.866023 0.500004 0 1 120.451 97.4922)" fill="#333538" stroke="#333538" stroke-width="0.375" stroke-linejoin="round"/>
<rect width="27.6999" height="9.00254" transform="matrix(0.866023 -0.500004 0 1 144.439 111.344)" fill="#16181D" stroke="#333538" stroke-width="0.375" stroke-linejoin="round"/>
<rect width="27.6999" height="27.6999" transform="matrix(0.866023 0.500004 -0.866023 0.500004 120.449 97.4961)" fill="#333538" stroke="#333538" stroke-width="0.375" stroke-linejoin="round"/>
<rect width="27.6999" height="9.00254" transform="matrix(0.866023 0.500004 0 1 96.4629 111.348)" fill="#333538" stroke="#333538" stroke-width="0.375" stroke-linejoin="round"/>
<rect width="27.6999" height="9.00254" transform="matrix(0.866023 -0.500004 0 1 120.451 125.199)" fill="#16181D" stroke="#333538" stroke-width="0.375" stroke-linejoin="round"/>
<rect width="27.6999" height="27.6999" transform="matrix(0.866023 0.500004 -0.866023 0.500004 96.4609 111.346)" fill="#333538" stroke="#333538" stroke-width="0.375" stroke-linejoin="round"/>
<rect width="27.6999" height="9.00254" transform="matrix(0.866023 0.500004 0 1 72.4746 125.195)" fill="#333538" stroke="#333538" stroke-width="0.375" stroke-linejoin="round"/>
<rect width="27.6999" height="9.00254" transform="matrix(0.866023 -0.500004 0 1 96.4629 139.047)" fill="#16181D" stroke="#333538" stroke-width="0.375" stroke-linejoin="round"/>
<rect width="27.6999" height="27.6999" transform="matrix(0.866023 0.500004 -0.866023 0.500004 216.408 105.016)" fill="#333538" stroke="#333538" stroke-width="0.375" stroke-linejoin="round"/>
<rect width="27.6999" height="9.00254" transform="matrix(0.866023 0.500004 0 1 192.422 118.867)" fill="#333538" stroke="#333538" stroke-width="0.375" stroke-linejoin="round"/>
<rect width="27.6999" height="9.00254" transform="matrix(0.866023 -0.500004 0 1 216.41 132.717)" fill="#16181D" stroke="#333538" stroke-width="0.375" stroke-linejoin="round"/>
<rect width="27.6999" height="27.6999" transform="matrix(0.866023 0.500004 -0.866023 0.500004 192.418 118.879)" fill="#333538" stroke="#333538" stroke-width="0.375" stroke-linejoin="round"/>
<rect width="27.6999" height="9.00254" transform="matrix(0.866023 0.500004 0 1 168.432 132.73)" fill="#333538" stroke="#333538" stroke-width="0.375" stroke-linejoin="round"/>
<rect width="27.6999" height="9.00254" transform="matrix(0.866023 -0.500004 0 1 192.42 146.58)" fill="#16181D" stroke="#333538" stroke-width="0.375" stroke-linejoin="round"/>
<rect width="27.6999" height="27.6999" transform="matrix(0.866023 0.500004 -0.866023 0.500004 168.428 132.725)" fill="#333538" stroke="#333538" stroke-width="0.375" stroke-linejoin="round"/>
<rect width="27.6999" height="9.00254" transform="matrix(0.866023 0.500004 0 1 144.441 146.574)" fill="#333538" stroke="#333538" stroke-width="0.375" stroke-linejoin="round"/>
<rect width="27.6999" height="9.00254" transform="matrix(0.866023 -0.500004 0 1 168.428 160.426)" fill="#333538" stroke="#333538" stroke-width="0.375" stroke-linejoin="round"/>
<rect width="27.6999" height="27.6999" transform="matrix(0.866023 0.500004 -0.866023 0.500004 192.42 146.572)" fill="#333538" stroke="#333538" stroke-width="0.375" stroke-linejoin="round"/>
<rect width="27.6999" height="9.00254" transform="matrix(0.866023 0.500004 0 1 168.434 160.422)" fill="#16181D" stroke="#333538" stroke-width="0.375" stroke-linejoin="round"/>
<rect width="27.6999" height="9.00254" transform="matrix(0.866023 -0.500004 0 1 192.422 174.273)" fill="#333538" stroke="#333538" stroke-width="0.375" stroke-linejoin="round"/>
<rect width="27.6999" height="27.6999" transform="matrix(0.866023 0.500004 -0.866023 0.500004 216.414 160.434)" fill="#333538" stroke="#333538" stroke-width="0.375" stroke-linejoin="round"/>
<rect width="27.6999" height="9.00254" transform="matrix(0.866023 0.500004 0 1 192.426 174.285)" fill="#16181D" stroke="#333538" stroke-width="0.375" stroke-linejoin="round"/>
<rect width="27.6999" height="9.00254" transform="matrix(0.866023 -0.500004 0 1 216.414 188.137)" fill="#333538" stroke="#333538" stroke-width="0.375" stroke-linejoin="round"/>
<rect width="27.6999" height="27.6999" transform="matrix(0.866023 0.500004 -0.866023 0.500004 144.441 146.572)" fill="#333538" stroke="#333538" stroke-width="0.375" stroke-linejoin="round"/>
<rect width="27.6999" height="9.00254" transform="matrix(0.866023 0.500004 0 1 120.453 160.422)" fill="#333538" stroke="#333538" stroke-width="0.375" stroke-linejoin="round"/>
<rect width="27.6999" height="9.00254" transform="matrix(0.866023 -0.500004 0 1 144.441 174.273)" fill="#16181D" stroke="#333538" stroke-width="0.375" stroke-linejoin="round"/>
<rect width="27.6999" height="27.6999" transform="matrix(0.866023 0.500004 -0.866023 0.500004 120.469 160.434)" fill="#333538" stroke="#333538" stroke-width="0.375" stroke-linejoin="round"/>
<rect width="27.6999" height="9.00254" transform="matrix(0.866023 0.500004 0 1 96.4824 174.285)" fill="#333538" stroke="#333538" stroke-width="0.375" stroke-linejoin="round"/>
<rect width="27.6999" height="9.00254" transform="matrix(0.866023 -0.500004 0 1 120.469 188.137)" fill="#16181D" stroke="#333538" stroke-width="0.375" stroke-linejoin="round"/>
<rect width="27.6999" height="27.6999" transform="matrix(0.866023 0.500004 -0.866023 0.500004 96.4648 174.277)" fill="#333538" stroke="#333538" stroke-width="0.375" stroke-linejoin="round"/>
<rect width="27.6999" height="9.00254" transform="matrix(0.866023 0.500004 0 1 72.4785 188.129)" fill="#16181D" stroke="#333538" stroke-width="0.375" stroke-linejoin="round"/>
<rect width="27.6999" height="9.00254" transform="matrix(0.866023 -0.500004 0 1 96.4648 201.977)" fill="#16181D" stroke="#333538" stroke-width="0.375" stroke-linejoin="round"/>
<rect width="27.6999" height="27.6999" transform="matrix(0.866023 0.500004 -0.866023 0.500004 264.389 316.324)" fill="#16181D" stroke="#333538" stroke-width="0.375" stroke-linejoin="round"/>
<rect width="27.6999" height="9.00254" transform="matrix(0.866023 0.500004 0 1 240.402 330.176)" fill="#181A1F" stroke="#333538" stroke-width="0.375" stroke-miterlimit="10"/>
<rect width="27.6999" height="9.00254" transform="matrix(0.866023 -0.500004 0 1 264.389 344.025)" fill="#181A1F" stroke="#333538" stroke-width="0.375" stroke-miterlimit="10"/>
<rect width="27.6999" height="27.6999" transform="matrix(0.866023 0.500004 -0.866023 0.500004 264.389 272.266)" fill="#16181D" stroke="#333538" stroke-width="0.375" stroke-linejoin="round"/>
<rect width="27.6999" height="9.00254" transform="matrix(0.866023 0.500004 0 1 240.402 286.117)" fill="#181A1F" stroke="#333538" stroke-width="0.375" stroke-miterlimit="10"/>
<rect width="27.6999" height="9.00254" transform="matrix(0.866023 -0.500004 0 1 264.389 299.967)" fill="#181A1F" stroke="#333538" stroke-width="0.375" stroke-miterlimit="10"/>
<rect width="27.6999" height="27.6999" transform="matrix(0.866023 0.500004 -0.866023 0.500004 264.389 234.109)" fill="#333538" stroke="#333538" stroke-width="0.375" stroke-linejoin="round"/>
<rect width="27.6999" height="9.00254" transform="matrix(0.866023 0.500004 0 1 240.402 247.961)" fill="#333538" stroke="#333538" stroke-width="0.375" stroke-linejoin="round"/>
<rect width="27.6999" height="9.00254" transform="matrix(0.866023 -0.500004 0 1 264.389 261.812)" fill="#16181D" stroke="#333538" stroke-width="0.375" stroke-linejoin="round"/>
<rect width="27.6999" height="27.6999" transform="matrix(0.866023 0.500004 -0.866023 0.500004 168.426 293.965)" fill="#16181D" stroke="#333538" stroke-width="0.375" stroke-linejoin="round"/>
<rect width="27.6999" height="9.00254" transform="matrix(0.866023 0.500004 0 1 144.439 307.816)" fill="#181A1F" stroke="#333538" stroke-width="0.375" stroke-linejoin="round"/>
<rect width="27.6999" height="9.00254" transform="matrix(0.866023 -0.500004 0 1 168.428 321.668)" fill="#181A1F" stroke="#333538" stroke-width="0.375" stroke-linejoin="round"/>
<rect width="27.6999" height="27.6999" transform="matrix(0.866023 0.500004 -0.866023 0.500004 168.426 266.516)" fill="#16181D" stroke="#333538" stroke-width="0.375" stroke-linejoin="round"/>
<rect width="27.6999" height="9.00254" transform="matrix(0.866023 0.500004 0 1 144.439 280.367)" fill="#181A1F" stroke="#333538" stroke-width="0.375" stroke-linejoin="round"/>
<rect width="27.6999" height="9.00254" transform="matrix(0.866023 -0.500004 0 1 168.428 294.219)" fill="#181A1F" stroke="#333538" stroke-width="0.375" stroke-linejoin="round"/>
<rect width="27.6999" height="27.6999" transform="matrix(0.866023 0.500004 -0.866023 0.500004 288.377 145.957)" fill="#16181D" stroke="#333538" stroke-width="0.375" stroke-linejoin="round"/>
<rect width="27.6999" height="9.00254" transform="matrix(0.866023 0.500004 0 1 264.391 159.809)" fill="#333538" stroke="#333538" stroke-width="0.375" stroke-linejoin="round"/>
<rect width="27.6999" height="9.00254" transform="matrix(0.866023 -0.500004 0 1 288.377 173.66)" fill="#181A1F" stroke="#333538" stroke-width="0.375" stroke-linejoin="round"/>
<rect width="27.6999" height="27.6999" transform="matrix(0.866023 0.500004 -0.866023 0.500004 264.389 159.818)" fill="#333538" stroke="#333538" stroke-width="0.375" stroke-linejoin="round"/>
<rect width="27.6999" height="9.00254" transform="matrix(0.866023 0.500004 0 1 240.402 173.668)" fill="#333538" stroke="#333538" stroke-width="0.375" stroke-linejoin="round"/>
<rect width="27.6999" height="9.00254" transform="matrix(0.866023 -0.500004 0 1 264.389 187.52)" fill="#16181D" stroke="#333538" stroke-width="0.375" stroke-linejoin="round"/>
<rect width="27.6999" height="27.6999" transform="matrix(0.866023 0.500004 -0.866023 0.500004 264.389 220.348)" fill="#333538" stroke="#333538" stroke-width="0.375" stroke-linejoin="round"/>
<rect width="27.6999" height="9.00254" transform="matrix(0.866023 0.500004 0 1 240.402 234.199)" fill="#16181D" stroke="#333538" stroke-width="0.375" stroke-linejoin="round"/>
<rect width="27.6999" height="9.00254" transform="matrix(0.866023 -0.500004 0 1 264.389 248.051)" fill="#16181D" stroke="#333538" stroke-width="0.375" stroke-linejoin="round"/>
<rect width="27.6999" height="27.6999" transform="matrix(0.866023 0.500004 -0.866023 0.500004 240.398 173.666)" fill="#333538" stroke="#333538" stroke-width="0.375" stroke-linejoin="round"/>
<rect width="27.6999" height="9.00254" transform="matrix(0.866023 0.500004 0 1 216.412 187.516)" fill="#333538" stroke="#333538" stroke-width="0.375" stroke-linejoin="round"/>
<rect width="27.6999" height="9.00254" transform="matrix(0.866023 -0.500004 0 1 240.398 201.367)" fill="#16181D" stroke="#333538" stroke-width="0.375" stroke-linejoin="round"/>
<rect width="27.6999" height="27.6999" transform="matrix(0.866023 0.500004 -0.866023 0.500004 216.412 187.508)" fill="#333538" stroke="#333538" stroke-width="0.375" stroke-linejoin="round"/>
<rect width="27.6999" height="9.00254" transform="matrix(0.866023 0.500004 0 1 192.426 201.359)" fill="#333538" stroke="#333538" stroke-width="0.375" stroke-linejoin="round"/>
<rect width="27.6999" height="9.00254" transform="matrix(0.866023 -0.500004 0 1 216.414 215.207)" fill="#16181D" stroke="#333538" stroke-width="0.375" stroke-linejoin="round"/>
<rect width="27.6999" height="27.6999" transform="matrix(0.866023 0.500004 -0.866023 0.500004 192.426 201.371)" fill="#333538" stroke="#333538" stroke-width="0.375" stroke-linejoin="round"/>
<rect width="27.6999" height="9.00254" transform="matrix(0.866023 0.500004 0 1 168.439 215.223)" fill="#333538" stroke="#333538" stroke-width="0.375" stroke-linejoin="round"/>
<rect width="27.6999" height="9.00254" transform="matrix(0.866023 -0.500004 0 1 192.428 229.074)" fill="#16181D" stroke="#333538" stroke-width="0.375" stroke-linejoin="round"/>
<rect width="27.6999" height="27.6999" transform="matrix(0.866023 0.500004 -0.866023 0.500004 168.436 215.219)" fill="#333538" stroke="#333538" stroke-width="0.375" stroke-linejoin="round"/>
<rect width="27.6999" height="9.00254" transform="matrix(0.866023 0.500004 0 1 144.449 229.07)" fill="#333538" stroke="#333538" stroke-width="0.375" stroke-linejoin="round"/>
<rect width="27.6999" height="9.00254" transform="matrix(0.866023 -0.500004 0 1 168.438 242.92)" fill="#16181D" stroke="#333538" stroke-width="0.375" stroke-linejoin="round"/>
<rect width="27.6999" height="27.6999" transform="matrix(0.866023 0.500004 -0.866023 0.500004 168.428 251.992)" fill="#333538" stroke="#333538" stroke-width="0.375" stroke-linejoin="round"/>
<rect width="27.6999" height="9.00254" transform="matrix(0.866023 0.500004 0 1 144.441 265.844)" fill="#333538" stroke="#333538" stroke-width="0.375" stroke-linejoin="round"/>
<rect width="27.6999" height="9.00254" transform="matrix(0.866023 -0.500004 0 1 168.428 279.693)" fill="#16181D" stroke="#333538" stroke-width="0.375" stroke-linejoin="round"/>
<g clip-path="url(#clip0_2417_306505)">
<rect width="27.6999" height="9.00254" transform="matrix(0.866023 0.500004 0 1 96.5215 28.3906)" fill="#16181D" stroke="#333538" stroke-width="0.375" stroke-linejoin="round"/>
<rect width="27.6999" height="9.00254" transform="matrix(0.866023 -0.500004 0 1 120.508 42.2422)" fill="#16181D" stroke="#333538" stroke-width="0.375" stroke-linejoin="round"/>
<rect width="27.6999" height="27.6999" transform="matrix(0.866023 0.500004 -0.866023 0.500004 96.5176 28.3789)" fill="#16181D" stroke="#333538" stroke-width="0.375" stroke-linejoin="round"/>
<rect width="27.6999" height="9.00254" transform="matrix(0.866023 0.500004 0 1 72.5312 42.2305)" fill="#16181D" stroke="#333538" stroke-width="0.375" stroke-linejoin="round"/>
<rect width="27.6999" height="9.00254" transform="matrix(0.866023 -0.500004 0 1 96.5176 56.0801)" fill="#16181D" stroke="#333538" stroke-width="0.375" stroke-linejoin="round"/>
<rect width="27.6999" height="27.6999" transform="matrix(0.866023 0.500004 -0.866023 0.500004 120.512 42.2305)" fill="#16181D" stroke="#333538" stroke-width="0.375" stroke-linejoin="round"/>
<rect width="27.6999" height="9.00254" transform="matrix(0.866023 0.500004 0 1 96.5254 56.082)" fill="#16181D" stroke="#333538" stroke-width="0.375" stroke-linejoin="round"/>
<rect width="27.6999" height="9.00254" transform="matrix(0.866023 -0.500004 0 1 120.512 69.9336)" fill="#16181D" stroke="#333538" stroke-width="0.375" stroke-linejoin="round"/>
<rect width="27.6999" height="27.6999" transform="matrix(0.866023 0.500004 -0.866023 0.500004 144.502 56.0781)" fill="#16181D" stroke="#333538" stroke-width="0.375" stroke-linejoin="round"/>
<rect width="27.6999" height="9.00254" transform="matrix(0.866023 0.500004 0 1 120.516 69.9297)" fill="#16181D" stroke="#333538" stroke-width="0.375" stroke-linejoin="round"/>
<rect width="27.6999" height="9.00254" transform="matrix(0.866023 -0.500004 0 1 144.504 83.7812)" fill="#16181D" stroke="#333538" stroke-width="0.375" stroke-linejoin="round"/>
<rect width="27.6999" height="27.6999" transform="matrix(0.866023 0.500004 -0.866023 0.500004 72.5312 42.2305)" fill="#16181D" stroke="#333538" stroke-width="0.375" stroke-linejoin="round"/>
<rect width="27.6999" height="9.00254" transform="matrix(0.866023 0.500004 0 1 48.5449 56.082)" fill="#16181D" stroke="#333538" stroke-width="0.375" stroke-linejoin="round"/>
<rect width="27.6999" height="9.00254" transform="matrix(0.866023 -0.500004 0 1 72.5332 69.9336)" fill="#16181D" stroke="#333538" stroke-width="0.375" stroke-linejoin="round"/>
<rect width="27.6999" height="27.6999" transform="matrix(0.866023 0.500004 -0.866023 0.500004 48.5449 56.0781)" fill="#16181D" stroke="#333538" stroke-width="0.375" stroke-linejoin="round"/>
<rect width="27.6999" height="9.00254" transform="matrix(0.866023 0.500004 0 1 24.5586 69.9297)" fill="#16181D" stroke="#333538" stroke-width="0.375" stroke-linejoin="round"/>
<rect width="27.6999" height="9.00254" transform="matrix(0.866023 -0.500004 0 1 48.5449 83.7812)" fill="#16181D" stroke="#333538" stroke-width="0.375" stroke-linejoin="round"/>
<rect width="27.6999" height="27.6999" transform="matrix(0.866023 0.500004 -0.866023 0.500004 24.5547 69.9258)" fill="#16181D" stroke="#333538" stroke-width="0.375" stroke-linejoin="round"/>
<rect width="27.6999" height="9.00254" transform="matrix(0.866023 0.500004 0 1 0.568359 83.7773)" fill="#16181D" stroke="#333538" stroke-width="0.375" stroke-linejoin="round"/>
<rect width="27.6999" height="9.00254" transform="matrix(0.866023 -0.500004 0 1 24.5566 97.6289)" fill="#16181D" stroke="#333538" stroke-width="0.375" stroke-linejoin="round"/>
<path d="M216.51 224.295V78.8574" stroke="#333538" stroke-width="0.375" stroke-linejoin="round"/>
<path d="M192.508 227.696V92.3223" stroke="#333538" stroke-width="0.375" stroke-linejoin="round"/>
<path d="M168.494 227.693V106.43" stroke="#333538" stroke-width="0.375" stroke-linejoin="round"/>
<path d="M144.508 229.322V120.189" stroke="#333538" stroke-width="0.375" stroke-linejoin="round"/>
<path d="M120.51 161.027V133.941" stroke="#333538" stroke-width="0.375" stroke-linejoin="round"/>
<path d="M96.4922 175.125V148.039" stroke="#333538" stroke-width="0.375" stroke-linejoin="round"/>
<rect width="27.6999" height="27.6999" transform="matrix(0.866023 0.500004 -0.866023 0.500004 216.469 42.2324)" fill="#16181D" stroke="#333538" stroke-width="0.375" stroke-linejoin="round"/>
<rect width="27.6999" height="9.00254" transform="matrix(0.866023 0.500004 0 1 192.482 56.082)" fill="#16181D" stroke="#333538" stroke-width="0.375" stroke-linejoin="round"/>
<rect width="27.6999" height="9.00254" transform="matrix(0.866023 -0.500004 0 1 216.471 69.9336)" fill="#16181D" stroke="#333538" stroke-width="0.375" stroke-linejoin="round"/>
<rect width="27.6999" height="27.6999" transform="matrix(0.866023 0.500004 -0.866023 0.500004 192.48 56.0918)" fill="#16181D" stroke="#333538" stroke-width="0.375" stroke-linejoin="round"/>
<rect width="27.6999" height="9.00254" transform="matrix(0.866023 0.500004 0 1 168.494 69.9414)" fill="#16181D" stroke="#333538" stroke-width="0.375" stroke-linejoin="round"/>
<rect width="27.6999" height="9.00254" transform="matrix(0.866023 -0.500004 0 1 192.482 83.793)" fill="#16181D" stroke="#333538" stroke-width="0.375" stroke-linejoin="round"/>
<rect width="27.6999" height="27.6999" transform="matrix(0.866023 0.500004 -0.866023 0.500004 168.49 69.9355)" fill="#16181D" stroke="#333538" stroke-width="0.375" stroke-linejoin="round"/>
<rect width="27.6999" height="9.00254" transform="matrix(0.866023 0.500004 0 1 144.504 83.7871)" fill="#16181D" stroke="#333538" stroke-width="0.375" stroke-linejoin="round"/>
<rect width="27.6999" height="9.00254" transform="matrix(0.866023 -0.500004 0 1 168.492 97.6406)" fill="#16181D" stroke="#333538" stroke-width="0.375" stroke-linejoin="round"/>
<rect width="27.6999" height="27.6999" transform="matrix(0.866023 0.500004 -0.866023 0.500004 144.504 83.7891)" fill="#16181D" stroke="#333538" stroke-width="0.375" stroke-linejoin="round"/>
<rect width="27.6999" height="9.00254" transform="matrix(0.866023 0.500004 0 1 120.518 97.6406)" fill="#16181D" stroke="#333538" stroke-width="0.375" stroke-linejoin="round"/>
<rect width="27.6999" height="9.00254" transform="matrix(0.866023 -0.500004 0 1 144.506 111.49)" fill="#16181D" stroke="#333538" stroke-width="0.375" stroke-linejoin="round"/>
<rect width="27.6999" height="27.6999" transform="matrix(0.866023 0.500004 -0.866023 0.500004 120.516 97.6426)" fill="#16181D" stroke="#333538" stroke-width="0.375" stroke-linejoin="round"/>
<rect width="27.6999" height="9.00254" transform="matrix(0.866023 0.500004 0 1 96.5293 111.492)" fill="#16181D" stroke="#333538" stroke-width="0.375" stroke-linejoin="round"/>
<rect width="27.6999" height="9.00254" transform="matrix(0.866023 -0.500004 0 1 120.518 125.344)" fill="#16181D" stroke="#333538" stroke-width="0.375" stroke-linejoin="round"/>
<rect width="27.6999" height="27.6999" transform="matrix(0.866023 0.500004 -0.866023 0.500004 96.5273 111.49)" fill="#16181D" stroke="#333538" stroke-width="0.375" stroke-linejoin="round"/>
<rect width="27.6999" height="9.00254" transform="matrix(0.866023 0.500004 0 1 72.5391 125.34)" fill="#16181D" stroke="#333538" stroke-width="0.375" stroke-linejoin="round"/>
<rect width="27.6999" height="9.00254" transform="matrix(0.866023 -0.500004 0 1 96.5293 139.191)" fill="#16181D" stroke="#333538" stroke-width="0.375" stroke-linejoin="round"/>
<rect width="27.6999" height="27.6999" transform="matrix(0.866023 0.500004 -0.866023 0.500004 216.475 105.158)" fill="#16181D" stroke="#333538" stroke-width="0.375" stroke-linejoin="round"/>
<rect width="27.6999" height="9.00254" transform="matrix(0.866023 0.500004 0 1 192.488 119.008)" fill="#16181D" stroke="#333538" stroke-width="0.375" stroke-linejoin="round"/>
<rect width="27.6999" height="9.00254" transform="matrix(0.866023 -0.500004 0 1 216.477 132.859)" fill="#16181D" stroke="#333538" stroke-width="0.375" stroke-linejoin="round"/>
<rect width="27.6999" height="27.6999" transform="matrix(0.866023 0.500004 -0.866023 0.500004 192.484 119.021)" fill="#16181D" stroke="#333538" stroke-width="0.375" stroke-linejoin="round"/>
<rect width="27.6999" height="9.00254" transform="matrix(0.866023 0.500004 0 1 168.498 132.871)" fill="#16181D" stroke="#333538" stroke-width="0.375" stroke-linejoin="round"/>
<rect width="27.6999" height="9.00254" transform="matrix(0.866023 -0.500004 0 1 192.486 146.723)" fill="#16181D" stroke="#333538" stroke-width="0.375" stroke-linejoin="round"/>
<rect width="27.6999" height="27.6999" transform="matrix(0.866023 0.500004 -0.866023 0.500004 168.494 132.869)" fill="#16181D" stroke="#333538" stroke-width="0.375" stroke-linejoin="round"/>
<rect width="27.6999" height="9.00254" transform="matrix(0.866023 0.500004 0 1 144.506 146.719)" fill="#16181D" stroke="#333538" stroke-width="0.375" stroke-linejoin="round"/>
<rect width="27.6999" height="9.00254" transform="matrix(0.866023 -0.500004 0 1 168.494 160.57)" fill="#16181D" stroke="#333538" stroke-width="0.375" stroke-linejoin="round"/>
<rect width="27.6999" height="27.6999" transform="matrix(0.866023 0.500004 -0.866023 0.500004 192.486 146.717)" fill="#16181D" stroke="#333538" stroke-width="0.375" stroke-linejoin="round"/>
<rect width="27.6999" height="9.00254" transform="matrix(0.866023 0.500004 0 1 168.5 160.566)" fill="#16181D" stroke="#333538" stroke-width="0.375" stroke-linejoin="round"/>
<rect width="27.6999" height="9.00254" transform="matrix(0.866023 -0.500004 0 1 192.488 174.418)" fill="#16181D" stroke="#333538" stroke-width="0.375" stroke-linejoin="round"/>
<rect width="27.6999" height="27.6999" transform="matrix(0.866023 0.500004 -0.866023 0.500004 216.479 160.576)" fill="#16181D" stroke="#333538" stroke-width="0.375" stroke-linejoin="round"/>
<rect width="27.6999" height="9.00254" transform="matrix(0.866023 0.500004 0 1 192.492 174.426)" fill="#16181D" stroke="#333538" stroke-width="0.375" stroke-linejoin="round"/>
<rect width="27.6999" height="9.00254" transform="matrix(0.866023 -0.500004 0 1 216.48 188.277)" fill="#16181D" stroke="#333538" stroke-width="0.375" stroke-linejoin="round"/>
<rect width="27.6999" height="27.6999" transform="matrix(0.866023 0.500004 -0.866023 0.500004 144.51 146.717)" fill="#16181D" stroke="#333538" stroke-width="0.375" stroke-linejoin="round"/>
<rect width="27.6999" height="9.00254" transform="matrix(0.866023 0.500004 0 1 120.523 160.566)" fill="#16181D" stroke="#333538" stroke-width="0.375" stroke-linejoin="round"/>
<rect width="27.6999" height="9.00254" transform="matrix(0.866023 -0.500004 0 1 144.512 174.418)" fill="#16181D" stroke="#333538" stroke-width="0.375" stroke-linejoin="round"/>
<rect width="27.6999" height="27.6999" transform="matrix(0.866023 0.500004 -0.866023 0.500004 120.535 160.576)" fill="#16181D" stroke="#333538" stroke-width="0.375" stroke-linejoin="round"/>
<rect width="27.6999" height="9.00254" transform="matrix(0.866023 0.500004 0 1 96.5488 174.426)" fill="#16181D" stroke="#333538" stroke-width="0.375" stroke-linejoin="round"/>
<rect width="27.6999" height="9.00254" transform="matrix(0.866023 -0.500004 0 1 120.535 188.277)" fill="#16181D" stroke="#333538" stroke-width="0.375" stroke-linejoin="round"/>
<rect width="27.6999" height="27.6999" transform="matrix(0.866023 0.500004 -0.866023 0.500004 96.5312 174.42)" fill="#16181D" stroke="#333538" stroke-width="0.375" stroke-linejoin="round"/>
<rect width="27.6999" height="9.00254" transform="matrix(0.866023 0.500004 0 1 72.5449 188.27)" fill="#16181D" stroke="#333538" stroke-width="0.375" stroke-linejoin="round"/>
<rect width="27.6999" height="9.00254" transform="matrix(0.866023 -0.500004 0 1 96.5312 202.117)" fill="#16181D" stroke="#333538" stroke-width="0.375" stroke-linejoin="round"/>
<rect width="27.6999" height="27.6999" transform="matrix(0.866023 0.500004 -0.866023 0.500004 264.455 234.252)" fill="#16181D" stroke="#333538" stroke-width="0.375" stroke-linejoin="round"/>
<rect width="27.6999" height="9.00254" transform="matrix(0.866023 0.500004 0 1 240.469 248.102)" fill="#16181D" stroke="#333538" stroke-width="0.375" stroke-linejoin="round"/>
<rect width="27.6999" height="9.00254" transform="matrix(0.866023 -0.500004 0 1 264.455 261.953)" fill="#16181D" stroke="#333538" stroke-width="0.375" stroke-linejoin="round"/>
<rect width="27.6999" height="27.6999" transform="matrix(0.866023 0.500004 -0.866023 0.500004 264.455 272.43)" fill="#16181D" stroke="#333538" stroke-width="0.375" stroke-linejoin="round"/>
<rect width="27.6999" height="9.00254" transform="matrix(0.866023 0.500004 0 1 240.469 286.281)" fill="#16181D" stroke="#333538" stroke-width="0.375" stroke-linejoin="round"/>
<rect width="27.6999" height="9.00254" transform="matrix(0.866023 -0.500004 0 1 264.455 300.133)" fill="#16181D" stroke="#333538" stroke-width="0.375" stroke-linejoin="round"/>
<rect width="27.6999" height="27.6999" transform="matrix(0.866023 0.500004 -0.866023 0.500004 168.492 294.105)" fill="#16181D" stroke="#333538" stroke-width="0.375" stroke-linejoin="round"/>
<rect width="27.6999" height="9.00254" transform="matrix(0.866023 0.500004 0 1 144.506 307.957)" fill="#16181D" stroke="#333538" stroke-width="0.375" stroke-linejoin="round"/>
<rect width="27.6999" height="9.00254" transform="matrix(0.866023 -0.500004 0 1 168.494 321.809)" fill="#16181D" stroke="#333538" stroke-width="0.375" stroke-linejoin="round"/>
<rect width="27.6999" height="27.6999" transform="matrix(0.866023 0.500004 -0.866023 0.500004 288.443 146.098)" fill="#16181D" stroke="#333538" stroke-width="0.375" stroke-linejoin="round"/>
<rect width="27.6999" height="9.00254" transform="matrix(0.866023 0.500004 0 1 264.455 159.949)" fill="#16181D" stroke="#333538" stroke-width="0.375" stroke-linejoin="round"/>
<rect width="27.6999" height="9.00254" transform="matrix(0.866023 -0.500004 0 1 288.443 173.801)" fill="#16181D" stroke="#333538" stroke-width="0.375" stroke-linejoin="round"/>
<rect width="27.6999" height="27.6999" transform="matrix(0.866023 0.500004 -0.866023 0.500004 264.455 159.961)" fill="#16181D" stroke="#333538" stroke-width="0.375" stroke-linejoin="round"/>
<rect width="27.6999" height="9.00254" transform="matrix(0.866023 0.500004 0 1 240.469 173.811)" fill="#16181D" stroke="#333538" stroke-width="0.375" stroke-linejoin="round"/>
<rect width="27.6999" height="9.00254" transform="matrix(0.866023 -0.500004 0 1 264.455 187.662)" fill="#16181D" stroke="#333538" stroke-width="0.375" stroke-linejoin="round"/>
<rect width="27.6999" height="27.6999" transform="matrix(0.866023 0.500004 -0.866023 0.500004 264.455 220.49)" fill="#16181D" stroke="#333538" stroke-width="0.375" stroke-linejoin="round"/>
<rect width="27.6999" height="9.00254" transform="matrix(0.866023 0.500004 0 1 240.469 234.34)" fill="#16181D" stroke="#333538" stroke-width="0.375" stroke-linejoin="round"/>
<rect width="27.6999" height="9.00254" transform="matrix(0.866023 -0.500004 0 1 264.455 248.191)" fill="#16181D" stroke="#333538" stroke-width="0.375" stroke-linejoin="round"/>
<rect width="27.6999" height="27.6999" transform="matrix(0.866023 0.500004 -0.866023 0.500004 240.465 173.809)" fill="#16181D" stroke="#333538" stroke-width="0.375" stroke-linejoin="round"/>
<rect width="27.6999" height="9.00254" transform="matrix(0.866023 0.500004 0 1 216.479 187.66)" fill="#16181D" stroke="#333538" stroke-width="0.375" stroke-linejoin="round"/>
<rect width="27.6999" height="9.00254" transform="matrix(0.866023 -0.500004 0 1 240.465 201.512)" fill="#16181D" stroke="#333538" stroke-width="0.375" stroke-linejoin="round"/>
<rect width="27.6999" height="27.6999" transform="matrix(0.866023 0.500004 -0.866023 0.500004 216.479 187.65)" fill="#16181D" stroke="#333538" stroke-width="0.375" stroke-linejoin="round"/>
<rect width="27.6999" height="9.00254" transform="matrix(0.866023 0.500004 0 1 192.492 201.5)" fill="#16181D" stroke="#333538" stroke-width="0.375" stroke-linejoin="round"/>
<rect width="27.6999" height="9.00254" transform="matrix(0.866023 -0.500004 0 1 216.48 215.352)" fill="#16181D" stroke="#333538" stroke-width="0.375" stroke-linejoin="round"/>
<rect width="27.6999" height="27.6999" transform="matrix(0.866023 0.500004 -0.866023 0.500004 192.49 201.512)" fill="#16181D" stroke="#333538" stroke-width="0.375" stroke-linejoin="round"/>
<rect width="27.6999" height="9.00254" transform="matrix(0.866023 0.500004 0 1 168.504 215.363)" fill="#16181D" stroke="#333538" stroke-width="0.375" stroke-linejoin="round"/>
<rect width="27.6999" height="9.00254" transform="matrix(0.866023 -0.500004 0 1 192.492 229.215)" fill="#16181D" stroke="#333538" stroke-width="0.375" stroke-linejoin="round"/>
<rect width="27.6999" height="27.6999" transform="matrix(0.866023 0.500004 -0.866023 0.500004 168.5 215.359)" fill="#16181D" stroke="#333538" stroke-width="0.375" stroke-linejoin="round"/>
<rect width="27.6999" height="9.00254" transform="matrix(0.866023 0.500004 0 1 144.514 229.211)" fill="#16181D" stroke="#333538" stroke-width="0.375" stroke-linejoin="round"/>
<rect width="27.6999" height="9.00254" transform="matrix(0.866023 -0.500004 0 1 168.502 243.061)" fill="#16181D" stroke="#333538" stroke-width="0.375" stroke-linejoin="round"/>
<rect width="27.6999" height="27.6999" transform="matrix(0.866023 0.500004 -0.866023 0.500004 168.492 266.578)" fill="#16181D" stroke="#333538" stroke-width="0.375" stroke-linejoin="round"/>
<rect width="27.6999" height="9.00254" transform="matrix(0.866023 0.500004 0 1 144.506 280.43)" fill="#16181D" stroke="#333538" stroke-width="0.375" stroke-linejoin="round"/>
<rect width="27.6999" height="9.00254" transform="matrix(0.866023 -0.500004 0 1 168.492 294.279)" fill="#16181D" stroke="#333538" stroke-width="0.375" stroke-linejoin="round"/>
<rect width="27.6999" height="27.6999" transform="matrix(0.866023 0.500004 -0.866023 0.500004 168.492 252.133)" fill="#16181D" stroke="#333538" stroke-width="0.375" stroke-linejoin="round"/>
<rect width="27.6999" height="9.00254" transform="matrix(0.866023 0.500004 0 1 144.506 265.984)" fill="#16181D" stroke="#333538" stroke-width="0.375" stroke-linejoin="round"/>
<rect width="27.6999" height="9.00254" transform="matrix(0.866023 -0.500004 0 1 168.492 279.834)" fill="#16181D" stroke="#333538" stroke-width="0.375" stroke-linejoin="round"/>
</g>
<defs>
<clipPath id="clip0_2417_306505">
<rect width="289" height="265" fill="white" transform="translate(12.5 45)"/>
</clipPath>
</defs>
</svg>
