<svg width="650" height="707" viewBox="0 0 650 707" fill="none" xmlns="http://www.w3.org/2000/svg">
<path d="M600.535 497.025H576.201V521.025H600.535V497.025Z" stroke="#181A1F" stroke-width="0.75" stroke-miterlimit="10"/>
<path d="M600.535 473.025H576.201V497.025H600.535V473.025Z" stroke="#181A1F" stroke-width="0.75" stroke-miterlimit="10"/>
<path d="M600.535 449.025H576.201V473.025H600.535V449.025Z" stroke="#181A1F" stroke-width="0.75" stroke-miterlimit="10"/>
<path d="M624.867 449.025H600.533V473.025H624.867V449.025Z" stroke="#181A1F" stroke-width="0.75" stroke-miterlimit="10"/>
<path d="M600.535 401.025H576.201V425.025H600.535V401.025Z" stroke="#181A1F" stroke-width="0.75" stroke-miterlimit="10"/>
<path d="M624.867 401.025H600.533V425.025H624.867V401.025Z" stroke="#181A1F" stroke-width="0.75" stroke-miterlimit="10"/>
<path d="M649.202 401.025H624.869V425.025H649.202V401.025Z" stroke="#181A1F" stroke-width="0.75" stroke-miterlimit="10"/>
<path d="M600.535 353.025H576.201V377.025H600.535V353.025Z" stroke="#181A1F" stroke-width="0.75" stroke-miterlimit="10"/>
<path d="M624.867 353.025H600.533V377.025H624.867V353.025Z" stroke="#181A1F" stroke-width="0.75" stroke-miterlimit="10"/>
<path d="M600.535 257.025H576.201V281.025H600.535V257.025Z" stroke="#181A1F" stroke-width="0.75" stroke-miterlimit="10"/>
<path d="M624.867 257.025H600.533V281.025H624.867V257.025Z" fill="#16181D" stroke="#333538" stroke-width="0.75" stroke-linejoin="round"/>
<path d="M649.202 257.025H624.869V281.025H649.202V257.025Z" fill="#16181D" stroke="#333538" stroke-width="0.75" stroke-linejoin="round"/>
<path d="M600.535 233.025H576.201V257.025H600.535V233.025Z" stroke="#181A1F" stroke-width="0.75" stroke-miterlimit="10"/>
<path d="M624.867 233.025H600.533V257.025H624.867V233.025Z" fill="#16181D" stroke="#333538" stroke-width="0.75" stroke-linejoin="round"/>
<rect width="55.3998" height="55.3998" transform="matrix(0.866023 0.500004 -0.866023 0.500004 288.365 0.525391)" fill="#16181D" stroke="#333538" stroke-width="0.75" stroke-linejoin="round"/>
<rect width="55.3998" height="18.0051" transform="matrix(0.866023 0.500004 0 1 240.391 28.2266)" fill="#16181D" stroke="#333538" stroke-width="0.75" stroke-linejoin="round"/>
<rect width="55.3998" height="18.0051" transform="matrix(0.866023 -0.500004 0 1 288.367 55.9297)" fill="#181A1F" stroke="#333538" stroke-width="0.75" stroke-linejoin="round"/>
<rect width="55.3998" height="55.3998" transform="matrix(0.866023 0.500004 -0.866023 0.500004 240.383 28.2656)" fill="#16181D" stroke="#333538" stroke-width="0.75" stroke-linejoin="round"/>
<rect width="55.3998" height="18.0051" transform="matrix(0.866023 0.500004 0 1 192.408 55.9668)" fill="#16181D" stroke="#333538" stroke-width="0.75" stroke-linejoin="round"/>
<rect width="55.3998" height="18.0051" transform="matrix(0.866023 -0.500004 0 1 240.383 83.6699)" fill="#181A1F" stroke="#333538" stroke-width="0.75" stroke-linejoin="round"/>
<rect width="55.3998" height="55.3998" transform="matrix(0.866023 0.500004 -0.866023 0.500004 192.402 55.9453)" fill="#16181D" stroke="#333538" stroke-width="0.75" stroke-linejoin="round"/>
<rect width="55.3998" height="18.0051" transform="matrix(0.866023 0.500004 0 1 144.428 83.6465)" fill="#16181D" stroke="#333538" stroke-width="0.75" stroke-linejoin="round"/>
<rect width="55.3998" height="18.0051" transform="matrix(0.866023 -0.500004 0 1 192.402 111.348)" fill="#16181D" stroke="#333538" stroke-width="0.75" stroke-linejoin="round"/>
<rect width="55.3998" height="55.3998" transform="matrix(0.866023 0.500004 -0.866023 0.500004 240.391 83.6504)" fill="#16181D" stroke="#333538" stroke-width="0.75" stroke-linejoin="round"/>
<rect width="55.3998" height="18.0051" transform="matrix(0.866023 0.500004 0 1 192.416 111.352)" fill="#16181D" stroke="#333538" stroke-width="0.75" stroke-linejoin="round"/>
<rect width="55.3998" height="18.0051" transform="matrix(0.866023 -0.500004 0 1 240.391 139.055)" fill="#16181D" stroke="#333538" stroke-width="0.75" stroke-linejoin="round"/>
<rect width="55.3998" height="55.3998" transform="matrix(0.866023 0.500004 -0.866023 0.500004 288.373 111.346)" fill="#16181D" stroke="#333538" stroke-width="0.75" stroke-linejoin="round"/>
<rect width="55.3998" height="18.0051" transform="matrix(0.866023 0.500004 0 1 240.398 139.047)" fill="#16181D" stroke="#333538" stroke-width="0.75" stroke-linejoin="round"/>
<rect width="55.3998" height="18.0051" transform="matrix(0.866023 -0.500004 0 1 288.375 166.75)" fill="#16181D" stroke="#333538" stroke-width="0.75" stroke-linejoin="round"/>
<rect width="55.3998" height="55.3998" transform="matrix(0.866023 0.500004 -0.866023 0.500004 144.43 83.6504)" fill="#16181D" stroke="#333538" stroke-width="0.75" stroke-linejoin="round"/>
<rect width="55.3998" height="18.0051" transform="matrix(0.866023 0.500004 0 1 96.4551 111.352)" fill="#16181D" stroke="#333538" stroke-width="0.75" stroke-linejoin="round"/>
<rect width="55.3998" height="18.0051" transform="matrix(0.866023 -0.500004 0 1 144.432 139.055)" fill="#16181D" stroke="#333538" stroke-width="0.75" stroke-linejoin="round"/>
<rect width="55.3998" height="55.3998" transform="matrix(0.866023 0.500004 -0.866023 0.500004 96.457 111.344)" fill="#16181D" stroke="#333538" stroke-width="0.75" stroke-linejoin="round"/>
<rect width="55.3998" height="18.0051" transform="matrix(0.866023 0.500004 0 1 48.4824 139.045)" fill="#16181D" stroke="#333538" stroke-width="0.75" stroke-linejoin="round"/>
<rect width="55.3998" height="18.0051" transform="matrix(0.866023 -0.500004 0 1 96.457 166.748)" fill="#16181D" stroke="#333538" stroke-width="0.75" stroke-linejoin="round"/>
<rect width="55.3998" height="55.3998" transform="matrix(0.866023 0.500004 -0.866023 0.500004 48.4766 139.041)" fill="#16181D" stroke="#333538" stroke-width="0.75" stroke-linejoin="round"/>
<rect width="55.3998" height="18.0051" transform="matrix(0.866023 0.500004 0 1 0.501953 166.742)" fill="#181A1F" stroke="#333538" stroke-width="0.75" stroke-linejoin="round"/>
<rect width="55.3998" height="18.0051" transform="matrix(0.866023 -0.500004 0 1 48.4766 194.445)" fill="#16181D" stroke="#333538" stroke-width="0.75" stroke-linejoin="round"/>
<path d="M432.385 447.775V156.9" stroke="#333538" stroke-width="0.75" stroke-linejoin="round"/>
<path d="M384.383 454.578V183.83" stroke="#333538" stroke-width="0.75" stroke-linejoin="round"/>
<path d="M336.354 454.569V212.043" stroke="#333538" stroke-width="0.75" stroke-linejoin="round"/>
<path d="M288.379 457.83V239.564" stroke="#333538" stroke-width="0.75" stroke-linejoin="round"/>
<path d="M240.385 321.24V267.068" stroke="#333538" stroke-width="0.75" stroke-linejoin="round"/>
<path d="M192.35 349.433V295.262" stroke="#333538" stroke-width="0.75" stroke-linejoin="round"/>
<rect width="55.3998" height="55.3998" transform="matrix(0.866023 0.500004 -0.866023 0.500004 432.301 83.6465)" fill="#16181D" stroke="#333538" stroke-width="0.75" stroke-linejoin="round"/>
<rect width="55.3998" height="18.0051" transform="matrix(0.866023 0.500004 0 1 384.326 111.348)" fill="#16181D" stroke="#333538" stroke-width="0.75" stroke-linejoin="round"/>
<rect width="55.3998" height="18.0051" transform="matrix(0.866023 -0.500004 0 1 432.303 139.049)" fill="#16181D" stroke="#333538" stroke-width="0.75" stroke-linejoin="round"/>
<rect width="55.3998" height="55.3998" transform="matrix(0.866023 0.500004 -0.866023 0.500004 384.322 111.367)" fill="#16181D" stroke="#333538" stroke-width="0.75" stroke-linejoin="round"/>
<rect width="55.3998" height="18.0051" transform="matrix(0.866023 0.500004 0 1 336.348 139.068)" fill="#16181D" stroke="#333538" stroke-width="0.75" stroke-linejoin="round"/>
<rect width="55.3998" height="18.0051" transform="matrix(0.866023 -0.500004 0 1 384.324 166.771)" fill="#16181D" stroke="#333538" stroke-width="0.75" stroke-linejoin="round"/>
<rect width="55.3998" height="55.3998" transform="matrix(0.866023 0.500004 -0.866023 0.500004 336.344 139.053)" fill="#16181D" stroke="#333538" stroke-width="0.75" stroke-linejoin="round"/>
<rect width="55.3998" height="18.0051" transform="matrix(0.866023 0.500004 0 1 288.369 166.756)" fill="#16181D" stroke="#333538" stroke-width="0.75" stroke-linejoin="round"/>
<rect width="55.3998" height="18.0051" transform="matrix(0.866023 -0.500004 0 1 336.346 194.463)" fill="#16181D" stroke="#333538" stroke-width="0.75" stroke-linejoin="round"/>
<rect width="55.3998" height="55.3998" transform="matrix(0.866023 0.500004 -0.866023 0.500004 288.371 166.762)" fill="#16181D" stroke="#333538" stroke-width="0.75" stroke-linejoin="round"/>
<rect width="55.3998" height="18.0051" transform="matrix(0.866023 0.500004 0 1 240.396 194.463)" fill="#16181D" stroke="#333538" stroke-width="0.75" stroke-linejoin="round"/>
<rect width="55.3998" height="18.0051" transform="matrix(0.866023 -0.500004 0 1 288.373 222.164)" fill="#16181D" stroke="#333538" stroke-width="0.75" stroke-linejoin="round"/>
<rect width="55.3998" height="55.3998" transform="matrix(0.866023 0.500004 -0.866023 0.500004 240.396 194.467)" fill="#16181D" stroke="#333538" stroke-width="0.75" stroke-linejoin="round"/>
<rect width="55.3998" height="18.0051" transform="matrix(0.866023 0.500004 0 1 192.422 222.168)" fill="#16181D" stroke="#333538" stroke-width="0.75" stroke-linejoin="round"/>
<rect width="55.3998" height="18.0051" transform="matrix(0.866023 -0.500004 0 1 240.398 249.871)" fill="#16181D" stroke="#333538" stroke-width="0.75" stroke-linejoin="round"/>
<rect width="55.3998" height="55.3998" transform="matrix(0.866023 0.500004 -0.866023 0.500004 192.416 222.164)" fill="#16181D" stroke="#333538" stroke-width="0.75" stroke-linejoin="round"/>
<rect width="55.3998" height="18.0051" transform="matrix(0.866023 0.500004 0 1 144.441 249.865)" fill="#16181D" stroke="#333538" stroke-width="0.75" stroke-linejoin="round"/>
<rect width="55.3998" height="18.0051" transform="matrix(0.866023 -0.500004 0 1 192.418 277.566)" fill="#16181D" stroke="#333538" stroke-width="0.75" stroke-linejoin="round"/>
<rect width="55.3998" height="55.3998" transform="matrix(0.866023 0.500004 -0.866023 0.500004 432.316 209.5)" fill="#16181D" stroke="#333538" stroke-width="0.75" stroke-linejoin="round"/>
<rect width="55.3998" height="18.0051" transform="matrix(0.866023 0.500004 0 1 384.342 237.201)" fill="#16181D" stroke="#333538" stroke-width="0.75" stroke-linejoin="round"/>
<rect width="55.3998" height="18.0051" transform="matrix(0.866023 -0.500004 0 1 432.318 264.902)" fill="#16181D" stroke="#333538" stroke-width="0.75" stroke-linejoin="round"/>
<rect width="55.3998" height="55.3998" transform="matrix(0.866023 0.500004 -0.866023 0.500004 384.336 237.229)" fill="#16181D" stroke="#333538" stroke-width="0.75" stroke-linejoin="round"/>
<rect width="55.3998" height="18.0051" transform="matrix(0.866023 0.500004 0 1 336.361 264.93)" fill="#16181D" stroke="#333538" stroke-width="0.75" stroke-linejoin="round"/>
<rect width="55.3998" height="18.0051" transform="matrix(0.866023 -0.500004 0 1 384.338 292.631)" fill="#16181D" stroke="#333538" stroke-width="0.75" stroke-linejoin="round"/>
<rect width="55.3998" height="55.3998" transform="matrix(0.866023 0.500004 -0.866023 0.500004 336.357 264.92)" fill="#16181D" stroke="#333538" stroke-width="0.75" stroke-linejoin="round"/>
<rect width="55.3998" height="18.0051" transform="matrix(0.866023 0.500004 0 1 288.383 292.621)" fill="#16181D" stroke="#333538" stroke-width="0.75" stroke-linejoin="round"/>
<rect width="55.3998" height="18.0051" transform="matrix(0.866023 -0.500004 0 1 336.357 320.324)" fill="#16181D" stroke="#333538" stroke-width="0.75" stroke-linejoin="round"/>
<rect width="55.3998" height="55.3998" transform="matrix(0.866023 0.500004 -0.866023 0.500004 384.34 292.615)" fill="#16181D" stroke="#333538" stroke-width="0.75" stroke-linejoin="round"/>
<rect width="55.3998" height="18.0051" transform="matrix(0.866023 0.500004 0 1 336.365 320.316)" fill="#16181D" stroke="#333538" stroke-width="0.75" stroke-linejoin="round"/>
<rect width="55.3998" height="18.0051" transform="matrix(0.866023 -0.500004 0 1 384.342 348.018)" fill="#16181D" stroke="#333538" stroke-width="0.75" stroke-linejoin="round"/>
<rect width="55.3998" height="55.3998" transform="matrix(0.866023 0.500004 -0.866023 0.500004 432.324 320.338)" fill="#16181D" stroke="#333538" stroke-width="0.75" stroke-linejoin="round"/>
<rect width="55.3998" height="18.0051" transform="matrix(0.866023 0.500004 0 1 384.348 348.039)" fill="#16181D" stroke="#333538" stroke-width="0.75" stroke-linejoin="round"/>
<rect width="55.3998" height="18.0051" transform="matrix(0.866023 -0.500004 0 1 432.324 375.742)" fill="#16181D" stroke="#333538" stroke-width="0.75" stroke-linejoin="round"/>
<rect width="55.3998" height="55.3998" transform="matrix(0.866023 0.500004 -0.866023 0.500004 288.385 292.615)" fill="#16181D" stroke="#333538" stroke-width="0.75" stroke-linejoin="round"/>
<rect width="55.3998" height="18.0051" transform="matrix(0.866023 0.500004 0 1 240.408 320.316)" fill="#16181D" stroke="#333538" stroke-width="0.75" stroke-linejoin="round"/>
<rect width="55.3998" height="18.0051" transform="matrix(0.866023 -0.500004 0 1 288.385 348.018)" fill="#16181D" stroke="#333538" stroke-width="0.75" stroke-linejoin="round"/>
<rect width="55.3998" height="55.3998" transform="matrix(0.866023 0.500004 -0.866023 0.500004 240.438 320.338)" fill="#16181D" stroke="#333538" stroke-width="0.75" stroke-linejoin="round"/>
<rect width="55.3998" height="18.0051" transform="matrix(0.866023 0.500004 0 1 192.463 348.039)" fill="#16181D" stroke="#333538" stroke-width="0.75" stroke-linejoin="round"/>
<rect width="55.3998" height="18.0051" transform="matrix(0.866023 -0.500004 0 1 240.438 375.742)" fill="#16181D" stroke="#333538" stroke-width="0.75" stroke-linejoin="round"/>
<rect width="55.3998" height="55.3998" transform="matrix(0.866023 0.500004 -0.866023 0.500004 192.43 348.025)" fill="#16181D" stroke="#333538" stroke-width="0.75" stroke-linejoin="round"/>
<rect width="55.3998" height="18.0051" transform="matrix(0.866023 0.500004 0 1 144.455 375.727)" fill="#16181D" stroke="#333538" stroke-width="0.75" stroke-linejoin="round"/>
<rect width="55.3998" height="18.0051" transform="matrix(0.866023 -0.500004 0 1 192.43 403.422)" fill="#16181D" stroke="#333538" stroke-width="0.75" stroke-linejoin="round"/>
<rect width="55.3998" height="55.3998" transform="matrix(0.866023 0.500004 -0.866023 0.500004 528.279 632.117)" fill="#16181D" stroke="#333538" stroke-width="0.75" stroke-linejoin="round"/>
<rect width="55.3998" height="18.0051" transform="matrix(0.866023 0.500004 0 1 480.305 659.818)" fill="#181A1F" stroke="#333538" stroke-width="0.75" stroke-miterlimit="10"/>
<rect width="55.3998" height="18.0051" transform="matrix(0.866023 -0.500004 0 1 528.279 687.52)" fill="#181A1F" stroke="#333538" stroke-width="0.75" stroke-miterlimit="10"/>
<rect width="55.3998" height="55.3998" transform="matrix(0.866023 0.500004 -0.866023 0.500004 528.279 544)" fill="#16181D" stroke="#333538" stroke-width="0.75" stroke-linejoin="round"/>
<rect width="55.3998" height="18.0051" transform="matrix(0.866023 0.500004 0 1 480.305 571.701)" fill="#181A1F" stroke="#333538" stroke-width="0.75" stroke-miterlimit="10"/>
<rect width="55.3998" height="18.0051" transform="matrix(0.866023 -0.500004 0 1 528.279 599.402)" fill="#181A1F" stroke="#333538" stroke-width="0.75" stroke-miterlimit="10"/>
<rect width="55.3998" height="55.3998" transform="matrix(0.866023 0.500004 -0.866023 0.500004 528.279 467.691)" fill="#16181D" stroke="#333538" stroke-width="0.75" stroke-linejoin="round"/>
<rect width="55.3998" height="18.0051" transform="matrix(0.866023 0.500004 0 1 480.305 495.393)" fill="#16181D" stroke="#333538" stroke-width="0.75" stroke-linejoin="round"/>
<rect width="55.3998" height="18.0051" transform="matrix(0.866023 -0.500004 0 1 528.279 523.096)" fill="#16181D" stroke="#333538" stroke-width="0.75" stroke-linejoin="round"/>
<rect width="55.3998" height="55.3998" transform="matrix(0.866023 0.500004 -0.866023 0.500004 336.352 587.398)" fill="#16181D" stroke="#333538" stroke-width="0.75" stroke-linejoin="round"/>
<rect width="55.3998" height="18.0051" transform="matrix(0.866023 0.500004 0 1 288.377 615.1)" fill="#181A1F" stroke="#333538" stroke-width="0.75" stroke-linejoin="round"/>
<rect width="55.3998" height="18.0051" transform="matrix(0.866023 -0.500004 0 1 336.354 642.803)" fill="#181A1F" stroke="#333538" stroke-width="0.75" stroke-linejoin="round"/>
<rect width="55.3998" height="55.3998" transform="matrix(0.866023 0.500004 -0.866023 0.500004 336.352 532.5)" fill="#16181D" stroke="#333538" stroke-width="0.75" stroke-linejoin="round"/>
<rect width="55.3998" height="18.0051" transform="matrix(0.866023 0.500004 0 1 288.377 560.201)" fill="#181A1F" stroke="#333538" stroke-width="0.75" stroke-linejoin="round"/>
<rect width="55.3998" height="18.0051" transform="matrix(0.866023 -0.500004 0 1 336.354 587.904)" fill="#181A1F" stroke="#333538" stroke-width="0.75" stroke-linejoin="round"/>
<rect width="55.3998" height="55.3998" transform="matrix(0.866023 0.500004 -0.866023 0.500004 576.256 291.385)" fill="#16181D" stroke="#333538" stroke-width="0.75" stroke-linejoin="round"/>
<rect width="55.3998" height="18.0051" transform="matrix(0.866023 0.500004 0 1 528.281 319.086)" fill="#16181D" stroke="#333538" stroke-width="0.75" stroke-linejoin="round"/>
<rect width="55.3998" height="18.0051" transform="matrix(0.866023 -0.500004 0 1 576.256 346.789)" fill="#181A1F" stroke="#333538" stroke-width="0.75" stroke-linejoin="round"/>
<rect width="55.3998" height="55.3998" transform="matrix(0.866023 0.500004 -0.866023 0.500004 528.279 319.107)" fill="#16181D" stroke="#333538" stroke-width="0.75" stroke-linejoin="round"/>
<rect width="55.3998" height="18.0051" transform="matrix(0.866023 0.500004 0 1 480.305 346.807)" fill="#16181D" stroke="#333538" stroke-width="0.75" stroke-linejoin="round"/>
<rect width="55.3998" height="18.0051" transform="matrix(0.866023 -0.500004 0 1 528.279 374.51)" fill="#16181D" stroke="#333538" stroke-width="0.75" stroke-linejoin="round"/>
<rect width="55.3998" height="55.3998" transform="matrix(0.866023 0.500004 -0.866023 0.500004 528.277 440.168)" fill="#16181D" stroke="#333538" stroke-width="0.75" stroke-linejoin="round"/>
<rect width="55.3998" height="18.0051" transform="matrix(0.866023 0.500004 0 1 480.303 467.869)" fill="#16181D" stroke="#333538" stroke-width="0.75" stroke-linejoin="round"/>
<rect width="55.3998" height="18.0051" transform="matrix(0.866023 -0.500004 0 1 528.277 495.572)" fill="#16181D" stroke="#333538" stroke-width="0.75" stroke-linejoin="round"/>
<rect width="55.3998" height="55.3998" transform="matrix(0.866023 0.500004 -0.866023 0.500004 480.297 346.803)" fill="#16181D" stroke="#333538" stroke-width="0.75" stroke-linejoin="round"/>
<rect width="55.3998" height="18.0051" transform="matrix(0.866023 0.500004 0 1 432.322 374.504)" fill="#16181D" stroke="#333538" stroke-width="0.75" stroke-linejoin="round"/>
<rect width="55.3998" height="18.0051" transform="matrix(0.866023 -0.500004 0 1 480.297 402.207)" fill="#16181D" stroke="#333538" stroke-width="0.75" stroke-linejoin="round"/>
<rect width="55.3998" height="55.3998" transform="matrix(0.866023 0.500004 -0.866023 0.500004 432.326 374.488)" fill="#16181D" stroke="#333538" stroke-width="0.75" stroke-linejoin="round"/>
<rect width="55.3998" height="18.0051" transform="matrix(0.866023 0.500004 0 1 384.352 402.189)" fill="#16181D" stroke="#333538" stroke-width="0.75" stroke-linejoin="round"/>
<rect width="55.3998" height="18.0051" transform="matrix(0.866023 -0.500004 0 1 432.328 429.889)" fill="#16181D" stroke="#333538" stroke-width="0.75" stroke-linejoin="round"/>
<rect width="55.3998" height="55.3998" transform="matrix(0.866023 0.500004 -0.866023 0.500004 384.352 402.213)" fill="#16181D" stroke="#333538" stroke-width="0.75" stroke-linejoin="round"/>
<rect width="55.3998" height="18.0051" transform="matrix(0.866023 0.500004 0 1 336.377 429.914)" fill="#16181D" stroke="#333538" stroke-width="0.75" stroke-linejoin="round"/>
<rect width="55.3998" height="18.0051" transform="matrix(0.866023 -0.500004 0 1 384.354 457.619)" fill="#16181D" stroke="#333538" stroke-width="0.75" stroke-linejoin="round"/>
<rect width="55.3998" height="55.3998" transform="matrix(0.866023 0.500004 -0.866023 0.500004 336.369 429.906)" fill="#16181D" stroke="#333538" stroke-width="0.75" stroke-linejoin="round"/>
<rect width="55.3998" height="18.0051" transform="matrix(0.866023 0.500004 0 1 288.395 457.607)" fill="#16181D" stroke="#333538" stroke-width="0.75" stroke-linejoin="round"/>
<rect width="55.3998" height="18.0051" transform="matrix(0.866023 -0.500004 0 1 336.371 485.309)" fill="#16181D" stroke="#333538" stroke-width="0.75" stroke-linejoin="round"/>
<rect width="55.3998" height="55.3998" transform="matrix(0.866023 0.500004 -0.866023 0.500004 336.354 503.455)" fill="#16181D" stroke="#333538" stroke-width="0.75" stroke-linejoin="round"/>
<rect width="55.3998" height="18.0051" transform="matrix(0.866023 0.500004 0 1 288.379 531.156)" fill="#16181D" stroke="#333538" stroke-width="0.75" stroke-linejoin="round"/>
<rect width="55.3998" height="18.0051" transform="matrix(0.866023 -0.500004 0 1 336.354 558.857)" fill="#16181D" stroke="#333538" stroke-width="0.75" stroke-linejoin="round"/>
<g clip-path="url(#clip0_3006_319659)">
<rect width="55.3998" height="18.0051" transform="matrix(0.866023 0.500004 0 1 144.561 83.4609)" fill="#16181D" stroke="#333538" stroke-width="0.75" stroke-linejoin="round"/>
<rect width="55.3998" height="18.0051" transform="matrix(0.866023 -0.500004 0 1 192.535 111.162)" fill="#16181D" stroke="#333538" stroke-width="0.75" stroke-linejoin="round"/>
<rect width="55.3998" height="55.3998" transform="matrix(0.866023 0.500004 -0.866023 0.500004 240.523 83.4648)" fill="#16181D" stroke="#333538" stroke-width="0.75" stroke-linejoin="round"/>
<rect width="55.3998" height="18.0051" transform="matrix(0.866023 0.500004 0 1 192.549 111.166)" fill="#16181D" stroke="#333538" stroke-width="0.75" stroke-linejoin="round"/>
<rect width="55.3998" height="18.0051" transform="matrix(0.866023 -0.500004 0 1 240.523 138.869)" fill="#16181D" stroke="#333538" stroke-width="0.75" stroke-linejoin="round"/>
<rect width="55.3998" height="55.3998" transform="matrix(0.866023 0.500004 -0.866023 0.500004 288.506 111.16)" fill="#16181D" stroke="#333538" stroke-width="0.75" stroke-linejoin="round"/>
<rect width="55.3998" height="18.0051" transform="matrix(0.866023 0.500004 0 1 240.531 138.861)" fill="#16181D" stroke="#333538" stroke-width="0.75" stroke-linejoin="round"/>
<rect width="55.3998" height="18.0051" transform="matrix(0.866023 -0.500004 0 1 288.508 166.564)" fill="#16181D" stroke="#333538" stroke-width="0.75" stroke-linejoin="round"/>
<rect width="55.3998" height="55.3998" transform="matrix(0.866023 0.500004 -0.866023 0.500004 144.562 83.4648)" fill="#16181D" stroke="#333538" stroke-width="0.75" stroke-linejoin="round"/>
<rect width="55.3998" height="18.0051" transform="matrix(0.866023 0.500004 0 1 96.5879 111.166)" fill="#16181D" stroke="#333538" stroke-width="0.75" stroke-linejoin="round"/>
<rect width="55.3998" height="18.0051" transform="matrix(0.866023 -0.500004 0 1 144.564 138.869)" fill="#16181D" stroke="#333538" stroke-width="0.75" stroke-linejoin="round"/>
<rect width="55.3998" height="55.3998" transform="matrix(0.866023 0.500004 -0.866023 0.500004 96.5898 111.158)" fill="#16181D" stroke="#333538" stroke-width="0.75" stroke-linejoin="round"/>
<rect width="55.3998" height="18.0051" transform="matrix(0.866023 0.500004 0 1 48.6152 138.859)" fill="#16181D" stroke="#333538" stroke-width="0.75" stroke-linejoin="round"/>
<rect width="55.3998" height="18.0051" transform="matrix(0.866023 -0.500004 0 1 96.5898 166.562)" fill="#16181D" stroke="#333538" stroke-width="0.75" stroke-linejoin="round"/>
<rect width="55.3998" height="55.3998" transform="matrix(0.866023 0.500004 -0.866023 0.500004 48.6094 138.855)" fill="#16181D" stroke="#333538" stroke-width="0.75" stroke-linejoin="round"/>
<rect width="55.3998" height="18.0051" transform="matrix(0.866023 0.500004 0 1 0.634766 166.557)" fill="#16181D" stroke="#333538" stroke-width="0.75" stroke-linejoin="round"/>
<rect width="55.3998" height="18.0051" transform="matrix(0.866023 -0.500004 0 1 48.6113 194.26)" fill="#16181D" stroke="#333538" stroke-width="0.75" stroke-linejoin="round"/>
<path d="M432.518 447.589V156.715" stroke="#333538" stroke-width="0.75" stroke-linejoin="round"/>
<path d="M384.516 454.393V183.645" stroke="#333538" stroke-width="0.75" stroke-linejoin="round"/>
<path d="M336.486 454.383V211.857" stroke="#333538" stroke-width="0.75" stroke-linejoin="round"/>
<path d="M288.512 457.644V239.379" stroke="#333538" stroke-width="0.75" stroke-linejoin="round"/>
<path d="M240.518 321.055V266.883" stroke="#333538" stroke-width="0.75" stroke-linejoin="round"/>
<path d="M192.482 349.248V295.076" stroke="#333538" stroke-width="0.75" stroke-linejoin="round"/>
<rect width="55.3998" height="55.3998" transform="matrix(0.866023 0.500004 -0.866023 0.500004 432.434 83.4609)" fill="#16181D" stroke="#333538" stroke-width="0.75" stroke-linejoin="round"/>
<rect width="55.3998" height="18.0051" transform="matrix(0.866023 0.500004 0 1 384.459 111.162)" fill="#16181D" stroke="#333538" stroke-width="0.75" stroke-linejoin="round"/>
<rect width="55.3998" height="18.0051" transform="matrix(0.866023 -0.500004 0 1 432.436 138.863)" fill="#16181D" stroke="#333538" stroke-width="0.75" stroke-linejoin="round"/>
<rect width="55.3998" height="55.3998" transform="matrix(0.866023 0.500004 -0.866023 0.500004 384.455 111.182)" fill="#16181D" stroke="#333538" stroke-width="0.75" stroke-linejoin="round"/>
<rect width="55.3998" height="18.0051" transform="matrix(0.866023 0.500004 0 1 336.48 138.883)" fill="#16181D" stroke="#333538" stroke-width="0.75" stroke-linejoin="round"/>
<rect width="55.3998" height="18.0051" transform="matrix(0.866023 -0.500004 0 1 384.457 166.586)" fill="#16181D" stroke="#333538" stroke-width="0.75" stroke-linejoin="round"/>
<rect width="55.3998" height="55.3998" transform="matrix(0.866023 0.500004 -0.866023 0.500004 336.477 138.867)" fill="#16181D" stroke="#333538" stroke-width="0.75" stroke-linejoin="round"/>
<rect width="55.3998" height="18.0051" transform="matrix(0.866023 0.500004 0 1 288.502 166.57)" fill="#16181D" stroke="#333538" stroke-width="0.75" stroke-linejoin="round"/>
<rect width="55.3998" height="18.0051" transform="matrix(0.866023 -0.500004 0 1 336.479 194.277)" fill="#16181D" stroke="#333538" stroke-width="0.75" stroke-linejoin="round"/>
<rect width="55.3998" height="55.3998" transform="matrix(0.866023 0.500004 -0.866023 0.500004 288.504 166.576)" fill="#16181D" stroke="#333538" stroke-width="0.75" stroke-linejoin="round"/>
<rect width="55.3998" height="18.0051" transform="matrix(0.866023 0.500004 0 1 240.529 194.277)" fill="#16181D" stroke="#333538" stroke-width="0.75" stroke-linejoin="round"/>
<rect width="55.3998" height="18.0051" transform="matrix(0.866023 -0.500004 0 1 288.506 221.979)" fill="#16181D" stroke="#333538" stroke-width="0.75" stroke-linejoin="round"/>
<rect width="55.3998" height="55.3998" transform="matrix(0.866023 0.500004 -0.866023 0.500004 240.529 194.281)" fill="#16181D" stroke="#333538" stroke-width="0.75" stroke-linejoin="round"/>
<rect width="55.3998" height="18.0051" transform="matrix(0.866023 0.500004 0 1 192.555 221.982)" fill="#16181D" stroke="#333538" stroke-width="0.75" stroke-linejoin="round"/>
<rect width="55.3998" height="18.0051" transform="matrix(0.866023 -0.500004 0 1 240.531 249.686)" fill="#16181D" stroke="#333538" stroke-width="0.75" stroke-linejoin="round"/>
<rect width="55.3998" height="55.3998" transform="matrix(0.866023 0.500004 -0.866023 0.500004 192.549 221.979)" fill="#16181D" stroke="#333538" stroke-width="0.75" stroke-linejoin="round"/>
<rect width="55.3998" height="18.0051" transform="matrix(0.866023 0.500004 0 1 144.572 249.68)" fill="#16181D" stroke="#333538" stroke-width="0.75" stroke-linejoin="round"/>
<rect width="55.3998" height="18.0051" transform="matrix(0.866023 -0.500004 0 1 192.551 277.381)" fill="#16181D" stroke="#333538" stroke-width="0.75" stroke-linejoin="round"/>
<rect width="55.3998" height="55.3998" transform="matrix(0.866023 0.500004 -0.866023 0.500004 432.449 209.314)" fill="#16181D" stroke="#333538" stroke-width="0.75" stroke-linejoin="round"/>
<rect width="55.3998" height="18.0051" transform="matrix(0.866023 0.500004 0 1 384.475 237.016)" fill="#16181D" stroke="#333538" stroke-width="0.75" stroke-linejoin="round"/>
<rect width="55.3998" height="18.0051" transform="matrix(0.866023 -0.500004 0 1 432.451 264.717)" fill="#16181D" stroke="#333538" stroke-width="0.75" stroke-linejoin="round"/>
<rect width="55.3998" height="55.3998" transform="matrix(0.866023 0.500004 -0.866023 0.500004 384.469 237.043)" fill="#16181D" stroke="#333538" stroke-width="0.75" stroke-linejoin="round"/>
<rect width="55.3998" height="18.0051" transform="matrix(0.866023 0.500004 0 1 336.494 264.744)" fill="#16181D" stroke="#333538" stroke-width="0.75" stroke-linejoin="round"/>
<rect width="55.3998" height="18.0051" transform="matrix(0.866023 -0.500004 0 1 384.471 292.445)" fill="#16181D" stroke="#333538" stroke-width="0.75" stroke-linejoin="round"/>
<rect width="55.3998" height="55.3998" transform="matrix(0.866023 0.500004 -0.866023 0.500004 336.49 264.734)" fill="#16181D" stroke="#333538" stroke-width="0.75" stroke-linejoin="round"/>
<rect width="55.3998" height="18.0051" transform="matrix(0.866023 0.500004 0 1 288.514 292.436)" fill="#16181D" stroke="#333538" stroke-width="0.75" stroke-linejoin="round"/>
<rect width="55.3998" height="18.0051" transform="matrix(0.866023 -0.500004 0 1 336.49 320.139)" fill="#16181D" stroke="#333538" stroke-width="0.75" stroke-linejoin="round"/>
<rect width="55.3998" height="55.3998" transform="matrix(0.866023 0.500004 -0.866023 0.500004 384.473 292.43)" fill="#16181D" stroke="#333538" stroke-width="0.75" stroke-linejoin="round"/>
<rect width="55.3998" height="18.0051" transform="matrix(0.866023 0.500004 0 1 336.498 320.131)" fill="#16181D" stroke="#333538" stroke-width="0.75" stroke-linejoin="round"/>
<rect width="55.3998" height="18.0051" transform="matrix(0.866023 -0.500004 0 1 384.475 347.832)" fill="#16181D" stroke="#333538" stroke-width="0.75" stroke-linejoin="round"/>
<rect width="55.3998" height="55.3998" transform="matrix(0.866023 0.500004 -0.866023 0.500004 432.455 320.152)" fill="#16181D" stroke="#333538" stroke-width="0.75" stroke-linejoin="round"/>
<rect width="55.3998" height="18.0051" transform="matrix(0.866023 0.500004 0 1 384.48 347.854)" fill="#16181D" stroke="#333538" stroke-width="0.75" stroke-linejoin="round"/>
<rect width="55.3998" height="18.0051" transform="matrix(0.866023 -0.500004 0 1 432.457 375.557)" fill="#16181D" stroke="#333538" stroke-width="0.75" stroke-linejoin="round"/>
<rect width="55.3998" height="55.3998" transform="matrix(0.866023 0.500004 -0.866023 0.500004 288.518 292.43)" fill="#16181D" stroke="#333538" stroke-width="0.75" stroke-linejoin="round"/>
<rect width="55.3998" height="18.0051" transform="matrix(0.866023 0.500004 0 1 240.543 320.131)" fill="#16181D" stroke="#333538" stroke-width="0.75" stroke-linejoin="round"/>
<rect width="55.3998" height="18.0051" transform="matrix(0.866023 -0.500004 0 1 288.52 347.832)" fill="#16181D" stroke="#333538" stroke-width="0.75" stroke-linejoin="round"/>
<rect width="55.3998" height="55.3998" transform="matrix(0.866023 0.500004 -0.866023 0.500004 240.57 320.152)" fill="#16181D" stroke="#333538" stroke-width="0.75" stroke-linejoin="round"/>
<rect width="55.3998" height="18.0051" transform="matrix(0.866023 0.500004 0 1 192.596 347.854)" fill="#16181D" stroke="#333538" stroke-width="0.75" stroke-linejoin="round"/>
<rect width="55.3998" height="18.0051" transform="matrix(0.866023 -0.500004 0 1 240.57 375.557)" fill="#16181D" stroke="#333538" stroke-width="0.75" stroke-linejoin="round"/>
<rect width="55.3998" height="55.3998" transform="matrix(0.866023 0.500004 -0.866023 0.500004 192.562 347.84)" fill="#16181D" stroke="#333538" stroke-width="0.75" stroke-linejoin="round"/>
<rect width="55.3998" height="18.0051" transform="matrix(0.866023 0.500004 0 1 144.588 375.541)" fill="#16181D" stroke="#333538" stroke-width="0.75" stroke-linejoin="round"/>
<rect width="55.3998" height="18.0051" transform="matrix(0.866023 -0.500004 0 1 192.562 403.236)" fill="#16181D" stroke="#333538" stroke-width="0.75" stroke-linejoin="round"/>
<rect width="55.3998" height="55.3998" transform="matrix(0.866023 0.500004 -0.866023 0.500004 528.412 467.506)" fill="#16181D" stroke="#333538" stroke-width="0.75" stroke-linejoin="round"/>
<rect width="55.3998" height="18.0051" transform="matrix(0.866023 0.500004 0 1 480.438 495.207)" fill="#16181D" stroke="#333538" stroke-width="0.75" stroke-linejoin="round"/>
<rect width="55.3998" height="18.0051" transform="matrix(0.866023 -0.500004 0 1 528.412 522.91)" fill="#16181D" stroke="#333538" stroke-width="0.75" stroke-linejoin="round"/>
<rect width="55.3998" height="55.3998" transform="matrix(0.866023 0.500004 -0.866023 0.500004 528.41 543.859)" fill="#16181D" stroke="#333538" stroke-width="0.75" stroke-linejoin="round"/>
<rect width="55.3998" height="18.0051" transform="matrix(0.866023 0.500004 0 1 480.436 571.561)" fill="#16181D" stroke="#333538" stroke-width="0.75" stroke-linejoin="round"/>
<rect width="55.3998" height="18.0051" transform="matrix(0.866023 -0.500004 0 1 528.41 599.264)" fill="#16181D" stroke="#333538" stroke-width="0.75" stroke-linejoin="round"/>
<rect width="55.3998" height="55.3998" transform="matrix(0.866023 0.500004 -0.866023 0.500004 336.484 587.213)" fill="#16181D" stroke="#333538" stroke-width="0.75" stroke-linejoin="round"/>
<rect width="55.3998" height="55.3998" transform="matrix(0.866023 0.500004 -0.866023 0.500004 576.389 291.199)" fill="#16181D" stroke="#333538" stroke-width="0.75" stroke-linejoin="round"/>
<rect width="55.3998" height="18.0051" transform="matrix(0.866023 0.500004 0 1 528.412 318.9)" fill="#16181D" stroke="#333538" stroke-width="0.75" stroke-linejoin="round"/>
<rect width="55.3998" height="18.0051" transform="matrix(0.866023 -0.500004 0 1 576.389 346.604)" fill="#16181D" stroke="#333538" stroke-width="0.75" stroke-linejoin="round"/>
<rect width="55.3998" height="55.3998" transform="matrix(0.866023 0.500004 -0.866023 0.500004 528.412 318.922)" fill="#16181D" stroke="#333538" stroke-width="0.75" stroke-linejoin="round"/>
<rect width="55.3998" height="18.0051" transform="matrix(0.866023 0.500004 0 1 480.438 346.621)" fill="#16181D" stroke="#333538" stroke-width="0.75" stroke-linejoin="round"/>
<rect width="55.3998" height="18.0051" transform="matrix(0.866023 -0.500004 0 1 528.412 374.324)" fill="#16181D" stroke="#333538" stroke-width="0.75" stroke-linejoin="round"/>
<rect width="55.3998" height="55.3998" transform="matrix(0.866023 0.500004 -0.866023 0.500004 528.41 439.982)" fill="#16181D" stroke="#333538" stroke-width="0.75" stroke-linejoin="round"/>
<rect width="55.3998" height="18.0051" transform="matrix(0.866023 0.500004 0 1 480.436 467.684)" fill="#16181D" stroke="#333538" stroke-width="0.75" stroke-linejoin="round"/>
<rect width="55.3998" height="18.0051" transform="matrix(0.866023 -0.500004 0 1 528.41 495.387)" fill="#16181D" stroke="#333538" stroke-width="0.75" stroke-linejoin="round"/>
<rect width="55.3998" height="55.3998" transform="matrix(0.866023 0.500004 -0.866023 0.500004 480.43 346.617)" fill="#16181D" stroke="#333538" stroke-width="0.75" stroke-linejoin="round"/>
<rect width="55.3998" height="18.0051" transform="matrix(0.866023 0.500004 0 1 432.455 374.318)" fill="#16181D" stroke="#333538" stroke-width="0.75" stroke-linejoin="round"/>
<rect width="55.3998" height="18.0051" transform="matrix(0.866023 -0.500004 0 1 480.43 402.021)" fill="#16181D" stroke="#333538" stroke-width="0.75" stroke-linejoin="round"/>
<rect width="55.3998" height="55.3998" transform="matrix(0.866023 0.500004 -0.866023 0.500004 432.457 374.303)" fill="#16181D" stroke="#333538" stroke-width="0.75" stroke-linejoin="round"/>
<rect width="55.3998" height="18.0051" transform="matrix(0.866023 0.500004 0 1 384.482 402.004)" fill="#16181D" stroke="#333538" stroke-width="0.75" stroke-linejoin="round"/>
<rect width="55.3998" height="18.0051" transform="matrix(0.866023 -0.500004 0 1 432.459 429.703)" fill="#16181D" stroke="#333538" stroke-width="0.75" stroke-linejoin="round"/>
<rect width="55.3998" height="55.3998" transform="matrix(0.866023 0.500004 -0.866023 0.500004 384.482 402.027)" fill="#16181D" stroke="#333538" stroke-width="0.75" stroke-linejoin="round"/>
<rect width="55.3998" height="18.0051" transform="matrix(0.866023 0.500004 0 1 336.508 429.729)" fill="#16181D" stroke="#333538" stroke-width="0.75" stroke-linejoin="round"/>
<rect width="55.3998" height="18.0051" transform="matrix(0.866023 -0.500004 0 1 384.484 457.434)" fill="#16181D" stroke="#333538" stroke-width="0.75" stroke-linejoin="round"/>
<rect width="55.3998" height="55.3998" transform="matrix(0.866023 0.500004 -0.866023 0.500004 336.5 429.721)" fill="#16181D" stroke="#333538" stroke-width="0.75" stroke-linejoin="round"/>
<rect width="55.3998" height="18.0051" transform="matrix(0.866023 0.500004 0 1 288.525 457.422)" fill="#16181D" stroke="#333538" stroke-width="0.75" stroke-linejoin="round"/>
<rect width="55.3998" height="18.0051" transform="matrix(0.866023 -0.500004 0 1 336.502 485.123)" fill="#16181D" stroke="#333538" stroke-width="0.75" stroke-linejoin="round"/>
<rect width="55.3998" height="55.3998" transform="matrix(0.866023 0.500004 -0.866023 0.500004 336.484 532.156)" fill="#16181D" stroke="#333538" stroke-width="0.75" stroke-linejoin="round"/>
<rect width="55.3998" height="18.0051" transform="matrix(0.866023 0.500004 0 1 288.51 559.857)" fill="#16181D" stroke="#333538" stroke-width="0.75" stroke-linejoin="round"/>
<rect width="55.3998" height="18.0051" transform="matrix(0.866023 -0.500004 0 1 336.484 587.559)" fill="#16181D" stroke="#333538" stroke-width="0.75" stroke-linejoin="round"/>
<rect width="55.3998" height="55.3998" transform="matrix(0.866023 0.500004 -0.866023 0.500004 336.484 503.27)" fill="#16181D" stroke="#333538" stroke-width="0.75" stroke-linejoin="round"/>
<rect width="55.3998" height="18.0051" transform="matrix(0.866023 0.500004 0 1 288.51 530.971)" fill="#16181D" stroke="#333538" stroke-width="0.75" stroke-linejoin="round"/>
<rect width="55.3998" height="18.0051" transform="matrix(0.866023 -0.500004 0 1 336.484 558.672)" fill="#16181D" stroke="#333538" stroke-width="0.75" stroke-linejoin="round"/>
</g>
<defs>
<clipPath id="clip0_3006_319659">
<rect width="528" height="480" fill="white" transform="translate(48.5 113)"/>
</clipPath>
</defs>
</svg>
