<svg width="650" height="1326" viewBox="0 0 650 1326" fill="none" xmlns="http://www.w3.org/2000/svg">
<path d="M600.884 1117.38H576.551V1141.36H600.884V1117.38Z" stroke="#F2F2F2" stroke-width="0.75" stroke-miterlimit="10"/>
<path d="M600.884 1093.4H576.551V1117.38H600.884V1093.4Z" stroke="#F2F2F2" stroke-width="0.75" stroke-miterlimit="10"/>
<path d="M600.884 1069.42H576.551V1093.4H600.884V1069.42Z" stroke="#F2F2F2" stroke-width="0.75" stroke-miterlimit="10"/>
<path d="M625.216 1069.42H600.883V1093.4H625.216V1069.42Z" stroke="#F2F2F2" stroke-width="0.75" stroke-miterlimit="10"/>
<path d="M600.884 1021.46H576.551V1045.44H600.884V1021.46Z" fill="white" stroke="#F2F2F2" stroke-width="0.75" stroke-miterlimit="10"/>
<path d="M625.216 1021.46H600.883V1045.44H625.216V1021.46Z" stroke="#F2F2F2" stroke-width="0.75" stroke-miterlimit="10"/>
<path d="M649.552 1021.46H625.219V1045.44H649.552V1021.46Z" stroke="#F2F2F2" stroke-width="0.75" stroke-miterlimit="10"/>
<path d="M600.884 973.492H576.551V997.473H600.884V973.492Z" stroke="#F2F2F2" stroke-width="0.75" stroke-miterlimit="10"/>
<path d="M625.216 973.492H600.883V997.473H625.216V973.492Z" stroke="#F2F2F2" stroke-width="0.75" stroke-miterlimit="10"/>
<path d="M600.884 877.568H576.551V901.55H600.884V877.568Z" stroke="#F2F2F2" stroke-width="0.75" stroke-miterlimit="10"/>
<path d="M625.216 877.568H600.883V901.55H625.216V877.568Z" fill="#F2F2F2" stroke="#B6B6B7" stroke-width="0.75" stroke-linejoin="round"/>
<path d="M649.552 877.568H625.219V901.55H649.552V877.568Z" fill="#F2F2F2" stroke="#B6B6B7" stroke-width="0.75" stroke-linejoin="round"/>
<path d="M600.884 853.588H576.551V877.569H600.884V853.588Z" stroke="#F2F2F2" stroke-width="0.75" stroke-miterlimit="10"/>
<path d="M625.216 853.588H600.883V877.569H625.216V853.588Z" fill="#F2F2F2" stroke="#B6B6B7" stroke-width="0.75" stroke-linejoin="round"/>
<rect width="55.379" height="55.379" transform="matrix(0.866719 0.498796 -0.866719 0.498796 288.625 620.285)" fill="#FBFBFB" stroke="#B6B6B7" stroke-width="0.752692" stroke-linejoin="round"/>
<rect width="55.379" height="17.9548" transform="matrix(0.866719 0.498796 0 1 240.629 647.91)" fill="#FBFBFB" stroke="#B6B6B7" stroke-width="0.752691" stroke-linejoin="round"/>
<rect width="55.379" height="17.9548" transform="matrix(0.866719 -0.498796 0 1 288.627 675.535)" fill="#F2F2F2" stroke="#B6B6B7" stroke-width="0.752691" stroke-linejoin="round"/>
<rect width="55.379" height="55.379" transform="matrix(0.866719 0.498796 -0.866719 0.498796 240.623 647.947)" fill="#FBFBFB" stroke="#B6B6B7" stroke-width="0.752692" stroke-linejoin="round"/>
<rect width="55.379" height="17.9548" transform="matrix(0.866849 0.498571 0 1 192.627 675.572)" fill="#FBFBFB" stroke="#B6B6B7" stroke-width="0.752691" stroke-linejoin="round"/>
<rect width="55.379" height="17.9548" transform="matrix(0.866719 -0.498796 0 1 240.623 703.197)" fill="#F2F2F2" stroke="#B6B6B7" stroke-width="0.752691" stroke-linejoin="round"/>
<rect width="55.379" height="55.379" transform="matrix(0.866719 0.498796 -0.866719 0.498796 192.617 675.553)" fill="#FBFBFB" stroke="#B6B6B7" stroke-width="0.752692" stroke-linejoin="round"/>
<rect width="55.379" height="17.9548" transform="matrix(0.866719 0.498796 0 1 144.621 703.178)" fill="#FBFBFB" stroke="#B6B6B7" stroke-width="0.752691" stroke-linejoin="round"/>
<rect width="55.379" height="17.9548" transform="matrix(0.866719 -0.498796 0 1 192.617 730.801)" fill="#FBFBFB" stroke="#B6B6B7" stroke-width="0.752691" stroke-linejoin="round"/>
<rect width="55.379" height="55.379" transform="matrix(0.866719 0.498796 -0.866719 0.498796 240.629 703.178)" fill="#FBFBFB" stroke="#B6B6B7" stroke-width="0.752692" stroke-linejoin="round"/>
<rect width="55.379" height="17.9548" transform="matrix(0.866849 0.498571 0 1 192.633 730.803)" fill="white" stroke="#B6B6B7" stroke-width="0.752691" stroke-linejoin="round"/>
<rect width="55.379" height="17.9548" transform="matrix(0.866719 -0.498796 0 1 240.629 758.428)" fill="#FBFBFB" stroke="#B6B6B7" stroke-width="0.752691" stroke-linejoin="round"/>
<rect width="55.379" height="55.379" transform="matrix(0.866719 0.498796 -0.866719 0.498796 288.633 730.795)" fill="#FBFBFB" stroke="#B6B6B7" stroke-width="0.752692" stroke-linejoin="round"/>
<rect width="55.379" height="17.9548" transform="matrix(0.866719 0.498796 0 1 240.637 758.42)" fill="white" stroke="#B6B6B7" stroke-width="0.752691" stroke-linejoin="round"/>
<rect width="55.379" height="17.9548" transform="matrix(0.866719 -0.498796 0 1 288.635 786.045)" fill="#FBFBFB" stroke="#B6B6B7" stroke-width="0.752691" stroke-linejoin="round"/>
<rect width="55.379" height="55.379" transform="matrix(0.866719 0.498796 -0.866719 0.498796 144.625 703.178)" fill="#FBFBFB" stroke="#B6B6B7" stroke-width="0.752692" stroke-linejoin="round"/>
<rect width="55.379" height="17.9548" transform="matrix(0.866719 0.498796 0 1 96.6289 730.803)" fill="#FBFBFB" stroke="#B6B6B7" stroke-width="0.752691" stroke-linejoin="round"/>
<rect width="55.379" height="17.9548" transform="matrix(0.866719 -0.498796 0 1 144.627 758.428)" fill="white" stroke="#B6B6B7" stroke-width="0.752691" stroke-linejoin="round"/>
<rect width="55.379" height="55.379" transform="matrix(0.866719 0.498796 -0.866719 0.498796 96.6328 730.793)" fill="#FBFBFB" stroke="#B6B6B7" stroke-width="0.752692" stroke-linejoin="round"/>
<rect width="55.379" height="17.9548" transform="matrix(0.866592 0.499017 0 1 48.6367 758.418)" fill="#FBFBFB" stroke="#B6B6B7" stroke-width="0.752691" stroke-linejoin="round"/>
<rect width="55.379" height="17.9548" transform="matrix(0.866719 -0.498796 0 1 96.6328 786.043)" fill="white" stroke="#B6B6B7" stroke-width="0.752691" stroke-linejoin="round"/>
<rect width="55.379" height="55.379" transform="matrix(0.866719 0.498796 -0.866719 0.498796 48.6309 758.416)" fill="#FBFBFB" stroke="#B6B6B7" stroke-width="0.752692" stroke-linejoin="round"/>
<rect width="55.379" height="17.9548" transform="matrix(0.866719 0.498796 0 1 0.634766 786.041)" fill="#F2F2F2" stroke="#B6B6B7" stroke-width="0.752691" stroke-linejoin="round"/>
<rect width="55.379" height="17.9548" transform="matrix(0.866719 -0.498796 0 1 48.6309 813.666)" fill="white" stroke="#B6B6B7" stroke-width="0.752691" stroke-linejoin="round"/>
<path d="M432.518 1067V776.498" stroke="#D2D3D5" stroke-width="0.752692" stroke-linejoin="round"/>
<path d="M384.516 1073.8V803.395" stroke="#D2D3D5" stroke-width="0.752692" stroke-linejoin="round"/>
<path d="M336.486 1073.79V831.57" stroke="#D2D3D5" stroke-width="0.752692" stroke-linejoin="round"/>
<path d="M288.512 1077.05V859.057" stroke="#D2D3D5" stroke-width="0.752692" stroke-linejoin="round"/>
<path d="M240.518 940.626V886.523" stroke="#D2D3D5" stroke-width="0.752692" stroke-linejoin="round"/>
<path d="M192.482 968.787V914.684" stroke="#D2D3D5" stroke-width="0.752692" stroke-linejoin="round"/>
<rect width="55.3823" height="55.3823" transform="matrix(0.866298 0.499528 -0.866298 0.499528 432.434 703.34)" fill="#FBFBFB" stroke="#B6B6B7" stroke-width="0.752692" stroke-linejoin="round"/>
<rect width="55.3823" height="17.9822" transform="matrix(0.866298 0.499528 0 1 384.459 731.006)" fill="#FBFBFB" stroke="#B6B6B7" stroke-width="0.752691" stroke-linejoin="round"/>
<rect width="55.3823" height="17.9822" transform="matrix(0.866298 -0.499528 0 1 432.436 758.67)" fill="white" stroke="#B6B6B7" stroke-width="0.752691" stroke-linejoin="round"/>
<rect width="55.3823" height="55.3823" transform="matrix(0.866298 0.499528 -0.866298 0.499528 384.455 731.027)" fill="#FBFBFB" stroke="#B6B6B7" stroke-width="0.752692" stroke-linejoin="round"/>
<rect width="55.3823" height="17.9822" transform="matrix(0.866298 0.499528 0 1 336.48 758.693)" fill="#FBFBFB" stroke="#B6B6B7" stroke-width="0.752691" stroke-linejoin="round"/>
<rect width="55.3823" height="17.9822" transform="matrix(0.866298 -0.499528 0 1 384.457 786.361)" fill="white" stroke="#B6B6B7" stroke-width="0.752691" stroke-linejoin="round"/>
<rect width="55.3823" height="55.3823" transform="matrix(0.866298 0.499528 -0.866298 0.499528 336.477 758.676)" fill="#FBFBFB" stroke="#B6B6B7" stroke-width="0.752692" stroke-linejoin="round"/>
<rect width="55.3823" height="17.9822" transform="matrix(0.866298 0.499528 0 1 288.502 786.344)" fill="#FBFBFB" stroke="#B6B6B7" stroke-width="0.752691" stroke-linejoin="round"/>
<rect width="55.3823" height="17.9822" transform="matrix(0.866298 -0.499528 0 1 336.479 814.016)" fill="white" stroke="#B6B6B7" stroke-width="0.752691" stroke-linejoin="round"/>
<rect width="55.3823" height="55.3823" transform="matrix(0.866298 0.499528 -0.866298 0.499528 288.504 786.35)" fill="#FBFBFB" stroke="#B6B6B7" stroke-width="0.752692" stroke-linejoin="round"/>
<rect width="55.3823" height="17.9822" transform="matrix(0.866298 0.499528 0 1 240.529 814.016)" fill="#FBFBFB" stroke="#B6B6B7" stroke-width="0.752691" stroke-linejoin="round"/>
<rect width="55.3823" height="17.9822" transform="matrix(0.866298 -0.499528 0 1 288.506 841.68)" fill="white" stroke="#B6B6B7" stroke-width="0.752691" stroke-linejoin="round"/>
<rect width="55.3823" height="55.3823" transform="matrix(0.866298 0.499528 -0.866298 0.499528 240.529 814.021)" fill="#FBFBFB" stroke="#B6B6B7" stroke-width="0.752692" stroke-linejoin="round"/>
<rect width="55.3823" height="17.9822" transform="matrix(0.866298 0.499528 0 1 192.555 841.688)" fill="#FBFBFB" stroke="#B6B6B7" stroke-width="0.752691" stroke-linejoin="round"/>
<rect width="55.3823" height="17.9822" transform="matrix(0.866298 -0.499528 0 1 240.531 869.355)" fill="white" stroke="#B6B6B7" stroke-width="0.752691" stroke-linejoin="round"/>
<rect width="55.3823" height="55.3823" transform="matrix(0.866298 0.499528 -0.866298 0.499528 192.549 841.684)" fill="#FBFBFB" stroke="#B6B6B7" stroke-width="0.752692" stroke-linejoin="round"/>
<rect width="55.3823" height="17.9822" transform="matrix(0.866298 0.499528 0 1 144.574 869.35)" fill="#FBFBFB" stroke="#B6B6B7" stroke-width="0.752691" stroke-linejoin="round"/>
<rect width="55.3823" height="17.9822" transform="matrix(0.866298 -0.499528 0 1 192.551 897.014)" fill="white" stroke="#B6B6B7" stroke-width="0.752691" stroke-linejoin="round"/>
<rect width="55.389" height="55.389" transform="matrix(0.866193 0.49971 -0.866193 0.49971 432.449 829.096)" fill="#FBFBFB" stroke="#B6B6B7" stroke-width="0.752692" stroke-linejoin="round"/>
<rect width="55.389" height="17.991" transform="matrix(0.866193 0.49971 0 1 384.475 856.775)" fill="#FBFBFB" stroke="#B6B6B7" stroke-width="0.752691" stroke-linejoin="round"/>
<rect width="55.389" height="17.991" transform="matrix(0.866193 -0.49971 0 1 432.451 884.453)" fill="white" stroke="#B6B6B7" stroke-width="0.752691" stroke-linejoin="round"/>
<rect width="55.389" height="55.389" transform="matrix(0.866193 0.49971 -0.866193 0.49971 384.469 856.803)" fill="#FBFBFB" stroke="#B6B6B7" stroke-width="0.752692" stroke-linejoin="round"/>
<rect width="55.389" height="17.991" transform="matrix(0.866193 0.49971 0 1 336.494 884.482)" fill="#FBFBFB" stroke="#B6B6B7" stroke-width="0.752691" stroke-linejoin="round"/>
<rect width="55.389" height="17.991" transform="matrix(0.866193 -0.49971 0 1 384.471 912.16)" fill="white" stroke="#B6B6B7" stroke-width="0.752691" stroke-linejoin="round"/>
<rect width="55.389" height="55.389" transform="matrix(0.866193 0.49971 -0.866193 0.49971 336.49 884.473)" fill="#FBFBFB" stroke="#B6B6B7" stroke-width="0.752692" stroke-linejoin="round"/>
<rect width="55.389" height="17.991" transform="matrix(0.866193 0.49971 0 1 288.516 912.152)" fill="#FBFBFB" stroke="#B6B6B7" stroke-width="0.752691" stroke-linejoin="round"/>
<rect width="55.389" height="17.991" transform="matrix(0.866193 -0.49971 0 1 336.49 939.832)" fill="#FBFBFB" stroke="#B6B6B7" stroke-width="0.752691" stroke-linejoin="round"/>
<rect width="55.389" height="55.389" transform="matrix(0.866193 0.49971 -0.866193 0.49971 384.475 912.145)" fill="#FBFBFB" stroke="#B6B6B7" stroke-width="0.752692" stroke-linejoin="round"/>
<rect width="55.389" height="17.991" transform="matrix(0.866193 0.49971 0 1 336.5 939.824)" fill="white" stroke="#B6B6B7" stroke-width="0.752691" stroke-linejoin="round"/>
<rect width="55.389" height="17.991" transform="matrix(0.866193 -0.49971 0 1 384.477 967.502)" fill="#FBFBFB" stroke="#B6B6B7" stroke-width="0.752691" stroke-linejoin="round"/>
<rect width="55.389" height="55.389" transform="matrix(0.866193 0.49971 -0.866193 0.49971 432.457 939.846)" fill="#FBFBFB" stroke="#B6B6B7" stroke-width="0.752692" stroke-linejoin="round"/>
<rect width="55.389" height="17.991" transform="matrix(0.866193 0.49971 0 1 384.48 967.525)" fill="white" stroke="#B6B6B7" stroke-width="0.752691" stroke-linejoin="round"/>
<rect width="55.389" height="17.991" transform="matrix(0.866193 -0.49971 0 1 432.457 995.205)" fill="#FBFBFB" stroke="#B6B6B7" stroke-width="0.752691" stroke-linejoin="round"/>
<rect width="55.389" height="55.389" transform="matrix(0.866193 0.49971 -0.866193 0.49971 288.52 912.145)" fill="#FBFBFB" stroke="#B6B6B7" stroke-width="0.752692" stroke-linejoin="round"/>
<rect width="55.389" height="17.991" transform="matrix(0.866193 0.49971 0 1 240.543 939.824)" fill="#FBFBFB" stroke="#B6B6B7" stroke-width="0.752691" stroke-linejoin="round"/>
<rect width="55.389" height="17.991" transform="matrix(0.866193 -0.49971 0 1 288.52 967.502)" fill="white" stroke="#B6B6B7" stroke-width="0.752691" stroke-linejoin="round"/>
<rect width="55.389" height="55.389" transform="matrix(0.866193 0.49971 -0.866193 0.49971 240.57 939.846)" fill="#FBFBFB" stroke="#B6B6B7" stroke-width="0.752692" stroke-linejoin="round"/>
<rect width="55.389" height="17.991" transform="matrix(0.866193 0.49971 0 1 192.596 967.525)" fill="#FBFBFB" stroke="#B6B6B7" stroke-width="0.752691" stroke-linejoin="round"/>
<rect width="55.389" height="17.991" transform="matrix(0.866193 -0.49971 0 1 240.57 995.205)" fill="white" stroke="#B6B6B7" stroke-width="0.752691" stroke-linejoin="round"/>
<rect width="55.389" height="55.389" transform="matrix(0.866193 0.49971 -0.866193 0.49971 192.562 967.512)" fill="#FBFBFB" stroke="#B6B6B7" stroke-width="0.752692" stroke-linejoin="round"/>
<rect width="55.389" height="17.991" transform="matrix(0.866193 0.49971 0 1 144.588 995.191)" fill="white" stroke="#B6B6B7" stroke-width="0.752691" stroke-linejoin="round"/>
<rect width="55.389" height="17.991" transform="matrix(0.866193 -0.49971 0 1 192.562 1022.87)" fill="white" stroke="#B6B6B7" stroke-width="0.752691" stroke-linejoin="round"/>
<rect width="55.389" height="55.389" transform="matrix(0.866193 0.49971 -0.866193 0.49971 528.414 1251.38)" fill="white" stroke="#B6B6B7" stroke-width="0.752692" stroke-linejoin="round"/>
<rect width="55.389" height="17.991" transform="matrix(0.866193 0.49971 0 1 480.439 1279.06)" fill="#F2F2F2" stroke="#B6B6B7" stroke-width="0.752691" stroke-linejoin="round"/>
<rect width="55.389" height="17.991" transform="matrix(0.866193 -0.49971 0 1 528.414 1306.74)" fill="#F2F2F2" stroke="#B6B6B7" stroke-width="0.752691" stroke-linejoin="round"/>
<rect width="55.389" height="55.389" transform="matrix(0.866193 0.49971 -0.866193 0.49971 528.414 1087.08)" fill="#FBFBFB" stroke="#B6B6B7" stroke-width="0.752692" stroke-linejoin="round"/>
<rect width="55.389" height="17.991" transform="matrix(0.866193 0.49971 0 1 480.439 1114.76)" fill="#FBFBFB" stroke="#B6B6B7" stroke-width="0.752691" stroke-linejoin="round"/>
<rect width="55.389" height="17.991" transform="matrix(0.866193 -0.49971 0 1 528.414 1142.44)" fill="white" stroke="#B6B6B7" stroke-width="0.752691" stroke-linejoin="round"/>
<rect width="55.389" height="55.389" transform="matrix(0.866193 0.49971 -0.866193 0.49971 528.412 1163.38)" fill="white" stroke="#B6B6B7" stroke-width="0.752692" stroke-linejoin="round"/>
<rect width="55.389" height="17.991" transform="matrix(0.866193 0.49971 0 1 480.438 1191.06)" fill="#FBFBFB" stroke="#B6B6B7" stroke-width="0.752691" stroke-linejoin="round"/>
<rect width="55.389" height="17.991" transform="matrix(0.866193 -0.49971 0 1 528.412 1218.74)" fill="white" stroke="#B6B6B7" stroke-width="0.752691" stroke-linejoin="round"/>
<rect width="55.389" height="55.389" transform="matrix(0.866193 0.49971 -0.866193 0.49971 336.486 1206.7)" fill="white" stroke="#B6B6B7" stroke-width="0.752692" stroke-linejoin="round"/>
<rect width="55.389" height="17.991" transform="matrix(0.866193 0.49971 0 1 288.512 1234.38)" fill="#F2F2F2" stroke="#B6B6B7" stroke-width="0.752691" stroke-linejoin="round"/>
<rect width="55.389" height="17.991" transform="matrix(0.866193 -0.49971 0 1 336.488 1262.06)" fill="#F2F2F2" stroke="#B6B6B7" stroke-width="0.752691" stroke-linejoin="round"/>
<rect width="55.389" height="55.389" transform="matrix(0.866193 0.49971 -0.866193 0.49971 576.391 910.918)" fill="#FBFBFB" stroke="#B6B6B7" stroke-width="0.752692" stroke-linejoin="round"/>
<rect width="55.389" height="17.991" transform="matrix(0.866193 0.49971 0 1 528.414 938.598)" fill="#FBFBFB" stroke="#B6B6B7" stroke-width="0.752691" stroke-linejoin="round"/>
<rect width="55.389" height="17.991" transform="matrix(0.866193 -0.49971 0 1 576.391 966.277)" fill="#F2F2F2" stroke="#B6B6B7" stroke-width="0.752691" stroke-linejoin="round"/>
<rect width="55.389" height="55.389" transform="matrix(0.866193 0.49971 -0.866193 0.49971 528.414 938.619)" fill="#FBFBFB" stroke="#B6B6B7" stroke-width="0.752692" stroke-linejoin="round"/>
<rect width="55.389" height="17.991" transform="matrix(0.866193 0.49971 0 1 480.439 966.297)" fill="#FBFBFB" stroke="#B6B6B7" stroke-width="0.752691" stroke-linejoin="round"/>
<rect width="55.389" height="17.991" transform="matrix(0.866193 -0.49971 0 1 528.414 993.977)" fill="white" stroke="#B6B6B7" stroke-width="0.752691" stroke-linejoin="round"/>
<rect width="55.389" height="55.389" transform="matrix(0.866193 0.49971 -0.866193 0.49971 528.412 1059.58)" fill="#FBFBFB" stroke="#B6B6B7" stroke-width="0.752692" stroke-linejoin="round"/>
<rect width="55.389" height="17.991" transform="matrix(0.866193 0.49971 0 1 480.438 1087.26)" fill="white" stroke="#B6B6B7" stroke-width="0.752691" stroke-linejoin="round"/>
<rect width="55.389" height="17.991" transform="matrix(0.866193 -0.49971 0 1 528.412 1114.94)" fill="white" stroke="#B6B6B7" stroke-width="0.752691" stroke-linejoin="round"/>
<rect width="55.389" height="55.389" transform="matrix(0.866193 0.49971 -0.866193 0.49971 480.432 966.293)" fill="#FBFBFB" stroke="#B6B6B7" stroke-width="0.752692" stroke-linejoin="round"/>
<rect width="55.389" height="17.991" transform="matrix(0.866193 0.49971 0 1 432.457 993.973)" fill="#FBFBFB" stroke="#B6B6B7" stroke-width="0.752691" stroke-linejoin="round"/>
<rect width="55.389" height="17.991" transform="matrix(0.866193 -0.49971 0 1 480.432 1021.65)" fill="white" stroke="#B6B6B7" stroke-width="0.752691" stroke-linejoin="round"/>
<rect width="55.389" height="55.389" transform="matrix(0.866193 0.49971 -0.866193 0.49971 432.459 993.957)" fill="#FBFBFB" stroke="#B6B6B7" stroke-width="0.752692" stroke-linejoin="round"/>
<rect width="55.389" height="17.991" transform="matrix(0.866193 0.49971 0 1 384.484 1021.64)" fill="#FBFBFB" stroke="#B6B6B7" stroke-width="0.752691" stroke-linejoin="round"/>
<rect width="55.389" height="17.991" transform="matrix(0.866193 -0.49971 0 1 432.461 1049.31)" fill="white" stroke="#B6B6B7" stroke-width="0.752691" stroke-linejoin="round"/>
<rect width="55.389" height="55.389" transform="matrix(0.866193 0.49971 -0.866193 0.49971 384.484 1021.66)" fill="#FBFBFB" stroke="#B6B6B7" stroke-width="0.752692" stroke-linejoin="round"/>
<rect width="55.389" height="17.991" transform="matrix(0.866193 0.49971 0 1 336.51 1049.34)" fill="#FBFBFB" stroke="#B6B6B7" stroke-width="0.752691" stroke-linejoin="round"/>
<rect width="55.389" height="17.991" transform="matrix(0.866193 -0.49971 0 1 384.486 1077.02)" fill="white" stroke="#B6B6B7" stroke-width="0.752691" stroke-linejoin="round"/>
<rect width="55.389" height="55.389" transform="matrix(0.866193 0.49971 -0.866193 0.49971 336.502 1049.33)" fill="#FBFBFB" stroke="#B6B6B7" stroke-width="0.752692" stroke-linejoin="round"/>
<rect width="55.389" height="17.991" transform="matrix(0.866193 0.49971 0 1 288.527 1077.01)" fill="#FBFBFB" stroke="#B6B6B7" stroke-width="0.752691" stroke-linejoin="round"/>
<rect width="55.389" height="17.991" transform="matrix(0.866193 -0.49971 0 1 336.504 1104.69)" fill="white" stroke="#B6B6B7" stroke-width="0.752691" stroke-linejoin="round"/>
<rect width="55.389" height="55.389" transform="matrix(0.866193 0.49971 -0.866193 0.49971 336.486 1151.68)" fill="#FBFBFB" stroke="#B6B6B7" stroke-width="0.752692" stroke-linejoin="round"/>
<rect width="55.389" height="17.991" transform="matrix(0.866193 0.49971 0 1 288.512 1179.36)" fill="#FBFBFB" stroke="#B6B6B7" stroke-width="0.752691" stroke-linejoin="round"/>
<rect width="55.389" height="17.991" transform="matrix(0.866193 -0.49971 0 1 336.486 1207.04)" fill="white" stroke="#B6B6B7" stroke-width="0.752691" stroke-linejoin="round"/>
<rect width="55.389" height="55.389" transform="matrix(0.866193 0.49971 -0.866193 0.49971 336.486 1122.82)" fill="#FBFBFB" stroke="#B6B6B7" stroke-width="0.752692" stroke-linejoin="round"/>
<rect width="55.389" height="17.991" transform="matrix(0.866193 0.49971 0 1 288.512 1150.5)" fill="#FBFBFB" stroke="#B6B6B7" stroke-width="0.752691" stroke-linejoin="round"/>
<rect width="55.389" height="17.991" transform="matrix(0.866193 -0.49971 0 1 336.486 1178.18)" fill="white" stroke="#B6B6B7" stroke-width="0.752691" stroke-linejoin="round"/>
<g clip-path="url(#clip0_2417_288600)">
<rect width="55.3998" height="18.0051" transform="matrix(0.866023 0.500004 0 1 144.428 703.123)" fill="#FBFBFB" stroke="#B6B6B7" stroke-width="0.752691" stroke-linejoin="round"/>
<rect width="55.3998" height="18.0051" transform="matrix(0.866023 -0.500004 0 1 192.402 730.824)" fill="#FBFBFB" stroke="#B6B6B7" stroke-width="0.752691" stroke-linejoin="round"/>
<rect width="55.3998" height="55.3998" transform="matrix(0.866023 0.500004 -0.866023 0.500004 240.391 703.127)" fill="#FBFBFB" stroke="#B6B6B7" stroke-width="0.752692" stroke-linejoin="round"/>
<rect width="55.3998" height="18.0051" transform="matrix(0.866023 0.500004 0 1 192.416 730.828)" fill="white" stroke="#B6B6B7" stroke-width="0.752691" stroke-linejoin="round"/>
<rect width="55.3998" height="18.0051" transform="matrix(0.866023 -0.500004 0 1 240.391 758.531)" fill="#FBFBFB" stroke="#B6B6B7" stroke-width="0.752691" stroke-linejoin="round"/>
<rect width="55.3998" height="55.3998" transform="matrix(0.866023 0.500004 -0.866023 0.500004 288.373 730.822)" fill="#FBFBFB" stroke="#B6B6B7" stroke-width="0.752692" stroke-linejoin="round"/>
<rect width="55.3998" height="18.0051" transform="matrix(0.866023 0.500004 0 1 240.398 758.523)" fill="white" stroke="#B6B6B7" stroke-width="0.752691" stroke-linejoin="round"/>
<rect width="55.3998" height="18.0051" transform="matrix(0.866023 -0.500004 0 1 288.375 786.227)" fill="#FBFBFB" stroke="#B6B6B7" stroke-width="0.752691" stroke-linejoin="round"/>
<rect width="55.3998" height="55.3998" transform="matrix(0.866023 0.500004 -0.866023 0.500004 144.43 703.127)" fill="#FBFBFB" stroke="#B6B6B7" stroke-width="0.752692" stroke-linejoin="round"/>
<rect width="55.3998" height="18.0051" transform="matrix(0.866023 0.500004 0 1 96.4551 730.828)" fill="#FBFBFB" stroke="#B6B6B7" stroke-width="0.752691" stroke-linejoin="round"/>
<rect width="55.3998" height="18.0051" transform="matrix(0.866023 -0.500004 0 1 144.432 758.531)" fill="white" stroke="#B6B6B7" stroke-width="0.752691" stroke-linejoin="round"/>
<rect width="55.3998" height="55.3998" transform="matrix(0.866023 0.500004 -0.866023 0.500004 96.457 730.82)" fill="#FBFBFB" stroke="#B6B6B7" stroke-width="0.752692" stroke-linejoin="round"/>
<rect width="55.3998" height="18.0051" transform="matrix(0.866023 0.500004 0 1 48.4824 758.521)" fill="#FBFBFB" stroke="#B6B6B7" stroke-width="0.752691" stroke-linejoin="round"/>
<rect width="55.3998" height="18.0051" transform="matrix(0.866023 -0.500004 0 1 96.457 786.225)" fill="white" stroke="#B6B6B7" stroke-width="0.752691" stroke-linejoin="round"/>
<rect width="55.3998" height="55.3998" transform="matrix(0.866023 0.500004 -0.866023 0.500004 48.4766 758.518)" fill="#FBFBFB" stroke="#B6B6B7" stroke-width="0.752692" stroke-linejoin="round"/>
<rect width="55.3998" height="18.0051" transform="matrix(0.866023 0.500004 0 1 0.501953 786.219)" fill="#FBFBFB" stroke="#B6B6B7" stroke-width="0.752691" stroke-linejoin="round"/>
<rect width="55.3998" height="18.0051" transform="matrix(0.866023 -0.500004 0 1 48.4766 813.922)" fill="white" stroke="#B6B6B7" stroke-width="0.752691" stroke-linejoin="round"/>
<path d="M432.385 1067.25V776.377" stroke="#D2D3D5" stroke-width="0.752692" stroke-linejoin="round"/>
<path d="M384.383 1074.05V803.307" stroke="#D2D3D5" stroke-width="0.752692" stroke-linejoin="round"/>
<path d="M336.354 1074.05V831.52" stroke="#D2D3D5" stroke-width="0.752692" stroke-linejoin="round"/>
<path d="M288.379 1077.31V859.041" stroke="#D2D3D5" stroke-width="0.752692" stroke-linejoin="round"/>
<path d="M240.385 940.717V886.545" stroke="#D2D3D5" stroke-width="0.752692" stroke-linejoin="round"/>
<path d="M192.35 968.91V914.738" stroke="#D2D3D5" stroke-width="0.752692" stroke-linejoin="round"/>
<rect width="55.3998" height="55.3998" transform="matrix(0.866023 0.500004 -0.866023 0.500004 432.301 703.123)" fill="#FBFBFB" stroke="#B6B6B7" stroke-width="0.752692" stroke-linejoin="round"/>
<rect width="55.3998" height="18.0051" transform="matrix(0.866023 0.500004 0 1 384.326 730.824)" fill="#FBFBFB" stroke="#B6B6B7" stroke-width="0.752691" stroke-linejoin="round"/>
<rect width="55.3998" height="18.0051" transform="matrix(0.866023 -0.500004 0 1 432.303 758.525)" fill="white" stroke="#B6B6B7" stroke-width="0.752691" stroke-linejoin="round"/>
<rect width="55.3998" height="55.3998" transform="matrix(0.866023 0.500004 -0.866023 0.500004 384.32 730.844)" fill="#FBFBFB" stroke="#B6B6B7" stroke-width="0.752692" stroke-linejoin="round"/>
<rect width="55.3998" height="18.0051" transform="matrix(0.866023 0.500004 0 1 336.346 758.545)" fill="#FBFBFB" stroke="#B6B6B7" stroke-width="0.752691" stroke-linejoin="round"/>
<rect width="55.3998" height="18.0051" transform="matrix(0.866023 -0.500004 0 1 384.32 786.248)" fill="white" stroke="#B6B6B7" stroke-width="0.752691" stroke-linejoin="round"/>
<rect width="55.3998" height="55.3998" transform="matrix(0.866023 0.500004 -0.866023 0.500004 336.344 758.529)" fill="#FBFBFB" stroke="#B6B6B7" stroke-width="0.752692" stroke-linejoin="round"/>
<rect width="55.3998" height="18.0051" transform="matrix(0.866023 0.500004 0 1 288.369 786.232)" fill="#FBFBFB" stroke="#B6B6B7" stroke-width="0.752691" stroke-linejoin="round"/>
<rect width="55.3998" height="18.0051" transform="matrix(0.866023 -0.500004 0 1 336.344 813.939)" fill="white" stroke="#B6B6B7" stroke-width="0.752691" stroke-linejoin="round"/>
<rect width="55.3998" height="55.3998" transform="matrix(0.866023 0.500004 -0.866023 0.500004 288.371 786.238)" fill="#FBFBFB" stroke="#B6B6B7" stroke-width="0.752692" stroke-linejoin="round"/>
<rect width="55.3998" height="18.0051" transform="matrix(0.866023 0.500004 0 1 240.396 813.939)" fill="#FBFBFB" stroke="#B6B6B7" stroke-width="0.752691" stroke-linejoin="round"/>
<rect width="55.3998" height="18.0051" transform="matrix(0.866023 -0.500004 0 1 288.371 841.641)" fill="white" stroke="#B6B6B7" stroke-width="0.752691" stroke-linejoin="round"/>
<rect width="55.3998" height="55.3998" transform="matrix(0.866023 0.500004 -0.866023 0.500004 240.396 813.943)" fill="#FBFBFB" stroke="#B6B6B7" stroke-width="0.752692" stroke-linejoin="round"/>
<rect width="55.3998" height="18.0051" transform="matrix(0.866023 0.500004 0 1 192.422 841.645)" fill="#FBFBFB" stroke="#B6B6B7" stroke-width="0.752691" stroke-linejoin="round"/>
<rect width="55.3998" height="18.0051" transform="matrix(0.866023 -0.500004 0 1 240.398 869.348)" fill="white" stroke="#B6B6B7" stroke-width="0.752691" stroke-linejoin="round"/>
<rect width="55.3998" height="55.3998" transform="matrix(0.866023 0.500004 -0.866023 0.500004 192.416 841.641)" fill="#FBFBFB" stroke="#B6B6B7" stroke-width="0.752692" stroke-linejoin="round"/>
<rect width="55.3998" height="18.0051" transform="matrix(0.866023 0.500004 0 1 144.441 869.342)" fill="#FBFBFB" stroke="#B6B6B7" stroke-width="0.752691" stroke-linejoin="round"/>
<rect width="55.3998" height="18.0051" transform="matrix(0.866023 -0.500004 0 1 192.418 897.043)" fill="white" stroke="#B6B6B7" stroke-width="0.752691" stroke-linejoin="round"/>
<rect width="55.3998" height="55.3998" transform="matrix(0.866023 0.500004 -0.866023 0.500004 432.316 828.977)" fill="#FBFBFB" stroke="#B6B6B7" stroke-width="0.752692" stroke-linejoin="round"/>
<rect width="55.3998" height="18.0051" transform="matrix(0.866023 0.500004 0 1 384.342 856.678)" fill="#FBFBFB" stroke="#B6B6B7" stroke-width="0.752691" stroke-linejoin="round"/>
<rect width="55.3998" height="18.0051" transform="matrix(0.866023 -0.500004 0 1 432.318 884.379)" fill="white" stroke="#B6B6B7" stroke-width="0.752691" stroke-linejoin="round"/>
<rect width="55.3998" height="55.3998" transform="matrix(0.866023 0.500004 -0.866023 0.500004 384.336 856.705)" fill="#FBFBFB" stroke="#B6B6B7" stroke-width="0.752692" stroke-linejoin="round"/>
<rect width="55.3998" height="18.0051" transform="matrix(0.866023 0.500004 0 1 336.361 884.406)" fill="#FBFBFB" stroke="#B6B6B7" stroke-width="0.752691" stroke-linejoin="round"/>
<rect width="55.3998" height="18.0051" transform="matrix(0.866023 -0.500004 0 1 384.336 912.107)" fill="white" stroke="#B6B6B7" stroke-width="0.752691" stroke-linejoin="round"/>
<rect width="55.3998" height="55.3998" transform="matrix(0.866023 0.500004 -0.866023 0.500004 336.357 884.396)" fill="#FBFBFB" stroke="#B6B6B7" stroke-width="0.752692" stroke-linejoin="round"/>
<rect width="55.3998" height="18.0051" transform="matrix(0.866023 0.500004 0 1 288.383 912.098)" fill="#FBFBFB" stroke="#B6B6B7" stroke-width="0.752691" stroke-linejoin="round"/>
<rect width="55.3998" height="18.0051" transform="matrix(0.866023 -0.500004 0 1 336.357 939.801)" fill="#FBFBFB" stroke="#B6B6B7" stroke-width="0.752691" stroke-linejoin="round"/>
<rect width="55.3998" height="55.3998" transform="matrix(0.866023 0.500004 -0.866023 0.500004 384.34 912.092)" fill="#FBFBFB" stroke="#B6B6B7" stroke-width="0.752692" stroke-linejoin="round"/>
<rect width="55.3998" height="18.0051" transform="matrix(0.866023 0.500004 0 1 336.363 939.793)" fill="white" stroke="#B6B6B7" stroke-width="0.752691" stroke-linejoin="round"/>
<rect width="55.3998" height="18.0051" transform="matrix(0.866023 -0.500004 0 1 384.34 967.494)" fill="#FBFBFB" stroke="#B6B6B7" stroke-width="0.752691" stroke-linejoin="round"/>
<rect width="55.3998" height="55.3998" transform="matrix(0.866023 0.500004 -0.866023 0.500004 432.324 939.814)" fill="#FBFBFB" stroke="#B6B6B7" stroke-width="0.752692" stroke-linejoin="round"/>
<rect width="55.3998" height="18.0051" transform="matrix(0.866023 0.500004 0 1 384.348 967.516)" fill="white" stroke="#B6B6B7" stroke-width="0.752691" stroke-linejoin="round"/>
<rect width="55.3998" height="18.0051" transform="matrix(0.866023 -0.500004 0 1 432.324 995.219)" fill="#FBFBFB" stroke="#B6B6B7" stroke-width="0.752691" stroke-linejoin="round"/>
<rect width="55.3998" height="55.3998" transform="matrix(0.866023 0.500004 -0.866023 0.500004 288.383 912.092)" fill="#FBFBFB" stroke="#B6B6B7" stroke-width="0.752692" stroke-linejoin="round"/>
<rect width="55.3998" height="18.0051" transform="matrix(0.866023 0.500004 0 1 240.408 939.793)" fill="#FBFBFB" stroke="#B6B6B7" stroke-width="0.752691" stroke-linejoin="round"/>
<rect width="55.3998" height="18.0051" transform="matrix(0.866023 -0.500004 0 1 288.383 967.494)" fill="white" stroke="#B6B6B7" stroke-width="0.752691" stroke-linejoin="round"/>
<rect width="55.3998" height="55.3998" transform="matrix(0.866023 0.500004 -0.866023 0.500004 240.438 939.814)" fill="#FBFBFB" stroke="#B6B6B7" stroke-width="0.752692" stroke-linejoin="round"/>
<rect width="55.3998" height="18.0051" transform="matrix(0.866023 0.500004 0 1 192.463 967.516)" fill="#FBFBFB" stroke="#B6B6B7" stroke-width="0.752691" stroke-linejoin="round"/>
<rect width="55.3998" height="18.0051" transform="matrix(0.866023 -0.500004 0 1 240.438 995.219)" fill="white" stroke="#B6B6B7" stroke-width="0.752691" stroke-linejoin="round"/>
<rect width="55.3998" height="55.3998" transform="matrix(0.866023 0.500004 -0.866023 0.500004 192.43 967.502)" fill="#FBFBFB" stroke="#B6B6B7" stroke-width="0.752692" stroke-linejoin="round"/>
<rect width="55.3998" height="18.0051" transform="matrix(0.866023 0.500004 0 1 144.455 995.203)" fill="white" stroke="#B6B6B7" stroke-width="0.752691" stroke-linejoin="round"/>
<rect width="55.3998" height="18.0051" transform="matrix(0.866023 -0.500004 0 1 192.43 1022.9)" fill="white" stroke="#B6B6B7" stroke-width="0.752691" stroke-linejoin="round"/>
<rect width="55.3998" height="55.3998" transform="matrix(0.866023 0.500004 -0.866023 0.500004 528.43 1087.17)" fill="#FBFBFB" stroke="#B6B6B7" stroke-width="0.752692" stroke-linejoin="round"/>
<rect width="55.3998" height="18.0051" transform="matrix(0.866023 0.500004 0 1 480.455 1114.87)" fill="#FBFBFB" stroke="#B6B6B7" stroke-width="0.752691" stroke-linejoin="round"/>
<rect width="55.3998" height="18.0051" transform="matrix(0.866023 -0.500004 0 1 528.43 1142.57)" fill="white" stroke="#B6B6B7" stroke-width="0.752691" stroke-linejoin="round"/>
<rect width="55.3998" height="55.3998" transform="matrix(0.866023 0.500004 -0.866023 0.500004 528.43 1163.52)" fill="white" stroke="#B6B6B7" stroke-width="0.752692" stroke-linejoin="round"/>
<rect width="55.3998" height="18.0051" transform="matrix(0.866023 0.500004 0 1 480.455 1191.22)" fill="#FBFBFB" stroke="#B6B6B7" stroke-width="0.752691" stroke-linejoin="round"/>
<rect width="55.3998" height="18.0051" transform="matrix(0.866023 -0.500004 0 1 528.43 1218.93)" fill="white" stroke="#B6B6B7" stroke-width="0.752691" stroke-linejoin="round"/>
<rect width="55.3998" height="55.3998" transform="matrix(0.866023 0.500004 -0.866023 0.500004 336.352 1206.88)" fill="white" stroke="#B6B6B7" stroke-width="0.752692" stroke-linejoin="round"/>
<rect width="55.3998" height="55.3998" transform="matrix(0.866023 0.500004 -0.866023 0.500004 576.256 910.861)" fill="#FBFBFB" stroke="#B6B6B7" stroke-width="0.752692" stroke-linejoin="round"/>
<rect width="55.3998" height="18.0051" transform="matrix(0.866023 0.500004 0 1 528.281 938.562)" fill="#FBFBFB" stroke="#B6B6B7" stroke-width="0.752691" stroke-linejoin="round"/>
<rect width="55.3998" height="18.0051" transform="matrix(0.866023 -0.500004 0 1 576.258 966.266)" fill="white" stroke="#B6B6B7" stroke-width="0.752691" stroke-linejoin="round"/>
<rect width="55.3998" height="55.3998" transform="matrix(0.866023 0.500004 -0.866023 0.500004 528.277 938.584)" fill="#FBFBFB" stroke="#B6B6B7" stroke-width="0.752692" stroke-linejoin="round"/>
<rect width="55.3998" height="18.0051" transform="matrix(0.866023 0.500004 0 1 480.303 966.283)" fill="#FBFBFB" stroke="#B6B6B7" stroke-width="0.752691" stroke-linejoin="round"/>
<path d="M528.277 993.986L576.519 966.083L576.496 984.115L528.277 1011.99V993.986Z" fill="white" stroke="#B6B6B7" stroke-width="0.752691" stroke-linejoin="round"/>
<rect width="55.3998" height="55.3998" transform="matrix(0.866023 0.500004 -0.866023 0.500004 528.43 1059.64)" fill="#FBFBFB" stroke="#B6B6B7" stroke-width="0.752692" stroke-linejoin="round"/>
<rect width="55.3998" height="18.0051" transform="matrix(0.866023 0.500004 0 1 480.453 1087.35)" fill="white" stroke="#B6B6B7" stroke-width="0.752691" stroke-linejoin="round"/>
<rect width="55.3998" height="18.0051" transform="matrix(0.866023 -0.500004 0 1 528.43 1115.05)" fill="white" stroke="#B6B6B7" stroke-width="0.752691" stroke-linejoin="round"/>
<rect width="55.3998" height="55.3998" transform="matrix(0.866023 0.500004 -0.866023 0.500004 480.297 966.279)" fill="#FBFBFB" stroke="#B6B6B7" stroke-width="0.752692" stroke-linejoin="round"/>
<rect width="55.3998" height="18.0051" transform="matrix(0.866023 0.500004 0 1 432.322 993.98)" fill="#FBFBFB" stroke="#B6B6B7" stroke-width="0.752691" stroke-linejoin="round"/>
<rect width="55.3998" height="18.0051" transform="matrix(0.866023 -0.500004 0 1 480.297 1021.68)" fill="white" stroke="#B6B6B7" stroke-width="0.752691" stroke-linejoin="round"/>
<rect width="55.3998" height="55.3998" transform="matrix(0.866023 0.500004 -0.866023 0.500004 432.324 993.965)" fill="#FBFBFB" stroke="#B6B6B7" stroke-width="0.752692" stroke-linejoin="round"/>
<rect width="55.3998" height="18.0051" transform="matrix(0.866023 0.500004 0 1 384.348 1021.67)" fill="#FBFBFB" stroke="#B6B6B7" stroke-width="0.752691" stroke-linejoin="round"/>
<rect width="55.3998" height="18.0051" transform="matrix(0.866023 -0.500004 0 1 432.324 1049.37)" fill="white" stroke="#B6B6B7" stroke-width="0.752691" stroke-linejoin="round"/>
<rect width="55.3998" height="55.3998" transform="matrix(0.866023 0.500004 -0.866023 0.500004 384.352 1021.69)" fill="#FBFBFB" stroke="#B6B6B7" stroke-width="0.752692" stroke-linejoin="round"/>
<rect width="55.3998" height="18.0051" transform="matrix(0.866023 0.500004 0 1 336.377 1049.39)" fill="#FBFBFB" stroke="#B6B6B7" stroke-width="0.752691" stroke-linejoin="round"/>
<rect width="55.3998" height="18.0051" transform="matrix(0.866023 -0.500004 0 1 384.354 1077.1)" fill="white" stroke="#B6B6B7" stroke-width="0.752691" stroke-linejoin="round"/>
<rect width="55.3998" height="55.3998" transform="matrix(0.866023 0.500004 -0.866023 0.500004 336.367 1049.38)" fill="#FBFBFB" stroke="#B6B6B7" stroke-width="0.752692" stroke-linejoin="round"/>
<rect width="55.3998" height="18.0051" transform="matrix(0.866023 0.500004 0 1 288.395 1077.08)" fill="#FBFBFB" stroke="#B6B6B7" stroke-width="0.752691" stroke-linejoin="round"/>
<rect width="55.3998" height="18.0051" transform="matrix(0.866023 -0.500004 0 1 336.367 1104.79)" fill="white" stroke="#B6B6B7" stroke-width="0.752691" stroke-linejoin="round"/>
<rect width="55.3998" height="55.3998" transform="matrix(0.866023 0.500004 -0.866023 0.500004 336.352 1151.82)" fill="#FBFBFB" stroke="#B6B6B7" stroke-width="0.752692" stroke-linejoin="round"/>
<rect width="55.3998" height="18.0051" transform="matrix(0.866023 0.500004 0 1 288.375 1179.52)" fill="#FBFBFB" stroke="#B6B6B7" stroke-width="0.752691" stroke-linejoin="round"/>
<rect width="55.3998" height="18.0051" transform="matrix(0.866023 -0.500004 0 1 336.352 1207.22)" fill="white" stroke="#B6B6B7" stroke-width="0.752691" stroke-linejoin="round"/>
<rect width="55.3998" height="55.3998" transform="matrix(0.866023 0.500004 -0.866023 0.500004 336.352 1122.93)" fill="#FBFBFB" stroke="#B6B6B7" stroke-width="0.752692" stroke-linejoin="round"/>
<rect width="55.3998" height="18.0051" transform="matrix(0.866023 0.500004 0 1 288.377 1150.63)" fill="#FBFBFB" stroke="#B6B6B7" stroke-width="0.752691" stroke-linejoin="round"/>
<rect width="55.3998" height="18.0051" transform="matrix(0.866023 -0.500004 0 1 336.352 1178.33)" fill="white" stroke="#B6B6B7" stroke-width="0.752691" stroke-linejoin="round"/>
</g>
<rect x="48.5" y="733" width="528" height="480" stroke="#B6B6B7" stroke-width="0.75"/>
<path d="M432.301 0.5L432.301 702.5" stroke="url(#paint0_linear_2417_288600)" stroke-width="0.752692" stroke-linejoin="round"/>
<defs>
<linearGradient id="paint0_linear_2417_288600" x1="432.292" y1="119.5" x2="432.292" y2="952.061" gradientUnits="userSpaceOnUse">
<stop stop-color="#E5E6E7"/>
<stop offset="1" stop-color="#B6B6B7"/>
</linearGradient>
<clipPath id="clip0_2417_288600">
<rect x="48.5" y="733" width="528" height="480" fill="white"/>
</clipPath>
</defs>
</svg>
