<svg width="649" height="1281" viewBox="0 0 649 1281" fill="none" xmlns="http://www.w3.org/2000/svg">
<path d="M624.201 1023.03H600.201V1047.03H624.201V1023.03Z" stroke="#181A1F" stroke-width="0.75" stroke-miterlimit="10"/>
<path d="M624.201 975.025H600.201V999.025H624.201V975.025Z" stroke="#181A1F" stroke-width="0.75" stroke-miterlimit="10"/>
<path d="M648.201 975.025H624.201V999.025H648.201V975.025Z" stroke="#181A1F" stroke-width="0.75" stroke-miterlimit="10"/>
<path d="M624.201 927.025H600.201V951.025H624.201V927.025Z" stroke="#181A1F" stroke-width="0.75" stroke-miterlimit="10"/>
<path d="M624.201 831.025H600.201V855.025H624.201V831.025Z" fill="#16181D" stroke="#333538" stroke-width="0.75" stroke-linejoin="round"/>
<path d="M648.201 831.025H624.201V855.025H648.201V831.025Z" fill="#16181D" stroke="#333538" stroke-width="0.75" stroke-linejoin="round"/>
<path d="M624.201 807.025H600.201V831.025H624.201V807.025Z" fill="#16181D" stroke="#333538" stroke-width="0.75" stroke-linejoin="round"/>
<rect width="55.3998" height="55.3998" transform="matrix(0.866023 0.500004 -0.866023 0.500004 288.365 574.525)" fill="#16181D" stroke="#333538" stroke-width="0.75" stroke-linejoin="round"/>
<rect width="55.3998" height="18.0051" transform="matrix(0.866023 0.500004 0 1 240.391 602.227)" fill="#16181D" stroke="#333538" stroke-width="0.75" stroke-linejoin="round"/>
<rect width="55.3998" height="18.0051" transform="matrix(0.866023 -0.500004 0 1 288.367 629.93)" fill="#181A1F" stroke="#333538" stroke-width="0.75" stroke-linejoin="round"/>
<rect width="55.3998" height="55.3998" transform="matrix(0.866023 0.500004 -0.866023 0.500004 240.383 602.266)" fill="#16181D" stroke="#333538" stroke-width="0.75" stroke-linejoin="round"/>
<rect width="55.3998" height="18.0051" transform="matrix(0.866023 0.500004 0 1 192.408 629.967)" fill="#16181D" stroke="#333538" stroke-width="0.75" stroke-linejoin="round"/>
<rect width="55.3998" height="18.0051" transform="matrix(0.866023 -0.500004 0 1 240.383 657.67)" fill="#181A1F" stroke="#333538" stroke-width="0.75" stroke-linejoin="round"/>
<rect width="55.3998" height="55.3998" transform="matrix(0.866023 0.500004 -0.866023 0.500004 192.402 629.945)" fill="#16181D" stroke="#333538" stroke-width="0.75" stroke-linejoin="round"/>
<rect width="55.3998" height="18.0051" transform="matrix(0.866023 0.500004 0 1 144.428 657.646)" fill="#16181D" stroke="#333538" stroke-width="0.75" stroke-linejoin="round"/>
<rect width="55.3998" height="18.0051" transform="matrix(0.866023 -0.500004 0 1 192.402 685.348)" fill="#16181D" stroke="#333538" stroke-width="0.75" stroke-linejoin="round"/>
<rect width="55.3998" height="55.3998" transform="matrix(0.866023 0.500004 -0.866023 0.500004 240.391 657.65)" fill="#16181D" stroke="#333538" stroke-width="0.75" stroke-linejoin="round"/>
<rect width="55.3998" height="18.0051" transform="matrix(0.866023 0.500004 0 1 192.416 685.352)" fill="#16181D" stroke="#333538" stroke-width="0.75" stroke-linejoin="round"/>
<rect width="55.3998" height="18.0051" transform="matrix(0.866023 -0.500004 0 1 240.391 713.055)" fill="#16181D" stroke="#333538" stroke-width="0.75" stroke-linejoin="round"/>
<rect width="55.3998" height="55.3998" transform="matrix(0.866023 0.500004 -0.866023 0.500004 288.373 685.346)" fill="#16181D" stroke="#333538" stroke-width="0.75" stroke-linejoin="round"/>
<rect width="55.3998" height="18.0051" transform="matrix(0.866023 0.500004 0 1 240.398 713.047)" fill="#16181D" stroke="#333538" stroke-width="0.75" stroke-linejoin="round"/>
<rect width="55.3998" height="18.0051" transform="matrix(0.866023 -0.500004 0 1 288.375 740.75)" fill="#16181D" stroke="#333538" stroke-width="0.75" stroke-linejoin="round"/>
<rect width="55.3998" height="55.3998" transform="matrix(0.866023 0.500004 -0.866023 0.500004 144.43 657.65)" fill="#16181D" stroke="#333538" stroke-width="0.75" stroke-linejoin="round"/>
<rect width="55.3998" height="18.0051" transform="matrix(0.866023 0.500004 0 1 96.4551 685.352)" fill="#16181D" stroke="#333538" stroke-width="0.75" stroke-linejoin="round"/>
<rect width="55.3998" height="18.0051" transform="matrix(0.866023 -0.500004 0 1 144.432 713.055)" fill="#16181D" stroke="#333538" stroke-width="0.75" stroke-linejoin="round"/>
<rect width="55.3998" height="55.3998" transform="matrix(0.866023 0.500004 -0.866023 0.500004 96.457 685.344)" fill="#16181D" stroke="#333538" stroke-width="0.75" stroke-linejoin="round"/>
<rect width="55.3998" height="18.0051" transform="matrix(0.866023 0.500004 0 1 48.4824 713.045)" fill="#16181D" stroke="#333538" stroke-width="0.75" stroke-linejoin="round"/>
<rect width="55.3998" height="18.0051" transform="matrix(0.866023 -0.500004 0 1 96.457 740.748)" fill="#16181D" stroke="#333538" stroke-width="0.75" stroke-linejoin="round"/>
<rect width="55.3998" height="55.3998" transform="matrix(0.866023 0.500004 -0.866023 0.500004 48.4766 713.041)" fill="#16181D" stroke="#333538" stroke-width="0.75" stroke-linejoin="round"/>
<rect width="55.3998" height="18.0051" transform="matrix(0.866023 0.500004 0 1 0.501953 740.742)" fill="#181A1F" stroke="#333538" stroke-width="0.75" stroke-linejoin="round"/>
<rect width="55.3998" height="18.0051" transform="matrix(0.866023 -0.500004 0 1 48.4766 768.445)" fill="#16181D" stroke="#333538" stroke-width="0.75" stroke-linejoin="round"/>
<path d="M432.385 1021.77V730.9" stroke="#333538" stroke-width="0.75" stroke-linejoin="round"/>
<path d="M384.383 1028.58V757.83" stroke="#333538" stroke-width="0.75" stroke-linejoin="round"/>
<path d="M336.354 1028.57V786.043" stroke="#333538" stroke-width="0.75" stroke-linejoin="round"/>
<path d="M288.379 1031.83V813.564" stroke="#333538" stroke-width="0.75" stroke-linejoin="round"/>
<path d="M240.385 895.24V841.068" stroke="#333538" stroke-width="0.75" stroke-linejoin="round"/>
<path d="M192.35 923.433V869.262" stroke="#333538" stroke-width="0.75" stroke-linejoin="round"/>
<rect width="55.3998" height="55.3998" transform="matrix(0.866023 0.500004 -0.866023 0.500004 432.301 657.646)" fill="#16181D" stroke="#333538" stroke-width="0.75" stroke-linejoin="round"/>
<rect width="55.3998" height="18.0051" transform="matrix(0.866023 0.500004 0 1 384.326 685.348)" fill="#16181D" stroke="#333538" stroke-width="0.75" stroke-linejoin="round"/>
<rect width="55.3998" height="18.0051" transform="matrix(0.866023 -0.500004 0 1 432.303 713.049)" fill="#16181D" stroke="#333538" stroke-width="0.75" stroke-linejoin="round"/>
<rect width="55.3998" height="55.3998" transform="matrix(0.866023 0.500004 -0.866023 0.500004 384.322 685.367)" fill="#16181D" stroke="#333538" stroke-width="0.75" stroke-linejoin="round"/>
<rect width="55.3998" height="18.0051" transform="matrix(0.866023 0.500004 0 1 336.348 713.068)" fill="#16181D" stroke="#333538" stroke-width="0.75" stroke-linejoin="round"/>
<rect width="55.3998" height="18.0051" transform="matrix(0.866023 -0.500004 0 1 384.324 740.771)" fill="#16181D" stroke="#333538" stroke-width="0.75" stroke-linejoin="round"/>
<rect width="55.3998" height="55.3998" transform="matrix(0.866023 0.500004 -0.866023 0.500004 336.344 713.053)" fill="#16181D" stroke="#333538" stroke-width="0.75" stroke-linejoin="round"/>
<rect width="55.3998" height="18.0051" transform="matrix(0.866023 0.500004 0 1 288.369 740.756)" fill="#16181D" stroke="#333538" stroke-width="0.75" stroke-linejoin="round"/>
<rect width="55.3998" height="18.0051" transform="matrix(0.866023 -0.500004 0 1 336.346 768.463)" fill="#16181D" stroke="#333538" stroke-width="0.75" stroke-linejoin="round"/>
<rect width="55.3998" height="55.3998" transform="matrix(0.866023 0.500004 -0.866023 0.500004 288.371 740.762)" fill="#16181D" stroke="#333538" stroke-width="0.75" stroke-linejoin="round"/>
<rect width="55.3998" height="18.0051" transform="matrix(0.866023 0.500004 0 1 240.396 768.463)" fill="#16181D" stroke="#333538" stroke-width="0.75" stroke-linejoin="round"/>
<rect width="55.3998" height="18.0051" transform="matrix(0.866023 -0.500004 0 1 288.373 796.164)" fill="#16181D" stroke="#333538" stroke-width="0.75" stroke-linejoin="round"/>
<rect width="55.3998" height="55.3998" transform="matrix(0.866023 0.500004 -0.866023 0.500004 240.396 768.467)" fill="#16181D" stroke="#333538" stroke-width="0.75" stroke-linejoin="round"/>
<rect width="55.3998" height="18.0051" transform="matrix(0.866023 0.500004 0 1 192.422 796.168)" fill="#16181D" stroke="#333538" stroke-width="0.75" stroke-linejoin="round"/>
<rect width="55.3998" height="18.0051" transform="matrix(0.866023 -0.500004 0 1 240.398 823.871)" fill="#16181D" stroke="#333538" stroke-width="0.75" stroke-linejoin="round"/>
<rect width="55.3998" height="55.3998" transform="matrix(0.866023 0.500004 -0.866023 0.500004 192.416 796.164)" fill="#16181D" stroke="#333538" stroke-width="0.75" stroke-linejoin="round"/>
<rect width="55.3998" height="18.0051" transform="matrix(0.866023 0.500004 0 1 144.441 823.865)" fill="#16181D" stroke="#333538" stroke-width="0.75" stroke-linejoin="round"/>
<rect width="55.3998" height="18.0051" transform="matrix(0.866023 -0.500004 0 1 192.418 851.566)" fill="#16181D" stroke="#333538" stroke-width="0.75" stroke-linejoin="round"/>
<rect width="55.3998" height="55.3998" transform="matrix(0.866023 0.500004 -0.866023 0.500004 432.316 783.5)" fill="#16181D" stroke="#333538" stroke-width="0.75" stroke-linejoin="round"/>
<rect width="55.3998" height="18.0051" transform="matrix(0.866023 0.500004 0 1 384.342 811.201)" fill="#16181D" stroke="#333538" stroke-width="0.75" stroke-linejoin="round"/>
<rect width="55.3998" height="18.0051" transform="matrix(0.866023 -0.500004 0 1 432.318 838.902)" fill="#16181D" stroke="#333538" stroke-width="0.75" stroke-linejoin="round"/>
<rect width="55.3998" height="55.3998" transform="matrix(0.866023 0.500004 -0.866023 0.500004 384.336 811.229)" fill="#16181D" stroke="#333538" stroke-width="0.75" stroke-linejoin="round"/>
<rect width="55.3998" height="18.0051" transform="matrix(0.866023 0.500004 0 1 336.361 838.93)" fill="#16181D" stroke="#333538" stroke-width="0.75" stroke-linejoin="round"/>
<rect width="55.3998" height="18.0051" transform="matrix(0.866023 -0.500004 0 1 384.338 866.631)" fill="#16181D" stroke="#333538" stroke-width="0.75" stroke-linejoin="round"/>
<rect width="55.3998" height="55.3998" transform="matrix(0.866023 0.500004 -0.866023 0.500004 336.357 838.92)" fill="#16181D" stroke="#333538" stroke-width="0.75" stroke-linejoin="round"/>
<rect width="55.3998" height="18.0051" transform="matrix(0.866023 0.500004 0 1 288.383 866.621)" fill="#16181D" stroke="#333538" stroke-width="0.75" stroke-linejoin="round"/>
<rect width="55.3998" height="18.0051" transform="matrix(0.866023 -0.500004 0 1 336.357 894.324)" fill="#16181D" stroke="#333538" stroke-width="0.75" stroke-linejoin="round"/>
<rect width="55.3998" height="55.3998" transform="matrix(0.866023 0.500004 -0.866023 0.500004 384.34 866.615)" fill="#16181D" stroke="#333538" stroke-width="0.75" stroke-linejoin="round"/>
<rect width="55.3998" height="18.0051" transform="matrix(0.866023 0.500004 0 1 336.365 894.316)" fill="#16181D" stroke="#333538" stroke-width="0.75" stroke-linejoin="round"/>
<rect width="55.3998" height="18.0051" transform="matrix(0.866023 -0.500004 0 1 384.342 922.018)" fill="#16181D" stroke="#333538" stroke-width="0.75" stroke-linejoin="round"/>
<rect width="55.3998" height="55.3998" transform="matrix(0.866023 0.500004 -0.866023 0.500004 432.324 894.338)" fill="#16181D" stroke="#333538" stroke-width="0.75" stroke-linejoin="round"/>
<rect width="55.3998" height="18.0051" transform="matrix(0.866023 0.500004 0 1 384.348 922.039)" fill="#16181D" stroke="#333538" stroke-width="0.75" stroke-linejoin="round"/>
<rect width="55.3998" height="18.0051" transform="matrix(0.866023 -0.500004 0 1 432.324 949.742)" fill="#16181D" stroke="#333538" stroke-width="0.75" stroke-linejoin="round"/>
<rect width="55.3998" height="55.3998" transform="matrix(0.866023 0.500004 -0.866023 0.500004 288.385 866.615)" fill="#16181D" stroke="#333538" stroke-width="0.75" stroke-linejoin="round"/>
<rect width="55.3998" height="18.0051" transform="matrix(0.866023 0.500004 0 1 240.408 894.316)" fill="#16181D" stroke="#333538" stroke-width="0.75" stroke-linejoin="round"/>
<rect width="55.3998" height="18.0051" transform="matrix(0.866023 -0.500004 0 1 288.385 922.018)" fill="#16181D" stroke="#333538" stroke-width="0.75" stroke-linejoin="round"/>
<rect width="55.3998" height="55.3998" transform="matrix(0.866023 0.500004 -0.866023 0.500004 240.438 894.338)" fill="#16181D" stroke="#333538" stroke-width="0.75" stroke-linejoin="round"/>
<rect width="55.3998" height="18.0051" transform="matrix(0.866023 0.500004 0 1 192.463 922.039)" fill="#16181D" stroke="#333538" stroke-width="0.75" stroke-linejoin="round"/>
<rect width="55.3998" height="18.0051" transform="matrix(0.866023 -0.500004 0 1 240.438 949.742)" fill="#16181D" stroke="#333538" stroke-width="0.75" stroke-linejoin="round"/>
<rect width="55.3998" height="55.3998" transform="matrix(0.866023 0.500004 -0.866023 0.500004 192.43 922.025)" fill="#16181D" stroke="#333538" stroke-width="0.75" stroke-linejoin="round"/>
<rect width="55.3998" height="18.0051" transform="matrix(0.866023 0.500004 0 1 144.455 949.727)" fill="#16181D" stroke="#333538" stroke-width="0.75" stroke-linejoin="round"/>
<rect width="55.3998" height="18.0051" transform="matrix(0.866023 -0.500004 0 1 192.43 977.422)" fill="#16181D" stroke="#333538" stroke-width="0.75" stroke-linejoin="round"/>
<rect width="55.3998" height="55.3998" transform="matrix(0.866023 0.500004 -0.866023 0.500004 528.279 1206.12)" fill="#16181D" stroke="#333538" stroke-width="0.75" stroke-linejoin="round"/>
<rect width="55.3998" height="18.0051" transform="matrix(0.866023 0.500004 0 1 480.305 1233.82)" fill="#181A1F" stroke="#333538" stroke-width="0.75" stroke-miterlimit="10"/>
<rect width="55.3998" height="18.0051" transform="matrix(0.866023 -0.500004 0 1 528.279 1261.52)" fill="#181A1F" stroke="#333538" stroke-width="0.75" stroke-miterlimit="10"/>
<rect width="55.3998" height="55.3998" transform="matrix(0.866023 0.500004 -0.866023 0.500004 528.279 1041.69)" fill="#16181D" stroke="#333538" stroke-width="0.75" stroke-linejoin="round"/>
<rect width="55.3998" height="18.0051" transform="matrix(0.866023 0.500004 0 1 480.305 1069.39)" fill="#16181D" stroke="#333538" stroke-width="0.75" stroke-linejoin="round"/>
<rect width="55.3998" height="18.0051" transform="matrix(0.866023 -0.500004 0 1 528.279 1097.1)" fill="#16181D" stroke="#333538" stroke-width="0.75" stroke-linejoin="round"/>
<rect width="55.3998" height="55.3998" transform="matrix(0.866023 0.500004 -0.866023 0.500004 528.277 1118.04)" fill="#16181D" stroke="#333538" stroke-width="0.75" stroke-linejoin="round"/>
<rect width="55.3998" height="18.0051" transform="matrix(0.866023 0.500004 0 1 480.303 1145.75)" fill="#16181D" stroke="#333538" stroke-width="0.75" stroke-linejoin="round"/>
<rect width="55.3998" height="18.0051" transform="matrix(0.866023 -0.500004 0 1 528.277 1173.45)" fill="#16181D" stroke="#333538" stroke-width="0.75" stroke-linejoin="round"/>
<rect width="55.3998" height="55.3998" transform="matrix(0.866023 0.500004 -0.866023 0.500004 336.352 1161.4)" fill="#16181D" stroke="#333538" stroke-width="0.75" stroke-linejoin="round"/>
<rect width="55.3998" height="18.0051" transform="matrix(0.866023 0.500004 0 1 288.377 1189.1)" fill="#181A1F" stroke="#333538" stroke-width="0.75" stroke-linejoin="round"/>
<rect width="55.3998" height="18.0051" transform="matrix(0.866023 -0.500004 0 1 336.354 1216.8)" fill="#181A1F" stroke="#333538" stroke-width="0.75" stroke-linejoin="round"/>
<rect width="55.3998" height="55.3998" transform="matrix(0.866023 0.500004 -0.866023 0.500004 576.256 865.385)" fill="#16181D" stroke="#333538" stroke-width="0.75" stroke-linejoin="round"/>
<rect width="55.3998" height="18.0051" transform="matrix(0.866023 0.500004 0 1 528.281 893.086)" fill="#16181D" stroke="#333538" stroke-width="0.75" stroke-linejoin="round"/>
<rect width="55.3998" height="18.0051" transform="matrix(0.866023 -0.500004 0 1 576.256 920.789)" fill="#181A1F" stroke="#333538" stroke-width="0.75" stroke-linejoin="round"/>
<rect width="55.3998" height="55.3998" transform="matrix(0.866023 0.500004 -0.866023 0.500004 528.279 893.107)" fill="#16181D" stroke="#333538" stroke-width="0.75" stroke-linejoin="round"/>
<rect width="55.3998" height="18.0051" transform="matrix(0.866023 0.500004 0 1 480.305 920.807)" fill="#16181D" stroke="#333538" stroke-width="0.75" stroke-linejoin="round"/>
<rect width="55.3998" height="18.0051" transform="matrix(0.866023 -0.500004 0 1 528.279 948.51)" fill="#16181D" stroke="#333538" stroke-width="0.75" stroke-linejoin="round"/>
<rect width="55.3998" height="55.3998" transform="matrix(0.866023 0.500004 -0.866023 0.500004 528.277 1014.17)" fill="#16181D" stroke="#333538" stroke-width="0.75" stroke-linejoin="round"/>
<rect width="55.3998" height="18.0051" transform="matrix(0.866023 0.500004 0 1 480.303 1041.87)" fill="#16181D" stroke="#333538" stroke-width="0.75" stroke-linejoin="round"/>
<rect width="55.3998" height="18.0051" transform="matrix(0.866023 -0.500004 0 1 528.277 1069.57)" fill="#16181D" stroke="#333538" stroke-width="0.75" stroke-linejoin="round"/>
<rect width="55.3998" height="55.3998" transform="matrix(0.866023 0.500004 -0.866023 0.500004 480.297 920.803)" fill="#16181D" stroke="#333538" stroke-width="0.75" stroke-linejoin="round"/>
<rect width="55.3998" height="18.0051" transform="matrix(0.866023 0.500004 0 1 432.322 948.504)" fill="#16181D" stroke="#333538" stroke-width="0.75" stroke-linejoin="round"/>
<rect width="55.3998" height="18.0051" transform="matrix(0.866023 -0.500004 0 1 480.297 976.207)" fill="#16181D" stroke="#333538" stroke-width="0.75" stroke-linejoin="round"/>
<rect width="55.3998" height="55.3998" transform="matrix(0.866023 0.500004 -0.866023 0.500004 432.324 948.488)" fill="#16181D" stroke="#333538" stroke-width="0.75" stroke-linejoin="round"/>
<rect width="55.3998" height="18.0051" transform="matrix(0.866023 0.500004 0 1 384.35 976.189)" fill="#16181D" stroke="#333538" stroke-width="0.75" stroke-linejoin="round"/>
<rect width="55.3998" height="18.0051" transform="matrix(0.866023 -0.500004 0 1 432.326 1003.89)" fill="#16181D" stroke="#333538" stroke-width="0.75" stroke-linejoin="round"/>
<rect width="55.3998" height="55.3998" transform="matrix(0.866023 0.500004 -0.866023 0.500004 384.352 976.213)" fill="#16181D" stroke="#333538" stroke-width="0.75" stroke-linejoin="round"/>
<rect width="55.3998" height="18.0051" transform="matrix(0.866023 0.500004 0 1 336.377 1003.91)" fill="#16181D" stroke="#333538" stroke-width="0.75" stroke-linejoin="round"/>
<rect width="55.3998" height="18.0051" transform="matrix(0.866023 -0.500004 0 1 384.354 1031.62)" fill="#16181D" stroke="#333538" stroke-width="0.75" stroke-linejoin="round"/>
<rect width="55.3998" height="55.3998" transform="matrix(0.866023 0.500004 -0.866023 0.500004 336.367 1003.91)" fill="#16181D" stroke="#333538" stroke-width="0.75" stroke-linejoin="round"/>
<rect width="55.3998" height="18.0051" transform="matrix(0.866023 0.500004 0 1 288.393 1031.61)" fill="#16181D" stroke="#333538" stroke-width="0.75" stroke-linejoin="round"/>
<rect width="55.3998" height="18.0051" transform="matrix(0.866023 -0.500004 0 1 336.369 1059.31)" fill="#16181D" stroke="#333538" stroke-width="0.75" stroke-linejoin="round"/>
<rect width="55.3998" height="55.3998" transform="matrix(0.866023 0.500004 -0.866023 0.500004 336.352 1106.34)" fill="#16181D" stroke="#333538" stroke-width="0.75" stroke-linejoin="round"/>
<rect width="55.3998" height="18.0051" transform="matrix(0.866023 0.500004 0 1 288.377 1134.04)" fill="#16181D" stroke="#333538" stroke-width="0.75" stroke-linejoin="round"/>
<rect width="55.3998" height="18.0051" transform="matrix(0.866023 -0.500004 0 1 336.352 1161.74)" fill="#16181D" stroke="#333538" stroke-width="0.75" stroke-linejoin="round"/>
<rect width="55.3998" height="55.3998" transform="matrix(0.866023 0.500004 -0.866023 0.500004 336.352 1077.46)" fill="#16181D" stroke="#333538" stroke-width="0.75" stroke-linejoin="round"/>
<rect width="55.3998" height="18.0051" transform="matrix(0.866023 0.500004 0 1 288.377 1105.16)" fill="#16181D" stroke="#333538" stroke-width="0.75" stroke-linejoin="round"/>
<rect width="55.3998" height="18.0051" transform="matrix(0.866023 -0.500004 0 1 336.352 1132.86)" fill="#16181D" stroke="#333538" stroke-width="0.75" stroke-linejoin="round"/>
<g clip-path="url(#clip0_2417_277663)">
<rect width="55.3998" height="18.0051" transform="matrix(0.866023 0.500004 0 1 192.408 629.967)" fill="#16181D" stroke="#333538" stroke-width="0.75" stroke-linejoin="round"/>
<rect width="55.3998" height="18.0051" transform="matrix(0.866023 -0.500004 0 1 240.383 657.67)" fill="#16181D" stroke="#333538" stroke-width="0.75" stroke-linejoin="round"/>
<rect width="55.3998" height="55.3998" transform="matrix(0.866023 0.500004 -0.866023 0.500004 192.402 629.945)" fill="#16181D" stroke="#333538" stroke-width="0.75" stroke-linejoin="round"/>
<rect width="55.3998" height="18.0051" transform="matrix(0.866023 0.500004 0 1 144.428 657.646)" fill="#16181D" stroke="#333538" stroke-width="0.75" stroke-linejoin="round"/>
<rect width="55.3998" height="18.0051" transform="matrix(0.866023 -0.500004 0 1 192.402 685.348)" fill="#16181D" stroke="#333538" stroke-width="0.75" stroke-linejoin="round"/>
<rect width="55.3998" height="55.3998" transform="matrix(0.866023 0.500004 -0.866023 0.500004 240.391 657.65)" fill="#16181D" stroke="#333538" stroke-width="0.75" stroke-linejoin="round"/>
<rect width="55.3998" height="18.0051" transform="matrix(0.866023 0.500004 0 1 192.416 685.352)" fill="#16181D" stroke="#333538" stroke-width="0.75" stroke-linejoin="round"/>
<rect width="55.3998" height="18.0051" transform="matrix(0.866023 -0.500004 0 1 240.391 713.055)" fill="#16181D" stroke="#333538" stroke-width="0.75" stroke-linejoin="round"/>
<rect width="55.3998" height="55.3998" transform="matrix(0.866023 0.500004 -0.866023 0.500004 288.373 685.346)" fill="#16181D" stroke="#333538" stroke-width="0.75" stroke-linejoin="round"/>
<rect width="55.3998" height="18.0051" transform="matrix(0.866023 0.500004 0 1 240.398 713.047)" fill="#16181D" stroke="#333538" stroke-width="0.75" stroke-linejoin="round"/>
<rect width="55.3998" height="18.0051" transform="matrix(0.866023 -0.500004 0 1 288.375 740.75)" fill="#16181D" stroke="#333538" stroke-width="0.75" stroke-linejoin="round"/>
<rect width="55.3998" height="55.3998" transform="matrix(0.866023 0.500004 -0.866023 0.500004 144.43 657.65)" fill="#16181D" stroke="#333538" stroke-width="0.75" stroke-linejoin="round"/>
<rect width="55.3998" height="18.0051" transform="matrix(0.866023 0.500004 0 1 96.4551 685.352)" fill="#16181D" stroke="#333538" stroke-width="0.75" stroke-linejoin="round"/>
<rect width="55.3998" height="18.0051" transform="matrix(0.866023 -0.500004 0 1 144.432 713.055)" fill="#16181D" stroke="#333538" stroke-width="0.75" stroke-linejoin="round"/>
<rect width="55.3998" height="55.3998" transform="matrix(0.866023 0.500004 -0.866023 0.500004 96.457 685.344)" fill="#16181D" stroke="#333538" stroke-width="0.75" stroke-linejoin="round"/>
<rect width="55.3998" height="18.0051" transform="matrix(0.866023 0.500004 0 1 48.4824 713.045)" fill="#16181D" stroke="#333538" stroke-width="0.75" stroke-linejoin="round"/>
<rect width="55.3998" height="18.0051" transform="matrix(0.866023 -0.500004 0 1 96.457 740.748)" fill="#16181D" stroke="#333538" stroke-width="0.75" stroke-linejoin="round"/>
<rect width="55.3998" height="55.3998" transform="matrix(0.866023 0.500004 -0.866023 0.500004 48.4766 713.041)" fill="#16181D" stroke="#333538" stroke-width="0.75" stroke-linejoin="round"/>
<rect width="55.3998" height="18.0051" transform="matrix(0.866023 0.500004 0 1 0.501953 740.742)" fill="#16181D" stroke="#333538" stroke-width="0.75" stroke-linejoin="round"/>
<rect width="55.3998" height="18.0051" transform="matrix(0.866023 -0.500004 0 1 48.4766 768.445)" fill="#16181D" stroke="#333538" stroke-width="0.75" stroke-linejoin="round"/>
<path d="M432.385 1021.77V730.9" stroke="#333538" stroke-width="0.75" stroke-linejoin="round"/>
<path d="M384.383 1028.58V757.83" stroke="#333538" stroke-width="0.75" stroke-linejoin="round"/>
<path d="M336.354 1028.57V786.043" stroke="#333538" stroke-width="0.75" stroke-linejoin="round"/>
<path d="M288.379 1031.83V813.564" stroke="#333538" stroke-width="0.75" stroke-linejoin="round"/>
<path d="M240.385 895.24V841.068" stroke="#333538" stroke-width="0.75" stroke-linejoin="round"/>
<path d="M192.35 923.433V869.262" stroke="#333538" stroke-width="0.75" stroke-linejoin="round"/>
<rect width="55.3998" height="55.3998" transform="matrix(0.866023 0.500004 -0.866023 0.500004 432.301 657.646)" fill="#16181D" stroke="#333538" stroke-width="0.75" stroke-linejoin="round"/>
<rect width="55.3998" height="18.0051" transform="matrix(0.866023 0.500004 0 1 384.326 685.348)" fill="#16181D" stroke="#333538" stroke-width="0.75" stroke-linejoin="round"/>
<rect width="55.3998" height="18.0051" transform="matrix(0.866023 -0.500004 0 1 432.303 713.049)" fill="#16181D" stroke="#333538" stroke-width="0.75" stroke-linejoin="round"/>
<rect width="55.3998" height="55.3998" transform="matrix(0.866023 0.500004 -0.866023 0.500004 384.322 685.367)" fill="#16181D" stroke="#333538" stroke-width="0.75" stroke-linejoin="round"/>
<rect width="55.3998" height="18.0051" transform="matrix(0.866023 0.500004 0 1 336.348 713.068)" fill="#16181D" stroke="#333538" stroke-width="0.75" stroke-linejoin="round"/>
<rect width="55.3998" height="18.0051" transform="matrix(0.866023 -0.500004 0 1 384.324 740.771)" fill="#16181D" stroke="#333538" stroke-width="0.75" stroke-linejoin="round"/>
<rect width="55.3998" height="55.3998" transform="matrix(0.866023 0.500004 -0.866023 0.500004 336.344 713.053)" fill="#16181D" stroke="#333538" stroke-width="0.75" stroke-linejoin="round"/>
<rect width="55.3998" height="18.0051" transform="matrix(0.866023 0.500004 0 1 288.369 740.756)" fill="#16181D" stroke="#333538" stroke-width="0.75" stroke-linejoin="round"/>
<rect width="55.3998" height="18.0051" transform="matrix(0.866023 -0.500004 0 1 336.346 768.463)" fill="#16181D" stroke="#333538" stroke-width="0.75" stroke-linejoin="round"/>
<rect width="55.3998" height="55.3998" transform="matrix(0.866023 0.500004 -0.866023 0.500004 288.371 740.762)" fill="#16181D" stroke="#333538" stroke-width="0.75" stroke-linejoin="round"/>
<rect width="55.3998" height="18.0051" transform="matrix(0.866023 0.500004 0 1 240.396 768.463)" fill="#16181D" stroke="#333538" stroke-width="0.75" stroke-linejoin="round"/>
<rect width="55.3998" height="18.0051" transform="matrix(0.866023 -0.500004 0 1 288.373 796.164)" fill="#16181D" stroke="#333538" stroke-width="0.75" stroke-linejoin="round"/>
<rect width="55.3998" height="55.3998" transform="matrix(0.866023 0.500004 -0.866023 0.500004 240.396 768.467)" fill="#16181D" stroke="#333538" stroke-width="0.75" stroke-linejoin="round"/>
<rect width="55.3998" height="18.0051" transform="matrix(0.866023 0.500004 0 1 192.422 796.168)" fill="#16181D" stroke="#333538" stroke-width="0.75" stroke-linejoin="round"/>
<rect width="55.3998" height="18.0051" transform="matrix(0.866023 -0.500004 0 1 240.398 823.871)" fill="#16181D" stroke="#333538" stroke-width="0.75" stroke-linejoin="round"/>
<rect width="55.3998" height="55.3998" transform="matrix(0.866023 0.500004 -0.866023 0.500004 192.416 796.164)" fill="#16181D" stroke="#333538" stroke-width="0.75" stroke-linejoin="round"/>
<rect width="55.3998" height="18.0051" transform="matrix(0.866023 0.500004 0 1 144.441 823.865)" fill="#16181D" stroke="#333538" stroke-width="0.75" stroke-linejoin="round"/>
<rect width="55.3998" height="18.0051" transform="matrix(0.866023 -0.500004 0 1 192.418 851.566)" fill="#16181D" stroke="#333538" stroke-width="0.75" stroke-linejoin="round"/>
<rect width="55.3998" height="55.3998" transform="matrix(0.866023 0.500004 -0.866023 0.500004 432.316 783.5)" fill="#16181D" stroke="#333538" stroke-width="0.75" stroke-linejoin="round"/>
<rect width="55.3998" height="18.0051" transform="matrix(0.866023 0.500004 0 1 384.342 811.201)" fill="#16181D" stroke="#333538" stroke-width="0.75" stroke-linejoin="round"/>
<rect width="55.3998" height="18.0051" transform="matrix(0.866023 -0.500004 0 1 432.318 838.902)" fill="#16181D" stroke="#333538" stroke-width="0.75" stroke-linejoin="round"/>
<rect width="55.3998" height="55.3998" transform="matrix(0.866023 0.500004 -0.866023 0.500004 384.336 811.229)" fill="#16181D" stroke="#333538" stroke-width="0.75" stroke-linejoin="round"/>
<rect width="55.3998" height="18.0051" transform="matrix(0.866023 0.500004 0 1 336.361 838.93)" fill="#16181D" stroke="#333538" stroke-width="0.75" stroke-linejoin="round"/>
<rect width="55.3998" height="18.0051" transform="matrix(0.866023 -0.500004 0 1 384.338 866.631)" fill="#16181D" stroke="#333538" stroke-width="0.75" stroke-linejoin="round"/>
<rect width="55.3998" height="55.3998" transform="matrix(0.866023 0.500004 -0.866023 0.500004 336.357 838.92)" fill="#16181D" stroke="#333538" stroke-width="0.75" stroke-linejoin="round"/>
<rect width="55.3998" height="18.0051" transform="matrix(0.866023 0.500004 0 1 288.383 866.621)" fill="#16181D" stroke="#333538" stroke-width="0.75" stroke-linejoin="round"/>
<rect width="55.3998" height="18.0051" transform="matrix(0.866023 -0.500004 0 1 336.357 894.324)" fill="#16181D" stroke="#333538" stroke-width="0.75" stroke-linejoin="round"/>
<rect width="55.3998" height="55.3998" transform="matrix(0.866023 0.500004 -0.866023 0.500004 384.34 866.615)" fill="#16181D" stroke="#333538" stroke-width="0.75" stroke-linejoin="round"/>
<rect width="55.3998" height="18.0051" transform="matrix(0.866023 0.500004 0 1 336.365 894.316)" fill="#16181D" stroke="#333538" stroke-width="0.75" stroke-linejoin="round"/>
<rect width="55.3998" height="18.0051" transform="matrix(0.866023 -0.500004 0 1 384.342 922.018)" fill="#16181D" stroke="#333538" stroke-width="0.75" stroke-linejoin="round"/>
<rect width="55.3998" height="55.3998" transform="matrix(0.866023 0.500004 -0.866023 0.500004 432.324 894.338)" fill="#16181D" stroke="#333538" stroke-width="0.75" stroke-linejoin="round"/>
<rect width="55.3998" height="18.0051" transform="matrix(0.866023 0.500004 0 1 384.348 922.039)" fill="#16181D" stroke="#333538" stroke-width="0.75" stroke-linejoin="round"/>
<rect width="55.3998" height="18.0051" transform="matrix(0.866023 -0.500004 0 1 432.324 949.742)" fill="#16181D" stroke="#333538" stroke-width="0.75" stroke-linejoin="round"/>
<rect width="55.3998" height="55.3998" transform="matrix(0.866023 0.500004 -0.866023 0.500004 288.385 866.615)" fill="#16181D" stroke="#333538" stroke-width="0.75" stroke-linejoin="round"/>
<rect width="55.3998" height="18.0051" transform="matrix(0.866023 0.500004 0 1 240.408 894.316)" fill="#16181D" stroke="#333538" stroke-width="0.75" stroke-linejoin="round"/>
<rect width="55.3998" height="18.0051" transform="matrix(0.866023 -0.500004 0 1 288.385 922.018)" fill="#16181D" stroke="#333538" stroke-width="0.75" stroke-linejoin="round"/>
<rect width="55.3998" height="55.3998" transform="matrix(0.866023 0.500004 -0.866023 0.500004 240.438 894.338)" fill="#16181D" stroke="#333538" stroke-width="0.75" stroke-linejoin="round"/>
<rect width="55.3998" height="18.0051" transform="matrix(0.866023 0.500004 0 1 192.463 922.039)" fill="#16181D" stroke="#333538" stroke-width="0.75" stroke-linejoin="round"/>
<rect width="55.3998" height="18.0051" transform="matrix(0.866023 -0.500004 0 1 240.438 949.742)" fill="#16181D" stroke="#333538" stroke-width="0.75" stroke-linejoin="round"/>
<rect width="55.3998" height="55.3998" transform="matrix(0.866023 0.500004 -0.866023 0.500004 192.43 922.025)" fill="#16181D" stroke="#333538" stroke-width="0.75" stroke-linejoin="round"/>
<rect width="55.3998" height="18.0051" transform="matrix(0.866023 0.500004 0 1 144.455 949.727)" fill="#16181D" stroke="#333538" stroke-width="0.75" stroke-linejoin="round"/>
<rect width="55.3998" height="18.0051" transform="matrix(0.866023 -0.500004 0 1 192.43 977.422)" fill="#16181D" stroke="#333538" stroke-width="0.75" stroke-linejoin="round"/>
<rect width="55.3998" height="55.3998" transform="matrix(0.866023 0.500004 -0.866023 0.500004 528.279 1041.69)" fill="#16181D" stroke="#333538" stroke-width="0.75" stroke-linejoin="round"/>
<rect width="55.3998" height="18.0051" transform="matrix(0.866023 0.500004 0 1 480.305 1069.39)" fill="#16181D" stroke="#333538" stroke-width="0.75" stroke-linejoin="round"/>
<rect width="55.3998" height="18.0051" transform="matrix(0.866023 -0.500004 0 1 528.279 1097.1)" fill="#16181D" stroke="#333538" stroke-width="0.75" stroke-linejoin="round"/>
<rect width="55.3998" height="55.3998" transform="matrix(0.866023 0.500004 -0.866023 0.500004 528.277 1118.04)" fill="#16181D" stroke="#333538" stroke-width="0.75" stroke-linejoin="round"/>
<rect width="55.3998" height="18.0051" transform="matrix(0.866023 0.500004 0 1 480.303 1145.75)" fill="#16181D" stroke="#333538" stroke-width="0.75" stroke-linejoin="round"/>
<rect width="55.3998" height="18.0051" transform="matrix(0.866023 -0.500004 0 1 528.277 1173.45)" fill="#16181D" stroke="#333538" stroke-width="0.75" stroke-linejoin="round"/>
<rect width="55.3998" height="55.3998" transform="matrix(0.866023 0.500004 -0.866023 0.500004 336.352 1161.4)" fill="#16181D" stroke="#333538" stroke-width="0.75" stroke-linejoin="round"/>
<rect width="55.3998" height="18.0051" transform="matrix(0.866023 0.500004 0 1 288.377 1189.1)" fill="#16181D" stroke="#333538" stroke-width="0.75" stroke-linejoin="round"/>
<rect width="55.3998" height="18.0051" transform="matrix(0.866023 -0.500004 0 1 336.354 1216.8)" fill="#16181D" stroke="#333538" stroke-width="0.75" stroke-linejoin="round"/>
<rect width="55.3998" height="55.3998" transform="matrix(0.866023 0.500004 -0.866023 0.500004 576.256 865.385)" fill="#16181D" stroke="#333538" stroke-width="0.75" stroke-linejoin="round"/>
<rect width="55.3998" height="18.0051" transform="matrix(0.866023 0.500004 0 1 528.281 893.086)" fill="#16181D" stroke="#333538" stroke-width="0.75" stroke-linejoin="round"/>
<rect width="55.3998" height="18.0051" transform="matrix(0.866023 -0.500004 0 1 576.256 920.789)" fill="#16181D" stroke="#333538" stroke-width="0.75" stroke-linejoin="round"/>
<rect width="55.3998" height="55.3998" transform="matrix(0.866023 0.500004 -0.866023 0.500004 528.279 893.107)" fill="#16181D" stroke="#333538" stroke-width="0.75" stroke-linejoin="round"/>
<rect width="55.3998" height="18.0051" transform="matrix(0.866023 0.500004 0 1 480.305 920.807)" fill="#16181D" stroke="#333538" stroke-width="0.75" stroke-linejoin="round"/>
<rect width="55.3998" height="18.0051" transform="matrix(0.866023 -0.500004 0 1 528.279 948.51)" fill="#16181D" stroke="#333538" stroke-width="0.75" stroke-linejoin="round"/>
<rect width="55.3998" height="55.3998" transform="matrix(0.866023 0.500004 -0.866023 0.500004 528.277 1014.17)" fill="#16181D" stroke="#333538" stroke-width="0.75" stroke-linejoin="round"/>
<rect width="55.3998" height="18.0051" transform="matrix(0.866023 0.500004 0 1 480.303 1041.87)" fill="#16181D" stroke="#333538" stroke-width="0.75" stroke-linejoin="round"/>
<rect width="55.3998" height="18.0051" transform="matrix(0.866023 -0.500004 0 1 528.277 1069.57)" fill="#16181D" stroke="#333538" stroke-width="0.75" stroke-linejoin="round"/>
<rect width="55.3998" height="55.3998" transform="matrix(0.866023 0.500004 -0.866023 0.500004 480.297 920.803)" fill="#16181D" stroke="#333538" stroke-width="0.75" stroke-linejoin="round"/>
<rect width="55.3998" height="18.0051" transform="matrix(0.866023 0.500004 0 1 432.322 948.504)" fill="#16181D" stroke="#333538" stroke-width="0.75" stroke-linejoin="round"/>
<rect width="55.3998" height="18.0051" transform="matrix(0.866023 -0.500004 0 1 480.297 976.207)" fill="#16181D" stroke="#333538" stroke-width="0.75" stroke-linejoin="round"/>
<rect width="55.3998" height="55.3998" transform="matrix(0.866023 0.500004 -0.866023 0.500004 432.324 948.488)" fill="#16181D" stroke="#333538" stroke-width="0.75" stroke-linejoin="round"/>
<rect width="55.3998" height="18.0051" transform="matrix(0.866023 0.500004 0 1 384.35 976.189)" fill="#16181D" stroke="#333538" stroke-width="0.75" stroke-linejoin="round"/>
<rect width="55.3998" height="18.0051" transform="matrix(0.866023 -0.500004 0 1 432.326 1003.89)" fill="#16181D" stroke="#333538" stroke-width="0.75" stroke-linejoin="round"/>
<rect width="55.3998" height="55.3998" transform="matrix(0.866023 0.500004 -0.866023 0.500004 384.352 976.213)" fill="#16181D" stroke="#333538" stroke-width="0.75" stroke-linejoin="round"/>
<rect width="55.3998" height="18.0051" transform="matrix(0.866023 0.500004 0 1 336.377 1003.91)" fill="#16181D" stroke="#333538" stroke-width="0.75" stroke-linejoin="round"/>
<rect width="55.3998" height="18.0051" transform="matrix(0.866023 -0.500004 0 1 384.354 1031.62)" fill="#16181D" stroke="#333538" stroke-width="0.75" stroke-linejoin="round"/>
<rect width="55.3998" height="55.3998" transform="matrix(0.866023 0.500004 -0.866023 0.500004 336.367 1003.91)" fill="#16181D" stroke="#333538" stroke-width="0.75" stroke-linejoin="round"/>
<rect width="55.3998" height="18.0051" transform="matrix(0.866023 0.500004 0 1 288.393 1031.61)" fill="#16181D" stroke="#333538" stroke-width="0.75" stroke-linejoin="round"/>
<rect width="55.3998" height="18.0051" transform="matrix(0.866023 -0.500004 0 1 336.369 1059.31)" fill="#16181D" stroke="#333538" stroke-width="0.75" stroke-linejoin="round"/>
<rect width="55.3998" height="55.3998" transform="matrix(0.866023 0.500004 -0.866023 0.500004 336.352 1106.34)" fill="#16181D" stroke="#333538" stroke-width="0.75" stroke-linejoin="round"/>
<rect width="55.3998" height="18.0051" transform="matrix(0.866023 0.500004 0 1 288.377 1134.04)" fill="#16181D" stroke="#333538" stroke-width="0.75" stroke-linejoin="round"/>
<rect width="55.3998" height="18.0051" transform="matrix(0.866023 -0.500004 0 1 336.352 1161.74)" fill="#16181D" stroke="#333538" stroke-width="0.75" stroke-linejoin="round"/>
<rect width="55.3998" height="55.3998" transform="matrix(0.866023 0.500004 -0.866023 0.500004 336.352 1077.46)" fill="#16181D" stroke="#333538" stroke-width="0.75" stroke-linejoin="round"/>
<rect width="55.3998" height="18.0051" transform="matrix(0.866023 0.500004 0 1 288.377 1105.16)" fill="#16181D" stroke="#333538" stroke-width="0.75" stroke-linejoin="round"/>
<rect width="55.3998" height="18.0051" transform="matrix(0.866023 -0.500004 0 1 336.352 1132.86)" fill="#16181D" stroke="#333538" stroke-width="0.75" stroke-linejoin="round"/>
</g>
<rect x="24.3672" y="663.186" width="576" height="528" stroke="#333538" stroke-width="0.75"/>
<path d="M336.365 0L336.363 602" stroke="url(#paint0_linear_2417_277663)" stroke-width="0.752692" stroke-linejoin="round"/>
<defs>
<linearGradient id="paint0_linear_2417_277663" x1="336.863" y1="39" x2="336.863" y2="843" gradientUnits="userSpaceOnUse">
<stop stop-color="#333538"/>
<stop offset="1" stop-color="#282C34"/>
</linearGradient>
<clipPath id="clip0_2417_277663">
<rect x="24.3672" y="663.186" width="576" height="528" fill="white"/>
</clipPath>
</defs>
</svg>
