<svg width="2100" height="1226" viewBox="0 0 2100 1226" fill="none" xmlns="http://www.w3.org/2000/svg">
<line opacity="0.5" x1="2100" y1="0.5" x2="-4.78094e-08" y2="0.499832" stroke="#D2D3D5"/>
<line opacity="0.45" x1="2100" y1="18.5" y2="18.5" stroke="#D2D3D5"/>
<path opacity="0.4" d="M2100 36H5.81034e-05" stroke="#D2D3D5"/>
<path opacity="0.35" d="M2100 54.0002L3.32615e-05 55.0138" stroke="#D2D3D5"/>
<line opacity="0.3" x1="2100" y1="73.5" y2="73.5" stroke="#D2D3D5"/>
<line opacity="0.25" x1="2100" y1="91.5" y2="91.5" stroke="#D2D3D5"/>
<line opacity="0.2" x1="2100" y1="109.5" y2="109.5" stroke="#D2D3D5"/>
<line opacity="0.15" x1="2100" y1="127.5" y2="127.5" stroke="#D2D3D5"/>
<line opacity="0.1" x1="2100" y1="145.5" x2="-5.46684e-08" y2="145.5" stroke="#D2D3D5"/>
<line opacity="0.05" x1="2100" y1="163.5" x2="-5.46684e-08" y2="163.5" stroke="#D2D3D5"/>
<line opacity="0.05" x1="2100" y1="181.5" x2="-5.46684e-08" y2="181.5" stroke="#D2D3D5"/>
<line opacity="0.05" x1="2100" y1="199.5" x2="-5.46684e-08" y2="199.5" stroke="#D2D3D5"/>
<line opacity="0.05" x1="2100" y1="217.5" x2="-5.46684e-08" y2="217.5" stroke="#D2D3D5"/>
<path opacity="0.05" d="M2100 235L5.81034e-05 235" stroke="#D2D3D5"/>
<line opacity="0.05" x1="2100" y1="253.5" x2="-5.46684e-08" y2="253.5" stroke="#D2D3D5"/>
<line opacity="0.05" x1="2100" y1="271.5" x2="-5.46684e-08" y2="271.5" stroke="#D2D3D5"/>
<line opacity="0.05" x1="2100" y1="289.5" x2="-5.46684e-08" y2="289.5" stroke="#D2D3D5"/>
<line opacity="0.05" x1="2100" y1="307.5" x2="-5.46684e-08" y2="307.5" stroke="#D2D3D5"/>
<line opacity="0.05" x1="2100" y1="325.5" x2="-4.78094e-08" y2="325.5" stroke="#D2D3D5"/>
<line opacity="0.05" x1="2100" y1="343.5" x2="-4.78094e-08" y2="343.5" stroke="#D2D3D5"/>
<path opacity="0.05" d="M2100 361L5.81034e-05 361" stroke="#D2D3D5"/>
<line opacity="0.05" x1="2100" y1="379.5" x2="-4.78094e-08" y2="379.5" stroke="#D2D3D5"/>
<line opacity="0.05" x1="2100" y1="397.5" x2="-4.78094e-08" y2="397.5" stroke="#D2D3D5"/>
<line opacity="0.05" x1="2100" y1="415.5" x2="-4.78094e-08" y2="415.5" stroke="#D2D3D5"/>
<line opacity="0.05" x1="2100" y1="433.5" x2="-4.78094e-08" y2="433.5" stroke="#D2D3D5"/>
<line opacity="0.05" x1="2100" y1="451.5" x2="-4.78094e-08" y2="451.5" stroke="#D2D3D5"/>
<line opacity="0.05" x1="2100" y1="469.5" x2="-4.78094e-08" y2="469.5" stroke="#D2D3D5"/>
<path opacity="0.05" d="M2100 487L-3.67165e-05 487" stroke="#D2D3D5"/>
<path opacity="0.05" d="M2100 505L-3.67165e-05 505" stroke="#D2D3D5"/>
<path opacity="0.05" d="M2100 523L-3.67165e-05 523" stroke="#D2D3D5"/>
<path opacity="0.05" d="M2100 541L-3.67165e-05 541" stroke="#D2D3D5"/>
<path opacity="0.05" d="M2100 559L-3.67165e-05 559" stroke="#D2D3D5"/>
<path opacity="0.05" d="M2100 577L-3.67165e-05 577" stroke="#D2D3D5"/>
<path opacity="0.05" d="M2100 595L-3.67165e-05 595" stroke="#D2D3D5"/>
<path opacity="0.05" d="M2100 613L-3.67165e-05 613" stroke="#D2D3D5"/>
<path opacity="0.05" d="M2100 631L-3.67165e-05 631" stroke="#D2D3D5"/>
<path opacity="0.05" d="M2100 649L-3.67165e-05 649" stroke="#D2D3D5"/>
<path opacity="0.05" d="M2100 667L-3.67165e-05 667" stroke="#D2D3D5"/>
<path opacity="0.1" d="M2100 685L-3.67165e-05 685" stroke="#D2D3D5"/>
<path opacity="0.15" d="M2100 703L-3.67165e-05 703" stroke="#D2D3D5"/>
<path opacity="0.2" d="M2100 721L-3.67165e-05 721" stroke="#D2D3D5"/>
<path opacity="0.25" d="M2100 739L-3.67165e-05 739" stroke="#D2D3D5"/>
<path opacity="0.3" d="M2100 757L-3.67165e-05 757" stroke="#D2D3D5"/>
<path opacity="0.35" d="M2100 775L-3.67165e-05 775" stroke="#D2D3D5"/>
<path opacity="0.4" d="M2100 793L-3.67165e-05 793" stroke="#D2D3D5"/>
<path opacity="0.45" d="M2100 811L-3.67165e-05 811" stroke="#D2D3D5"/>
<path opacity="0.5" d="M2100 829L-3.67165e-05 829" stroke="#D2D3D5"/>
<path opacity="0.45" d="M2100 847L-3.67165e-05 847" stroke="#D2D3D5"/>
<path opacity="0.4" d="M2100 865L-3.67165e-05 865" stroke="#D2D3D5"/>
<path opacity="0.35" d="M2100 883L-3.67165e-05 883" stroke="#D2D3D5"/>
<path opacity="0.3" d="M2100 901L-3.67165e-05 901" stroke="#D2D3D5"/>
<path opacity="0.25" d="M2100 919L-3.67165e-05 919" stroke="#D2D3D5"/>
<path opacity="0.2" d="M2100 937L-3.67165e-05 937" stroke="#D2D3D5"/>
<path opacity="0.15" d="M2100 955L-3.67165e-05 955" stroke="#D2D3D5"/>
<path opacity="0.1" d="M2100 973L-3.67165e-05 973" stroke="#D2D3D5"/>
<path opacity="0.05" d="M2100 991L-3.67165e-05 991" stroke="#D2D3D5"/>
<path opacity="0.05" d="M2100 1009L-3.67165e-05 1009" stroke="#D2D3D5"/>
<path opacity="0.05" d="M2100 1027L-3.67165e-05 1027" stroke="#D2D3D5"/>
<path opacity="0.05" d="M2100 1045L-3.67165e-05 1045" stroke="#D2D3D5"/>
<path opacity="0.05" d="M2100 1063L-3.67165e-05 1063" stroke="#D2D3D5"/>
<path opacity="0.05" d="M2100 1081L-3.67165e-05 1081" stroke="#D2D3D5"/>
<path opacity="0.05" d="M2100 1099L-3.67165e-05 1099" stroke="#D2D3D5"/>
<path opacity="0.05" d="M2100 1117L-3.67165e-05 1117" stroke="#D2D3D5"/>
<path opacity="0.05" d="M2100 1135L-3.67165e-05 1135" stroke="#D2D3D5"/>
<path opacity="0.05" d="M2100 1153L-3.67165e-05 1153" stroke="#D2D3D5"/>
<path opacity="0.05" d="M2100 1171L-3.67165e-05 1171" stroke="#D2D3D5"/>
<path opacity="0.05" d="M2100 1189L-3.67165e-05 1189" stroke="#D2D3D5"/>
<path opacity="0.05" d="M2100 1207L-3.67165e-05 1207" stroke="#D2D3D5"/>
<path opacity="0.05" d="M2100 1225L-3.67165e-05 1225" stroke="#D2D3D5"/>
</svg>
