<svg width="2030" height="1226" viewBox="0 0 2030 1226" fill="none" xmlns="http://www.w3.org/2000/svg">
<line opacity="0.5" x1="2030" y1="0.5" x2="-70" y2="0.499832" stroke="#333538"/>
<line opacity="0.45" x1="2030" y1="18.5" x2="-70" y2="18.5" stroke="#333538"/>
<path opacity="0.4" d="M2030 36H-69.9999" stroke="#333538"/>
<path opacity="0.35" d="M2030 54.0002L-70 55.0138" stroke="#333538"/>
<line opacity="0.3" x1="2030" y1="73.5" x2="-70" y2="73.5" stroke="#333538"/>
<line opacity="0.25" x1="2030" y1="91.5" x2="-70" y2="91.5" stroke="#333538"/>
<line opacity="0.2" x1="2030" y1="109.5" x2="-70" y2="109.5" stroke="#333538"/>
<line opacity="0.15" x1="2030" y1="127.5" x2="-70" y2="127.5" stroke="#333538"/>
<line opacity="0.1" x1="2030" y1="145.5" x2="-70" y2="145.5" stroke="#333538"/>
<line opacity="0.05" x1="2030" y1="163.5" x2="-70" y2="163.5" stroke="#333538"/>
<line opacity="0.05" x1="2030" y1="181.5" x2="-70" y2="181.5" stroke="#333538"/>
<line opacity="0.05" x1="2030" y1="199.5" x2="-70" y2="199.5" stroke="#333538"/>
<line opacity="0.05" x1="2030" y1="217.5" x2="-70" y2="217.5" stroke="#333538"/>
<path opacity="0.05" d="M2030 235L-69.9999 235" stroke="#333538"/>
<line opacity="0.05" x1="2030" y1="253.5" x2="-70" y2="253.5" stroke="#333538"/>
<line opacity="0.05" x1="2030" y1="271.5" x2="-70" y2="271.5" stroke="#333538"/>
<line opacity="0.05" x1="2030" y1="289.5" x2="-70" y2="289.5" stroke="#333538"/>
<line opacity="0.05" x1="2030" y1="307.5" x2="-70" y2="307.5" stroke="#333538"/>
<line opacity="0.05" x1="2030" y1="325.5" x2="-70" y2="325.5" stroke="#333538"/>
<line opacity="0.05" x1="2030" y1="343.5" x2="-70" y2="343.5" stroke="#333538"/>
<path opacity="0.05" d="M2030 361L-69.9999 361" stroke="#333538"/>
<line opacity="0.05" x1="2030" y1="379.5" x2="-70" y2="379.5" stroke="#333538"/>
<line opacity="0.05" x1="2030" y1="397.5" x2="-70" y2="397.5" stroke="#333538"/>
<line opacity="0.05" x1="2030" y1="415.5" x2="-70" y2="415.5" stroke="#333538"/>
<line opacity="0.05" x1="2030" y1="433.5" x2="-70" y2="433.5" stroke="#333538"/>
<line opacity="0.05" x1="2030" y1="451.5" x2="-70" y2="451.5" stroke="#333538"/>
<line opacity="0.05" x1="2030" y1="469.5" x2="-70" y2="469.5" stroke="#333538"/>
<path opacity="0.05" d="M2030 487L-70 487" stroke="#333538"/>
<path opacity="0.05" d="M2030 505L-70 505" stroke="#333538"/>
<path opacity="0.05" d="M2030 523L-70 523" stroke="#333538"/>
<path opacity="0.05" d="M2030 541L-70 541" stroke="#333538"/>
<path opacity="0.05" d="M2030 559L-70 559" stroke="#333538"/>
<path opacity="0.05" d="M2030 577L-70 577" stroke="#333538"/>
<path opacity="0.05" d="M2030 595L-70 595" stroke="#333538"/>
<path opacity="0.05" d="M2030 613L-70 613" stroke="#333538"/>
<path opacity="0.05" d="M2030 631L-70 631" stroke="#333538"/>
<path opacity="0.05" d="M2030 649L-70 649" stroke="#333538"/>
<path opacity="0.05" d="M2030 667L-70 667" stroke="#333538"/>
<path opacity="0.1" d="M2030 685L-70 685" stroke="#333538"/>
<path opacity="0.15" d="M2030 703L-70 703" stroke="#333538"/>
<path opacity="0.2" d="M2030 721L-70 721" stroke="#333538"/>
<path opacity="0.25" d="M2030 739L-70 739" stroke="#333538"/>
<path opacity="0.3" d="M2030 757L-70 757" stroke="#333538"/>
<path opacity="0.35" d="M2030 775L-70 775" stroke="#333538"/>
<path opacity="0.4" d="M2030 793L-70 793" stroke="#333538"/>
<path opacity="0.45" d="M2030 811L-70 811" stroke="#333538"/>
<path opacity="0.5" d="M2030 829L-70 829" stroke="#333538"/>
<path opacity="0.45" d="M2030 847L-70 847" stroke="#333538"/>
<path opacity="0.4" d="M2030 865L-70 865" stroke="#333538"/>
<path opacity="0.35" d="M2030 883L-70 883" stroke="#333538"/>
<path opacity="0.3" d="M2030 901L-70 901" stroke="#333538"/>
<path opacity="0.25" d="M2030 919L-70 919" stroke="#333538"/>
<path opacity="0.2" d="M2030 937L-70 937" stroke="#333538"/>
<path opacity="0.15" d="M2030 955L-70 955" stroke="#333538"/>
<path opacity="0.1" d="M2030 973L-70 973" stroke="#333538"/>
<path opacity="0.05" d="M2030 991L-70 991" stroke="#333538"/>
<path opacity="0.05" d="M2030 1009L-70 1009" stroke="#333538"/>
<path opacity="0.05" d="M2030 1027L-70 1027" stroke="#333538"/>
<path opacity="0.05" d="M2030 1045L-70 1045" stroke="#333538"/>
<path opacity="0.05" d="M2030 1063L-70 1063" stroke="#333538"/>
<path opacity="0.05" d="M2030 1081L-70 1081" stroke="#333538"/>
<path opacity="0.05" d="M2030 1099L-70 1099" stroke="#333538"/>
<path opacity="0.05" d="M2030 1117L-70 1117" stroke="#333538"/>
<path opacity="0.05" d="M2030 1135L-70 1135" stroke="#333538"/>
<path opacity="0.05" d="M2030 1153L-70 1153" stroke="#333538"/>
<path opacity="0.05" d="M2030 1171L-70 1171" stroke="#333538"/>
<path opacity="0.05" d="M2030 1189L-70 1189" stroke="#333538"/>
<path opacity="0.05" d="M2030 1207L-70 1207" stroke="#333538"/>
<path opacity="0.05" d="M2030 1225L-70 1225" stroke="#333538"/>
</svg>
