<svg width="39" height="18" fill="none" xmlns="http://www.w3.org/2000/svg"><path d="M36.169 16.131a5.568 5.568 0 0 0 1.92-4l.25-4.56a5.501 5.501 0 0 0-1.46-4.15 5.58 5.58 0 0 0-4.05-1.88 5.5 5.5 0 0 0-4.19 1.42 5.72 5.72 0 0 0-2 4l-.25 4.52a5.519 5.519 0 0 0 1.5 4.19 5.87 5.87 0 0 0 8.24.46h.04ZM11.768 10.651l.26-4.6a5.702 5.702 0 0 0-1.51-4.15 5.54 5.54 0 0 0-4-1.85 5.61 5.61 0 0 0-4.2 1.46 5.69 5.69 0 0 0-2 4l-.22 4.54a5.6 5.6 0 0 0 1.46 4.19 5.62 5.62 0 0 0 4.05 1.92 5.73 5.73 0 0 0 4.23-1.45 5.61 5.61 0 0 0 1.93-4.06Z" fill="#262223"/></svg>