<svg width="273" height="174" fill="none" xmlns="http://www.w3.org/2000/svg"><path d="M255.265 173.406a38.02 38.02 0 0 0-4.55-10.7c-1.867-7.1-5.067-12.517-9.6-16.25-4.24-3.5-7.807-4.284-10.7-2.35-.34.9-3.674 4.233-10 10a17.003 17.003 0 0 1-1.83-5.55 16.666 16.666 0 0 1 2.58-12.3 16.403 16.403 0 0 0-11.9 2.15c-5.04 3.033-8.6 8.85-10.68 17.45-.14.5.21 1.91 1.05 4.25.574 1.413.977 2.89 1.2 4.4l-.8 2.8a13.263 13.263 0 0 0 .1 6.1h55.13Z" fill="#EDD131"/><path d="m253.152 167.338-1.068-2.171-1.138-2.085a183.456 183.456 0 0 1-30.782 2.436c-10.667 0-19-.617-25-1.85l-1 4.55c6.333 1.3 14.783 1.95 25.35 1.95 10.863.078 22.92-1.055 33.638-2.83Z" fill="url(#a)"/><path d="M229.315 167.506a8.233 8.233 0 0 0 5.05-1.4 15.01 15.01 0 0 0 2.3-2.15s1.38.21 4.05.75 4.6.4 5.4-.1c1.26-.84 2-2.39 2.2-4.65a10.654 10.654 0 0 0-.6-4.95c-.15-.37-.31-.72-.47-1.07a25.842 25.842 0 0 0-6.13-7.48c-4.24-3.5-7.807-4.284-10.7-2.35-.34.9-11.69-4.15-9.25-7.85a16.403 16.403 0 0 0-11.9 2.15c-5.04 3.033-8.6 8.85-10.68 17.45-.14.5.21 1.91 1.05 4.25.45 1.33.77 2.36 1 3.11l28.68 4.29Z" fill="#F2EDDC"/><path d="m99.967 63.026-90.43 11.35 8.64 68.79a16.539 16.539 0 0 0 6.5 11.43 16.568 16.568 0 0 0 12.68 3.43l73.39-9.22-10.78-85.78Z" fill="url(#b)"/><path d="M85.023 130.08c-7.467 2.7-13.234 4.267-17.3 4.7a61.589 61.589 0 0 1-14.9 0c-4.898-.68-6.3-.608-10.663-2.937-2.666 2.116-3.941 1.821-6.094 4.458-2.33 2.87-5.021 4.829-2.821 4.329 1.814-.459 1.83-.294 3.678 0a5.016 5.016 0 0 1 2.2.7c1 .87 1.13 3.23.4 7.1a49.808 49.808 0 0 1-3.6 10.45c-.574 1.227-1.774 3.644-3.6 7.25-1.6 3.367-2.467 5.867-2.6 7.5h62.05c.1-12.9.383-21.566.85-26a19.424 19.424 0 0 0-1.85-8.25 31.09 31.09 0 0 0-5.75-9.3Z" fill="#F2EDDD"/><path d="m91.671 132.103-12.757 1.586c-3.141 5.038-5.342 8.598-5.862 9.598-2.26-2.386-5.422-5.963-7.329-8.297-3.54.272-7.1.107-10.6-.49-4-.65-6.78-1.47-8.2-2.46a18.6 18.6 0 0 1-1.79 12.14c-1.82 3.574-3.787 5.504-5.9 5.79l-.51.76c-2.142 2.83-6.732 13.536-10.647 22.882h66.437l-2.842-41.509Z" fill="#EDD131"/><path d="M94.223 169.48a47.008 47.008 0 0 0-.06-5.1c-7.241.511-14.51.511-21.75 0a65.26 65.26 0 0 1-.77 5c7.515.558 15.06.592 22.58.1Z" fill="#E78E40"/><path d="m67.432 169.15 3.12.22c.33-1.71.58-3.39.76-5a247.408 247.408 0 0 1-37.11-5.3 124.14 124.14 0 0 0-1.8 4.81 254.231 254.231 0 0 0 35.03 5.27Z" fill="url(#c)"/><path d="m93.402 156.31.21-1.15c-6.757.659-13.56.733-20.33.22l-.38 5c6.97.491 13.966.455 20.93-.11l-.43-3.96Z" fill="#E78E40"/><path d="M67.434 160.03c2 .14 3.46.23 4.38.27.21-2.08.34-3.75.38-5a223.064 223.064 0 0 1-33.47-4.57 52.597 52.597 0 0 0-2.71 4.65 213.674 213.674 0 0 0 31.42 4.65Z" fill="url(#d)"/><path d="M72.023 143.43v.3c.357 3.154.457 6.331.3 9.5l-.15 2c0 1.27-.15 2.93-.35 5l-.5 4.15c-.2 1.63-.45 3.32-.75 5-.1.5-.37 1.92-.8 4.25h1.15l.7-4.2c.33-1.7.6-3.38.8-5 .568-2.966.852-5.98.85-9a68.985 68.985 0 0 0-.15-12.25l-.1.1-1.15-1.2.15 1.35Z" fill="#AE9A41"/><path d="m115.057 65.966-.69-5.53c-11.773-.22-20.773-.22-27 0-9.334.413-19.51 1.306-30.53 2.68-11.02 1.373-21.09 3.033-30.21 4.98-3.78.793-9.217 2.296-16.31 4.51a588.562 588.562 0 0 0-9.52 3.11l.53 4.19c.253 2 6.01 3.046 17.27 3.14a303.884 303.884 0 0 0 40.44-2.74 331.241 331.241 0 0 0 40-7.14c10.953-2.82 16.293-5.22 16.02-7.2Z" fill="#363233"/><path d="M103.137 108.076a13.214 13.214 0 0 0 4.17-3.07 12.377 12.377 0 0 0 2.54-4.45 12.46 12.46 0 0 0-8-15.62 56.2 56.2 0 0 0-17.18-27.4c-8.653-7.56-17.687-10.75-27.1-9.57-9.287 1.173-17.163 6.386-23.63 15.64a56 56 0 0 0-10.06 30.31 12.47 12.47 0 0 0-7.94 13v.21a12.32 12.32 0 0 0 12.53 10.79 35.235 35.235 0 0 0 16.61 16.46 41.79 41.79 0 0 0 23.79 3.52 41.571 41.571 0 0 0 22.33-9.44 35.404 35.404 0 0 0 11.94-20.38Z" fill="url(#e)"/><path d="M101.677 95.796s-1.18.18-3.47.44l-46.22 5.79a12.247 12.247 0 0 0-10.62 13.68l2.26 18a41.923 41.923 0 0 0 25.15 4.24 41.282 41.282 0 0 0 22.19-9.59 36.551 36.551 0 0 0 12.26-20.21 38.977 38.977 0 0 0-.1-4.2 33.248 33.248 0 0 0-1.45-8.15Z" fill="#FF8F66"/><path d="M69.707 88.376a17.222 17.222 0 0 0 2-3.19l1.07 8.5 14-1.76c5.92-.74 10.636-3.034 14.15-6.88a17.172 17.172 0 0 0 4.45-14.38l.26-23.64-37.7 8-58.89 15 3.92 31.19 3.89-.49a12.638 12.638 0 0 1 3.84-5 12.14 12.14 0 0 1 6-2.45h.25a12.641 12.641 0 0 1 6.29 1 12.221 12.221 0 0 1 5 3.89l18.76-2.36a19 19 0 0 0 7.14-2.38 19.271 19.271 0 0 0 5.57-5.05Z" fill="url(#f)"/><path d="M66.687 125.626a7.274 7.274 0 0 0 5.46 1.52 7.492 7.492 0 0 0 6.52-8.34l-14.86 1.86a7.35 7.35 0 0 0 2.88 4.96Z" fill="#fff"/><path d="M33.227 106.396a9.228 9.228 0 0 0-1.33-4.13 5.763 5.763 0 0 0-3.43-2.08 5.376 5.376 0 0 0-4.38.68 3.139 3.139 0 0 0-1.62 3.57 3.34 3.34 0 0 0 2.79 2.88 15.17 15.17 0 0 1 4.21 1.54c1.4.79 2.17 1.69 2.29 2.69l.07.55a8.22 8.22 0 0 0 1.4-5.7Z" fill="#FF8F66"/><path d="M84.827 73.675a12.39 12.39 0 0 0 5.28-1.94 12.221 12.221 0 0 0 3.87-4.06 8.78 8.78 0 0 1 7.91-4.43c2.567.035 5.131.209 7.68.52 2.56.327 4.28.834 5.16 1.52l.32.17a1.074 1.074 0 0 0 .09-.94l-.7-5.62c-.247-2-6.027-3-17.34-3a328.1 328.1 0 0 0-40.5 2.91l-3.27.41a314.53 314.53 0 0 0-37.81 7.05C5.25 69.005.233 71.323.467 73.216l.7 5.61c.008.338.124.663.33.93a13 13 0 0 1 4.82-2.94 101.225 101.225 0 0 1 14.06-4.23l10.66-1.47a10 10 0 0 1 6.43 1.28l4.81 2.75a18.08 18.08 0 0 0 11.78 2.4l30.77-3.87Z" fill="#FFF100"/><path d="M27.707 31.02c.872-7.91 3.045-14.568 4.76-21.794a51.51 51.51 0 0 0-22.68 22.29 51.33 51.33 0 0 0-5.77 31.3l.93 7.41c5.014-2.134 12.4-4.167 22.16-6.1-.18-.94.24-3.612 0-5.532-1.198-9.181-.5-18.38.6-27.573Z" fill="url(#g)"/><path d="M102.946 32.446a51.513 51.513 0 0 0-10.78-14.42c4.67 10.274 3.878 20.455 5.232 31.66l4.488 6.75c2.43.038 4.855.232 7.26.58l-.92-7.33a52.458 52.458 0 0 0-5.28-17.24Z" fill="url(#h)"/><path d="M92.206 18.026a51.34 51.34 0 0 0-28.49-13.87 51.33 51.33 0 0 0-31.25 5.07 78.497 78.497 0 0 0-6.17 22.93 111.273 111.273 0 0 0 .17 27.58c.254 1.96.464 3.41.63 4.35a410.652 410.652 0 0 1 26.24-4.4l3.18-.4c8.96-1.127 17.494-1.93 25.6-2.41 7.8-.467 14.404-.6 19.81-.4-.166-2-.376-4.017-.63-6.05a105.049 105.049 0 0 0-9.09-32.4Z" fill="#FFF100"/><path d="M66.288 1.626a4.31 4.31 0 0 0-2-.94 53.4 53.4 0 0 0-29.47 3.7 4 4 0 0 0-1.69 1.45 3.741 3.741 0 0 0-.66 2.08l-.79 21.11 41.79-5.2-6-20.31a3.789 3.789 0 0 0-1.18-1.89Z" fill="#FFF100"/><path d="m63.307 48.645 1.21 9.63 9.84-18.5-11.05 8.87Z" fill="#4B4D4D"/><path d="m50.367 42.795 14.15 15.48-1.21-9.63-12.94-5.85ZM59.386 17.456l-9.57 20.94 12.89 5.44-3.32-26.38Z" fill="#0A0A0A"/><path d="m59.387 17.456 3.32 26.38 11.14-8.46-14.46-17.92Z" fill="#4B4D4D"/><path d="M36.233 133.747a17.327 17.327 0 0 0-4.05 2.85 91.432 91.432 0 0 0-14.65 16.1 24.214 24.214 0 0 0-4.1 11c-.54 4.667.594 7.7 3.4 9.1 1.234.667 7.417.933 18.55.8 6.06-.06 14.644-.193 25.75-.4.46-2.627.794-4.577 1-5.85.26-2.227-.273-3.643-1.6-4.25-3.54-1.46-8.506-2.293-14.9-2.5-7.1.073-12.15-.027-15.15-.3 3.96-4 6.894-7.017 8.8-9.05a45.27 45.27 0 0 0 6.7-8.2c1.1-2 1.384-3.767.85-5.3-2.964-5.251-4.307-6.697-10.6-4Z" fill="url(#i)"/><path d="M47.602 136.225a5.547 5.547 0 0 0-3.05-3.7 7.762 7.762 0 0 0-5-.75c-3.166.54-6.651 3.412-10.618 7.272a129.602 129.602 0 0 0-9.2 10.65 9.693 9.693 0 0 1 7.6 0c3.106 1.122 5.84 3.549 7.365 6.478 5.5-5 8.752-8.661 10.085-10.628a37.487 37.487 0 0 0 2.52-4.15c.615-1.418.666-3.671.298-5.172Z" fill="#F2EDDC"/><path d="M62.533 169.397a2.214 2.214 0 0 0 2.55 1l.7-.35a2.136 2.136 0 0 0 1-1.5 2.379 2.379 0 0 0-.48-1.8 16.796 16.796 0 0 0-11.1-7.15 2.206 2.206 0 0 0-1.75.35 2.39 2.39 0 0 0-.6 3.25 2.282 2.282 0 0 0 1.5 1 12.56 12.56 0 0 1 8.18 5.2Z" fill="url(#j)"/><path d="M51.833 165.547a2.112 2.112 0 0 0 1.5.95 12.59 12.59 0 0 1 8.15 5.25 2.09 2.09 0 0 0 2.55.9c.246-.088.481-.206.7-.35a1.992 1.992 0 0 0 1-1.5 2.38 2.38 0 0 0-.43-1.75 16.685 16.685 0 0 0-11.1-7.15 2.36 2.36 0 0 0-1.75.4 2.39 2.39 0 0 0-.6 3.25h-.02Z" fill="url(#k)"/><path d="M48.084 164.497a2.004 2.004 0 0 0-1.55 1.45 1.85 1.85 0 0 0 .77 2.15 9 9 0 0 0 3.05.8c3.43.57 6.672 1.959 9.45 4.05a2.1 2.1 0 0 0 1.5.45c.534 0 1.05-.196 1.45-.55l.3-.4a2.224 2.224 0 0 0 .112-2.608 2.199 2.199 0 0 0-.662-.642 27.136 27.136 0 0 0-11.32-4.85 5.998 5.998 0 0 0-3.1.15Z" fill="url(#l)"/><path d="M56.304 160.497c.53-.36.36-.63-.5-.8a20.873 20.873 0 0 0-5.9-.4c-.77 0-2.45.22-5 .55-1.032.097-2.044.35-3 .75a7.79 7.79 0 0 0-3.3 3.35 13.862 13.862 0 0 0-.8 3.1 6.07 6.07 0 0 0 .25 3.35c.186.489.42.958.7 1.4.407.523.966.907 1.6 1.1h8.15l.15-.15a.58.58 0 0 0 .45.2c5.2.14 8.93.2 11.2.2l.1-.25a2.52 2.52 0 0 0-.15-1.75 2.138 2.138 0 0 0-1.2-1.2 36.582 36.582 0 0 0-8.4-2.2 21.587 21.587 0 0 1 1.35-3.15 11.218 11.218 0 0 1 2.1-2.55c.03-.1.78-.61 2.2-1.55Z" fill="url(#m)"/><path d="M99.888 152.647c1.127-6.1 1.11-10.433-.05-13a19.103 19.103 0 0 0-3-4.6 11.068 11.068 0 0 0-4.25-3.35c-1.07-.36-2 .15-2.85 1.55a27.473 27.473 0 0 1-2 3.9c.56 3 1 5.57 1.3 7.8.227 1.64.694 5.207 1.4 10.7a5.418 5.418 0 0 1 6 1.5c1.23 1.35 1.76 2.5 1.6 3.45a75.869 75.869 0 0 0 1.85-7.95Z" fill="#F2EDDC"/><path d="M97.838 160.997c.46-1.033-.023-2.333-1.45-3.9a5.42 5.42 0 0 0-6-1.5c-1.573-12.1-2.473-18.85-2.7-20.25-.944.306-1.915.524-2.9.65a7.432 7.432 0 0 1-1.85.2 11.625 11.625 0 0 1-1.7-.6 5.374 5.374 0 0 0-2 .15c-1 .2-1.6.15-1.8-.15a172.61 172.61 0 0 0-2.1 19.15c-.3 5.067-.016 8.883.85 11.45 1.527 4.4 4.81 6.733 9.85 7 2.427.14 4.727-.977 6.9-3.35a24.134 24.134 0 0 0 4.9-8.85Z" fill="url(#n)"/><path d="m98.957 132.397-.4-.05a5.129 5.129 0 0 0-1.6-2.9 7 7 0 0 0-3-1.6 3.304 3.304 0 0 0-2.85 1.1 11.424 11.424 0 0 1-2.8 2.05l-5.62 1.35a9.467 9.467 0 0 0-4.9 2.5 5.849 5.849 0 0 0-1.83 3.5 3.92 3.92 0 0 0 .8 2.5 5.096 5.096 0 0 0 2.2 1.65 9.838 9.838 0 0 0 5.35.3 22.087 22.087 0 0 0 8.8-3.35 16.431 16.431 0 0 0 5.85-7.05Z" fill="url(#o)"/><path d="M81.864 128.307a2.354 2.354 0 0 0-1.743-.23c-.588.137-1.099.5-1.422 1.009l-.091.23a2.245 2.245 0 0 0 .87 2.934 13.895 13.895 0 0 1 2.982 2.339 5.766 5.766 0 0 1 1.605 2.293 2.232 2.232 0 0 0 1.009 1.422 2.265 2.265 0 0 0 1.742.229 2.094 2.094 0 0 0 1.422-.963 2.25 2.25 0 0 0 .275-1.742 10.447 10.447 0 0 0-2.843-4.495 20.042 20.042 0 0 0-3.806-3.026Z" fill="url(#p)"/><path d="M92.988 118.123a2.36 2.36 0 0 0-1.646-.617 2.301 2.301 0 0 0-1.612.662l-.142.203a2.245 2.245 0 0 0 .187 3.055 13.88 13.88 0 0 1 2.375 2.952c.557.766 2.453 6.099 2.583 7.038a2.238 2.238 0 0 0 .662 1.612 2.258 2.258 0 0 0 1.646.617 2.103 2.103 0 0 0 1.602-.617 2.247 2.247 0 0 0 .662-1.636c-.142-1.796-2.284-7.967-3.292-9.461a20.033 20.033 0 0 0-3.025-3.808Z" fill="url(#q)"/><path d="M86.323 119.022a2.354 2.354 0 0 0-1.743-.23c-.588.137-1.099.5-1.422 1.009l-.091.229a2.248 2.248 0 0 0 .87 2.935 13.892 13.892 0 0 1 2.982 2.339c.715.621 3.766 5.388 4.105 6.273a2.232 2.232 0 0 0 1.008 1.422 2.265 2.265 0 0 0 1.743.229 2.096 2.096 0 0 0 1.422-.963 2.25 2.25 0 0 0 .275-1.743c-.544-1.718-4.024-7.246-5.343-8.474a20.042 20.042 0 0 0-3.806-3.026Z" fill="url(#r)"/><path d="M83.742 121.899A2.359 2.359 0 0 0 82 121.67a2.301 2.301 0 0 0-1.422 1.009l-.092.229a2.248 2.248 0 0 0 .872 2.935 13.892 13.892 0 0 1 2.98 2.339c.716.621 3.767 5.388 4.106 6.273a2.239 2.239 0 0 0 1.008 1.422 2.264 2.264 0 0 0 1.743.229 2.096 2.096 0 0 0 1.422-.963 2.25 2.25 0 0 0 .275-1.743c-.544-1.718-4.024-7.246-5.343-8.474a20.047 20.047 0 0 0-3.807-3.027Z" fill="url(#s)"/><path d="m271.428 93.52.36-4.34c-2.9-.774-6.19-1.61-9.87-2.51-7.34-1.8-12.96-3.004-16.86-3.61-9.434-1.4-19.767-2.514-31-3.34-11.167-.807-21.55-1.21-31.15-1.21-6.334.053-15.467.46-27.4 1.22l-.44 5.28c-.16 1.9 5.376 3.946 16.61 6.14a356.53 356.53 0 0 0 40.93 5 359.004 359.004 0 0 0 41.36 1c11.48-.534 17.3-1.744 17.46-3.63Z" fill="#262223"/><path d="M239.408 118.869c0-.15 0-2.32.16-6.52a41.702 41.702 0 0 0 0-6.44c-.21-.27-2.8-.56-7.75-.86-6-.4-10.16-.79-12.48-1.17-10.987-1.44-19.654-2.603-26-3.49-11.834-1.66-18.35-3.1-19.55-4.32l-1-.82-1.18-1.25-.59-.8v-.08a14.224 14.224 0 0 1-1.35-2.37 15.888 15.888 0 0 0-1.3 7.26l.31 5.82.101 4.053.129.986 2.2 23.111c.125 1.306.319 2.605.58 3.89a27.884 27.884 0 0 0 3.64 8.51 26.137 26.137 0 0 0 6.25 6.77c4.666 3.26 10.923 5.04 18.77 5.34a39.427 39.427 0 0 0 20.16-4.25 81.504 81.504 0 0 0 16.78-11.43l.06-1a68.806 68.806 0 0 0 3.08-10.33c.27-2.33-.06-5.93-1.02-10.61Z" fill="#FF8F66"/><path d="M211.798 62.73c-2.34-.52-6.74-.397-13.2.37-6.34.77-9.34 1.22-9 1.36l-19.51 12.08c-.792 5.933-2.083 11.435-2.077 17.421-.09 4.2.513 8.319.553 11.839 1.113-.187 7.641.183 19.074.789 6.2.32 14.69.797 25.47 1.43 7.607.427 12.94 1.984 16 4.67 3.06 2.687 4.393 6.774 4 12.26-.19 3.47-.32 6.91-.37 10.32-.05 3.41-.15 6.58-.32 9.48l4.8-3.89a91.003 91.003 0 0 0 9.2-10c1.159.366 2.358.591 3.57.67a13.994 13.994 0 0 0 7.28-1.46 14.257 14.257 0 0 0 5.53-4.9 14.31 14.31 0 0 0-3.89-19.87l3.62-17.81c.707-5.533-.58-11.056-3.86-16.57-4.433-7.493-11.433-11.293-21-11.4l-25.87 3.21Z" fill="url(#t)"/><path d="M161.249 110.919a14.5 14.5 0 0 0 9.21 14l-1.45-16.32-.1-.22-.29-4.55-.25-4.63-.66.43a14.39 14.39 0 0 0-6.46 11.29Z" fill="url(#u)"/><path d="M180.808 80.24a22.5 22.5 0 0 0-.73 9.32 14.177 14.177 0 0 0 5.83 9.48 27.921 27.921 0 0 1-3.14 0l-1.43-.08h-.21l-1.1-.15-.33-.1-.92-.18-1.22-.38-2.06-.92-1.76-1.16c3.66 3.706 9.21 5.233 16.65 4.579-5.766-4-8.62-9.783-8.56-17.35l-.6-1.47a10.512 10.512 0 0 1-.42-1.59Z" fill="url(#v)"/><path d="m195.959 92.82-8.9-1.47a17.66 17.66 0 0 0 5.22 5 18.09 18.09 0 0 0 6.76 2.62 47.87 47.87 0 0 0 4.94.37c3.566.018 7.121.4 10.61 1.139a22.755 22.755 0 0 1 9.62 4.57 11.922 11.922 0 0 0-3-5.6 17.006 17.006 0 0 0-5.21-3.81 21.251 21.251 0 0 0-9.58-2.1c-2.39.17-4.19.27-5.4.29a10.508 10.508 0 0 1-5.06-1.01Z" fill="url(#w)"/><path d="M253.988 116.629a3.318 3.318 0 0 0 2.59-3.16 3.091 3.091 0 0 0-1.92-3.45 5.776 5.776 0 0 0-4.47-.38 6.002 6.002 0 0 0-3.28 2.4 9.468 9.468 0 0 0-1 4.31 8.328 8.328 0 0 0 1.8 5.73v-.59c0-1 .72-2 2.07-3a15.503 15.503 0 0 1 4.21-1.86Z" fill="#FF8F66"/><path d="M200.089 142.339h.12a7.593 7.593 0 0 0 5.477-1.915 7.595 7.595 0 0 0 2.523-5.225l-15.3-.85a7.235 7.235 0 0 0 1.9 5.45 7.298 7.298 0 0 0 5.28 2.54Z" fill="#fff"/><path d="M260.548 75.26c0-.14-.11-.27-.15-.4a.165.165 0 0 1 0-.07 47.221 47.221 0 0 0-4.92-9.89 45.895 45.895 0 0 0-8.42-9.75 43.312 43.312 0 0 0-12-7.63 8.237 8.237 0 0 0 2-3.15c-1.76.376-3.562.517-5.36.42-.4 0-1-.08-1.69-.17a6.598 6.598 0 0 0 3.24-1 6.292 6.292 0 0 0 2.3-2.5l-3.64.2-3.7.21c-1.457.009-2.903.259-4.28.74a5.49 5.49 0 0 0-2.13 1.7h-.55l2.11.29h-.85l-.17-.06c-1.68-.23-3.2-.39-4.55-.46a45.163 45.163 0 0 0-16.65 2.16 45.817 45.817 0 0 0-14.85 7.93 48.736 48.736 0 0 0-7.85 7.65l-14.4-1.76-1.47 23.18a17.216 17.216 0 0 0 5.44 14.08c3.78 3.573 8.657 5.526 14.63 5.859l42.83 2.4.44-8.53a20.615 20.615 0 0 0 2.25 3c1.407 1.58 4.23 3.124 8.47 4.63a58.136 58.136 0 0 0 6 1.82 9.165 9.165 0 0 1 3.09-2.35 13.875 13.875 0 0 1 6-.93h.08a13.873 13.873 0 0 1 8.11 3.19 90.332 90.332 0 0 0 1.83-11.92l.07-.55a29.349 29.349 0 0 0-1.26-18.34Z" fill="url(#x)"/><path d="M235.078 22.05c0 6.445.933 13.04 2.385 21.01 1.748 9.247 4.065 20.266 3.466 29.658l3.419 4.691c10.58 1.38 18.247 2.927 23 4.64l.42-7.56a52.262 52.262 0 0 0-8-31.43 52 52 0 0 0-24.69-21.01Z" fill="url(#y)"/><path d="M174.989 35.04a54.044 54.044 0 0 0-10 15.46 52.25 52.25 0 0 0-4.08 17.9l-.43 7.65c2.406-.565 8.814-1.018 11.275-1.253 0-2-.11-5.544 0-7.624.563-11.508-.827-21.351 3.235-32.134Z" fill="url(#z)"/><path d="M242.908 44.91a81.031 81.031 0 0 0-7.83-22.86 52.34 52.34 0 0 0-32.2-3 52.338 52.338 0 0 0-28.03 16.1 111.087 111.087 0 0 0-6.94 33.6c-.1 1.81-.15 3.87-.13 6.18 5.54-.56 12.266-.86 20.18-.9 8.306-.067 17.05.156 26.23.67l3.25.18c10.253.666 19.253 1.523 27 2.57.11-1 .22-2.46.34-4.43.548-9.412-.08-18.855-1.87-28.11Z" fill="#FFF100"/><path d="m237.258 42.15-2.22-21.5a3.995 3.995 0 0 0-.82-2.08 4.212 4.212 0 0 0-1.87-1.33 54.095 54.095 0 0 0-15-3 53.48 53.48 0 0 0-15.25 1.34c-.761.17-1.456.559-2 1.12a4.258 4.258 0 0 0-1.09 2l-4.61 21 42.86 2.45Z" fill="#FFF100"/><path d="m205.908 74.15 13.33-16.71-12.76 6.87-.57 9.84Z" fill="#F9C838"/><path d="m194.568 56.05 11.34 18.1.55-9.84-11.89-8.26Z" fill="#F9C838"/><path d="m194.568 56.05 11.34 18.1.55-9.84-11.89-8.26Zm13.71-23.76-13.45 19.2 11.93 7.92 1.52-27.12Z" fill="#0A0A0A"/><path d="m206.478 64.31-.57 9.84 13.33-16.71-12.76 6.87Zm13-11.44h.08l-11.28-20.58-1.56 27 12.76-6.42Z" fill="#4B4D4D"/><path d="M272.099 85.15v-.13c.113-2.08-5.49-4.174-16.81-6.28a331.353 331.353 0 0 0-41.14-4.59c-13.798-.9-27.638-.94-41.44-.12-11.52.846-17.334 2.283-17.44 4.31v.13a4.193 4.193 0 0 0 2.391 4.062 4.183 4.183 0 0 0 1.609.397c.381.02.763 0 1.14-.06h.09c4.72-1 12.03-1.646 21.93-1.94 9.62-.226 20.033-.026 31.24.6 11.206.627 21.576 1.59 31.11 2.89 9.813 1.4 17.02 2.867 21.62 4.4h.21a3.938 3.938 0 0 0 3.19-.24 3.994 3.994 0 0 0 2.11-2.43l.19-1Z" fill="#FFF100"/><path d="m240.758 84.71 11 .74c4.941.767 9.821 1.89 14.6 3.36a12.846 12.846 0 0 1 5.15 2.71 1.003 1.003 0 0 0 .3-.92l.32-5.7c.114-2-5.14-4-15.76-6a316.844 316.844 0 0 0-39-4.52l-3.39-.23c-13.754-.9-27.551-.94-41.31-.12-11.493.853-17.293 2.29-17.4 4.31l-.36 5.71c-.081.34-.027.698.15 1l.31-.19c.8-.72 2.504-1.387 5.11-2 2.42-.46 5.027-.837 7.82-1.13a9.063 9.063 0 0 1 8.34 3.9 12.7 12.7 0 0 0 9.77 5.52l31.5 1.81a18.45 18.45 0 0 0 11.8-3.28l4.67-3.17a10.06 10.06 0 0 1 6.38-1.8Z" fill="#FFF100"/><path d="M246.537 162.059a8.394 8.394 0 0 0-4.45-4.7 18.786 18.786 0 0 0-7.94-2.35 33.8 33.8 0 0 0-6.85.1c-1.533.127-3.817.46-6.85 1l-19.41 3.2h-.15c.2 1.534-1.917 3.867-6.35 7-4.433 3.134-6.683 5.5-6.75 7.1 5.333 0 10.867-.016 16.6-.05 11.4 0 18.567.034 21.5.1 3.757.237 7.529.103 11.26-.4 4.34-.9 7.307-2.6 8.9-5.1a6.136 6.136 0 0 0 .49-5.9Z" fill="#FF8F66"/><path d="M199.788 172.959a8.667 8.667 0 0 0 4.15-2.15 3.276 3.276 0 0 0 1.2-2 11.767 11.767 0 0 0-1.05-4.5 8.312 8.312 0 0 0-2.35-3.1 16.241 16.241 0 0 0-3.4-2c-2.326-1.133-5.393-1.133-9.2 0-3.56 1.07-5.46 2.23-5.7 3.5a4.014 4.014 0 0 0 .8 3 20.662 20.662 0 0 1 1.95 3c.54 1.1 1.9 2.18 4.1 3.25a13.37 13.37 0 0 0 9.5 1Z" fill="url(#A)"/><path d="M186.037 165.509a36.977 36.977 0 0 0-6.55 3.07 2.4 2.4 0 0 0-1.4 2.7 3.14 3.14 0 0 0 .7 1.5 1.886 1.886 0 0 0 1.35.7c.4 0 1.3 0 2.7-.05.966 0 2.633-.733 5-2.2 2.266-1.366 3.8-1.966 4.6-1.8a2.406 2.406 0 0 0 1.85-.35 2.65 2.65 0 0 0 1.1-1.6 2.374 2.374 0 0 0-.3-1.9 2.691 2.691 0 0 0-1.6-1.1c-1.934-.38-4.417-.036-7.45 1.03Z" fill="url(#B)"/><path d="M204.337 164.309a14.21 14.21 0 0 0-3.6-4.55c-1.83-1.63-3.43-2.32-4.8-2-3 .4-5.933.917-8.8 1.55-1.06.23-1.38 1.37-.95 3.4a8.32 8.32 0 0 0 2 4.25c4.14 3.674 7.023 5.59 8.65 5.75a13.34 13.34 0 0 0 8.5-4.75c-.5-2.05-.83-3.25-1-3.65Z" fill="url(#C)"/><path d="M182.489 173.509c2.74 0 7.206-.066 13.4-.2.67 0 .82-.55.45-1.55a3.155 3.155 0 0 0-1.5-1.95 11.213 11.213 0 0 0-5.7-.8 19.999 19.999 0 0 0-5.15 1.05 2.658 2.658 0 0 0-1.45 1.3 2.379 2.379 0 0 0-.1 1.9l.05.25Z" fill="url(#D)"/><path fill-rule="evenodd" clip-rule="evenodd" d="M187.847 162.909a6.734 6.734 0 0 1 3.3-.15 2.165 2.165 0 0 1 1.8 1.35 2 2 0 0 1-.5 2.35 10.534 10.534 0 0 1-3.15 1.25 23.648 23.648 0 0 0-9.55 5.45 2.29 2.29 0 0 1-.308.25h-2.718a1.915 1.915 0 0 1-.074-.05l-.4-.35a2.575 2.575 0 0 1-.7-1.8 2.459 2.459 0 0 1 .8-1.7 29.098 29.098 0 0 1 11.5-6.6Z" fill="url(#E)"/><path d="M219.938 159.859c.5.102 1.018.067 1.5-.1l.75-.45a2.204 2.204 0 0 0 .85-1.73 2.186 2.186 0 0 0-.6-1.8 18.097 18.097 0 0 0-12.6-6.32 2.682 2.682 0 0 0-1.85.6 2.483 2.483 0 0 0-.84 1.7c-.035.654.18 1.298.6 1.8.204.258.462.468.756.614.293.147.616.228.944.236a13.152 13.152 0 0 1 9.2 4.65 2.42 2.42 0 0 0 1.29.8Z" fill="url(#F)"/><path d="M218.148 166.059c.54.169 1.122.152 1.65-.05l.5-.25a2.449 2.449 0 0 0 1-1.6 2.358 2.358 0 0 0-.4-1.9 29.002 29.002 0 0 0-9.7-9 6.601 6.601 0 0 0-3.05-.9 2.415 2.415 0 0 0-2.1.9 2.003 2.003 0 0 0 0 2.4c.805.783 1.73 1.431 2.74 1.92a22.32 22.32 0 0 1 8 7.5 2.51 2.51 0 0 0 1.36.98Z" fill="url(#G)"/><path d="M202.987 159.409a2.327 2.327 0 0 0 1.5 1.17 10.14 10.14 0 0 1 4 2.95 17.931 17.931 0 0 1 3.3 4.45 2.269 2.269 0 0 0 1.36 1.23 2.203 2.203 0 0 0 1.85 0l.15-.05a2.403 2.403 0 0 0 1.3-1.45c.202-.624.166-1.3-.1-1.9a23.334 23.334 0 0 0-4.2-5.8 15.277 15.277 0 0 0-6.3-4.25 2.384 2.384 0 0 0-1.9.2 2.44 2.44 0 0 0-1.2 1.5 2.714 2.714 0 0 0 .24 1.95Z" fill="url(#H)"/><path d="M200.887 159.409a2.274 2.274 0 0 0-1.2 1.45 2.5 2.5 0 0 0 .15 1.9 2.69 2.69 0 0 0 1.5 1.25 5.994 5.994 0 0 1 2.4 1.85 15.985 15.985 0 0 1 2.35 3.35c.283.556.765.984 1.35 1.2a2.424 2.424 0 0 0 1.8 0l.2-.15a2.23 2.23 0 0 0 1.25-1.45 2.5 2.5 0 0 0-.15-1.9 23.352 23.352 0 0 0-3-4.3 11.36 11.36 0 0 0-4.7-3.4 2.518 2.518 0 0 0-1.95.2Z" fill="url(#I)"/><path d="m157.148 171.209.35 2.2h18.89c1.74-1.426 4.29-3.793 7.65-7.1 3.073-2.666 5.973-4.283 8.7-4.85l1.2-.2c0-1.266 1.183-3.366 3.55-6.3 2.44-3 3.65-5.1 3.65-6.3-7.1-.126-11.767-.093-14 .1a83.383 83.383 0 0 0-16.25 3.4c-5.26 1.534-9.127 5.007-11.6 10.42-1.63 3.61-2.33 6.5-2.14 8.63Z" fill="url(#J)"/><path d="M210.838 149.579c-2.927-.34-6.043-.647-9.35-.92-1.333-.1-2.85.733-4.55 2.5a13.714 13.714 0 0 0-3.1 4.9 42.998 42.998 0 0 0-.5 5.3 13.056 13.056 0 0 0 8.05 2.7c1.8-.373 4.717-2.707 8.75-7a9.061 9.061 0 0 0 1.8-4.3c.34-2.05-.03-3.1-1.1-3.18Z" fill="url(#K)"/><defs><linearGradient id="a" x1="194.194" y1="166.618" x2="251.944" y2="166.618" gradientUnits="userSpaceOnUse"><stop stop-color="#E69C31"/><stop offset="1" stop-color="#E67731"/></linearGradient><linearGradient id="b" x1="28.192" y1="107.091" x2="35.263" y2="188.407" gradientUnits="userSpaceOnUse"><stop stop-color="#4F00A3"/><stop offset="1" stop-color="#23004E"/></linearGradient><linearGradient id="c" x1="13.316" y1="161.584" x2="114.719" y2="161.584" gradientUnits="userSpaceOnUse"><stop stop-color="#E8A03F"/><stop offset="1" stop-color="#E77D42"/></linearGradient><linearGradient id="d" x1="16.915" y1="152.918" x2="117.663" y2="152.918" gradientUnits="userSpaceOnUse"><stop stop-color="#E8A03F"/><stop offset="1" stop-color="#E77D42"/></linearGradient><linearGradient id="e" x1="60.411" y1="106.657" x2="66.019" y2="149.48" gradientUnits="userSpaceOnUse"><stop stop-color="#FB7E51"/><stop offset="1" stop-color="#FF8F66"/></linearGradient><linearGradient id="f" x1="44.725" y1="91.299" x2="37.386" y2="57.523" gradientUnits="userSpaceOnUse"><stop stop-color="#4F00A3"/><stop offset="1" stop-color="#23004E"/></linearGradient><linearGradient id="g" x1="12.426" y1="22.964" x2="19.851" y2="79.664" gradientUnits="userSpaceOnUse"><stop stop-color="#FFF100"/><stop offset="1" stop-color="#F5D600"/></linearGradient><linearGradient id="h" x1="95.889" y1="29.729" x2="100.869" y2="67.764" gradientUnits="userSpaceOnUse"><stop stop-color="#FFF100"/><stop offset="1" stop-color="#F5D600"/></linearGradient><linearGradient id="i" x1="37.483" y1="175.007" x2="37.653" y2="168.607" gradientUnits="userSpaceOnUse"><stop stop-color="#FB7E51"/><stop offset="1" stop-color="#FF8F66"/></linearGradient><linearGradient id="j" x1="58.823" y1="166.377" x2="60.793" y2="162.977" gradientUnits="userSpaceOnUse"><stop stop-color="#FB7E51"/><stop offset="1" stop-color="#FF8F66"/></linearGradient><linearGradient id="k" x1="58.293" y1="168.097" x2="59.243" y2="165.477" gradientUnits="userSpaceOnUse"><stop stop-color="#FB7E51"/><stop offset=".6" stop-color="#FD875C"/><stop offset="1" stop-color="#FF8F66"/></linearGradient><linearGradient id="l" x1="54.434" y1="171.247" x2="55.334" y2="167.277" gradientUnits="userSpaceOnUse"><stop stop-color="#FB7E51"/><stop offset=".21" stop-color="#FC8155"/><stop offset=".67" stop-color="#FC8459"/><stop offset="1" stop-color="#FF8F66"/></linearGradient><linearGradient id="m" x1="49.014" y1="172.867" x2="49.014" y2="170.147" gradientUnits="userSpaceOnUse"><stop stop-color="#FB7E51"/><stop offset="1" stop-color="#FF8F66"/></linearGradient><linearGradient id="n" x1="98.878" y1="158.037" x2="92.778" y2="156.217" gradientUnits="userSpaceOnUse"><stop stop-color="#FB7E51"/><stop offset="1" stop-color="#FF8F66"/></linearGradient><linearGradient id="o" x1="91.777" y1="140.287" x2="87.157" y2="135.457" gradientUnits="userSpaceOnUse"><stop stop-color="#FB7E51"/><stop offset=".52" stop-color="#FB7F53"/><stop offset="1" stop-color="#FF8F66"/></linearGradient><linearGradient id="p" x1="82.614" y1="134.633" x2="85.579" y2="131.414" gradientUnits="userSpaceOnUse"><stop stop-color="#FB7E51"/><stop offset="1" stop-color="#FF8F66"/></linearGradient><linearGradient id="q" x1="93.964" y1="127.179" x2="97.013" y2="123.918" gradientUnits="userSpaceOnUse"><stop stop-color="#FB7E51"/><stop offset="1" stop-color="#FF8F66"/></linearGradient><linearGradient id="r" x1="88.586" y1="127.095" x2="90.915" y2="123.452" gradientUnits="userSpaceOnUse"><stop stop-color="#FB7E51"/><stop offset="1" stop-color="#FF8F66"/></linearGradient><linearGradient id="s" x1="84.859" y1="130.144" x2="86.891" y2="126.205" gradientUnits="userSpaceOnUse"><stop stop-color="#FB7E51"/><stop offset="1" stop-color="#FF8F66"/></linearGradient><linearGradient id="t" x1="224.686" y1="93.668" x2="221.886" y2="139.713" gradientUnits="userSpaceOnUse"><stop stop-color="#FB7E51"/><stop offset="1" stop-color="#FF8F66"/></linearGradient><linearGradient id="u" x1="179.194" y1="103.357" x2="172.113" y2="98.831" gradientUnits="userSpaceOnUse"><stop stop-color="#FB7F52"/><stop offset="1" stop-color="#FF8F66"/></linearGradient><linearGradient id="v" x1="204.784" y1="516.076" x2="204.163" y2="498.884" gradientUnits="userSpaceOnUse"><stop stop-color="#FB7E51"/><stop offset="1" stop-color="#FF8F66"/></linearGradient><linearGradient id="w" x1="216.452" y1="27.178" x2="210.759" y2="121.126" gradientUnits="userSpaceOnUse"><stop stop-color="#FB7E51"/><stop offset="1" stop-color="#FF8F66"/></linearGradient><linearGradient id="x" x1="212.618" y1="104.829" x2="212.618" y2="43.989" gradientUnits="userSpaceOnUse"><stop stop-color="#4F00A3"/><stop offset="1" stop-color="#23004E"/></linearGradient><linearGradient id="y" x1="259.683" y1="16.103" x2="256.594" y2="67.998" gradientUnits="userSpaceOnUse"><stop stop-color="#FFF100"/><stop offset="1" stop-color="#F5D600"/></linearGradient><linearGradient id="z" x1="176.256" y1="25.716" x2="173.932" y2="64.759" gradientUnits="userSpaceOnUse"><stop stop-color="#FFF100"/><stop offset="1" stop-color="#F5D600"/></linearGradient><linearGradient id="A" x1="183.418" y1="165.879" x2="205.168" y2="165.879" gradientUnits="userSpaceOnUse"><stop stop-color="#FF8F66"/><stop offset="1" stop-color="#FB7E51"/></linearGradient><linearGradient id="B" x1="186.807" y1="170.849" x2="186.737" y2="167.569" gradientUnits="userSpaceOnUse"><stop stop-color="#FB7E51"/><stop offset="1" stop-color="#FF8F66"/></linearGradient><linearGradient id="C" x1="201.267" y1="171.969" x2="197.337" y2="166.839" gradientUnits="userSpaceOnUse"><stop stop-color="#FB7E51"/><stop offset="1" stop-color="#FF8F66"/></linearGradient><linearGradient id="D" x1="189.669" y1="174.439" x2="189.219" y2="171.089" gradientUnits="userSpaceOnUse"><stop stop-color="#FB7E51"/><stop offset="1" stop-color="#FF8F66"/></linearGradient><linearGradient id="E" x1="185.337" y1="170.699" x2="184.037" y2="167.229" gradientUnits="userSpaceOnUse"><stop stop-color="#FB7E51"/><stop offset="1" stop-color="#FF8F66"/></linearGradient><linearGradient id="F" x1="214.578" y1="156.659" x2="216.048" y2="151.129" gradientUnits="userSpaceOnUse"><stop stop-color="#FB7E51"/><stop offset=".49" stop-color="#FF8F66"/><stop offset="1" stop-color="#FB7E51"/></linearGradient><linearGradient id="G" x1="212.508" y1="160.959" x2="214.508" y2="157.479" gradientUnits="userSpaceOnUse"><stop stop-color="#FB7E51"/><stop offset=".35" stop-color="#FB7E51"/><stop offset="1" stop-color="#FF8F66"/></linearGradient><linearGradient id="H" x1="208.547" y1="163.619" x2="210.747" y2="161.419" gradientUnits="userSpaceOnUse"><stop stop-color="#FB7E51"/><stop offset="1" stop-color="#FF8F66"/></linearGradient><linearGradient id="I" x1="203.407" y1="166.609" x2="206.237" y2="163.779" gradientUnits="userSpaceOnUse"><stop stop-color="#FB7E51"/><stop offset="1" stop-color="#FF8F66"/></linearGradient><linearGradient id="J" x1="181.208" y1="168.019" x2="176.338" y2="149.789" gradientUnits="userSpaceOnUse"><stop stop-color="#FB7E51"/><stop offset=".49" stop-color="#FF8F66"/><stop offset="1" stop-color="#FB7E51"/></linearGradient><linearGradient id="K" x1="201.428" y1="162.749" x2="204.078" y2="147.549" gradientUnits="userSpaceOnUse"><stop stop-color="#FB7E51"/><stop offset=".48" stop-color="#FF8F66"/><stop offset="1" stop-color="#FB7E51"/></linearGradient></defs></svg>