<svg width="38" height="20" fill="none" xmlns="http://www.w3.org/2000/svg"><path d="M12.098 8.623a5.33 5.33 0 0 0-2.09-3.77 5.53 5.53 0 0 0-4.16-1.23 5.67 5.67 0 0 0-3.76 2.22 5.57 5.57 0 0 0-1.09 4.18l.56 4.44a5.59 5.59 0 0 0 2.09 3.82 5.529 5.529 0 0 0 4.16 1.18 5.57 5.57 0 0 0 3.76-2.22 5.39 5.39 0 0 0 1.09-4.18l-.56-4.44ZM37.008 5.463a5.33 5.33 0 0 0-2.06-3.74 5.47 5.47 0 0 0-4.18-1.26h-.05a5.66 5.66 0 0 0-3.77 2.26 5.39 5.39 0 0 0-1.09 4.18l.56 4.47a5.41 5.41 0 0 0 2.09 3.78 5.46 5.46 0 0 0 7.92-1 5.45 5.45 0 0 0 1.13-4.18l-.55-4.51Z" fill="#262223"/></svg>