<svg width="72" height="68" viewBox="0 0 72 68" fill="none" xmlns="http://www.w3.org/2000/svg">
<path d="M36.0001 67.3992L36.0001 41.0092L70.5801 20.9893L70.5801 47.3792L36.0001 67.3992Z" fill="#16181D" stroke="#16181D" stroke-linejoin="round"/>
<path d="M35.9999 67.3992L35.9999 41.0092L1.41992 20.9893L1.41992 47.3792L35.9999 67.3992Z" fill="#FBFBFB" stroke="#16181D" stroke-linejoin="round"/>
<path d="M1.42021 20.8684L36.0001 0.969724L70.5801 20.8684L36.0001 41.0097L1.42021 20.8684Z" fill="#FBFBFB"/>
<path d="M36.0001 0.969724L1.42021 20.8684M36.0001 0.969724L70.5801 20.8684L36.0001 41.0097M36.0001 0.969724L45.7049 20.8684M36.0001 0.969724L26.4711 20.8684M1.42021 20.8684L36.0001 41.0097M1.42021 20.8684L26.4711 20.8684M36.0001 41.0097L45.7049 20.8684M36.0001 41.0097L26.4711 20.8684M45.7049 20.8684L26.4711 20.8684" stroke="#16181D" stroke-linejoin="round"/>
</svg>
