<svg xmlns="http://www.w3.org/2000/svg" xmlns:xlink="http://www.w3.org/1999/xlink" viewBox="0 0 740 340"><defs><linearGradient id="aa905387-c201-4474-9e42-8110c76887dd" x1="808.08" y1="1662.59" x2="809.19" y2="1662.71" gradientTransform="matrix(66.84 0 0 -8.29 -53587.72 14017.1)" gradientUnits="userSpaceOnUse"><stop offset="0" stop-color="#db9d48"/><stop offset="1" stop-color="#d77c42"/></linearGradient><linearGradient id="e397b9d4-2fb2-4e2e-a5d6-8132b713eaa6" x1="807.99" y1="1674.62" x2="809.11" y2="1674.76" gradientTransform="matrix(66.21 0 0 -7.56 -53073.44 12883.44)" xlink:href="#aa905387-c201-4474-9e42-8110c76887dd"/><linearGradient id="b29a7c40-95eb-48d4-b64a-ff42043f9b0b" x1="454.6" y1="72.74" x2="454.6" y2="150.24" gradientUnits="userSpaceOnUse"><stop offset=".55" stop-color="#1f074b"/><stop offset=".85" stop-color="#47199b"/></linearGradient><linearGradient id="bad38f07-8b8c-4869-bb9a-62f3d346b3fe" x1="803.12" y1="1553.89" x2="803.12" y2="1552.89" gradientTransform="matrix(42.06 0 0 -68.67 -33283.25 106745.85)" gradientUnits="userSpaceOnUse"><stop offset="0" stop-color="#fcee50"/><stop offset="1" stop-color="#e8cd45"/></linearGradient><linearGradient id="f625ca00-9075-4f45-96f3-5f46047746bf" x1="775.59" y1="1559.77" x2="775.59" y2="1558.77" gradientTransform="matrix(14.44 0 0 -49.33 -10802.14 76997.1)" xlink:href="#bad38f07-8b8c-4869-bb9a-62f3d346b3fe"/><linearGradient id="f080fabf-7871-40e3-bf58-6209cef934d9" x1="-2444.72" y1="208.71" x2="-2390.67" y2="208.71" gradientTransform="matrix(-1 0 0 1 -1955.22 0)" gradientUnits="userSpaceOnUse"><stop offset="0" stop-color="#fb7e51"/><stop offset="1" stop-color="#ff8f66"/></linearGradient><linearGradient id="ba823d85-af2f-4ed7-8316-d57fca0789d4" x1="435.21" y1="207.53" x2="435.21" y2="229.75" gradientUnits="userSpaceOnUse"><stop offset="0" stop-color="#ff8f66"/><stop offset="1" stop-color="#fb7e51"/></linearGradient><linearGradient id="ae97cfe8-406b-4da3-bff2-cbe3449b835b" x1="812.97" y1="1588.93" x2="812.97" y2="1587.93" gradientTransform="matrix(135.82 0 0 -20.52 -110133.45 32724.89)" gradientUnits="userSpaceOnUse"><stop offset="0" stop-color="#252223"/><stop offset="1"/></linearGradient><linearGradient id="b42e1628-4772-4af9-b43a-bc0128476c8b" x1="811.79" y1="1548.63" x2="811.81" y2="1547.9" gradientTransform="matrix(108.03 0 0 -102.54 -87418.58 158946.14)" gradientUnits="userSpaceOnUse"><stop offset="0" stop-color="#47199b"/><stop offset="1" stop-color="#1f074b"/></linearGradient><linearGradient id="a319dafe-2a12-44eb-b735-f498b95286f1" x1="808.12" y1="1675.72" x2="806.53" y2="1676.59" gradientTransform="matrix(62.4 0 0 -7.47 -50110.56 12751.37)" xlink:href="#aa905387-c201-4474-9e42-8110c76887dd"/><linearGradient id="a494cf65-3952-46d1-9e43-6d696b630480" x1="808.09" y1="1672.66" x2="806.49" y2="1673.51" gradientTransform="matrix(62.09 0 0 -7.64 -49858.31 13003.54)" xlink:href="#aa905387-c201-4474-9e42-8110c76887dd"/><linearGradient id="fae51dad-daff-4754-a108-ee56033ef83f" x1="250.33" y1="213.72" x2="297.1" y2="213.72" xlink:href="#f080fabf-7871-40e3-bf58-6209cef934d9"/><linearGradient id="a6010e1d-de9e-4dab-924b-bbcddbc0280a" x1="297.31" y1="232.91" x2="297.31" y2="214.29" xlink:href="#f080fabf-7871-40e3-bf58-6209cef934d9"/><linearGradient id="efea637c-bc8e-42c0-a985-69c9777a7bce" x1="812.22" y1="1558.46" x2="812.22" y2="1559" gradientTransform="matrix(116.99 0 0 -50 -94734.99 78079.25)" xlink:href="#b42e1628-4772-4af9-b43a-bc0128476c8b"/><linearGradient id="a348d70c-cfc6-4049-b8bf-160e937c0c9c" x1="802.6" y1="1554.07" x2="802.6" y2="1553.08" gradientTransform="matrix(41.39 0 0 -67.65 -32976.76 105183.3)" xlink:href="#bad38f07-8b8c-4869-bb9a-62f3d346b3fe"/><linearGradient id="ae474a7e-ced2-448d-8e3b-0f031e660445" x1="774.03" y1="1560.11" x2="774.03" y2="1559.12" gradientTransform="matrix(14.19 0 0 -48.4 -10645.37 75572.79)" xlink:href="#bad38f07-8b8c-4869-bb9a-62f3d346b3fe"/><linearGradient id="fc8880f2-9d8c-4307-8ec8-5bec8c22afff" x1="811.77" y1="1548.51" x2="811.79" y2="1548.03" gradientTransform="matrix(115.47 0 0 -100.95 -93328.17 156466.65)" gradientUnits="userSpaceOnUse"><stop offset="0" stop-color="#eb835c"/><stop offset="1" stop-color="#f0936f"/></linearGradient><linearGradient id="e6a598ba-936c-4139-a53b-50199ed0e31c" x1="811.77" y1="1548.51" x2="811.79" y2="1548.03" xlink:href="#fc8880f2-9d8c-4307-8ec8-5bec8c22afff"/><linearGradient id="b92380ef-e900-4bf5-8207-892027658a01" x1="811.77" y1="1548.51" x2="811.79" y2="1548.03" xlink:href="#fc8880f2-9d8c-4307-8ec8-5bec8c22afff"/><linearGradient id="e759b746-d3c4-48a9-84b6-24cb0c096733" x1="461.03" y1="136.21" x2="461.03" y2="195.51" xlink:href="#f080fabf-7871-40e3-bf58-6209cef934d9"/><linearGradient id="a6ef5740-0c6a-4267-80a4-6d033a825ebe" x1="235.67" y1="146.44" x2="236.29" y2="146.44" xlink:href="#f080fabf-7871-40e3-bf58-6209cef934d9"/><linearGradient id="afb64c9c-128c-4ee1-8627-048eb0f2f68b" x1="232.84" y1="148.8" x2="232.99" y2="148.8" xlink:href="#f080fabf-7871-40e3-bf58-6209cef934d9"/><linearGradient id="accfcfdd-ee6e-40e5-9b64-c03ae88065e4" x1="231.62" y1="150.25" x2="231.68" y2="150.25" xlink:href="#f080fabf-7871-40e3-bf58-6209cef934d9"/><linearGradient id="f1e3b027-7495-4d71-835f-d500f6dedbec" x1="238.71" y1="145.06" x2="239.66" y2="145.06" xlink:href="#f080fabf-7871-40e3-bf58-6209cef934d9"/><linearGradient id="b8eafe82-d3f8-4969-835e-54318ef737f6" x1="236.47" y1="145.69" x2="238.62" y2="145.69" xlink:href="#f080fabf-7871-40e3-bf58-6209cef934d9"/><linearGradient id="ea5cdbf4-9f6c-43a4-9a67-9d6a9caf6b71" x1="234.25" y1="147.58" x2="234.32" y2="147.58" xlink:href="#f080fabf-7871-40e3-bf58-6209cef934d9"/><linearGradient id="fde69e99-6e4e-4f9b-8ce1-f3baf0c7b387" x1="811.7" y1="1547.73" x2="812.53" y2="1547.73" gradientTransform="matrix(112.69 0 0 -107.44 -91219.31 166456.93)" xlink:href="#f080fabf-7871-40e3-bf58-6209cef934d9"/><linearGradient id="effbb07d-3455-4317-aa49-bfd9d2077b28" x1="811.82" y1="1547.99" x2="813.29" y2="1547.99" gradientTransform="matrix(112.69 0 0 -107.44 -91219.31 166456.93)" xlink:href="#f080fabf-7871-40e3-bf58-6209cef934d9"/><linearGradient id="a50fc892-bf6d-49e5-afeb-4834237308b8" x1="811.71" y1="1558.56" x2="812.46" y2="1558.56" gradientTransform="matrix(116.99 0 0 -50 -94734.99 78079.25)" xlink:href="#f080fabf-7871-40e3-bf58-6209cef934d9"/><linearGradient id="b2f4a63e-44ed-4021-9910-8019f65b97bc" x1="811.59" y1="1547.95" x2="811.98" y2="1547.95" gradientTransform="matrix(112.69 0 0 -107.44 -91219.31 166456.93)" xlink:href="#f080fabf-7871-40e3-bf58-6209cef934d9"/><linearGradient id="bb8ba71e-ff9a-4ea4-9f58-6f55fdf8634c" x1="811.78" y1="1558.47" x2="811.99" y2="1558.47" gradientTransform="matrix(116.99 0 0 -50 -94734.99 78079.25)" xlink:href="#f080fabf-7871-40e3-bf58-6209cef934d9"/><linearGradient id="b74602be-8411-4819-b5ee-32fe32b31b85" x1="811.56" y1="1547.93" x2="811.87" y2="1547.93" gradientTransform="matrix(112.69 0 0 -107.44 -91219.31 166456.93)" xlink:href="#f080fabf-7871-40e3-bf58-6209cef934d9"/><linearGradient id="af0b9a96-5bcd-416b-842d-b766433ad828" x1="811.78" y1="1558.44" x2="811.94" y2="1558.44" gradientTransform="matrix(116.99 0 0 -50 -94734.99 78079.25)" xlink:href="#f080fabf-7871-40e3-bf58-6209cef934d9"/><linearGradient id="bdd8c8fd-a8f3-46bd-95b3-97085af14e71" x1="811.7" y1="1547.98" x2="812.53" y2="1547.98" gradientTransform="matrix(112.69 0 0 -107.44 -91219.31 166456.93)" xlink:href="#f080fabf-7871-40e3-bf58-6209cef934d9"/><linearGradient id="ff101cf1-b567-4cab-9c92-db1e5d672d0c" x1="811.76" y1="1558.54" x2="812.18" y2="1558.54" gradientTransform="matrix(116.99 0 0 -50 -94734.99 78079.25)" xlink:href="#f080fabf-7871-40e3-bf58-6209cef934d9"/><linearGradient id="fdc7ce86-eeb0-4af4-a927-b12ab6c7de59" x1="811.66" y1="1547.97" x2="812.32" y2="1547.97" gradientTransform="matrix(112.69 0 0 -107.44 -91219.31 166456.93)" xlink:href="#f080fabf-7871-40e3-bf58-6209cef934d9"/><linearGradient id="ab4cdc5b-e548-4363-b530-652f2e9b08d4" x1="811.77" y1="1558.52" x2="812.11" y2="1558.52" gradientTransform="matrix(116.99 0 0 -50 -94734.99 78079.25)" xlink:href="#f080fabf-7871-40e3-bf58-6209cef934d9"/><linearGradient id="b6b0d078-4022-4cac-b559-1331e68efd5c" x1="811.62" y1="1547.96" x2="812.13" y2="1547.96" gradientTransform="matrix(112.69 0 0 -107.44 -91219.31 166456.93)" xlink:href="#f080fabf-7871-40e3-bf58-6209cef934d9"/><linearGradient id="abefd963-7d5d-42c0-ae1e-a73cc805d678" x1="811.78" y1="1558.5" x2="812.04" y2="1558.5" gradientTransform="matrix(116.99 0 0 -50 -94734.99 78079.25)" xlink:href="#f080fabf-7871-40e3-bf58-6209cef934d9"/><clipPath id="e421e78b-1dd3-4658-930f-4b3fe19071ec"><path class="bae26a04-d5d0-4aa1-a6cb-a1b707400554" d="M481.29 218.3c-5-1.14-20.52-15.23-7.25-27.44 1.56-1.43-14.85 3.65-20.59 7.53-.51 1.44-12 10.46-12 10.46s-9.48-8.64-3.21-18.21c-6.81-1.21-15.61-1.3-20.68 19.54-.37 1.53.08 21.83 1.35 26.64a201 201 0 0 0 25.7 2.19c17.23 0 39.23-1.9 39.23-1.9s-1.68-10.46-2.55-18.81Z"/></clipPath><clipPath id="bc191df6-f2b9-4316-b851-386ef4a694e8"><path class="bae26a04-d5d0-4aa1-a6cb-a1b707400554" d="M262.39 222.46c5-1.14 13.92-14.59.64-26.79-1.55-1.43 15.46 2.87 21.2 6.76.51 1.43 10.76 10.86 10.76 10.86s5.45-9.72-.82-19.29c6.81-1.21 19.17.26 24.24 21.1.37 1.53-2.53 7.56-2.42 9.3 0 0 2.85 12.64 1.58 17.46a191 191 0 0 1-25.06 2c-17.23 0-36.66-2-36.66-2a52.63 52.63 0 0 1 6.54-19.4Z"/></clipPath><style>.ad4d1043-f505-4d71-b48d-4693df78adb2,.bae26a04-d5d0-4aa1-a6cb-a1b707400554{fill:none}.b0badd6b-d581-4643-81f8-a9526a90ee38{fill:#252223}.ae074263-ce0f-46d5-9f26-ab4fab270181{fill:#0a0a0a}.b1b90035-1f43-468e-bfdc-29d21ee17abf{fill:#302d2e}.a44eac61-3d32-4f10-8e37-d2aefa7a8293{fill:#f2eddc}.e00653c6-7459-4291-8322-15d7e3635be6{fill:#e8cd45}.ad4d1043-f505-4d71-b48d-4693df78adb2{stroke:#a99533;stroke-miterlimit:10}.b7b7ee23-fcba-42bf-b4d3-23a72c59b069{fill:#fcee50}.b4ec89de-2823-4c6e-9d55-23a2e9048f55{fill:#f1c756}.a0559f0c-e47c-4485-80bf-8b7810b819af{fill:#4b4d4d}.fcb2e30a-7f81-447a-8124-2b401deee1de{fill:#fb7e51}.e9f6d59b-92c5-4e78-bb90-d6355a4a19e1{fill:#fff}.ac065bd6-7ab2-4198-b8a6-3a26e3fe602a{fill:#16191e}.a8dada27-55d7-4370-933f-1fcd115142a6{fill:#f0936f}.ae948987-a8ad-4704-a654-039308e79935{fill:#ff8f66}</style></defs><g id="e269bbfe-4fb6-4b58-8f53-f53ac591fd63" data-name="Elementos"><g id="b5c0559a-ef36-4190-8fc6-4c4724ab7b7d" data-name="MF_cuerpo-libros"><g id="bd9afe59-897f-4888-9dfd-8ed7525bf5c1" data-name="Mascot-he-animated"><g id="b153a101-b770-425e-aaa4-efa50fb80e37" data-name="Grupo 23785"><g id="e1130ff4-1294-4f17-b1d8-b13efb1c6a4a" data-name="he-helmet-back"><path id="ab293dae-89ab-4297-bfd6-d054b30298ff" data-name="he-helmet-back-2" class="b0badd6b-d581-4643-81f8-a9526a90ee38" d="M386.75 111.29s21-3.13 32.18-4.06c10.72-.84 23.4-1.35 36.91-1.35s26.27.51 36.91 1.35c11.15.93 32.18 5.24 32.18 5.24V118c0 4.81-31 8.78-69.18 8.78s-69-4-69-8.78Z"/></g><g id="a5b9b879-2aad-47ca-a63b-02a3642138c5" data-name="he-legs"><g id="ed4cc9d9-fd9d-4b82-b913-2b26efd57a0c" data-name="he-legs-2"><g id="f3f07dfc-ca39-4eb3-bc7f-ca8100f2a0b9" data-name="Group 23764"><path id="a331c23b-c301-4f6f-904b-b8dbd6fa5181" data-name="Trazado 149783" class="ae074263-ce0f-46d5-9f26-ab4fab270181" d="M483.16 300.12h-14l.22 1.45 1 6.89v.3h.07v.06h6.16v-3.54l4.58 3.48h15.47v-4.84Z"/><path id="b40b0df1-9a84-49a8-bfeb-775437911505" data-name="Trazado 149784" class="ae074263-ce0f-46d5-9f26-ab4fab270181" d="M445.86 300.12h-14.53c0 .62-.06 1-.06 1l-9.5 2.55v5.12h13.8l4.95-3.77v3.77h7s.65-3 1.4-7.67c0-.3.1-.61.15-.92l-3.18-.05"/><path id="a5817099-3b96-4984-a74d-1fbb6b936c71" data-name="Trazado 149785" class="b1b90035-1f43-468e-bfdc-29d21ee17abf" d="M487.39 300.72c0-2 .32-53.08-4.31-66v-.11h-.17c-3.19-1-46.4 1.85-59 2.71l-3.46.16v.08c.09 1.8 1.54 27.87 9.15 63.16h.07v.08h19.06v-.08H450c.34-17.91 1.1-45.5 1.16-47.73 1.83 5.17 7.13 13.79 11.64 26.07 2 6.48 3.81 12.75 4.92 17.34q.42 2.11.78 4.32s0 0 0 .08l18.9-.08Z"/><path id="fb8b7f76-5130-4880-a97e-96e068594375" data-name="Trazado 149786" class="b0badd6b-d581-4643-81f8-a9526a90ee38" d="M483.08 234.75v-.1h-.15l-1.6.07h-6.78l.06.31 12.79 65.75s.4-52.91-4.32-66.03Z"/><path id="efebc9ff-fdbb-41ae-9ec5-112b8657b850" data-name="Path 149279" class="b0badd6b-d581-4643-81f8-a9526a90ee38" d="M451.22 253.14c-1.16 16.06-1.16 47.73-1.16 47.73h-7.36c-.09-.08-.18-37.67 8.52-47.73"/></g></g></g><g id="afe69253-ec65-42a1-878e-f83612bbc060" data-name="he-body"><g id="be147f5e-9ff2-4530-b44d-e71cc736ff00" data-name="Grupo 23769"><path id="bb94910d-f625-49e7-ad92-7caf96df39ed" data-name="Trazado 149284" class="a44eac61-3d32-4f10-8e37-d2aefa7a8293" d="M434.2 182.44c33.11 1.6 46.37 10.39 46.37 10.39a72.15 72.15 0 0 1 2.54 15.37 1.66 1.66 0 0 0-1.1.34c-1.52 1.1-1.69 3-1.44 5.66.51 3.67 2.7 18.75 2.79 22.72h-64.19l-.17-32.77s4.73-22 15.2-21.71"/><path id="f34ce042-7cae-4cd9-8249-bfe1749e88aa" data-name="Trazado 149285" class="e00653c6-7459-4291-8322-15d7e3635be6" d="M481.29 218.3s-15.55-7.58-5.41-28.27c-1.69-1.27-16.29 4.23-22.12 8.11-.51 1.52-12.35 10.71-12.35 10.71s-4.83-5.54-5.33-10.58l4.92-1.4-9.46-10.48c-9.38 4.06-14 4.23-14.11 28.89 0 0 .08 16.64 1.44 21.54a212.48 212.48 0 0 0 27 2.11c17.57 0 37.34-2.11 37.34-2.11Z"/><g style="clip-path:url(#e421e78b-1dd3-4658-930f-4b3fe19071ec)" id="bf224a03-eb5e-4fd3-b5b6-c9eec13f45d3" data-name="Grupo 23768"><g id="a9f369d5-e2da-4d53-85a2-f69ca4a2ff80" data-name="Grupo 23767"><g id="fd67c42b-09f3-45a4-8581-1542d95e09d5" data-name="bandas"><path id="e65651af-c083-4cd8-b809-c74e30b8ef73" data-name="Trazado 149288" class="ad4d1043-f505-4d71-b48d-4693df78adb2" d="M441.58 207.43c-2.17 12.55.51 31.66.51 31.66"/><g id="e3a4e9d6-aac9-41d8-9831-7551bfa97ff8" data-name="Grupo 23959"><g id="b247877e-9913-483a-a505-45c649e4a53e" data-name="Grupo 23957"><path id="b9f1495d-48e5-47ff-a585-ff31deb6438c" data-name="Trazado 149781" d="M444.69 234a186.15 186.15 0 0 1-28.3-2l.77-4.94c19.39 3 44.36 2.52 65.16-1.34l.91 4.92a216.53 216.53 0 0 1-38.54 3.36Z" style="fill:url(#aa905387-c201-4474-9e42-8110c76887dd)"/></g><g id="ef97ad86-2cf8-42c7-a0f3-b2861ade6e4b" data-name="Grupo 23958"><path id="ab6a8765-2af6-4c24-a640-431aa0e44ba4" data-name="Trazado 149782" d="M447.17 225c-12.3 0-23.64-.81-30.32-2.23l1-4.89c12.64 2.67 44.15 3.07 64.32-.43l.86 4.92a221.25 221.25 0 0 1-35.86 2.63Z" style="fill:url(#e397b9d4-2fb2-4e2e-a5d6-8132b713eaa6)"/></g></g></g></g></g></g></g><path id="a600b16e-8996-42c1-bdbd-f6d974a990fb" data-name="Trazado 149754" d="M457.31 66.66c-.81 0-1.62 0-2.45.06.83-.04 1.64-.05 2.45-.06Z" style="fill:#28184a"/><path id="ba9b86d7-e1b8-478e-9a32-3213b6d75c07" data-name="Trazado 149779" class="bae26a04-d5d0-4aa1-a6cb-a1b707400554" d="M443.61 184.24a9 9 0 0 1-8.95-9h18a8.92 8.92 0 0 1-8.89 9h-.15"/><path d="M513.72 113.84A35 35 0 0 0 508.58 97a56.72 56.72 0 0 0-4.76-7.77 56 56 0 0 0-10.55-11 53 53 0 0 0-14.64-8.17 10.43 10.43 0 0 0 2.17-3.87 24.3 24.3 0 0 1-6.29.83c-.67 0-1.33 0-2-.08a7.62 7.62 0 0 0 6.26-4.51l-4.3.5-4.33.5a14.91 14.91 0 0 0-5 1.18 5.77 5.77 0 0 0-2.41 2.16h-.63c.91.06 1.72.12 2.47.2h-.37a5.44 5.44 0 0 1-.58.05h-.21a51.07 51.07 0 0 0-5.39-.28 54.94 54.94 0 0 0-36.5 14 57.29 57.29 0 0 0-8.76 9.57l-17.1-1.15-.24 27.46c0 13.68 11.32 22.21 25 22.21h50.73V128.7a23.4 23.4 0 0 0 2.83 3.45c4.26 4.28 17.49 6.68 17.49 6.68a10.89 10.89 0 0 1 3.53-3 16.8 16.8 0 0 1 7-1.51h.12a16.92 16.92 0 0 1 8.53 2.38c.41.25.82.51 1.22.79a116.94 116.94 0 0 0 1.35-14.22c0-.21 0-.43.07-.64a36.62 36.62 0 0 0 .43-8.79Z" style="fill:url(#b29a7c40-95eb-48d4-b64a-ff42043f9b0b)"/><g id="bbf61f1b-eebd-416c-a81d-a7e143464bc3" data-name="he-Helmet"><path id="ff698fb8-a3d3-4432-9509-dcbbdc96a507" data-name="Path 40" class="bae26a04-d5d0-4aa1-a6cb-a1b707400554" d="M525 111.29s-21-3.13-32.19-4.06c-10.72-.84-23.4-1.35-36.91-1.35s-26.27.51-36.91 1.35c-11.23.93-32.26 5.24-32.26 5.24V118c0 4.81 31 8.78 69.17 8.78s69.18-4 69.18-8.78Z"/><g id="f4ad91af-0bf0-4c0c-8d82-28f5a4d6b385" data-name="Group 7"><path id="e5b60061-6eb6-4bc0-882c-0a6803fb5a11" data-name="Path 41" class="b7b7ee23-fcba-42bf-b4d3-23a72c59b069" d="M455.93 101.58c-38.18 0-69.18 4-69.18 8.78v.17a5 5 0 0 0 5 5 8.59 8.59 0 0 0 1.35-.17h.09c5.66-1.52 14.61-2.79 25.76-3.72 10.73-.84 23.4-1.35 36.91-1.35s26.27.51 36.91 1.35c11.15.93 20.1 2.2 25.77 3.72l.25.08a5 5 0 0 0 6.08-3.55 6.7 6.7 0 0 0 .17-1.26v-.17c-.04-4.91-30.94-8.88-69.11-8.88Z"/><path id="eda79798-f53d-453f-92c2-fd87b10db163" data-name="Path 42" class="b7b7ee23-fcba-42bf-b4d3-23a72c59b069" d="M525 117.12v-6.76c0-4.64-28.89-8.53-65.3-8.78h-4c-38 0-69 4-69 8.78v6.76a1.46 1.46 0 0 0 .25 1.18c.08-.08.25-.17.34-.25.93-.93 3-1.77 5.91-2.62s6.08-1.35 9.12-1.86a10.68 10.68 0 0 1 10.14 4.06 14.7 14.7 0 0 0 11.82 5.83h37.25a22.19 22.19 0 0 0 13.69-4.65l5.32-4a12.31 12.31 0 0 1 7.43-2.54c7.26.09 12.25.09 13 .17a121.78 121.78 0 0 1 17.48 3 15.32 15.32 0 0 1 6.25 2.87 1.22 1.22 0 0 0 .3-1.19Z"/></g><g id="b94dd18c-701e-4fce-8cc9-6fcac06b9c4e" data-name="Group 11"><g id="a83529f3-6e66-4a12-901e-1ab9a5511715" data-name="Group 9"><path id="e0ca928e-dda5-4605-9419-51c3ff733832" data-name="Path 43" d="M477.17 38.65a63.28 63.28 0 0 1 42.06 59.71v9c-5.74-1.69-15.37-3-27.45-4 .08-1.69.08-3.47.08-5.24.14-23.49-5.65-44.78-14.69-59.47Z" style="fill:url(#bad38f07-8b8c-4869-bb9a-62f3d346b3fe)"/><path id="af1d29d8-9c0a-4753-a0f6-27e52e5c6e19" data-name="Path 44" d="M392.53 98.36A63.16 63.16 0 0 1 407 58.07a131.25 131.25 0 0 0-6 40.12c0 2.45.08 4.9.17 7.35a59.36 59.36 0 0 0-8.54 1.86Z" style="fill:url(#f625ca00-9075-4f45-96f3-5f46047746bf)"/><path id="ba1e3ad9-2891-49a2-8070-fb3bb3c7f8f7" data-name="Path 45" class="b7b7ee23-fcba-42bf-b4d3-23a72c59b069" d="M407 58.07a63.37 63.37 0 0 1 70.19-19.42c9 14.78 14.78 36 14.78 59.54 0 1.78 0 3.47-.09 5.24-9.46-.76-20.35-1.18-32-1.27H456c-22.3 0-42.07 1.35-54.74 3.38-.16-2.45-.25-4.9-.25-7.35A131.56 131.56 0 0 1 407 58.07Z"/><g id="fce76811-9441-442c-8d12-339add012401" data-name="Group 8"><path id="ad98c692-1379-4fe6-8e04-1e411d0f9b20" data-name="Path 46" class="b7b7ee23-fcba-42bf-b4d3-23a72c59b069" d="m430.41 62.21 4-25.08a4.75 4.75 0 0 1 3.38-3.89 63.72 63.72 0 0 1 35.82-.08A4.71 4.71 0 0 1 477 37l4.06 25.17"/></g></g><g id="e24fdeed-42a2-48e0-95f0-59e1a06fe82a" data-name="Group 10"><path id="e2a5aca1-6a1e-43df-b640-0bcaf42dea0d" data-name="Path 47" class="b4ec89de-2823-4c6e-9d55-23a2e9048f55" d="M446.25 102.08V90.42l14.61-9Z"/><path id="f9191f19-7d15-48a4-9f9e-00cacd0813f4" data-name="Path 48" class="b4ec89de-2823-4c6e-9d55-23a2e9048f55" d="m431.64 81.47 14.61 9v11.66Z"/><path id="bc342753-b53a-44d8-97b3-e7d687abe2a2" data-name="Uni贸n 48" class="ae074263-ce0f-46d5-9f26-ab4fab270181" d="m431.64 81.47 14.61 9v11.66Zm0-5.41 14.61-23.56v32.1Z"/><path id="b5e97a64-c2ab-4756-a6cd-5dd04b771c0c" data-name="Uni贸n 47" class="a0559f0c-e47c-4485-80bf-8b7810b819af" d="m446.25 90.42 14.61-9-14.61 20.61Zm0-23V52.49l14.62 23.57h-.09l-14.61 8.45Z"/><path id="e14bad69-2804-4cf2-9349-dd148f377b7d" data-name="Path 58" class="b1b90035-1f43-468e-bfdc-29d21ee17abf" d="m446.25 84.59-14.61-8.53Z"/></g></g></g><path d="M487.44 196.33c1.72 2.88 6.28 22.32-8.22 29.78-7.59 3.89-17.15 3.85-25.11.82l-18.66-7.11c9-8.15 20.55-9.88 32.33-7 7-6.16 4.24-19.12 8.21-23.17 4.29-4.41 9.31 3.08 11.45 6.68Z" style="fill:url(#f080fabf-7871-40e3-bf58-6209cef934d9)"/><path class="fcb2e30a-7f81-447a-8124-2b401deee1de" d="M463.82 212a2.48 2.48 0 0 1-1 .23h-.27c-7.43.43-15 4.13-17.41 11.24l-9.7-3.7c7.97-7.19 18-9.36 28.38-7.77Z"/><path class="a44eac61-3d32-4f10-8e37-d2aefa7a8293" d="M469 211.51c4.26-5.86 2.6-15.85 5.05-20.6.31-.6 1-1.07 3.09-2.19 3.44-1.87 8.74-.34 12 4.33 4.57 6.53 4.14 18.36-4.52 28.84-3.01-6.11-8.55-10.81-15.62-10.38Z"/><path d="M420.58 213a1 1 0 0 0 0 .17c15.69-6.9 26.78-12.73 41.7-1.33-6.26-.58-12.35-.09-16.26 1.89-4.85 2.45-25.46 26.13-37.89 6.73 1.76-4.02 6.8-8.2 12.45-7.46Z" style="fill:url(#ba823d85-af2f-4ed7-8316-d57fca0789d4)"/><path class="a44eac61-3d32-4f10-8e37-d2aefa7a8293" d="M421.32 190.59c-12.95 1.81-17 19.94-13.18 29.86 4.6-8.14 12.43-7.51 12.43-7.51s-2.89-11.21.75-22.35Z"/><path class="e9f6d59b-92c5-4e78-bb90-d6355a4a19e1" d="M403.9 140.9h.08-.08zM403.9 140.9h.08-.08zM510.6 136.71a16.92 16.92 0 0 0-8.53-2.38H502a15.51 15.51 0 0 0-1.8.1 16.81 16.81 0 0 0-1.73.27 16.64 16.64 0 0 0-3.41 1.13 10.89 10.89 0 0 0-3.53 3s-13.23-2.4-17.49-6.68a23.4 23.4 0 0 1-2.83-3.45v10.13h-50.82a27.33 27.33 0 0 1-17.23-5.66v.88l.16 1.43c-.26.17-.51.35-.76.53a16.85 16.85 0 0 0 4.9 29.67l1.2 8.28a43.26 43.26 0 0 0 1 4.55 32 32 0 0 0 12.68 17.36c5.78 3.57 13.31 5.27 22.52 5.09 17.32.25 31.15-10.11 42.53-20.95a110.45 110.45 0 0 0 10.18-12.34 16.59 16.59 0 0 0 4.21.54 16.94 16.94 0 0 0 8.78-31.5Zm-106.7 4.19Z"/><g id="be78d46f-2ed6-49ee-aa97-65fedf5039f4" data-name="he-eyes"><path id="ac3b1523-8320-488b-b955-7f70d0edf273" data-name="Path 26" class="bae26a04-d5d0-4aa1-a6cb-a1b707400554" d="M459.77 145a6.85 6.85 0 0 1 6.9 6.79v5.32a6.91 6.91 0 0 1-13.81 0v-5.32a6.91 6.91 0 0 1 6.91-6.79Z"/><path id="f313ad21-a755-4667-83b1-b169ec2cdbf2" data-name="Path 30" class="bae26a04-d5d0-4aa1-a6cb-a1b707400554" d="M428.58 145a6.85 6.85 0 0 1 6.9 6.79v5.32a6.91 6.91 0 0 1-13.81 0v-5.32a7 7 0 0 1 6.91-6.79Z"/></g></g></g><path id="ae91e980-35ba-4f67-bd1c-f1839e1dafc1" data-name="Trazado 149257" class="ac065bd6-7ab2-4198-b8a6-3a26e3fe602a" d="M273.23 303.36a69.4 69.4 0 0 0-2.31-27.8c-3.93-13.88-8.77-21.53-8-33.3-4.27-.78-3.69-.67-7.11-.47-.87 5.43 2.43 18.34 8.76 28.34 4.7 7.38 8.43 31.87 8.66 33.23Z"/><g id="ac2051bd-ca92-4785-bd0f-520365de2b66" data-name="she-hair-back"><path id="e98c2c9d-0c2f-49c0-a5f2-a9c132cab95c" data-name="helmet-back" d="M350.75 119s-20.7-3-31.68-4c-10.47-.85-23-1.35-36.32-1.35s-25.84.5-36.32 1.35c-11 .84-31.5 5.15-31.5 5.15v5c0 4.73 30.32 9 67.82 9s68-3.89 68-8.62Z" style="fill:url(#ae97cfe8-406b-4da3-bff2-cbe3449b835b)"/></g><g id="beefeb86-aee6-4df5-9818-d4bc4b074e7d" data-name="she-hair-back-2"><path id="a936cbbc-ab75-4610-921f-e1f95bb3a383" data-name="she-hair-back-3" d="M334 224.29h-87.72a20.36 20.36 0 0 1-20.36-20.35v-82.19H334Z" style="fill:url(#b42e1628-4772-4af9-b43a-bc0128476c8b)"/></g><path id="a62854db-dcfb-4937-9f3a-16ea49c08c3f" data-name="Trazado 149252" class="ac065bd6-7ab2-4198-b8a6-3a26e3fe602a" d="m261.24 286.51-6 .85v5.11h2.54l3.47-1.1Z"/><path id="b5418238-3d3f-45e2-9d70-03f3c5f88b74" data-name="Trazado 149253" class="ae074263-ce0f-46d5-9f26-ab4fab270181" d="M284.66 302.6h-11.39v.76l-7.44 2v4h10.77l3.88-3v3h5.45s.51-2.35 1.1-6c0-.23.08-.48.12-.72Z"/><path id="b9537c0b-8969-47d7-818a-48eae32024e8" data-name="Trazado 149254" class="ae074263-ce0f-46d5-9f26-ab4fab270181" d="m261.28 302.53.54.11V287.73c-4-.21-6.53-.44-6.53-.44v5.11h3l-3 3.89v12.83h4Z"/><path id="bf54010d-8e00-4dae-aa16-4456050b5d97" data-name="Trazado 149255" class="b1b90035-1f43-468e-bfdc-29d21ee17abf" d="M273.23 303.36h13.89c2.28-15.77 1.29-39.07.31-45.44 0 0 4.29 21.2-26.19 28.54l.58 16.18c54.31-10.15 53.18-33.81 55.93-60.1 0-10.77-51.67-13-55.16 0 .35 14.35 2 16.29 8.12 34 4.12 15.93 2.52 26.82 2.52 26.82Z"/><path id="f3bc6f46-5ff1-4e35-ac2d-13abf7b3c173" data-name="Trazado 149256" class="b0badd6b-d581-4643-81f8-a9526a90ee38" d="M287.43 258c4.48 18.24-26.19 28.54-26.19 28.54l.2 5.61c0-.1 33-13.7 26-34.15"/><path id="bc20412d-c084-4dea-8e6a-2fca6f96050d" data-name="Trazado 149258" class="ae074263-ce0f-46d5-9f26-ab4fab270181" d="m261.28 286.54-6 .84v5.11h3l3.06-.67Z"/><g id="b3b7fe27-bc6e-4863-9a80-844e69fef92d" data-name="she-body"><g id="e0318ed4-2c21-4736-9c84-4da5e8c7eeb1" data-name="Grupo 23747"><path id="a26f70d7-cf10-42ba-b4db-5d92972d618e" data-name="shirt" class="a44eac61-3d32-4f10-8e37-d2aefa7a8293" d="M306.68 197.69c-32.6 1.52-44.07 0-44.07 0a14.08 14.08 0 0 0-4.07 9.6s1 4.75 2.91 5.47c2.19 1.1 1.67 5.24 1.42 7.85a49.33 49.33 0 0 1-2.7 10.56c0 3.89-1.93 6.52-2 10.49l58 .45s-7.69-17.16-7.52-23.75Z"/><g id="bfda7c9a-5837-4e06-9232-b451c5bd5ed5" data-name="chaleco"><path id="b6a7a1e7-01ea-4ee7-876f-3cb04f44d04b" data-name="chaleco-2" class="e00653c6-7459-4291-8322-15d7e3635be6" d="M262.39 222.46c5-1.14 13.92-14.59.64-26.79-1.55-1.43 15.46 2.87 21.2 6.76.51 1.43 10.76 10.86 10.76 10.86s5.45-9.72-.82-19.29c6.81-1.21 19.17.26 24.24 21.1.37 1.53-2.53 7.56-2.42 9.3 0 0 2.85 12.64 1.58 17.46a191 191 0 0 1-25.06 2c-17.23 0-36.66-2-36.66-2a52.63 52.63 0 0 1 6.54-19.4Z"/><g style="clip-path:url(#bc191df6-f2b9-4316-b851-386ef4a694e8)"><g id="e8a22d55-78eb-4776-893a-2ffee12304a8" data-name="Grupo 23745"><g id="fe29193e-c9f6-46e1-a39d-2fe2cb8d0016" data-name="Grupo 23744"><path id="f7b0b67c-79b9-424e-9e5d-5db561f3a7fa" data-name="Trazado 149249" class="ad4d1043-f505-4d71-b48d-4693df78adb2" d="M295 212.12c2.71 12.55 0 31.78 0 31.78"/><g id="a4064c17-a141-4a8f-8a3b-9d7b52237f34" data-name="Grupo 23960"><g id="ac40f25e-c2b0-4d40-9f28-8f35448e109a" data-name="Grupo 23960-2"><path id="ec5aa26a-61c3-46e2-9896-8cc796d166e1" data-name="Trazado 149787" d="M292.41 238.28a255.22 255.22 0 0 1-35.48-2.51l.7-5c21.43 3 44.21 3.29 60.93.67l.77 4.94a176.94 176.94 0 0 1-26.92 1.9Z" style="fill:url(#a319dafe-2a12-44eb-b735-f498b95286f1)"/></g><g id="b19a15f9-8f5a-427e-936e-c1777ec46411" data-name="Grupo 23961"><path id="a44ee3ac-e92c-4bd8-90f0-dab1a926c1f6" data-name="Trazado 149788" d="M291.71 229.33a212.05 212.05 0 0 1-34.86-2.71l.86-4.93c20.77 3.61 47.9 3.25 60.2.66l1 4.89c-6.23 1.32-16.18 2.09-27.2 2.09Z" style="fill:url(#a494cf65-3952-46d1-9e43-6d696b630480)"/></g></g></g></g></g></g></g></g><path id="aa2f5397-efb0-46b8-a10d-527af22a0894" data-name="Path 60687" class="bae26a04-d5d0-4aa1-a6cb-a1b707400554" d="M326.91 158.58H271.7a14.52 14.52 0 0 0-14.52 14.53v21.45a49.84 49.84 0 0 0 29 8.7c20.27 0 38.15-11.37 44.91-29.95 0 0 1.29-8.38 0-14.73-.09.03-4.18 0-4.18 0Z"/><path id="a80b33e0-5a8a-42a8-92a8-65dedfaf4d66" data-name="Path 60693" class="bae26a04-d5d0-4aa1-a6cb-a1b707400554" d="M291.72 191.1a8.87 8.87 0 0 0 8.87-8.87h-17.74a9 9 0 0 0 8.87 8.87Z"/><path id="a3947b23-1602-4351-8ff3-b4dd98884e20" data-name="Path 60694" class="bae26a04-d5d0-4aa1-a6cb-a1b707400554" d="M239.44 160.86c-3.55-1.27-3.89-6.33-.34-7.77a6.67 6.67 0 0 1 5.24-.17c3.63 1.44 4.64 3.8 4.64 8a9.71 9.71 0 0 1-2.45 6.5v-.67c0-2.6-3.8-4.75-7.09-5.89Z"/><g id="a082a44f-7186-4124-b2e2-b737a5aae66f" data-name="she-eyes"><path id="b37ce8fb-cb1f-45c2-b5c6-60cb887ea261" data-name="Path 60691" class="bae26a04-d5d0-4aa1-a6cb-a1b707400554" d="M276.93 157.48a6.77 6.77 0 0 0-6.63 6.84v5.31a6.77 6.77 0 0 0 6.63 6.85 6.76 6.76 0 0 0 6.63-6.85v-5.31a6.7 6.7 0 0 0-6.56-6.84Z"/><path id="ea7e0a19-f1a1-499a-8cd9-bc53a047b6c6" data-name="Path 60692" class="bae26a04-d5d0-4aa1-a6cb-a1b707400554" d="M306.68 157.48a6.75 6.75 0 0 0-6.63 6.84v5.31a6.76 6.76 0 0 0 6.63 6.85 6.75 6.75 0 0 0 6.62-6.85v-5.31a6.7 6.7 0 0 0-6.56-6.84Z"/></g><path d="M252.11 203c-1.49 2.49-5.44 19.32 7.12 25.77 6.56 3.37 14.83 3.34 21.73.71l16.14-6.15c-7.75-7.06-17.78-8.55-28-6.08-6.08-5.32-3.68-16.55-7.11-20-3.69-3.84-7.99 2.64-9.88 5.75Z" style="fill:url(#fae51dad-daff-4754-a108-ee56033ef83f)"/><path class="fcb2e30a-7f81-447a-8124-2b401deee1de" d="M272.55 216.58a2.21 2.21 0 0 0 .86.2.85.85 0 0 1 .23 0c6.43.36 13 3.56 15.07 9.72 2.79-1.07 5.32-1.59 8.12-2.66a28.53 28.53 0 0 0-24.28-7.26Z"/><path class="a44eac61-3d32-4f10-8e37-d2aefa7a8293" d="M268.05 216.15c-3.7-5.07-2.26-13.72-4.38-17.83-.26-.52-.88-.93-2.67-1.9-3-1.61-7.57-.29-10.4 3.75-4 5.65-3.59 15.89 3.91 25 2.64-5.32 7.49-9.39 13.54-9.02Z"/><path d="M310 217.43v.15c-8.62-7.84-25-11.71-36.08-1.16 5.42-.5 10.68-.07 14.06 1.64 4.21 2.12 22 22.62 32.8 5.82-1.55-3.46-5.92-7.08-10.78-6.45Z" style="fill:url(#a6010e1d-de9e-4dab-924b-bbcddbc0280a)"/><path class="a44eac61-3d32-4f10-8e37-d2aefa7a8293" d="M309.34 198c11.2 1.57 14.73 17.26 11.4 25.84a12 12 0 0 0-10.76-6.5s2.5-9.66-.64-19.34Z"/><path id="ef6be977-8a4d-4d82-a1b5-212bd6ad2b8c" data-name="Uni贸n 52" class="e9f6d59b-92c5-4e78-bb90-d6355a4a19e1" d="M241.72 173.79a14.54 14.54 0 0 1-13.1-14.62v-.25a14.76 14.76 0 0 1 11.21-14c4.46-25.68 23.53-49.06 46.4-49.06 23.15 0 42.41 24 46.56 50a14.7 14.7 0 0 1-1.86 27.38c-6.49 19.15-24 30-44.7 30-20.45.02-37.87-10.65-44.51-29.45Z"/><path id="a8d88c53-f860-4193-8529-2a3564960094" data-name="Uni贸n 51" d="M225.92 151.82v-37.25l113.19-2.88v17.92c0 13.68-11.32 22.21-25 22.21h-16.73v-10.13a22.79 22.79 0 0 1-18.92 10.13h-22.4a14.8 14.8 0 0 0-12.49-7.35h-.31a14.5 14.5 0 0 0-7.4 2 14.82 14.82 0 0 0-5.26 5.32h-4.68Z" style="fill:url(#efea637c-bc8e-42c0-a985-69c9777a7bce)"/><g id="ae5312f1-ca5b-42c6-b45f-57dae6a611a9" data-name="she-helmet"><g id="aaae73c7-b94e-468b-9dec-b65933523ac1" data-name="Group 18643"><path id="fdbe8ec6-9ce3-4dac-a5a2-6d642cf6ea72" data-name="Path 60696" class="b7b7ee23-fcba-42bf-b4d3-23a72c59b069" d="M282.92 109.41c37.5 0 68 3.88 68 8.61v.17a4.9 4.9 0 0 1-4.9 4.9 7.55 7.55 0 0 1-1.35-.17h-.09c-5.49-1.52-14.36-2.79-25.25-3.63-10.48-.85-23-1.35-36.32-1.35s-25.85.5-36.32 1.35c-11 .84-19.77 2.11-25.26 3.63l-.25.08a4.9 4.9 0 0 1-6-3.46 3.23 3.23 0 0 1-.25-1.27v-.16c0-4.82 30.41-8.7 67.99-8.7Z"/><path id="b7be29d6-12dd-470a-bfd7-8021987fa5cf" data-name="Path 60697" class="b7b7ee23-fcba-42bf-b4d3-23a72c59b069" d="M214.93 124.69V118c0-4.56 28.38-8.36 64.19-8.61H283c37.5 0 68 3.88 68 8.61v6.67a1.27 1.27 0 0 1-.25 1.1c-.09-.08-.26-.17-.34-.25q-1.4-1.4-5.83-2.53a80.48 80.48 0 0 0-8.95-1.78 10.42 10.42 0 0 0-10 4.06A14.69 14.69 0 0 1 314 131h-36.74a22.28 22.28 0 0 1-13.51-4.56l-5.24-4a12 12 0 0 0-7.35-2.45c-7.1.08-12 .08-12.75.17a114.54 114.54 0 0 0-17.15 2.87 15.68 15.68 0 0 0-6.08 2.79 1.56 1.56 0 0 1-.25-1.13Z"/></g><g id="e199fd36-7456-4181-b31a-89aec5b418dc" data-name="Group 18647"><g id="b1e26e34-47ab-443a-b8fc-1a73a25e132b" data-name="Group 18645"><path id="a5f59c2c-3f25-4aef-8434-68685afdafec" data-name="Path 60700" class="b7b7ee23-fcba-42bf-b4d3-23a72c59b069" d="M330.93 66.58A62.19 62.19 0 0 0 262 47.49c-11.62 9.26-25.4 30.94-25.4 54.08 0 1.69 10.88 7.92 11 9.61 9.29-.68 20-1.18 31.5-1.27h3.8c21.88 0 41.48.82 53.89 2.85 1.36-2.39 2.36-11.41 2.36-13.77.08-13.41-3.04-25.16-8.22-32.41Z"/><path id="e2373d8a-bbe0-4d9f-8e69-c86d5988c0f5" data-name="Path 60698" d="M262 47.49a62.43 62.43 0 0 0-41.38 58.79v8.3c5.65-1.6 15.11-2.56 26.94-3.4-.08-1.69-.08-3.3-.08-5.07 0-23.23 5.57-44.11 14.52-58.62Z" style="fill:url(#a348d70c-cfc6-4049-b8bf-160e937c0c9c)"/><path id="e06bf3bc-9e3b-47ec-9a27-6a8cf43fe012" data-name="Path 60699" d="M345.2 106.28A62.15 62.15 0 0 0 331 66.67c5.57 11.19 6 26.07 5.91 39.44 0 2.45-.08 4.29-.17 6.65a71.71 71.71 0 0 1 8.45 1.79Z" style="fill:url(#ae474a7e-ced2-448d-8e3b-0f031e660445)"/><g id="e0138e0b-d122-434b-9833-73bfd3986c89" data-name="Group 18644"><path id="a18aee94-2ab0-4679-8d48-4c5c34f7f60b" data-name="Path 60701" class="b7b7ee23-fcba-42bf-b4d3-23a72c59b069" d="M308 70.72 304 46a4.73 4.73 0 0 0-3.38-3.8 62.43 62.43 0 0 0-35.22 0 4.63 4.63 0 0 0-3.29 3.8l-4 24.75"/></g></g><g id="af8da161-b2c0-4477-b48d-b8d1a0c9f2e3" data-name="Group 18646"><path id="fad53942-7383-4423-9019-98054e9da759" data-name="Path 60702" class="b4ec89de-2823-4c6e-9d55-23a2e9048f55" d="M292.43 109.88V98.4l-14.36-8.79Z"/><path id="f864ea9d-d0bf-43da-a280-a82c29981b47" data-name="Path 60703" class="b4ec89de-2823-4c6e-9d55-23a2e9048f55" d="m306.71 89.61-14.28 8.79v11.49Z"/><path id="a0faf1f8-2d75-4144-b5e6-d1a549048681" data-name="Path 60704" class="b4ec89de-2823-4c6e-9d55-23a2e9048f55" d="m292.43 76.09 14.36 8.28-14.36-23.23Z"/><path id="a5d908b8-9b43-45ff-8e1c-77afc49e730a" data-name="Path 60705" class="b4ec89de-2823-4c6e-9d55-23a2e9048f55" d="m292.43 61.14-14.36 23.23 14.36-8.28Z"/><path id="a54f2c50-6568-40fd-897b-477fc667a628" data-name="Path 60706" class="b4ec89de-2823-4c6e-9d55-23a2e9048f55" d="M292.43 76.09v16.56l14.36-8.28Z"/><path id="ba83f2a3-b1ce-4bd1-ab01-756ca25a5026" data-name="Path 60707" class="a0559f0c-e47c-4485-80bf-8b7810b819af" d="m306.71 89.61-14.28 8.79v11.49Z"/><path id="f7dab464-ce56-4c78-a2f0-12765bec5f0b" data-name="Path 60708" class="b4ec89de-2823-4c6e-9d55-23a2e9048f55" d="m278.07 84.37 14.36 8.28V76.09Z"/><path id="adffbdb2-53c2-4410-acf9-232c3d4b205d" data-name="Path 60709" class="ae074263-ce0f-46d5-9f26-ab4fab270181" d="M292.43 109.88V98.4l-14.36-8.79Z"/><path id="f2a24cdd-f7a5-451b-b1b8-2e352d27e48e" data-name="Union 1" class="ae074263-ce0f-46d5-9f26-ab4fab270181" d="m278.07 84.37 14.36-23.23v31.51Z"/><path id="e7bbe42a-9d54-4ecb-b9f2-d7087cc360a6" data-name="Union 2" class="a0559f0c-e47c-4485-80bf-8b7810b819af" d="M292.43 76.09v-15l14.36 23.23-14.36 8.28Z"/></g></g></g><path id="fb5a10f3-ed28-4ac5-ba0a-d592f6e0cb98" data-name="Trazado 149756" class="fcb2e30a-7f81-447a-8124-2b401deee1de" d="M395.73 149.77a16.86 16.86 0 0 1 6.89-13.77c.25-.18.5-.36.76-.53.2 1.81.41 3.61.61 5.42h-.08l.36 2.5.32 2.84.13.25 2.8 19.19a16.94 16.94 0 0 1-11.79-15.9Z"/><path class="a8dada27-55d7-4370-933f-1fcd115142a6" d="m403.91 140.9.34 2.35-.25-2.35ZM403.21 134v-.11.11Z"/><path class="ae948987-a8ad-4704-a654-039308e79935" d="M482 185c0-10.65-.53-11.44-.53-23.38 0-13-6.47-18.64-24.79-18.64-13.6 0-49.32-.24-52.4.47l.32 2.84.13.26 2.8 19.19 1.2 8.28a43.26 43.26 0 0 0 1 4.55 31.9 31.9 0 0 0 12.68 17.36c5.78 3.57 13.31 5.27 22.52 5.09 17.32.25 31.15-10.11 42.53-20.95v.05Z"/><path d="M404.27 143.4v-.15Z" style="fill:url(#fc8880f2-9d8c-4307-8ec8-5bec8c22afff)"/><path d="M403.16 132.78a7.93 7.93 0 0 0 0 1.09v-1.08Z" style="fill:url(#e6a598ba-936c-4139-a53b-50199ed0e31c)"/><path d="m403.38 135.49-.16-1.44v-.07c.13 1.71.49 4.75.75 6.92-.18-1.8-.39-3.61-.59-5.41Z" style="fill:url(#b92380ef-e900-4bf5-8207-892027658a01)"/><path class="a8dada27-55d7-4370-933f-1fcd115142a6" d="M487.41 178.86c3.37-11.45 4.1-13.37 1.06-24.92-.18-.7-.23-14.72-.7-15.27s-9-.41-16.64-.62v.78H420.4a27.51 27.51 0 0 1-16.63-5.19 2.2 2.2 0 0 1-.61-.85V134.05l.16 1.44c.2 1.8.41 3.61.61 5.41l.29 2.35v.15c3.08-.71 38.8-.47 52.4-.47 18.32 0 24.79 5.66 24.79 18.64 0 11.94.53 12.73.53 23.38l5.39-4.89v-1.2Z"/><path d="M510.61 136.71a17 17 0 0 0-8.53-2.38H502a16.8 16.8 0 0 0-7 1.51 10.89 10.89 0 0 0-3.53 3s-13.23-2.4-17.49-6.68a22.79 22.79 0 0 1-2.83-3.45v10.13H420.4a27.51 27.51 0 0 1-16.63-5.19 2.2 2.2 0 0 1-.61-.85V134.06l.16 1.44c.2 1.8.41 3.61.61 5.41l.29 2.35v.15c3.08-.71 38.8-.47 52.4-.47 18.32 0 24.79 5.66 24.79 18.64 0 11.94.53 12.73.53 23.38l5.39-4.89v-.05a110.37 110.37 0 0 0 10.17-12.34 16.73 16.73 0 0 0 4.22.54 16.94 16.94 0 0 0 8.78-31.5Z" style="fill:url(#e759b746-d3c4-48a9-84b6-24cb0c096733)"/><g id="a38e48d3-d902-43cb-8d5a-22545ca9e20f" data-name="he-eyes"><path id="ba4c8bb0-aa5e-40f1-a28d-78e974c2748f" data-name="Path 26" d="M459.78 145a6.85 6.85 0 0 1 6.9 6.79v5.32a6.91 6.91 0 0 1-13.81 0v-5.32a6.91 6.91 0 0 1 6.91-6.79Z" style="fill:#2e3033"/><path id="a8c9b30d-d923-46b1-8b39-572b0cbc8145" data-name="Path 30" class="b0badd6b-d581-4643-81f8-a9526a90ee38" d="M428.59 145a6.85 6.85 0 0 1 6.9 6.79v5.32a6.91 6.91 0 0 1-13.81 0v-5.32a7 7 0 0 1 6.91-6.79Z"/></g><path id="a1ce61f7-c847-48a7-afa8-31a9f43359d3" data-name="Trazado 149776" class="ae948987-a8ad-4704-a654-039308e79935" d="M505.54 150.35c3.61-1.3 3.82-6.46.34-7.86a6.87 6.87 0 0 0-5.32-.11c-3.7 1.47-4.69 3.93-4.65 8.15a10.16 10.16 0 0 0 2.51 6.65v-.67c-.11-2.7 3.75-4.94 7.12-6.16"/><path id="b49acb1e-a1be-4de6-a365-558b914343de" data-name="Trazado 149779" class="e9f6d59b-92c5-4e78-bb90-d6355a4a19e1" d="M443.62 184.24a9 9 0 0 1-8.95-9h18a8.92 8.92 0 0 1-8.89 9h-.15"/><path d="M235.67 146.62c.21-.13.41-.25.62-.36l-.43.23Z" style="fill:url(#a6ef5740-0c6a-4267-80a4-6d033a825ebe)"/><path d="m232.84 148.87.15-.14Z" style="fill:url(#afb64c9c-128c-4ee1-8627-048eb0f2f68b)"/><path d="m231.68 150.21-.06.09Z" style="fill:url(#accfcfdd-ee6e-40e5-9b64-c03ae88065e4)"/><path d="M239.66 144.92Z" style="fill:url(#f1e3b027-7495-4d71-835f-d500f6dedbec)"/><path d="M238.62 145.23a14.1 14.1 0 0 0-2.15.93 13.29 13.29 0 0 1 2.15-.93Z" style="fill:url(#b8eafe82-d3f8-4969-835e-54318ef737f6)"/><path d="m234.32 147.55-.07.06Z" style="fill:url(#ea5cdbf4-9f6c-43a4-9a67-9d6a9caf6b71)"/><path d="m332.79 145.84-.15-.81c-4.59 4.35-11.22 6.78-18.53 6.78h-16.73v-10.13a22.3 22.3 0 0 1-2.83 3.45 22.64 22.64 0 0 1-16.09 6.68h-22.4a14.8 14.8 0 0 0-12.49-7.35h-.31a14.56 14.56 0 0 0-3.6.46c-.32.08-.64.18-.95.28h-.09a13.29 13.29 0 0 0-2.15.93l-.18.1c-.21.11-.41.23-.62.36a15.4 15.4 0 0 0-1.35.93l-.07.06a13.43 13.43 0 0 0-1.26 1.12l-.15.14a16.38 16.38 0 0 0-1.16 1.34l-.06.09a15.36 15.36 0 0 0-1 1.51 14.74 14.74 0 0 0-2 7.1v.25a14.54 14.54 0 0 0 13.1 14.62c6.64 18.8 24.06 29.47 44.51 29.47 20.66 0 38.21-10.88 44.7-30a14.7 14.7 0 0 0 1.86-27.38Z" style="fill:url(#fde69e99-6e4e-4f9b-8ce1-f3baf0c7b387)"/><path d="M238.71 145.2h-.09Z" style="fill:url(#effbb07d-3455-4317-aa49-bfd9d2077b28)"/><path d="M238.71 145.2h-.09Z" style="fill:url(#a50fc892-bf6d-49e5-afeb-4834237308b8)"/><path d="M231.68 150.21a16.38 16.38 0 0 1 1.16-1.34 16.38 16.38 0 0 0-1.16 1.34Z" style="fill:url(#b2f4a63e-44ed-4021-9910-8019f65b97bc)"/><path d="M231.68 150.21a16.38 16.38 0 0 1 1.16-1.34 16.38 16.38 0 0 0-1.16 1.34Z" style="fill:url(#bb8ba71e-ff9a-4ea4-9f58-6f55fdf8634c)"/><path d="M231.62 150.3a15.36 15.36 0 0 0-1 1.51 15.36 15.36 0 0 1 1-1.51Z" style="fill:url(#b74602be-8411-4819-b5ee-32fe32b31b85)"/><path d="M231.62 150.3a15.36 15.36 0 0 0-1 1.51 15.36 15.36 0 0 1 1-1.51Z" style="fill:url(#af0b9a96-5bcd-416b-842d-b766433ad828)"/><path d="m236.47 146.16-.18.1Z" style="fill:url(#bdd8c8fd-a8f3-46bd-95b3-97085af14e71)"/><path d="m236.47 146.16-.18.1Z" style="fill:url(#ff101cf1-b567-4cab-9c92-db1e5d672d0c)"/><path d="M235.67 146.62a15.4 15.4 0 0 0-1.35.93 15.4 15.4 0 0 1 1.35-.93Z" style="fill:url(#fdc7ce86-eeb0-4af4-a927-b12ab6c7de59)"/><path d="M235.67 146.62a15.4 15.4 0 0 0-1.35.93 15.4 15.4 0 0 1 1.35-.93Z" style="fill:url(#ab4cdc5b-e548-4363-b530-652f2e9b08d4)"/><path d="M234.25 147.61a13.43 13.43 0 0 0-1.26 1.12 13.43 13.43 0 0 1 1.26-1.12Z" style="fill:url(#b6b0d078-4022-4cac-b559-1331e68efd5c)"/><path d="M234.25 147.61a13.43 13.43 0 0 0-1.26 1.12 13.43 13.43 0 0 1 1.26-1.12Z" style="fill:url(#abefd963-7d5d-42c0-ae1e-a73cc805d678)"/><path id="e50bf2e5-5c6d-488a-b830-19900b22178a" data-name="Path 60687" class="ae948987-a8ad-4704-a654-039308e79935" d="M326.91 158.57H271.7a14.53 14.53 0 0 0-14.52 14.53v21.45a49.84 49.84 0 0 0 29 8.7c20.27 0 38.15-11.36 44.91-29.95 0 0 1.29-8.38 0-14.73-.09.04-4.18 0-4.18 0Z"/><path id="e2e3bf0e-13f8-41e9-957e-fba28262252b" data-name="Path 60693" class="e9f6d59b-92c5-4e78-bb90-d6355a4a19e1" d="M291.72 191.09a8.87 8.87 0 0 0 8.87-8.87h-17.74a9 9 0 0 0 8.87 8.87Z"/><path id="e8f4312f-5fad-4224-9701-029cd447d266" data-name="Path 60694" class="ae948987-a8ad-4704-a654-039308e79935" d="M239.44 160.85c-3.55-1.26-3.89-6.33-.34-7.77a6.67 6.67 0 0 1 5.24-.17c3.63 1.44 4.64 3.8 4.64 8a9.73 9.73 0 0 1-2.45 6.5v-.68c0-2.58-3.8-4.73-7.09-5.88Z"/><g id="b1847dd7-875e-46b3-9d84-4042f9a496b1" data-name="she-eyes"><path id="e5709b5a-af17-46e6-8ee6-6078bfe40416" data-name="Path 60691" class="b0badd6b-d581-4643-81f8-a9526a90ee38" d="M276.93 157.47a6.77 6.77 0 0 0-6.63 6.85v5.3a6.77 6.77 0 0 0 6.63 6.85 6.76 6.76 0 0 0 6.63-6.85v-5.3a6.7 6.7 0 0 0-6.56-6.85Z"/><path id="ecd64baf-ecb4-434a-b676-aeaabad5cd09" data-name="Path 60692" class="b0badd6b-d581-4643-81f8-a9526a90ee38" d="M306.68 157.47a6.76 6.76 0 0 0-6.63 6.85v5.3a6.76 6.76 0 0 0 6.63 6.85 6.75 6.75 0 0 0 6.62-6.85v-5.3a6.7 6.7 0 0 0-6.56-6.85Z"/></g><path class="ae074263-ce0f-46d5-9f26-ab4fab270181" d="M338.3 149.49c-1.9-1.6-26.31-.58-33.22.64-4.68.64-10.19 4.08-10.19 4.08a16.48 16.48 0 0 0-3.08-.45 12.36 12.36 0 0 0-3.09.45s-5.51-3.44-10.19-4.08c-6.91-1.22-31.32-2.24-33.22-.64-3.88 3.27 1.79 7.94 2.21 8.44 1.51 10.42 4.18 19.55 13.55 21a38 38 0 0 0 13.58-.05c12.06-3.39 12.58-13.25 15.08-18.72a2.22 2.22 0 0 1 2-.67 3.74 3.74 0 0 1 2.19.67c2.5 5.47 3 15.33 15.08 18.72a38 38 0 0 0 13.58.05c9.37-1.42 12-10.55 13.55-21 .38-.5 6.05-5.17 2.17-8.44Z"/><path class="b1b90035-1f43-468e-bfdc-29d21ee17abf" d="M252.1 161.69c2.39 14.41 10.17 13.77 19.37 13.77s13.63-12.47 14-14.78c1.19-7.47-17.19-8.16-26.39-8.16s-7.36 6.87-6.98 9.17Z"/><path class="a0559f0c-e47c-4485-80bf-8b7810b819af" d="M285.29 161.46a7.19 7.19 0 0 0 .18-.78c1.19-7.47-17.19-8.16-26.39-8.16-8.87 0-7.48 6.38-7 8.9.79-3.42 32.6-1.42 33.21.04Z"/><path class="b1b90035-1f43-468e-bfdc-29d21ee17abf" d="M331.51 161.69c-2.39 14.41-10.17 13.77-19.37 13.77s-13.63-12.47-14-14.78c-1.19-7.47 17.19-8.16 26.39-8.16s7.36 6.87 6.98 9.17Z"/><path class="a0559f0c-e47c-4485-80bf-8b7810b819af" d="M298.32 161.46a7.19 7.19 0 0 1-.18-.78c-1.19-7.47 17.19-8.16 26.39-8.16 8.87 0 7.48 6.38 7 8.9-.79-3.42-32.6-1.42-33.21.04Z"/><path class="ae074263-ce0f-46d5-9f26-ab4fab270181" d="M492.86 141.3c-1.9-1.6-26.3-.58-33.21.64-4.68.64-10.19 4.09-10.19 4.09a16.1 16.1 0 0 0-3.09-.46 12.12 12.12 0 0 0-3.08.46s-5.51-3.45-10.19-4.09c-6.91-1.22-31.32-2.24-33.22-.64-3.88 3.27 1.79 7.94 2.2 8.44 1.52 10.42 4.19 19.55 13.55 21a38.1 38.1 0 0 0 13.59-.05c12.06-3.39 12.58-13.25 15.08-18.72a2.2 2.2 0 0 1 2-.67 3.78 3.78 0 0 1 2.19.67c2.5 5.47 3 15.33 15.08 18.72a38 38 0 0 0 13.58.05c9.37-1.42 12-10.55 13.55-21 .38-.5 6.05-5.17 2.16-8.44Z"/><path class="b1b90035-1f43-468e-bfdc-29d21ee17abf" d="M406.67 153.5c2.39 14.41 10.17 13.77 19.36 13.77s13.64-12.47 14-14.77c1.19-7.48-17.19-8.17-26.39-8.17s-7.35 6.87-6.97 9.17Z"/><path class="a0559f0c-e47c-4485-80bf-8b7810b819af" d="M439.86 153.27a7.11 7.11 0 0 0 .18-.77c1.19-7.48-17.19-8.17-26.39-8.17-8.87 0-7.48 6.38-7 8.9.79-3.46 32.6-1.44 33.21.04Z"/><path class="b1b90035-1f43-468e-bfdc-29d21ee17abf" d="M486.07 153.5c-2.38 14.41-10.16 13.77-19.36 13.77s-13.63-12.47-14-14.77c-1.2-7.48 17.19-8.17 26.39-8.17s7.35 6.87 6.97 9.17Z"/><path class="a0559f0c-e47c-4485-80bf-8b7810b819af" d="M452.89 153.27a7.11 7.11 0 0 1-.18-.77c-1.2-7.48 17.19-8.17 26.39-8.17 8.86 0 7.47 6.38 7 8.9-.79-3.46-32.6-1.44-33.21.04Z"/></g></g></svg>