<svg width="577" height="528" viewBox="0 0 577 528" fill="none" xmlns="http://www.w3.org/2000/svg">
<g clip-path="url(#clip0_2417_321155)">
<rect width="576" height="528" transform="translate(0.5)" fill="#EEEDFF"/>
<path d="M24.3672 0.185547H0.367188V24.1855H24.3672V0.185547Z" stroke="white" stroke-width="0.75" stroke-miterlimit="10"/>
<path d="M48.3672 0.185547H24.3672V24.1855H48.3672V0.185547Z" stroke="white" stroke-width="0.75" stroke-miterlimit="10"/>
<path d="M72.3672 0.185547H48.3672V24.1855H72.3672V0.185547Z" stroke="white" stroke-width="0.75" stroke-miterlimit="10"/>
<path d="M96.3672 0.185547H72.3672V24.1855H96.3672V0.185547Z" stroke="white" stroke-width="0.75" stroke-miterlimit="10"/>
<path d="M120.367 0.185547H96.3672V24.1855H120.367V0.185547Z" stroke="white" stroke-width="0.75" stroke-miterlimit="10"/>
<path d="M144.367 0.185547H120.367V24.1855H144.367V0.185547Z" stroke="white" stroke-width="0.75" stroke-miterlimit="10"/>
<path d="M168.367 0.185547H144.367V24.1855H168.367V0.185547Z" stroke="white" stroke-width="0.75" stroke-miterlimit="10"/>
<path d="M192.367 0.185547H168.367V24.1855H192.367V0.185547Z" stroke="white" stroke-width="0.75" stroke-miterlimit="10"/>
<path d="M216.367 0.185547H192.367V24.1855H216.367V0.185547Z" stroke="white" stroke-width="0.75" stroke-miterlimit="10"/>
<path d="M240.367 0.185547H216.367V24.1855H240.367V0.185547Z" stroke="white" stroke-width="0.75" stroke-miterlimit="10"/>
<path d="M264.367 0.185547H240.367V24.1855H264.367V0.185547Z" stroke="white" stroke-width="0.75" stroke-miterlimit="10"/>
<path d="M288.367 0.185547H264.367V24.1855H288.367V0.185547Z" stroke="white" stroke-width="0.75" stroke-miterlimit="10"/>
<path d="M312.367 0.185547H288.367V24.1855H312.367V0.185547Z" stroke="white" stroke-width="0.75" stroke-miterlimit="10"/>
<path d="M336.367 0.185547H312.367V24.1855H336.367V0.185547Z" stroke="white" stroke-width="0.75" stroke-miterlimit="10"/>
<path d="M360.367 0.185547H336.367V24.1855H360.367V0.185547Z" stroke="white" stroke-width="0.75" stroke-miterlimit="10"/>
<path d="M384.367 0.185547H360.367V24.1855H384.367V0.185547Z" stroke="white" stroke-width="0.75" stroke-miterlimit="10"/>
<path d="M408.367 0.185547H384.367V24.1855H408.367V0.185547Z" stroke="white" stroke-width="0.75" stroke-miterlimit="10"/>
<path d="M432.367 0.185547H408.367V24.1855H432.367V0.185547Z" stroke="white" stroke-width="0.75" stroke-miterlimit="10"/>
<path d="M456.367 0.185547H432.367V24.1855H456.367V0.185547Z" stroke="white" stroke-width="0.75" stroke-miterlimit="10"/>
<path d="M480.367 0.185547H456.367V24.1855H480.367V0.185547Z" stroke="white" stroke-width="0.75" stroke-miterlimit="10"/>
<path d="M504.367 0.185547H480.367V24.1855H504.367V0.185547Z" stroke="white" stroke-width="0.75" stroke-miterlimit="10"/>
<path d="M528.367 0.185547H504.367V24.1855H528.367V0.185547Z" stroke="white" stroke-width="0.75" stroke-miterlimit="10"/>
<path d="M24.3672 24.1855H0.367188V48.1855H24.3672V24.1855Z" stroke="white" stroke-width="0.75" stroke-miterlimit="10"/>
<path d="M48.3672 24.1855H24.3672V48.1855H48.3672V24.1855Z" stroke="white" stroke-width="0.75" stroke-miterlimit="10"/>
<path d="M72.3672 24.1855H48.3672V48.1855H72.3672V24.1855Z" stroke="white" stroke-width="0.75" stroke-miterlimit="10"/>
<path d="M96.3672 24.1855H72.3672V48.1855H96.3672V24.1855Z" stroke="white" stroke-width="0.75" stroke-miterlimit="10"/>
<path d="M120.367 24.1855H96.3672V48.1855H120.367V24.1855Z" stroke="white" stroke-width="0.75" stroke-miterlimit="10"/>
<path d="M144.367 24.1855H120.367V48.1855H144.367V24.1855Z" stroke="white" stroke-width="0.75" stroke-miterlimit="10"/>
<path d="M168.367 24.1855H144.367V48.1855H168.367V24.1855Z" stroke="white" stroke-width="0.75" stroke-miterlimit="10"/>
<path d="M192.367 24.1855H168.367V48.1855H192.367V24.1855Z" stroke="white" stroke-width="0.75" stroke-miterlimit="10"/>
<path d="M216.367 24.1855H192.367V48.1855H216.367V24.1855Z" stroke="white" stroke-width="0.75" stroke-miterlimit="10"/>
<path d="M240.367 24.1855H216.367V48.1855H240.367V24.1855Z" stroke="white" stroke-width="0.75" stroke-miterlimit="10"/>
<path d="M264.367 24.1855H240.367V48.1855H264.367V24.1855Z" stroke="white" stroke-width="0.75" stroke-miterlimit="10"/>
<path d="M288.367 24.1855H264.367V48.1855H288.367V24.1855Z" stroke="white" stroke-width="0.75" stroke-miterlimit="10"/>
<path d="M312.367 24.1855H288.367V48.1855H312.367V24.1855Z" stroke="white" stroke-width="0.75" stroke-miterlimit="10"/>
<path d="M336.367 24.1855H312.367V48.1855H336.367V24.1855Z" stroke="white" stroke-width="0.75" stroke-miterlimit="10"/>
<path d="M360.367 24.1855H336.367V48.1855H360.367V24.1855Z" stroke="white" stroke-width="0.75" stroke-miterlimit="10"/>
<path d="M384.367 24.1855H360.367V48.1855H384.367V24.1855Z" stroke="white" stroke-width="0.75" stroke-miterlimit="10"/>
<path d="M408.367 24.1855H384.367V48.1855H408.367V24.1855Z" stroke="white" stroke-width="0.75" stroke-miterlimit="10"/>
<path d="M432.367 24.1855H408.367V48.1855H432.367V24.1855Z" stroke="white" stroke-width="0.75" stroke-miterlimit="10"/>
<path d="M456.367 24.1855H432.367V48.1855H456.367V24.1855Z" stroke="white" stroke-width="0.75" stroke-miterlimit="10"/>
<path d="M480.367 24.1855H456.367V48.1855H480.367V24.1855Z" stroke="white" stroke-width="0.75" stroke-miterlimit="10"/>
<path d="M504.367 24.1855H480.367V48.1855H504.367V24.1855Z" stroke="white" stroke-width="0.75" stroke-miterlimit="10"/>
<path d="M528.367 24.1855H504.367V48.1855H528.367V24.1855Z" stroke="white" stroke-width="0.75" stroke-miterlimit="10"/>
<path d="M24.3672 48.1855H0.367188V72.1855H24.3672V48.1855Z" stroke="white" stroke-width="0.75" stroke-miterlimit="10"/>
<path d="M48.3672 48.1855H24.3672V72.1855H48.3672V48.1855Z" stroke="white" stroke-width="0.75" stroke-miterlimit="10"/>
<path d="M72.3672 48.1855H48.3672V72.1855H72.3672V48.1855Z" stroke="white" stroke-width="0.75" stroke-miterlimit="10"/>
<path d="M96.3672 48.1855H72.3672V72.1855H96.3672V48.1855Z" stroke="white" stroke-width="0.75" stroke-miterlimit="10"/>
<path d="M120.367 48.1855H96.3672V72.1855H120.367V48.1855Z" stroke="white" stroke-width="0.75" stroke-miterlimit="10"/>
<path d="M144.367 48.1855H120.367V72.1855H144.367V48.1855Z" stroke="white" stroke-width="0.75" stroke-miterlimit="10"/>
<path d="M168.367 48.1855H144.367V72.1855H168.367V48.1855Z" stroke="white" stroke-width="0.75" stroke-miterlimit="10"/>
<path d="M192.367 48.1855H168.367V72.1855H192.367V48.1855Z" stroke="white" stroke-width="0.75" stroke-miterlimit="10"/>
<path d="M216.367 48.1855H192.367V72.1855H216.367V48.1855Z" stroke="white" stroke-width="0.75" stroke-miterlimit="10"/>
<path d="M240.367 48.1855H216.367V72.1855H240.367V48.1855Z" stroke="white" stroke-width="0.75" stroke-miterlimit="10"/>
<path d="M264.367 48.1855H240.367V72.1855H264.367V48.1855Z" stroke="white" stroke-width="0.75" stroke-miterlimit="10"/>
<path d="M288.367 48.1855H264.367V72.1855H288.367V48.1855Z" stroke="white" stroke-width="0.75" stroke-miterlimit="10"/>
<path d="M312.367 48.1855H288.367V72.1855H312.367V48.1855Z" stroke="white" stroke-width="0.75" stroke-miterlimit="10"/>
<path d="M336.367 48.1855H312.367V72.1855H336.367V48.1855Z" stroke="white" stroke-width="0.75" stroke-miterlimit="10"/>
<path d="M360.367 48.1855H336.367V72.1855H360.367V48.1855Z" stroke="white" stroke-width="0.75" stroke-miterlimit="10"/>
<path d="M384.367 48.1855H360.367V72.1855H384.367V48.1855Z" stroke="white" stroke-width="0.75" stroke-miterlimit="10"/>
<path d="M408.367 48.1855H384.367V72.1855H408.367V48.1855Z" stroke="white" stroke-width="0.75" stroke-miterlimit="10"/>
<path d="M432.367 48.1855H408.367V72.1855H432.367V48.1855Z" stroke="white" stroke-width="0.75" stroke-miterlimit="10"/>
<path d="M456.367 48.1855H432.367V72.1855H456.367V48.1855Z" stroke="white" stroke-width="0.75" stroke-miterlimit="10"/>
<path d="M480.367 48.1855H456.367V72.1855H480.367V48.1855Z" stroke="white" stroke-width="0.75" stroke-miterlimit="10"/>
<path d="M504.367 48.1855H480.367V72.1855H504.367V48.1855Z" stroke="white" stroke-width="0.75" stroke-miterlimit="10"/>
<path d="M528.367 48.1855H504.367V72.1855H528.367V48.1855Z" stroke="white" stroke-width="0.75" stroke-miterlimit="10"/>
<path d="M24.3672 72.1855H0.367188V96.1855H24.3672V72.1855Z" stroke="white" stroke-width="0.75" stroke-miterlimit="10"/>
<path d="M48.3672 72.1855H24.3672V96.1855H48.3672V72.1855Z" stroke="white" stroke-width="0.75" stroke-miterlimit="10"/>
<path d="M72.3672 72.1855H48.3672V96.1855H72.3672V72.1855Z" stroke="white" stroke-width="0.75" stroke-miterlimit="10"/>
<path d="M96.3672 72.1855H72.3672V96.1855H96.3672V72.1855Z" stroke="white" stroke-width="0.75" stroke-miterlimit="10"/>
<path d="M120.367 72.1855H96.3672V96.1855H120.367V72.1855Z" stroke="white" stroke-width="0.75" stroke-miterlimit="10"/>
<path d="M144.367 72.1855H120.367V96.1855H144.367V72.1855Z" stroke="white" stroke-width="0.75" stroke-miterlimit="10"/>
<path d="M168.367 72.1855H144.367V96.1855H168.367V72.1855Z" stroke="white" stroke-width="0.75" stroke-miterlimit="10"/>
<path d="M192.367 72.1855H168.367V96.1855H192.367V72.1855Z" stroke="white" stroke-width="0.75" stroke-miterlimit="10"/>
<path d="M216.367 72.1855H192.367V96.1855H216.367V72.1855Z" stroke="white" stroke-width="0.75" stroke-miterlimit="10"/>
<path d="M240.367 72.1855H216.367V96.1855H240.367V72.1855Z" stroke="white" stroke-width="0.75" stroke-miterlimit="10"/>
<path d="M264.367 72.1855H240.367V96.1855H264.367V72.1855Z" stroke="white" stroke-width="0.75" stroke-miterlimit="10"/>
<path d="M288.367 72.1855H264.367V96.1855H288.367V72.1855Z" stroke="white" stroke-width="0.75" stroke-miterlimit="10"/>
<path d="M312.367 72.1855H288.367V96.1855H312.367V72.1855Z" stroke="white" stroke-width="0.75" stroke-miterlimit="10"/>
<path d="M336.367 72.1855H312.367V96.1855H336.367V72.1855Z" stroke="white" stroke-width="0.75" stroke-miterlimit="10"/>
<path d="M360.367 72.1855H336.367V96.1855H360.367V72.1855Z" stroke="white" stroke-width="0.75" stroke-miterlimit="10"/>
<path d="M384.367 72.1855H360.367V96.1855H384.367V72.1855Z" stroke="white" stroke-width="0.75" stroke-miterlimit="10"/>
<path d="M408.367 72.1855H384.367V96.1855H408.367V72.1855Z" stroke="white" stroke-width="0.75" stroke-miterlimit="10"/>
<path d="M432.367 72.1855H408.367V96.1855H432.367V72.1855Z" stroke="white" stroke-width="0.75" stroke-miterlimit="10"/>
<path d="M456.367 72.1855H432.367V96.1855H456.367V72.1855Z" stroke="white" stroke-width="0.75" stroke-miterlimit="10"/>
<path d="M480.367 72.1855H456.367V96.1855H480.367V72.1855Z" stroke="white" stroke-width="0.75" stroke-miterlimit="10"/>
<path d="M504.367 72.1855H480.367V96.1855H504.367V72.1855Z" stroke="white" stroke-width="0.75" stroke-miterlimit="10"/>
<path d="M528.367 72.1855H504.367V96.1855H528.367V72.1855Z" stroke="white" stroke-width="0.75" stroke-miterlimit="10"/>
<path d="M24.3672 96.1855H0.367188V120.186H24.3672V96.1855Z" stroke="white" stroke-width="0.75" stroke-miterlimit="10"/>
<path d="M48.3672 96.1855H24.3672V120.186H48.3672V96.1855Z" stroke="white" stroke-width="0.75" stroke-miterlimit="10"/>
<path d="M72.3672 96.1855H48.3672V120.186H72.3672V96.1855Z" stroke="white" stroke-width="0.75" stroke-miterlimit="10"/>
<path d="M96.3672 96.1855H72.3672V120.186H96.3672V96.1855Z" stroke="white" stroke-width="0.75" stroke-miterlimit="10"/>
<path d="M120.367 96.1855H96.3672V120.186H120.367V96.1855Z" stroke="white" stroke-width="0.75" stroke-miterlimit="10"/>
<path d="M144.367 96.1855H120.367V120.186H144.367V96.1855Z" stroke="white" stroke-width="0.75" stroke-miterlimit="10"/>
<path d="M168.367 96.1855H144.367V120.186H168.367V96.1855Z" stroke="white" stroke-width="0.75" stroke-miterlimit="10"/>
<path d="M192.367 96.1855H168.367V120.186H192.367V96.1855Z" stroke="white" stroke-width="0.75" stroke-miterlimit="10"/>
<path d="M216.367 96.1855H192.367V120.186H216.367V96.1855Z" stroke="white" stroke-width="0.75" stroke-miterlimit="10"/>
<path d="M240.367 96.1855H216.367V120.186H240.367V96.1855Z" stroke="white" stroke-width="0.75" stroke-miterlimit="10"/>
<path d="M264.367 96.1855H240.367V120.186H264.367V96.1855Z" stroke="white" stroke-width="0.75" stroke-miterlimit="10"/>
<path d="M288.367 96.1855H264.367V120.186H288.367V96.1855Z" stroke="white" stroke-width="0.75" stroke-miterlimit="10"/>
<path d="M312.367 96.1855H288.367V120.186H312.367V96.1855Z" stroke="white" stroke-width="0.75" stroke-miterlimit="10"/>
<path d="M336.367 96.1855H312.367V120.186H336.367V96.1855Z" stroke="white" stroke-width="0.75" stroke-miterlimit="10"/>
<path d="M360.367 96.1855H336.367V120.186H360.367V96.1855Z" stroke="white" stroke-width="0.75" stroke-miterlimit="10"/>
<path d="M384.367 96.1855H360.367V120.186H384.367V96.1855Z" stroke="white" stroke-width="0.75" stroke-miterlimit="10"/>
<path d="M408.367 96.1855H384.367V120.186H408.367V96.1855Z" stroke="white" stroke-width="0.75" stroke-miterlimit="10"/>
<path d="M432.367 96.1855H408.367V120.186H432.367V96.1855Z" stroke="white" stroke-width="0.75" stroke-miterlimit="10"/>
<path d="M456.367 96.1855H432.367V120.186H456.367V96.1855Z" stroke="white" stroke-width="0.75" stroke-miterlimit="10"/>
<path d="M480.367 96.1855H456.367V120.186H480.367V96.1855Z" stroke="white" stroke-width="0.75" stroke-miterlimit="10"/>
<path d="M504.367 96.1855H480.367V120.186H504.367V96.1855Z" stroke="white" stroke-width="0.75" stroke-miterlimit="10"/>
<path d="M528.367 96.1855H504.367V120.186H528.367V96.1855Z" stroke="white" stroke-width="0.75" stroke-miterlimit="10"/>
<path d="M24.3672 120.186H0.367188V144.186H24.3672V120.186Z" stroke="white" stroke-width="0.75" stroke-miterlimit="10"/>
<path d="M48.3672 120.186H24.3672V144.186H48.3672V120.186Z" stroke="white" stroke-width="0.75" stroke-miterlimit="10"/>
<path d="M72.3672 120.186H48.3672V144.186H72.3672V120.186Z" stroke="white" stroke-width="0.75" stroke-miterlimit="10"/>
<path d="M96.3672 120.186H72.3672V144.186H96.3672V120.186Z" stroke="white" stroke-width="0.75" stroke-miterlimit="10"/>
<path d="M120.367 120.186H96.3672V144.186H120.367V120.186Z" stroke="white" stroke-width="0.75" stroke-miterlimit="10"/>
<path d="M144.367 120.186H120.367V144.186H144.367V120.186Z" stroke="white" stroke-width="0.75" stroke-miterlimit="10"/>
<path d="M168.367 120.186H144.367V144.186H168.367V120.186Z" stroke="white" stroke-width="0.75" stroke-miterlimit="10"/>
<path d="M192.367 120.186H168.367V144.186H192.367V120.186Z" stroke="white" stroke-width="0.75" stroke-miterlimit="10"/>
<path d="M216.367 120.186H192.367V144.186H216.367V120.186Z" stroke="white" stroke-width="0.75" stroke-miterlimit="10"/>
<path d="M240.367 120.186H216.367V144.186H240.367V120.186Z" stroke="white" stroke-width="0.75" stroke-miterlimit="10"/>
<path d="M264.367 120.186H240.367V144.186H264.367V120.186Z" stroke="white" stroke-width="0.75" stroke-miterlimit="10"/>
<path d="M288.367 120.186H264.367V144.186H288.367V120.186Z" stroke="white" stroke-width="0.75" stroke-miterlimit="10"/>
<path d="M312.367 120.186H288.367V144.186H312.367V120.186Z" stroke="white" stroke-width="0.75" stroke-miterlimit="10"/>
<path d="M336.367 120.186H312.367V144.186H336.367V120.186Z" stroke="white" stroke-width="0.75" stroke-miterlimit="10"/>
<path d="M360.367 120.186H336.367V144.186H360.367V120.186Z" stroke="white" stroke-width="0.75" stroke-miterlimit="10"/>
<path d="M384.367 120.186H360.367V144.186H384.367V120.186Z" stroke="white" stroke-width="0.75" stroke-miterlimit="10"/>
<path d="M408.367 120.186H384.367V144.186H408.367V120.186Z" stroke="white" stroke-width="0.75" stroke-miterlimit="10"/>
<path d="M432.367 120.186H408.367V144.186H432.367V120.186Z" stroke="white" stroke-width="0.75" stroke-miterlimit="10"/>
<path d="M456.367 120.186H432.367V144.186H456.367V120.186Z" stroke="white" stroke-width="0.75" stroke-miterlimit="10"/>
<path d="M480.367 120.186H456.367V144.186H480.367V120.186Z" stroke="white" stroke-width="0.75" stroke-miterlimit="10"/>
<path d="M504.367 120.186H480.367V144.186H504.367V120.186Z" stroke="white" stroke-width="0.75" stroke-miterlimit="10"/>
<path d="M528.367 120.186H504.367V144.186H528.367V120.186Z" stroke="white" stroke-width="0.75" stroke-miterlimit="10"/>
<path d="M552.367 120.186H528.367V144.186H552.367V120.186Z" stroke="white" stroke-width="0.75" stroke-miterlimit="10"/>
<path d="M576.367 120.186H552.367V144.186H576.367V120.186Z" stroke="white" stroke-width="0.75" stroke-miterlimit="10"/>
<path d="M24.3672 144.186H0.367188V168.186H24.3672V144.186Z" stroke="white" stroke-width="0.75" stroke-miterlimit="10"/>
<path d="M48.3672 144.186H24.3672V168.186H48.3672V144.186Z" stroke="white" stroke-width="0.75" stroke-miterlimit="10"/>
<path d="M72.3672 144.186H48.3672V168.186H72.3672V144.186Z" stroke="white" stroke-width="0.75" stroke-miterlimit="10"/>
<path d="M96.3672 144.186H72.3672V168.186H96.3672V144.186Z" stroke="white" stroke-width="0.75" stroke-miterlimit="10"/>
<path d="M120.367 144.186H96.3672V168.186H120.367V144.186Z" stroke="white" stroke-width="0.75" stroke-miterlimit="10"/>
<path d="M144.367 144.186H120.367V168.186H144.367V144.186Z" stroke="white" stroke-width="0.75" stroke-miterlimit="10"/>
<path d="M168.367 144.186H144.367V168.186H168.367V144.186Z" stroke="white" stroke-width="0.75" stroke-miterlimit="10"/>
<path d="M192.367 144.186H168.367V168.186H192.367V144.186Z" stroke="white" stroke-width="0.75" stroke-miterlimit="10"/>
<path d="M216.367 144.186H192.367V168.186H216.367V144.186Z" stroke="white" stroke-width="0.75" stroke-miterlimit="10"/>
<path d="M240.367 144.186H216.367V168.186H240.367V144.186Z" stroke="white" stroke-width="0.75" stroke-miterlimit="10"/>
<path d="M264.367 144.186H240.367V168.186H264.367V144.186Z" stroke="white" stroke-width="0.75" stroke-miterlimit="10"/>
<path d="M288.367 144.186H264.367V168.186H288.367V144.186Z" stroke="white" stroke-width="0.75" stroke-miterlimit="10"/>
<path d="M312.367 144.186H288.367V168.186H312.367V144.186Z" stroke="white" stroke-width="0.75" stroke-miterlimit="10"/>
<path d="M336.367 144.186H312.367V168.186H336.367V144.186Z" stroke="white" stroke-width="0.75" stroke-miterlimit="10"/>
<path d="M360.367 144.186H336.367V168.186H360.367V144.186Z" stroke="white" stroke-width="0.75" stroke-miterlimit="10"/>
<path d="M384.367 144.186H360.367V168.186H384.367V144.186Z" stroke="white" stroke-width="0.75" stroke-miterlimit="10"/>
<path d="M408.367 144.186H384.367V168.186H408.367V144.186Z" stroke="white" stroke-width="0.75" stroke-miterlimit="10"/>
<path d="M432.367 144.186H408.367V168.186H432.367V144.186Z" stroke="white" stroke-width="0.75" stroke-miterlimit="10"/>
<path d="M456.367 144.186H432.367V168.186H456.367V144.186Z" stroke="white" stroke-width="0.75" stroke-miterlimit="10"/>
<path d="M480.367 144.186H456.367V168.186H480.367V144.186Z" stroke="white" stroke-width="0.75" stroke-miterlimit="10"/>
<path d="M504.367 144.186H480.367V168.186H504.367V144.186Z" stroke="white" stroke-width="0.75" stroke-miterlimit="10"/>
<path d="M528.367 144.186H504.367V168.186H528.367V144.186Z" stroke="white" stroke-width="0.75" stroke-miterlimit="10"/>
<path d="M552.367 144.186H528.367V168.186H552.367V144.186Z" stroke="white" stroke-width="0.75" stroke-miterlimit="10"/>
<path d="M48.3672 168.186H24.3672V192.186H48.3672V168.186Z" stroke="white" stroke-width="0.75" stroke-miterlimit="10"/>
<path d="M72.3672 168.186H48.3672V192.186H72.3672V168.186Z" stroke="white" stroke-width="0.75" stroke-miterlimit="10"/>
<path d="M96.3672 168.186H72.3672V192.186H96.3672V168.186Z" stroke="white" stroke-width="0.75" stroke-miterlimit="10"/>
<path d="M120.367 168.186H96.3672V192.186H120.367V168.186Z" stroke="white" stroke-width="0.75" stroke-miterlimit="10"/>
<path d="M144.367 168.186H120.367V192.186H144.367V168.186Z" stroke="white" stroke-width="0.75" stroke-miterlimit="10"/>
<path d="M168.367 168.186H144.367V192.186H168.367V168.186Z" stroke="white" stroke-width="0.75" stroke-miterlimit="10"/>
<path d="M192.367 168.186H168.367V192.186H192.367V168.186Z" stroke="white" stroke-width="0.75" stroke-miterlimit="10"/>
<path d="M216.367 168.186H192.367V192.186H216.367V168.186Z" stroke="white" stroke-width="0.75" stroke-miterlimit="10"/>
<path d="M240.367 168.186H216.367V192.186H240.367V168.186Z" stroke="white" stroke-width="0.75" stroke-miterlimit="10"/>
<path d="M264.367 168.186H240.367V192.186H264.367V168.186Z" stroke="white" stroke-width="0.75" stroke-miterlimit="10"/>
<path d="M288.367 168.186H264.367V192.186H288.367V168.186Z" stroke="white" stroke-width="0.75" stroke-miterlimit="10"/>
<path d="M312.367 168.186H288.367V192.186H312.367V168.186Z" stroke="white" stroke-width="0.75" stroke-miterlimit="10"/>
<path d="M336.367 168.186H312.367V192.186H336.367V168.186Z" stroke="white" stroke-width="0.75" stroke-miterlimit="10"/>
<path d="M360.367 168.186H336.367V192.186H360.367V168.186Z" stroke="white" stroke-width="0.75" stroke-miterlimit="10"/>
<path d="M384.367 168.186H360.367V192.186H384.367V168.186Z" stroke="white" stroke-width="0.75" stroke-miterlimit="10"/>
<path d="M408.367 168.186H384.367V192.186H408.367V168.186Z" stroke="white" stroke-width="0.75" stroke-miterlimit="10"/>
<path d="M432.367 168.186H408.367V192.186H432.367V168.186Z" stroke="white" stroke-width="0.75" stroke-miterlimit="10"/>
<path d="M456.367 168.186H432.367V192.186H456.367V168.186Z" stroke="white" stroke-width="0.75" stroke-miterlimit="10"/>
<path d="M480.367 168.186H456.367V192.186H480.367V168.186Z" stroke="white" stroke-width="0.75" stroke-miterlimit="10"/>
<path d="M504.367 168.186H480.367V192.186H504.367V168.186Z" stroke="white" stroke-width="0.75" stroke-miterlimit="10"/>
<path d="M528.367 168.186H504.367V192.186H528.367V168.186Z" stroke="white" stroke-width="0.75" stroke-miterlimit="10"/>
<path d="M552.367 168.186H528.367V192.186H552.367V168.186Z" stroke="white" stroke-width="0.75" stroke-miterlimit="10"/>
<path d="M576.367 168.186H552.367V192.186H576.367V168.186Z" stroke="white" stroke-width="0.75" stroke-miterlimit="10"/>
<path d="M48.3672 192.186H24.3672V216.186H48.3672V192.186Z" stroke="white" stroke-width="0.75" stroke-miterlimit="10"/>
<path d="M72.3672 192.186H48.3672V216.186H72.3672V192.186Z" stroke="white" stroke-width="0.75" stroke-miterlimit="10"/>
<path d="M96.3672 192.186H72.3672V216.186H96.3672V192.186Z" stroke="white" stroke-width="0.75" stroke-miterlimit="10"/>
<path d="M120.367 192.186H96.3672V216.186H120.367V192.186Z" stroke="white" stroke-width="0.75" stroke-miterlimit="10"/>
<path d="M144.367 192.186H120.367V216.186H144.367V192.186Z" stroke="white" stroke-width="0.75" stroke-miterlimit="10"/>
<path d="M168.367 192.186H144.367V216.186H168.367V192.186Z" stroke="white" stroke-width="0.75" stroke-miterlimit="10"/>
<path d="M192.367 192.186H168.367V216.186H192.367V192.186Z" stroke="white" stroke-width="0.75" stroke-miterlimit="10"/>
<path d="M216.367 192.186H192.367V216.186H216.367V192.186Z" stroke="white" stroke-width="0.75" stroke-miterlimit="10"/>
<path d="M240.367 192.186H216.367V216.186H240.367V192.186Z" stroke="white" stroke-width="0.75" stroke-miterlimit="10"/>
<path d="M264.367 192.186H240.367V216.186H264.367V192.186Z" stroke="white" stroke-width="0.75" stroke-miterlimit="10"/>
<path d="M288.367 192.186H264.367V216.186H288.367V192.186Z" stroke="white" stroke-width="0.75" stroke-miterlimit="10"/>
<path d="M312.367 192.186H288.367V216.186H312.367V192.186Z" stroke="white" stroke-width="0.75" stroke-miterlimit="10"/>
<path d="M336.367 192.186H312.367V216.186H336.367V192.186Z" stroke="white" stroke-width="0.75" stroke-miterlimit="10"/>
<path d="M360.367 192.186H336.367V216.186H360.367V192.186Z" stroke="white" stroke-width="0.75" stroke-miterlimit="10"/>
<path d="M384.367 192.186H360.367V216.186H384.367V192.186Z" stroke="white" stroke-width="0.75" stroke-miterlimit="10"/>
<path d="M408.367 192.186H384.367V216.186H408.367V192.186Z" stroke="white" stroke-width="0.75" stroke-miterlimit="10"/>
<path d="M432.367 192.186H408.367V216.186H432.367V192.186Z" stroke="white" stroke-width="0.75" stroke-miterlimit="10"/>
<path d="M456.367 192.186H432.367V216.186H456.367V192.186Z" stroke="white" stroke-width="0.75" stroke-miterlimit="10"/>
<path d="M480.367 192.186H456.367V216.186H480.367V192.186Z" stroke="white" stroke-width="0.75" stroke-miterlimit="10"/>
<path d="M504.367 192.186H480.367V216.186H504.367V192.186Z" stroke="white" stroke-width="0.75" stroke-miterlimit="10"/>
<path d="M528.367 192.186H504.367V216.186H528.367V192.186Z" stroke="white" stroke-width="0.75" stroke-miterlimit="10"/>
<path d="M552.367 192.186H528.367V216.186H552.367V192.186Z" stroke="white" stroke-width="0.75" stroke-miterlimit="10"/>
<path d="M576.367 192.186H552.367V216.186H576.367V192.186Z" stroke="white" stroke-width="0.75" stroke-miterlimit="10"/>
<path d="M48.3672 216.186H24.3672V240.186H48.3672V216.186Z" stroke="white" stroke-width="0.75" stroke-miterlimit="10"/>
<path d="M72.3672 216.186H48.3672V240.186H72.3672V216.186Z" stroke="white" stroke-width="0.75" stroke-miterlimit="10"/>
<path d="M96.3672 216.186H72.3672V240.186H96.3672V216.186Z" stroke="white" stroke-width="0.75" stroke-miterlimit="10"/>
<path d="M120.367 216.186H96.3672V240.186H120.367V216.186Z" stroke="white" stroke-width="0.75" stroke-miterlimit="10"/>
<path d="M144.367 216.186H120.367V240.186H144.367V216.186Z" stroke="white" stroke-width="0.75" stroke-miterlimit="10"/>
<path d="M168.367 216.186H144.367V240.186H168.367V216.186Z" stroke="white" stroke-width="0.75" stroke-miterlimit="10"/>
<path d="M192.367 216.186H168.367V240.186H192.367V216.186Z" stroke="white" stroke-width="0.75" stroke-miterlimit="10"/>
<path d="M216.367 216.186H192.367V240.186H216.367V216.186Z" stroke="white" stroke-width="0.75" stroke-miterlimit="10"/>
<path d="M240.367 216.186H216.367V240.186H240.367V216.186Z" stroke="white" stroke-width="0.75" stroke-miterlimit="10"/>
<path d="M264.367 216.186H240.367V240.186H264.367V216.186Z" stroke="white" stroke-width="0.75" stroke-miterlimit="10"/>
<path d="M288.367 216.186H264.367V240.186H288.367V216.186Z" stroke="white" stroke-width="0.75" stroke-miterlimit="10"/>
<path d="M312.367 216.186H288.367V240.186H312.367V216.186Z" stroke="white" stroke-width="0.75" stroke-miterlimit="10"/>
<path d="M336.367 216.186H312.367V240.186H336.367V216.186Z" stroke="white" stroke-width="0.75" stroke-miterlimit="10"/>
<path d="M360.367 216.186H336.367V240.186H360.367V216.186Z" stroke="white" stroke-width="0.75" stroke-miterlimit="10"/>
<path d="M384.367 216.186H360.367V240.186H384.367V216.186Z" stroke="white" stroke-width="0.75" stroke-miterlimit="10"/>
<path d="M408.367 216.186H384.367V240.186H408.367V216.186Z" stroke="white" stroke-width="0.75" stroke-miterlimit="10"/>
<path d="M432.367 216.186H408.367V240.186H432.367V216.186Z" stroke="white" stroke-width="0.75" stroke-miterlimit="10"/>
<path d="M456.367 216.186H432.367V240.186H456.367V216.186Z" stroke="white" stroke-width="0.75" stroke-miterlimit="10"/>
<path d="M480.367 216.186H456.367V240.186H480.367V216.186Z" stroke="white" stroke-width="0.75" stroke-miterlimit="10"/>
<path d="M504.367 216.186H480.367V240.186H504.367V216.186Z" stroke="white" stroke-width="0.75" stroke-miterlimit="10"/>
<path d="M528.367 216.186H504.367V240.186H528.367V216.186Z" stroke="white" stroke-width="0.75" stroke-miterlimit="10"/>
<path d="M552.367 216.186H528.367V240.186H552.367V216.186Z" stroke="white" stroke-width="0.75" stroke-miterlimit="10"/>
<path d="M576.367 216.186H552.367V240.186H576.367V216.186Z" stroke="white" stroke-width="0.75" stroke-miterlimit="10"/>
<path d="M48.3672 240.186H24.3672V264.186H48.3672V240.186Z" stroke="white" stroke-width="0.75" stroke-miterlimit="10"/>
<path d="M72.3672 240.186H48.3672V264.186H72.3672V240.186Z" stroke="white" stroke-width="0.75" stroke-miterlimit="10"/>
<path d="M96.3672 240.186H72.3672V264.186H96.3672V240.186Z" stroke="white" stroke-width="0.75" stroke-miterlimit="10"/>
<path d="M120.367 240.186H96.3672V264.186H120.367V240.186Z" stroke="white" stroke-width="0.75" stroke-miterlimit="10"/>
<path d="M144.367 240.186H120.367V264.186H144.367V240.186Z" stroke="white" stroke-width="0.75" stroke-miterlimit="10"/>
<path d="M168.367 240.186H144.367V264.186H168.367V240.186Z" stroke="white" stroke-width="0.75" stroke-miterlimit="10"/>
<path d="M192.367 240.186H168.367V264.186H192.367V240.186Z" stroke="white" stroke-width="0.75" stroke-miterlimit="10"/>
<path d="M216.367 240.186H192.367V264.186H216.367V240.186Z" stroke="white" stroke-width="0.75" stroke-miterlimit="10"/>
<path d="M240.367 240.186H216.367V264.186H240.367V240.186Z" stroke="white" stroke-width="0.75" stroke-miterlimit="10"/>
<path d="M264.367 240.186H240.367V264.186H264.367V240.186Z" stroke="white" stroke-width="0.75" stroke-miterlimit="10"/>
<path d="M288.367 240.186H264.367V264.186H288.367V240.186Z" stroke="white" stroke-width="0.75" stroke-miterlimit="10"/>
<path d="M312.367 240.186H288.367V264.186H312.367V240.186Z" stroke="white" stroke-width="0.75" stroke-miterlimit="10"/>
<path d="M336.367 240.186H312.367V264.186H336.367V240.186Z" stroke="white" stroke-width="0.75" stroke-miterlimit="10"/>
<path d="M360.367 240.186H336.367V264.186H360.367V240.186Z" stroke="white" stroke-width="0.75" stroke-miterlimit="10"/>
<path d="M384.367 240.186H360.367V264.186H384.367V240.186Z" stroke="white" stroke-width="0.75" stroke-miterlimit="10"/>
<path d="M408.367 240.186H384.367V264.186H408.367V240.186Z" stroke="white" stroke-width="0.75" stroke-miterlimit="10"/>
<path d="M432.367 240.186H408.367V264.186H432.367V240.186Z" stroke="white" stroke-width="0.75" stroke-miterlimit="10"/>
<path d="M456.367 240.186H432.367V264.186H456.367V240.186Z" stroke="white" stroke-width="0.75" stroke-miterlimit="10"/>
<path d="M480.367 240.186H456.367V264.186H480.367V240.186Z" stroke="white" stroke-width="0.75" stroke-miterlimit="10"/>
<path d="M48.3672 264.186H24.3672V288.186H48.3672V264.186Z" stroke="white" stroke-width="0.75" stroke-miterlimit="10"/>
<path d="M72.3672 264.186H48.3672V288.186H72.3672V264.186Z" stroke="white" stroke-width="0.75" stroke-miterlimit="10"/>
<path d="M96.3672 264.186H72.3672V288.186H96.3672V264.186Z" stroke="white" stroke-width="0.75" stroke-miterlimit="10"/>
<path d="M120.367 264.186H96.3672V288.186H120.367V264.186Z" stroke="white" stroke-width="0.75" stroke-miterlimit="10"/>
<path d="M144.367 264.186H120.367V288.186H144.367V264.186Z" stroke="white" stroke-width="0.75" stroke-miterlimit="10"/>
<path d="M168.367 264.186H144.367V288.186H168.367V264.186Z" stroke="white" stroke-width="0.75" stroke-miterlimit="10"/>
<path d="M192.367 264.186H168.367V288.186H192.367V264.186Z" stroke="white" stroke-width="0.75" stroke-miterlimit="10"/>
<path d="M216.367 264.186H192.367V288.186H216.367V264.186Z" stroke="white" stroke-width="0.75" stroke-miterlimit="10"/>
<path d="M240.367 264.186H216.367V288.186H240.367V264.186Z" stroke="white" stroke-width="0.75" stroke-miterlimit="10"/>
<path d="M264.367 264.186H240.367V288.186H264.367V264.186Z" stroke="white" stroke-width="0.75" stroke-miterlimit="10"/>
<path d="M288.367 264.186H264.367V288.186H288.367V264.186Z" stroke="white" stroke-width="0.75" stroke-miterlimit="10"/>
<path d="M312.367 264.186H288.367V288.186H312.367V264.186Z" stroke="white" stroke-width="0.75" stroke-miterlimit="10"/>
<path d="M336.367 264.186H312.367V288.186H336.367V264.186Z" stroke="white" stroke-width="0.75" stroke-miterlimit="10"/>
<path d="M360.367 264.186H336.367V288.186H360.367V264.186Z" stroke="white" stroke-width="0.75" stroke-miterlimit="10"/>
<path d="M384.367 264.186H360.367V288.186H384.367V264.186Z" stroke="white" stroke-width="0.75" stroke-miterlimit="10"/>
<path d="M408.367 264.186H384.367V288.186H408.367V264.186Z" stroke="white" stroke-width="0.75" stroke-miterlimit="10"/>
<path d="M432.367 264.186H408.367V288.186H432.367V264.186Z" stroke="white" stroke-width="0.75" stroke-miterlimit="10"/>
<path d="M456.367 264.186H432.367V288.186H456.367V264.186Z" stroke="white" stroke-width="0.75" stroke-miterlimit="10"/>
<path d="M480.367 264.186H456.367V288.186H480.367V264.186Z" stroke="white" stroke-width="0.75" stroke-miterlimit="10"/>
<path d="M504.367 264.186H480.367V288.186H504.367V264.186Z" stroke="white" stroke-width="0.75" stroke-miterlimit="10"/>
<path d="M528.367 264.186H504.367V288.186H528.367V264.186Z" stroke="white" stroke-width="0.75" stroke-miterlimit="10"/>
<path d="M552.367 264.186H528.367V288.186H552.367V264.186Z" stroke="white" stroke-width="0.75" stroke-miterlimit="10"/>
<path d="M576.367 264.186H552.367V288.186H576.367V264.186Z" stroke="white" stroke-width="0.75" stroke-miterlimit="10"/>
<path d="M24.3672 288.186H0.367188V312.186H24.3672V288.186Z" stroke="white" stroke-width="0.75" stroke-miterlimit="10"/>
<path d="M48.3672 288.186H24.3672V312.186H48.3672V288.186Z" stroke="white" stroke-width="0.75" stroke-miterlimit="10"/>
<path d="M72.3672 288.186H48.3672V312.186H72.3672V288.186Z" stroke="white" stroke-width="0.75" stroke-miterlimit="10"/>
<path d="M96.3672 288.186H72.3672V312.186H96.3672V288.186Z" stroke="white" stroke-width="0.75" stroke-miterlimit="10"/>
<path d="M120.367 288.186H96.3672V312.186H120.367V288.186Z" stroke="white" stroke-width="0.75" stroke-miterlimit="10"/>
<path d="M144.367 288.186H120.367V312.186H144.367V288.186Z" stroke="white" stroke-width="0.75" stroke-miterlimit="10"/>
<path d="M168.367 288.186H144.367V312.186H168.367V288.186Z" stroke="white" stroke-width="0.75" stroke-miterlimit="10"/>
<path d="M192.367 288.186H168.367V312.186H192.367V288.186Z" stroke="white" stroke-width="0.75" stroke-miterlimit="10"/>
<path d="M216.367 288.186H192.367V312.186H216.367V288.186Z" stroke="white" stroke-width="0.75" stroke-miterlimit="10"/>
<path d="M240.367 288.186H216.367V312.186H240.367V288.186Z" stroke="white" stroke-width="0.75" stroke-miterlimit="10"/>
<path d="M264.367 288.186H240.367V312.186H264.367V288.186Z" stroke="white" stroke-width="0.75" stroke-miterlimit="10"/>
<path d="M288.367 288.186H264.367V312.186H288.367V288.186Z" stroke="white" stroke-width="0.75" stroke-miterlimit="10"/>
<path d="M312.367 288.186H288.367V312.186H312.367V288.186Z" stroke="white" stroke-width="0.75" stroke-miterlimit="10"/>
<path d="M336.367 288.186H312.367V312.186H336.367V288.186Z" stroke="white" stroke-width="0.75" stroke-miterlimit="10"/>
<path d="M360.367 288.186H336.367V312.186H360.367V288.186Z" stroke="white" stroke-width="0.75" stroke-miterlimit="10"/>
<path d="M384.367 288.186H360.367V312.186H384.367V288.186Z" stroke="white" stroke-width="0.75" stroke-miterlimit="10"/>
<path d="M408.367 288.186H384.367V312.186H408.367V288.186Z" stroke="white" stroke-width="0.75" stroke-miterlimit="10"/>
<path d="M432.367 288.186H408.367V312.186H432.367V288.186Z" stroke="white" stroke-width="0.75" stroke-miterlimit="10"/>
<path d="M456.367 288.186H432.367V312.186H456.367V288.186Z" stroke="white" stroke-width="0.75" stroke-miterlimit="10"/>
<path d="M480.367 288.186H456.367V312.186H480.367V288.186Z" stroke="white" stroke-width="0.75" stroke-miterlimit="10"/>
<path d="M504.367 288.186H480.367V312.186H504.367V288.186Z" stroke="white" stroke-width="0.75" stroke-miterlimit="10"/>
<path d="M528.367 288.186H504.367V312.186H528.367V288.186Z" stroke="white" stroke-width="0.75" stroke-miterlimit="10"/>
<path d="M552.367 288.186H528.367V312.186H552.367V288.186Z" stroke="white" stroke-width="0.75" stroke-miterlimit="10"/>
<path d="M576.367 288.186H552.367V312.186H576.367V288.186Z" stroke="white" stroke-width="0.75" stroke-miterlimit="10"/>
<path d="M48.3672 312.186H24.3672V336.186H48.3672V312.186Z" stroke="white" stroke-width="0.75" stroke-miterlimit="10"/>
<path d="M72.3672 312.186H48.3672V336.186H72.3672V312.186Z" stroke="white" stroke-width="0.75" stroke-miterlimit="10"/>
<path d="M96.3672 312.186H72.3672V336.186H96.3672V312.186Z" stroke="white" stroke-width="0.75" stroke-miterlimit="10"/>
<path d="M120.367 312.186H96.3672V336.186H120.367V312.186Z" stroke="white" stroke-width="0.75" stroke-miterlimit="10"/>
<path d="M144.367 312.186H120.367V336.186H144.367V312.186Z" stroke="white" stroke-width="0.75" stroke-miterlimit="10"/>
<path d="M168.367 312.186H144.367V336.186H168.367V312.186Z" stroke="white" stroke-width="0.75" stroke-miterlimit="10"/>
<path d="M192.367 312.186H168.367V336.186H192.367V312.186Z" stroke="white" stroke-width="0.75" stroke-miterlimit="10"/>
<path d="M216.367 312.186H192.367V336.186H216.367V312.186Z" stroke="white" stroke-width="0.75" stroke-miterlimit="10"/>
<path d="M240.367 312.186H216.367V336.186H240.367V312.186Z" stroke="white" stroke-width="0.75" stroke-miterlimit="10"/>
<path d="M264.367 312.186H240.367V336.186H264.367V312.186Z" stroke="white" stroke-width="0.75" stroke-miterlimit="10"/>
<path d="M288.367 312.186H264.367V336.186H288.367V312.186Z" stroke="white" stroke-width="0.75" stroke-miterlimit="10"/>
<path d="M312.367 312.186H288.367V336.186H312.367V312.186Z" stroke="white" stroke-width="0.75" stroke-miterlimit="10"/>
<path d="M336.367 312.186H312.367V336.186H336.367V312.186Z" stroke="white" stroke-width="0.75" stroke-miterlimit="10"/>
<path d="M360.367 312.186H336.367V336.186H360.367V312.186Z" stroke="white" stroke-width="0.75" stroke-miterlimit="10"/>
<path d="M384.367 312.186H360.367V336.186H384.367V312.186Z" stroke="white" stroke-width="0.75" stroke-miterlimit="10"/>
<path d="M408.367 312.186H384.367V336.186H408.367V312.186Z" stroke="white" stroke-width="0.75" stroke-miterlimit="10"/>
<path d="M432.367 312.186H408.367V336.186H432.367V312.186Z" stroke="white" stroke-width="0.75" stroke-miterlimit="10"/>
<path d="M456.367 312.186H432.367V336.186H456.367V312.186Z" stroke="white" stroke-width="0.75" stroke-miterlimit="10"/>
<path d="M480.367 312.186H456.367V336.186H480.367V312.186Z" stroke="white" stroke-width="0.75" stroke-miterlimit="10"/>
<path d="M504.367 312.186H480.367V336.186H504.367V312.186Z" stroke="white" stroke-width="0.75" stroke-miterlimit="10"/>
<path d="M528.367 312.186H504.367V336.186H528.367V312.186Z" stroke="white" stroke-width="0.75" stroke-miterlimit="10"/>
<path d="M552.367 312.186H528.367V336.186H552.367V312.186Z" stroke="white" stroke-width="0.75" stroke-miterlimit="10"/>
<path d="M24.3672 336.186H0.367188V360.186H24.3672V336.186Z" stroke="white" stroke-width="0.75" stroke-miterlimit="10"/>
<path d="M48.3672 336.186H24.3672V360.186H48.3672V336.186Z" stroke="white" stroke-width="0.75" stroke-miterlimit="10"/>
<path d="M72.3672 336.186H48.3672V360.186H72.3672V336.186Z" stroke="white" stroke-width="0.75" stroke-miterlimit="10"/>
<path d="M96.3672 336.186H72.3672V360.186H96.3672V336.186Z" stroke="white" stroke-width="0.75" stroke-miterlimit="10"/>
<path d="M120.367 336.186H96.3672V360.186H120.367V336.186Z" stroke="white" stroke-width="0.75" stroke-miterlimit="10"/>
<path d="M144.367 336.186H120.367V360.186H144.367V336.186Z" stroke="white" stroke-width="0.75" stroke-miterlimit="10"/>
<path d="M168.367 336.186H144.367V360.186H168.367V336.186Z" stroke="white" stroke-width="0.75" stroke-miterlimit="10"/>
<path d="M192.367 336.186H168.367V360.186H192.367V336.186Z" stroke="white" stroke-width="0.75" stroke-miterlimit="10"/>
<path d="M216.367 336.186H192.367V360.186H216.367V336.186Z" stroke="white" stroke-width="0.75" stroke-miterlimit="10"/>
<path d="M240.367 336.186H216.367V360.186H240.367V336.186Z" stroke="white" stroke-width="0.75" stroke-miterlimit="10"/>
<path d="M264.367 336.186H240.367V360.186H264.367V336.186Z" stroke="white" stroke-width="0.75" stroke-miterlimit="10"/>
<path d="M288.367 336.186H264.367V360.186H288.367V336.186Z" stroke="white" stroke-width="0.75" stroke-miterlimit="10"/>
<path d="M312.367 336.186H288.367V360.186H312.367V336.186Z" stroke="white" stroke-width="0.75" stroke-miterlimit="10"/>
<path d="M336.367 336.186H312.367V360.186H336.367V336.186Z" stroke="white" stroke-width="0.75" stroke-miterlimit="10"/>
<path d="M360.367 336.186H336.367V360.186H360.367V336.186Z" stroke="white" stroke-width="0.75" stroke-miterlimit="10"/>
<path d="M384.367 336.186H360.367V360.186H384.367V336.186Z" stroke="white" stroke-width="0.75" stroke-miterlimit="10"/>
<path d="M408.367 336.186H384.367V360.186H408.367V336.186Z" stroke="white" stroke-width="0.75" stroke-miterlimit="10"/>
<path d="M432.367 336.186H408.367V360.186H432.367V336.186Z" stroke="white" stroke-width="0.75" stroke-miterlimit="10"/>
<path d="M456.367 336.186H432.367V360.186H456.367V336.186Z" stroke="white" stroke-width="0.75" stroke-miterlimit="10"/>
<path d="M480.367 336.186H456.367V360.186H480.367V336.186Z" stroke="white" stroke-width="0.75" stroke-miterlimit="10"/>
<path d="M504.367 336.186H480.367V360.186H504.367V336.186Z" stroke="white" stroke-width="0.75" stroke-miterlimit="10"/>
<path d="M528.367 336.186H504.367V360.186H528.367V336.186Z" stroke="white" stroke-width="0.75" stroke-miterlimit="10"/>
<path d="M552.367 336.186H528.367V360.186H552.367V336.186Z" stroke="white" stroke-width="0.75" stroke-miterlimit="10"/>
<path d="M576.367 336.186H552.367V360.186H576.367V336.186Z" stroke="white" stroke-width="0.75" stroke-miterlimit="10"/>
<path d="M24.3672 360.186H0.367188V384.186H24.3672V360.186Z" stroke="white" stroke-width="0.75" stroke-miterlimit="10"/>
<path d="M48.3672 360.186H24.3672V384.186H48.3672V360.186Z" stroke="white" stroke-width="0.75" stroke-miterlimit="10"/>
<path d="M72.3672 360.186H48.3672V384.186H72.3672V360.186Z" stroke="white" stroke-width="0.75" stroke-miterlimit="10"/>
<path d="M96.3672 360.186H72.3672V384.186H96.3672V360.186Z" stroke="white" stroke-width="0.75" stroke-miterlimit="10"/>
<path d="M120.367 360.186H96.3672V384.186H120.367V360.186Z" stroke="white" stroke-width="0.75" stroke-miterlimit="10"/>
<path d="M144.367 360.186H120.367V384.186H144.367V360.186Z" stroke="white" stroke-width="0.75" stroke-miterlimit="10"/>
<path d="M168.367 360.186H144.367V384.186H168.367V360.186Z" stroke="white" stroke-width="0.75" stroke-miterlimit="10"/>
<path d="M192.367 360.186H168.367V384.186H192.367V360.186Z" stroke="white" stroke-width="0.75" stroke-miterlimit="10"/>
<path d="M216.367 360.186H192.367V384.186H216.367V360.186Z" stroke="white" stroke-width="0.75" stroke-miterlimit="10"/>
<path d="M240.367 360.186H216.367V384.186H240.367V360.186Z" stroke="white" stroke-width="0.75" stroke-miterlimit="10"/>
<path d="M264.367 360.186H240.367V384.186H264.367V360.186Z" stroke="white" stroke-width="0.75" stroke-miterlimit="10"/>
<path d="M288.367 360.186H264.367V384.186H288.367V360.186Z" stroke="white" stroke-width="0.75" stroke-miterlimit="10"/>
<path d="M312.367 360.186H288.367V384.186H312.367V360.186Z" stroke="white" stroke-width="0.75" stroke-miterlimit="10"/>
<path d="M336.367 360.186H312.367V384.186H336.367V360.186Z" stroke="white" stroke-width="0.75" stroke-miterlimit="10"/>
<path d="M360.367 360.186H336.367V384.186H360.367V360.186Z" stroke="white" stroke-width="0.75" stroke-miterlimit="10"/>
<path d="M384.367 360.186H360.367V384.186H384.367V360.186Z" stroke="white" stroke-width="0.75" stroke-miterlimit="10"/>
<path d="M408.367 360.186H384.367V384.186H408.367V360.186Z" stroke="white" stroke-width="0.75" stroke-miterlimit="10"/>
<path d="M432.367 360.186H408.367V384.186H432.367V360.186Z" stroke="white" stroke-width="0.75" stroke-miterlimit="10"/>
<path d="M456.367 360.186H432.367V384.186H456.367V360.186Z" stroke="white" stroke-width="0.75" stroke-miterlimit="10"/>
<path d="M480.367 360.186H456.367V384.186H480.367V360.186Z" stroke="white" stroke-width="0.75" stroke-miterlimit="10"/>
<path d="M504.367 360.186H480.367V384.186H504.367V360.186Z" stroke="white" stroke-width="0.75" stroke-miterlimit="10"/>
<path d="M528.367 360.186H504.367V384.186H528.367V360.186Z" stroke="white" stroke-width="0.75" stroke-miterlimit="10"/>
<path d="M48.3672 384.186H24.3672V408.186H48.3672V384.186Z" stroke="white" stroke-width="0.75" stroke-miterlimit="10"/>
<path d="M72.3672 384.186H48.3672V408.186H72.3672V384.186Z" stroke="white" stroke-width="0.75" stroke-miterlimit="10"/>
<path d="M96.3672 384.186H72.3672V408.186H96.3672V384.186Z" stroke="white" stroke-width="0.75" stroke-miterlimit="10"/>
<path d="M120.367 384.186H96.3672V408.186H120.367V384.186Z" stroke="white" stroke-width="0.75" stroke-miterlimit="10"/>
<path d="M144.367 384.186H120.367V408.186H144.367V384.186Z" stroke="white" stroke-width="0.75" stroke-miterlimit="10"/>
<path d="M168.367 384.186H144.367V408.186H168.367V384.186Z" stroke="white" stroke-width="0.75" stroke-miterlimit="10"/>
<path d="M192.367 384.186H168.367V408.186H192.367V384.186Z" stroke="white" stroke-width="0.75" stroke-miterlimit="10"/>
<path d="M216.367 384.186H192.367V408.186H216.367V384.186Z" stroke="white" stroke-width="0.75" stroke-miterlimit="10"/>
<path d="M240.367 384.186H216.367V408.186H240.367V384.186Z" stroke="white" stroke-width="0.75" stroke-miterlimit="10"/>
<path d="M264.367 384.186H240.367V408.186H264.367V384.186Z" stroke="white" stroke-width="0.75" stroke-miterlimit="10"/>
<path d="M288.367 384.186H264.367V408.186H288.367V384.186Z" stroke="white" stroke-width="0.75" stroke-miterlimit="10"/>
<path d="M312.367 384.186H288.367V408.186H312.367V384.186Z" stroke="white" stroke-width="0.75" stroke-miterlimit="10"/>
<path d="M336.367 384.186H312.367V408.186H336.367V384.186Z" stroke="white" stroke-width="0.75" stroke-miterlimit="10"/>
<path d="M360.367 384.186H336.367V408.186H360.367V384.186Z" stroke="white" stroke-width="0.75" stroke-miterlimit="10"/>
<path d="M384.367 384.186H360.367V408.186H384.367V384.186Z" stroke="white" stroke-width="0.75" stroke-miterlimit="10"/>
<path d="M408.367 384.186H384.367V408.186H408.367V384.186Z" stroke="white" stroke-width="0.75" stroke-miterlimit="10"/>
<path d="M432.367 384.186H408.367V408.186H432.367V384.186Z" stroke="white" stroke-width="0.75" stroke-miterlimit="10"/>
<path d="M456.367 384.186H432.367V408.186H456.367V384.186Z" stroke="white" stroke-width="0.75" stroke-miterlimit="10"/>
<path d="M480.367 384.186H456.367V408.186H480.367V384.186Z" stroke="white" stroke-width="0.75" stroke-miterlimit="10"/>
<path d="M504.367 384.186H480.367V408.186H504.367V384.186Z" stroke="white" stroke-width="0.75" stroke-miterlimit="10"/>
<path d="M48.3672 408.186H24.3672V432.186H48.3672V408.186Z" stroke="white" stroke-width="0.75" stroke-miterlimit="10"/>
<path d="M72.3672 408.186H48.3672V432.186H72.3672V408.186Z" stroke="white" stroke-width="0.75" stroke-miterlimit="10"/>
<path d="M96.3672 408.186H72.3672V432.186H96.3672V408.186Z" stroke="white" stroke-width="0.75" stroke-miterlimit="10"/>
<path d="M120.367 408.186H96.3672V432.186H120.367V408.186Z" stroke="white" stroke-width="0.75" stroke-miterlimit="10"/>
<path d="M144.367 408.186H120.367V432.186H144.367V408.186Z" stroke="white" stroke-width="0.75" stroke-miterlimit="10"/>
<path d="M168.367 408.186H144.367V432.186H168.367V408.186Z" stroke="white" stroke-width="0.75" stroke-miterlimit="10"/>
<path d="M192.367 408.186H168.367V432.186H192.367V408.186Z" stroke="white" stroke-width="0.75" stroke-miterlimit="10"/>
<path d="M216.367 408.186H192.367V432.186H216.367V408.186Z" stroke="white" stroke-width="0.75" stroke-miterlimit="10"/>
<path d="M240.367 408.186H216.367V432.186H240.367V408.186Z" stroke="white" stroke-width="0.75" stroke-miterlimit="10"/>
<path d="M264.367 408.186H240.367V432.186H264.367V408.186Z" stroke="white" stroke-width="0.75" stroke-miterlimit="10"/>
<path d="M288.367 408.186H264.367V432.186H288.367V408.186Z" stroke="white" stroke-width="0.75" stroke-miterlimit="10"/>
<path d="M312.367 408.186H288.367V432.186H312.367V408.186Z" stroke="white" stroke-width="0.75" stroke-miterlimit="10"/>
<path d="M336.367 408.186H312.367V432.186H336.367V408.186Z" stroke="white" stroke-width="0.75" stroke-miterlimit="10"/>
<path d="M360.367 408.186H336.367V432.186H360.367V408.186Z" stroke="white" stroke-width="0.75" stroke-miterlimit="10"/>
<path d="M384.367 408.186H360.367V432.186H384.367V408.186Z" stroke="white" stroke-width="0.75" stroke-miterlimit="10"/>
<path d="M408.367 408.186H384.367V432.186H408.367V408.186Z" stroke="white" stroke-width="0.75" stroke-miterlimit="10"/>
<path d="M432.367 408.186H408.367V432.186H432.367V408.186Z" stroke="white" stroke-width="0.75" stroke-miterlimit="10"/>
<path d="M456.367 408.186H432.367V432.186H456.367V408.186Z" stroke="white" stroke-width="0.75" stroke-miterlimit="10"/>
<path d="M480.367 408.186H456.367V432.186H480.367V408.186Z" stroke="white" stroke-width="0.75" stroke-miterlimit="10"/>
<path d="M504.367 408.186H480.367V432.186H504.367V408.186Z" stroke="white" stroke-width="0.75" stroke-miterlimit="10"/>
<path d="M24.3672 432.186H0.367188V456.186H24.3672V432.186Z" stroke="white" stroke-width="0.75" stroke-miterlimit="10"/>
<path d="M48.3672 432.186H24.3672V456.186H48.3672V432.186Z" stroke="white" stroke-width="0.75" stroke-miterlimit="10"/>
<path d="M72.3672 432.186H48.3672V456.186H72.3672V432.186Z" stroke="white" stroke-width="0.75" stroke-miterlimit="10"/>
<path d="M96.3672 432.186H72.3672V456.186H96.3672V432.186Z" stroke="white" stroke-width="0.75" stroke-miterlimit="10"/>
<path d="M120.367 432.186H96.3672V456.186H120.367V432.186Z" stroke="white" stroke-width="0.75" stroke-miterlimit="10"/>
<path d="M144.367 432.186H120.367V456.186H144.367V432.186Z" stroke="white" stroke-width="0.75" stroke-miterlimit="10"/>
<path d="M168.367 432.186H144.367V456.186H168.367V432.186Z" stroke="white" stroke-width="0.75" stroke-miterlimit="10"/>
<path d="M192.367 432.186H168.367V456.186H192.367V432.186Z" stroke="white" stroke-width="0.75" stroke-miterlimit="10"/>
<path d="M216.367 432.186H192.367V456.186H216.367V432.186Z" stroke="white" stroke-width="0.75" stroke-miterlimit="10"/>
<path d="M240.367 432.186H216.367V456.186H240.367V432.186Z" stroke="white" stroke-width="0.75" stroke-miterlimit="10"/>
<path d="M264.367 432.186H240.367V456.186H264.367V432.186Z" stroke="white" stroke-width="0.75" stroke-miterlimit="10"/>
<path d="M288.367 432.186H264.367V456.186H288.367V432.186Z" stroke="white" stroke-width="0.75" stroke-miterlimit="10"/>
<path d="M312.367 432.186H288.367V456.186H312.367V432.186Z" stroke="white" stroke-width="0.75" stroke-miterlimit="10"/>
<path d="M336.367 432.186H312.367V456.186H336.367V432.186Z" stroke="white" stroke-width="0.75" stroke-miterlimit="10"/>
<path d="M360.367 432.186H336.367V456.186H360.367V432.186Z" stroke="white" stroke-width="0.75" stroke-miterlimit="10"/>
<path d="M384.367 432.186H360.367V456.186H384.367V432.186Z" stroke="white" stroke-width="0.75" stroke-miterlimit="10"/>
<path d="M408.367 432.186H384.367V456.186H408.367V432.186Z" stroke="white" stroke-width="0.75" stroke-miterlimit="10"/>
<path d="M432.367 432.186H408.367V456.186H432.367V432.186Z" stroke="white" stroke-width="0.75" stroke-miterlimit="10"/>
<path d="M456.367 432.186H432.367V456.186H456.367V432.186Z" stroke="white" stroke-width="0.75" stroke-miterlimit="10"/>
<path d="M480.367 432.186H456.367V456.186H480.367V432.186Z" stroke="white" stroke-width="0.75" stroke-miterlimit="10"/>
<path d="M504.367 432.186H480.367V456.186H504.367V432.186Z" stroke="white" stroke-width="0.75" stroke-miterlimit="10"/>
<path d="M528.367 432.186H504.367V456.186H528.367V432.186Z" stroke="white" stroke-width="0.75" stroke-miterlimit="10"/>
<path d="M24.3672 456.186H0.367188V480.186H24.3672V456.186Z" stroke="white" stroke-width="0.75" stroke-miterlimit="10"/>
<path d="M48.3672 456.186H24.3672V480.186H48.3672V456.186Z" stroke="white" stroke-width="0.75" stroke-miterlimit="10"/>
<path d="M72.3672 456.186H48.3672V480.186H72.3672V456.186Z" stroke="white" stroke-width="0.75" stroke-miterlimit="10"/>
<path d="M96.3672 456.186H72.3672V480.186H96.3672V456.186Z" stroke="white" stroke-width="0.75" stroke-miterlimit="10"/>
<path d="M120.367 456.186H96.3672V480.186H120.367V456.186Z" stroke="white" stroke-width="0.75" stroke-miterlimit="10"/>
<path d="M144.367 456.186H120.367V480.186H144.367V456.186Z" stroke="white" stroke-width="0.75" stroke-miterlimit="10"/>
<path d="M168.367 456.186H144.367V480.186H168.367V456.186Z" stroke="white" stroke-width="0.75" stroke-miterlimit="10"/>
<path d="M192.367 456.186H168.367V480.186H192.367V456.186Z" stroke="white" stroke-width="0.75" stroke-miterlimit="10"/>
<path d="M216.367 456.186H192.367V480.186H216.367V456.186Z" stroke="white" stroke-width="0.75" stroke-miterlimit="10"/>
<path d="M240.367 456.186H216.367V480.186H240.367V456.186Z" stroke="white" stroke-width="0.75" stroke-miterlimit="10"/>
<path d="M264.367 456.186H240.367V480.186H264.367V456.186Z" stroke="white" stroke-width="0.75" stroke-miterlimit="10"/>
<path d="M288.367 456.186H264.367V480.186H288.367V456.186Z" stroke="white" stroke-width="0.75" stroke-miterlimit="10"/>
<path d="M312.367 456.186H288.367V480.186H312.367V456.186Z" stroke="white" stroke-width="0.75" stroke-miterlimit="10"/>
<path d="M336.367 456.186H312.367V480.186H336.367V456.186Z" stroke="white" stroke-width="0.75" stroke-miterlimit="10"/>
<path d="M360.367 456.186H336.367V480.186H360.367V456.186Z" stroke="white" stroke-width="0.75" stroke-miterlimit="10"/>
<path d="M384.367 456.186H360.367V480.186H384.367V456.186Z" stroke="white" stroke-width="0.75" stroke-miterlimit="10"/>
<path d="M408.367 456.186H384.367V480.186H408.367V456.186Z" stroke="white" stroke-width="0.75" stroke-miterlimit="10"/>
<path d="M432.367 456.186H408.367V480.186H432.367V456.186Z" stroke="white" stroke-width="0.75" stroke-miterlimit="10"/>
<path d="M456.367 456.186H432.367V480.186H456.367V456.186Z" stroke="white" stroke-width="0.75" stroke-miterlimit="10"/>
<path d="M480.367 456.186H456.367V480.186H480.367V456.186Z" stroke="white" stroke-width="0.75" stroke-miterlimit="10"/>
<path d="M504.367 456.186H480.367V480.186H504.367V456.186Z" stroke="white" stroke-width="0.75" stroke-miterlimit="10"/>
<path d="M528.367 456.186H504.367V480.186H528.367V456.186Z" stroke="white" stroke-width="0.75" stroke-miterlimit="10"/>
<path d="M24.3672 480.186H0.367188V504.186H24.3672V480.186Z" stroke="white" stroke-width="0.75" stroke-miterlimit="10"/>
<path d="M48.3672 480.186H24.3672V504.186H48.3672V480.186Z" stroke="white" stroke-width="0.75" stroke-miterlimit="10"/>
<path d="M72.3672 480.186H48.3672V504.186H72.3672V480.186Z" stroke="white" stroke-width="0.75" stroke-miterlimit="10"/>
<path d="M96.3672 480.186H72.3672V504.186H96.3672V480.186Z" stroke="white" stroke-width="0.75" stroke-miterlimit="10"/>
<path d="M120.367 480.186H96.3672V504.186H120.367V480.186Z" stroke="white" stroke-width="0.75" stroke-miterlimit="10"/>
<path d="M144.367 480.186H120.367V504.186H144.367V480.186Z" stroke="white" stroke-width="0.75" stroke-miterlimit="10"/>
<path d="M168.367 480.186H144.367V504.186H168.367V480.186Z" stroke="white" stroke-width="0.75" stroke-miterlimit="10"/>
<path d="M192.367 480.186H168.367V504.186H192.367V480.186Z" stroke="white" stroke-width="0.75" stroke-miterlimit="10"/>
<path d="M216.367 480.186H192.367V504.186H216.367V480.186Z" stroke="white" stroke-width="0.75" stroke-miterlimit="10"/>
<path d="M240.367 480.186H216.367V504.186H240.367V480.186Z" stroke="white" stroke-width="0.75" stroke-miterlimit="10"/>
<path d="M264.367 480.186H240.367V504.186H264.367V480.186Z" stroke="white" stroke-width="0.75" stroke-miterlimit="10"/>
<path d="M288.367 480.186H264.367V504.186H288.367V480.186Z" stroke="white" stroke-width="0.75" stroke-miterlimit="10"/>
<path d="M312.367 480.186H288.367V504.186H312.367V480.186Z" stroke="white" stroke-width="0.75" stroke-miterlimit="10"/>
<path d="M336.367 480.186H312.367V504.186H336.367V480.186Z" stroke="white" stroke-width="0.75" stroke-miterlimit="10"/>
<path d="M360.367 480.186H336.367V504.186H360.367V480.186Z" stroke="white" stroke-width="0.75" stroke-miterlimit="10"/>
<path d="M384.367 480.186H360.367V504.186H384.367V480.186Z" stroke="white" stroke-width="0.75" stroke-miterlimit="10"/>
<path d="M408.367 480.186H384.367V504.186H408.367V480.186Z" stroke="white" stroke-width="0.75" stroke-miterlimit="10"/>
<path d="M432.367 480.186H408.367V504.186H432.367V480.186Z" stroke="white" stroke-width="0.75" stroke-miterlimit="10"/>
<path d="M456.367 480.186H432.367V504.186H456.367V480.186Z" stroke="white" stroke-width="0.75" stroke-miterlimit="10"/>
<path d="M480.367 480.186H456.367V504.186H480.367V480.186Z" stroke="white" stroke-width="0.75" stroke-miterlimit="10"/>
<path d="M504.367 480.186H480.367V504.186H504.367V480.186Z" stroke="white" stroke-width="0.75" stroke-miterlimit="10"/>
<path d="M528.367 480.186H504.367V504.186H528.367V480.186Z" stroke="white" stroke-width="0.75" stroke-miterlimit="10"/>
<path d="M552.367 480.186H528.367V504.186H552.367V480.186Z" stroke="white" stroke-width="0.75" stroke-miterlimit="10"/>
<path d="M576.367 480.186H552.367V504.186H576.367V480.186Z" stroke="white" stroke-width="0.75" stroke-miterlimit="10"/>
<path d="M24.3672 504.186H0.367188V528.186H24.3672V504.186Z" stroke="white" stroke-width="0.75" stroke-miterlimit="10"/>
<path d="M48.3672 504.186H24.3672V528.186H48.3672V504.186Z" stroke="white" stroke-width="0.75" stroke-miterlimit="10"/>
<path d="M72.3672 504.186H48.3672V528.186H72.3672V504.186Z" stroke="white" stroke-width="0.75" stroke-miterlimit="10"/>
<path d="M96.3672 504.186H72.3672V528.186H96.3672V504.186Z" stroke="white" stroke-width="0.75" stroke-miterlimit="10"/>
<path d="M120.367 504.186H96.3672V528.186H120.367V504.186Z" stroke="white" stroke-width="0.75" stroke-miterlimit="10"/>
<path d="M144.367 504.186H120.367V528.186H144.367V504.186Z" stroke="white" stroke-width="0.75" stroke-miterlimit="10"/>
<path d="M168.367 504.186H144.367V528.186H168.367V504.186Z" stroke="white" stroke-width="0.75" stroke-miterlimit="10"/>
<path d="M192.367 504.186H168.367V528.186H192.367V504.186Z" stroke="white" stroke-width="0.75" stroke-miterlimit="10"/>
<path d="M216.367 504.186H192.367V528.186H216.367V504.186Z" stroke="white" stroke-width="0.75" stroke-miterlimit="10"/>
<path d="M240.367 504.186H216.367V528.186H240.367V504.186Z" stroke="white" stroke-width="0.75" stroke-miterlimit="10"/>
<path d="M264.367 504.186H240.367V528.186H264.367V504.186Z" stroke="white" stroke-width="0.75" stroke-miterlimit="10"/>
<path d="M288.367 504.186H264.367V528.186H288.367V504.186Z" stroke="white" stroke-width="0.75" stroke-miterlimit="10"/>
<path d="M312.367 504.186H288.367V528.186H312.367V504.186Z" stroke="white" stroke-width="0.75" stroke-miterlimit="10"/>
<path d="M336.367 504.186H312.367V528.186H336.367V504.186Z" stroke="white" stroke-width="0.75" stroke-miterlimit="10"/>
<path d="M360.367 504.186H336.367V528.186H360.367V504.186Z" stroke="white" stroke-width="0.75" stroke-miterlimit="10"/>
<path d="M384.367 504.186H360.367V528.186H384.367V504.186Z" stroke="white" stroke-width="0.75" stroke-miterlimit="10"/>
<path d="M408.367 504.186H384.367V528.186H408.367V504.186Z" stroke="white" stroke-width="0.75" stroke-miterlimit="10"/>
<path d="M432.367 504.186H408.367V528.186H432.367V504.186Z" stroke="white" stroke-width="0.75" stroke-miterlimit="10"/>
<path d="M456.367 504.186H432.367V528.186H456.367V504.186Z" stroke="white" stroke-width="0.75" stroke-miterlimit="10"/>
<path d="M480.367 504.186H456.367V528.186H480.367V504.186Z" stroke="white" stroke-width="0.75" stroke-miterlimit="10"/>
<path d="M504.367 504.186H480.367V528.186H504.367V504.186Z" stroke="white" stroke-width="0.75" stroke-miterlimit="10"/>
<path d="M528.367 504.186H504.367V528.186H528.367V504.186Z" stroke="white" stroke-width="0.75" stroke-miterlimit="10"/>
<path d="M552.367 504.186H528.367V528.186H552.367V504.186Z" stroke="white" stroke-width="0.75" stroke-miterlimit="10"/>
<path d="M576.367 504.186H552.367V528.186H576.367V504.186Z" stroke="white" stroke-width="0.75" stroke-miterlimit="10"/>
</g>
<defs>
<clipPath id="clip0_2417_321155">
<rect width="576" height="528" fill="white" transform="translate(0.5)"/>
</clipPath>
</defs>
</svg>
