<svg width="336" height="302" viewBox="0 0 336 302" fill="none" xmlns="http://www.w3.org/2000/svg">
<g clip-path="url(#clip0_2417_321153)">
<rect width="335" height="302" transform="translate(0.5)" fill="#EEEDFF"/>
<g clip-path="url(#clip1_2417_321153)">
<rect width="335" height="302" transform="translate(0.5)" fill="#EEEDFF"/>
<path d="M16.6066 -0.335938H-0.193359V16.4641H16.6066V-0.335938Z" stroke="white" stroke-width="0.525" stroke-miterlimit="10"/>
<path d="M33.4074 -0.335938H16.6074V16.4641H33.4074V-0.335938Z" stroke="white" stroke-width="0.525" stroke-miterlimit="10"/>
<path d="M50.2062 -0.335938H33.4062V16.4641H50.2062V-0.335938Z" stroke="white" stroke-width="0.525" stroke-miterlimit="10"/>
<path d="M67.007 -0.335938H50.207V16.4641H67.007V-0.335938Z" stroke="white" stroke-width="0.525" stroke-miterlimit="10"/>
<path d="M83.8078 -0.335938H67.0078V16.4641H83.8078V-0.335938Z" stroke="white" stroke-width="0.525" stroke-miterlimit="10"/>
<path d="M100.607 -0.335938H83.8066V16.4641H100.607V-0.335938Z" stroke="white" stroke-width="0.525" stroke-miterlimit="10"/>
<path d="M117.407 -0.335938H100.607V16.4641H117.407V-0.335938Z" stroke="white" stroke-width="0.525" stroke-miterlimit="10"/>
<path d="M134.206 -0.335938H117.406V16.4641H134.206V-0.335938Z" stroke="white" stroke-width="0.525" stroke-miterlimit="10"/>
<path d="M151.007 -0.335938H134.207V16.4641H151.007V-0.335938Z" stroke="white" stroke-width="0.525" stroke-miterlimit="10"/>
<path d="M167.808 -0.335938H151.008V16.4641H167.808V-0.335938Z" stroke="white" stroke-width="0.525" stroke-miterlimit="10"/>
<path d="M184.607 -0.335938H167.807V16.4641H184.607V-0.335938Z" stroke="white" stroke-width="0.525" stroke-miterlimit="10"/>
<path d="M201.407 -0.335938H184.607V16.4641H201.407V-0.335938Z" stroke="white" stroke-width="0.525" stroke-miterlimit="10"/>
<path d="M218.206 -0.335938H201.406V16.4641H218.206V-0.335938Z" stroke="white" stroke-width="0.525" stroke-miterlimit="10"/>
<path d="M235.007 -0.335938H218.207V16.4641H235.007V-0.335938Z" stroke="white" stroke-width="0.525" stroke-miterlimit="10"/>
<path d="M251.808 -0.335938H235.008V16.4641H251.808V-0.335938Z" stroke="white" stroke-width="0.525" stroke-miterlimit="10"/>
<path d="M268.607 -0.335938H251.807V16.4641H268.607V-0.335938Z" stroke="white" stroke-width="0.525" stroke-miterlimit="10"/>
<path d="M285.407 -0.335938H268.607V16.4641H285.407V-0.335938Z" stroke="white" stroke-width="0.525" stroke-miterlimit="10"/>
<path d="M302.206 -0.335938H285.406V16.4641H302.206V-0.335938Z" stroke="white" stroke-width="0.525" stroke-miterlimit="10"/>
<path d="M319.007 -0.335938H302.207V16.4641H319.007V-0.335938Z" stroke="white" stroke-width="0.525" stroke-miterlimit="10"/>
<path d="M335.808 -0.335938H319.008V16.4641H335.808V-0.335938Z" stroke="white" stroke-width="0.525" stroke-miterlimit="10"/>
<path d="M16.6066 16.4648H-0.193359V33.2648H16.6066V16.4648Z" stroke="white" stroke-width="0.525" stroke-miterlimit="10"/>
<path d="M33.4074 16.4648H16.6074V33.2648H33.4074V16.4648Z" stroke="white" stroke-width="0.525" stroke-miterlimit="10"/>
<path d="M50.2062 16.4648H33.4062V33.2648H50.2062V16.4648Z" stroke="white" stroke-width="0.525" stroke-miterlimit="10"/>
<path d="M67.007 16.4648H50.207V33.2648H67.007V16.4648Z" stroke="white" stroke-width="0.525" stroke-miterlimit="10"/>
<path d="M83.8078 16.4648H67.0078V33.2648H83.8078V16.4648Z" stroke="white" stroke-width="0.525" stroke-miterlimit="10"/>
<path d="M100.607 16.4648H83.8066V33.2648H100.607V16.4648Z" stroke="white" stroke-width="0.525" stroke-miterlimit="10"/>
<path d="M117.407 16.4648H100.607V33.2648H117.407V16.4648Z" stroke="white" stroke-width="0.525" stroke-miterlimit="10"/>
<path d="M134.206 16.4648H117.406V33.2648H134.206V16.4648Z" stroke="white" stroke-width="0.525" stroke-miterlimit="10"/>
<path d="M151.007 16.4648H134.207V33.2648H151.007V16.4648Z" stroke="white" stroke-width="0.525" stroke-miterlimit="10"/>
<path d="M167.808 16.4648H151.008V33.2648H167.808V16.4648Z" stroke="white" stroke-width="0.525" stroke-miterlimit="10"/>
<path d="M184.607 16.4648H167.807V33.2648H184.607V16.4648Z" stroke="white" stroke-width="0.525" stroke-miterlimit="10"/>
<path d="M201.407 16.4648H184.607V33.2648H201.407V16.4648Z" stroke="white" stroke-width="0.525" stroke-miterlimit="10"/>
<path d="M218.206 16.4648H201.406V33.2648H218.206V16.4648Z" stroke="white" stroke-width="0.525" stroke-miterlimit="10"/>
<path d="M235.007 16.4648H218.207V33.2648H235.007V16.4648Z" stroke="white" stroke-width="0.525" stroke-miterlimit="10"/>
<path d="M251.808 16.4648H235.008V33.2648H251.808V16.4648Z" stroke="white" stroke-width="0.525" stroke-miterlimit="10"/>
<path d="M268.607 16.4648H251.807V33.2648H268.607V16.4648Z" stroke="white" stroke-width="0.525" stroke-miterlimit="10"/>
<path d="M285.407 16.4648H268.607V33.2648H285.407V16.4648Z" stroke="white" stroke-width="0.525" stroke-miterlimit="10"/>
<path d="M302.206 16.4648H285.406V33.2648H302.206V16.4648Z" stroke="white" stroke-width="0.525" stroke-miterlimit="10"/>
<path d="M319.007 16.4648H302.207V33.2648H319.007V16.4648Z" stroke="white" stroke-width="0.525" stroke-miterlimit="10"/>
<path d="M335.808 16.4648H319.008V33.2648H335.808V16.4648Z" stroke="white" stroke-width="0.525" stroke-miterlimit="10"/>
<path d="M16.6066 33.2637H-0.193359V50.0637H16.6066V33.2637Z" stroke="white" stroke-width="0.525" stroke-miterlimit="10"/>
<path d="M33.4074 33.2637H16.6074V50.0637H33.4074V33.2637Z" stroke="white" stroke-width="0.525" stroke-miterlimit="10"/>
<path d="M50.2062 33.2637H33.4062V50.0637H50.2062V33.2637Z" stroke="white" stroke-width="0.525" stroke-miterlimit="10"/>
<path d="M67.007 33.2637H50.207V50.0637H67.007V33.2637Z" stroke="white" stroke-width="0.525" stroke-miterlimit="10"/>
<path d="M83.8078 33.2637H67.0078V50.0637H83.8078V33.2637Z" stroke="white" stroke-width="0.525" stroke-miterlimit="10"/>
<path d="M100.607 33.2637H83.8066V50.0637H100.607V33.2637Z" stroke="white" stroke-width="0.525" stroke-miterlimit="10"/>
<path d="M117.407 33.2637H100.607V50.0637H117.407V33.2637Z" stroke="white" stroke-width="0.525" stroke-miterlimit="10"/>
<path d="M134.206 33.2637H117.406V50.0637H134.206V33.2637Z" stroke="white" stroke-width="0.525" stroke-miterlimit="10"/>
<path d="M151.007 33.2637H134.207V50.0637H151.007V33.2637Z" stroke="white" stroke-width="0.525" stroke-miterlimit="10"/>
<path d="M167.808 33.2637H151.008V50.0637H167.808V33.2637Z" stroke="white" stroke-width="0.525" stroke-miterlimit="10"/>
<path d="M184.607 33.2637H167.807V50.0637H184.607V33.2637Z" stroke="white" stroke-width="0.525" stroke-miterlimit="10"/>
<path d="M201.407 33.2637H184.607V50.0637H201.407V33.2637Z" stroke="white" stroke-width="0.525" stroke-miterlimit="10"/>
<path d="M218.206 33.2637H201.406V50.0637H218.206V33.2637Z" stroke="white" stroke-width="0.525" stroke-miterlimit="10"/>
<path d="M235.007 33.2637H218.207V50.0637H235.007V33.2637Z" stroke="white" stroke-width="0.525" stroke-miterlimit="10"/>
<path d="M251.808 33.2637H235.008V50.0637H251.808V33.2637Z" stroke="white" stroke-width="0.525" stroke-miterlimit="10"/>
<path d="M268.607 33.2637H251.807V50.0637H268.607V33.2637Z" stroke="white" stroke-width="0.525" stroke-miterlimit="10"/>
<path d="M285.407 33.2637H268.607V50.0637H285.407V33.2637Z" stroke="white" stroke-width="0.525" stroke-miterlimit="10"/>
<path d="M302.206 33.2637H285.406V50.0637H302.206V33.2637Z" stroke="white" stroke-width="0.525" stroke-miterlimit="10"/>
<path d="M319.007 33.2637H302.207V50.0637H319.007V33.2637Z" stroke="white" stroke-width="0.525" stroke-miterlimit="10"/>
<path d="M335.808 33.2637H319.008V50.0637H335.808V33.2637Z" stroke="white" stroke-width="0.525" stroke-miterlimit="10"/>
<path d="M16.6066 50.0645H-0.193359V66.8645H16.6066V50.0645Z" stroke="white" stroke-width="0.525" stroke-miterlimit="10"/>
<path d="M33.4074 50.0645H16.6074V66.8645H33.4074V50.0645Z" stroke="white" stroke-width="0.525" stroke-miterlimit="10"/>
<path d="M50.2062 50.0645H33.4062V66.8645H50.2062V50.0645Z" stroke="white" stroke-width="0.525" stroke-miterlimit="10"/>
<path d="M67.007 50.0645H50.207V66.8645H67.007V50.0645Z" stroke="white" stroke-width="0.525" stroke-miterlimit="10"/>
<path d="M83.8078 50.0645H67.0078V66.8645H83.8078V50.0645Z" stroke="white" stroke-width="0.525" stroke-miterlimit="10"/>
<path d="M100.607 50.0645H83.8066V66.8645H100.607V50.0645Z" stroke="white" stroke-width="0.525" stroke-miterlimit="10"/>
<path d="M117.407 50.0645H100.607V66.8645H117.407V50.0645Z" stroke="white" stroke-width="0.525" stroke-miterlimit="10"/>
<path d="M134.206 50.0645H117.406V66.8645H134.206V50.0645Z" stroke="white" stroke-width="0.525" stroke-miterlimit="10"/>
<path d="M151.007 50.0645H134.207V66.8645H151.007V50.0645Z" stroke="white" stroke-width="0.525" stroke-miterlimit="10"/>
<path d="M167.808 50.0645H151.008V66.8645H167.808V50.0645Z" stroke="white" stroke-width="0.525" stroke-miterlimit="10"/>
<path d="M184.607 50.0645H167.807V66.8645H184.607V50.0645Z" stroke="white" stroke-width="0.525" stroke-miterlimit="10"/>
<path d="M201.407 50.0645H184.607V66.8645H201.407V50.0645Z" stroke="white" stroke-width="0.525" stroke-miterlimit="10"/>
<path d="M218.206 50.0645H201.406V66.8645H218.206V50.0645Z" stroke="white" stroke-width="0.525" stroke-miterlimit="10"/>
<path d="M235.007 50.0645H218.207V66.8645H235.007V50.0645Z" stroke="white" stroke-width="0.525" stroke-miterlimit="10"/>
<path d="M251.808 50.0645H235.008V66.8645H251.808V50.0645Z" stroke="white" stroke-width="0.525" stroke-miterlimit="10"/>
<path d="M268.607 50.0645H251.807V66.8645H268.607V50.0645Z" stroke="white" stroke-width="0.525" stroke-miterlimit="10"/>
<path d="M285.407 50.0645H268.607V66.8645H285.407V50.0645Z" stroke="white" stroke-width="0.525" stroke-miterlimit="10"/>
<path d="M302.206 50.0645H285.406V66.8645H302.206V50.0645Z" stroke="white" stroke-width="0.525" stroke-miterlimit="10"/>
<path d="M319.007 50.0645H302.207V66.8645H319.007V50.0645Z" stroke="white" stroke-width="0.525" stroke-miterlimit="10"/>
<path d="M335.808 50.0645H319.008V66.8645H335.808V50.0645Z" stroke="white" stroke-width="0.525" stroke-miterlimit="10"/>
<path d="M16.6066 66.8652H-0.193359V83.6652H16.6066V66.8652Z" stroke="white" stroke-width="0.525" stroke-miterlimit="10"/>
<path d="M33.4074 66.8652H16.6074V83.6652H33.4074V66.8652Z" stroke="white" stroke-width="0.525" stroke-miterlimit="10"/>
<path d="M50.2062 66.8652H33.4062V83.6652H50.2062V66.8652Z" stroke="white" stroke-width="0.525" stroke-miterlimit="10"/>
<path d="M67.007 66.8652H50.207V83.6652H67.007V66.8652Z" stroke="white" stroke-width="0.525" stroke-miterlimit="10"/>
<path d="M83.8078 66.8652H67.0078V83.6652H83.8078V66.8652Z" stroke="white" stroke-width="0.525" stroke-miterlimit="10"/>
<path d="M100.607 66.8652H83.8066V83.6652H100.607V66.8652Z" stroke="white" stroke-width="0.525" stroke-miterlimit="10"/>
<path d="M117.407 66.8652H100.607V83.6652H117.407V66.8652Z" stroke="white" stroke-width="0.525" stroke-miterlimit="10"/>
<path d="M134.206 66.8652H117.406V83.6652H134.206V66.8652Z" stroke="white" stroke-width="0.525" stroke-miterlimit="10"/>
<path d="M151.007 66.8652H134.207V83.6652H151.007V66.8652Z" stroke="white" stroke-width="0.525" stroke-miterlimit="10"/>
<path d="M167.808 66.8652H151.008V83.6652H167.808V66.8652Z" stroke="white" stroke-width="0.525" stroke-miterlimit="10"/>
<path d="M184.607 66.8652H167.807V83.6652H184.607V66.8652Z" stroke="white" stroke-width="0.525" stroke-miterlimit="10"/>
<path d="M201.407 66.8652H184.607V83.6652H201.407V66.8652Z" stroke="white" stroke-width="0.525" stroke-miterlimit="10"/>
<path d="M218.206 66.8652H201.406V83.6652H218.206V66.8652Z" stroke="white" stroke-width="0.525" stroke-miterlimit="10"/>
<path d="M235.007 66.8652H218.207V83.6652H235.007V66.8652Z" stroke="white" stroke-width="0.525" stroke-miterlimit="10"/>
<path d="M251.808 66.8652H235.008V83.6652H251.808V66.8652Z" stroke="white" stroke-width="0.525" stroke-miterlimit="10"/>
<path d="M268.607 66.8652H251.807V83.6652H268.607V66.8652Z" stroke="white" stroke-width="0.525" stroke-miterlimit="10"/>
<path d="M285.407 66.8652H268.607V83.6652H285.407V66.8652Z" stroke="white" stroke-width="0.525" stroke-miterlimit="10"/>
<path d="M302.206 66.8652H285.406V83.6652H302.206V66.8652Z" stroke="white" stroke-width="0.525" stroke-miterlimit="10"/>
<path d="M319.007 66.8652H302.207V83.6652H319.007V66.8652Z" stroke="white" stroke-width="0.525" stroke-miterlimit="10"/>
<path d="M335.808 66.8652H319.008V83.6652H335.808V66.8652Z" stroke="white" stroke-width="0.525" stroke-miterlimit="10"/>
<path d="M16.6066 83.6641H-0.193359V100.464H16.6066V83.6641Z" stroke="white" stroke-width="0.525" stroke-miterlimit="10"/>
<path d="M33.4074 83.6641H16.6074V100.464H33.4074V83.6641Z" stroke="white" stroke-width="0.525" stroke-miterlimit="10"/>
<path d="M50.2062 83.6641H33.4062V100.464H50.2062V83.6641Z" stroke="white" stroke-width="0.525" stroke-miterlimit="10"/>
<path d="M67.007 83.6641H50.207V100.464H67.007V83.6641Z" stroke="white" stroke-width="0.525" stroke-miterlimit="10"/>
<path d="M83.8078 83.6641H67.0078V100.464H83.8078V83.6641Z" stroke="white" stroke-width="0.525" stroke-miterlimit="10"/>
<path d="M100.607 83.6641H83.8066V100.464H100.607V83.6641Z" stroke="white" stroke-width="0.525" stroke-miterlimit="10"/>
<path d="M117.407 83.6641H100.607V100.464H117.407V83.6641Z" stroke="white" stroke-width="0.525" stroke-miterlimit="10"/>
<path d="M134.206 83.6641H117.406V100.464H134.206V83.6641Z" stroke="white" stroke-width="0.525" stroke-miterlimit="10"/>
<path d="M151.007 83.6641H134.207V100.464H151.007V83.6641Z" stroke="white" stroke-width="0.525" stroke-miterlimit="10"/>
<path d="M167.808 83.6641H151.008V100.464H167.808V83.6641Z" stroke="white" stroke-width="0.525" stroke-miterlimit="10"/>
<path d="M184.607 83.6641H167.807V100.464H184.607V83.6641Z" stroke="white" stroke-width="0.525" stroke-miterlimit="10"/>
<path d="M201.407 83.6641H184.607V100.464H201.407V83.6641Z" stroke="white" stroke-width="0.525" stroke-miterlimit="10"/>
<path d="M218.206 83.6641H201.406V100.464H218.206V83.6641Z" stroke="white" stroke-width="0.525" stroke-miterlimit="10"/>
<path d="M235.007 83.6641H218.207V100.464H235.007V83.6641Z" stroke="white" stroke-width="0.525" stroke-miterlimit="10"/>
<path d="M251.808 83.6641H235.008V100.464H251.808V83.6641Z" stroke="white" stroke-width="0.525" stroke-miterlimit="10"/>
<path d="M268.607 83.6641H251.807V100.464H268.607V83.6641Z" stroke="white" stroke-width="0.525" stroke-miterlimit="10"/>
<path d="M285.407 83.6641H268.607V100.464H285.407V83.6641Z" stroke="white" stroke-width="0.525" stroke-miterlimit="10"/>
<path d="M302.206 83.6641H285.406V100.464H302.206V83.6641Z" stroke="white" stroke-width="0.525" stroke-miterlimit="10"/>
<path d="M319.007 83.6641H302.207V100.464H319.007V83.6641Z" stroke="white" stroke-width="0.525" stroke-miterlimit="10"/>
<path d="M335.808 83.6641H319.008V100.464H335.808V83.6641Z" stroke="white" stroke-width="0.525" stroke-miterlimit="10"/>
<path d="M16.6066 100.465H-0.193359V117.265H16.6066V100.465Z" stroke="white" stroke-width="0.525" stroke-miterlimit="10"/>
<path d="M33.4074 100.465H16.6074V117.265H33.4074V100.465Z" stroke="white" stroke-width="0.525" stroke-miterlimit="10"/>
<path d="M50.2062 100.465H33.4062V117.265H50.2062V100.465Z" stroke="white" stroke-width="0.525" stroke-miterlimit="10"/>
<path d="M67.007 100.465H50.207V117.265H67.007V100.465Z" stroke="white" stroke-width="0.525" stroke-miterlimit="10"/>
<path d="M83.8078 100.465H67.0078V117.265H83.8078V100.465Z" stroke="white" stroke-width="0.525" stroke-miterlimit="10"/>
<path d="M100.607 100.465H83.8066V117.265H100.607V100.465Z" stroke="white" stroke-width="0.525" stroke-miterlimit="10"/>
<path d="M117.407 100.465H100.607V117.265H117.407V100.465Z" stroke="white" stroke-width="0.525" stroke-miterlimit="10"/>
<path d="M134.206 100.465H117.406V117.265H134.206V100.465Z" stroke="white" stroke-width="0.525" stroke-miterlimit="10"/>
<path d="M151.007 100.465H134.207V117.265H151.007V100.465Z" stroke="white" stroke-width="0.525" stroke-miterlimit="10"/>
<path d="M167.808 100.465H151.008V117.265H167.808V100.465Z" stroke="white" stroke-width="0.525" stroke-miterlimit="10"/>
<path d="M184.607 100.465H167.807V117.265H184.607V100.465Z" stroke="white" stroke-width="0.525" stroke-miterlimit="10"/>
<path d="M201.407 100.465H184.607V117.265H201.407V100.465Z" stroke="white" stroke-width="0.525" stroke-miterlimit="10"/>
<path d="M218.206 100.465H201.406V117.265H218.206V100.465Z" stroke="white" stroke-width="0.525" stroke-miterlimit="10"/>
<path d="M235.007 100.465H218.207V117.265H235.007V100.465Z" stroke="white" stroke-width="0.525" stroke-miterlimit="10"/>
<path d="M251.808 100.465H235.008V117.265H251.808V100.465Z" stroke="white" stroke-width="0.525" stroke-miterlimit="10"/>
<path d="M268.607 100.465H251.807V117.265H268.607V100.465Z" stroke="white" stroke-width="0.525" stroke-miterlimit="10"/>
<path d="M285.407 100.465H268.607V117.265H285.407V100.465Z" stroke="white" stroke-width="0.525" stroke-miterlimit="10"/>
<path d="M302.206 100.465H285.406V117.265H302.206V100.465Z" stroke="white" stroke-width="0.525" stroke-miterlimit="10"/>
<path d="M319.007 100.465H302.207V117.265H319.007V100.465Z" stroke="white" stroke-width="0.525" stroke-miterlimit="10"/>
<path d="M335.808 100.465H319.008V117.265H335.808V100.465Z" stroke="white" stroke-width="0.525" stroke-miterlimit="10"/>
<path d="M16.6066 117.264H-0.193359V134.064H16.6066V117.264Z" stroke="white" stroke-width="0.525" stroke-miterlimit="10"/>
<path d="M33.4074 117.264H16.6074V134.064H33.4074V117.264Z" stroke="white" stroke-width="0.525" stroke-miterlimit="10"/>
<path d="M50.2062 117.264H33.4062V134.064H50.2062V117.264Z" stroke="white" stroke-width="0.525" stroke-miterlimit="10"/>
<path d="M67.007 117.264H50.207V134.064H67.007V117.264Z" stroke="white" stroke-width="0.525" stroke-miterlimit="10"/>
<path d="M83.8078 117.264H67.0078V134.064H83.8078V117.264Z" stroke="white" stroke-width="0.525" stroke-miterlimit="10"/>
<path d="M100.607 117.264H83.8066V134.064H100.607V117.264Z" stroke="white" stroke-width="0.525" stroke-miterlimit="10"/>
<path d="M117.407 117.264H100.607V134.064H117.407V117.264Z" stroke="white" stroke-width="0.525" stroke-miterlimit="10"/>
<path d="M134.206 117.264H117.406V134.064H134.206V117.264Z" stroke="white" stroke-width="0.525" stroke-miterlimit="10"/>
<path d="M151.007 117.264H134.207V134.064H151.007V117.264Z" stroke="white" stroke-width="0.525" stroke-miterlimit="10"/>
<path d="M167.808 117.264H151.008V134.064H167.808V117.264Z" stroke="white" stroke-width="0.525" stroke-miterlimit="10"/>
<path d="M184.607 117.264H167.807V134.064H184.607V117.264Z" stroke="white" stroke-width="0.525" stroke-miterlimit="10"/>
<path d="M201.407 117.264H184.607V134.064H201.407V117.264Z" stroke="white" stroke-width="0.525" stroke-miterlimit="10"/>
<path d="M218.206 117.264H201.406V134.064H218.206V117.264Z" stroke="white" stroke-width="0.525" stroke-miterlimit="10"/>
<path d="M235.007 117.264H218.207V134.064H235.007V117.264Z" stroke="white" stroke-width="0.525" stroke-miterlimit="10"/>
<path d="M251.808 117.264H235.008V134.064H251.808V117.264Z" stroke="white" stroke-width="0.525" stroke-miterlimit="10"/>
<path d="M268.607 117.264H251.807V134.064H268.607V117.264Z" stroke="white" stroke-width="0.525" stroke-miterlimit="10"/>
<path d="M285.407 117.264H268.607V134.064H285.407V117.264Z" stroke="white" stroke-width="0.525" stroke-miterlimit="10"/>
<path d="M302.206 117.264H285.406V134.064H302.206V117.264Z" stroke="white" stroke-width="0.525" stroke-miterlimit="10"/>
<path d="M319.007 117.264H302.207V134.064H319.007V117.264Z" stroke="white" stroke-width="0.525" stroke-miterlimit="10"/>
<path d="M335.808 117.264H319.008V134.064H335.808V117.264Z" stroke="white" stroke-width="0.525" stroke-miterlimit="10"/>
<path d="M16.6066 134.064H-0.193359V150.864H16.6066V134.064Z" stroke="white" stroke-width="0.525" stroke-miterlimit="10"/>
<path d="M33.4074 134.064H16.6074V150.864H33.4074V134.064Z" stroke="white" stroke-width="0.525" stroke-miterlimit="10"/>
<path d="M50.2062 134.064H33.4062V150.864H50.2062V134.064Z" stroke="white" stroke-width="0.525" stroke-miterlimit="10"/>
<path d="M67.007 134.064H50.207V150.864H67.007V134.064Z" stroke="white" stroke-width="0.525" stroke-miterlimit="10"/>
<path d="M83.8078 134.064H67.0078V150.864H83.8078V134.064Z" stroke="white" stroke-width="0.525" stroke-miterlimit="10"/>
<path d="M100.607 134.064H83.8066V150.864H100.607V134.064Z" stroke="white" stroke-width="0.525" stroke-miterlimit="10"/>
<path d="M117.407 134.064H100.607V150.864H117.407V134.064Z" stroke="white" stroke-width="0.525" stroke-miterlimit="10"/>
<path d="M134.206 134.064H117.406V150.864H134.206V134.064Z" stroke="white" stroke-width="0.525" stroke-miterlimit="10"/>
<path d="M151.007 134.064H134.207V150.864H151.007V134.064Z" stroke="white" stroke-width="0.525" stroke-miterlimit="10"/>
<path d="M167.808 134.064H151.008V150.864H167.808V134.064Z" stroke="white" stroke-width="0.525" stroke-miterlimit="10"/>
<path d="M184.607 134.064H167.807V150.864H184.607V134.064Z" stroke="white" stroke-width="0.525" stroke-miterlimit="10"/>
<path d="M201.407 134.064H184.607V150.864H201.407V134.064Z" stroke="white" stroke-width="0.525" stroke-miterlimit="10"/>
<path d="M218.206 134.064H201.406V150.864H218.206V134.064Z" stroke="white" stroke-width="0.525" stroke-miterlimit="10"/>
<path d="M235.007 134.064H218.207V150.864H235.007V134.064Z" stroke="white" stroke-width="0.525" stroke-miterlimit="10"/>
<path d="M251.808 134.064H235.008V150.864H251.808V134.064Z" stroke="white" stroke-width="0.525" stroke-miterlimit="10"/>
<path d="M268.607 134.064H251.807V150.864H268.607V134.064Z" stroke="white" stroke-width="0.525" stroke-miterlimit="10"/>
<path d="M285.407 134.064H268.607V150.864H285.407V134.064Z" stroke="white" stroke-width="0.525" stroke-miterlimit="10"/>
<path d="M302.206 134.064H285.406V150.864H302.206V134.064Z" stroke="white" stroke-width="0.525" stroke-miterlimit="10"/>
<path d="M16.6066 150.865H-0.193359V167.665H16.6066V150.865Z" stroke="white" stroke-width="0.525" stroke-miterlimit="10"/>
<path d="M33.4074 150.865H16.6074V167.665H33.4074V150.865Z" stroke="white" stroke-width="0.525" stroke-miterlimit="10"/>
<path d="M50.2062 150.865H33.4062V167.665H50.2062V150.865Z" stroke="white" stroke-width="0.525" stroke-miterlimit="10"/>
<path d="M67.007 150.865H50.207V167.665H67.007V150.865Z" stroke="white" stroke-width="0.525" stroke-miterlimit="10"/>
<path d="M83.8078 150.865H67.0078V167.665H83.8078V150.865Z" stroke="white" stroke-width="0.525" stroke-miterlimit="10"/>
<path d="M100.607 150.865H83.8066V167.665H100.607V150.865Z" stroke="white" stroke-width="0.525" stroke-miterlimit="10"/>
<path d="M117.407 150.865H100.607V167.665H117.407V150.865Z" stroke="white" stroke-width="0.525" stroke-miterlimit="10"/>
<path d="M134.206 150.865H117.406V167.665H134.206V150.865Z" stroke="white" stroke-width="0.525" stroke-miterlimit="10"/>
<path d="M151.007 150.865H134.207V167.665H151.007V150.865Z" stroke="white" stroke-width="0.525" stroke-miterlimit="10"/>
<path d="M167.808 150.865H151.008V167.665H167.808V150.865Z" stroke="white" stroke-width="0.525" stroke-miterlimit="10"/>
<path d="M184.607 150.865H167.807V167.665H184.607V150.865Z" stroke="white" stroke-width="0.525" stroke-miterlimit="10"/>
<path d="M201.407 150.865H184.607V167.665H201.407V150.865Z" stroke="white" stroke-width="0.525" stroke-miterlimit="10"/>
<path d="M218.206 150.865H201.406V167.665H218.206V150.865Z" stroke="white" stroke-width="0.525" stroke-miterlimit="10"/>
<path d="M235.007 150.865H218.207V167.665H235.007V150.865Z" stroke="white" stroke-width="0.525" stroke-miterlimit="10"/>
<path d="M251.808 150.865H235.008V167.665H251.808V150.865Z" stroke="white" stroke-width="0.525" stroke-miterlimit="10"/>
<path d="M268.607 150.865H251.807V167.665H268.607V150.865Z" stroke="white" stroke-width="0.525" stroke-miterlimit="10"/>
<path d="M285.407 150.865H268.607V167.665H285.407V150.865Z" stroke="white" stroke-width="0.525" stroke-miterlimit="10"/>
<path d="M302.206 150.865H285.406V167.665H302.206V150.865Z" stroke="white" stroke-width="0.525" stroke-miterlimit="10"/>
<path d="M319.007 150.865H302.207V167.665H319.007V150.865Z" stroke="white" stroke-width="0.525" stroke-miterlimit="10"/>
<path d="M335.808 150.865H319.008V167.665H335.808V150.865Z" stroke="white" stroke-width="0.525" stroke-miterlimit="10"/>
<path d="M16.6066 167.664H-0.193359V184.464H16.6066V167.664Z" stroke="white" stroke-width="0.525" stroke-miterlimit="10"/>
<path d="M33.4074 167.664H16.6074V184.464H33.4074V167.664Z" stroke="white" stroke-width="0.525" stroke-miterlimit="10"/>
<path d="M50.2062 167.664H33.4062V184.464H50.2062V167.664Z" stroke="white" stroke-width="0.525" stroke-miterlimit="10"/>
<path d="M67.007 167.664H50.207V184.464H67.007V167.664Z" stroke="white" stroke-width="0.525" stroke-miterlimit="10"/>
<path d="M83.8078 167.664H67.0078V184.464H83.8078V167.664Z" stroke="white" stroke-width="0.525" stroke-miterlimit="10"/>
<path d="M100.607 167.664H83.8066V184.464H100.607V167.664Z" stroke="white" stroke-width="0.525" stroke-miterlimit="10"/>
<path d="M117.407 167.664H100.607V184.464H117.407V167.664Z" stroke="white" stroke-width="0.525" stroke-miterlimit="10"/>
<path d="M134.206 167.664H117.406V184.464H134.206V167.664Z" stroke="white" stroke-width="0.525" stroke-miterlimit="10"/>
<path d="M151.007 167.664H134.207V184.464H151.007V167.664Z" stroke="white" stroke-width="0.525" stroke-miterlimit="10"/>
<path d="M167.808 167.664H151.008V184.464H167.808V167.664Z" stroke="white" stroke-width="0.525" stroke-miterlimit="10"/>
<path d="M184.607 167.664H167.807V184.464H184.607V167.664Z" stroke="white" stroke-width="0.525" stroke-miterlimit="10"/>
<path d="M201.407 167.664H184.607V184.464H201.407V167.664Z" stroke="white" stroke-width="0.525" stroke-miterlimit="10"/>
<path d="M218.206 167.664H201.406V184.464H218.206V167.664Z" stroke="white" stroke-width="0.525" stroke-miterlimit="10"/>
<path d="M235.007 167.664H218.207V184.464H235.007V167.664Z" stroke="white" stroke-width="0.525" stroke-miterlimit="10"/>
<path d="M251.808 167.664H235.008V184.464H251.808V167.664Z" stroke="white" stroke-width="0.525" stroke-miterlimit="10"/>
<path d="M268.607 167.664H251.807V184.464H268.607V167.664Z" stroke="white" stroke-width="0.525" stroke-miterlimit="10"/>
<path d="M285.407 167.664H268.607V184.464H285.407V167.664Z" stroke="white" stroke-width="0.525" stroke-miterlimit="10"/>
<path d="M302.206 167.664H285.406V184.464H302.206V167.664Z" stroke="white" stroke-width="0.525" stroke-miterlimit="10"/>
<path d="M319.007 167.664H302.207V184.464H319.007V167.664Z" stroke="white" stroke-width="0.525" stroke-miterlimit="10"/>
<path d="M335.808 167.664H319.008V184.464H335.808V167.664Z" stroke="white" stroke-width="0.525" stroke-miterlimit="10"/>
<path d="M16.6066 184.465H-0.193359V201.265H16.6066V184.465Z" stroke="white" stroke-width="0.525" stroke-miterlimit="10"/>
<path d="M33.4074 184.465H16.6074V201.265H33.4074V184.465Z" stroke="white" stroke-width="0.525" stroke-miterlimit="10"/>
<path d="M50.2062 184.465H33.4062V201.265H50.2062V184.465Z" stroke="white" stroke-width="0.525" stroke-miterlimit="10"/>
<path d="M67.007 184.465H50.207V201.265H67.007V184.465Z" stroke="white" stroke-width="0.525" stroke-miterlimit="10"/>
<path d="M83.8078 184.465H67.0078V201.265H83.8078V184.465Z" stroke="white" stroke-width="0.525" stroke-miterlimit="10"/>
<path d="M100.607 184.465H83.8066V201.265H100.607V184.465Z" stroke="white" stroke-width="0.525" stroke-miterlimit="10"/>
<path d="M117.407 184.465H100.607V201.265H117.407V184.465Z" stroke="white" stroke-width="0.525" stroke-miterlimit="10"/>
<path d="M134.206 184.465H117.406V201.265H134.206V184.465Z" stroke="white" stroke-width="0.525" stroke-miterlimit="10"/>
<path d="M151.007 184.465H134.207V201.265H151.007V184.465Z" stroke="white" stroke-width="0.525" stroke-miterlimit="10"/>
<path d="M167.808 184.465H151.008V201.265H167.808V184.465Z" stroke="white" stroke-width="0.525" stroke-miterlimit="10"/>
<path d="M184.607 184.465H167.807V201.265H184.607V184.465Z" stroke="white" stroke-width="0.525" stroke-miterlimit="10"/>
<path d="M201.407 184.465H184.607V201.265H201.407V184.465Z" stroke="white" stroke-width="0.525" stroke-miterlimit="10"/>
<path d="M218.206 184.465H201.406V201.265H218.206V184.465Z" stroke="white" stroke-width="0.525" stroke-miterlimit="10"/>
<path d="M235.007 184.465H218.207V201.265H235.007V184.465Z" stroke="white" stroke-width="0.525" stroke-miterlimit="10"/>
<path d="M251.808 184.465H235.008V201.265H251.808V184.465Z" stroke="white" stroke-width="0.525" stroke-miterlimit="10"/>
<path d="M268.607 184.465H251.807V201.265H268.607V184.465Z" stroke="white" stroke-width="0.525" stroke-miterlimit="10"/>
<path d="M285.407 184.465H268.607V201.265H285.407V184.465Z" stroke="white" stroke-width="0.525" stroke-miterlimit="10"/>
<path d="M302.206 184.465H285.406V201.265H302.206V184.465Z" stroke="white" stroke-width="0.525" stroke-miterlimit="10"/>
<path d="M319.007 184.465H302.207V201.265H319.007V184.465Z" stroke="white" stroke-width="0.525" stroke-miterlimit="10"/>
<path d="M335.808 184.465H319.008V201.265H335.808V184.465Z" stroke="white" stroke-width="0.525" stroke-miterlimit="10"/>
<path d="M16.6066 201.264H-0.193359V218.064H16.6066V201.264Z" stroke="white" stroke-width="0.525" stroke-miterlimit="10"/>
<path d="M33.4074 201.264H16.6074V218.064H33.4074V201.264Z" stroke="white" stroke-width="0.525" stroke-miterlimit="10"/>
<path d="M50.2062 201.264H33.4062V218.064H50.2062V201.264Z" stroke="white" stroke-width="0.525" stroke-miterlimit="10"/>
<path d="M67.007 201.264H50.207V218.064H67.007V201.264Z" stroke="white" stroke-width="0.525" stroke-miterlimit="10"/>
<path d="M83.8078 201.264H67.0078V218.064H83.8078V201.264Z" stroke="white" stroke-width="0.525" stroke-miterlimit="10"/>
<path d="M100.607 201.264H83.8066V218.064H100.607V201.264Z" stroke="white" stroke-width="0.525" stroke-miterlimit="10"/>
<path d="M117.407 201.264H100.607V218.064H117.407V201.264Z" stroke="white" stroke-width="0.525" stroke-miterlimit="10"/>
<path d="M134.206 201.264H117.406V218.064H134.206V201.264Z" stroke="white" stroke-width="0.525" stroke-miterlimit="10"/>
<path d="M151.007 201.264H134.207V218.064H151.007V201.264Z" stroke="white" stroke-width="0.525" stroke-miterlimit="10"/>
<path d="M167.808 201.264H151.008V218.064H167.808V201.264Z" stroke="white" stroke-width="0.525" stroke-miterlimit="10"/>
<path d="M184.607 201.264H167.807V218.064H184.607V201.264Z" stroke="white" stroke-width="0.525" stroke-miterlimit="10"/>
<path d="M201.407 201.264H184.607V218.064H201.407V201.264Z" stroke="white" stroke-width="0.525" stroke-miterlimit="10"/>
<path d="M218.206 201.264H201.406V218.064H218.206V201.264Z" stroke="white" stroke-width="0.525" stroke-miterlimit="10"/>
<path d="M235.007 201.264H218.207V218.064H235.007V201.264Z" stroke="white" stroke-width="0.525" stroke-miterlimit="10"/>
<path d="M251.808 201.264H235.008V218.064H251.808V201.264Z" stroke="white" stroke-width="0.525" stroke-miterlimit="10"/>
<path d="M268.607 201.264H251.807V218.064H268.607V201.264Z" stroke="white" stroke-width="0.525" stroke-miterlimit="10"/>
<path d="M285.407 201.264H268.607V218.064H285.407V201.264Z" stroke="white" stroke-width="0.525" stroke-miterlimit="10"/>
<path d="M302.206 201.264H285.406V218.064H302.206V201.264Z" stroke="white" stroke-width="0.525" stroke-miterlimit="10"/>
<path d="M319.007 201.264H302.207V218.064H319.007V201.264Z" stroke="white" stroke-width="0.525" stroke-miterlimit="10"/>
<path d="M335.808 201.264H319.008V218.064H335.808V201.264Z" stroke="white" stroke-width="0.525" stroke-miterlimit="10"/>
<path d="M16.6066 218.064H-0.193359V234.864H16.6066V218.064Z" stroke="white" stroke-width="0.525" stroke-miterlimit="10"/>
<path d="M33.4074 218.064H16.6074V234.864H33.4074V218.064Z" stroke="white" stroke-width="0.525" stroke-miterlimit="10"/>
<path d="M50.2062 218.064H33.4062V234.864H50.2062V218.064Z" stroke="white" stroke-width="0.525" stroke-miterlimit="10"/>
<path d="M67.007 218.064H50.207V234.864H67.007V218.064Z" stroke="white" stroke-width="0.525" stroke-miterlimit="10"/>
<path d="M83.8078 218.064H67.0078V234.864H83.8078V218.064Z" stroke="white" stroke-width="0.525" stroke-miterlimit="10"/>
<path d="M100.607 218.064H83.8066V234.864H100.607V218.064Z" stroke="white" stroke-width="0.525" stroke-miterlimit="10"/>
<path d="M117.407 218.064H100.607V234.864H117.407V218.064Z" stroke="white" stroke-width="0.525" stroke-miterlimit="10"/>
<path d="M134.206 218.064H117.406V234.864H134.206V218.064Z" stroke="white" stroke-width="0.525" stroke-miterlimit="10"/>
<path d="M151.007 218.064H134.207V234.864H151.007V218.064Z" stroke="white" stroke-width="0.525" stroke-miterlimit="10"/>
<path d="M167.808 218.064H151.008V234.864H167.808V218.064Z" stroke="white" stroke-width="0.525" stroke-miterlimit="10"/>
<path d="M184.607 218.064H167.807V234.864H184.607V218.064Z" stroke="white" stroke-width="0.525" stroke-miterlimit="10"/>
<path d="M201.407 218.064H184.607V234.864H201.407V218.064Z" stroke="white" stroke-width="0.525" stroke-miterlimit="10"/>
<path d="M218.206 218.064H201.406V234.864H218.206V218.064Z" stroke="white" stroke-width="0.525" stroke-miterlimit="10"/>
<path d="M235.007 218.064H218.207V234.864H235.007V218.064Z" stroke="white" stroke-width="0.525" stroke-miterlimit="10"/>
<path d="M251.808 218.064H235.008V234.864H251.808V218.064Z" stroke="white" stroke-width="0.525" stroke-miterlimit="10"/>
<path d="M268.607 218.064H251.807V234.864H268.607V218.064Z" stroke="white" stroke-width="0.525" stroke-miterlimit="10"/>
<path d="M285.407 218.064H268.607V234.864H285.407V218.064Z" stroke="white" stroke-width="0.525" stroke-miterlimit="10"/>
<path d="M302.206 218.064H285.406V234.864H302.206V218.064Z" stroke="white" stroke-width="0.525" stroke-miterlimit="10"/>
<path d="M319.007 218.064H302.207V234.864H319.007V218.064Z" stroke="white" stroke-width="0.525" stroke-miterlimit="10"/>
<path d="M335.808 218.064H319.008V234.864H335.808V218.064Z" stroke="white" stroke-width="0.525" stroke-miterlimit="10"/>
<path d="M16.6066 234.865H-0.193359V251.665H16.6066V234.865Z" stroke="white" stroke-width="0.525" stroke-miterlimit="10"/>
<path d="M33.4074 234.865H16.6074V251.665H33.4074V234.865Z" stroke="white" stroke-width="0.525" stroke-miterlimit="10"/>
<path d="M50.2062 234.865H33.4062V251.665H50.2062V234.865Z" stroke="white" stroke-width="0.525" stroke-miterlimit="10"/>
<path d="M67.007 234.865H50.207V251.665H67.007V234.865Z" stroke="white" stroke-width="0.525" stroke-miterlimit="10"/>
<path d="M83.8078 234.865H67.0078V251.665H83.8078V234.865Z" stroke="white" stroke-width="0.525" stroke-miterlimit="10"/>
<path d="M100.607 234.865H83.8066V251.665H100.607V234.865Z" stroke="white" stroke-width="0.525" stroke-miterlimit="10"/>
<path d="M117.407 234.865H100.607V251.665H117.407V234.865Z" stroke="white" stroke-width="0.525" stroke-miterlimit="10"/>
<path d="M134.206 234.865H117.406V251.665H134.206V234.865Z" stroke="white" stroke-width="0.525" stroke-miterlimit="10"/>
<path d="M151.007 234.865H134.207V251.665H151.007V234.865Z" stroke="white" stroke-width="0.525" stroke-miterlimit="10"/>
<path d="M167.808 234.865H151.008V251.665H167.808V234.865Z" stroke="white" stroke-width="0.525" stroke-miterlimit="10"/>
<path d="M184.607 234.865H167.807V251.665H184.607V234.865Z" stroke="white" stroke-width="0.525" stroke-miterlimit="10"/>
<path d="M201.407 234.865H184.607V251.665H201.407V234.865Z" stroke="white" stroke-width="0.525" stroke-miterlimit="10"/>
<path d="M218.206 234.865H201.406V251.665H218.206V234.865Z" stroke="white" stroke-width="0.525" stroke-miterlimit="10"/>
<path d="M235.007 234.865H218.207V251.665H235.007V234.865Z" stroke="white" stroke-width="0.525" stroke-miterlimit="10"/>
<path d="M251.808 234.865H235.008V251.665H251.808V234.865Z" stroke="white" stroke-width="0.525" stroke-miterlimit="10"/>
<path d="M268.607 234.865H251.807V251.665H268.607V234.865Z" stroke="white" stroke-width="0.525" stroke-miterlimit="10"/>
<path d="M285.407 234.865H268.607V251.665H285.407V234.865Z" stroke="white" stroke-width="0.525" stroke-miterlimit="10"/>
<path d="M302.206 234.865H285.406V251.665H302.206V234.865Z" stroke="white" stroke-width="0.525" stroke-miterlimit="10"/>
<path d="M319.007 234.865H302.207V251.665H319.007V234.865Z" stroke="white" stroke-width="0.525" stroke-miterlimit="10"/>
<path d="M16.6066 251.664H-0.193359V268.464H16.6066V251.664Z" stroke="white" stroke-width="0.525" stroke-miterlimit="10"/>
<path d="M33.4074 251.664H16.6074V268.464H33.4074V251.664Z" stroke="white" stroke-width="0.525" stroke-miterlimit="10"/>
<path d="M50.2062 251.664H33.4062V268.464H50.2062V251.664Z" stroke="white" stroke-width="0.525" stroke-miterlimit="10"/>
<path d="M67.007 251.664H50.207V268.464H67.007V251.664Z" stroke="white" stroke-width="0.525" stroke-miterlimit="10"/>
<path d="M83.8078 251.664H67.0078V268.464H83.8078V251.664Z" stroke="white" stroke-width="0.525" stroke-miterlimit="10"/>
<path d="M100.607 251.664H83.8066V268.464H100.607V251.664Z" stroke="white" stroke-width="0.525" stroke-miterlimit="10"/>
<path d="M117.407 251.664H100.607V268.464H117.407V251.664Z" stroke="white" stroke-width="0.525" stroke-miterlimit="10"/>
<path d="M134.206 251.664H117.406V268.464H134.206V251.664Z" stroke="white" stroke-width="0.525" stroke-miterlimit="10"/>
<path d="M151.007 251.664H134.207V268.464H151.007V251.664Z" stroke="white" stroke-width="0.525" stroke-miterlimit="10"/>
<path d="M167.808 251.664H151.008V268.464H167.808V251.664Z" stroke="white" stroke-width="0.525" stroke-miterlimit="10"/>
<path d="M184.607 251.664H167.807V268.464H184.607V251.664Z" stroke="white" stroke-width="0.525" stroke-miterlimit="10"/>
<path d="M201.407 251.664H184.607V268.464H201.407V251.664Z" stroke="white" stroke-width="0.525" stroke-miterlimit="10"/>
<path d="M218.206 251.664H201.406V268.464H218.206V251.664Z" stroke="white" stroke-width="0.525" stroke-miterlimit="10"/>
<path d="M235.007 251.664H218.207V268.464H235.007V251.664Z" stroke="white" stroke-width="0.525" stroke-miterlimit="10"/>
<path d="M251.808 251.664H235.008V268.464H251.808V251.664Z" stroke="white" stroke-width="0.525" stroke-miterlimit="10"/>
<path d="M268.607 251.664H251.807V268.464H268.607V251.664Z" stroke="white" stroke-width="0.525" stroke-miterlimit="10"/>
<path d="M285.407 251.664H268.607V268.464H285.407V251.664Z" stroke="white" stroke-width="0.525" stroke-miterlimit="10"/>
<path d="M302.206 251.664H285.406V268.464H302.206V251.664Z" stroke="white" stroke-width="0.525" stroke-miterlimit="10"/>
<path d="M319.007 251.664H302.207V268.464H319.007V251.664Z" stroke="white" stroke-width="0.525" stroke-miterlimit="10"/>
<path d="M16.6066 268.465H-0.193359V285.265H16.6066V268.465Z" stroke="white" stroke-width="0.525" stroke-miterlimit="10"/>
<path d="M33.4074 268.465H16.6074V285.265H33.4074V268.465Z" stroke="white" stroke-width="0.525" stroke-miterlimit="10"/>
<path d="M50.2062 268.465H33.4062V285.265H50.2062V268.465Z" stroke="white" stroke-width="0.525" stroke-miterlimit="10"/>
<path d="M67.007 268.465H50.207V285.265H67.007V268.465Z" stroke="white" stroke-width="0.525" stroke-miterlimit="10"/>
<path d="M83.8078 268.465H67.0078V285.265H83.8078V268.465Z" stroke="white" stroke-width="0.525" stroke-miterlimit="10"/>
<path d="M100.607 268.465H83.8066V285.265H100.607V268.465Z" stroke="white" stroke-width="0.525" stroke-miterlimit="10"/>
<path d="M117.407 268.465H100.607V285.265H117.407V268.465Z" stroke="white" stroke-width="0.525" stroke-miterlimit="10"/>
<path d="M134.206 268.465H117.406V285.265H134.206V268.465Z" stroke="white" stroke-width="0.525" stroke-miterlimit="10"/>
<path d="M151.007 268.465H134.207V285.265H151.007V268.465Z" stroke="white" stroke-width="0.525" stroke-miterlimit="10"/>
<path d="M167.808 268.465H151.008V285.265H167.808V268.465Z" stroke="white" stroke-width="0.525" stroke-miterlimit="10"/>
<path d="M184.607 268.465H167.807V285.265H184.607V268.465Z" stroke="white" stroke-width="0.525" stroke-miterlimit="10"/>
<path d="M201.407 268.465H184.607V285.265H201.407V268.465Z" stroke="white" stroke-width="0.525" stroke-miterlimit="10"/>
<path d="M218.206 268.465H201.406V285.265H218.206V268.465Z" stroke="white" stroke-width="0.525" stroke-miterlimit="10"/>
<path d="M235.007 268.465H218.207V285.265H235.007V268.465Z" stroke="white" stroke-width="0.525" stroke-miterlimit="10"/>
<path d="M251.808 268.465H235.008V285.265H251.808V268.465Z" stroke="white" stroke-width="0.525" stroke-miterlimit="10"/>
<path d="M268.607 268.465H251.807V285.265H268.607V268.465Z" stroke="white" stroke-width="0.525" stroke-miterlimit="10"/>
<path d="M285.407 268.465H268.607V285.265H285.407V268.465Z" stroke="white" stroke-width="0.525" stroke-miterlimit="10"/>
<path d="M302.206 268.465H285.406V285.265H302.206V268.465Z" stroke="white" stroke-width="0.525" stroke-miterlimit="10"/>
<path d="M319.007 268.465H302.207V285.265H319.007V268.465Z" stroke="white" stroke-width="0.525" stroke-miterlimit="10"/>
<path d="M335.808 268.465H319.008V285.265H335.808V268.465Z" stroke="white" stroke-width="0.525" stroke-miterlimit="10"/>
<path d="M16.6066 285.264H-0.193359V302.064H16.6066V285.264Z" stroke="white" stroke-width="0.525" stroke-miterlimit="10"/>
<path d="M33.4074 285.264H16.6074V302.064H33.4074V285.264Z" stroke="white" stroke-width="0.525" stroke-miterlimit="10"/>
<path d="M50.2062 285.264H33.4062V302.064H50.2062V285.264Z" stroke="white" stroke-width="0.525" stroke-miterlimit="10"/>
<path d="M67.007 285.264H50.207V302.064H67.007V285.264Z" stroke="white" stroke-width="0.525" stroke-miterlimit="10"/>
<path d="M83.8078 285.264H67.0078V302.064H83.8078V285.264Z" stroke="white" stroke-width="0.525" stroke-miterlimit="10"/>
<path d="M100.607 285.264H83.8066V302.064H100.607V285.264Z" stroke="white" stroke-width="0.525" stroke-miterlimit="10"/>
<path d="M117.407 285.264H100.607V302.064H117.407V285.264Z" stroke="white" stroke-width="0.525" stroke-miterlimit="10"/>
<path d="M134.206 285.264H117.406V302.064H134.206V285.264Z" stroke="white" stroke-width="0.525" stroke-miterlimit="10"/>
<path d="M151.007 285.264H134.207V302.064H151.007V285.264Z" stroke="white" stroke-width="0.525" stroke-miterlimit="10"/>
<path d="M167.808 285.264H151.008V302.064H167.808V285.264Z" stroke="white" stroke-width="0.525" stroke-miterlimit="10"/>
<path d="M184.607 285.264H167.807V302.064H184.607V285.264Z" stroke="white" stroke-width="0.525" stroke-miterlimit="10"/>
<path d="M201.407 285.264H184.607V302.064H201.407V285.264Z" stroke="white" stroke-width="0.525" stroke-miterlimit="10"/>
<path d="M218.206 285.264H201.406V302.064H218.206V285.264Z" stroke="white" stroke-width="0.525" stroke-miterlimit="10"/>
<path d="M235.007 285.264H218.207V302.064H235.007V285.264Z" stroke="white" stroke-width="0.525" stroke-miterlimit="10"/>
<path d="M251.808 285.264H235.008V302.064H251.808V285.264Z" stroke="white" stroke-width="0.525" stroke-miterlimit="10"/>
<path d="M268.607 285.264H251.807V302.064H268.607V285.264Z" stroke="white" stroke-width="0.525" stroke-miterlimit="10"/>
<path d="M285.407 285.264H268.607V302.064H285.407V285.264Z" stroke="white" stroke-width="0.525" stroke-miterlimit="10"/>
<path d="M302.206 285.264H285.406V302.064H302.206V285.264Z" stroke="white" stroke-width="0.525" stroke-miterlimit="10"/>
<path d="M319.007 285.264H302.207V302.064H319.007V285.264Z" stroke="white" stroke-width="0.525" stroke-miterlimit="10"/>
<path d="M335.808 285.264H319.008V302.064H335.808V285.264Z" stroke="white" stroke-width="0.525" stroke-miterlimit="10"/>
<path d="M16.6066 302.064H-0.193359V318.864H16.6066V302.064Z" stroke="white" stroke-width="0.525" stroke-miterlimit="10"/>
<path d="M33.4074 302.064H16.6074V318.864H33.4074V302.064Z" stroke="white" stroke-width="0.525" stroke-miterlimit="10"/>
<path d="M50.2062 302.064H33.4062V318.864H50.2062V302.064Z" stroke="white" stroke-width="0.525" stroke-miterlimit="10"/>
<path d="M67.007 302.064H50.207V318.864H67.007V302.064Z" stroke="white" stroke-width="0.525" stroke-miterlimit="10"/>
<path d="M83.8078 302.064H67.0078V318.864H83.8078V302.064Z" stroke="white" stroke-width="0.525" stroke-miterlimit="10"/>
<path d="M100.607 302.064H83.8066V318.864H100.607V302.064Z" stroke="white" stroke-width="0.525" stroke-miterlimit="10"/>
<path d="M117.407 302.064H100.607V318.864H117.407V302.064Z" stroke="white" stroke-width="0.525" stroke-miterlimit="10"/>
<path d="M134.206 302.064H117.406V318.864H134.206V302.064Z" stroke="white" stroke-width="0.525" stroke-miterlimit="10"/>
<path d="M151.007 302.064H134.207V318.864H151.007V302.064Z" stroke="white" stroke-width="0.525" stroke-miterlimit="10"/>
<path d="M167.808 302.064H151.008V318.864H167.808V302.064Z" stroke="white" stroke-width="0.525" stroke-miterlimit="10"/>
<path d="M184.607 302.064H167.807V318.864H184.607V302.064Z" stroke="white" stroke-width="0.525" stroke-miterlimit="10"/>
<path d="M201.407 302.064H184.607V318.864H201.407V302.064Z" stroke="white" stroke-width="0.525" stroke-miterlimit="10"/>
<path d="M218.206 302.064H201.406V318.864H218.206V302.064Z" stroke="white" stroke-width="0.525" stroke-miterlimit="10"/>
<path d="M235.007 302.064H218.207V318.864H235.007V302.064Z" stroke="white" stroke-width="0.525" stroke-miterlimit="10"/>
<path d="M251.808 302.064H235.008V318.864H251.808V302.064Z" stroke="white" stroke-width="0.525" stroke-miterlimit="10"/>
<path d="M268.607 302.064H251.807V318.864H268.607V302.064Z" stroke="white" stroke-width="0.525" stroke-miterlimit="10"/>
<path d="M285.407 302.064H268.607V318.864H285.407V302.064Z" stroke="white" stroke-width="0.525" stroke-miterlimit="10"/>
<path d="M302.206 302.064H285.406V318.864H302.206V302.064Z" stroke="white" stroke-width="0.525" stroke-miterlimit="10"/>
<path d="M319.007 302.064H302.207V318.864H319.007V302.064Z" stroke="white" stroke-width="0.525" stroke-miterlimit="10"/>
<path d="M335.808 302.064H319.008V318.864H335.808V302.064Z" stroke="white" stroke-width="0.525" stroke-miterlimit="10"/>
</g>
</g>
<defs>
<clipPath id="clip0_2417_321153">
<rect width="335" height="302" fill="white" transform="translate(0.5)"/>
</clipPath>
<clipPath id="clip1_2417_321153">
<rect width="335" height="302" fill="white" transform="translate(0.5)"/>
</clipPath>
</defs>
</svg>
