<svg width="578" height="530" viewBox="0 0 578 530" fill="none" xmlns="http://www.w3.org/2000/svg">
<g clip-path="url(#clip0_2314_32538)">
<rect x="0.867188" y="0.662109" width="576" height="528" fill="#EEEDFF"/>
<path d="M24.8672 0.662109H0.867188V24.6621H24.8672V0.662109Z" stroke="white" stroke-width="0.75" stroke-miterlimit="10"/>
<path d="M48.8672 0.662109H24.8672V24.6621H48.8672V0.662109Z" stroke="white" stroke-width="0.75" stroke-miterlimit="10"/>
<path d="M72.8672 0.662109H48.8672V24.6621H72.8672V0.662109Z" stroke="white" stroke-width="0.75" stroke-miterlimit="10"/>
<path d="M96.8672 0.662109H72.8672V24.6621H96.8672V0.662109Z" stroke="white" stroke-width="0.75" stroke-miterlimit="10"/>
<path d="M120.867 0.662109H96.8672V24.6621H120.867V0.662109Z" stroke="white" stroke-width="0.75" stroke-miterlimit="10"/>
<path d="M144.867 0.662109H120.867V24.6621H144.867V0.662109Z" stroke="white" stroke-width="0.75" stroke-miterlimit="10"/>
<path d="M168.867 0.662109H144.867V24.6621H168.867V0.662109Z" stroke="white" stroke-width="0.75" stroke-miterlimit="10"/>
<path d="M192.867 0.662109H168.867V24.6621H192.867V0.662109Z" stroke="white" stroke-width="0.75" stroke-miterlimit="10"/>
<path d="M216.867 0.662109H192.867V24.6621H216.867V0.662109Z" stroke="white" stroke-width="0.75" stroke-miterlimit="10"/>
<path d="M240.867 0.662109H216.867V24.6621H240.867V0.662109Z" stroke="white" stroke-width="0.75" stroke-miterlimit="10"/>
<path d="M264.867 0.662109H240.867V24.6621H264.867V0.662109Z" stroke="white" stroke-width="0.75" stroke-miterlimit="10"/>
<path d="M288.867 0.662109H264.867V24.6621H288.867V0.662109Z" stroke="white" stroke-width="0.75" stroke-miterlimit="10"/>
<path d="M312.867 0.662109H288.867V24.6621H312.867V0.662109Z" stroke="white" stroke-width="0.75" stroke-miterlimit="10"/>
<path d="M336.867 0.662109H312.867V24.6621H336.867V0.662109Z" stroke="white" stroke-width="0.75" stroke-miterlimit="10"/>
<path d="M360.867 0.662109H336.867V24.6621H360.867V0.662109Z" stroke="white" stroke-width="0.75" stroke-miterlimit="10"/>
<path d="M384.867 0.662109H360.867V24.6621H384.867V0.662109Z" stroke="white" stroke-width="0.75" stroke-miterlimit="10"/>
<path d="M408.867 0.662109H384.867V24.6621H408.867V0.662109Z" stroke="white" stroke-width="0.75" stroke-miterlimit="10"/>
<path d="M432.867 0.662109H408.867V24.6621H432.867V0.662109Z" stroke="white" stroke-width="0.75" stroke-miterlimit="10"/>
<path d="M456.867 0.662109H432.867V24.6621H456.867V0.662109Z" stroke="white" stroke-width="0.75" stroke-miterlimit="10"/>
<path d="M480.867 0.662109H456.867V24.6621H480.867V0.662109Z" stroke="white" stroke-width="0.75" stroke-miterlimit="10"/>
<path d="M504.867 0.662109H480.867V24.6621H504.867V0.662109Z" stroke="white" stroke-width="0.75" stroke-miterlimit="10"/>
<path d="M528.867 0.662109H504.867V24.6621H528.867V0.662109Z" stroke="white" stroke-width="0.75" stroke-miterlimit="10"/>
<path d="M24.8672 24.6621H0.867188V48.6621H24.8672V24.6621Z" stroke="white" stroke-width="0.75" stroke-miterlimit="10"/>
<path d="M48.8672 24.6621H24.8672V48.6621H48.8672V24.6621Z" stroke="white" stroke-width="0.75" stroke-miterlimit="10"/>
<path d="M72.8672 24.6621H48.8672V48.6621H72.8672V24.6621Z" stroke="white" stroke-width="0.75" stroke-miterlimit="10"/>
<path d="M96.8672 24.6621H72.8672V48.6621H96.8672V24.6621Z" stroke="white" stroke-width="0.75" stroke-miterlimit="10"/>
<path d="M120.867 24.6621H96.8672V48.6621H120.867V24.6621Z" stroke="white" stroke-width="0.75" stroke-miterlimit="10"/>
<path d="M144.867 24.6621H120.867V48.6621H144.867V24.6621Z" stroke="white" stroke-width="0.75" stroke-miterlimit="10"/>
<path d="M168.867 24.6621H144.867V48.6621H168.867V24.6621Z" stroke="white" stroke-width="0.75" stroke-miterlimit="10"/>
<path d="M192.867 24.6621H168.867V48.6621H192.867V24.6621Z" stroke="white" stroke-width="0.75" stroke-miterlimit="10"/>
<path d="M216.867 24.6621H192.867V48.6621H216.867V24.6621Z" stroke="white" stroke-width="0.75" stroke-miterlimit="10"/>
<path d="M240.867 24.6621H216.867V48.6621H240.867V24.6621Z" stroke="white" stroke-width="0.75" stroke-miterlimit="10"/>
<path d="M264.867 24.6621H240.867V48.6621H264.867V24.6621Z" stroke="white" stroke-width="0.75" stroke-miterlimit="10"/>
<path d="M288.867 24.6621H264.867V48.6621H288.867V24.6621Z" stroke="white" stroke-width="0.75" stroke-miterlimit="10"/>
<path d="M312.867 24.6621H288.867V48.6621H312.867V24.6621Z" stroke="white" stroke-width="0.75" stroke-miterlimit="10"/>
<path d="M336.867 24.6621H312.867V48.6621H336.867V24.6621Z" stroke="white" stroke-width="0.75" stroke-miterlimit="10"/>
<path d="M360.867 24.6621H336.867V48.6621H360.867V24.6621Z" stroke="white" stroke-width="0.75" stroke-miterlimit="10"/>
<path d="M384.867 24.6621H360.867V48.6621H384.867V24.6621Z" stroke="white" stroke-width="0.75" stroke-miterlimit="10"/>
<path d="M408.867 24.6621H384.867V48.6621H408.867V24.6621Z" stroke="white" stroke-width="0.75" stroke-miterlimit="10"/>
<path d="M432.867 24.6621H408.867V48.6621H432.867V24.6621Z" stroke="white" stroke-width="0.75" stroke-miterlimit="10"/>
<path d="M456.867 24.6621H432.867V48.6621H456.867V24.6621Z" stroke="white" stroke-width="0.75" stroke-miterlimit="10"/>
<path d="M480.867 24.6621H456.867V48.6621H480.867V24.6621Z" stroke="white" stroke-width="0.75" stroke-miterlimit="10"/>
<path d="M504.867 24.6621H480.867V48.6621H504.867V24.6621Z" stroke="white" stroke-width="0.75" stroke-miterlimit="10"/>
<path d="M528.867 24.6621H504.867V48.6621H528.867V24.6621Z" stroke="white" stroke-width="0.75" stroke-miterlimit="10"/>
<path d="M24.8672 48.6621H0.867188V72.6621H24.8672V48.6621Z" stroke="white" stroke-width="0.75" stroke-miterlimit="10"/>
<path d="M48.8672 48.6621H24.8672V72.6621H48.8672V48.6621Z" stroke="white" stroke-width="0.75" stroke-miterlimit="10"/>
<path d="M72.8672 48.6621H48.8672V72.6621H72.8672V48.6621Z" stroke="white" stroke-width="0.75" stroke-miterlimit="10"/>
<path d="M96.8672 48.6621H72.8672V72.6621H96.8672V48.6621Z" stroke="white" stroke-width="0.75" stroke-miterlimit="10"/>
<path d="M120.867 48.6621H96.8672V72.6621H120.867V48.6621Z" stroke="white" stroke-width="0.75" stroke-miterlimit="10"/>
<path d="M144.867 48.6621H120.867V72.6621H144.867V48.6621Z" stroke="white" stroke-width="0.75" stroke-miterlimit="10"/>
<path d="M168.867 48.6621H144.867V72.6621H168.867V48.6621Z" stroke="white" stroke-width="0.75" stroke-miterlimit="10"/>
<path d="M192.867 48.6621H168.867V72.6621H192.867V48.6621Z" stroke="white" stroke-width="0.75" stroke-miterlimit="10"/>
<path d="M216.867 48.6621H192.867V72.6621H216.867V48.6621Z" stroke="white" stroke-width="0.75" stroke-miterlimit="10"/>
<path d="M240.867 48.6621H216.867V72.6621H240.867V48.6621Z" stroke="white" stroke-width="0.75" stroke-miterlimit="10"/>
<path d="M264.867 48.6621H240.867V72.6621H264.867V48.6621Z" stroke="white" stroke-width="0.75" stroke-miterlimit="10"/>
<path d="M288.867 48.6621H264.867V72.6621H288.867V48.6621Z" stroke="white" stroke-width="0.75" stroke-miterlimit="10"/>
<path d="M312.867 48.6621H288.867V72.6621H312.867V48.6621Z" stroke="white" stroke-width="0.75" stroke-miterlimit="10"/>
<path d="M336.867 48.6621H312.867V72.6621H336.867V48.6621Z" stroke="white" stroke-width="0.75" stroke-miterlimit="10"/>
<path d="M360.867 48.6621H336.867V72.6621H360.867V48.6621Z" stroke="white" stroke-width="0.75" stroke-miterlimit="10"/>
<path d="M384.867 48.6621H360.867V72.6621H384.867V48.6621Z" stroke="white" stroke-width="0.75" stroke-miterlimit="10"/>
<path d="M408.867 48.6621H384.867V72.6621H408.867V48.6621Z" stroke="white" stroke-width="0.75" stroke-miterlimit="10"/>
<path d="M432.867 48.6621H408.867V72.6621H432.867V48.6621Z" stroke="white" stroke-width="0.75" stroke-miterlimit="10"/>
<path d="M456.867 48.6621H432.867V72.6621H456.867V48.6621Z" stroke="white" stroke-width="0.75" stroke-miterlimit="10"/>
<path d="M480.867 48.6621H456.867V72.6621H480.867V48.6621Z" stroke="white" stroke-width="0.75" stroke-miterlimit="10"/>
<path d="M504.867 48.6621H480.867V72.6621H504.867V48.6621Z" stroke="white" stroke-width="0.75" stroke-miterlimit="10"/>
<path d="M528.867 48.6621H504.867V72.6621H528.867V48.6621Z" stroke="white" stroke-width="0.75" stroke-miterlimit="10"/>
<path d="M24.8672 72.6621H0.867188V96.6621H24.8672V72.6621Z" stroke="white" stroke-width="0.75" stroke-miterlimit="10"/>
<path d="M48.8672 72.6621H24.8672V96.6621H48.8672V72.6621Z" stroke="white" stroke-width="0.75" stroke-miterlimit="10"/>
<path d="M72.8672 72.6621H48.8672V96.6621H72.8672V72.6621Z" stroke="white" stroke-width="0.75" stroke-miterlimit="10"/>
<path d="M96.8672 72.6621H72.8672V96.6621H96.8672V72.6621Z" stroke="white" stroke-width="0.75" stroke-miterlimit="10"/>
<path d="M120.867 72.6621H96.8672V96.6621H120.867V72.6621Z" stroke="white" stroke-width="0.75" stroke-miterlimit="10"/>
<path d="M144.867 72.6621H120.867V96.6621H144.867V72.6621Z" stroke="white" stroke-width="0.75" stroke-miterlimit="10"/>
<path d="M168.867 72.6621H144.867V96.6621H168.867V72.6621Z" stroke="white" stroke-width="0.75" stroke-miterlimit="10"/>
<path d="M192.867 72.6621H168.867V96.6621H192.867V72.6621Z" stroke="white" stroke-width="0.75" stroke-miterlimit="10"/>
<path d="M216.867 72.6621H192.867V96.6621H216.867V72.6621Z" stroke="white" stroke-width="0.75" stroke-miterlimit="10"/>
<path d="M240.867 72.6621H216.867V96.6621H240.867V72.6621Z" stroke="white" stroke-width="0.75" stroke-miterlimit="10"/>
<path d="M264.867 72.6621H240.867V96.6621H264.867V72.6621Z" stroke="white" stroke-width="0.75" stroke-miterlimit="10"/>
<path d="M288.867 72.6621H264.867V96.6621H288.867V72.6621Z" stroke="white" stroke-width="0.75" stroke-miterlimit="10"/>
<path d="M312.867 72.6621H288.867V96.6621H312.867V72.6621Z" stroke="white" stroke-width="0.75" stroke-miterlimit="10"/>
<path d="M336.867 72.6621H312.867V96.6621H336.867V72.6621Z" stroke="white" stroke-width="0.75" stroke-miterlimit="10"/>
<path d="M360.867 72.6621H336.867V96.6621H360.867V72.6621Z" stroke="white" stroke-width="0.75" stroke-miterlimit="10"/>
<path d="M384.867 72.6621H360.867V96.6621H384.867V72.6621Z" stroke="white" stroke-width="0.75" stroke-miterlimit="10"/>
<path d="M408.867 72.6621H384.867V96.6621H408.867V72.6621Z" stroke="white" stroke-width="0.75" stroke-miterlimit="10"/>
<path d="M432.867 72.6621H408.867V96.6621H432.867V72.6621Z" stroke="white" stroke-width="0.75" stroke-miterlimit="10"/>
<path d="M456.867 72.6621H432.867V96.6621H456.867V72.6621Z" stroke="white" stroke-width="0.75" stroke-miterlimit="10"/>
<path d="M480.867 72.6621H456.867V96.6621H480.867V72.6621Z" stroke="white" stroke-width="0.75" stroke-miterlimit="10"/>
<path d="M504.867 72.6621H480.867V96.6621H504.867V72.6621Z" stroke="white" stroke-width="0.75" stroke-miterlimit="10"/>
<path d="M528.867 72.6621H504.867V96.6621H528.867V72.6621Z" stroke="white" stroke-width="0.75" stroke-miterlimit="10"/>
<path d="M24.8672 96.6621H0.867188V120.662H24.8672V96.6621Z" stroke="white" stroke-width="0.75" stroke-miterlimit="10"/>
<path d="M48.8672 96.6621H24.8672V120.662H48.8672V96.6621Z" stroke="white" stroke-width="0.75" stroke-miterlimit="10"/>
<path d="M72.8672 96.6621H48.8672V120.662H72.8672V96.6621Z" stroke="white" stroke-width="0.75" stroke-miterlimit="10"/>
<path d="M96.8672 96.6621H72.8672V120.662H96.8672V96.6621Z" stroke="white" stroke-width="0.75" stroke-miterlimit="10"/>
<path d="M120.867 96.6621H96.8672V120.662H120.867V96.6621Z" stroke="white" stroke-width="0.75" stroke-miterlimit="10"/>
<path d="M144.867 96.6621H120.867V120.662H144.867V96.6621Z" stroke="white" stroke-width="0.75" stroke-miterlimit="10"/>
<path d="M168.867 96.6621H144.867V120.662H168.867V96.6621Z" stroke="white" stroke-width="0.75" stroke-miterlimit="10"/>
<path d="M192.867 96.6621H168.867V120.662H192.867V96.6621Z" stroke="white" stroke-width="0.75" stroke-miterlimit="10"/>
<path d="M216.867 96.6621H192.867V120.662H216.867V96.6621Z" stroke="white" stroke-width="0.75" stroke-miterlimit="10"/>
<path d="M240.867 96.6621H216.867V120.662H240.867V96.6621Z" stroke="white" stroke-width="0.75" stroke-miterlimit="10"/>
<path d="M264.867 96.6621H240.867V120.662H264.867V96.6621Z" stroke="white" stroke-width="0.75" stroke-miterlimit="10"/>
<path d="M288.867 96.6621H264.867V120.662H288.867V96.6621Z" stroke="white" stroke-width="0.75" stroke-miterlimit="10"/>
<path d="M312.867 96.6621H288.867V120.662H312.867V96.6621Z" stroke="white" stroke-width="0.75" stroke-miterlimit="10"/>
<path d="M336.867 96.6621H312.867V120.662H336.867V96.6621Z" stroke="white" stroke-width="0.75" stroke-miterlimit="10"/>
<path d="M360.867 96.6621H336.867V120.662H360.867V96.6621Z" stroke="white" stroke-width="0.75" stroke-miterlimit="10"/>
<path d="M384.867 96.6621H360.867V120.662H384.867V96.6621Z" stroke="white" stroke-width="0.75" stroke-miterlimit="10"/>
<path d="M408.867 96.6621H384.867V120.662H408.867V96.6621Z" stroke="white" stroke-width="0.75" stroke-miterlimit="10"/>
<path d="M432.867 96.6621H408.867V120.662H432.867V96.6621Z" stroke="white" stroke-width="0.75" stroke-miterlimit="10"/>
<path d="M456.867 96.6621H432.867V120.662H456.867V96.6621Z" stroke="white" stroke-width="0.75" stroke-miterlimit="10"/>
<path d="M480.867 96.6621H456.867V120.662H480.867V96.6621Z" stroke="white" stroke-width="0.75" stroke-miterlimit="10"/>
<path d="M504.867 96.6621H480.867V120.662H504.867V96.6621Z" stroke="white" stroke-width="0.75" stroke-miterlimit="10"/>
<path d="M528.867 96.6621H504.867V120.662H528.867V96.6621Z" stroke="white" stroke-width="0.75" stroke-miterlimit="10"/>
<path d="M24.8672 120.662H0.867188V144.662H24.8672V120.662Z" stroke="white" stroke-width="0.75" stroke-miterlimit="10"/>
<path d="M48.8672 120.662H24.8672V144.662H48.8672V120.662Z" stroke="white" stroke-width="0.75" stroke-miterlimit="10"/>
<path d="M72.8672 120.662H48.8672V144.662H72.8672V120.662Z" stroke="white" stroke-width="0.75" stroke-miterlimit="10"/>
<path d="M96.8672 120.662H72.8672V144.662H96.8672V120.662Z" stroke="white" stroke-width="0.75" stroke-miterlimit="10"/>
<path d="M120.867 120.662H96.8672V144.662H120.867V120.662Z" stroke="white" stroke-width="0.75" stroke-miterlimit="10"/>
<path d="M144.867 120.662H120.867V144.662H144.867V120.662Z" stroke="white" stroke-width="0.75" stroke-miterlimit="10"/>
<path d="M168.867 120.662H144.867V144.662H168.867V120.662Z" stroke="white" stroke-width="0.75" stroke-miterlimit="10"/>
<path d="M192.867 120.662H168.867V144.662H192.867V120.662Z" stroke="white" stroke-width="0.75" stroke-miterlimit="10"/>
<path d="M216.867 120.662H192.867V144.662H216.867V120.662Z" stroke="white" stroke-width="0.75" stroke-miterlimit="10"/>
<path d="M240.867 120.662H216.867V144.662H240.867V120.662Z" stroke="white" stroke-width="0.75" stroke-miterlimit="10"/>
<path d="M264.867 120.662H240.867V144.662H264.867V120.662Z" stroke="white" stroke-width="0.75" stroke-miterlimit="10"/>
<path d="M288.867 120.662H264.867V144.662H288.867V120.662Z" stroke="white" stroke-width="0.75" stroke-miterlimit="10"/>
<path d="M312.867 120.662H288.867V144.662H312.867V120.662Z" stroke="white" stroke-width="0.75" stroke-miterlimit="10"/>
<path d="M336.867 120.662H312.867V144.662H336.867V120.662Z" stroke="white" stroke-width="0.75" stroke-miterlimit="10"/>
<path d="M360.867 120.662H336.867V144.662H360.867V120.662Z" stroke="white" stroke-width="0.75" stroke-miterlimit="10"/>
<path d="M384.867 120.662H360.867V144.662H384.867V120.662Z" stroke="white" stroke-width="0.75" stroke-miterlimit="10"/>
<path d="M408.867 120.662H384.867V144.662H408.867V120.662Z" stroke="white" stroke-width="0.75" stroke-miterlimit="10"/>
<path d="M432.867 120.662H408.867V144.662H432.867V120.662Z" stroke="white" stroke-width="0.75" stroke-miterlimit="10"/>
<path d="M456.867 120.662H432.867V144.662H456.867V120.662Z" stroke="white" stroke-width="0.75" stroke-miterlimit="10"/>
<path d="M480.867 120.662H456.867V144.662H480.867V120.662Z" stroke="white" stroke-width="0.75" stroke-miterlimit="10"/>
<path d="M504.867 120.662H480.867V144.662H504.867V120.662Z" stroke="white" stroke-width="0.75" stroke-miterlimit="10"/>
<path d="M528.867 120.662H504.867V144.662H528.867V120.662Z" stroke="white" stroke-width="0.75" stroke-miterlimit="10"/>
<path d="M552.867 120.662H528.867V144.662H552.867V120.662Z" stroke="white" stroke-width="0.75" stroke-miterlimit="10"/>
<path d="M576.867 120.662H552.867V144.662H576.867V120.662Z" stroke="white" stroke-width="0.75" stroke-miterlimit="10"/>
<path d="M24.8672 144.662H0.867188V168.662H24.8672V144.662Z" stroke="white" stroke-width="0.75" stroke-miterlimit="10"/>
<path d="M48.8672 144.662H24.8672V168.662H48.8672V144.662Z" stroke="white" stroke-width="0.75" stroke-miterlimit="10"/>
<path d="M72.8672 144.662H48.8672V168.662H72.8672V144.662Z" stroke="white" stroke-width="0.75" stroke-miterlimit="10"/>
<path d="M96.8672 144.662H72.8672V168.662H96.8672V144.662Z" stroke="white" stroke-width="0.75" stroke-miterlimit="10"/>
<path d="M120.867 144.662H96.8672V168.662H120.867V144.662Z" stroke="white" stroke-width="0.75" stroke-miterlimit="10"/>
<path d="M144.867 144.662H120.867V168.662H144.867V144.662Z" stroke="white" stroke-width="0.75" stroke-miterlimit="10"/>
<path d="M168.867 144.662H144.867V168.662H168.867V144.662Z" stroke="white" stroke-width="0.75" stroke-miterlimit="10"/>
<path d="M192.867 144.662H168.867V168.662H192.867V144.662Z" stroke="white" stroke-width="0.75" stroke-miterlimit="10"/>
<path d="M216.867 144.662H192.867V168.662H216.867V144.662Z" stroke="white" stroke-width="0.75" stroke-miterlimit="10"/>
<path d="M240.867 144.662H216.867V168.662H240.867V144.662Z" stroke="white" stroke-width="0.75" stroke-miterlimit="10"/>
<path d="M264.867 144.662H240.867V168.662H264.867V144.662Z" stroke="white" stroke-width="0.75" stroke-miterlimit="10"/>
<path d="M288.867 144.662H264.867V168.662H288.867V144.662Z" stroke="white" stroke-width="0.75" stroke-miterlimit="10"/>
<path d="M312.867 144.662H288.867V168.662H312.867V144.662Z" stroke="white" stroke-width="0.75" stroke-miterlimit="10"/>
<path d="M336.867 144.662H312.867V168.662H336.867V144.662Z" stroke="white" stroke-width="0.75" stroke-miterlimit="10"/>
<path d="M360.867 144.662H336.867V168.662H360.867V144.662Z" stroke="white" stroke-width="0.75" stroke-miterlimit="10"/>
<path d="M384.867 144.662H360.867V168.662H384.867V144.662Z" stroke="white" stroke-width="0.75" stroke-miterlimit="10"/>
<path d="M408.867 144.662H384.867V168.662H408.867V144.662Z" stroke="white" stroke-width="0.75" stroke-miterlimit="10"/>
<path d="M432.867 144.662H408.867V168.662H432.867V144.662Z" stroke="white" stroke-width="0.75" stroke-miterlimit="10"/>
<path d="M456.867 144.662H432.867V168.662H456.867V144.662Z" stroke="white" stroke-width="0.75" stroke-miterlimit="10"/>
<path d="M480.867 144.662H456.867V168.662H480.867V144.662Z" stroke="white" stroke-width="0.75" stroke-miterlimit="10"/>
<path d="M504.867 144.662H480.867V168.662H504.867V144.662Z" stroke="white" stroke-width="0.75" stroke-miterlimit="10"/>
<path d="M528.867 144.662H504.867V168.662H528.867V144.662Z" stroke="white" stroke-width="0.75" stroke-miterlimit="10"/>
<path d="M552.867 144.662H528.867V168.662H552.867V144.662Z" stroke="white" stroke-width="0.75" stroke-miterlimit="10"/>
<path d="M48.8672 168.662H24.8672V192.662H48.8672V168.662Z" stroke="white" stroke-width="0.75" stroke-miterlimit="10"/>
<path d="M72.8672 168.662H48.8672V192.662H72.8672V168.662Z" stroke="white" stroke-width="0.75" stroke-miterlimit="10"/>
<path d="M96.8672 168.662H72.8672V192.662H96.8672V168.662Z" stroke="white" stroke-width="0.75" stroke-miterlimit="10"/>
<path d="M120.867 168.662H96.8672V192.662H120.867V168.662Z" stroke="white" stroke-width="0.75" stroke-miterlimit="10"/>
<path d="M144.867 168.662H120.867V192.662H144.867V168.662Z" stroke="white" stroke-width="0.75" stroke-miterlimit="10"/>
<path d="M168.867 168.662H144.867V192.662H168.867V168.662Z" stroke="white" stroke-width="0.75" stroke-miterlimit="10"/>
<path d="M192.867 168.662H168.867V192.662H192.867V168.662Z" stroke="white" stroke-width="0.75" stroke-miterlimit="10"/>
<path d="M216.867 168.662H192.867V192.662H216.867V168.662Z" stroke="white" stroke-width="0.75" stroke-miterlimit="10"/>
<path d="M240.867 168.662H216.867V192.662H240.867V168.662Z" stroke="white" stroke-width="0.75" stroke-miterlimit="10"/>
<path d="M264.867 168.662H240.867V192.662H264.867V168.662Z" stroke="white" stroke-width="0.75" stroke-miterlimit="10"/>
<path d="M288.867 168.662H264.867V192.662H288.867V168.662Z" stroke="white" stroke-width="0.75" stroke-miterlimit="10"/>
<path d="M312.867 168.662H288.867V192.662H312.867V168.662Z" stroke="white" stroke-width="0.75" stroke-miterlimit="10"/>
<path d="M336.867 168.662H312.867V192.662H336.867V168.662Z" stroke="white" stroke-width="0.75" stroke-miterlimit="10"/>
<path d="M360.867 168.662H336.867V192.662H360.867V168.662Z" stroke="white" stroke-width="0.75" stroke-miterlimit="10"/>
<path d="M384.867 168.662H360.867V192.662H384.867V168.662Z" stroke="white" stroke-width="0.75" stroke-miterlimit="10"/>
<path d="M408.867 168.662H384.867V192.662H408.867V168.662Z" stroke="white" stroke-width="0.75" stroke-miterlimit="10"/>
<path d="M432.867 168.662H408.867V192.662H432.867V168.662Z" stroke="white" stroke-width="0.75" stroke-miterlimit="10"/>
<path d="M456.867 168.662H432.867V192.662H456.867V168.662Z" stroke="white" stroke-width="0.75" stroke-miterlimit="10"/>
<path d="M480.867 168.662H456.867V192.662H480.867V168.662Z" stroke="white" stroke-width="0.75" stroke-miterlimit="10"/>
<path d="M504.867 168.662H480.867V192.662H504.867V168.662Z" stroke="white" stroke-width="0.75" stroke-miterlimit="10"/>
<path d="M528.867 168.662H504.867V192.662H528.867V168.662Z" stroke="white" stroke-width="0.75" stroke-miterlimit="10"/>
<path d="M552.867 168.662H528.867V192.662H552.867V168.662Z" stroke="white" stroke-width="0.75" stroke-miterlimit="10"/>
<path d="M576.867 168.662H552.867V192.662H576.867V168.662Z" stroke="white" stroke-width="0.75" stroke-miterlimit="10"/>
<path d="M48.8672 192.662H24.8672V216.662H48.8672V192.662Z" stroke="white" stroke-width="0.75" stroke-miterlimit="10"/>
<path d="M72.8672 192.662H48.8672V216.662H72.8672V192.662Z" stroke="white" stroke-width="0.75" stroke-miterlimit="10"/>
<path d="M96.8672 192.662H72.8672V216.662H96.8672V192.662Z" stroke="white" stroke-width="0.75" stroke-miterlimit="10"/>
<path d="M120.867 192.662H96.8672V216.662H120.867V192.662Z" stroke="white" stroke-width="0.75" stroke-miterlimit="10"/>
<path d="M144.867 192.662H120.867V216.662H144.867V192.662Z" stroke="white" stroke-width="0.75" stroke-miterlimit="10"/>
<path d="M168.867 192.662H144.867V216.662H168.867V192.662Z" stroke="white" stroke-width="0.75" stroke-miterlimit="10"/>
<path d="M192.867 192.662H168.867V216.662H192.867V192.662Z" stroke="white" stroke-width="0.75" stroke-miterlimit="10"/>
<path d="M216.867 192.662H192.867V216.662H216.867V192.662Z" stroke="white" stroke-width="0.75" stroke-miterlimit="10"/>
<path d="M240.867 192.662H216.867V216.662H240.867V192.662Z" stroke="white" stroke-width="0.75" stroke-miterlimit="10"/>
<path d="M264.867 192.662H240.867V216.662H264.867V192.662Z" stroke="white" stroke-width="0.75" stroke-miterlimit="10"/>
<path d="M288.867 192.662H264.867V216.662H288.867V192.662Z" stroke="white" stroke-width="0.75" stroke-miterlimit="10"/>
<path d="M312.867 192.662H288.867V216.662H312.867V192.662Z" stroke="white" stroke-width="0.75" stroke-miterlimit="10"/>
<path d="M336.867 192.662H312.867V216.662H336.867V192.662Z" stroke="white" stroke-width="0.75" stroke-miterlimit="10"/>
<path d="M360.867 192.662H336.867V216.662H360.867V192.662Z" stroke="white" stroke-width="0.75" stroke-miterlimit="10"/>
<path d="M384.867 192.662H360.867V216.662H384.867V192.662Z" stroke="white" stroke-width="0.75" stroke-miterlimit="10"/>
<path d="M408.867 192.662H384.867V216.662H408.867V192.662Z" stroke="white" stroke-width="0.75" stroke-miterlimit="10"/>
<path d="M432.867 192.662H408.867V216.662H432.867V192.662Z" stroke="white" stroke-width="0.75" stroke-miterlimit="10"/>
<path d="M456.867 192.662H432.867V216.662H456.867V192.662Z" stroke="white" stroke-width="0.75" stroke-miterlimit="10"/>
<path d="M480.867 192.662H456.867V216.662H480.867V192.662Z" stroke="white" stroke-width="0.75" stroke-miterlimit="10"/>
<path d="M504.867 192.662H480.867V216.662H504.867V192.662Z" stroke="white" stroke-width="0.75" stroke-miterlimit="10"/>
<path d="M528.867 192.662H504.867V216.662H528.867V192.662Z" stroke="white" stroke-width="0.75" stroke-miterlimit="10"/>
<path d="M552.867 192.662H528.867V216.662H552.867V192.662Z" stroke="white" stroke-width="0.75" stroke-miterlimit="10"/>
<path d="M576.867 192.662H552.867V216.662H576.867V192.662Z" stroke="white" stroke-width="0.75" stroke-miterlimit="10"/>
<path d="M48.8672 216.662H24.8672V240.662H48.8672V216.662Z" stroke="white" stroke-width="0.75" stroke-miterlimit="10"/>
<path d="M72.8672 216.662H48.8672V240.662H72.8672V216.662Z" stroke="white" stroke-width="0.75" stroke-miterlimit="10"/>
<path d="M96.8672 216.662H72.8672V240.662H96.8672V216.662Z" stroke="white" stroke-width="0.75" stroke-miterlimit="10"/>
<path d="M120.867 216.662H96.8672V240.662H120.867V216.662Z" stroke="white" stroke-width="0.75" stroke-miterlimit="10"/>
<path d="M144.867 216.662H120.867V240.662H144.867V216.662Z" stroke="white" stroke-width="0.75" stroke-miterlimit="10"/>
<path d="M168.867 216.662H144.867V240.662H168.867V216.662Z" stroke="white" stroke-width="0.75" stroke-miterlimit="10"/>
<path d="M192.867 216.662H168.867V240.662H192.867V216.662Z" stroke="white" stroke-width="0.75" stroke-miterlimit="10"/>
<path d="M216.867 216.662H192.867V240.662H216.867V216.662Z" stroke="white" stroke-width="0.75" stroke-miterlimit="10"/>
<path d="M240.867 216.662H216.867V240.662H240.867V216.662Z" stroke="white" stroke-width="0.75" stroke-miterlimit="10"/>
<path d="M264.867 216.662H240.867V240.662H264.867V216.662Z" stroke="white" stroke-width="0.75" stroke-miterlimit="10"/>
<path d="M288.867 216.662H264.867V240.662H288.867V216.662Z" stroke="white" stroke-width="0.75" stroke-miterlimit="10"/>
<path d="M312.867 216.662H288.867V240.662H312.867V216.662Z" stroke="white" stroke-width="0.75" stroke-miterlimit="10"/>
<path d="M336.867 216.662H312.867V240.662H336.867V216.662Z" stroke="white" stroke-width="0.75" stroke-miterlimit="10"/>
<path d="M360.867 216.662H336.867V240.662H360.867V216.662Z" stroke="white" stroke-width="0.75" stroke-miterlimit="10"/>
<path d="M384.867 216.662H360.867V240.662H384.867V216.662Z" stroke="white" stroke-width="0.75" stroke-miterlimit="10"/>
<path d="M408.867 216.662H384.867V240.662H408.867V216.662Z" stroke="white" stroke-width="0.75" stroke-miterlimit="10"/>
<path d="M432.867 216.662H408.867V240.662H432.867V216.662Z" stroke="white" stroke-width="0.75" stroke-miterlimit="10"/>
<path d="M456.867 216.662H432.867V240.662H456.867V216.662Z" stroke="white" stroke-width="0.75" stroke-miterlimit="10"/>
<path d="M480.867 216.662H456.867V240.662H480.867V216.662Z" stroke="white" stroke-width="0.75" stroke-miterlimit="10"/>
<path d="M504.867 216.662H480.867V240.662H504.867V216.662Z" stroke="white" stroke-width="0.75" stroke-miterlimit="10"/>
<path d="M528.867 216.662H504.867V240.662H528.867V216.662Z" stroke="white" stroke-width="0.75" stroke-miterlimit="10"/>
<path d="M552.867 216.662H528.867V240.662H552.867V216.662Z" stroke="white" stroke-width="0.75" stroke-miterlimit="10"/>
<path d="M576.867 216.662H552.867V240.662H576.867V216.662Z" stroke="white" stroke-width="0.75" stroke-miterlimit="10"/>
<path d="M48.8672 240.662H24.8672V264.662H48.8672V240.662Z" stroke="white" stroke-width="0.75" stroke-miterlimit="10"/>
<path d="M72.8672 240.662H48.8672V264.662H72.8672V240.662Z" stroke="white" stroke-width="0.75" stroke-miterlimit="10"/>
<path d="M96.8672 240.662H72.8672V264.662H96.8672V240.662Z" stroke="white" stroke-width="0.75" stroke-miterlimit="10"/>
<path d="M120.867 240.662H96.8672V264.662H120.867V240.662Z" stroke="white" stroke-width="0.75" stroke-miterlimit="10"/>
<path d="M144.867 240.662H120.867V264.662H144.867V240.662Z" stroke="white" stroke-width="0.75" stroke-miterlimit="10"/>
<path d="M168.867 240.662H144.867V264.662H168.867V240.662Z" stroke="white" stroke-width="0.75" stroke-miterlimit="10"/>
<path d="M192.867 240.662H168.867V264.662H192.867V240.662Z" stroke="white" stroke-width="0.75" stroke-miterlimit="10"/>
<path d="M216.867 240.662H192.867V264.662H216.867V240.662Z" stroke="white" stroke-width="0.75" stroke-miterlimit="10"/>
<path d="M240.867 240.662H216.867V264.662H240.867V240.662Z" stroke="white" stroke-width="0.75" stroke-miterlimit="10"/>
<path d="M264.867 240.662H240.867V264.662H264.867V240.662Z" stroke="white" stroke-width="0.75" stroke-miterlimit="10"/>
<path d="M288.867 240.662H264.867V264.662H288.867V240.662Z" stroke="white" stroke-width="0.75" stroke-miterlimit="10"/>
<path d="M312.867 240.662H288.867V264.662H312.867V240.662Z" stroke="white" stroke-width="0.75" stroke-miterlimit="10"/>
<path d="M336.867 240.662H312.867V264.662H336.867V240.662Z" stroke="white" stroke-width="0.75" stroke-miterlimit="10"/>
<path d="M360.867 240.662H336.867V264.662H360.867V240.662Z" stroke="white" stroke-width="0.75" stroke-miterlimit="10"/>
<path d="M384.867 240.662H360.867V264.662H384.867V240.662Z" stroke="white" stroke-width="0.75" stroke-miterlimit="10"/>
<path d="M408.867 240.662H384.867V264.662H408.867V240.662Z" stroke="white" stroke-width="0.75" stroke-miterlimit="10"/>
<path d="M432.867 240.662H408.867V264.662H432.867V240.662Z" stroke="white" stroke-width="0.75" stroke-miterlimit="10"/>
<path d="M456.867 240.662H432.867V264.662H456.867V240.662Z" stroke="white" stroke-width="0.75" stroke-miterlimit="10"/>
<path d="M480.867 240.662H456.867V264.662H480.867V240.662Z" stroke="white" stroke-width="0.75" stroke-miterlimit="10"/>
<path d="M48.8672 264.662H24.8672V288.662H48.8672V264.662Z" stroke="white" stroke-width="0.75" stroke-miterlimit="10"/>
<path d="M72.8672 264.662H48.8672V288.662H72.8672V264.662Z" stroke="white" stroke-width="0.75" stroke-miterlimit="10"/>
<path d="M96.8672 264.662H72.8672V288.662H96.8672V264.662Z" stroke="white" stroke-width="0.75" stroke-miterlimit="10"/>
<path d="M120.867 264.662H96.8672V288.662H120.867V264.662Z" stroke="white" stroke-width="0.75" stroke-miterlimit="10"/>
<path d="M144.867 264.662H120.867V288.662H144.867V264.662Z" stroke="white" stroke-width="0.75" stroke-miterlimit="10"/>
<path d="M168.867 264.662H144.867V288.662H168.867V264.662Z" stroke="white" stroke-width="0.75" stroke-miterlimit="10"/>
<path d="M192.867 264.662H168.867V288.662H192.867V264.662Z" stroke="white" stroke-width="0.75" stroke-miterlimit="10"/>
<path d="M216.867 264.662H192.867V288.662H216.867V264.662Z" stroke="white" stroke-width="0.75" stroke-miterlimit="10"/>
<path d="M240.867 264.662H216.867V288.662H240.867V264.662Z" stroke="white" stroke-width="0.75" stroke-miterlimit="10"/>
<path d="M264.867 264.662H240.867V288.662H264.867V264.662Z" stroke="white" stroke-width="0.75" stroke-miterlimit="10"/>
<path d="M288.867 264.662H264.867V288.662H288.867V264.662Z" stroke="white" stroke-width="0.75" stroke-miterlimit="10"/>
<path d="M312.867 264.662H288.867V288.662H312.867V264.662Z" stroke="white" stroke-width="0.75" stroke-miterlimit="10"/>
<path d="M336.867 264.662H312.867V288.662H336.867V264.662Z" stroke="white" stroke-width="0.75" stroke-miterlimit="10"/>
<path d="M360.867 264.662H336.867V288.662H360.867V264.662Z" stroke="white" stroke-width="0.75" stroke-miterlimit="10"/>
<path d="M384.867 264.662H360.867V288.662H384.867V264.662Z" stroke="white" stroke-width="0.75" stroke-miterlimit="10"/>
<path d="M408.867 264.662H384.867V288.662H408.867V264.662Z" stroke="white" stroke-width="0.75" stroke-miterlimit="10"/>
<path d="M432.867 264.662H408.867V288.662H432.867V264.662Z" stroke="white" stroke-width="0.75" stroke-miterlimit="10"/>
<path d="M456.867 264.662H432.867V288.662H456.867V264.662Z" stroke="white" stroke-width="0.75" stroke-miterlimit="10"/>
<path d="M480.867 264.662H456.867V288.662H480.867V264.662Z" stroke="white" stroke-width="0.75" stroke-miterlimit="10"/>
<path d="M504.867 264.662H480.867V288.662H504.867V264.662Z" stroke="white" stroke-width="0.75" stroke-miterlimit="10"/>
<path d="M528.867 264.662H504.867V288.662H528.867V264.662Z" stroke="white" stroke-width="0.75" stroke-miterlimit="10"/>
<path d="M552.867 264.662H528.867V288.662H552.867V264.662Z" stroke="white" stroke-width="0.75" stroke-miterlimit="10"/>
<path d="M576.867 264.662H552.867V288.662H576.867V264.662Z" stroke="white" stroke-width="0.75" stroke-miterlimit="10"/>
<path d="M24.8672 288.662H0.867188V312.662H24.8672V288.662Z" stroke="white" stroke-width="0.75" stroke-miterlimit="10"/>
<path d="M48.8672 288.662H24.8672V312.662H48.8672V288.662Z" stroke="white" stroke-width="0.75" stroke-miterlimit="10"/>
<path d="M72.8672 288.662H48.8672V312.662H72.8672V288.662Z" stroke="white" stroke-width="0.75" stroke-miterlimit="10"/>
<path d="M96.8672 288.662H72.8672V312.662H96.8672V288.662Z" stroke="white" stroke-width="0.75" stroke-miterlimit="10"/>
<path d="M120.867 288.662H96.8672V312.662H120.867V288.662Z" stroke="white" stroke-width="0.75" stroke-miterlimit="10"/>
<path d="M144.867 288.662H120.867V312.662H144.867V288.662Z" stroke="white" stroke-width="0.75" stroke-miterlimit="10"/>
<path d="M168.867 288.662H144.867V312.662H168.867V288.662Z" stroke="white" stroke-width="0.75" stroke-miterlimit="10"/>
<path d="M192.867 288.662H168.867V312.662H192.867V288.662Z" stroke="white" stroke-width="0.75" stroke-miterlimit="10"/>
<path d="M216.867 288.662H192.867V312.662H216.867V288.662Z" stroke="white" stroke-width="0.75" stroke-miterlimit="10"/>
<path d="M240.867 288.662H216.867V312.662H240.867V288.662Z" stroke="white" stroke-width="0.75" stroke-miterlimit="10"/>
<path d="M264.867 288.662H240.867V312.662H264.867V288.662Z" stroke="white" stroke-width="0.75" stroke-miterlimit="10"/>
<path d="M288.867 288.662H264.867V312.662H288.867V288.662Z" stroke="white" stroke-width="0.75" stroke-miterlimit="10"/>
<path d="M312.867 288.662H288.867V312.662H312.867V288.662Z" stroke="white" stroke-width="0.75" stroke-miterlimit="10"/>
<path d="M336.867 288.662H312.867V312.662H336.867V288.662Z" stroke="white" stroke-width="0.75" stroke-miterlimit="10"/>
<path d="M360.867 288.662H336.867V312.662H360.867V288.662Z" stroke="white" stroke-width="0.75" stroke-miterlimit="10"/>
<path d="M384.867 288.662H360.867V312.662H384.867V288.662Z" stroke="white" stroke-width="0.75" stroke-miterlimit="10"/>
<path d="M408.867 288.662H384.867V312.662H408.867V288.662Z" stroke="white" stroke-width="0.75" stroke-miterlimit="10"/>
<path d="M432.867 288.662H408.867V312.662H432.867V288.662Z" stroke="white" stroke-width="0.75" stroke-miterlimit="10"/>
<path d="M456.867 288.662H432.867V312.662H456.867V288.662Z" stroke="white" stroke-width="0.75" stroke-miterlimit="10"/>
<path d="M480.867 288.662H456.867V312.662H480.867V288.662Z" stroke="white" stroke-width="0.75" stroke-miterlimit="10"/>
<path d="M504.867 288.662H480.867V312.662H504.867V288.662Z" stroke="white" stroke-width="0.75" stroke-miterlimit="10"/>
<path d="M528.867 288.662H504.867V312.662H528.867V288.662Z" stroke="white" stroke-width="0.75" stroke-miterlimit="10"/>
<path d="M552.867 288.662H528.867V312.662H552.867V288.662Z" stroke="white" stroke-width="0.75" stroke-miterlimit="10"/>
<path d="M576.867 288.662H552.867V312.662H576.867V288.662Z" stroke="white" stroke-width="0.75" stroke-miterlimit="10"/>
<path d="M48.8672 312.662H24.8672V336.662H48.8672V312.662Z" stroke="white" stroke-width="0.75" stroke-miterlimit="10"/>
<path d="M72.8672 312.662H48.8672V336.662H72.8672V312.662Z" stroke="white" stroke-width="0.75" stroke-miterlimit="10"/>
<path d="M96.8672 312.662H72.8672V336.662H96.8672V312.662Z" stroke="white" stroke-width="0.75" stroke-miterlimit="10"/>
<path d="M120.867 312.662H96.8672V336.662H120.867V312.662Z" stroke="white" stroke-width="0.75" stroke-miterlimit="10"/>
<path d="M144.867 312.662H120.867V336.662H144.867V312.662Z" stroke="white" stroke-width="0.75" stroke-miterlimit="10"/>
<path d="M168.867 312.662H144.867V336.662H168.867V312.662Z" stroke="white" stroke-width="0.75" stroke-miterlimit="10"/>
<path d="M192.867 312.662H168.867V336.662H192.867V312.662Z" stroke="white" stroke-width="0.75" stroke-miterlimit="10"/>
<path d="M216.867 312.662H192.867V336.662H216.867V312.662Z" stroke="white" stroke-width="0.75" stroke-miterlimit="10"/>
<path d="M240.867 312.662H216.867V336.662H240.867V312.662Z" stroke="white" stroke-width="0.75" stroke-miterlimit="10"/>
<path d="M264.867 312.662H240.867V336.662H264.867V312.662Z" stroke="white" stroke-width="0.75" stroke-miterlimit="10"/>
<path d="M288.867 312.662H264.867V336.662H288.867V312.662Z" stroke="white" stroke-width="0.75" stroke-miterlimit="10"/>
<path d="M312.867 312.662H288.867V336.662H312.867V312.662Z" stroke="white" stroke-width="0.75" stroke-miterlimit="10"/>
<path d="M336.867 312.662H312.867V336.662H336.867V312.662Z" stroke="white" stroke-width="0.75" stroke-miterlimit="10"/>
<path d="M360.867 312.662H336.867V336.662H360.867V312.662Z" stroke="white" stroke-width="0.75" stroke-miterlimit="10"/>
<path d="M384.867 312.662H360.867V336.662H384.867V312.662Z" stroke="white" stroke-width="0.75" stroke-miterlimit="10"/>
<path d="M408.867 312.662H384.867V336.662H408.867V312.662Z" stroke="white" stroke-width="0.75" stroke-miterlimit="10"/>
<path d="M432.867 312.662H408.867V336.662H432.867V312.662Z" stroke="white" stroke-width="0.75" stroke-miterlimit="10"/>
<path d="M456.867 312.662H432.867V336.662H456.867V312.662Z" stroke="white" stroke-width="0.75" stroke-miterlimit="10"/>
<path d="M480.867 312.662H456.867V336.662H480.867V312.662Z" stroke="white" stroke-width="0.75" stroke-miterlimit="10"/>
<path d="M504.867 312.662H480.867V336.662H504.867V312.662Z" stroke="white" stroke-width="0.75" stroke-miterlimit="10"/>
<path d="M528.867 312.662H504.867V336.662H528.867V312.662Z" stroke="white" stroke-width="0.75" stroke-miterlimit="10"/>
<path d="M552.867 312.662H528.867V336.662H552.867V312.662Z" stroke="white" stroke-width="0.75" stroke-miterlimit="10"/>
<path d="M24.8672 336.662H0.867188V360.662H24.8672V336.662Z" stroke="white" stroke-width="0.75" stroke-miterlimit="10"/>
<path d="M48.8672 336.662H24.8672V360.662H48.8672V336.662Z" stroke="white" stroke-width="0.75" stroke-miterlimit="10"/>
<path d="M72.8672 336.662H48.8672V360.662H72.8672V336.662Z" stroke="white" stroke-width="0.75" stroke-miterlimit="10"/>
<path d="M96.8672 336.662H72.8672V360.662H96.8672V336.662Z" stroke="white" stroke-width="0.75" stroke-miterlimit="10"/>
<path d="M120.867 336.662H96.8672V360.662H120.867V336.662Z" stroke="white" stroke-width="0.75" stroke-miterlimit="10"/>
<path d="M144.867 336.662H120.867V360.662H144.867V336.662Z" stroke="white" stroke-width="0.75" stroke-miterlimit="10"/>
<path d="M168.867 336.662H144.867V360.662H168.867V336.662Z" stroke="white" stroke-width="0.75" stroke-miterlimit="10"/>
<path d="M192.867 336.662H168.867V360.662H192.867V336.662Z" stroke="white" stroke-width="0.75" stroke-miterlimit="10"/>
<path d="M216.867 336.662H192.867V360.662H216.867V336.662Z" stroke="white" stroke-width="0.75" stroke-miterlimit="10"/>
<path d="M240.867 336.662H216.867V360.662H240.867V336.662Z" stroke="white" stroke-width="0.75" stroke-miterlimit="10"/>
<path d="M264.867 336.662H240.867V360.662H264.867V336.662Z" stroke="white" stroke-width="0.75" stroke-miterlimit="10"/>
<path d="M288.867 336.662H264.867V360.662H288.867V336.662Z" stroke="white" stroke-width="0.75" stroke-miterlimit="10"/>
<path d="M312.867 336.662H288.867V360.662H312.867V336.662Z" stroke="white" stroke-width="0.75" stroke-miterlimit="10"/>
<path d="M336.867 336.662H312.867V360.662H336.867V336.662Z" stroke="white" stroke-width="0.75" stroke-miterlimit="10"/>
<path d="M360.867 336.662H336.867V360.662H360.867V336.662Z" stroke="white" stroke-width="0.75" stroke-miterlimit="10"/>
<path d="M384.867 336.662H360.867V360.662H384.867V336.662Z" stroke="white" stroke-width="0.75" stroke-miterlimit="10"/>
<path d="M408.867 336.662H384.867V360.662H408.867V336.662Z" stroke="white" stroke-width="0.75" stroke-miterlimit="10"/>
<path d="M432.867 336.662H408.867V360.662H432.867V336.662Z" stroke="white" stroke-width="0.75" stroke-miterlimit="10"/>
<path d="M456.867 336.662H432.867V360.662H456.867V336.662Z" stroke="white" stroke-width="0.75" stroke-miterlimit="10"/>
<path d="M480.867 336.662H456.867V360.662H480.867V336.662Z" stroke="white" stroke-width="0.75" stroke-miterlimit="10"/>
<path d="M504.867 336.662H480.867V360.662H504.867V336.662Z" stroke="white" stroke-width="0.75" stroke-miterlimit="10"/>
<path d="M528.867 336.662H504.867V360.662H528.867V336.662Z" stroke="white" stroke-width="0.75" stroke-miterlimit="10"/>
<path d="M552.867 336.662H528.867V360.662H552.867V336.662Z" stroke="white" stroke-width="0.75" stroke-miterlimit="10"/>
<path d="M576.867 336.662H552.867V360.662H576.867V336.662Z" stroke="white" stroke-width="0.75" stroke-miterlimit="10"/>
<path d="M24.8672 360.662H0.867188V384.662H24.8672V360.662Z" stroke="white" stroke-width="0.75" stroke-miterlimit="10"/>
<path d="M48.8672 360.662H24.8672V384.662H48.8672V360.662Z" stroke="white" stroke-width="0.75" stroke-miterlimit="10"/>
<path d="M72.8672 360.662H48.8672V384.662H72.8672V360.662Z" stroke="white" stroke-width="0.75" stroke-miterlimit="10"/>
<path d="M96.8672 360.662H72.8672V384.662H96.8672V360.662Z" stroke="white" stroke-width="0.75" stroke-miterlimit="10"/>
<path d="M120.867 360.662H96.8672V384.662H120.867V360.662Z" stroke="white" stroke-width="0.75" stroke-miterlimit="10"/>
<path d="M144.867 360.662H120.867V384.662H144.867V360.662Z" stroke="white" stroke-width="0.75" stroke-miterlimit="10"/>
<path d="M168.867 360.662H144.867V384.662H168.867V360.662Z" stroke="white" stroke-width="0.75" stroke-miterlimit="10"/>
<path d="M192.867 360.662H168.867V384.662H192.867V360.662Z" stroke="white" stroke-width="0.75" stroke-miterlimit="10"/>
<path d="M216.867 360.662H192.867V384.662H216.867V360.662Z" stroke="white" stroke-width="0.75" stroke-miterlimit="10"/>
<path d="M240.867 360.662H216.867V384.662H240.867V360.662Z" stroke="white" stroke-width="0.75" stroke-miterlimit="10"/>
<path d="M264.867 360.662H240.867V384.662H264.867V360.662Z" stroke="white" stroke-width="0.75" stroke-miterlimit="10"/>
<path d="M288.867 360.662H264.867V384.662H288.867V360.662Z" stroke="white" stroke-width="0.75" stroke-miterlimit="10"/>
<path d="M312.867 360.662H288.867V384.662H312.867V360.662Z" stroke="white" stroke-width="0.75" stroke-miterlimit="10"/>
<path d="M336.867 360.662H312.867V384.662H336.867V360.662Z" stroke="white" stroke-width="0.75" stroke-miterlimit="10"/>
<path d="M360.867 360.662H336.867V384.662H360.867V360.662Z" stroke="white" stroke-width="0.75" stroke-miterlimit="10"/>
<path d="M384.867 360.662H360.867V384.662H384.867V360.662Z" stroke="white" stroke-width="0.75" stroke-miterlimit="10"/>
<path d="M408.867 360.662H384.867V384.662H408.867V360.662Z" stroke="white" stroke-width="0.75" stroke-miterlimit="10"/>
<path d="M432.867 360.662H408.867V384.662H432.867V360.662Z" stroke="white" stroke-width="0.75" stroke-miterlimit="10"/>
<path d="M456.867 360.662H432.867V384.662H456.867V360.662Z" stroke="white" stroke-width="0.75" stroke-miterlimit="10"/>
<path d="M480.867 360.662H456.867V384.662H480.867V360.662Z" stroke="white" stroke-width="0.75" stroke-miterlimit="10"/>
<path d="M504.867 360.662H480.867V384.662H504.867V360.662Z" stroke="white" stroke-width="0.75" stroke-miterlimit="10"/>
<path d="M528.867 360.662H504.867V384.662H528.867V360.662Z" stroke="white" stroke-width="0.75" stroke-miterlimit="10"/>
<path d="M48.8672 384.662H24.8672V408.662H48.8672V384.662Z" stroke="white" stroke-width="0.75" stroke-miterlimit="10"/>
<path d="M72.8672 384.662H48.8672V408.662H72.8672V384.662Z" stroke="white" stroke-width="0.75" stroke-miterlimit="10"/>
<path d="M96.8672 384.662H72.8672V408.662H96.8672V384.662Z" stroke="white" stroke-width="0.75" stroke-miterlimit="10"/>
<path d="M120.867 384.662H96.8672V408.662H120.867V384.662Z" stroke="white" stroke-width="0.75" stroke-miterlimit="10"/>
<path d="M144.867 384.662H120.867V408.662H144.867V384.662Z" stroke="white" stroke-width="0.75" stroke-miterlimit="10"/>
<path d="M168.867 384.662H144.867V408.662H168.867V384.662Z" stroke="white" stroke-width="0.75" stroke-miterlimit="10"/>
<path d="M192.867 384.662H168.867V408.662H192.867V384.662Z" stroke="white" stroke-width="0.75" stroke-miterlimit="10"/>
<path d="M216.867 384.662H192.867V408.662H216.867V384.662Z" stroke="white" stroke-width="0.75" stroke-miterlimit="10"/>
<path d="M240.867 384.662H216.867V408.662H240.867V384.662Z" stroke="white" stroke-width="0.75" stroke-miterlimit="10"/>
<path d="M264.867 384.662H240.867V408.662H264.867V384.662Z" stroke="white" stroke-width="0.75" stroke-miterlimit="10"/>
<path d="M288.867 384.662H264.867V408.662H288.867V384.662Z" stroke="white" stroke-width="0.75" stroke-miterlimit="10"/>
<path d="M312.867 384.662H288.867V408.662H312.867V384.662Z" stroke="white" stroke-width="0.75" stroke-miterlimit="10"/>
<path d="M336.867 384.662H312.867V408.662H336.867V384.662Z" stroke="white" stroke-width="0.75" stroke-miterlimit="10"/>
<path d="M360.867 384.662H336.867V408.662H360.867V384.662Z" stroke="white" stroke-width="0.75" stroke-miterlimit="10"/>
<path d="M384.867 384.662H360.867V408.662H384.867V384.662Z" stroke="white" stroke-width="0.75" stroke-miterlimit="10"/>
<path d="M408.867 384.662H384.867V408.662H408.867V384.662Z" stroke="white" stroke-width="0.75" stroke-miterlimit="10"/>
<path d="M432.867 384.662H408.867V408.662H432.867V384.662Z" stroke="white" stroke-width="0.75" stroke-miterlimit="10"/>
<path d="M456.867 384.662H432.867V408.662H456.867V384.662Z" stroke="white" stroke-width="0.75" stroke-miterlimit="10"/>
<path d="M480.867 384.662H456.867V408.662H480.867V384.662Z" stroke="white" stroke-width="0.75" stroke-miterlimit="10"/>
<path d="M504.867 384.662H480.867V408.662H504.867V384.662Z" stroke="white" stroke-width="0.75" stroke-miterlimit="10"/>
<path d="M48.8672 408.662H24.8672V432.662H48.8672V408.662Z" stroke="white" stroke-width="0.75" stroke-miterlimit="10"/>
<path d="M72.8672 408.662H48.8672V432.662H72.8672V408.662Z" stroke="white" stroke-width="0.75" stroke-miterlimit="10"/>
<path d="M96.8672 408.662H72.8672V432.662H96.8672V408.662Z" stroke="white" stroke-width="0.75" stroke-miterlimit="10"/>
<path d="M120.867 408.662H96.8672V432.662H120.867V408.662Z" stroke="white" stroke-width="0.75" stroke-miterlimit="10"/>
<path d="M144.867 408.662H120.867V432.662H144.867V408.662Z" stroke="white" stroke-width="0.75" stroke-miterlimit="10"/>
<path d="M168.867 408.662H144.867V432.662H168.867V408.662Z" stroke="white" stroke-width="0.75" stroke-miterlimit="10"/>
<path d="M192.867 408.662H168.867V432.662H192.867V408.662Z" stroke="white" stroke-width="0.75" stroke-miterlimit="10"/>
<path d="M216.867 408.662H192.867V432.662H216.867V408.662Z" stroke="white" stroke-width="0.75" stroke-miterlimit="10"/>
<path d="M240.867 408.662H216.867V432.662H240.867V408.662Z" stroke="white" stroke-width="0.75" stroke-miterlimit="10"/>
<path d="M264.867 408.662H240.867V432.662H264.867V408.662Z" stroke="white" stroke-width="0.75" stroke-miterlimit="10"/>
<path d="M288.867 408.662H264.867V432.662H288.867V408.662Z" stroke="white" stroke-width="0.75" stroke-miterlimit="10"/>
<path d="M312.867 408.662H288.867V432.662H312.867V408.662Z" stroke="white" stroke-width="0.75" stroke-miterlimit="10"/>
<path d="M336.867 408.662H312.867V432.662H336.867V408.662Z" stroke="white" stroke-width="0.75" stroke-miterlimit="10"/>
<path d="M360.867 408.662H336.867V432.662H360.867V408.662Z" stroke="white" stroke-width="0.75" stroke-miterlimit="10"/>
<path d="M384.867 408.662H360.867V432.662H384.867V408.662Z" stroke="white" stroke-width="0.75" stroke-miterlimit="10"/>
<path d="M408.867 408.662H384.867V432.662H408.867V408.662Z" stroke="white" stroke-width="0.75" stroke-miterlimit="10"/>
<path d="M432.867 408.662H408.867V432.662H432.867V408.662Z" stroke="white" stroke-width="0.75" stroke-miterlimit="10"/>
<path d="M456.867 408.662H432.867V432.662H456.867V408.662Z" stroke="white" stroke-width="0.75" stroke-miterlimit="10"/>
<path d="M480.867 408.662H456.867V432.662H480.867V408.662Z" stroke="white" stroke-width="0.75" stroke-miterlimit="10"/>
<path d="M504.867 408.662H480.867V432.662H504.867V408.662Z" stroke="white" stroke-width="0.75" stroke-miterlimit="10"/>
<path d="M24.8672 432.662H0.867188V456.662H24.8672V432.662Z" stroke="white" stroke-width="0.75" stroke-miterlimit="10"/>
<path d="M48.8672 432.662H24.8672V456.662H48.8672V432.662Z" stroke="white" stroke-width="0.75" stroke-miterlimit="10"/>
<path d="M72.8672 432.662H48.8672V456.662H72.8672V432.662Z" stroke="white" stroke-width="0.75" stroke-miterlimit="10"/>
<path d="M96.8672 432.662H72.8672V456.662H96.8672V432.662Z" stroke="white" stroke-width="0.75" stroke-miterlimit="10"/>
<path d="M120.867 432.662H96.8672V456.662H120.867V432.662Z" stroke="white" stroke-width="0.75" stroke-miterlimit="10"/>
<path d="M144.867 432.662H120.867V456.662H144.867V432.662Z" stroke="white" stroke-width="0.75" stroke-miterlimit="10"/>
<path d="M168.867 432.662H144.867V456.662H168.867V432.662Z" stroke="white" stroke-width="0.75" stroke-miterlimit="10"/>
<path d="M192.867 432.662H168.867V456.662H192.867V432.662Z" stroke="white" stroke-width="0.75" stroke-miterlimit="10"/>
<path d="M216.867 432.662H192.867V456.662H216.867V432.662Z" stroke="white" stroke-width="0.75" stroke-miterlimit="10"/>
<path d="M240.867 432.662H216.867V456.662H240.867V432.662Z" stroke="white" stroke-width="0.75" stroke-miterlimit="10"/>
<path d="M264.867 432.662H240.867V456.662H264.867V432.662Z" stroke="white" stroke-width="0.75" stroke-miterlimit="10"/>
<path d="M288.867 432.662H264.867V456.662H288.867V432.662Z" stroke="white" stroke-width="0.75" stroke-miterlimit="10"/>
<path d="M312.867 432.662H288.867V456.662H312.867V432.662Z" stroke="white" stroke-width="0.75" stroke-miterlimit="10"/>
<path d="M336.867 432.662H312.867V456.662H336.867V432.662Z" stroke="white" stroke-width="0.75" stroke-miterlimit="10"/>
<path d="M360.867 432.662H336.867V456.662H360.867V432.662Z" stroke="white" stroke-width="0.75" stroke-miterlimit="10"/>
<path d="M384.867 432.662H360.867V456.662H384.867V432.662Z" stroke="white" stroke-width="0.75" stroke-miterlimit="10"/>
<path d="M408.867 432.662H384.867V456.662H408.867V432.662Z" stroke="white" stroke-width="0.75" stroke-miterlimit="10"/>
<path d="M432.867 432.662H408.867V456.662H432.867V432.662Z" stroke="white" stroke-width="0.75" stroke-miterlimit="10"/>
<path d="M456.867 432.662H432.867V456.662H456.867V432.662Z" stroke="white" stroke-width="0.75" stroke-miterlimit="10"/>
<path d="M480.867 432.662H456.867V456.662H480.867V432.662Z" stroke="white" stroke-width="0.75" stroke-miterlimit="10"/>
<path d="M504.867 432.662H480.867V456.662H504.867V432.662Z" stroke="white" stroke-width="0.75" stroke-miterlimit="10"/>
<path d="M528.867 432.662H504.867V456.662H528.867V432.662Z" stroke="white" stroke-width="0.75" stroke-miterlimit="10"/>
<path d="M24.8672 456.662H0.867188V480.662H24.8672V456.662Z" stroke="white" stroke-width="0.75" stroke-miterlimit="10"/>
<path d="M48.8672 456.662H24.8672V480.662H48.8672V456.662Z" stroke="white" stroke-width="0.75" stroke-miterlimit="10"/>
<path d="M72.8672 456.662H48.8672V480.662H72.8672V456.662Z" stroke="white" stroke-width="0.75" stroke-miterlimit="10"/>
<path d="M96.8672 456.662H72.8672V480.662H96.8672V456.662Z" stroke="white" stroke-width="0.75" stroke-miterlimit="10"/>
<path d="M120.867 456.662H96.8672V480.662H120.867V456.662Z" stroke="white" stroke-width="0.75" stroke-miterlimit="10"/>
<path d="M144.867 456.662H120.867V480.662H144.867V456.662Z" stroke="white" stroke-width="0.75" stroke-miterlimit="10"/>
<path d="M168.867 456.662H144.867V480.662H168.867V456.662Z" stroke="white" stroke-width="0.75" stroke-miterlimit="10"/>
<path d="M192.867 456.662H168.867V480.662H192.867V456.662Z" stroke="white" stroke-width="0.75" stroke-miterlimit="10"/>
<path d="M216.867 456.662H192.867V480.662H216.867V456.662Z" stroke="white" stroke-width="0.75" stroke-miterlimit="10"/>
<path d="M240.867 456.662H216.867V480.662H240.867V456.662Z" stroke="white" stroke-width="0.75" stroke-miterlimit="10"/>
<path d="M264.867 456.662H240.867V480.662H264.867V456.662Z" stroke="white" stroke-width="0.75" stroke-miterlimit="10"/>
<path d="M288.867 456.662H264.867V480.662H288.867V456.662Z" stroke="white" stroke-width="0.75" stroke-miterlimit="10"/>
<path d="M312.867 456.662H288.867V480.662H312.867V456.662Z" stroke="white" stroke-width="0.75" stroke-miterlimit="10"/>
<path d="M336.867 456.662H312.867V480.662H336.867V456.662Z" stroke="white" stroke-width="0.75" stroke-miterlimit="10"/>
<path d="M360.867 456.662H336.867V480.662H360.867V456.662Z" stroke="white" stroke-width="0.75" stroke-miterlimit="10"/>
<path d="M384.867 456.662H360.867V480.662H384.867V456.662Z" stroke="white" stroke-width="0.75" stroke-miterlimit="10"/>
<path d="M408.867 456.662H384.867V480.662H408.867V456.662Z" stroke="white" stroke-width="0.75" stroke-miterlimit="10"/>
<path d="M432.867 456.662H408.867V480.662H432.867V456.662Z" stroke="white" stroke-width="0.75" stroke-miterlimit="10"/>
<path d="M456.867 456.662H432.867V480.662H456.867V456.662Z" stroke="white" stroke-width="0.75" stroke-miterlimit="10"/>
<path d="M480.867 456.662H456.867V480.662H480.867V456.662Z" stroke="white" stroke-width="0.75" stroke-miterlimit="10"/>
<path d="M504.867 456.662H480.867V480.662H504.867V456.662Z" stroke="white" stroke-width="0.75" stroke-miterlimit="10"/>
<path d="M528.867 456.662H504.867V480.662H528.867V456.662Z" stroke="white" stroke-width="0.75" stroke-miterlimit="10"/>
<path d="M24.8672 480.662H0.867188V504.662H24.8672V480.662Z" stroke="white" stroke-width="0.75" stroke-miterlimit="10"/>
<path d="M48.8672 480.662H24.8672V504.662H48.8672V480.662Z" stroke="white" stroke-width="0.75" stroke-miterlimit="10"/>
<path d="M72.8672 480.662H48.8672V504.662H72.8672V480.662Z" stroke="white" stroke-width="0.75" stroke-miterlimit="10"/>
<path d="M96.8672 480.662H72.8672V504.662H96.8672V480.662Z" stroke="white" stroke-width="0.75" stroke-miterlimit="10"/>
<path d="M120.867 480.662H96.8672V504.662H120.867V480.662Z" stroke="white" stroke-width="0.75" stroke-miterlimit="10"/>
<path d="M144.867 480.662H120.867V504.662H144.867V480.662Z" stroke="white" stroke-width="0.75" stroke-miterlimit="10"/>
<path d="M168.867 480.662H144.867V504.662H168.867V480.662Z" stroke="white" stroke-width="0.75" stroke-miterlimit="10"/>
<path d="M192.867 480.662H168.867V504.662H192.867V480.662Z" stroke="white" stroke-width="0.75" stroke-miterlimit="10"/>
<path d="M216.867 480.662H192.867V504.662H216.867V480.662Z" stroke="white" stroke-width="0.75" stroke-miterlimit="10"/>
<path d="M240.867 480.662H216.867V504.662H240.867V480.662Z" stroke="white" stroke-width="0.75" stroke-miterlimit="10"/>
<path d="M264.867 480.662H240.867V504.662H264.867V480.662Z" stroke="white" stroke-width="0.75" stroke-miterlimit="10"/>
<path d="M288.867 480.662H264.867V504.662H288.867V480.662Z" stroke="white" stroke-width="0.75" stroke-miterlimit="10"/>
<path d="M312.867 480.662H288.867V504.662H312.867V480.662Z" stroke="white" stroke-width="0.75" stroke-miterlimit="10"/>
<path d="M336.867 480.662H312.867V504.662H336.867V480.662Z" stroke="white" stroke-width="0.75" stroke-miterlimit="10"/>
<path d="M360.867 480.662H336.867V504.662H360.867V480.662Z" stroke="white" stroke-width="0.75" stroke-miterlimit="10"/>
<path d="M384.867 480.662H360.867V504.662H384.867V480.662Z" stroke="white" stroke-width="0.75" stroke-miterlimit="10"/>
<path d="M408.867 480.662H384.867V504.662H408.867V480.662Z" stroke="white" stroke-width="0.75" stroke-miterlimit="10"/>
<path d="M432.867 480.662H408.867V504.662H432.867V480.662Z" stroke="white" stroke-width="0.75" stroke-miterlimit="10"/>
<path d="M456.867 480.662H432.867V504.662H456.867V480.662Z" stroke="white" stroke-width="0.75" stroke-miterlimit="10"/>
<path d="M480.867 480.662H456.867V504.662H480.867V480.662Z" stroke="white" stroke-width="0.75" stroke-miterlimit="10"/>
<path d="M504.867 480.662H480.867V504.662H504.867V480.662Z" stroke="white" stroke-width="0.75" stroke-miterlimit="10"/>
<path d="M528.867 480.662H504.867V504.662H528.867V480.662Z" stroke="white" stroke-width="0.75" stroke-miterlimit="10"/>
<path d="M552.867 480.662H528.867V504.662H552.867V480.662Z" stroke="white" stroke-width="0.75" stroke-miterlimit="10"/>
<path d="M576.867 480.662H552.867V504.662H576.867V480.662Z" stroke="white" stroke-width="0.75" stroke-miterlimit="10"/>
<path d="M24.8672 504.662H0.867188V528.662H24.8672V504.662Z" stroke="white" stroke-width="0.75" stroke-miterlimit="10"/>
<path d="M48.8672 504.662H24.8672V528.662H48.8672V504.662Z" stroke="white" stroke-width="0.75" stroke-miterlimit="10"/>
<path d="M72.8672 504.662H48.8672V528.662H72.8672V504.662Z" stroke="white" stroke-width="0.75" stroke-miterlimit="10"/>
<path d="M96.8672 504.662H72.8672V528.662H96.8672V504.662Z" stroke="white" stroke-width="0.75" stroke-miterlimit="10"/>
<path d="M120.867 504.662H96.8672V528.662H120.867V504.662Z" stroke="white" stroke-width="0.75" stroke-miterlimit="10"/>
<path d="M144.867 504.662H120.867V528.662H144.867V504.662Z" stroke="white" stroke-width="0.75" stroke-miterlimit="10"/>
<path d="M168.867 504.662H144.867V528.662H168.867V504.662Z" stroke="white" stroke-width="0.75" stroke-miterlimit="10"/>
<path d="M192.867 504.662H168.867V528.662H192.867V504.662Z" stroke="white" stroke-width="0.75" stroke-miterlimit="10"/>
<path d="M216.867 504.662H192.867V528.662H216.867V504.662Z" stroke="white" stroke-width="0.75" stroke-miterlimit="10"/>
<path d="M240.867 504.662H216.867V528.662H240.867V504.662Z" stroke="white" stroke-width="0.75" stroke-miterlimit="10"/>
<path d="M264.867 504.662H240.867V528.662H264.867V504.662Z" stroke="white" stroke-width="0.75" stroke-miterlimit="10"/>
<path d="M288.867 504.662H264.867V528.662H288.867V504.662Z" stroke="white" stroke-width="0.75" stroke-miterlimit="10"/>
<path d="M312.867 504.662H288.867V528.662H312.867V504.662Z" stroke="white" stroke-width="0.75" stroke-miterlimit="10"/>
<path d="M336.867 504.662H312.867V528.662H336.867V504.662Z" stroke="white" stroke-width="0.75" stroke-miterlimit="10"/>
<path d="M360.867 504.662H336.867V528.662H360.867V504.662Z" stroke="white" stroke-width="0.75" stroke-miterlimit="10"/>
<path d="M384.867 504.662H360.867V528.662H384.867V504.662Z" stroke="white" stroke-width="0.75" stroke-miterlimit="10"/>
<path d="M408.867 504.662H384.867V528.662H408.867V504.662Z" stroke="white" stroke-width="0.75" stroke-miterlimit="10"/>
<path d="M432.867 504.662H408.867V528.662H432.867V504.662Z" stroke="white" stroke-width="0.75" stroke-miterlimit="10"/>
<path d="M456.867 504.662H432.867V528.662H456.867V504.662Z" stroke="white" stroke-width="0.75" stroke-miterlimit="10"/>
<path d="M480.867 504.662H456.867V528.662H480.867V504.662Z" stroke="white" stroke-width="0.75" stroke-miterlimit="10"/>
<path d="M504.867 504.662H480.867V528.662H504.867V504.662Z" stroke="white" stroke-width="0.75" stroke-miterlimit="10"/>
<path d="M528.867 504.662H504.867V528.662H528.867V504.662Z" stroke="white" stroke-width="0.75" stroke-miterlimit="10"/>
<path d="M552.867 504.662H528.867V528.662H552.867V504.662Z" stroke="white" stroke-width="0.75" stroke-miterlimit="10"/>
<path d="M576.867 504.662H552.867V528.662H576.867V504.662Z" stroke="white" stroke-width="0.75" stroke-miterlimit="10"/>
</g>
<rect x="0.867188" y="0.662109" width="576" height="528" stroke="#B6B6B7" stroke-width="0.75"/>
<defs>
<clipPath id="clip0_2314_32538">
<rect x="0.867188" y="0.662109" width="576" height="528" fill="white"/>
</clipPath>
</defs>
</svg>
