<svg xmlns="http://www.w3.org/2000/svg" width="61.651" height="17.13" viewBox="0 0 61.651 17.13">
  <g id="aave-logo-testimonial" opacity="0.698">
    <g id="aave-logo-testimonial-2" data-name="aave-logo-testimonial">
      <path id="Path_2431" data-name="Path 2431" d="M226.145,16.012,220.174,1.523a1.273,1.273,0,0,1-.074-.411,1.136,1.136,0,0,1,.291-.8A1.028,1.028,0,0,1,221.184,0,1.073,1.073,0,0,1,221.8.2a1.308,1.308,0,0,1,.422.542l5.68,14.175L233.584.747A1.307,1.307,0,0,1,234.012.2,1.073,1.073,0,0,1,234.628,0a1.027,1.027,0,0,1,.788.308,1.136,1.136,0,0,1,.3.8,1.276,1.276,0,0,1-.074.411l-5.971,14.489a1.6,1.6,0,0,1-1.5,1.113h-.531A1.6,1.6,0,0,1,226.145,16.012Z" transform="translate(-188.124 0.003)" fill="#212121"/>
      <path id="Path_2432" data-name="Path 2432" d="M342.008,17.367a1.062,1.062,0,0,1-.308-.776V1.919a1.118,1.118,0,0,1,.308-.8,1.021,1.021,0,0,1,.776-.32h9.705a.965.965,0,0,1,.731.308.988.988,0,0,1,.308.731.931.931,0,0,1-.308.719,1.028,1.028,0,0,1-.736.3H343.9V8.2h7.718a.965.965,0,0,1,.731.308,1.01,1.01,0,0,1,.308.731.931.931,0,0,1-.308.719,1.027,1.027,0,0,1-.731.3H343.9V15.62h8.58a.965.965,0,0,1,.736.308.988.988,0,0,1,.308.736.931.931,0,0,1-.308.719,1.028,1.028,0,0,1-.736.291h-9.7A.959.959,0,0,1,342.008,17.367Z" transform="translate(-291.878 -0.684)" fill="#212121"/>
      <path id="Path_2433" data-name="Path 2433" d="M139.36,15.6,133.383,1.113A1.6,1.6,0,0,0,131.893,0h-.525a1.6,1.6,0,0,0-1.5,1.113l-2.6,6.314h-1.97A1.079,1.079,0,0,0,124.237,8.5v.011a1.079,1.079,0,0,0,1.068,1.073h1.056L123.884,15.6a1.274,1.274,0,0,0-.074.411,1.136,1.136,0,0,0,.291.8,1.028,1.028,0,0,0,.794.308,1.073,1.073,0,0,0,.617-.206,1.307,1.307,0,0,0,.422-.542l2.734-6.793h1.878a1.079,1.079,0,0,0,1.068-1.073V8.483a1.079,1.079,0,0,0-1.068-1.073H129.53l2.1-5.206,5.68,14.175a1.307,1.307,0,0,0,.422.542,1.073,1.073,0,0,0,.617.206,1.028,1.028,0,0,0,.8-.308,1.136,1.136,0,0,0,.285-.8.971.971,0,0,0-.068-.411Z" transform="translate(-105.957 0.002)" fill="#212121"/>
      <path id="Path_2434" data-name="Path 2434" d="M17.756,15.6,11.784,1.113A1.6,1.6,0,0,0,10.283,0H9.758a1.6,1.6,0,0,0-1.5,1.113l-2.6,6.314H3.7A1.079,1.079,0,0,0,2.628,8.5v.011A1.079,1.079,0,0,0,3.7,9.585H4.751L2.274,15.6a1.273,1.273,0,0,0-.074.411,1.136,1.136,0,0,0,.291.8,1.028,1.028,0,0,0,.794.308,1.073,1.073,0,0,0,.617-.206,1.307,1.307,0,0,0,.422-.542L7.058,9.585h1.89A1.079,1.079,0,0,0,10.02,8.512V8.483A1.079,1.079,0,0,0,8.947,7.41H7.937L10.02,2.2,15.7,16.379a1.307,1.307,0,0,0,.422.542,1.073,1.073,0,0,0,.617.206,1.028,1.028,0,0,0,.8-.308,1.136,1.136,0,0,0,.285-.8A.971.971,0,0,0,17.756,15.6Z" transform="translate(-2.198 0.002)" fill="#212121"/>
    </g>
  </g>
</svg>
