<svg id="aave-logo" xmlns="http://www.w3.org/2000/svg" width="300" height="100" viewBox="0 0 300 100">
  <rect id="_300x100" data-name="300x100" width="300" height="100" fill="none"/>
  <g id="aave" transform="translate(99 34)">
    <path id="Path_2431" data-name="Path 2431" d="M230.176,26.688,220.224,2.54a2.121,2.121,0,0,1-.124-.685,1.893,1.893,0,0,1,.485-1.342A1.713,1.713,0,0,1,221.908,0a1.789,1.789,0,0,1,1.028.343,2.18,2.18,0,0,1,.7.9l9.467,23.625,9.467-23.625a2.179,2.179,0,0,1,.714-.9A1.788,1.788,0,0,1,244.315,0a1.712,1.712,0,0,1,1.313.514,1.893,1.893,0,0,1,.495,1.342A2.126,2.126,0,0,1,246,2.54l-9.952,24.148a2.673,2.673,0,0,1-2.493,1.855h-.885A2.674,2.674,0,0,1,230.176,26.688Z" transform="translate(-166.807 0.003)" fill="#212121"/>
    <path id="Path_2432" data-name="Path 2432" d="M342.214,28.411a1.77,1.77,0,0,1-.514-1.294V2.665a1.865,1.865,0,0,1,.514-1.332A1.7,1.7,0,0,1,343.508.8h16.175a1.609,1.609,0,0,1,1.218.514,1.646,1.646,0,0,1,.514,1.218,1.551,1.551,0,0,1-.514,1.2,1.714,1.714,0,0,1-1.228.495h-14.3v8.906h12.864a1.608,1.608,0,0,1,1.218.514,1.684,1.684,0,0,1,.514,1.218,1.551,1.551,0,0,1-.514,1.2,1.712,1.712,0,0,1-1.218.495H345.373V25.5h14.3a1.609,1.609,0,0,1,1.228.514,1.646,1.646,0,0,1,.514,1.227,1.551,1.551,0,0,1-.514,1.2,1.713,1.713,0,0,1-1.228.485H343.508A1.6,1.6,0,0,1,342.214,28.411Z" transform="translate(-258.664 -0.607)" fill="#212121"/>
    <path id="Path_2433" data-name="Path 2433" d="M149.728,26,139.766,1.855A2.674,2.674,0,0,0,137.283,0h-.875a2.674,2.674,0,0,0-2.493,1.855l-4.329,10.523H126.3a1.8,1.8,0,0,0-1.779,1.789v.019a1.8,1.8,0,0,0,1.779,1.789h1.76L123.934,26a2.124,2.124,0,0,0-.124.685,1.894,1.894,0,0,0,.485,1.342,1.713,1.713,0,0,0,1.323.514,1.789,1.789,0,0,0,1.028-.343,2.178,2.178,0,0,0,.7-.9l4.557-11.322h3.13a1.8,1.8,0,0,0,1.779-1.789v-.048a1.8,1.8,0,0,0-1.779-1.789h-1.694l3.5-8.677L146.312,27.3a2.178,2.178,0,0,0,.7.9,1.789,1.789,0,0,0,1.028.343,1.713,1.713,0,0,0,1.332-.514,1.894,1.894,0,0,0,.476-1.342,1.618,1.618,0,0,0-.114-.685Z" transform="translate(-94.056 0.003)" fill="#212121"/>
    <path id="Path_2434" data-name="Path 2434" d="M28.127,26,18.175,1.855A2.674,2.674,0,0,0,15.673,0H14.8A2.674,2.674,0,0,0,12.3,1.855L7.975,12.379H4.693a1.8,1.8,0,0,0-1.779,1.789v.019a1.8,1.8,0,0,0,1.779,1.789h1.76L2.324,26a2.122,2.122,0,0,0-.124.685,1.893,1.893,0,0,0,.485,1.342,1.713,1.713,0,0,0,1.323.514A1.789,1.789,0,0,0,5.035,28.2a2.179,2.179,0,0,0,.7-.9L10.3,15.975h3.149a1.8,1.8,0,0,0,1.789-1.789v-.048a1.8,1.8,0,0,0-1.789-1.789H11.762l3.473-8.677L24.7,27.3a2.179,2.179,0,0,0,.7.9,1.789,1.789,0,0,0,1.028.343,1.713,1.713,0,0,0,1.332-.514,1.893,1.893,0,0,0,.476-1.342A1.618,1.618,0,0,0,28.127,26Z" transform="translate(-2.198 0.003)" fill="#212121"/>
  </g>
</svg>
