<svg xmlns="http://www.w3.org/2000/svg" width="120.4" height="33.346" viewBox="0 0 120.4 33.346">
  <g id="aone-logo-testimonial" transform="translate(1 1.036)" opacity="0.698">
    <g id="aragon-one">
      <path id="Trazado_10" data-name="Trazado 10" d="M14.422,32.248l13.385-7.881V4.728L14.422,1.1,1.1,4.728V24.3Z" transform="translate(-1.1 -1.1)" fill="none" stroke="#272727" stroke-width="2"/>
      <path id="Trazado_11" data-name="Trazado 11" d="M25.36,27.025,19.606,10.2H17.354L11.6,27.025h2.439l2.689-8.194,1.751-5.379,2.314,7.255.063.188H17.229l4.5,2.752,1.126,3.315,2.5.063Z" transform="translate(-5.033 -4.508)" fill="#272727"/>
      <g id="Grupo_6" data-name="Grupo 6" transform="translate(36.026 8.756)">
        <path id="Trazado_12" data-name="Trazado 12" d="M133.576,25.495H132.2V15.3h1.251c.125,0,.25.188.313.313,1.313,2.252,2.564,4.5,3.815,6.755.063.125.125.188.25.438V15.3h1.376V25.495h-1.188c-.125,0-.313-.188-.375-.313-1.313-2.252-2.627-4.566-3.878-6.817-.063-.063-.063-.188-.188-.25Z" transform="translate(-86.229 -15.175)" fill="#272727"/>
        <path id="Trazado_13" data-name="Trazado 13" d="M174.305,25.395c-.063,0-.125,0-.125.063-1.251.063-1.251.063-1.814-1-1.126-2.064-2.314-4.065-3.44-6.129-.063-.125-.125-.188-.25-.438v7.506H167.3V15.2h1.188c.125,0,.313.188.375.313,1.251,2.252,2.564,4.5,3.815,6.755a3.588,3.588,0,0,0,.25.438V15.2h1.376C174.305,18.64,174.305,22.018,174.305,25.395Z" transform="translate(-99.375 -15.137)" fill="#272727"/>
        <path id="Trazado_14" data-name="Trazado 14" d="M81.818,25.395h-.125c-1.439.063-1.439.063-2.064-1.188-.438-.876-.876-1.751-1.251-2.627-.063-.188-.188-.25-.438-.25h-2v4.128H74.5V15.263a.793.793,0,0,0,.375-.063h4.441a1.712,1.712,0,0,1,1.876,1.876v2.189c0,1.188-.188,1.564-1.313,2.064C80.5,22.706,81.13,24.019,81.818,25.395Zm-5.879-5.441h3.19c.375,0,.563-.313.563-.688v-2c0-.5-.25-.688-.751-.751h-3Z" transform="translate(-64.618 -15.137)" fill="#272727"/>
        <path id="Trazado_15" data-name="Trazado 15" d="M159.355,20.391v3.252a1.676,1.676,0,0,1-1.814,1.814h-3.127a1.676,1.676,0,0,1-1.814-1.814v-6.63a1.676,1.676,0,0,1,1.814-1.814h3.127a1.676,1.676,0,0,1,1.814,1.814Zm-1.439-.063V17.264a.663.663,0,0,0-.751-.751h-2.377c-.563,0-.751.25-.751.813v5.942c0,.563.25.751.813.813H157.1c.625,0,.876-.188.876-.813C157.916,22.33,157.916,21.329,157.916,20.329Z" transform="translate(-93.869 -15.137)" fill="#272727"/>
        <path id="Trazado_16" data-name="Trazado 16" d="M117.5,20.366V17.114a1.647,1.647,0,0,1,1.814-1.814h3.127a1.676,1.676,0,0,1,1.814,1.814v6.692a1.63,1.63,0,0,1-1.814,1.751h-3.19a1.642,1.642,0,0,1-1.751-1.751Zm5.316,0v-3c0-.563-.25-.751-.751-.751h-2.377a.663.663,0,0,0-.751.751v6.067a.663.663,0,0,0,.751.751h2.252c.625,0,.813-.188.813-.813C122.816,22.305,122.816,21.367,122.816,20.366Z" transform="translate(-80.723 -15.175)" fill="#272727"/>
        <path id="Trazado_17" data-name="Trazado 17" d="M108.729,21.48H106.79V20.166H110.1c0,.063.063.188.063.25v3.127a1.676,1.676,0,0,1-1.814,1.814h-3a1.642,1.642,0,0,1-1.751-1.751V16.851a1.66,1.66,0,0,1,1.689-1.751h3.127a1.642,1.642,0,0,1,1.751,1.751c0,1.063,0,1.063-1,1.188-.125,0-.25.063-.438.063v-.938a.663.663,0,0,0-.751-.751h-2.189c-.563,0-.751.25-.751.751v6.067a.663.663,0,0,0,.751.751h2.252a.626.626,0,0,0,.688-.688Z" transform="translate(-75.517 -15.1)" fill="#272727"/>
        <path id="Trazado_18" data-name="Trazado 18" d="M182.5,25.495V15.3h5.942v1.313h-4.5v3H188v1.376h-4.065v3.19h4.5v1.313Z" transform="translate(-105.068 -15.175)" fill="#272727"/>
        <path id="Trazado_19" data-name="Trazado 19" d="M96.619,25.495H95.368c-.063,0-.188-.125-.25-.188s-.063-.188-.125-.25a2.866,2.866,0,0,0-1.876-2.314,11.2,11.2,0,0,1-1.376-.813h2.189c-.5-1.564-.938-3-1.439-4.628-.125.438-.25.813-.375,1.188-.751,2.252-1.439,4.5-2.189,6.755a.366.366,0,0,1-.5.313H88.3c.313-1,.688-1.939,1-2.94.751-2.314,1.564-4.566,2.314-6.88.125-.313.25-.438.563-.438.938,0,1,0,1.251.876l3,8.819C96.556,25.12,96.556,25.307,96.619,25.495Z" transform="translate(-69.786 -15.175)" fill="#272727"/>
        <path id="Trazado_20" data-name="Trazado 20" d="M62.265,21.767h2c-.5-1.5-.938-3-1.439-4.566a3.049,3.049,0,0,1-.188.438c-.813,2.5-1.626,4.941-2.377,7.443-.063.313-.188.375-.5.375H58.7c0-.125.063-.188.063-.313,1.063-3.19,2.127-6.38,3.252-9.57a.487.487,0,0,1,.563-.375c.938,0,.938,0,1.251.938,1,3,2,5.942,3,8.944a2.608,2.608,0,0,1,.125.375H65.705a.269.269,0,0,1-.25-.25c-.188-.438-.313-.938-.5-1.439a1.505,1.505,0,0,0-.375-.5c-.751-.5-1.5-.938-2.252-1.439A.061.061,0,0,1,62.265,21.767Z" transform="translate(-58.7 -15.137)" fill="#272727"/>
      </g>
    </g>
  </g>
</svg>
