<svg xmlns="http://www.w3.org/2000/svg" width="47.826" height="14.529" viewBox="0 0 47.826 14.529">
  <g id="celer-logo-testimonial" opacity="0.698">
    <g id="celer-logo-testimonial-2" data-name="celer-logo-testimonial">
      <path id="Combined-Shape" d="M84.407,45.507c.386-1.054,2-1.554,2.976-1.554h.443v2.338a5.063,5.063,0,0,0-1.655.153,2.044,2.044,0,0,0-.948.642,2.322,2.322,0,0,0-.451,1.564c-.034.558-.018.939-.018,1.5V54.3H82.2V44.058h2.215ZM53.331,51.871a7.748,7.748,0,0,1-6.011,2.659A6.992,6.992,0,0,1,40,47.245,7.13,7.13,0,0,1,47.362,40a7.96,7.96,0,0,1,6.03,2.775l-1.852,1.773A5.662,5.662,0,0,0,47.3,42.524a4.656,4.656,0,0,0-4.719,4.721A4.577,4.577,0,0,0,47.359,52a5.53,5.53,0,0,0,4.18-2Zm10.967.382a5.774,5.774,0,1,1,.693-2.963c0,.232-.018.347-.018.578H56.727a2.737,2.737,0,0,0,2.87,2.37,3.309,3.309,0,0,0,2.543-1ZM62.41,47.84a2.975,2.975,0,0,0-5.569,0Zm3.879-7.785H68.85V54.242H66.289ZM80.2,52.253A5.772,5.772,0,1,1,80.9,49.29c0,.232-.02.347-.02.578H72.633a2.737,2.737,0,0,0,2.87,2.37,3.307,3.307,0,0,0,2.543-1ZM78.316,47.84a2.975,2.975,0,0,0-5.569,0Z" transform="translate(-40 -40)" fill-rule="evenodd"/>
    </g>
  </g>
</svg>
