<svg xmlns="http://www.w3.org/2000/svg" width="99.323" height="21.127" viewBox="0 0 99.323 21.127">
  <g id="connext-logo-testimonial" opacity="0.698">
    <g id="connext">
      <path id="Trazado_24" data-name="Trazado 24" d="M38.528,271.8h-.182a2.8,2.8,0,0,0-2.018.844,4.081,4.081,0,0,1-5.774-.165l-.1-.1a4.257,4.257,0,0,1-.132-5.691,4.19,4.19,0,0,1,5.939-.165l.05.05a2.815,2.815,0,0,0,1.952.844H38.5a.777.777,0,0,0,.778-.778.769.769,0,0,0-.1-.381.6.6,0,0,1,.182-.778l1.654-1.654a1.263,1.263,0,0,0-1.787-1.787l-1.423,1.39a1.253,1.253,0,0,1-1.472.232,6.659,6.659,0,0,0-5.873,0,1.283,1.283,0,0,1-1.472-.232l-1.373-1.406a1.263,1.263,0,0,0-1.787,1.787l1.406,1.406a1.253,1.253,0,0,1,.232,1.472,6.659,6.659,0,0,0,0,5.873,1.283,1.283,0,0,1-.232,1.472l-1.406,1.373a1.263,1.263,0,1,0,1.787,1.787l1.406-1.406a1.253,1.253,0,0,1,1.472-.232,6.66,6.66,0,0,0,5.873,0,1.283,1.283,0,0,1,1.472.232l1.406,1.406a1.263,1.263,0,1,0,1.787-1.787l-1.654-1.654a.564.564,0,0,1-.182-.778v-.017a.788.788,0,0,0-.314-1.059A.612.612,0,0,0,38.528,271.8Z" transform="translate(-25.45 -261.65)" fill="#212121"/>
      <path id="Trazado_25" data-name="Trazado 25" d="M60.02,298.749H60.2a2.8,2.8,0,0,0,2.018-.844,4.081,4.081,0,0,1,5.774.165l.1.1a4.257,4.257,0,0,1,.132,5.691,4.19,4.19,0,0,1-5.939.165l-.05-.05a2.815,2.815,0,0,0-1.952-.844h-.232a.777.777,0,0,0-.778.778.769.769,0,0,0,.1.38.6.6,0,0,1-.165.794l-1.654,1.654a1.263,1.263,0,1,0,1.787,1.787l1.406-1.406a1.253,1.253,0,0,1,1.472-.232,6.659,6.659,0,0,0,5.873,0,1.283,1.283,0,0,1,1.472.232l1.406,1.39a1.263,1.263,0,0,0,1.787-1.787l-1.406-1.406a1.253,1.253,0,0,1-.232-1.472,6.659,6.659,0,0,0,0-5.873,1.283,1.283,0,0,1,.232-1.472l1.373-1.39a1.263,1.263,0,1,0-1.787-1.787l-1.406,1.406a1.253,1.253,0,0,1-1.472.232,6.66,6.66,0,0,0-5.873,0,1.283,1.283,0,0,1-1.472-.232l-1.406-1.406a1.263,1.263,0,1,0-1.787,1.787l1.671,1.654a.548.548,0,0,1,.149.778.788.788,0,0,0,.314,1.059A.5.5,0,0,0,60.02,298.749Z" transform="translate(-51.905 -287.772)" fill="#212121"/>
      <path id="Trazado_26" data-name="Trazado 26" d="M218.721,293.944a4.864,4.864,0,1,0,4.864,4.864,4.872,4.872,0,0,0-4.864-4.864Zm0,8.322a3.441,3.441,0,1,1,3.441-3.441,3.439,3.439,0,0,1-3.441,3.441Zm11.581-8.322a4.913,4.913,0,0,0-3.474,1.324v-.629a.726.726,0,0,0-.662-.744.715.715,0,0,0-.744.662v8.338a.726.726,0,0,0,.662.745.715.715,0,0,0,.744-.662v-4.235a3.29,3.29,0,0,1,2.928-3.375,3.456,3.456,0,0,1,3.822,3.044,2.929,2.929,0,0,1,.017.381v4.12a.739.739,0,0,0,.662.745.715.715,0,0,0,.744-.662v-4.07A4.907,4.907,0,0,0,230.3,293.944Zm11.432,0a4.913,4.913,0,0,0-3.474,1.324v-.629a.726.726,0,0,0-.662-.744.715.715,0,0,0-.744.662v8.338a.753.753,0,0,0,.662.761.715.715,0,0,0,.745-.662v-4.235a3.29,3.29,0,0,1,2.928-3.375,3.456,3.456,0,0,1,3.822,3.044,2.93,2.93,0,0,1,.017.381v4.12a.739.739,0,0,0,.662.745.715.715,0,0,0,.744-.662v-4.086a4.919,4.919,0,0,0-4.7-4.98Zm31.335,8.322h-.645a1.214,1.214,0,0,1-1.208-1.208v-5.526h1.654a.711.711,0,0,0,0-1.423h-1.654v-2.978a.726.726,0,0,0-.662-.745.716.716,0,0,0-.761.645v3.094h-1.158a.711.711,0,1,0,0,1.423h1.158v5.559a2.584,2.584,0,0,0,2.581,2.581h.728a.7.7,0,0,0,.711-.695v-.033A.741.741,0,0,0,273.069,302.266Zm-9.579-3.392,2.928-3.64a.706.706,0,0,0-1.092-.893l-2.763,3.425-2.763-3.425a.708.708,0,0,0-.993-.1.688.688,0,0,0-.1.976l2.928,3.64-2.928,3.64a.705.705,0,0,0,1.092.893l2.763-3.425,2.763,3.425a.708.708,0,0,0,.993.1.688.688,0,0,0,.1-.976Zm-52.247,2.449a3.441,3.441,0,1,1-1.108-5.724,3.508,3.508,0,0,1,1.009.612.738.738,0,0,0,.943.165.724.724,0,0,0,.3-.794c-.1-.347-.5-.579-.761-.778a4.859,4.859,0,1,0-.066,8.09,2.152,2.152,0,0,0,.827-.761.741.741,0,0,0-.215-.844A.686.686,0,0,0,211.243,301.323Zm46.506-2.8a4.452,4.452,0,0,0-.232-1.241,4.86,4.86,0,1,0-3.094,6.138,4.4,4.4,0,0,0,1.274-.645c.381-.265.86-.629.711-1.158a.684.684,0,0,0-.86-.463.649.649,0,0,0-.232.132,4.327,4.327,0,0,1-1.539.877,3.449,3.449,0,0,1-4.186-2.4h6.386c.5,0,1.092.1,1.472-.248A1.148,1.148,0,0,0,257.749,298.527Zm-7.428-.182h-.844a1.176,1.176,0,0,1,.066-.331,3.441,3.441,0,0,1,4.02-2.713,3.39,3.39,0,0,1,2.746,3.028h-5.989Z" transform="translate(-174.49 -285.631)" fill="#212121"/>
    </g>
  </g>
</svg>
