<svg xmlns="http://www.w3.org/2000/svg" width="120" height="20.127" viewBox="0 0 120 20.127">
  <g id="decentraland-logo-testimonial" opacity="0.698">
    <g id="decentraland-logo-testimonial-2" data-name="decentraland-logo-testimonial" transform="translate(0)">
      <g id="Buidler-Web-v1" transform="translate(0)">
        <g id="Used-By" transform="translate(0)">
          <g id="Group-2">
            <g id="decentraland">
              <path id="_144" data-name="144" d="M7.13,5.978.684,13.711a10.063,10.063,0,1,1,19.442-3.648,10.042,10.042,0,0,1-3.552,7.673H3.552A10.531,10.531,0,0,1,2.013,16.1H13.505V11.744L17.133,16.1h.981L13.5,10.567,12.227,12.1ZM13.5,4.025a2.516,2.516,0,1,0,2.516,2.516A2.517,2.517,0,0,0,13.5,4.025ZM7.13,2.2A1.258,1.258,0,1,0,8.388,3.462,1.258,1.258,0,0,0,7.13,2.2ZM4.564,18.491h11a10.066,10.066,0,0,1-11,0Zm7.175-5.807L9.52,15.347H1.5a10.115,10.115,0,0,1-.815-1.635H7.13V7.155Z" transform="translate(0 0)" fill="#212121"/>
              <path id="Decentraland-2" data-name="Decentraland" d="M47.432,7.6H51.51c3.291,0,5.239,1.984,5.239,5.458s-1.94,5.512-5.239,5.512H47.432ZM49.4,9.257v7.655h1.9c2.215,0,3.437-1.346,3.437-3.847,0-2.455-1.237-3.809-3.437-3.809Zm12.318,2.364a1.994,1.994,0,0,0-2.008,1.992h3.956A1.9,1.9,0,0,0,61.721,11.621ZM63.676,16.1h1.787c-.244,1.536-1.726,2.592-3.673,2.592-2.467,0-3.994-1.627-3.994-4.242s1.535-4.3,3.925-4.3c2.337,0,3.818,1.589,3.818,4.105v.623H59.7v.114a2.061,2.061,0,0,0,2.131,2.227A1.813,1.813,0,0,0,63.676,16.1Zm10.447-2.9H72.328a1.751,1.751,0,0,0-1.863-1.513c-1.252,0-2.07,1.049-2.07,2.722,0,1.726.825,2.737,2.077,2.737a1.723,1.723,0,0,0,1.863-1.467h1.795c-.16,1.817-1.588,3.01-3.673,3.01-2.421,0-3.994-1.627-3.994-4.28,0-2.6,1.566-4.265,3.979-4.265A3.384,3.384,0,0,1,74.123,13.2Zm4.758-1.581a1.994,1.994,0,0,0-2.008,1.992h3.956A1.9,1.9,0,0,0,78.881,11.621ZM80.836,16.1h1.787c-.244,1.536-1.726,2.592-3.673,2.592-2.467,0-3.994-1.627-3.994-4.242s1.535-4.3,3.925-4.3c2.337,0,3.818,1.589,3.818,4.105v.623H76.857v.114a2.061,2.061,0,0,0,2.131,2.227A1.813,1.813,0,0,0,80.836,16.1Zm3.139,2.471V10.26H85.8V11.7h.038a2.66,2.66,0,0,1,2.619-1.543c1.848,0,2.9,1.163,2.9,3.086V18.57h-1.9V13.621c0-1.186-.565-1.855-1.711-1.855A1.83,1.83,0,0,0,85.876,13.8V18.57Zm9.5-10.164h1.9V10.26h1.581v1.467H95.376v4.379a.882.882,0,0,0,1.008,1.011,5.517,5.517,0,0,0,.565-.038v1.452a5.438,5.438,0,0,1-1,.076c-1.772,0-2.474-.639-2.474-2.243V11.728H92.337V10.26h1.138ZM98.3,18.57V10.26h1.825V11.7h.038a1.981,1.981,0,0,1,2-1.536,2.14,2.14,0,0,1,.611.076v1.718a2.5,2.5,0,0,0-.787-.106A1.7,1.7,0,0,0,100.2,13.75v4.82Zm8.332-1.361a1.841,1.841,0,0,0,2.031-1.726v-.631l-1.909.122c-1.039.068-1.588.464-1.588,1.14S105.747,17.209,106.633,17.209Zm-.557,1.452a2.543,2.543,0,0,1-2.818-2.471c0-1.482,1.138-2.326,3.238-2.455l2.169-.129V13c0-.882-.6-1.361-1.619-1.361a1.5,1.5,0,0,0-1.611,1.118h-1.756c.046-1.52,1.466-2.608,3.429-2.608,2.085,0,3.437,1.079,3.437,2.729V18.57h-1.825V17.232h-.046A2.883,2.883,0,0,1,106.076,18.661Zm6.125-.091V7.09h1.9V18.57Zm6.606-1.361a1.841,1.841,0,0,0,2.031-1.726v-.631l-1.909.122c-1.039.068-1.588.464-1.588,1.14S117.92,17.209,118.806,17.209Zm-.558,1.452a2.543,2.543,0,0,1-2.818-2.471c0-1.482,1.138-2.326,3.238-2.455l2.169-.129V13c0-.882-.6-1.361-1.619-1.361a1.5,1.5,0,0,0-1.611,1.118h-1.756c.046-1.52,1.466-2.608,3.429-2.608,2.085,0,3.437,1.079,3.437,2.729V18.57h-1.825V17.232h-.046A2.883,2.883,0,0,1,118.249,18.661Zm6.064-.091V10.26h1.825V11.7h.038a2.66,2.66,0,0,1,2.619-1.543c1.848,0,2.9,1.163,2.9,3.086V18.57h-1.9V13.621c0-1.186-.565-1.855-1.711-1.855a1.83,1.83,0,0,0-1.871,2.037V18.57Zm12.089.091c-2.085,0-3.475-1.665-3.475-4.25s1.4-4.242,3.467-4.242a2.759,2.759,0,0,1,2.6,1.49h.046V7.09h1.9V18.57h-1.863V17.156h-.038A2.8,2.8,0,0,1,136.4,18.661Zm.557-6.918c-1.26,0-2.085,1.049-2.085,2.676s.825,2.668,2.085,2.668,2.085-1.057,2.085-2.668S138.211,11.743,136.959,11.743Z" transform="translate(-20.938 -3.037)" fill="#212121"/>
            </g>
          </g>
        </g>
      </g>
    </g>
  </g>
</svg>
