<svg id="decentraland-logo" xmlns="http://www.w3.org/2000/svg" width="300" height="100" viewBox="0 0 300 100">
  <rect id="_300x100" data-name="300x100" width="300" height="100" fill="none"/>
  <g id="Page-1" transform="translate(48 33.5)">
    <g id="Buidler-Web-v1" transform="translate(0)">
      <g id="Used-By" transform="translate(0)">
        <g id="Group-2">
          <g id="decentraland">
            <path id="_144" data-name="144" d="M11.883,9.963,1.141,22.852a16.772,16.772,0,1,1,32.4-6.08,16.736,16.736,0,0,1-5.921,12.789H5.921a17.552,17.552,0,0,1-2.566-2.725H22.508V19.573l6.046,7.262H30.19L22.5,17.611,20.378,20.16ZM22.5,6.709A4.193,4.193,0,1,0,26.693,10.9,4.195,4.195,0,0,0,22.5,6.709ZM11.883,3.673a2.1,2.1,0,1,0,2.1,2.1A2.1,2.1,0,0,0,11.883,3.673ZM7.606,30.819H25.938a16.776,16.776,0,0,1-18.332,0Zm11.959-9.678-3.7,4.436H2.5a16.858,16.858,0,0,1-1.359-2.725H11.883V11.925Z" transform="translate(0 0)" fill="#212121"/>
            <path id="Decentraland-2" data-name="Decentraland" d="M47.432,7.939h6.8c5.486,0,8.731,3.307,8.731,9.1s-3.233,9.186-8.731,9.186h-6.8ZM50.716,10.7V23.46h3.169c3.691,0,5.728-2.243,5.728-6.411,0-4.092-2.062-6.348-5.728-6.348Zm20.53,3.94a3.323,3.323,0,0,0-3.347,3.32h6.593A3.165,3.165,0,0,0,71.246,14.642ZM74.5,22.1h2.978c-.407,2.559-2.877,4.321-6.122,4.321-4.111,0-6.657-2.711-6.657-7.07s2.558-7.171,6.542-7.171c3.895,0,6.364,2.648,6.364,6.842v1.039H67.874v.19a3.435,3.435,0,0,0,3.551,3.712A3.022,3.022,0,0,0,74.5,22.1Zm17.412-4.827H88.926a2.918,2.918,0,0,0-3.106-2.521c-2.087,0-3.449,1.748-3.449,4.536,0,2.876,1.375,4.561,3.462,4.561a2.872,2.872,0,0,0,3.106-2.445H91.93c-.267,3.028-2.647,5.017-6.122,5.017-4.035,0-6.657-2.711-6.657-7.133,0-4.333,2.609-7.108,6.631-7.108C89.422,12.184,91.7,14.426,91.917,17.277Zm7.93-2.635a3.323,3.323,0,0,0-3.347,3.32h6.593A3.165,3.165,0,0,0,99.846,14.642ZM103.1,22.1h2.978c-.407,2.559-2.877,4.321-6.122,4.321-4.111,0-6.657-2.711-6.657-7.07s2.558-7.171,6.542-7.171c3.895,0,6.364,2.648,6.364,6.842v1.039H96.473v.19a3.435,3.435,0,0,0,3.551,3.712A3.022,3.022,0,0,0,103.1,22.1Zm5.231,4.118V12.374h3.042v2.407h.064a4.434,4.434,0,0,1,4.366-2.572c3.08,0,4.837,1.939,4.837,5.144v8.869h-3.169V17.974c0-1.977-.942-3.092-2.851-3.092-1.947,0-3.118,1.368-3.118,3.4v7.944ZM124.17,9.282h3.169v3.092h2.635v2.445h-2.635v7.3a1.471,1.471,0,0,0,1.68,1.685,9.2,9.2,0,0,0,.942-.063v2.42a9.063,9.063,0,0,1-1.667.127c-2.953,0-4.124-1.064-4.124-3.738V14.819h-1.9V12.374h1.9Zm8.044,16.94V12.374h3.042v2.407h.064a3.3,3.3,0,0,1,3.335-2.559,3.567,3.567,0,0,1,1.018.127v2.863a4.16,4.16,0,0,0-1.311-.177,2.836,2.836,0,0,0-2.978,3.155v8.033ZM146.1,23.954c1.922,0,3.386-1.191,3.386-2.876V20.027l-3.182.2c-1.731.114-2.647.773-2.647,1.9S144.624,23.954,146.1,23.954Zm-.929,2.42c-2.737,0-4.7-1.66-4.7-4.118s1.9-3.877,5.4-4.092l3.615-.215V16.935c0-1.47-.993-2.268-2.7-2.268A2.5,2.5,0,0,0,144.1,16.53h-2.927c.076-2.534,2.444-4.346,5.715-4.346,3.475,0,5.728,1.8,5.728,4.549v9.49h-3.042v-2.23H149.5A4.8,4.8,0,0,1,145.171,26.374Zm10.208-.152V7.09h3.169V26.222Zm11.01-2.268c1.922,0,3.386-1.191,3.386-2.876V20.027l-3.182.2c-1.731.114-2.647.773-2.647,1.9S164.912,23.954,166.389,23.954Zm-.929,2.42c-2.737,0-4.7-1.66-4.7-4.118s1.9-3.877,5.4-4.092l3.615-.215V16.935c0-1.47-.993-2.268-2.7-2.268a2.5,2.5,0,0,0-2.686,1.863h-2.927c.076-2.534,2.444-4.346,5.715-4.346,3.475,0,5.728,1.8,5.728,4.549v9.49h-3.042v-2.23h-.076A4.8,4.8,0,0,1,165.46,26.374Zm10.106-.152V12.374h3.042v2.407h.064a4.434,4.434,0,0,1,4.366-2.572c3.08,0,4.837,1.939,4.837,5.144v8.869H184.7V17.974c0-1.977-.942-3.092-2.851-3.092-1.947,0-3.118,1.368-3.118,3.4v7.944Zm20.149.152c-3.475,0-5.791-2.775-5.791-7.083s2.329-7.07,5.778-7.07a4.6,4.6,0,0,1,4.328,2.483h.076V7.09h3.169V26.222h-3.106V23.866h-.064A4.668,4.668,0,0,1,195.714,26.374Zm.929-11.53c-2.1,0-3.475,1.748-3.475,4.46s1.375,4.447,3.475,4.447,3.475-1.761,3.475-4.447S198.731,14.845,196.643,14.845Z" transform="translate(-3.275 -0.335)" fill="#212121"/>
          </g>
        </g>
      </g>
    </g>
  </g>
</svg>
