<svg id="pool-logo" xmlns="http://www.w3.org/2000/svg" width="300" height="100" viewBox="0 0 300 100">
  <rect id="_300x100" data-name="300x100" width="300" height="100" fill="none"/>
  <g id="pool-logo-testimonial" transform="translate(103 31)">
    <g id="pool-logo-testimonial-2" data-name="pool-logo-testimonial" opacity="0.995">
      <path id="Trazado_40" data-name="Trazado 40" d="M14.731,0A14.707,14.707,0,0,1,29.463,14.682v8.491A14.731,14.731,0,0,1,0,23.172V14.682A14.707,14.707,0,0,1,14.731,0Zm-.07,8.7a6.129,6.129,0,0,0-6.153,6.1v.916H8.5v13.43h.109a4.606,4.606,0,0,0,4.506-4.6v-.326a6.21,6.21,0,0,0,1.546.194,6.129,6.129,0,0,0,6.153-6.1v-3.51A6.129,6.129,0,0,0,14.662,8.7Zm0,4.578A1.532,1.532,0,0,1,16.2,14.806v3.51a1.538,1.538,0,0,1-3.076,0v-3.51A1.532,1.532,0,0,1,14.662,13.28Z" fill="#212121" fill-rule="evenodd"/>
      <path id="Trazado_41" data-name="Trazado 41" d="M171.638,16.043a7.329,7.329,0,0,1,7.324,7.333v4.217a7.329,7.329,0,0,1-9.163,7.1v.5a5.455,5.455,0,0,1-5.4,5.418h-.091V24.476h.008v-1.1A7.329,7.329,0,0,1,171.638,16.043Zm32.8,0a7.352,7.352,0,0,1,7.328,7.375v4.241a7.328,7.328,0,1,1-14.656,0V23.418A7.352,7.352,0,0,1,204.435,16.043Zm-16.4-.348a7.352,7.352,0,0,1,7.328,7.375v4.241a7.328,7.328,0,1,1-14.656,0V23.07A7.352,7.352,0,0,1,188.035,15.694Zm31.057-5.227V29.178a5.545,5.545,0,0,1-5.491,5.507h-.092V15.975A5.546,5.546,0,0,1,219.091,10.467ZM204.435,21.574a1.838,1.838,0,0,0-1.832,1.844v4.241a1.832,1.832,0,1,0,3.664,0V23.418A1.838,1.838,0,0,0,204.435,21.574Zm-32.8-.031a1.832,1.832,0,0,0-1.831,1.833v4.217a1.831,1.831,0,1,0,3.662,0V23.376A1.832,1.832,0,0,0,171.638,21.543Zm16.4-.317A1.838,1.838,0,0,0,186.2,23.07v4.241a1.832,1.832,0,1,0,3.664,0V23.07A1.838,1.838,0,0,0,188.035,21.226ZM177.473,43.793c-1.145,0-1.78-.6-1.78-1.87V39.032h-.286a.543.543,0,0,1-.623-.6v-.146a.536.536,0,0,1,.61-.583h.3v-.753c0-.547.274-.789.747-.789h.174c.473,0,.759.206.759.789v.753h.9c.411,0,.623.194.623.571v.146a.552.552,0,0,1-.623.607h-.921V41.57c0,.619.187.838.56.838a.848.848,0,0,0,.685-.352.7.7,0,0,1,.361.68.856.856,0,0,1-.311.68A1.674,1.674,0,0,1,177.473,43.793Zm2.24-3.057a2.851,2.851,0,1,1,5.688.024,2.851,2.851,0,1,1-5.688-.024Zm4.171-.173c0-1.132-.516-1.728-1.315-1.728s-1.339.584-1.339,1.716.528,1.716,1.339,1.716C183.356,42.268,183.884,41.672,183.884,40.563Zm4.588,5.518c-1.827,0-2.692-.577-2.692-1.585,0-.774.673-1.339,1.707-1.573a.7.7,0,0,1-.288-.577.78.78,0,0,1,.457-.688,1.987,1.987,0,0,1-1.55-2,2.27,2.27,0,0,1,2.44-2.248,2.471,2.471,0,0,1,1.094.246l.252-.479c.2-.467.469-.639.781-.627a.908.908,0,0,1,.793.762l-.925.983a2.045,2.045,0,0,1,.493,1.351,2.118,2.118,0,0,1-2.259,2.125h-.216a.177.177,0,0,0,.024.233c.084.246.589.295,1.322.528s1.5.688,1.5,1.659C191.4,45.307,190.383,46.081,188.472,46.081Zm.158-5.339c.572,0,.942-.4.942-1.156s-.37-1.132-.954-1.132c-.56,0-.942.389-.942,1.132S188.058,40.742,188.63,40.742Zm-.037,4.576c.86,0,1.358-.258,1.358-.728,0-.34-.349-.528-.835-.669-.162-.047-.336-.094-.511-.129-.748.106-1.308.411-1.308.857C187.3,45.072,187.746,45.318,188.593,45.318Zm3.254-4.723c0-1.971,1.171-3.286,2.914-3.286s2.774,1.188,2.774,3.046v.114c0,.316-.115.493-.458.493h-3.639c.013.063.013.152.025.215a1.388,1.388,0,0,0,1.451,1.289,1.436,1.436,0,0,0,1.412-.872c.14-.013.942.076.942.758a1.2,1.2,0,0,1-.56.948,3.227,3.227,0,0,1-1.858.493A2.891,2.891,0,0,1,191.847,40.6Zm3.792-.616c-.024-.939-.389-1.525-1.085-1.525-.672,0-1.12.6-1.191,1.525Zm4.965,3.814c-1.146,0-1.781-.6-1.781-1.87V39.032h-.286a.543.543,0,0,1-.623-.6v-.146a.536.536,0,0,1,.61-.583h.3v-.753c0-.547.274-.789.747-.789h.174c.473,0,.76.206.76.789v.753h.9c.411,0,.623.194.623.571v.146a.552.552,0,0,1-.623.607h-.921V41.57c0,.619.187.838.56.838a.848.848,0,0,0,.685-.352.7.7,0,0,1,.361.68.856.856,0,0,1-.311.68A1.674,1.674,0,0,1,200.6,43.793ZM206.2,37.53c1.407,0,1.957,1.046,1.957,2.344v2.933c0,.565-.281.781-.722.781h-.2c-.465,0-.746-.2-.746-.781v-2.8c0-.673-.306-1.106-.905-1.106a1.05,1.05,0,0,0-1.089,1.034v2.873c0,.565-.269.781-.722.781h-.183c-.465,0-.746-.2-.746-.781V35.4c0-.06.294-.2.636-.2.5,0,1.015.276,1.015,1.286v2.1A1.815,1.815,0,0,1,206.2,37.53Zm2.715,3.066c0-1.971,1.171-3.286,2.914-3.286S214.6,38.5,214.6,40.356v.114c0,.316-.115.493-.458.493H210.5c.013.063.013.152.025.215a1.387,1.387,0,0,0,1.451,1.289,1.436,1.436,0,0,0,1.412-.872c.14-.013.942.076.942.758a1.2,1.2,0,0,1-.56.948,3.227,3.227,0,0,1-1.858.493A2.891,2.891,0,0,1,208.911,40.6Zm3.792-.616c-.024-.939-.389-1.525-1.085-1.525-.672,0-1.12.6-1.191,1.525Zm5.45-2.434a1.054,1.054,0,0,1,.456,1.973.839.839,0,0,0-.66-.3c-.672,0-.972.63-.972,1.828V42.86c0,.569-.264.787-.72.787h-.168c-.456,0-.732-.206-.732-.787V37.8c0-.061.264-.182.588-.182a.779.779,0,0,1,.816.63,2.678,2.678,0,0,1,.1.569C217.037,38.029,217.493,37.545,218.153,37.545Z" transform="translate(-124.904 -7.991)" fill="#212121"/>
    </g>
  </g>
</svg>
