<svg id="set-logo" xmlns="http://www.w3.org/2000/svg" xmlns:xlink="http://www.w3.org/1999/xlink" width="300" height="100" viewBox="0 0 300 100">
  <defs>
    <linearGradient id="linear-gradient" y1="0.5" x2="1" y2="0.5" gradientUnits="objectBoundingBox">
      <stop offset="0" stop-color="#212121"/>
      <stop offset="1" stop-color="#212121" stop-opacity="0"/>
    </linearGradient>
  </defs>
  <rect id="_300x100" data-name="300x100" width="300" height="100" fill="none"/>
  <g id="set-logo-testimonial" transform="translate(113 32)">
    <ellipse id="Elipse_7" data-name="Elipse 7" cx="11.862" cy="12.554" rx="11.862" ry="12.554" fill="url(#linear-gradient)"/>
    <ellipse id="Elipse_8" data-name="Elipse 8" cx="11.862" cy="12.554" rx="11.862" ry="12.554" transform="translate(23.724 37) rotate(180)" fill="url(#linear-gradient)"/>
    <g id="Grupo_8" data-name="Grupo 8" transform="translate(32.722 7.651)">
      <path id="Set-Protocol" d="M97.739,180.855a16.526,16.526,0,0,1-8.314-2.031l1.9-5.789h.152c1.057,4.243,4.353,6.426,7.407,6.426,1.723,0,2.993-1,2.993-2.606,0-.97-.393-1.88-2.146-2.668l-5.019-2.3a7.231,7.231,0,0,1-4.5-6.547c0-3.3,2.085-6.911,8.132-6.911a17.456,17.456,0,0,1,7.649,1.88l-2.177,4.971h-.151c-1.209-3.728-3.9-5.517-6.53-5.517-2.207,0-2.993,1.122-2.993,2.122s.514,1.94,2.117,2.728l5.17,2.455c3.325,1.546,4.323,3.455,4.323,6.092C105.75,177.459,102.546,180.855,97.739,180.855Zm18.127-4.668a3.852,3.852,0,0,0,3.446-1.606l.242.061c-.816,4.668-3.96,6.061-6.379,6.061-3.477,0-6.894-2.789-6.894-8.092,0-5.093,2.993-8.729,7.105-8.729,2.57,0,6.228,1.363,6.228,7.123h-8.707C111.362,174.428,113.176,176.186,115.866,176.186Zm-3.144-11.305c-1.24,0-1.936,1.606-1.936,4.334a7.663,7.663,0,0,0,.03.849h3.749C114.566,166.063,113.932,164.881,112.723,164.881Zm18.308,11.245.272.09a5.833,5.833,0,0,1-5.623,4.486c-2.873,0-4.142-1.848-4.142-4.364V165.183h-1.481v-.151c2.328-2,4.807-3.85,7.2-5.941h.03v5.3h2.782v.758h-2.782V175.52c0,1.3.575,2.152,1.633,2.152A2.2,2.2,0,0,0,131.031,176.126Z" transform="translate(-89.425 -158.424)" fill="#212121" fill-rule="evenodd"/>
    </g>
  </g>
</svg>
