<svg id="skale-logo" xmlns="http://www.w3.org/2000/svg" width="300" height="100" viewBox="0 0 300 100">
  <rect id="_300x100" data-name="300x100" width="300" height="100" fill="none"/>
  <g id="skale" transform="translate(57.7 -214.566)">
    <path id="Trazado_27" data-name="Trazado 27" d="M20.3,264.233v18.333H54.59v-4.223H24.451V250.051H54.59V245.9H20.3Z"/>
    <path id="Trazado_28" data-name="Trazado 28" d="M133.631,275.066c-3.023.384-5.183,1.968-6,4.391a5.077,5.077,0,0,0-.264,1.656,5.338,5.338,0,0,0,1.536,4.463c1.152,1.152,2.664,1.8,5.711,2.4a8.2,8.2,0,0,1,3.551,1.224,2.483,2.483,0,0,1,.648,2.952,3.052,3.052,0,0,1-1.344,1.3,6.327,6.327,0,0,1-4.679-.192,3.9,3.9,0,0,1-1.464-1.464,5.193,5.193,0,0,1-.5-1.9v-.384H126.6v.288a8.607,8.607,0,0,0,1.3,4.487,7.962,7.962,0,0,0,1.824,1.872,10.227,10.227,0,0,0,6.575,1.512,7.876,7.876,0,0,0,5.351-2.208,5.78,5.78,0,0,0,1.536-3.047,11.8,11.8,0,0,0-.1-3.7c-.552-1.872-1.968-3.1-4.487-3.935-.456-.144-1.224-.36-1.7-.456a23.782,23.782,0,0,1-3.5-.888c-1.224-.5-1.728-1.152-1.728-2.16,0-1.128.672-1.848,2.016-2.184a6.227,6.227,0,0,1,2.832.072,3.281,3.281,0,0,1,2.232,2.568l.072.48h4.151l-.048-.7a6.294,6.294,0,0,0-1.128-3.431,7.124,7.124,0,0,0-4.583-2.856,10.734,10.734,0,0,0-1.968-.168c-.768-.024-1.488,0-1.608,0ZM153,286.368v10.918h4.151V275.45H153Zm12.43-10.342c-.216.312-1.488,2.328-2.88,4.487l-2.52,3.887v3.959L163,292.8l2.975,4.463h5.063l-.144-.192c-.072-.12-1.7-2.52-3.623-5.351a53.413,53.413,0,0,1-3.5-5.351,60.928,60.928,0,0,1,3.407-5.471c1.872-2.9,3.431-5.327,3.455-5.375.048-.072-.456-.1-2.376-.1h-2.448l-.384.6Zm18.045-.528c0,.048-5.039,21.212-5.135,21.548l-.048.216h4.391l.528-2.3c.288-1.272.528-2.352.552-2.4a19.594,19.594,0,0,1,3.671-.072l3.623.024.528,2.352.528,2.352,2.208.024c2.088.024,2.208,0,2.16-.1-.024-.072-1.176-4.919-2.568-10.75-1.392-5.855-2.544-10.7-2.568-10.8l-.024-.144h-3.911c-2.184,0-3.935.024-3.935.048Zm4.151,2.088c0,.024.552,2.424,1.224,5.375l1.2,5.351-2.664.024h-2.688c-.024-.024,1.344-6.047,2.256-9.958l.192-.792h.24c.144-.024.24-.024.24,0Zm19.653,8.783v10.918H221.36v-3.935h-9.934V275.474h-4.151Zm23.588,0v10.918h14.23v-3.935H235.014v-13.87h10.078v-4.007h-14.23Z" transform="translate(-80.792 -22.159)"/>
    <path id="Trazado_29" data-name="Trazado 29" d="M590.4,315.992v2.016h4.007V314H590.4Z" transform="translate(-433.299 -51.759)"/>
  </g>
</svg>
