<svg xmlns="http://www.w3.org/2000/svg" width="86.4" height="22" viewBox="0 0 86.4 22">
  <g id="skale-logo-testimonial" opacity="0.698">
    <g id="skale">
      <path id="Trazado_27" data-name="Trazado 27" d="M20.3,256.9v11H40.874v-2.534H22.791V248.391H40.874V245.9H20.3Z" transform="translate(-20.3 -245.9)"/>
      <path id="Trazado_28" data-name="Trazado 28" d="M130.818,275.062a4.069,4.069,0,0,0-3.6,2.635,3.047,3.047,0,0,0-.158.993,3.2,3.2,0,0,0,.921,2.678,6.11,6.11,0,0,0,3.427,1.44,4.923,4.923,0,0,1,2.131.734,1.49,1.49,0,0,1,.389,1.771,1.831,1.831,0,0,1-.806.777,3.8,3.8,0,0,1-2.808-.115,2.338,2.338,0,0,1-.878-.878,3.116,3.116,0,0,1-.3-1.137v-.23H126.6v.173a5.164,5.164,0,0,0,.777,2.692,4.777,4.777,0,0,0,1.094,1.123,6.136,6.136,0,0,0,3.945.907,4.726,4.726,0,0,0,3.211-1.325,3.468,3.468,0,0,0,.921-1.828,7.077,7.077,0,0,0-.058-2.217,3.64,3.64,0,0,0-2.692-2.361c-.274-.086-.734-.216-1.022-.274a14.274,14.274,0,0,1-2.1-.533c-.734-.3-1.037-.691-1.037-1.3,0-.677.4-1.109,1.209-1.31a3.736,3.736,0,0,1,1.7.043,1.969,1.969,0,0,1,1.339,1.541l.043.288h2.491l-.029-.418a3.777,3.777,0,0,0-.677-2.059,4.275,4.275,0,0,0-2.75-1.713,6.442,6.442,0,0,0-1.181-.1c-.461-.014-.893,0-.965,0Zm11.619,6.781v6.551h2.491v-13.1h-2.491Zm7.458-6.205c-.13.187-.893,1.4-1.728,2.692l-1.512,2.332v2.376l1.785,2.664,1.785,2.678h3.038l-.086-.115c-.043-.072-1.022-1.512-2.174-3.211a32.05,32.05,0,0,1-2.1-3.211,36.558,36.558,0,0,1,2.044-3.283c1.123-1.742,2.059-3.2,2.073-3.225s-.274-.058-1.425-.058h-1.469l-.23.36Zm10.827-.317c0,.029-3.023,12.727-3.081,12.929l-.029.13h2.635l.317-1.382c.173-.763.317-1.411.331-1.44a11.755,11.755,0,0,1,2.2-.043l2.174.014.317,1.411.317,1.411,1.325.014c1.253.014,1.325,0,1.3-.058s-.705-2.952-1.541-6.45-1.526-6.421-1.541-6.479l-.014-.086h-2.347c-1.31,0-2.361.014-2.361.029Zm2.491,1.253c0,.014.331,1.454.734,3.225l.72,3.211-1.6.014h-1.613c-.014-.014.806-3.628,1.353-5.975l.115-.475h.144c.086-.014.144-.014.144,0ZM175,281.843v6.551h8.451v-2.361H177.5V275.307H175Zm14.153,0v6.551H197.7v-2.361h-6.047v-8.322H197.7v-2.4h-8.538Z" transform="translate(-111.295 -270.858)"/>
      <path id="Trazado_29" data-name="Trazado 29" d="M590.4,315.2V316.4h2.4V314h-2.4Z" transform="translate(-508.319 -304.195)"/>
    </g>
  </g>
</svg>
