<svg xmlns="http://www.w3.org/2000/svg" width="82.256" height="9.917" viewBox="0 0 82.256 9.917">
  <g id="synthetix-logo-testimonial" opacity="0.698">
    <g id="Grupo_7" data-name="Grupo 7">
      <path id="Trazado_37" data-name="Trazado 37" d="M56.23.847l-3.265,5.7v3.9H51.756v-3.9L48.492.847h1.343L52.4,5.436,54.954.847Zm8.56,9.6H63.325L59.51,2.729v7.716H58.341V.847h1.491l3.8,7.756V.847H64.79v9.6ZM75.055,1.971H71.83v8.474H70.608V1.971H67.37V.847h7.685Zm9.212,8.474H83.044V6.018H79v4.426H77.791V.847H79V4.854h4.044V.847h1.223v9.6Zm9.428,0h-6.3V.847h6.3v1.11H88.59V4.881h3.856V6.018H88.59V9.335H93.7v1.11Zm10.03-8.474H100.5v8.474H99.279V1.971H96.041V.847h7.685Zm7.773,8.474h-5.428v-1h2.109V1.835h-2.109V.847H111.5v.988h-2.109V9.443H111.5v1Zm10.1,0h-1.357l-2.391-3.9-2.364,3.9h-1.33L117.18,5.6,114.157.847h1.37L117.905,4.6,120.256.847h1.33L118.577,5.6Z" transform="translate(-39.343 -0.687)" fill="#212121" fill-rule="evenodd"/>
      <path id="Trazado_38" data-name="Trazado 38" d="M1.78,10.509.8,9.8,6.943,1.072l.976.712L1.781,10.509Z" transform="translate(-0.652 -0.87)" fill="#212121" fill-rule="evenodd" opacity="0.5" style="isolation: isolate"/>
      <path id="Trazado_39" data-name="Trazado 39" d="M4.29,4.347h.328a2.786,2.786,0,0,1,0,5.57H.6a.612.612,0,0,1,0-1.224H4.618a1.562,1.562,0,0,0,0-3.123H2.732A2.759,2.759,0,0,1,0,2.785,2.759,2.759,0,0,1,2.732,0H6.75a.606.606,0,0,1,.6.612.606.606,0,0,1-.6.612H2.732A1.547,1.547,0,0,0,1.2,2.785,1.547,1.547,0,0,0,2.732,4.347H4.29Z" fill="#212121" fill-rule="evenodd"/>
    </g>
  </g>
</svg>
