<svg xmlns="http://www.w3.org/2000/svg" xmlns:xlink="http://www.w3.org/1999/xlink" width="505" height="506.58" viewBox="0 0 505 506.58"><defs><linearGradient id="a" x1="0.546" y1="1" x2="0.551" gradientUnits="objectBoundingBox"><stop offset="0" stop-color="#4f00a3"/><stop offset="0" stop-color="#260254"/><stop offset="0.483" stop-color="#4f15a3"/><stop offset="1" stop-color="#23004e"/></linearGradient><clipPath id="b"><path d="M465.943,779.065s3.018-1.049,6.221,2.17c.145.987,2.172,9.036,2.172,9.036s9.128-5.919,6.3-12.858c4.529.079,10.591,20.533,10.447,21.667,0,0,.209,9.157-1.21,12.093a127.682,127.682,0,0,1-16.56-1.952c-11.075-2.164-19.551-19.089-19.551-19.089s5.952,1.609,6.859-.662C461.435,787.436,465.943,779.065,465.943,779.065Z" transform="translate(-453.763 -777.413)" fill="none"/></clipPath><linearGradient id="c" x1="0.5" y1="0.546" x2="0.5" y2="1" gradientUnits="objectBoundingBox"><stop offset="0" stop-color="#fb7e51"/><stop offset="1" stop-color="#ff8f66"/></linearGradient><linearGradient id="d" x1="0.562" y1="1.181" x2="0.551" gradientUnits="objectBoundingBox"><stop offset="0" stop-color="#4f00a3"/><stop offset="1" stop-color="#23004e"/></linearGradient><linearGradient id="f" x1="0.5" x2="0.5" y2="1" gradientUnits="objectBoundingBox"><stop offset="0" stop-color="#fff100"/><stop offset="1" stop-color="#edcf00"/></linearGradient><linearGradient id="h" x1="0.5" y1="1.245" x2="0.5" y2="0.095" gradientUnits="objectBoundingBox"><stop offset="0" stop-color="#5b00cb"/><stop offset="1" stop-color="#5100b4"/></linearGradient><clipPath id="i"><path d="M1160.614,548.462c34.768,3.788,44.124-23.3,41.4-47.759-23.708-5.874-50.453-7.309-50.453-7.309s-3.689,10.046-3.494,16.87" transform="translate(-1148.056 -493.394)" fill="none"/></clipPath><linearGradient id="j" x1="0.696" y1="0.683" x2="0.925" y2="1.395" xlink:href="#c"/><linearGradient id="k" y1="0" xlink:href="#c"/><linearGradient id="l" x1="0.639" y1="0.801" x2="0.551" y2="0.216" xlink:href="#d"/></defs><g transform="translate(0 -62.795)"><g transform="translate(-153 -1511)"><path d="M-1247.59-13757H-830.8" transform="translate(1446.59 15415.499)" fill="none" stroke="#f2f2f2" stroke-width="1"/><path d="M-1247.59-13757H-830.8" transform="translate(1446.59 15436.499)" fill="none" stroke="#f2f2f2" stroke-width="1"/><path d="M-1247.59-13757h421.832" transform="translate(1446.59 15457.499)" fill="none" stroke="#f2f2f2" stroke-width="1"/><path d="M-1247.59-13757h421.832" transform="translate(1446.59 15478.499)" fill="none" stroke="#f2f2f2" stroke-width="1"/><path d="M-1247.59-13757h424.914" transform="translate(1443.508 15499.499)" fill="none" stroke="#f2f2f2" stroke-width="1"/><path d="M-1247.59-13757h421.832" transform="translate(1446.59 15520.499)" fill="none" stroke="#f2f2f2" stroke-width="1"/><path d="M-1247.59-13757h404.107" transform="translate(1464.315 15541.499)" fill="none" stroke="#f2f2f2" stroke-width="1"/><path d="M-1247.59-13757h421.832" transform="translate(1446.59 15562.499)" fill="none" stroke="#f2f2f2" stroke-width="1"/><path d="M-1247.59-13757h404.107" transform="translate(1464.315 15583.499)" fill="none" stroke="#f2f2f2" stroke-width="1"/><path d="M-1247.59-13757h421.1" transform="translate(1443.033 15604.499)" fill="none" stroke="#f2f2f2" stroke-width="1"/><path d="M-1247.59-13757h409.635" transform="translate(1443.033 15625.499)" fill="none" stroke="#f2f2f2" stroke-width="1"/><path d="M-1247.59-13757H-851.7" transform="translate(1446.59 15646.499)" fill="none" stroke="#f2f2f2" stroke-width="1"/><path d="M-1247.59-13757h421.832" transform="translate(1446.59 15667.499)" fill="none" stroke="#f2f2f2" stroke-width="1"/><path d="M-1247.59-13757h441.2" transform="translate(1446.59 15688.499)" fill="none" stroke="#f2f2f2" stroke-width="1"/><path d="M-1247.59-13757h421.832" transform="translate(1446.59 15709.499)" fill="none" stroke="#f2f2f2" stroke-width="1"/><path d="M-1247.59-13757h421.832" transform="translate(1446.59 15730.499)" fill="none" stroke="#f2f2f2" stroke-width="1"/><path d="M-1247.59-13757h421.832" transform="translate(1446.59 15772.499)" fill="none" stroke="#f2f2f2" stroke-width="1"/><path d="M-1247.59-13757h252.806" transform="translate(1610.747 15793.499)" fill="none" stroke="#f2f2f2" stroke-width="1"/><path d="M-1247.59-13757h421.832" transform="translate(1446.59 15751.499)" fill="none" stroke="#f2f2f2" stroke-width="1"/></g><g transform="translate(-153 -1511)"><path d="M0,0H398.541" transform="translate(216.5 1638.459) rotate(90)" fill="none" stroke="#f2f2f2" stroke-width="1"/><path d="M0,0H400.1" transform="translate(237.5 1636.896) rotate(90)" fill="none" stroke="#f2f2f2" stroke-width="1"/><path d="M0,0H420.971" transform="translate(258.5 1616.029) rotate(90)" fill="none" stroke="#f2f2f2" stroke-width="1"/><path d="M0,0H378.894" transform="translate(279.5 1658.106) rotate(90)" fill="none" stroke="#f2f2f2" stroke-width="1"/><path d="M0,0H416" transform="translate(300.5 1621) rotate(90)" fill="none" stroke="#f2f2f2" stroke-width="1"/><path d="M0,0H463.205" transform="translate(321.5 1573.795) rotate(90)" fill="none" stroke="#f2f2f2" stroke-width="1"/><path d="M0,0H441.344" transform="translate(342.5 1595.656) rotate(90)" fill="none" stroke="#f2f2f2" stroke-width="1"/><path d="M0,0H388.167" transform="translate(363.5 1648.833) rotate(90)" fill="none" stroke="#f2f2f2" stroke-width="1"/><path d="M0,0H416" transform="translate(384.5 1621) rotate(90)" fill="none" stroke="#f2f2f2" stroke-width="1"/><path d="M0,0H409.17" transform="translate(405.5 1648.833) rotate(90)" fill="none" stroke="#f2f2f2" stroke-width="1"/><path d="M0,0H428.877" transform="translate(426.5 1629.126) rotate(90)" fill="none" stroke="#f2f2f2" stroke-width="1"/><path d="M0,0H399.787" transform="translate(447.5 1637.213) rotate(90)" fill="none" stroke="#f2f2f2" stroke-width="1"/><path d="M0,0H379.039" transform="translate(468.5 1657.961) rotate(90)" fill="none" stroke="#f2f2f2" stroke-width="1"/><path d="M0,0H388.167" transform="translate(489.5 1648.833) rotate(90)" fill="none" stroke="#f2f2f2" stroke-width="1"/><path d="M0,0H416" transform="translate(510.5 1621) rotate(90)" fill="none" stroke="#f2f2f2" stroke-width="1"/><path d="M0,0H416" transform="translate(531.5 1621) rotate(90)" fill="none" stroke="#f2f2f2" stroke-width="1"/><path d="M0,0H441.344" transform="translate(552.5 1595.656) rotate(90)" fill="none" stroke="#f2f2f2" stroke-width="1"/><path d="M0,0H416" transform="translate(573.5 1621) rotate(90)" fill="none" stroke="#f2f2f2" stroke-width="1"/><path d="M0,0H428.069" transform="translate(594.5 1608.931) rotate(90)" fill="none" stroke="#f2f2f2" stroke-width="1"/></g><g transform="translate(42 189)" fill="#fff" stroke="#f8f2ff" stroke-width="1"><rect width="22" height="22" stroke="none"/><rect x="0.5" y="0.5" width="21" height="21" fill="none"/></g><g transform="translate(441 147)" fill="#fff" stroke="#f8f2ff" stroke-width="1"><rect width="22" height="22" stroke="none"/><rect x="0.5" y="0.5" width="21" height="21" fill="none"/></g><g transform="translate(462 168)" fill="#fff" stroke="#f8f2ff" stroke-width="1"><rect width="22" height="22" stroke="none"/><rect x="0.5" y="0.5" width="21" height="21" fill="none"/></g><g transform="translate(462 231)" fill="#fff" stroke="#f8f2ff" stroke-width="1"><rect width="22" height="22" stroke="none"/><rect x="0.5" y="0.5" width="21" height="21" fill="none"/></g><g transform="translate(441 294)" fill="#fff" stroke="#f8f2ff" stroke-width="1"><rect width="22" height="22" stroke="none"/><rect x="0.5" y="0.5" width="21" height="21" fill="none"/></g><g transform="translate(462 273)" fill="#fff" stroke="#f8f2ff" stroke-width="1"><rect width="22" height="22" stroke="none"/><rect x="0.5" y="0.5" width="21" height="21" fill="none"/></g><g transform="translate(462 315)" fill="#fff" stroke="#f8f2ff" stroke-width="1"><rect width="22" height="22" stroke="none"/><rect x="0.5" y="0.5" width="21" height="21" fill="none"/></g><g transform="translate(483 294)" fill="#fff" stroke="#f8f2ff" stroke-width="1"><rect width="22" height="22" stroke="none"/><rect x="0.5" y="0.5" width="21" height="21" fill="none"/></g><g transform="translate(21 336)" fill="#fff" stroke="#f8f2ff" stroke-width="1"><rect width="22" height="22" stroke="none"/><rect x="0.5" y="0.5" width="21" height="21" fill="none"/></g><g transform="translate(0 357)" fill="#fff" stroke="#f8f2ff" stroke-width="1"><rect width="22" height="22" stroke="none"/><rect x="0.5" y="0.5" width="21" height="21" fill="none"/></g><g transform="translate(294 126)" fill="#fff" stroke="#f8f2ff" stroke-width="1"><rect width="22" height="22" stroke="none"/><rect x="0.5" y="0.5" width="21" height="21" fill="none"/></g><g transform="translate(315 105)" fill="#fff" stroke="#f8f2ff" stroke-width="1"><rect width="22" height="22" stroke="none"/><rect x="0.5" y="0.5" width="21" height="21" fill="none"/></g><g transform="translate(378 126)" fill="#fff" stroke="#f8f2ff" stroke-width="1"><rect width="22" height="22" stroke="none"/><rect x="0.5" y="0.5" width="21" height="21" fill="none"/></g><g transform="translate(357 105)" fill="#fff" stroke="#f8f2ff" stroke-width="1"><rect width="22" height="22" stroke="none"/><rect x="0.5" y="0.5" width="21" height="21" fill="none"/></g><g transform="translate(252 105)" fill="#fff"><path d="M 21.5 21.5 L 0.5 21.5 L 0.5 0.5 L 21.5 0.5 L 21.5 21.5 Z" stroke="none"/><path d="M 1 1 L 1 21 L 21 21 L 21 1 L 1 1 M 0 0 L 22 0 L 22 22 L 0 22 L 0 0 Z" stroke="none" fill="#f8f2ff"/></g><g transform="translate(42 126)" fill="#fff" stroke="#f8f2ff" stroke-width="1"><rect width="22" height="22" stroke="none"/><rect x="0.5" y="0.5" width="21" height="21" fill="none"/></g><g transform="translate(21 504)" fill="#fff" stroke="#f8f2ff" stroke-width="1"><rect width="22" height="22" stroke="none"/><rect x="0.5" y="0.5" width="21" height="21" fill="none"/></g><g transform="translate(63 525)" fill="#fff" stroke="#f8f2ff" stroke-width="1"><rect width="22" height="22" stroke="none"/><rect x="0.5" y="0.5" width="21" height="21" fill="none"/></g><g transform="translate(42 483)" fill="#fff" stroke="#f8f2ff" stroke-width="1"><rect width="22" height="22" stroke="none"/><rect x="0.5" y="0.5" width="21" height="21" fill="none"/></g><g transform="translate(84 546)" fill="#fff" stroke="#f8f2ff" stroke-width="1"><rect width="22" height="22" stroke="none"/><rect x="0.5" y="0.5" width="21" height="21" fill="none"/></g><g transform="translate(189 504)" fill="#fff" stroke="#f8f2ff" stroke-width="1"><rect width="22" height="22" stroke="none"/><rect x="0.5" y="0.5" width="21" height="21" fill="none"/></g><g transform="translate(168 525)" fill="#fff" stroke="#f8f2ff" stroke-width="1"><rect width="22" height="22" stroke="none"/><rect x="0.5" y="0.5" width="21" height="21" fill="none"/></g><g transform="translate(189 546)" fill="#fff" stroke="#f8f2ff" stroke-width="1"><rect width="22" height="22" stroke="none"/><rect x="0.5" y="0.5" width="21" height="21" fill="none"/></g><g transform="translate(105 546)" fill="#f8f2ff"><path d="M 21.5 21.5 L 0.5 21.5 L 0.5 0.5 L 21.5 0.5 L 21.5 21.5 Z" stroke="none"/><path d="M 1 1 L 1 21 L 21 21 L 21 1 L 1 1 M 0 0 L 22 0 L 22 22 L 0 22 L 0 0 Z" stroke="none" fill="#fbfafc"/></g><g transform="translate(84 546)" fill="#f8f2ff"><path d="M 21.5 21.5 L 0.5 21.5 L 0.5 0.5 L 21.5 0.5 L 21.5 21.5 Z" stroke="none"/><path d="M 1 1 L 1 21 L 21 21 L 21 1 L 1 1 M 0 0 L 22 0 L 22 22 L 0 22 L 0 0 Z" stroke="none" fill="#fbfafc"/></g><g transform="translate(63 546)" fill="#f8f2ff"><path d="M 21.5 21.5 L 0.5 21.5 L 0.5 0.5 L 21.5 0.5 L 21.5 21.5 Z" stroke="none"/><path d="M 1 1 L 1 21 L 21 21 L 21 1 L 1 1 M 0 0 L 22 0 L 22 22 L 0 22 L 0 0 Z" stroke="none" fill="#fbfafc"/></g><g transform="translate(105 525)" fill="#f8f2ff"><path d="M 21.5 21.5 L 0.5 21.5 L 0.5 0.5 L 21.5 0.5 L 21.5 21.5 Z" stroke="none"/><path d="M 1 1 L 1 21 L 21 21 L 21 1 L 1 1 M 0 0 L 22 0 L 22 22 L 0 22 L 0 0 Z" stroke="none" fill="#fbfafc"/></g><g transform="translate(126 546)" fill="#f8f2ff"><path d="M 21.5 21.5 L 0.5 21.5 L 0.5 0.5 L 21.5 0.5 L 21.5 21.5 Z" stroke="none"/><path d="M 1 1 L 1 21 L 21 21 L 21 1 L 1 1 M 0 0 L 22 0 L 22 22 L 0 22 L 0 0 Z" stroke="none" fill="#fbfafc"/></g><g transform="translate(147 525)" fill="#f8f2ff"><path d="M 21.5 21.5 L 0.5 21.5 L 0.5 0.5 L 21.5 0.5 L 21.5 21.5 Z" stroke="none"/><path d="M 1 1 L 1 21 L 21 21 L 21 1 L 1 1 M 0 0 L 22 0 L 22 22 L 0 22 L 0 0 Z" stroke="none" fill="#fbfafc"/></g><g transform="translate(168 504)" fill="#f8f2ff"><path d="M 21.5 21.5 L 0.5 21.5 L 0.5 0.5 L 21.5 0.5 L 21.5 21.5 Z" stroke="none"/><path d="M 1 1 L 1 21 L 21 21 L 21 1 L 1 1 M 0 0 L 22 0 L 22 22 L 0 22 L 0 0 Z" stroke="none" fill="#fbfafc"/></g><g transform="translate(421 546)" fill="#f8f2ff"><path d="M 21.5 21.5 L 0.5 21.5 L 0.5 0.5 L 21.5 0.5 L 21.5 21.5 Z" stroke="none"/><path d="M 1 1 L 1 21 L 21 21 L 21 1 L 1 1 M 0 0 L 22 0 L 22 22 L 0 22 L 0 0 Z" stroke="none" fill="#fbfafc"/></g><g transform="translate(462 504)" fill="#f8f2ff"><path d="M 21.5 21.5 L 0.5 21.5 L 0.5 0.5 L 21.5 0.5 L 21.5 21.5 Z" stroke="none"/><path d="M 1 1 L 1 21 L 21 21 L 21 1 L 1 1 M 0 0 L 22 0 L 22 22 L 0 22 L 0 0 Z" stroke="none" fill="#fbfafc"/></g><g transform="translate(441 483)" fill="#f8f2ff"><path d="M 21.5 21.5 L 0.5 21.5 L 0.5 0.5 L 21.5 0.5 L 21.5 21.5 Z" stroke="none"/><path d="M 1 1 L 1 21 L 21 21 L 21 1 L 1 1 M 0 0 L 22 0 L 22 22 L 0 22 L 0 0 Z" stroke="none" fill="#fbfafc"/></g><g transform="translate(189 525)" fill="#f8f2ff"><path d="M 21.5 21.5 L 0.5 21.5 L 0.5 0.5 L 21.5 0.5 L 21.5 21.5 Z" stroke="none"/><path d="M 1 1 L 1 21 L 21 21 L 21 1 L 1 1 M 0 0 L 22 0 L 22 22 L 0 22 L 0 0 Z" stroke="none" fill="#fbfafc"/></g><g transform="translate(251.999 252.115)" fill="#fff"><path d="M 84.45068359375 84.28614044189453 L 0.4999973475933075 84.28614044189453 L 0.4999973475933075 0.5000035762786865 L 84.45068359375 0.5000035762786865 L 84.45068359375 84.28614044189453 Z" stroke="none"/><path d="M 1 1 L 1 83.78614044189453 L 83.95068359375 83.78614044189453 L 83.95068359375 1 L 1 1 M 0 0 L 84.95068359375 0 L 84.95068359375 84.78614044189453 L 0 84.78614044189453 L 0 0 Z" stroke="none" fill="#fbfafc"/></g><g transform="translate(356.999 336)" fill="#fff"><path d="M 63.50146102905273 63.5 L 0.5000024437904358 63.5 L 0.5000024437904358 0.5 L 63.50146102905273 0.5 L 63.50146102905273 63.5 Z" stroke="none"/><path d="M 1.000003814697266 1 L 1.000003814697266 63 L 63.00146102905273 63 L 63.00146102905273 1 L 1.000003814697266 1 M 0 0 L 64.00146484375 0 L 64.00146484375 64 L 0 64 L 0 0 Z" stroke="none" fill="#fbfafc"/></g><g transform="translate(167.999 378)" fill="#fff"><path d="M 63.50146102905273 63.5 L 0.5000024437904358 63.5 L 0.5000024437904358 0.5 L 63.50146102905273 0.5 L 63.50146102905273 63.5 Z" stroke="none"/><path d="M 1.000003814697266 1 L 1.000003814697266 63 L 63.00146102905273 63 L 63.00146102905273 1 L 1.000003814697266 1 M 0 0 L 64.00146484375 0 L 64.00146484375 64 L 0 64 L 0 0 Z" stroke="none" fill="#fbfafc"/></g><g transform="translate(23.999 399)" fill="#fff"><path d="M 63.50146102905273 63.5 L 0.5000024437904358 63.5 L 0.5000024437904358 0.5 L 63.50146102905273 0.5 L 63.50146102905273 63.5 Z" stroke="none"/><path d="M 1.000003814697266 1 L 1.000003814697266 63 L 63.00146102905273 63 L 63.00146102905273 1 L 1.000003814697266 1 M 0 0 L 64.00146484375 0 L 64.00146484375 64 L 0 64 L 0 0 Z" stroke="none" fill="#fbfafc"/></g><g transform="translate(126 168)" fill="#fff"><path d="M 84.41015625 63.61328506469727 L 0.5000003576278687 63.61328506469727 L 0.5000003576278687 0.4999961853027344 L 84.41015625 0.4999961853027344 L 84.41015625 63.61328506469727 Z" stroke="none"/><path d="M 0.9999923706054688 0.9999923706054688 L 0.9999923706054688 63.11327743530273 L 83.91016387939453 63.11327743530273 L 83.91016387939453 0.9999923706054688 L 0.9999923706054688 0.9999923706054688 M -7.62939453125e-06 -7.62939453125e-06 L 84.91016387939453 -7.62939453125e-06 L 84.91016387939453 64.11327362060547 L -7.62939453125e-06 64.11327362060547 L -7.62939453125e-06 -7.62939453125e-06 Z" stroke="none" fill="#fbfafc"/></g><g transform="translate(252 546)" fill="#f8f2ff"><path d="M 21.5 21.5 L 0.5 21.5 L 0.5 0.5 L 21.5 0.5 L 21.5 21.5 Z" stroke="none"/><path d="M 1 1 L 1 21 L 21 21 L 21 1 L 1 1 M 0 0 L 22 0 L 22 22 L 0 22 L 0 0 Z" stroke="none" fill="#fbfafc"/></g><g transform="translate(399 546)" fill="#f8f2ff"><path d="M 21.5 21.5 L 0.5 21.5 L 0.5 0.5 L 21.5 0.5 L 21.5 21.5 Z" stroke="none"/><path d="M 1 1 L 1 21 L 21 21 L 21 1 L 1 1 M 0 0 L 22 0 L 22 22 L 0 22 L 0 0 Z" stroke="none" fill="#fbfafc"/></g><g transform="translate(210 546)" fill="#fff" stroke="#f8f2ff" stroke-width="1"><rect width="22" height="22" stroke="none"/><rect x="0.5" y="0.5" width="21" height="21" fill="none"/></g><g transform="translate(273 546)" fill="#fff" stroke="#f8f2ff" stroke-width="1"><rect width="22" height="22" stroke="none"/><rect x="0.5" y="0.5" width="21" height="21" fill="none"/></g><g transform="translate(441 525)" fill="#fff" stroke="#f8f2ff" stroke-width="1"><rect width="22" height="22" stroke="none"/><rect x="0.5" y="0.5" width="21" height="21" fill="none"/></g><g transform="translate(462 546)" fill="#fff" stroke="#f8f2ff" stroke-width="1"><rect width="22" height="22" stroke="none"/><rect x="0.5" y="0.5" width="21" height="21" fill="none"/></g><g transform="translate(126 168)" fill="rgba(242,242,242,0.4)"><path d="M 84.41015625 63.61328506469727 L 0.5000003576278687 63.61328506469727 L 0.5000003576278687 0.4999961853027344 L 84.41015625 0.4999961853027344 L 84.41015625 63.61328506469727 Z" stroke="none"/><path d="M 0.9999923706054688 0.9999923706054688 L 0.9999923706054688 63.11327743530273 L 83.91016387939453 63.11327743530273 L 83.91016387939453 0.9999923706054688 L 0.9999923706054688 0.9999923706054688 M -7.62939453125e-06 -7.62939453125e-06 L 84.91016387939453 -7.62939453125e-06 L 84.91016387939453 64.11327362060547 L -7.62939453125e-06 64.11327362060547 L -7.62939453125e-06 -7.62939453125e-06 Z" stroke="none" fill="#fbfafc"/></g><g transform="translate(251.999 252.115)" fill="rgba(242,242,242,0.4)"><path d="M 84.45068359375 84.28614044189453 L 0.4999973475933075 84.28614044189453 L 0.4999973475933075 0.5000035762786865 L 84.45068359375 0.5000035762786865 L 84.45068359375 84.28614044189453 Z" stroke="none"/><path d="M 1 1 L 1 83.78614044189453 L 83.95068359375 83.78614044189453 L 83.95068359375 1 L 1 1 M 0 0 L 84.95068359375 0 L 84.95068359375 84.78614044189453 L 0 84.78614044189453 L 0 0 Z" stroke="none" fill="#fbfafc"/></g><g transform="translate(356.999 336)" fill="rgba(242,242,242,0.4)"><path d="M 63.50146102905273 63.5 L 0.5000024437904358 63.5 L 0.5000024437904358 0.5 L 63.50146102905273 0.5 L 63.50146102905273 63.5 Z" stroke="none"/><path d="M 1.000003814697266 1 L 1.000003814697266 63 L 63.00146102905273 63 L 63.00146102905273 1 L 1.000003814697266 1 M 0 0 L 64.00146484375 0 L 64.00146484375 64 L 0 64 L 0 0 Z" stroke="none" fill="#fbfafc"/></g><g transform="translate(167.999 378)" fill="rgba(242,242,242,0.4)"><path d="M 63.50146102905273 63.5 L 0.5000024437904358 63.5 L 0.5000024437904358 0.5 L 63.50146102905273 0.5 L 63.50146102905273 63.5 Z" stroke="none"/><path d="M 1.000003814697266 1 L 1.000003814697266 63 L 63.00146102905273 63 L 63.00146102905273 1 L 1.000003814697266 1 M 0 0 L 64.00146484375 0 L 64.00146484375 64 L 0 64 L 0 0 Z" stroke="none" fill="#fbfafc"/></g><g transform="translate(23.999 399)" fill="rgba(242,242,242,0.4)"><path d="M 63.50146102905273 63.5 L 0.5000024437904358 63.5 L 0.5000024437904358 0.5 L 63.50146102905273 0.5 L 63.50146102905273 63.5 Z" stroke="none"/><path d="M 1.000003814697266 1 L 1.000003814697266 63 L 63.00146102905273 63 L 63.00146102905273 1 L 1.000003814697266 1 M 0 0 L 64.00146484375 0 L 64.00146484375 64 L 0 64 L 0 0 Z" stroke="none" fill="#fbfafc"/></g></g><g transform="translate(0 20.205)"><g transform="translate(-153 -1594)"><path d="M-1247.59-13757H-830.8" transform="translate(1446.59 15415.499)" fill="none" stroke="#f2f2f2" stroke-width="1"/><path d="M-1247.59-13757H-830.8" transform="translate(1446.59 15436.499)" fill="none" stroke="#f2f2f2" stroke-width="1"/><path d="M-1247.59-13757h421.832" transform="translate(1446.59 15457.499)" fill="none" stroke="#f2f2f2" stroke-width="1"/><path d="M-1247.59-13757h421.832" transform="translate(1446.59 15478.499)" fill="none" stroke="#f2f2f2" stroke-width="1"/><path d="M-1247.59-13757h424.914" transform="translate(1443.508 15499.499)" fill="none" stroke="#f2f2f2" stroke-width="1"/><path d="M-1247.59-13757h421.832" transform="translate(1446.59 15520.499)" fill="none" stroke="#f2f2f2" stroke-width="1"/><path d="M-1247.59-13757h421.832" transform="translate(1446.59 15541.499)" fill="none" stroke="#f2f2f2" stroke-width="1"/><path d="M-1247.59-13757h421.832" transform="translate(1446.59 15562.499)" fill="none" stroke="#f2f2f2" stroke-width="1"/><path d="M-1247.59-13757h421.832" transform="translate(1446.59 15583.499)" fill="none" stroke="#f2f2f2" stroke-width="1"/><path d="M-1247.59-13757h421.1" transform="translate(1443.033 15604.499)" fill="none" stroke="#f2f2f2" stroke-width="1"/><path d="M-1247.59-13757h409.635" transform="translate(1443.033 15625.499)" fill="none" stroke="#f2f2f2" stroke-width="1"/><path d="M-1247.59-13757H-851.7" transform="translate(1446.59 15646.499)" fill="none" stroke="#f2f2f2" stroke-width="1"/><path d="M-1247.59-13757h421.832" transform="translate(1446.59 15667.499)" fill="none" stroke="#f2f2f2" stroke-width="1"/><path d="M-1247.59-13757h441.2" transform="translate(1446.59 15688.499)" fill="none" stroke="#f2f2f2" stroke-width="1"/><path d="M-1247.59-13757h421.832" transform="translate(1446.59 15709.499)" fill="none" stroke="#f2f2f2" stroke-width="1"/><path d="M-1247.59-13757h421.832" transform="translate(1446.59 15730.499)" fill="none" stroke="#f2f2f2" stroke-width="1"/><path d="M-1247.59-13757h421.832" transform="translate(1446.59 15772.499)" fill="none" stroke="#f2f2f2" stroke-width="1"/><path d="M-1247.59-13757h252.806" transform="translate(1610.747 15793.499)" fill="none" stroke="#f2f2f2" stroke-width="1"/><path d="M-1247.59-13757h421.832" transform="translate(1446.59 15751.499)" fill="none" stroke="#f2f2f2" stroke-width="1"/><path d="M0,0H416" transform="translate(216.5 1621) rotate(90)" fill="none" stroke="#f2f2f2" stroke-width="1"/><path d="M0,0H388.167" transform="translate(237.5 1648.833) rotate(90)" fill="none" stroke="#f2f2f2" stroke-width="1"/><path d="M0,0H416" transform="translate(258.5 1621) rotate(90)" fill="none" stroke="#f2f2f2" stroke-width="1"/><path d="M0,0H388.167" transform="translate(279.5 1648.833) rotate(90)" fill="none" stroke="#f2f2f2" stroke-width="1"/><path d="M0,0H416" transform="translate(300.5 1621) rotate(90)" fill="none" stroke="#f2f2f2" stroke-width="1"/><path d="M0,0H416" transform="translate(321.5 1621) rotate(90)" fill="none" stroke="#f2f2f2" stroke-width="1"/><path d="M0,0H416" transform="translate(342.5 1621) rotate(90)" fill="none" stroke="#f2f2f2" stroke-width="1"/><path d="M0,0H388.167" transform="translate(363.5 1648.833) rotate(90)" fill="none" stroke="#f2f2f2" stroke-width="1"/><path d="M0,0H416" transform="translate(384.5 1621) rotate(90)" fill="none" stroke="#f2f2f2" stroke-width="1"/><path d="M0,0H409.17" transform="translate(405.5 1648.833) rotate(90)" fill="none" stroke="#f2f2f2" stroke-width="1"/><path d="M0,0H437" transform="translate(426.5 1621) rotate(90)" fill="none" stroke="#f2f2f2" stroke-width="1"/><path d="M0,0H399.787" transform="translate(447.5 1637.213) rotate(90)" fill="none" stroke="#f2f2f2" stroke-width="1"/><path d="M0,0H379.039" transform="translate(468.5 1657.961) rotate(90)" fill="none" stroke="#f2f2f2" stroke-width="1"/><path d="M0,0H379.039" transform="translate(489.5 1657.961) rotate(90)" fill="none" stroke="#f2f2f2" stroke-width="1"/><path d="M0,0H416" transform="translate(510.5 1621) rotate(90)" fill="none" stroke="#f2f2f2" stroke-width="1"/><path d="M0,0H416" transform="translate(531.5 1621) rotate(90)" fill="none" stroke="#f2f2f2" stroke-width="1"/><path d="M0,0H416" transform="translate(552.5 1621) rotate(90)" fill="none" stroke="#f2f2f2" stroke-width="1"/><path d="M0,0H416" transform="translate(573.5 1621) rotate(90)" fill="none" stroke="#f2f2f2" stroke-width="1"/><path d="M0,0H416" transform="translate(594.5 1621) rotate(90)" fill="none" stroke="#f2f2f2" stroke-width="1"/><g transform="translate(195 1700)" fill="#fff" stroke="#f8f2ff" stroke-width="1"><rect width="22" height="22" stroke="none"/><rect x="0.5" y="0.5" width="21" height="21" fill="none"/></g><g transform="translate(594 1658)" fill="#fff" stroke="#f8f2ff" stroke-width="1"><rect width="22" height="22" stroke="none"/><rect x="0.5" y="0.5" width="21" height="21" fill="none"/></g><g transform="translate(615 1679)" fill="#fff" stroke="#f8f2ff" stroke-width="1"><rect width="22" height="22" stroke="none"/><rect x="0.5" y="0.5" width="21" height="21" fill="none"/></g><g transform="translate(615 1742)" fill="#fff" stroke="#f8f2ff" stroke-width="1"><rect width="22" height="22" stroke="none"/><rect x="0.5" y="0.5" width="21" height="21" fill="none"/></g><g transform="translate(594 1805)" fill="#fff" stroke="#f8f2ff" stroke-width="1"><rect width="22" height="22" stroke="none"/><rect x="0.5" y="0.5" width="21" height="21" fill="none"/></g><g transform="translate(615 1784)" fill="#fff" stroke="#f8f2ff" stroke-width="1"><rect width="22" height="22" stroke="none"/><rect x="0.5" y="0.5" width="21" height="21" fill="none"/></g><g transform="translate(615 1826)" fill="#fff" stroke="#f8f2ff" stroke-width="1"><rect width="22" height="22" stroke="none"/><rect x="0.5" y="0.5" width="21" height="21" fill="none"/></g><g transform="translate(636 1805)" fill="#fff" stroke="#f8f2ff" stroke-width="1"><rect width="22" height="22" stroke="none"/><rect x="0.5" y="0.5" width="21" height="21" fill="none"/></g><g transform="translate(174 1847)" fill="#fff" stroke="#f8f2ff" stroke-width="1"><rect width="22" height="22" stroke="none"/><rect x="0.5" y="0.5" width="21" height="21" fill="none"/></g><g transform="translate(153 1868)" fill="#fff" stroke="#f8f2ff" stroke-width="1"><rect width="22" height="22" stroke="none"/><rect x="0.5" y="0.5" width="21" height="21" fill="none"/></g><g transform="translate(447 1637)" fill="#fff" stroke="#f8f2ff" stroke-width="1"><rect width="22" height="22" stroke="none"/><rect x="0.5" y="0.5" width="21" height="21" fill="none"/></g><g transform="translate(468 1616)" fill="#fff" stroke="#f8f2ff" stroke-width="1"><rect width="22" height="22" stroke="none"/><rect x="0.5" y="0.5" width="21" height="21" fill="none"/></g><g transform="translate(300 1616)" fill="#fff" stroke="#f8f2ff" stroke-width="1"><rect width="22" height="22" stroke="none"/><rect x="0.5" y="0.5" width="21" height="21" fill="none"/></g><g transform="translate(195 1637)" fill="#fff" stroke="#f8f2ff" stroke-width="1"><rect width="22" height="22" stroke="none"/><rect x="0.5" y="0.5" width="21" height="21" fill="none"/></g><g transform="translate(468 1595)" fill="#fff" stroke="#f8f2ff" stroke-width="1"><rect width="22" height="22" stroke="none"/><rect x="0.5" y="0.5" width="21" height="21" fill="none"/></g><g transform="translate(174 2015)" fill="#fff" stroke="#f8f2ff" stroke-width="1"><rect width="22" height="22" stroke="none"/><rect x="0.5" y="0.5" width="21" height="21" fill="none"/></g><g transform="translate(216 2036)" fill="#fff" stroke="#f8f2ff" stroke-width="1"><rect width="22" height="22" stroke="none"/><rect x="0.5" y="0.5" width="21" height="21" fill="none"/></g><g transform="translate(195 1994)" fill="#fff" stroke="#f8f2ff" stroke-width="1"><rect width="22" height="22" stroke="none"/><rect x="0.5" y="0.5" width="21" height="21" fill="none"/></g><g transform="translate(237 2057)" fill="#fff" stroke="#f8f2ff" stroke-width="1"><rect width="22" height="22" stroke="none"/><rect x="0.5" y="0.5" width="21" height="21" fill="none"/></g><g transform="translate(342 2015)" fill="#fff" stroke="#f8f2ff" stroke-width="1"><rect width="22" height="22" stroke="none"/><rect x="0.5" y="0.5" width="21" height="21" fill="none"/></g><g transform="translate(321 2036)" fill="#fff" stroke="#f8f2ff" stroke-width="1"><rect width="22" height="22" stroke="none"/><rect x="0.5" y="0.5" width="21" height="21" fill="none"/></g><g transform="translate(342 2057)" fill="#fff" stroke="#f8f2ff" stroke-width="1"><rect width="22" height="22" stroke="none"/><rect x="0.5" y="0.5" width="21" height="21" fill="none"/></g><g transform="translate(258 2057)" fill="#f8f2ff"><path d="M 21.5 21.5 L 0.5 21.5 L 0.5 0.5 L 21.5 0.5 L 21.5 21.5 Z" stroke="none"/><path d="M 1 1 L 1 21 L 21 21 L 21 1 L 1 1 M 0 0 L 22 0 L 22 22 L 0 22 L 0 0 Z" stroke="none" fill="#fbfafc"/></g><g transform="translate(237 2057)" fill="#f8f2ff"><path d="M 21.5 21.5 L 0.5 21.5 L 0.5 0.5 L 21.5 0.5 L 21.5 21.5 Z" stroke="none"/><path d="M 1 1 L 1 21 L 21 21 L 21 1 L 1 1 M 0 0 L 22 0 L 22 22 L 0 22 L 0 0 Z" stroke="none" fill="#fbfafc"/></g><g transform="translate(216 2057)" fill="#f8f2ff"><path d="M 21.5 21.5 L 0.5 21.5 L 0.5 0.5 L 21.5 0.5 L 21.5 21.5 Z" stroke="none"/><path d="M 1 1 L 1 21 L 21 21 L 21 1 L 1 1 M 0 0 L 22 0 L 22 22 L 0 22 L 0 0 Z" stroke="none" fill="#fbfafc"/></g><g transform="translate(258 2036)" fill="#f8f2ff"><path d="M 21.5 21.5 L 0.5 21.5 L 0.5 0.5 L 21.5 0.5 L 21.5 21.5 Z" stroke="none"/><path d="M 1 1 L 1 21 L 21 21 L 21 1 L 1 1 M 0 0 L 22 0 L 22 22 L 0 22 L 0 0 Z" stroke="none" fill="#fbfafc"/></g><g transform="translate(279 2057)" fill="#f8f2ff"><path d="M 21.5 21.5 L 0.5 21.5 L 0.5 0.5 L 21.5 0.5 L 21.5 21.5 Z" stroke="none"/><path d="M 1 1 L 1 21 L 21 21 L 21 1 L 1 1 M 0 0 L 22 0 L 22 22 L 0 22 L 0 0 Z" stroke="none" fill="#fbfafc"/></g><g transform="translate(300 2036)" fill="#f8f2ff"><path d="M 21.5 21.5 L 0.5 21.5 L 0.5 0.5 L 21.5 0.5 L 21.5 21.5 Z" stroke="none"/><path d="M 1 1 L 1 21 L 21 21 L 21 1 L 1 1 M 0 0 L 22 0 L 22 22 L 0 22 L 0 0 Z" stroke="none" fill="#fbfafc"/></g><g transform="translate(321 2015)" fill="#f8f2ff"><path d="M 21.5 21.5 L 0.5 21.5 L 0.5 0.5 L 21.5 0.5 L 21.5 21.5 Z" stroke="none"/><path d="M 1 1 L 1 21 L 21 21 L 21 1 L 1 1 M 0 0 L 22 0 L 22 22 L 0 22 L 0 0 Z" stroke="none" fill="#fbfafc"/></g><g transform="translate(573 2057)" fill="#f8f2ff"><path d="M 21.5 21.5 L 0.5 21.5 L 0.5 0.5 L 21.5 0.5 L 21.5 21.5 Z" stroke="none"/><path d="M 1 1 L 1 21 L 21 21 L 21 1 L 1 1 M 0 0 L 22 0 L 22 22 L 0 22 L 0 0 Z" stroke="none" fill="#fbfafc"/></g><g transform="translate(615 2015)" fill="#f8f2ff"><path d="M 21.5 21.5 L 0.5 21.5 L 0.5 0.5 L 21.5 0.5 L 21.5 21.5 Z" stroke="none"/><path d="M 1 1 L 1 21 L 21 21 L 21 1 L 1 1 M 0 0 L 22 0 L 22 22 L 0 22 L 0 0 Z" stroke="none" fill="#fbfafc"/></g><g transform="translate(594 1994)" fill="#f8f2ff"><path d="M 21.5 21.5 L 0.5 21.5 L 0.5 0.5 L 21.5 0.5 L 21.5 21.5 Z" stroke="none"/><path d="M 1 1 L 1 21 L 21 21 L 21 1 L 1 1 M 0 0 L 22 0 L 22 22 L 0 22 L 0 0 Z" stroke="none" fill="#fbfafc"/></g><g transform="translate(342 2036)" fill="#f8f2ff"><path d="M 21.5 21.5 L 0.5 21.5 L 0.5 0.5 L 21.5 0.5 L 21.5 21.5 Z" stroke="none"/><path d="M 1 1 L 1 21 L 21 21 L 21 1 L 1 1 M 0 0 L 22 0 L 22 22 L 0 22 L 0 0 Z" stroke="none" fill="#fbfafc"/></g><g transform="translate(342 1805)" fill="#f8f2ff"><path d="M 21.5 21.5 L 0.5 21.5 L 0.5 0.5 L 21.5 0.5 L 21.5 21.5 Z" stroke="none"/><path d="M 1 1 L 1 21 L 21 21 L 21 1 L 1 1 M 0 0 L 22 0 L 22 22 L 0 22 L 0 0 Z" stroke="none" fill="#fbfafc"/></g><g transform="translate(447 1679)" fill="#f8f2ff"><path d="M 21.5 21.5 L 0.5 21.5 L 0.5 0.5 L 21.5 0.5 L 21.5 21.5 Z" stroke="none"/><path d="M 1 1 L 1 21 L 21 21 L 21 1 L 1 1 M 0 0 L 22 0 L 22 22 L 0 22 L 0 0 Z" stroke="none" fill="#fbfafc"/></g><g transform="translate(426 1700)" fill="#f8f2ff"><path d="M 21.5 21.5 L 0.5 21.5 L 0.5 0.5 L 21.5 0.5 L 21.5 21.5 Z" stroke="none"/><path d="M 1 1 L 1 21 L 21 21 L 21 1 L 1 1 M 0 0 L 22 0 L 22 22 L 0 22 L 0 0 Z" stroke="none" fill="#fbfafc"/></g><g transform="translate(531 1721)" fill="#f8f2ff"><path d="M 21.5 21.5 L 0.5 21.5 L 0.5 0.5 L 21.5 0.5 L 21.5 21.5 Z" stroke="none"/><path d="M 1 1 L 1 21 L 21 21 L 21 1 L 1 1 M 0 0 L 22 0 L 22 22 L 0 22 L 0 0 Z" stroke="none" fill="#fbfafc"/></g><g transform="translate(510 1742)" fill="#f8f2ff"><path d="M 21.5 21.5 L 0.5 21.5 L 0.5 0.5 L 21.5 0.5 L 21.5 21.5 Z" stroke="none"/><path d="M 1 1 L 1 21 L 21 21 L 21 1 L 1 1 M 0 0 L 22 0 L 22 22 L 0 22 L 0 0 Z" stroke="none" fill="#fbfafc"/></g><g transform="translate(552 1742)" fill="#f8f2ff"><path d="M 21.5 21.5 L 0.5 21.5 L 0.5 0.5 L 21.5 0.5 L 21.5 21.5 Z" stroke="none"/><path d="M 1 1 L 1 21 L 21 21 L 21 1 L 1 1 M 0 0 L 22 0 L 22 22 L 0 22 L 0 0 Z" stroke="none" fill="#fbfafc"/></g><g transform="translate(216 1700)" fill="#f8f2ff"><path d="M 21.5 21.5 L 0.5 21.5 L 0.5 0.5 L 21.5 0.5 L 21.5 21.5 Z" stroke="none"/><path d="M 1 1 L 1 21 L 21 21 L 21 1 L 1 1 M 0 0 L 22 0 L 22 22 L 0 22 L 0 0 Z" stroke="none" fill="#fbfafc"/></g><g transform="translate(216 1679)" fill="#f8f2ff"><path d="M 21.5 21.5 L 0.5 21.5 L 0.5 0.5 L 21.5 0.5 L 21.5 21.5 Z" stroke="none"/><path d="M 1 1 L 1 21 L 21 21 L 21 1 L 1 1 M 0 0 L 22 0 L 22 22 L 0 22 L 0 0 Z" stroke="none" fill="#fbfafc"/></g><g transform="translate(237 1679)" fill="#f8f2ff"><path d="M 21.5 21.5 L 0.5 21.5 L 0.5 0.5 L 21.5 0.5 L 21.5 21.5 Z" stroke="none"/><path d="M 1 1 L 1 21 L 21 21 L 21 1 L 1 1 M 0 0 L 22 0 L 22 22 L 0 22 L 0 0 Z" stroke="none" fill="#fbfafc"/></g><g transform="translate(237 1721)" fill="#f8f2ff"><path d="M 21.5 21.5 L 0.5 21.5 L 0.5 0.5 L 21.5 0.5 L 21.5 21.5 Z" stroke="none"/><path d="M 1 1 L 1 21 L 21 21 L 21 1 L 1 1 M 0 0 L 22 0 L 22 22 L 0 22 L 0 0 Z" stroke="none" fill="#fbfafc"/></g><g transform="translate(258 1742)" fill="#f8f2ff"><path d="M 21.5 21.5 L 0.5 21.5 L 0.5 0.5 L 21.5 0.5 L 21.5 21.5 Z" stroke="none"/><path d="M 1 1 L 1 21 L 21 21 L 21 1 L 1 1 M 0 0 L 22 0 L 22 22 L 0 22 L 0 0 Z" stroke="none" fill="#fbfafc"/></g><g transform="translate(404.999 1763.115)" fill="#fff"><path d="M 84.45068359375 84.28614044189453 L 0.4999973475933075 84.28614044189453 L 0.4999973475933075 0.5000035762786865 L 84.45068359375 0.5000035762786865 L 84.45068359375 84.28614044189453 Z" stroke="none"/><path d="M 1 1 L 1 83.78614044189453 L 83.95068359375 83.78614044189453 L 83.95068359375 1 L 1 1 M 0 0 L 84.95068359375 0 L 84.95068359375 84.78614044189453 L 0 84.78614044189453 L 0 0 Z" stroke="none" fill="#fbfafc"/></g><g transform="translate(509.999 1847)" fill="#fff"><path d="M 63.50146102905273 63.5 L 0.5000024437904358 63.5 L 0.5000024437904358 0.5 L 63.50146102905273 0.5 L 63.50146102905273 63.5 Z" stroke="none"/><path d="M 1.000003814697266 1 L 1.000003814697266 63 L 63.00146102905273 63 L 63.00146102905273 1 L 1.000003814697266 1 M 0 0 L 64.00146484375 0 L 64.00146484375 64 L 0 64 L 0 0 Z" stroke="none" fill="#fbfafc"/></g><g transform="translate(320.999 1889)" fill="#fff"><path d="M 63.50146102905273 63.5 L 0.5000024437904358 63.5 L 0.5000024437904358 0.5 L 63.50146102905273 0.5 L 63.50146102905273 63.5 Z" stroke="none"/><path d="M 1.000003814697266 1 L 1.000003814697266 63 L 63.00146102905273 63 L 63.00146102905273 1 L 1.000003814697266 1 M 0 0 L 64.00146484375 0 L 64.00146484375 64 L 0 64 L 0 0 Z" stroke="none" fill="#fbfafc"/></g><g transform="translate(176.999 1910)" fill="#fff"><path d="M 63.50146102905273 63.5 L 0.5000024437904358 63.5 L 0.5000024437904358 0.5 L 63.50146102905273 0.5 L 63.50146102905273 63.5 Z" stroke="none"/><path d="M 1.000003814697266 1 L 1.000003814697266 63 L 63.00146102905273 63 L 63.00146102905273 1 L 1.000003814697266 1 M 0 0 L 64.00146484375 0 L 64.00146484375 64 L 0 64 L 0 0 Z" stroke="none" fill="#fbfafc"/></g><g transform="translate(279 1679)" fill="#fff"><path d="M 84.41015625 63.61328506469727 L 0.5000003576278687 63.61328506469727 L 0.5000003576278687 0.4999961853027344 L 84.41015625 0.4999961853027344 L 84.41015625 63.61328506469727 Z" stroke="none"/><path d="M 0.9999923706054688 0.9999923706054688 L 0.9999923706054688 63.11327743530273 L 83.91016387939453 63.11327743530273 L 83.91016387939453 0.9999923706054688 L 0.9999923706054688 0.9999923706054688 M -7.62939453125e-06 -7.62939453125e-06 L 84.91016387939453 -7.62939453125e-06 L 84.91016387939453 64.11327362060547 L -7.62939453125e-06 64.11327362060547 L -7.62939453125e-06 -7.62939453125e-06 Z" stroke="none" fill="#fbfafc"/></g><g transform="translate(405 2057)" fill="#f8f2ff"><path d="M 21.5 21.5 L 0.5 21.5 L 0.5 0.5 L 21.5 0.5 L 21.5 21.5 Z" stroke="none"/><path d="M 1 1 L 1 21 L 21 21 L 21 1 L 1 1 M 0 0 L 22 0 L 22 22 L 0 22 L 0 0 Z" stroke="none" fill="#fbfafc"/></g><g transform="translate(552 2057)" fill="#f8f2ff"><path d="M 21.5 21.5 L 0.5 21.5 L 0.5 0.5 L 21.5 0.5 L 21.5 21.5 Z" stroke="none"/><path d="M 1 1 L 1 21 L 21 21 L 21 1 L 1 1 M 0 0 L 22 0 L 22 22 L 0 22 L 0 0 Z" stroke="none" fill="#fbfafc"/></g><g transform="translate(363 2057)" fill="#fff" stroke="#f8f2ff" stroke-width="1"><rect width="22" height="22" stroke="none"/><rect x="0.5" y="0.5" width="21" height="21" fill="none"/></g><g transform="translate(426 2057)" fill="#fff" stroke="#f8f2ff" stroke-width="1"><rect width="22" height="22" stroke="none"/><rect x="0.5" y="0.5" width="21" height="21" fill="none"/></g><g transform="translate(594 2036)" fill="#fff" stroke="#f8f2ff" stroke-width="1"><rect width="22" height="22" stroke="none"/><rect x="0.5" y="0.5" width="21" height="21" fill="none"/></g><g transform="translate(615 2057)" fill="#fff" stroke="#f8f2ff" stroke-width="1"><rect width="22" height="22" stroke="none"/><rect x="0.5" y="0.5" width="21" height="21" fill="none"/></g><g transform="translate(279 1679)" fill="rgba(242,242,242,0.4)"><path d="M 84.41015625 63.61328506469727 L 0.5000003576278687 63.61328506469727 L 0.5000003576278687 0.4999961853027344 L 84.41015625 0.4999961853027344 L 84.41015625 63.61328506469727 Z" stroke="none"/><path d="M 0.9999923706054688 0.9999923706054688 L 0.9999923706054688 63.11327743530273 L 83.91016387939453 63.11327743530273 L 83.91016387939453 0.9999923706054688 L 0.9999923706054688 0.9999923706054688 M -7.62939453125e-06 -7.62939453125e-06 L 84.91016387939453 -7.62939453125e-06 L 84.91016387939453 64.11327362060547 L -7.62939453125e-06 64.11327362060547 L -7.62939453125e-06 -7.62939453125e-06 Z" stroke="none" fill="#fbfafc"/></g><g transform="translate(404.999 1763.115)" fill="rgba(242,242,242,0.4)"><path d="M 84.45068359375 84.28614044189453 L 0.4999973475933075 84.28614044189453 L 0.4999973475933075 0.5000035762786865 L 84.45068359375 0.5000035762786865 L 84.45068359375 84.28614044189453 Z" stroke="none"/><path d="M 1 1 L 1 83.78614044189453 L 83.95068359375 83.78614044189453 L 83.95068359375 1 L 1 1 M 0 0 L 84.95068359375 0 L 84.95068359375 84.78614044189453 L 0 84.78614044189453 L 0 0 Z" stroke="none" fill="#fbfafc"/></g><g transform="translate(509.999 1847)" fill="rgba(242,242,242,0.4)"><path d="M 63.50146102905273 63.5 L 0.5000024437904358 63.5 L 0.5000024437904358 0.5 L 63.50146102905273 0.5 L 63.50146102905273 63.5 Z" stroke="none"/><path d="M 1.000003814697266 1 L 1.000003814697266 63 L 63.00146102905273 63 L 63.00146102905273 1 L 1.000003814697266 1 M 0 0 L 64.00146484375 0 L 64.00146484375 64 L 0 64 L 0 0 Z" stroke="none" fill="#fbfafc"/></g><g transform="translate(320.999 1889)" fill="rgba(242,242,242,0.4)"><path d="M 63.50146102905273 63.5 L 0.5000024437904358 63.5 L 0.5000024437904358 0.5 L 63.50146102905273 0.5 L 63.50146102905273 63.5 Z" stroke="none"/><path d="M 1.000003814697266 1 L 1.000003814697266 63 L 63.00146102905273 63 L 63.00146102905273 1 L 1.000003814697266 1 M 0 0 L 64.00146484375 0 L 64.00146484375 64 L 0 64 L 0 0 Z" stroke="none" fill="#fbfafc"/></g><g transform="translate(176.999 1910)" fill="rgba(242,242,242,0.4)"><path d="M 63.50146102905273 63.5 L 0.5000024437904358 63.5 L 0.5000024437904358 0.5 L 63.50146102905273 0.5 L 63.50146102905273 63.5 Z" stroke="none"/><path d="M 1.000003814697266 1 L 1.000003814697266 63 L 63.00146102905273 63 L 63.00146102905273 1 L 1.000003814697266 1 M 0 0 L 64.00146484375 0 L 64.00146484375 64 L 0 64 L 0 0 Z" stroke="none" fill="#fbfafc"/></g></g><g transform="translate(60.413 266.174)"><path d="M458.894,802.821c.746-8.478,5.913-7.247,15.681-6.388s17.083,8.428,16.337,16.906-9.269,14.653-19.038,13.794S458.148,811.3,458.894,802.821Z" transform="translate(-417.878 -682.293)" fill="#312d2e"/><path d="M506.627,771.725H449.212a13.337,13.337,0,0,1-13.331-13.33v-53.82h70.746Z" transform="translate(-409.966 -650.801)" fill="url(#a)"/><path d="M479.2,885.468l.553,3.936H483.1v-1.668l-.72-2.268Z" transform="translate(-424.916 -713.232)" fill="#15191f"/><path d="M478.961,885.235l.071-.352c-.132.01-.267.02-.406.02q-4.679,0-9.357-.013c-.14,2.62-.288,4.281-.288,4.281h3.346v-1.935l2.567,2h8.382v-2.693Z" transform="translate(-421.39 -713.03)" fill="#0a0a0a"/><path d="M471.905,818.787c-.385,4.879-5.593,4.111-5.642,9.027,0,.078,2.608,22.663,1.285,34.6h10.532c1.494-23.438,10.086-22.611,11.889-39.827C489.968,819.309,481.243,818.6,471.905,818.787Z" transform="translate(-420.452 -690.209)" fill="#312d2e"/><path d="M479.225,885.422l.553,3.446h3.346v-1.694l-.443-1.752Z" transform="translate(-424.925 -713.216)" fill="#0a0a0a"/><path d="M531.324,746.543a9.627,9.627,0,1,0-9.458-9.792v.168a9.561,9.561,0,0,0,9.458,9.625" transform="translate(-439.642 -658.641)" fill="#fb7e51"/><path d="M447.454,777.581c-19.092-4.455-29.217-12.915-29.217-12.915" transform="translate(-403.876 -671.54)" fill="none" stroke="#ff8f66" stroke-linecap="round" stroke-miterlimit="10" stroke-width="10"/><g transform="translate(28.746 97.423)"><path d="M443.858,771.227c-.6,1.254-3.358,7.258-3.654,9.126a146.209,146.209,0,0,0,16.966,5.623l6.058-9.168C458.55,775.716,447.371,772.621,443.858,771.227Z" transform="translate(-440.204 -771.227)" fill="#f2eddc"/></g><g transform="translate(33.571 98.99)"><path d="M463.106,782.53a74.849,74.849,0,0,1-4.422,11c-1.652,3.068-3.733,5.875-5.435,8.911l36.461,7.075a43.631,43.631,0,0,1,.729-11.593l-8.371-22.873a114.886,114.886,0,0,0-15.029-1.434A71.4,71.4,0,0,0,463.106,782.53Z" transform="translate(-449.531 -773.62)" fill="#f2eddc"/><path d="M464.543,777.265c-.327-3.6,2.138-.568,5.342,2.65.145.988,2.315,9.742,2.315,9.742a78.8,78.8,0,0,0,8.06-8.29c4.529.079,6.451-.782,6.451-.782l1.375,13.838s2.153,4.447-.349,16.136a89.556,89.556,0,0,1-20.2-3.416c-10.771-3.366-17.553-11.82-19.962-14.435,2.1-6.276,9.017-.42,10.914-3.853C457.994,782.295,464.87,780.866,464.543,777.265Z" transform="translate(-447.571 -774.315)" fill="#edcf00"/><g transform="translate(4.055 2.484)"><g clip-path="url(#b)"><g transform="translate(0 12.056)"><path d="M454.976,797.779c7.963,10.332,21.727,15.986,36.584,15.676" transform="translate(-454.182 -796.498)" fill="none" stroke="#e69c31" stroke-miterlimit="10" stroke-width="3.5"/><path d="M453.763,795.823c11.524,10.615,29.386,11.13,38.2,11" transform="translate(-453.763 -795.823)" fill="none" stroke="#e69c31" stroke-miterlimit="10" stroke-width="3.5"/></g><path d="M482.907,794.749c-4.268,7.24-6.793,19.254-6.793,19.254" transform="translate(-461.477 -783.396)" fill="none" stroke="#ad960c" stroke-miterlimit="10" stroke-width="1"/></g></g></g><path d="M410.982,761.408a4.656,4.656,0,0,0-.565-4.416,4.079,4.079,0,0,0-4.124-1.509,3.634,3.634,0,0,0-2.709,3.366" transform="translate(-398.82 -668.333)" fill="none" stroke="#ff8f66" stroke-linecap="round" stroke-miterlimit="10" stroke-width="10"/><path d="M513.832,699.935s-13.552-1.991-20.742-2.6c-6.859-.553-15.045-.885-23.785-.885s-16.926.332-23.785.885c-7.19.553-20.632,3.374-20.632,3.374v3.263c0,3.1,19.858,5.919,44.417,5.919s44.527-2.544,44.527-5.642Z" transform="translate(-406.172 -647.996)" fill="#363233"/><g transform="translate(0 89.95)"><path d="M469.708,808.981c-28.977-3.684-29.524-16.226-33.548-20.423-1.714-1.788-11.627-5.425-14.414-6.186-6.673-1.822-16.589-11.31-16.589-11.31l-4.7,5.86c1.981,2.778,2.978,5.323,9.916,11.044,3.929,3.241,13.43,16.071,30.5,20.669C457.853,821.229,467.6,812.979,469.708,808.981Z" transform="translate(-397.74 -763.698)" fill="#312d2e"/><path d="M400.206,772.182l4.36-6.048-.384-.318,1.615-4.259a.641.641,0,0,0-.225-.747l-1.211-.873a.641.641,0,0,0-.9.145l-3.64,5.05a.641.641,0,0,0-.121.392l.043,1.686a.641.641,0,0,1-1.016.536h0a.642.642,0,0,0-.9.145l-1.406,1.95a.637.637,0,0,0,.047.808c.443.478,1.285,1.371,2.418,2.5.109.107.223.223.335.337C399.556,773.053,399.879,772.616,400.206,772.182Z" transform="translate(-396.308 -759.817)" fill="#0a0a0a"/></g><path d="M510.865,718.138c0,19.415-13.883,30.865-31.031,30.865s-31.03-11.45-31.03-30.865,13.883-39.494,31.031-39.494,31.03,20.079,31.03,39.494" transform="translate(-414.426 -641.851)" fill="url(#c)"/><path d="M515.2,741.4H476.649a9.513,9.513,0,0,0-9.514,9.513h0v14.05a32.729,32.729,0,0,0,18.972,5.7c13.276,0,24.615-6.859,29.04-19.028L515.2,741.4Z" transform="translate(-420.753 -663.511)" fill="#ff8f66"/><path d="M470.286,721.79h-34.4V697.4l49.339,9.458a14.978,14.978,0,0,1-14.934,14.935" transform="translate(-409.966 -648.323)" fill="url(#d)"/><path d="M518.29,717.39H507.338V687.135l29.814-2.489-2.488,18.2c0,8.959-7.413,14.545-16.373,14.545" transform="translate(-434.628 -643.923)" fill="url(#d)"/><path d="M448.042,746.543a9.627,9.627,0,1,0-9.458-9.792v.168a9.526,9.526,0,0,0,9.425,9.625h.033" transform="translate(-410.898 -658.641)" fill="#fb7e51"/><path d="M484.6,740.3h0a4.426,4.426,0,0,0-4.34,4.484v3.475a4.343,4.343,0,1,0,8.681,0v-3.475a4.392,4.392,0,0,0-4.3-4.483H484.6" transform="translate(-425.284 -663.131)" fill="#262223"/><path d="M514.348,740.3h0a4.427,4.427,0,0,0-4.34,4.484v3.475a4.343,4.343,0,1,0,8.681,0v-3.475a4.392,4.392,0,0,0-4.3-4.483h-.041" transform="translate(-435.549 -663.131)" fill="#262223"/><path d="M498.618,770.86a5.808,5.808,0,0,0,5.808-5.807H492.81a5.879,5.879,0,0,0,5.808,5.808" transform="translate(-429.614 -671.673)" fill="#fff"/><path d="M448.416,740.785a2.732,2.732,0,0,1-.221-5.089,4.348,4.348,0,0,1,3.43-.111c2.378.94,3.043,2.489,3.043,5.255a6.374,6.374,0,0,1-1.6,4.257v-.443c0-1.712-2.489-3.1-4.647-3.869" transform="translate(-413.651 -661.4)" fill="#ff8f66"/><path d="M97.458,48.886l4.011-.561L98.832,25.674l-4.944-8.322.522,24.223.639,7.586Z" fill="#fff100"/><path d="M424.878,702.239v-4.37c0-2.987,18.585-5.476,42.038-5.642h2.544c24.558,0,44.527,2.544,44.527,5.642v4.37a.84.84,0,0,1-.166.72c-.055-.055-.166-.111-.221-.166a8.869,8.869,0,0,0-3.817-1.659,52.368,52.368,0,0,0-5.863-1.162,6.832,6.832,0,0,0-6.527,2.655,9.617,9.617,0,0,1-7.633,3.762H465.7a14.593,14.593,0,0,1-8.85-2.987l-3.43-2.6a7.87,7.87,0,0,0-4.812-1.6c-4.65.055-7.855.055-8.352.111a75.5,75.5,0,0,0-11.228,1.881,10.286,10.286,0,0,0-3.982,1.825,1,1,0,0,1-.167-.776" transform="translate(-406.162 -646.539)" fill="#fff100"/><path d="M457.68,630.313a40.882,40.882,0,0,0-27.1,38.5v5.805a96.845,96.845,0,0,1,17.645-2.544c-.055-1.106-.055-2.213-.055-3.374,0-15.209,3.65-28.871,9.514-38.385" transform="translate(-408.135 -625.171)" fill="url(#f)"/><path d="M512.086,641.568a40.716,40.716,0,0,0-45.136-12.5c-5.863,9.514-9.514,23.177-9.514,38.332,0,1.106,0,2.268.055,3.374,6.084-.443,13.109-.775,20.632-.83h2.489c14.326,0,27.1.885,35.232,2.213.055-1.549.111-3.153.111-4.7a83.7,83.7,0,0,0-3.868-25.886" transform="translate(-417.405 -623.923)" fill="#fff100"/><path d="M500.733,642.815l-2.6-16.207a3.1,3.1,0,0,0-2.213-2.489,40.914,40.914,0,0,0-23.066,0,3.034,3.034,0,0,0-2.157,2.489l-2.6,16.207" transform="translate(-421.085 -622.461)" fill="#fff100"/><path d="M550.264,675.43a40.731,40.731,0,0,0-9.293-25.942,85.261,85.261,0,0,1,3.872,25.831c0,1.6-.055,3.153-.111,4.7a46.865,46.865,0,0,1,5.531,1.162Z" transform="translate(-446.235 -631.789)" fill="url(#f)"/><path d="M469.414,692.227c24.558,0,44.527,2.544,44.527,5.642v.111a3.209,3.209,0,0,1-3.209,3.209,4.855,4.855,0,0,1-.885-.111h-.055a96.671,96.671,0,0,0-16.539-2.378c-6.859-.553-15.045-.885-23.785-.885s-16.926.332-23.785.885a95.8,95.8,0,0,0-16.539,2.378l-.166.055a3.209,3.209,0,0,1-3.929-2.268,2.211,2.211,0,0,1-.166-.83v-.111c0-3.153,19.915-5.7,44.529-5.7" transform="translate(-406.171 -646.539)" fill="#fff100"/><path d="M502.391,653.756v-9.79l9.4,15.211-9.4,5.421Z" transform="translate(-432.92 -629.883)" fill="#4b4d4d"/><path d="M497.435,685.708v-7.52l-9.4-5.752Z" transform="translate(-427.965 -639.708)" fill="#f9c838"/><path d="M511.739,672.431l-9.348,5.756v7.523Z" transform="translate(-432.92 -639.707)" fill="#f9c838"/><path d="M497.435,643.966l-9.4,15.211,9.4-5.421Z" transform="translate(-427.965 -629.883)" fill="#f9c838"/><path d="M511.739,672.431l-9.348,5.756v7.523Z" transform="translate(-432.92 -639.707)" fill="#4b4d4d"/><path d="M488.032,664.337h0l9.4,5.421V658.916Z" transform="translate(-427.965 -635.042)" fill="#f9c838"/><path d="M497.435,685.708v-7.52l-9.4-5.752Z" transform="translate(-427.965 -639.708)" fill="#0a0a0a"/><path d="M488.032,659.177l9.4-15.211V664.6Z" transform="translate(-427.965 -629.883)" fill="#0a0a0a"/><path d="M517.038,782.945a130.485,130.485,0,0,0,31.892-16.279" transform="translate(-437.976 -672.23)" fill="none" stroke="#ff8f66" stroke-linecap="round" stroke-miterlimit="10" stroke-width="10"/><g transform="translate(70.501 99.584)"><path d="M506.779,794.041c-6.012-.744-.523-12.7-.523-12.7l3.89-.355a115.078,115.078,0,0,0,15.663-6.458l4.316,9.232a138.851,138.851,0,0,1-17.6,7.313A57.347,57.347,0,0,0,506.779,794.041Z" transform="translate(-503.964 -774.527)" fill="#f2eddc"/></g><path d="M450.249,806.509c14.828,20.813,11.772,51.745,11.772,51.745h3.456C465.475,858.187,469.663,828.319,450.249,806.509Z" transform="translate(-414.925 -685.981)" fill="#262223"/><path d="M566.349,755.206c4.108-2.87,10.427-.377,16.116,1.915.965.389.68,2.445.311,3.34-7.044,1.639-11.792,4.906-16.868,4.831-3.411-.05-1.764-2.407-1.764-4.831l-2.2-.847C561.942,757.19,561.221,758.789,566.349,755.206Z" transform="translate(-453.461 -667.83)" fill="#ff8f66"/><line x2="8.295" transform="translate(129.203 90.959)" fill="none" stroke="#ff8f66" stroke-linecap="round" stroke-miterlimit="10" stroke-width="3"/><g transform="translate(-203.715 63.403)"><g transform="translate(172.811 0.692)"><path d="M25.748,35.091,13.6,28.068c-.013.116-.021.208-.025.263,0,.106-.008.2-.011.293-.007.148-.014.29-.014.45a9.665,9.665,0,0,0,.137,1.462,1.992,1.992,0,0,0,.279.72,2.067,2.067,0,0,1,.126.252,1.539,1.539,0,0,1,.115.563.714.714,0,0,1-.6.742q-.283-.054-.558-.115a.825.825,0,0,1-.337-.7,1.487,1.487,0,0,1,.085-.49c.038-.112.082-.214.129-.318a3.618,3.618,0,0,0,.227-.653,6.556,6.556,0,0,0,.225-1.512,3.419,3.419,0,0,0-.078-.693c-.033-.159-.068-.325-.105-.5L.813,20.673A1.622,1.622,0,0,1,0,19.267a1.328,1.328,0,0,1,.008-.15V16.961C0,16.895,0,16.819,0,16.733a1.621,1.621,0,0,1,.813-1.406L25.417.621,25.455.6l-.038.022L.813,15.327,25.465.592l.009-.006L26.09.219l.041-.024a2.222,2.222,0,0,1,.35-.14,1.608,1.608,0,0,1,.782-.014l.066.02a1.487,1.487,0,0,1,.38.155l-.006,0,.017.008c.022.011.107.058.249.131s.276.165.432.263c0,0,21.289,12.216,24.44,14.119l.186.108a.236.236,0,0,1,.038.028l.063.04a.172.172,0,0,1,.039.036,1.62,1.62,0,0,1,.672,1.277h0v3.559l-.255-.125a1.619,1.619,0,0,1-.558.53l-25.655,14.9a1.612,1.612,0,0,1-1.625,0ZM13.631,27.829c.09-.636.291-1.592.69-1.567H14.3C13.917,26.262,13.719,27.2,13.631,27.829Zm.947-1.446-.062-.041A.657.657,0,0,0,14.578,26.383ZM11.613,24.4h0Zm-.047-.034h0Zm18.6-.622a.958.958,0,0,0-.418-.105A.957.957,0,0,1,30.166,23.745ZM7.231,23.614c-.175-.153-.244-.3-.509-.854C6.988,23.321,7.056,23.461,7.231,23.614ZM1.693,18.648c.233.134.443.26.533.325-.088-.065-.3-.191-.533-.328l-.1-.058Zm-.309-.178c.069.038.135.074.188.105l-.186-.105-.1-.055.046.026L1.267,18.4c-.085-.048-.174-.1-.264-.153l-.021-.012c.129.079.259.151.375.217l-.022-.013.048.028Zm-.861-.554h0c-.03-.026-.057-.052-.083-.077C.466,17.865.494,17.891.524,17.917Zm52.409-.2.008,0Zm.782-1.678v0Zm-.006-.036,0-.012Zm-.007-.037,0-.018Zm-.008-.038-.005-.022Zm-.009-.037-.007-.028Zm-.01-.039-.01-.033Zm-.011-.037c0-.013-.008-.024-.012-.036C53.655,15.793,53.659,15.8,53.663,15.817Zm-.013-.04-.013-.037Zm-.141-.306a1.591,1.591,0,0,1,.127.268,1.582,1.582,0,0,0-.127-.268c-.073-.123-.141-.235-.2-.325C53.369,15.238,53.437,15.35,53.51,15.472ZM28.4.615l-.008,0,.077.044Zm-.687-.4,0,0,.008,0Zm-.005,0h0Z" transform="translate(0 0)" fill="#fff" stroke="rgba(0,0,0,0)" stroke-miterlimit="10" stroke-width="1" opacity="0.997"/></g><g transform="translate(172.811 0.692)" opacity="0.318"><g transform="translate(0 16.226)" opacity="0.422"><path d="M184.327,29.1c-1.436-.927-3.025-1.683-3.662-.9-.206.255-.42.358-.624.179-.175-.154-.242-.294-.509-.853l-.147-.306a5.654,5.654,0,0,0-.407-.7l-.04-.061a4.958,4.958,0,0,0-2.108-1.721l-.211-.111c-.568-.307-1.124-.622-1.582-.887-.088-.065-.3-.19-.532-.326l-.1-.058c-.059-.035-.13-.075-.209-.119a3.421,3.421,0,0,1-1.049-.758c-.034-.052-.065-.1-.094-.14a1.113,1.113,0,0,1-.235-.707v2.251c0,.05-.007.1-.007.151a1.625,1.625,0,0,0,.813,1.407l12.388,7.163C185.721,31.289,185.26,29.7,184.327,29.1Z" transform="translate(-172.811 -20.996)" fill="#4f00a3" fill-rule="evenodd"/><path d="M229.826,20.875a1.69,1.69,0,0,1-.842,1.489l-2,1.164-1.969,1.727s-3.034-.9-4.018-.283c-.221.139-.614-.1-.964-.317L220,24.632c-.36-.22-1.186.467-1.578.806a.7.7,0,0,0-.213.49,1.081,1.081,0,0,1-.488.92,1.635,1.635,0,0,0-1.192-.571,10.628,10.628,0,0,0-4.555.763c-.579.3-1.073.563-1.486.787a.287.287,0,0,0-.019.481.6.6,0,0,1-.019.982l-.124.085s-1.344-.738-1.394-.805c0,0-.254.089-.374.135a.8.8,0,0,1-.13.039,2.756,2.756,0,0,1-1.938-.25.878.878,0,0,0-1.286.082c-.026.024-.048.046-.068.063-.165.14-.137.916-.123,1.288v.006c0,.025,0,.269,0,.294s-.465.366-.465.366a2.1,2.1,0,0,1-1.036.348,2.059,2.059,0,0,1-1.38-.551l-.059-.042a1.09,1.09,0,0,1-.52-.816s.136-1.581-1.062-.961c-.176.09-.325.178-.458.256a1.34,1.34,0,0,1-1.59.123c-.942-.456-3.409,1.276-3.409,1.276l-.619.384a3.631,3.631,0,0,1-3.7.414c-.035-.021-.069-.042-.1-.064a.719.719,0,0,0-.069-.042c-.543-.291-.771,1.115-.846,1.767l12.148,7.024a1.624,1.624,0,0,0,1.623,0l25.657-14.9a1.625,1.625,0,0,0,.556-.531l.257.126V20.841Z" transform="translate(-176.1 -20.841)" fill="#4f00a3" fill-rule="evenodd"/></g><g transform="translate(0.205 0.002)" opacity="0.317"><path d="M205.7.759c.016,0,.033,0,.048-.007C205.73.756,205.714.754,205.7.759Z" transform="translate(-179.42 -0.705)" fill="#4f00a3"/><path d="M206.341.708c-.048,0-.093-.014-.141-.014C206.247.694,206.293.705,206.341.708Z" transform="translate(-179.518 -0.694)" fill="#4f00a3"/><path d="M207.129.925l0,0A1.6,1.6,0,0,0,206.7.755,2.423,2.423,0,0,1,207.129.925Z" transform="translate(-179.614 -0.706)" fill="#4f00a3"/><path d="M198.463,1.344l.02-.014L199.1.963,173.82,16.072l24.6-14.706Z" transform="translate(-173.213 -0.746)" fill="#4f00a3"/><path d="M238.658,19.131c-.018-.011-.031-.027-.048-.037l-.217-.126C238.5,19.034,238.592,19.089,238.658,19.131Z" transform="translate(-185.786 -4.252)" fill="#4f00a3"/><path d="M208.146,1.494l-.077-.045.01.006Z" transform="translate(-179.881 -0.841)" fill="#4f00a3"/><path d="M174.47,23.593l-.257-.146.815.471-.25-.148-.1-.058C174.62,23.677,174.549,23.637,174.47,23.593Z" transform="translate(-173.289 -5.124)" fill="#4f00a3"/><path d="M178.755,26.073a8.479,8.479,0,0,0-1.12-.671l-.211-.111c-.163-.089-.321-.176-.48-.265Z" transform="translate(-173.821 -5.432)" fill="#4f00a3"/><path d="M186.768,30.706a13.127,13.127,0,0,0-1.139-.658Z" transform="translate(-175.512 -6.41)" fill="#4f00a3"/><path d="M238.77,19.248a3.615,3.615,0,0,1,.352.53,1.657,1.657,0,0,1-.57,2.235l.089-.052a1.609,1.609,0,0,0,.13-2.714Z" transform="translate(-185.817 -4.307)" fill="#4f00a3"/><path d="M221.5,25.879c-.221.139-.614-.1-.964-.317l-.037-.023c-.36-.22-1.186.467-1.578.806a.7.7,0,0,0-.213.49,1.081,1.081,0,0,1-.488.92,1.635,1.635,0,0,0-1.192-.571,10.628,10.628,0,0,0-4.555.763c-.579.3-1.073.563-1.486.787a.287.287,0,0,0-.019.481.6.6,0,0,1-.019.982l-.124.085s-1.344-.738-1.394-.805c0,0-.254.089-.374.135a.8.8,0,0,1-.13.039,2.756,2.756,0,0,1-1.938-.25.878.878,0,0,0-1.286.082c-.026.024-.048.046-.068.063-.165.14-.137.916-.123,1.288v.006c0,.025,0,.269,0,.294s-.465.366-.465.366a2.1,2.1,0,0,1-1.036.348,2.059,2.059,0,0,1-1.38-.551l-.059-.042a1.09,1.09,0,0,1-.52-.816s.136-1.581-1.062-.961c-.176.09-.325.178-.458.256a1.34,1.34,0,0,1-1.59.123c-.942-.456-3.409,1.276-3.409,1.276l-.619.384a4.388,4.388,0,0,1-2.641.742l10.073,5.825a1.62,1.62,0,0,0,1.623,0l20.838-12.1C223.853,25.753,222.185,25.451,221.5,25.879Z" transform="translate(-176.807 -5.523)" fill="#4f00a3"/><path d="M173.29,22.753a1.592,1.592,0,0,0,.427.375l.274.159A2.7,2.7,0,0,1,173.29,22.753Z" transform="translate(-173.11 -4.989)" fill="#4f00a3"/><path d="M173.1,22.5c-.014-.02-.024-.038-.037-.056.02.038.048.071.071.107Z" transform="translate(-173.066 -4.929)" fill="#4f00a3"/></g><path d="M221.622,25.749l-5.573-3.212a.777.777,0,0,0-.772,0L209.7,25.749a.771.771,0,0,0,0,1.334l5.572,3.21a.773.773,0,0,0,.774,0l.628-.362a.782.782,0,0,0,.168-.074l4.77-2.744a.781.781,0,0,0,.393-.677v-.021A.77.77,0,0,0,221.622,25.749Z" transform="translate(-179.919 -4.925)" fill="#6200d9" fill-rule="evenodd"/><path d="M215.623,30.833a.361.361,0,0,0,.361,0l5.006-2.893.529-.312-5.533-3.206a.358.358,0,0,0-.359,0l-5.537,3.171.539.346Z" transform="translate(-180.069 -5.303)" fill="#6800e8"/><path d="M199.136,25.868l-5.573-3.211a.777.777,0,0,0-.772,0l-5.574,3.211a.771.771,0,0,0,0,1.335l5.571,3.21a.773.773,0,0,0,.774,0l.629-.362a.772.772,0,0,0,.167-.073l4.77-2.744a.781.781,0,0,0,.393-.677v-.021A.772.772,0,0,0,199.136,25.868Z" transform="translate(-175.541 -4.949)" fill="#6200d9" fill-rule="evenodd"/><path d="M210.29,32.276l-5.573-3.211a.777.777,0,0,0-.772,0l-5.574,3.211a.771.771,0,0,0,0,1.334l5.571,3.211a.773.773,0,0,0,.774,0l.629-.362a.772.772,0,0,0,.167-.073l4.77-2.744a.783.783,0,0,0,.393-.678v-.021A.77.77,0,0,0,210.29,32.276Z" transform="translate(-177.713 -6.196)" fill="#4f00a3" fill-rule="evenodd" opacity="0.457"/><path d="M204.292,37.359a.361.361,0,0,0,.361,0l5-2.893.529-.312-5.533-3.206a.358.358,0,0,0-.359,0l-5.537,3.171.539.346Z" transform="translate(-177.863 -6.574)" fill="#6800e8"/><path d="M185.74,31.882c-.045.1-.089.2-.127.317a.982.982,0,0,0,.252,1.189c.182.042.368.08.558.115.42-.076.791-.5.482-1.3a1.945,1.945,0,0,0-.127-.251,1.983,1.983,0,0,1-.277-.722,8.176,8.176,0,0,1-.125-1.913c0-.092.008-.186.01-.291.029-.361.234-2.372.872-2.031a.719.719,0,0,1,.069.042c.032.022.067.043.1.064a3.631,3.631,0,0,0,3.7-.414l.619-.384s2.467-1.732,3.409-1.276a1.34,1.34,0,0,0,1.59-.123c.134-.078.283-.166.457-.256,1.2-.62,1.063.961,1.063.961a1.09,1.09,0,0,0,.52.816l.059.042a2.063,2.063,0,0,0,1.38.551,2.1,2.1,0,0,0,1.036-.348s.462-.341.465-.366,0-.269,0-.294V26c-.014-.372-.042-1.148.123-1.288.019-.017.042-.039.068-.063a.878.878,0,0,1,1.286-.082,2.756,2.756,0,0,0,1.938.25.8.8,0,0,0,.13-.039c.12-.046.37-.14.374-.135.05.067,1.394.805,1.394.805l.124-.085a.6.6,0,0,0,.019-.982.287.287,0,0,1,.019-.481c.412-.224.907-.49,1.486-.787a10.628,10.628,0,0,1,4.555-.763,1.635,1.635,0,0,1,1.192.571,1.081,1.081,0,0,0,.488-.92.7.7,0,0,1,.213-.49c.391-.339,1.218-1.026,1.578-.806l.037.023c.35.215.743.456.964.317.984-.618,4.018.283,4.018.283l1.969-1.727,2-1.164a1.664,1.664,0,0,0,.626-2.276,2.816,2.816,0,0,0-.382-.561c-1.709-1.089-24.726-14.3-24.726-14.3-.156-.1-.3-.184-.434-.261l-.248-.133a2.379,2.379,0,0,0-.457-.18,1.619,1.619,0,0,0-.783.014,2.267,2.267,0,0,0-.35.14L198.9.91l-.615.367-.02.014-.039.022-24.6,14.706a1.625,1.625,0,0,0-.813,1.407,1.152,1.152,0,0,0,.242.838c.029.043.06.088.094.14a3.421,3.421,0,0,0,1.049.758c.079.044.151.085.209.119l.1.058c.231.136.445.262.532.326.458.265,1.015.581,1.582.887l.211.111a4.958,4.958,0,0,1,2.108,1.721l.04.061a5.783,5.783,0,0,1,.407.7l.147.306c.267.558.334.7.509.853.2.179.418.077.624-.179.636-.786,2.226-.03,3.662.9,1.053.68,1.505,2.615,1.789,4a4.527,4.527,0,0,1-.148,2.2A3.542,3.542,0,0,1,185.74,31.882Z" transform="translate(-172.811 -0.692)" fill-rule="evenodd" fill="url(#h)"/><path d="M185.74,31.882c-.045.1-.089.2-.127.317a.982.982,0,0,0,.252,1.189c.182.042.368.08.558.115.42-.076.791-.5.482-1.3a1.945,1.945,0,0,0-.127-.251,1.983,1.983,0,0,1-.277-.722,8.176,8.176,0,0,1-.125-1.913c0-.092.008-.186.01-.291.029-.361.234-2.372.872-2.031a.719.719,0,0,1,.069.042c.032.022.067.043.1.064a3.631,3.631,0,0,0,3.7-.414l.619-.384s2.467-1.732,3.409-1.276a1.34,1.34,0,0,0,1.59-.123c.134-.078.283-.166.457-.256,1.2-.62,1.063.961,1.063.961a1.09,1.09,0,0,0,.52.816l.059.042a2.063,2.063,0,0,0,1.38.551,2.1,2.1,0,0,0,1.036-.348s.462-.341.465-.366,0-.269,0-.294V26c-.014-.372-.042-1.148.123-1.288.019-.017.042-.039.068-.063a.878.878,0,0,1,1.286-.082,2.756,2.756,0,0,0,1.938.25.8.8,0,0,0,.13-.039c.12-.046.37-.14.374-.135.05.067,1.394.805,1.394.805l.124-.085a.6.6,0,0,0,.019-.982.287.287,0,0,1,.019-.481c.412-.224.907-.49,1.486-.787a10.628,10.628,0,0,1,4.555-.763,1.635,1.635,0,0,1,1.192.571,1.081,1.081,0,0,0,.488-.92.7.7,0,0,1,.213-.49c.391-.339,1.218-1.026,1.578-.806l.037.023c.35.215.743.456.964.317.984-.618,4.018.283,4.018.283l1.969-1.727,2-1.164a1.664,1.664,0,0,0,.626-2.276,2.816,2.816,0,0,0-.382-.561c-1.709-1.089-24.726-14.3-24.726-14.3-.156-.1-.3-.184-.434-.261l-.248-.133a2.379,2.379,0,0,0-.457-.18,1.619,1.619,0,0,0-.783.014,2.267,2.267,0,0,0-.35.14L198.9.91l-.615.367-.02.014-.039.022-24.6,14.706a1.625,1.625,0,0,0-.813,1.407,1.152,1.152,0,0,0,.242.838c.029.043.06.088.094.14a3.421,3.421,0,0,0,1.049.758c.079.044.151.085.209.119l.1.058c.231.136.445.262.532.326.458.265,1.015.581,1.582.887l.211.111a4.958,4.958,0,0,1,2.108,1.721l.04.061a5.783,5.783,0,0,1,.407.7l.147.306c.267.558.334.7.509.853.2.179.418.077.624-.179.636-.786,2.226-.03,3.662.9,1.053.68,1.505,2.615,1.789,4a4.527,4.527,0,0,1-.148,2.2A3.542,3.542,0,0,1,185.74,31.882Z" transform="translate(-172.811 -0.692)" fill="#4f00a3" fill-rule="evenodd" opacity="0.391"/><path d="M210.587,6.467l-5.573-3.211a.777.777,0,0,0-.772,0l-5.574,3.211a.771.771,0,0,0,0,1.335l5.572,3.21a.773.773,0,0,0,.774,0l.628-.362a.756.756,0,0,0,.168-.073l4.77-2.744a.781.781,0,0,0,.393-.677V7.134A.772.772,0,0,0,210.587,6.467Z" transform="translate(-177.77 -1.171)" fill="#fff" fill-rule="evenodd" opacity="0.278"/><path d="M204.588,11.55a.357.357,0,0,0,.361,0l5.006-2.892.529-.312L204.95,5.141a.356.356,0,0,0-.36,0l-5.536,3.171.538.346Z" transform="translate(-177.921 -1.549)" fill="none"/><path d="M221.741,12.934l-5.573-3.211a.777.777,0,0,0-.772,0l-5.574,3.211a.771.771,0,0,0,0,1.335l5.572,3.21a.771.771,0,0,0,.773,0l.629-.362a.8.8,0,0,0,.168-.073l4.77-2.744a.78.78,0,0,0,.392-.677V13.6A.773.773,0,0,0,221.741,12.934Z" transform="translate(-179.942 -2.43)" fill="#fff" fill-rule="evenodd" opacity="0.278"/><path d="M215.742,18.017a.361.361,0,0,0,.361,0l5-2.892.529-.312L216.1,11.608a.356.356,0,0,0-.36,0l-5.537,3.171.539.346Z" transform="translate(-180.092 -2.808)" fill="none"/><path d="M210.527,19.4l-5.573-3.211a.777.777,0,0,0-.772,0L198.608,19.4a.771.771,0,0,0,0,1.335l5.571,3.21a.773.773,0,0,0,.774,0l.629-.362a.8.8,0,0,0,.168-.073l4.77-2.744a.782.782,0,0,0,.392-.677v-.021A.772.772,0,0,0,210.527,19.4Z" transform="translate(-177.759 -3.689)" fill="#fff" fill-rule="evenodd" opacity="0.278"/><path d="M221.622,25.749l-5.573-3.211a.777.777,0,0,0-.772,0L209.7,25.749a.772.772,0,0,0,0,1.335l5.572,3.21a.773.773,0,0,0,.774,0l.628-.362a.782.782,0,0,0,.168-.074l4.77-2.744a.781.781,0,0,0,.393-.677v-.021A.773.773,0,0,0,221.622,25.749Z" transform="translate(-179.919 -4.925)" fill="#fff" fill-rule="evenodd" opacity="0.278"/><path d="M221.622,25.749l-5.573-3.211a.777.777,0,0,0-.772,0L209.7,25.749a.772.772,0,0,0,0,1.335l5.572,3.21a.773.773,0,0,0,.774,0l.628-.362a.782.782,0,0,0,.168-.074l4.77-2.744a.781.781,0,0,0,.393-.677v-.021A.773.773,0,0,0,221.622,25.749Z" transform="translate(-179.919 -4.925)" fill="none"/><path d="M215.623,30.833a.361.361,0,0,0,.361,0l5.006-2.893.529-.312-5.533-3.206a.358.358,0,0,0-.359,0l-5.537,3.171.539.346Z" transform="translate(-180.069 -5.303)" fill="none"/><path d="M199.136,25.868l-5.573-3.211a.777.777,0,0,0-.772,0l-5.574,3.211a.771.771,0,0,0,0,1.334l5.571,3.211a.773.773,0,0,0,.774,0l.629-.362a.772.772,0,0,0,.167-.073l4.77-2.744a.782.782,0,0,0,.393-.677v-.021A.772.772,0,0,0,199.136,25.868Z" transform="translate(-175.541 -4.949)" fill="#fff" fill-rule="evenodd" opacity="0.278"/><path d="M199.136,25.868l-5.573-3.211a.777.777,0,0,0-.772,0l-5.574,3.211a.771.771,0,0,0,0,1.334l5.571,3.211a.773.773,0,0,0,.774,0l.629-.362a.772.772,0,0,0,.167-.073l4.77-2.744a.782.782,0,0,0,.393-.677v-.021A.772.772,0,0,0,199.136,25.868Z" transform="translate(-175.541 -4.949)" fill="none"/><path d="M193.137,30.951a.362.362,0,0,0,.362,0l5-2.892.529-.312L193.5,24.541a.358.358,0,0,0-.359,0L187.6,27.713l.539.346Z" transform="translate(-175.691 -5.326)" fill="none"/><path d="M204.292,37.359a.361.361,0,0,0,.361,0l5-2.893.529-.312-5.533-3.206a.358.358,0,0,0-.359,0l-5.537,3.171.539.346Z" transform="translate(-177.863 -6.574)" fill="none"/><path d="M232.776,19.342,227.2,16.13a.777.777,0,0,0-.772,0l-5.575,3.211a.771.771,0,0,0,0,1.334l5.572,3.211a.773.773,0,0,0,.774,0l.628-.362a.778.778,0,0,0,.168-.073l4.77-2.744a.782.782,0,0,0,.393-.678v-.02A.771.771,0,0,0,232.776,19.342Z" transform="translate(-182.091 -3.678)" fill="#fff" fill-rule="evenodd" opacity="0.278"/><path d="M226.777,24.425a.362.362,0,0,0,.362,0l5-2.892.529-.312-5.533-3.206a.358.358,0,0,0-.359,0l-5.537,3.171.539.347Z" transform="translate(-182.241 -4.056)" fill="none"/><path d="M199.433,12.934l-5.573-3.211a.777.777,0,0,0-.772,0l-5.574,3.211a.771.771,0,0,0,0,1.335l5.572,3.21a.773.773,0,0,0,.774,0l.628-.362a.8.8,0,0,0,.168-.073l4.77-2.744a.781.781,0,0,0,.393-.677V13.6A.772.772,0,0,0,199.433,12.934Z" transform="translate(-175.599 -2.43)" fill="#fff" fill-rule="evenodd" opacity="0.278"/><path d="M199.433,12.934l-5.573-3.211a.777.777,0,0,0-.772,0l-5.574,3.211a.771.771,0,0,0,0,1.335l5.572,3.21a.773.773,0,0,0,.774,0l.628-.362a.8.8,0,0,0,.168-.073l4.77-2.744a.781.781,0,0,0,.393-.677V13.6A.772.772,0,0,0,199.433,12.934Z" transform="translate(-175.599 -2.43)" fill="none"/><path d="M193.434,18.017a.361.361,0,0,0,.361,0l5.006-2.892.529-.312L193.8,11.608a.356.356,0,0,0-.36,0L187.9,14.779l.538.346Z" transform="translate(-175.749 -2.808)" fill="none"/><path d="M188.16,19.579l-5.573-3.211a.777.777,0,0,0-.772,0l-5.574,3.211a.771.771,0,0,0,0,1.335l5.571,3.21a.773.773,0,0,0,.774,0l.628-.362a.762.762,0,0,0,.168-.073l4.77-2.744a.781.781,0,0,0,.393-.677v-.021A.772.772,0,0,0,188.16,19.579Z" transform="translate(-173.404 -3.724)" fill="#fff" fill-rule="evenodd" opacity="0.278"/><g transform="translate(3.073 3.543)" opacity="0.504"><path d="M204.588,11.55a.357.357,0,0,0,.361,0l5.006-2.892.529-.312L204.95,5.141a.356.356,0,0,0-.36,0l-5.536,3.171.538.346Z" transform="translate(-180.994 -5.092)" fill="#fff"/><path d="M215.742,18.017a.361.361,0,0,0,.361,0l5-2.892.529-.312L216.1,11.608a.356.356,0,0,0-.36,0l-5.537,3.171.539.346Z" transform="translate(-183.165 -6.351)" fill="#fff"/><path d="M204.529,24.484a.361.361,0,0,0,.361,0l5-2.892.529-.312-5.532-3.205a.356.356,0,0,0-.36,0l-5.537,3.171.539.346Z" transform="translate(-180.982 -7.611)" fill="#fff"/><path d="M215.623,30.833a.361.361,0,0,0,.361,0l5.006-2.893.529-.312-5.533-3.206a.358.358,0,0,0-.359,0l-5.537,3.171.539.346Z" transform="translate(-183.142 -8.847)" fill="#fff"/><path d="M193.137,30.951a.362.362,0,0,0,.362,0l5-2.892.529-.312L193.5,24.541a.358.358,0,0,0-.359,0L187.6,27.713l.539.346Z" transform="translate(-178.764 -8.87)" fill="#fff"/><path d="M204.292,37.359a.361.361,0,0,0,.361,0l5-2.893.529-.312-5.533-3.206a.358.358,0,0,0-.359,0l-5.537,3.171.539.346Z" transform="translate(-180.936 -10.117)" fill="#fff"/><path d="M226.777,24.425a.362.362,0,0,0,.362,0l5-2.892.529-.312-5.533-3.206a.358.358,0,0,0-.359,0l-5.537,3.171.539.347Z" transform="translate(-185.314 -7.599)" fill="#fff"/><path d="M193.434,18.017a.361.361,0,0,0,.361,0l5.006-2.892.529-.312L193.8,11.608a.356.356,0,0,0-.36,0L187.9,14.779l.538.346Z" transform="translate(-178.822 -6.351)" fill="#fff"/><path d="M182.161,24.662a.362.362,0,0,0,.362,0l5-2.892.529-.312-5.533-3.205a.354.354,0,0,0-.359,0l-5.537,3.171.539.346Z" transform="translate(-176.627 -7.645)" fill="#fff"/></g><path d="M182.161,24.662a.362.362,0,0,0,.362,0l5-2.892.529-.312-5.533-3.205a.354.354,0,0,0-.359,0l-5.537,3.171.539.346Z" transform="translate(-173.554 -4.102)" fill="none"/></g></g></g><g transform="translate(289.954 323.607)"><path d="M1156.879,434.107l6.158,5.591,4.8-5.29-6.031-5.962Z" transform="translate(-1070.083 -394.613)" fill="#d8dfe5"/><g transform="translate(0 0)"><path d="M1198.88,438.957l-3.25-7.354-4.276-1.289c-2.6-4.543-3.235-9.158-7.242-12.658s-6.815-5.643-12.239-4.666c-6.815,1.228-11.906,9.536-11.906,9.536l8.16,8.867s2.743-3.79,4.216-3.34,1.48,5.075,1.69,6.523c.873,6.036-.453,15.97-.53,22.08Z" transform="translate(-1071.149 -389.197)" fill="#262223"/><path d="M1188.913,391.884l-3.5-5.213-7.268,3.4,3.431,5.546Z" transform="translate(-1077.423 -380.195)" fill="#d8dfe5"/><g transform="translate(53.685 116.832)"><path d="M1125.522,615.217c3.761-2.617,3.678-8.04,3.017-12.365a15.424,15.424,0,0,1-3.006-.042,4.257,4.257,0,0,1-1.711-.484,10.122,10.122,0,0,1-1.917-2.069,6.4,6.4,0,0,0-6.564-1.537,16.144,16.144,0,0,0-6.027,3.867,8.453,8.453,0,0,0-2.91,4.191c-.388,1.741.556,3.942,2.175,4.058,1.825.131,3.177-2.269,5.005-2.2,1.942.068,2.805,2.646,4.132,4.215,1.881,2.225,4.927,2.458,7.7,2.484A.34.34,0,0,1,1125.522,615.217Z" transform="translate(-1106.317 -570.106)" fill="#fb7e51"/><g transform="translate(34.628)"><path d="M1159.195,581.2a11.537,11.537,0,0,0,5.682,3.956,28.087,28.087,0,0,0,5.541,1.454c6.3-11.655,2.257-26.228,2.061-26.915a6.221,6.221,0,1,0-11.962,3.424C1160.551,563.239,1163.483,574.151,1159.195,581.2Z" transform="translate(-1159.195 -555.187)" fill="#f2eddc"/></g><g transform="translate(16.67 25.94)"><path d="M1149.774,594.8a11.864,11.864,0,0,1-1.086,1.538c-2.893,3.446-7.946,5.151-15.048,5.1a105.621,105.621,0,0,1-1.867,12.4c.722.027,1.436.045,2.135.045,10.826,0,18.987-3.2,24.31-9.537a24.063,24.063,0,0,0,2.821-4.211A24.66,24.66,0,0,1,1149.774,594.8Z" transform="translate(-1131.773 -594.798)" fill="#fb7e51"/></g></g><path d="M1185.888,392.568l-11.98,6.194s8.306,14.721,6.048,29.051c-.278,1.763-.075,3.64-.939,5.242-.976,1.811-2.809,3.044-4.471,4.337-7.057,5.49-6.716,9.4-8.46,17.84,17.259,0,29.8-.491,40.275-.136C1205.707,405.216,1185.888,392.568,1185.888,392.568Z" transform="translate(-1073.26 -382.231)" fill="#312d2e"/><path d="M1160.614,548.462c34.768,3.788,44.124-23.3,41.4-47.759-23.708-5.874-50.453-7.309-50.453-7.309s-3.689,10.046-3.494,16.87" transform="translate(-1067.037 -417.029)" fill="#edcf00"/><g transform="translate(81.018 76.365)"><g clip-path="url(#i)"><g transform="translate(16.985 8.69)"><path d="M1173.992,506.869c16.532-.887,31.161,1.145,40.108,5.029" transform="translate(-1173.992 -506.664)" fill="none" stroke="#e69c31" stroke-miterlimit="10" stroke-width="4"/><path d="M1176.464,514.658c18.835,0,29.677,3.172,37.67,6.363" transform="translate(-1174.845 -509.423)" fill="none" stroke="#e69c31" stroke-miterlimit="10" stroke-width="4"/></g></g></g><path d="M1054.918,514.461s13-4.986,20-7.164c6.738-2.064,14.767-4.188,23.4-6.107s16.865-3.408,23.788-4.38c7.26-.99,21.317-1.223,21.317-1.223l.78,3.509c.684,3.077-18.57,10.02-42.975,15.443s-44.679,7.266-45.363,4.189Z" transform="translate(-1034.893 -417.785)" fill="#262223"/><path d="M1174.818,486.256H1209.2v11.805c-6.724-3.051-35.207-4.121-35.207-4.121Z" transform="translate(-1075.989 -414.565)" fill="#f2eddc"/><rect width="34.591" height="3.766" transform="translate(98.829 71.691)" fill="#0a0a0a"/><path d="M1154.254,558.527l17.164-6.739s5.862,9.1,3.784,12.928-13.2-.578-13.2-.578Z" transform="translate(-1069.177 -437.182)" fill="#f2eddc"/><path d="M1150.254,558.528l14.55-6.739,6.744,10.637-21.293,11.716Z" transform="translate(-1067.796 -437.183)" fill="#fb7e51"/><g transform="translate(76.603 36.389)"><path d="M1143.1,432.349l-1.783,2.8,8.335,5.308,3.037-.033-.891,1.4,3.973,2.53s.593-1.173,1.6-3.062Z" transform="translate(-1141.314 -432.349)" fill="#262223"/><path d="M1163.661,445.548l-2.249,2.5-3.973-2.53.743-1.167,1.647-1.246Z" transform="translate(-1146.879 -436.062)" fill="#0f0d0b"/></g><g transform="translate(99.335)"><path d="M1189.473,381.03a.285.285,0,0,0-.056.014l-2.369,1.109-1.176,2.879-7.269,3.932-1.826-2c-.515-2.011-.752-3.3-.752-3.3L1180,381.8l.68,1.453,1.674-2.555,8.35-3.91,1.408,3.005Z" transform="translate(-1176.026 -376.785)" fill="#262223"/><path d="M1192.97,381.763l4.211-1.972-1.409-3.008-5.06,2.37,1.408,3.006.852-.4" transform="translate(-1181.095 -376.783)" fill="#0f0d0b"/></g><path d="M1139.687,486.033a20.739,20.739,0,0,0-26.524-12.521c-.108.024-.2.1-.312.125l-29.9,11.291a21.118,21.118,0,0,0-12.112,26.83l71.221-15.827a52.141,52.141,0,0,0-2.371-9.9" transform="translate(-1039.957 -409.745)" fill="#4f00a3"/><path d="M1071.494,524.243a.694.694,0,0,0,.126.312l3.78,9.87,35.2-7.823a18.366,18.366,0,0,1,21.911,13.947l.011.05,1.68,7.559.066.042a61.727,61.727,0,0,0,8.507-39.741L1071.506,524.3Z" transform="translate(-1040.614 -422.228)" fill="url(#j)"/><path d="M1084.692,561.782a11.063,11.063,0,1,0-13.2-8.4,11.063,11.063,0,0,0,13.2,8.4" transform="translate(-1040.522 -433.086)" fill="url(#k)"/><path d="M1085,564.21a28.686,28.686,0,0,0,1.242,2.784,20.9,20.9,0,0,0,10.475,9.4c4.188,1.506,9.245,1.572,15.118.21,11.13-2.19,18.587-10.7,24.407-19.193l-1.68-7.559a18.436,18.436,0,0,0-21.922-14l-35.206,7.824Z" transform="translate(-1042.663 -431.536)" fill="#ff8f66"/><path d="M1119.541,579.361a5.867,5.867,0,0,1-7-4.452l11.5-2.556a5.844,5.844,0,0,1-4.413,6.987l-.093.02" transform="translate(-1054.782 -444.28)" fill="#fff"/><path d="M1070.414,520.5c.2.924-.006,2.088,9.92,0l44.126-9.806c3.092-.682,8,9.053,10.114,11.414l9.144-5.262a76.263,76.263,0,0,0-1.542-12.293Z" transform="translate(-1040.241 -420.881)" fill="#4f00a3"/><path d="M1171.871,542.892a11.092,11.092,0,1,0-13.086-8.651l.036.162a11,11,0,0,0,13.037,8.492Z" transform="translate(-1070.662 -426.532)" fill="#fb7e51"/><path d="M1175.431,533.5a2.775,2.775,0,0,0-.846-5.081,4.476,4.476,0,0,0-3.426.648c-2.171,1.446-2.472,3.156-1.872,5.856a6.659,6.659,0,0,0,2.513,3.918l-.1-.432c-.436-1.717,1.735-3.672,3.726-4.908" transform="translate(-1074.272 -429.081)" fill="#ff8f66"/><path d="M1127.653,542.427a4.483,4.483,0,0,1,5.375,3.358l.007.035.756,3.4a4.52,4.52,0,1,1-8.826,1.961l-.756-3.4a4.518,4.518,0,0,1,3.443-5.354" transform="translate(-1058.773 -433.912)" fill="#262223"/><path d="M3454.476,1398.646l-31.511-4.656-8.13-.327-32.295-2.173-.147,17.218c0,8.581,7.1,13.931,15.679,13.931h31.813v-6.354a14.445,14.445,0,0,0,1.773,2.162c2.671,2.686,10.971,4.191,10.971,4.191,1.894-2.626,6.89-3.892,10.117-3.643l-1.462-.968C3452.918,1418.027,3454.476,1398.646,3454.476,1398.646Z" transform="translate(-3583.337 -512.765) rotate(-13)" fill="url(#l)"/><path d="M1097.208,549.194a4.481,4.481,0,0,1,5.375,3.358l.008.035.756,3.4a4.521,4.521,0,1,1-8.826,1.961l-.756-3.4a4.553,4.553,0,0,1,3.444-5.354" transform="translate(-1048.267 -436.247)" fill="#262223"/><path d="M1097.688,496.938c-24.406,5.424-43.66,12.365-42.975,15.442l.024.108a3.271,3.271,0,0,0,3.894,2.478,4.881,4.881,0,0,0,.839-.3l.054-.012a105.689,105.689,0,0,1,15.941-6.035c6.738-2.064,14.767-4.188,23.4-6.107s16.866-3.407,23.788-4.38a105.957,105.957,0,0,1,17-1.284l.173.018a3.275,3.275,0,0,0,3.384-3.132,4.3,4.3,0,0,0-.072-.834l-.024-.108c-.7-3.13-21.024-1.276-45.428,4.147" transform="translate(-1034.816 -416.296)" fill="#fff100"/><path d="M1144.061,497.05l-.96-4.32c-.66-2.97-19.679-1.35-42.987,3.66l-2.538.565c-24.3,5.4-43.552,12.341-42.867,15.418l.96,4.32a.96.96,0,0,0,.329.72c.042-.066.138-.144.18-.21a9.829,9.829,0,0,1,3.409-2.513c1.836-.918,3.7-1.728,5.567-2.484a6.97,6.97,0,0,1,7.056,1.152,9.643,9.643,0,0,0,8.388,2.046l23.812-5.292a14.5,14.5,0,0,0,8.087-4.914l2.826-3.348a8.078,8.078,0,0,1,4.392-2.676c4.657-.978,7.841-1.686,8.34-1.74a79.711,79.711,0,0,1,11.6-.594,10.052,10.052,0,0,1,4.4.948.8.8,0,0,0,.007-.739" transform="translate(-1034.815 -416.287)" fill="#fff100"/><path d="M1127.428,433.883a41.453,41.453,0,0,1,35.374,32.2l1.272,5.724c-3.912-.264-10.259.24-18.112,1.361-.187-1.092-.438-2.225-.69-3.359-3.281-15.023-9.977-27.815-17.843-35.926" transform="translate(-1059.918 -396.49)" fill="url(#f)"/><path d="M1057.238,495.882a41.357,41.357,0,0,1,3.509-27.808,86.208,86.208,0,0,0,1.865,26.5c.348,1.566.75,3.12,1.152,4.673a38.625,38.625,0,0,0-5.189,2.4Z" transform="translate(-1035.349 -408.29)" fill="url(#f)"/><path d="M1062.961,456.106a41.51,41.51,0,0,1,42.111-22.391c7.878,8.165,14.561,20.9,17.909,35.967.252,1.134.492,2.214.69,3.36-6.155.858-13.181,2.136-20.645,3.737l-2.484.552c-14.256,3.168-26.7,6.839-34.508,9.936q-.684-2.312-1.206-4.661a86.2,86.2,0,0,1-1.867-26.5" transform="translate(-1037.563 -396.323)" fill="#fff100"/><path d="M1086.379,453.96l-.972-16.613a3.094,3.094,0,0,1,1.608-2.964,41.77,41.77,0,0,1,22.883-5.141,3.1,3.1,0,0,1,2.712,2l6.167,15.515" transform="translate(-1045.412 -394.859)" fill="#fff100"/><path d="M1110.137,494.472l-1.656-7.451,8.069-7.8Z" transform="translate(-1053.379 -412.137)" fill="#f9c838"/><path d="M1092.274,485.56l10.613,3.648,1.656,7.451Z" transform="translate(-1047.786 -414.325)" fill="#f9c838"/><path d="M1099.255,463.829l-8.153,7.421,5.993-17.141Z" transform="translate(-1047.381 -403.471)" fill="#f9c838"/><path d="M1100.254,454.11l12.689,12.989-10.529-3.27Z" transform="translate(-1050.54 -403.471)" fill="#f9c838"/><path d="M1099.255,468.952h0l2.4,10.8-10.553-3.378Z" transform="translate(-1047.381 -408.593)" fill="#f9c838"/><path d="M964.813,13508.989l10.614,3.647,1.656,7.451Zm-.767-3.454,8.154-7.424,2.4,10.8Zm5.992-17.142,2.161,9.718-8.154,7.424Z" transform="translate(-920.325 -13437.754)" fill="#0a0a0a" stroke="rgba(0,0,0,0)" stroke-miterlimit="10" stroke-width="1"/><path d="M1114,472.239h0l-8.141,7.475-2.388-10.745Z" transform="translate(-1051.65 -408.599)" fill="#f9c838"/><path d="M1110.137,494.472l-1.656-7.451,8.069-7.8Z" transform="translate(-1053.379 -412.137)" fill="#4b4d4d"/><path d="M966.152,13498.122l10.53,3.271-8.143,7.476Zm.054-.01-2.16-9.72,12.69,12.988Z" transform="translate(-914.332 -13437.754)" fill="#4b4d4d" stroke="rgba(0,0,0,0)" stroke-miterlimit="10" stroke-width="1"/><g transform="translate(73.331 116.832)"><path d="M1155.522,615.217c3.761-2.617,3.678-8.04,3.017-12.365a15.424,15.424,0,0,1-3.006-.042,4.257,4.257,0,0,1-1.711-.484,10.122,10.122,0,0,1-1.917-2.069,6.4,6.4,0,0,0-6.564-1.537,16.144,16.144,0,0,0-6.027,3.867,8.453,8.453,0,0,0-2.91,4.191c-.388,1.741.556,3.942,2.175,4.058,1.825.131,3.177-2.269,5.005-2.2,1.942.068,2.805,2.646,4.132,4.215,1.881,2.225,4.927,2.458,7.7,2.484A.34.34,0,0,1,1155.522,615.217Z" transform="translate(-1136.317 -570.106)" fill="#ff8f66"/><g transform="translate(34.628)"><path d="M1189.195,581.2a11.537,11.537,0,0,0,5.682,3.956,28.086,28.086,0,0,0,5.541,1.454c6.3-11.655,2.257-26.228,2.061-26.915a6.221,6.221,0,1,0-11.962,3.424C1190.551,563.239,1193.483,574.151,1189.195,581.2Z" transform="translate(-1189.195 -555.187)" fill="#f2eddc"/></g><g transform="translate(16.67 25.94)"><path d="M1179.774,594.8a11.864,11.864,0,0,1-1.086,1.538c-2.893,3.446-7.946,5.151-15.048,5.1a105.621,105.621,0,0,1-1.867,12.4c.722.027,1.436.045,2.135.045,10.826,0,18.987-3.2,24.31-9.537a24.063,24.063,0,0,0,2.821-4.211A24.661,24.661,0,0,1,1179.774,594.8Z" transform="translate(-1161.773 -594.798)" fill="#ff8f66"/></g></g><rect width="66.382" height="5.888" rx="2.944" transform="translate(18.235 156.169)" fill="#7c8a98"/><g transform="translate(0 97.417)"><rect width="66.382" height="5.888" rx="2.944" transform="translate(18.713 65.35) rotate(-106.373)" fill="#7c8a98"/><ellipse cx="2.393" cy="2.393" rx="2.393" ry="2.393" transform="translate(18.235 59.197)" fill="#566068"/></g><ellipse cx="9.953" cy="7.688" rx="9.953" ry="7.688" transform="translate(105.705 124.937) rotate(-71.74)" fill="#f2eddc"/></g><rect width="2.565" height="6.991" transform="translate(128.346 69.034)" fill="#312d2e"/><rect width="2.565" height="6.991" transform="translate(108.699 69.034)" fill="#312d2e"/><path d="M1151.583,436.566l3.853-.967,7.706,4.931-1.5,2.426Z" transform="translate(-1068.255 -397.082)" fill="#262223"/></g><g transform="translate(49.25 57.485)"><path d="M231.168,138.873v51.1h51.1a17.333,17.333,0,0,1,34.666,0h51.1v-51.1a17.333,17.333,0,0,0,0-34.666v-51.1h-51.1a17.333,17.333,0,1,1-34.666,0h-51.1v51.1a17.333,17.333,0,0,0,0,34.666Z" transform="translate(32.3 -56.833)" fill="none"/><path d="M151.844,34.849h0a51.1,51.1,0,0,0-51.095,51.1h0a17.333,17.333,0,0,1,0,34.666V171.7h51.095a17.333,17.333,0,0,0,34.666,0h0a51.1,51.1,0,0,0,51.1-51.095h0a17.333,17.333,0,1,1,0-34.666v-51.1h-51.1a17.333,17.333,0,0,0-34.666,0Z" transform="translate(0 -39)" fill="none"/><path d="M261.57,210.664h0a51.1,51.1,0,0,0-51.095-51.1h0a17.332,17.332,0,1,1-34.664,0h0a51.1,51.1,0,0,0-51.1,51.1h0a17.332,17.332,0,1,0,0,34.664h0a51.1,51.1,0,0,0,51.1,51.095h0a17.332,17.332,0,1,1,34.664,0h0a51.1,51.1,0,0,0,51.095-51.095h0a17.332,17.332,0,1,0,0-34.664Z" transform="translate(-24.106 1.573)" fill="none"/><path d="M313.073,163.412a17.333,17.333,0,1,0-34.666,0h-1.189v.009l-49.907,49.907v1.18a17.333,17.333,0,1,1,0,34.666v1.2l49.9,49.9h1.2a17.333,17.333,0,0,0,34.666,0h1.2l49.9-49.9v-1.2a17.333,17.333,0,1,1,0-34.666v-1.18Z" transform="translate(36.149 -2.279)" fill="none"/><g transform="translate(70.054 179.588)"><circle cx="30.981" cy="30.981" r="30.981" fill="none"/></g></g><path d="M225.246,237.2c-33.933,4.435-58.152,9.762-58.511-12.1,0,0,.741-8.473,11.13-9.006a9,9,0,0,1,8.288-8.374c4.268-.463,9.117,3.932,9.643,8.558,0,0,10.5-1.943,10.955,8.3.16,3.567-.646,9.633-10.773,9.371,0,0-5.859-.8-6.655-9.857-1.649,17.54,23.709,16.522,24.075.589.16-6.887-4.251-13.971-14.188-12.642-5.445-13.7-19.944-12.915-25.342-.207a13.289,13.289,0,0,0-13.527,13.694C160.636,250.48,195.374,242.955,225.246,237.2Z" transform="translate(-17.215 -104.424)" fill="#4f00a3" fill-rule="evenodd" opacity="0.2"/><g transform="translate(264.358 186.055)" opacity="0.2"><path d="M282.334,105.2a4.155,4.155,0,0,0-1.057,1.785,4.566,4.566,0,0,0-.137,1.287c-.01,3.434,0,6.868-.01,10.3,0,.754-.051,1.506-.1,2.258a1.02,1.02,0,0,1-1.279.914,6.225,6.225,0,0,1-.839-.414,3.836,3.836,0,0,1-1.378-1.4,4.067,4.067,0,0,1-.554-2.068q-.018-6.164,0-12.325a3.722,3.722,0,0,1,1.053-2.579c.3-.323.633-.616.972-.94a1.528,1.528,0,0,0-.21-.18c-.483-.281-.972-.554-1.457-.833-.4-.23-.79-.467-1.186-.7-.321-.188-.637-.386-.966-.558-.135-.071-.362-.168-.437-.111a6.882,6.882,0,0,0-1.025.922c-.226.257-.336.614-.548.887a2.207,2.207,0,0,0-.425,1.435c-.006,3.531,0,7.062-.012,10.593,0,.806-.059,1.611-.113,2.417a.941.941,0,0,1-1.063.962,2.054,2.054,0,0,1-.578-.131,3.524,3.524,0,0,1-1.645-1.334,2.886,2.886,0,0,1-.467-.932,6.472,6.472,0,0,1-.35-1.676q-.047-4.848,0-9.695a9.185,9.185,0,0,1,.168-3.127c.131-.36.214-.74.376-1.085A5.109,5.109,0,0,1,270.4,97.33l.218-.192c-.253-.123-.477-.21-.677-.333-.461-.283-.907-.592-1.37-.871-.3-.182-.62-.323-.924-.491s-.621-.354-.924-.542a.455.455,0,0,0-.621.038,7.343,7.343,0,0,0-1.118,1.215,3.208,3.208,0,0,0-.641,1.906c-.012,3.917,0,7.832-.01,11.749a14.362,14.362,0,0,0,1.38,6.308,14.4,14.4,0,0,0,.806,1.429c.43.556.79,1.166,1.239,1.7a10.088,10.088,0,0,0,1.027.914,10.777,10.777,0,0,0,2.306,1.58c.372.19.762.348,1.15.5a4.74,4.74,0,0,0,.578.146,2.977,2.977,0,0,0,1.655,0c.218-.065.414-.067.532.182a1.787,1.787,0,0,0,.241.39c.368.426.73.861,1.132,1.255.477.469.984.909,1.49,1.346a3.811,3.811,0,0,0,.5.3c.481.3.946.627,1.447.889a6.522,6.522,0,0,0,1.231.459,6.213,6.213,0,0,0,1.16.2c.17.012.346-.143.523-.154a2.305,2.305,0,0,0,1.69-1.132,4.471,4.471,0,0,0,.679-1.431,7.16,7.16,0,0,0,.267-1.843c.024-4.087.018-8.175.012-12.262a4.022,4.022,0,0,1,.618-2.215,5.138,5.138,0,0,1,1.229-1.324c.089-.067.182-.127.275-.186l-4.159-2.441A5.017,5.017,0,0,0,282.334,105.2Z" transform="translate(-264.334 -94.797)" fill="#4f00a3"/><path d="M297.14,113.717c.469-.271.936-.548,1.411-.815.641-.362,1.294-.709,1.934-1.077.592-.342,1.17-.711,1.76-1.059.412-.243.835-.471,1.251-.709.564-.321,1.124-.651,1.692-.964a3.732,3.732,0,0,0,1.33-1.259,2.222,2.222,0,0,0-.186-2.48,7,7,0,0,0-1.043-1.095,15.512,15.512,0,0,0-6.621-3.21,1.336,1.336,0,0,1-.637-.285,12.189,12.189,0,0,0-3.84-3.074,10.706,10.706,0,0,0-1.308-.552,12.491,12.491,0,0,0-7.036-.382c-.78.243-10.9,5.546-11.579,5.894-.113.059-.222.121-.329.184l4.159,2.441c.463-.3,8.471-4.808,9.1-5.1a3.807,3.807,0,0,1,3.589.382c.5.287.891.788.784,1.247a1.713,1.713,0,0,1-.808.984c-.588.392-1.239.691-1.851,1.049-.643.374-1.269.776-1.91,1.156-.457.271-.928.521-1.389.784-.4.226-.792.459-1.188.687-.489.281-.978.56-1.469.841-.228.131-.457.259-.713.4l4.188,2.458s7.506-4.248,7.907-4.5a6.793,6.793,0,0,1,3.331-.778,3.277,3.277,0,0,1,1.956.859.934.934,0,0,1-.034,1.524c-.675.521-1.413.964-2.138,1.419-.424.265-.873.489-1.308.734-.5.279-1,.56-1.494.839-.691.392-1.384.782-2.074,1.176-.192.111-.378.232-.568.346-.386.234-.786.447-1.154.709-.065.048-.131.1-.2.148l4.141,2.431c.354-.206.73-.38,1.063-.62C296.263,114.174,296.714,113.962,297.14,113.717Z" transform="translate(-254.928 -93.208)" fill="#4f00a3"/><g transform="translate(25.268 19.441)"><path d="M286.767,105.3a5.031,5.031,0,0,0-.926,1.239,4.412,4.412,0,0,0-.313,1.866c.014,3.81,0,7.618.01,11.429a2.779,2.779,0,0,1-.408,1.68.719.719,0,0,1-.58.372,2.119,2.119,0,0,1-1.372-.439,3.757,3.757,0,0,1-1.376-1.526,3.064,3.064,0,0,1-.511-1.494.774.774,0,0,0-.445-.762c-.564-.346-1.156-.651-1.734-.976-.641-.36-1.281-.724-2.013-1.14.071.687.109,1.289.2,1.88a13.567,13.567,0,0,0,.344,1.451c.087.309.214.606.327.9a11.891,11.891,0,0,0,.523,1.35,16.684,16.684,0,0,0,.994,1.6,11.6,11.6,0,0,0,.974,1.281,12.807,12.807,0,0,0,1.18,1.112,14.228,14.228,0,0,0,1.269.986,10.524,10.524,0,0,0,1.251.691,5.178,5.178,0,0,0,2.072.536,3.129,3.129,0,0,0,1.653-.323,2.9,2.9,0,0,0,1.164-1.421,6.3,6.3,0,0,0,.536-2.718q-.012-5.792,0-11.587a4.8,4.8,0,0,1,1.227-3.533,2.972,2.972,0,0,1,.893-.715l-4.141-2.431A5.508,5.508,0,0,0,286.767,105.3Z" transform="translate(-277.1 -104.619)" fill="#4f00a3"/><path d="M299.8,126.84a9.247,9.247,0,0,0-.952-2.682,7.323,7.323,0,0,0-1.239-1.855,8.81,8.81,0,0,0-1.18-1.174c-.671-.485-1.405-.883-2.12-1.306-.546-.325-1.106-.627-1.657-.944-.36-.2-.732-.392-1.069-.629a4.494,4.494,0,0,1-1.441-1.669,4.317,4.317,0,0,1-.228-.653,3.338,3.338,0,0,1-.038-2.066.872.872,0,0,1,.814-.614,2.336,2.336,0,0,1,1.3.354c.659.366,1.29.786,1.946,1.162s1.356.736,2.025,1.12c.61.35,1.2.734,1.809,1.087.721.418,1.451.817,2.179,1.223a2.133,2.133,0,0,0,.241.093.514.514,0,0,0,.042-.111c0-1.486.006-2.973,0-4.459a.238.238,0,0,0-.081-.18q-1.066-.65-2.14-1.285-.7-.41-1.411-.8c-.323-.176-.661-.321-.98-.5-.538-.309-1.061-.643-1.6-.958-.315-.184-.645-.344-.968-.521-.661-.364-1.3-.762-1.985-1.087a4.711,4.711,0,0,0-1.425-.469,3.39,3.39,0,0,0-2.092.172,2.957,2.957,0,0,0-.928.564,4.211,4.211,0,0,0-.98,2.433c-.047.768-.024,1.54-.022,2.31a3.121,3.121,0,0,0,.053.667c.121.552.253,1.1.408,1.647a7.935,7.935,0,0,0,.451,1.338c.3.624.657,1.223,1.017,1.815a12.821,12.821,0,0,0,.918,1.332,12.337,12.337,0,0,0,2.217,2.2c.58.433,1.172.853,1.781,1.243.368.238.788.39,1.166.614a4.975,4.975,0,0,1,1.475,1.217,5.78,5.78,0,0,1,.657,1.057,3.937,3.937,0,0,1,.269,2.294,1.13,1.13,0,0,1-1.445.843c-.8-.39-1.577-.843-2.365-1.269-.174-.093-.36-.166-.527-.271-.43-.271-.841-.57-1.277-.825-.932-.544-1.876-1.069-2.815-1.6-.515-.293-1.025-.59-1.54-.879-.131-.073-.273-.127-.412-.188a.489.489,0,0,0-.038.1c0,1.486-.008,2.973,0,4.459a.38.38,0,0,0,.17.273c.333.208.685.388,1.023.59.641.382,1.273.78,1.92,1.154.732.424,1.477.823,2.213,1.241.574.327,1.142.667,1.718.994a6.8,6.8,0,0,1,1.013.566,6.086,6.086,0,0,0,1.922.859,4.129,4.129,0,0,0,2.189.18,2.584,2.584,0,0,0,1.589-.96,4.559,4.559,0,0,0,.831-2.634,8.672,8.672,0,0,0-.137-3.011A10.676,10.676,0,0,1,299.8,126.84Z" transform="translate(-268.763 -101.473)" fill="#4f00a3"/><path d="M281.14,112.368c.046-.051.057-.059.057-.067,0-1.506,0-3.01-.01-4.517a.369.369,0,0,0-.16-.269c-.667-.4-1.342-.786-2.013-1.18-.214-.125-.414-.271-.629-.39-.406-.224-.817-.435-1.269-.673,0,1.574,0,3.092.006,4.61a.318.318,0,0,0,.139.222c.7.424,1.413.839,2.124,1.253C279.966,111.695,280.55,112.027,281.14,112.368Z" transform="translate(-277.084 -103.98)" fill="#4f00a3"/></g></g><g transform="translate(369.028 265)" opacity="0.2"><path d="M272.287,202.66c-.42.353-.826.722-1.211,1.113C271.467,203.388,271.867,203.013,272.287,202.66Z" transform="translate(-266.079 -197.791)" fill="#4f00a3"/><path d="M301.937,229.007c-6.083,2.014-12.73-.212-17.675-3.593-4.7-3.216-8.7-8.594-8.081-14.568.62-6.013,5.559-9.7,11.442-10.113a16.975,16.975,0,0,1,9.567,2.367c3.839,2.048,6.888,7.051,5.006,10.5-3.626,6.635-15.846,1.318-14.876-5.541a3.514,3.514,0,0,1,1.112-2.238c.888-.717.919.259.7.887-.679,1.96.609,3.858,2.14,4.962,2.088,1.5,6.722,2.176,7.913-.883,2.041-5.262-9.559-9.207-13.206-5.688-5.628,5.439.081,11,4.639,13.471,3.835,2.085,10.851,2.944,13.736-1.442,3.4-5.473-2.372-11.682-6.473-14.6.5.278.976.57,1.447.869a20.58,20.58,0,0,0-25.066,1c-.037.03-.07.062-.107.093-.42.353-.819.728-1.211,1.113a18.962,18.962,0,0,0,.434,26.122,32.732,32.732,0,0,0,7.882,5.822c2.041,1.081,3.549,1.593,3.484,2.091-.121.909-2.979-.019-3.831-.31v0a32.613,32.613,0,0,1-8.509-4.326c-.232-.173-.436-.375-.655-.562a20.633,20.633,0,0,0,15.705,7.274,20.89,20.89,0,0,0,20.715-19.279A9.95,9.95,0,0,1,301.937,229.007Z" transform="translate(-267.948 -199.612)" fill="#4f00a3"/><path d="M271.941,202.6c-.037.03-.072.062-.107.093C271.871,202.664,271.9,202.632,271.941,202.6Z" transform="translate(-265.626 -197.826)" fill="#4f00a3"/><path d="M296.462,210.4c.585-3.931-2.97-6.631-6.252-7.858-3.869-1.442-8.98-.811-11.8,2.393-2.059,2.353-1.928,5.77-.864,8.535a14.6,14.6,0,0,0,9.46,8.5,16.736,16.736,0,0,0,9.671.351c4.438-1.428,5.882-6.054,4.965-10.292a12.15,12.15,0,0,0-.9-2.653c-.559-1.177-2.278-3.559.091-.661a10.278,10.278,0,0,1,.682,1.011,11.263,11.263,0,0,1,1.152,2.557c1.291,3.955.278,8.572-3.3,10.96-2.743,1.827-6.228,2.046-9.41,1.588a17.784,17.784,0,0,1-11.076-5.993c-2.553-3.022-4.294-7.364-3.246-11.333a8.8,8.8,0,0,1,5.949-5.974,13.275,13.275,0,0,1,10.715,1.259,9.48,9.48,0,0,1,3.9,3.938,5.83,5.83,0,0,1,.586,2.458,4.958,4.958,0,0,1-.08,1.03c-.022.123-.284.471-.248.185" transform="translate(-263.538 -198.827)" fill="#4f00a3"/></g><g transform="translate(171.717 278.731)"><g transform="translate(14.7 28.562)"><path d="M1074.228,13538.2a3.55,3.55,0,0,1-1.747-.472l-3.1-1.777a3.58,3.58,0,0,1-1.8-3.105l.007-13.244-.007-7.481.017.01,6.333,3.751v15.449l6.7,3.694.015.043-4.689,2.668A3.553,3.553,0,0,1,1074.228,13538.2Z" transform="translate(-1067.583 -13501.133)" fill="#4f00a3" opacity="0.167"/><path d="M187.124,244.769v-7.585l-.07-.044h0L180.3,233.3v.14l.018,15.344h0" transform="translate(-167.213 -214.864)" fill="#4f00a3" opacity="0.3"/><path d="M186.645,237.14,179.9,233.3l6.727,3.849Z" transform="translate(-166.848 -214.864)" fill="none"/><path d="M257.8,189.566h.009l.28-.166Z" transform="translate(-237.933 -174.805)" fill="none"/><path d="M264.987,155.541l-6.587,3.805v7.576l11.32-6.736a3.43,3.43,0,0,0,1.627-3.106v-3.3a3.532,3.532,0,0,0-1.723-3.106L265,148l-.009,7.541Z" transform="translate(-238.48 -137.027)" fill="#4f00a3" opacity="0.388"/><path d="M258.3,159.438l6.6-3.805h0l.009-7.532h0l-6.6,3.753h0" transform="translate(-238.389 -137.118)" fill="#4f00a3" opacity="0.236"/><path d="M104.9,365.2" transform="translate(-98.409 -335.225)" fill="#fff"/><path d="M105.9,364.3" transform="translate(-99.321 -334.404)" fill="#fff"/><path d="M31.155,63.4a3.653,3.653,0,0,0-.455,1.758v5.59l.017.07,6.334,3.753V90.021L43.8,93.739l-.009-15.432h0l6.824,3.84h0V74.51" transform="translate(-30.7 -59.827)" fill="#4f00a3" opacity="0.227"/><path d="M55.173,37.3h0l6.6-3.753h0l-10.183-5.9V27.64l-8-4.6a3.376,3.376,0,0,0-3.456,0L37.047,24.8A3.62,3.62,0,0,0,35.7,26.144h0" transform="translate(-35.263 -22.562)" fill="#4f00a3" opacity="0.271"/></g></g></g></svg>