<svg xmlns="http://www.w3.org/2000/svg" xmlns:xlink="http://www.w3.org/1999/xlink" width="530.801" height="369.902" viewBox="0 0 530.801 369.902"><defs><clipPath id="a"><rect width="530.801" height="369.902" fill="none"/></clipPath><clipPath id="b"><circle cx="56.615" cy="56.615" r="56.615" fill="none"/></clipPath><linearGradient id="c" x1="0.633" y1="0.737" x2="0.467" y2="0.478" gradientUnits="objectBoundingBox"><stop offset="0" stop-color="#fb7e51"/><stop offset="1" stop-color="#ff8f66"/></linearGradient><linearGradient id="d" x1="0.814" y1="0.594" x2="0.566" y2="0.49" xlink:href="#c"/><linearGradient id="e" x1="0.98" y1="0.83" x2="0.574" y2="0.515" xlink:href="#c"/><clipPath id="f"><path d="M1500.212,333.151c2.807-.634,11.475-8.494,4.051-15.3-.869-.8,8.3,2.033,11.515,4.2.284.8,6.733,5.834,6.733,5.834s5.3-4.818,1.795-10.157c3.808-.674,8.728-.726,11.563,10.9.208.853-.042,12.174-.75,14.86a112.086,112.086,0,0,1-14.371,1.221c-9.636,0-21.94-1.059-21.94-1.059S1499.723,337.81,1500.212,333.151Z" transform="translate(-1498.807 -317.483)" fill="none"/></clipPath><linearGradient id="g" x1="0.868" y1="0.564" x2="-0.239" y2="0.443" gradientUnits="objectBoundingBox"><stop offset="0" stop-color="#e69c31"/><stop offset="1" stop-color="#e67731"/></linearGradient><linearGradient id="h" x1="0.875" y1="0.544" x2="-0.242" y2="0.411" xlink:href="#g"/><linearGradient id="i" x1="-0.025" y1="0.554" x2="0.464" y2="0.505" xlink:href="#c"/><linearGradient id="j" x1="0.359" y1="0.681" x2="0.593" y2="0.38" xlink:href="#c"/><linearGradient id="k" x1="0.305" y1="0.586" x2="0.568" y2="0.463" xlink:href="#c"/><linearGradient id="l" x1="0.361" y1="0.571" x2="0.602" y2="0.448" xlink:href="#c"/><linearGradient id="m" x1="0.136" y1="0.872" x2="0.389" y2="0.603" xlink:href="#c"/><linearGradient id="n" x1="0.128" y1="0.572" x2="0.589" y2="0.483" xlink:href="#c"/><linearGradient id="o" x1="1" y1="0.928" x2="0.046" y2="1" gradientUnits="objectBoundingBox"><stop offset="0" stop-color="#4f00a3"/><stop offset="1" stop-color="#23004e"/></linearGradient><linearGradient id="q" x1="0.5" x2="0.5" y2="1" gradientUnits="objectBoundingBox"><stop offset="0" stop-color="#fff100"/><stop offset="1" stop-color="#edcf00"/></linearGradient><filter id="s" x="290.173" y="235.496" width="163.448" height="61.495" filterUnits="userSpaceOnUse"><feOffset dy="3" input="SourceAlpha"/><feGaussianBlur stdDeviation="3" result="t"/><feFlood flood-color="#0a0a0a" flood-opacity="0.102"/><feComposite operator="in" in2="t"/><feComposite in="SourceGraphic"/></filter><clipPath id="u"><circle cx="64.716" cy="64.716" r="64.716" fill="none"/></clipPath><linearGradient id="v" x1="0.367" y1="0.737" x2="0.533" y2="0.478" xlink:href="#c"/><linearGradient id="w" x1="0.186" y1="0.594" x2="0.434" y2="0.49" xlink:href="#c"/><linearGradient id="x" x1="0.02" y1="0.83" x2="0.426" y2="0.515" xlink:href="#c"/><clipPath id="y"><path d="M1538.691,335.069c-3.134-.712-12.81-9.534-4.523-17.177.97-.895-9.269,2.282-12.854,4.715-.317.9-7.516,6.548-7.516,6.548s-5.917-5.408-2-11.4c-4.251-.757-9.743-.815-12.908,12.234-.232.958.047,13.664.838,16.679a124.449,124.449,0,0,0,16.043,1.371c10.756,0,24.492-1.188,24.492-1.188S1539.236,340.3,1538.691,335.069Z" transform="translate(-1498.807 -317.483)" fill="none"/></clipPath><linearGradient id="z" x1="0.132" y1="0.564" x2="1.239" y2="0.443" xlink:href="#g"/><linearGradient id="aa" x1="0.125" y1="0.544" x2="1.242" y2="0.411" xlink:href="#g"/><linearGradient id="ab" x1="1.025" y1="0.554" x2="0.536" y2="0.505" xlink:href="#c"/><linearGradient id="ac" x1="0.641" y1="0.681" x2="0.407" y2="0.38" xlink:href="#c"/><linearGradient id="ad" x1="0.695" y1="0.586" x2="0.432" y2="0.463" xlink:href="#c"/><linearGradient id="ae" x1="0.639" y1="0.571" x2="0.398" y2="0.448" xlink:href="#c"/><linearGradient id="af" x1="0.864" y1="0.872" x2="0.611" y2="0.603" xlink:href="#c"/><linearGradient id="ag" x1="0.872" y1="0.572" x2="0.411" y2="0.483" xlink:href="#c"/><linearGradient id="ah" x1="0.623" y1="0.558" x2="0.641" y2="1.041" xlink:href="#c"/><linearGradient id="ai" x1="0.5" x2="-0.256" y2="0.422" gradientUnits="objectBoundingBox"><stop offset="0" stop-color="#fb7e51"/><stop offset="0" stop-color="#fb7f52"/><stop offset="1" stop-color="#ff8f66"/></linearGradient><linearGradient id="aj" x1="-125.34" y1="9.593" x2="-125.44" y2="10.63" xlink:href="#c"/><linearGradient id="ak" x1="0.5" y1="0.562" x2="0.497" y2="-1.956" xlink:href="#c"/><linearGradient id="al" x1="0.731" y1="1" x2="0.196" y2="0.218" xlink:href="#o"/><linearGradient id="am" x1="0.639" y1="0.801" x2="0.551" y2="0.216" xlink:href="#o"/><filter id="ap" x="8.462" y="156.496" width="106.911" height="70.437" filterUnits="userSpaceOnUse"><feOffset dy="3" input="SourceAlpha"/><feGaussianBlur stdDeviation="3" result="aq"/><feFlood flood-opacity="0.102"/><feComposite operator="in" in2="aq"/><feComposite in="SourceGraphic"/></filter><clipPath id="ar"><circle cx="45.16" cy="45.16" r="45.16" fill="none"/></clipPath><linearGradient id="as" x1="0.5" y1="0" x2="0.5" y2="1" xlink:href="#o"/><clipPath id="aw"><path d="M1529.4,330.9c-2.4-.543-9.826-7.273-3.469-13.1.744-.683-7.11,1.741-9.86,3.6-.243.686-5.766,5-5.766,5s-4.538-4.126-1.537-8.7c-3.261-.577-7.474-.622-9.9,9.333-.178.731.036,10.424.643,12.724a95.966,95.966,0,0,0,12.306,1.046c8.251,0,18.787-.907,18.787-.907S1529.819,334.888,1529.4,330.9Z" transform="translate(-1498.807 -317.483)" fill="none"/></clipPath><linearGradient id="bf" x1="0.148" y1="1" x2="0.163" y2="0.321" xlink:href="#o"/><filter id="bi" x="307.789" y="291.321" width="123.482" height="54.585" filterUnits="userSpaceOnUse"><feOffset dy="3" input="SourceAlpha"/><feGaussianBlur stdDeviation="3" result="bj"/><feFlood flood-color="#0a0a0a" flood-opacity="0.102"/><feComposite operator="in" in2="bj"/><feComposite in="SourceGraphic"/></filter><clipPath id="bk"><circle cx="93.467" cy="93.467" r="93.467" fill="none"/></clipPath><linearGradient id="bl" x1="0.5" x2="0.5" y2="1" gradientUnits="objectBoundingBox"><stop offset="0" stop-color="#262223"/><stop offset="1"/></linearGradient><linearGradient id="bm" x1="0.484" y1="0.272" x2="0.5" y2="1" xlink:href="#o"/><clipPath id="bn"><path d="M1364.654,344.895c5.02-1.137,13.916-14.583.641-26.789-1.554-1.429,15.457,2.872,21.2,6.757.507,1.437,10.755,10.86,10.755,10.86s5.452-9.715-.817-19.286c6.81-1.208,19.17.257,24.24,21.1.372,1.529-2.532,7.557-2.416,9.3,0,0,2.848,12.642,1.581,17.457a190,190,0,0,1-25.065,1.96c-17.231,0-36.658-2.028-36.658-2.028A52.688,52.688,0,0,1,1364.654,344.895Z" fill="none"/></clipPath><linearGradient id="bo" x1="0.998" y1="0.701" x2="-0.589" y2="-0.17" xlink:href="#g"/><linearGradient id="bp" x1="1.013" y1="0.705" x2="-0.581" y2="-0.146" xlink:href="#g"/><linearGradient id="bq" x1="0.158" y1="0.693" x2="0.427" y2="0.527" xlink:href="#c"/><linearGradient id="br" x1="0.268" y1="1.031" x2="0.538" y2="0.391" xlink:href="#c"/><linearGradient id="bs" x1="0.5" y1="0.525" x2="0.5" y2="1" xlink:href="#c"/><linearGradient id="bt" x1="0.379" y1="0.958" x2="0.377" y2="0.284" xlink:href="#o"/><filter id="bw" x="362.309" y="67.876" width="126.599" height="93.731" filterUnits="userSpaceOnUse"><feOffset dy="3" input="SourceAlpha"/><feGaussianBlur stdDeviation="3" result="bx"/><feFlood flood-color="#0a0a0a" flood-opacity="0.102"/><feComposite operator="in" in2="bx"/><feComposite in="SourceGraphic"/></filter></defs><g clip-path="url(#a)"><g transform="translate(17.461 0)" style="isolation:isolate"><circle cx="62.36" cy="62.36" r="62.36" transform="translate(168.69 212.624)" fill="#fff" stroke="#d1bfe6" stroke-width="1.025"/><g transform="translate(174.435 218.369)" clip-path="url(#b)"><path d="M254.87,239.2c0,2.7-17.224,4.859-38.48,4.859S177.9,241.875,177.9,239.2v-3.037s11.733-2.429,17.928-2.915c5.952-.474,13-.753,20.564-.753s14.576.279,20.564.753c6.195.5,17.928,2.235,17.928,2.235Z" transform="translate(-159.775 -184.18)" fill="#15191f"/><g transform="translate(21.633 33.726)"><g transform="translate(7.604 57.365)"><g transform="translate(42.109 5.578)"><path d="M3389.135,1510.6c3.333-.153,6.205-1.74,8.973-3.479-1.539-6.292-8-11.254-13.743-10.487.358,1.125,1.743,10.487,1.743,10.487s3.077.92,3.026,3.479" transform="translate(-3380.822 -1496.553)" fill="#f2eddc"/><path d="M3384.455,1522.574a6.7,6.7,0,0,0,2.135-4.169,20.279,20.279,0,0,0,8.871-3.836,11.186,11.186,0,0,1,.513,2.915c-.007.036-.017.071-.025.107.132,4.482-2.614,8.815-10.688,12.468-.51.345-1.01.7-1.492,1.085C3383.563,1528.48,3384.1,1522.932,3384.455,1522.574Z" transform="translate(-3378.327 -1504.519)" fill="url(#c)"/><path d="M3404.913,1537.793a5.765,5.765,0,0,0,.46-6.367c-1.282-2.762-3.692-3.458-6.151-2.026a11.543,11.543,0,0,0-2.975,2.715c-.872,1.022-1.795,2.2-1.744,3.53a5.114,5.114,0,0,0,2.1,4.144c.77.563,3.282,1.893,4.513,1.893a4.961,4.961,0,0,0,2.564-.563,3.394,3.394,0,0,0,1.436-1.381,1.806,1.806,0,0,0-.154-1.893c0-.051,0-.051-.052-.051" transform="translate(-3394.498 -1510.755)" fill="url(#d)"/><path d="M3404.487,1538.668h0a.523.523,0,0,1-.41.256,3.747,3.747,0,0,1-1.487.358.582.582,0,0,1-.564-.6v-.017a.536.536,0,0,1,.257-.46c.81-.458,3.348-1.862,3.84-4.511a6.23,6.23,0,0,0-.612-2.4c-1.283-2.762-3.643-3.427-6.1-1.995a12.589,12.589,0,0,0-3.129,2.814c-.871,1.023-1.795,2.2-1.744,3.53a5.113,5.113,0,0,0,2.1,4.144,12.137,12.137,0,0,0,4.513,1.892,4.855,4.855,0,0,0,2.564-.562,3.4,3.4,0,0,0,1.436-1.382,1.787,1.787,0,0,0,.052-1.535c-.2.1-.459.308-.716.461" transform="translate(-3394.533 -1510.711)" fill="url(#e)"/></g><g transform="translate(3.708 29.008)"><path d="M3464.051,1603.463h7.837l-.121.808-.542,3.844c.009.109.014.167.014.167h-.038l0,.032h-3.446v-.031h-.017v-1.943l-2.56,1.941h-8.654v-2.7Z" transform="translate(-3456.521 -1566.824)" fill="#0a0a0a"/><path d="M3410.923,1603.463h8.125c.024.349.037.541.037.541l5.311,1.424v2.855h-7.718l-2.773-2.1v2.1h-3.888s-.364-1.667-.785-4.279c-.025-.165-.055-.339-.084-.509.593-.013,1.184-.018,1.776-.032" transform="translate(-3382.536 -1566.824)" fill="#0a0a0a"/><path d="M3407.778,1574.761c-.007-1.091-.178-29.611,2.411-36.8l0-.062.093,0c1.786-.567,25.945,1.027,33.019,1.51l1.937.089,0,.045h0l0,.016a240.979,240.979,0,0,1-5.117,35.234h-.042l-.006.045h-10.658l0-.045h-.718c-.189-9.989-.618-25.382-.652-26.625-1.02,2.886-3.987,7.692-6.506,14.546-1.139,3.611-2.129,7.111-2.75,9.672q-.237,1.177-.436,2.407h0c-.005.017-.005.028-.011.045l-10.566-.045h0Z" transform="translate(-3402.614 -1537.783)" fill="#312d2e"/><path d="M3464.329,1538.048l.005-.011v-.044l.078.006h.006l.9.039h3.791l-.034.173-7.153,36.678S3461.689,1545.368,3464.329,1538.048Z" transform="translate(-3456.754 -1537.876)" fill="#262223"/><path d="M3430.059,1556.49c.651,8.958.652,26.625.652,26.625h4.116c.046-.047.1-21.018-4.768-26.625" transform="translate(-3404.671 -1546.055)" fill="#262223"/></g><g transform="translate(10.879 0)"><path d="M1527.9,309.711c-18.515.893-25.93,5.8-25.93,5.8a40.177,40.177,0,0,0-1.417,8.575.947.947,0,0,1,.615.189c.85.613.945,1.649.8,3.156-.285,2.048-1.511,10.46-1.558,12.675h35.9l.094-18.282s-2.645-12.251-8.5-12.11" transform="translate(-1500.16 -309.71)" fill="#f2eddc"/><path d="M1499.923,331.464s8.694-4.225,3.025-15.77c.944-.706,9.11,2.36,12.369,4.527.284.848,6.906,5.973,6.906,5.973s2.7-3.092,2.983-5.9l-2.751-.78,5.29-5.843c5.243,2.261,7.84,2.356,7.889,16.114,0,0-.047,9.283-.8,12.015a119.165,119.165,0,0,1-15.115,1.179c-9.824,0-20.877-1.179-20.877-1.179Z" transform="translate(-1498.519 -311.46)" fill="#edcf00"/><g transform="translate(0 4.336)"><g clip-path="url(#f)"><g transform="translate(0.314 9.608)"><path d="M1522.427,334.707c1.211,7-.286,17.661-.286,17.661" transform="translate(-1499.13 -334.707)" fill="none" stroke="#ad960c" stroke-miterlimit="10" stroke-width="1"/><g transform="translate(0 5.58)"><g transform="translate(0 4.597)"><path d="M3425.44,1534.138a104.437,104.437,0,0,0,15.823-1.124l-.431-2.755a116.5,116.5,0,0,1-36.437-.745l-.509,2.742A121.3,121.3,0,0,0,3425.44,1534.138Z" transform="translate(-3403.885 -1529.513)" fill="url(#g)"/></g><g transform="translate(0.1)"><path d="M3424.405,1526.486a93.375,93.375,0,0,0,16.956-1.242l-.578-2.73c-7.067,1.489-24.687,1.713-35.97-.242l-.478,2.748A124.49,124.49,0,0,0,3424.405,1526.486Z" transform="translate(-3404.335 -1522.272)" fill="url(#h)"/></g></g></g></g></g></g><g transform="translate(0 5.021)"><g transform="translate(0 3.754)"><path d="M3472.385,1501.265a7.125,7.125,0,0,1,1.8,1.094,15.643,15.643,0,0,1,3.882,5.061,14.15,14.15,0,0,0-4.554,10.9,5.223,5.223,0,0,0,.453,2.451,7.335,7.335,0,0,0,1.638,1.618c1.219.944,2.6,1.808,4.063,2.722.3.186.593.374.889.558a32.72,32.72,0,0,0-6.872,5.563c-1.083-.693-2.171-1.42-3.224-2.236a14.4,14.4,0,0,1-3.729-4,13.2,13.2,0,0,1-1.6-6.543,22.3,22.3,0,0,1,7.256-17.189" transform="translate(-3465.125 -1501.265)" fill="#ff8f66"/><path d="M3479.495,1536.148a13.25,13.25,0,0,0,3.9,3.676c1.1.851-1.328-1.735-.2-1.016-.3.2,2.98,3.768,2.67,3.96-1.111-.708-2.229-1.454-3.311-2.292a14.408,14.408,0,0,1-3.729-4,13.2,13.2,0,0,1-1.6-6.543,24.581,24.581,0,0,1,.109-2.715c-.112,5.251,1.329,7.512,2.16,8.926" transform="translate(-3477.222 -1512.742)" fill="#fb7e51"/><path d="M3467.4,1540.641a5.433,5.433,0,0,0-3.862,1.882,6.289,6.289,0,0,0-1.263,2.249c-.084.379.3,1.958,2.255,3.051a7.42,7.42,0,0,0,7.963-.239c1.007-1.3,2.2-1.305,2.4-2.818.111-1.228-4.385-4.679-7.49-4.125" transform="translate(-3457.859 -1518.649)" fill="#fb7e51"/><path d="M3464.227,1543.416c.227-.335.863-1.48,1.091-1.77,1.112-1.283,3.584-3.747,4.932-2.712,1.389,1.067,2.808,1.233,5.089,2.589,1.122.668-.588,3.335-1.734,3.961-2.378,1.148-4.389,1.968-5.528,1.763a7.42,7.42,0,0,1-3.85-3.831" transform="translate(-3459.77 -1517.811)" fill="#ff8f66"/><path d="M3458.368,1545.678a8.991,8.991,0,0,1,4.532,5.1" transform="translate(-3443.688 -1520.903)" fill="none" stroke="#ff8f66" stroke-linecap="round" stroke-miterlimit="10" stroke-width="5"/><path d="M3462.278,1549.377a15.089,15.089,0,0,1,2.915,6.106" transform="translate(-3448.167 -1522.538)" fill="none" stroke="#ff8f66" stroke-linecap="round" stroke-miterlimit="10" stroke-width="5"/><path d="M3467.931,1550.127c1.51,1.155,2.746,4.463,2.865,6.359" transform="translate(-3456.932 -1522.87)" fill="none" stroke="#ff8f66" stroke-linecap="round" stroke-miterlimit="10" stroke-width="5"/><path d="M3473.771,1552.191c1.107.893,1.755,3.2,1.906,4.63" transform="translate(-3465.079 -1523.782)" fill="none" stroke="#ff8f66" stroke-linecap="round" stroke-miterlimit="10" stroke-width="5"/><path d="M3457.869,1548.324a8.2,8.2,0,0,1,3.3,4.049,1.556,1.556,0,0,0,1.159.934,1.373,1.373,0,0,1-1.608-.931,10.076,10.076,0,0,0-2.854-4.053" transform="translate(-3442.84 -1522.073)" fill="#fb7e51"/><path d="M3464.8,1556.469a1.635,1.635,0,0,0,1.279,1.044,1.438,1.438,0,0,1-.28.031,1.4,1.4,0,0,1-1.363-1.089,13.715,13.715,0,0,0-2.606-5.5.69.69,0,0,1-.053-.076c1.363.731,2.676,4.048,3.023,5.587" transform="translate(-3448.776 -1523.203)" fill="#fb7e51"/><path d="M3467.537,1553.437a9.255,9.255,0,0,1,1.887,4.585,1.635,1.635,0,0,0,1.322,1.278,1.473,1.473,0,0,1-.18.029l-.089,0a1.4,1.4,0,0,1-1.395-1.307,10.891,10.891,0,0,0-1.629-4.554c-.021-.2.107.158.083-.035" transform="translate(-3456.614 -1524.322)" fill="#fb7e51"/><path d="M3473.882,1557.158a1.4,1.4,0,0,0,1.389,1.249,1.373,1.373,0,0,0,.778-.243,1.4,1.4,0,0,1-.951.521,1.223,1.223,0,0,1-.147.007,1.4,1.4,0,0,1-1.389-1.249c-.16-1.518-.73-3.308-1.4-3.691-.471-.271-.323-.1-.341-.48a4.735,4.735,0,0,1,2.059,3.886" transform="translate(-3464.357 -1524.26)" fill="#fb7e51"/></g><path d="M3472.384,1501.265a7.131,7.131,0,0,1,1.8,1.094,15.653,15.653,0,0,1,3.882,5.061,14.148,14.148,0,0,0-4.554,10.9,5.214,5.214,0,0,0,.453,2.451,7.339,7.339,0,0,0,1.638,1.618c1.219.944,2.6,1.808,4.064,2.722.3.186.593.374.888.558a32.7,32.7,0,0,0-6.871,5.563c-1.083-.693-2.172-1.42-3.225-2.236a14.4,14.4,0,0,1-3.729-4,13.19,13.19,0,0,1-1.6-6.543,22.3,22.3,0,0,1,7.256-17.189" transform="translate(-3465.123 -1497.511)" fill="url(#i)"/><path d="M3478.156,1498.694c1.347-.477,4.98,6.425,2.793,8.871-1.417.959-2.831,3.818-3.595,5.984-.038-.021-5.706-1.189-7.949-2.863C3470.589,1504.386,3474.136,1500.118,3478.156,1498.694Z" transform="translate(-3468.593 -1496.364)" fill="#f2eddc"/><path d="M3474.889,1494.538c1.42-.168,3.431,7.365.755,9.267-1.594.623-3.608,3.1-4.834,5.041-.034-.029-5.3-2.42-7.117-4.548C3466.247,1498.418,3470.654,1495.039,3474.889,1494.538Z" transform="translate(-3460.724 -1494.535)" fill="#f2eddc"/><path d="M3467.4,1540.641a5.433,5.433,0,0,0-3.863,1.882,6.291,6.291,0,0,0-1.263,2.249c-.084.379.3,1.958,2.254,3.051a7.418,7.418,0,0,0,7.964-.24c1.006-1.3,2.2-1.3,2.4-2.818.112-1.228-4.385-4.679-7.489-4.125" transform="translate(-3457.858 -1514.895)" fill="#fb7e51"/><g transform="translate(13.282 27.135)"><path d="M3461.8,1551.065a1.4,1.4,0,0,0,1.319-1.856,10.333,10.333,0,0,0-5.235-5.889,1.4,1.4,0,1,0-1.233,2.5,7.555,7.555,0,0,1,3.83,4.307A1.4,1.4,0,0,0,3461.8,1551.065Z" transform="translate(-3455.865 -1543.178)" fill="url(#j)"/></g><g transform="translate(11.914 28.464)"><path d="M3464.887,1555.191a1.4,1.4,0,0,0,1.366-1.7,16.259,16.259,0,0,0-3.185-6.67c-.89-1.1-2.1-1.544-2.721-1.081-1.07.8-.488,1.586.53,2.814a13.192,13.192,0,0,1,2.647,5.542A1.4,1.4,0,0,0,3464.887,1555.191Z" transform="translate(-3459.776 -1545.561)" fill="url(#k)"/></g><g transform="translate(9.602 29.617)"><path d="M3469.692,1556.775l.088,0a1.4,1.4,0,0,0,1.309-1.478c-.127-2.048-1.416-5.854-3.409-7.38a1.4,1.4,0,1,0-1.7,2.213c1.075.823,2.218,3.706,2.321,5.34A1.4,1.4,0,0,0,3469.692,1556.775Z" transform="translate(-3465.43 -1547.626)" fill="url(#l)"/></g><path d="M3464.2,1543.817c.227-.335.863-1.48,1.091-1.77,1.112-1.283,3.991-3.024,5.517-2.273,1.543.758,2.324.993,4.5,2.15,1.154.612-.588,3.335-1.733,3.961-2.379,1.148-4.389,1.968-5.529,1.763a7.422,7.422,0,0,1-3.85-3.831" transform="translate(-3459.746 -1514.457)" fill="url(#m)"/><g transform="translate(7.295 30.768)"><path d="M3474.572,1557.11a1.343,1.343,0,0,0,.148-.008,1.4,1.4,0,0,0,1.244-1.533c-.155-1.469-.837-4.295-2.417-5.569a1.4,1.4,0,1,0-1.758,2.169,6.681,6.681,0,0,1,1.394,3.691A1.4,1.4,0,0,0,3474.572,1557.11Z" transform="translate(-3471.27 -1549.69)" fill="url(#n)"/></g></g></g><g transform="translate(3.296)"><path d="M183.784,244.224h62.008a17.928,17.928,0,0,0-15.013-20.017L203.9,220.32h-.292a17.6,17.6,0,0,0-19.665,15.292A43.729,43.729,0,0,0,183.784,244.224Z" transform="translate(-183.643 -220.182)" fill="url(#o)"/><path d="M183.762,240.486a52.315,52.315,0,0,0,14.369,31.423h0v-6.62a15.62,15.62,0,0,1,15.693-15.645h30.609l1.312-8.891v-.279Z" transform="translate(-183.621 -216.432)" fill="#fb7e51"/></g><path d="M241.805,254.687h0a9.426,9.426,0,1,0-9.414,9.426A9.426,9.426,0,0,0,241.805,254.687Z" transform="translate(-173.081 -215.547)" fill="#fb7e51"/><path d="M242.19,248.506v-.292H211.581A15.608,15.608,0,0,0,195.9,263.859v6.571c6.413,5.964,14.163,11.661,23.795,11.442a22.872,22.872,0,0,0,12.511-2.952,17.941,17.941,0,0,0,6.948-9.717,22.572,22.572,0,0,0,.51-2.551Zm-27.257,9.826h0a3.826,3.826,0,0,1-7.64,0v-2.976a3.826,3.826,0,0,1,7.64,0Zm5.344,14.09a5,5,0,0,1-5-5.017h10.021A5.017,5.017,0,0,1,220.278,272.422Zm11.818-14.09a3.814,3.814,0,0,1-7.628,0v-2.976a3.814,3.814,0,1,1,7.628,0Z" transform="translate(-178.081 -215.002)" fill="#fb7e51"/><path d="M227.64,254.837v2.976a3.814,3.814,0,1,1-7.628,0v-2.976h0a3.814,3.814,0,0,1,7.628,0Z" transform="translate(-173.625 -214.482)" fill="#2e3033"/><path d="M213.156,254.805v2.976h0a3.826,3.826,0,0,1-7.64,0v-2.976h0a3.826,3.826,0,0,1,7.64,0Z" transform="translate(-176.304 -214.451)" fill="#2e3033"/><path d="M217.269,269.438a5.016,5.016,0,0,1-5.029-5.016h10.033a4.992,4.992,0,0,1-5,5Z" transform="translate(-175.061 -212.006)" fill="#2e3033"/><path d="M217.269,269.438a5.016,5.016,0,0,1-5.029-5.016h10.033a4.992,4.992,0,0,1-5,5Z" transform="translate(-175.061 -212.006)" fill="#fff"/><path d="M227.64,254.837v2.976a3.814,3.814,0,1,1-7.628,0v-2.976h0a3.814,3.814,0,0,1,7.628,0Z" transform="translate(-173.625 -214.482)" fill="#15191f"/><path d="M213.156,254.805v2.976h0a3.826,3.826,0,0,1-7.64,0v-2.976h0a3.826,3.826,0,0,1,7.64,0Z" transform="translate(-176.304 -214.451)" fill="#15191f"/><path d="M514.268,11825.956a65.756,65.756,0,0,1-.983-10.459h48.6v-2.793l19.106-1.678,2.087,2.429c.086,6.938-5.7,11.3-12.691,11.3h-8.5v-3.962a4.156,4.156,0,0,0-2.7,1.956,4.126,4.126,0,0,1-3.583,2.054h-26.32a7.51,7.51,0,0,0-6.513,3.826Z" transform="translate(-510.163 -11793.592)" fill="url(#o)"/><path d="M199.882,254.99v-.158a9.511,9.511,0,1,0,0,.158Z" transform="translate(-180.861 -215.521)" fill="#fb7e51"/><path d="M191.553,257.146v.377a5.624,5.624,0,0,0,1.373-3.644c0-2.369-.571-3.644-2.624-4.518a3.777,3.777,0,0,0-2.952.109,2.368,2.368,0,0,0,.219,4.4C189.355,254.474,191.553,255.688,191.553,257.146Z" transform="translate(-179.917 -214.836)" fill="#ff8f66"/><path d="M212.383,280.973a29.014,29.014,0,0,1-6.073-2.429,36.716,36.716,0,0,1-5.49-3.644,51.866,51.866,0,0,1-4.859-4.458v-6.583h0a15.608,15.608,0,0,1,15.608-15.645h30.609v.292l-2.526,18.1a22.564,22.564,0,0,1-.51,2.551,17.892,17.892,0,0,1-6.948,9.717,22.494,22.494,0,0,1-11.976,2.952h-1.13A25.506,25.506,0,0,1,212.383,280.973Zm8.5-8.5h0a4.992,4.992,0,0,0,4.98-5.029H215.213a5.041,5.041,0,0,0,5.029,5.017h.571Zm-9.462-20.88h-.292a3.826,3.826,0,0,0-3.814,3.814v2.976a3.826,3.826,0,0,0,3.814,3.814h.583a3.826,3.826,0,0,0,3.814-3.814v-3.024a3.838,3.838,0,0,0-3.814-3.814Zm17.454,0h-.583a3.8,3.8,0,0,0-3.8,3.814v2.976a3.814,3.814,0,0,0,3.814,3.814h.571a3.814,3.814,0,0,0,3.814-3.814v-3.024a3.826,3.826,0,0,0-3.814-3.814Z" transform="translate(-178.07 -215.002)" fill="#ff8f66"/></g><g transform="translate(18.122 6.42)"><path d="M177.9,239.2c0,2.7,17.236,4.859,38.492,4.859s38.492-2.186,38.492-4.859v-3.037s-11.721-2.429-17.928-2.915c-5.952-.474-13-.753-20.564-.753s-14.576.279-20.564.753c-6.207.5-17.928,2.235-17.928,2.235Z" transform="translate(-177.897 -190.599)" fill="none"/><g transform="translate(0 39.531)"><path d="M177.9,235.366v.109a2.818,2.818,0,0,0,.085.717,2.782,2.782,0,0,0,3.389,1.98h.121a86.856,86.856,0,0,1,14.333-2.065c5.94-.474,13-.753,20.564-.753s14.576.279,20.564.753a86.857,86.857,0,0,1,14.333,2.065h.061a3.121,3.121,0,0,0,.753.1,2.782,2.782,0,0,0,2.782-2.782v-.109c0-2.7-17.236-4.859-38.492-4.859S177.9,232.669,177.9,235.366Z" transform="translate(-177.898 -230.495)" fill="#fff100"/><path d="M178.025,239.779a8.988,8.988,0,0,1,3.474-1.6,67.481,67.481,0,0,1,9.717-1.628c.425,0,3.195-.085,7.288-.109a6.766,6.766,0,0,1,4.154,1.4l2.952,2.259a12.584,12.584,0,0,0,7.64,2.587H234a8.309,8.309,0,0,0,6.6-3.256h0a5.976,5.976,0,0,1,5.648-2.271,50.755,50.755,0,0,1,5.077,1.02,8.1,8.1,0,0,1,3.292,1.445l.182.158a1.081,1.081,0,0,0,.134-.644v-3.778c0-2.7-17.236-4.859-38.492-4.859h-2.15c-20.26.134-36.342,2.271-36.342,4.859V239.2A1.08,1.08,0,0,0,178.025,239.779Z" transform="translate(-177.891 -230.499)" fill="#fff100"/></g><g transform="translate(3.17)"><path d="M195.854,234.032v2.9a85.31,85.31,0,0,0-15.28,2.223v-5a35.322,35.322,0,0,1,23.491-33.221C199.012,209.108,195.854,220.914,195.854,234.032Z" transform="translate(-180.573 -196.433)" fill="url(#q)"/><path d="M241.352,237.455a42.532,42.532,0,0,0-4.761-1.008c.073-1.348.109-2.709.109-4.093a73.39,73.39,0,0,0-3.34-22.337,35.225,35.225,0,0,1,8.053,22.459Z" transform="translate(-170.817 -194.754)" fill="url(#q)"/><path d="M244.064,234.358c0,1.385,0,2.745-.109,4.093a205.811,205.811,0,0,0-30.451-1.895h-2.15c-6.511,0-12.6.3-17.843.7v-2.9c0-13.118,3.17-24.925,8.223-33.148a35.3,35.3,0,0,1,39.051,10.81A73.326,73.326,0,0,1,244.064,234.358Z" transform="translate(-178.182 -196.758)" fill="#fff100"/><g transform="translate(21.305)"><path d="M198.555,214.741l2.235-13.993a2.7,2.7,0,0,1,1.883-2.174,35.31,35.31,0,0,1,19.957,0,2.709,2.709,0,0,1,1.895,2.174l2.235,13.993" transform="translate(-198.555 -197.135)" fill="#fff100"/></g><g transform="translate(32.625 12.177)"><path d="M208.109,221.006l8.114,5v6.5Z" transform="translate(-208.109 -204.9)" fill="#fff100"/><path d="M214.927,232.509v-6.5l8.126-5Z" transform="translate(-206.849 -204.9)" fill="#fff100"/><path d="M214.927,207.412h0l8.114,13.142-8.114-4.7Z" transform="translate(-206.849 -207.412)" fill="#fff100"/><path d="M216.187,215.854l-8.077,4.7,8.114-13.142Z" transform="translate(-208.109 -207.412)" fill="#fff100"/><path d="M223.041,219.24h0l-8.114,4.689h0v-9.4h0Z" transform="translate(-206.849 -206.097)" fill="#fff100"/><path d="M479,11707.094l8.128-5.006-8.128,11.5Zm0-12.67v-8.443l8.114,13.144-8.114,4.689Z" transform="translate(-470.922 -11685.981)" fill="#4b4d4d"/><path d="M216.187,214.537v9.389l-8.077-4.689h0Z" transform="translate(-208.109 -206.095)" fill="#fff100"/><path d="M479,11702.088l8.114,5.006v6.5Zm0-2.964,8.078-4.7v9.39Zm8.114-13.144-.035,8.443-8.078,4.7Z" transform="translate(-479 -11685.981)" fill="#0a0a0a"/></g></g></g></g><path d="M224.159,250.859h0a3.9,3.9,0,0,1,3.9,3.9v3.037a3.935,3.935,0,0,1-3.9,3.911h0a3.96,3.96,0,0,1-3.911-3.911v-3.037A3.935,3.935,0,0,1,224.159,250.859Z" transform="translate(22.487 37.583)" fill="#2e3033"/><path d="M209.355,250.859h0a3.923,3.923,0,0,1,3.9,3.9v3.037a3.911,3.911,0,0,1-3.9,3.911h0a3.96,3.96,0,0,1-3.911-3.911v-3.037A3.911,3.911,0,0,1,209.355,250.859Z" transform="translate(19.751 37.583)" fill="#2e3033"/><path d="M217.551,257.307h0a8.673,8.673,0,1,1,8.66,8.673A8.673,8.673,0,0,1,217.551,257.307Zm8.66-7.288h0a7.288,7.288,0,0,0-7.288,7.288h0a7.288,7.288,0,1,0,7.288-7.288Z" transform="translate(21.989 37.172)" fill="#fb7e51"/><path d="M200.933,257.3c0-4.761,3.037-8.624,7.8-8.624a8.648,8.648,0,1,1,0,17.3C205.67,265.972,200.933,262.061,200.933,257.3Zm7.8-7.288h0a7.288,7.288,0,0,0-7.288,7.288h0a7.288,7.288,0,1,0,7.288-7.288Z" transform="translate(18.918 37.179)" fill="#fb7e51"/><path d="M233.44,253.98a7.8,7.8,0,1,1-15.317.207C218.524,253.53,231.885,252.668,233.44,253.98Z" transform="translate(22.072 38.033)" fill="#f49f7d"/><path d="M218.1,255.051a7.8,7.8,0,0,1,15.317-.206C231.867,253.533,218.518,254.4,218.1,255.051Z" transform="translate(22.091 37.168)" fill="#ec8c68"/><path d="M216.284,253.979a7.823,7.823,0,0,1-15.329,3.134h0a7.41,7.41,0,0,1,0-2.879C201.332,253.53,214.717,252.667,216.284,253.979Z" transform="translate(18.896 38.034)" fill="#f49f7d"/><path d="M200.933,255.058a7.822,7.822,0,0,1,15.365-.243C214.7,253.539,201.31,254.4,200.933,255.058Z" transform="translate(18.918 37.162)" fill="#ec8c68"/><path d="M224.159,250.859h0a3.9,3.9,0,0,1,3.9,3.9v3.037a3.935,3.935,0,0,1-3.9,3.911h0a3.96,3.96,0,0,1-3.911-3.911v-3.037A3.935,3.935,0,0,1,224.159,250.859Z" transform="translate(22.487 37.583)" fill="#29221d"/><path d="M209.355,250.859h0a3.923,3.923,0,0,1,3.9,3.9v3.037a3.911,3.911,0,0,1-3.9,3.911h0a3.96,3.96,0,0,1-3.911-3.911v-3.037A3.911,3.911,0,0,1,209.355,250.859Z" transform="translate(19.751 37.583)" fill="#29221d"/><path d="M233.641,256.325a7.81,7.81,0,0,0-15.608,0" transform="translate(22.078 37.206)" fill="none" stroke="#2e3033" stroke-miterlimit="10" stroke-width="1.486"/><path d="M216.48,256.325a7.81,7.81,0,0,0-15.608,0" transform="translate(18.906 37.206)" fill="none" stroke="#2e3033" stroke-miterlimit="10" stroke-width="1.486"/><path d="M218.863,255.533a2.429,2.429,0,1,0-4.859,0" transform="translate(21.333 37.998)" fill="none" stroke="#2e3033" stroke-miterlimit="10" stroke-width="1.486"/><g transform="matrix(1, 0, 0, 1, -17.46, 0)" filter="url(#s)"><path d="M720.419,11960.9h-4.362a6.7,6.7,0,0,1-6.7-6.705v-19.544a6.7,6.7,0,0,1,6.7-6.7H848.1a6.7,6.7,0,0,1,6.7,6.7v19.544a6.7,6.7,0,0,1-6.7,6.705H730.956l-10.537,10.543Z" transform="translate(-410.18 -11686.45)" fill="#fff"/></g><path d="M720.419,11960.9h-4.362a6.7,6.7,0,0,1-6.7-6.705v-19.544a6.7,6.7,0,0,1,6.7-6.7H848.1a6.7,6.7,0,0,1,6.7,6.7v19.544a6.7,6.7,0,0,1-6.7,6.705H730.956l-10.537,10.543Z" transform="translate(-427.641 -11686.451)" fill="rgba(242,242,242,0.4)"/><path d="M4.777,0H4.008V-2.958H1.384V0H.62V-6.4h.765v2.751H4.008V-6.4h.769ZM8.266.088a2.413,2.413,0,0,1-.921-.171,2.089,2.089,0,0,1-.719-.479,2.191,2.191,0,0,1-.466-.729,2.473,2.473,0,0,1-.167-.918V-2.4a2.721,2.721,0,0,1,.185-1.031,2.363,2.363,0,0,1,.49-.769,2.138,2.138,0,0,1,.694-.481,2,2,0,0,1,.8-.167,2.12,2.12,0,0,1,.9.178,1.764,1.764,0,0,1,.639.492,2.1,2.1,0,0,1,.38.74,3.261,3.261,0,0,1,.125.923v.365h-3.4a1.868,1.868,0,0,0,.125.611,1.587,1.587,0,0,0,.308.5A1.421,1.421,0,0,0,7.708-.7a1.446,1.446,0,0,0,.6.123,1.653,1.653,0,0,0,.773-.176,1.678,1.678,0,0,0,.563-.466l.5.387a1.887,1.887,0,0,1-.3.345,2.048,2.048,0,0,1-.411.292,2.312,2.312,0,0,1-.527.2A2.534,2.534,0,0,1,8.266.088ZM8.161-4.175a1.216,1.216,0,0,0-.466.09,1.215,1.215,0,0,0-.4.264,1.5,1.5,0,0,0-.3.426,2.026,2.026,0,0,0-.169.582H9.391v-.062a1.815,1.815,0,0,0-.09-.47,1.31,1.31,0,0,0-.226-.417,1.132,1.132,0,0,0-.376-.3A1.182,1.182,0,0,0,8.161-4.175Zm6.521-.668q.114,0,.237.007t.235.022q.112.015.207.037a.95.95,0,0,1,.156.048l-.11.8a4.333,4.333,0,0,0-.45-.077,3.96,3.96,0,0,0-.446-.024,1.528,1.528,0,0,0-.925.259,1.5,1.5,0,0,0-.521.725V0h-.817V-4.755h.773l.04.756a2.185,2.185,0,0,1,.7-.617A1.869,1.869,0,0,1,14.682-4.843ZM17.943-.664h3.028V0H16.906V-.6l2.839-3.485h-2.8v-.672h3.867v.576ZM22.5-6.75h2.43V-.7h1.551V0H22.5V-.7h1.617V-6.042H22.5Zm5.4,2h2.43V-.7h1.551V0H27.9V-.7h1.617V-4.047H27.9ZM29.408-6a.5.5,0,0,1,.121-.341.461.461,0,0,1,.367-.138.463.463,0,0,1,.365.138A.494.494,0,0,1,30.384-6a.464.464,0,0,1-.123.33.475.475,0,0,1-.365.132.474.474,0,0,1-.367-.132A.469.469,0,0,1,29.408-6ZM35.2-.571a1.334,1.334,0,0,0,.428-.07A1.265,1.265,0,0,0,36-.837a1.019,1.019,0,0,0,.261-.294.749.749,0,0,0,.1-.367h.769a1.261,1.261,0,0,1-.165.6,1.736,1.736,0,0,1-.428.505,2.176,2.176,0,0,1-.615.347,2.056,2.056,0,0,1-.725.13,2.168,2.168,0,0,1-.945-.193,1.955,1.955,0,0,1-.675-.521,2.24,2.24,0,0,1-.406-.756,2.963,2.963,0,0,1-.136-.9V-2.47a2.969,2.969,0,0,1,.136-.9,2.237,2.237,0,0,1,.406-.758,1.955,1.955,0,0,1,.675-.521,2.168,2.168,0,0,1,.945-.193,2.172,2.172,0,0,1,.776.134,1.925,1.925,0,0,1,.611.365,1.652,1.652,0,0,1,.4.547,1.6,1.6,0,0,1,.145.677H36.36a.99.99,0,0,0-.094-.406,1.106,1.106,0,0,0-.244-.336,1.128,1.128,0,0,0-.367-.229,1.248,1.248,0,0,0-.459-.083,1.231,1.231,0,0,0-.635.152,1.235,1.235,0,0,0-.415.4,1.668,1.668,0,0,0-.226.547,2.779,2.779,0,0,0-.068.611v.185a2.828,2.828,0,0,0,.068.617,1.7,1.7,0,0,0,.224.549,1.215,1.215,0,0,0,.413.4A1.241,1.241,0,0,0,35.2-.571Zm4.188-3.476a1.846,1.846,0,0,1,.628-.582,1.725,1.725,0,0,1,.839-.213,2.031,2.031,0,0,1,.679.108,1.3,1.3,0,0,1,.521.336,1.537,1.537,0,0,1,.332.578,2.628,2.628,0,0,1,.116.828V0h-.813V-3a1.2,1.2,0,0,0-.279-.87,1.051,1.051,0,0,0-.8-.281,1.353,1.353,0,0,0-.71.191,1.528,1.528,0,0,0-.516.508V0h-.813V-6.75h.813ZM50.093-1.723l.1.681.119-.681.76-3.032h.523l.756,3.032.127.747.119-.747.527-3.032h.721L52.831,0h-.642l-.743-2.914-.123-.738-.119.738L50.471,0H49.83L48.819-4.755h.721ZM54.9-4.755h2.43V-.7h1.551V0H54.9V-.7h1.617V-4.047H54.9ZM56.413-6a.5.5,0,0,1,.121-.341.461.461,0,0,1,.367-.138.463.463,0,0,1,.365.138A.494.494,0,0,1,57.388-6a.464.464,0,0,1-.123.33.475.475,0,0,1-.365.132.474.474,0,0,1-.367-.132A.469.469,0,0,1,56.413-6ZM60.3-6.75h2.43V-.7h1.551V0H60.3V-.7h1.617V-6.042H60.3Zm5.4,0h2.43V-.7h1.551V0H65.7V-.7H67.32V-6.042H65.7Zm6.7,4.531-.6.576V0h-.817V-6.75H71.8v4.131l.532-.571,1.56-1.564h.989L72.958-2.773,75.177,0H74.145Zm3.749-.2a2.964,2.964,0,0,1,.149-.956,2.29,2.29,0,0,1,.428-.767,2,2,0,0,1,.679-.512,2.1,2.1,0,0,1,.9-.187,2.13,2.13,0,0,1,.907.187,1.99,1.99,0,0,1,.681.512,2.29,2.29,0,0,1,.428.767,2.964,2.964,0,0,1,.149.956v.1a2.945,2.945,0,0,1-.149.954,2.294,2.294,0,0,1-.428.765,1.971,1.971,0,0,1-.679.51,2.125,2.125,0,0,1-.9.185A2.151,2.151,0,0,1,77.407-.1a1.966,1.966,0,0,1-.681-.51,2.294,2.294,0,0,1-.428-.765,2.945,2.945,0,0,1-.149-.954Zm.813.1a2.633,2.633,0,0,0,.083.67,1.734,1.734,0,0,0,.253.56,1.247,1.247,0,0,0,.424.382,1.208,1.208,0,0,0,.593.141A1.187,1.187,0,0,0,78.9-.712a1.254,1.254,0,0,0,.422-.382,1.734,1.734,0,0,0,.253-.56,2.633,2.633,0,0,0,.083-.67v-.1a2.552,2.552,0,0,0-.086-.666,1.769,1.769,0,0,0-.255-.56,1.276,1.276,0,0,0-.422-.385,1.181,1.181,0,0,0-.591-.143,1.169,1.169,0,0,0-.589.143,1.283,1.283,0,0,0-.42.385,1.734,1.734,0,0,0-.253.56,2.616,2.616,0,0,0-.083.666Zm5.19-2.43.022.448a1.071,1.071,0,0,1,.38-.391,1.119,1.119,0,0,1,.569-.145.857.857,0,0,1,.875.51,1.086,1.086,0,0,1,.371-.367,1.1,1.1,0,0,1,.56-.143,1.012,1.012,0,0,1,.8.321,1.44,1.44,0,0,1,.281.971V0h-.773V-3.56q0-.6-.549-.593a.714.714,0,0,0-.25.04.5.5,0,0,0-.176.108.5.5,0,0,0-.11.158.7.7,0,0,0-.053.187V0h-.773V-3.564A.672.672,0,0,0,83.2-4a.485.485,0,0,0-.4-.149.669.669,0,0,0-.4.1.588.588,0,0,0-.207.268V0h-.773V-4.755Zm5.4,0,.022.448a1.071,1.071,0,0,1,.38-.391,1.119,1.119,0,0,1,.569-.145.857.857,0,0,1,.875.51,1.086,1.086,0,0,1,.371-.367,1.1,1.1,0,0,1,.56-.143,1.012,1.012,0,0,1,.8.321,1.44,1.44,0,0,1,.281.971V0h-.773V-3.56q0-.6-.549-.593a.714.714,0,0,0-.25.04.5.5,0,0,0-.176.108.5.5,0,0,0-.11.158.7.7,0,0,0-.053.187V0H88.73V-3.564A.672.672,0,0,0,88.6-4a.485.485,0,0,0-.4-.149.669.669,0,0,0-.4.1.588.588,0,0,0-.207.268V0h-.773V-4.755ZM94.68.088a2.413,2.413,0,0,1-.921-.171,2.089,2.089,0,0,1-.719-.479,2.191,2.191,0,0,1-.466-.729,2.473,2.473,0,0,1-.167-.918V-2.4a2.721,2.721,0,0,1,.185-1.031,2.363,2.363,0,0,1,.49-.769,2.138,2.138,0,0,1,.694-.481,2,2,0,0,1,.8-.167,2.12,2.12,0,0,1,.9.178,1.764,1.764,0,0,1,.639.492,2.1,2.1,0,0,1,.38.74,3.261,3.261,0,0,1,.125.923v.365h-3.4a1.868,1.868,0,0,0,.125.611,1.587,1.587,0,0,0,.308.5,1.421,1.421,0,0,0,.468.336,1.446,1.446,0,0,0,.6.123A1.653,1.653,0,0,0,95.5-.751a1.678,1.678,0,0,0,.563-.466l.5.387a1.887,1.887,0,0,1-.3.345,2.048,2.048,0,0,1-.411.292,2.312,2.312,0,0,1-.527.2A2.534,2.534,0,0,1,94.68.088Zm-.105-4.263a1.216,1.216,0,0,0-.466.09,1.215,1.215,0,0,0-.4.264,1.5,1.5,0,0,0-.3.426,2.026,2.026,0,0,0-.169.582h2.558v-.062a1.815,1.815,0,0,0-.09-.47,1.31,1.31,0,0,0-.226-.417,1.132,1.132,0,0,0-.376-.3A1.182,1.182,0,0,0,94.575-4.175Zm4.135-.58.057.7A1.888,1.888,0,0,1,99.4-4.63a1.751,1.751,0,0,1,.844-.213,2.07,2.07,0,0,1,.679.105,1.3,1.3,0,0,1,.521.33,1.5,1.5,0,0,1,.332.569,2.571,2.571,0,0,1,.116.82V0h-.813V-3a1.776,1.776,0,0,0-.07-.536.854.854,0,0,0-.209-.356.816.816,0,0,0-.338-.2,1.563,1.563,0,0,0-.459-.062,1.275,1.275,0,0,0-.719.2,1.507,1.507,0,0,0-.494.538V0H97.98V-4.755Z" transform="translate(303.831 261.291)" fill="#6e6f70"/><path d="M71.288,0A71.288,71.288,0,1,1,0,71.288,71.288,71.288,0,0,1,71.288,0Z" transform="translate(69.417 117.42)" fill="#fff" stroke="#d1bfe6" stroke-width="1.025"/><g transform="translate(75.988 123.991)" clip-path="url(#u)"><g transform="translate(21.271 8.785)"><g transform="translate(0.02 47.116)"><path d="M233.819,252.414s13.129-1.957,20.089-2.539c6.7-.529,14.605-.846,23.041-.846s16.4.317,23.041.846c6.96.582,20.089,3.279,20.089,3.279v3.438c0,3.015-19.35,5.5-43.183,5.5s-43.077-2.486-43.077-5.5Z" transform="translate(-233.819 -249.029)" fill="#262223"/></g><g transform="translate(6.043 101.313)"><path d="M3394.382,1512.316c-3.72-.172-6.927-1.952-10.017-3.9,1.718-7.062,8.93-12.632,15.341-11.771-.4,1.263-1.946,11.771-1.946,11.771s-3.435,1.033-3.378,3.9" transform="translate(-3383.964 -1496.553)" fill="#f2eddc"/><path d="M3396.58,1523.554a7.539,7.539,0,0,1-2.383-4.679,22.574,22.574,0,0,1-9.9-4.306,12.6,12.6,0,0,0-.573,3.272c.008.041.019.08.028.12-.147,5.031,2.918,9.894,11.931,13.994.569.387,1.128.787,1.666,1.219C3397.575,1530.183,3396.981,1523.956,3396.58,1523.554Z" transform="translate(-3383.722 -1503.288)" fill="url(#v)"/><path d="M3395.844,1538.909a6.5,6.5,0,0,1-.513-7.147c1.432-3.1,4.121-3.881,6.867-2.273a12.909,12.909,0,0,1,3.321,3.047c.973,1.148,2,2.47,1.946,3.962a5.749,5.749,0,0,1-2.347,4.651c-.859.632-3.664,2.124-5.038,2.124a5.515,5.515,0,0,1-2.862-.632,3.8,3.8,0,0,1-1.6-1.55,2.036,2.036,0,0,1,.172-2.124c0-.058,0-.058.057-.058" transform="translate(-3387.772 -1508.561)" fill="url(#w)"/><path d="M3396.372,1539.9h0a.584.584,0,0,0,.458.287,4.162,4.162,0,0,0,1.66.4.652.652,0,0,0,.631-.671v-.019a.6.6,0,0,0-.287-.516c-.9-.515-3.737-2.09-4.286-5.063a7.019,7.019,0,0,1,.683-2.689c1.432-3.1,4.066-3.847,6.812-2.239a14.09,14.09,0,0,1,3.493,3.158c.972,1.148,2,2.469,1.946,3.962a5.749,5.749,0,0,1-2.347,4.651,13.516,13.516,0,0,1-5.038,2.124,5.4,5.4,0,0,1-2.862-.631,3.806,3.806,0,0,1-1.6-1.552,2.014,2.014,0,0,1-.057-1.723c.226.116.512.346.8.517" transform="translate(-3387.785 -1508.523)" fill="url(#x)"/></g><g transform="translate(21.025 127.611)"><path d="M3465.269,1603.463h-8.749l.135.907.6,4.315c-.01.123-.015.188-.015.188h.042l0,.036h3.847v-.035h.019v-2.181l2.858,2.179h9.66v-3.027Z" transform="translate(-3426.09 -1562.338)" fill="#0a0a0a"/><path d="M3424.185,1603.463h-9.07c-.027.392-.041.607-.041.607l-5.929,1.6v3.2h8.616l3.095-2.361v2.361h4.34s.406-1.872.876-4.8c.028-.185.061-.38.094-.572-.662-.014-1.322-.02-1.983-.036" transform="translate(-3408.289 -1562.338)" fill="#0a0a0a"/><path d="M3449.592,1579.288c.008-1.224.2-33.237-2.691-41.3l0-.07-.1,0c-1.994-.637-28.962,1.153-36.858,1.694l-2.162.1,0,.05h0l0,.018a271.884,271.884,0,0,0,5.712,39.549h.047l.007.05h11.9l0-.05h.8c.211-11.212.689-28.49.728-29.885,1.138,3.24,4.45,8.634,7.263,16.327,1.271,4.053,2.377,7.982,3.07,10.857q.264,1.321.486,2.7h0c.006.019.006.031.012.05l11.795-.05h0Z" transform="translate(-3407.773 -1537.783)" fill="#312d2e"/><path d="M3467.244,1538.055l-.006-.013v-.049l-.087.006h-.006l-1,.043h-4.232l.037.194,7.985,41.169S3470.19,1546.271,3467.244,1538.055Z" transform="translate(-3428.117 -1537.862)" fill="#262223"/><path d="M3435.391,1556.49c-.726,10.055-.728,29.885-.728,29.885h-4.595c-.051-.053-.108-23.592,5.323-29.885" transform="translate(-3416.147 -1544.777)" fill="#262223"/></g><g transform="translate(19.152 95.052)"><path d="M1509.9,309.711c20.668,1,28.946,6.506,28.946,6.506a45.314,45.314,0,0,1,1.582,9.625,1.054,1.054,0,0,0-.687.212c-.949.688-1.054,1.851-.9,3.543.318,2.3,1.687,11.741,1.74,14.227h-40.07l-.105-20.52s2.953-13.751,9.491-13.592" transform="translate(-1499.409 -309.71)" fill="#f2eddc"/><path d="M1538.7,333.643s-9.7-4.742-3.377-17.7c-1.054-.793-10.169,2.649-13.807,5.082-.316.952-7.709,6.7-7.709,6.7s-3.018-3.47-3.33-6.627l3.071-.875-5.905-6.558c-5.853,2.538-8.752,2.644-8.806,18.087,0,0,.053,10.42.9,13.486a132.315,132.315,0,0,0,16.872,1.323c10.967,0,23.3-1.323,23.3-1.323Z" transform="translate(-1498.819 -311.19)" fill="#edcf00"/><g transform="translate(0 4.867)"><g clip-path="url(#y)"><g transform="translate(-0.624 10.785)"><path d="M1522.669,334.707c-1.352,7.853.319,19.823.319,19.823" transform="translate(-1506.951 -334.707)" fill="none" stroke="#ad960c" stroke-miterlimit="10" stroke-width="1"/><g transform="translate(0 6.263)"><g transform="translate(0 5.16)"><path d="M3421.548,1534.7a115.988,115.988,0,0,1-17.663-1.262l.481-3.092a129.35,129.35,0,0,0,40.675-.837l.568,3.078A134.664,134.664,0,0,1,3421.548,1534.7Z" transform="translate(-3403.885 -1529.513)" fill="url(#z)"/></g><g transform="translate(0.281)"><path d="M3423.263,1527c-7.675,0-14.753-.51-18.928-1.394l.645-3.064c7.889,1.671,27.558,1.923,40.153-.272l.534,3.084A138.212,138.212,0,0,1,3423.263,1527Z" transform="translate(-3404.335 -1522.272)" fill="url(#aa)"/></g></g></g></g></g></g><g transform="translate(49.739 100.687)"><g transform="translate(1.251 4.214)"><path d="M3474.249,1501.265a7.953,7.953,0,0,0-2.012,1.227,17.554,17.554,0,0,0-4.333,5.68c3.791,3.264,5.149,8.246,5.083,12.232a5.883,5.883,0,0,1-.5,2.751,8.2,8.2,0,0,1-1.828,1.816c-1.36,1.06-2.9,2.029-4.536,3.056-.333.208-.662.42-.992.626,2.888,1.53,5.41,4.07,7.671,6.245,1.209-.778,2.424-1.594,3.6-2.51a16.124,16.124,0,0,0,4.163-4.486,14.87,14.87,0,0,0,1.79-7.344,25.091,25.091,0,0,0-8.1-19.293" transform="translate(-3460.595 -1501.265)" fill="#ff8f66"/><path d="M3484.362,1537.241c-1.186,2.022-3.04,3.1-4.356,4.126-1.227.956,1.482-1.948.221-1.14.334.223-3.326,4.23-2.98,4.445,1.241-.8,2.489-1.632,3.7-2.572a16.134,16.134,0,0,0,4.162-4.486,14.873,14.873,0,0,0,1.791-7.344,27.6,27.6,0,0,0-.122-3.047c.125,5.894-1.484,8.432-2.411,10.019" transform="translate(-3465.142 -1510.969)" fill="#fb7e51"/><path d="M3470.628,1540.648a6.053,6.053,0,0,1,4.311,2.113,7.08,7.08,0,0,1,1.411,2.525c.093.426-.336,2.2-2.518,3.425-4.348,2.441-8.378.326-8.89-.269-1.124-1.459-2.457-1.465-2.675-3.163-.125-1.378,4.9-5.252,8.361-4.63" transform="translate(-3459.521 -1515.964)" fill="#fb7e51"/><path d="M3477.04,1544c-.253-.376-.963-1.662-1.218-1.987-1.241-1.44-4-4.206-5.506-3.044-1.551,1.2-3.135,1.384-5.681,2.906-1.253.75.657,3.743,1.935,4.446,2.655,1.289,4.9,2.209,6.171,1.979a8.308,8.308,0,0,0,4.3-4.3" transform="translate(-3460.258 -1515.255)" fill="#ff8f66"/><path d="M3463.427,1545.678a10.074,10.074,0,0,0-5.059,5.722" transform="translate(-3458.056 -1517.869)" fill="none" stroke="#ff8f66" stroke-linecap="round" stroke-miterlimit="10" stroke-width="5"/><path d="M3465.532,1549.377a16.982,16.982,0,0,0-3.255,6.854" transform="translate(-3459.525 -1519.252)" fill="none" stroke="#ff8f66" stroke-linecap="round" stroke-miterlimit="10" stroke-width="5"/><path d="M3471.129,1550.127c-1.686,1.3-3.065,5.009-3.2,7.138" transform="translate(-3461.65 -1519.532)" fill="none" stroke="#ff8f66" stroke-linecap="round" stroke-miterlimit="10" stroke-width="5"/><path d="M3475.9,1552.191c-1.235,1-1.959,3.588-2.127,5.2" transform="translate(-3463.844 -1520.304)" fill="none" stroke="#ff8f66" stroke-linecap="round" stroke-miterlimit="10" stroke-width="5"/><path d="M3462.851,1548.324a9.19,9.19,0,0,0-3.688,4.545,1.739,1.739,0,0,1-1.293,1.049,1.533,1.533,0,0,0,1.8-1.045,11.308,11.308,0,0,1,3.186-4.549" transform="translate(-3457.869 -1518.858)" fill="#fb7e51"/><path d="M3463.206,1557.152a1.829,1.829,0,0,1-1.427,1.172,1.589,1.589,0,0,0,.312.035,1.561,1.561,0,0,0,1.522-1.223,15.426,15.426,0,0,1,2.91-6.17.923.923,0,0,0,.059-.086c-1.521.82-2.988,4.544-3.375,6.271" transform="translate(-3459.338 -1519.814)" fill="#fb7e51"/><path d="M3471.033,1553.44a10.42,10.42,0,0,0-2.107,5.147,1.829,1.829,0,0,1-1.476,1.435,1.68,1.68,0,0,0,.2.033c.034,0,.067,0,.1,0a1.562,1.562,0,0,0,1.557-1.467,12.277,12.277,0,0,1,1.819-5.112c.023-.22-.12.178-.093-.039" transform="translate(-3461.469 -1520.76)" fill="#fb7e51"/><path d="M3474.234,1557.634a1.563,1.563,0,0,1-1.55,1.4,1.612,1.612,0,0,1-.165-.009,1.539,1.539,0,0,1-.7-.264,1.553,1.553,0,0,0,1.061.585,1.4,1.4,0,0,0,.164.008,1.562,1.562,0,0,0,1.551-1.4c.179-1.7.815-3.714,1.561-4.143.526-.3.36-.11.381-.539a5.324,5.324,0,0,0-2.3,4.362" transform="translate(-3463.109 -1520.708)" fill="#fb7e51"/></g><path d="M3474.248,1501.265a7.951,7.951,0,0,0-2.012,1.227,17.554,17.554,0,0,0-4.333,5.68c3.791,3.264,5.149,8.246,5.083,12.232a5.886,5.886,0,0,1-.5,2.751,8.218,8.218,0,0,1-1.829,1.816c-1.36,1.06-2.9,2.029-4.536,3.056-.333.208-.662.42-.992.626,2.888,1.53,5.41,4.07,7.67,6.245,1.209-.778,2.425-1.594,3.6-2.51a16.117,16.117,0,0,0,4.163-4.486,14.868,14.868,0,0,0,1.791-7.344,25.09,25.09,0,0,0-8.1-19.293" transform="translate(-3459.344 -1497.051)" fill="url(#ab)"/><path d="M3473.287,1498.7c-1.5-.535-5.56,7.211-3.118,9.957,1.581,1.077,3.16,4.285,4.012,6.716.043-.023,6.369-1.335,8.874-3.213C3481.733,1505.086,3477.773,1500.295,3473.287,1498.7Z" transform="translate(-3460.953 -1496.081)" fill="#f2eddc"/><path d="M3466,1494.538c-1.585-.188-3.83,8.267-.843,10.4,1.78.7,4.028,3.477,5.4,5.658.038-.033,5.916-2.717,7.945-5.1C3475.649,1498.893,3470.73,1495.1,3466,1494.538Z" transform="translate(-3458.806 -1494.535)" fill="#f2eddc"/><path d="M3470.626,1540.648a6.052,6.052,0,0,1,4.312,2.113,7.082,7.082,0,0,1,1.41,2.525c.094.426-.336,2.2-2.517,3.425-4.348,2.441-8.378.326-8.89-.269-1.124-1.458-2.457-1.465-2.675-3.163-.125-1.378,4.895-5.252,8.36-4.63" transform="translate(-3458.27 -1511.75)" fill="#fb7e51"/><g transform="translate(0 30.457)"><path d="M3457.426,1552.031a1.564,1.564,0,0,1-1.473-2.083,11.58,11.58,0,0,1,5.845-6.61,1.565,1.565,0,0,1,1.376,2.811,8.466,8.466,0,0,0-4.275,4.834A1.56,1.56,0,0,1,3457.426,1552.031Z" transform="translate(-3455.865 -1543.177)" fill="url(#ac)"/></g><g transform="translate(2.441 31.949)"><path d="M3461.338,1556.37a1.542,1.542,0,0,1-.34-.038,1.566,1.566,0,0,1-1.186-1.868,18.288,18.288,0,0,1,3.556-7.487c.993-1.234,2.348-1.733,3.037-1.213,1.194.9.544,1.78-.592,3.158a14.837,14.837,0,0,0-2.955,6.221A1.563,1.563,0,0,1,3461.338,1556.37Z" transform="translate(-3459.776 -1545.561)" fill="url(#ad)"/></g><g transform="translate(5.971 33.243)"><path d="M3466.992,1557.9c-.032,0-.065,0-.1,0a1.563,1.563,0,0,1-1.461-1.659c.143-2.3,1.58-6.571,3.806-8.283a1.563,1.563,0,0,1,1.9,2.484c-1.2.923-2.476,4.16-2.591,5.993A1.563,1.563,0,0,1,3466.992,1557.9Z" transform="translate(-3465.43 -1547.626)" fill="url(#ae)"/></g><path d="M3477.031,1544.334c-.253-.376-.963-1.662-1.218-1.987-1.241-1.44-4.456-3.394-6.158-2.552-1.723.851-2.594,1.115-5.028,2.413-1.288.687.657,3.743,1.935,4.445,2.655,1.289,4.9,2.209,6.171,1.979a8.308,8.308,0,0,0,4.3-4.3" transform="translate(-3458.998 -1511.38)" fill="url(#af)"/><g transform="translate(9.616 34.535)"><path d="M3472.833,1558.018a1.514,1.514,0,0,1-.165-.009,1.563,1.563,0,0,1-1.389-1.72c.172-1.649.935-4.821,2.7-6.251a1.564,1.564,0,0,1,1.962,2.435c-.665.539-1.378,2.436-1.557,4.143A1.563,1.563,0,0,1,3472.833,1558.018Z" transform="translate(-3471.27 -1549.69)" fill="url(#ag)"/></g></g><g transform="translate(5.419 19.914)"><g transform="translate(0 0.001)"><g transform="translate(0.205 0)"><path d="M3392.868,1452.951l-1.744-12.018-.08-.157-.2-1.778-.227-1.565h.05q-.19-1.7-.382-3.393c-.034-.3-.067-.6-.1-.9a13.468,13.468,0,0,1,.668-5.424,11.109,11.109,0,0,0,1.073,1.7c.016.021.033.041.049.061.121.155.246.307.377.457l.089.1c.123.136.25.271.383.4.04.039.081.077.122.116.128.123.261.244.4.361.049.042.1.083.15.123.135.111.274.22.419.325.055.041.111.08.168.12,2.324,2.115,25.235,2.967,33.908,3.9,5.16.556,14.532.118,14.985.649.294.344.323,9.126.438,9.564,1.9,7.231,1.44,8.434-.666,15.605l0,.011.007.712c-7.1,6.788-15.737,13.276-26.549,13.122-5.746.111-10.449-.952-14.058-3.189a19.987,19.987,0,0,1-7.913-10.868,27.665,27.665,0,0,1-.609-2.85Z" transform="translate(-3385.512 -1388.3)" fill="#ff8f66"/><path d="M48.706,48.57c0-8.127-4.039-11.673-15.474-11.673-8.491,0-30.8-.148-32.707.3,0,0-1-15.432-.244-21.777C.3,15.388,14.141,5.711,14.155,5.682c-.093-.05,12.123-2.9,16.267-2.2L49.346.024C65.508-.688,69.2,14.3,68.831,19.672L66.877,32.984a10.613,10.613,0,0,1-5.451,19.741h-.013a10.476,10.476,0,0,1-2.633-.336A69.337,69.337,0,0,1,52.4,60.142l-3.366,3.065C49.037,56.54,48.706,56.048,48.706,48.57Z" transform="translate(4.806 13.502)" stroke="rgba(0,0,0,0)" stroke-miterlimit="10" stroke-width="1" fill="url(#ah)"/><path d="M3389.876,1408.859a34.11,34.11,0,0,0-1.058,4.128A34.151,34.151,0,0,1,3389.876,1408.859Z" transform="translate(-3385.013 -1381.25)" fill="#2b154d"/><path d="M3388.194,1422.506a22.871,22.871,0,0,1,.337-7.055,22.871,22.871,0,0,0-.337,7.055Z" transform="translate(-3384.726 -1383.714)" fill="#2b154d"/><path d="M3443.389,1368.986c-.506.006-1.012.014-1.531.039C3442.377,1369,3442.883,1368.994,3443.389,1368.986Z" transform="translate(-3404.944 -1366.343)" fill="#2b154d"/><path d="M3408.179,1422.436c-.06-.078-.119-.156-.176-.235q.1.117.2.232Z" transform="translate(-3392.222 -1386.238)" fill="#2b154d"/><path d="M3382.723,1446.761a10.565,10.565,0,0,1,4.3-8.616c.155-.115.312-.226.473-.332q.191,1.7.383,3.393h-.051l.227,1.565.2,1.778.08.157,1.744,12.018A10.6,10.6,0,0,1,3382.723,1446.761Z" transform="translate(-3382.722 -1392.074)" fill="url(#ai)"/><path d="M3396.9,1426.87l.2.119c.154.09.314.176.478.259.072.037.145.074.218.109.167.079.34.155.516.227.078.033.155.065.236.1.181.069.37.132.561.193.083.026.163.054.247.078.2.058.409.109.62.158.082.019.163.04.247.058.225.046.46.085.7.12.078.012.153.026.232.036.264.034.539.058.817.078.059,0,.114.011.173.014q.512.029,1.056.023h0a18.422,18.422,0,0,0,2.3-.179c-5.558-3.655-5.331-9.8-4.493-13.657a9.49,9.49,0,0,0,.366,1.133,10.959,10.959,0,0,0,.521,1.093c.168,4.024,1.435,9.04,7,12.448-6.288.9-10.13-.589-12.455-2.7l.008,0Q3396.671,1426.728,3396.9,1426.87Z" transform="translate(-3387.879 -1383.397)" fill="url(#aj)"/><path d="M3390.873,1426.888h0a11.344,11.344,0,0,0,1.323,2.215,11.087,11.087,0,0,1-1.073-1.7C3391.035,1427.234,3390.951,1427.061,3390.873,1426.888Z" transform="translate(-3385.785 -1387.99)" fill="#2b154d"/><path d="M3395.507,1433.011q.2.167.419.325Q3395.71,1433.178,3395.507,1433.011Z" transform="translate(-3387.526 -1390.279)" fill="#2b154d"/><path d="M3394.629,1432.237c.129.123.261.244.4.361C3394.89,1432.481,3394.758,1432.36,3394.629,1432.237Z" transform="translate(-3387.196 -1389.99)" fill="#2b154d"/><path d="M3393.073,1430.524c.121.155.246.307.378.457C3393.319,1430.831,3393.194,1430.679,3393.073,1430.524Z" transform="translate(-3386.611 -1389.35)" fill="#2b154d"/><path d="M3393.821,1431.409c.123.136.25.271.383.4C3394.071,1431.68,3393.944,1431.546,3393.821,1431.409Z" transform="translate(-3386.893 -1389.681)" fill="#2b154d"/><path d="M3403.191,1436.386c-.237-.035-.471-.073-.7-.12C3402.72,1436.312,3402.954,1436.35,3403.191,1436.386Z" transform="translate(-3390.152 -1391.496)" fill="#2b154d"/><path d="M3405.57,1436.662q.512.029,1.056.023Q3406.081,1436.692,3405.57,1436.662Z" transform="translate(-3391.307 -1391.644)" fill="#2b154d"/><path d="M3404.8,1436.593c-.278-.019-.553-.043-.817-.078C3404.247,1436.549,3404.522,1436.573,3404.8,1436.593Z" transform="translate(-3390.711 -1391.589)" fill="#2b154d"/><path d="M3397.493,1434.385c.154.09.314.176.478.259C3397.807,1434.561,3397.647,1434.475,3397.493,1434.385Z" transform="translate(-3388.272 -1390.793)" fill="#2b154d"/><path d="M3396.46,1433.729q.216.15.446.292Q3396.676,1433.879,3396.46,1433.729Z" transform="translate(-3387.884 -1390.548)" fill="#2b154d"/><path d="M3398.608,1434.973c.167.08.34.155.516.227C3398.948,1435.128,3398.775,1435.053,3398.608,1434.973Z" transform="translate(-3388.691 -1391.013)" fill="#2b154d"/><path d="M3400.374,1435.681c-.191-.061-.379-.124-.561-.193C3399.994,1435.557,3400.182,1435.62,3400.374,1435.681Z" transform="translate(-3389.144 -1391.205)" fill="#2b154d"/><path d="M3401.727,1436.079c-.211-.049-.419-.1-.62-.158C3401.307,1435.979,3401.516,1436.031,3401.727,1436.079Z" transform="translate(-3389.631 -1391.367)" fill="#2b154d"/><path d="M3411.863,1427.286a13.406,13.406,0,0,0,9.134,5.155,29.016,29.016,0,0,0,3.669.064,40.861,40.861,0,0,1,7.875.416,16.813,16.813,0,0,1,7.255,2.945c-.834-3.074-3.5-5.379-6.433-6.6a15.819,15.819,0,0,0-7.141-1.166c-2.605.183-5.358.989-7.732-.1" transform="translate(-3393.672 -1388.139)" fill="url(#ak)"/><path d="M64.357,47h0a10.482,10.482,0,0,0-6.082-1.985H58.2a10.459,10.459,0,0,0-4.4.958,6.506,6.506,0,0,0-6.307-3.645,10.363,10.363,0,0,0-2.414.279c-.1-.1-10.4-10.2-12.063-10.653a19.153,19.153,0,0,0-5.123-.586h-.036a27.935,27.935,0,0,0-5.036.431c-.4.074-.806.159-1.2.242a22.905,22.905,0,0,1-2.472.428c-.428.042-.883.062-1.389.062-.585,0-1.172-.028-1.669-.055a16.959,16.959,0,0,1-6.256-1.241,12.688,12.688,0,0,1-3.617-2.875,14.586,14.586,0,0,0-3.145-2.648,13.835,13.835,0,0,0-1.352-.655C.221,24.4-.531,24.075.427,21.337c1.047-3,3.585-6.321,7.542-9.879A34.2,34.2,0,0,1,30.759,2.7a33.558,33.558,0,0,1,3.362.169,1.261,1.261,0,0,0,.128.006,2.891,2.891,0,0,0,.378-.033c.076-.01.154-.02.231-.027-.546-.052-1.1-.094-1.658-.125.192.007.353.014.512.025a3.646,3.646,0,0,1,1.506-1.357A9.31,9.31,0,0,1,38.344.627l2.7-.314L41.157.3,43.744,0a4.766,4.766,0,0,1-3.906,2.822c.4.033.81.05,1.225.05a15.009,15.009,0,0,0,3.926-.522A6.509,6.509,0,0,1,43.636,4.78a33,33,0,0,1,9.145,5.111,34.977,34.977,0,0,1,6.583,6.873,35.927,35.927,0,0,1,4.17,7.43,28.161,28.161,0,0,1,1.906,6.78,28.461,28.461,0,0,1-.2,6.76l-.04.364a73.837,73.837,0,0,1-.84,8.9Z" transform="translate(8.112)" stroke="rgba(0,0,0,0)" stroke-miterlimit="10" stroke-width="1" fill="url(#al)"/></g><path d="M3488.908,1449.518a2.656,2.656,0,0,0,.214-4.921,4.256,4.256,0,0,0-3.323-.073c-2.31.923-2.927,2.463-2.9,5.107a6.374,6.374,0,0,0,1.571,4.162l0-.423c-.068-1.693,2.343-3.092,4.443-3.853" transform="translate(-3420.159 -1394.471)" fill="#ff8f66"/><path d="M3427.249,1483.217a5.6,5.6,0,0,1-5.589-5.606h11.23a5.578,5.578,0,0,1-5.551,5.606h-.091" transform="translate(-3397.148 -1406.953)" fill="#fff"/><path d="M3454.14,1398.634l-31.364-4.649-8.092-.327-32.144-2.169-.147,17.19c0,8.567,7.065,13.909,15.606,13.909h31.664v-6.344a14.426,14.426,0,0,0,1.766,2.159c2.658,2.682,10.919,4.185,10.919,4.185,1.884-2.622,6.857-3.886,10.07-3.637l-1.455-.966C3452.589,1417.985,3454.14,1398.634,3454.14,1398.634Z" transform="translate(-3382.393 -1374.756)" fill="url(#am)"/></g></g><g transform="translate(21.824 71.618)"><path d="M316.082,295.709a4.278,4.278,0,0,1,4.309,4.283h0v3.331a4.31,4.31,0,0,1-8.619,0v-3.331A4.312,4.312,0,0,1,316.082,295.709Z" transform="translate(-292.301 -295.709)" fill="#2e3033"/><path d="M279.482,295.709a4.278,4.278,0,0,1,4.309,4.283h0v3.331a4.309,4.309,0,0,1-8.619,0h0v-3.331A4.347,4.347,0,0,1,279.482,295.709Z" transform="translate(-275.173 -295.709)" fill="#262223"/></g><path d="M320.131,252.414s-13.129-1.957-20.089-2.539c-6.7-.529-14.605-.846-23.041-.846s-16.4.317-23.041.846c-7.013.582-20.141,3.279-20.141,3.279v3.438c0,3.015,19.35,5.5,43.183,5.5s43.183-2.486,43.183-5.5Z" transform="translate(-233.799 -201.913)" fill="none"/><g transform="translate(0 44.423)"><path d="M277,243.938c-23.832,0-43.183,2.486-43.183,5.5v.106a3.121,3.121,0,0,0,3.111,3.12,4.6,4.6,0,0,0,.844-.106h.053a100.4,100.4,0,0,1,16.081-2.327c6.7-.529,14.605-.846,23.041-.846s16.4.317,23.041.846a100.4,100.4,0,0,1,16.081,2.327l.158.053a3.119,3.119,0,0,0,3.8-2.221,4.094,4.094,0,0,0,.105-.793v-.106C320.131,246.424,300.834,243.938,277,243.938Z" transform="translate(-233.799 -243.938)" fill="#fff100"/><path d="M320.114,253.669v-4.231c0-2.909-18.032-5.342-40.757-5.5h-2.478c-23.727,0-43.077,2.486-43.077,5.5v4.231a.92.92,0,0,0,.158.74c.053-.053.158-.106.211-.159a9.358,9.358,0,0,1,3.691-1.639c1.9-.476,3.8-.846,5.694-1.164a6.636,6.636,0,0,1,6.327,2.539h0a9.18,9.18,0,0,0,7.382,3.649h23.252a13.793,13.793,0,0,0,8.542-2.909l3.322-2.539a7.69,7.69,0,0,1,4.64-1.587c4.534.053,7.645.053,8.12.106a75.876,75.876,0,0,1,10.914,1.851,9.593,9.593,0,0,1,3.9,1.8A.764.764,0,0,0,320.114,253.669Z" transform="translate(-233.781 -243.938)" fill="#fff100"/></g><g transform="translate(3.633)"><path d="M340.871,169.429a39.627,39.627,0,0,1,26.258,37.391v5.606c-3.585-1.058-9.6-1.9-17.136-2.486.053-1.058.053-2.168.053-3.279C350.1,191.959,346.513,178.631,340.871,169.429Z" transform="translate(-288.04 -164.411)" fill="url(#q)"/><path d="M240.671,217.656a39.609,39.609,0,0,1,9.016-25.227,82.635,82.635,0,0,0-3.744,25.121c0,1.534.053,3.067.105,4.6a36.791,36.791,0,0,0-5.325,1.164Z" transform="translate(-240.671 -175.247)" fill="url(#q)"/><path d="M254.413,179.544a39.491,39.491,0,0,1,43.815-12.164c5.642,9.255,9.227,22.53,9.227,37.285,0,1.111,0,2.168-.053,3.279-5.905-.476-12.707-.74-19.983-.793h-2.425c-13.92,0-26.258.846-34.166,2.115q-.158-2.3-.158-4.6A82.634,82.634,0,0,1,254.413,179.544Z" transform="translate(-245.397 -162.362)" fill="#fff100"/><g transform="translate(23.643)"><path d="M285.513,179.715l2.531-15.707a2.956,2.956,0,0,1,2.109-2.433,39.692,39.692,0,0,1,22.356-.053,2.956,2.956,0,0,1,2.109,2.433l2.531,15.76" transform="translate(-285.513 -159.941)" fill="#fff100"/></g><g transform="translate(24.411 13.69)"><path d="M304.271,233.031v-7.3l9.122-5.606Z" transform="translate(-295.148 -201.987)" fill="#f9c838"/><path d="M286.971,220.127l9.122,5.606v7.3Z" transform="translate(-286.97 -201.987)" fill="#f9c838"/><path d="M0,18.138l9.122,5.608v7.3Zm0-3.385L9.122,0V20.1Z" transform="translate(0 0.001)" fill="#0a0a0a" stroke="rgba(0,0,0,0)" stroke-miterlimit="10" stroke-width="1"/><path d="M.051,23.748,9.173,18.14.051,31.046Zm0-14.39V0L9.173,14.756l-.054-.029v.029L0,20.046Z" transform="translate(9.072 0)" fill="#4b4d4d" stroke="rgba(0,0,0,0)" stroke-miterlimit="10" stroke-width="1"/><path d="M296.093,217.531l-9.122-5.342h0Z" transform="translate(-286.97 -197.433)" fill="#312d2e"/></g></g></g></g><g transform="matrix(1, 0, 0, 1, -17.46, 0)" filter="url(#ap)"><path d="M772.065,11967.678H717.43a8.077,8.077,0,0,1-8.076-8.079v-23.575a8.076,8.076,0,0,1,8.076-8.076h72.756a8.078,8.078,0,0,1,8.079,8.076v23.575a8.079,8.079,0,0,1-8.079,8.079h-5.415v12.706Z" transform="translate(-691.89 -11765.45)" fill="#fff"/></g><path d="M772.065,11967.678H717.43a8.077,8.077,0,0,1-8.076-8.079v-23.575a8.076,8.076,0,0,1,8.076-8.076h72.756a8.078,8.078,0,0,1,8.079,8.076v23.575a8.079,8.079,0,0,1-8.079,8.079h-5.415v12.706Z" transform="translate(-709.353 -11765.451)" fill="rgba(242,242,242,0.4)"/><path d="M7.961,0H6.68V-4.929H2.307V0H1.033V-10.664H2.307v4.585H6.68v-4.585H7.961Zm5.815.146a4.021,4.021,0,0,1-1.534-.286,3.482,3.482,0,0,1-1.2-.8,3.652,3.652,0,0,1-.776-1.216A4.122,4.122,0,0,1,9.99-3.684v-.308A4.534,4.534,0,0,1,10.3-5.709a3.938,3.938,0,0,1,.817-1.282,3.563,3.563,0,0,1,1.157-.8A3.338,3.338,0,0,1,13.6-8.071a3.534,3.534,0,0,1,1.5.3,2.94,2.94,0,0,1,1.066.82A3.5,3.5,0,0,1,16.8-5.72a5.435,5.435,0,0,1,.209,1.538v.608H11.345a3.113,3.113,0,0,0,.209,1.018,2.644,2.644,0,0,0,.513.831,2.369,2.369,0,0,0,.78.56,2.41,2.41,0,0,0,1,.205,2.756,2.756,0,0,0,1.289-.293,2.8,2.8,0,0,0,.938-.776l.828.645a3.144,3.144,0,0,1-.494.575,3.413,3.413,0,0,1-.685.487,3.853,3.853,0,0,1-.879.341A4.224,4.224,0,0,1,13.777.146Zm-.176-7.1a2.027,2.027,0,0,0-.776.15,2.026,2.026,0,0,0-.659.439,2.506,2.506,0,0,0-.494.71,3.376,3.376,0,0,0-.282.97h4.263v-.1a3.025,3.025,0,0,0-.15-.784,2.183,2.183,0,0,0-.377-.7,1.887,1.887,0,0,0-.626-.5A1.969,1.969,0,0,0,13.6-6.958Zm6.592-.967h4V.051A4.006,4.006,0,0,1,23.983,1.4a2.606,2.606,0,0,1-.608.985,2.62,2.62,0,0,1-.974.608,3.815,3.815,0,0,1-1.307.209q-.417,0-.78-.026a7.08,7.08,0,0,1-.765-.1l.1-1.113q.125.022.315.04t.385.029q.194.011.374.015l.282,0a2.537,2.537,0,0,0,.718-.1,1.429,1.429,0,0,0,.586-.333A1.6,1.6,0,0,0,22.694,1a2.742,2.742,0,0,0,.143-.948v-6.8H20.193Zm2.454-2.087a.832.832,0,0,1,.2-.56.757.757,0,0,1,.608-.231.781.781,0,0,1,.615.231.814.814,0,0,1,.205.56.787.787,0,0,1-.205.553.8.8,0,0,1-.615.223.771.771,0,0,1-.608-.223A.8.8,0,0,1,22.646-10.012ZM32.058-3.45H30.7v-7.214h1.362ZM30.564-.71a.849.849,0,0,1,.209-.586.8.8,0,0,1,.626-.234.819.819,0,0,1,.634.234.831.831,0,0,1,.216.586.786.786,0,0,1-.216.564A.834.834,0,0,1,31.4.081a.809.809,0,0,1-.626-.227A.8.8,0,0,1,30.564-.71Z" transform="translate(26.661 186.048)" fill="#6e6f70"/><circle cx="49.74" cy="49.74" r="49.74" transform="translate(391.905 265.886)" fill="#fff" stroke="#d1bfe6" stroke-width="1.025"/><g transform="translate(396.484 270.465)" clip-path="url(#ar)"><g transform="translate(13.668 2.988)"><path d="M361.608,271.139s10.069-1.494,15.4-1.919c5.114-.413,11.175-.656,17.673-.656s12.559.243,17.673.656c5.32.425,15.341,2.49,15.341,2.49v2.429c0,2.32-14.758,4.385-33.026,4.385s-33.063-1.883-33.063-4.191Z" transform="translate(-361.539 -232.598)" fill="#363233"/><g transform="translate(3.871 27.342)"><path d="M368.5,308.689h42.658a9.9,9.9,0,0,0,9.9-9.9v-26.9H368.5Z" transform="translate(-364.137 -259.326)" fill="url(#as)"/><g transform="translate(3.001 43.666)"><g transform="translate(0 4.776)"><path d="M3392.049,1508.578c-2.854-.131-5.314-1.49-7.684-2.979,1.317-5.388,6.85-9.636,11.767-8.979-.306.963-1.493,8.979-1.493,8.979s-2.634.788-2.591,2.979" transform="translate(-3384.057 -1496.553)" fill="#f2eddc"/><path d="M3393.585,1521.423a5.74,5.74,0,0,1-1.828-3.57,17.364,17.364,0,0,1-7.6-3.285,9.587,9.587,0,0,0-.439,2.5c.006.031.014.061.022.092-.114,3.838,2.238,7.548,9.152,10.676.436.3.865.6,1.278.929C3394.348,1526.48,3393.892,1521.73,3393.585,1521.423Z" transform="translate(-3383.722 -1505.963)" fill="url(#v)"/><path d="M3395.531,1536.482a4.937,4.937,0,0,1-.394-5.452c1.1-2.365,3.161-2.961,5.267-1.734a9.884,9.884,0,0,1,2.547,2.324,4.743,4.743,0,0,1,1.493,3.022,4.378,4.378,0,0,1-1.8,3.548,9.91,9.91,0,0,1-3.865,1.621,4.247,4.247,0,0,1-2.2-.482,2.905,2.905,0,0,1-1.23-1.183,1.547,1.547,0,0,1,.132-1.621c0-.044,0-.044.044-.044" transform="translate(-3389.34 -1513.331)" fill="url(#w)"/><path d="M3395.943,1537.217h0a.448.448,0,0,0,.352.219,3.207,3.207,0,0,0,1.273.307.5.5,0,0,0,.483-.512v-.014a.46.46,0,0,0-.22-.394c-.693-.393-2.867-1.594-3.288-3.862a5.336,5.336,0,0,1,.524-2.051c1.1-2.365,3.12-2.935,5.226-1.708a10.784,10.784,0,0,1,2.679,2.409,4.748,4.748,0,0,1,1.493,3.023,4.377,4.377,0,0,1-1.8,3.548,10.386,10.386,0,0,1-3.864,1.62,4.159,4.159,0,0,1-2.2-.481,2.913,2.913,0,0,1-1.229-1.184,1.531,1.531,0,0,1-.044-1.314c.173.089.393.264.613.395" transform="translate(-3389.356 -1513.278)" fill="url(#x)"/></g><g transform="translate(11.492 24.838)"><path d="M3463.231,1603.463h-6.71l.1.692.463,3.292c-.007.094-.012.143-.012.143h.033l0,.028h2.951v-.026h.014v-1.663l2.192,1.662h7.41v-2.309Z" transform="translate(-3433.179 -1572.09)" fill="#0a0a0a"/><path d="M3420.682,1603.463h-6.957c-.02.3-.031.463-.031.463l-4.548,1.219v2.445h6.609l2.374-1.8v1.8h3.329s.312-1.427.672-3.664c.022-.141.047-.29.073-.436-.508-.011-1.014-.015-1.521-.027" transform="translate(-3408.489 -1572.09)" fill="#0a0a0a"/><path d="M3439.851,1569.446c.006-.934.152-25.355-2.064-31.51l0-.053-.08,0c-1.529-.486-22.216.88-28.273,1.293l-1.658.076,0,.038h0l0,.014a206.345,206.345,0,0,0,4.381,30.17h.036l0,.038h9.126l0-.038h.615c.162-8.553.529-21.734.559-22.8.873,2.471,3.414,6.586,5.571,12.455.975,3.092,1.823,6.089,2.355,8.282q.2,1.008.373,2.061h0c0,.014,0,.024.009.038l9.048-.038h0Z" transform="translate(-3407.773 -1537.783)" fill="#312d2e"/><path d="M3466,1538.04l0-.01v-.038l-.067,0h0l-.766.033h-3.246l.029.148,6.125,31.406S3468.263,1544.307,3466,1538.04Z" transform="translate(-3435.99 -1537.893)" fill="#262223"/><path d="M3434.149,1556.49c-.558,7.67-.559,22.8-.559,22.8h-3.524c-.039-.041-.083-18,4.083-22.8" transform="translate(-3419.388 -1547.554)" fill="#262223"/></g><g transform="translate(10.055 0)"><path d="M1507.688,309.711c15.854.765,22.2,4.963,22.2,4.963a34.415,34.415,0,0,1,1.213,7.343.811.811,0,0,0-.527.162c-.728.525-.809,1.412-.688,2.7.244,1.754,1.294,8.957,1.334,10.853h-30.736l-.081-15.654s2.265-10.491,7.28-10.369" transform="translate(-1499.641 -309.71)" fill="#f2eddc"/><path d="M1529.417,328.906s-7.444-3.618-2.59-13.5c-.808-.6-7.8,2.021-10.591,3.877-.243.727-5.913,5.115-5.913,5.115s-2.315-2.647-2.554-5.055l2.355-.668-4.53-5c-4.49,1.936-6.714,2.017-6.755,13.8,0,0,.041,7.949.688,10.288a102.031,102.031,0,0,0,12.942,1.009c8.412,0,17.876-1.009,17.876-1.009Z" transform="translate(-1498.824 -311.778)" fill="#edcf00"/><g transform="translate(0 3.713)"><g clip-path="url(#aw)"><g transform="translate(-0.479 8.227)"><path d="M1522.546,334.707c-1.037,5.991.245,15.122.245,15.122" transform="translate(-1510.49 -334.707)" fill="none" stroke="#ad960c" stroke-miterlimit="10" stroke-width="1"/><g transform="translate(0 4.778)"><g transform="translate(0 3.936)"><path d="M3417.434,1533.473a89.422,89.422,0,0,1-13.549-.963l.369-2.359a99.749,99.749,0,0,0,31.2-.638l.436,2.348A103.856,103.856,0,0,1,3417.434,1533.473Z" transform="translate(-3403.885 -1529.513)" fill="url(#z)"/></g><g transform="translate(0.215)"><path d="M3418.854,1525.88a79.968,79.968,0,0,1-14.519-1.064l.495-2.337c6.052,1.275,21.139,1.467,30.8-.207l.41,2.353A106.624,106.624,0,0,1,3418.854,1525.88Z" transform="translate(-3404.335 -1522.272)" fill="url(#aa)"/></g></g></g></g></g></g><g transform="translate(33.518 4.3)"><g transform="translate(0.96 3.215)"><path d="M3472.124,1501.265a6.108,6.108,0,0,0-1.543.936,13.393,13.393,0,0,0-3.324,4.334,12.116,12.116,0,0,1,3.9,9.331,4.473,4.473,0,0,1-.387,2.1,6.289,6.289,0,0,1-1.4,1.385c-1.043.809-2.227,1.548-3.479,2.331-.255.159-.508.32-.761.478a28.02,28.02,0,0,1,5.885,4.763c.927-.593,1.859-1.216,2.761-1.914a12.336,12.336,0,0,0,3.193-3.422,11.3,11.3,0,0,0,1.374-5.6,19.093,19.093,0,0,0-6.214-14.718" transform="translate(-3461.651 -1501.265)" fill="#ff8f66"/><path d="M3482.7,1534.865a11.338,11.338,0,0,1-3.341,3.147c-.941.729,1.137-1.486.169-.87.256.17-2.552,3.226-2.286,3.391.951-.607,1.909-1.245,2.835-1.962a12.338,12.338,0,0,0,3.193-3.422,11.3,11.3,0,0,0,1.373-5.6,21.111,21.111,0,0,0-.093-2.325c.1,4.5-1.138,6.433-1.85,7.643" transform="translate(-3467.956 -1514.823)" fill="#fb7e51"/><path d="M3468.679,1540.632a4.653,4.653,0,0,1,3.307,1.612,5.387,5.387,0,0,1,1.082,1.926,3.208,3.208,0,0,1-1.931,2.613,6.353,6.353,0,0,1-6.819-.205c-.862-1.113-1.885-1.118-2.052-2.413-.1-1.051,3.755-4.006,6.414-3.532" transform="translate(-3460.159 -1521.801)" fill="#fb7e51"/><path d="M3474.055,1542.736c-.194-.286-.739-1.267-.934-1.516-.952-1.1-3.069-3.208-4.223-2.323-1.189.913-2.4,1.056-4.357,2.217-.961.572.5,2.856,1.485,3.392,2.036.983,3.758,1.685,4.733,1.51a6.353,6.353,0,0,0,3.3-3.28" transform="translate(-3461.182 -1520.812)" fill="#ff8f66"/><path d="M3462.249,1545.678a7.7,7.7,0,0,0-3.881,4.365" transform="translate(-3458.129 -1524.464)" fill="none" stroke="#ff8f66" stroke-linecap="round" stroke-miterlimit="10" stroke-width="5"/><path d="M3464.774,1549.377a12.918,12.918,0,0,0-2.5,5.229" transform="translate(-3460.167 -1526.396)" fill="none" stroke="#ff8f66" stroke-linecap="round" stroke-miterlimit="10" stroke-width="5"/><path d="M3470.384,1550.127c-1.293.989-2.352,3.821-2.453,5.445" transform="translate(-3463.113 -1526.787)" fill="none" stroke="#ff8f66" stroke-linecap="round" stroke-miterlimit="10" stroke-width="5"/><path d="M3475.4,1552.191c-.948.764-1.5,2.737-1.632,3.965" transform="translate(-3466.156 -1527.865)" fill="none" stroke="#ff8f66" stroke-linecap="round" stroke-miterlimit="10" stroke-width="5"/><path d="M3461.69,1548.324a7.018,7.018,0,0,0-2.829,3.467,1.332,1.332,0,0,1-.992.8,1.176,1.176,0,0,0,1.377-.8,8.629,8.629,0,0,1,2.444-3.47" transform="translate(-3457.869 -1525.846)" fill="#fb7e51"/><path d="M3462.874,1555.665a1.4,1.4,0,0,1-1.1.894,1.218,1.218,0,0,0,.24.027,1.2,1.2,0,0,0,1.167-.933,11.75,11.75,0,0,1,2.232-4.707.542.542,0,0,0,.045-.065c-1.167.626-2.291,3.466-2.589,4.784" transform="translate(-3459.906 -1527.181)" fill="#fb7e51"/><path d="M3470.2,1553.433a7.929,7.929,0,0,0-1.616,3.927,1.4,1.4,0,0,1-1.132,1.094,1.242,1.242,0,0,0,.154.025l.076,0a1.2,1.2,0,0,0,1.194-1.119,9.325,9.325,0,0,1,1.4-3.9c.018-.168-.092.135-.072-.03" transform="translate(-3462.863 -1528.503)" fill="#fb7e51"/><path d="M3473.67,1556.6a1.2,1.2,0,0,1-1.189,1.07,1.177,1.177,0,0,1-.667-.208,1.193,1.193,0,0,0,.814.446,1.075,1.075,0,0,0,.125.006,1.2,1.2,0,0,0,1.19-1.069c.137-1.3.625-2.833,1.2-3.161.4-.232.276-.083.292-.411a4.054,4.054,0,0,0-1.763,3.328" transform="translate(-3465.137 -1528.43)" fill="#fb7e51"/></g><path d="M3472.123,1501.265a6.108,6.108,0,0,0-1.543.936,13.4,13.4,0,0,0-3.324,4.334,12.114,12.114,0,0,1,3.9,9.331,4.467,4.467,0,0,1-.388,2.1,6.292,6.292,0,0,1-1.4,1.385c-1.044.809-2.228,1.548-3.48,2.331-.255.159-.508.32-.761.478a28,28,0,0,1,5.884,4.763c.928-.593,1.86-1.216,2.761-1.914a12.335,12.335,0,0,0,3.193-3.422,11.294,11.294,0,0,0,1.373-5.6,19.093,19.093,0,0,0-6.213-14.718" transform="translate(-3460.691 -1498.05)" fill="url(#ab)"/><path d="M3472.382,1498.69c-1.153-.408-4.264,5.5-2.391,7.6,1.213.822,2.424,3.269,3.078,5.123.033-.018,4.885-1.019,6.806-2.451C3478.862,1503.565,3475.824,1499.91,3472.382,1498.69Z" transform="translate(-3462.922 -1496.695)" fill="#f2eddc"/><path d="M3465.465,1494.538c-1.216-.144-2.938,6.307-.646,7.935,1.365.533,3.089,2.653,4.139,4.316.029-.025,4.538-2.073,6.094-3.894C3472.865,1497.86,3469.091,1494.966,3465.465,1494.538Z" transform="translate(-3459.945 -1494.535)" fill="#f2eddc"/><path d="M3468.678,1540.632a4.653,4.653,0,0,1,3.308,1.612,5.386,5.386,0,0,1,1.081,1.926,3.207,3.207,0,0,1-1.93,2.613,6.352,6.352,0,0,1-6.819-.206c-.861-1.112-1.885-1.117-2.052-2.413-.1-1.051,3.755-4.006,6.413-3.532" transform="translate(-3459.2 -1518.587)" fill="#fb7e51"/><g transform="translate(0 23.235)"><path d="M3457.063,1549.932a1.206,1.206,0,0,1-.4-.068,1.194,1.194,0,0,1-.734-1.522,8.847,8.847,0,0,1,4.483-5.043,1.2,1.2,0,1,1,1.056,2.144,6.469,6.469,0,0,0-3.279,3.688A1.2,1.2,0,0,1,3457.063,1549.932Z" transform="translate(-3455.865 -1543.177)" fill="url(#ac)"/></g><g transform="translate(1.873 24.373)"><path d="M3460.975,1553.807a1.2,1.2,0,0,1-1.17-1.453,13.923,13.923,0,0,1,2.727-5.712c.762-.941,1.8-1.322,2.33-.926.916.686.417,1.358-.454,2.409a11.3,11.3,0,0,0-2.266,4.745A1.2,1.2,0,0,1,3460.975,1553.807Z" transform="translate(-3459.776 -1545.561)" fill="url(#ad)"/></g><g transform="translate(4.58 25.36)"><path d="M3466.628,1555.46l-.075,0a1.2,1.2,0,0,1-1.121-1.266c.109-1.754,1.212-5.013,2.919-6.319a1.2,1.2,0,1,1,1.457,1.895c-.92.7-1.9,3.173-1.987,4.572A1.2,1.2,0,0,1,3466.628,1555.46Z" transform="translate(-3465.43 -1547.626)" fill="url(#ae)"/></g><path d="M3474.043,1543.209c-.194-.287-.739-1.268-.934-1.516-.952-1.1-3.418-2.589-4.723-1.947-1.322.649-1.99.851-3.857,1.841-.988.524.5,2.856,1.484,3.391,2.037.983,3.758,1.685,4.734,1.51a6.354,6.354,0,0,0,3.3-3.28" transform="translate(-3460.211 -1518.07)" fill="url(#af)"/><g transform="translate(7.376 26.345)"><path d="M3472.469,1556.043a1.133,1.133,0,0,1-.127-.007,1.2,1.2,0,0,1-1.066-1.312c.133-1.257.717-3.677,2.07-4.769a1.2,1.2,0,1,1,1.505,1.858,5.723,5.723,0,0,0-1.194,3.161A1.2,1.2,0,0,1,3472.469,1556.043Z" transform="translate(-3471.27 -1549.69)" fill="url(#ag)"/></g></g></g><path d="M404.752,322.365a5.3,5.3,0,0,0-1.093,1.118,7.288,7.288,0,0,1-4.4-.9,5.867,5.867,0,0,1-2.429-2.259c.534-1.858,3.5-4.482,5.891-4.106a6.074,6.074,0,0,1,3.765,1.956,7.734,7.734,0,0,1,.607.8.389.389,0,0,0-.207.51,2.04,2.04,0,0,1-1.409,2.539A1.811,1.811,0,0,0,404.752,322.365Z" transform="translate(-358.899 -251.139)" fill="#ff8f66"/><path d="M372.757,295.512a7.154,7.154,0,1,1,7.045-7.288v.109a7.106,7.106,0,0,1-7.045,7.179Z" transform="translate(-364.692 -257.604)" fill="#fb7e51"/><path d="M368.661,290.594c0,14.406,10.324,22.884,23.078,22.884s23.078-8.5,23.078-22.884-10.325-29.309-23.078-29.309S368.661,276.14,368.661,290.594Z" transform="translate(-364.106 -261.285)" fill="#fb7e51"/><path d="M369.9,287.047h28.617a7.069,7.069,0,0,1,7.069,7.057h0v10.41a24.292,24.292,0,0,1-14.1,4.227c-9.875,0-18.293-5.1-21.584-14.114v-7.579Z" transform="translate(-363.877 -256.523)" fill="#ff8f66"/><path d="M326.658,11786.645H309.369c-6.667,0-12.193-4.177-12.193-10.823l-1.846-13.492,22.153,1.846,5.059,10.041,29.681-5.7v18.133H326.658Z" transform="translate(-295.329 -11760.275)" fill="url(#bf)"/><path d="M406.967,295.512a7.154,7.154,0,1,1,7.045-7.288v.109a7.106,7.106,0,0,1-7.045,7.179Z" transform="translate(-358.369 -257.604)" fill="#fb7e51"/><g transform="translate(14.005 29.941)"><path d="M392.383,286.555h0a3.3,3.3,0,0,1,3.292,3.28v2.551a3.316,3.316,0,0,1-3.292,3.292h0a3.3,3.3,0,0,1-3.28-3.292v-2.551a3.255,3.255,0,0,1,3.255-3.28Z" transform="translate(-374.333 -286.555)" fill="#29221d"/><path d="M379.917,286.555h0a3.279,3.279,0,0,1,3.28,3.28v2.551a3.3,3.3,0,0,1-3.28,3.292h0a3.3,3.3,0,0,1-3.28-3.292v-2.551a3.255,3.255,0,0,1,3.255-3.28Z" transform="translate(-376.637 -286.555)" fill="#29221d"/></g><path d="M386.518,301.049a4.324,4.324,0,0,1-4.324-4.324h8.624a4.3,4.3,0,0,1-4.288,4.324Z" transform="translate(-361.605 -254.734)" fill="#fff"/><path d="M408.05,288.577a2.028,2.028,0,0,0,.182-3.778,3.206,3.206,0,0,0-2.526-.1c-1.773.692-2.271,1.846-2.271,3.887a4.944,4.944,0,0,0,1.215,3.182q0-.164,0-.328C404.589,290.18,406.435,289.136,408.05,288.577Z" transform="translate(-357.679 -256.996)" fill="#ff8f66"/></g><path d="M427.706,271.139s-10.082-1.494-15.4-1.919c-5.114-.413-11.175-.656-17.673-.656s-12.559.243-17.673.656c-5.332.425-15.4,2.5-15.4,2.5v2.6c0,2.32,14.806,4.2,33.075,4.2s33.075-1.883,33.075-4.2Z" transform="translate(-361.548 -232.598)" fill="none"/><g transform="translate(0 33.913)"><path d="M394.632,266.841c-18.22,0-33.075,1.883-33.075,4.2v.085a2.429,2.429,0,0,0,2.429,2.429,2.294,2.294,0,0,0,.644-.1h.061a74.234,74.234,0,0,1,12.3-1.773c5.114-.413,11.175-.644,17.673-.644s12.559.231,17.673.644a74.438,74.438,0,0,1,12.3,1.773h.109a2.429,2.429,0,0,0,2.915-1.7,2.516,2.516,0,0,0,.073-.607v-.085C427.706,268.724,412.961,266.841,394.632,266.841Z" transform="translate(-361.548 -266.829)" fill="#fff100"/><path d="M427.708,274.265v-3.243c0-2.235-13.823-4.069-31.228-4.19h-1.846c-18.22,0-33.075,1.871-33.075,4.19v3.243a.777.777,0,0,0,.121.547l.146-.134a6.864,6.864,0,0,1,2.83-1.215,40.774,40.774,0,0,1,4.36-.887,5.138,5.138,0,0,1,4.859,1.956h0a7.142,7.142,0,0,0,5.66,2.794h17.831a10.75,10.75,0,0,0,6.559-2.223l2.551-1.943a5.794,5.794,0,0,1,3.559-1.215c3.474,0,5.855,0,6.219.085a58.835,58.835,0,0,1,8.357,1.409,7.639,7.639,0,0,1,2.976,1.36A.778.778,0,0,0,427.708,274.265Z" transform="translate(-361.549 -266.831)" fill="#fff100"/></g><g transform="translate(2.827)"><path d="M398.053,241.438a30.366,30.366,0,0,1,20.139,28.532v4.288a72.877,72.877,0,0,0-13.13-1.858c0-.826,0-1.652,0-2.49C405.11,258.625,402.389,248.495,398.053,241.438Z" transform="translate(-357.629 -237.611)" fill="url(#q)"/><path d="M363.935,268.526a30.159,30.159,0,0,1,6.911-19.276,62.952,62.952,0,0,0-2.867,19.179c0,1.215,0,2.356.085,3.51a35.835,35.835,0,0,0-4.081.862Z" transform="translate(-363.935 -236.168)" fill="url(#q)"/><path d="M370.167,250.99a30.366,30.366,0,0,1,33.561-9.28c4.336,7.057,7.057,17.187,7.057,28.459v2.49c-4.506-.352-9.717-.571-15.329-.607H393.61a176.383,176.383,0,0,0-26.176,1.628c0-1.154-.085-2.332-.085-3.51A62.956,62.956,0,0,1,370.167,250.99Z" transform="translate(-363.305 -237.884)" fill="#fff100"/><g transform="translate(18.062)"><path d="M379.179,253.319l1.931-12.013a2.3,2.3,0,0,1,1.616-1.858,30.294,30.294,0,0,1,17.151,0,2.332,2.332,0,0,1,1.628,1.858l1.919,12.013" transform="translate(-379.179 -238.208)" fill="#fff100"/></g><g transform="translate(18.657 10.495)"><path d="M385.566,268.577V263l6.972-4.3Z" transform="translate(-378.594 -244.915)" fill="#fff100"/><path d="M379.682,258.7l6.972,4.3v5.575Z" transform="translate(-379.682 -244.915)" fill="#fff100"/><path d="M386.654,254.281l-6.972,4.033,6.972-11.248h0Z" transform="translate(-379.682 -247.066)" fill="#fff100"/><path d="M385.566,247.066l6.972,11.284-6.972-4.033Z" transform="translate(-378.594 -247.066)" fill="#fff100"/><path d="M386.654,253.155h0v8.065h0l-6.972-4.033h0Z" transform="translate(-379.682 -245.94)" fill="#fff100"/><path d="M275.718,11652.785l6.972,4.3v5.576Zm0-2.538,6.972-4.033v8.066ZM282.69,11639v7.215l-6.972,4.033Z" transform="translate(-275.717 -11638.999)" fill="#0a0a0a"/><path d="M392.538,257.188h0l-6.972,4.033v-8.065Z" transform="translate(-378.594 -245.94)" fill="#fff100"/><path d="M275.718,11657.084l6.972-4.3-6.972,9.875Zm0-10.832V11639l6.938,11.229.034.02-.016.009.016.026-.03-.018-6.942,4.016Z" transform="translate(-268.745 -11638.999)" fill="#6e6f70"/></g></g></g></g><g transform="translate(-2)"><g transform="matrix(1, 0, 0, 1, -15.46, 0)" filter="url(#bi)"><path d="M798.65,11955.664H717.514a6.162,6.162,0,0,1-6.162-6.161v-15.4a6.161,6.161,0,0,1,6.162-6.161h93.159a6.161,6.161,0,0,1,6.162,6.161v15.4a6.162,6.162,0,0,1-6.162,6.161h-3.156v8.867Z" transform="translate(-394.56 -11630.63)" fill="#fff"/></g><path d="M798.65,11955.664H717.514a6.162,6.162,0,0,1-6.162-6.161v-15.4a6.161,6.161,0,0,1,6.162-6.161h93.159a6.161,6.161,0,0,1,6.162,6.161v15.4a6.162,6.162,0,0,1-6.162,6.161h-3.156v8.867Z" transform="translate(-410.024 -11630.625)" fill="rgba(242,242,242,0.4)"/><path d="M.756,0V-6.4h1.9a3.184,3.184,0,0,1,.773.1A2.073,2.073,0,0,1,4.1-5.99a1.537,1.537,0,0,1,.47.527,1.546,1.546,0,0,1,.171.769,1.371,1.371,0,0,1-.081.457,1.306,1.306,0,0,1-.211.371,1.473,1.473,0,0,1-.314.288,2.308,2.308,0,0,1-.382.211,1.765,1.765,0,0,1,.468.213,1.508,1.508,0,0,1,.367.334,1.513,1.513,0,0,1,.24.442,1.606,1.606,0,0,1,.086.532,1.673,1.673,0,0,1-.171.791,1.709,1.709,0,0,1-.47.573A2.154,2.154,0,0,1,3.6-.127,2.683,2.683,0,0,1,2.8,0Zm.817-2.993v2.3H2.826a1.51,1.51,0,0,0,.483-.086A1.329,1.329,0,0,0,3.713-1a1.059,1.059,0,0,0,.279-.356,1.075,1.075,0,0,0,.1-.479,1.126,1.126,0,0,0-.09-.483,1.035,1.035,0,0,0-.261-.358A1.176,1.176,0,0,0,3.353-2.9a1.608,1.608,0,0,0-.483-.088Zm0-.677H2.707a1.611,1.611,0,0,0,.448-.073,1.261,1.261,0,0,0,.391-.2,1.016,1.016,0,0,0,.277-.319A.887.887,0,0,0,3.929-4.7a.941.941,0,0,0-.1-.457.9.9,0,0,0-.277-.31,1.212,1.212,0,0,0-.4-.178A2.042,2.042,0,0,0,2.685-5.7H1.573Zm4.72-1.085h2.43V-.7h1.551V0H6.293V-.7H7.91V-4.047H6.293ZM7.8-6a.5.5,0,0,1,.121-.341.461.461,0,0,1,.367-.138.463.463,0,0,1,.365.138A.494.494,0,0,1,8.78-6a.464.464,0,0,1-.123.33.475.475,0,0,1-.365.132.474.474,0,0,1-.367-.132A.469.469,0,0,1,7.8-6ZM13.667.088a2.413,2.413,0,0,1-.921-.171,2.089,2.089,0,0,1-.719-.479,2.191,2.191,0,0,1-.466-.729A2.473,2.473,0,0,1,11.4-2.21V-2.4a2.721,2.721,0,0,1,.185-1.031,2.363,2.363,0,0,1,.49-.769,2.138,2.138,0,0,1,.694-.481,2,2,0,0,1,.8-.167,2.12,2.12,0,0,1,.9.178,1.764,1.764,0,0,1,.639.492,2.1,2.1,0,0,1,.38.74,3.261,3.261,0,0,1,.125.923v.365h-3.4a1.868,1.868,0,0,0,.125.611,1.587,1.587,0,0,0,.308.5,1.421,1.421,0,0,0,.468.336,1.446,1.446,0,0,0,.6.123,1.653,1.653,0,0,0,.773-.176,1.678,1.678,0,0,0,.563-.466l.5.387a1.887,1.887,0,0,1-.3.345,2.048,2.048,0,0,1-.411.292,2.312,2.312,0,0,1-.527.2A2.534,2.534,0,0,1,13.667.088Zm-.105-4.263a1.216,1.216,0,0,0-.466.09,1.215,1.215,0,0,0-.4.264,1.5,1.5,0,0,0-.3.426,2.026,2.026,0,0,0-.169.582h2.558v-.062a1.815,1.815,0,0,0-.09-.47,1.31,1.31,0,0,0-.226-.417,1.132,1.132,0,0,0-.376-.3A1.182,1.182,0,0,0,13.562-4.175Zm4.135-.58.057.7a1.888,1.888,0,0,1,.637-.578,1.751,1.751,0,0,1,.844-.213,2.07,2.07,0,0,1,.679.105,1.3,1.3,0,0,1,.521.33,1.5,1.5,0,0,1,.332.569,2.571,2.571,0,0,1,.116.82V0H20.07V-3A1.776,1.776,0,0,0,20-3.538a.854.854,0,0,0-.209-.356.816.816,0,0,0-.338-.2,1.563,1.563,0,0,0-.459-.062,1.275,1.275,0,0,0-.719.2,1.507,1.507,0,0,0-.494.538V0h-.813V-4.755Zm6.535,3.586.075.294.079-.294,1.332-3.586h.831L24.609,0h-.62L22.034-4.755h.835ZM29.87.088a2.413,2.413,0,0,1-.921-.171,2.089,2.089,0,0,1-.719-.479,2.191,2.191,0,0,1-.466-.729A2.473,2.473,0,0,1,27.6-2.21V-2.4a2.721,2.721,0,0,1,.185-1.031,2.363,2.363,0,0,1,.49-.769,2.138,2.138,0,0,1,.694-.481,2,2,0,0,1,.8-.167,2.12,2.12,0,0,1,.9.178,1.764,1.764,0,0,1,.639.492,2.1,2.1,0,0,1,.38.74,3.261,3.261,0,0,1,.125.923v.365h-3.4a1.868,1.868,0,0,0,.125.611,1.587,1.587,0,0,0,.308.5,1.421,1.421,0,0,0,.468.336,1.446,1.446,0,0,0,.6.123,1.653,1.653,0,0,0,.773-.176,1.678,1.678,0,0,0,.563-.466l.5.387a1.887,1.887,0,0,1-.3.345,2.048,2.048,0,0,1-.411.292,2.312,2.312,0,0,1-.527.2A2.534,2.534,0,0,1,29.87.088Zm-.105-4.263a1.216,1.216,0,0,0-.466.09,1.215,1.215,0,0,0-.4.264,1.5,1.5,0,0,0-.3.426,2.026,2.026,0,0,0-.169.582h2.558v-.062a1.815,1.815,0,0,0-.09-.47,1.31,1.31,0,0,0-.226-.417,1.132,1.132,0,0,0-.376-.3A1.182,1.182,0,0,0,29.764-4.175Zm4.135-.58.057.7a1.888,1.888,0,0,1,.637-.578,1.751,1.751,0,0,1,.844-.213,2.07,2.07,0,0,1,.679.105,1.3,1.3,0,0,1,.521.33,1.5,1.5,0,0,1,.332.569,2.571,2.571,0,0,1,.116.82V0h-.813V-3a1.776,1.776,0,0,0-.07-.536.854.854,0,0,0-.209-.356.816.816,0,0,0-.338-.2,1.563,1.563,0,0,0-.459-.062,1.275,1.275,0,0,0-.719.2,1.507,1.507,0,0,0-.494.538V0H33.17V-4.755Zm4.8,0h2.43V-.7H42.68V0H38.7V-.7h1.617V-4.047H38.7ZM40.21-6a.5.5,0,0,1,.121-.341.461.461,0,0,1,.367-.138.463.463,0,0,1,.365.138A.494.494,0,0,1,41.186-6a.464.464,0,0,1-.123.33.475.475,0,0,1-.365.132.474.474,0,0,1-.367-.132A.469.469,0,0,1,40.21-6Zm3.608,3.586a3.386,3.386,0,0,1,.134-.978,2.338,2.338,0,0,1,.382-.767,1.776,1.776,0,0,1,.6-.5,1.7,1.7,0,0,1,.787-.18,1.807,1.807,0,0,1,.745.143,1.556,1.556,0,0,1,.552.415V-6.75h.813V0h-.747l-.035-.5a1.555,1.555,0,0,1-.567.439,1.847,1.847,0,0,1-.769.149,1.644,1.644,0,0,1-.78-.185,1.787,1.787,0,0,1-.6-.51,2.459,2.459,0,0,1-.382-.767,3.212,3.212,0,0,1-.136-.951Zm.813.092a2.823,2.823,0,0,0,.075.659,1.72,1.72,0,0,0,.231.549,1.161,1.161,0,0,0,.4.376,1.149,1.149,0,0,0,.58.138,1.342,1.342,0,0,0,.374-.048,1.1,1.1,0,0,0,.3-.138A1.127,1.127,0,0,0,46.833-1a1.487,1.487,0,0,0,.185-.279V-3.489a1.376,1.376,0,0,0-.426-.477,1.141,1.141,0,0,0-.668-.187,1.156,1.156,0,0,0-.587.141,1.168,1.168,0,0,0-.4.38,1.745,1.745,0,0,0-.231.554,2.851,2.851,0,0,0-.075.661Zm4.513-.1a2.964,2.964,0,0,1,.149-.956,2.29,2.29,0,0,1,.428-.767,2,2,0,0,1,.679-.512,2.1,2.1,0,0,1,.9-.187,2.13,2.13,0,0,1,.907.187,1.99,1.99,0,0,1,.681.512,2.29,2.29,0,0,1,.428.767,2.964,2.964,0,0,1,.149.956v.1a2.945,2.945,0,0,1-.149.954,2.294,2.294,0,0,1-.428.765,1.971,1.971,0,0,1-.679.51,2.125,2.125,0,0,1-.9.185A2.151,2.151,0,0,1,50.4-.1a1.966,1.966,0,0,1-.681-.51,2.294,2.294,0,0,1-.428-.765,2.945,2.945,0,0,1-.149-.954Zm.813.1a2.633,2.633,0,0,0,.083.67,1.734,1.734,0,0,0,.253.56,1.247,1.247,0,0,0,.424.382,1.208,1.208,0,0,0,.593.141A1.187,1.187,0,0,0,51.9-.712a1.254,1.254,0,0,0,.422-.382,1.734,1.734,0,0,0,.253-.56,2.633,2.633,0,0,0,.083-.67v-.1a2.552,2.552,0,0,0-.086-.666,1.769,1.769,0,0,0-.255-.56,1.276,1.276,0,0,0-.422-.385,1.181,1.181,0,0,0-.591-.143,1.169,1.169,0,0,0-.589.143,1.283,1.283,0,0,0-.42.385,1.734,1.734,0,0,0-.253.56,2.616,2.616,0,0,0-.083.666Z" transform="translate(327.925 314.157)" fill="#6e6f70"/></g><circle cx="102.953" cy="102.953" r="102.953" transform="translate(175.468 8.782)" fill="#fff" stroke="#d1bfe6" stroke-width="1"/><g transform="translate(184.954 18.268)" clip-path="url(#bk)"><g transform="translate(29.326 6.384)"><g transform="translate(0.032 73.988)"><path d="M188.174,259.669s-20.694-3.041-31.674-3.97c-10.474-.845-22.974-1.351-36.32-1.351s-25.846.507-36.32,1.351c-10.98.845-31.505,5.152-31.505,5.152v4.983c0,4.73,30.323,9.038,67.825,9.038s67.994-3.885,67.994-8.615Z" transform="translate(-52.355 -254.348)" fill="url(#bl)"/></g><g transform="translate(11.025 82.115)"><path d="M173.4,366.507H85.726A20.367,20.367,0,0,1,65.37,346.151h0V263.967H173.4Z" transform="translate(-65.37 -263.967)" fill="url(#bm)"/></g><g transform="translate(92.954 158.055)"><g transform="translate(-1411.17 -320.753)"><path d="M1424.44,346.429c5.405-.264,10.135-3.6,14.612-6.585-2.45-10.622-17.836-20.288-27.127-18.97.591,1.93,6.433,18.005,6.433,18.005s6,1.932,6.082,7.55" fill="#f2eddc"/><path d="M1424.439,346.427c0,1.664-.76,2.985-3.211,5.619-.59.614-1.435,10.186-.759,13.96,17.568-7.727,20.947-17.3,18.328-26.953-4.053,3.337-9.122,6.5-14.358,7.374" fill="#fb7e51"/><path d="M1429.506,360.211a35.405,35.405,0,0,0,5.152-5,25.959,25.959,0,0,0,4.983-11.15,22.946,22.946,0,0,0-.76-4.828c-4.223,3.335-9.207,6.495-14.443,7.287-.338,1.579-.76,2.983-3.21,5.617-.591.614-1.689,10.536-1.267,15.013,2.872-2.458,6.166-4.214,9.207-6.409a1.358,1.358,0,0,1,.338-.527" fill="#ff8f66"/><path d="M1427.982,367.761a10.516,10.516,0,0,0,.929-10.974c-2.112-4.653-5.913-5.794-9.882-3.424a22.115,22.115,0,0,0-5.068,4.741c-1.436,1.755-2.872,3.688-2.787,5.97a8.893,8.893,0,0,0,3.379,7.023c1.267.965,5.321,3.161,7.348,3.161a8.075,8.075,0,0,0,4.223-.966,5.813,5.813,0,0,0,2.281-2.287,3.046,3.046,0,0,0-.253-3.16c-.082-.084-.082-.084-.17-.084" fill="#fb7e51"/><path d="M1427.227,369.341h0a.86.86,0,0,1-.676.438,5.948,5.948,0,0,1-2.365.615.982.982,0,0,1-.93-1.027v-.027a.93.93,0,0,1,.422-.791,16.231,16.231,0,0,0,3.548-2.9c0-.087.084-.175.084-.263.591-1.053,1.1-2.194,1.6-3.248a17,17,0,0,0,.76-2.985,12.756,12.756,0,0,0-.76-2.369c-2.112-4.655-5.913-5.795-9.882-3.424a22.085,22.085,0,0,0-5.068,4.739c-1.436,1.757-2.872,3.688-2.787,5.971a8.888,8.888,0,0,0,3.379,7.022c1.267.966,5.068,2.986,7.348,3.161a8.055,8.055,0,0,0,4.223-.965,5.811,5.811,0,0,0,2.281-2.286,3.178,3.178,0,0,0,.084-2.635,12.31,12.31,0,0,1-1.262.971" fill="#ff8f66"/></g></g><g transform="translate(34.954 197.055)"><g transform="translate(-1352.255 -358.676)"><path d="M1391.894,425.386l.845,6.01h5.109v-2.547l-1.1-3.464Z" fill="#15191f"/><path d="M1371.132,424.581h-11.384c-.034.491-.051.759-.051.759l-7.442,2v4.01h10.815l3.885-2.953v2.953h5.448s.509-2.342,1.1-6.01c.035-.23.077-.474.118-.715C1372.791,424.608,1371.962,424.6,1371.132,424.581Z" fill="#0a0a0a"/><path d="M1407.916,425.339l.108-.539c-.2.017-.407.031-.62.031q-7.145,0-14.289-.02c-.214,4-.439,6.537-.439,6.537h5.109v-2.953l3.885,2.953H1414.5v-4.009Z" fill="#0a0a0a"/><path d="M1359.7,425.34h13.89c2.284-15.766,10.407-31.063,16.247-45.434,0,0,4.44,24.156,2.081,45.434H1408c2.281-35.791,9.4-34.528,12.155-60.816,0-10.773-61.655-3.363-61.655-3.363l3.652,41.564Z" fill="#312d2e"/><path d="M1389.839,380.008c4.477,18.235,2.081,45.434,2.081,45.434h5.278c0-.1,1.168-33.519-7.359-45.434" fill="#262223"/><path d="M1359.7,425.34c1.069-.6,5.513-18.647,4.62-29.772-1.008-12.561-1.51-28.949,2.627-34.407-1.527-.734-8.447,0-8.447,0s-1.858,12.738,2.36,35.363C1362.011,402.487,1360.772,416.683,1359.7,425.34Z" fill="#15191f"/><path d="M1391.92,425.34l.845,6.01h5.109V428.4l-.676-3.056Z" fill="#0a0a0a"/></g></g><g transform="translate(37.954 153.055)"><g transform="translate(-1355.115 -315.13)"><path d="M1396.482,315.894c-32.6,1.52-33.11,6.166-33.11,6.166-4.169,3.952-11.808,16.506-7.179,15.035s7.312-.458,7.628-.221c1.436,1.1,1.2,4.323.95,6.942a49.631,49.631,0,0,1-2.7,10.558c0,3.885-1.958,7.047-2.042,11.017l58-.084s.421-19.68.591-26.269" transform="translate(0.364 -0.764)" fill="#f2eddc"/><path d="M1364.654,344.895c5.02-1.137,13.916-14.583.641-26.789-1.554-1.429,15.457,2.872,21.2,6.757.507,1.437,10.755,10.86,10.755,10.86s5.452-9.715-.817-19.286c6.81-1.208,19.17.257,24.24,21.1.372,1.529-2.532,7.557-2.416,9.3,0,0,2.848,12.642,1.581,17.457a190,190,0,0,1-25.065,1.96c-17.231,0-36.658-2.028-36.658-2.028A52.688,52.688,0,0,1,1364.654,344.895Z" fill="#edcf00"/><g clip-path="url(#bn)"><path d="M1397.25,334.562c2.716,12.544,0,31.774,0,31.774" fill="none" stroke="#ad960c" stroke-miterlimit="10" stroke-width="1"/><g transform="translate(-2218.262 -1522.385)"><path d="M3612.937,1883.107a257.233,257.233,0,0,1-35.485-2.513l.7-4.951c21.433,3.034,44.211,3.285,60.932.673l.772,4.939A177.846,177.846,0,0,1,3612.937,1883.107Z" fill="url(#bo)"/><path d="M3612.236,1874.151a212.149,212.149,0,0,1-34.859-2.71l.856-4.926c20.772,3.607,47.9,3.249,60.206.653l1.033,4.892C3633.205,1873.382,3623.259,1874.151,3612.236,1874.151Z" fill="url(#bp)"/></g></g></g></g><g transform="translate(19.954 158.054)"><path d="M3557.626,1854.138a12.723,12.723,0,0,0-2.539,6.9c.082,0,.082.082.164.082a15.529,15.529,0,0,0,8.6,3.734,57,57,0,0,0,6.471.162c-.164-5.44,5.531-8.945,11.262-7.808.737-3.329,1.163-15.069,1.163-15.069s-17.421-.264-25.12,12" transform="translate(-3554.984 -1842.141)" fill="#f2eddc"/><path d="M3578.588,1876.117c.025-.066.064-.133.085-.2l-.024-.014c.008-.023.013-.046.02-.068-5.825-3.193-8.207-6.741-8.354-9.979-.007-.194-.008-.386,0-.578h0c0-.027,0-.055,0-.082a29.743,29.743,0,0,1-12.688-2.437v.033c-.864-.38-1.716-.786-2.543-1.249-.9,7.635,4.259,16.241,10.4,19.815a5.668,5.668,0,0,0,2.5.688.88.88,0,0,1-.269.509l-.02.019a.886.886,0,0,1-.573.242h-.328c0,.326,6.552,3.493,10.32,4.143A34.478,34.478,0,0,1,3578.588,1876.117Z" transform="translate(-3554.981 -1842.889)" fill="url(#bq)"/><path d="M3575.559,1874.126a12.261,12.261,0,0,0-7.535,3.817,9.4,9.4,0,0,0-2.212,3.817c-.164.65.245,3.653,3.685,5.278a4.054,4.054,0,0,0,1.229,4.385c4.751,4.385,13.188-.487,13.924-1.381,1.72-2.193,2.293-5.2,2.618-7.714.332-2.111-6.384-9.013-11.708-8.2" transform="translate(-3555.309 -1843.372)" fill="url(#br)"/><path d="M3571.578,1886.307a14.058,14.058,0,0,1,2.212,2.193c1.966.406,4.668.081,8.764-1.786a11.377,11.377,0,0,0,4.751-4.467c-1.067-3.652-6.961-8.852-11.712-8.12a12.262,12.262,0,0,0-7.535,3.817,7.4,7.4,0,0,0-1.229,1.624c-.218.544,1.146,5.118,3.194,6.01a3.957,3.957,0,0,1,1.554.73" transform="translate(-3555.34 -1843.372)" fill="#ff8f66"/></g><g transform="translate(11.027 56.186)"><path d="M2122.025,17058.836a14.533,14.533,0,0,1-13.1-14.619v-.254a14.752,14.752,0,0,1,11.206-14.037c4.465-25.676,23.532-49.057,46.4-49.057,23.156,0,42.411,23.973,46.558,50.021a14.7,14.7,0,0,1-1.855,27.385c-6.491,19.15-24.045,30.031-44.7,30.031C2146.08,17088.307,2128.668,17077.637,2122.025,17058.836Z" transform="translate(-2106.227 -16980.869)" stroke="rgba(0,0,0,0)" stroke-miterlimit="10" stroke-width="1" fill="url(#bs)"/><path d="M172.108,307.567H116.9a14.527,14.527,0,0,0-14.528,14.528h0v21.454a49.968,49.968,0,0,0,28.971,8.7c20.272,0,38.155-11.368,44.912-29.95,0,0,1.29-8.387,0-14.732C176.181,307.6,172.108,307.567,172.108,307.567Z" transform="translate(-71.119 -244.81)" fill="#ff8f66"/><path d="M2108.927,17030.871v-37.254l71.456,13.7v-22.648l45.529-3.8-3.8,27.791c0,13.682-11.318,22.213-25,22.213h-16.725v-10.131a23.14,23.14,0,0,1-2.829,3.447,22.666,22.666,0,0,1-16.092,6.684h-22.4a14.8,14.8,0,0,0-12.489-7.352h-.312a14.478,14.478,0,0,0-7.4,2.027,14.833,14.833,0,0,0-5.257,5.324v0Z" transform="translate(-2108.927 -16974.873)" stroke="rgba(0,0,0,0)" stroke-miterlimit="10" stroke-width="1" fill="url(#bt)"/><path d="M141.639,344.436a8.868,8.868,0,0,0,8.869-8.869H132.77a8.978,8.978,0,0,0,8.869,8.869Z" transform="translate(-75.842 -249.162)" fill="#fff"/><path d="M80.848,308.722c-3.548-1.267-3.885-6.335-.338-7.771a6.634,6.634,0,0,1,5.237-.169c3.632,1.436,4.646,3.8,4.646,8.024a9.734,9.734,0,0,1-2.449,6.5v-.676C87.943,312.016,84.143,309.9,80.848,308.722Z" transform="translate(-67.335 -243.685)" fill="#ff8f66"/></g><g transform="translate(55.408 117.84)"><path d="M124.544,306.264h0a6.76,6.76,0,0,0-6.628,6.847v5.306a6.76,6.76,0,0,0,6.628,6.847h0a6.76,6.76,0,0,0,6.628-6.847v-5.306a6.707,6.707,0,0,0-6.628-6.847Z" transform="translate(-117.916 -306.264)" fill="#262223"/><path d="M160.444,306.264h0a6.76,6.76,0,0,0-6.628,6.847v5.306a6.76,6.76,0,0,0,6.628,6.847h0a6.76,6.76,0,0,0,6.628-6.847v-5.306a6.707,6.707,0,0,0-6.628-6.847Z" transform="translate(-124.072 -306.264)" fill="#262223"/></g><g transform="translate(0 69.768)"><path d="M120.349,249.348c37.5,0,67.994,3.885,67.994,8.615v.169a4.9,4.9,0,0,1-4.9,4.9,7.392,7.392,0,0,1-1.351-.169h-.084c-5.49-1.52-14.359-2.787-25.255-3.632-10.474-.845-22.974-1.351-36.32-1.351s-25.846.507-36.32,1.351c-10.98.845-19.765,2.112-25.255,3.632l-.253.084a4.9,4.9,0,0,1-6-3.463,3.389,3.389,0,0,1-.253-1.267v-.169C52.355,253.233,82.762,249.348,120.349,249.348Z" transform="translate(-52.323 -249.348)" fill="#fff100"/><path d="M52.349,264.636v-6.673c0-4.561,28.38-8.362,64.193-8.615h3.885c37.5,0,67.994,3.885,67.994,8.615v6.673a1.281,1.281,0,0,1-.253,1.1c-.084-.084-.253-.169-.338-.253q-1.394-1.394-5.828-2.534a79.9,79.9,0,0,0-8.953-1.774,10.434,10.434,0,0,0-9.967,4.054h0a14.683,14.683,0,0,1-11.656,5.744H114.684a22.285,22.285,0,0,1-13.514-4.561l-5.237-3.97a12.02,12.02,0,0,0-7.348-2.449c-7.1.084-11.994.084-12.754.169a115.313,115.313,0,0,0-17.146,2.872,15.713,15.713,0,0,0-6.081,2.787A1.535,1.535,0,0,1,52.349,264.636Z" transform="translate(-52.317 -249.348)" fill="#fff100"/></g><g transform="translate(5.719)"><path d="M100.477,176.048a62.426,62.426,0,0,0-41.388,58.787V243.7c5.659-1.6,15.119-3.041,26.944-3.885-.084-1.689-.084-3.379-.084-5.152C85.949,211.439,91.523,190.576,100.477,176.048Z" transform="translate(-59.089 -168.193)" fill="url(#q)"/><path d="M203.979,238.362a62.193,62.193,0,0,0-14.19-39.614,130.2,130.2,0,0,1,5.913,39.445c0,2.449-.084,4.814-.169,7.179a71.419,71.419,0,0,1,8.446,1.774Z" transform="translate(-79.394 -171.719)" fill="url(#q)"/><path d="M174.34,194.474a62.174,62.174,0,0,0-68.923-19.089c-8.953,14.528-14.528,35.391-14.528,58.534,0,1.689,0,3.463.084,5.152,9.291-.676,20.018-1.183,31.505-1.267h3.8c21.876,0,41.388,1.351,53.8,3.379.084-2.365.169-4.814.169-7.18A127.781,127.781,0,0,0,174.34,194.474Z" transform="translate(-64.029 -167.529)" fill="#fff100"/><g transform="translate(37.523)"><path d="M153.347,197.831l-3.97-24.748a4.729,4.729,0,0,0-3.379-3.8,62.465,62.465,0,0,0-35.222,0,4.633,4.633,0,0,0-3.294,3.8l-3.97,24.748" transform="translate(-103.513 -166.748)" fill="#fff100"/></g><g transform="translate(57.456 21.507)"><path d="M141.472,246.183V234.7l-14.359-8.784Z" transform="translate(-127.113 -197.446)" fill="#f9c838"/><path d="M158.388,225.911,144.113,234.7v11.487Z" transform="translate(-129.754 -197.446)" fill="#f9c838"/><path d="M144.113,207.161l14.359,8.278-14.359-23.228h0Z" transform="translate(-129.754 -192.211)" fill="#f9c838"/><path d="M141.472,192.211l-14.359,23.228,14.359-8.278Z" transform="translate(-127.113 -192.211)" fill="#f9c838"/><path d="M144.113,209.911h0v16.555h0l14.359-8.278h0Z" transform="translate(-129.754 -194.961)" fill="#f9c838"/><path d="M158.388,225.911,144.113,234.7v11.487Z" transform="translate(-129.754 -197.446)" fill="#4b4d4d"/><path d="M127.113,218.189h0l14.359,8.278V209.911Z" transform="translate(-127.113 -194.961)" fill="#f9c838"/><path d="M141.472,246.183V234.7l-14.359-8.784Z" transform="translate(-127.113 -197.446)" fill="#0a0a0a"/><path d="M127.113,215.439l14.359-23.228v31.505Z" transform="translate(-127.113 -192.211)" fill="#0a0a0a"/><path d="M144.113,207.161v-14.95l14.359,23.228-14.359,8.278Z" transform="translate(-129.754 -192.211)" fill="#4b4d4d"/></g></g></g></g><g transform="translate(-4)"><g transform="matrix(1, 0, 0, 1, -13.46, 0)" filter="url(#bw)"><path d="M730.618,12011.046h-7.59a11.676,11.676,0,0,1-11.674-11.678v-34.015a11.674,11.674,0,0,1,11.674-11.675h85.25a11.674,11.674,0,0,1,11.674,11.675v34.015a11.676,11.676,0,0,1-11.674,11.678h-59.3l-18.365,18.364Z" transform="translate(-340.05 -11879.8)" fill="#fff"/></g><path d="M730.618,12011.046h-7.59a11.676,11.676,0,0,1-11.674-11.678v-34.015a11.674,11.674,0,0,1,11.674-11.675h85.25a11.674,11.674,0,0,1,11.674,11.675v34.015a11.676,11.676,0,0,1-11.674,11.678h-59.3l-18.365,18.364Z" transform="translate(-353.506 -11879.804)" fill="rgba(242,242,242,0.4)"/><path d="M10.615,0H8.906V-6.572H3.076V0h-1.7V-14.219h1.7v6.113h5.83v-6.113h1.709Zm3.369-10.566h5.4v9h3.447V0H13.984V-1.562h3.594V-8.994H13.984Zm3.359-2.773a1.11,1.11,0,0,1,.269-.757,1.025,1.025,0,0,1,.815-.308,1.028,1.028,0,0,1,.811.308,1.1,1.1,0,0,1,.273.757,1.032,1.032,0,0,1-.273.732,1.056,1.056,0,0,1-.811.293,1.053,1.053,0,0,1-.815-.293A1.043,1.043,0,0,1,17.344-13.34Zm13.4,8.74H28.926v-9.619h1.816ZM28.75-.947a1.131,1.131,0,0,1,.278-.781,1.061,1.061,0,0,1,.835-.312,1.092,1.092,0,0,1,.845.313A1.109,1.109,0,0,1,31-.947a1.048,1.048,0,0,1-.288.752,1.112,1.112,0,0,1-.845.3,1.079,1.079,0,0,1-.835-.3A1.069,1.069,0,0,1,28.75-.947Z" transform="translate(394.351 110.578)" fill="#6e6f70"/></g></g></g></svg>