<svg xmlns="http://www.w3.org/2000/svg" width="200" height="68.4" viewBox="0 0 200 68.4"><defs><style>.a{fill:#ffe94d;}.b{fill:#ff9c92;}.c{fill:#53d3e0;}.d{fill:#5a9ded;}.e{fill:#88d848;}.e,.f{opacity:0.75;}.f{fill:#cc71c3;}.g{fill:#22222d;}</style></defs><path class="a" d="M40.4,266.5V218.8L20.3,253.7Z" transform="translate(-20.267 -218.8)"/><path class="b" d="M80.6,218.8l20.1,34.9L80.6,266.5Z" transform="translate(-60.467 -218.8)"/><path class="c" d="M20.3,335.9l20.133,12.833v16.533" transform="translate(-20.267 -296.867)"/><path class="d" d="M100.7,335.9,80.6,348.733v16.533" transform="translate(-60.467 -296.867)"/><path class="e" d="M40.333,289.2,20.2,300.633l20.133,12.8Z" transform="translate(-20.2 -265.733)"/><path class="f" d="M80.6,289.2l20.1,11.433-20.1,12.8Z" transform="translate(-60.467 -265.733)"/><path class="g" d="M171.467,256.833a3.6,3.6,0,0,0,3.9,3.633,3.273,3.273,0,0,0,3.133-1.733h3.4a6.565,6.565,0,0,1-6.7,4.867c-3.633,0-7.267-2.467-7.267-7.833,0-5.2,3.433-7.867,7.3-7.867,3.667,0,6.8,2.433,6.8,7.433v1.5Zm.1-2.7h6.867A3.009,3.009,0,0,0,175.167,251a3.466,3.466,0,0,0-3.6,3.133Zm22,9.133h-2.4c-2.867,0-4.633-.9-4.633-4.933v-6.9H183.8v-3.267h2.767v-3.4l3.633-1v4.4h3v3.267h-3v6.8c0,1.033.3,1.8,1.8,1.8h1.533l.033,3.233Zm16.8-9.733v9.733h-3.633v-9.433a2.528,2.528,0,0,0-2.833-2.7c-2.167,0-3.333,1.5-3.333,3.967v8.167h-3.633V242.4H200.6v8a4.716,4.716,0,0,1,4.6-2.5C208.6,247.867,210.367,249.933,210.367,253.533Zm7.033,3.3a3.6,3.6,0,0,0,3.9,3.633,3.273,3.273,0,0,0,3.133-1.733h3.4a6.565,6.565,0,0,1-6.7,4.867c-3.633,0-7.267-2.467-7.267-7.833,0-5.2,3.433-7.867,7.3-7.867,3.667,0,6.8,2.433,6.8,7.433v1.5Zm.1-2.7h6.867A3.009,3.009,0,0,0,221.1,251a3.486,3.486,0,0,0-3.6,3.133Zm22.7-2.6h-.967c-2.533,0-3.933,1.4-3.933,4.367v7.367h-3.633v-15.1H235.3V250.4a4.006,4.006,0,0,1,3.933-2.4h1l-.033,3.533Zm5.267,5.3a3.6,3.6,0,0,0,3.9,3.633,3.273,3.273,0,0,0,3.133-1.733h3.4a6.565,6.565,0,0,1-6.7,4.867c-3.633,0-7.267-2.467-7.267-7.833,0-5.2,3.433-7.867,7.3-7.867,3.667,0,6.8,2.433,6.8,7.433v1.5Zm.1-2.7h6.867A3.009,3.009,0,0,0,249.166,251,3.466,3.466,0,0,0,245.566,254.133Zm27.167,9.133h-3.567V261.1a4.6,4.6,0,0,1-4.2,2.3c-3.167,0-5.433-2.033-5.433-5.9v-9.367h3.633v9.133c0,2.033,1.067,2.933,2.633,2.933,1.7,0,3.267-1.267,3.267-4.733v-7.333H272.7l.033,15.133ZM299,253.1v10.2h-3.633v-9.5c0-1.8-.833-2.633-2.4-2.633-1.733,0-2.9,1.033-2.9,3.633v8.5h-3.633v-9.5c0-1.8-.933-2.633-2.433-2.633-1.7,0-2.9,1.067-2.9,3.6V263.3h-3.633V248.167h3.6V250.4a3.988,3.988,0,0,1,3.967-2.5,4.377,4.377,0,0,1,4.233,2.5,4.616,4.616,0,0,1,4.467-2.5A4.834,4.834,0,0,1,299,253.1ZM174.633,273.967c-1.3,0-1.533.667-1.533,1.533v1h2.767v3.267H173.1V291.6h-3.633V279.767H167.2V276.5h2.267v-.8c0-4.067,1.8-4.933,4.6-4.933h2.2V274l-1.633-.033Zm18.3,10.1c0,4.933-3.1,7.867-7.533,7.867-4.4,0-7.5-2.933-7.5-7.867,0-4.9,3.1-7.833,7.5-7.833C189.833,276.2,192.933,279.133,192.933,284.067Zm-11.3,0c0,3.033,1.633,4.5,3.833,4.5,2.367,0,3.733-1.667,3.733-4.5,0-3-1.633-4.467-3.833-4.467C183,279.6,181.633,281.233,181.633,284.067Zm28,7.533H206.1v-2.167a4.6,4.6,0,0,1-4.2,2.3c-3.167,0-5.433-2.033-5.433-5.9v-9.367H200.1V285.6c0,2.033,1.067,2.933,2.633,2.933,1.7,0,3.267-1.267,3.267-4.733v-7.333h3.633V291.6Zm18.133-9.767V291.6h-3.633v-9.433a2.528,2.528,0,0,0-2.833-2.7c-2.167,0-3.333,1.5-3.333,3.967V291.6h-3.633V276.533h3.633v2.2a4.821,4.821,0,0,1,4.6-2.467c3.433-.067,5.2,2,5.2,5.567Zm18.7,9.767h-3.6v-2.3a5.053,5.053,0,0,1-4.8,2.633c-3.7,0-6.8-2.6-6.8-7.9,0-5.233,3.1-7.8,6.8-7.8A5.472,5.472,0,0,1,242.8,278.5v-7.767h3.633l.033,20.867Zm-3.567-7.567c0-3.133-2-4.6-3.967-4.6-2.133,0-3.933,1.5-3.933,4.6,0,3.033,1.8,4.567,3.933,4.567C240.9,288.6,242.9,287.133,242.9,284.033Zm20.4-2.567v10.167h-3.567v-2.2A5.367,5.367,0,0,1,255,291.967c-2.4,0-4.867-1.3-4.867-4.5,0-3.767,3.433-4.433,4.833-4.633l3.133-.433a1.738,1.738,0,0,0,1.8-1.633c0-1.2-1.067-1.667-2.467-1.667-2.033,0-3,.933-3.167,2.233h-3.5c.4-3.5,3.4-5.1,6.833-5.1,3.533-.033,5.7,1.667,5.7,5.233Zm-3.533,3.8v-.8a7.469,7.469,0,0,1-1.8.433l-1.8.233c-.933.1-2.433.533-2.433,2.033,0,1.167.9,1.733,2.2,1.733A3.669,3.669,0,0,0,259.766,285.267ZM275.6,291.6h-2.4c-2.867,0-4.633-.9-4.633-4.933v-6.9H265.8V276.5h2.767v-3.4l3.633-1v4.4h3v3.267h-3v6.8c0,1.033.3,1.8,1.8,1.8h1.533l.067,3.233Zm3.167-21.267h3.867v4.133h-3.867Zm.1,21.267H282.5V276.5h-3.633v15.1Zm22.233-7.533c0,4.933-3.1,7.867-7.533,7.867-4.4,0-7.5-2.933-7.5-7.867,0-4.9,3.1-7.833,7.5-7.833,4.467-.033,7.533,2.9,7.533,7.833Zm-11.267,0c0,3.033,1.633,4.5,3.833,4.5,2.367,0,3.733-1.667,3.733-4.5,0-3-1.633-4.467-3.833-4.467C291.2,279.6,289.833,281.233,289.833,284.067Zm28.367-2.233V291.6h-3.633v-9.433a2.528,2.528,0,0,0-2.833-2.7c-2.167,0-3.333,1.5-3.333,3.967V291.6h-3.633V276.533H308.4v2.2a4.821,4.821,0,0,1,4.6-2.467c3.433-.067,5.233,2,5.2,5.567Z" transform="translate(-118.2 -234.533)"/></svg>