<svg width="200" height="69" viewBox="0 0 200 69" fill="none" xmlns="http://www.w3.org/2000/svg">
<g clip-path="url(#clip0)">
<path d="M20.133 47.673V0.415527L0.032959 34.9918L20.133 47.673Z" fill="#FFE94D"/>
<path d="M20.1331 0.415527L40.2331 34.9918L20.1331 47.673V0.415527Z" fill="#FF9C92"/>
<path d="M0.032959 39.0864L20.166 51.8004V68.18" fill="#53D3E0"/>
<path d="M40.2331 39.0864L20.1331 51.8004V68.18" fill="#5A9DED"/>
<path opacity="0.75" d="M20.133 23.6641L0 34.991L20.133 47.6723V23.6641Z" fill="#88D848"/>
<path opacity="0.75" d="M20.1331 23.6641L40.2331 34.991L20.1331 47.6723V23.6641Z" fill="#CC71C3"/>
<path d="M53.267 22.5086C53.2606 23.0058 53.3593 23.4988 53.5567 23.956C53.754 24.4132 54.0457 24.8245 54.4129 25.1634C54.7802 25.5024 55.2149 25.7615 55.6892 25.9241C56.1635 26.0868 56.6669 26.1494 57.167 26.1079C57.8011 26.1541 58.4351 26.0164 58.9915 25.7115C59.5479 25.4066 60.0026 24.9477 60.3 24.391H63.7C63.3121 25.8348 62.4344 27.1024 61.2142 27.9805C59.994 28.8587 58.5059 29.2938 57 29.2128C53.367 29.2128 49.733 26.7687 49.733 21.4525C49.733 16.3007 53.166 13.6585 57.033 13.6585C60.7 13.6585 63.833 16.0689 63.833 21.0225V22.5086H53.267ZM53.367 19.8336H60.234C60.2533 19.4095 60.1809 18.9861 60.0217 18.5919C59.8624 18.1978 59.62 17.8418 59.3107 17.5479C59.0014 17.2541 58.6323 17.029 58.2281 16.8879C57.8239 16.7468 57.394 16.6929 56.967 16.7297C56.0798 16.6917 55.2118 16.9925 54.5419 17.5701C53.872 18.1476 53.4515 18.9579 53.367 19.8336ZM75.367 28.8819H72.967C70.1 28.8819 68.334 27.9903 68.334 23.9947V17.1587H65.6V13.922H68.367V10.5535L72 9.56281V13.922H75V17.1587H72V23.8956C72 24.919 72.3 25.6789 73.8 25.6789H75.333L75.366 28.8819H75.367ZM92.167 19.2392V28.8819H88.534V19.5364C88.5623 19.1665 88.5074 18.7949 88.3731 18.4486C88.2387 18.1022 88.0285 17.7898 87.7574 17.5338C87.4863 17.2778 87.1611 17.0847 86.8055 16.9685C86.4499 16.8522 86.0726 16.8156 85.701 16.8615C83.534 16.8615 82.368 18.3476 82.368 20.7917V28.8829H78.735V8.20947H82.4V16.1353C82.834 15.3184 83.5025 14.6472 84.3212 14.2064C85.1399 13.7656 86.072 13.5749 87 13.6585C90.4 13.6258 92.167 15.6726 92.167 19.2392ZM99.2 22.5086C99.1936 23.0058 99.2923 23.4988 99.4897 23.956C99.687 24.4132 99.9787 24.8245 100.346 25.1634C100.713 25.5024 101.148 25.7615 101.622 25.9241C102.096 26.0868 102.6 26.1494 103.1 26.1079C103.734 26.1541 104.368 26.0164 104.924 25.7115C105.481 25.4066 105.936 24.9477 106.233 24.391H109.633C109.245 25.8348 108.367 27.1024 107.147 27.9805C105.927 28.8587 104.439 29.2938 102.933 29.2128C99.3 29.2128 95.666 26.7687 95.666 21.4525C95.666 16.3007 99.099 13.6585 102.966 13.6585C106.633 13.6585 109.766 16.0689 109.766 21.0225V22.5086H99.2ZM99.3 19.8336H106.167C106.186 19.4095 106.114 18.9861 105.955 18.5919C105.795 18.1978 105.553 17.8418 105.244 17.5479C104.934 17.2541 104.565 17.029 104.161 16.8879C103.757 16.7468 103.327 16.6929 102.9 16.7297C102.014 16.6965 101.149 16.999 100.48 17.5757C99.811 18.1523 99.3891 18.9597 99.3 19.8336ZM122 17.2578H121.033C118.5 17.2578 117.1 18.6448 117.1 21.5842V28.8829H113.467V13.923H117.1V16.1353C117.429 15.3861 117.983 14.7557 118.687 14.3302C119.391 13.9046 120.21 13.7046 121.033 13.7575H122.033L122 17.2578ZM127.267 22.5086C127.261 23.0058 127.359 23.4988 127.557 23.956C127.754 24.4132 128.046 24.8245 128.413 25.1634C128.78 25.5024 129.215 25.7615 129.689 25.9241C130.163 26.0868 130.667 26.1494 131.167 26.1079C131.801 26.1541 132.435 26.0164 132.991 25.7115C133.548 25.4066 134.003 24.9477 134.3 24.391H137.7C137.312 25.8348 136.434 27.1024 135.214 27.9805C133.994 28.8587 132.506 29.2938 131 29.2128C127.367 29.2128 123.733 26.7687 123.733 21.4525C123.733 16.3007 127.166 13.6585 131.033 13.6585C134.7 13.6585 137.833 16.0689 137.833 21.0225V22.5086H127.267ZM127.367 19.8336H134.234C134.253 19.4094 134.181 18.986 134.022 18.5917C133.862 18.1974 133.62 17.8414 133.31 17.5475C133.001 17.2536 132.632 17.0286 132.227 16.8876C131.823 16.7466 131.393 16.6927 130.966 16.7297C130.079 16.6917 129.211 16.9925 128.541 17.5701C127.871 18.1476 127.45 18.9579 127.366 19.8336H127.367ZM154.534 28.8819H150.967V26.736C150.546 27.4613 149.931 28.0575 149.19 28.4595C148.449 28.8614 147.611 29.0535 146.767 29.0147C143.6 29.0147 141.334 27.0005 141.334 23.1694V13.8893H144.967V22.9376C144.967 24.9517 146.034 25.8434 147.6 25.8434C149.3 25.8434 150.867 24.5881 150.867 21.1543V13.8893H154.5L154.533 28.8819H154.534ZM180.8 18.8102V28.9156H177.167V19.5037C177.167 17.7204 176.334 16.8952 174.767 16.8952C173.034 16.8952 171.867 17.9186 171.867 20.4945V28.9156H168.234V19.5037C168.234 17.7204 167.301 16.8952 165.801 16.8952C164.101 16.8952 162.901 17.9523 162.901 20.4618V28.9156H159.268V13.923H162.868V16.1353C163.18 15.3602 163.733 14.7032 164.445 14.2582C165.158 13.8133 165.994 13.6033 166.835 13.6585C167.71 13.6039 168.581 13.8109 169.336 14.2525C170.09 14.6941 170.694 15.35 171.068 16.1353C171.483 15.3318 172.128 14.6679 172.923 14.2272C173.718 13.7865 174.627 13.5886 175.535 13.6585C176.237 13.5939 176.945 13.6824 177.609 13.9175C178.273 14.1527 178.877 14.5289 179.378 15.0197C179.88 15.5106 180.267 16.1042 180.513 16.759C180.758 17.4138 180.856 18.1139 180.8 18.8102ZM56.433 39.4837C55.133 39.4837 54.9 40.1445 54.9 41.0024V41.9932H57.667V45.2298H54.9V56.9531H51.267V45.2298H49V41.9932H51.267V41.2006C51.267 37.1713 53.067 36.3133 55.867 36.3133H58.067V39.5163L56.434 39.4837H56.433ZM74.733 49.4899C74.733 54.3772 71.633 57.284 67.2 57.284C62.8 57.284 59.7 54.3782 59.7 49.4899C59.7 44.6354 62.8 41.7296 67.2 41.7296C71.633 41.6959 74.733 44.6017 74.733 49.4899ZM63.433 49.4899C63.433 52.4948 65.066 53.9482 67.266 53.9482C69.633 53.9482 70.999 52.2967 70.999 49.4899C70.999 46.5178 69.366 45.0644 67.166 45.0644C64.8 45.0644 63.433 46.6822 63.433 49.4899ZM91.433 56.9531H87.9V54.8062C87.4786 55.5314 86.8637 56.1277 86.1229 56.5297C85.382 56.9316 84.5438 57.1237 83.7 57.0848C80.533 57.0848 78.267 55.0707 78.267 51.2396V41.9595H81.9V51.0087C81.9 53.0229 82.967 53.9145 84.533 53.9145C86.233 53.9145 87.8 52.6593 87.8 49.2254V41.9605H91.433V56.9531ZM109.566 47.2767V56.9531H105.933V47.6076C105.961 47.2376 105.906 46.866 105.772 46.5197C105.638 46.1734 105.427 45.8609 105.156 45.605C104.885 45.349 104.56 45.1559 104.205 45.0396C103.849 44.9233 103.472 44.8868 103.1 44.9326C100.933 44.9326 99.767 46.4187 99.767 48.8628V56.9531H96.134V42.0258H99.767V44.2054C100.216 43.4035 100.889 42.7467 101.704 42.3132C102.52 41.8798 103.444 41.6882 104.367 41.7613C107.8 41.6949 109.567 43.7428 109.567 47.2767H109.566ZM128.266 56.9531H124.666V54.6744C124.203 55.5201 123.505 56.2159 122.653 56.6786C121.802 57.1412 120.834 57.351 119.866 57.283C116.166 57.283 113.066 54.7071 113.066 49.4563C113.066 44.2718 116.166 41.7286 119.866 41.7286C120.782 41.68 121.695 41.8601 122.523 42.2526C123.35 42.645 124.064 43.2372 124.6 43.9746V36.2797H128.233L128.266 56.9531ZM124.699 49.4563C124.699 46.3523 122.699 44.899 120.732 44.899C118.599 44.899 116.799 46.385 116.799 49.4563C116.799 52.4611 118.599 53.9809 120.732 53.9809C122.7 53.9809 124.7 52.5275 124.7 49.4563H124.699ZM145.099 46.9131V56.9858H141.532V54.8062C141.035 55.5994 140.336 56.2489 139.506 56.6896C138.675 57.1303 137.742 57.3466 136.8 57.3167C134.4 57.3167 131.933 56.0287 131.933 52.8584C131.933 49.1264 135.366 48.4666 136.766 48.2684L139.899 47.8394C140.353 47.8563 140.795 47.6964 141.132 47.394C141.468 47.0917 141.672 46.6708 141.699 46.2216C141.699 45.0327 140.632 44.57 139.232 44.57C137.199 44.57 136.232 45.4944 136.065 46.7823H132.565C132.965 43.3148 135.965 41.7296 139.398 41.7296C142.931 41.6969 145.098 43.3812 145.098 46.9141L145.099 46.9131ZM141.566 50.6778V49.8853C140.986 50.1017 140.382 50.2457 139.766 50.3142L137.966 50.5451C137.033 50.6441 135.533 51.0731 135.533 52.5592C135.533 53.7154 136.433 54.2762 137.733 54.2762C138.225 54.298 138.717 54.2214 139.179 54.0508C139.64 53.8803 140.063 53.6195 140.42 53.2837C140.778 52.948 141.064 52.5443 141.261 52.0968C141.458 51.6492 141.561 51.167 141.566 50.6788V50.6778ZM157.4 56.9531H155C152.133 56.9531 150.367 56.0614 150.367 52.0658V45.2298H147.6V41.9932H150.367V38.6247L154 37.634V41.9932H157V45.2298H154V51.9668C154 52.9902 154.3 53.7501 155.8 53.7501H157.333L157.4 56.9531ZM160.567 35.8834H164.434V39.978H160.567V35.8834ZM160.667 56.9531H164.3V41.9932H160.667V56.9531ZM182.9 49.4899C182.9 54.3772 179.8 57.284 175.367 57.284C170.967 57.284 167.867 54.3782 167.867 49.4899C167.867 44.6354 170.967 41.7296 175.367 41.7296C179.834 41.6969 182.9 44.6027 182.9 49.4899ZM171.633 49.4899C171.633 52.4948 173.266 53.9482 175.466 53.9482C177.833 53.9482 179.199 52.2967 179.199 49.4899C179.199 46.5178 177.566 45.0644 175.366 45.0644C173 45.0644 171.633 46.6822 171.633 49.4899ZM200 47.2777V56.9531H196.367V47.6076C196.395 47.2376 196.34 46.866 196.206 46.5197C196.072 46.1734 195.861 45.8609 195.59 45.605C195.319 45.349 194.994 45.1559 194.639 45.0396C194.283 44.9233 193.906 44.8868 193.534 44.9326C191.367 44.9326 190.201 46.4187 190.201 48.8628V56.9531H186.568V42.0258H190.2V44.2054C190.649 43.4035 191.322 42.7467 192.137 42.3132C192.953 41.8798 193.877 41.6882 194.8 41.7613C198.233 41.6949 200.033 43.7428 200 47.2767V47.2777Z" fill="white"/>
</g>
<defs>
<clipPath id="clip0">
<rect width="200" height="67.7655" fill="white" transform="translate(0 0.415527)"/>
</clipPath>
</defs>
</svg>
