<svg xmlns="http://www.w3.org/2000/svg" xmlns:xlink="http://www.w3.org/1999/xlink" width="264" height="69.474" viewBox="0 0 264 69.474"><defs><style>.a{fill:none;}.b{fill:#282c57;}.c{fill:url(#a);}.d{fill:url(#b);}.e{fill:url(#c);}.f{fill:url(#d);}.g{fill:url(#e);}.h{fill:url(#f);}</style><linearGradient id="a" x1="-9.48" y1="0.5" x2="-8.48" y2="0.5" gradientUnits="objectBoundingBox"><stop offset="0" stop-color="#923967"/><stop offset="0.15" stop-color="#9b4568"/><stop offset="0.41" stop-color="#b4656c"/><stop offset="0.76" stop-color="#db9872"/><stop offset="1" stop-color="#f9c077"/></linearGradient><linearGradient id="b" x1="-19.038" y1="-0.078" x2="-17.688" y2="1.233" gradientUnits="objectBoundingBox"><stop offset="0" stop-color="#923967"/><stop offset="1" stop-color="#191f54"/></linearGradient><linearGradient id="c" x1="-0.097" y1="0.944" x2="1.27" y2="0.156" gradientUnits="objectBoundingBox"><stop offset="0" stop-color="#2e99e6"/><stop offset="0.14" stop-color="#2e96e2"/><stop offset="0.28" stop-color="#2d8cd5"/><stop offset="0.43" stop-color="#2c7dc1"/><stop offset="0.57" stop-color="#2b66a4"/><stop offset="0.72" stop-color="#2a4a7f"/><stop offset="0.85" stop-color="#282c57"/></linearGradient><linearGradient id="d" x1="0.5" y1="1" x2="1" gradientUnits="objectBoundingBox"><stop offset="0" stop-color="#4e85bc"/><stop offset="0.27" stop-color="#4d83b9"/><stop offset="0.44" stop-color="#4a7bb1"/><stop offset="0.58" stop-color="#456fa3"/><stop offset="0.7" stop-color="#3d5d8f"/><stop offset="0.81" stop-color="#334675"/><stop offset="0.9" stop-color="#282c57"/></linearGradient><linearGradient id="e" y1="0.5" x2="1" y2="0.5" gradientUnits="objectBoundingBox"><stop offset="0" stop-color="#9c5c7d"/><stop offset="0.18" stop-color="#a7687f"/><stop offset="0.5" stop-color="#c38885"/><stop offset="0.93" stop-color="#f0bb8d"/><stop offset="1" stop-color="#f8c58f"/></linearGradient><linearGradient id="f" x1="0.5" y1="1" x2="0.5" gradientUnits="objectBoundingBox"><stop offset="0" stop-color="#2d4570"/><stop offset="1" stop-color="#9c5c7d"/></linearGradient></defs><rect class="a" width="152" height="40"/><g transform="translate(13.895 15.632)"><g transform="translate(165.907 8.538)"><path class="b" d="M173.178,25.947h2.5V42.713h8.9V44.82h-11.4Z" transform="translate(-173.178 -25.548)"/><path class="b" d="M197.065,25.947h-1.638l-8.113,18.878h2.451l1.628-3.795.06-.14,1.433-3.4h0l.6-1.408.2-.474,2.5-5.892,2.427,5.662h0l2.407,5.647h-.025l1.628,3.795h2.576Z" transform="translate(-171.927 -25.548)"/><path class="b" d="M209.028,25.947h6.231c3.839,0,5.492,2.232,5.492,4.938a4.993,4.993,0,0,1-2,3.71,5.133,5.133,0,0,1,3,4.688c0,3.051-1.857,5.537-6.166,5.537h-6.556Zm6.231,7.8c2.357,0,3.081-1.413,3.081-2.861s-.724-2.831-3.081-2.831h-3.715v5.692Zm.315,8.987c2.831,0,3.68-1.7,3.68-3.43s-.849-3.425-3.68-3.425h-4.029v6.835Z" transform="translate(-170.004 -25.548)"/><path class="b" d="M226.174,42.965l.569-2.327a7.689,7.689,0,0,0,5.722,2.576c2.237,0,3.964-1.253,3.964-3.3,0-1.917-.944-3-4.464-3.934s-5.257-2.861-5.257-5.492,2.207-4.908,6.071-4.908a8.488,8.488,0,0,1,5.128,1.728l-.564,2a8.453,8.453,0,0,0-4.563-1.668c-2.357,0-3.71,1.1-3.71,2.866,0,1.353.849,2.5,3.8,3.27,4.059,1.068,5.916,2.831,5.916,5.946,0,3.68-3.086,5.567-6.326,5.567A8.957,8.957,0,0,1,226.174,42.965Z" transform="translate(-168.486 -25.58)"/></g><g transform="translate(47.517 8.323)"><path class="b" d="M64.417,45.038h3.006v-16.3H75.4v16.3H78.4v-19.3H64.417Z" transform="translate(-64.417 -25.352)"/><path class="b" d="M92.864,25.383A10.051,10.051,0,1,0,102.92,35.435,10.051,10.051,0,0,0,92.864,25.383Zm7.11,10.05a7.11,7.11,0,1,1-7.11-7.11,7.11,7.11,0,0,1,7.11,7.11Z" transform="translate(-62.787 -25.383)"/><path class="b" d="M107.2,45.052h3.006v-16.3h6.845v16.3h3.006v-16.3H126.9v16.3h3.006v-19.3H107.2Z" transform="translate(-60.629 -25.35)"/><path class="b" d="M159.966,40.089a7.03,7.03,0,1,1,.025-9.3l.215.25,2.447-1.628-.265-.32a9.951,9.951,0,1,0-.03,12.7l.265-.32-2.441-1.628Z" transform="translate(-57.304 -25.375)"/><rect class="b" width="3.006" height="19.297" transform="translate(77.948 0.404)"/></g><path class="c" d="M37.523,17.737,20.792,27.423l16.731,9.666,16.761-9.661Z" transform="translate(-20.762 -17.737)"/><path class="d" d="M20.794,26.635l-.03,19.352,16.761,9.671V36.3Z" transform="translate(-20.764 -16.949)"/><g transform="translate(19.712 13.041)"><path class="e" d="M50.162,44.261,38.873,50.776v2.906l13.81-7.969V29.727L50.162,31.18Z" transform="translate(-38.873 -29.717)"/><path class="f" d="M51.551,29.723l.01,0v-.01Z" transform="translate(-37.751 -29.718)"/></g><path class="g" d="M37.526,17.746,20.815,27.422l16.711,9.661,16.741-9.656Z" transform="translate(-20.76 -17.736)"/><path class="h" d="M20.817,26.635l-.03,19.332,16.741,9.666V36.3Z" transform="translate(-20.762 -16.949)"/></g></svg>