<svg width="496" height="792" fill="none" xmlns="http://www.w3.org/2000/svg"><path d="m224.1 169.1 20.88-13.36v-11.69l-20.88 13.36v11.69ZM57.05 169.1l-20.88-13.36v-11.69l20.88 13.36v11.69ZM191.47 136.53l11.75-7.51v-11.7l-20.88 13.33 9.13 5.88ZM182.34 169.1l20.88-13.36v-11.69l-20.88 13.36v11.69Z" stroke="#fff" stroke-width="1.18" stroke-linecap="round" stroke-linejoin="round"/><path d="m182.34 130.65 20.88 13.36-9.14 5.85-11.79-7.48.05-11.73ZM140.57 169.1l20.88-13.36v-11.69l-20.88 13.36v11.69ZM182.34 169.1l-20.88-13.36v-11.69l20.88 13.36v11.69ZM140.57 130.65l20.88 13.36-9.16 5.89-11.75-7.52.03-11.73ZM89.67 136.53l-11.74-7.51v-11.7l20.88 13.33-9.14 5.88ZM57.04 169.1l20.89-13.36v-11.69l-20.89 13.36v11.69Z" stroke="#fff" stroke-width="1.18" stroke-linecap="round" stroke-linejoin="round"/><path d="m98.81 130.65-20.88 13.4v11.69l20.88-13.36v-11.73ZM256.729 175.01l-11.75-7.52V155.8l20.88 13.36-9.13 5.85ZM224.1 207.58l20.88-13.36v-11.7l-20.88 13.37v11.69Z" stroke="#fff" stroke-width="1.18" stroke-linecap="round" stroke-linejoin="round"/><path d="m265.859 169.16-20.88 13.36v11.69l20.88-13.36v-11.69ZM295.88 173.32l11.74-7.52v-11.68l-20.88 13.36 9.14 5.84ZM286.74 205.89l20.88-13.36v-11.69l-20.88 13.36v11.69ZM328.51 205.89l-20.89-13.36v-11.69l20.89 13.36v11.69ZM286.74 167.48l20.88 13.36-9.13 5.81-11.75-7.51v-11.66ZM191.47 175.01l11.75-7.52V155.8l-20.88 13.36 9.13 5.85ZM214.96 175.01l-11.74-7.52V155.8l20.88 13.36-9.14 5.85ZM182.34 207.58l20.88-13.36v-11.7l-20.88 13.37v11.69ZM224.1 207.58l-20.88-13.36v-11.7l20.88 13.37v11.69Z" stroke="#fff" stroke-width="1.18" stroke-linecap="round" stroke-linejoin="round"/><path d="m182.34 169.16 20.88 13.36-9.14 5.85-11.79-7.52.05-11.69ZM224.1 169.16l-20.88 13.36 9.13 5.85 11.75-7.52v-11.69ZM149.71 175.01l11.74-7.52V155.8l-20.88 13.36 9.14 5.85Z" stroke="#fff" stroke-width="1.18" stroke-linecap="round" stroke-linejoin="round"/><path d="m173.2 175.01-11.75-7.52V155.8l20.89 13.36-9.14 5.85ZM140.57 207.58l20.88-13.36v-11.7l-20.88 13.37v11.69ZM182.34 207.58l-20.88-13.36v-11.7l20.88 13.37v11.69ZM140.57 169.16l20.88 13.36-9.16 5.85-11.75-7.52.03-11.69Z" stroke="#fff" stroke-width="1.18" stroke-linecap="round" stroke-linejoin="round"/><path d="m182.34 169.16-20.88 13.36 9.13 5.85 11.75-7.52v-11.69ZM131.439 175.01l-11.75-7.52V155.8l20.88 13.36-9.13 5.85ZM98.81 207.58l20.88-13.36v-11.7l-20.88 13.37v11.69Z" stroke="#fff" stroke-width="1.18" stroke-linecap="round" stroke-linejoin="round"/><path d="m140.569 207.58-20.88-13.36v-11.7l20.88 13.37v11.69Z" stroke="#fff" stroke-width="1.18" stroke-linecap="round" stroke-linejoin="round"/><path d="m98.81 169.16 20.88 13.36-9.13 5.85-11.75-7.52v-11.69Z" stroke="#fff" stroke-width="1.18" stroke-linecap="round" stroke-linejoin="round"/><path d="m140.569 169.16-20.88 13.36 9.13 5.85 11.75-7.52v-11.69ZM36.17 205.9l20.88-13.36v-11.69l-20.88 13.36v11.69ZM77.91 244.37l-20.88-13.36v-11.69l20.88 13.33v11.72ZM233.23 213.48l11.75-7.52v-11.69l-20.88 13.38 9.13 5.83ZM224.1 246.05l20.88-13.4V221l-20.88 13.36v11.69ZM286.739 244.59l-20.88-13.36v-11.69l20.88 13.36v11.69Z" stroke="#fff" stroke-width="1.18" stroke-linecap="round" stroke-linejoin="round"/><path d="m224.1 207.65 20.88 13.37-9.13 5.84-11.75-7.52v-11.69Z" stroke="#fff" stroke-width="1.18" stroke-linecap="round" stroke-linejoin="round"/><path d="m265.859 207.65-20.88 13.37 9.13 5.84 11.75-7.52v-11.69ZM191.47 213.48l11.75-7.52v-11.69l-20.88 13.38 9.13 5.83ZM214.96 213.48l-11.74-7.52v-11.69l20.88 13.38-9.14 5.83ZM182.34 246.05l20.88-13.4V221l-20.88 13.36v11.69ZM224.1 246.05l-20.88-13.4V221l20.88 13.36v11.69Z" stroke="#fff" stroke-width="1.18" stroke-linecap="round" stroke-linejoin="round"/><path d="m182.34 207.65 20.88 13.37-9.14 5.84-11.79-7.54.05-11.67ZM224.1 207.65l-20.88 13.37 9.13 5.84 11.75-7.52v-11.69ZM149.71 213.48l11.74-7.52v-11.69l-20.88 13.38 9.14 5.83Z" stroke="#fff" stroke-width="1.18" stroke-linecap="round" stroke-linejoin="round"/><path d="m173.2 213.48-11.75-7.52v-11.69l20.89 13.38-9.14 5.83ZM140.57 246.05l20.88-13.4V221l-20.88 13.36v11.69ZM182.34 246.05l-20.88-13.4V221l20.88 13.36v11.69Z" stroke="#fff" stroke-width="1.18" stroke-linecap="round" stroke-linejoin="round"/><path d="m140.57 207.65 20.88 13.37-9.16 5.82-11.75-7.52.03-11.67ZM182.34 207.65l-20.88 13.37 9.13 5.84 11.75-7.52v-11.69ZM107.94 213.48l11.75-7.52v-11.69l-20.88 13.38 9.13 5.83Z" stroke="#fff" stroke-width="1.18" stroke-linecap="round" stroke-linejoin="round"/><path d="m131.439 213.48-11.75-7.52v-11.69l20.88 13.38-9.13 5.83ZM98.81 246.05l20.88-13.4V221l-20.88 13.36v11.69Z" stroke="#fff" stroke-width="1.18" stroke-linecap="round" stroke-linejoin="round"/><path d="m140.569 246.05-20.88-13.4V221l20.88 13.36v11.69Z" stroke="#fff" stroke-width="1.18" stroke-linecap="round" stroke-linejoin="round"/><path d="m98.81 207.65 20.88 13.37-9.13 5.84-11.75-7.52v-11.69ZM140.569 207.65 119.689 221l9.13 5.84 11.75-7.52v-11.67ZM233.23 251.95l11.75-7.52v-11.68l-20.88 13.36 9.13 5.84Z" stroke="#fff" stroke-width="1.18" stroke-linecap="round" stroke-linejoin="round"/><path d="m256.729 251.95-11.75-7.52v-11.68l20.88 13.36-9.13 5.84ZM265.859 284.52l20.88-13.36v-11.7l-20.88 13.37v11.69ZM307.619 284.52l-20.88-13.36v-11.7l20.88 13.37v11.69ZM15.29 257.8l20.88-13.37v-11.68l-20.88 13.36v11.69ZM98.81 296.27l-20.88-13.36v-11.69l20.88 13.36v11.69ZM98.81 322.99l-20.88-13.34v-11.71l20.88 13.36v11.69ZM233.21 251.93l11.74-7.51v-11.69l-20.88 13.36 9.14 5.84ZM224.07 284.5l20.88-13.36v-11.69l-20.88 13.37v11.68ZM57.02 284.5l-20.88-13.36v-11.69l20.88 13.37v11.68Z" stroke="#fff" stroke-width="1.18" stroke-linecap="round" stroke-linejoin="round"/><path d="m224.07 246.09 20.88 13.36-9.13 5.85-11.75-7.52v-11.69ZM191.44 251.93l11.75-7.5v-11.7l-20.9 13.36 9.15 5.84ZM182.29 284.501l20.88-13.36v-11.69l-20.88 13.37v11.68ZM224.07 284.501l-20.88-13.36v-11.69l20.88 13.37v11.68Z" stroke="#fff" stroke-width="1.18" stroke-linecap="round" stroke-linejoin="round"/><path d="m182.29 246.09 20.88 13.37-9.14 5.84-11.74-7.52v-11.69ZM224.07 246.09l-20.88 13.36 9.13 5.85 11.75-7.52v-11.69ZM149.68 251.93l11.75-7.51v-11.69l-20.88 13.36 9.13 5.84Z" stroke="#fff" stroke-width="1.18" stroke-linecap="round" stroke-linejoin="round"/><path d="m173.18 251.93-11.75-7.51v-11.69l20.86 13.36-9.11 5.84ZM140.55 284.501l20.88-13.36v-11.69l-20.88 13.37v11.68Z" stroke="#fff" stroke-width="1.18" stroke-linecap="round" stroke-linejoin="round"/><path d="m182.29 284.501-20.88-13.36v-11.69l20.88 13.37v11.68Z" stroke="#fff" stroke-width="1.18" stroke-linecap="round" stroke-linejoin="round"/><path d="m140.55 246.09 20.88 13.36-9.14 5.85-11.75-7.52.01-11.69ZM182.29 246.09l-20.86 13.36 9.13 5.85 11.73-7.52v-11.69ZM107.92 251.93l11.75-7.51v-11.69l-20.89 13.36 9.14 5.84Z" stroke="#fff" stroke-width="1.18" stroke-linecap="round" stroke-linejoin="round"/><path d="m131.41 251.93-11.74-7.5v-11.7l20.88 13.36-9.14 5.84ZM98.78 284.501l20.89-13.36v-11.69l-20.89 13.37v11.68ZM140.55 284.501l-20.88-13.36v-11.69l20.88 13.37v11.68ZM98.78 246.09l20.89 13.36-9.14 5.85-11.75-7.52v-11.69Z" stroke="#fff" stroke-width="1.18" stroke-linecap="round" stroke-linejoin="round"/><path d="m140.55 246.09-20.88 13.37 9.13 5.84 11.75-7.52v-11.69ZM89.65 251.93l-11.75-7.51v-11.69l20.88 13.36-9.13 5.84ZM57.03 284.501l20.88-13.36v-11.69l-20.88 13.37v11.68Z" stroke="#fff" stroke-width="1.18" stroke-linecap="round" stroke-linejoin="round"/><path d="M98.78 246.09 77.9 259.45v11.69l20.88-13.36v-11.69ZM256.7 290.41l-11.74-7.52V271.2l20.88 13.37-9.14 5.84ZM224.07 322.98l20.88-13.33v-11.72l-20.88 13.36v11.69Z" stroke="#fff" stroke-width="1.18" stroke-linecap="round" stroke-linejoin="round"/><path d="m265.84 284.56-20.88 13.37v11.72l20.88-13.36v-11.73ZM295.85 315.761l11.75-7.51v-11.69l-20.88 13.37 9.13 5.83ZM286.72 348.331l20.88-13.36v-11.69l-20.88 13.37v11.68ZM328.48 348.331l-20.88-13.36v-11.69l20.88 13.37v11.68Z" stroke="#fff" stroke-width="1.18" stroke-linecap="round" stroke-linejoin="round"/><path d="m286.72 309.92 20.88 13.36-9.13 5.85-11.75-7.48v-11.73ZM15.29 246.1l-20.88-13.36v-11.69l20.88 13.37v11.68ZM15.29 361.49l-20.88-13.36v-11.69l20.88 13.36v11.69ZM191.44 290.41l11.75-7.52V271.2l-20.9 13.37 9.15 5.84ZM214.94 290.41l-11.75-7.52V271.2l20.88 13.37-9.13 5.84ZM182.29 322.98l20.9-13.33v-11.72l-20.9 13.36v11.69ZM224.07 322.98l-20.88-13.33v-11.72l20.88 13.36v11.69Z" stroke="#fff" stroke-width="1.18" stroke-linecap="round" stroke-linejoin="round"/><path d="m182.29 284.56 20.88 13.37-9.14 5.84-11.74-7.52v-11.69ZM224.07 284.56l-20.88 13.37 9.13 5.84 11.75-7.52v-11.69ZM149.68 290.41l11.75-7.52V271.2l-20.88 13.37 9.13 5.84Z" stroke="#fff" stroke-width="1.18" stroke-linecap="round" stroke-linejoin="round"/><path d="m173.18 290.41-11.75-7.52V271.2l20.86 13.37-9.11 5.84ZM140.55 322.98l20.88-13.33v-11.72l-20.88 13.36v11.69ZM182.29 322.98l-20.86-13.33v-11.72l20.86 13.36v11.69ZM140.55 284.56l20.88 13.37-9.14 5.84-11.75-7.52.01-11.69Z" stroke="#fff" stroke-width="1.18" stroke-linecap="round" stroke-linejoin="round"/><path d="m182.29 284.56-20.88 13.37 9.13 5.84 11.75-7.52v-11.69ZM131.41 290.41l-11.74-7.52V271.2l20.88 13.36-9.14 5.85ZM98.78 322.98l20.89-13.33v-11.72l-20.89 13.36v11.69ZM140.55 322.98l-20.88-13.33v-11.72l20.88 13.36v11.69ZM98.78 284.56l20.89 13.37-9.14 5.84-11.75-7.52v-11.69ZM140.55 284.56l-20.88 13.37 9.13 5.84 11.75-7.52v-11.69ZM36.14 321.31l20.88-13.37v-11.69l-20.88 13.4v11.66ZM233.21 328.88l11.74-7.52v-11.71l-20.88 13.36 9.14 5.87ZM224.07 361.45l20.88-13.37V336.4l-20.88 13.36v11.69ZM286.72 359.99l-20.88-13.34v-11.71l20.88 13.37v11.68Z" stroke="#fff" stroke-width="1.18" stroke-linecap="round" stroke-linejoin="round"/><path d="m224.07 323.041 20.88 13.36-9.13 5.84-11.75-7.52v-11.68ZM265.84 323.041l-20.89 13.36 9.14 5.84 11.75-7.52v-11.68ZM191.44 328.88l11.75-7.52v-11.71l-20.9 13.39 9.15 5.84ZM214.94 328.88l-11.75-7.52v-11.71l20.88 13.36-9.13 5.87ZM182.29 361.45l20.88-13.37V336.4l-20.88 13.36v11.69ZM224.07 361.45l-20.88-13.37V336.4l20.88 13.36v11.69Z" stroke="#fff" stroke-width="1.18" stroke-linecap="round" stroke-linejoin="round"/><path d="m182.29 323.041 20.88 13.36-9.14 5.84-11.74-7.52v-11.68ZM224.07 323.041l-20.88 13.36 9.13 5.84 11.75-7.52v-11.68ZM149.68 328.88l11.75-7.52v-11.71l-20.88 13.36 9.13 5.87ZM173.18 328.88l-11.75-7.52v-11.71l20.86 13.39-9.11 5.84ZM140.55 361.45l20.88-13.37V336.4l-20.88 13.36v11.69Z" stroke="#fff" stroke-width="1.18" stroke-linecap="round" stroke-linejoin="round"/><path d="m182.29 361.45-20.88-13.37V336.4l20.88 13.36v11.69Z" stroke="#fff" stroke-width="1.18" stroke-linecap="round" stroke-linejoin="round"/><path d="m140.55 323.041 20.88 13.36-9.14 5.84-11.75-7.52.01-11.68Z" stroke="#fff" stroke-width="1.18" stroke-linecap="round" stroke-linejoin="round"/><path d="m182.29 323.041-20.88 13.36 9.13 5.84 11.75-7.52v-11.68ZM107.92 328.88l11.75-7.52v-11.71l-20.89 13.36 9.14 5.87ZM131.41 328.88l-11.74-7.52v-11.71l20.88 13.36-9.14 5.87ZM98.78 361.45l20.89-13.37V336.4l-20.89 13.36v11.69ZM140.55 361.45l-20.88-13.37V336.4l20.88 13.36v11.69Z" stroke="#fff" stroke-width="1.18" stroke-linecap="round" stroke-linejoin="round"/><path d="m98.78 323.041 20.89 13.36-9.14 5.84-11.75-7.52v-11.68ZM140.55 323.041l-20.88 13.36 9.13 5.84 11.75-7.52v-11.68ZM57.03 361.449l20.88-13.37v-11.68l-20.88 13.36v11.69ZM57.03 323.039l20.88 13.36-9.14 5.84-11.75-7.52.01-11.68ZM233.21 367.35l11.74-7.51v-11.69l-20.88 13.36 9.14 5.84ZM256.7 367.35l-11.74-7.51v-11.69l20.88 13.36-9.14 5.84ZM265.84 399.921l20.88-13.36v-11.69l-20.88 13.36v11.69ZM307.601 399.921l-20.88-13.36v-11.69l20.88 13.36v11.69ZM224.07 361.51l20.88 13.36-9.13 5.84-11.75-7.51v-11.69ZM191.44 367.35l11.75-7.51v-11.69l-20.9 13.36 9.15 5.84ZM214.94 367.35l-11.75-7.51v-11.69l20.88 13.36-9.13 5.84ZM182.29 399.921l20.88-13.36v-11.69l-20.88 13.36v11.69ZM224.07 399.921l-20.88-13.36v-11.69l20.88 13.36v11.69Z" stroke="#fff" stroke-width="1.18" stroke-linecap="round" stroke-linejoin="round"/><path d="m182.29 361.51 20.88 13.36-9.14 5.84-11.74-7.51v-11.69ZM224.07 361.51l-20.88 13.36 9.13 5.84 11.75-7.51v-11.69ZM149.68 367.35l11.75-7.51v-11.69l-20.88 13.36 9.13 5.84Z" stroke="#fff" stroke-width="1.18" stroke-linecap="round" stroke-linejoin="round"/><path d="m173.18 367.35-11.75-7.51v-11.69l20.86 13.36-9.11 5.84ZM140.55 399.921l20.88-13.36v-11.69l-20.88 13.36v11.69Z" stroke="#fff" stroke-width="1.18" stroke-linecap="round" stroke-linejoin="round"/><path d="m182.29 399.921-20.88-13.36v-11.69l20.88 13.36v11.69Z" stroke="#fff" stroke-width="1.18" stroke-linecap="round" stroke-linejoin="round"/><path d="m140.55 361.51 20.88 13.36-9.14 5.84-11.75-7.51.01-11.69Z" stroke="#fff" stroke-width="1.18" stroke-linecap="round" stroke-linejoin="round"/><path d="m182.29 361.51-20.88 13.36 9.13 5.84 11.75-7.51v-11.69ZM107.92 367.35l11.75-7.51v-11.69l-20.89 13.36 9.14 5.84ZM131.41 367.35l-11.74-7.51v-11.69l20.88 13.36-9.14 5.84ZM98.78 399.921l20.89-13.36v-11.69l-20.89 13.36v11.69ZM140.55 399.921l-20.88-13.36v-11.69l20.88 13.36v11.69Z" stroke="#fff" stroke-width="1.18" stroke-linecap="round" stroke-linejoin="round"/><path d="m98.78 361.51 20.89 13.36-9.14 5.84-11.75-7.51v-11.69ZM140.55 361.51l-20.88 13.36 9.13 5.84 11.75-7.51v-11.69ZM57.03 373.2l20.88-13.36v-11.69l-20.88 13.36v11.69Z" stroke="#fff" stroke-width="1.18" stroke-linecap="round" stroke-linejoin="round"/><path d="m89.65 367.35-11.75-7.51v-11.69l20.88 13.36-9.13 5.84Z" stroke="#fff" stroke-width="1.18" stroke-linecap="round" stroke-linejoin="round"/><path d="M98.78 361.51 77.9 374.87v11.78l20.88-13.42v-11.72ZM15.29 373.2l20.88-13.36v-11.69l-20.88 13.36v11.69Z" stroke="#fff" stroke-width="1.18" stroke-linecap="round" stroke-linejoin="round"/><path d="m47.89 367.35-11.75-7.51v-11.69l20.88 13.36-9.13 5.84Z" stroke="#fff" stroke-width="1.18" stroke-linecap="round" stroke-linejoin="round"/><path d="m57.02 361.51-20.88 13.36v11.78l20.88-13.42v-11.72ZM224.07 411.65l20.88-13.36v-11.64l-20.88 13.36v11.64ZM256.7 405.82l-11.74-7.51v-11.66l20.88 13.36-9.14 5.81Z" stroke="#fff" stroke-width="1.18" stroke-linecap="round" stroke-linejoin="round"/><path d="m265.84 399.98-20.88 13.36.41 11.43 20.47-13.12v-11.67ZM191.44 405.82l11.75-7.51v-11.66l-20.9 13.33 9.15 5.84ZM214.94 405.82l-11.75-7.51v-11.66l20.88 13.36-9.13 5.81ZM224.07 438.39l-20.88-13.36v-11.69l20.88 13.36v11.69Z" stroke="#fff" stroke-width="1.18" stroke-linecap="round" stroke-linejoin="round"/><path d="m173.18 405.82-11.75-7.51v-11.66l20.86 13.33-9.11 5.84ZM140.55 438.39l20.88-13.36v-11.69l-20.88 13.36v11.69Z" stroke="#fff" stroke-width="1.18" stroke-linecap="round" stroke-linejoin="round"/><path d="m182.29 438.39-20.88-13.36v-11.69l20.88 13.36v11.69Z" stroke="#fff" stroke-width="1.18" stroke-linecap="round" stroke-linejoin="round"/><path d="m140.55 399.98 20.88 13.36-9.14 5.85-11.75-7.54.01-11.67Z" stroke="#fff" stroke-width="1.18" stroke-linecap="round" stroke-linejoin="round"/><path d="m182.29 399.98-20.88 13.36 9.13 5.85 11.75-7.54v-11.67ZM107.92 405.82l11.75-7.51v-11.66l-20.89 13.36 9.14 5.81Z" stroke="#fff" stroke-width="1.18" stroke-linecap="round" stroke-linejoin="round"/><path d="m98.78 399.98 20.89 13.36v11.69l-20.89-13.38v-11.67ZM57.03 411.65l20.88-13.36v-11.64l-20.88 13.36v11.64Z" stroke="#fff" stroke-width="1.18" stroke-linecap="round" stroke-linejoin="round"/><path d="M98.78 411.65 77.9 398.29v-11.64l20.88 13.36v11.64ZM233.1 444l11.75-7.52v-11.69l-20.89 13.36 9.14 5.85ZM223.96 476.56l20.89-13.36v-11.69l-20.89 13.37v11.68ZM56.91 476.56 36.03 463.2v-11.69l20.88 13.37v11.68Z" stroke="#fff" stroke-width="1.18" stroke-linecap="round" stroke-linejoin="round"/><path d="m223.96 438.15 20.89 13.36-9.14 5.85-11.75-7.52v-11.69ZM191.29 444l11.75-7.52v-11.69l-20.84 13.36 9.09 5.85ZM182.2 476.56l20.88-13.36v-11.69l-20.88 13.37v11.68ZM223.96 476.56l-20.88-13.36v-11.69l20.88 13.37v11.68Z" stroke="#fff" stroke-width="1.18" stroke-linecap="round" stroke-linejoin="round"/><path d="m182.2 438.15 20.88 13.36-9.13 5.85-11.75-7.52v-11.69ZM223.96 438.15l-20.88 13.36 9.14 5.85 11.75-7.52-.01-11.69ZM149.57 444l11.72-7.52v-11.69l-20.85 13.36 9.13 5.85ZM173.07 444l-11.78-7.52v-11.69l20.88 13.36-9.1 5.85ZM140.44 476.56l20.85-13.36v-11.69l-20.88 13.37.03 11.68ZM182.2 476.56l-20.91-13.36v-11.69l20.88 13.37.03 11.68Z" stroke="#fff" stroke-width="1.18" stroke-linecap="round" stroke-linejoin="round"/><path d="m140.44 438.15 20.85 13.36-9.13 5.85-11.75-7.52.03-11.69ZM182.2 438.15l-20.91 13.36 9.13 5.85 11.75-7.52.03-11.69ZM107.811 444l11.75-7.52v-11.69l-20.88 13.36 9.13 5.85Z" stroke="#fff" stroke-width="1.18" stroke-linecap="round" stroke-linejoin="round"/><path d="m131.291 444-11.75-7.52v-11.69l20.88 13.36-9.13 5.85ZM98.68 476.56l20.881-13.36v-11.69l-20.88 13.37v11.68ZM140.441 476.56l-20.88-13.36v-11.69l20.88 13.37v11.68ZM98.68 438.15l20.881 13.36-9.14 5.85-11.75-7.52.01-11.69Z" stroke="#fff" stroke-width="1.18" stroke-linecap="round" stroke-linejoin="round"/><path d="m140.441 438.15-20.88 13.36 9.13 5.85 11.75-7.52v-11.69ZM89.54 444l-11.75-7.52v-11.69l20.89 13.36-9.14 5.85ZM56.91 476.56l20.88-13.36v-11.69l-20.88 13.37v11.68Z" stroke="#fff" stroke-width="1.18" stroke-linecap="round" stroke-linejoin="round"/><path d="M98.68 438.15 77.8 451.51v11.69l20.88-13.36v-11.69ZM256.59 482.47l-11.74-7.52v-11.69l20.88 13.39-9.14 5.82ZM223.96 515.04l20.89-13.39v-11.66l-20.89 13.36v11.69Z" stroke="#fff" stroke-width="1.18" stroke-linecap="round" stroke-linejoin="round"/><path d="m265.73 476.65-20.88 13.37v11.63l20.88-13.36v-11.64ZM295.74 480.78l11.75-7.52v-11.68l-20.88 13.36 9.13 5.84ZM286.61 513.35l20.88-13.36V488.3l-20.88 13.35v11.7ZM328.37 513.35l-20.88-13.36V488.3l20.88 13.35v11.7Z" stroke="#fff" stroke-width="1.18" stroke-linecap="round" stroke-linejoin="round"/><path d="m286.61 474.94 20.88 13.36-9.13 5.85-11.75-7.5v-11.71ZM191.29 482.47l11.75-7.52v-11.69l-20.84 13.39 9.09 5.82ZM214.83 482.47l-11.75-7.52v-11.69l20.88 13.39-9.13 5.82ZM182.2 515.04l20.88-13.39v-11.66l-20.88 13.36v11.69ZM223.96 515.04l-20.88-13.39v-11.66l20.88 13.36v11.69Z" stroke="#fff" stroke-width="1.18" stroke-linecap="round" stroke-linejoin="round"/><path d="m182.2 476.65 20.88 13.37-9.13 5.84-11.75-7.52v-11.69ZM223.96 476.65l-20.88 13.37 9.14 5.84 11.75-7.52-.01-11.69ZM149.57 482.47l11.72-7.52v-11.69l-20.85 13.39 9.13 5.82ZM173.07 482.47l-11.78-7.52v-11.69l20.91 13.39-9.13 5.82ZM140.44 515.04l20.85-13.39v-11.66l-20.85 13.36v11.69ZM182.2 515.04l-20.91-13.39v-11.66l20.88 13.36.03 11.69Z" stroke="#fff" stroke-width="1.18" stroke-linecap="round" stroke-linejoin="round"/><path d="m140.44 476.65 20.85 13.34-9.13 5.84-11.75-7.52.03-11.66ZM182.2 476.65l-20.91 13.34 9.13 5.84 11.75-7.52.03-11.66Z" stroke="#fff" stroke-width="1.18" stroke-linecap="round" stroke-linejoin="round"/><path d="m131.291 482.47-11.75-7.52v-11.69l20.9 13.39-9.15 5.82ZM98.68 515.04l20.881-13.39v-11.66l-20.88 13.36v11.69ZM140.441 515.04l-20.88-13.39v-11.66l20.88 13.36v11.69Z" stroke="#fff" stroke-width="1.18" stroke-linecap="round" stroke-linejoin="round"/><path d="m98.68 476.65 20.881 13.37-9.14 5.84-11.75-7.52.01-11.69ZM140.441 476.65l-20.88 13.37 9.13 5.84 11.75-7.52v-11.69ZM66.05 482.47l11.74-7.52v-11.69l-20.88 13.39 9.14 5.82ZM36.03 513.36 56.91 500v-11.69l-20.88 13.34v11.71ZM98.68 515.04 77.8 501.65v-11.66l20.88 13.36v11.69Z" stroke="#fff" stroke-width="1.18" stroke-linecap="round" stroke-linejoin="round"/><path d="M98.68 488.31 77.8 474.95v-11.69l20.88 13.39v11.66ZM56.91 476.65l20.88 13.37-9.13 5.84-11.75-7.52v-11.69ZM233.1 520.94l11.75-7.52v-11.69l-20.89 13.37 9.14 5.84ZM223.96 553.51l20.89-13.36v-11.69l-20.89 13.36v11.69ZM286.61 552.05l-20.88-13.4V527l20.88 13.37v11.68Z" stroke="#fff" stroke-width="1.18" stroke-linecap="round" stroke-linejoin="round"/><path d="m223.96 515.1 20.89 13.36-9.14 5.84-11.75-7.52V515.1ZM265.73 515.1l-20.88 13.36 9.13 5.84 11.75-7.52V515.1ZM191.29 520.94l11.75-7.52v-11.69l-20.88 13.37 9.13 5.84ZM214.83 520.94l-11.75-7.52v-11.69l20.88 13.37-9.13 5.84ZM182.2 553.51l20.88-13.36v-11.69l-20.88 13.36v11.69ZM223.96 553.51l-20.88-13.36v-11.69l20.88 13.36v11.69Z" stroke="#fff" stroke-width="1.18" stroke-linecap="round" stroke-linejoin="round"/><path d="m182.2 515.1 20.88 13.36-9.13 5.84-11.75-7.52V515.1ZM223.96 515.1l-20.88 13.36 9.14 5.84 11.75-7.52-.01-11.68ZM149.57 520.94l11.72-7.52v-11.69l-20.88 13.37 9.16 5.84ZM173.07 520.94l-11.78-7.52v-11.69l20.88 13.37-9.1 5.84ZM140.44 553.51l20.85-13.36v-11.69l-20.88 13.36.03 11.69ZM182.2 553.51l-20.91-13.36v-11.69l20.88 13.36.03 11.69Z" stroke="#fff" stroke-width="1.18" stroke-linecap="round" stroke-linejoin="round"/><path d="m140.44 515.1 20.85 13.36-9.13 5.84-11.75-7.52.03-11.68ZM182.2 515.1l-20.91 13.36 9.13 5.84 11.75-7.52.03-11.68ZM107.811 520.94l11.75-7.52v-11.69l-20.88 13.37 9.13 5.84Z" stroke="#fff" stroke-width="1.18" stroke-linecap="round" stroke-linejoin="round"/><path d="m131.291 520.94-11.75-7.52v-11.69l20.88 13.37-9.13 5.84ZM98.68 553.51l20.881-13.36v-11.69l-20.88 13.36v11.69ZM140.441 553.51l-20.88-13.36v-11.69l20.88 13.36v11.69Z" stroke="#fff" stroke-width="1.18" stroke-linecap="round" stroke-linejoin="round"/><path d="m98.68 515.1 20.881 13.36-9.14 5.84-11.75-7.52.01-11.68ZM140.441 515.1l-20.88 13.36 9.13 5.84 11.75-7.52V515.1ZM66.05 520.94l11.74-7.52v-11.69L56.91 515.1l9.14 5.84ZM89.54 520.94l-11.75-7.52v-11.69l20.89 13.37-9.14 5.84ZM56.91 553.51l20.88-13.36v-11.69l-20.88 13.36v11.69Z" stroke="#fff" stroke-width="1.18" stroke-linecap="round" stroke-linejoin="round"/><path d="m56.91 515.1 20.88 13.36-9.13 5.84-11.75-7.52V515.1ZM233.1 559.41l11.75-7.52v-11.68l-20.89 13.36 9.14 5.84Z" stroke="#fff" stroke-width="1.18" stroke-linecap="round" stroke-linejoin="round"/><path d="m256.59 559.41-11.74-7.52v-11.68l20.88 13.36-9.14 5.84ZM265.73 591.98l20.88-13.33v-11.72l-20.88 13.36v11.69ZM307.49 591.98l-20.88-13.33v-11.72l20.88 13.36v11.69ZM223.96 553.57l20.89 13.36-9.14 5.84-11.75-7.51v-11.69ZM191.29 559.41l11.75-7.52v-11.68l-20.88 13.36 9.13 5.84ZM214.83 559.41l-11.75-7.52v-11.68l20.88 13.36-9.13 5.84ZM182.2 591.98l20.88-13.33v-11.72l-20.88 13.36v11.69ZM223.96 591.98l-20.88-13.33v-11.72l20.88 13.36v11.69Z" stroke="#fff" stroke-width="1.18" stroke-linecap="round" stroke-linejoin="round"/><path d="m182.2 553.57 20.88 13.36-9.13 5.84-11.75-7.51v-11.69ZM223.96 553.57l-20.88 13.36 9.14 5.84 11.75-7.51-.01-11.69ZM149.57 559.41l11.72-7.51v-11.69l-20.88 13.36 9.16 5.84ZM173.07 559.41l-11.78-7.52v-11.68l20.88 13.36-9.1 5.84ZM140.44 591.98l20.85-13.33v-11.72l-20.88 13.36.03 11.69ZM182.2 591.98l-20.91-13.33v-11.72l20.88 13.36.03 11.69Z" stroke="#fff" stroke-width="1.18" stroke-linecap="round" stroke-linejoin="round"/><path d="m140.44 553.57 20.85 13.36-9.13 5.84-11.75-7.51.03-11.69ZM182.2 553.57l-20.91 13.36 9.13 5.84 11.75-7.51.03-11.69ZM107.811 559.41l11.75-7.52v-11.68l-20.88 13.36 9.13 5.84Z" stroke="#fff" stroke-width="1.18" stroke-linecap="round" stroke-linejoin="round"/><path d="m131.291 559.41-11.75-7.52v-11.68l20.88 13.36-9.13 5.84ZM98.68 591.98l20.881-13.33v-11.72l-20.88 13.36v11.69ZM140.441 591.98l-20.88-13.33v-11.72l20.88 13.36v11.69Z" stroke="#fff" stroke-width="1.18" stroke-linecap="round" stroke-linejoin="round"/><path d="m98.68 553.57 20.881 13.36-9.14 5.84-11.75-7.51.01-11.69ZM140.441 553.57l-20.88 13.36 9.13 5.84 11.75-7.51v-11.69ZM56.91 565.26l20.88-13.36v-11.69l-20.88 13.36v11.69ZM89.54 559.41l-11.75-7.52v-11.68l20.89 13.36-9.14 5.84Z" stroke="#fff" stroke-width="1.18" stroke-linecap="round" stroke-linejoin="round"/><path d="M98.68 553.57 77.8 566.93v11.72l20.88-13.42v-11.66ZM411.881 682.5l20.88-13.36v-11.69l-20.88 13.37v11.68ZM379.29 649.94l11.75-7.52v-11.69l-20.88 13.36 9.13 5.85ZM370.12 682.5 391 669.14v-11.69l-20.88 13.37v11.68ZM411.88 682.5 391 669.14v-11.69l20.88 13.37v11.68Z" stroke="#fff" stroke-width="1.18" stroke-linecap="round" stroke-linejoin="round"/><path d="M370.12 644.09 391 657.45l-9.14 5.85-11.74-7.52v-11.69ZM337.49 649.94l11.8-7.52v-11.69l-20.88 13.36 9.08 5.85ZM328.36 682.5l20.93-13.36v-11.69l-20.88 13.37-.05 11.68Z" stroke="#fff" stroke-width="1.18" stroke-linecap="round" stroke-linejoin="round"/><path d="m370.12 682.5-20.89-13.36v-11.69l20.89 13.37v11.68Z" stroke="#fff" stroke-width="1.18" stroke-linecap="round" stroke-linejoin="round"/><path d="m328.36 644.09 20.93 13.36-9.14 5.85-11.74-7.52-.05-11.69ZM370.12 720.97l-20.89-13.32v-11.72l20.89 13.36v11.68ZM370.12 682.56l-20.89 13.37 9.14 5.84 11.75-7.52v-11.69ZM421.011 726.88l11.75-7.52v-11.71l-20.88 13.37 9.13 5.86ZM411.881 759.45l20.88-13.36V734.4l-20.88 13.36v11.69ZM474.521 757.99l-20.88-13.34v-11.71l20.88 13.37v11.68ZM411.881 721.04l20.88 13.36-9.13 5.84-11.75-7.52v-11.68ZM453.641 721.04l-20.88 13.36 9.13 5.84 11.75-7.52v-11.68ZM402.75 726.88 391 719.36v-11.71l20.88 13.37-9.13 5.86ZM411.88 759.45 391 746.09V734.4l20.88 13.36v11.69ZM411.88 721.04 391 734.4l9.13 5.84 11.75-7.52v-11.68ZM328.36 759.45l20.93-13.36V734.4l-20.88 13.36-.05 11.69Z" stroke="#fff" stroke-width="1.18" stroke-linecap="round" stroke-linejoin="round"/><path d="m370.12 759.45-20.89-13.36V734.4l20.89 13.36v11.69Z" stroke="#fff" stroke-width="1.18" stroke-linecap="round" stroke-linejoin="round"/><path d="m328.36 721.04 20.93 13.36-9.14 5.84-11.74-7.52-.05-11.68Z" stroke="#fff" stroke-width="1.18" stroke-linecap="round" stroke-linejoin="round"/><path d="m370.12 721.04-20.89 13.36 9.14 5.84 11.75-7.52v-11.68ZM295.721 726.88l11.75-7.52v-11.71l-20.88 13.39 9.13 5.84ZM319.221 726.88l-11.75-7.52v-11.71l20.88 13.37-9.13 5.86ZM286.591 759.45l20.88-13.36V734.4l-20.88 13.36v11.69ZM328.351 759.45l-20.88-13.36V734.4l20.88 13.36v11.69ZM286.591 721.04l20.88 13.36-9.13 5.84-11.75-7.52v-11.68ZM328.351 721.04l-20.88 13.36 9.13 5.84 11.75-7.52v-11.68ZM421.011 765.35l11.75-7.51v-11.69l-20.88 13.36 9.13 5.84ZM444.511 765.35l-11.75-7.51v-11.69l20.88 13.36-9.13 5.84ZM453.641 797.92l20.88-13.36v-11.69l-20.88 13.36v11.69ZM495.401 797.92l-20.88-13.36v-11.69l20.88 13.36v11.69ZM411.881 759.51l20.88 13.36-9.13 5.84-11.75-7.51v-11.69ZM370.12 797.92 391 784.56v-11.69l-20.88 13.36v11.69ZM411.88 797.92 391 784.56v-11.69l20.88 13.36v11.69Z" stroke="#fff" stroke-width="1.18" stroke-linecap="round" stroke-linejoin="round"/><path d="M370.12 759.51 391 772.87l-9.14 5.84-11.74-7.52v-11.68ZM411.88 759.51 391 772.87l9.13 5.84 11.75-7.51v-11.69ZM328.36 797.92l20.93-13.36v-11.69l-20.88 13.36-.05 11.69ZM295.721 765.35l11.75-7.51v-11.69l-20.88 13.36 9.13 5.84ZM319.221 765.35l-11.75-7.51v-11.69l20.88 13.36-9.13 5.84ZM286.591 797.92l20.88-13.36v-11.69l-20.88 13.36v11.69ZM328.351 797.92l-20.88-13.36v-11.69l20.88 13.36v11.69Z" stroke="#fff" stroke-width="1.18" stroke-linecap="round" stroke-linejoin="round"/><path d="m286.591 759.51 20.88 13.36-9.13 5.84-11.75-7.51v-11.69ZM244.83 771.2l20.88-13.36v-11.69l-20.88 13.36v11.69Z" stroke="#fff" stroke-width="1.18" stroke-linecap="round" stroke-linejoin="round"/><path d="m277.46 765.35-11.75-7.51v-11.69l20.88 13.36-9.13 5.84ZM286.59 759.51l-20.88 13.36v11.78l20.88-13.42v-11.72ZM15.15 565.26l20.88-13.36v-11.69l-20.88 13.36v11.69ZM47.78 559.41l-11.75-7.52v-11.68l20.88 13.36-9.13 5.84ZM56.91 553.57l-20.88 13.36v11.72l20.88-13.42v-11.66ZM317.931 565.26l20.88-13.36v-11.69l-20.88 13.36v11.69ZM350.561 559.41l-11.75-7.52v-11.68l20.89 13.36-9.14 5.84ZM359.701 553.57l-20.89 13.36v11.72l20.89-13.42v-11.66ZM286.61 244.5l20.88-13.36v-11.68l-20.88 13.36v11.68ZM328.37 232.82l-20.88 13.36v11.75l20.88-13.43v-11.68ZM223.96 603.73l20.89-13.36v-11.72l-20.89 13.36v11.72Z" stroke="#fff" stroke-width="1.18" stroke-linecap="round" stroke-linejoin="round"/><path d="m256.59 597.88-11.74-7.51v-11.72l20.88 13.36-9.14 5.87ZM265.73 592.04l-20.88 13.36.41 11.43 20.47-13.1v-11.69ZM191.29 597.88l11.75-7.51v-11.72l-20.88 13.36 9.13 5.87ZM214.83 597.88l-11.75-7.51v-11.72l20.88 13.36-9.13 5.87ZM223.96 630.45l-20.88-13.36V605.4l20.88 13.36v11.69Z" stroke="#fff" stroke-width="1.18" stroke-linecap="round" stroke-linejoin="round"/><path d="m173.07 597.88-11.78-7.51v-11.72l20.88 13.36-9.1 5.87ZM140.44 630.45l20.85-13.36V605.4l-20.88 13.36.03 11.69ZM182.2 630.45l-20.91-13.36V605.4l20.88 13.36.03 11.69Z" stroke="#fff" stroke-width="1.18" stroke-linecap="round" stroke-linejoin="round"/><path d="m140.44 592.04 20.85 13.36-9.13 5.85-11.75-7.52.03-11.69ZM182.2 592.04l-20.91 13.36 9.13 5.85 11.75-7.52.03-11.69ZM56.92 603.73l20.88-13.36v-11.72l-20.88 13.36v11.72ZM98.68 603.73 77.8 590.37v-11.72l20.88 13.36v11.72ZM98.68 630.45 77.8 617.09V605.4l20.88 13.36v11.69ZM3.38 380.53l11.74-7.52v-11.69l-20.83 13.33 9.09 5.88ZM-5.71 413.09l20.88-13.36v-11.69l-20.88 13.37v11.68ZM56.89 411.65l-20.88-13.36v-11.7l20.88 13.36v11.7ZM-5.71 374.65l20.88 13.36-9.13 5.85-11.75-7.49v-11.72Z" stroke="#fff" stroke-width="1.18" stroke-linecap="round" stroke-linejoin="round"/><path d="m36.01 374.65-20.89 13.36 9.14 5.85 11.75-7.52v-11.69ZM36.01 451.57l20.88-13.37v-11.68l-20.88 13.36v11.69ZM57.02 592.159l-20.88-13.36v-11.69l20.88 13.36v11.69ZM89.65 559.651l-11.75-7.52v-11.74l20.88 13.37-9.13 5.89ZM57.03 592.171l20.88-13.37v-11.69l-20.88 13.36v11.7Z" stroke="#fff" stroke-width="1.18" stroke-linecap="round" stroke-linejoin="round"/><path d="M98.78 553.75 77.9 567.12v11.681l20.88-13.361v-11.69ZM224.07 630.65l20.88-13.36v-11.7l-20.88 13.36v11.7ZM295.85 623.421l11.75-7.51v-11.69l-20.88 13.36 9.13 5.84ZM286.72 655.99l20.88-13.34v-11.71l-20.88 13.36v11.69ZM328.48 655.99l-20.88-13.34v-11.71l20.88 13.36v11.69Z" stroke="#fff" stroke-width="1.18" stroke-linecap="round" stroke-linejoin="round"/><path d="m286.72 617.581 20.88 13.36-9.13 5.85-11.75-7.52v-11.69ZM15.29 553.77-5.59 540.4v-11.68l20.88 13.36v11.69ZM15.29 669.151l-20.88-13.36v-11.69l20.88 13.36v11.69ZM182.29 630.651l20.88-13.36v-11.7l-20.88 13.36v11.7ZM224.07 630.651l-20.88-13.37v-11.69l20.88 13.36v11.7ZM182.29 592.221l20.88 13.36-9.14 5.85-11.74-7.52v-11.69ZM224.07 592.221l-20.88 13.36 9.13 5.85 11.75-7.52v-11.69ZM149.68 598.069l11.75-7.52v-11.69l-20.88 13.37 9.13 5.84Z" stroke="#fff" stroke-width="1.18" stroke-linecap="round" stroke-linejoin="round"/><path d="m173.18 598.069-11.75-7.52v-11.69l20.86 13.37-9.11 5.84ZM140.55 630.649l20.88-13.36v-11.7l-20.88 13.36v11.7Z" stroke="#fff" stroke-width="1.18" stroke-linecap="round" stroke-linejoin="round"/><path d="m182.29 630.649-20.88-13.36v-11.7l20.88 13.36v11.7Z" stroke="#fff" stroke-width="1.18" stroke-linecap="round" stroke-linejoin="round"/><path d="m140.55 592.219 20.88 13.36-9.14 5.85-11.75-7.52.01-11.69Z" stroke="#fff" stroke-width="1.18" stroke-linecap="round" stroke-linejoin="round"/><path d="m182.29 592.219-20.88 13.36 9.13 5.85 11.75-7.52v-11.69ZM98.78 630.651l20.89-13.36v-11.7l-20.89 13.36v11.7ZM140.55 630.651l-20.88-13.36v-11.7l20.88 13.36v11.7ZM98.78 592.221l20.89 13.36-9.14 5.85-11.75-7.52v-11.69ZM140.55 592.221l-20.88 13.36 9.13 5.85 11.75-7.52v-11.69ZM66.16 598.069l11.75-7.52v-11.69l-20.88 13.37 9.13 5.84ZM36.14 628.959l20.88-13.31v-11.74l-20.88 13.37v11.68ZM98.78 630.649l-20.88-13.36v-11.7l20.88 13.36v11.7Z" stroke="#fff" stroke-width="1.18" stroke-linecap="round" stroke-linejoin="round"/><path d="m98.78 603.909-20.88-13.36v-11.69l20.88 13.37v11.68ZM57.03 592.219l20.88 13.36-9.14 5.85-11.75-7.52.01-11.69ZM233.21 636.54l11.74-7.52v-11.68l-20.88 13.36 9.14 5.84ZM224.07 669.11l20.88-13.36v-11.69l-20.88 13.36v11.69ZM286.72 667.65l-20.88-13.37v-11.63l20.88 13.36v11.64Z" stroke="#fff" stroke-width="1.18" stroke-linecap="round" stroke-linejoin="round"/><path d="m224.07 630.7 20.88 13.36-9.13 5.84-11.75-7.51V630.7ZM265.84 630.7l-20.89 13.36 9.14 5.84 11.75-7.51V630.7ZM191.44 636.54l11.75-7.52v-11.68l-20.9 13.36 9.15 5.84ZM214.94 636.54l-11.75-7.52v-11.68l20.88 13.36-9.13 5.84ZM182.29 669.11l20.9-13.36v-11.69l-20.9 13.36v11.69ZM224.07 669.11l-20.88-13.36v-11.69l20.88 13.36v11.69ZM182.29 630.7l20.88 13.36-9.14 5.84-11.74-7.51V630.7Z" stroke="#fff" stroke-width="1.18" stroke-linecap="round" stroke-linejoin="round"/><path d="m224.07 630.7-20.88 13.36 9.13 5.84 11.75-7.51V630.7ZM149.68 636.54l11.75-7.52v-11.68l-20.88 13.36 9.13 5.84ZM173.18 636.54l-11.75-7.52v-11.68l20.86 13.36-9.11 5.84ZM140.55 669.11l20.88-13.36v-11.69l-20.88 13.36v11.69ZM182.29 669.11l-20.86-13.36v-11.69l20.86 13.36v11.69Z" stroke="#fff" stroke-width="1.18" stroke-linecap="round" stroke-linejoin="round"/><path d="m140.55 630.7 20.88 13.36-9.14 5.84-11.75-7.51.01-11.69Z" stroke="#fff" stroke-width="1.18" stroke-linecap="round" stroke-linejoin="round"/><path d="m182.29 630.7-20.88 13.36 9.13 5.84 11.75-7.51V630.7ZM107.92 636.54l11.75-7.52v-11.68L98.78 630.7l9.14 5.84ZM131.41 636.54l-11.74-7.52v-11.68l20.88 13.36-9.14 5.84ZM98.78 669.11l20.89-13.36v-11.69l-20.89 13.36v11.69ZM140.55 669.11l-20.88-13.36v-11.69l20.88 13.36v11.69Z" stroke="#fff" stroke-width="1.18" stroke-linecap="round" stroke-linejoin="round"/><path d="m98.78 630.7 20.89 13.36-9.14 5.84-11.75-7.51V630.7ZM140.55 630.7l-20.88 13.36 9.13 5.84 11.75-7.51V630.7ZM66.16 636.54l11.74-7.52v-11.68L57.02 630.7l9.14 5.84ZM89.65 636.54l-11.75-7.52v-11.68l20.88 13.36-9.13 5.84ZM57.03 669.11l20.88-13.36v-11.69l-20.88 13.36v11.69Z" stroke="#fff" stroke-width="1.18" stroke-linecap="round" stroke-linejoin="round"/><path d="m57.03 630.7 20.88 13.36-9.14 5.84-11.75-7.51.01-11.69ZM233.21 675.011l11.74-7.51v-11.69l-20.88 13.36 9.14 5.84ZM256.7 675.011l-11.74-7.51v-11.69l20.88 13.36-9.14 5.84ZM265.84 707.581l20.88-13.36v-11.69l-20.88 13.36v11.69ZM307.601 707.581l-20.88-13.36v-11.69l20.88 13.36v11.69ZM224.07 669.17l20.88 13.36-9.13 5.85-11.75-7.52v-11.69ZM191.44 675.011l11.75-7.51v-11.69l-20.9 13.36 9.15 5.84ZM214.94 675.011l-11.75-7.51v-11.69l20.88 13.36-9.13 5.84ZM182.29 707.581l20.88-13.36v-11.69l-20.88 13.36v11.69ZM224.07 707.581l-20.88-13.36v-11.69l20.88 13.36v11.69Z" stroke="#fff" stroke-width="1.18" stroke-linecap="round" stroke-linejoin="round"/><path d="m182.29 669.17 20.88 13.36-9.14 5.85-11.74-7.52v-11.69ZM224.07 669.17l-20.88 13.36 9.13 5.85 11.75-7.52v-11.69ZM149.68 675.011l11.75-7.51v-11.69l-20.88 13.36 9.13 5.84Z" stroke="#fff" stroke-width="1.18" stroke-linecap="round" stroke-linejoin="round"/><path d="m173.18 675.011-11.75-7.51v-11.69l20.86 13.36-9.11 5.84ZM140.55 707.581l20.88-13.36v-11.69l-20.88 13.36v11.69Z" stroke="#fff" stroke-width="1.18" stroke-linecap="round" stroke-linejoin="round"/><path d="m182.29 707.581-20.88-13.36v-11.69l20.88 13.36v11.69Z" stroke="#fff" stroke-width="1.18" stroke-linecap="round" stroke-linejoin="round"/><path d="m140.55 669.17 20.88 13.36-9.14 5.85-11.75-7.52.01-11.69Z" stroke="#fff" stroke-width="1.18" stroke-linecap="round" stroke-linejoin="round"/><path d="m182.29 669.17-20.88 13.36 9.13 5.85 11.75-7.52v-11.69ZM107.92 675.011l11.75-7.51v-11.69l-20.89 13.36 9.14 5.84ZM131.41 675.011l-11.74-7.51v-11.69l20.88 13.36-9.14 5.84ZM98.78 707.581l20.89-13.36v-11.69l-20.89 13.36v11.69ZM140.55 707.581l-20.88-13.36v-11.69l20.88 13.36v11.69Z" stroke="#fff" stroke-width="1.18" stroke-linecap="round" stroke-linejoin="round"/><path d="m98.78 669.17 20.89 13.36-9.14 5.85-11.75-7.52v-11.69ZM140.55 669.17l-20.88 13.36 9.13 5.85 11.75-7.52v-11.69ZM57.03 680.861l20.88-13.36v-11.69l-20.88 13.36v11.69Z" stroke="#fff" stroke-width="1.18" stroke-linecap="round" stroke-linejoin="round"/><path d="m89.65 675.011-11.75-7.51v-11.69l20.88 13.36-9.13 5.84Z" stroke="#fff" stroke-width="1.18" stroke-linecap="round" stroke-linejoin="round"/><path d="M98.78 669.17 77.9 682.53v11.75l20.88-13.42v-11.69ZM15.29 680.861l20.88-13.36v-11.69l-20.88 13.36v11.69Z" stroke="#fff" stroke-width="1.18" stroke-linecap="round" stroke-linejoin="round"/><path d="m47.89 675.011-11.75-7.51v-11.69l20.88 13.36-9.13 5.84Z" stroke="#fff" stroke-width="1.18" stroke-linecap="round" stroke-linejoin="round"/><path d="m57.02 669.17-20.88 13.36v11.75l20.88-13.42v-11.69ZM224.07 719.329l20.88-13.36v-11.69l-20.88 13.37v11.68ZM256.7 713.489l-11.74-7.52v-11.69l20.88 13.37-9.14 5.84Z" stroke="#fff" stroke-width="1.18" stroke-linecap="round" stroke-linejoin="round"/><path d="m265.84 707.649-20.88 13.36.41 11.43 20.47-13.1v-11.69ZM191.44 713.489l11.75-7.52v-11.69l-20.9 13.37 9.15 5.84ZM214.94 713.489l-11.75-7.52v-11.69l20.88 13.37-9.13 5.84ZM224.07 746.049l-20.88-13.4v-11.65l20.88 13.36v11.69Z" stroke="#fff" stroke-width="1.18" stroke-linecap="round" stroke-linejoin="round"/><path d="m173.18 713.489-11.75-7.52v-11.69l20.86 13.37-9.11 5.84ZM140.55 746.049l20.88-13.4v-11.65l-20.88 13.36v11.69ZM182.29 746.049l-20.86-13.4v-11.65l20.86 13.36v11.69Z" stroke="#fff" stroke-width="1.18" stroke-linecap="round" stroke-linejoin="round"/><path d="m140.55 707.649 20.88 13.36-9.14 5.84-11.75-7.52.01-11.68Z" stroke="#fff" stroke-width="1.18" stroke-linecap="round" stroke-linejoin="round"/><path d="m182.29 707.649-20.88 13.36 9.13 5.85 11.75-7.53v-11.68ZM107.92 713.489l11.75-7.52v-11.69l-20.89 13.37 9.14 5.84ZM98.78 707.649l20.89 13.36v11.64l-20.89-13.36v-11.64ZM57.03 719.329l20.88-13.36v-11.69l-20.88 13.37v11.68Z" stroke="#fff" stroke-width="1.18" stroke-linecap="round" stroke-linejoin="round"/><path d="m98.78 719.329-20.88-13.36v-11.69l20.88 13.37v11.68ZM98.78 746.049l-20.88-13.4v-11.65l20.88 13.36v11.69ZM-5.88 309.49 15 296.13v-11.69L-5.88 297.8v11.69ZM-5.88 167.38 15 154.02v-11.69l-20.88 13.32v11.73ZM26.74 161.54 15 154.02v-11.69l20.88 13.32-9.14 5.89Z" stroke="#fff" stroke-width="1.18" stroke-linecap="round" stroke-linejoin="round"/><path d="M35.88 155.65 15 169.05v11.75l20.88-13.42v-11.73ZM-5.71 721.111l20.9-13.36v-11.69l-20.9 13.36v11.69ZM35.88 463.2 15 449.84v-11.69l20.88 13.36v11.69ZM15 476.56-5.88 463.2v-11.69L15 464.88v11.68ZM35.88 501.65 15 488.29v-11.64l20.88 13.37v11.63ZM36.14 617.28l-20.85-13.36v-11.69l20.88 13.36-.03 11.69Z" stroke="#fff" stroke-width="1.18" stroke-linecap="round" stroke-linejoin="round"/></svg>
