<svg width="536" height="792" fill="none" xmlns="http://www.w3.org/2000/svg"><path d="m394.005 658.643-20.667 12.673v11.089l20.667-12.673v-11.089ZM527.057 689.539l11.63 7.124v11.098l-20.667-12.645 9.037-5.577ZM518.02 658.643l20.667 12.673v11.089l-20.667-12.673v-11.089Z" stroke="#F6F1FD" stroke-width="1.18" stroke-linecap="round" stroke-linejoin="round"/><path d="m518.019 695.116 20.667-12.673-9.046-5.549-11.67 7.095.049 11.127ZM476.674 658.643l20.667 12.673v11.089l-20.667-12.673v-11.089ZM518.019 658.643l-20.667 12.673v11.089l20.667-12.673v-11.089ZM476.674 695.116l20.667-12.673-9.066-5.587-11.63 7.133.029 11.127ZM426.293 689.539l-11.62 7.124v11.098l20.667-12.645-9.047-5.577ZM393.996 658.643l20.677 12.673v11.089l-20.677-12.673v-11.089Z" stroke="#F6F1FD" stroke-width="1.18" stroke-linecap="round" stroke-linejoin="round"/><path d="m435.341 695.116-20.667-12.711v-11.089l20.667 12.673v11.127ZM527.057 653.036l11.63 7.134v11.089l-20.667-12.673 9.037-5.55ZM518.02 622.14l20.667 12.673v11.099l-20.667-12.683V622.14Z" stroke="#F6F1FD" stroke-width="1.18" stroke-linecap="round" stroke-linejoin="round"/><path d="m518.019 658.585 20.667-12.673-9.046-5.549-11.67 7.133.049 11.089ZM485.721 653.036l11.62 7.134v11.089l-20.667-12.673 9.047-5.55ZM508.972 653.036l-11.63 7.134v11.089l20.677-12.673-9.047-5.55ZM476.674 622.14l20.667 12.673v11.099l-20.667-12.683V622.14ZM518.019 622.14l-20.667 12.673v11.099l20.667-12.683V622.14Z" stroke="#F6F1FD" stroke-width="1.18" stroke-linecap="round" stroke-linejoin="round"/><path d="m476.674 658.585 20.667-12.673-9.066-5.549-11.63 7.133.029 11.089ZM518.019 658.585l-20.667-12.673 9.037-5.549 11.63 7.133v11.089ZM467.637 653.036l-11.63 7.134v11.089l20.667-12.673-9.037-5.55ZM435.34 622.14l20.667 12.673v11.099l-20.667-12.683V622.14ZM476.674 622.14l-20.667 12.673v11.099l20.667-12.683V622.14Z" stroke="#F6F1FD" stroke-width="1.18" stroke-linecap="round" stroke-linejoin="round"/><path d="m435.34 658.585 20.667-12.673-9.037-5.549-11.63 7.133v11.089ZM476.674 658.585l-20.667-12.673 9.037-5.549 11.63 7.133v11.089ZM373.338 623.734l20.667 12.673v11.09l-20.667-12.674v-11.089ZM414.653 587.241l-20.668 12.674v11.089l20.668-12.645v-11.118ZM527.057 616.544l11.63 7.133v11.09l-20.667-12.693 9.037-5.53ZM518.02 585.648l20.667 12.711v11.051l-20.667-12.673v-11.089Z" stroke="#F6F1FD" stroke-width="1.18" stroke-linecap="round" stroke-linejoin="round"/><path d="m518.019 622.074 20.667-12.683-9.046-5.539-11.67 7.152.049 11.07ZM485.721 616.544l11.62 7.133v11.09l-20.667-12.693 9.047-5.53ZM508.972 616.544l-11.63 7.133v11.09l20.677-12.693-9.047-5.53ZM476.674 585.648l20.667 12.711v11.051l-20.667-12.673v-11.089ZM518.019 585.648l-20.667 12.711v11.051l20.667-12.673v-11.089Z" stroke="#F6F1FD" stroke-width="1.18" stroke-linecap="round" stroke-linejoin="round"/><path d="m476.674 622.074 20.667-12.683-9.066-5.52-11.63 7.133.029 11.07ZM518.019 622.074l-20.667-12.683 9.037-5.539 11.63 7.133v11.089ZM444.377 616.544l11.63 7.133v11.09l-20.667-12.693 9.037-5.53ZM467.637 616.544l-11.63 7.133v11.09l20.667-12.693-9.037-5.53ZM435.34 585.648l20.667 12.711v11.051l-20.667-12.673v-11.089ZM476.674 585.648l-20.667 12.711v11.051l20.667-12.673v-11.089Z" stroke="#F6F1FD" stroke-width="1.18" stroke-linecap="round" stroke-linejoin="round"/><path d="m435.34 622.074 20.667-12.683-9.037-5.539-11.63 7.133v11.089ZM476.674 622.074l-20.667-12.664 9.037-5.539 11.63 7.133v11.07ZM352.671 574.502l20.667 12.683v11.079l-20.667-12.673v-11.089ZM435.34 538.009l-20.667 12.673v11.089l20.667-12.673v-11.089ZM435.34 512.662l-20.667 12.655v11.108l20.667-12.673v-11.09ZM393.976 549.174l-20.667 12.673v11.09l20.667-12.683v-11.08ZM527.026 580.07l11.631 7.114v11.099L517.97 585.61l9.056-5.54ZM517.97 549.174l20.667 12.673v11.09l-20.667-12.683v-11.08Z" stroke="#F6F1FD" stroke-width="1.18" stroke-linecap="round" stroke-linejoin="round"/><path d="m517.97 585.61 20.667-12.683-9.047-5.54-11.62 7.134v11.089ZM485.691 580.07l11.631 7.124v11.089l-20.668-12.673 9.037-5.54ZM508.953 580.07l-11.631 7.124v11.089l20.648-12.673-9.017-5.54ZM476.654 549.174l20.668 12.673v11.09l-20.668-12.683v-11.08Z" stroke="#F6F1FD" stroke-width="1.18" stroke-linecap="round" stroke-linejoin="round"/><path d="m517.969 549.174-20.667 12.673v11.09l20.667-12.683v-11.08Z" stroke="#F6F1FD" stroke-width="1.18" stroke-linecap="round" stroke-linejoin="round"/><path d="m476.654 585.61 20.668-12.673-9.047-5.55-11.63 7.134.009 11.089ZM517.97 585.61l-20.648-12.673 9.037-5.55 11.611 7.134v11.089ZM444.357 580.07l11.631 7.124v11.089l-20.677-12.673 9.046-5.54Z" stroke="#F6F1FD" stroke-width="1.18" stroke-linecap="round" stroke-linejoin="round"/><path d="m467.608 580.07-11.621 7.114v11.099l20.668-12.673-9.047-5.54ZM435.311 549.174l20.677 12.673v11.09l-20.677-12.683v-11.08Z" stroke="#F6F1FD" stroke-width="1.18" stroke-linecap="round" stroke-linejoin="round"/><path d="m476.655 549.174-20.668 12.673v11.09l20.668-12.683v-11.08Z" stroke="#F6F1FD" stroke-width="1.18" stroke-linecap="round" stroke-linejoin="round"/><path d="m435.311 585.61 20.677-12.673-9.047-5.55-11.63 7.134v11.089ZM476.655 585.61l-20.668-12.683 9.037-5.54 11.631 7.134v11.089ZM426.273 580.07l-11.63 7.124v11.089l20.667-12.673-9.037-5.54ZM393.985 549.174l20.668 12.673v11.09l-20.668-12.683v-11.08Z" stroke="#F6F1FD" stroke-width="1.18" stroke-linecap="round" stroke-linejoin="round"/><path d="m435.31 585.61-20.667-12.673v-11.09l20.667 12.674v11.089ZM320.165 616.714l11.631 7.134v11.089l-20.697-12.683 9.066-5.54ZM311.099 585.819l20.677 12.673v11.089l-20.677-12.673v-11.089ZM352.671 585.6l-20.667 12.674v11.089l20.667-12.683V585.6Z" stroke="#F6F1FD" stroke-width="1.18" stroke-linecap="round" stroke-linejoin="round"/><path d="m311.099 622.264 20.677-12.683-9.027-5.531-11.65 7.125v11.089ZM320.155 507.293l11.631 7.134v11.051l-20.687-12.673 9.056-5.512ZM311.099 476.369l20.667 12.673v11.089l-20.667-12.673v-11.089ZM352.671 476.141l-20.667 12.674v11.089l20.667-12.673v-11.09Z" stroke="#F6F1FD" stroke-width="1.18" stroke-linecap="round" stroke-linejoin="round"/><path d="m311.099 512.805 20.667-12.674-9.037-5.539-11.63 7.124v11.089ZM527.026 543.568l11.631 7.133v11.09l-20.687-12.683 9.056-5.54ZM517.97 512.672l20.687 12.645v11.118l-20.687-12.674v-11.089Z" stroke="#F6F1FD" stroke-width="1.18" stroke-linecap="round" stroke-linejoin="round"/><path d="m517.97 549.117 20.667-12.683-9.047-5.539-11.62 7.133v11.089ZM485.691 543.568l11.631 7.133v11.09l-20.668-12.683 9.037-5.54ZM508.953 543.568l-11.631 7.133v11.09l20.648-12.683-9.017-5.54ZM476.654 512.672l20.668 12.645v11.118l-20.668-12.674v-11.089ZM517.97 512.672l-20.648 12.645v11.118l20.648-12.674v-11.089Z" stroke="#F6F1FD" stroke-width="1.18" stroke-linecap="round" stroke-linejoin="round"/><path d="m476.654 549.117 20.668-12.683-9.047-5.539-11.63 7.133.009 11.089Z" stroke="#F6F1FD" stroke-width="1.18" stroke-linecap="round" stroke-linejoin="round"/><path d="m517.969 549.117-20.667-12.683 9.037-5.539 11.63 7.133v11.089ZM467.608 543.568l-11.621 7.133v11.09l20.668-12.674-9.047-5.549ZM435.311 512.672l20.677 12.645v11.118l-20.677-12.674v-11.089Z" stroke="#F6F1FD" stroke-width="1.18" stroke-linecap="round" stroke-linejoin="round"/><path d="m476.655 512.672-20.668 12.645v11.118l20.668-12.674v-11.089Z" stroke="#F6F1FD" stroke-width="1.18" stroke-linecap="round" stroke-linejoin="round"/><path d="m435.311 549.117 20.677-12.683-9.047-5.539-11.63 7.133v11.089Z" stroke="#F6F1FD" stroke-width="1.18" stroke-linecap="round" stroke-linejoin="round"/><path d="m476.655 549.117-20.668-12.683 9.037-5.539 11.631 7.133v11.089ZM373.309 514.256l20.667 12.683v11.089l-20.667-12.711v-11.061ZM527.026 507.075l11.631 7.133v11.108l-20.687-12.701 9.056-5.54ZM517.97 476.179l20.667 12.683v11.08l-20.667-12.673v-11.09Z" stroke="#F6F1FD" stroke-width="1.18" stroke-linecap="round" stroke-linejoin="round"/><path d="m517.97 512.615 20.667-12.674-9.047-5.539-11.62 7.133v11.08ZM485.691 507.075l11.631 7.133v11.108l-20.668-12.673 9.037-5.568ZM508.953 507.075l-11.631 7.134v11.108l20.648-12.702-9.017-5.54ZM476.654 476.179l20.668 12.683v11.08l-20.668-12.673v-11.09Z" stroke="#F6F1FD" stroke-width="1.18" stroke-linecap="round" stroke-linejoin="round"/><path d="m517.969 476.179-20.667 12.683v11.08l20.667-12.673v-11.09Z" stroke="#F6F1FD" stroke-width="1.18" stroke-linecap="round" stroke-linejoin="round"/><path d="m476.654 512.615 20.668-12.674-9.047-5.539-11.63 7.133.009 11.08Z" stroke="#F6F1FD" stroke-width="1.18" stroke-linecap="round" stroke-linejoin="round"/><path d="m517.969 512.615-20.667-12.673 9.037-5.54 11.63 7.134v11.079ZM444.357 507.075l11.631 7.133v11.108l-20.677-12.673 9.046-5.568Z" stroke="#F6F1FD" stroke-width="1.18" stroke-linecap="round" stroke-linejoin="round"/><path d="m467.608 507.075-11.621 7.134v11.108l20.668-12.673-9.047-5.569ZM435.311 476.179l20.677 12.683v11.08l-20.677-12.673v-11.09Z" stroke="#F6F1FD" stroke-width="1.18" stroke-linecap="round" stroke-linejoin="round"/><path d="m476.655 476.179-20.668 12.683v11.08l20.668-12.673v-11.09Z" stroke="#F6F1FD" stroke-width="1.18" stroke-linecap="round" stroke-linejoin="round"/><path d="m435.311 512.615 20.677-12.674-9.047-5.539-11.63 7.133v11.08ZM476.655 512.615l-20.668-12.673 9.037-5.54 11.631 7.134v11.079ZM393.985 476.179l20.668 12.683v11.08l-20.668-12.673v-11.09ZM393.985 512.615l20.668-12.673-9.047-5.54-11.63 7.134.009 11.079ZM527.027 470.582l11.63 7.124v11.089l-20.687-12.673 9.057-5.54ZM517.97 439.687l20.667 12.673v11.089l-20.667-12.673v-11.089Z" stroke="#F6F1FD" stroke-width="1.18" stroke-linecap="round" stroke-linejoin="round"/><path d="m517.97 476.123 20.667-12.674-9.047-5.54-11.62 7.124v11.09ZM485.691 470.582l11.631 7.124v11.089l-20.668-12.673 9.037-5.54ZM508.953 470.583l-11.631 7.124v11.089l20.648-12.673-9.017-5.54ZM476.654 439.687l20.668 12.673v11.089l-20.668-12.673v-11.089Z" stroke="#F6F1FD" stroke-width="1.18" stroke-linecap="round" stroke-linejoin="round"/><path d="m517.969 439.687-20.667 12.673v11.089l20.667-12.673v-11.089Z" stroke="#F6F1FD" stroke-width="1.18" stroke-linecap="round" stroke-linejoin="round"/><path d="m476.654 476.123 20.668-12.674-9.047-5.54-11.63 7.124.009 11.09Z" stroke="#F6F1FD" stroke-width="1.18" stroke-linecap="round" stroke-linejoin="round"/><path d="m517.969 476.123-20.667-12.674 9.037-5.54 11.63 7.124v11.09ZM444.357 470.582l11.631 7.124v11.089l-20.677-12.673 9.046-5.54Z" stroke="#F6F1FD" stroke-width="1.18" stroke-linecap="round" stroke-linejoin="round"/><path d="m467.608 470.583-11.621 7.124v11.089l20.668-12.673-9.047-5.54ZM435.311 439.687l20.677 12.673v11.089l-20.677-12.673v-11.089Z" stroke="#F6F1FD" stroke-width="1.18" stroke-linecap="round" stroke-linejoin="round"/><path d="m476.655 439.687-20.668 12.673v11.089l20.668-12.673v-11.089Z" stroke="#F6F1FD" stroke-width="1.18" stroke-linecap="round" stroke-linejoin="round"/><path d="m435.311 476.123 20.677-12.674-9.047-5.54-11.63 7.124v11.09Z" stroke="#F6F1FD" stroke-width="1.18" stroke-linecap="round" stroke-linejoin="round"/><path d="m476.655 476.123-20.668-12.674 9.037-5.54 11.631 7.124v11.09ZM393.985 465.033l20.668 12.673v11.089l-20.668-12.673v-11.089Z" stroke="#F6F1FD" stroke-width="1.18" stroke-linecap="round" stroke-linejoin="round"/><path d="m426.273 470.583-11.63 7.124v11.089l20.667-12.673-9.037-5.54ZM435.31 476.123l-20.667-12.674v-11.174l20.667 12.73v11.118ZM352.671 465.033l20.667 12.673v11.089l-20.667-12.673v-11.089Z" stroke="#F6F1FD" stroke-width="1.18" stroke-linecap="round" stroke-linejoin="round"/><path d="m384.939 470.583-11.63 7.124v11.089l20.667-12.673-9.037-5.54ZM393.976 476.123l-20.667-12.674v-11.174l20.667 12.73v11.118ZM527.026 434.09l11.631 7.124v11.06L517.97 439.63l9.056-5.54ZM508.953 434.09l-11.631 7.124v11.061l20.648-12.645-9.017-5.54ZM476.654 403.194l20.668 12.673v11.09l-20.668-12.674v-11.089Z" stroke="#F6F1FD" stroke-width="1.18" stroke-linecap="round" stroke-linejoin="round"/><path d="m517.969 403.195-20.667 12.673v11.089l20.667-12.673v-11.089Z" stroke="#F6F1FD" stroke-width="1.18" stroke-linecap="round" stroke-linejoin="round"/><path d="m476.654 439.63 20.668-12.673-9.047-5.55-11.63 7.153.009 11.07Z" stroke="#F6F1FD" stroke-width="1.18" stroke-linecap="round" stroke-linejoin="round"/><path d="m517.969 439.63-20.667-12.673 9.037-5.55 11.63 7.153v11.07ZM444.357 434.09l11.631 7.124v11.06l-20.677-12.673 9.046-5.511Z" stroke="#F6F1FD" stroke-width="1.18" stroke-linecap="round" stroke-linejoin="round"/><path d="m435.311 439.63 20.677-12.673v-11.09l-20.677 12.693v11.07ZM393.985 428.559l20.668 12.674v11.041l-20.668-12.673v-11.042Z" stroke="#F6F1FD" stroke-width="1.18" stroke-linecap="round" stroke-linejoin="round"/><path d="m435.31 428.56-20.667 12.673v11.042l20.667-12.673V428.56ZM393.868 366.986 373.2 379.659v11.089l20.668-12.683v-11.079ZM526.878 397.872l11.631 7.134v11.089l-20.628-12.674 8.997-5.549ZM517.881 366.986l20.667 12.673v11.089l-20.667-12.683v-11.079Z" stroke="#F6F1FD" stroke-width="1.18" stroke-linecap="round" stroke-linejoin="round"/><path d="m517.881 403.421 20.667-12.673-9.037-5.549-11.63 7.133v11.089ZM485.584 397.872l11.6 7.134v11.089l-20.637-12.674 9.037-5.549Z" stroke="#F6F1FD" stroke-width="1.18" stroke-linecap="round" stroke-linejoin="round"/><path d="m508.844 397.872-11.66 7.134v11.089l20.667-12.674-9.007-5.549ZM476.546 366.986l20.638 12.673v11.089l-20.667-12.683.029-11.079ZM517.88 366.986l-20.696 12.673v11.089l20.667-12.683.029-11.079Z" stroke="#F6F1FD" stroke-width="1.18" stroke-linecap="round" stroke-linejoin="round"/><path d="m476.546 403.421 20.638-12.673-9.037-5.549-11.63 7.133.029 11.089ZM517.88 403.421l-20.696-12.673 9.037-5.549 11.63 7.133.029 11.089ZM444.249 397.872l11.63 7.134v11.089l-20.667-12.674 9.037-5.549Z" stroke="#F6F1FD" stroke-width="1.18" stroke-linecap="round" stroke-linejoin="round"/><path d="m467.49 397.872-11.631 7.134v11.089l20.668-12.674-9.037-5.549ZM435.212 366.986l20.667 12.673v11.089l-20.667-12.683v-11.079ZM476.546 366.986l-20.667 12.673v11.089l20.667-12.683v-11.079ZM435.212 403.421l20.667-12.673-9.047-5.549-11.63 7.133.01 11.089Z" stroke="#F6F1FD" stroke-width="1.18" stroke-linecap="round" stroke-linejoin="round"/><path d="m476.546 403.421-20.667-12.673 9.037-5.549 11.63 7.133v11.089ZM426.164 397.872l-11.63 7.134v11.089l20.677-12.674-9.047-5.549ZM393.867 366.986l20.667 12.673v11.089l-20.667-12.683v-11.079Z" stroke="#F6F1FD" stroke-width="1.18" stroke-linecap="round" stroke-linejoin="round"/><path d="m435.212 403.421-20.667-12.673v-11.089l20.667 12.673v11.089ZM526.878 361.379l11.631 7.133v11.09L517.881 366.9l8.997-5.521ZM517.881 330.483l20.667 12.702v11.061l-20.667-12.674v-11.089Z" stroke="#F6F1FD" stroke-width="1.18" stroke-linecap="round" stroke-linejoin="round"/><path d="m517.881 366.9 20.667-12.682-9.037-5.54-11.63 7.133V366.9ZM485.584 361.379l11.6 7.133v11.09L476.547 366.9l9.037-5.521Z" stroke="#F6F1FD" stroke-width="1.18" stroke-linecap="round" stroke-linejoin="round"/><path d="m508.844 361.379-11.66 7.134v11.089L517.88 366.9l-9.036-5.521ZM476.546 330.483l20.637 12.702v11.061l-20.637-12.674v-11.089ZM517.88 330.484l-20.696 12.701v11.061l20.667-12.673.029-11.089Z" stroke="#F6F1FD" stroke-width="1.18" stroke-linecap="round" stroke-linejoin="round"/><path d="m476.546 366.9 20.638-12.654-9.037-5.54-11.63 7.134.029 11.06ZM517.88 366.9l-20.696-12.654 9.037-5.54 11.63 7.134.029 11.06Z" stroke="#F6F1FD" stroke-width="1.18" stroke-linecap="round" stroke-linejoin="round"/><path d="m467.49 361.379-11.631 7.134v11.089l20.688-12.702-9.057-5.521ZM435.212 330.483l20.667 12.702v11.061l-20.667-12.674v-11.089ZM476.546 330.484l-20.667 12.701v11.061l20.667-12.673v-11.089Z" stroke="#F6F1FD" stroke-width="1.18" stroke-linecap="round" stroke-linejoin="round"/><path d="m435.212 366.9 20.667-12.682-9.047-5.54-11.63 7.133.01 11.089ZM476.546 366.9l-20.667-12.682 9.037-5.54 11.63 7.133V366.9ZM402.914 361.379l11.621 7.134v11.089L393.867 366.9l9.047-5.521ZM373.2 332.077l20.668 12.673v11.089L373.2 343.185v-11.108ZM435.212 330.484l-20.667 12.701v11.061l20.667-12.673v-11.089Z" stroke="#F6F1FD" stroke-width="1.18" stroke-linecap="round" stroke-linejoin="round"/><path d="m435.212 355.84-20.667 12.673v11.089l20.667-12.702v-11.06ZM393.867 366.9l20.668-12.682-9.037-5.54-11.631 7.133V366.9ZM526.879 324.887l11.63 7.133v11.089l-20.667-12.682 9.037-5.54ZM517.881 293.991l20.667 12.673v11.089l-20.667-12.673v-11.089Z" stroke="#F6F1FD" stroke-width="1.18" stroke-linecap="round" stroke-linejoin="round"/><path d="m517.881 330.426 20.667-12.673-9.037-5.54-11.63 7.134v11.079ZM485.583 324.887l11.601 7.133v11.089l-20.667-12.682 9.066-5.54Z" stroke="#F6F1FD" stroke-width="1.18" stroke-linecap="round" stroke-linejoin="round"/><path d="m508.844 324.887-11.66 7.133v11.089l20.667-12.682-9.007-5.54ZM476.546 293.991l20.638 12.673v11.089l-20.667-12.673.029-11.089ZM517.88 293.991l-20.696 12.673v11.089l20.667-12.673.029-11.089ZM476.546 330.426l20.638-12.673-9.037-5.54-11.63 7.134.029 11.079Z" stroke="#F6F1FD" stroke-width="1.18" stroke-linecap="round" stroke-linejoin="round"/><path d="m517.88 330.426-20.696-12.673 9.037-5.54 11.63 7.134.029 11.079ZM444.249 324.887l11.63 7.133v11.089l-20.667-12.682 9.037-5.54Z" stroke="#F6F1FD" stroke-width="1.18" stroke-linecap="round" stroke-linejoin="round"/><path d="m467.49 324.887-11.631 7.133v11.089l20.668-12.682-9.037-5.54ZM435.212 293.991l20.667 12.673v11.089l-20.667-12.673v-11.089ZM476.546 293.991l-20.667 12.673v11.089l20.667-12.673v-11.089ZM435.212 330.426l20.667-12.673-9.047-5.54-11.63 7.134.01 11.079ZM476.546 330.426l-20.667-12.673 9.037-5.54 11.63 7.134v11.079ZM402.914 324.887l11.62 7.133v11.089l-20.667-12.682 9.047-5.54ZM426.164 324.887l-11.63 7.133v11.089l20.677-12.682-9.047-5.54ZM393.867 293.991l20.667 12.673v11.089l-20.667-12.673v-11.089ZM393.867 330.426l20.667-12.673-9.037-5.54-11.63 7.134v11.079ZM526.879 288.394l11.63 7.133v11.08l-20.667-12.673 9.037-5.54ZM517.881 257.498l20.667 12.645v11.117l-20.667-12.673v-11.089Z" stroke="#F6F1FD" stroke-width="1.18" stroke-linecap="round" stroke-linejoin="round"/><path d="m517.881 293.934 20.667-12.674-9.037-5.54-11.63 7.124v11.09ZM485.583 288.394l11.601 7.124v11.089l-20.667-12.673 9.066-5.54Z" stroke="#F6F1FD" stroke-width="1.18" stroke-linecap="round" stroke-linejoin="round"/><path d="m508.844 288.394-11.66 7.133v11.08l20.667-12.673-9.007-5.54ZM476.546 257.498l20.638 12.645v11.117l-20.667-12.673.029-11.089ZM517.88 257.498l-20.696 12.645v11.117l20.667-12.673.029-11.089ZM476.546 293.934l20.638-12.674-9.037-5.54-11.63 7.124.029 11.09Z" stroke="#F6F1FD" stroke-width="1.18" stroke-linecap="round" stroke-linejoin="round"/><path d="m517.88 293.934-20.696-12.674 9.037-5.54 11.63 7.124.029 11.09ZM444.249 288.394l11.63 7.133v11.08l-20.667-12.673 9.037-5.54Z" stroke="#F6F1FD" stroke-width="1.18" stroke-linecap="round" stroke-linejoin="round"/><path d="m467.49 288.394-11.631 7.133v11.08l20.668-12.673-9.037-5.54ZM435.212 257.498l20.667 12.645v11.117l-20.667-12.673v-11.089ZM476.546 257.498l-20.667 12.645v11.117l20.667-12.673v-11.089ZM435.212 293.934l20.667-12.674-9.047-5.54-11.63 7.124.01 11.09ZM476.546 293.934l-20.667-12.674 9.037-5.54 11.63 7.124v11.09ZM393.867 282.844l20.667 12.674v11.089l-20.667-12.673v-11.09ZM426.164 288.394l-11.63 7.133v11.08l20.677-12.673-9.047-5.54Z" stroke="#F6F1FD" stroke-width="1.18" stroke-linecap="round" stroke-linejoin="round"/><path d="m435.212 293.934-20.667-12.674v-11.117l20.667 12.73v11.061ZM352.532 282.844l20.667 12.674v11.089l-20.667-12.673v-11.09ZM384.831 288.394l-11.631 7.133v11.08l20.668-12.673-9.037-5.54Z" stroke="#F6F1FD" stroke-width="1.18" stroke-linecap="round" stroke-linejoin="round"/><path d="m393.867 293.934-20.668-12.674v-11.117l20.668 12.73v11.061ZM526.879 251.901l11.63 7.124v11.118l-20.667-12.673 9.037-5.569Z" stroke="#F6F1FD" stroke-width="1.18" stroke-linecap="round" stroke-linejoin="round"/><path d="m508.844 251.901-11.66 7.124v11.118l20.667-12.674-9.007-5.568ZM476.546 221.005l20.638 12.673v11.09l-20.667-12.674.029-11.089ZM517.88 221.005l-20.696 12.673v11.09l20.667-12.674.029-11.089Z" stroke="#F6F1FD" stroke-width="1.18" stroke-linecap="round" stroke-linejoin="round"/><path d="m476.546 257.44 20.638-12.673-9.037-5.549-11.63 7.133.029 11.089ZM517.88 257.44l-20.696-12.673 9.037-5.549 11.63 7.133.029 11.089ZM393.877 246.352l20.667 12.673v11.118l-20.667-12.673v-11.118ZM435.211 246.352l-20.667 12.673v11.118l20.667-12.673v-11.118ZM435.211 221.006l-20.667 12.673v11.089l20.667-12.673v-11.089ZM340.882 458.08l11.621 7.133v11.089l-20.618-12.645 8.997-5.577ZM331.885 427.193l20.667 12.673v11.09l-20.667-12.683v-11.08ZM393.847 428.559l-20.667 12.673v11.099l20.667-12.673v-11.099Z" stroke="#F6F1FD" stroke-width="1.18" stroke-linecap="round" stroke-linejoin="round"/><path d="m331.885 463.657 20.667-12.673-9.037-5.549-11.63 7.105v11.117Z" stroke="#F6F1FD" stroke-width="1.18" stroke-linecap="round" stroke-linejoin="round"/><path d="m373.18 463.657-20.677-12.673 9.047-5.549 11.63 7.133v11.089ZM322.798 458.08l-11.63 7.133v11.089l20.717-12.645-9.087-5.577ZM331.885 427.193l-20.667 12.673v11.09l20.667-12.683v-11.08Z" stroke="#F6F1FD" stroke-width="1.18" stroke-linecap="round" stroke-linejoin="round"/><path d="m331.885 463.657-20.667-12.673 9.037-5.549 11.63 7.105v11.117ZM373.18 390.691l20.667 12.683v11.08L373.18 401.78v-11.089ZM290.501 390.691l20.667 12.683v11.08l-20.667-12.674v-11.089ZM331.885 390.691l-20.667 12.683v11.08l20.667-12.674v-11.089Z" stroke="#F6F1FD" stroke-width="1.18" stroke-linecap="round" stroke-linejoin="round"/><path d="m290.501 427.127 20.667-12.673-9.037-5.55-11.63 7.134v11.089ZM331.885 427.127l-20.667-12.673 9.037-5.55 11.63 7.143v11.08ZM393.976 257.327l-20.667 12.674v11.089l20.667-12.673v-11.09ZM426.273 288.166l-11.63 7.134v11.137l20.667-12.683-9.037-5.588ZM393.985 257.318l20.668 12.683v11.089l-20.668-12.673v-11.099Z" stroke="#F6F1FD" stroke-width="1.18" stroke-linecap="round" stroke-linejoin="round"/><path d="m435.31 293.763-20.667-12.683v-11.079l20.667 12.673v11.089ZM320.165 324.868l11.631 7.133v11.089l-20.697-12.682 9.066-5.54ZM311.099 293.972l20.677 12.683v11.079l-20.677-12.673v-11.089ZM352.671 293.744l-20.667 12.683v11.08l20.667-12.673v-11.09Z" stroke="#F6F1FD" stroke-width="1.18" stroke-linecap="round" stroke-linejoin="round"/><path d="m311.099 330.408 20.677-12.674-9.047-5.539-11.63 7.133v11.08ZM320.155 215.418l11.631 7.134v11.079l-20.687-12.673 9.056-5.54ZM311.099 184.522l20.687 12.674v11.089l-20.687-12.673v-11.09ZM352.671 184.295l-20.667 12.673v11.089l20.667-12.673v-11.089Z" stroke="#F6F1FD" stroke-width="1.18" stroke-linecap="round" stroke-linejoin="round"/><path d="m311.099 220.958 20.667-12.673-9.037-5.54-11.63 7.124v11.089ZM517.97 220.816l20.667 12.673v11.099l-20.667-12.673v-11.099ZM517.97 257.271l20.667-12.674-9.047-5.549-11.62 7.133v11.09ZM485.691 251.721l11.631 7.133v11.089l-20.668-12.682 9.037-5.54ZM508.953 251.721l-11.631 7.134v11.089l20.648-12.683-9.017-5.54ZM476.654 220.816l20.668 12.673v11.099l-20.668-12.673v-11.099Z" stroke="#F6F1FD" stroke-width="1.18" stroke-linecap="round" stroke-linejoin="round"/><path d="m517.969 220.816-20.667 12.673v11.099l20.667-12.673v-11.099Z" stroke="#F6F1FD" stroke-width="1.18" stroke-linecap="round" stroke-linejoin="round"/><path d="m476.654 257.271 20.668-12.674-9.047-5.549-11.63 7.133.009 11.09Z" stroke="#F6F1FD" stroke-width="1.18" stroke-linecap="round" stroke-linejoin="round"/><path d="m517.969 257.271-20.667-12.674 9.037-5.549 11.63 7.133v11.09ZM435.311 220.816l20.677 12.673v11.099l-20.677-12.673v-11.099Z" stroke="#F6F1FD" stroke-width="1.18" stroke-linecap="round" stroke-linejoin="round"/><path d="m476.655 220.816-20.668 12.673v11.099l20.668-12.673v-11.099ZM435.311 257.271l20.677-12.674-9.047-5.549-11.63 7.133v11.09Z" stroke="#F6F1FD" stroke-width="1.18" stroke-linecap="round" stroke-linejoin="round"/><path d="m476.655 257.271-20.668-12.674 9.037-5.549 11.631 7.133v11.09ZM403.022 251.721l11.631 7.134v11.089l-20.668-12.683 9.037-5.54ZM373.309 222.419l20.667 12.626v11.136l-20.667-12.683v-11.079ZM435.31 220.816l-20.667 12.673v11.099l20.667-12.673v-11.099Z" stroke="#F6F1FD" stroke-width="1.18" stroke-linecap="round" stroke-linejoin="round"/><path d="m435.311 246.181-20.667 12.674v11.089l20.667-12.683v-11.08ZM393.985 257.271l20.668-12.674-9.047-5.549-11.63 7.133.009 11.09ZM527.026 215.228l11.631 7.134v11.079l-20.687-12.673 9.056-5.54ZM517.97 184.332l20.687 12.674v11.089l-20.687-12.674v-11.089Z" stroke="#F6F1FD" stroke-width="1.18" stroke-linecap="round" stroke-linejoin="round"/><path d="m517.97 220.768 20.667-12.673-9.047-5.54-11.62 7.124v11.089ZM485.691 215.228l11.631 7.134v11.079l-20.668-12.673 9.037-5.54ZM508.953 215.228l-11.631 7.134v11.079l20.648-12.673-9.017-5.54ZM476.654 184.332l20.668 12.674v11.089l-20.668-12.674v-11.089ZM517.97 184.332l-20.648 12.674v11.089l20.648-12.674v-11.089ZM476.654 220.768l20.668-12.673-9.047-5.54-11.63 7.124.009 11.089Z" stroke="#F6F1FD" stroke-width="1.18" stroke-linecap="round" stroke-linejoin="round"/><path d="m517.969 220.768-20.667-12.673 9.037-5.54 11.63 7.124v11.089ZM444.357 215.228l11.631 7.134v11.079l-20.677-12.673 9.046-5.54Z" stroke="#F6F1FD" stroke-width="1.18" stroke-linecap="round" stroke-linejoin="round"/><path d="m467.608 215.228-11.621 7.134v11.079l20.668-12.673-9.047-5.54ZM435.311 184.332l20.677 12.674v11.089l-20.677-12.674v-11.089Z" stroke="#F6F1FD" stroke-width="1.18" stroke-linecap="round" stroke-linejoin="round"/><path d="m476.655 184.332-20.668 12.674v11.089l20.668-12.674v-11.089Z" stroke="#F6F1FD" stroke-width="1.18" stroke-linecap="round" stroke-linejoin="round"/><path d="m435.311 220.768 20.677-12.673-9.047-5.54-11.63 7.124v11.089Z" stroke="#F6F1FD" stroke-width="1.18" stroke-linecap="round" stroke-linejoin="round"/><path d="m476.655 220.768-20.668-12.673 9.037-5.54 11.631 7.124v11.089ZM403.022 215.228l11.621 7.134v11.079l-20.667-12.673 9.046-5.54ZM426.273 215.228l-11.63 7.134v11.079l20.667-12.673-9.037-5.54ZM393.985 184.332l20.668 12.674v11.089l-20.668-12.674v-11.089Z" stroke="#F6F1FD" stroke-width="1.18" stroke-linecap="round" stroke-linejoin="round"/><path d="m393.985 220.768 20.668-12.673-9.047-5.54-11.63 7.124.009 11.089ZM527.026 178.735l11.631 7.124v11.089l-20.687-12.673 9.056-5.54ZM517.97 147.84l20.667 12.673v11.089l-20.667-12.673V147.84Z" stroke="#F6F1FD" stroke-width="1.18" stroke-linecap="round" stroke-linejoin="round"/><path d="m517.97 184.275 20.667-12.673-9.047-5.549-11.62 7.133v11.089ZM485.691 178.735l11.631 7.124v11.089l-20.668-12.673 9.037-5.54ZM508.953 178.736l-11.631 7.124v11.089l20.648-12.674-9.017-5.539ZM476.654 147.84l20.668 12.673v11.089l-20.668-12.673V147.84Z" stroke="#F6F1FD" stroke-width="1.18" stroke-linecap="round" stroke-linejoin="round"/><path d="m517.969 147.84-20.667 12.673v11.089l20.667-12.673V147.84Z" stroke="#F6F1FD" stroke-width="1.18" stroke-linecap="round" stroke-linejoin="round"/><path d="m476.654 184.275 20.668-12.673-9.047-5.549-11.63 7.133.009 11.089Z" stroke="#F6F1FD" stroke-width="1.18" stroke-linecap="round" stroke-linejoin="round"/><path d="m517.969 184.275-20.667-12.673 9.037-5.549 11.63 7.133v11.089ZM444.357 178.735l11.631 7.124v11.089l-20.677-12.673 9.046-5.54Z" stroke="#F6F1FD" stroke-width="1.18" stroke-linecap="round" stroke-linejoin="round"/><path d="m467.608 178.736-11.621 7.124v11.089l20.668-12.674-9.047-5.539ZM435.311 147.84l20.677 12.673v11.089l-20.677-12.673V147.84Z" stroke="#F6F1FD" stroke-width="1.18" stroke-linecap="round" stroke-linejoin="round"/><path d="m476.655 147.84-20.668 12.673v11.089l20.668-12.673V147.84Z" stroke="#F6F1FD" stroke-width="1.18" stroke-linecap="round" stroke-linejoin="round"/><path d="m435.311 184.275 20.677-12.673-9.047-5.549-11.63 7.133v11.089Z" stroke="#F6F1FD" stroke-width="1.18" stroke-linecap="round" stroke-linejoin="round"/><path d="m476.655 184.275-20.668-12.673 9.037-5.549 11.631 7.133v11.089ZM393.985 173.186l20.668 12.673v11.089l-20.668-12.673v-11.089Z" stroke="#F6F1FD" stroke-width="1.18" stroke-linecap="round" stroke-linejoin="round"/><path d="m426.273 178.736-11.63 7.124v11.089l20.667-12.674-9.037-5.539Z" stroke="#F6F1FD" stroke-width="1.18" stroke-linecap="round" stroke-linejoin="round"/><path d="m435.31 184.275-20.667-12.673v-11.146l20.667 12.73v11.089ZM352.671 173.186l20.667 12.673v11.089l-20.667-12.673v-11.089Z" stroke="#F6F1FD" stroke-width="1.18" stroke-linecap="round" stroke-linejoin="round"/><path d="m384.939 178.736-11.63 7.124v11.089l20.667-12.674-9.037-5.539Z" stroke="#F6F1FD" stroke-width="1.18" stroke-linecap="round" stroke-linejoin="round"/><path d="m393.976 184.275-20.667-12.673v-11.146l20.667 12.73v11.089ZM527.026 142.233l11.631 7.134v11.089l-20.687-12.683 9.056-5.54Z" stroke="#F6F1FD" stroke-width="1.18" stroke-linecap="round" stroke-linejoin="round"/><path d="m508.953 142.233-11.631 7.134v11.089l20.648-12.683-9.017-5.54ZM476.654 111.347l20.668 12.711v11.051l-20.668-12.673v-11.089ZM517.97 111.347l-20.648 12.711v11.051l20.648-12.673v-11.089Z" stroke="#F6F1FD" stroke-width="1.18" stroke-linecap="round" stroke-linejoin="round"/><path d="m476.654 147.773 20.668-12.673-9.047-5.54-11.63 7.134.009 11.079Z" stroke="#F6F1FD" stroke-width="1.18" stroke-linecap="round" stroke-linejoin="round"/><path d="M517.969 147.773 497.302 135.1l9.037-5.549 11.63 7.143v11.079ZM444.357 142.233l11.631 7.134v11.089l-20.677-12.683 9.046-5.54ZM435.311 147.773l20.677-12.673v-11.042l-20.677 12.674v11.041ZM393.985 136.693l20.668 12.674v11.089l-20.668-12.683v-11.08Z" stroke="#F6F1FD" stroke-width="1.18" stroke-linecap="round" stroke-linejoin="round"/><path d="m435.31 136.694-20.667 12.673v11.089l20.667-12.683v-11.079ZM435.31 111.347l-20.667 12.711v11.051l20.667-12.673v-11.089ZM290.471 317.896l20.627 12.673v11.089l-20.627-12.702v-11.06ZM258.184 348.792l11.62 7.124v11.089l-20.667-12.673 9.047-5.54ZM249.137 317.896l20.667 12.673v11.089l-20.667-12.702v-11.06Z" stroke="#F6F1FD" stroke-width="1.18" stroke-linecap="round" stroke-linejoin="round"/><path d="m290.472 317.896-20.667 12.673v11.089l20.667-12.702v-11.06ZM249.137 354.332l20.667-12.674-9.037-5.549-11.63 7.133v11.09ZM290.472 354.332l-20.667-12.674 9.047-5.549 11.63 7.133-.01 11.09ZM290.451 281.251l20.648 12.674v11.089l-20.648-12.674v-11.089ZM258.184 312.299l11.62 7.124v11.089l-20.667-12.674 9.047-5.539ZM249.137 281.403l20.667 12.673v11.089l-20.667-12.673v-11.089Z" stroke="#F6F1FD" stroke-width="1.18" stroke-linecap="round" stroke-linejoin="round"/><path d="m290.472 281.403-20.667 12.673v11.089l20.667-12.673v-11.089ZM249.137 317.838l20.667-12.673-9.037-5.549-11.63 7.133v11.089ZM207.792 306.75l20.677 12.673v11.089l-20.677-12.673V306.75ZM240.099 312.299l-11.63 7.124v11.089l20.667-12.673-9.037-5.54ZM249.136 317.839l-20.667-12.673v-11.147l20.667 12.731v11.089ZM228.449 658.586l20.668 12.673v11.089l-20.668-12.673v-11.089ZM195.894 714.961l11.631 7.124v11.089l-20.668-12.673 9.037-5.54ZM186.848 684.065l20.667 12.673v11.09l-20.667-12.712v-11.051ZM228.192 684.065l-20.668 12.673v11.09l20.668-12.712v-11.051Z" stroke="#F6F1FD" stroke-width="1.18" stroke-linecap="round" stroke-linejoin="round"/><path d="m186.848 720.501 20.667-12.673-9.037-5.55-11.63 7.134v11.089ZM186.858 647.573l-20.677 12.673v11.089l20.677-12.673v-11.089Z" stroke="#F6F1FD" stroke-width="1.18" stroke-linecap="round" stroke-linejoin="round"/><path d="m186.858 684.008-20.677-12.673 9.047-5.549 11.63 7.133v11.089ZM237.229 641.995l11.631 7.133v11.061l-20.668-12.673 9.037-5.521ZM228.192 611.08l20.668 12.674v11.089l-20.668-12.683v-11.08ZM290.195 612.455l-20.668 12.674v11.089l20.668-12.674v-11.089Z" stroke="#F6F1FD" stroke-width="1.18" stroke-linecap="round" stroke-linejoin="round"/><path d="m228.192 647.506 20.668-12.673-9.027-5.54-11.631 7.124-.01 11.089Z" stroke="#F6F1FD" stroke-width="1.18" stroke-linecap="round" stroke-linejoin="round"/><path d="m269.527 647.506-20.668-12.673 9.037-5.54 11.631 7.124v11.089ZM219.146 641.995l-11.621 7.133v11.061l20.668-12.673-9.047-5.521ZM228.193 611.08l-20.668 12.674v11.089l20.668-12.683v-11.08Z" stroke="#F6F1FD" stroke-width="1.18" stroke-linecap="round" stroke-linejoin="round"/><path d="m228.193 647.506-20.668-12.673 9.037-5.54 11.631 7.124v11.089ZM237.229 605.474l11.631 7.114v11.099l-20.668-12.673 9.037-5.54Z" stroke="#F6F1FD" stroke-width="1.18" stroke-linecap="round" stroke-linejoin="round"/><path d="m260.49 605.474-11.631 7.114v11.099l20.668-12.673-9.037-5.54ZM310.862 574.578l-20.668 12.673v11.108l20.668-12.673v-11.108ZM228.192 611.023l20.668-12.664-9.027-5.559-11.621 7.134-.02 11.089ZM186.848 574.577l20.667 12.683v11.099l-20.667-12.673v-11.109ZM228.192 574.577l-20.668 12.683v11.099l20.668-12.673v-11.109ZM186.848 611.023l20.667-12.664-9.037-5.54-11.63 7.134v11.07ZM228.192 611.023l-20.668-12.664 9.037-5.54 11.631 7.134v11.07ZM176.533 806.378l-20.667-12.683v-11.146l20.667 12.74v11.089ZM331.717 525.468l20.667 12.674v11.089l-20.667-12.673v-11.09ZM299.409 556.365l11.63 7.133v11.08l-20.667-12.674 9.037-5.539ZM290.372 525.469l20.667 12.673v11.089l-20.667-12.673v-11.089ZM331.706 525.469l-20.667 12.673v11.089l20.667-12.673v-11.089Z" stroke="#F6F1FD" stroke-width="1.18" stroke-linecap="round" stroke-linejoin="round"/><path d="m290.372 561.904 20.667-12.673-9.037-5.54-11.63 7.124v11.089ZM258.074 556.365l11.63 7.133v11.08l-20.667-12.674 9.037-5.539ZM249.037 525.469l20.667 12.673v11.089l-20.667-12.673v-11.089ZM290.372 525.469l-20.667 12.673v11.089l20.667-12.673v-11.089Z" stroke="#F6F1FD" stroke-width="1.18" stroke-linecap="round" stroke-linejoin="round"/><path d="m249.037 561.904 20.667-12.673-9.037-5.54-11.63 7.124v11.089ZM290.372 488.976l-20.667 12.626v11.136l20.667-12.673v-11.089ZM290.372 525.412l-20.667-12.674 9.037-5.54 11.63 7.124v11.09ZM331.717 660.274l20.667 12.673v11.09l-20.667-12.636v-11.127ZM364.004 665.814l-11.62 7.133v11.09l20.667-12.636-9.047-5.587Z" stroke="#F6F1FD" stroke-width="1.18" stroke-linecap="round" stroke-linejoin="round"/><path d="m373.051 671.401-20.667-12.711v-11.146l20.667 12.73v11.127ZM237.417 215.01l11.63 7.134v11.089L228.38 220.56l9.037-5.55ZM260.677 215.01l-11.63 7.134v11.089l20.667-12.673-9.037-5.55ZM331.885 135.005l20.687 12.673v11.09l-20.687-12.674v-11.089ZM299.607 165.901l11.62 7.134v11.079l-20.667-12.673 9.047-5.54ZM290.56 135.005l20.667 12.673v11.09l-20.667-12.674v-11.089ZM331.884 135.005l-20.657 12.673v11.09l20.657-12.674v-11.089ZM290.56 171.441l20.667-12.673-9.037-5.54-11.63 7.124v11.089ZM258.263 165.901l11.63 7.134v11.079l-20.667-12.673 9.037-5.54ZM249.226 135.005l20.667 12.673v11.09l-20.667-12.674v-11.089Z" stroke="#F6F1FD" stroke-width="1.18" stroke-linecap="round" stroke-linejoin="round"/><path d="m290.56 135.005-20.667 12.673v11.09l20.667-12.674v-11.089ZM249.226 171.441l20.667-12.673-9.037-5.54-11.63 7.124v11.089ZM290.56 98.513l-20.667 12.673v11.089l20.667-12.683v-11.08ZM290.56 134.948l-20.667-12.673 9.037-5.54 11.63 7.124v11.089ZM195.875 507.056l11.62 7.134v11.08l-20.667-12.674 9.047-5.54ZM186.828 476.16l20.677 12.674v11.089l-20.677-12.673v-11.09ZM248.84 477.536l-20.667 12.682v11.09l20.667-12.683v-11.089ZM186.828 512.596l20.677-12.673-9.047-5.54-11.63 7.124v11.089ZM228.172 512.596l-20.667-12.673 9.037-5.54 11.63 7.124v11.089Z" stroke="#F6F1FD" stroke-width="1.18" stroke-linecap="round" stroke-linejoin="round"/><path d="m177.79 507.056-11.63 7.134v11.08l20.677-12.674-9.047-5.54ZM186.837 476.16l-20.677 12.674v11.089l20.677-12.673v-11.09ZM186.837 512.596l-20.677-12.673 9.047-5.54 11.63 7.124v11.089ZM195.875 470.564l11.62 7.124v11.089l-20.667-12.674 9.047-5.539ZM219.125 470.564l-11.62 7.124v11.089l20.667-12.674-9.047-5.539ZM269.527 439.668l-20.687 12.673v11.089l20.687-12.673v-11.089Z" stroke="#F6F1FD" stroke-width="1.18" stroke-linecap="round" stroke-linejoin="round"/><path d="m186.828 476.104 20.677-12.674-9.047-5.549-11.63 7.133v11.09ZM186.837 439.668l-20.677 12.673v11.089l20.677-12.673v-11.089Z" stroke="#F6F1FD" stroke-width="1.18" stroke-linecap="round" stroke-linejoin="round"/><path d="M186.837 476.104 166.16 463.43l9.047-5.54 11.63 7.124v11.09ZM93.845 660.369l20.667 12.674v11.089l-20.667-12.673v-11.09ZM126.142 665.919l-11.63 7.124v11.089l20.667-12.673-9.037-5.54ZM135.179 671.458l-20.667-12.673v-11.146l20.667 12.73v11.089ZM258.055 421.445l11.63 7.115v11.108l-20.667-12.673 9.037-5.55ZM249.018 390.549l20.667 12.683v11.099l-20.667-12.683v-11.099ZM290.313 390.549l-20.627 12.683v11.099l20.627-12.693v-11.089Z" stroke="#F6F1FD" stroke-width="1.18" stroke-linecap="round" stroke-linejoin="round"/><path d="m249.018 426.995 20.667-12.664-9.066-5.559-11.631 7.133.03 11.09ZM216.72 421.445l11.63 7.115v11.108l-20.667-12.673 9.037-5.55ZM207.683 390.549l20.667 12.683v11.099l-20.667-12.683v-11.099ZM249.017 390.549l-20.667 12.683v11.099l20.667-12.683v-11.099Z" stroke="#F6F1FD" stroke-width="1.18" stroke-linecap="round" stroke-linejoin="round"/><path d="m207.683 426.995 20.667-12.664-9.047-5.55-11.62 7.134v11.08ZM249.018 354.066l-20.667 12.673v11.089l20.667-12.683v-11.079Z" stroke="#F6F1FD" stroke-width="1.18" stroke-linecap="round" stroke-linejoin="round"/><path d="m249.018 390.501-20.667-12.673 9.037-5.549 11.63 7.133v11.089ZM154.708 360.895l11.631 7.134v11.089l-20.638-12.673 9.007-5.55ZM145.701 330.009l20.668 12.673v11.089l-20.668-12.673v-11.089Z" stroke="#F6F1FD" stroke-width="1.18" stroke-linecap="round" stroke-linejoin="round"/><path d="m187.035 330.009-20.667 12.673v11.089l20.667-12.673v-11.089ZM145.701 366.445l20.668-12.673-9.047-5.549-11.621 7.133v11.089ZM113.404 360.896l11.61 7.133v11.089l-20.667-12.673 9.057-5.549ZM104.356 330.009l20.658 12.673v11.089l-20.658-12.673v-11.089ZM145.701 330.009l-20.687 12.673v11.089l20.687-12.673v-11.089Z" stroke="#F6F1FD" stroke-width="1.18" stroke-linecap="round" stroke-linejoin="round"/><path d="m104.357 366.445 20.657-12.673-9.037-5.549-11.63 7.133.01 11.089ZM145.701 293.516l-20.687 12.674v11.089l20.667-12.683.02-11.08Z" stroke="#F6F1FD" stroke-width="1.18" stroke-linecap="round" stroke-linejoin="round"/><path d="m145.701 329.905-20.687-12.626 9.037-5.549 11.63 7.133.02 11.042ZM196.072 287.91l11.63 7.134v11.089l-20.667-12.673 9.037-5.55ZM187.035 257.014l20.668 12.683v11.08l-20.668-12.674v-11.089ZM249.037 258.399l-20.667 12.692v11.071l20.667-12.674v-11.089Z" stroke="#F6F1FD" stroke-width="1.18" stroke-linecap="round" stroke-linejoin="round"/><path d="m187.035 293.459 20.668-12.682-9.038-5.54-11.63 7.133v11.089Z" stroke="#F6F1FD" stroke-width="1.18" stroke-linecap="round" stroke-linejoin="round"/><path d="m228.37 293.459-20.668-12.682 9.037-5.54 11.631 7.133v11.089ZM177.998 287.91l-11.63 7.134v11.089l20.668-12.673-9.038-5.55ZM187.035 257.014l-20.667 12.683v11.08l20.667-12.674v-11.089Z" stroke="#F6F1FD" stroke-width="1.18" stroke-linecap="round" stroke-linejoin="round"/><path d="m187.035 293.459-20.667-12.682 9.037-5.54 11.63 7.133v11.089ZM104.357 257.014l20.657 12.683v11.079l-20.667-12.673.01-11.089ZM145.701 257.014l-20.687 12.683v11.08l20.667-12.674.02-11.089ZM104.357 293.459l20.657-12.682-9.037-5.54-11.63 7.133.01 11.089ZM145.701 293.459l-20.687-12.682 9.037-5.54 11.63 7.133.02 11.089ZM196.072 251.417l11.63 7.134v11.079l-20.667-12.673 9.037-5.54ZM219.332 251.417l-11.63 7.134v11.079l20.668-12.673-9.038-5.54ZM187.035 256.957l20.668-12.673-9.038-5.54-11.63 7.124v11.089ZM145.701 220.522l20.668 12.626v11.136l-20.668-12.673v-11.089Z" stroke="#F6F1FD" stroke-width="1.18" stroke-linecap="round" stroke-linejoin="round"/><path d="m187.035 220.522-20.667 12.626v11.136l20.667-12.673v-11.089ZM145.701 256.958l20.667-12.674-9.046-5.54-11.621 7.134v11.08ZM187.035 256.958l-20.667-12.674 9.037-5.54 11.63 7.134v11.08ZM104.357 220.521l20.657 12.626v11.137l-20.667-12.674.01-11.089ZM216.918 202.308l11.63 7.124v11.089l-20.667-12.673 9.037-5.54ZM207.881 171.403l20.667 12.683v11.117l-20.667-12.673v-11.127Z" stroke="#F6F1FD" stroke-width="1.18" stroke-linecap="round" stroke-linejoin="round"/><path d="m207.881 207.848 20.667-12.645-9.037-5.54-11.63 7.124v11.061ZM249.216 134.92l-20.667 12.673v11.089l20.667-12.673V134.92Z" stroke="#F6F1FD" stroke-width="1.18" stroke-linecap="round" stroke-linejoin="round"/><path d="m249.216 171.355-20.667-12.673 9.047-5.549 11.62 7.133v11.089ZM113.384 225.985l11.63 7.162v11.061l-20.667-12.683 9.037-5.54ZM104.337 195.09l20.677 12.682v11.08l-20.667-12.673-.01-11.089ZM145.681 195.09l-20.667 12.682v11.08l20.677-12.673-.01-11.089Z" stroke="#F6F1FD" stroke-width="1.18" stroke-linecap="round" stroke-linejoin="round"/><path d="m104.337 231.535 20.677-12.683-9.037-5.54-11.63 7.134-.01 11.089ZM72.039 225.985l11.63 7.162v11.061l-20.667-12.683 9.037-5.54ZM63.002 195.09l20.667 12.682v11.08l-20.667-12.673V195.09Z" stroke="#F6F1FD" stroke-width="1.18" stroke-linecap="round" stroke-linejoin="round"/><path d="m104.336 195.09-20.667 12.682v11.08l20.667-12.673V195.09Z" stroke="#F6F1FD" stroke-width="1.18" stroke-linecap="round" stroke-linejoin="round"/><path d="m63.002 231.535 20.667-12.683-9.037-5.54-11.63 7.134v11.089ZM104.337 158.597 83.67 171.27v11.09l20.667-12.674v-11.089Z" stroke="#F6F1FD" stroke-width="1.18" stroke-linecap="round" stroke-linejoin="round"/><path d="M104.337 195.033 83.67 182.359l9.037-5.539 11.63 7.133v11.08ZM154.709 153l11.64 7.105v11.108l-20.667-12.673 9.027-5.54ZM145.672 122.105l20.677 12.673v11.098l-20.677-12.673v-11.098ZM207.684 123.48l-20.667 12.683v11.079l20.667-12.673V123.48Z" stroke="#F6F1FD" stroke-width="1.18" stroke-linecap="round" stroke-linejoin="round"/><path d="m145.672 158.54 20.677-12.664-9.047-5.54-11.63 7.124v11.08ZM187.017 158.54l-20.667-12.664 9.037-5.54 11.63 7.124v11.08Z" stroke="#F6F1FD" stroke-width="1.18" stroke-linecap="round" stroke-linejoin="round"/><path d="m136.634 153-11.62 7.105v11.108l20.677-12.673-9.057-5.54ZM145.681 122.105l-20.667 12.673v11.098l20.677-12.673-.01-11.098Z" stroke="#F6F1FD" stroke-width="1.18" stroke-linecap="round" stroke-linejoin="round"/><path d="m145.681 158.54-20.667-12.664 9.047-5.54 11.63 7.124-.01 11.08ZM63.002 122.104l20.667 12.674v11.098l-20.667-12.673v-11.099Z" stroke="#F6F1FD" stroke-width="1.18" stroke-linecap="round" stroke-linejoin="round"/><path d="m104.336 122.104-20.667 12.674v11.098l20.667-12.673v-11.099Z" stroke="#F6F1FD" stroke-width="1.18" stroke-linecap="round" stroke-linejoin="round"/><path d="m63.002 158.54 20.667-12.664-9.037-5.54-11.63 7.124v11.08Z" stroke="#F6F1FD" stroke-width="1.18" stroke-linecap="round" stroke-linejoin="round"/><path d="m104.336 158.54-20.667-12.664 9.037-5.54 11.63 7.124v11.08ZM154.709 116.469l11.63 7.134v11.117l-20.667-12.673 9.037-5.578ZM177.969 116.47l-11.62 7.133v11.118l20.667-12.674-9.047-5.577ZM228.351 85.612l-20.667 12.673v11.089l20.667-12.673V85.61Z" stroke="#F6F1FD" stroke-width="1.18" stroke-linecap="round" stroke-linejoin="round"/><path d="m145.672 122.047 20.677-12.673-9.047-5.549-11.63 7.133v11.089ZM104.337 85.612l20.677 12.683v11.079l-20.667-12.673-.01-11.09ZM145.681 85.612l-20.667 12.683v11.079l20.677-12.673-.01-11.09Z" stroke="#F6F1FD" stroke-width="1.18" stroke-linecap="round" stroke-linejoin="round"/><path d="m104.337 122.047 20.677-12.673-9.037-5.549-11.63 7.133-.01 11.089ZM145.681 122.047l-20.667-12.673 9.047-5.549 11.63 7.133-.01 11.089ZM63.002 85.612l20.667 12.682v11.08L63.002 96.701V85.61ZM52.688 306.313l20.668 12.674v11.089l-20.667-12.674v-11.089ZM84.986 311.882l-11.63 7.133v11.061l20.667-12.674-9.037-5.52Z" stroke="#F6F1FD" stroke-width="1.18" stroke-linecap="round" stroke-linejoin="round"/><path d="m94.023 317.402-20.667-12.673v-11.146l20.667 12.73v11.089ZM216.898 67.389l11.631 7.133v11.09l-20.668-12.674 9.037-5.549ZM207.861 36.502l20.668 12.674v11.089l-20.668-12.683v-11.08Z" stroke="#F6F1FD" stroke-width="1.18" stroke-linecap="round" stroke-linejoin="round"/><path d="m249.196 36.502-20.668 12.674v11.089l20.668-12.683v-11.08Z" stroke="#F6F1FD" stroke-width="1.18" stroke-linecap="round" stroke-linejoin="round"/><path d="m207.861 72.938 20.668-12.673-9.037-5.55-11.631 7.134v11.09ZM175.563 67.389l11.631 7.133v11.09l-20.668-12.674 9.037-5.549ZM166.517 36.502l20.667 12.674v11.089l-20.667-12.683v-11.08ZM207.861 36.502l-20.668 12.674v11.089l20.668-12.683v-11.08Z" stroke="#F6F1FD" stroke-width="1.18" stroke-linecap="round" stroke-linejoin="round"/><path d="m166.517 72.938 20.667-12.673-9.037-5.55-11.63 7.134v11.09ZM207.862 0l-20.668 12.683v11.08l20.668-12.674V0ZM207.862 36.446l-20.668-12.683 9.037-5.54 11.631 7.133v11.09ZM30.704 178.366l11.63 7.133v11.089l-20.667-12.673 9.037-5.549ZM21.667 147.479l20.667 12.626v11.137l-20.667-12.674v-11.089Z" stroke="#F6F1FD" stroke-width="1.18" stroke-linecap="round" stroke-linejoin="round"/><path d="m63.001 147.479-20.667 12.626v11.137l20.667-12.674v-11.089Z" stroke="#F6F1FD" stroke-width="1.18" stroke-linecap="round" stroke-linejoin="round"/><path d="m21.667 183.915 20.667-12.683-9.047-5.54-11.62 7.134v11.089ZM21.667 147.479 1 160.105v11.137l20.667-12.674v-11.089ZM133.922 483.256l11.62 7.133v11.08l-20.717-12.674 9.097-5.539ZM124.825 452.36l20.667 12.673v11.089l-20.667-12.673V452.36Z" stroke="#F6F1FD" stroke-width="1.18" stroke-linecap="round" stroke-linejoin="round"/><path d="m166.159 452.36-20.667 12.673v11.089l20.667-12.673V452.36Z" stroke="#F6F1FD" stroke-width="1.18" stroke-linecap="round" stroke-linejoin="round"/><path d="m124.825 488.795 20.667-12.673-9.037-5.54-11.63 7.124v11.089ZM71.86 507.018l11.63 7.134v11.079l-20.667-12.673 9.037-5.54ZM62.823 476.122l20.667 12.674v11.089l-20.667-12.674v-11.089Z" stroke="#F6F1FD" stroke-width="1.18" stroke-linecap="round" stroke-linejoin="round"/><path d="M104.158 476.122 83.49 488.796v11.089l20.668-12.674v-11.089Z" stroke="#F6F1FD" stroke-width="1.18" stroke-linecap="round" stroke-linejoin="round"/><path d="m62.823 512.558 20.668-12.673-9.047-5.54-11.63 7.124.01 11.089ZM124.826 452.36l-20.668 12.673v11.089l20.668-12.673V452.36ZM373.051 379.659l-20.667 12.674v11.089l20.667-12.673v-11.09ZM352.384 366.986l-20.667 12.673v11.089l20.667-12.683v-11.079ZM331.885 343.185l-20.667 12.674V366.9l20.667-12.654v-11.061ZM373.051 343.185l-20.667 12.674V366.9l20.667-12.682v-11.033ZM373.309 233.498l-20.638 12.674v11.089l20.667-12.674-.029-11.089Z" stroke="#F6F1FD" stroke-width="1.18" stroke-linecap="round" stroke-linejoin="round"/></svg>
