<svg xmlns="http://www.w3.org/2000/svg" width="139" height="168" fill="none"><path d="M.26 81.406s21.033-3.125 32.182-4.055C43.169 76.506 55.842 76 69.352 76c13.512 0 26.269.507 36.912 1.351 11.149.929 32.181 5.237 32.181 5.237v5.49c0 4.814-31 8.784-69.177 8.784C31.09 96.862.26 92.892.26 88.078v-6.672Z" fill="#262223"/><path d="m23.373 132.249-2.795-19.194-.127-.251-.321-2.84-.364-2.5h.08l-.612-5.419-.162-1.433c-.043-.38-.363-5.49 1.07-8.662a17.69 17.69 0 0 0 1.719 2.71c.025.032.053.064.078.1.193.246.393.49.6.73l.143.154c.2.218.4.433.613.643.064.063.13.123.195.185.206.2.418.39.638.577l.24.2a14.073 14.073 0 0 0 .94.71c3.725 3.377 40.427 4.738 54.32 6.23 8.267.888 23.28.189 24.001 1.037.471.55.517 14.575.7 15.275 3.039 11.548 2.307 13.47-1.067 24.923v.017l.011 1.137c-11.38 10.841-25.21 21.2-42.53 20.956-9.205.178-16.74-1.52-22.52-5.093a31.917 31.917 0 0 1-12.676-17.357 43.853 43.853 0 0 1-.975-4.551l-1.2-8.284Z" fill="#FF8F66"/><path d="M97.314 128.132c0-12.979-6.47-18.644-24.787-18.644-13.6 0-49.469-.258-52.527.453 0 0-3.056-24.56-1.849-34.69.023-.044 23.789-15.57 23.812-15.617-.151-.08 19.42-4.63 26.057-3.52l30.315-5.517c25.891-1.137 31.8 22.807 31.214 31.381l-3.131 21.262a16.937 16.937 0 0 1 7.714 19.107 16.944 16.944 0 0 1-16.443 12.422h-.024c-1.422 0-2.838-.181-4.215-.537a110.902 110.902 0 0 1-10.217 12.383l-5.39 4.892c.002-10.649-.53-11.434-.53-23.375Z" fill="url(#a)"/><path d="M11.589 116.333a16.858 16.858 0 0 1 6.888-13.761c.248-.183.5-.361.757-.531l.613 5.419h-.081l.364 2.5.32 2.84.129.251 2.794 19.194a16.943 16.943 0 0 1-11.784-15.912Z" fill="url(#b)"/><path d="M127.68 104.062a16.84 16.84 0 0 0-9.744-3.167h-.12a16.783 16.783 0 0 0-7.046 1.529c-2.265-4.811-6.744-5.819-10.1-5.819-1.302-.005-2.6.144-3.868.444-.165-.162-16.673-16.3-19.326-17.014a31.062 31.062 0 0 0-8.263-.94 45.05 45.05 0 0 0-8.069.694c-.62.111-1.25.242-1.856.37l-.118.02c-1.288.297-2.592.521-3.905.673-.688.068-1.425.101-2.252.101-1 0-1.988-.05-2.647-.088-3.154-.174-6.791-.482-10.021-1.986a20.284 20.284 0 0 1-5.8-4.594l-.016-.017a23.308 23.308 0 0 0-5.02-4.207 22.681 22.681 0 0 0-2.121-1.026l-.044-.021c-1.165-.506-2.084-.906-2.5-1.717-.432-.846-.3-2.146.427-4.223 1.68-4.787 5.745-10.1 12.082-15.777a54.882 54.882 0 0 1 36.5-13.984c1.8 0 3.598.09 5.388.271a2.2 2.2 0 0 0 .216.01c.194-.004.387-.02.578-.05h.023c.118-.013.243-.03.366-.04a61.51 61.51 0 0 0-2.474-.191h.143l.493.025a5.835 5.835 0 0 1 2.412-2.164 14.951 14.951 0 0 1 5-1.174h.007l4.327-.5h.033l4.3-.5a7.637 7.637 0 0 1-6.259 4.51 24.04 24.04 0 0 0 8.254-.752 10.382 10.382 0 0 1-2.17 3.875 52.895 52.895 0 0 1 14.647 8.166 55.927 55.927 0 0 1 10.545 10.98 57.258 57.258 0 0 1 6.68 11.865 36.229 36.229 0 0 1 2.737 21.561v.006l-.07.64c-.16 4.762-.609 9.509-1.346 14.215l-.003-.004Z" fill="url(#c)"/><path d="M121.392 116.913c3.619-1.3 3.82-6.458.343-7.859a6.824 6.824 0 0 0-5.323-.117c-3.7 1.474-4.69 3.934-4.647 8.158a10.162 10.162 0 0 0 2.516 6.647l-.007-.676c-.109-2.7 3.753-4.937 7.118-6.153Z" fill="#FF8F66"/><path d="M59.48 149.796a8.955 8.955 0 0 1-8.953-8.953h17.991a8.922 8.922 0 0 1-8.892 8.953h-.145Z" fill="#fff"/><path d="m126.195 67.132-50.243-7.424-12.963-.522-51.493-3.464-.236 27.454c0 13.682 11.318 22.213 25 22.213h50.725v-10.13a23.057 23.057 0 0 0 2.829 3.447c4.259 4.283 17.492 6.683 17.492 6.683 3.018-4.187 10.985-6.206 16.131-5.808l-2.33-1.543c2.604-.005 5.088-30.906 5.088-30.906Z" fill="url(#d)"/><path d="M138.784 86.695v-6.757c0-4.646-29.368-8.565-65.772-8.818h-3.97c-38.01 0-69.008 3.97-69.008 8.784v6.757a1.466 1.466 0 0 0 .253 1.183c.084-.085.253-.17.338-.253.929-.93 2.956-1.774 5.913-2.618 3.04-.76 6.08-1.351 9.122-1.858a10.645 10.645 0 0 1 10.136 4.054 14.724 14.724 0 0 0 11.825 5.828H74.87a22.14 22.14 0 0 0 13.683-4.646l5.32-4.054a12.343 12.343 0 0 1 7.434-2.534c7.264.084 12.247.084 13.008.169 5.892.56 11.735 1.547 17.484 2.956 2.273.473 4.891 1.489 6.731 2.906a1.213 1.213 0 0 0 .254-1.1Z" fill="#FFF100"/><path d="M90.715 8.013a63.299 63.299 0 0 1 42.063 59.717v8.954c-5.744-1.69-17.886-3.368-29.964-4.297.084-1.689 0-6.726 0-8.5.085-23.482-6-34-12.1-55.874Z" fill="url(#e)"/><path d="M6.08 67.73a63.141 63.141 0 0 1 14.443-40.29c-4.061 12.983-5.026 26.075-4.94 39.678 0 2.45.084 4.9.169 7.348-2.886.409-6.797 1.472-9.59 2.3L6.08 67.73Z" fill="url(#f)"/><path d="M20.524 27.439a63.385 63.385 0 0 1 70.19-19.427c9.038 14.78 14.781 35.982 14.781 59.548 0 1.774 0 3.463-.084 5.237-9.46-.76-20.356-1.182-32.012-1.267h-3.885c-22.3 0-42.063 1.35-54.733 3.379-.169-2.45-.253-4.899-.253-7.348a131.6 131.6 0 0 1 5.996-40.122Z" fill="#FFF100"/><path d="m43.957 31.579 4.054-25.086a4.726 4.726 0 0 1 3.379-3.885 63.772 63.772 0 0 1 35.813-.084 4.726 4.726 0 0 1 3.379 3.885l4.054 25.17" fill="#FFF100"/><path d="m45.185 50.834 14.613 8.955v11.656L45.185 50.834Zm0-5.406 14.613-23.563v32.102l-14.613-8.54Z" fill="#0A0A0A"/><path d="m59.798 59.79 14.613-8.956-14.613 20.611V59.79Zm0-22.981V21.86l14.618 23.567-.086-.047v.047l-14.61 8.449.078-17.068Z" fill="#4B4D4D"/><defs><linearGradient id="a" x1="91.217" y1="106.888" x2="92.806" y2="155.662" gradientUnits="userSpaceOnUse"><stop stop-color="#FB7E51"/><stop offset="1" stop-color="#FF8F66"/></linearGradient><linearGradient id="b" x1="17.48" y1="102.041" x2="6.324" y2="104.47" gradientUnits="userSpaceOnUse"><stop stop-color="#FB7F52"/><stop offset="1" stop-color="#FF8F66"/></linearGradient><linearGradient id="c" x1="101.408" y1="104.066" x2="67.41" y2="34.505" gradientUnits="userSpaceOnUse"><stop stop-color="#4F00A3"/><stop offset="1" stop-color="#23004E"/></linearGradient><linearGradient id="d" x1="84.703" y1="95.506" x2="82.78" y2="65.918" gradientUnits="userSpaceOnUse"><stop stop-color="#4F00A3"/><stop offset="1" stop-color="#23004E"/></linearGradient><linearGradient id="e" x1="111.746" y1="8.013" x2="111.746" y2="76.684" gradientUnits="userSpaceOnUse"><stop stop-color="#FFF100"/><stop offset="1" stop-color="#F5D600"/></linearGradient><linearGradient id="f" x1="13.302" y1="27.44" x2="13.302" y2="76.767" gradientUnits="userSpaceOnUse"><stop stop-color="#FFF100"/><stop offset="1" stop-color="#F5D600"/></linearGradient></defs></svg>