<svg width="815" height="842" fill="none" xmlns="http://www.w3.org/2000/svg"><path opacity=".255" d="m406.815 153.341 20.3 13c.1 0 .2.1.3.1a.367.367 0 0 0 .3-.1l19.7-12.6v10.4a.548.548 0 0 0 .3.5l20.3 13.1a.499.499 0 0 0 .6 0 .553.553 0 0 0 .3-.5v-11.5a.548.548 0 0 0-.3-.5l-10.7-6.8 10.4-6.6 20 12.8a.499.499 0 0 0 .6 0 .553.553 0 0 0 .3-.5v-11.4a.548.548 0 0 0-.3-.5l-20.3-13h-.4l-19.7 12.6v-10.4a.548.548 0 0 0-.3-.5.638.638 0 0 0-.6 0l-20 12.8-20-12.8-10.7-6.8 10.7-6.8a.553.553 0 0 0 .3-.5v-11.4a.548.548 0 0 0-.3-.5.638.638 0 0 0-.6 0l-20.3 13c-.1 0-.1.1-.2.2 0 .1-.1.2-.1.3v11.4a.548.548 0 0 0 .3.5l20.1 13Zm62.1-12.5 19.1 12.3v10l-19.1-12.3v-10Zm-1.2 0v10l-10.8 6.9-5.9-3.8-1.9-1.2 18.6-11.9Zm-19.1 13 1.2.8 18 11.5v10.1l-19.2-12.4v-10Zm-20.6.9 19.1-12.3v10l-19.1 12.3v-10Zm-20.3-12.2 19.1 12.3v10l-19.1-12.3v-10Zm-1.1-26v10l-10.8 6.9-7.8-5 18.6-11.9Zm-19.2 13 19.1 12.3v10l-19.1-12.3v-10Zm-224.1 72.5c.1 0 .2.1.3.1a.367.367 0 0 0 .3-.1l20-12.8 20 12.8a.499.499 0 0 0 .6 0 .553.553 0 0 0 .3-.5v-11.3a.548.548 0 0 0-.3-.5l-10.7-6.8 10.7-6.8a.553.553 0 0 0 .3-.5v-11.4a.365.365 0 0 0-.1-.3l-.1-.1-.1-.1-20.3-13a.638.638 0 0 0-.6 0 .547.547 0 0 0-.3.5v11.4a.548.548 0 0 0 .3.5l10.7 6.8-10.8 6.8-20.3 13a.547.547 0 0 0-.3.5v11.4c.1.1.2.3.4.4Zm21.1-39.8v-10l18.7 11.9-2.2 1.4-5.6 3.6-10.9-6.9Zm17.7 4 1.5-1v10l-10.8 6.9-7.8-5 17.1-10.9Zm-17.7 12 8 5.1 11.2 7.1v10l-19.1-12.3v-9.9h-.1Zm-20.3 12.3 19.1-12.3v10l-19.1 12.3v-10Zm263.1-13.8a.547.547 0 0 0-.3.5v11.4a.548.548 0 0 0 .3.5l20.3 13a.499.499 0 0 0 .6 0 .553.553 0 0 0 .3-.5v-11.4a.548.548 0 0 0-.3-.5l-20.3-13a.628.628 0 0 0-.6 0Zm.8 1.5 19.1 12.3v10l-19.1-12.3v-10Zm-.2 110.7a.638.638 0 0 0-.6 0 .547.547 0 0 0-.3.5v11.4a.548.548 0 0 0 .3.5l20.3 13a.499.499 0 0 0 .6 0 .553.553 0 0 0 .3-.5v-11.4a.548.548 0 0 0-.3-.5l-20.3-13Zm19.4 23.8-19.1-12.3v-10l19.1 12.3v10Zm-263.5 162.9-20.3 13a.547.547 0 0 0-.3.5v11.4a.548.548 0 0 0 .3.5c.1 0 .2.1.3.1a.367.367 0 0 0 .3-.1l20-12.8 20 12.8a.499.499 0 0 0 .6 0 .553.553 0 0 0 .3-.5v-11.4a.548.548 0 0 0-.3-.5l-10.7-6.8 10.7-6.8a.553.553 0 0 0 .3-.5v-11.4a.365.365 0 0 0-.1-.3l-.1-.1-.1-.1-20.3-13a.638.638 0 0 0-.6 0 .547.547 0 0 0-.3.5v11.4a.548.548 0 0 0 .3.5l10.7 6.8-10.7 6.8Zm-.3 11.5-19.1 12.3v-10l19.1-12.3v10Zm1.1-25.9v-10l18.7 11.9-2.7 1.7-5.1 3.3-10.9-6.9Zm17.4 4.1 1.8-1.2v10l-10.8 6.9-7.8-5 16.8-10.7Zm-17.4 11.8 8 5.1 11.1 7.1v10l-19.1-12.2v-10Zm-162.6 275.2h-.6l-20.3 13a.554.554 0 0 0-.3.5v11.4a.55.55 0 0 0 .3.5c.1 0 .2.1.3.1a.368.368 0 0 0 .3-.1l20-12.8 20 12.8a.5.5 0 0 0 .6 0 .553.553 0 0 0 .3-.5v-11.4a.549.549 0 0 0-.3-.5l-20.3-13Zm-.9 11.5-19.1 12.3v-10l19.1-12.3v10Zm20.3 12.2-19.1-12.2v-10l19.1 12.3v9.9Zm111.9-211.6a.499.499 0 0 0 .6 0 .553.553 0 0 0 .3-.5v-11.4a.548.548 0 0 0-.3-.5l-10.7-6.8 10.4-6.6 20 12.8a.499.499 0 0 0 .6 0 .553.553 0 0 0 .3-.5v-11.4a.548.548 0 0 0-.3-.5l-20.3-13h-.6l-20.3 13-.1.1a.099.099 0 0 0-.1.1c0 .1-.1.2-.1.3v11.4a.548.548 0 0 0 .3.5l20.3 13Zm.9-36.8 19.1 12.3v10l-19.1-12.2v-10.1Zm-1.2 0v10l-10.8 6.9-6.2-3.9-1.7-1.1 18.7-11.9Zm-19.1 13 .2.1 18.9 12.1v10.1l-19.1-12.3v-10Zm29.6-313.4a.547.547 0 0 0-.3.5v11.4a.548.548 0 0 0 .3.5l20.3 13.1a.499.499 0 0 0 .6 0 .553.553 0 0 0 .3-.5v-11.4a.548.548 0 0 0-.3-.5l-20.3-13a.47.47 0 0 0-.6-.1Zm.8 1.6 19.1 12.3v10.1l-19.1-12.4v-10Zm121.4 473a.638.638 0 0 0-.6 0l-20.3 13a.553.553 0 0 0-.3.5v11.4a.548.548 0 0 0 .3.5c.1 0 .2.1.3.1a.367.367 0 0 0 .3-.1l20.3-13a.553.553 0 0 0 .3-.5v-11.4a.548.548 0 0 0-.3-.5Zm-.8 11.6-19.1 12.3v-10l19.1-12.3v10Zm122.6-11.6a.638.638 0 0 0-.6 0l-20.3 13a.553.553 0 0 0-.3.5v11.4a.548.548 0 0 0 .3.5c.1 0 .2.1.3.1a.367.367 0 0 0 .3-.1l20.3-13a.553.553 0 0 0 .3-.5v-11.4a.548.548 0 0 0-.3-.5Zm-.8 11.6-19.1 12.3v-10l19.1-12.3v10Zm183.1-547.1a.5.5 0 0 0 .6 0 .553.553 0 0 0 .3-.5v-11.3a.548.548 0 0 0-.3-.5l-20.3-13a.638.638 0 0 0-.6 0 .547.547 0 0 0-.3.5v11.3a.548.548 0 0 0 .3.5l20.3 13Zm-19.4-23.8 19.2 12.3v10l-19.1-12.3v-10h-.1Zm19.7-2.3c.1 0 .2.1.3.1a.367.367 0 0 0 .3-.1l20-12.8 19.7 12.6v11.1a.548.548 0 0 0 .3.5l10.7 6.8-10.7 6.8a.547.547 0 0 0-.3.5v11.4a.548.548 0 0 0 .3.5c.1 0 .2.1.3.1a.367.367 0 0 0 .3-.1l20.3-13a.553.553 0 0 0 .3-.5v-11.3a.367.367 0 0 0-.1-.3l-.1-.1-.1-.1-20-12.8v-11.1a.548.548 0 0 0-.3-.5l-10.7-6.9 10.7-6.8a.553.553 0 0 0 .3-.5v-11.4c0-.1 0-.1-.1-.2l-.1-.1-.1-.1-20.3-13a.635.635 0 0 0-.6 0 .55.55 0 0 0-.3.5v11.3a.548.548 0 0 0 .3.5l10.7 6.8-10.7 6.8-20.3 13a.547.547 0 0 0-.3.5v11.4a.548.548 0 0 0 .3.5Zm60.6 23.6-19.1 12.3v-10l11.2-7.1 8-5.1v9.9h-.1Zm-19.1-23 18.6 12-7.8 5-10.8-7v-10Zm-20.3-40.4v-10l18.7 11.9-7 4.5-.9.5-10.8-6.9Zm12 7.6 7.1-4.5v10l-10.8 6.9-7.8-5 11.5-7.4Zm-12 8.4 8 5.1 11.2 7.1v10l-19.1-12.3v-9.9h-.1Zm-20.3 12.3 19.1-12.3v10l-19.1 12.3v-10Zm-61.8 84.9c.1 0 .2.1.3.1a.367.367 0 0 0 .3-.1l20.3-13a.553.553 0 0 0 .3-.5v-10.5l10.5 6.7a.499.499 0 0 0 .6 0l8-5.1v10.1l-20 12.8a.561.561 0 0 0-.3.5.562.562 0 0 0 .3.5l8.9 5.7a.499.499 0 0 0 .6 0l11.1-7.1 10.4 6.6-10.7 6.8a.561.561 0 0 0-.3.5.562.562 0 0 0 .3.5l8.9 5.7a.499.499 0 0 0 .6 0l11.1-7.1 10.4 6.6-10.7 6.8a.547.547 0 0 0-.3.5v11.4a.548.548 0 0 0 .3.5c.1 0 .2.1.3.1a.367.367 0 0 0 .3-.1l20-12.8 20 12.8a.499.499 0 0 0 .6 0 .553.553 0 0 0 .3-.5v-11.4a.548.548 0 0 0-.3-.5l-10.7-6.8 10.7-6.8a.553.553 0 0 0 .3-.5v-11.4a.548.548 0 0 0-.3-.5.638.638 0 0 0-.6 0l-20 12.8-19.3-12.3 19.6-12.5a.553.553 0 0 0 .3-.5v-11.5c0-.1 0-.1-.1-.2l-.1-.1a.103.103 0 0 0-.029-.071.1.1 0 0 0-.071-.029l-10.6-6.8 10.7-6.8a.553.553 0 0 0 .3-.5v-11.4a.548.548 0 0 0-.3-.5.638.638 0 0 0-.6 0l-20 12.8-20-12.8a.638.638 0 0 0-.6 0 .547.547 0 0 0-.3.5v11.4a.548.548 0 0 0 .3.5l10.7 6.8-10.4 6.6-20-12.8a.638.638 0 0 0-.6 0 .547.547 0 0 0-.3.5v11.3l-20 12.8a.547.547 0 0 0-.3.5v11.4c-.1.1 0 .3.2.4Zm40.3-1-10.8 6.9-7.8-5 18.7-11.9v10h-.1Zm60.9 3v10l-10.8 6.9-7.8-5 18.6-11.9Zm-19.1 13 8 5.1 11.2 7.1v10l-19.1-12.3v-9.9h-.1Zm-40.6-16v-10l18.7 11.9-7.8 5-10.9-6.9Zm19.1 13-10.8 6.9-7.8-5 10.7-6.8 8-5.1-.1 10Zm20.3 13-19.1 12.3v-10l11.2-7.1 8-5.1v9.9h-.1Zm-.5-11-7.8 5-10.8-6.9v-10l18.6 11.9Zm.5-26.4-19.1 12.3v-10l11.1-7.1 8-5.1v9.9Zm0-36v10l-10.8 6.9-7.8-5 18.6-11.9Zm-.5 25-7.8 5-10.8-6.9v-10l18.6 11.9Zm-19.2-1 10.3 6.6-10.3 6.6-10.3-6.6 10.3-6.6Zm-19.7-14v-10l18.7 11.9-7.8 5-10.9-6.9Zm19.1 3v10l-10.8 6.9-7.8-5 18.6-11.9Zm-19.1 13 8 5.1 11.1 7.1v10l-19.1-12.3v-9.9Zm-20.3-13 18.7 11.9-7.8 5-10.8-6.9-.1-10Zm-20.3 23.9 19.1-12.3v10l-19.1 12.3v-10Zm131-162.8a.364.364 0 0 0 .3.1.365.365 0 0 0 .3-.1.549.549 0 0 0 .3-.5v-11.4a.549.549 0 0 0-.3-.5l-10.7-6.8 10.4-6.6 20 12.8a.364.364 0 0 0 .3.1.365.365 0 0 0 .3-.1.549.549 0 0 0 .3-.5v-11.4a.549.549 0 0 0-.3-.5l-20.3-13h-.6l-20.3 13-.1.1a.099.099 0 0 0-.1.1c0 .1-.1.2-.1.3v11.4a.549.549 0 0 0 .3.5l20.3 13Zm.9-36.9 19.1 12.3v10l-19.1-12.3v-10Zm-1.1 0v10l-10.8 6.9-7.8-5 18.6-11.9Zm-19.2 13 8 5.1 11.2 7.1v10.1l-19.1-12.3v-10h-.1Zm-91.8 699.8c-.1-.1-.1-.2-.2-.2l-19.6-12.5 19.3-12.3 19.8 12.7c.1.1.1.2.2.2s.2.1.3.1a.367.367 0 0 0 .3-.1l20.3-13a.553.553 0 0 0 .3-.5v-11.4a.365.365 0 0 0-.1-.3l-.1-.1-.1-.1-20.1-12.9-.1-.1-.1-.1-20.3-13a.638.638 0 0 0-.6 0 .547.547 0 0 0-.3.5v11.4a.548.548 0 0 0 .3.5l10.7 6.8-10.7 6.8-20 12.8-10.4-6.6 10.7-6.8a.553.553 0 0 0 .3-.5v-11.4a.367.367 0 0 0-.1-.3l-.1-.1-.1-.1-20-12.8v-11.5a.548.548 0 0 0-.3-.5l-10.7-6.8 10.7-6.8a.553.553 0 0 0 .3-.5v-11.5c0-.1 0-.1-.1-.2l-.1-.1-.1-.1-20.3-13a.638.638 0 0 0-.6 0 .553.553 0 0 0-.3.5v11.4a.548.548 0 0 0 .3.5l10.7 6.8-10.7 6.8a.099.099 0 0 0-.1.1l-.1.1-20.3 13a.553.553 0 0 0-.3.5v10.3l-19.4-12.4h-.6l-19.4 12.4v-10.4a.548.548 0 0 0-.3-.5l-10.7-6.8 10.7-6.8a.553.553 0 0 0 .3-.5v-11.3a.367.367 0 0 0-.1-.3c0-.1-.1-.1-.1-.2l-19.9-12.8v-10.1l7.9 5a.499.499 0 0 0 .6 0l10.5-6.7v10.4a.548.548 0 0 0 .3.5l20.3 13a.499.499 0 0 0 .6 0 .553.553 0 0 0 .3-.5v-11l20-12.8a.553.553 0 0 0 .3-.5v-11.4a.548.548 0 0 0-.3-.5.638.638 0 0 0-.6 0l-20.3 13a.547.547 0 0 0-.3.5v10.3l-19-12.2v-10.9l19.9-12.8c.1-.1.2-.1.2-.2a.517.517 0 0 0 .2-.4v-11.4a.548.548 0 0 0-.3-.5l-10.7-6.8 10.4-6.6 20 12.8a.499.499 0 0 0 .6 0 .553.553 0 0 0 .3-.5v-10.9l19.9-12.7 19.8 12.7.1.1 20.3 13a.499.499 0 0 0 .6 0l.3-.3 19.8-12.6 20 12.8a.5.5 0 0 0 .6 0 .553.553 0 0 0 .3-.5v-11.4a.548.548 0 0 0-.3-.5l-10.7-6.8 10.4-6.6 19.9 12.8v11.5l-20 12.8a.553.553 0 0 0-.3.5v11.4a.548.548 0 0 0 .3.5c.1 0 .2.1.3.1a.367.367 0 0 0 .3-.1l20.3-13a.553.553 0 0 0 .3-.5v-10.5l10.5 6.7a.5.5 0 0 0 .6 0l8-5.1v10.1l-20 12.8a.561.561 0 0 0-.3.5.562.562 0 0 0 .3.5l8.9 5.7a.5.5 0 0 0 .6 0l11.1-7.1 10.4 6.6-10.7 6.8a.561.561 0 0 0-.3.5.562.562 0 0 0 .3.5l8.9 5.7a.5.5 0 0 0 .6 0l11.1-7.1 10.4 6.6-10.7 6.8a.547.547 0 0 0-.3.5v11.1a.548.548 0 0 0 .3.5c.1 0 .2.1.3.1a.367.367 0 0 0 .3-.1l20-12.8 20 12.8a.5.5 0 0 0 .6 0 .553.553 0 0 0 .3-.5v-11.4a.548.548 0 0 0-.3-.5l-10.7-6.8 10.7-6.8a.553.553 0 0 0 .3-.5v-11.1l19.7-12.6 20 12.8a.499.499 0 0 0 .6 0 .553.553 0 0 0 .3-.5v-11.4a.548.548 0 0 0-.3-.5l-10.7-6.8 10.7-6.8a.553.553 0 0 0 .3-.5v-11.4a.548.548 0 0 0-.3-.5.638.638 0 0 0-.6 0l-20 12.8-19.3-12.3 19.6-12.5a.553.553 0 0 0 .3-.5v-11.4a.367.367 0 0 0-.1-.3l-.1-.1-.1-.1-19.6-12.5 19.3-12.3 20 12.8a.499.499 0 0 0 .6 0 .553.553 0 0 0 .3-.5v-11.4a.548.548 0 0 0-.3-.5l-10.7-6.8 10.7-6.8a.553.553 0 0 0 .3-.5v-11.7l-.1-.1-.1-.1-20.3-13a.638.638 0 0 0-.6 0 .547.547 0 0 0-.3.5v11.4a.548.548 0 0 0 .3.5l10.7 6.8-10.7 6.8-20 12.8-10.4-6.6 10.7-6.8a.553.553 0 0 0 .3-.5v-11.4a.365.365 0 0 0-.1-.3l-.1-.1-.1-.1-20.3-13a.638.638 0 0 0-.6 0 .547.547 0 0 0-.3.5v11.4a.548.548 0 0 0 .3.5l10.7 6.8-10.7 6.8-20.3 13a.547.547 0 0 0-.3.5v11.4a.548.548 0 0 0 .3.5c.1 0 .2.1.3.1a.367.367 0 0 0 .3-.1l20-12.8 19.7 12.6v11.1a.548.548 0 0 0 .3.5l10.7 6.8-10.7 6.8a.547.547 0 0 0-.3.5v22.8a.548.548 0 0 0 .3.5l10.7 6.8-10.7 6.8a.553.553 0 0 0-.3.5v11.1l-19.7 12.6-19.3-12.3 19.6-12.5a.553.553 0 0 0 .3-.5v-11.4a.365.365 0 0 0-.1-.3l-.1-.1-.1-.1-10.7-6.8 10.7-6.8a.553.553 0 0 0 .3-.5v-11.4a.548.548 0 0 0-.3-.5.638.638 0 0 0-.6 0l-20 12.8-19.9-12.7c0-.1.1-.1.1-.2v-11.4a.548.548 0 0 0-.3-.5l-20.3-13h-.6l-19.4 12.4v-10.4a.548.548 0 0 0-.3-.5l-10.7-6.8 10.7-6.8a.553.553 0 0 0 .3-.5v-10.7l20.1-12.9a.553.553 0 0 0 .3-.5v-11.4a.367.367 0 0 0-.1-.3l-.1-.1-.1-.1-19.6-12.5 19.3-12.3 20 12.8a.5.5 0 0 0 .6 0 .553.553 0 0 0 .3-.5v-11.4a.548.548 0 0 0-.3-.5l-10.7-6.8 10.7-6.8a.553.553 0 0 0 .3-.5v-11.4a.365.365 0 0 0-.1-.3l-.1-.1-.1-.1-20.3-13a.638.638 0 0 0-.6 0 .547.547 0 0 0-.3.5v11.4a.548.548 0 0 0 .3.5l10.7 6.8-10.7 6.8-20 12.8-10.6-6.5 10.7-6.8a.553.553 0 0 0 .3-.5v-11.4a.365.365 0 0 0-.1-.3l-.1-.1-.1-.1-19.5-12.4 19.6-12.6a.553.553 0 0 0 .3-.5v-11.3a.548.548 0 0 0-.3-.5.638.638 0 0 0-.6 0l-20.3 13a.547.547 0 0 0-.3.5v11a.517.517 0 0 0-.2.4v11.4a.548.548 0 0 0 .3.5l10.7 6.8-10.7 6.8-19.9 12.8-10.5-6.7 10.7-6.8a.553.553 0 0 0 .3-.5v-11.4a.548.548 0 0 0-.3-.5.638.638 0 0 0-.6 0l-20 12.8-19.4-12.4 19.6-12.5a.553.553 0 0 0 .3-.5v-11.4a.365.365 0 0 0-.1-.3l-.1-.1-.1-.1-10.7-6.8 10.7-6.8a.553.553 0 0 0 .3-.5v-22.9a.548.548 0 0 0-.3-.5l-10.7-6.8 10.7-6.8a.553.553 0 0 0 .3-.5v-11.5c0-.1 0-.1-.1-.2l-.1-.1-.1-.1-19.5-12.5 19.3-12.3 19.7 12.6v11.1a.548.548 0 0 0 .3.5l10.7 6.8-10.7 6.8a.547.547 0 0 0-.3.5v11.4a.548.548 0 0 0 .3.5c.1 0 .2.1.3.1a.367.367 0 0 0 .3-.1l20.3-13a.553.553 0 0 0 .3-.5v-11.4a.365.365 0 0 0-.1-.3l-.1-.1-.1-.1-19.6-12.5 19.3-12.3 20 12.8a.5.5 0 0 0 .6 0 .553.553 0 0 0 .3-.5v-11.4a.548.548 0 0 0-.3-.5l-10.7-6.8 10.7-6.8a.553.553 0 0 0 .3-.5v-11.4a.365.365 0 0 0-.1-.3l-.1-.1-.1-.1-20.3-13a.638.638 0 0 0-.6 0 .547.547 0 0 0-.3.5v11.4a.548.548 0 0 0 .3.5l10.7 6.8-10.7 6.8-20 12.8-10.4-6.6 10.7-6.6a.553.553 0 0 0 .3-.5v-11.4a.367.367 0 0 0-.1-.3.103.103 0 0 0-.029-.071.1.1 0 0 0-.071-.029l-19.5-12.4 19.6-12.6a.553.553 0 0 0 .3-.5v-11.4a.548.548 0 0 0-.3-.5.638.638 0 0 0-.6 0l-19.7 12.6v-10.6a.548.548 0 0 0-.3-.5l-10.7-6.8 10.7-6.8a.553.553 0 0 0 .3-.5v-11.4a.367.367 0 0 0-.1-.3l-.1-.1-.1-.1-20.3-13a.638.638 0 0 0-.6 0 .547.547 0 0 0-.3.5v11.4a.548.548 0 0 0 .3.5l10.7 6.8-10.7 6.8a.1.1 0 0 0-.038.008.115.115 0 0 0-.033.021.103.103 0 0 0-.021.033.1.1 0 0 0-.008.038l-.1.1-20.3 13a.547.547 0 0 0-.3.5v10.3l-19.4-12.4a.638.638 0 0 0-.6 0 .547.547 0 0 0-.3.5v11.4a.548.548 0 0 0 .3.5l20.3 13a.499.499 0 0 0 .6 0 .553.553 0 0 0 .3-.5v-11.1l20-12.8 19.9 12.7v10.7a.517.517 0 0 0-.2.4v11.4a.548.548 0 0 0 .3.5l10.7 6.8-10.7 6.8-20 12.8-20-12.8a.638.638 0 0 0-.6 0 .547.547 0 0 0-.3.5v11.4a.548.548 0 0 0 .3.5l20 12.8v11.1a.548.548 0 0 0 .3.5l10.7 6.8-10.7 6.8a.099.099 0 0 0-.1.1l-.1.1-20.3 13a.547.547 0 0 0-.3.5v10.2l-19.4-12.4h-.6l-19.5 12.4v-10.4a.548.548 0 0 0-.3-.5l-10.7-6.8 10.7-6.8a.553.553 0 0 0 .3-.5v-11.4a.548.548 0 0 0-.3-.5.638.638 0 0 0-.6 0l-20.3 13a.099.099 0 0 0-.1.1l-.1.1c0 .1-.1.2-.1.3v11.1l-19.1 12.3v-10.4a.548.548 0 0 0-.3-.5l-10.7-6.8 10.7-6.8a.553.553 0 0 0 .3-.5v-11.1l20-12.8a.553.553 0 0 0 .3-.5v-11.4a.548.548 0 0 0-.3-.5.638.638 0 0 0-.6 0l-20 12.8-10.3-6.6 10.7-6.8 20.3-13a.553.553 0 0 0 .3-.5v-10.4l19.4 12.4c.076.01.146.046.2.1.1 0 .2 0 .2-.1l20.3-13a.553.553 0 0 0 .3-.5v-11.4a.548.548 0 0 0-.3-.5.638.638 0 0 0-.6 0l-20 12.8-20-12.8-10.7-6.8 10.7-6.8.1-.1 20.2-12.9a.553.553 0 0 0 .3-.5v-11.4a.548.548 0 0 0-.3-.5.638.638 0 0 0-.6 0l-20.3 13-.1.1-19.3 12.4v-10.4a.548.548 0 0 0-.3-.5l-10.7-6.8 10.7-6.8a.553.553 0 0 0 .3-.5V191.841a.548.548 0 0 0-.3-.5l-10.5-6.8 10.7-6.8a.553.553 0 0 0 .3-.5v-11.4a.548.548 0 0 0-.3-.5.638.638 0 0 0-.6 0l-20 12.8-10.4-6.6 10.7-6.8a.553.553 0 0 0 .3-.5v-11.4a.548.548 0 0 0-.3-.5.638.638 0 0 0-.6 0l-19.5 12.5v-10.4a.548.548 0 0 0-.3-.5l-10.7-6.8 10.7-6.8a.553.553 0 0 0 .3-.5v-11.4a.548.548 0 0 0-.3-.5.638.638 0 0 0-.6 0l-20.3 13-20 12.8-10.4-6.6 10.7-6.8a.553.553 0 0 0 .3-.5v-11.4a.367.367 0 0 0-.1-.3c0-.1-.1-.1-.2-.2l-20.3-13a.638.638 0 0 0-.6 0 .547.547 0 0 0-.3.5v11.4a.548.548 0 0 0 .3.5l10.7 6.8-10.7 6.8a.1.1 0 0 0-.038.008.103.103 0 0 0-.033.021.115.115 0 0 0-.021.033.1.1 0 0 0-.008.038l-.1.1c0 .1-.1.2-.1.3v11.1l-19.1 12.3v-10.4a.548.548 0 0 0-.3-.5l-20.3-13a.638.638 0 0 0-.6 0 .547.547 0 0 0-.3.5v11.1l-20 12.8-.1.1-.1.1c0 .1 0 .1-.1.2v11.5a.548.548 0 0 0 .3.5l20 12.8v11.1a.548.548 0 0 0 .3.5l10.7 6.8-10.4 6.6-20-12.8a.638.638 0 0 0-.6 0 .547.547 0 0 0-.3.5v11.3l-19.6 12.5-20-12.8a.638.638 0 0 0-.6 0 .547.547 0 0 0-.3.5v11.4a.548.548 0 0 0 .3.5l20 12.8a.317.317 0 0 0 .3.3c.1 0 .2.1.3.1a.367.367 0 0 0 .3-.1l20.3-13a.553.553 0 0 0 .3-.5v-10.5l10.5 6.7a.499.499 0 0 0 .6 0l8-5.1v10.1l-20 12.8a.561.561 0 0 0-.3.5.562.562 0 0 0 .3.5l8.9 5.7a.499.499 0 0 0 .6 0l11.1-7.1 10.4 6.6-10.6 6.8a.099.099 0 0 0-.1.1l-.1.1c0 .1-.1.2-.1.3v11.1l-19.2 12.3v-10.4a.548.548 0 0 0-.3-.5l-20.3-13h-.5l-20.3 13a.547.547 0 0 0-.3.5v11.4a.548.548 0 0 0 .3.5c.1 0 .2.1.3.1a.367.367 0 0 0 .3-.1l20-12.8 19.7 12.6v11.1a.548.548 0 0 0 .3.5l20 12.8v11a.548.548 0 0 0 .3.5l10.7 6.8-10.4 6.6-20-12.8a.638.638 0 0 0-.6 0 .547.547 0 0 0-.3.5v11.3l-19.1 12.3v-10.3a.548.548 0 0 0-.3-.5l-10.7-6.8 10.7-6.8a.553.553 0 0 0 .3-.5v-11.5c0-.1 0-.1-.1-.2l-.2-.2-20.3-13a.638.638 0 0 0-.6 0 .547.547 0 0 0-.3.5v11.4a.548.548 0 0 0 .3.5l10.7 6.8-10.7 6.8-20.3 13a.547.547 0 0 0-.3.5v11.4a.548.548 0 0 0 .3.5c.1 0 .2.1.3.1a.367.367 0 0 0 .3-.1l20-12.8 19.7 12.6v11a.548.548 0 0 0 .3.5c.1 0 .2.1.3.1a.367.367 0 0 0 .3-.1l20.3-13a.553.553 0 0 0 .3-.5v-10.6l10.5 6.7a.499.499 0 0 0 .6 0l8-5.1v10.1l-20 12.8a.561.561 0 0 0-.3.5.562.562 0 0 0 .3.5l8.9 5.7a.499.499 0 0 0 .6 0l11.1-7.1 10.4 6.6-10.7 6.8a.561.561 0 0 0-.3.5.562.562 0 0 0 .3.5l8.9 5.7a.499.499 0 0 0 .6 0l11.1-7.1 10.4 6.6-10.7 6.8a.547.547 0 0 0-.3.5v10.4l-19.5-12.4h-.6l-19.4 12.4v-10.4a.548.548 0 0 0-.3-.5l-20.3-13h-.6l-20.3 13a.547.547 0 0 0-.3.5v11.4a.548.548 0 0 0 .3.5c.1 0 .2.1.3.1a.367.367 0 0 0 .3-.1l20-12.8 19.7 12.6v11.1a.548.548 0 0 0 .3.5l19.9 12.7c.076.01.146.046.2.1v10.8a.548.548 0 0 0 .3.5l10.7 6.8-10.7 6.8a.099.099 0 0 0-.1.1l-.1.1c0 .1-.1.2-.1.3v11.1l-20 12.8-.1.1-.1.1v11.7a.548.548 0 0 0 .3.5l20 12.8v11.1a.548.548 0 0 0 .3.5l10.7 6.8-10.4 6.6-20-12.8a.638.638 0 0 0-.6 0 .547.547 0 0 0-.3.5v11.3l-20 12.8a.547.547 0 0 0-.3.5v11.4a.548.548 0 0 0 .3.5c.1 0 .2.1.3.1a.367.367 0 0 0 .3-.1l20.3-13a.553.553 0 0 0 .3-.5v-10.5l10.5 6.7a.499.499 0 0 0 .6 0l8-5.1v10.1l-20 12.8a.561.561 0 0 0-.3.5.562.562 0 0 0 .3.5l8.9 5.7a.499.499 0 0 0 .6 0l11.1-7.1 10.4 6.6-10.7 6.8a.561.561 0 0 0-.3.5.562.562 0 0 0 .3.5l8.9 5.7a.499.499 0 0 0 .6 0l11.1-7.1 10.4 6.6-10.7 6.8a.547.547 0 0 0-.3.5v10.4l-19.4-12.4h-.4l-19.4 12.4v-10.4a.548.548 0 0 0-.3-.5l-20.3-13h-.6l-20.3 13a.547.547 0 0 0-.3.5v11.4a.548.548 0 0 0 .3.5c.1 0 .2.1.3.1a.367.367 0 0 0 .3-.1l20-12.8 19.7 12.6v11.1a.548.548 0 0 0 .3.5l19.9 12.7v11.4a.548.548 0 0 0 .3.5l10.7 6.8-10.4 6.6-20-12.8a.638.638 0 0 0-.6 0 .547.547 0 0 0-.3.5v11.3l-19.1 12.3v-10.4a.548.548 0 0 0-.3-.5l-10.7-6.8 10.7-6.8a.553.553 0 0 0 .3-.5v-11.4a.367.367 0 0 0-.1-.3l-.1-.1-.1-.1-20.3-13a.638.638 0 0 0-.6 0 .553.553 0 0 0-.3.5v11.4a.548.548 0 0 0 .3.5l10.7 6.8-10.7 6.8-19.8 12.7-20.1-12.9a.638.638 0 0 0-.6 0 .547.547 0 0 0-.3.5v11.4a.548.548 0 0 0 .3.5l10.7 6.8-10.7 6.8-20 12.8-10.4-6.6 10.7-6.8a.553.553 0 0 0 .3-.5v-11.5c0-.1 0-.2-.1-.2l-.1-.1a.103.103 0 0 0-.029-.071.1.1 0 0 0-.071-.029l-20.3-13a.638.638 0 0 0-.6 0 .547.547 0 0 0-.3.5v11.4a.548.548 0 0 0 .3.5l10.7 6.8-10.7 6.8-20.3 12.7-20-12.8a.64.64 0 0 0-.6 0 .555.555 0 0 0-.3.5v11.4a.55.55 0 0 0 .3.5l20.3 13c.1 0 .2.1.3.1a.368.368 0 0 0 .3-.1l20-12.8 19.7 12.6v11.1a.548.548 0 0 0 .3.5l10.7 6.8-10.7 6.8a.547.547 0 0 0-.3.5v22.8a.548.548 0 0 0 .3.5l10.7 6.8-10.7 6.8a.553.553 0 0 0-.3.5v11.1l-19.7 12.6-19.3-12.3 19.6-12.5a.553.553 0 0 0 .3-.5v-11.4a.367.367 0 0 0-.1-.3l-.1-.1-.1-.1-10.7-6.8 10.7-6.8a.553.553 0 0 0 .3-.5v-11.4a.548.548 0 0 0-.3-.5.638.638 0 0 0-.6 0l-20 12.8-20-12.8a.64.64 0 0 0-.6 0 .555.555 0 0 0-.3.5v11.4a.55.55 0 0 0 .3.5l10.7 6.8-10.4 6.6-20-12.8a.64.64 0 0 0-.6 0 .555.555 0 0 0-.3.5v11.3l-20 12.8a.548.548 0 0 0-.3.5v11.4a.55.55 0 0 0 .3.5c.1 0 .2.1.3.1a.368.368 0 0 0 .3-.1l20.3-13a.553.553 0 0 0 .3-.5v-10.5l10.5 6.7a.5.5 0 0 0 .6 0l8-5.1v10.1l-20 12.8a.563.563 0 0 0-.3.5.564.564 0 0 0 .3.5l8.9 5.7a.5.5 0 0 0 .6 0l11.1-7.1 10.4 6.6-10.7 6.8a.564.564 0 0 0-.22.791.566.566 0 0 0 .22.209l8.9 5.7a.5.5 0 0 0 .6 0l11.1-7.2 10.4 6.6-10.7 6.8a.555.555 0 0 0-.3.5v11.4a.55.55 0 0 0 .3.5c.1 0 .2.1.3.1a.368.368 0 0 0 .3-.1l20-12.8 20 12.8a.499.499 0 0 0 .6 0 .553.553 0 0 0 .3-.5v-11.4a.548.548 0 0 0-.3-.5l-10.7-6.8 10.7-6.8a.553.553 0 0 0 .3-.5v-11.1l19.7-12.6 19.9 12.7.1.1 8.9 5.7a.499.499 0 0 0 .6 0l11.1-7.1 10.4 6.6-10.7 6.8-20 12.8-20-12.8a.638.638 0 0 0-.6 0 .553.553 0 0 0-.3.5v11.4a.548.548 0 0 0 .3.5l20.3 13c.1 0 .2.1.3.1h.1c.1 0 .1 0 .2-.1l20-12.8 20 12.8a.499.499 0 0 0 .6 0 .553.553 0 0 0 .3-.5v-11.4a.548.548 0 0 0-.3-.5l-10.7-6.8 10.4-6.6 20 12.8a.499.499 0 0 0 .6 0 .553.553 0 0 0 .3-.5v-11.4a.548.548 0 0 0-.3-.5l-10.7-6.8 10.4-6.6 20 12.8a.499.499 0 0 0 .6 0 .553.553 0 0 0 .3-.5v-11.3a.548.548 0 0 0-.3-.5l-20.3-13h-.6l-19.4 12.4v-10.4a.548.548 0 0 0-.3-.5l-10.7-6.8 10.7-6.8a.553.553 0 0 0 .3-.5v-11.4a.367.367 0 0 0-.1-.3l-.1-.1-.1-.1-19.7-12.6 19.2-12.3 19.7 12.6v11.1a.548.548 0 0 0 .3.5l19.9 12.7a.499.499 0 0 0 .6 0 .553.553 0 0 0 .3-.5l.4-11.1a.548.548 0 0 0-.3-.5l-10.7-6.8 10.4-6.6 20 12.8a.499.499 0 0 0 .6 0 .553.553 0 0 0 .3-.5v-10.3l8 5.1a.499.499 0 0 0 .6 0l11.1-7.1 11.1 7.1a.499.499 0 0 0 .6 0l8-5.1v10.3a.548.548 0 0 0 .3.5l10.7 6.8-10.7 6.8a.553.553 0 0 0-.3.5v11.4a.548.548 0 0 0 .3.5c.1 0 .2.1.3.1a.367.367 0 0 0 .3-.1l20-12.8 20 12.8a.499.499 0 0 0 .6 0 .553.553 0 0 0 .3-.5v-11.4a.548.548 0 0 0-.3-.5l-10.7-6.8 10.7-6.8a.553.553 0 0 0 .3-.5v-11.1l19.1-12.3v10.4a.548.548 0 0 0 .3.5l10.7 6.8-10.7 6.8a.553.553 0 0 0-.3.5v11.4a.548.548 0 0 0 .3.5c.1 0 .2.1.3.1a.367.367 0 0 0 .3-.1l20.3-13 20-12.8 20 12.8a.499.499 0 0 0 .6 0 .553.553 0 0 0 .3-.5v-11.4a.548.548 0 0 0-.3-.5l-20-12.8v-11.1a.548.548 0 0 0-.3-.5l-10.7-6.8 10.4-6.6 20 12.8 20.3 13a.499.499 0 0 0 .6 0 .553.553 0 0 0 .3-.5v-11.4a.548.548 0 0 0-.3-.5l-10.7-6.8 10.4-6.6 20 12.8a.499.499 0 0 0 .6 0 .553.553 0 0 0 .3-.5v-11.1l20-12.8 19.6 12.5v11.5a.548.548 0 0 0 .3.5l10.7 6.8-10.7 6.8-20 12.8-20-12.8a.638.638 0 0 0-.6 0 .547.547 0 0 0-.3.5v11.4a.548.548 0 0 0 .3.5l20.3 13c.1 0 .2.1.3.1a.367.367 0 0 0 .3-.1l20-12.8 19.7 12.6v11.1a.548.548 0 0 0 .3.5l10.7 6.8-10.7 6.8a.553.553 0 0 0-.3.5v11.5a.548.548 0 0 0 .3.5c.1 0 .2.1.3.1a.367.367 0 0 0 .3-.1l20.3-13a.553.553 0 0 0 .3-.5v-11.4c-.1 0-.1-.1-.2-.2Zm39.6-26-19.1 12.3v-10l11.2-7.1 8-5.1v9.9h-.1Zm-19.2-23 18.7 11.9-7.8 5-10.8-6.9-.1-10Zm9.8 17.6-10.3 6.6-10.4-6.7 10.3-6.6 10.4 6.7Zm-30.1-20.7v-10l18.7 11.9-7.8 5-10.9-6.9Zm12.3 7.4 6.8-4.4v10l-10.8 6.9-7.8-5 11.8-7.5Zm-12.3 8.6 8 5.1 11.2 7.1v10l-19.1-12.3v-9.9h-.1Zm-101.6-88.7 19.1-12.3v10l-19.1 12.3v-10Zm141.2-27.7-19.1 12.3v-10l19.1-12.3v10Zm20.3 12.8-10.8 6.9-7.8-5 18.7-11.9v10h-.1Zm101.5-34.4v10l-10.8 6.9-7.8-5 18.6-11.9Zm-19.1 13 8 5.1 11.2 7.1v10l-19.1-12.3v-9.9h-.1Zm0-90.8v-10l18.7 11.9-7.8 5-10.9-6.9Zm19.1 3v10l-10.8 6.9-7.8-5 18.6-11.9Zm-19.1 13 1.5.9 17.7 11.3v10l-19.1-12.3v-9.9h-.1Zm-41.8 10-19.1 12.3v-10l19.1-12.3v10Zm1.2-26v-10l18.7 11.9-7.8 5-10.9-6.9Zm11.2 8.1 8-5.1v10l-10.8 6.9-7.8-5 10.6-6.8Zm7.9 30.1-19.1-12.3v-10l1.5.9 17.7 11.3v10.1h-.1Zm1.2-10 19.1-12.3v10l-19.1 12.3v-10Zm0 22.2v-10l18.7 11.9-7.8 5-10.9-6.9Zm0 15.2 11.2-7.1 8-5.1v10l-19.1 12.3v-10.1h-.1Zm0 22.2v-10l18.7 11.9-7.8 5-10.9-6.9Zm0 15.2 11.2-7.1 8-5.1v10l-19.1 12.3v-10.1h-.1Zm-1.2 12.2v10l-10.8 6.9-7.8-5 18.6-11.9Zm-19.1 13 1.5.9 17.7 11.3v10l-19.1-12.3v-9.9h-.1Zm-50.1-33.5-10.8-6.9v-10l18.7 11.9-7.9 5Zm9.5 17.5v-10l18.7 11.9-7.8 5-10.9-6.9Zm19.1 13-10.8 6.9-7.8-5 10.7-6.8 8-5.1-.1 10Zm0-12.2-19.1-12.3v-10l8 5.1 11.2 7.1v10.1h-.1Zm20.3 25.2-19.1 12.3v-10l17.7-11.3 1.5-.9v9.9h-.1Zm-.4-11.1-7.8 5-10.8-6.9v-10l18.6 11.9Zm.4-26.3-19.1 12.3v-10l11.2-7.1 8-5.1v9.9h-.1Zm0-36v10l-10.8 6.9-7.8-5 18.6-11.9Zm-12.3 17.4 11.8 7.6-7.8 5-10.8-6.9v-10l6.8 4.3Zm3 13.2-10.4 6.6-10.4-6.6 10.4-6.6 10.4 6.6Zm-11-7.6-10.8 6.9-7.8-5 11.8-7.6 6.8-4.4v10.1Zm-19.1-23 18.7 11.9-7.8 5-10.8-6.9v-10h-.1Zm-20.4-25 19.1 12.3v10l-19.1-12.3v-10Zm-.6 11 19.9 12.7c0 .1-.1.1-.1.2v11.4a.548.548 0 0 0 .3.5l10.7 6.8-10.4 6.6-19.9-12.7v-11.6a.548.548 0 0 0-.3-.5l-10.7-6.8 10.5-6.6Zm-.5-11v10l-10.8 6.9-7.4-4.8-.4-.2 18.6-11.9Zm-.1 25.3v10.1l-19.1-12.3v-10l19.1 12.2Zm1.3-127.2v-10l18.7 11.9-7.8 5-10.9-6.9Zm11.2 8.1 8-5.1v10l-10.8 6.9-7.8-5 10.6-6.8Zm-11.2 7.9 7.7 5 11.4 7.3v10l-19.1-12.3v-10Zm-40.6-154.2v-10l18.7 11.9-7.8 5-10.9-6.9Zm11.2 8.1 8-5.1v10l-10.8 6.9-7.8-5 10.6-6.8Zm-11.2 7.9 8 5.1 11.2 7.1v10l-19.1-12.3v-9.9h-.1Zm-1.2 47.3-19.1 12.3v-10l11.2-7.1 8-5.1v9.9h-.1Zm-19.1-35.1 19.1-12.3v10l-19.1 12.3v-10Zm0 12.2 18.7 11.9-7.5 4.8-.3.2-10.8-6.9-.1-10Zm-62.3-52.5-19.1-12.3v-10l19.1 12.3v10Zm20.3-23.6-19.1 12.3v-10l19.1-12.3v10Zm1.3-26.2v-10l18.7 11.9-7.8 5-10.9-6.9Zm11.2 8.1 8-5.1v10l-10.8 6.9-7.8-5 10.6-6.8Zm8 30.1-19.1-12.3v-10l8 5.1 11.2 7.1v10.1h-.1Zm1.4 1.6 19.1-12.3v10l-19.1 12.3v-10Zm-.2 22.1v-10l18.7 11.9-7.8 5-10.9-6.9Zm11.2 8.1 8-5.1v10l-10.8 6.9-7.8-5 10.6-6.8Zm-11.2 7.9 8 5.1 11.2 7.1v10l-19.2-12.3v-9.9Zm-21.5 22.2-19.1-12.3v-10l19.1 12.3v10Zm-100.6 3.1 19.1-12.2v10l-19.1 12.2v-10Zm40.6-37.4 19.1-12.3v10l-19.1 12.3v-10Zm-20.3-12.2 19.1 12.3v10l-19.1-12.3v-10Zm0-26.8 19.1-12.3v10l-19.1 12.3v-10Zm-204.1 10-19.1-12.1v-10l19 12.2v9.9h.1Zm20.3-12-19 12.2v-10l19-12.2v10Zm12-4.7-10.8-6.9v-10l18.7 11.9-7.9 5Zm8.3 17.5-10.8 6.9-7.8-5 18.7-11.9v10h-.1Zm-40.6 26-19.1 12.3v-10l19.1-12.3v10Zm20.3 12.2-19.1-12.3v-10l19.1 12.3v10Zm-40.6 49.8-19.1 12.3v-10l19.1-12.3v10Zm1.1-26v-10l18.7 11.9-7.8 5-10.9-6.9Zm11.8 7.8 7.4-4.7v10l-10.8 6.9-7.8-5 11.2-7.2Zm7.4 30.5-19.1-12.3v-10l8 5.1 11.2 7.1v10.1h-.1Zm20.3-1-19.1 12.3v-10l19.1-12.3v10Zm12-4.6-10.8-6.9v-10l18.7 11.9-7.9 5Zm8.3 17.5-10.8 6.9-7.8-5 18.7-11.9v10h-.1Zm-40.6 26-19.1 12.3v-10l19.1-12.3v10Zm20.3 12.2-19.1-12.3v-10l19.1 12.3v10Zm.1 135.7-19.1 12.3v-10l19.1-12.3v10Zm12-4.7-10.8-6.9v-10l18.7 11.9-7.9 5Zm8.3 17.5-10.8 6.9-7.8-5 18.7-11.9v10h-.1Zm-40.6 26-19.2 12.2v-10l19.1-12.3v10.1h.1Zm20.3 12.2-19.1-12.3v-10l19.1 12.3v10Zm-142.1 88-19.1-12.3v-10l19.1 12.3v10Zm20.3-12.2-19.1 12.2v-10l19.1-12.3v10.1Zm1.2-26v-10l18.7 11.9-7.8 5-10.9-6.9Zm11.1 8.1 8-5.1v10l-10.8 6.9-7.8-5 10.6-6.8Zm8 30.1-19.1-12.3v-10l19.1 12.3v10Zm-81.2 61.2-19.1 12.3v-10l19.1-12.3v10Zm12-4.7-10.8-6.9v-10l18.7 11.9-7.9 5Zm8.3 17.5-10.8 7-7.8-5 18.6-12v10Zm40.6-47.4v10l-10.8 6.9-7.8-5 18.6-11.9Zm-11.2 18.1 10.7 6.8-7.8 5-10.8-6.9v-10l7.9 5.1Zm-28.2-8.1v-10l18.7 11.9-7.8 5-10.9-6.9Zm11.1 8.1 8-5.1v10l-10.8 6.9-7.8-5 10.6-6.8Zm-11.1 29.3v-10l18.6 12-6.2 4-1.6 1-10.8-7Zm19.1 13-10.8 6.9-7.8-5 15.6-10 3-1.9v10Zm0-12.2-19.1-12.3v-10l1.5.9 17.7 11.3v10.1h-.1Zm.6-11-10.4-6.6 10.4-6.6 10.4 6.6-10.4 6.6Zm.6 1 17.7-11.3 1.5-.9v10l-19.1 12.3v-10.1h-.1Zm0 22.2v-10l18.7 11.9-7.8 5-10.9-6.9Zm19.1 13-19.1 12.3v-10l11.2-7.1 8-5.1v9.9h-.1Zm20.3 2.2v10l-19.1-12.2v-10l8 5.1 11.1 7.1Zm-10.8-8.3-7.8-5 18.6-11.9v10l-10.8 6.9Zm51.4 18.3-19.1-12.2v-10l19.1 12.3v9.9Zm20.3-12.2-19.1 12.3v-10l19.1-12.3v10Zm41.8-36 19.1 12.3v10l-19.1-12.3v-10Zm-1.2 0v10l-10.8 6.9-1.6-1-6.2-4 18.6-11.9Zm-14.9 15.7 14.9 9.6v10.1l-19.1-12.4v-10l4.2 2.7Zm198.6-66.1 19.1 12.3v10l-19.1-12.2v-10.1Zm19.2-51.8-10.8 6.9-7.8-5 10.7-6.8 8-5.1-.1 10Zm-.5-11.1-7.8 5-10.8-6.9v-10l18.6 11.9Zm-19.1-25.1a.367.367 0 0 0-.3.1l-20.2 12.9-10.3-6.6 10.7-6.8 20-12.8 10.3 6.6-10.2 6.6Zm-19.8 23.8v-9.9l19-12.2v9.9l-19 12.2Zm19.1-10.6v10l-10.8 6.9-7.8-5 18.6-11.9Zm-54.5 52.3-4.7-3 18.7-11.9v10l-10.8 6.9-3.2-2Zm13.4 10-7.8 5-10.8-6.9v-10l3.2 2 15.4 9.9Zm-18.7-14.1v-10l11.2-7.1 8-5.1v10l-19.2 12.2Zm-40.6 37.4v-10l17.7-11.3 1.5-.9v10l-19.2 12.2Zm19.2-10.8v10l-10.8 6.9-7.8-5 18.6-11.9Zm-52.4-21.1-6.9-4.4 18.7-11.9v10l-10.8 6.9-1-.6Zm11.3 8.6-7.8 5-10.8-6.9v-10l3.7 2.4 14.9 9.5Zm-18.7-14.1v-10l11.2-7.1 8-5.1v10l-19.2 12.2Zm-.5-24.2 10.4 6.6-10.4 6.6-10.4-6.6 10.4-6.6Zm-.6-13.2-19.1-12.3v-8.3l.1-1.6 19.1 12.2v10h-.1Zm21-37.4 10.4 6.7-10.4 6.7h-.1l-10.4-6.7 10.5-6.7Zm-11.5 5.9-7.8-5 18.7-11.9v10l-10.9 6.9Zm11.5-43.3 10.4 6.6-10.4 6.6-10.4-6.6 10.4-6.6Zm-11.5 5.9-6.2-4-1.6-1 18.7-11.9v10l-10.9 6.9Zm11.2-118.3 10.7 6.8-10.4 6.6-19.1-12.2 18.5-11.9v10.1a.6.6 0 0 0 .3.6Zm.2-74.3 10.4 6.6-10.4 6.6-10.4-6.6 10.4-6.6Zm-11.5 5.9-7.8-5 18.7-11.9v10l-10.9 6.9Zm-8.9-142.5 10.4 6.6-10.4 6.6-10.4-6.6 10.4-6.6Zm-.5-13.2-19.1-12.3v-10l19.1 12.3v10Zm29.4-17.1 11.2 7.1v10l-19.1-12.3v-10l7.9 5.2Zm-7.5-6.2 10.7-6.8 8-5.1v10l-10.9 6.9-7.8-5Zm31 6.2 8-5.1v10l-19.1 12.3v-10l11.1-7.2Zm-.3-1.2-10.8-6.9v-10l.9.6 17.7 11.3-7.8 5Zm37.3 25.3 11.1 7.1-7.8 5-10.8-6.9v-10l7.5 4.8Zm-7.1-5.9 18.7-11.9v10l-10.8 6.9-.4-.3-7.5-4.7Zm29.6 43.1-10.4 6.6-10.4-6.6 10.4-6.6 10.4 6.6Zm-9.8-7.6v-10l18.7 11.9-1.7 1.1-6.1 3.9-10.9-6.9Zm40.1 150.6 20 12.8a.36.36 0 0 0 .3.1h.1a.367.367 0 0 0 .3-.1l20.3-13a.553.553 0 0 0 .3-.5v-10.5l10.5 6.7a.499.499 0 0 0 .6 0l8-5.1v10.3a.548.548 0 0 0 .3.5l20 12.8v11.1a.548.548 0 0 0 .3.5l10.7 6.8-10.7 6.8a.547.547 0 0 0-.3.5v11.1l-19.9 12.7a.547.547 0 0 0-.3.5v11.1l-20 12.8a.547.547 0 0 0-.3.5v10.4l-19.3-12.3v-10.8l19.9-12.7a.367.367 0 0 0 .3-.1l20.3-13a.553.553 0 0 0 .3-.5v-11.4a.548.548 0 0 0-.3-.5.638.638 0 0 0-.6 0l-19.5 12.6v-10.3a.548.548 0 0 0-.3-.5l-20.3-13a.638.638 0 0 0-.6 0 .547.547 0 0 0-.3.5v11.4a.548.548 0 0 0 .3.5l19.5 12.5-19.2 12.3-20-12.8-10.7-6.8 10.7-6.8a.553.553 0 0 0 .3-.5v-11.4a.548.548 0 0 0-.3-.5.638.638 0 0 0-.6 0l-20 12.8-19.1-12.2 19.3-12.4 20-12.9Zm-19.8 11.2v-10l19.1-12.3v10l-19.1 12.3Zm20.3-12.2v-10l19.1 12.3v10l-19.1-12.3Zm20.5 12.2v-10l19.1-12.3v10l-19.1 12.3Zm20.3-23.8v-10l18.7 11.9-7.8 5-10.9-6.9Zm31.4-4.9 8-5.1v10l-10.8 6.9-7.8-5 10.6-6.8Zm-.3-1.2-10.8-6.9v-10l18.7 11.9-7.9 5Zm8.9 7.1 10.4 6.6-10.4 6.6-10.4-6.6 10.4-6.6Zm-11.7 7.1 11.2 7.1v10l-19.1-12.3v-10l7.9 5.2Zm11.2 56.6v10l-19.1 12.3v-10l19.1-12.3Zm-20.3 24.4v10l-19.1 12.3v-10l19.1-12.3Zm-20.4 23.6v10l-19.1-12.3v-10l19.1 12.3Zm-19.2-25.8v-10l19.1-12.3v10l-19.1 12.3Zm.1-36.5v-10l19.1 12.3v10l-19.1-12.3Zm20.4 23.5v-10l19.1-12.3v10l-19.1 12.3Zm-40.8 75.6v-10l19.1 12.3v10l-19.1-12.3Zm19.2 13.7v10l-19.1-12.3v-10l19.1 12.3Zm-11.2-20-7.5-4.8 10.7-6.8 8-5.1v10l-10.8 6.9-.4-.2Zm2.9-12.8-10.8-6.9v-10l18.7 11.9-7.9 5Zm-1.1.7-10.7 6.8a.099.099 0 0 0-.1.1l-.1.1c0 .1-.1.2-.1.3v11.1l-19.1 12.3v-10.4a.548.548 0 0 0-.3-.5l-10.7-6.8 10.7-6.8a.553.553 0 0 0 .3-.5v-10.3l8 5.1a.499.499 0 0 0 .6 0l11.1-7.1 10.4 6.6Zm-91.6 119-10.4-6.6 10.4-6.6 10.4 6.6-10.4 6.6Zm.5 13.2 18.7 11.9-3.6 2.3-4.2 2.7-10.8-6.9v-10h-.1Zm-21.4-24.4v10l-10.8 6.9-7.8-5 18.6-11.9Zm-8.3 3.9-10.8-6.9v-10l18.7 11.9-7.9 5Zm-10.8-18.3v-10l19 12.2v10l-19-12.2Zm-9.1-154.7 8-5.1v10l-19.1 12.3v-10l11.1-7.2Zm-.3-1.2-10.8-6.9v-10l18.7 11.9-7.9 5Zm8.3 7.5v10l-10.8 6.9-3.4-2.2-4.4-2.8 18.6-11.9Zm.6 11 10.4 6.6-10.4 6.6-10.4-6.6 10.4-6.6Zm19.6-109.9v10l-10.8 6.9-7.8-5 18.6-11.9Zm-8.3 3.9-10.8-6.9v-10l18.7 11.9-7.9 5Zm-10.9-18.3v-10l8 5.1 11.2 7.1v10l-19.2-12.2Zm-.8-100 10.7 6.8-10.4 6.6-19.3-12.3 18.7-12v10.4a.548.548 0 0 0 .3.5Zm8.8-17.1 11.2 7.1v10l-19.1-12.3v-10l7.9 5.2Zm-7.5-6.2 11.1-7.1 7.6-4.8v10l-10.8 6.9-7.9-5Zm31 6.2 8-5.1v10l-19.1 12.3v-10l11.1-7.2Zm-.3-1.2-10.8-6.9v-10l.5.3 18.2 11.6-7.9 5Zm75.6 210.5 14 8.9v10l-19.2-12.2v-10l5.2 3.3Zm-4.7-4.4 18.7-11.9v10l-10.8 6.9-1.7-1.1-6.2-3.9Zm18.2 24.4-18.7 12v-10.4a.548.548 0 0 0-.3-.5l-10.7-6.8 10.4-6.6 19.3 12.3Zm.5 1.1v10l-19.2 12.2v-10l19.2-12.2Zm-80.6 136.4-10.3-6.6 10.2-6.5 10.3 6.6-10.2 6.5Zm.4 13.4 18.7 11.9-3.6 2.3-4.2 2.7-10.8-6.9v-10h-.1Zm-20.2 10.6v-9.9l19-12.2v9.9l-19 12.2Zm19.1-10.6v10l-10.8 6.9-1.3-.8-6.5-4.1 18.6-12Zm-31.4-118.7 11.2 7.1v10l-19.2-12.2v-10l8 5.1Zm-7.5-6.2 15.5-9.9 3.2-2v10l-10.8 6.9-7.9-5Zm19.3 36.5 10.4 6.6-10.4 6.6-10.4-6.6 10.4-6.6Zm20.2-162.3 10.4 6.6-10.4 6.6-10.4-6.6 10.4-6.6Zm-11.5 5.9-7.8-5 18.7-11.9v10l-10.9 6.9Zm-9.9-79.8-7.8 5-10.8-6.9v-10l18.6 11.9Zm-18.7-13.3v-10l8 5.1 11.1 7.1v10l-19.1-12.2Zm19.2 14.4v10l-10.8 6.9-7.8-5 18.6-11.9Zm-11.2 18.1 11.2 7.1v10l-19.1-12.3v-10l7.9 5.2Zm1.4-.5 10.4-6.6 10.4 6.6-10.4 6.6-10.4-6.6Zm22.1-36.9 8-5.1v10l-19.1 12.3v-10l11.1-7.2Zm-.3-1.2-10.8-6.9v-10l2.3 1.5 16.4 10.5-7.9 4.9Zm35.8 99.2 12.6 8-7.8 5-10.8-6.9v-10l6 3.9Zm-5.6-5 18.7-11.9v10l-10.8 6.9-1.8-1.2-6.1-3.8Zm19 36.3 10.7 6.8-10.7 6.8a.547.547 0 0 0-.3.5v10.9l-19.1 12.3v-10.1a.548.548 0 0 0-.3-.5l-10.7-6.8 10.7-6.8a.553.553 0 0 0 .3-.5v-11.1l19.1-12.3v10.4a.543.543 0 0 0 .3.4Zm.4 125.3-10.4-6.6 10.4-6.6 10.4 6.6-10.4 6.6Zm.5 13.2 18.7 11.9-.2.1-7.6 4.9-10.8-6.9v-10h-.1Zm-13.6 15.9-6.1-3.9 18.7-11.9v10l-10.8 6.9-1.8-1.1Zm12 9-7.8 5-10.8-6.9v-10l5.8 3.7 12.8 8.2Zm-18.7-14.1v-10l17.7-11.3 1.5-.9v10l-19.2 12.2Zm-20.8 13.4-10.4-6.6 10.3-6.6 10.4 6.6-10.3 6.6Zm.5 13.5 18.5 11.8-7.8 5-10.7-6.8v-10Zm-20.3 10.5v-10l19.1-12.3v10l-19.1 12.3Zm19.1-10.6v9.9l-10.7 6.9-.1-.1-7.6-4.9 18.4-11.8Zm.7-64 10.4 6.6-10.4 6.6-10.4-6.6 10.4-6.6Zm-11.5 5.9-7.8-5 18.7-11.9v10l-10.9 6.9Zm23.2-73.6 8-5.1v10l-10.8 6.9-7.8-5 10.6-6.8Zm-.3-1.2-10.8-6.9v-9.7l18.4 11.8-7.6 4.8Zm17.4 1.2 10.7 6.8-7.8 5-10.8-6.9v-10l7.9 5.1Zm-7.5-6.2 18.7-11.9v10l-10.8 6.9-7.9-5Zm0 74.8 18.7-11.9v10l-10.8 6.9-7.9-5Zm18.2 13-7.8 5-10.8-6.9v-10l8 5.1 10.6 6.8Zm-18.7-14.1v-10l11.2-7.1 8-5.1v10l-19.2 12.2Zm-.5-11-10.4-6.6 10.4-6.6 10.4 6.6-10.4 6.6Zm11.4-7.3-10.8-6.9v-10l8 5.1 10.7 6.8-7.9 5Zm-10.4-18 18.7-11.9v10l-10.8 6.9-7.9-5Zm-.5-1.1v-10l11.2-7.1 8-5.1v10l-19.2 12.2Zm9.8-17.6-10.4 6.6-10.4-6.6 10.4-6.6 10.4 6.6Zm-22.1.5 11.2 7.1v10l-19.1-12.3v-10l7.9 5.2Zm10.7 18.2-4.9 3.1-2.9 1.9-10.8-6.9v-10l18.6 11.9Zm-2.7 3.1 3.2-2v10l-10.8 6.9-7.8-5 15.4-9.9Zm-8 16.1 11.2 7.1v10l-19.2-12.2v-10l8 5.1Zm10.7 18.2-7.8 5-10.8-6.9v-10l18.6 11.9Zm.5 1.1v10l-10.8 6.9-7.8-5 10.7-6.8 7.9-5.1Zm-19.2 24.4 18.7 11.9-.3.2-7.6 4.8-10.8-6.9v-10Zm-20.3 10.8v-10l19.1-12.3v10l-19.1 12.3Zm19.2-10.8v10l-10.8 6.9-6.5-4.2-1.3-.8 18.6-11.9Zm-18.4 13.5 17.9 11.4-7.8 5-10.8-6.9v-10l.7.5Zm38.7-.5v10l-10.8 6.9-7.8-5 18.6-11.9Zm-19.2-14.4v-10l1.5.9 17.7 11.3v10l-19.2-12.2Zm9.4-5.4 10.4-6.6 10.4 6.6-10.4 6.6-10.4-6.6Zm31.2-20.6v-10l18.7 11.9-7.8 5-10.9-6.9Zm-.5-23.2-10.4-6.6 10.7-6.8a.553.553 0 0 0 .3-.5v-10.4l18.7 12-19.3 12.3Zm0-37.4-10.4-6.6 10.4-6.6 10.4 6.6-10.4 6.6Zm-.7-62.7-19.1 12.3v-10l11.2-7.1 8-5.1v9.9h-.1Zm-9.4-5.4-10.4 6.6-10.4-6.6 10.4-6.6 10.4 6.6Zm-22.1-74.3 11.2 7.1v10l-19.2-12.2v-10l8 5.1Zm-7.5-6.2 14.6-9.4 4-2.6v10l-10.8 6.9-7.8-4.9Zm18.2 24.4-6.1 3.9-1.7 1.1-10.8-6.9v-10l18.6 11.9Zm-5.8 5.1 6.2-4v10l-10.8 6.9-7.8-5 12.4-7.9Zm-4.9 14.1 11.2 7.1v10l-19.2-12.2v-10l8 5.1Zm10.7 18.2-5 3.2-2.8 1.8-10.8-6.9v-10l18.6 11.9Zm-4.7 4.4 5.1-3.3v10l-10.8 6.9-7.8-5 13.5-8.6Zm-4.6-23.1 10.4-6.6 10.4 6.6-10.4 6.6-10.4-6.6Zm10.4-30.8-10.4-6.6 10.4-6.6 10.4 6.6-10.4 6.6Zm-.6-26.4-19.2-12.2v-10l8 5.1 11.2 7.1v10Zm-.5 1.1-4.1 2.6-3.7 2.4-10.8-6.9v-10l18.6 11.9Zm-8.9 5.7-10.4 6.6-10.4-6.6 10.4-6.6 10.4 6.6Zm-22.5.2 11.1 7.1-7.8 5-10.8-6.9v-10l7.5 4.8Zm-7.1-5.9 18.7-11.9v10l-10.8 6.9-.4-.3-7.5-4.7Zm-.5 26.3 11.2-7.1 8-5.1v10l-19.1 12.3v-10.1h-.1Zm19.2-.8v10l-10.8 6.9-7.8-5 18.6-11.9Zm-11.2 18.1 10.7 6.8-7.8 5-10.8-6.9v-10l7.9 5.1Zm1.4-.5 10.4-6.6 10.4 6.6-10.4 6.6-10.4-6.6Zm10.9 45.8 8 5.1 11.2 7.1v10l-19.2-12.2v-10Zm19.2 24.4v10l-10.8 6.9-7.8-5 18.6-11.9Zm-11.2 18.1 11.2 7.1v9.7l-19.2-12.2v-9.7l8 5.1Zm1.9 23.6-10.4 6.6-10.4-6.6 10.4-6.6 10.4 6.6Zm0 37.4-10.4 6.6-10.4-6.6 10.4-6.6 10.4 6.6Zm-10.9-7.6-10.8 6.9-2.2-1.4-5.6-3.6 18.6-11.9v10Zm-15.4 5.4 14.9 9.5-7.8 5-10.8-6.9v-10l3.7 2.4Zm7.4 15.7 8-5.1v10l-19.1 12.3v-10l11.1-7.2Zm-3.2 24.4 10.7 6.8-7.5 4.8-.3.2-10.8-6.9v-10l7.9 5.1Zm1.8 49.9-10.4 6.6-10.4-6.6 10.4-6.6 10.4 6.6Zm-9.8 20 7.9 5 10.6 6.8-7.6 4.9-10.8-6.9-.1-9.8Zm31.4 5.1 8-5.1v9.9l-10.7 6.9-7.7-4.9 10.4-6.8Zm-11.1-19.7v-10l8 5.1 11.2 7.1v10l-19.2-12.2Zm9.4-5.4 10.4-6.6 10.4 6.6-10.4 6.6-10.4-6.6Zm10.9 7.6 11.2-7.1 8-5.1v10l-19.2 12.2v-10Zm9.4-20.6 10.4-6.6 10.4 6.6-10.4 6.6-10.4-6.6Zm30-4.5v10l-10.7 6.9-7.8-5 18.5-11.9Zm-19.1-14.5v-10l1.5.9 17.7 11.3v10l-19.2-12.2Zm.5-11.1 13.8-8.9 4.8-3.1v10l-10.8 6.9-7.8-4.9Zm18.7-14.1-19.2-12.2v-10l8 5.1 11.2 7.1v10Zm-18.7-23.3 18.7-11.9v10l-10.8 6.9-7.9-5Zm-.5-26.3v-10l8 5.1 11.2 7.1v10l-19.2-12.2Zm19.2-13-10.8 6.9-7.8-5 12.4-7.9 6.2-4v10Zm-6.6-7.1-1.7 1.1-10.8-6.9v-10l18.7 11.9-6.2 3.9Zm-12.7-17.8v-10l11.2-7.1 8-5.1v10l-19.2 12.2Zm10.9-18.3-10.8-6.9v-10l18.7 11.9-7.9 5Zm-11.4-30.1-10.4-6.6 10.4-6.6 10.4 6.6-10.4 6.6Zm-.6-25.6-19.1 12.3v-10l11.2-7.1 8-5.1v9.9h-.1Zm-8.3-6.1-10.8-6.9v-10l6.9 4.4 11.8 7.5-7.9 5Zm-3.6-13.6-6.8-4.3 18.7-11.9v10l-10.8 6.9-1.1-.7Zm-7.3-5.5v-10l11.2-7.1 8-5.1v10l-19.2 12.2Zm10.9-18.3-10.8-6.9v-10l18.7 11.9-7.9 5Zm-10.4-18 18.7-11.9v10l-10.8 6.9-7.9-5Zm-.5-1.1v-10l11.1-7.1 8-5.1v10l-19.1 12.2Zm10.9-18.3-10.8-6.9v-10l1.7 1.1 16.9 10.8-7.8 5Zm-1.1.7-10.4 6.6-10.4-6.6 10.4-6.6 10.4 6.6Zm-10.9-7.6-10.8 6.9-7.8-5 17.7-11.3 1-.6v10h-.1Zm-8.3-6.1-10.8-6.9v-10l18.7 11.9-.3.2-7.6 4.8Zm8.3-6.1-19.2-12.2v-10l8 5.1 11.2 7.1v10Zm-9.4 6.8-10.4 6.6-10.4-6.6 10.4-6.6 10.4 6.6Zm-10.9-7.6-10.8 6.9-6.1-3.9-1.7-1.1 18.7-11.9v10h-.1Zm-9.4 20.6-10.3 6.6-10.3-6.6 10.4-6.6 10.2 6.6Zm-10.9-7.6-10.8 6.9-7.8-5 17.4-11.2 1.2-.8v10.1Zm-8.3-6.1-10.8-6.9v-10l18.7 11.9-.4.2-7.5 4.8Zm-12-18.3-19.1 12.3v-10l11.2-7.1 8-5.1v9.9h-.1Zm-.5 26.3-7.8 5-10.8-6.9v-10l18.6 11.9Zm-7.5 6.2 8-5.1v10l-19.1 12.3v-10l11.1-7.2Zm8 6.3v10l-10.8 6.9-7.8-5 18.6-11.9Zm.6 11 10.4 6.6-10.4 6.6-10.4-6.6 10.4-6.6Zm.5 26.4 18.7 11.9-7.8 5-10.8-6.9v-10h-.1Zm19.2 13v10l-10.8 6.9-7.8-5 18.6-11.9Zm-9.8 17.6 10.4-6.6 10.4 6.6-10.4 6.6-10.4-6.6Zm10.9 7.6 11.2-7.1 8-5.1v10l-19.1 12.3v-10.1h-.1Zm8 17.3 10.7 6.8-7.8 5-10.8-6.9v-10l7.9 5.1Zm3.2 13 8-5.1v10l-19.1 12.3v-10l11.1-7.2Zm8 6.3v10l-10.8 6.9-7.8-5 18.6-11.9Zm.9 10.8a.553.553 0 0 0 .3-.5v-10.4l18.7 12-19.3 12.3-10.4-6.6 10.7-6.8Zm-.8 36.3-10.8 6.9-7.7-4.9 18.5-11.9v9.9Zm-11.2 8.1 10.7 6.8-7.8 5-10.8-6.9v-10l7.9 5.1Zm3.2 13 8-5.1v10l-19.1 12.3v-10l11.1-7.2Zm-1.4 36.9-10.4 6.6-10.4-6.6 10.4-6.6 10.4 6.6Zm-10.9-19.8-19.1-12.3v-10l8 5.1 11.2 7.1v10.1h-.1Zm-.5 1.1-4.9 3.1-2.9 1.9-10.8-6.9v-10l18.6 11.9Zm-18.7 25.5 18.7 11.9-7.8 5-10.8-6.9v-10h-.1Zm11.2 18.1 8-5.1v10l-10.8 6.9-5.5-3.5-2.3-1.5 10.6-6.8Zm8 20.1v10l-19.1-12.3v-10l19.1 12.3Zm-.5 11.1-1.2.8-6.6 4.2-10.8-6.9v-10l18.6 11.9Zm-.3 1.6.7-.5v10l-10.8 6.9-7.8-5 17.9-11.4Zm-10.4 17.6 11.2 7.1v10l-19.1-12.3v-10l7.9 5.2Zm10.7 18.2-7.8 5-10.8-6.9v-10l18.6 11.9Zm.4 1.3v10l-10.8 6.9-7.8-5 18.6-11.9Zm-9.8 17.6 10.4-6.6 10.3 6.6-10.4 6.6-10.3-6.6Zm15.7 22.8 13.9 8.9-7.8 5-10.8-6.9v-10l4.7 3Zm33.4-2.2 1.3-.8v10l-10.8 6.9-7.8-5 17.3-11.1Zm-17.8-15.4v-9.7l19 12.2v9.7l-19-12.2Zm9.5-5.3 10.2-6.5 10.4 6.6-10.2 6.5-10.4-6.6Zm10.8-17.5 18.5 11.9-7.8 5-10.7-6.9v-10Zm6.3 40.1-5.9-3.7 18.7-11.9v10l-10.8 6.9-2-1.3Zm12.3 9.2-7.8 5-10.8-6.9v-10l5.4 3.5 13.2 8.4Zm-18.6-14.2v-10l19-12.2v10l-19 12.2Zm.3-36.3 19.5-12.5 19.4 12.4-19.5 12.5-19.4-12.4Zm19.9 25.6 18.7 11.9-6.5 4.1-1.3.8-10.8-6.9v-9.9h-.1Zm0-1.4v-10l19.1 12.3v10l-19.1-12.3Zm.5-11.1 18.7-11.9v10l-10.8 6.9-7.9-5Zm-.4-26.5v-10l8 5.1 11.2 7.1v10l-19.2-12.2Zm9.4-5.4 10.2-6.5 19.3 12.3-18.6 11.9v-10.4a.548.548 0 0 0-.3-.5l-10.6-6.8Zm10.9 19.2 19-12.2v9.9l-19 12.2v-9.9Zm0-26.8v-9.7l7.9 5 11.2 7.1v9.8l-19.1-12.2Zm.8-10.9-.1-.1 18.5-11.8v9.9l-10.7 6.9-7.7-4.9Zm18.4-50.9-19.2 12.2v-10l19.1-12.3v10.1h.1Zm0 1.4v10l-10.8 6.9-7.8-5 18.6-11.9Zm.3-13-20 12.8-10.4-6.6 10.7-6.8 20-12.8 10.4 6.6-10.7 6.8Zm19.5-12.5-3.2 2-4.6 3-10.8-6.9v-10l18.6 11.9Zm-18.7-13.3v-10l19.1 12.3v10l-19.1-12.3Zm18.6 14.8.6-.4v10l-10.8 6.9-7.8-5 18-11.5Zm-40.1-77.1-19.1-12.3v-10l8 5.1 11.2 7.1v10.1h-.1Zm-18.7-23.3 10.7-6.8 8-5.1v10l-10.8 6.9-7.9-5Zm10.4-8-10.8-6.9v-10l18.7 11.9-7.9 5Zm-11.4-30.1-10.4-6.6 10.4-6.6 10.4 6.6-10.4 6.6Zm.5-14.2v-10l18.7 11.9-7.8 5-10.9-6.9Zm-.5-23.2-10.4-6.6 10.7-6.8a.553.553 0 0 0 .3-.5v-10.4l18.7 12-19.3 12.3Zm-.6-51.6-10.8 6.9-6.5-4.2-1.3-.8 18.7-11.9v10h-.1Zm0-11.4-19.1 12.3v-10l11.2-7.1 8-5.1v9.9h-.1Zm-9.4-5.4-10.4 6.6-10.4-6.6 10.4-6.6 10.4 6.6Zm-10.9-7.6-10.8 6.9-7.8-5 11.1-7.1 7.6-4.8v4.8l-.1 5.2Zm0-12.2-19.2-12.2v-10l8 5.1 11.2 7.1v10Zm-.5 1.1-7.4 4.7-.4.3-10.8-6.9v-10l18.6 11.9Zm-8.9 5.7-10.4 6.6-10.4-6.6 10.4-6.6 10.4 6.6Zm-10.9-7.6-10.8 6.9-7-4.5-.8-.5 18.7-11.9v10h-.1Zm-9.4 20.6-10.4 6.6-10.4-6.6 10.4-6.6 10.4 6.6Zm-11.4-18.7-7.4 4.7-.4.3-10.8-6.9v-10l18.6 11.9Zm-8.9 5.7-10.4 6.6-10.4-6.6 10.4-6.6 10.4 6.6Zm-21.8-.7-.5-.3-7.3-4.7 18.7-11.9v10l-10.9 6.9Zm10.9-18.3-19.1 12.3v-10l11.2-7.1 8-5.1v9.9h-.1Zm-12.8 18.5 12.3 7.8-7.8 5-10.8-6.9v-10l6.3 4.1Zm-6.9 44.3 10.4 6.6-10.4 6.6-10.4-6.6 10.4-6.6Zm.5 26.4 7.2 4.6 11.5 7.4-7.8 5-10.8-6.9-.1-10.1Zm11.2 18.1 8-5.1v10l-19.1 12.3v-10l11.1-7.2Zm8 6.3v10l-10.8 6.9-7.8-5 18.6-11.9Zm-11.2 18.1 10.7 6.8-7.8 5-10.8-6.9v-10l7.9 5.1Zm1.4-.5 10.4-6.6 10.4 6.6-10.4 6.6-10.4-6.6Zm10.9 57.2 18.7 11.9-7.8 5-10.8-6.9v-10h-.1Zm0-1.4v-10l8 5.1 11.2 7.1v10l-19.2-12.2Zm9.4-5.4 10.4-6.6 10.4 6.6-10.4 6.6-10.4-6.6Zm10.9 19.8 8 5.1 10.7 6.8-7.8 5-10.8-6.9v-10h-.1Zm11.2 18.1 8-5.1v9.8l-19.1 12.3v-9.8l11.1-7.2Zm-1.3 36.6-10.4 6.6-10.4-6.6 10.4-6.6 10.4 6.6Zm-10.9-7.6-10.8 6.9-7.8-5 10.7-6.8 8-5.1-.1 10Zm-8.3-6.1-10.8-6.9v-10l18.7 11.9-7.9 5Zm-12.1-18-19.1 12.3v-10l19.1-12.3v10Zm-9.3 31.7-10.4 6.6-10.4-6.6 10.4-6.6 10.4 6.6Zm-9.8 19.8 2 1.3 16.6 10.6-7.8 5-10.8-6.9v-10Zm11.2 18.1 8-5.1v10l-19.1 12.3v-10l11.1-7.2Zm8 6.3v10l-10.8 6.9-7.8-5 18.6-11.9Zm-11.2 18.1 10.7 6.8-7.8 5-10.8-6.9v-10l7.9 5.1Zm1.4-.5 10.4-6.6 10.4 6.6-10.4 6.6-10.4-6.6Zm-9.4 105.4v-9.9l19-12.2v9.9l-19 12.2Zm19.1-10.6v10l-10.8 6.9-1-.6-6.9-4.4 18.7-11.9Zm-15.4 15.4 14.9 9.5-7.8 5-10.8-6.9v-10l3.7 2.4Zm5.6 2.2 10.4-6.6 10.4 6.6-10.4 6.6-10.4-6.6Zm10.9 19.8 18.7 11.9-7.8 5-10.8-6.9v-10h-.1Zm19.2 13v10l-10.8 6.9-7.8-5 18.6-11.9Zm-19.2-14.4v-10l8 5.1 11.1 7.1v10l-19.1-12.2Zm9.4-5.4 10.3-6.6 10.3 6.6-10.3 6.6-10.3-6.6Zm10.9 7.6 11.1-7.1 8-5.1v10l-19.1 12.2v-10Zm19.2-.8v10l-10.8 6.9-1.3-.8-6.5-4.1 18.6-12Zm-14.4 16.1 13.9 8.9-7.8 5-10.8-6.9v-10l4.7 3Zm4.6 1.5 10.4-6.6 10.4 6.6-10.4 6.6-10.4-6.6Zm10.9 8.4 1.5.9 17.7 11.3v10l-19.2-12.2v-10Zm.5-1.1 17.4-11.1 1.3-.8v10l-10.8 6.9-7.9-5Zm-.5-26.3v-10l8 5.1 11.2 7.1v10l-19.2-12.2Zm9.4-5.4 10.4-6.6 10.4 6.6-10.4 6.6-10.4-6.6Zm20.3-13 10.4-6.6 10.4 6.6-10.4 6.6-10.4-6.6Zm10.9 19.8 18.7 11.9-6.5 4.1-1.3.8-10.8-6.9v-9.9h-.1Zm14.4 16.1 4.8-3.1v10l-10.8 6.9-7.8-5 13.8-8.8Zm-14.4-17.5v-10l8 5.1 11.2 7.1v10l-19.2-12.2Zm.5-11.1 13.9-8.9 4.8-3.1v10l-10.8 6.9-7.9-4.9Zm58.8-50.4-7.6 4.9-10.9-7v-9.7l18.5 11.8Zm-18.6-13.5v-9.8l19 12.2v9.8l-19-12.2Zm8.2 31.5-7.8-5 10.5-6.7 7.8 5-10.5 6.7Zm3.8-12.4 7-4.5v9l-7-4.5Zm-12-30.3a.528.528 0 0 0-.2-.4l-10.6-6.8 10.4-6.6 19.9 12.7 10.7 6.9-10.5 6.7-19.7-12.5Zm39.4 49.4v10l-19.1-12.3v-10l19.1 12.3Zm-19.2-25.8v-10l11-7 7.8 5-18.8 12Zm19.2-13.2-7.1-4.5 7.1-4.5v9Zm-.3-10.2-7.8 5-10.9-7v-10l18.7 12Zm.4-15-10.8 6.9-7.6-4.9-.2-.1 18.7-11.9v10h-.1Zm20.3 12.3-19.1-12.3v-10l19 12.2c0 .1.1.2.1.3v9.8Zm20.2-23.5-19.1 12.3v-10l19.1-12.3v10Zm20.5 12-19.1-12.3v-10l8 5.1 11.2 7.1v10.1h-.1Zm-19.2-48.2 18.7 11.9-7.8 5-10.8-6.9v-10h-.1Zm0-2.2v-10l19.1-12.3v10l-19.1 12.3Zm12.3 19.6 6.8-4.4v10l-10.8 6.9-7.8-5 11.8-7.5Zm27.1 43.9-19.1-12.2v-10l19.1 12.2v10Zm20.3-12.4-19.1 12.2v-10l19.1-12.2v10Zm.3-11.6-20.1 12.9-19.7-12.6-.1-.1-10.7-6.9 10.7-6.8a.553.553 0 0 0 .3-.5v-10.5l19.4 12.4c.1 0 .2.1.3.1a.367.367 0 0 0 .3-.1l19.4-12.4v10.4a.548.548 0 0 0 .3.5l10.7 6.8-10.8 6.8Zm-39.7-25.8v-10l19.1 12.3v10l-19.1-12.3Zm38-9.1 1.5-.9v10l-19.1 12.3v-10l17.6-11.4Zm-6.9 3-10.8-6.9v-10l18.7 11.9-7.9 5Zm9.5 17.5v-10l18.7 11.9-.4.2-7.4 4.8-10.9-6.9Zm19.1 28.2v10l-19.1-12.3v-10l8 5.1 11.1 7.2Zm0-15.2-10.8 6.9-7.8-5 18.6-11.9h.1v10h-.1Zm0-22.2v10l-19.1-12.3v-10l1.5.9 17.6 11.4Zm-10.8-8.3-7.8-5 13.8-8.9 4.8-3.1v10l-10.8 7Zm2.5-13-10.8-6.9v-10l18.7 11.9-7.9 5Zm28.8-18-19.1 12.3v-10l11.2-7.1 8-5.1v9.9h-.1Zm-19.2-35.1 19.1-12.3v10l-19.1 12.3v-10Zm0 12.1 18.7 11.9-7.8 5-10.8-6.9v-10h-.1Zm-20.1-62.5 19.1-12.3v10l-19.1 12.3v-10Zm-.2 22.1v-10l18.7 11.9-7.8 5-10.9-6.9Zm11.2 8.1 8-5.1v10l-10.8 6.9-7.8-5 10.6-6.8Zm-11.2 7.9 8 5.1 11.2 7.1v10l-19.1-12.3v-9.9h-.1Zm-20.3 12.3 19.1-12.3v10l-19.1 12.3v-10Zm-1.3-25.4v10l-10.8 6.9-7.8-5 18.6-11.9Zm-19.1 13 8 5.1 11.1 7.1v10l-19.1-12.3v-9.9Zm19.4 23.8.2.2c.1 0 .2.1.3.1a.367.367 0 0 0 .3-.1l20-12.8 19.7 12.6v11.1a.548.548 0 0 0 .3.5l10.7 6.8-10.7 6.8a.547.547 0 0 0-.3.5v10.1l-19.5-12.5a.638.638 0 0 0-.6 0 .547.547 0 0 0-.3.5v11.4a.548.548 0 0 0 .3.5l10.7 6.8-10.4 6.6-20-12.8a.638.638 0 0 0-.6 0 .547.547 0 0 0-.3.5v11.4a.548.548 0 0 0 .3.5l10.7 6.8-10.4 6.6-20-12.8a.638.638 0 0 0-.6 0 .547.547 0 0 0-.3.5v10.5l-18.7-12 19.6-12.5a.553.553 0 0 0 .3-.5v-11.4a.548.548 0 0 0-.3-.5.638.638 0 0 0-.6 0l-20.3 13a.547.547 0 0 0-.3.5v22.8a.548.548 0 0 0 .3.5l10.7 6.8-10.7 6.8a.1.1 0 0 0-.038.008.103.103 0 0 0-.033.021.103.103 0 0 0-.021.033.1.1 0 0 0-.008.038l-.1.1-20.3 13a.547.547 0 0 0-.3.5v10l-19.3-12.3h-.6l-19.4 12.4v-10.4a.548.548 0 0 0-.3-.5l-10.7-6.8 10.7-6.8a.553.553 0 0 0 .3-.5v-11.5c0-.1 0-.1-.1-.2l-.1-.1-.1-.1-20-12.8v-10l8 5.1a.499.499 0 0 0 .6 0l10.5-6.7v10.3a.548.548 0 0 0 .3.5l20.3 13a.499.499 0 0 0 .6 0 .553.553 0 0 0 .3-.5v-11l20.2-12.9a.553.553 0 0 0 .3-.5v-11.1l20-12.8a.553.553 0 0 0 .3-.5v-11.1l19.6-12.5 19.9 12.8Zm-20.6-13.8-19.1 12.3v-10l11.1-7.1 8-5.1v9.9Zm-.5-11.1-7.8 5-10.8-6.9v-10l18.6 11.9Zm.5-26.3-19.1 12.3v-10l11.2-7.1 8-5.1v9.9h-.1Zm-.5-11.1-7.8 5-10.8-6.9v-10l8 5.1 10.6 6.8Zm.5-14.9-10.8 6.9-7.8-5 18.7-11.9v10h-.1Zm-19-72.5 19.1-12.3v10l-19.1 12.3v-10Zm-.1 22.1v-10l18.7 11.9-4.1 2.6-3.7 2.4-10.9-6.9Zm15.1 5.6 4-2.6v10l-10.8 6.9-7.8-5 14.6-9.3Zm-15.1 10.4 8 5.1 11.2 7.1v10l-19.1-12.3v-9.9h-.1Zm-.5 11 19.2 12.3-19.3 12.4-19.2-12.3 19.3-12.4Zm-20 1.5 19.1-12.3v10l-19.1 12.3v-10Zm-20.3-.9 19.1 12.3v10l-19.1-12.3v-10Zm-.5 11 20 12.8a.36.36 0 0 0 .3.1h.2l10.3 6.6-10.4 6.6-20-12.8a.447.447 0 0 0-.5 0l-10.3-6.6 10.4-6.7Zm-.6-11v10l-10.8 6.9-7.8-5 18.6-11.9Zm-19.2 13 8 5.1 11.2 7.1v10.1l-19.1-12.3v-10h-.1Zm-1.1-37.4v10l-10.8 6.9-7.8-5 18.6-11.9Zm-19.2 13 8 5.1 11.2 7.1v10l-19.1-12.3v-9.9h-.1Zm19.2 23.6v10l-19.1-12.3v-10l19.1 12.3Zm-19.7-1.2 20 12.8 19.6 12.6-19.3 12.3-19.8-12.6v-11.2a.548.548 0 0 0-.3-.5l-10.7-6.8 10.5-6.6Zm-.6-11v10l-10.8 6.9-7.8-5 18.6-11.9Zm-11.2 18.1 11.2 7.1v10.1l-19.1-12.3v-10l7.9 5.1Zm10.7 18.2-18.7 11.9v-10.3a.548.548 0 0 0-.3-.5l-10.7-6.8 10.4-6.6 19.3 12.3Zm-19.8-35.5v10l-19.1-12.3v-10l8 5.1 11.1 7.2Zm0-15.2-10.8 6.9-7.8-5 10.7-6.8 8-5.1-.1 10Zm0-22.2v10l-19.1-12.2v-10l8 5.1 11.1 7.1Zm0-15.2-10.8 6.9-7.8-5 18.6-11.9v10Zm0-12.2-19.1-12.3v-10l8 5.1 11.2 7.1v10.1h-.1Zm20.3-.8-19.1 12.2v-10l19.1-12.2v10Zm0-47.4v10l-10.8 6.9-6.1-3.9-1.7-1.1 18.6-11.9Zm-17 14.4 17 10.9v10l-19.1-12.3v-10l2.1 1.4Zm16.5 21.9-18.7 12v-10.4a.548.548 0 0 0-.3-.5l-10.7-6.8 10.4-6.6 19.3 12.3Zm-19.8-13.3-10.8 6.9-7.8-5 16.4-10.5 2.3-1.5v10.1h-.1Zm0-22.2v10l-19.1-12.3v-10l8 5.1 11.1 7.2Zm-10.9-8.3-7.8-5 11.1-7.1 7.6-4.8v10l-10.9 6.9Zm10.9-54.3v10l-10.9 6.9-7.8-5 18.7-11.9Zm-19.2 13 8 5.1 11.2 7.1v10l-19.1-12.3v-9.9h-.1Zm0 11.4 18.7 11.9-7.4 4.7-.4.3-10.8-6.9v-10h-.1Zm9.8 17.6-10.4 6.6-10.4-6.6 10.4-6.6 10.4 6.6Zm-10.9-19-19.1 12.3v-10l11.2-7.1 8-5.1v9.9h-.1Zm0-36v10l-10.9 6.9-7.8-5 18.7-11.9Zm-19.2 13 8 5.1 10.7 6.8-7.8 5-10.8-6.9v-5.2l-.1-4.8Zm9.8 17.6-10.4 6.6-10.4-6.6 10.4-6.6 10.4 6.6Zm-10.9-7.6-10.9 6.9-7.8-5 10.7-6.8 8-5.1v10Zm0-47.4v10l-10.8 6.9-7.8-5 18.6-11.9Zm-19.2 13 8 5.1 11.2 7.1v10l-19.2-12.2v-10Zm0 11.4 18.7 11.9-7.8 5-10.9-6.9v-10Zm-.6 11 10.4 6.6-10.4 6.6-10.4-6.6 10.4-6.6Zm-.5-1-10.9 6.9-6.9-4.4-.9-.6 18.7-11.9v10Zm-19.2-9.2 19.1-12.3v10l-19.1 12.3v-10Zm-.6 23.2 10.4 6.6-10.4 6.6-10.4-6.6 10.4-6.6Zm-19.7-51.4v-10l18.7 11.9-7.8 5-10.9-6.9Zm19.2 3v10l-10.8 6.9-7.8-5 18.6-11.9Zm-19.2 13 8 5.1 11.2 7.1v10l-19.1-12.3v-9.9h-.1Zm0 11.4 18.7 11.9-7.8 5-10.8-6.9v-10h-.1Zm-.6 11 10.4 6.6-10.4 6.6-10.4-6.6 10.4-6.6Zm-.5-11v10l-10.9 6.9-7.8-5 18.7-11.9Zm-19.2 13 8 5.1 10.7 6.8-7.8 5-10.8-6.9-.1-10Zm-20.3-24.4 19.2 12.2v10l-19.1-12.3v-9.9h-.1Zm-1.1 11.4v10l-10.9 6.9-3.8-2.4-4-2.6 18.7-11.9Zm0 35.2-19.1-12.3v-10l4.4 2.8 14.7 9.4v10.1Zm.8-10.8-10.7-6.8 10.7-6.8a.553.553 0 0 0 .3-.5v-10.4l19.2 12.3v11.1a.548.548 0 0 0 .3.5l10.7 6.8-10.4 6.6-20.1-12.8Zm.3 23v-10l18.7 11.9-2.8 1.8-5.1 3.2-10.8-6.9Zm17.3 4.2 1.9-1.2v10l-10.8 6.9-7.8-5 16.7-10.7Zm-17.3 11.8 8 5.1 11.2 7.1v10l-19.1-12.3v-9.9h-.1Zm0 21.4v-10l18.6 11.9-7.8 5-10.8-6.9Zm17.7 3.9 1.5-.9v10l-10.8 6.9-7.8-5 17.1-11Zm-17.7 12.1 8 5.1 11.2 7.1v10l-19.1-12.3v-9.9h-.1Zm-1.1 11.4v10l-10.8 6.9-.5-.3-7.3-4.7 18.6-11.9Zm0 35.2-19.1-12.3v-10l6.6 4.2 12.5 8v10.1Zm.9-10.8-10.7-6.8 10.7-6.8a.553.553 0 0 0 .3-.5v-10.4l19.1 12.3v11.1a.548.548 0 0 0 .3.5l10.7 6.8-10.4 6.6-20-12.8Zm19.4 13.8v10l-19.1-12.3v-10l19.1 12.3Zm-19.2 9.2v-10l18.7 11.9-7.8 5-10.9-6.9Zm11.2 8.1 8-5.1v10l-10.8 6.9-7.8-5 10.6-6.8Zm-11.2 29.3v-10l18.7 11.9-7.8 5-10.9-6.9Zm19.2 13-10.8 6.9-7.8-5 10.7-6.8 8-5.1-.1 10Zm0-12.2-19.1-12.3v-10l8 5.1 11.2 7.1v10.1h-.1Zm-9.8-17.6 10.4-6.6 10.4 6.6-10.4 6.6-10.4-6.6Zm10.9 7.6 11.2-7.1 8-5.1v10l-19.1 12.3v-10.1h-.1Zm0 22.2v-10l8 5.1 10.7 6.8-7.8 5-10.9-6.9Zm0 15.2 11.2-7.1 8-5.1v10l-19.1 12.3v-10.1h-.1Zm19.2-.8v10l-10.8 6.9-7.8-5 18.6-11.9Zm-39.5 0 19.1 12.3v10l-19.1-12.3v-10Zm-1.1 0v10l-10.8 6.9-7.8-5 18.6-11.9Zm-.4 35-18.8-12v-10l8 5.1 11.1 7.1-.3 9.8Zm1.2.5.4-10.6a.548.548 0 0 0-.3-.5l-10.7-6.8 10.4-6.6 20 12.8a.499.499 0 0 0 .6 0 .553.553 0 0 0 .3-.5v-10.3l8 5.1a.499.499 0 0 0 .6 0l11.1-7.1 11.1 7.1a.499.499 0 0 0 .6 0l8-5.1v10.3a.548.548 0 0 0 .3.5l10.7 6.8-10.7 6.8a.547.547 0 0 0-.3.5v10l-19.1-12.3v-10.7a.548.548 0 0 0-.3-.5.638.638 0 0 0-.6 0l-20.3 13a.547.547 0 0 0-.3.5v10l-19.3-12.4h-.2Zm.4 11.6v-10l18.7 11.9-7.8 5-10.9-6.9Zm11.2 8.1 8-5.1v10l-10.8 6.9-7.8-5 10.6-6.8Zm-11.2 7.9 8 5.1 11.2 7.1v10l-19.1-12.3v-9.9h-.1Zm-1.1 11.4v10l-10.8 6.9-7.8-5 18.6-11.9Zm0 35.2-19.2-12.2v-10l19.1 12.3v9.9h.1Zm.9-10.8-10.7-6.8 10.7-6.8a.553.553 0 0 0 .3-.5v-10.4l19.1 12.3v11.1a.548.548 0 0 0 .3.5l10.7 6.8-10.4 6.6-20-12.8Zm19.4 13.8v10l-19.2-12.2v-10l19.2 12.2Zm-19.2 9.2v-10l18.7 11.9-7.8 5-10.9-6.9Zm11.2 8.1 8-5.1v10l-10.8 6.9-7.8-5 10.6-6.8Zm-11.2 29.3v-10l18.7 11.9-1.6 1-6.2 4-10.9-6.9Zm19.2 13-10.8 6.9-7.8-5 18.7-11.9-.1 10Zm0-12.2-19.1-12.3v-10l1.5.9 17.7 11.3v10.1h-.1Zm-9.8-17.6 10.4-6.6 10.3 6.6-10.4 6.6-10.3-6.6Zm10.9 7.6 17.7-11.3 1.5-.9v10l-19.1 12.3v-10.1h-.1Zm0 22.2v-10l18.7 11.9-7.8 5-10.9-6.9Zm0 15.2 11.2-7.1 8-5.1v10l-19.2 12.2v-10Zm0 12.4 18.5 11.8-7.8 5-10.7-6.8v-10Zm-20.3-13.2 19 12.2v10l-19-12.2v-10Zm-1.1 0v10l-10.8 6.9-7.8-5 18.6-11.9Zm-.1 27.8-.3 7.2-18.8-12v-10l19 12.2v2.6h.1Zm-9.7-10.2 10.4-6.6 19.6 12.6a.513.513 0 0 0 .2.4l10.6 6.8-10.4 6.6-19.5-12.6a.528.528 0 0 0-.2-.4l-10.7-6.8Zm10.8 30v-10l18.7 11.9-6.2 4-1.6 1-10.9-6.9Zm15.8 5.1 3.3-2.1v10l-10.8 6.9-7.8-5 15.3-9.8Zm-15.8 10.9 8 5.1 11.2 7.1v10l-19.1-12.3v-9.9h-.1Zm0 11.4 18.7 11.9-6.9 4.4-1 .6-10.8-6.9v-10Zm19.2 13v10l-10.8 6.9-7.8-5 15.3-9.8 3.3-2.1Zm-39.5-37.4 18.7 11.9-7.8 5-10.8-6.9-.1-10Zm-20.3 23.8 19.1-12.3v10l-19.1 12.3v-10Zm-20.3-39.6v-10l18.7 11.9-5.5 3.5-2.3 1.5-10.9-6.9Zm16.6 4.7 2.6-1.7v10l-10.8 6.9-7.8-5 16-10.2Zm-16.6 11.3 6.3 4 12.9 8.2v10l-19.2-12.2v-10Zm-20.1 12.2 19-12.2v10l-19 12.2v-10Zm-20.3-2.4v-10l18.7 11.9-7.8 5-10.9-6.9Zm11.1 8.1 7.9-5v10l-10.7 6.9-7.8-5 10.6-6.9Zm-11.1 7.9 19.1 12.3v10l-19.1-12.3v-10Zm-20.3 12.2 19.1-12.3v10l-19.1 12.3v-10Zm0 22.2v-10l18.7 11.9-7.8 5-10.9-6.9Zm0 15.2 11.2-7.1 8-5.1v10l-19.1 12.3v-10.1h-.1Zm0 22.2v-10l18.7 11.9-7.8 5-10.9-6.9Zm19.1 13-19.1 12.3v-10l17.7-11.3 1.5-.9v9.9h-.1Zm20.3 12.2-19.1-12.3v-10l6.3 4 12.9 8.2v10.1h-.1Zm-18.7-23.3 18.7-11.9v10l-10.8 6.9-7.9-5Zm8.9 5.7 10.4-6.6 10.4 6.6-10.4 6.6-10.4-6.6Zm19-12.5 10.7 6.8-7.8 5-10.8-6.9v-10l7.9 5.1Zm-7.5-6.1 18.7-11.9v10l-10.8 6.9-7.9-5Zm18.6 35.4-10.8 6.9-7.8-5 18.7-11.9v10h-.1Zm0-11.4-19.1 12.3v-10l17.7-11.3 1.5-.9v9.9h-.1Zm-9.8-18.4 10.4-6.6 10.4 6.6-10.4 6.6-10.4-6.6Zm11 29.8v-10l18.7 11.9-5.5 3.5-2.3 1.5-10.9-6.9Zm19.1 28.2v10l-19.1-12.2v-10l8 5.1 11.1 7.1Zm0-15.2-10.8 6.9-7.8-5 16.1-10.3 2.6-1.7v10.1h-.1Zm0-22.2v10l-19.1-12.3v-10l6.3 4 12.8 8.3Zm0-15.2-10.8 6.9-7.8-5 11.6-7.4 7.1-4.5-.1 10Zm-.5-11-7.8 5-10.8-6.9v-10l18.6 11.9Zm.4-26.4-19.1 12.3v-10l19.1-12.3v10Zm20.3 12.2-19.1-12.3v-10l19.1 12.3v10Zm20.3 14.4-.4 9.8-18.8-12v-10l7.2 4.6 12 7.6Zm0-15.2-10.8 6.9-7.8-5 18.7-11.9v10h-.1Zm20.3 12.2-19.1-12.3v-10l19.1 12.3v10Zm.3-22.2a.547.547 0 0 0-.3.5v10.4l-19.4-12.4h-.6l-19.4 12.4v-10.4a.548.548 0 0 0-.3-.5l-20.3-13h-.6l-20.3 13a.547.547 0 0 0-.3.5v11.2l-19.9 12.7-20 12.8-19.3-12.3 19.6-12.5a.553.553 0 0 0 .3-.5v-11.4a.367.367 0 0 0-.1-.3l-.1-.1-.1-.1-19.6-12.5 19.3-12.3 20 12.8a.499.499 0 0 0 .6 0 .553.553 0 0 0 .3-.5v-11.4a.548.548 0 0 0-.3-.5l-10.7-6.8 10.2-6.5a.367.367 0 0 0 .3-.1l20-12.8 19.7 12.6v11a.548.548 0 0 0 .3.5c.1 0 .2.1.3.1a.367.367 0 0 0 .3-.1l20.3-13a.553.553 0 0 0 .3-.5v-10.5l10.5 6.7a.499.499 0 0 0 .6 0l8-5.1v10.1l-20 12.8a.561.561 0 0 0-.3.5.562.562 0 0 0 .3.5l8.9 5.7a.499.499 0 0 0 .6 0l11.1-7.1 10.4 6.6-10.7 6.8a.561.561 0 0 0-.3.5.562.562 0 0 0 .3.5l8.9 5.7a.499.499 0 0 0 .6 0l11.1-7.1 10.4 6.6-10.6 6.8Zm-20.6-37.4v10l-10.8 6.9-7.8-5 18.6-11.9Zm40.6 47.4-10.8 6.9-7.8-5 18.7-11.9v10h-.1Zm0-11.4-19.1 12.3v-10l19.1-12.3v10Zm-9.8-18.4 10.4-6.6 10.4 6.6-10.4 6.6-10.4-6.6Zm21.8 36.7-10.8-6.9v-10l18.7 11.9-7.9 5Zm8.3-6.1-19.1-12.3v-10l1.5.9 17.7 11.3v10.1h-.1Zm-9.8-17.6 10.4-6.6 10.4 6.6-10.4 6.6-10.4-6.6Zm10.9 29.8v-10l6.8 4.4 11.8 7.6-7.8 5-10.8-7Zm19.2 13-19.1 12.3v-10l11.2-7.1 8-5.1v9.9h-.1Zm-9.8-18.4 10.7-6.8a.553.553 0 0 0 .3-.5v-10.4l18.7 12-19.3 12.3-10.4-6.6Zm30.1 20.6v10l-19.2-12.2v-10l8 5.1 11.2 7.1Zm-10.9-8.3-7.8-5 18.7-11.9v10l-10.9 6.9Zm11.5-30.1-10.4-6.6 10.4-6.6 10.4 6.6-10.4 6.6Zm19.7-1.2-19.1 12.3v-10l17.7-11.3 1.5-.9v9.9h-.1Zm-9.8-18.4 10.4-6.6 10.4 6.6-10.4 6.6-10.4-6.6Zm10.9 29.8v-10l18.7 11.9-7.8 5-10.9-6.9Zm19.2 13-19.1 12.3v-10l13.5-8.7 5.6-3.6v10Zm0-12.2-19.1-12.3v-10l1.5.9 17.7 11.3v10.1h-.1Zm.9-10.8-10.7-6.8 10.4-6.6 19.2 12.4-18.7 11.9v-10.4a.767.767 0 0 0-.2-.5Zm19.4 10-19.1 12.2v-10l19.1-12.3v10.1Zm0-22.2v10.1l-19.1-12.3v-10l4.2 2.7 14.9 9.5Zm0-15.2-10.8 6.9-1.3-.8-6.5-4.1 18.7-11.9v9.9h-.1Zm.3-23a.099.099 0 0 0-.1.1l-.1.1c0 .1-.1.2-.1.3v11.1l-19.1 12.3v-10.4a.548.548 0 0 0-.3-.5l-10.7-6.8 10.7-6.8a.553.553 0 0 0 .3-.5v-10.3l8 5.1a.499.499 0 0 0 .6 0l11.1-7.1 10.4 6.6-10.7 6.8Zm20 35.2-19.1-12.3v-10l19.1 12.3v10Zm0-11.4-19.1-12.3v-10l8 5.1 11.2 7.1v10.1h-.1Zm20.3 14.4v10.1l-19.1-12.3v-10l4.2 2.7 14.9 9.5Zm0-15.2-10.8 6.9-1.3-.8-6.5-4.1 18.7-11.9v9.9h-.1Zm20.3 12.2-19.1-12.3v-10l19.1 12.3v10Zm20.3-23.6-19.1 12.3v-10l19.1-12.3v10Zm1.3-26.2v-10l18.7 11.9-4.8 3.1-3 1.9-10.9-6.9Zm17.4 4.1 1.8-1.1v10l-10.8 6.9-7.8-5 16.8-10.8Zm1.8 34.1-19.1-12.3v-10l8 5.1 11.2 7.1v10.1h-.1Zm-20.4 50.8-19.1-12.3v-10l19.1 12.3v10Zm20.3-12.3-19.1 12.3v-10l19.1-12.3v10Zm1.1-26v-10l18.7 11.9-7.8 5-10.9-6.9Zm12.3 7.4 6.8-4.4v10l-10.8 6.9-7.8-5 11.8-7.5Zm6.9 30.9-19.1-12.3v-10l8 5.1 11.2 7.1v10.1h-.1Zm1.1-10 19.1-12.3v10l-19.1 12.3v-10Zm0 22.1v-10l18.7 11.9-7.8 5-10.9-6.9Zm19.2 13-19.2 12.3v-10l19.1-12.3v10h.1Zm132.4-574.2a.761.761 0 0 0-.1.3v11.4a.548.548 0 0 0 .3.5l20.3 13.1a.5.5 0 0 0 .6 0 .553.553 0 0 0 .3-.5v-11.5a.548.548 0 0 0-.3-.5l-10.7-6.8 10.4-6.6 20 12.8a.5.5 0 0 0 .6 0 .553.553 0 0 0 .3-.5v-11.4a.548.548 0 0 0-.3-.5l-20.3-13h-.6l-20.3 13-.2.2Zm21.3-11.6 19.1 12.3v10l-19.1-12.3v-10Zm-1.1 0v10l-10.9 6.9-7.8-5 18.7-11.9Zm-19.2 13 8 5.1 11.2 7.1v10.1l-19.1-12.3v-10h-.1Zm-71.5 473.8c-.1-.1-.1-.2-.2-.2l-19.9-12.7c0-.1-.1-.2-.2-.3l-20.3-13h-.6l-20.3 13a.561.561 0 0 0-.3.5.562.562 0 0 0 .3.5l8.9 5.7a.499.499 0 0 0 .6 0l11.1-7.1 11.1 7.1a.5.5 0 0 0 .6 0l7.8-5v10.2a.548.548 0 0 0 .3.5l10.7 6.8-10.7 6.8a.099.099 0 0 0-.1.1l-.1.1c0 .1-.1.2-.1.3v11.4a.548.548 0 0 0 .3.5l20.3 13a.5.5 0 0 0 .6 0 .553.553 0 0 0 .3-.5v-11.4a.548.548 0 0 0-.3-.5l-10.7-6.8 10.7-6.8a.553.553 0 0 0 .3-.5v-11.3c0-.2 0-.3-.1-.4Zm-41.5-14.7-10.8 6.9-7.8-5 18.7-11.9v10h-.1Zm12 6.9-10.8-6.9v-10l18.7 11.9-7.9 5Zm9.3 6.1v-10l18.7 11.9-7.8 5-10.9-6.9Zm19.2 28.3v10l-19.2-12.3v-10l1.5.9 17.7 11.4Zm-10.9-8.3-7.8-5 10.7-6.8 8-5.1v10l-10.9 6.9Zm133.8 82.4a.638.638 0 0 0-.6 0 .553.553 0 0 0-.3.5v11.4a.548.548 0 0 0 .3.5l20.3 13a.499.499 0 0 0 .6 0 .553.553 0 0 0 .3-.5v-11.4a.548.548 0 0 0-.3-.5l-20.3-13Zm19.4 23.8-19.1-12.3v-10l19.1 12.3v10Zm-9.3-250h-.6l-20.3 13-.1.1-.1.1c0 .1 0 .1-.1.2v11.5a.548.548 0 0 0 .3.5l20.3 13.1a.499.499 0 0 0 .6 0 .553.553 0 0 0 .3-.5v-11.4a.548.548 0 0 0-.3-.5l-10.7-6.8 10.4-6.6 20 12.8a.5.5 0 0 0 .6 0 .553.553 0 0 0 .3-.5v-11.4a.548.548 0 0 0-.3-.5l-20.3-13.1Zm-.9 26.8v10.1l-19.1-12.3v-10l1.5.9 17.6 11.3Zm0-15.2-10.8 6.9-3-1.9-4.8-3.1 18.7-11.9v10h-.1Zm1.2-10 19.1 12.3v10l-19.1-12.3v-10Zm-91.6 273.8v-11.4c0-.1 0-.2-.1-.2l-.1-.1a.103.103 0 0 0-.029-.071.1.1 0 0 0-.071-.029l-20.3-13a.638.638 0 0 0-.6 0 .547.547 0 0 0-.3.5v11.4a.548.548 0 0 0 .3.5l10.7 6.8-10.7 6.8-20 12.8-10.4-6.6 10.7-6.8a.553.553 0 0 0 .3-.5v-11.4a.367.367 0 0 0-.1-.3l-.1-.1-.1-.1-19.5-12.5 19.6-12.6a.553.553 0 0 0 .3-.5v-11.4a.548.548 0 0 0-.3-.5.638.638 0 0 0-.6 0l-20.3 13a.547.547 0 0 0-.3.5v11a.517.517 0 0 0-.2.4v11.4a.548.548 0 0 0 .3.5l10.7 6.8-10.7 6.8-20.3 13a.553.553 0 0 0-.3.5v11.4a.548.548 0 0 0 .3.5c.1 0 .2.1.3.1a.367.367 0 0 0 .3-.1l20-12.8 19.7 12.6v11.1a.548.548 0 0 0 .3.5l10.7 6.8-10.7 6.8a.547.547 0 0 0-.3.5v11.4a.548.548 0 0 0 .3.5c.1 0 .2.1.3.1a.367.367 0 0 0 .3-.1l20.3-13a.553.553 0 0 0 .3-.5v-11.4a.367.367 0 0 0-.1-.3l-.1-.1-.1-.1-19.6-12.5 19.3-12.3 20 12.8a.5.5 0 0 0 .6 0 .553.553 0 0 0 .3-.5v-11.4a.548.548 0 0 0-.3-.5l-10.7-6.8 10.7-6.8a.508.508 0 0 0 .4-.5Zm-62 12.7-19.1 12.3v-10l19.1-12.3v10Zm1.3-48.1 19.1-12.3v10l-19.1 12.3v-10Zm-.2 22.1v-10l18.7 11.9-7.8 5-10.9-6.9Zm12.4 7.4 6.8-4.4v10l-10.8 6.9-7.8-5 11.8-7.5Zm6.8 30.8-19.2-12.2v-10l8 5.1 11.2 7.1v10Zm20.3 25.2-19.1 12.3v-10l19.1-12.3v10Zm-.5-11.1-7.5 4.8-.3.2-10.8-6.9v-10l18.6 11.9Zm.5-26.3-19.1 12.3v-10l19.1-12.3v10Zm1.1-26v-10l18.7 11.9-7.8 5-10.9-6.9Zm19.2 28.2v10l-19.1-12.3v-10l8 5.1 11.1 7.2Zm-10.8-8.3-7.8-5 18.7-11.9v10l-10.9 6.9Zm174.2-119.2a.638.638 0 0 0-.6 0l-20 12.8-10.3-6.6 10.7-6.8a.553.553 0 0 0 .3-.5v-11.4a.367.367 0 0 0-.1-.3l-.1-.1-.1-.1-20.3-13a.638.638 0 0 0-.6 0 .553.553 0 0 0-.3.5v11.4a.548.548 0 0 0 .3.5l10.7 6.8-10.6 6.8-20.3 13-.1.1-19.9 12.8-19.3-12.3 19.6-12.5a.553.553 0 0 0 .3-.5v-11.4a.367.367 0 0 0-.1-.3l-.1-.1-.1-.1-19.6-12.5 19.3-12.3 20 12.8a.5.5 0 0 0 .6 0 .553.553 0 0 0 .3-.5v-11.4a.548.548 0 0 0-.3-.5l-10.7-6.8 10.7-6.8a.553.553 0 0 0 .3-.5v-11.5c0-.1 0-.1-.1-.2l-.1-.1-.1-.1-20.3-13a.638.638 0 0 0-.6 0 .547.547 0 0 0-.3.5v11.4a.548.548 0 0 0 .3.5l10.7 6.8-10.7 6.8-20 12.8-10.4-6.6 10.7-6.8a.553.553 0 0 0 .3-.5v-11.5a.548.548 0 0 0-.3-.5l-20.3-13a.638.638 0 0 0-.6 0 .553.553 0 0 0-.3.5v11.4a.548.548 0 0 0 .3.5l10.7 6.8-10.7 6.8-20.3 13a.553.553 0 0 0-.3.5v11.3a.548.548 0 0 0 .3.5c.1 0 .2.1.3.1a.367.367 0 0 0 .3-.1l20-12.8 19.7 12.6v11.1a.548.548 0 0 0 .3.5l10.7 6.8-10.7 6.8a.553.553 0 0 0-.3.5v22.8a.548.548 0 0 0 .3.5l10.7 6.8-10.7 6.8a.553.553 0 0 0-.3.5v11.1l-19.7 12.6-19.3-12.3 19.6-12.5a.553.553 0 0 0 .3-.5v-11.4a.365.365 0 0 0-.1-.3l-.1-.1-.1-.1-10.7-6.8 10.7-6.8a.553.553 0 0 0 .3-.5v-11.4a.548.548 0 0 0-.3-.5.638.638 0 0 0-.6 0l-20 12.8-20-12.8a.638.638 0 0 0-.6 0 .553.553 0 0 0-.3.5v11.4a.548.548 0 0 0 .3.5l10.7 6.8-10.4 6.6-20-12.8a.638.638 0 0 0-.6 0 .553.553 0 0 0-.3.5v11.3l-20 12.8a.553.553 0 0 0-.3.5v11.4a.548.548 0 0 0 .3.5c.1 0 .2.1.3.1a.367.367 0 0 0 .3-.1l20.3-13a.553.553 0 0 0 .3-.5v-10.5l10.5 6.7a.5.5 0 0 0 .6 0l8-5.1v10.1l-20 12.8a.561.561 0 0 0-.3.5.562.562 0 0 0 .3.5l8.9 5.7a.5.5 0 0 0 .6 0l11.1-7.1 10.4 6.6-10.7 6.8a.561.561 0 0 0-.3.5.562.562 0 0 0 .3.5l8.9 5.7a.499.499 0 0 0 .6 0l11.1-7.1 10.3 6.6-10.7 6.8a.553.553 0 0 0-.3.5v11.4a.548.548 0 0 0 .3.5c.1 0 .2.1.3.1a.367.367 0 0 0 .3-.1l20-12.8 20 12.8a.5.5 0 0 0 .6 0 .553.553 0 0 0 .3-.5v-11.4a.548.548 0 0 0-.3-.5l-10.7-6.8 10.7-6.8a.553.553 0 0 0 .3-.5v-11.1l19.7-12.6 20 12.8a.499.499 0 0 0 .6 0 .553.553 0 0 0 .3-.5v-11.4a.548.548 0 0 0-.3-.5l-10.7-6.8 10.7-6.8.1-.1 19.9-12.8 20 12.8c.1 0 .2.1.3.1a.367.367 0 0 0 .3-.1l20.3-13a.553.553 0 0 0 .3-.5v-11.4c-.1-.1-.2-.3-.4-.4Zm-80.9-63.2v-10l18.7 11.9-2.3 1.4-5.6 3.6-10.8-6.9Zm18.7 3.2.4-.3v10l-10.8 6.9-7.8-5 18.2-11.6Zm-18.7 12.7 8 5.1 11.2 7.1v10l-19.1-12.3v-9.9h-.1Zm-41.7 10-19.2 12.3v-10l19.1-12.3v10h.1Zm20.2-13.8-7.2-4.6 6.7-4.3.5-.3v9.2Zm-19.1-12.2v-9.9l18.7 11.9-2.6 1.6-5.2 3.3-10.9-6.9Zm10.9 8.3 7.8 5-10.4 6.7-7.8-5 10.4-6.7Zm8.3 30-19.1-12.3v-10l19.1 12.3v10Zm-81.2 61.1-19.1 12.3v-10l19.1-12.3v10Zm12-4.6-10.8-6.9v-10l18.7 11.9-7.9 5Zm8.3 17.5-10.8 6.9-7.8-5 18.6-11.9v10Zm40.6-47.4v10l-10.8 6.9-1.3-.8-6.5-4.1 18.6-12Zm-14.4 16 13.9 8.9-7.8 5-10.8-6.9v-10l4.7 3Zm-25.1-6v-10l18.7 11.9-3.6 2.3-4.2 2.7-10.9-6.9Zm17.9 3.8 1.3-.8v10l-10.8 6.9-7.8-5 17.3-11.1Zm-17.9 33.6v-10l18.7 11.9-4.8 3.1-3 1.9-10.9-6.9Zm19.2 13-10.8 6.9-7.8-5 16.9-10.8 1.8-1.1-.1 10Zm0-12.2-19.1-12.3v-10l1.5.9 17.7 11.3v10.1h-.1Zm.5-11-10.4-6.6 10.4-6.6 10.4 6.6-10.4 6.6Zm.6 1 17.7-11.3 1.5-.9v10l-19.1 12.3v-10.1h-.1Zm0 22.2v-10l18.7 11.9-7.8 5-10.9-6.9Zm19.2 12.9-19.1 12.3v-10l11.2-7.1 8-5.1v9.9h-.1Zm20.3 2.3v10l-19.1-12.3v-10l8 5.1 11.1 7.2Zm-10.9-8.3-7.8-5 18.7-11.9v10l-10.9 6.9Zm12-103.9 19.1-12.3v10l-19.1 12.3v-10Zm0 22.1v-10l18.7 11.9-7.8 5-10.9-6.9Zm0 15.3 11.2-7.1 8-5.1v10l-19.2 12.2v-10Zm0 22.1v-10l18.7 11.9-7.8 5-10.9-6.9Zm19.2 13-19.2 12.3v-10l17.7-11.3 1.5-.9v9.9Zm20.3 2.3v10l-19.1-12.3v-10l1.5.9 17.6 11.4Zm0-15.2-10.8 6.9-7.8-5 18.7-11.9v10h-.1Zm20.3-13.1-19.1 12.3v-10l19.1-12.3v10Zm1.1-25.9v-10l18.7 11.9-3.8 2.5-4 2.5-10.9-6.9Zm16.3 4.8 2.8-1.8v10l-10.8 6.9-7.8-5 15.8-10.1Zm2.9 33.4-19.1-12.3v-10l8 5.1 11.1 7.1v10.1Zm20.3-12.3-19.1 12.3v-10l19.1-12.3v10Zm-70.1-355.1-10.7 6.8-20.3 13a.547.547 0 0 0-.3.5v11l-19.7 12.6-10.4-6.6 10.7-6.8a.553.553 0 0 0 .3-.5v-11.4c0-.1 0-.1-.1-.2v-.1c0-.1-.1-.1-.1-.2v-.1l-20.3-13a.638.638 0 0 0-.6 0 .547.547 0 0 0-.3.5v11.4a.548.548 0 0 0 .3.5l10.7 6.8-10.7 6.8-20 12.8-19.4-12.2 19.6-12.5a.553.553 0 0 0 .3-.5v-11.4a.367.367 0 0 0-.1-.3l-.1-.1-.1-.1-10.7-6.8 10.7-6.8a.553.553 0 0 0 .3-.5v-11.4a.548.548 0 0 0-.3-.5.638.638 0 0 0-.6 0l-20 12.8-20-12.8a.638.638 0 0 0-.6 0 .547.547 0 0 0-.3.5v11.4a.548.548 0 0 0 .3.5l10.7 6.8-10.4 6.6-20-12.8a.638.638 0 0 0-.6 0 .547.547 0 0 0-.3.5v11.3l-20 12.8a.547.547 0 0 0-.3.5v11.4a.548.548 0 0 0 .3.5c.1 0 .2.1.3.1a.367.367 0 0 0 .3-.1l20.3-13a.553.553 0 0 0 .3-.5v-10.5l10.5 6.7a.5.5 0 0 0 .6 0l8-5.1v10.1l-20 12.8a.561.561 0 0 0-.3.5.562.562 0 0 0 .3.5l8.9 5.7a.5.5 0 0 0 .6 0l11.1-7.1 10.4 6.6-10.7 6.8a.561.561 0 0 0-.3.5.562.562 0 0 0 .3.5l8.9 5.7a.5.5 0 0 0 .6 0l11.1-7.1 10.4 6.6-10.7 6.8a.547.547 0 0 0-.3.5v11.4a.548.548 0 0 0 .3.5c.1 0 .2.1.3.1a.367.367 0 0 0 .3-.1l20.3-13 19.9-12.8 20 12.8c.1 0 .2.1.3.1a.367.367 0 0 0 .3-.1l20.3-13a.553.553 0 0 0 .3-.5v-11l19.7-12.6 20 12.8a.499.499 0 0 0 .6 0 .553.553 0 0 0 .3-.5v-11.4a.548.548 0 0 0-.3-.5l-10.7-6.8 10.7-6.8a.553.553 0 0 0 .3-.5v-11.5c0-.1 0-.1-.1-.2l-.1-.1-.1-.1-20.3-13a.638.638 0 0 0-.6 0 .547.547 0 0 0-.3.5v11.4a.548.548 0 0 0 .3.5l10.8 6.7Zm-153.1 16.9-19.1 12.3v-10l19.1-12.3v10Zm12-4.7-10.8-6.9v-10l18.7 11.9-7.9 5Zm8.3 17.5-10.8 6.9-7.8-5 18.7-11.9v10h-.1Zm40.6-47.4v10l-10.8 6.9-2.2-1.4-5.6-3.6 18.6-11.9Zm-13.5 16.6 13.1 8.4-7.8 5-10.8-6.9v-10l5.5 3.5Zm-25.9-6.6v-10l18.7 11.9-7.8 5-10.9-6.9Zm11.2 8.1 8-5.1v10l-10.8 6.9-7.8-5 10.6-6.8Zm-11.2 29.3v-10l18.7 11.9-7.8 5-10.9-6.9Zm19.1 13-10.8 6.9-7.8-5 10.7-6.8 8-5.1-.1 10Zm0-12.2-19.1-12.3v-10l8 5.1 11.2 7.1v10.1h-.1Zm.6-11-10.4-6.6 10.4-6.6 10.4 6.6-10.4 6.6Zm.6 1 11.2-7.1 8-5.1v10l-19.2 12.2v-10Zm0 22.2v-10l18.7 11.9-7.8 5-10.9-6.9Zm19.1 13-19.1 12.2v-10l11.2-7.1 8-5.1v10h-.1Zm20.3-13-19.1 12.3v-10l19.1-12.3v10Zm1.2-26v-10l18.7 11.9-6.2 3.9-1.7 1.1-10.8-6.9Zm12.7 7.1 6.5-4.1v10l-10.8 6.9-7.8-5 12.1-7.8Zm6.4 31.1-19.1-12.3v-10l8 5.1 11.2 7.1v10.1h-.1Zm20.3-12.2-19.1 12.3v-10l19.1-12.3v10Zm20.3-24.4-19.1 12.3v-10l19.1-12.3v10Zm20.3 2.3v10l-19.1-12.3v-10l8 5.1 11.1 7.2Zm0-15.3-10.8 6.9-7.8-5 14.6-9.4 4-2.6v10.1Zm-19.1-23 18.7 11.9-4.1 2.6-3.7 2.4-10.8-6.9v-10h-.1Z" fill="url(#a)"/><defs><linearGradient id="a" x1=".715" y1="421.192" x2="814.115" y2="421.192" gradientUnits="userSpaceOnUse"><stop stop-color="#fff" stop-opacity="0"/><stop offset="1" stop-color="#9B9FA8"/></linearGradient></defs></svg>