<svg width="336" height="571" viewBox="0 0 336 571" fill="none" xmlns="http://www.w3.org/2000/svg">
<path fill-rule="evenodd" clip-rule="evenodd" d="M335.695 291.599L168.213 0.954102V398.196L335.695 291.599ZM168.213 432.894V570.583L335.695 326.019L168.213 432.894Z" fill="url(#paint0_linear_6085_55481)"/>
<path fill-rule="evenodd" clip-rule="evenodd" d="M168.212 0.954102V398.196L0.730469 291.599L168.212 0.954102ZM168.489 432.894V570.583L0.730469 326.019L168.489 432.894Z" fill="url(#paint1_linear_6085_55481)"/>
<mask id="mask0_6085_55481" style="mask-type:alpha" maskUnits="userSpaceOnUse" x="0" y="170" width="169" height="229">
<path d="M168.212 398.196V322.404V170.23L0.730469 170.9V226.994V291.599L168.212 398.196Z" fill="#E31FDC"/>
</mask>
<g mask="url(#mask0_6085_55481)">
<path d="M145.285 312.341H56.8242C51.3779 312.339 46.1554 310.333 42.3043 306.766C38.4532 303.198 36.2883 298.361 36.2854 293.316L36.2854 242.341H145.285V312.341Z" fill="url(#paint2_linear_6085_55481)"/>
<path d="M145.285 312.341H56.8242C51.3779 312.339 46.1554 310.333 42.3043 306.766C38.4532 303.198 36.2883 298.361 36.2854 293.316L36.2854 242.341H145.285V312.341Z" fill="black" fill-opacity="0.2"/>
<path d="M134.33 311.63C139.735 311.366 144.465 308.03 148.942 305.045C146.492 294.423 126.625 280.975 110.544 288.535C111.135 290.465 128.248 304.08 128.248 304.08C128.248 304.08 134.248 306.012 134.33 311.63Z" fill="#F2EDDC"/>
<path d="M134.329 311.628C134.329 313.292 133.569 314.613 131.118 317.247C130.528 317.861 129.683 327.433 130.359 331.207C147.927 323.48 151.306 313.907 148.687 304.254C144.634 307.591 139.565 310.754 134.329 311.628Z" fill="url(#paint3_linear_6085_55481)"/>
<path d="M139.396 325.412C141.279 323.924 143.005 322.249 144.548 320.412C147.072 317.145 148.781 313.322 149.531 309.262C149.451 307.63 149.196 306.012 148.771 304.434C144.548 307.769 139.564 310.929 134.328 311.721C133.99 313.3 133.568 314.704 131.118 317.338C130.527 317.952 129.429 327.874 129.851 332.351C132.723 329.893 136.017 328.137 139.058 325.942C139.128 325.742 139.244 325.562 139.396 325.415" fill="#FF9666"/>
<path d="M137.872 332.962C139.026 331.398 139.724 329.544 139.888 327.606C140.052 325.669 139.676 323.724 138.801 321.988C136.689 317.335 132.888 316.194 128.919 318.564C126.991 319.868 125.281 321.468 123.851 323.305C122.415 325.06 120.979 326.993 121.064 329.275C121.057 330.625 121.358 331.96 121.943 333.176C122.529 334.393 123.384 335.461 124.443 336.298C125.71 337.263 129.764 339.459 131.791 339.459C133.261 339.528 134.721 339.194 136.014 338.493C136.975 337.962 137.766 337.169 138.295 336.206C138.547 335.707 138.657 335.148 138.612 334.591C138.567 334.033 138.37 333.499 138.042 333.046C137.96 332.962 137.96 332.962 137.872 332.962Z" fill="#FB7E51"/>
<path d="M137.117 334.542C137.049 334.665 136.952 334.769 136.834 334.845C136.716 334.921 136.581 334.968 136.441 334.98C135.704 335.347 134.899 335.556 134.076 335.595C133.817 335.582 133.574 335.466 133.399 335.274C133.225 335.081 133.134 334.827 133.146 334.568V334.541C133.144 334.384 133.182 334.23 133.256 334.091C133.329 333.953 133.437 333.836 133.568 333.75C134.882 332.956 136.077 331.98 137.116 330.85C137.116 330.763 137.2 330.675 137.2 330.587C137.791 329.534 138.3 328.393 138.8 327.339C139.143 326.369 139.398 325.37 139.56 324.354C139.385 323.542 139.13 322.748 138.8 321.985C136.688 317.33 132.887 316.19 128.918 318.561C126.99 319.864 125.279 321.463 123.85 323.3C122.414 325.057 120.978 326.988 121.063 329.271C121.056 330.621 121.357 331.955 121.942 333.172C122.528 334.389 123.383 335.456 124.442 336.293C125.709 337.259 129.51 339.279 131.79 339.454C133.26 339.524 134.72 339.19 136.013 338.489C136.974 337.958 137.765 337.165 138.294 336.203C138.496 335.795 138.608 335.349 138.622 334.895C138.637 334.44 138.554 333.988 138.378 333.568C137.979 333.919 137.557 334.243 137.116 334.539" fill="#FF9666"/>
<path d="M100.37 394.664L101.215 400.674H106.324V398.127L105.224 394.663L100.37 394.664Z" fill="#15191F"/>
<path d="M79.6074 393.859H68.2235C68.1895 394.35 68.1725 394.618 68.1725 394.618L60.7305 396.618V400.628H71.5454L75.4304 397.675V400.628H80.8784C80.8784 400.628 81.3875 398.286 81.9785 394.618C82.0135 394.388 82.0554 394.144 82.0964 393.903C81.2664 393.886 80.4374 393.878 79.6074 393.859Z" fill="#0A0A0A"/>
<path d="M116.391 394.617L116.499 394.078C116.299 394.095 116.092 394.109 115.879 394.109C111.116 394.109 106.353 394.102 101.59 394.089C101.376 398.089 101.151 400.626 101.151 400.626H106.26V397.673L110.145 400.626H122.975V396.617L116.391 394.617Z" fill="#0A0A0A"/>
<path d="M68.1755 394.618H82.0656C84.3496 378.852 92.4726 363.555 98.3126 349.184C98.3126 349.184 102.753 373.34 100.394 394.618H116.476C118.757 358.827 125.876 360.09 128.631 333.802C128.631 323.029 67.7314 330.954 67.7314 330.954L70.6276 372.003L68.1755 394.618Z" fill="#27272D"/>
<path d="M98.3145 349.286C102.791 367.521 100.396 394.72 100.396 394.72H105.673C105.673 394.62 106.841 361.201 98.3145 349.286Z" fill="#2F2F38"/>
<path d="M68.1755 394.618C69.2445 394.018 73.6884 375.971 72.7954 364.846C71.7874 352.285 71.2855 335.897 75.4225 330.439C73.8955 329.705 67.7312 329.954 67.7312 329.954C67.7312 329.954 65.1175 343.177 69.3355 365.802C70.4865 371.765 69.2475 385.961 68.1755 394.618Z" fill="#0A0A0A"/>
<path d="M100.396 394.618L101.24 400.628H106.349V397.678L105.673 394.622L100.396 394.618Z" fill="#0A0A0A"/>
<path d="M105.461 283.954C72.8609 285.474 72.3508 290.12 72.3508 290.12C68.1818 294.072 60.5429 306.626 65.1719 305.155C69.8009 303.684 72.4839 304.697 72.7999 304.934C74.2359 306.034 73.9999 309.257 73.7499 311.876C73.2402 315.484 72.3348 319.025 71.0499 322.434C71.0499 326.319 69.3145 327.484 69.2305 331.454L127.008 333.367C127.008 333.367 126.511 313.339 126.681 306.75" fill="#F2EDDC"/>
<path d="M73.269 313.719C78.289 312.582 87.185 299.136 73.91 286.93C72.356 285.501 85.487 286.569 91.23 290.454C91.737 291.891 105.865 304.547 105.865 304.547C105.865 304.547 111.317 294.832 105.048 285.261C111.858 284.053 124.218 285.518 129.288 306.361C129.66 307.89 126.756 313.918 126.872 315.661C126.872 315.661 129.72 328.303 128.453 333.118C120.15 334.324 111.777 334.979 103.388 335.078C86.1569 335.078 66.73 333.05 66.73 333.05C67.629 326.242 69.8504 319.675 73.269 313.719Z" fill="#F7D600"/>
<mask id="mask1_6085_55481" style="mask-type:alpha" maskUnits="userSpaceOnUse" x="66" y="284" width="64" height="52">
<path d="M73.2695 313.719C78.2895 312.582 87.1855 299.136 73.9105 286.93C72.3565 285.501 89.3675 289.802 95.1105 293.687C95.6175 295.124 105.865 304.547 105.865 304.547C105.865 304.547 111.317 294.832 105.048 285.261C111.858 284.053 124.218 285.518 129.288 306.361C129.66 307.89 126.756 313.918 126.872 315.661C126.872 315.661 129.72 328.303 128.453 333.118C120.151 334.324 111.778 334.979 103.388 335.078C86.1574 335.078 66.7305 333.05 66.7305 333.05C67.6295 326.242 69.8509 319.675 73.2695 313.719Z" fill="#E800ED"/>
</mask>
<g mask="url(#mask1_6085_55481)">
<path d="M103.101 329.561C91.2292 329.543 79.3724 328.704 67.6162 327.048L68.3164 322.097C89.7494 325.131 112.527 325.382 129.248 322.77L130.02 327.709C121.107 329.007 112.108 329.626 103.101 329.561Z" fill="#E69C31"/>
<path d="M102.59 320.59C90.9152 320.647 79.2558 319.741 67.7305 317.88L68.5864 312.954C89.3584 316.561 116.486 316.203 128.792 313.607L129.825 318.499C123.558 319.821 113.613 320.59 102.59 320.59Z" fill="#E69C31"/>
<path d="M105.73 303.954C108.446 316.498 105.73 335.728 105.73 335.728" stroke="#AD960C" stroke-miterlimit="10"/>
</g>
</g>
<mask id="mask2_6085_55481" style="mask-type:alpha" maskUnits="userSpaceOnUse" x="168" y="0" width="168" height="399">
<path d="M168.213 398.196V0.954102L335.695 291.599L168.213 398.196Z" fill="#E31FDC"/>
</mask>
<g mask="url(#mask2_6085_55481)">
<path d="M202.421 313.132C196.459 312.857 191.321 310.013 186.37 306.895C189.122 295.613 200.678 286.716 210.951 288.095C210.309 290.113 207.833 306.895 207.833 306.895C207.833 306.895 202.329 308.546 202.421 313.132Z" fill="#F2EDDC"/>
<path d="M202.421 312.855C202.421 314.689 203.338 316.982 205.998 319.734C206.64 320.468 207.557 330.557 206.824 334.593C187.47 326.43 183.71 316.248 186.649 305.976C191.249 309.552 196.671 311.917 202.421 312.855Z" fill="url(#paint4_linear_6085_55481)"/>
<path d="M196.917 328.356C194.869 326.753 192.966 324.973 191.23 323.036C188.474 319.591 186.587 315.533 185.73 311.204C185.804 309.429 186.112 307.671 186.647 305.976C191.303 309.517 196.748 311.878 202.515 312.855C202.515 314.689 203.432 316.982 206.092 319.734C206.734 320.376 207.926 330.924 207.56 335.693C204.35 333.125 200.681 331.199 197.379 328.814L196.917 328.356Z" fill="#FF9666"/>
<path d="M198.66 336.429C197.388 334.791 196.616 332.821 196.437 330.754C196.258 328.688 196.679 326.614 197.651 324.781C199.944 319.828 204.163 318.636 208.566 321.204C210.703 322.56 212.596 324.265 214.166 326.249C215.725 328.083 217.376 330.193 217.284 332.578C217.288 334.026 216.949 335.453 216.295 336.744C215.642 338.036 214.692 339.154 213.523 340.007C212.147 341.016 207.653 343.401 205.452 343.401C203.86 343.484 202.276 343.135 200.866 342.392C199.778 341.844 198.88 340.98 198.289 339.914C198.016 339.379 197.897 338.778 197.945 338.178C197.994 337.579 198.208 337.005 198.564 336.52C198.568 336.429 198.568 336.429 198.66 336.429Z" fill="url(#paint5_linear_6085_55481)"/>
<path d="M199.486 338.079C199.562 338.209 199.669 338.319 199.797 338.399C199.924 338.479 200.07 338.527 200.22 338.538C201.053 338.934 201.958 339.152 202.88 339.18C203.019 339.176 203.156 339.144 203.282 339.087C203.409 339.029 203.523 338.946 203.617 338.843C203.711 338.741 203.783 338.621 203.83 338.489C203.877 338.358 203.897 338.219 203.889 338.08C203.89 337.915 203.848 337.752 203.768 337.607C203.687 337.463 203.571 337.341 203.43 337.254C201.982 336.432 200.655 335.413 199.486 334.227C199.486 334.135 199.394 334.044 199.394 333.952C198.752 332.852 198.202 331.659 197.651 330.467C197.284 329.458 197.009 328.357 196.734 327.349C196.917 326.523 196.275 325.484 196.734 324.658C199.027 319.705 201.662 317.201 206.065 319.769C208.174 321.145 212.602 324.322 214.165 326.34C215.724 328.174 217.375 330.284 217.283 332.669C217.287 334.117 216.948 335.544 216.294 336.835C215.641 338.127 214.691 339.245 213.522 340.098C212.146 341.107 207.927 343.308 205.451 343.492C203.856 343.587 202.267 343.238 200.858 342.485C199.773 341.936 198.879 341.073 198.29 340.009C198.071 339.586 197.949 339.12 197.933 338.644C197.917 338.168 198.008 337.694 198.198 337.257C198.568 337.437 199.027 337.804 199.486 338.079Z" fill="#FF9666"/>
<path d="M275.724 395.304C275.724 395.304 276.133 342.339 271.403 329.247C269.803 327.811 208.73 332.119 208.73 332.119L217.97 395.389H211.297V400.457H226.385L230.271 397.923V400.457H237.463C237.463 400.457 233.308 358.725 239.474 345.127C244.711 351.127 255.118 385.085 256.974 395.305C257.566 398.43 258.074 400.373 258.074 400.373H264.774V397.923L268.745 400.372H282.824V395.304H275.724Z" fill="#262223"/>
<path d="M275.726 395.305H256.809C252.924 370.979 242.228 355.385 239.477 347.576C239.416 349.805 238.649 377.398 238.311 395.305H217.885C210 358.719 208.73 332.035 208.73 332.035L271.404 329.163L275.726 395.305Z" fill="#27272D"/>
<path d="M239.558 347.661C238.395 363.719 238.392 395.39 238.392 395.39H231.031C230.95 395.305 230.859 357.712 239.558 347.661Z" fill="#2F2F38"/>
<path d="M238.397 395.305L237.552 400.373H230.359V398.261L231.459 395.305H238.397Z" fill="#15191F"/>
<path d="M275.726 395.304L262.875 329.247H271.406L275.726 395.304Z" fill="#262223"/>
<path d="M238.397 395.305L237.552 400.373H230.359V398.261L231.459 395.305H238.397Z" fill="#0F0D0B"/>
<path d="M275.726 395.305H282.826V400.377H274.294V395.309H275.73" fill="#0F0D0B"/>
<path d="M223.535 278.956C256.645 280.556 269.906 289.346 269.906 289.346C271.303 294.364 272.152 299.518 272.44 304.718C272.045 304.699 271.656 304.819 271.34 305.057C269.82 306.157 269.651 308.013 269.904 310.715C270.414 314.387 272.604 329.466 272.691 333.436H208.5L208.331 300.664C208.331 300.664 213.061 278.702 223.531 278.956" fill="#F2EDDC"/>
<path d="M270.623 314.813C270.623 314.813 255.076 307.239 265.213 286.544C257.223 280.552 236.444 300.947 230.745 305.368C225.456 299.304 223.707 290.331 220.87 282.911C211.494 286.964 206.849 287.134 206.763 311.797C206.763 311.797 206.848 328.438 208.2 333.335C217.155 334.614 226.184 335.32 235.229 335.448C252.797 335.448 272.891 333.335 272.891 333.335L270.623 314.813Z" fill="#F7D600"/>
<mask id="mask3_6085_55481" style="mask-type:alpha" maskUnits="userSpaceOnUse" x="206" y="282" width="67" height="54">
<path d="M270.59 314.856C270.59 314.856 255.043 307.282 265.18 286.587C263.492 285.321 248.889 290.818 243.061 294.703C242.554 296.224 230.712 305.411 230.712 305.411C230.712 305.411 225.878 299.869 225.378 294.828L220.837 282.954C211.461 287.007 206.816 287.177 206.73 311.84C206.73 311.84 206.815 328.481 208.167 333.378C217.123 334.657 226.151 335.363 235.196 335.491C252.764 335.491 272.92 333.394 272.92 333.394L270.59 314.856Z" fill="#8C17B6"/>
</mask>
<g mask="url(#mask3_6085_55481)">
<path d="M233.993 330.481C224.522 330.529 215.061 329.856 205.693 328.466L206.464 323.527C225.856 326.556 250.822 326.045 271.624 322.191L272.534 327.107C259.813 329.38 246.915 330.509 233.993 330.481Z" fill="#E69C31"/>
<path d="M236.468 321.507C224.168 321.507 212.834 320.693 206.146 319.28L206.549 314.199C219.187 316.868 251.326 317.458 271.503 313.953L272.358 318.879C260.486 320.725 248.483 321.603 236.468 321.507Z" fill="#E69C31"/>
<path d="M231.002 303.954C228.836 316.496 231.513 335.613 231.513 335.613" stroke="#AD960C" stroke-miterlimit="10"/>
</g>
</g>
<path d="M48.4542 301.288C46.8987 303.374 45.9885 305.869 45.8362 308.467C45.9202 308.467 45.9202 308.552 46.0052 308.552C48.5392 310.579 51.5802 312.268 54.8742 312.437C57.0935 312.62 59.3214 312.676 61.5472 312.606C61.3782 306.947 67.0372 302.893 72.9472 304.075C73.7072 300.612 75.2307 288.454 75.2307 288.454C75.2307 288.454 56.3942 288.535 48.4542 301.288Z" fill="#F2EDDC"/>
<path d="M61.5463 312.1C56.0534 312.261 50.621 310.917 45.8363 308.215C44.9073 316.155 50.2283 325.108 56.5633 328.824C60.9553 331.358 68.9793 326.881 70.1633 323.165C63.6593 319.618 61.3773 315.563 61.5463 312.1Z" fill="url(#paint6_linear_6085_55481)"/>
<path d="M66.6143 320.799C63.6339 321.155 60.8784 322.563 58.8433 324.769C57.7801 325.894 56.9984 327.254 56.5623 328.739C56.3933 329.415 56.8152 332.539 60.3622 334.229C60.0958 335.029 60.0741 335.89 60.2998 336.703C60.5255 337.515 60.9884 338.242 61.6293 338.79C66.5293 343.351 75.2293 338.283 75.9883 337.354C77.7623 335.073 78.3533 331.948 78.6883 329.33C79.0303 327.134 72.1043 319.955 66.6143 320.799Z" fill="url(#paint7_linear_6085_55481)"/>
<path d="M64.7575 335.75C64.0837 334.908 63.3187 334.143 62.4764 333.469C62.0059 333.1 61.4594 332.84 60.8763 332.707C59.8363 332.293 58.9426 331.579 58.3084 330.656C58.0574 330.502 57.9164 330.392 57.9164 330.344H58.1334C57.7576 329.579 57.6698 328.705 57.8864 327.881C57.6018 327.741 57.3298 327.576 57.0734 327.389C48.0354 319.112 48.4564 310.83 48.4564 309.485C52.581 311.283 57.0518 312.146 61.5494 312.016C61.4154 314.816 62.8653 317.881 66.6423 320.793C71.5363 320.053 77.5994 325.447 78.6964 329.244C77.552 331.238 75.8485 332.853 73.7964 333.889C71.4983 335.081 68.9725 335.771 66.3873 335.91C65.84 335.913 65.2939 335.859 64.7575 335.75Z" fill="#FF9666"/>
<path d="M275.604 294.615C274.439 295.105 273.352 295.765 272.381 296.575C269.469 299.091 267.106 302.179 265.439 305.647C271.512 310.859 273.688 318.816 273.581 325.182C273.67 326.69 273.393 328.198 272.773 329.576C271.955 330.69 270.967 331.669 269.844 332.476C267.664 334.169 265.192 335.717 262.576 337.356C262.044 337.689 261.517 338.025 260.987 338.356C265.614 340.799 269.654 344.856 273.276 348.329C275.213 347.087 277.159 345.783 279.043 344.32C281.704 342.38 283.968 339.948 285.712 337.156C287.665 333.56 288.653 329.519 288.579 325.428C288.786 313.207 283.947 302.015 275.604 294.615Z" fill="#FF9666"/>
<path d="M284.191 336.532C282.291 339.763 279.653 341.523 277.543 343.161C275.577 344.688 279.917 340.05 277.897 341.34C278.433 341.696 272.568 348.096 273.122 348.44C275.109 347.169 277.109 345.833 279.043 344.331C281.704 342.391 283.968 339.959 285.712 337.167C287.665 333.571 288.653 329.53 288.579 325.439C288.621 321.493 288.15 317.557 287.179 313.732C287.129 313.687 284.21 315.373 284.189 315.425C287.872 325.053 285.497 334.312 284.191 336.532Z" fill="url(#paint8_linear_6085_55481)"/>
<path d="M271.525 334.037C274.533 334.484 276.445 335.109 278.432 337.411C279.454 338.585 280.223 339.958 280.691 341.443C280.841 342.123 280.152 344.953 276.658 346.912C269.692 350.812 263.236 347.434 262.417 346.483C260.617 344.153 258.481 344.144 258.132 341.431C257.932 339.231 265.974 333.044 271.525 334.037Z" fill="url(#paint9_linear_6085_55481)"/>
<path d="M280.615 340.515C280.209 339.915 279.072 337.86 278.664 337.342C276.676 335.042 272.572 331.135 269.844 332.48C267.084 333.839 264.328 334.502 260.744 337.121C261.864 339.172 261.796 343.099 263.844 344.221C268.098 346.278 271.693 347.749 273.731 347.382C276.812 346.045 279.271 343.592 280.615 340.515Z" fill="#FF9666"/>
<path d="M262.335 339.027C258.538 340.891 255.627 344.173 254.229 348.165L262.335 339.027Z" fill="#FF9666"/>
<path d="M262.335 339.027C258.538 340.891 255.627 344.173 254.229 348.165" stroke="#FF9666" stroke-width="5" stroke-miterlimit="10" stroke-linecap="round"/>
<path d="M263.354 342.727C260.811 345.934 259.028 349.677 258.14 353.673L263.354 342.727Z" fill="#FF9666"/>
<path d="M263.354 342.727C260.811 345.934 259.028 349.677 258.14 353.673" stroke="#FF9666" stroke-width="5" stroke-miterlimit="10" stroke-linecap="round"/>
<path d="M268.916 343.477C266.216 345.548 264.005 351.477 263.793 354.877L268.916 343.477Z" fill="#FF9666"/>
<path d="M268.916 343.477C266.216 345.548 264.005 351.477 263.793 354.877" stroke="#FF9666" stroke-width="5" stroke-miterlimit="10" stroke-linecap="round"/>
<path d="M273.041 345.54C271.062 347.14 269.903 351.271 269.633 353.84L273.041 345.54Z" fill="#FF9666"/>
<path d="M273.041 345.54C271.062 347.14 269.903 351.271 269.633 353.84" stroke="#FF9666" stroke-width="5" stroke-miterlimit="10" stroke-linecap="round"/>
<path d="M261.711 341.674C259.003 343.384 256.928 345.933 255.803 348.933C255.625 349.363 255.342 349.742 254.98 350.035C254.618 350.327 254.188 350.524 253.73 350.608C254.332 350.741 254.961 350.644 255.494 350.335C256.027 350.025 256.424 349.527 256.606 348.939C257.677 346.13 259.432 343.633 261.711 341.674Z" fill="#FB7E51"/>
<path d="M259.928 354.246C259.748 354.733 259.44 355.163 259.038 355.492C258.637 355.821 258.154 356.037 257.641 356.118C257.806 356.153 257.973 356.172 258.141 356.174C258.709 356.174 259.26 355.98 259.703 355.625C260.146 355.27 260.455 354.775 260.579 354.221C261.376 350.629 262.969 347.262 265.24 344.367C265.277 344.324 265.302 344.276 265.335 344.231C262.897 345.54 260.548 351.487 259.928 354.246Z" fill="#FB7E51"/>
<path d="M269.054 346.808C267.203 349.19 266.036 352.032 265.679 355.027C265.56 355.602 265.271 356.129 264.849 356.538C264.427 356.946 263.892 357.219 263.313 357.319C263.42 357.343 263.528 357.361 263.636 357.372C263.689 357.372 263.744 357.377 263.795 357.377C264.43 357.377 265.042 357.134 265.505 356.699C265.969 356.263 266.249 355.668 266.289 355.033C266.637 352.128 267.633 349.339 269.203 346.87C269.24 346.519 269.011 347.153 269.054 346.808Z" fill="#FB7E51"/>
<path d="M271.552 353.587C271.488 354.201 271.198 354.77 270.74 355.183C270.281 355.596 269.686 355.826 269.068 355.826C268.98 355.826 268.893 355.822 268.805 355.812C268.4 355.767 268.013 355.623 267.677 355.391C267.884 355.653 268.141 355.87 268.433 356.031C268.725 356.191 269.046 356.291 269.377 356.325C269.465 356.334 269.552 356.339 269.64 356.338C270.258 356.338 270.853 356.108 271.312 355.695C271.77 355.282 272.06 354.713 272.124 354.099C272.41 351.378 273.429 348.168 274.624 347.482C275.467 346.996 275.201 347.307 275.234 346.621C272.373 348.521 271.813 351.101 271.552 353.587Z" fill="#FB7E51"/>
<path d="M265.807 286.111C263.398 285.256 262.582 303.648 266.489 308.031C269.022 309.751 271.551 314.875 272.917 318.757C272.986 318.72 283.118 316.625 287.134 313.625C285.021 302.336 276.92 288.938 265.807 286.111Z" fill="#F2EDDC"/>
<defs>
<linearGradient id="paint0_linear_6085_55481" x1="330.877" y1="-21.9456" x2="336.685" y2="602.151" gradientUnits="userSpaceOnUse">
<stop offset="0.124467" stop-color="#2F3238"/>
<stop offset="0.645717" stop-color="#2F3238"/>
<stop offset="0.92317" stop-color="#2F3238"/>
</linearGradient>
<linearGradient id="paint1_linear_6085_55481" x1="163.664" y1="-21.9456" x2="169.462" y2="602.152" gradientUnits="userSpaceOnUse">
<stop offset="0.124467" stop-color="#2F2F38"/>
<stop offset="0.645717" stop-color="#2F2F38"/>
<stop offset="0.92317" stop-color="#27272D"/>
</linearGradient>
<linearGradient id="paint2_linear_6085_55481" x1="53.0899" y1="285.701" x2="169.086" y2="260.729" gradientUnits="userSpaceOnUse">
<stop stop-color="#562294"/>
<stop offset="1" stop-color="#7A3BC4"/>
</linearGradient>
<linearGradient id="paint3_linear_6085_55481" x1="139.792" y1="304.254" x2="139.792" y2="331.207" gradientUnits="userSpaceOnUse">
<stop stop-color="#FB7E51"/>
<stop offset="1" stop-color="#FF8F66"/>
</linearGradient>
<linearGradient id="paint4_linear_6085_55481" x1="185.149" y1="310.872" x2="202.517" y2="339.144" gradientUnits="userSpaceOnUse">
<stop stop-color="#F78250"/>
<stop offset="1" stop-color="#FF9666"/>
</linearGradient>
<linearGradient id="paint5_linear_6085_55481" x1="202.33" y1="338.332" x2="198.136" y2="328.886" gradientUnits="userSpaceOnUse">
<stop stop-color="#FB7E51"/>
<stop offset="1" stop-color="#FF8F66"/>
</linearGradient>
<linearGradient id="paint6_linear_6085_55481" x1="44.3747" y1="308.215" x2="57.9469" y2="329.565" gradientUnits="userSpaceOnUse">
<stop stop-color="#F78250"/>
<stop offset="1" stop-color="#FF9666"/>
</linearGradient>
<linearGradient id="paint7_linear_6085_55481" x1="69.3229" y1="341.384" x2="61.2813" y2="328.716" gradientUnits="userSpaceOnUse">
<stop stop-color="#FB7E51"/>
<stop offset="1" stop-color="#FF8F66"/>
</linearGradient>
<linearGradient id="paint8_linear_6085_55481" x1="283.989" y1="308.819" x2="280.834" y2="348.44" gradientUnits="userSpaceOnUse">
<stop stop-color="#F78250"/>
<stop offset="1" stop-color="#FF9666"/>
</linearGradient>
<linearGradient id="paint9_linear_6085_55481" x1="272.151" y1="351.89" x2="276.331" y2="339.453" gradientUnits="userSpaceOnUse">
<stop stop-color="#FB7E51"/>
<stop offset="1" stop-color="#FF8F66"/>
</linearGradient>
</defs>
</svg>
