<svg xmlns="http://www.w3.org/2000/svg" width="335" height="570" fill="none"><path d="m167.482 0 167.482 290.645-167.482 106.597V0ZM167.482 569.629V431.94l167.482-106.875-167.482 244.564Z" fill="#fff"/><path d="M167.482 397.242V0L0 290.645l167.482 106.597Z" fill="url(#a)"/><path opacity=".6" d="m167.482 0 167.482 290.645-167.482 106.597V0Z" fill="url(#b)"/><path d="M167.759 569.629V431.94L0 325.065l167.759 244.564Z" fill="url(#c)"/><path opacity=".6" d="M167.482 569.629V431.94l167.482-106.875-167.482 244.564Z" fill="url(#d)"/><mask id="e" style="mask-type:alpha" maskUnits="userSpaceOnUse" x="0" y="169" width="168" height="229"><path d="M167.482 397.242V169.276L0 169.946V290.645l167.482 106.597Z" fill="#E31FDC"/></mask><g mask="url(#e)"><path d="M144.555 311.387H56.093c-5.446-.003-10.668-2.008-14.52-5.575-3.85-3.568-6.015-8.405-6.018-13.45v-50.975h109v70Z" fill="url(#f)"/><path d="M133.6 310.676c5.405-.264 10.135-3.6 14.612-6.585-2.45-10.622-22.317-24.07-38.398-16.511.591 1.93 17.705 15.546 17.705 15.546s5.999 1.932 6.081 7.55Z" fill="#F2EDDC"/><path d="M133.599 310.674c0 1.664-.76 2.985-3.211 5.619-.59.614-1.435 10.186-.759 13.96 17.568-7.727 20.947-17.3 18.328-26.953-4.053 3.337-9.122 6.5-14.358 7.374" fill="url(#g)"/><path d="M138.666 324.458a35.354 35.354 0 0 0 5.152-5 25.957 25.957 0 0 0 4.984-11.15 22.933 22.933 0 0 0-.761-4.828c-4.223 3.335-9.207 6.495-14.443 7.287-.338 1.579-.759 2.983-3.209 5.617-.591.614-1.689 10.536-1.267 15.013 2.872-2.458 6.165-4.214 9.206-6.409.071-.2.186-.38.338-.527" fill="#FF8F66"/><path d="M137.142 332.008a10.518 10.518 0 0 0 .929-10.974c-2.112-4.653-5.913-5.794-9.882-3.424a22.104 22.104 0 0 0-5.068 4.741c-1.436 1.755-2.872 3.688-2.787 5.97a8.885 8.885 0 0 0 3.379 7.023c1.267.965 5.321 3.161 7.348 3.161a8.07 8.07 0 0 0 4.223-.966 5.82 5.82 0 0 0 2.281-2.287 3.052 3.052 0 0 0-.253-3.16c-.082-.084-.082-.084-.17-.084" fill="#FB7E51"/><path d="M136.388 333.588a.86.86 0 0 1-.676.438 5.959 5.959 0 0 1-2.365.615.976.976 0 0 1-.677-.322.974.974 0 0 1-.253-.705v-.027a.93.93 0 0 1 .422-.791 16.225 16.225 0 0 0 3.548-2.9c0-.087.084-.175.084-.263.591-1.053 1.1-2.194 1.6-3.248.343-.97.597-1.969.76-2.985a12.773 12.773 0 0 0-.76-2.369c-2.112-4.655-5.913-5.795-9.882-3.424a22.074 22.074 0 0 0-5.068 4.739c-1.436 1.757-2.872 3.688-2.787 5.971a8.885 8.885 0 0 0 3.379 7.022c1.267.966 5.068 2.986 7.348 3.161a8.058 8.058 0 0 0 4.223-.965 5.811 5.811 0 0 0 2.281-2.286 3.193 3.193 0 0 0 .084-2.635c-.4.351-.821.675-1.262.971" fill="#FF8F66"/><path d="m99.639 393.71.845 6.01h5.109v-2.547l-1.1-3.464-4.854.001Z" fill="#15191F"/><path d="M78.877 392.905H67.493c-.034.491-.051.759-.051.759l-7.442 2v4.01h10.815l3.885-2.953v2.953h5.448s.509-2.342 1.1-6.01c.035-.23.077-.474.118-.715-.83-.017-1.659-.025-2.489-.044ZM115.662 393.663l.108-.539c-.2.017-.407.031-.62.031-4.763 0-9.526-.007-14.289-.02-.214 4-.439 6.537-.439 6.537h5.109v-2.953l3.885 2.953h12.83v-4.009l-6.584-2Z" fill="#0A0A0A"/><path d="M67.444 393.664h13.89c2.284-15.766 10.407-31.063 16.247-45.434 0 0 4.44 24.156 2.081 45.434h16.082c2.281-35.791 9.4-34.528 12.155-60.816C127.899 322.075 67 330 67 330l2.896 41.049-2.452 22.615Z" fill="#312D2E"/><path d="M97.584 348.332c4.477 18.235 2.081 45.434 2.081 45.434h5.278c0-.1 1.168-33.519-7.359-45.434" fill="#262223"/><path d="M67.444 393.664c1.069-.6 5.513-18.647 4.62-29.772-1.008-12.561-1.51-28.949 2.627-34.407C73.164 328.751 67 329 67 329s-2.614 13.223 1.604 35.848c1.151 5.963-.088 20.159-1.16 28.816ZM99.664 393.664l.845 6.01h5.109v-2.95l-.676-3.056-5.278-.004Z" fill="#0A0A0A"/><path d="M104.73 283c-32.6 1.52-33.11 6.166-33.11 6.166-4.169 3.952-11.808 16.506-7.179 15.035 4.63-1.471 7.313-.458 7.629-.221 1.436 1.1 1.2 4.323.95 6.942a49.634 49.634 0 0 1-2.7 10.558c0 3.885-1.736 5.05-1.82 9.02l57.777 1.913s.421-19.68.591-26.269" fill="#F2EDDC"/><path d="M72.54 312.765c5.02-1.137 13.915-14.583.64-26.789-1.554-1.429 11.577-.361 17.32 3.524.507 1.437 14.635 14.093 14.635 14.093s5.452-9.715-.817-19.286c6.81-1.208 19.17.257 24.24 21.1.372 1.529-2.532 7.557-2.416 9.3 0 0 2.848 12.642 1.581 17.457a189.97 189.97 0 0 1-25.065 1.96c-17.231 0-36.658-2.028-36.658-2.028a52.688 52.688 0 0 1 6.54-19.331Z" fill="#EDD131"/><mask id="h" style="mask-type:alpha" maskUnits="userSpaceOnUse" x="66" y="284" width="63" height="51"><path d="M72.54 312.765c5.02-1.137 13.915-14.583.64-26.789-1.554-1.429 15.457 2.872 21.2 6.757.507 1.437 10.755 10.86 10.755 10.86s5.452-9.715-.817-19.286c6.81-1.208 19.17.257 24.24 21.1.372 1.529-2.532 7.557-2.416 9.3 0 0 2.848 12.642 1.581 17.457a189.97 189.97 0 0 1-25.065 1.96c-17.231 0-36.658-2.028-36.658-2.028a52.688 52.688 0 0 1 6.54-19.331Z" fill="#E800ED"/></mask><g mask="url(#h)"><path d="M102.559 328.592a257.196 257.196 0 0 1-35.485-2.513l.7-4.951c21.433 3.034 44.211 3.285 60.932.673l.772 4.939a177.888 177.888 0 0 1-26.919 1.852Z" fill="url(#i)"/><path d="M101.859 319.636A212.182 212.182 0 0 1 67 316.926l.856-4.926c20.772 3.607 47.9 3.249 60.206.653l1.033 4.892c-6.267 1.322-16.213 2.091-27.236 2.091Z" fill="url(#j)"/><path d="M105 303c2.716 12.544 0 31.774 0 31.774" stroke="#AD960C" stroke-miterlimit="10"/></g></g><mask id="k" style="mask-type:alpha" maskUnits="userSpaceOnUse" x="167" y="0" width="168" height="398"><path d="M167.483 397.242V0l167.482 290.645-167.482 106.597Z" fill="#E31FDC"/></mask><g mask="url(#k)"><path d="M201.692 312.178c-5.962-.275-11.1-3.119-16.051-6.237 2.752-11.282 14.308-20.179 24.581-18.8-.642 2.018-3.118 18.8-3.118 18.8s-5.504 1.651-5.412 6.237Z" fill="#F2EDDC"/><path d="M201.69 311.901c0 1.834.917 4.127 3.577 6.879.642.734 1.559 10.823.826 14.859-19.354-8.163-23.114-18.345-20.175-28.617a34.839 34.839 0 0 0 15.772 6.879Z" fill="url(#l)"/><path d="M196.187 327.402a44.314 44.314 0 0 1-5.687-5.32 27.49 27.49 0 0 1-5.5-11.832c.074-1.775.382-3.533.917-5.228a36.205 36.205 0 0 0 15.868 6.879c0 1.834.917 4.127 3.577 6.879.642.642 1.834 11.19 1.468 15.959-3.21-2.568-6.879-4.494-10.181-6.879l-.462-.458Z" fill="#FF8F66"/><path d="M197.929 335.475a10.769 10.769 0 0 1-1.009-11.648c2.293-4.953 6.512-6.145 10.915-3.577a22.54 22.54 0 0 1 5.6 5.045c1.559 1.834 3.21 3.944 3.118 6.329a9.163 9.163 0 0 1-3.761 7.429c-1.376 1.009-5.87 3.394-8.071 3.394a8.85 8.85 0 0 1-4.586-1.009 6.07 6.07 0 0 1-2.577-2.478 3.24 3.24 0 0 1 .275-3.394c.004-.091.004-.091.096-.091Z" fill="url(#m)"/><path d="M198.757 337.125a.934.934 0 0 0 .734.459 6.663 6.663 0 0 0 2.66.642 1.033 1.033 0 0 0 .737-.337 1.04 1.04 0 0 0 .272-.763.968.968 0 0 0-.459-.826 18.051 18.051 0 0 1-3.944-3.027c0-.092-.092-.183-.092-.275-.642-1.1-1.192-2.293-1.743-3.485-.367-1.009-.642-2.11-.917-3.118.183-.826-.459-1.865 0-2.691 2.293-4.953 4.928-7.457 9.331-4.889 2.109 1.376 6.537 4.553 8.1 6.571 1.559 1.834 3.21 3.944 3.118 6.329a9.164 9.164 0 0 1-3.761 7.429c-1.376 1.009-5.595 3.21-8.071 3.394a8.652 8.652 0 0 1-4.593-1.007 6.066 6.066 0 0 1-2.568-2.476 3.202 3.202 0 0 1-.092-2.752c.37.18.829.547 1.288.822Z" fill="#FF8F66"/><path d="M274.994 394.35s.409-52.965-4.321-66.057c-1.6-1.436-62.673 2.872-62.673 2.872l9.24 63.27h-6.673v5.068h15.088l3.886-2.534v2.534h7.192s-4.155-41.732 2.011-55.33c5.237 6 15.644 39.958 17.5 50.178.592 3.125 1.1 5.068 1.1 5.068h6.7v-2.45l3.971 2.449h14.079v-5.068h-7.1Z" fill="#262223"/><path d="M274.996 394.351h-18.917c-3.885-24.326-14.581-39.92-17.332-47.729-.061 2.229-.828 29.822-1.166 47.729h-20.426c-7.885-36.586-9.155-63.27-9.155-63.27l62.674-2.872 4.322 66.142Z" fill="#312D2E"/><path d="M238.828 346.707c-1.163 16.058-1.166 47.729-1.166 47.729h-7.361c-.081-.085-.172-37.678 8.527-47.729Z" fill="#262223"/><path d="m237.667 394.351-.845 5.068h-7.193v-2.112l1.1-2.956h6.938Z" fill="#15191F"/><path d="m274.996 394.35-12.851-66.057h8.532l4.319 66.057Z" fill="#262223"/><path d="m237.667 394.351-.845 5.068h-7.193v-2.112l1.1-2.956h6.938ZM274.996 394.351h7.1v5.072h-8.532v-5.068H275" fill="#0F0D0B"/><path d="M222.806 278.002c33.11 1.6 46.371 10.39 46.371 10.39a72.265 72.265 0 0 1 2.534 15.372 1.691 1.691 0 0 0-1.1.339c-1.52 1.1-1.689 2.956-1.436 5.658.51 3.672 2.7 18.751 2.787 22.721h-64.191l-.169-32.772s4.73-21.962 15.2-21.708" fill="#F2EDDC"/><path d="M269.893 313.859s-15.547-7.574-5.41-28.269c-7.99-5.992-28.769 14.403-34.468 18.824-5.289-6.064-7.037-15.037-9.875-22.457-9.376 4.053-14.021 4.223-14.107 28.886 0 0 .085 16.641 1.437 21.538a212.634 212.634 0 0 0 27.029 2.113c17.568 0 37.333-2.113 37.333-2.113l-1.939-18.522Z" fill="#EDD131"/><mask id="n" style="mask-type:alpha" maskUnits="userSpaceOnUse" x="206" y="282" width="66" height="53"><path d="M269.86 313.902s-15.547-7.574-5.41-28.269c-1.688-1.266-16.291 4.231-22.119 8.116-.507 1.521-12.349 10.708-12.349 10.708s-4.834-5.542-5.334-10.583L220.107 282c-9.376 4.053-14.021 4.223-14.107 28.886 0 0 .085 16.641 1.437 21.538a212.634 212.634 0 0 0 27.029 2.113c17.568 0 37.333-2.113 37.333-2.113l-1.939-18.522Z" fill="#8C17B6"/></mask><g mask="url(#n)"><path d="M233.263 329.527a186.384 186.384 0 0 1-28.3-2.015l.771-4.939c19.392 3.029 44.358 2.518 65.16-1.336l.91 4.916a216.443 216.443 0 0 1-38.541 3.374Z" fill="url(#o)"/><path d="M235.738 320.553c-12.3 0-23.634-.814-30.322-2.227l.403-5.081c12.638 2.669 44.777 3.259 64.954-.246l.855 4.926a222.158 222.158 0 0 1-35.89 2.628Z" fill="url(#p)"/><path d="M230.272 303c-2.166 12.542.511 31.659.511 31.659" stroke="#AD960C" stroke-miterlimit="10"/></g></g><path d="M47.724 300.334a13.308 13.308 0 0 0-2.618 7.179c.084 0 .084.085.169.085 2.534 2.027 5.575 3.716 8.869 3.885 2.219.183 4.447.239 6.672.169-.169-5.659 5.49-9.713 11.4-8.531.76-3.463 2.284-15.621 2.284-15.621s-18.837.081-26.776 12.834Z" fill="#F2EDDC"/><path d="M60.816 311.146a30.153 30.153 0 0 1-15.71-3.885c-.93 7.94 4.392 16.893 10.727 20.609 4.392 2.534 12.416-1.943 13.6-5.659-6.504-3.547-8.786-7.602-8.617-11.065Z" fill="url(#q)"/><path d="M65.884 319.845a12.608 12.608 0 0 0-7.771 3.97 9.794 9.794 0 0 0-2.281 3.97c-.17.676.253 3.8 3.8 5.49a4.24 4.24 0 0 0 1.267 4.561c4.9 4.561 13.6-.507 14.359-1.436 1.774-2.281 2.365-5.406 2.7-8.024.342-2.196-6.584-9.375-12.074-8.531Z" fill="url(#r)"/><path d="M64.027 334.796a14.627 14.627 0 0 0-2.281-2.281 4.053 4.053 0 0 0-1.6-.762 5.653 5.653 0 0 1-2.568-2.051c-.251-.154-.392-.264-.392-.312h.217a3.542 3.542 0 0 1-.247-2.463 5.506 5.506 0 0 1-.813-.492c-9.038-8.277-8.617-16.559-8.617-17.904a30.554 30.554 0 0 0 13.093 2.531c-.134 2.8 1.316 5.865 5.093 8.777 4.894-.74 10.957 4.654 12.054 8.451a11.761 11.761 0 0 1-4.9 4.645 18.217 18.217 0 0 1-7.41 2.021 8.038 8.038 0 0 1-1.63-.16ZM274.875 293.661a12.728 12.728 0 0 0-3.223 1.96 28.026 28.026 0 0 0-6.942 9.072c6.073 5.212 8.249 13.169 8.142 19.535a9.365 9.365 0 0 1-.808 4.394 13.188 13.188 0 0 1-2.929 2.9c-2.18 1.693-4.652 3.241-7.268 4.88-.532.333-1.059.669-1.589 1 4.627 2.443 8.667 6.5 12.289 9.973 1.937-1.242 3.883-2.546 5.767-4.009a25.776 25.776 0 0 0 6.669-7.164 23.699 23.699 0 0 0 2.867-11.728c.207-12.221-4.632-23.413-12.975-30.813Z" fill="#FF8F66"/><path d="M283.461 335.578c-1.9 3.231-4.538 4.991-6.648 6.629-1.966 1.527 2.374-3.111.354-1.821.536.356-5.329 6.756-4.775 7.1 1.987-1.271 3.987-2.607 5.921-4.109a25.746 25.746 0 0 0 6.669-7.164 23.678 23.678 0 0 0 2.867-11.728 45.612 45.612 0 0 0-1.4-11.707c-.05-.045-2.969 1.641-2.99 1.693 3.683 9.628 1.308 18.887.002 21.107Z" fill="url(#s)"/><path d="M270.793 333.083c3.008.447 4.92 1.072 6.907 3.374a11.296 11.296 0 0 1 2.259 4.032c.15.68-.539 3.51-4.033 5.469-6.966 3.9-13.422.522-14.241-.429-1.8-2.33-3.936-2.339-4.285-5.052-.2-2.2 7.842-8.387 13.393-7.394Z" fill="url(#t)"/><path d="M279.885 339.561c-.406-.6-1.543-2.655-1.951-3.173-1.988-2.3-6.092-6.207-8.82-4.862-2.76 1.359-5.516 2.022-9.1 4.641 1.12 2.051 1.052 5.978 3.1 7.1 4.254 2.057 7.849 3.528 9.887 3.161a13.286 13.286 0 0 0 6.884-6.867Z" fill="#FF8F66"/><path d="M261.603 338.073a16.113 16.113 0 0 0-8.105 9.138l8.105-9.138Z" fill="#FF8F66"/><path d="M261.603 338.073a16.113 16.113 0 0 0-8.105 9.138" stroke="#FF8F66" stroke-width="5" stroke-miterlimit="10" stroke-linecap="round"/><path d="M262.624 341.773a27.07 27.07 0 0 0-5.214 10.946l5.214-10.946Z" fill="#FF8F66"/><path d="M262.624 341.773a27.07 27.07 0 0 0-5.214 10.946" stroke="#FF8F66" stroke-width="5" stroke-miterlimit="10" stroke-linecap="round"/><path d="M268.185 342.523c-2.7 2.071-4.911 8-5.123 11.4l5.123-11.4Z" fill="#FF8F66"/><path d="M268.185 342.523c-2.7 2.071-4.911 8-5.123 11.4" stroke="#FF8F66" stroke-width="5" stroke-miterlimit="10" stroke-linecap="round"/><path d="M272.31 344.586c-1.979 1.6-3.138 5.731-3.408 8.3l3.408-8.3Z" fill="#FF8F66"/><path d="M272.31 344.586c-1.979 1.6-3.138 5.731-3.408 8.3" stroke="#FF8F66" stroke-width="5" stroke-miterlimit="10" stroke-linecap="round"/><path d="M260.981 340.72a14.671 14.671 0 0 0-5.908 7.259 2.792 2.792 0 0 1-2.073 1.675 2.459 2.459 0 0 0 1.764-.273c.532-.31.929-.808 1.112-1.396a18.05 18.05 0 0 1 5.105-7.265ZM259.197 353.292a2.928 2.928 0 0 1-2.287 1.872c.165.035.332.054.5.056a2.498 2.498 0 0 0 2.438-1.953 24.598 24.598 0 0 1 4.661-9.854c.037-.043.062-.091.095-.136-2.438 1.309-4.787 7.256-5.407 10.015ZM268.322 345.854a16.616 16.616 0 0 0-3.375 8.219 2.922 2.922 0 0 1-2.365 2.292c.107.024.214.042.323.053.053 0 .107.005.158.005a2.5 2.5 0 0 0 2.494-2.344 19.558 19.558 0 0 1 2.914-8.163c.037-.351-.192.283-.149-.062ZM270.822 352.633a2.5 2.5 0 0 1-2.747 2.225 2.462 2.462 0 0 1-1.128-.421 2.485 2.485 0 0 0 1.7.934 2.505 2.505 0 0 0 1.935-.63 2.5 2.5 0 0 0 .812-1.596c.286-2.721 1.305-5.931 2.5-6.617.843-.486.577-.175.61-.861-2.861 1.9-3.421 4.48-3.682 6.966Z" fill="#FB7E51"/><path d="M265.076 285.157c-2.409-.855-3.224 17.537.683 21.92 2.533 1.72 5.062 6.844 6.428 10.726.069-.037 10.2-2.132 14.216-5.132-2.113-11.289-10.214-24.688-21.327-27.514Z" fill="#F2EDDC"/><defs><linearGradient id="a" x1="-6.699" y1="96.133" x2="378.303" y2="345.807" gradientUnits="userSpaceOnUse"><stop stop-color="#E9DEFA"/><stop offset="1" stop-color="#FBFCDB"/></linearGradient><linearGradient id="b" x1="160.783" y1="96.133" x2="377.953" y2="420.894" gradientUnits="userSpaceOnUse"><stop stop-color="#E9DEFA"/><stop offset="1" stop-color="#FBFCDB"/></linearGradient><linearGradient id="c" x1="167.76" y1="578.708" x2="9.749" y2="282.963" gradientUnits="userSpaceOnUse"><stop stop-color="#E9DEFA"/><stop offset="1" stop-color="#FBFCDB"/></linearGradient><linearGradient id="d" x1="286.353" y1="588.818" x2="272.712" y2="305.577" gradientUnits="userSpaceOnUse"><stop stop-color="#E9DEFA"/><stop offset="1" stop-color="#FBFCDB"/></linearGradient><linearGradient id="f" x1="70.365" y1="260.48" x2="71.914" y2="311.77" gradientUnits="userSpaceOnUse"><stop stop-color="#4F00A3"/><stop offset="1" stop-color="#23004E"/></linearGradient><linearGradient id="g" x1="139.062" y1="303.3" x2="139.062" y2="330.253" gradientUnits="userSpaceOnUse"><stop stop-color="#FB7E51"/><stop offset="1" stop-color="#FF8F66"/></linearGradient><linearGradient id="i" x1="129.353" y1="326.364" x2="123.503" y2="299.537" gradientUnits="userSpaceOnUse"><stop stop-color="#E69C31"/><stop offset="1" stop-color="#E67731"/></linearGradient><linearGradient id="j" x1="129.902" y1="317.385" x2="123.49" y2="289.556" gradientUnits="userSpaceOnUse"><stop stop-color="#E69C31"/><stop offset="1" stop-color="#E67731"/></linearGradient><linearGradient id="l" x1="194.907" y1="310.517" x2="195.598" y2="328.648" gradientUnits="userSpaceOnUse"><stop stop-color="#FB7E51"/><stop offset="1" stop-color="#FF8F66"/></linearGradient><linearGradient id="m" x1="201.599" y1="337.378" x2="197.406" y2="327.932" gradientUnits="userSpaceOnUse"><stop stop-color="#FB7E51"/><stop offset="1" stop-color="#FF8F66"/></linearGradient><linearGradient id="o" x1="213.786" y1="325.914" x2="255.941" y2="288.774" gradientUnits="userSpaceOnUse"><stop stop-color="#E69C31"/><stop offset="1" stop-color="#E67731"/></linearGradient><linearGradient id="p" x1="213.693" y1="317.112" x2="249.63" y2="279.641" gradientUnits="userSpaceOnUse"><stop stop-color="#E69C31"/><stop offset="1" stop-color="#E67731"/></linearGradient><linearGradient id="q" x1="57.216" y1="307.261" x2="57.216" y2="328.611" gradientUnits="userSpaceOnUse"><stop stop-color="#FB7E51"/><stop offset="1" stop-color="#FF8F66"/></linearGradient><linearGradient id="r" x1="68.592" y1="340.43" x2="60.551" y2="327.762" gradientUnits="userSpaceOnUse"><stop stop-color="#FB7E51"/><stop offset="1" stop-color="#FF8F66"/></linearGradient><linearGradient id="s" x1="280.104" y1="312.777" x2="280.104" y2="347.486" gradientUnits="userSpaceOnUse"><stop stop-color="#FB7E51"/><stop offset="1" stop-color="#FF8F66"/></linearGradient><linearGradient id="t" x1="271.42" y1="350.936" x2="275.6" y2="338.499" gradientUnits="userSpaceOnUse"><stop stop-color="#FB7E51"/><stop offset="1" stop-color="#FF8F66"/></linearGradient></defs></svg>