<svg width="144" height="45" fill="none" xmlns="http://www.w3.org/2000/svg"><g filter="url(#a)"><g filter="url(#b)"><path d="M113.295 28.963c11.434-1.767 17.15-3.884 17.15-6.35 0-2.467-5.716-4.584-17.15-6.35-11.433-1.767-25.216-2.65-41.35-2.65-16.133 0-29.916.883-41.35 2.65-11.433 1.766-17.15 3.883-17.15 6.35 0 2.466 5.717 4.583 17.15 6.35 11.434 1.767 25.217 2.65 41.35 2.65 16.134 0 29.917-.883 41.35-2.65Z" fill="#E6E7EB"/></g></g><defs><filter id="a" x=".445" y=".613" width="143" height="44" filterUnits="userSpaceOnUse" color-interpolation-filters="sRGB"><feFlood flood-opacity="0" result="BackgroundImageFix"/><feBlend in="SourceGraphic" in2="BackgroundImageFix" result="shape"/><feGaussianBlur stdDeviation="6.5" result="effect1_foregroundBlur_5301_98790"/></filter><filter id="b" x="9.445" y="9.613" width="125" height="26" filterUnits="userSpaceOnUse" color-interpolation-filters="sRGB"><feFlood flood-opacity="0" result="BackgroundImageFix"/><feBlend in="SourceGraphic" in2="BackgroundImageFix" result="shape"/><feGaussianBlur stdDeviation="2" result="effect1_foregroundBlur_5301_98790"/></filter></defs></svg>