<svg width="138" height="160" fill="none" xmlns="http://www.w3.org/2000/svg"><path d="M136.84 79.314s-20.694-3.041-31.674-3.97c-10.474-.845-22.974-1.351-36.32-1.351S43 74.5 32.527 75.343c-10.98.846-31.505 5.153-31.505 5.153v4.983c0 4.73 30.323 9.038 67.826 9.038 37.501 0 67.993-3.885 67.993-8.615v-6.588Z" fill="url(#a)"/><path d="M25.817 129.976a14.533 14.533 0 0 1-13.1-14.62v-.253a14.75 14.75 0 0 1 11.207-14.038c4.465-25.676 23.532-49.056 46.4-49.056 23.156 0 42.411 23.973 46.558 50.021a14.703 14.703 0 0 1 5.341 22.463 14.696 14.696 0 0 1-7.197 4.922c-6.491 19.15-24.044 30.031-44.7 30.031-20.453.001-37.865-10.669-44.508-29.47Z" fill="url(#b)"/><path d="M111.009 114.766H55.801a14.51 14.51 0 0 0-10.273 4.255 14.522 14.522 0 0 0-4.255 10.273v21.454a49.971 49.971 0 0 0 28.971 8.7c20.272 0 38.155-11.368 44.912-29.95 0 0 1.29-8.387 0-14.732-.074.033-4.147 0-4.147 0Z" fill="#FF8F66"/><path d="M10.02 108.007V70.753l71.456 13.699V61.806l45.529-3.801-4.226 27.466c-.787 4.057-2.516 4.963-2.914 8.294-.52 4.352-.305 8.796-.305 9.91-.56-.348-2.605-1.53-2.731-1.582a4.472 4.472 0 0 1-.094-.865c-4.595 4.349-11.226 6.781-18.53 6.781H81.48V97.878a23.124 23.124 0 0 1-2.83 3.447 22.68 22.68 0 0 1-16.092 6.684h-22.4a14.798 14.798 0 0 0-12.489-7.352h-.312a14.488 14.488 0 0 0-7.4 2.027 14.834 14.834 0 0 0-5.257 5.323h-4.68Z" fill="url(#c)"/><path d="M75.816 146.283a8.864 8.864 0 0 0 8.194-5.475 8.87 8.87 0 0 0 .675-3.394H66.947a8.978 8.978 0 0 0 8.87 8.869Z" fill="#fff"/><path d="M23.533 117.046c-3.548-1.267-3.885-6.335-.338-7.771a6.62 6.62 0 0 1 5.237-.169c3.632 1.436 4.646 3.8 4.646 8.024a9.735 9.735 0 0 1-2.45 6.5v-.676c0-2.614-3.8-4.73-7.095-5.908Z" fill="#FF8F66"/><path d="M.927 85.082v-6.673c0-4.561 28.5-8.38 64.313-8.633h3.886c37.499 0 67.993 3.885 67.993 8.615v6.673a1.274 1.274 0 0 1-.253 1.1c-.084-.084-.253-.17-.338-.253-.929-.93-2.872-1.774-5.828-2.534a79.879 79.879 0 0 0-8.953-1.774 10.434 10.434 0 0 0-9.967 4.054 14.675 14.675 0 0 1-11.656 5.744H63.383a22.285 22.285 0 0 1-13.515-4.561l-5.236-3.97a12.02 12.02 0 0 0-7.349-2.45c-7.1.085-11.994.085-12.754.17a115.323 115.323 0 0 0-17.146 2.872 15.714 15.714 0 0 0-6.08 2.787c-.121-.17-.326-.345-.37-.549a1.535 1.535 0 0 1-.006-.618Z" fill="#FFF100"/><path d="M48.122 7.863A62.426 62.426 0 0 0 6.734 66.65v8.865c5.66-1.6 15.12-3.041 26.944-3.885-.084-1.69-.084-3.38-.084-5.152 0-23.224 5.574-44.087 14.528-58.615Z" fill="url(#d)"/><path d="M131.319 66.623a62.195 62.195 0 0 0-14.19-39.614c3.985 12.766 4.034 24.43 3.967 37.804 0 2.45.141 6.173.056 8.538 2.848.42 7.39 1.295 10.167 2.056v-8.784Z" fill="url(#e)"/><path d="M117.045 26.953a62.174 62.174 0 0 0-68.923-19.09c-8.953 14.529-14.528 35.392-14.528 58.535 0 1.689 0 3.463.084 5.152a486.339 486.339 0 0 1 31.505-1.267h3.8c21.876 0 41.388 1.35 53.8 3.379.084-2.365.169-4.814.169-7.18a127.807 127.807 0 0 0-5.907-39.53Z" fill="#FFF100"/><path d="M94.09 31.09 90.12 6.344a4.73 4.73 0 0 0-3.378-3.8 62.465 62.465 0 0 0-35.222 0 4.633 4.633 0 0 0-3.294 3.8l-3.97 24.748" fill="#FFF100"/><path d="m92.824 49.98-14.275 8.789v11.487L92.824 49.98Z" fill="#4B4D4D"/><path d="M78.549 70.252V58.769l-14.36-8.784 14.36 20.267ZM64.19 44.743l14.359-23.228V53.02l-14.36-8.277Z" fill="#0A0A0A"/><path d="M78.549 36.465v-14.95l14.359 23.228-14.36 8.278V36.465Z" fill="#4B4D4D"/><defs><linearGradient id="a" x1="68.931" y1="73.993" x2="68.931" y2="94.517" gradientUnits="userSpaceOnUse"><stop stop-color="#0A0A0A"/><stop offset="1"/></linearGradient><linearGradient id="b" x1="69.058" y1="108.413" x2="69.058" y2="159.446" gradientUnits="userSpaceOnUse"><stop stop-color="#FB7E51"/><stop offset="1" stop-color="#FF8F66"/></linearGradient><linearGradient id="c" x1="54.123" y1="109.717" x2="54.336" y2="72.207" gradientUnits="userSpaceOnUse"><stop stop-color="#4F00A3"/><stop offset="1" stop-color="#23004E"/></linearGradient><linearGradient id="d" x1="27.428" y1="7.863" x2="27.428" y2="75.515" gradientUnits="userSpaceOnUse"><stop stop-color="#FFF100"/><stop offset="1" stop-color="#F5D600"/></linearGradient><linearGradient id="e" x1="124.224" y1="27.009" x2="124.224" y2="75.407" gradientUnits="userSpaceOnUse"><stop stop-color="#FFF100"/><stop offset="1" stop-color="#F5D600"/></linearGradient></defs></svg>