<svg width="56" height="56" viewBox="0 0 56 56" fill="none" xmlns="http://www.w3.org/2000/svg">
<g clip-path="url(#clip0)">
<rect x="13.3333" y="26.6667" width="30.6667" height="29.3333" fill="url(#paint0_linear)"/>
<g style="mix-blend-mode:multiply">
<path d="M6.08358 28C5.66937 28 5.33232 27.6641 5.34564 27.2501C5.43594 24.4417 6.03286 21.6705 7.10973 19.0707C8.28234 16.2398 10.0011 13.6675 12.1678 11.5008C14.3345 9.33414 16.9067 7.61542 19.7376 6.44281C22.5686 5.2702 25.6027 4.66667 28.6669 4.66667C31.7311 4.66667 34.7653 5.2702 37.5962 6.44281C40.4271 7.61542 42.9994 9.33414 45.1661 11.5008C47.3328 13.6675 49.0515 16.2398 50.2241 19.0707C51.301 21.6705 51.8979 24.4417 51.9882 27.2501C52.0015 27.6641 51.6645 28 51.2502 28L28.6669 28L6.08358 28Z" fill="url(#paint1_linear)"/>
</g>
<path d="M14.6667 27.9998C14.6667 26.2489 15.0289 24.5151 15.7324 22.8974C16.436 21.2797 17.4672 19.8099 18.7673 18.5717C20.0673 17.3336 21.6106 16.3515 23.3092 15.6814C25.0077 15.0114 26.8282 14.6665 28.6668 14.6665C30.5053 14.6665 32.3258 15.0114 34.0243 15.6814C35.7229 16.3515 37.2662 17.3336 38.5662 18.5717C39.8663 19.8099 40.8975 21.2797 41.6011 22.8974C42.3046 24.5151 42.6667 26.2489 42.6667 27.9998L14.6667 27.9998Z" fill="#FFF100"/>
<path d="M14.6667 28.0001L15.7804 26.8864C15.9211 26.7458 16.1118 26.6667 16.3107 26.6667H41.0228C41.2217 26.6667 41.4124 26.7458 41.5531 26.8864L42.6667 28.0001L36.9954 46.587C36.7973 47.2361 35.9076 47.3093 35.6061 46.7013L34.1038 43.6715C33.8119 43.0828 32.9579 43.1274 32.7289 43.7433L29.3697 52.7764C29.1275 53.4279 28.206 53.4279 27.9638 52.7764L24.6046 43.7433C24.3756 43.1274 23.5215 43.0828 23.2297 43.6715L21.7274 46.7013C21.4259 47.3093 20.5362 47.2361 20.3381 46.587L14.6667 28.0001Z" fill="url(#paint2_linear)"/>
</g>
<defs>
<linearGradient id="paint0_linear" x1="13.3333" y1="26.6667" x2="12.6435" y2="55.5358" gradientUnits="userSpaceOnUse">
<stop stop-color="#EEE3FF"/>
<stop offset="1" stop-color="#FBFCDB"/>
<stop offset="1" stop-color="#FBFCDB"/>
</linearGradient>
<linearGradient id="paint1_linear" x1="25.1032" y1="16.5879" x2="38.8199" y2="0.828234" gradientUnits="userSpaceOnUse">
<stop stop-color="#4F00A3"/>
<stop offset="1" stop-color="#23004E"/>
</linearGradient>
<linearGradient id="paint2_linear" x1="18.5556" y1="29.5687" x2="15.9786" y2="44.9632" gradientUnits="userSpaceOnUse">
<stop stop-color="#FFF100"/>
<stop offset="1" stop-color="#EDCF00"/>
</linearGradient>
<clipPath id="clip0">
<rect width="56" height="56" fill="white"/>
</clipPath>
</defs>
</svg>
