<svg xmlns="http://www.w3.org/2000/svg" width="30" height="30" viewBox="0 0 30 30" fill="none">
  <path d="M15 6.00098C16.78 6.00098 18.5201 6.52882 20.0001 7.51775C21.4802 8.50668 22.6337 9.91229 23.3149 11.5568C23.9961 13.2014 24.1743 15.011 23.8271 16.7568C23.4798 18.5026 22.6226 20.1063 21.364 21.3649C20.1053 22.6236 18.5016 23.4808 16.7558 23.828C15.01 24.1753 13.2004 23.9971 11.5558 23.3159C9.91131 22.6347 8.50571 21.4811 7.51677 20.0011C6.52784 18.5211 6 16.781 6 15.001C6.00283 12.6149 6.95195 10.3274 8.63917 8.64014C10.3264 6.95293 12.6139 6.00381 15 6.00098Z" fill="#6C6F74" stroke="#6C6F74"/>
  <path d="M15.0117 0.649414V3.91162" stroke="#6C6F74" stroke-linecap="round"/>
  <path d="M15.0117 26.0898V29.3521" stroke="#6C6F74" stroke-linecap="round"/>
  <path d="M4.86426 4.85254L7.17099 7.15927" stroke="#6C6F74" stroke-linecap="round"/>
  <path d="M22.8535 22.8418L25.1602 25.1485" stroke="#6C6F74" stroke-linecap="round"/>
  <path d="M0.660156 15.001L3.92236 15.001" stroke="#6C6F74" stroke-linecap="round"/>
  <path d="M26.1016 15.001L29.3638 15.001" stroke="#6C6F74" stroke-linecap="round"/>
  <path d="M4.86328 25.1484L7.17001 22.8417" stroke="#6C6F74" stroke-linecap="round"/>
  <path d="M22.8535 7.16016L25.1602 4.85343" stroke="#6C6F74" stroke-linecap="round"/>
</svg>