<svg xmlns="http://www.w3.org/2000/svg" width="49.487" height="64" viewBox="0 0 49.487 64"><g opacity="0.5"><g transform="translate(0 0)"><g transform="translate(0 0)"><g transform="translate(0)"><g transform="translate(0 0)"><path d="M45.255,90.6c.841,1.958,1.683,3.867,2.475,5.825l2.821,6.608a1.753,1.753,0,0,1-.2,2.1,1.806,1.806,0,0,1-2.079.392l-5.494-1.909a.576.576,0,0,0-.841.343c-.841,1.811-1.683,3.622-2.574,5.434a1.6,1.6,0,0,1-1.732.93,1.553,1.553,0,0,1-1.386-1.028c-1.336-3.182-2.722-6.413-4.059-9.594-.049-.147-.148-.294-.247-.538-.445,1.077-.891,2.1-1.336,3.133-.99,2.3-1.98,4.65-2.92,6.951a1.7,1.7,0,0,1-3.168,0c-.841-1.811-1.732-3.622-2.574-5.434-.148-.343-.3-.392-.693-.245-1.93.685-3.861,1.322-5.841,1.958a1.583,1.583,0,0,1-1.782-.392,1.62,1.62,0,0,1-.3-1.86c1.584-3.72,3.168-7.441,4.752-11.21.1-.2.2-.343.3-.538a1.884,1.884,0,0,1,.643.441c-.792,1.86-1.584,3.769-2.326,5.629-.792,1.909-1.633,3.867-2.425,5.776a1.022,1.022,0,0,0,.1,1.224c.346.343.693.245,1.089.1,2.029-.685,4.059-1.371,6.088-2.1.495-.2.742-.1.99.441.891,1.958,1.831,3.867,2.772,5.825.2.392.445.685.891.685a.9.9,0,0,0,.841-.636c1.435-3.427,2.871-6.853,4.356-10.231a1.167,1.167,0,0,0-.148-1.371c-.148.1-.148.2-.2.343-1.435,3.378-2.871,6.706-4.306,10.084-.1.245-.148.538-.445.538-.346,0-.4-.343-.544-.538-.99-1.909-1.98-3.867-2.92-5.776-.148-.343-.346-.441-.693-.294-1.039.392-2.128.685-3.217,1.028l-3.267,1.028c-.2.049-.346.1-.495-.049s-.1-.294,0-.441a3.349,3.349,0,0,1,.148-.392c1.485-3.476,2.92-6.951,4.405-10.378a10.553,10.553,0,0,0,3.712.2,6.942,6.942,0,0,1,4.356,1.322,6.342,6.342,0,0,0,3.564,1.42c1.881,4.455,3.811,8.958,5.692,13.413.2.441.4.783.891.832.495,0,.742-.343.94-.783.891-1.86,1.732-3.671,2.623-5.531.4-.832.2-.93,1.336-.538,1.98.685,3.91,1.322,5.89,2.007.445.147.792.2,1.138-.2.346-.343.247-.734.049-1.126-1.732-4.063-3.415-8.077-5.148-12.14a1.311,1.311,0,0,1,.495-.734" transform="translate(-6.61 -46.333)" fill="#6e6f70" fill-rule="evenodd"/><g transform="translate(0 0)"><path d="M16.544,3.826H14.465A3.3,3.3,0,0,0,11.792,5.2a20.776,20.776,0,0,0-1.336,2.252,6.971,6.971,0,0,1-3.168,3.133c-.594.294-1.188.636-1.831.979a3.392,3.392,0,0,0-1.831,3.182v2.741a5.241,5.241,0,0,1-.792,2.839c-.4.685-.841,1.371-1.287,2.1a3.645,3.645,0,0,0,0,4.259,11.69,11.69,0,0,0,.643,1.028,7.375,7.375,0,0,1,1.435,5.042c-.049.587,0,1.175,0,1.713a3.241,3.241,0,0,0,1.534,2.937,10.926,10.926,0,0,0,1.287.734A8.191,8.191,0,0,1,10.8,42.4c.2.392.445.783.643,1.175a3.4,3.4,0,0,0,3.217,1.762h2.871a5.868,5.868,0,0,1,2.871.783c.693.392,1.386.832,2.128,1.273a3.685,3.685,0,0,0,4.158,0c.544-.343,1.089-.636,1.584-.93a6.52,6.52,0,0,1,3.91-1.126c.792.049,1.584,0,2.326,0a3.481,3.481,0,0,0,3.267-1.811c.346-.587.693-1.175.99-1.811a6.865,6.865,0,0,1,3.118-3.133c.643-.294,1.237-.685,1.881-1.028a3.33,3.33,0,0,0,1.782-2.594c.1-1.077.049-2.2.049-3.28A6.013,6.013,0,0,1,46.44,28.6c.445-.685.841-1.371,1.287-2.1a3.445,3.445,0,0,0,.049-3.867c-.346-.587-.693-1.175-1.039-1.713A6.174,6.174,0,0,1,45.6,16.994a19.387,19.387,0,0,0,0-2.4,3.222,3.222,0,0,0-1.485-2.888,20.044,20.044,0,0,0-2.227-1.273,6.812,6.812,0,0,1-3.019-2.986c-.346-.636-.693-1.273-1.089-1.909a3.279,3.279,0,0,0-2.623-1.713,12.653,12.653,0,0,0-1.386-.049,20.055,20.055,0,0,1-2.97-.049,6.46,6.46,0,0,1-3.118-1.42,4.564,4.564,0,0,0-5.989,0,6.94,6.94,0,0,1-5.148,1.517M12.188,45.778a1.178,1.178,0,0,0-.643-.441A34.151,34.151,0,0,1,9.02,41.323a5.539,5.539,0,0,0-2.178-1.811,14.928,14.928,0,0,1-2.425-1.42,4.21,4.21,0,0,1-1.732-3.28c0-.636-.049-1.322,0-1.958A6.822,6.822,0,0,0,1.4,28.2a14.7,14.7,0,0,1-.99-1.664,4.313,4.313,0,0,1,0-3.965,24.7,24.7,0,0,1,1.287-2.154,5.492,5.492,0,0,0,.99-3.476c-.049-.783,0-1.566,0-2.3a4.2,4.2,0,0,1,2.277-3.916c.594-.343,1.138-.685,1.782-.979a6.364,6.364,0,0,0,2.97-2.937A14.04,14.04,0,0,1,11.3,4.218,4.232,4.232,0,0,1,14.415,2.8c.643,0,1.287-.049,1.93,0A6.706,6.706,0,0,0,21.1,1.526,15.565,15.565,0,0,1,22.632.645a4.422,4.422,0,0,1,4.207,0c.643.392,1.336.783,1.98,1.224a6.13,6.13,0,0,0,3.564.979c.792-.049,1.584,0,2.326,0A4.35,4.35,0,0,1,38.669,5.1c.346.587.742,1.224,1.039,1.86A5.985,5.985,0,0,0,42.48,9.7a20.043,20.043,0,0,1,2.227,1.273,4.213,4.213,0,0,1,1.93,3.573c0,.587.049,1.175,0,1.762a6.735,6.735,0,0,0,1.336,4.7c.3.441.594.93.841,1.371a4.382,4.382,0,0,1-.148,4.65c-.445.783-.891,1.517-1.386,2.252a4.77,4.77,0,0,0-.643,2.448v2.692a4.155,4.155,0,0,1-2.227,3.916c-.643.392-1.287.734-1.93,1.077a5.2,5.2,0,0,0-2.524,2.4c-.445.832-.891,1.664-1.336,2.448a3.96,3.96,0,0,0-.594.685,2.044,2.044,0,0,0-.594.538,5.345,5.345,0,0,1-3.217.783c-.841-.049-1.633,0-2.475,0a3.765,3.765,0,0,0-1.633.343c-1.633.685-2.97,1.909-4.7,2.4a2.429,2.429,0,0,0-.841,0A7.128,7.128,0,0,1,21,47.589a6.942,6.942,0,0,0-4.356-1.322,11.852,11.852,0,0,1-3.712-.2,1.966,1.966,0,0,0-.742-.294" transform="translate(0.075 -0.112)" fill="#6e6f70" fill-rule="evenodd"/></g><path d="M32.644,30.9a.574.574,0,0,0,.594-.783c-.792-2.741-1.584-5.434-2.376-8.175-.1-.441-.445-.49-.841-.441-.3.049-.4.343-.445.636-.495,1.713-1.039,3.427-1.534,5.091-.3.93-.594,1.86-.841,2.79-.1.392-.049.734.445.832.4.1.643-.049.792-.49.1-.392.247-.783.346-1.175.049-.294.2-.392.495-.392h1.93c.3,0,.445.049.544.392a7.5,7.5,0,0,0,.346,1.126c.049.343.2.587.544.587m-14.3-4.7a2.305,2.305,0,0,0,.3,1.273l1.188,2.35a1.7,1.7,0,0,0,3.118,0c.4-.881.841-1.713,1.287-2.594a2.569,2.569,0,0,0,0-2.252c-.445-.93-.891-1.86-1.386-2.741a1.6,1.6,0,0,0-2.772-.1c-.594.979-1.039,2.056-1.534,3.084a1.749,1.749,0,0,0-.2.979m17.72-.2v4.112c0,.441.148.734.643.734.544,0,.643-.392.643-.832v-2.3c0-.343.1-.441.445-.441h2.574A1.808,1.808,0,0,0,42.2,25.511c0-.734.049-1.517,0-2.252A1.819,1.819,0,0,0,40.316,21.5H36.6c-.4,0-.544.1-.544.49V26m-26.58.049v4.014a1.341,1.341,0,0,0,.049.441.661.661,0,0,0,.693.441c.445-.049.544-.343.544-.685a19.387,19.387,0,0,0,0-2.4c0-.392.1-.538.495-.538.841.049,1.683,0,2.524,0a1.765,1.765,0,0,0,1.782-1.762,17.837,17.837,0,0,0,0-2.3A1.819,1.819,0,0,0,13.686,21.5H9.974c-.445,0-.495.147-.495.538.049,1.273,0,2.643,0,4.014m8.068-21a6.881,6.881,0,0,0,5.148-1.517,4.564,4.564,0,0,1,5.989,0A7.516,7.516,0,0,0,31.852,5a20.055,20.055,0,0,0,2.97.049,13.588,13.588,0,0,1,1.386.049,3.279,3.279,0,0,1,2.623,1.713c.4.636.742,1.273,1.089,1.909a6.812,6.812,0,0,0,3.019,2.986,20.042,20.042,0,0,1,2.227,1.273,3.277,3.277,0,0,1,1.485,2.888c0,.783.049,1.566,0,2.4a6.089,6.089,0,0,0,1.138,3.916c.346.538.693,1.126,1.039,1.713a3.536,3.536,0,0,1-.049,3.867c-.445.685-.841,1.371-1.287,2.1a5.571,5.571,0,0,0-.841,3.084,24.182,24.182,0,0,1-.049,3.28,3.3,3.3,0,0,1-1.782,2.594c-.594.343-1.237.734-1.881,1.028a6.643,6.643,0,0,0-3.118,3.133c-.3.587-.643,1.175-.99,1.811a3.519,3.519,0,0,1-3.267,1.811H33.238a6.2,6.2,0,0,0-3.91,1.126,16.728,16.728,0,0,1-1.584.93,3.774,3.774,0,0,1-4.158,0c-.693-.441-1.386-.832-2.128-1.273a5.868,5.868,0,0,0-2.871-.783H15.716A3.5,3.5,0,0,1,12.5,44.847a6.9,6.9,0,0,1-.643-1.175A8.191,8.191,0,0,0,7.5,39.413c-.445-.2-.841-.49-1.287-.734a3.241,3.241,0,0,1-1.534-2.937c0-.587-.049-1.175,0-1.713a7.375,7.375,0,0,0-1.435-5.042c-.247-.343-.4-.685-.643-1.028a3.645,3.645,0,0,1,0-4.259c.445-.685.841-1.371,1.287-2.1a5.241,5.241,0,0,0,.792-2.839V16.015a3.392,3.392,0,0,1,1.831-3.182c.594-.343,1.188-.685,1.831-.979a6.972,6.972,0,0,0,3.168-3.133,15,15,0,0,1,1.336-2.252A3.167,3.167,0,0,1,15.518,5.1a12.741,12.741,0,0,1,2.029-.049" transform="translate(-0.929 -1.314)" fill="#fefefe" fill-rule="evenodd"/><path d="M63.478,93c1.336,3.182,2.673,6.364,4.059,9.545.247.538.445,1.077.693,1.664.1.2.2.392.049.587-.2.2-.4.1-.594,0-2.128-.685-4.207-1.322-6.336-2.007-.4-.147-.594-.049-.792.343-.94,1.958-1.93,3.867-2.92,5.776-.1.2-.148.441-.495.441s-.346-.245-.445-.49c-1.683-4.014-3.366-7.979-5.1-11.993a1.5,1.5,0,0,1-.1-.392c1.732-.49,3.069-1.713,4.7-2.4a3.919,3.919,0,0,1,1.633-.343H60.31A4.915,4.915,0,0,0,63.478,93" transform="translate(-25.972 -47.558)" fill="#6e6f70" fill-rule="evenodd"/><path d="M18.437,44.237v1.371c0,.245.049.392.346.392h2.574a.686.686,0,0,0,.742-.685c0-.685.049-1.322,0-2.007a.673.673,0,0,0-.742-.734H18.883c-.346,0-.445.147-.445.441a10.086,10.086,0,0,1,0,1.224M17.2,45.9V41.838c0-.392.1-.538.495-.538,1.237.049,2.475,0,3.712,0a1.819,1.819,0,0,1,1.881,1.762,17.838,17.838,0,0,1,0,2.3,1.831,1.831,0,0,1-1.782,1.762c-.841,0-1.683.049-2.524,0-.445,0-.544.147-.495.538.049.783,0,1.566,0,2.4a.611.611,0,0,1-.544.685.642.642,0,0,1-.693-.441,1.341,1.341,0,0,1-.049-.441V45.9" transform="translate(-8.649 -21.166)" fill="#6e6f70" fill-rule="evenodd"/><path d="M72.137,44.237v1.371c0,.294.1.392.4.392h2.524a.653.653,0,0,0,.742-.734c0-.685.049-1.322,0-2.007a.656.656,0,0,0-.792-.685H72.632c-.346,0-.495.1-.495.49v1.175M70.9,45.852V41.79c0-.441.148-.49.544-.49h3.712a1.819,1.819,0,0,1,1.881,1.762c.049.734,0,1.517,0,2.252a1.776,1.776,0,0,1-1.831,1.762H72.632c-.346,0-.445.1-.445.441v2.3c0,.392-.1.832-.643.832-.495,0-.643-.294-.643-.734V45.852" transform="translate(-35.77 -21.166)" fill="#6e6f70" fill-rule="evenodd"/><path d="M39.932,46.021c-.049-.2-.049-.343-.1-.538-.445-.93-.891-1.811-1.336-2.692-.2-.392-.544-.392-.742,0-.445.881-.891,1.762-1.287,2.643a1.659,1.659,0,0,0,.049,1.371l1.188,2.35c.1.2.2.392.445.343.2,0,.3-.2.4-.343.4-.832.841-1.615,1.237-2.448a1.711,1.711,0,0,0,.148-.685m-4.851,0a1.493,1.493,0,0,1,.148-.93c.495-1.028.99-2.1,1.534-3.084a1.594,1.594,0,0,1,2.772.1c.495.93.94,1.811,1.386,2.741a2.569,2.569,0,0,1,0,2.252c-.4.881-.841,1.713-1.287,2.594a1.566,1.566,0,0,1-1.584,1.028,1.738,1.738,0,0,1-1.534-1.028l-1.188-2.35a3.132,3.132,0,0,1-.247-1.322" transform="translate(-17.671 -21.139)" fill="#6e6f70" fill-rule="evenodd"/><path d="M56.032,44.4h-.148c-.148.538-.346,1.126-.495,1.664-.1.441-.594,1.077-.247,1.371.3.245.99.049,1.534.1.247,0,.247-.049.2-.294-.3-.979-.544-1.909-.841-2.839m2.326,6.364c-.346,0-.495-.245-.594-.538-.1-.392-.247-.734-.346-1.126-.049-.343-.247-.392-.544-.392h-1.93c-.3,0-.445.1-.495.343-.1.392-.247.783-.346,1.175a.585.585,0,0,1-.792.49.61.61,0,0,1-.445-.832c.247-.93.544-1.86.841-2.79C54.2,45.378,54.745,43.665,55.24,42c.1-.245.148-.538.445-.636a.634.634,0,0,1,.841.441c.792,2.741,1.584,5.434,2.376,8.175a.535.535,0,0,1-.544.783" transform="translate(-26.643 -21.181)" fill="#6e6f70" fill-rule="evenodd"/><path d="M19.7,45.564V44.341c0-.343.1-.441.445-.441H22.62a.673.673,0,0,1,.742.734c.049.685,0,1.322,0,2.007,0,.441-.247.685-.742.685H20.046c-.3,0-.346-.147-.346-.392V45.564" transform="translate(-9.912 -22.493)" fill="#fefefe" fill-rule="evenodd"/><path d="M73.4,45.513V44.29c0-.343.1-.49.495-.49h2.376a.7.7,0,0,1,.792.685c.049.685,0,1.322,0,2.007a.673.673,0,0,1-.742.734H73.8c-.3,0-.4-.1-.4-.392V45.513" transform="translate(-37.032 -22.442)" fill="#fefefe" fill-rule="evenodd"/><path d="M41.164,47.324a1.115,1.115,0,0,1-.2.685c-.4.832-.841,1.615-1.237,2.448-.1.147-.2.343-.4.343-.247,0-.346-.2-.445-.343L37.7,48.108a1.486,1.486,0,0,1-.049-1.371c.4-.881.841-1.762,1.287-2.643.2-.392.544-.392.742,0,.495.881.891,1.811,1.336,2.692a1.72,1.72,0,0,1,.148.538" transform="translate(-18.903 -22.442)" fill="none" fill-rule="evenodd"/><path d="M58.288,47.6c.3.93.544,1.86.841,2.839.049.2,0,.294-.2.294-.544,0-1.237.2-1.534-.1s.148-.881.247-1.371c.148-.587.346-1.126.495-1.664h.148" transform="translate(-28.899 -24.382)" fill="#fefefe" fill-rule="evenodd"/></g></g></g></g></g></svg>