<svg xmlns="http://www.w3.org/2000/svg" width="76" height="19.4" viewBox="0 0 76 19.4"><g transform="translate(0)" opacity="0.5"><path d="M69.778,19.474H66.561a1.122,1.122,0,0,1-1.109-1.128h0V9.774l-5.658,3.609a1.532,1.532,0,0,1-1.553,0l-5.6-3.609V18.4a1.122,1.122,0,0,1-1.109,1.128H48.309A1.122,1.122,0,0,1,47.2,18.4h0V1.766A1.444,1.444,0,0,1,48.642.3a1.633,1.633,0,0,1,.832.282l8.931,6.2a.985.985,0,0,0,1.22,0l8.931-6.2A1.492,1.492,0,0,1,70.61.977a1.536,1.536,0,0,1,.277.846V18.4a1.151,1.151,0,0,1-1.109,1.072h0" transform="translate(-21.016 -0.131)" fill="#6e6f70"/><path d="M21.358,19.231H1.442A1.481,1.481,0,0,1,0,17.765H0V1.128A1.122,1.122,0,0,1,1.109,0H4.327A1.122,1.122,0,0,1,5.436,1.128h0V13.76H17.474V1.128A1.122,1.122,0,0,1,18.584,0H21.8a1.122,1.122,0,0,1,1.109,1.128h0V17.765a1.623,1.623,0,0,1-1.553,1.466h0" transform="translate(0)" fill="#6e6f70"/><path d="M97.253,0h19.915a1.481,1.481,0,0,1,1.442,1.466h0V18.1a1.122,1.122,0,0,1-1.109,1.128h-3.218a1.122,1.122,0,0,1-1.109-1.128h0V6.2a.74.74,0,0,0-.721-.733h-10.6a.741.741,0,0,0-.721.733V18.1a1.122,1.122,0,0,1-1.109,1.128H96.809A1.122,1.122,0,0,1,95.7,18.1h0V1.466A1.623,1.623,0,0,1,97.253,0h0" transform="translate(-42.611)" fill="#6e6f70"/><path d="M111.6,17.072v3.271a1.075,1.075,0,0,0,1.109,1.072h3.218a1.111,1.111,0,0,0,1.109-1.072h0V17.072A1.075,1.075,0,0,0,115.927,16h-3.218a1.075,1.075,0,0,0-1.109,1.072h0" transform="translate(-49.691 -6.977)" fill="#6e6f70"/></g></svg>