<svg xmlns="http://www.w3.org/2000/svg" width="79.71" height="24.216" viewBox="0 0 79.71 24.216"><defs><style>.a{opacity:0.5;}.b{fill:#6e6f70;fill-rule:evenodd;}</style></defs><g class="a"><path class="b" d="M114.012,49.178c.644-1.756,3.338-2.59,4.96-2.59h.738v3.9a8.439,8.439,0,0,0-2.759.255,3.406,3.406,0,0,0-1.581,1.07,3.869,3.869,0,0,0-.752,2.606c-.056.93-.031,1.565-.031,2.5v6.913h-4.26V46.763h3.692ZM62.218,59.784c-3.051,2.987-5.684,4.431-10.018,4.431-7.217,0-12.2-5.041-12.2-12.14C40,44.785,45.651,40,52.269,40a13.267,13.267,0,0,1,10.05,4.624l-3.087,2.955a9.436,9.436,0,0,0-7.064-3.372A7.76,7.76,0,0,0,44.3,52.075a7.628,7.628,0,0,0,7.962,7.933c2.856,0,4.783-1.155,6.966-3.339Zm18.278.637c-1.83,2.6-4.242,3.765-7.834,3.765a8.632,8.632,0,0,1-8.924-8.992A8.716,8.716,0,0,1,72.6,46.233c5.393,0,9.052,3.855,9.052,9.251,0,.386-.031.578-.031.964H67.879A4.562,4.562,0,0,0,72.662,60.4a5.515,5.515,0,0,0,4.238-1.67ZM77.35,53.066a4.959,4.959,0,0,0-9.281,0Zm6.466-12.974h4.269V63.737H83.815Zm23.191,20.329c-1.83,2.6-4.238,3.765-7.834,3.765a8.632,8.632,0,0,1-8.924-8.992,8.716,8.716,0,0,1,8.861-8.962c5.393,0,9.054,3.855,9.054,9.251,0,.386-.033.578-.033.964H94.389A4.562,4.562,0,0,0,99.172,60.4a5.512,5.512,0,0,0,4.238-1.67Zm-3.147-7.355a4.959,4.959,0,0,0-9.281,0Z" transform="translate(-40 -40)"/></g></svg>