<svg xmlns="http://www.w3.org/2000/svg" width="136.226" height="41.874" viewBox="0 0 136.226 41.874"><g opacity="0.5"><g transform="translate(52.73 15)"><path d="M8.286,101.884,12.811,93h3.761v.34h-.446a4.691,4.691,0,0,0-1.211.113.7.7,0,0,0-.382.509,9.847,9.847,0,0,0-.064,1.7v5.263a9.434,9.434,0,0,0,.064,1.641.808.808,0,0,0,.382.566,2.559,2.559,0,0,0,1.147.17h.51v.34H10.644v-.34h.446a2.418,2.418,0,0,0,1.084-.17.808.808,0,0,0,.382-.566,9.847,9.847,0,0,0,.064-1.7V94.132l-4.908,9.62H7.266l-4.844-9.62v6.281a11.5,11.5,0,0,0,.064,1.754,1.479,1.479,0,0,0,.574.849,2.278,2.278,0,0,0,1.338.4v.34H0v-.34a2.219,2.219,0,0,0,1.275-.4,1.324,1.324,0,0,0,.574-.849,10.6,10.6,0,0,0,.127-1.811v-4.7a9.434,9.434,0,0,0-.064-1.641.828.828,0,0,0-.382-.509,2.706,2.706,0,0,0-1.211-.17H0V93H3.761l4.525,8.884" transform="translate(0 -93)" fill="#6e6f70"/><path d="M42.752,100.413H43.2l-.255,3.339H33v-.34h.255a1.853,1.853,0,0,0,1.147-.226,1.038,1.038,0,0,0,.319-.566,9.847,9.847,0,0,0,.064-1.7V95.66a10.214,10.214,0,0,0-.064-1.641,1.021,1.021,0,0,0-.319-.566,2.559,2.559,0,0,0-1.147-.17V93h8.6l.255,2.66h-.446a4.075,4.075,0,0,0-.7-1.584,1.722,1.722,0,0,0-.956-.622,12.513,12.513,0,0,0-1.848-.113H36.506v4.527H37.78a5.1,5.1,0,0,0,1.211-.113.722.722,0,0,0,.446-.4,3.608,3.608,0,0,0,.127-1.075h.446V99.96h-.446a2.312,2.312,0,0,0-.191-1.188.694.694,0,0,0-.51-.4,4.241,4.241,0,0,0-1.084-.113H36.442v2.546a4.984,4.984,0,0,0,.255,2.263c.191.226.7.34,1.466.34h.892a3.876,3.876,0,0,0,1.53-.226,3.222,3.222,0,0,0,1.147-.905,3.485,3.485,0,0,0,1.02-1.867" transform="translate(-11.967 -93)" fill="#6e6f70"/><path d="M67.835,100.583l-.064,3.169H57v-.34h.382a2.963,2.963,0,0,0,1.147-.17.808.808,0,0,0,.382-.566,9.847,9.847,0,0,0,.064-1.7V95.716a9.434,9.434,0,0,0-.064-1.641.827.827,0,0,0-.382-.509,2.86,2.86,0,0,0-1.275-.17H57V93h6.055v.34h-.574a4.691,4.691,0,0,0-1.211.113.7.7,0,0,0-.382.509,7.728,7.728,0,0,0-.127,1.7v5.6a7.546,7.546,0,0,0,.064,1.471.9.9,0,0,0,.382.453,3.605,3.605,0,0,0,1.4.17h.956a6.5,6.5,0,0,0,1.721-.17,2.6,2.6,0,0,0,1.084-.736,7,7,0,0,0,.956-1.867h.51" transform="translate(-20.67 -93)" fill="#6e6f70"/><path d="M83.1,98.659a5.637,5.637,0,0,0,1.211,3.961,5.2,5.2,0,0,0,6.884,0,5.637,5.637,0,0,0,1.211-3.961,5.577,5.577,0,0,0-1.211-3.9A4.253,4.253,0,0,0,87.756,93.4a4.36,4.36,0,0,0-3.378,1.3A5.366,5.366,0,0,0,83.1,98.659ZM81,98.6a4.951,4.951,0,0,1,1.912-4.074,8.242,8.242,0,0,1,9.561,0,4.985,4.985,0,0,1,1.912,4.131,5.275,5.275,0,0,1-1.848,4.131,7.382,7.382,0,0,1-4.844,1.584,6.919,6.919,0,0,1-4.78-1.584A5.247,5.247,0,0,1,81,98.6Z" transform="translate(-29.373 -93)" fill="#6e6f70"/><path d="M121.09,104.317l-8.668-10.355v7.7a4.453,4.453,0,0,0,.127,1.245c.064.226.255.4.574.566a3.359,3.359,0,0,0,1.466.226v.4H110v-.4a3.789,3.789,0,0,0,1.338-.283,1.152,1.152,0,0,0,.574-.509,5.869,5.869,0,0,0,.064-1.3V95.773a8.588,8.588,0,0,0-.127-1.7.88.88,0,0,0-.446-.566,5.341,5.341,0,0,0-1.275-.113V93h3.633l7.266,8.658V95.037a1.848,1.848,0,0,0-.191-1.019,1.252,1.252,0,0,0-.7-.453,3.848,3.848,0,0,0-1.211-.17V93h4.462v.4a3.042,3.042,0,0,0-1.211.283.948.948,0,0,0-.574.509,3.447,3.447,0,0,0-.127,1.019v9.111h-.382" transform="translate(-39.889 -93)" fill="#6e6f70"/></g><path d="M70.029,22.674A18.515,18.515,0,1,1,51.514,4,18.613,18.613,0,0,1,70.029,22.674" transform="translate(-30.756 -1.737)" fill="#6e6f70"/><path d="M64.214,37.751V26.49a4.839,4.839,0,0,1,.224-1.867.925.925,0,0,0-.673.283,1.035,1.035,0,0,0-.224.622,7.717,7.717,0,0,0-.056,1.3v11.2a2.458,2.458,0,0,1-.168,1.132,1.836,1.836,0,0,1-.673.622h.393c.5,0,.842-.17.954-.453A3.771,3.771,0,0,0,64.214,37.751ZM50.188,24.622h-.449a2.711,2.711,0,0,1,1.122.792,6.122,6.122,0,0,1,.842,1.528l5.274,12.845A1.557,1.557,0,0,0,57.2,39a2.327,2.327,0,0,0-.224-.905L52.432,26.829a4.839,4.839,0,0,0-.9-1.641A1.52,1.52,0,0,0,50.188,24.622Zm-.9,15.165H51.7a1.789,1.789,0,0,1-.673-.622,4.4,4.4,0,0,1-.393-.905,2.134,2.134,0,0,1-.5.849A2.752,2.752,0,0,1,49.29,39.788Zm8.977-3.339L63.26,24H68.2v.622a3.641,3.641,0,0,0-1.627.283,1.028,1.028,0,0,0-.561.849,18.5,18.5,0,0,0-.056,2.037V37.864a2.358,2.358,0,0,0,.224,1.188,1.023,1.023,0,0,0,.617.566,5.988,5.988,0,0,0,1.4.226v.566h-7.35v-.622a3.534,3.534,0,0,0,1.571-.283.936.936,0,0,0,.561-.736,8.117,8.117,0,0,0,.112-1.471v-11.2L57.425,40.41h-.673l-5.61-13.864v9.507a4.392,4.392,0,0,0,.617,2.49,2.818,2.818,0,0,0,1.964,1.188v.679H48v-.622a2.839,2.839,0,0,0,1.908-.962,3.736,3.736,0,0,0,.673-2.377V25.641a3.13,3.13,0,0,0-1.122-.792,3.844,3.844,0,0,0-1.4-.226V24h5.218Z" transform="translate(-37.34 -10.419)" fill="#fffef4"/><path d="M49.758.849A20.089,20.089,0,1,0,69.675,20.937,20.008,20.008,0,0,0,49.758.849Zm0,41.026A20.938,20.938,0,1,1,70.517,20.937,20.873,20.873,0,0,1,49.758,41.874Z" transform="translate(-29)" fill="#6e6f70"/></g></svg>