<svg xmlns="http://www.w3.org/2000/svg" width="150.158" height="22.127" viewBox="0 0 150.158 22.127"><g transform="translate(-92.6 -289.887)" opacity="0.5"><path d="M93.266,309h3.292a.67.67,0,0,1,.666.666v16.045a.67.67,0,0,1-.666.666H93.266a.67.67,0,0,1-.666-.666V309.653A.66.66,0,0,1,93.266,309Z" transform="translate(0 -16.711)" fill="#6e6f70"/><path d="M164.493,317.934a.67.67,0,0,1-.666.666.643.643,0,0,1-.515-.251l-7.287-9.185h0a.642.642,0,0,0-.515-.251h-3.644a.67.67,0,0,0-.666.666h0v16.045a.67.67,0,0,0,.666.666h3.254a.67.67,0,0,0,.666-.666h0v-8.418a.67.67,0,0,1,.666-.666.643.643,0,0,1,.515.251l7.262,9.235h0a.642.642,0,0,0,.515.251h3.681a.67.67,0,0,0,.666-.666h0V309.566a.67.67,0,0,0-.666-.666h-3.292a.67.67,0,0,0-.666.666h0Z" transform="translate(-51.237 -16.624)" fill="#6e6f70"/><path d="M321.484,316.753h0a3.606,3.606,0,0,0-.729-.9,7.417,7.417,0,0,0-.779-.628,6.426,6.426,0,0,0-.993-.553c-.364-.163-.691-.3-.967-.4s-.653-.226-1.093-.339-.779-.214-1.043-.276-.616-.151-1.043-.239c-.465-.1-.792-.176-1.018-.226-.2-.05-.5-.126-.867-.226a7.763,7.763,0,0,1-.766-.239c-.176-.075-.377-.163-.616-.289a1,1,0,0,1-.339-.226,1.489,1.489,0,0,1-.2-.289.413.413,0,0,1-.05-.214,1.056,1.056,0,0,1,.616-1.018,4.407,4.407,0,0,1,2.161-.465,4.7,4.7,0,0,1,2.312.515,2.02,2.02,0,0,1,1.03,1.357l.025.126a.677.677,0,0,0,.779.49l3.443-.7a.667.667,0,0,0,.515-.779.046.046,0,0,0-.013-.038l-.038-.138a5.3,5.3,0,0,0-1.168-2.174,6.028,6.028,0,0,0-2-1.457,10.587,10.587,0,0,0-2.387-.766,13.6,13.6,0,0,0-2.676-.251,9.652,9.652,0,0,0-5.239,1.332,4.545,4.545,0,0,0-2.274,4.033,4.212,4.212,0,0,0,.239,1.42,4.638,4.638,0,0,0,.578,1.106,3.949,3.949,0,0,0,.98.9,8.578,8.578,0,0,0,1.03.616,7.654,7.654,0,0,0,1.256.49q.735.245,1.244.377c.327.088.766.2,1.294.327l.063.013a.407.407,0,0,1,.113.025l.025.013c.653.151,1.156.276,1.47.352s.691.2,1.181.364a4.025,4.025,0,0,1,.917.415,1.868,1.868,0,0,1,.465.477.726.726,0,0,1,.151.452,1.084,1.084,0,0,1-.616,1.068,4.543,4.543,0,0,1-2.211.477,5.228,5.228,0,0,1-2.714-.641,2.216,2.216,0,0,1-1.143-1.583l-.025-.126a.656.656,0,0,0-.766-.528l-3.644.691a.662.662,0,0,0-.528.779v.025l.025.138a5.669,5.669,0,0,0,2.99,3.807,11.712,11.712,0,0,0,5.679,1.269A13.888,13.888,0,0,0,317,324.2a9.588,9.588,0,0,0,2.475-.9,5.1,5.1,0,0,0,1.872-1.746,4.679,4.679,0,0,0,.7-2.551,4.031,4.031,0,0,0-.176-1.219A3.824,3.824,0,0,0,321.484,316.753Z" transform="translate(-186.078 -14.438)" fill="#6e6f70"/><path d="M458.232,309H445.266a.67.67,0,0,0-.666.666h0v2.4a.67.67,0,0,0,.666.666H448.8a.67.67,0,0,1,.666.666h0v12.313a.67.67,0,0,0,.666.666H453.4a.67.67,0,0,0,.666-.666h0V313.385a.67.67,0,0,1,.666-.666h3.518a.67.67,0,0,0,.666-.666h0v-2.4a.687.687,0,0,0-.679-.653Z" transform="translate(-307.774 -16.711)" fill="#6e6f70"/><path d="M544.816,309.389l-7.224,16.057a.668.668,0,0,0,.327.88.685.685,0,0,0,.276.063h3.392a.64.64,0,0,0,.6-.4l1.194-2.764a.66.66,0,0,1,.6-.4h6.835a.641.641,0,0,1,.6.4L552.631,326a.66.66,0,0,0,.6.4h3.38a.67.67,0,0,0,.666-.666.736.736,0,0,0-.063-.276l-7.187-16.07a.662.662,0,0,0-.6-.389h-4A.68.68,0,0,0,544.816,309.389Zm3.882,9.788h-2.538a.67.67,0,0,1-.666-.666.656.656,0,0,1,.05-.264l1.269-2.94a.653.653,0,0,1,.867-.339.64.64,0,0,1,.339.339l1.269,2.94a.655.655,0,0,1-.339.867.5.5,0,0,1-.251.063Z" transform="translate(-389.03 -16.711)" fill="#6e6f70"/><path d="M870.916,309.389l-7.224,16.057a.668.668,0,0,0,.327.88.685.685,0,0,0,.276.063h3.392a.641.641,0,0,0,.6-.4l1.194-2.764a.66.66,0,0,1,.6-.4h6.835a.64.64,0,0,1,.6.4L878.731,326a.66.66,0,0,0,.6.4h3.38a.67.67,0,0,0,.666-.666.736.736,0,0,0-.063-.276l-7.2-16.07a.661.661,0,0,0-.6-.389h-4A.648.648,0,0,0,870.916,309.389Zm3.882,9.788H872.26a.67.67,0,0,1-.666-.666.656.656,0,0,1,.05-.264l1.269-2.94a.653.653,0,0,1,.867-.339.64.64,0,0,1,.339.339l1.269,2.94a.655.655,0,0,1-.339.867.572.572,0,0,1-.251.063Z" transform="translate(-674.158 -16.711)" fill="#6e6f70"/><path d="M1045.849,309.651h0a7.933,7.933,0,0,0-3.48-.754h-7.8a.67.67,0,0,0-.666.666h0V325.62a.67.67,0,0,0,.666.666h3.292a.67.67,0,0,0,.666-.666v-4.661a.67.67,0,0,1,.666-.666h3.191a7.143,7.143,0,0,0,4.812-1.583,5.159,5.159,0,0,0,1.885-4.1,5.272,5.272,0,0,0-.829-2.9A5.948,5.948,0,0,0,1045.849,309.651Zm-1.319,4.938a1.838,1.838,0,0,1-.641,1.508,3.1,3.1,0,0,1-2.061.578h-2.664a.67.67,0,0,1-.666-.666h0v-2.852a.67.67,0,0,1,.666-.666h2.664a3.02,3.02,0,0,1,2.048.6A1.835,1.835,0,0,1,1044.529,314.589Z" transform="translate(-823.032 -16.621)" fill="#6e6f70"/><path d="M1181.236,311.724a5.783,5.783,0,0,0-2.387-2.073,7.933,7.933,0,0,0-3.48-.754h-7.8a.67.67,0,0,0-.666.666V325.62a.67.67,0,0,0,.666.666h3.292a.67.67,0,0,0,.666-.666h0v-4.661a.67.67,0,0,1,.666-.666h3.191a7.12,7.12,0,0,0,4.812-1.583,5.159,5.159,0,0,0,1.885-4.1A5.379,5.379,0,0,0,1181.236,311.724Zm-3.694,2.865a1.838,1.838,0,0,1-.641,1.508,3.1,3.1,0,0,1-2.061.578h-2.651a.67.67,0,0,1-.666-.666h0v-2.852a.67.67,0,0,1,.666-.666h2.664a3.021,3.021,0,0,1,2.048.6,1.863,1.863,0,0,1,.641,1.5Z" transform="translate(-939.322 -16.621)" fill="#6e6f70"/><path d="M691,306.652a11.076,11.076,0,0,0,6.722,10.19.66.66,0,0,0,.867-.352.562.562,0,0,0,.05-.251V297.066a.664.664,0,0,0-.917-.616A11.107,11.107,0,0,0,691,306.652Z" transform="translate(-523.215 -5.694)" fill="#6e6f70"/><path d="M779.113,290.555v4.222a.646.646,0,0,0,.591.653,5.554,5.554,0,0,1,0,11.044.655.655,0,0,0-.591.653v4.222a.66.66,0,0,0,.653.666h.038a11.085,11.085,0,0,0,0-22.126.661.661,0,0,0-.7.616A.1.1,0,0,1,779.113,290.555Z" transform="translate(-600.246)" fill="#6e6f70"/></g></svg>