<svg xmlns="http://www.w3.org/2000/svg" width="154.387" height="38" viewBox="0 0 154.387 38"><g transform="translate(0 0)"><g transform="translate(0 0)" opacity="0.5"><g transform="translate(0 0)"><circle cx="18.345" cy="18.345" r="18.345" transform="translate(0)" fill="#6e6f70"/><g transform="translate(6.183 7.384)"><path d="M53.556,67.364a2.648,2.648,0,0,1-3.749.031l-.031-.031-2.412-2.428a1.651,1.651,0,0,0-2.336-.015l-.015.015a2.727,2.727,0,0,0,0,3.826l4.763,4.809a2.648,2.648,0,0,0,3.749.031l.031-.031L58.3,68.762a2.727,2.727,0,0,0,0-3.826,1.651,1.651,0,0,0-2.336-.015l-.015.015-2.4,2.428ZM44.521,58.9a2.551,2.551,0,0,1,3.611-.061l.031.031,2.289,2.32a1.6,1.6,0,0,0,2.243,0l.015-.015a2.63,2.63,0,0,0,.031-3.688l-4.517-4.61a2.55,2.55,0,0,0-3.611,0l-.031.031-4.625,4.686a2.63,2.63,0,0,0-.031,3.688,1.6,1.6,0,0,0,2.243,0l.015-.015Z" transform="translate(-39.187 -52.033)" fill="#fff"/><path d="M113.336,58.282a2.551,2.551,0,0,1,3.611-.061l.031.031,2.289,2.32a1.6,1.6,0,0,0,2.243,0l.015-.015a2.63,2.63,0,0,0,.031-3.688l-4.533-4.594a2.55,2.55,0,0,0-3.611,0l-.031.031-4.625,4.686a2.63,2.63,0,0,0-.031,3.688,1.6,1.6,0,0,0,2.243,0l.015-.015,2.351-2.382Z" transform="translate(-97.415 -51.525)" fill="#fff"/></g><path d="M327.429,53.62l-5.117,6.592a.14.14,0,0,1-.123.061h-.63a.14.14,0,0,1-.123-.061l-5.117-6.53a.169.169,0,0,0-.23-.031.14.14,0,0,0-.061.123V66.035a.171.171,0,0,1-.169.169h-2.09a.171.171,0,0,1-.169-.169l.031-17.086a.149.149,0,0,1,.169-.154h1.506a.19.19,0,0,1,.123.061l6.331,8.128a.169.169,0,0,0,.23.031l.031-.031,6.3-8.128a.14.14,0,0,1,.123-.061h1.506a.171.171,0,0,1,.169.169V66.05a.171.171,0,0,1-.169.169H327.89a.171.171,0,0,1-.169-.169V53.712a.171.171,0,0,0-.169-.169A.211.211,0,0,0,327.429,53.62Zm9.6,17.086h-2.12a.167.167,0,0,1-.169-.138.115.115,0,0,1,.015-.077l2.274-4.932a.213.213,0,0,0,0-.138l-5.086-11.2a.136.136,0,0,1,.061-.2.139.139,0,0,1,.077-.015h2.259a.169.169,0,0,1,.154.092l3.473,8.466a2.043,2.043,0,0,1,.23.845h.123a2.949,2.949,0,0,1,.169-.83v-.015l3.473-8.451a.146.146,0,0,1,.154-.092h2.09a.167.167,0,0,1,.169.138.115.115,0,0,1-.015.077l-7.191,16.38A.134.134,0,0,1,337.032,70.706Zm23.909-6.438a.165.165,0,0,1-.015.215l-.138.138a7.411,7.411,0,0,1-.676.538,6.13,6.13,0,0,1-1.152.676,8.394,8.394,0,0,1-1.629.522,9.85,9.85,0,0,1-2.12.23,8.263,8.263,0,0,1-6.3-2.612,9.85,9.85,0,0,1-.015-12.969A8.228,8.228,0,0,1,355.21,48.4a9.088,9.088,0,0,1,3.2.553,6.242,6.242,0,0,1,2.028,1.106l.476.461a.149.149,0,0,1,.015.215l-1.183,1.583a.151.151,0,0,1-.215.046c-.015,0-.015-.015-.031-.031l-.061-.061c-.092-.077-.277-.215-.569-.415a8.906,8.906,0,0,0-.907-.553,5.582,5.582,0,0,0-1.2-.43,6.341,6.341,0,0,0-1.521-.184,5.806,5.806,0,0,0-4.533,1.982,7.576,7.576,0,0,0,0,9.726,5.806,5.806,0,0,0,4.533,1.982,6.294,6.294,0,0,0,2.32-.446,5.718,5.718,0,0,0,1.583-.876l.015-.015.323-.323a.165.165,0,0,1,.215-.015l.031.031,1.214,1.537Zm8.774-8.513a.145.145,0,0,1-.154.154H368.44a2.983,2.983,0,0,0-2.228.937,3.242,3.242,0,0,0-.922,2.366V66.02a.145.145,0,0,1-.154.154h-2.059a.145.145,0,0,1-.154-.154V54.158a.145.145,0,0,1,.154-.154h1.475a.145.145,0,0,1,.154.154l.061,1.905h.138a3.242,3.242,0,0,1,1.368-1.537,4.089,4.089,0,0,1,2.151-.553h1.122a.145.145,0,0,1,.154.154Zm6.3,14.951h-2.12a.167.167,0,0,1-.169-.138.2.2,0,0,1,.015-.092l2.274-4.932a.212.212,0,0,0,0-.138l-5.086-11.2a.156.156,0,0,1,.062-.215.167.167,0,0,1,.077-.015h2.259a.16.16,0,0,1,.154.108l3.473,8.466a3.253,3.253,0,0,1,.369.845h-.154a4.92,4.92,0,0,1,.307-.845l3.473-8.466a.185.185,0,0,1,.154-.108h2.09a.153.153,0,0,1,.169.138.2.2,0,0,1-.015.092l-7.191,16.41a.134.134,0,0,1-.138.092Zm10.894-6.054v5.9a.145.145,0,0,1-.154.154h-2.074a.145.145,0,0,1-.154-.154v-16.4a.145.145,0,0,1,.154-.154h1.583a.145.145,0,0,1,.154.154l.015,1.613h.123a.184.184,0,0,0,.138-.077l.092-.154a3.5,3.5,0,0,1,.461-.492,4.924,4.924,0,0,1,.845-.645,5.5,5.5,0,0,1,1.26-.492,6.3,6.3,0,0,1,1.69-.215,5.329,5.329,0,0,1,4.072,1.752,7.364,7.364,0,0,1,.015,9.219,5.152,5.152,0,0,1-4,1.782,7.663,7.663,0,0,1-1.675-.184,4.044,4.044,0,0,1-1.2-.461,6.472,6.472,0,0,1-.738-.538,2.748,2.748,0,0,1-.415-.43l-.015-.015-.108-.2Zm.953-1.352a3.606,3.606,0,0,0,2.935,1.2,3.36,3.36,0,0,0,2.2-.937,4.6,4.6,0,0,0,1.337-3.473,4.719,4.719,0,0,0-1.06-3.165,3.327,3.327,0,0,0-2.689-1.245,3.566,3.566,0,0,0-2.735,1.2,5.186,5.186,0,0,0,.015,6.423Zm11.724-9.465v-3.4a.154.154,0,0,1,.154-.154H401.8a.154.154,0,0,1,.154.154v3.4a.168.168,0,0,0,.154.169h3.165a.158.158,0,0,1,.154.169v1.537a.168.168,0,0,1-.154.169h-3.165a.158.158,0,0,0-.154.169v6.576c0,1.214.569,1.828,1.69,1.828a2.363,2.363,0,0,0,.8-.138,2.409,2.409,0,0,0,.645-.277l.077-.046a.15.15,0,0,1,.215.077v.015l.615,1.414a.142.142,0,0,1-.046.184c-.107.077-.215.154-.323.215a4.417,4.417,0,0,1-.784.323,5.3,5.3,0,0,1-1.767.261,3.45,3.45,0,0,1-2.6-1.014,4.027,4.027,0,0,1-.922-2.812V56.047a.168.168,0,0,0-.154-.169H397.5a.158.158,0,0,1-.154-.169V54.158a.168.168,0,0,1,.154-.169H399.4a.163.163,0,0,0,.184-.154Zm17.686,10.894a6.182,6.182,0,0,1-10.587-4.579,6.3,6.3,0,0,1,1.782-4.656,6.308,6.308,0,0,1,8.8.015,6.288,6.288,0,0,1,1.8,4.64,6.075,6.075,0,0,1-1.8,4.579Zm-1.69-1.383a4.585,4.585,0,0,0,1.106-3.242,4.756,4.756,0,0,0-1.106-3.257,3.642,3.642,0,0,0-5.47-.015,4.684,4.684,0,0,0-1.122,3.257,4.61,4.61,0,0,0,1.106,3.242,3.719,3.719,0,0,0,5.255.23,2.951,2.951,0,0,0,.23-.215Z" transform="translate(-265.252 -41.492)" fill="#6e6f70"/></g></g></g></svg>