<svg xmlns="http://www.w3.org/2000/svg" width="135.115" height="46.099" viewBox="0 0 135.115 46.099"><g transform="translate(-25.126 -25.725)" opacity="0.5"><path d="M40.347,25.725l26.065,1.167L76.966,50.368,62.077,71.824,35.87,70.144,25.126,44.707ZM59.457,39.258l-18.89,8.264,16.15,12.5ZM57.27,35.117l-15.1-6.508L39,42.292ZM53.443,63.17,37.036,51.439l.4,15.9Zm20.9-12.853L63.164,38.957,60.213,60.8ZM57.29,65.725,43.453,69.346l16.273,1.043ZM72.16,55.47,60.047,64.5l2.407,4.709Zm-5.729-25.3-2.353,4.836,8.757,8.912ZM63.5,27.858l-15.377-.625,12.684,5.555ZM38.1,30.094,27.331,43.711l7.2,1.527Zm-4,17.816-7.236-1.534,7.55,17.809Z" fill="#6e6f70" fill-rule="evenodd"/><g transform="translate(86.02 42.629)"><g transform="translate(0 0)"><path d="M2.2,5.323H2.76L6.776.031l1.144.9L4.038,5.863,8.593,11.38l-1.144.968L2.715,6.561H2.2v5.495H.7V.323H2.2Z" transform="translate(-0.695 -0.031)" fill="#6e6f70" fill-rule="evenodd"/><path d="M91.33,1.976h1.5V12.357h6.125v1.351H91.33Z" transform="translate(-77.688 -1.683)" fill="#6e6f70" fill-rule="evenodd"/><path d="M178.832,1.976h7.292V3.327h-5.789V6.84h4.779V8.191h-4.779v4.166h5.789v1.351h-7.292Z" transform="translate(-152.02 -1.683)" fill="#6e6f70" fill-rule="evenodd"/><path d="M267.081,1.976h3.971c1.952,0,3.5.923,3.5,3.2a3.482,3.482,0,0,1-2.378,3.288l2.872,4.752-1.3.788-2.984-5.315h-2.176v5.022h-1.5Zm3.478,5.36a2.157,2.157,0,0,0,2.423-2.162,1.752,1.752,0,0,0-1.974-1.846h-2.423V7.336Z" transform="translate(-226.986 -1.683)" fill="#6e6f70"/><path d="M359.755,6.709c0,.946-.067,6.058-4.151,6.058-1.885,0-4.151-1.351-4.151-6.058,0-4.684,2.221-6.08,4.151-6.08C357.467.629,359.755,1.981,359.755,6.709Zm-6.731,0c0,1.712.314,4.639,2.58,4.639s2.58-2.927,2.58-4.639c0-1.734-.314-4.661-2.58-4.661S353.024,4.976,353.024,6.709Z" transform="translate(-298.659 -0.539)" fill="#6e6f70"/><path d="M444.624,8.849c.292,1.441.987,2.5,2.558,2.5a1.962,1.962,0,0,0,2.2-1.982c0-1.441-1.211-1.8-2.356-2.274-1.705-.721-3.321-1.171-3.321-3.378A3.133,3.133,0,0,1,447.137.629a3.481,3.481,0,0,1,3.567,2.95l-1.436.428c-.269-1.148-.875-1.959-2.154-1.959-.965,0-1.907.5-1.907,1.554,0,1.1.673,1.419,1.571,1.824l2.49,1.1a2.986,2.986,0,0,1,1.615,2.747,3.365,3.365,0,0,1-3.7,3.49,3.817,3.817,0,0,1-3.9-3.49Z" transform="translate(-376.662 -0.539)" fill="#6e6f70" fill-rule="evenodd"/></g></g></g></svg>