<svg xmlns="http://www.w3.org/2000/svg" width="124.1" height="47" viewBox="0 0 124.1 47"><g opacity="0.5"><path d="M23.845,0A23.71,23.71,0,0,0,0,23.5,23.71,23.71,0,0,0,23.845,47,23.71,23.71,0,0,0,47.69,23.5,23.71,23.71,0,0,0,23.845,0Z" fill="#6e6f70" fill-rule="evenodd"/><path d="M23.78,21.918c1.166.1,2.437.209,3.815.209,4.027-.209,6.359-2.193,6.253-5.222-.212-3.029-3.391-4.909-6.571-4.8-5.193.313-9.114,4.8-9.538,10.027a8.024,8.024,0,0,1,2.12-.313A23.2,23.2,0,0,1,23.78,21.918ZM13.5,28.6c.212,2.82,3.179,4.6,6.253,4.387A9.828,9.828,0,0,0,28.761,23.8c-.636.1-1.378.209-2.014.313a21.373,21.373,0,0,1-3.709-.1,21.035,21.035,0,0,0-3.709-.1C15.726,24.007,13.394,25.887,13.5,28.6Z" transform="translate(0.807 0.538)" fill="#fff" fill-rule="evenodd"/><path d="M53.7,26.52h3.391a1.555,1.555,0,0,0,.53,1.253,2.294,2.294,0,0,0,1.272.418,3.175,3.175,0,0,0,1.06-.209.844.844,0,0,0,.424-.836.792.792,0,0,0-.212-.522.9.9,0,0,0-.53-.313A4.977,4.977,0,0,0,58.681,26,9.951,9.951,0,0,1,57.3,25.58c-.424-.1-.954-.313-1.378-.418a3.538,3.538,0,0,1-1.06-.627,2.828,2.828,0,0,1-.742-.836,5.44,5.44,0,0,1-.106-1.358,2.8,2.8,0,0,1,1.272-2.507,3.744,3.744,0,0,1,1.484-.627A11.842,11.842,0,0,1,58.681,19a7.141,7.141,0,0,1,2.226.313,2.907,2.907,0,0,1,1.484.836,2.964,2.964,0,0,1,.848,1.149,3.3,3.3,0,0,1,.318,1.462h-3.5a1.544,1.544,0,0,0-.318-1.044,1.632,1.632,0,0,0-1.06-.418,3.133,3.133,0,0,0-.954.209.877.877,0,0,0-.424.731.792.792,0,0,0,.212.522,2.323,2.323,0,0,0,.53.313,7.369,7.369,0,0,0,.848.313,8.127,8.127,0,0,1,1.166.418c.53.1.954.313,1.378.418a4.131,4.131,0,0,1,1.166.627,1.866,1.866,0,0,1,.742.836,2.583,2.583,0,0,1,.318,1.358,3.03,3.03,0,0,1-.424,1.671,3.345,3.345,0,0,1-1.06,1.044,3.619,3.619,0,0,1-1.59.627,8.158,8.158,0,0,1-1.7.1,6.1,6.1,0,0,1-3.815-1.044A3.177,3.177,0,0,1,53.7,26.52Z" transform="translate(3.21 0.844)" fill="#6e6f70"/><path d="M64.1,21.949V19.338h1.7V16.1h3.5v3.238h2.543v2.611H69.293v3.864a1.808,1.808,0,0,0,.424,1.462,2.323,2.323,0,0,0,.53.313c.212,0,.424.1.636.1h.53a1.362,1.362,0,0,0,.636-.1V30.2c-.212,0-.636.1-.954.1-.424,0-.848.1-1.378.1a5.233,5.233,0,0,1-1.272-.1,6.036,6.036,0,0,1-1.272-.418,2.109,2.109,0,0,1-.954-1.149,5.754,5.754,0,0,1-.424-2.193v-4.7H64.1Z" transform="translate(3.832 0.716)" fill="#6e6f70"/><path d="M72.924,22.447a8.043,8.043,0,0,0-.424,2.3,5.549,5.549,0,0,0,.424,2.3,5.679,5.679,0,0,0,1.06,1.776,6.459,6.459,0,0,0,1.7,1.253,4.65,4.65,0,0,0,2.014.418,4.985,4.985,0,0,0,2.226-.522A3.2,3.2,0,0,0,81.3,28.713V30.28h3.5V19.313H81.3V20.88a4.233,4.233,0,0,0-1.378-1.358A4.533,4.533,0,0,0,77.8,19a4.354,4.354,0,0,0-2.014.418,6.459,6.459,0,0,0-1.7,1.253A7.426,7.426,0,0,0,72.924,22.447Zm3.391,3.342a3.664,3.664,0,0,1-.212-1.044,3.051,3.051,0,0,1,.212-1.044,2.27,2.27,0,0,1,.53-.836,5.872,5.872,0,0,1,.848-.627,2.793,2.793,0,0,1,2.12,0,1.646,1.646,0,0,1,.848.627,2.27,2.27,0,0,1,.53.836,3.664,3.664,0,0,1,.212,1.044,3.051,3.051,0,0,1-.212,1.044,2.27,2.27,0,0,1-.53.836,5.872,5.872,0,0,1-.848.627,2.793,2.793,0,0,1-2.12,0,1.646,1.646,0,0,1-.848-.627A1.174,1.174,0,0,1,76.315,25.789Z" transform="translate(4.334 0.844)" fill="#6e6f70" fill-rule="evenodd"/><path d="M85.9,21.949V19.338h1.7V16.1h3.5v3.238h2.543v2.611H91.093v3.864a1.808,1.808,0,0,0,.424,1.462,2.323,2.323,0,0,0,.53.313c.212,0,.424.1.636.1h.53a1.362,1.362,0,0,0,.636-.1V30.2c-.212,0-.636.1-.954.1-.424,0-.848.1-1.378.1a5.233,5.233,0,0,1-1.272-.1,6.036,6.036,0,0,1-1.272-.418,2.109,2.109,0,0,1-.954-1.149,5.755,5.755,0,0,1-.424-2.193v-4.7H85.9Z" transform="translate(5.135 0.716)" fill="#6e6f70"/><path d="M95.2,25.776V19.3h3.5v5.64a3.311,3.311,0,0,0,.424,1.88,1.508,1.508,0,0,0,1.484.731,1.682,1.682,0,0,0,1.59-.731,3.674,3.674,0,0,0,.53-1.984V19.4h3.5V30.371h-3.5V28.8a2.878,2.878,0,0,1-1.378,1.358,4.985,4.985,0,0,1-2.226.522,5.2,5.2,0,0,1-1.908-.313,2.583,2.583,0,0,1-1.166-.94,3.837,3.837,0,0,1-.742-1.462A15.2,15.2,0,0,1,95.2,25.776Z" transform="translate(5.691 0.858)" fill="#6e6f70"/><path d="M107.8,26.516h3.391a1.554,1.554,0,0,0,.53,1.253,2.294,2.294,0,0,0,1.272.418,3.175,3.175,0,0,0,1.06-.209.844.844,0,0,0,.424-.836.792.792,0,0,0-.212-.522.9.9,0,0,0-.53-.313,4.976,4.976,0,0,0-.954-.313,9.952,9.952,0,0,1-1.378-.418c-.424-.1-.954-.313-1.378-.418a3.538,3.538,0,0,1-1.06-.627,2.828,2.828,0,0,1-.742-.836,2.233,2.233,0,0,1-.212-1.253,2.8,2.8,0,0,1,1.272-2.507,3.744,3.744,0,0,1,1.484-.627,10.648,10.648,0,0,1,1.908-.209,7.141,7.141,0,0,1,2.226.313,2.907,2.907,0,0,1,1.484.836,2.964,2.964,0,0,1,.848,1.149,3.3,3.3,0,0,1,.318,1.462h-3.5a1.544,1.544,0,0,0-.318-1.044,1.632,1.632,0,0,0-1.06-.418,3.133,3.133,0,0,0-.954.209.877.877,0,0,0-.424.731.792.792,0,0,0,.212.522,2.324,2.324,0,0,0,.53.313,7.369,7.369,0,0,0,.848.313,8.128,8.128,0,0,1,1.166.418c.53.1.954.313,1.378.418a4.131,4.131,0,0,1,1.166.627,1.866,1.866,0,0,1,.742.836,2.583,2.583,0,0,1,.318,1.358,3.03,3.03,0,0,1-.424,1.671,3.345,3.345,0,0,1-1.06,1.044,3.618,3.618,0,0,1-1.59.627,11.842,11.842,0,0,1-1.908.209,6.1,6.1,0,0,1-3.815-1.044A4.863,4.863,0,0,1,107.8,26.516Z" transform="translate(6.444 0.849)" fill="#6e6f70"/></g></svg>