<svg xmlns="http://www.w3.org/2000/svg" width="130.21" height="39.656" viewBox="0 0 130.21 39.656"><g transform="translate(0 0)" opacity="0.5"><path d="M1626.49,380.848l3.5-1.127V350l-3.5,1.127Zm-40.365-18.033a7,7,0,0,1,5.534,2.672l1.424-3.381a9.774,9.774,0,0,0-6.958-2.713,10.082,10.082,0,0,0-10.132,10.269,10.4,10.4,0,0,0,10.132,10.6,10.805,10.805,0,0,0,6.633-2.087v-4.133a9.312,9.312,0,0,1-6.348,2.8,7.085,7.085,0,0,1-6.917-7.18A6.648,6.648,0,0,1,1586.125,362.815Zm23.275-3.423c-6.022,0-9.521,4.884-9.521,10.269a10.37,10.37,0,0,0,10.132,10.6,10.8,10.8,0,0,0,6.633-2.087v-4.133a9.311,9.311,0,0,1-6.348,2.8,6.689,6.689,0,0,1-6.714-5.719h15.34v-1.378C1618.922,363.984,1615.219,359.392,1609.4,359.392Zm37.8,0a10.439,10.439,0,1,0,10.173,10.436A10.311,10.311,0,0,0,1647.2,359.392Zm-37.761,3.423a5.621,5.621,0,0,1,5.859,5.134h-11.719A5.621,5.621,0,0,1,1609.441,362.815Zm37.761,14.026a6.826,6.826,0,1,1,.024,0Z" transform="translate(-1527.164 -345.826)" fill="#6e6f70"/><path d="M391.259,477.133a11.483,11.483,0,1,0-11.19-11.479A11.336,11.336,0,0,0,391.259,477.133Zm0,4.174a15.659,15.659,0,1,1,15.259-15.654A15.46,15.46,0,0,1,391.259,481.307Z" transform="translate(-376 -441.651)" fill="#6e6f70"/><path d="M591.259,277.133a11.483,11.483,0,1,0-11.19-11.479A11.336,11.336,0,0,0,591.259,277.133Zm0,4.174a15.659,15.659,0,1,1,15.259-15.654A15.46,15.46,0,0,1,591.259,281.307Z" transform="translate(-567.862 -250)" fill="#6e6f70"/></g></svg>