<svg xmlns="http://www.w3.org/2000/svg" width="134" height="34.12" viewBox="0 0 134 34.12"><defs><style>.a{opacity:0.5;}.b{fill:#6e6f70;}</style></defs><g class="a" transform="translate(-20.3 -245.9)"><path class="b" d="M20.3,262.96v17.06H52.209v-3.93H24.163V249.763H52.209V245.9H20.3Z"/><path class="b" d="M133.143,275.065c-2.814.357-4.823,1.831-5.582,4.086a4.725,4.725,0,0,0-.246,1.541,4.967,4.967,0,0,0,1.429,4.153c1.072,1.072,2.479,1.675,5.314,2.233a7.635,7.635,0,0,1,3.3,1.139,2.311,2.311,0,0,1,.6,2.747,2.84,2.84,0,0,1-1.25,1.206,5.888,5.888,0,0,1-4.354-.179A3.625,3.625,0,0,1,131,290.629a4.832,4.832,0,0,1-.469-1.764v-.357H126.6v.268a8.009,8.009,0,0,0,1.206,4.176,7.408,7.408,0,0,0,1.7,1.742,9.516,9.516,0,0,0,6.118,1.407,7.329,7.329,0,0,0,4.98-2.054,5.378,5.378,0,0,0,1.429-2.836,10.976,10.976,0,0,0-.089-3.439c-.514-1.742-1.831-2.88-4.176-3.662-.424-.134-1.139-.335-1.585-.424a22.131,22.131,0,0,1-3.26-.826c-1.139-.469-1.608-1.072-1.608-2.01,0-1.049.625-1.719,1.876-2.032a5.8,5.8,0,0,1,2.635.067,3.053,3.053,0,0,1,2.077,2.389l.067.447h3.863l-.045-.648a5.857,5.857,0,0,0-1.049-3.193,6.63,6.63,0,0,0-4.265-2.657,9.99,9.99,0,0,0-1.831-.156c-.715-.022-1.384,0-1.5,0Zm18.02,10.517v10.16h3.863v-20.32h-3.863Zm11.567-9.624c-.2.29-1.384,2.166-2.68,4.176l-2.345,3.617v3.684l2.769,4.131,2.769,4.153h4.712l-.134-.179c-.067-.112-1.585-2.345-3.372-4.98a49.7,49.7,0,0,1-3.26-4.979,56.7,56.7,0,0,1,3.171-5.091c1.742-2.7,3.193-4.957,3.215-5,.045-.067-.424-.089-2.211-.089h-2.278l-.357.558Zm16.792-.491c0,.045-4.689,19.739-4.779,20.052l-.045.2h4.086l.491-2.144c.268-1.183.491-2.188.514-2.233a18.233,18.233,0,0,1,3.416-.067l3.372.022.491,2.188.491,2.188,2.054.022c1.943.022,2.054,0,2.01-.089-.022-.067-1.094-4.578-2.389-10-1.3-5.448-2.367-9.959-2.389-10.048l-.022-.134h-3.64c-2.032,0-3.662.022-3.662.045Zm3.863,1.943c0,.022.514,2.255,1.139,5l1.116,4.979-2.479.022h-2.5c-.022-.022,1.25-5.627,2.1-9.267l.179-.737h.223c.134-.022.223-.022.223,0Zm18.288,8.173v10.16H214.78v-3.662h-9.244V275.445h-3.863Zm21.95,0v10.16h13.241v-3.662h-9.378V279.174h9.378v-3.729H223.622Z" transform="translate(-82.564 -22.645)"/><path class="b" d="M590.4,315.853v1.876h3.729V314H590.4Z" transform="translate(-442.799 -52.894)"/></g></svg>