<svg xmlns="http://www.w3.org/2000/svg" width="95.9" height="60.5" viewBox="0 0 95.9 60.5"><g opacity="0.5"><g transform="translate(26.389)"><path d="M85.982,30H45.2a1.2,1.2,0,0,0,0,2.408h4.2a1.2,1.2,0,0,1,0,2.408H47.6a1.2,1.2,0,0,0,0,2.408h8.4a1.2,1.2,0,0,0,0-2.408H54.2a1.2,1.2,0,0,1,0-2.408H85.982a1.2,1.2,0,0,0,0-2.408Z" transform="translate(-44 -12.542)" fill="#6e6f70"/><path d="M87.985,38H63.995a1.2,1.2,0,0,0,0,2.408H76.59a1.2,1.2,0,0,1,0,2.408H53.2a1.2,1.2,0,0,0,0,2.408H66.394a1.2,1.2,0,0,1,0,2.408H61.6a1.2,1.2,0,0,0,0,2.408H75.99a1.2,1.2,0,0,0,0-2.408h-4.8a1.2,1.2,0,0,1,0-2.408H84.986a1.2,1.2,0,0,0,0-2.408h-3.6a1.2,1.2,0,0,1,0-2.408h6.6a1.2,1.2,0,0,0,0-2.408Z" transform="translate(-47.202 -15.726)" fill="#6e6f70"/><path d="M69.994,1A15.027,15.027,0,0,0,55,16.05H84.987A15.027,15.027,0,0,0,69.994,1Z" transform="translate(-48.403 -1)" fill="#6e6f70"/></g><path d="M73.409,78.586a5.719,5.719,0,1,1-5.7,5.719A5.705,5.705,0,0,1,73.409,78.586Zm-51.039,0a5.719,5.719,0,1,1-5.7,5.719A5.705,5.705,0,0,1,22.371,78.586ZM48.04,77.261a.85.85,0,0,1,.9.9V90.625a.9.9,0,0,1-.9.963.873.873,0,0,1-.9-.843V78.1A.915.915,0,0,1,48.04,77.261Zm-47.2,0a.882.882,0,0,1,.9.9v5.418H9.656v-5.6a.872.872,0,0,1,1.739.12V90.565a.885.885,0,0,1-.9.9.821.821,0,0,1-.84-.843V85.388H1.8v5.237a.85.85,0,0,1-.9.9.913.913,0,0,1-.9-.843V78.044A.85.85,0,0,1,.84,77.261Zm32.866-.06h5.7a3.9,3.9,0,0,1,4.018,3.913c0,1.806-.96,3.191-3.419,3.793.42.542,2.7,3.732,3.778,5.237A.878.878,0,1,1,42.4,91.227c-.96-1.385-4.558-6.381-4.8-6.682a.884.884,0,0,1,.6-1.445h1.439a2,2,0,0,0,1.979-1.987,2.115,2.115,0,0,0-2.279-2.167h-4.8V90.806a.882.882,0,0,1-.9.9.856.856,0,0,1-.84-.843V77.984C32.806,77.562,33.406,77.2,33.706,77.2Zm51.219,0a5.081,5.081,0,0,1,1.02.482,22.176,22.176,0,0,1,5.578,4.756,24.917,24.917,0,0,1,2.639,3.913V78.1a.837.837,0,0,1,.84-.9.882.882,0,0,1,.9.9V90.686a.836.836,0,0,1-.9.843c-.84,0-.96-.9-1.14-1.445-.12-.3-.24-.722-.36-.963-.3-.722-.78-1.385-1.08-2.107a20.722,20.722,0,0,0-6.777-7.344V90.686a.92.92,0,0,1-.9,1.023.869.869,0,0,1-.9-.843V77.923A.876.876,0,0,1,84.925,77.2ZM53.8,77.081h9.656a.953.953,0,0,1,.78,1.565c-.36.482-.72.963-1.08,1.385-2.519,3.251-5.1,6.622-7.677,9.812h7.917c.66,0,1.02.361,1.02.9a.885.885,0,0,1-1.02.9H53.618c-.66,0-1.259-.722-.6-1.565.54-.662,1.379-1.746,1.439-1.806,2.4-3.13,4.858-6.261,7.317-9.391H53.918c-.66,0-1.08-.361-1.08-.9A.9.9,0,0,1,53.8,77.081ZM73.409,76.9a7.4,7.4,0,1,1-7.377,7.4A7.347,7.347,0,0,1,73.409,76.9Zm-51.039,0a7.4,7.4,0,1,1-7.377,7.4A7.347,7.347,0,0,1,22.371,76.9Z" transform="translate(0 -31.209)" fill="#6e6f70" fill-rule="evenodd"/></g></svg>