<svg xmlns="http://www.w3.org/2000/svg" width="88.751" height="24.55" viewBox="0 0 88.751 24.55"><g opacity="0.498"><path d="M228.8,22.949l-8.6-20.765a1.816,1.816,0,0,1-.107-.589,1.624,1.624,0,0,1,.419-1.154A1.483,1.483,0,0,1,221.661,0a1.549,1.549,0,0,1,.888.295,1.875,1.875,0,0,1,.608.777l8.177,20.315,8.177-20.315a1.875,1.875,0,0,1,.616-.777A1.549,1.549,0,0,1,241.015,0a1.483,1.483,0,0,1,1.134.442,1.624,1.624,0,0,1,.427,1.154,1.82,1.82,0,0,1-.107.589l-8.6,20.765a2.308,2.308,0,0,1-2.153,1.6h-.764A2.308,2.308,0,0,1,228.8,22.949Z" transform="translate(-174.068 0.003)" fill="#6e6f70"/><path d="M342.144,24.543a1.518,1.518,0,0,1-.444-1.113V2.4a1.6,1.6,0,0,1,.444-1.145A1.474,1.474,0,0,1,343.261.8h13.971a1.392,1.392,0,0,1,1.052.442,1.413,1.413,0,0,1,.444,1.047,1.331,1.331,0,0,1-.444,1.031,1.483,1.483,0,0,1-1.06.425H344.872V11.4h11.111a1.392,1.392,0,0,1,1.052.442,1.445,1.445,0,0,1,.444,1.047,1.331,1.331,0,0,1-.444,1.031,1.483,1.483,0,0,1-1.052.425H344.872v7.691h12.352a1.393,1.393,0,0,1,1.06.442,1.412,1.412,0,0,1,.444,1.055,1.331,1.331,0,0,1-.444,1.031,1.483,1.483,0,0,1-1.06.417H343.261A1.384,1.384,0,0,1,342.144,24.543Z" transform="translate(-269.978 -0.634)" fill="#6e6f70"/><path d="M146.2,22.36,137.592,1.6A2.308,2.308,0,0,0,135.447,0h-.756a2.308,2.308,0,0,0-2.153,1.6L128.8,10.644h-2.835a1.55,1.55,0,0,0-1.537,1.538V12.2a1.55,1.55,0,0,0,1.537,1.538h1.52l-3.567,8.623a1.819,1.819,0,0,0-.107.589,1.624,1.624,0,0,0,.419,1.154,1.483,1.483,0,0,0,1.142.442,1.55,1.55,0,0,0,.888-.295,1.874,1.874,0,0,0,.608-.777l3.937-9.736h2.7a1.55,1.55,0,0,0,1.537-1.538v-.041a1.55,1.55,0,0,0-1.537-1.538h-1.463l3.024-7.462,8.177,20.315a1.874,1.874,0,0,0,.608.777,1.55,1.55,0,0,0,.888.295,1.483,1.483,0,0,0,1.151-.442,1.624,1.624,0,0,0,.411-1.154,1.386,1.386,0,0,0-.1-.589Z" transform="translate(-98.11 0.002)" fill="#6e6f70"/><path d="M24.595,22.36,16,1.6A2.308,2.308,0,0,0,13.837,0h-.756a2.308,2.308,0,0,0-2.153,1.6L7.188,10.644H4.353a1.55,1.55,0,0,0-1.537,1.538V12.2a1.55,1.55,0,0,0,1.537,1.538h1.52L2.307,22.36a1.817,1.817,0,0,0-.107.589A1.624,1.624,0,0,0,2.619,24.1a1.483,1.483,0,0,0,1.142.442,1.55,1.55,0,0,0,.888-.295,1.875,1.875,0,0,0,.608-.777l3.937-9.736h2.72A1.55,1.55,0,0,0,13.459,12.2v-.041a1.55,1.55,0,0,0-1.545-1.538H10.459l3-7.462,8.177,20.315a1.875,1.875,0,0,0,.608.777,1.55,1.55,0,0,0,.888.295,1.483,1.483,0,0,0,1.151-.442,1.624,1.624,0,0,0,.411-1.154,1.385,1.385,0,0,0-.1-.589Z" transform="translate(-2.198 0.002)" fill="#6e6f70"/></g></svg>