<svg xmlns="http://www.w3.org/2000/svg" width="94.5" height="38.714" viewBox="0 0 94.5 38.714"><defs><style>.a{opacity:0.497;}.b,.c{fill:#6e6f70;}.b{fill-rule:evenodd;}</style></defs><g class="a"><path class="b" d="M14.771,0A14.847,14.847,0,0,1,29.542,14.922v8.63A14.847,14.847,0,0,1,14.771,38.473,14.847,14.847,0,0,1,0,23.551v-8.63A14.847,14.847,0,0,1,14.771,0ZM14.7,8.844a6.187,6.187,0,0,0-6.169,6.2v.931H8.525V29.629h.109a4.652,4.652,0,0,0,4.518-4.673v-.331a6.171,6.171,0,0,0,7.719-6.007V15.049A6.187,6.187,0,0,0,14.7,8.844Zm0,4.653a1.547,1.547,0,0,1,1.542,1.551v3.567a1.542,1.542,0,1,1-3.085,0V15.049A1.547,1.547,0,0,1,14.7,13.5Z"/><path class="c" d="M171.658,16.134A7.4,7.4,0,0,1,179,23.588v4.286a7.4,7.4,0,0,1-7.344,7.454,7.254,7.254,0,0,1-1.845-.237V35.6A5.508,5.508,0,0,1,164.4,41.1h-.091v-16.4h.008V23.588A7.4,7.4,0,0,1,171.658,16.134Zm32.886,0a7.423,7.423,0,0,1,7.348,7.5v4.31a7.349,7.349,0,1,1-14.7,0V23.63A7.423,7.423,0,0,1,204.544,16.134ZM188.1,15.78a7.423,7.423,0,0,1,7.348,7.5v4.31a7.349,7.349,0,1,1-14.7,0v-4.31A7.423,7.423,0,0,1,188.1,15.78Zm31.141-5.313V29.484a5.6,5.6,0,0,1-5.506,5.6h-.093V16.066A5.6,5.6,0,0,1,219.24,10.467Zm-14.7,11.289a1.856,1.856,0,0,0-1.837,1.874v4.31a1.837,1.837,0,1,0,3.674,0V23.63A1.856,1.856,0,0,0,204.544,21.756Zm-32.886-.032a1.85,1.85,0,0,0-1.836,1.863v4.286a1.836,1.836,0,1,0,3.672,0V23.588A1.85,1.85,0,0,0,171.658,21.724ZM188.1,21.4a1.856,1.856,0,0,0-1.837,1.874v4.31a1.837,1.837,0,1,0,3.674,0v-4.31A1.856,1.856,0,0,0,188.1,21.4Zm-10.59,22.936c-1.149,0-1.785-.6-1.785-1.9V39.5h-.287a.548.548,0,0,1-.624-.6v-.148a.541.541,0,0,1,.612-.593h.3v-.765c0-.555.275-.8.749-.8h.175c.474,0,.762.21.762.8v.765h.9c.412,0,.624.2.624.58v.148a.557.557,0,0,1-.624.617h-.924v2.58c0,.63.187.852.562.852a.847.847,0,0,0,.687-.358.707.707,0,0,1,.362.691.875.875,0,0,1-.312.691A1.664,1.664,0,0,1,177.509,44.338Zm2.246-3.107a2.862,2.862,0,1,1,5.7.024,2.861,2.861,0,1,1-5.7-.024Zm4.182-.176c0-1.151-.518-1.756-1.318-1.756s-1.343.593-1.343,1.744.53,1.744,1.343,1.744C183.408,42.788,183.937,42.183,183.937,41.056Zm4.6,5.608c-1.832,0-2.7-.587-2.7-1.611,0-.787.675-1.361,1.711-1.6a.711.711,0,0,1-.289-.587.793.793,0,0,1,.458-.7,2.015,2.015,0,0,1-1.554-2.035,2.289,2.289,0,0,1,2.446-2.285,2.45,2.45,0,0,1,1.1.25l.253-.487c.2-.474.47-.649.783-.637a.917.917,0,0,1,.8.774l-.928,1a2.1,2.1,0,0,1,.494,1.374,2.137,2.137,0,0,1-2.265,2.16h-.217a.181.181,0,0,0,.024.237c.084.25.59.3,1.326.537s1.506.7,1.506,1.686C191.478,45.877,190.454,46.664,188.538,46.664Zm.158-5.426c.574,0,.945-.408.945-1.175s-.371-1.15-.957-1.15c-.562,0-.945.4-.945,1.15S188.122,41.238,188.7,41.238Zm-.037,4.651c.862,0,1.362-.262,1.362-.739,0-.346-.35-.537-.837-.68-.162-.048-.337-.1-.512-.131-.75.107-1.312.417-1.312.871C187.359,45.638,187.809,45.889,188.659,45.889Zm3.263-4.8c0-2,1.174-3.34,2.922-3.34s2.781,1.207,2.781,3.1v.116c0,.321-.115.5-.459.5h-3.649c.013.064.013.154.026.218A1.4,1.4,0,0,0,195,42.99a1.438,1.438,0,0,0,1.416-.886c.14-.013.944.077.944.771a1.219,1.219,0,0,1-.561.963,3.2,3.2,0,0,1-1.863.5A2.92,2.92,0,0,1,191.922,41.089Zm3.8-.626c-.024-.954-.39-1.55-1.087-1.55-.674,0-1.123.61-1.194,1.55Zm4.978,3.876c-1.149,0-1.785-.6-1.785-1.9V39.5h-.287a.548.548,0,0,1-.624-.6v-.148a.541.541,0,0,1,.612-.593h.3v-.765c0-.555.275-.8.749-.8h.175c.474,0,.762.21.762.8v.765h.9c.412,0,.624.2.624.58v.148a.557.557,0,0,1-.624.617h-.924v2.58c0,.63.187.852.562.852a.847.847,0,0,0,.687-.358.707.707,0,0,1,.362.691.875.875,0,0,1-.312.691A1.664,1.664,0,0,1,200.7,44.338Zm5.607-6.365c1.41,0,1.962,1.063,1.962,2.382v2.981c0,.574-.282.794-.724.794h-.2c-.466,0-.748-.208-.748-.794V40.49c0-.684-.307-1.124-.908-1.124a1.059,1.059,0,0,0-1.092,1.051v2.92c0,.574-.27.794-.724.794H203.7c-.466,0-.748-.208-.748-.794V35.811c0-.061.294-.208.638-.208.5,0,1.018.281,1.018,1.307v2.138A1.818,1.818,0,0,1,206.309,37.973Zm2.723,3.116c0-2,1.174-3.34,2.922-3.34s2.781,1.207,2.781,3.1v.116c0,.321-.115.5-.459.5h-3.649c.013.064.013.154.026.218a1.4,1.4,0,0,0,1.455,1.31,1.439,1.439,0,0,0,1.416-.886c.14-.013.944.077.944.771a1.219,1.219,0,0,1-.561.963,3.2,3.2,0,0,1-1.863.5A2.92,2.92,0,0,1,209.031,41.089Zm3.8-.626c-.024-.954-.39-1.55-1.087-1.55-.674,0-1.123.61-1.194,1.55Zm5.465-2.474a1.075,1.075,0,0,1,.457,2.006.837.837,0,0,0-.662-.308c-.674,0-.975.64-.975,1.858V43.39c0,.578-.265.8-.722.8h-.168c-.457,0-.734-.209-.734-.8V38.247c0-.062.265-.185.59-.185a.782.782,0,0,1,.818.64,2.755,2.755,0,0,1,.1.578C217.179,38.481,217.637,37.988,218.3,37.988Z" transform="translate(-124.797 -7.95)"/></g></svg>