<svg xmlns="http://www.w3.org/2000/svg" width="174.9" height="23.1" viewBox="0 0 174.9 23.1"><g opacity="0.5"><ellipse cx="7.847" cy="8.176" rx="7.847" ry="8.176" transform="translate(11.22 6.747)" fill="#6e6f70"/><ellipse cx="7.847" cy="8.176" rx="7.847" ry="8.176" transform="translate(0 6.747)" fill="#6e6f70"/><g transform="translate(30.445)"><path d="M55.278,6.747h0A7.745,7.745,0,0,0,50.57,8.176a7.745,7.745,0,0,0-4.708-1.429h0c-4.473,0-7.062,2.7-7.062,6.43v9.446h4.629V14.13a2.5,2.5,0,0,1,2.432-2.778,2.476,2.476,0,0,1,2.432,2.7v8.573h4.629V14.051a2.476,2.476,0,0,1,2.432-2.7,2.548,2.548,0,0,1,2.432,2.778v8.414h4.629V13.1c-.078-3.652-2.668-6.351-7.14-6.351m103.025,0h0A7.745,7.745,0,0,0,153.6,8.176a7.746,7.746,0,0,0-4.708-1.429h0c-4.473,0-7.062,2.7-7.062,6.43v9.446h4.629V14.13a2.5,2.5,0,0,1,2.432-2.778,2.476,2.476,0,0,1,2.432,2.7v8.573h4.629V14.051a2.476,2.476,0,0,1,2.432-2.7,2.548,2.548,0,0,1,2.432,2.778v8.414h4.629V13.1c-.078-3.652-2.668-6.351-7.14-6.351M119.149,22.7h-4.629V12.622c0-3.572,2.354-5.795,5.885-5.795a7.354,7.354,0,0,1,2.9.635l-1.02,3.731a3.862,3.862,0,0,0-1.255-.238,1.781,1.781,0,0,0-1.883,1.905V22.7ZM82.27,22.624H86.9V7.144H82.27ZM87.213,2.778a2.614,2.614,0,0,1-2.668,2.7,2.569,2.569,0,0,1-2.668-2.7,2.67,2.67,0,1,1,5.336,0Zm25.658,4.366v3.81H109.5v11.59h-4.629V6.271c0-3.572,2.354-5.795,5.885-5.795a7.354,7.354,0,0,1,2.9.635l-1.02,3.731a3.862,3.862,0,0,0-1.255-.238A1.781,1.781,0,0,0,109.5,6.509v.635Zm-17.027-.4h0c-4.473,0-7.062,2.7-7.062,6.43v9.446h4.629V14.13a2.5,2.5,0,0,1,2.432-2.778,2.548,2.548,0,0,1,2.432,2.778v8.414h4.629V13.1c0-3.652-2.589-6.351-7.062-6.351m-23.7,11.828a3.731,3.731,0,1,1,3.688-3.731,3.705,3.705,0,0,1-3.688,3.731m8.082-3.652a8.16,8.16,0,1,0-8.16,8.176,8.274,8.274,0,0,0,4.237-1.191V22.7h3.845V15.082l.078-.159M131.7,18.575a3.731,3.731,0,1,1,3.688-3.731,3.705,3.705,0,0,1-3.688,3.731m8.16-3.652A8.16,8.16,0,1,0,131.7,23.1a8.274,8.274,0,0,0,4.237-1.191V22.7h3.845V15.082l.078-.159m35.31-3.731a3.56,3.56,0,0,1,2.982,1.588h-6.042A3.608,3.608,0,0,1,175.173,11.193Zm8,4.922a6.077,6.077,0,0,0,.078-1.191,8.16,8.16,0,1,0-8.16,8.176,8.066,8.066,0,0,0,7.768-5.715H177.92a3.779,3.779,0,0,1-2.825,1.27,3.846,3.846,0,0,1-3.531-2.461l11.613-.079Z" transform="translate(-38.8)" fill="#6e6f70" fill-rule="evenodd"/></g><path d="M9.074,21.344A3.457,3.457,0,0,1,5.7,17.772,3.457,3.457,0,0,1,9.074,14.2a3.457,3.457,0,0,1,3.374,3.572,3.457,3.457,0,0,1-3.374,3.572" transform="translate(-1.227 -2.928)" fill="#fff" fill-rule="evenodd"/><path d="M23.374,21.344A3.457,3.457,0,0,1,20,17.772a3.38,3.38,0,1,1,6.748,0,3.508,3.508,0,0,1-3.374,3.572" transform="translate(-4.307 -2.928)" fill="#fff" fill-rule="evenodd"/></g></svg>