<svg width="516" height="565" viewBox="0 0 516 565" fill="none" xmlns="http://www.w3.org/2000/svg">
<g filter="url(#filter0_d)">
<path d="M252.04 517.284C248.089 517.284 244.299 515.714 241.504 512.92C238.71 510.125 237.14 506.335 237.14 502.384H214.44L214.412 479.538C218.371 479.534 222.165 477.957 224.961 475.155C227.757 472.353 229.325 468.556 229.321 464.597C229.321 464.337 229.314 464.082 229.3 463.829C229.101 460.008 227.441 456.411 224.664 453.779C221.888 451.147 218.206 449.683 214.38 449.688V426.943H214.342V426.895L214.642 426.774H214.168V404.074C210.217 404.074 206.427 402.504 203.632 399.71C200.838 396.915 199.268 393.125 199.268 389.174V389.159C199.268 387.167 199.667 385.194 200.442 383.359C200.577 383.045 200.733 382.74 200.889 382.435C200.951 382.313 201 382.185 201.066 382.064C202.345 379.705 204.237 377.734 206.543 376.361C208.849 374.988 211.483 374.263 214.166 374.263V351.469H214.218V351.508L214.443 351.463L214.332 351.193L191.49 351.22C191.454 347.283 189.864 343.519 187.065 340.749C184.266 337.978 180.486 336.426 176.548 336.43C172.611 336.435 168.834 337.995 166.041 340.771C163.248 343.547 161.665 347.314 161.637 351.252H138.891V351.29H138.846L138.569 351.134V351.155C128.607 351.155 119.053 347.197 112.009 340.153C104.965 333.109 101.007 323.555 101.007 313.593C101.007 303.63 104.965 294.077 112.009 287.033C119.053 279.989 128.607 276.031 138.569 276.031H138.583V276.997L138.846 275.997H138.829V275.949H138.864V253.2C140.824 253.202 142.766 252.818 144.577 252.07C146.389 251.322 148.035 250.224 149.422 248.84C150.81 247.455 151.911 245.811 152.663 244.001C153.415 242.191 153.803 240.251 153.805 238.291C153.807 236.331 153.423 234.389 152.675 232.578C151.927 230.766 150.829 229.12 149.444 227.732C148.06 226.345 146.416 225.244 144.606 224.492C142.796 223.74 140.855 223.352 138.895 223.35L138.926 200.505H161.617C161.617 196.553 163.187 192.764 165.981 189.969C168.776 187.175 172.566 185.605 176.517 185.605H176.531C178.524 185.602 180.497 186.001 182.331 186.779C182.646 186.91 182.951 187.068 183.255 187.221C183.38 187.283 183.508 187.336 183.625 187.402L183.739 187.465C186.069 188.752 188.011 190.641 189.362 192.934C190.714 195.228 191.425 197.842 191.422 200.504H214.217V200.552V200.587H214.446L214.418 177.767C218.377 177.763 222.172 176.187 224.968 173.385C227.764 170.583 229.332 166.784 229.328 162.826C229.324 158.867 227.748 155.072 224.946 152.276C222.144 149.48 218.346 147.912 214.387 147.916V125.168H214.349V125.12H237.137C237.137 122.436 237.862 119.803 239.235 117.497C240.608 115.191 242.578 113.299 244.937 112.02C245.058 111.955 245.186 111.903 245.307 111.84C245.607 111.688 245.916 111.528 246.231 111.397C248.066 110.619 250.039 110.218 252.031 110.219H252.045C255.997 110.221 259.787 111.793 262.581 114.588C265.375 117.383 266.945 121.173 266.945 125.125H289.645L289.739 125.146V125.101H312.46V125.091H289.663V125.042H289.701L289.753 54.9587C290.071 57.7257 291.391 60.2803 293.465 62.1394C295.538 63.9986 298.221 65.0332 301.006 65.0476H301.328C302.775 65.0349 304.205 64.7373 305.537 64.1716C306.869 63.606 308.076 62.7832 309.089 61.7507C310.103 60.7183 310.903 59.4969 311.444 58.155C311.985 56.8132 312.256 55.3772 312.242 53.9304V53.571C312.239 51.5821 312.627 49.612 313.385 47.7732C314.144 45.9344 315.256 44.2629 316.661 42.8542C318.065 41.4456 319.733 40.3272 321.569 39.5632C323.405 38.7993 325.374 38.405 327.363 38.4021H327.571C329.527 38.4136 331.461 38.8099 333.263 39.5691C335.066 40.3283 336.701 41.4356 338.075 42.8269C339.45 44.2182 340.536 45.8661 341.274 47.6775C342.011 49.4889 342.384 51.4279 342.371 53.3835V53.7722C342.406 56.7547 343.614 59.6036 345.734 61.7019C347.854 63.8002 350.715 64.9787 353.698 64.9832C356.68 64.9876 359.545 63.8173 361.671 61.7253C363.797 59.6334 365.014 56.7878 365.057 53.8054L365.022 72.3962C361.063 72.3925 357.265 73.9608 354.463 76.7576C351.661 79.5543 350.085 83.3504 350.081 87.3093C350.078 91.2682 351.647 95.0659 354.443 97.8679C357.24 100.67 361.035 102.246 364.994 102.25L364.963 125.088H365.198V125.053H365.243V125.092L386.817 125.05C386.863 128.977 388.455 132.729 391.249 135.491C394.042 138.252 397.812 139.802 401.74 139.802C405.669 139.802 409.438 138.252 412.232 135.491C415.026 132.729 416.618 128.977 416.663 125.05L440.557 125.123L440.588 147.965C436.63 147.968 432.834 149.545 430.038 152.346C427.241 155.148 425.672 158.946 425.676 162.905C425.679 166.864 427.256 170.659 430.058 173.456C432.86 176.252 436.658 177.822 440.616 177.818L440.574 223.297V223.349C444.526 223.349 448.316 224.918 451.11 227.713C453.905 230.507 455.474 234.297 455.474 238.249V238.266C455.475 240.259 455.076 242.231 454.3 244.066C454.165 244.38 454.009 244.685 453.853 244.99C453.791 245.111 453.739 245.24 453.676 245.361C452.398 247.72 450.505 249.69 448.2 251.063C445.894 252.436 443.26 253.161 440.576 253.161V253.21L440.59 298.82C436.631 298.824 432.836 300.4 430.039 303.202C427.243 306.004 425.674 309.802 425.677 313.76C425.681 317.719 427.257 321.516 430.059 324.312C432.861 327.109 436.659 328.677 440.618 328.674V351.415H440.656V351.467H417.866C417.866 351.474 417.866 351.481 417.866 351.488L440.677 351.499C440.677 361.499 436.705 371.09 429.634 378.161C422.562 385.232 412.972 389.205 402.971 389.205C392.971 389.205 383.38 385.232 376.309 378.161C369.238 371.09 365.265 361.499 365.265 351.499V351.481H365.38L365.252 351.198L365.1 374.219C363.14 374.216 361.199 374.601 359.387 375.349C357.575 376.098 355.928 377.195 354.541 378.58C353.153 379.964 352.052 381.609 351.3 383.42C350.548 385.23 350.16 387.17 350.158 389.131C350.156 391.091 350.54 393.032 351.288 394.844C352.036 396.655 353.134 398.303 354.519 399.69C355.904 401.078 357.548 402.178 359.358 402.93C361.168 403.682 363.109 404.071 365.069 404.073L365.038 426.915H342.338C342.338 428.872 341.953 430.81 341.204 432.618C340.454 434.426 339.356 436.069 337.972 437.453C336.588 438.837 334.945 439.934 333.136 440.682C331.328 441.431 329.39 441.816 327.432 441.815H327.418C325.426 441.815 323.453 441.413 321.618 440.636C321.303 440.504 320.998 440.346 320.697 440.194C320.572 440.132 320.444 440.079 320.323 440.013C317.964 438.735 315.994 436.843 314.621 434.537C313.248 432.231 312.523 429.597 312.523 426.914H289.739V426.89H289.639L289.667 449.735C287.707 449.737 285.767 450.125 283.957 450.877C282.147 451.629 280.503 452.73 279.118 454.117C277.734 455.504 276.636 457.151 275.888 458.963C275.14 460.774 274.756 462.716 274.758 464.676C274.76 466.636 275.148 468.575 275.9 470.385C276.652 472.196 277.753 473.84 279.14 475.224C280.528 476.609 282.174 477.707 283.986 478.455C285.797 479.203 287.738 479.587 289.698 479.585V502.327H289.733V502.379H266.942C266.943 505.063 266.218 507.698 264.845 510.005C263.472 512.311 261.502 514.204 259.142 515.484C259.024 515.546 258.896 515.598 258.772 515.66C258.472 515.816 258.163 515.973 257.848 516.103C256.013 516.881 254.041 517.281 252.048 517.281L252.04 517.284ZM246.095 413.109C246.136 413.131 246.179 413.15 246.223 413.165L246.247 413.154C246.288 413.111 246.324 413.062 246.354 413.011C246.271 413.043 246.181 413.069 246.095 413.109ZM327.535 290.887C331.494 290.883 335.289 289.307 338.085 286.506C340.882 283.704 342.451 279.907 342.448 275.948H365.127V275.861H365.075V253.161C361.124 253.161 357.334 251.591 354.539 248.797C351.745 246.002 350.175 242.212 350.175 238.26V238.247C350.174 236.254 350.574 234.282 351.352 232.447C351.483 232.132 351.639 231.827 351.795 231.522C351.857 231.401 351.909 231.273 351.975 231.152C353.254 228.793 355.146 226.822 357.452 225.449C359.758 224.076 362.392 223.352 365.075 223.352V223.303L365.068 200.347L342.396 200.378C342.399 196.48 340.871 192.738 338.141 189.956L338.12 189.935L338.02 189.835C335.931 187.749 333.27 186.33 330.374 185.757C327.477 185.183 324.476 185.481 321.749 186.614C319.023 187.747 316.694 189.663 315.056 192.12C313.419 194.577 312.547 197.463 312.55 200.416H309.278L289.809 200.437V200.451H289.761V200.437H289.661V223.358C293.613 223.358 297.403 224.928 300.197 227.722C302.991 230.517 304.561 234.306 304.561 238.258V238.275C304.561 240.268 304.161 242.24 303.384 244.075C303.252 244.389 303.093 244.694 302.941 244.999C302.879 245.12 302.827 245.249 302.761 245.37C301.483 247.729 299.59 249.699 297.285 251.072C294.979 252.445 292.345 253.17 289.661 253.17V275.969H289.613V275.932H289.599V275.991H289.647V276.091H289.758V276.015L312.6 275.984C312.606 279.941 314.182 283.733 316.983 286.528C319.783 289.323 323.579 290.89 327.535 290.887ZM342.261 125.113H342.448V125.103H342.261V125.113ZM138.7 426.869V426.831H115.955C115.927 422.893 114.345 419.125 111.552 416.349C108.759 413.573 104.982 412.014 101.044 412.01C97.1063 412.005 93.3263 413.558 90.5276 416.328C87.729 419.098 86.1384 422.862 86.1024 426.8L63.2603 426.773V404.073C59.3086 404.073 55.5187 402.503 52.7244 399.709C49.9301 396.914 48.3604 393.124 48.3604 389.173V389.158C48.3606 387.165 48.7608 385.193 49.5374 383.358C49.6694 383.044 49.8243 382.739 49.9803 382.434C50.0423 382.312 50.0943 382.184 50.1603 382.063C51.4384 379.703 53.3305 377.732 55.6365 376.359C57.9424 374.986 60.5765 374.262 63.2603 374.262V351.469H63.3083V351.507H86.0493C86.0772 355.444 87.66 359.212 90.4529 361.988C93.2458 364.764 97.0226 366.324 100.96 366.328C104.898 366.332 108.678 364.78 111.477 362.01C114.276 359.239 115.866 355.476 115.902 351.538L138.747 351.566V374.266C142.699 374.266 146.489 375.835 149.283 378.63C152.077 381.424 153.647 385.214 153.647 389.166V389.179C153.65 391.172 153.251 393.146 152.473 394.98C152.341 395.295 152.182 395.6 152.03 395.905C151.968 396.026 151.916 396.158 151.85 396.275C150.572 398.634 148.679 400.604 146.374 401.977C144.068 403.35 141.434 404.075 138.75 404.075V426.869H138.7ZM191.346 132.469V132.43H168.602C168.604 130.47 168.22 128.53 167.472 126.719C166.724 124.907 165.626 123.26 164.242 121.873C162.857 120.485 161.213 119.385 159.403 118.633C157.593 117.881 155.653 117.492 153.693 117.49C149.734 117.486 145.937 119.055 143.135 121.851C140.333 124.647 138.756 128.442 138.752 132.4L115.907 132.372V109.672C111.956 109.672 108.166 108.102 105.371 105.307C102.577 102.513 101.007 98.7239 101.007 94.7722V94.7576C101.006 92.7648 101.406 90.7923 102.184 88.9578C102.316 88.6428 102.471 88.338 102.627 88.033C102.689 87.912 102.741 87.7838 102.807 87.6628C104.086 85.3035 105.978 83.3336 108.284 81.9607C110.59 80.5878 113.224 79.863 115.907 79.863V57.0701H115.955V57.1082H138.7C138.728 61.0459 140.311 64.8125 143.104 67.5886C145.897 70.3647 149.674 71.9254 153.611 71.9294C157.549 71.9335 161.329 70.3814 164.128 67.6111C166.927 64.8408 168.517 61.0762 168.553 57.1384L191.395 57.1658V79.866C195.347 79.866 199.137 81.4359 201.931 84.2302C204.726 87.0245 206.295 90.8146 206.295 94.7664V94.78C206.295 96.7723 205.896 98.7442 205.121 100.58C204.986 100.898 204.827 101.199 204.674 101.504C204.612 101.625 204.56 101.754 204.497 101.875C203.218 104.235 201.325 106.206 199.018 107.579C196.712 108.952 194.077 109.676 191.392 109.675V132.469H191.346Z" fill="white"/>
</g>
<path d="M304.519 147.956H274.672V177.803H304.519V147.956Z" fill="white" stroke="white" stroke-width="0.711" stroke-miterlimit="10"/>
<path d="M388.478 351.476L365.259 351.484V351.5C365.259 361.5 369.231 371.091 376.303 378.162C383.374 385.233 392.965 389.206 402.965 389.206C412.965 389.206 422.556 385.233 429.627 378.162C436.698 371.091 440.671 361.5 440.671 351.5" fill="white"/>
<path d="M388.478 351.476L365.259 351.484V351.5C365.259 361.5 369.231 371.091 376.303 378.162C383.374 385.233 392.965 389.206 402.965 389.206C412.965 389.206 422.556 385.233 429.627 378.162C436.698 371.091 440.671 361.5 440.671 351.5" stroke="#ECE5F5" stroke-width="0.711" stroke-miterlimit="10"/>
<path fill-rule="evenodd" clip-rule="evenodd" d="M289.868 133.389V333.066L205.786 279.489L289.868 133.389ZM290.008 350.508V419.718L205.786 296.786L290.008 350.508Z" fill="url(#paint0_linear)"/>
<path opacity="0.579" fill-rule="evenodd" clip-rule="evenodd" d="M365.309 264.474L373.95 279.489L289.868 333.071V133.389L320.734 187.02C319.417 187.715 318.21 188.605 317.154 189.661C315.771 191.045 314.673 192.687 313.924 194.495C313.175 196.303 312.79 198.24 312.79 200.197H290.097L290.068 223.039C292.028 223.041 293.969 223.429 295.779 224.181C297.589 224.933 299.234 226.034 300.618 227.422C302.003 228.809 303.101 230.456 303.849 232.268C304.597 234.08 304.982 236.021 304.979 237.981C304.977 239.942 304.589 241.882 303.837 243.693C303.085 245.503 301.984 247.147 300.597 248.532C297.794 251.328 293.996 252.897 290.037 252.893L290.037 275.637H290V275.685H312.794C312.794 278.369 313.519 281.002 314.892 283.308C316.264 285.614 318.235 287.506 320.594 288.785C320.663 288.822 320.735 288.855 320.807 288.889C320.86 288.913 320.913 288.938 320.965 288.964C321.265 289.119 321.573 289.275 321.888 289.409C323.723 290.185 325.695 290.585 327.688 290.584H327.701C331.653 290.584 335.443 289.014 338.237 286.22C341.031 283.426 342.601 279.636 342.601 275.684H365.295L365.309 264.474ZM357.238 250.45L350.431 238.622C350.606 242.317 352.149 245.826 354.774 248.457C355.528 249.213 356.355 249.879 357.238 250.45ZM289.868 419.718V350.508L373.95 296.786L289.868 419.718Z" fill="url(#paint1_linear)"/>
<path d="M63.2633 374.269C60.5797 374.269 57.9459 374.993 55.6401 376.366C53.3342 377.739 51.442 379.71 50.1633 382.069C50.0973 382.189 50.0463 382.317 49.9833 382.439C49.8293 382.744 49.6723 383.047 49.5393 383.364C48.7626 385.199 48.363 387.171 48.3643 389.164V389.178C48.3643 393.13 49.9341 396.919 52.7284 399.714C55.5227 402.508 59.3125 404.078 63.2643 404.078V426.769L86.1063 426.799C86.1102 422.84 87.6867 419.045 90.4889 416.248C91.8764 414.864 93.523 413.766 95.3348 413.017C97.1466 412.269 99.088 411.885 101.048 411.887C103.009 411.889 104.949 412.277 106.759 413.029C108.57 413.781 110.214 414.882 111.599 416.269C112.984 417.657 114.081 419.304 114.83 421.115C115.578 422.927 115.962 424.869 115.96 426.829H138.703V426.866H138.752V404.074C141.436 404.074 144.07 403.349 146.375 401.976C148.681 400.603 150.573 398.633 151.852 396.274C151.917 396.155 151.968 396.026 152.031 395.904C152.185 395.604 152.342 395.295 152.475 394.979C153.252 393.144 153.652 391.171 153.65 389.179V389.166C153.65 385.214 152.08 381.424 149.286 378.63C146.492 375.836 142.702 374.266 138.75 374.266V351.574L115.908 351.545C115.904 355.504 114.327 359.299 111.525 362.095C108.723 364.891 104.924 366.46 100.965 366.456C97.0064 366.452 93.2113 364.875 90.415 362.073C87.6186 359.27 86.05 355.472 86.0543 351.513H63.3123V351.476H63.2633V374.269Z" stroke="#ECE5F5" stroke-width="0.711" stroke-miterlimit="10"/>
<path d="M246.237 413.165C246.189 413.152 246.144 413.132 246.101 413.107C246.188 413.07 246.279 413.042 246.367 413.007C246.321 413.061 246.291 413.137 246.237 413.165ZM365.077 223.31V223.359C362.394 223.359 359.76 224.083 357.454 225.456C355.148 226.829 353.256 228.8 351.977 231.159C351.911 231.279 351.86 231.407 351.798 231.529C351.643 231.829 351.486 232.138 351.353 232.453C350.577 234.288 350.177 236.26 350.178 238.253V238.266C350.178 242.218 351.748 246.007 354.542 248.802C357.337 251.596 361.127 253.166 365.078 253.166V275.859H365.127V275.945H342.449C342.453 279.903 340.884 283.702 338.088 286.504C336.704 287.891 335.059 288.992 333.249 289.744C331.439 290.496 329.498 290.884 327.538 290.886C323.58 290.89 319.782 289.321 316.98 286.525C314.178 283.728 312.601 279.933 312.597 275.975L289.754 276.005V276.08H289.637V275.98H289.592V275.917H289.606V275.954H289.655V253.164C292.339 253.164 294.973 252.439 297.278 251.066C299.584 249.693 301.476 247.723 302.755 245.364C302.821 245.244 302.871 245.116 302.934 244.993C303.088 244.693 303.246 244.386 303.378 244.069C304.155 242.234 304.555 240.261 304.554 238.269V238.254C304.554 234.302 302.984 230.512 300.19 227.718C297.396 224.924 293.606 223.354 289.654 223.354V200.436L312.539 200.412C312.537 198.452 312.921 196.51 313.67 194.699C314.418 192.887 315.516 191.241 316.9 189.853C318.285 188.466 319.929 187.365 321.739 186.613C323.55 185.861 325.49 185.473 327.45 185.471C329.41 185.469 331.352 185.853 333.163 186.601C334.975 187.35 336.622 188.447 338.009 189.832C339.396 191.217 340.497 192.861 341.249 194.671C342.001 196.481 342.389 198.422 342.391 200.382V200.382L365.067 200.352L365.077 223.31ZM416.662 125.06C416.662 129.018 415.09 132.813 412.291 135.612C409.493 138.411 405.697 139.983 401.739 139.983C397.781 139.983 393.986 138.411 391.187 135.612C388.388 132.813 386.816 129.018 386.816 125.06L359.691 125.11H289.737V125.156L289.637 125.136H266.937C266.937 121.184 265.367 117.394 262.573 114.6C259.779 111.806 255.989 110.236 252.037 110.236H252.023C250.031 110.235 248.058 110.635 246.223 111.411C245.908 111.544 245.604 111.702 245.3 111.856C245.177 111.918 245.049 111.969 244.929 112.035C242.57 113.314 240.6 115.206 239.227 117.512C237.854 119.817 237.129 122.451 237.129 125.135H214.347V125.183H214.384V147.93C218.343 147.926 222.141 149.494 224.943 152.29C227.745 155.086 229.322 158.881 229.326 162.84C229.33 166.798 227.762 170.597 224.966 173.399C222.17 176.201 218.375 177.778 214.416 177.782L214.445 200.606H214.215V200.569V200.521H191.427C191.427 197.837 190.703 195.203 189.33 192.898C187.957 190.592 185.987 188.7 183.627 187.421C183.507 187.355 183.379 187.304 183.256 187.241C182.956 187.087 182.648 186.93 182.332 186.797C180.497 186.02 178.525 185.621 176.532 185.622H176.519C174.563 185.622 172.625 186.007 170.817 186.756C169.01 187.505 167.367 188.602 165.983 189.986C164.6 191.37 163.502 193.012 162.753 194.82C162.005 196.628 161.619 198.565 161.619 200.522H138.927L138.897 223.365C140.857 223.367 142.798 223.755 144.608 224.507C146.418 225.259 148.062 226.36 149.447 227.748C150.832 229.135 151.929 230.782 152.677 232.593C153.426 234.405 153.81 236.346 153.808 238.306C153.806 240.266 153.418 242.207 152.666 244.017C151.914 245.827 150.812 247.472 149.425 248.856C148.038 250.241 146.391 251.338 144.579 252.087C142.768 252.835 140.826 253.219 138.866 253.217V275.965H138.83V276.013H138.848V298.699C134.897 298.699 131.107 300.269 128.312 303.063C125.518 305.857 123.948 309.647 123.948 313.599V313.599V313.612C123.947 315.604 124.347 317.577 125.123 319.412C125.257 319.729 125.413 320.033 125.568 320.337C125.63 320.459 125.682 320.587 125.747 320.708C127.026 323.067 128.918 325.037 131.224 326.41C133.53 327.783 136.164 328.508 138.847 328.508V351.299H138.894V351.262H161.637C161.635 349.302 162.019 347.36 162.767 345.549C163.516 343.737 164.613 342.09 165.998 340.703C167.383 339.316 169.027 338.214 170.837 337.462C172.647 336.71 174.588 336.322 176.548 336.32C178.508 336.318 180.449 336.702 182.261 337.451C184.073 338.199 185.719 339.297 187.107 340.681C188.494 342.066 189.595 343.71 190.347 345.52C191.099 347.33 191.487 349.271 191.489 351.231V351.231L214.331 351.201L214.442 351.471L214.216 351.514V351.477H214.167V374.269C211.484 374.269 208.85 374.993 206.544 376.366C204.238 377.739 202.346 379.71 201.067 382.069C201.002 382.189 200.951 382.317 200.888 382.439C200.734 382.744 200.577 383.047 200.444 383.364C199.668 385.199 199.268 387.171 199.269 389.164V389.178C199.269 393.13 200.839 396.919 203.633 399.714C206.428 402.508 210.218 404.078 214.169 404.078V426.769H214.643L214.343 426.892V426.939H214.38V449.684C218.339 449.68 222.137 451.248 224.939 454.045C227.741 456.841 229.318 460.636 229.322 464.594C229.326 468.553 227.757 472.351 224.961 475.153C222.165 477.955 218.37 479.532 214.411 479.536L214.44 502.378H237.137C237.137 506.33 238.707 510.119 241.501 512.914C244.296 515.708 248.086 517.278 252.037 517.278H252.049C254.042 517.279 256.014 516.88 257.849 516.103C258.164 515.969 258.468 515.813 258.773 515.658C258.895 515.597 259.023 515.544 259.143 515.48C261.503 514.201 263.473 512.309 264.846 510.003C266.219 507.697 266.943 505.063 266.943 502.38H289.737V502.331H289.705V479.588C287.735 479.606 285.78 479.234 283.955 478.493C282.129 477.752 280.468 476.656 279.068 475.27C277.667 473.884 276.555 472.234 275.795 470.416C275.036 468.598 274.644 466.647 274.642 464.677C274.64 462.707 275.028 460.755 275.783 458.935C276.539 457.116 277.648 455.464 279.046 454.075C280.443 452.686 282.102 451.587 283.926 450.842C285.75 450.097 287.704 449.721 289.674 449.735L289.645 426.893L312.485 426.916H312.533C312.533 429.599 313.258 432.233 314.631 434.539C316.004 436.845 317.974 438.737 320.333 440.016C320.453 440.082 320.581 440.133 320.703 440.195C321.003 440.35 321.311 440.506 321.627 440.64C323.462 441.417 325.435 441.816 327.427 441.815H327.441C331.393 441.815 335.183 440.245 337.977 437.451C340.771 434.656 342.341 430.867 342.341 426.915H365.041L365.071 404.071C361.113 404.067 357.318 402.49 354.522 399.688C351.725 396.886 350.157 393.088 350.161 389.129C350.165 385.171 351.741 381.376 354.543 378.58C357.346 375.783 361.144 374.215 365.102 374.219L365.254 351.199L365.388 351.49L388.131 351.499C388.128 353.45 388.51 355.382 389.254 357.185C389.998 358.988 391.09 360.627 392.468 362.008C393.846 363.389 395.482 364.485 397.283 365.234C399.084 365.982 401.016 366.369 402.966 366.371H402.98C405.034 366.371 409.951 364.638 410.071 364.571C412.431 363.292 414.401 361.4 415.774 359.094C417.147 356.788 417.871 354.154 417.871 351.471H440.663V351.421H440.626V328.677C438.656 328.695 436.701 328.323 434.876 327.581C433.05 326.84 431.389 325.745 429.989 324.359C428.588 322.973 427.476 321.323 426.717 319.505C425.957 317.686 425.565 315.736 425.563 313.765C425.561 311.795 425.949 309.844 426.705 308.024C427.461 306.204 428.57 304.552 429.967 303.163C431.365 301.774 433.024 300.676 434.848 299.931C436.672 299.186 438.626 298.81 440.596 298.824L440.583 253.213V253.164C443.267 253.164 445.901 252.439 448.206 251.066C450.512 249.693 452.404 247.723 453.683 245.364C453.748 245.244 453.799 245.116 453.861 244.993C454.016 244.693 454.173 244.385 454.307 244.069C455.083 242.234 455.482 240.261 455.482 238.269V238.254C455.482 234.302 453.912 230.512 451.118 227.718C448.324 224.924 444.534 223.354 440.582 223.354V223.305L440.625 177.826C438.655 177.844 436.7 177.472 434.875 176.73C433.049 175.989 431.388 174.894 429.988 173.508C428.587 172.122 427.475 170.472 426.716 168.654C425.956 166.835 425.564 164.885 425.562 162.914C425.56 160.944 425.948 158.993 426.704 157.173C427.46 155.353 428.569 153.701 429.966 152.312C431.364 150.923 433.023 149.825 434.847 149.08C436.671 148.335 438.625 147.959 440.595 147.973L440.565 125.131L416.662 125.06Z" stroke="#ECE5F5" stroke-width="0.711" stroke-miterlimit="10"/>
<path d="M115.91 79.8719C113.226 79.8718 110.592 80.5965 108.287 81.9694C105.981 83.3424 104.088 85.3125 102.81 87.6719C102.745 87.7919 102.693 87.9199 102.631 88.0429C102.476 88.3429 102.32 88.6509 102.186 88.9659C101.41 90.801 101.01 92.7734 101.011 94.7659V94.7789C101.011 98.7306 102.581 102.52 105.375 105.315C108.169 108.109 111.959 109.679 115.911 109.679V132.373L138.755 132.402C138.759 128.443 140.336 124.648 143.138 121.852C145.94 119.056 149.738 117.488 153.697 117.492C157.655 117.496 161.45 119.073 164.246 121.875C167.042 124.677 168.611 128.475 168.607 132.434H191.351V132.471H191.399V109.678C194.082 109.678 196.716 108.953 199.022 107.58C201.328 106.207 203.22 104.237 204.499 101.878C204.563 101.758 204.615 101.63 204.677 101.507C204.831 101.207 204.988 100.9 205.122 100.584C205.897 98.7485 206.297 96.7764 206.298 94.7839V94.7679C206.298 92.8112 205.912 90.8736 205.164 89.0659C204.415 87.2581 203.317 85.6156 201.934 84.232C200.55 82.8484 198.907 81.7509 197.1 81.0021C195.292 80.2533 193.354 79.8679 191.398 79.8679V57.1749L168.556 57.1459C168.554 59.1061 168.166 61.0468 167.414 62.857C166.662 64.6673 165.56 66.3117 164.173 67.6963C162.785 69.081 161.139 70.1788 159.327 70.9271C157.515 71.6753 155.573 72.0594 153.613 72.0574C151.653 72.0553 149.712 71.6672 147.902 70.9152C146.092 70.1632 144.447 69.0619 143.063 67.6744C140.266 64.8721 138.698 61.0738 138.702 57.1149H115.958V57.0779H115.91V79.8719Z" stroke="#ECE5F5" stroke-width="0.711" stroke-miterlimit="10"/>
<path d="M205.929 384.504C205.967 384.428 205.999 384.348 206.039 384.274" stroke="#ECE5F5" stroke-width="0.711" stroke-miterlimit="10"/>
<path d="M138.593 299.171L138.586 276.04H138.57C128.642 276.091 119.137 280.071 112.135 287.11C105.132 294.149 101.201 303.674 101.201 313.602C101.201 323.531 105.132 333.056 112.135 340.095C119.137 347.134 128.642 351.114 138.57 351.165" stroke="#ECE5F5" stroke-width="0.711" stroke-miterlimit="10"/>
<path d="M312.528 426.916C312.528 429.599 313.253 432.233 314.626 434.539C315.999 436.845 317.969 438.737 320.328 440.016C320.448 440.082 320.576 440.133 320.699 440.195C320.999 440.35 321.306 440.506 321.622 440.64C323.457 441.416 325.43 441.816 327.422 441.815H327.435C329.393 441.816 331.331 441.431 333.139 440.683C334.948 439.934 336.591 438.837 337.976 437.453C339.36 436.07 340.458 434.427 341.207 432.618C341.957 430.81 342.342 428.872 342.342 426.915V426.915H365.042L365.072 404.071C363.112 404.069 361.172 403.681 359.362 402.929C357.551 402.177 355.907 401.076 354.523 399.688C353.138 398.301 352.04 396.654 351.292 394.842C350.544 393.031 350.16 391.089 350.162 389.129C350.164 387.169 350.552 385.229 351.304 383.419C352.056 381.608 353.157 379.964 354.544 378.58C355.932 377.195 357.579 376.097 359.39 375.349C361.202 374.601 363.143 374.217 365.103 374.219V351.476H365.14V351.428H342.337C342.337 348.744 341.613 346.11 340.24 343.805C338.867 341.499 336.897 339.607 334.537 338.328C334.416 338.263 334.288 338.212 334.166 338.15C333.866 337.996 333.558 337.839 333.242 337.705C331.407 336.929 329.435 336.529 327.442 336.529H327.437C323.486 336.529 319.696 338.099 316.901 340.893C314.107 343.687 312.537 347.477 312.537 351.429H289.837L289.808 374.271C293.746 374.307 297.51 375.898 300.28 378.696C303.05 381.495 304.602 385.275 304.598 389.213C304.594 393.151 303.034 396.928 300.258 399.721C297.481 402.513 293.714 404.096 289.776 404.124V426.868H289.737V426.917H312.524L312.528 426.916Z" stroke="#ECE5F5" stroke-width="0.711" stroke-miterlimit="10"/>
<path d="M365.077 223.359C362.393 223.359 359.759 224.084 357.454 225.456C355.148 226.829 353.256 228.8 351.977 231.159C351.911 231.279 351.86 231.407 351.797 231.529C351.643 231.829 351.486 232.138 351.353 232.453C350.576 234.288 350.176 236.26 350.177 238.253V238.266C350.177 242.218 351.747 246.007 354.541 248.802C357.335 251.596 361.125 253.166 365.077 253.166V275.859L387.92 275.888C387.956 271.95 389.547 268.186 392.345 265.416C395.144 262.646 398.924 261.094 402.862 261.098C406.8 261.102 410.577 262.662 413.37 265.439C416.162 268.215 417.745 271.982 417.773 275.92H440.517V275.957H440.566V253.164C443.249 253.164 445.883 252.439 448.189 251.066C450.495 249.693 452.387 247.723 453.666 245.364C453.732 245.244 453.783 245.116 453.844 244.993C453.999 244.693 454.156 244.386 454.29 244.069C455.066 242.234 455.465 240.261 455.465 238.269V238.254C455.465 234.302 453.895 230.512 451.101 227.718C448.306 224.924 444.516 223.354 440.565 223.354V200.654L417.722 200.624C417.72 202.584 417.332 204.525 416.58 206.335C415.828 208.145 414.727 209.789 413.339 211.174C411.952 212.558 410.305 213.656 408.494 214.404C406.682 215.153 404.741 215.537 402.781 215.535C400.821 215.533 398.88 215.145 397.07 214.393C395.26 213.641 393.615 212.54 392.231 211.153C390.846 209.765 389.748 208.119 389 206.307C388.252 204.495 387.868 202.554 387.87 200.594H365.126V200.557H365.077V223.359Z" stroke="#ECE5F5" stroke-width="0.711" stroke-miterlimit="10"/>
<path d="M365.237 298.652V275.909H365.19V275.946H342.449C342.452 279.905 340.884 283.703 338.087 286.505C336.703 287.892 335.058 288.993 333.248 289.745C331.438 290.497 329.498 290.885 327.538 290.887C323.579 290.891 319.781 289.322 316.979 286.526C314.177 283.729 312.6 279.935 312.596 275.976V275.976L289.754 276.007V298.699C285.802 298.699 282.012 300.269 279.218 303.063C276.423 305.857 274.854 309.647 274.854 313.599V313.599V313.612C274.853 315.604 275.252 317.577 276.029 319.412C276.163 319.729 276.319 320.032 276.474 320.337C276.536 320.459 276.587 320.587 276.652 320.708C277.931 323.067 279.823 325.037 282.129 326.41C284.435 327.783 287.069 328.508 289.753 328.508V351.299H289.801V351.262H312.544C312.571 347.324 314.154 343.557 316.947 340.781C319.74 338.005 323.517 336.445 327.455 336.441C331.393 336.437 335.172 337.989 337.971 340.759C340.77 343.529 342.36 347.293 342.397 351.231L365.238 351.437V328.505C369.19 328.505 372.98 326.935 375.774 324.141C378.569 321.347 380.139 317.557 380.139 313.605V313.589C380.139 311.597 379.74 309.624 378.965 307.789C378.831 307.473 378.672 307.169 378.518 306.864C378.456 306.743 378.406 306.614 378.341 306.495C377.062 304.136 375.17 302.165 372.864 300.792C370.558 299.42 367.924 298.695 365.241 298.695L365.237 298.652Z" stroke="#ECE5F5" stroke-width="0.711" stroke-miterlimit="10"/>
<path d="M365.237 147.805V125.062H365.19V125.099H342.449C342.452 129.057 340.884 132.855 338.087 135.657C336.703 137.045 335.058 138.146 333.248 138.898C331.438 139.65 329.498 140.038 327.538 140.04C323.579 140.044 319.781 138.475 316.979 135.679C314.177 132.882 312.6 129.087 312.596 125.129L289.754 125.159V147.854C287.797 147.854 285.859 148.239 284.052 148.988C282.244 149.737 280.601 150.834 279.218 152.218C277.834 153.601 276.736 155.244 275.988 157.052C275.239 158.86 274.854 160.797 274.854 162.754V162.754V162.768C274.853 164.76 275.252 166.733 276.029 168.568C276.163 168.885 276.319 169.188 276.474 169.493C276.536 169.615 276.587 169.743 276.652 169.863C277.931 172.222 279.823 174.192 282.129 175.565C284.435 176.938 287.069 177.663 289.753 177.663V200.456H289.802V200.419H312.544C312.572 196.481 314.155 192.714 316.948 189.938C319.741 187.162 323.518 185.602 327.456 185.597C331.394 185.593 335.173 187.146 337.972 189.916C340.771 192.686 342.361 196.45 342.397 200.388V200.388L365.24 200.358V177.659C369.191 177.659 372.981 176.089 375.775 173.295C378.57 170.5 380.139 166.71 380.139 162.759V162.744C380.14 160.751 379.741 158.779 378.966 156.944C378.832 156.628 378.674 156.324 378.52 156.019C378.458 155.898 378.406 155.769 378.341 155.649C377.063 153.289 375.171 151.319 372.865 149.946C370.559 148.573 367.925 147.849 365.242 147.849L365.237 147.805Z" stroke="#ECE5F5" stroke-width="0.711" stroke-miterlimit="10"/>
<path d="M214.17 374.269C211.487 374.269 208.853 374.993 206.547 376.366C204.241 377.739 202.349 379.71 201.07 382.069C201.004 382.189 200.953 382.317 200.89 382.439C200.736 382.744 200.579 383.047 200.446 383.364C199.67 385.199 199.27 387.171 199.271 389.164V389.178C199.271 393.13 200.841 396.919 203.636 399.714C206.43 402.508 210.22 404.078 214.171 404.078V426.769L237.014 426.799C237.05 422.861 238.641 419.097 241.439 416.327C244.238 413.556 248.018 412.004 251.956 412.008C255.894 412.012 259.671 413.572 262.464 416.348C265.257 419.124 266.839 422.891 266.867 426.829H289.609V426.866H289.658V404.074C292.342 404.074 294.976 403.349 297.282 401.976C299.587 400.603 301.48 398.633 302.758 396.274C302.823 396.155 302.875 396.026 302.937 395.904C303.091 395.604 303.248 395.295 303.381 394.979C304.158 393.144 304.558 391.171 304.557 389.179V389.166C304.557 385.214 302.988 381.424 300.193 378.63C297.399 375.836 293.609 374.266 289.657 374.266V351.574L266.815 351.545C266.779 355.483 265.189 359.246 262.39 362.017C259.591 364.787 255.811 366.339 251.873 366.335C247.935 366.33 244.159 364.77 241.366 361.994C238.573 359.218 236.99 355.451 236.962 351.513H214.215V351.476H214.166V374.269H214.17Z" stroke="#ECE5F5" stroke-width="0.711" stroke-miterlimit="10"/>
<path d="M266.994 502.378H289.737V502.329H289.704V479.588C285.766 479.56 281.999 477.977 279.223 475.184C276.447 472.391 274.887 468.614 274.883 464.676C274.879 460.738 276.431 456.959 279.202 454.16C281.972 451.361 285.736 449.771 289.674 449.735V449.735L289.644 426.893H266.944C266.944 422.941 265.374 419.151 262.58 416.357C259.785 413.563 255.995 411.993 252.044 411.993H252.031C250.038 411.992 248.066 412.392 246.231 413.168C245.915 413.302 245.611 413.459 245.307 413.613C245.184 413.676 245.056 413.727 244.936 413.792C242.576 415.071 240.606 416.963 239.233 419.269C237.86 421.575 237.136 424.208 237.136 426.892H214.347V426.939H214.384V449.684C216.344 449.682 218.285 450.066 220.097 450.814C221.909 451.562 223.555 452.66 224.943 454.044C226.33 455.429 227.431 457.073 228.183 458.883C228.935 460.693 229.324 462.634 229.326 464.594C229.328 466.554 228.944 468.495 228.196 470.307C227.447 472.119 226.35 473.765 224.965 475.153C223.581 476.54 221.936 477.642 220.126 478.394C218.316 479.146 216.376 479.534 214.416 479.536L214.445 502.379H237.137C237.137 506.331 238.706 510.121 241.501 512.915C244.295 515.709 248.085 517.279 252.037 517.279H252.05C254.042 517.28 256.015 516.881 257.85 516.104C258.165 515.97 258.469 515.814 258.774 515.659C258.896 515.598 259.024 515.546 259.144 515.481C261.503 514.202 263.473 512.31 264.846 510.004C266.219 507.698 266.944 505.065 266.944 502.381L266.994 502.378Z" stroke="#ECE5F5" stroke-width="0.711" stroke-miterlimit="10"/>
<path d="M161.621 276.004C161.621 278.688 162.346 281.321 163.719 283.627C165.092 285.933 167.062 287.825 169.421 289.104C169.541 289.17 169.669 289.221 169.791 289.283C170.091 289.437 170.4 289.594 170.715 289.728C172.55 290.504 174.523 290.903 176.515 290.903H176.528C180.48 290.903 184.27 289.333 187.064 286.539C189.858 283.744 191.428 279.955 191.428 276.003H214.121L214.15 253.161C210.212 253.125 206.448 251.534 203.678 248.735C200.908 245.936 199.356 242.156 199.36 238.219C199.364 234.281 200.925 230.504 203.701 227.711C206.477 224.918 210.244 223.336 214.182 223.308V200.566H214.219V200.518H191.427C191.427 197.834 190.702 195.201 189.33 192.895C187.957 190.589 185.986 188.697 183.627 187.418C183.507 187.352 183.379 187.301 183.256 187.238C182.956 187.084 182.648 186.927 182.332 186.794C180.497 186.017 178.525 185.618 176.532 185.619H176.519C172.567 185.619 168.777 187.189 165.983 189.983C163.189 192.777 161.619 196.567 161.619 200.519H138.927L138.897 223.362C142.856 223.366 146.651 224.943 149.447 227.745C152.243 230.547 153.812 234.345 153.808 238.303C153.803 242.262 152.227 246.057 149.425 248.853C146.623 251.649 142.825 253.218 138.866 253.214V275.962H138.83V276.01H161.621V276.004Z" stroke="#ECE5F5" stroke-width="0.711" stroke-miterlimit="10"/>
<path d="M214.17 223.359C211.487 223.359 208.853 224.084 206.547 225.456C204.241 226.829 202.349 228.8 201.07 231.159C201.004 231.279 200.953 231.407 200.89 231.529C200.736 231.829 200.579 232.138 200.446 232.453C199.67 234.288 199.27 236.26 199.271 238.253V238.266C199.271 242.218 200.841 246.007 203.636 248.802C206.43 251.596 210.22 253.166 214.171 253.166V275.859L237.014 275.888C237.051 271.95 238.641 268.186 241.44 265.416C244.239 262.646 248.019 261.094 251.957 261.098C255.895 261.102 259.671 262.662 262.464 265.439C265.257 268.215 266.84 271.982 266.867 275.92H289.609V275.957H289.658V253.164C292.342 253.164 294.976 252.439 297.282 251.066C299.587 249.693 301.48 247.723 302.758 245.364C302.823 245.244 302.875 245.116 302.937 244.993C303.091 244.693 303.248 244.386 303.381 244.069C304.158 242.234 304.558 240.261 304.557 238.269V238.254C304.557 234.302 302.988 230.512 300.193 227.718C297.399 224.924 293.609 223.354 289.657 223.354V200.654L266.815 200.624C266.78 204.562 265.189 208.326 262.39 211.096C259.592 213.866 255.812 215.419 251.874 215.415C247.936 215.411 244.159 213.851 241.366 211.075C238.573 208.299 236.991 204.532 236.962 200.594H214.215V200.557H214.166V223.349L214.17 223.359Z" stroke="#ECE5F5" stroke-width="0.711" stroke-miterlimit="10"/>
<path d="M266.994 351.47H289.737V351.42H289.704V328.677C285.766 328.649 281.999 327.066 279.223 324.273C276.447 321.48 274.887 317.703 274.883 313.765C274.879 309.827 276.431 306.047 279.202 303.249C281.972 300.45 285.736 298.86 289.674 298.824V298.824L289.644 275.982H266.944C266.944 272.03 265.374 268.24 262.58 265.446C259.785 262.652 255.995 261.082 252.044 261.082H252.031C250.038 261.081 248.066 261.481 246.231 262.257C245.915 262.391 245.611 262.548 245.307 262.702C245.184 262.764 245.056 262.815 244.936 262.881C242.576 264.16 240.606 266.052 239.233 268.358C237.86 270.663 237.136 273.297 237.136 275.981H214.347V276.03H214.384V298.773C218.321 298.8 222.089 300.383 224.865 303.176C227.641 305.969 229.201 309.746 229.206 313.683C229.21 317.621 227.658 321.401 224.888 324.2C222.117 326.999 218.353 328.59 214.416 328.626L214.445 351.469H237.137C237.137 355.421 238.706 359.21 241.501 362.005C244.295 364.799 248.085 366.369 252.037 366.369H252.048C254.04 366.37 256.013 365.97 257.848 365.194C258.163 365.061 258.467 364.904 258.772 364.749C258.894 364.687 259.022 364.636 259.142 364.57C261.501 363.291 263.471 361.399 264.844 359.093C266.217 356.787 266.942 354.153 266.942 351.47H266.994Z" stroke="#ECE5F5" stroke-width="0.711" stroke-miterlimit="10"/>
<path d="M214.337 298.652V275.909H214.289V275.946H191.537C191.541 279.905 189.973 283.703 187.176 286.505C185.792 287.892 184.147 288.993 182.337 289.745C180.527 290.497 178.586 290.885 176.626 290.887C172.668 290.891 168.87 289.322 166.068 286.526C163.266 283.729 161.689 279.935 161.685 275.976L138.843 276.007V298.699C134.892 298.699 131.102 300.269 128.307 303.063C125.513 305.857 123.943 309.647 123.943 313.599V313.599V313.612C123.943 315.604 124.342 317.577 125.118 319.412C125.252 319.729 125.408 320.032 125.563 320.337C125.625 320.459 125.677 320.587 125.742 320.708C127.021 323.067 128.913 325.037 131.219 326.41C133.525 327.783 136.159 328.508 138.842 328.508V351.299H138.889V351.262H161.637C161.635 349.302 162.019 347.361 162.768 345.549C163.516 343.737 164.614 342.091 165.998 340.703C167.383 339.316 169.027 338.215 170.837 337.463C172.647 336.711 174.588 336.322 176.548 336.32C178.508 336.318 180.449 336.702 182.261 337.451C184.073 338.199 185.719 339.297 187.107 340.681C188.494 342.066 189.595 343.71 190.347 345.52C191.099 347.33 191.487 349.271 191.489 351.231L214.331 351.201V328.501C218.283 328.501 222.073 326.931 224.867 324.137C227.662 321.343 229.231 317.553 229.231 313.601V313.585C229.232 311.592 228.833 309.62 228.056 307.785C227.922 307.469 227.766 307.165 227.611 306.86C227.549 306.739 227.498 306.61 227.433 306.491C226.155 304.132 224.262 302.161 221.957 300.788C219.651 299.416 217.017 298.691 214.333 298.691L214.337 298.652Z" stroke="#ECE5F5" stroke-width="0.711" stroke-miterlimit="10"/>
<path d="M365.018 72.4058L365.055 53.5758C365.072 55.0675 364.794 56.5479 364.238 57.9323C363.682 59.3166 362.859 60.5777 361.815 61.6434C360.771 62.709 359.527 63.5582 358.154 64.1424C356.781 64.7266 355.307 65.0343 353.815 65.048C352.323 65.0616 350.844 64.7808 349.461 64.2217C348.077 63.6627 346.818 62.8363 345.755 61.7899C344.692 60.7435 343.845 59.4976 343.264 58.1237C342.683 56.7497 342.378 55.2746 342.368 53.7828C342.368 53.7161 342.368 53.6471 342.368 53.5758V53.3988C342.393 49.45 340.848 45.6531 338.074 42.8431C335.3 40.0331 331.523 38.4402 327.574 38.4148H327.364C323.347 38.4217 319.498 40.0238 316.663 42.8687C313.827 45.7136 312.238 49.5683 312.245 53.5848V53.9428C312.272 56.8648 311.138 59.6781 309.091 61.7637C307.044 63.8492 304.253 65.0363 301.331 65.0638C301.224 65.0638 301.117 65.0638 301.01 65.0638C298.225 65.0497 295.542 64.0153 293.468 62.1563C291.394 60.2973 290.073 57.7427 289.756 54.9758L289.704 125.059H289.667V125.108H312.46C312.46 127.791 313.185 130.425 314.558 132.731C315.93 135.037 317.901 136.929 320.26 138.208C320.38 138.274 320.508 138.325 320.63 138.388C320.93 138.542 321.238 138.699 321.555 138.832C323.39 139.608 325.362 140.008 327.355 140.007H327.369C331.321 140.007 335.111 138.437 337.905 135.643C340.699 132.848 342.269 129.059 342.269 125.107H364.969L364.999 102.265C361.04 102.261 357.245 100.684 354.448 97.8822C351.652 95.08 350.083 91.2817 350.087 87.3228C350.091 83.3639 351.667 79.5687 354.47 76.7722C357.272 73.9757 361.07 72.4068 365.029 72.4108L365.018 72.4058Z" fill="white" stroke="#ECE5F5" stroke-width="0.711" stroke-miterlimit="10"/>
<path d="M402.95 185.643C399.999 185.643 397.113 186.518 394.659 188.157C392.204 189.797 390.291 192.128 389.162 194.855C388.032 197.582 387.736 200.583 388.312 203.478C388.888 206.373 390.309 209.032 392.396 211.119C394.483 213.207 397.142 214.628 400.037 215.204C402.932 215.78 405.933 215.484 408.66 214.355C411.387 213.225 413.718 211.313 415.358 208.858C416.998 206.404 417.873 203.519 417.873 200.567C417.873 196.609 416.301 192.813 413.503 190.014C410.704 187.216 406.908 185.643 402.95 185.643V185.643Z" fill="white" stroke="#ECE5F5" stroke-width="0.711" stroke-miterlimit="10"/>
<path d="M304.519 147.956H274.672V177.803H304.519V147.956Z" fill="#FEFEFE" stroke="#ECE5F5" stroke-width="0.711" stroke-miterlimit="10"/>
<path d="M436.072 76.5989H360.582C357.898 76.5988 355.264 77.3235 352.958 78.6964C350.653 80.0694 348.76 82.0395 347.482 84.3989C347.416 84.5179 347.365 84.6459 347.302 84.7689C347.148 85.0689 346.991 85.3779 346.858 85.6929C346.081 87.5278 345.681 89.5003 345.683 91.4929V91.5059C345.683 95.4576 347.252 99.2475 350.047 102.042C352.841 104.836 356.631 106.406 360.583 106.406H383.275C383.243 110.364 384.785 114.172 387.562 116.993C390.338 119.814 394.121 121.416 398.079 121.447C402.037 121.479 405.845 119.937 408.666 117.16C411.487 114.384 413.089 110.601 413.121 106.643C413.121 106.564 413.121 106.485 413.121 106.406H436.072C438.755 106.406 441.389 105.681 443.695 104.308C446.001 102.935 447.893 100.965 449.172 98.6059C449.238 98.4869 449.289 98.3589 449.351 98.2359C449.505 97.9359 449.663 97.6269 449.796 97.3119C450.572 95.477 450.972 93.5044 450.97 91.5119V91.4989C450.97 87.5475 449.4 83.7579 446.606 80.9637C443.812 78.1695 440.023 76.5994 436.072 76.5989V76.5989Z" fill="#D1BFE6"/>
<path d="M440.482 72.1848H364.992C362.308 72.1847 359.674 72.9095 357.369 74.2824C355.063 75.6553 353.171 77.6255 351.892 79.9848C351.826 80.1038 351.775 80.2318 351.712 80.3548C351.558 80.6548 351.401 80.9628 351.268 81.2788C350.491 83.1138 350.092 85.0863 350.093 87.0788V87.0918C350.093 91.0435 351.663 94.8334 354.457 97.6277C357.251 100.422 361.041 101.992 364.993 101.992H387.686C387.666 103.954 388.034 105.901 388.768 107.72C389.502 109.54 390.587 111.198 391.962 112.597C393.337 113.997 394.975 115.112 396.781 115.878C398.588 116.645 400.527 117.047 402.49 117.063C404.452 117.078 406.398 116.707 408.216 115.969C410.034 115.232 411.69 114.143 413.087 112.765C414.484 111.387 415.595 109.748 416.358 107.94C417.121 106.132 417.519 104.191 417.531 102.229C417.531 102.15 417.531 102.071 417.531 101.992H440.482C443.165 101.992 445.799 101.267 448.105 99.8943C450.411 98.5213 452.303 96.5512 453.582 94.1918C453.648 94.0728 453.699 93.9438 453.761 93.8218C453.915 93.5218 454.073 93.2128 454.206 92.8968C454.983 91.062 455.382 89.0894 455.38 87.0968V87.0838C455.38 83.1326 453.81 79.3433 451.016 76.5493C448.222 73.7553 444.433 72.1853 440.482 72.1848V72.1848Z" fill="white" stroke="#D1BFE6" stroke-width="0.711" stroke-miterlimit="10"/>
<mask id="mask0" mask-type="alpha" maskUnits="userSpaceOnUse" x="350" y="72" width="106" height="46">
<path d="M440.389 72.2969H364.899C362.215 72.2968 359.582 73.0215 357.276 74.3944C354.97 75.7674 353.078 77.7375 351.799 80.0969C351.733 80.2159 351.682 80.3439 351.619 80.4669C351.465 80.7669 351.308 81.0749 351.175 81.3909C350.398 83.2258 349.999 85.1983 350 87.1909V87.2039C350 91.1556 351.57 94.9455 354.364 97.7398C357.158 100.534 360.948 102.104 364.9 102.104H387.593C387.574 104.066 387.941 106.013 388.675 107.833C389.409 109.652 390.494 111.31 391.869 112.709C393.244 114.109 394.882 115.224 396.688 115.99C398.495 116.757 400.435 117.159 402.397 117.175C404.359 117.19 406.305 116.819 408.123 116.081C409.942 115.344 411.597 114.255 412.994 112.877C414.391 111.499 415.503 109.86 416.265 108.052C417.028 106.244 417.426 104.303 417.438 102.341C417.438 102.262 417.438 102.183 417.438 102.104H440.389C443.073 102.104 445.706 101.379 448.012 100.006C450.318 98.6334 452.21 96.6632 453.489 94.3039C453.555 94.1849 453.606 94.0559 453.668 93.9339C453.822 93.6339 453.98 93.3249 454.113 93.0089C454.89 91.174 455.289 89.2014 455.287 87.2089V87.1959C455.287 83.2447 453.717 79.4554 450.923 76.6613C448.129 73.8673 444.34 72.2974 440.389 72.2969V72.2969Z" fill="white"/>
</mask>
<g mask="url(#mask0)">
<path d="M320.071 78.6987H470.926Z" fill="white"/>
<path d="M320.071 78.6987H470.926" stroke="#D1BFE6" stroke-width="0.711" stroke-miterlimit="10"/>
<path d="M320.071 86.2048H470.926Z" fill="white"/>
<path d="M320.071 86.2048H470.926" stroke="#D1BFE6" stroke-width="0.711" stroke-miterlimit="10"/>
<path d="M320.071 93.7148H470.926Z" fill="white"/>
<path d="M320.071 93.7148H470.926" stroke="#D1BFE6" stroke-width="0.711" stroke-miterlimit="10"/>
<path d="M320.071 101.225H470.926Z" fill="white"/>
<path d="M320.071 101.225H470.926" stroke="#D1BFE6" stroke-width="0.711" stroke-miterlimit="10"/>
<path d="M318.799 108.735H469.392Z" fill="white"/>
<path d="M318.799 108.735H469.392" stroke="#D1BFE6" stroke-width="0.711" stroke-miterlimit="10"/>
<path d="M318.799 116.245H465.292Z" fill="white"/>
<path d="M318.799 116.245H465.292" stroke="#D1BFE6" stroke-width="0.711" stroke-miterlimit="10"/>
<path d="M356.369 27.7349V176.504Z" fill="white"/>
<path d="M356.369 27.7349V176.504" stroke="#D1BFE6" stroke-width="0.711" stroke-miterlimit="10"/>
<path d="M363.879 27.7349V176.504Z" fill="white"/>
<path d="M363.879 27.7349V176.504" stroke="#D1BFE6" stroke-width="0.711" stroke-miterlimit="10"/>
<path d="M371.389 27.7349V176.504Z" fill="white"/>
<path d="M371.389 27.7349V176.504" stroke="#D1BFE6" stroke-width="0.711" stroke-miterlimit="10"/>
<path d="M378.899 37.6877V176.504Z" fill="white"/>
<path d="M378.899 37.6877V176.504" stroke="#D1BFE6" stroke-width="0.711" stroke-miterlimit="10"/>
<path d="M386.409 27.7349V176.504Z" fill="white"/>
<path d="M386.409 27.7349V176.504" stroke="#D1BFE6" stroke-width="0.711" stroke-miterlimit="10"/>
<path d="M393.919 37.6877V184.015Z" fill="white"/>
<path d="M393.919 37.6877V184.015" stroke="#D1BFE6" stroke-width="0.711" stroke-miterlimit="10"/>
<path d="M401.429 27.7349V184.014Z" fill="white"/>
<path d="M401.429 27.7349V184.014" stroke="#D1BFE6" stroke-width="0.711" stroke-miterlimit="10"/>
<path d="M408.938 33.533V176.504Z" fill="white"/>
<path d="M408.938 33.533V176.504" stroke="#D1BFE6" stroke-width="0.711" stroke-miterlimit="10"/>
<path d="M416.449 40.9529V176.504Z" fill="white"/>
<path d="M416.449 40.9529V176.504" stroke="#D1BFE6" stroke-width="0.711" stroke-miterlimit="10"/>
<path d="M423.959 40.9529V176.504Z" fill="white"/>
<path d="M423.959 40.9529V176.504" stroke="#D1BFE6" stroke-width="0.711" stroke-miterlimit="10"/>
<path d="M431.469 27.7349V176.504Z" fill="white"/>
<path d="M431.469 27.7349V176.504" stroke="#D1BFE6" stroke-width="0.711" stroke-miterlimit="10"/>
<path d="M438.979 27.7349V176.504Z" fill="white"/>
<path d="M438.979 27.7349V176.504" stroke="#D1BFE6" stroke-width="0.711" stroke-miterlimit="10"/>
<path d="M446.489 27.7349V176.504Z" fill="white"/>
<path d="M446.489 27.7349V176.504" stroke="#D1BFE6" stroke-width="0.711" stroke-miterlimit="10"/>
<path d="M453.999 27.7349V176.504Z" fill="white"/>
<path d="M453.999 27.7349V176.504" stroke="#D1BFE6" stroke-width="0.711" stroke-miterlimit="10"/>
</g>
<path d="M323.122 4.95272C313.169 4.93175 303.616 8.86513 296.564 15.8876C289.512 22.9101 285.538 32.4464 285.517 42.3987V42.3987C285.513 43.8882 285.804 45.3636 286.371 46.7408C286.938 48.118 287.771 49.3699 288.823 50.4251C289.874 51.4802 291.123 52.3179 292.498 52.8902C293.873 53.4626 295.347 53.7584 296.837 53.7607V53.7607C299.74 53.827 302.55 52.7379 304.65 50.7328C306.75 48.7276 307.968 45.9706 308.037 43.0677C308.037 42.9607 308.037 42.8547 308.037 42.7487V42.3987C308.02 40.4113 308.398 38.4403 309.147 36.5995C309.897 34.7586 311.003 33.0844 312.403 31.6733C313.802 30.2622 315.467 29.1422 317.302 28.3779C319.137 27.6135 321.105 27.22 323.092 27.22C325.08 27.22 327.047 27.6135 328.882 28.3779C330.717 29.1422 332.382 30.2622 333.782 31.6733C335.181 33.0844 336.288 34.7586 337.037 36.5995C337.786 38.4403 338.164 40.4113 338.148 42.3987V42.3987C338.133 43.8902 338.414 45.3698 338.974 46.7521C339.535 48.1343 340.364 49.3918 341.413 50.4519C342.462 51.512 343.711 52.3537 345.087 52.9283C346.464 53.503 347.941 53.7992 349.432 53.7999C350.924 53.8005 352.401 53.5056 353.777 52.9322C355.154 52.3588 356.404 51.5182 357.454 50.459C358.504 49.3999 359.334 48.1431 359.896 46.7613C360.458 45.3796 360.74 43.9002 360.727 42.4087V42.3987C360.705 32.4458 356.73 22.9092 349.677 15.8868C342.624 8.8643 333.07 4.93122 323.118 4.95272H323.122Z" fill="#FFF04D"/>
<path d="M327.532 0.542806C317.58 0.52316 308.028 4.45726 300.977 11.4798C293.926 18.5023 289.953 28.0382 289.932 37.9898C289.929 39.4787 290.219 40.9537 290.786 42.3303C291.353 43.707 292.186 44.9586 293.237 46.0134C294.288 47.0683 295.536 47.9059 296.91 48.4783C298.285 49.0508 299.759 49.3469 301.248 49.3498V49.3498C304.152 49.4177 306.964 48.3293 309.065 46.324C311.167 44.3187 312.385 41.5608 312.454 38.6568C312.454 38.5498 312.454 38.4438 312.454 38.3378V37.9878C312.454 33.995 314.04 30.1657 316.863 27.3423C319.687 24.519 323.516 22.9328 327.509 22.9328C331.501 22.9328 335.331 24.519 338.154 27.3423C340.977 30.1657 342.564 33.995 342.564 37.9878V37.9878C342.549 39.4793 342.83 40.9589 343.39 42.3412C343.951 43.7234 344.78 44.9809 345.829 46.041C346.878 47.1011 348.127 47.9428 349.504 48.5174C350.88 49.0921 352.357 49.3883 353.848 49.3889C355.34 49.3896 356.817 49.0947 358.193 48.5213C359.57 47.9479 360.82 47.1073 361.87 46.0481C362.92 44.9889 363.75 43.7322 364.312 42.3504C364.874 40.9687 365.156 39.4893 365.143 37.9978V37.9878C365.121 28.0356 361.146 18.4997 354.094 11.4776C347.042 4.45539 337.489 0.522097 327.537 0.542806H327.532Z" fill="white" stroke="#FFF04D" stroke-width="0.711" stroke-miterlimit="10"/>
<path d="M22.7605 393.093C22.7613 389.135 24.334 385.34 27.1328 382.542C29.9315 379.744 33.727 378.172 37.6845 378.173V355.886C27.8168 355.886 18.3533 359.806 11.3758 366.784C4.39839 373.761 0.478516 383.225 0.478516 393.093V393.093C0.477455 402.96 4.3961 412.423 11.3724 419.401C18.3488 426.38 27.8113 430.3 37.6785 430.302V430.302V408.016C33.7216 408.014 29.9274 406.441 27.1299 403.643C24.3324 400.844 22.7608 397.05 22.7605 393.093V393.093Z" fill="#FFF04D"/>
<path d="M27.1717 388.683C27.1718 386.723 27.5579 384.783 28.3079 382.973C29.058 381.162 30.1572 379.518 31.543 378.132C32.9287 376.747 34.5738 375.648 36.3843 374.898C38.1947 374.148 40.1351 373.763 42.0947 373.763V351.476C32.227 351.476 22.7635 355.396 15.7861 362.373C8.80858 369.351 4.88867 378.814 4.88867 388.682V388.682C4.88761 398.549 8.80625 408.013 15.7826 414.991C22.7589 421.969 32.2215 425.89 42.0887 425.891V425.891V403.606C38.1319 403.604 34.3377 402.031 31.5404 399.233C28.7431 396.434 27.1717 392.64 27.1717 388.683Z" fill="white" stroke="#FFF04D" stroke-width="0.711" stroke-miterlimit="10"/>
<path d="M66.2371 99.1819C66.2373 97.2223 66.6236 95.2819 67.3737 93.4716C68.1239 91.6613 69.2232 90.0164 70.609 88.631C71.9949 87.2455 73.64 86.1466 75.4505 85.397C77.261 84.6473 79.2015 84.2616 81.1611 84.2619V61.9749C71.2934 61.9749 61.8299 65.8948 54.8525 72.8722C47.875 79.8497 43.9551 89.3132 43.9551 99.1809V99.1809C43.9539 104.067 44.9152 108.905 46.7842 113.419C48.6531 117.934 51.3931 122.036 54.8475 125.491C58.302 128.946 62.4033 131.687 66.9172 133.557C71.4311 135.427 76.2691 136.39 81.1551 136.39V136.39V114.105C77.1982 114.103 73.4039 112.53 70.6064 109.732C67.809 106.934 66.2373 103.139 66.2371 99.1819V99.1819Z" fill="#FFF04D"/>
<path d="M70.282 94.5039C70.2823 92.5443 70.6685 90.6039 71.4186 88.7936C72.1688 86.9833 73.2681 85.3385 74.654 83.953C76.0398 82.5676 77.6849 81.4686 79.4954 80.719C81.306 79.9693 83.2464 79.5836 85.206 79.5839V57.2969C75.3384 57.2969 65.8749 61.2168 58.8974 68.1943C51.9199 75.1717 48 84.6352 48 94.5029V94.5029C47.9988 99.3888 48.9602 104.227 50.8291 108.741C52.698 113.256 55.438 117.358 58.8924 120.813C62.3469 124.268 66.4482 127.009 70.9621 128.879C75.476 130.749 80.3141 131.712 85.2 131.712V131.712V109.431C81.2424 109.429 77.4475 107.856 74.65 105.057C71.8524 102.257 70.2812 98.4614 70.282 94.5039V94.5039Z" fill="white" stroke="#FFF04D" stroke-width="0.711" stroke-miterlimit="10"/>
<mask id="mask1" mask-type="alpha" maskUnits="userSpaceOnUse" x="48" y="57" width="38" height="75">
<path d="M70.282 94.5039C70.2823 92.5443 70.6685 90.6039 71.4186 88.7936C72.1688 86.9833 73.2681 85.3385 74.654 83.953C76.0398 82.5676 77.6849 81.4686 79.4954 80.719C81.306 79.9693 83.2464 79.5836 85.206 79.5839V57.2969C75.3384 57.2969 65.8749 61.2168 58.8974 68.1943C51.9199 75.1717 48 84.6352 48 94.5029V94.5029C47.9988 99.3888 48.9602 104.227 50.8291 108.741C52.698 113.256 55.438 117.358 58.8924 120.813C62.3469 124.268 66.4482 127.009 70.9621 128.879C75.476 130.749 80.3141 131.712 85.2 131.712V131.712V109.431C81.2424 109.429 77.4475 107.856 74.65 105.057C71.8524 102.257 70.2812 98.4614 70.282 94.5039V94.5039Z" fill="white"/>
</mask>
<g mask="url(#mask1)">
<path d="M7.31348 60.7288H158.168Z" fill="white"/>
<path d="M7.31348 60.7288H158.168" stroke="#FFF04D" stroke-width="0.711" stroke-miterlimit="10"/>
<path d="M6.21094 68.2388H158.168Z" fill="white"/>
<path d="M6.21094 68.2388H158.168" stroke="#FFF04D" stroke-width="0.711" stroke-miterlimit="10"/>
<path d="M7.31348 75.7488H158.168Z" fill="white"/>
<path d="M7.31348 75.7488H158.168" stroke="#FFF04D" stroke-width="0.711" stroke-miterlimit="10"/>
<path d="M7.31348 83.2588H158.168Z" fill="white"/>
<path d="M7.31348 83.2588H158.168" stroke="#FFF04D" stroke-width="0.711" stroke-miterlimit="10"/>
<path d="M7.31348 90.7688H158.168Z" fill="white"/>
<path d="M7.31348 90.7688H158.168" stroke="#FFF04D" stroke-width="0.711" stroke-miterlimit="10"/>
<path d="M7.31348 98.2788H158.168Z" fill="white"/>
<path d="M7.31348 98.2788H158.168" stroke="#FFF04D" stroke-width="0.711" stroke-miterlimit="10"/>
<path d="M6.03711 105.789H156.637Z" fill="white"/>
<path d="M6.03711 105.789H156.637" stroke="#FFF04D" stroke-width="0.711" stroke-miterlimit="10"/>
<path d="M6.03711 113.299H152.537Z" fill="white"/>
<path d="M6.03711 113.299H152.537" stroke="#FFF04D" stroke-width="0.711" stroke-miterlimit="10"/>
<path d="M7.31348 120.809H148.891Z" fill="white"/>
<path d="M7.31348 120.809H148.891" stroke="#FFF04D" stroke-width="0.711" stroke-miterlimit="10"/>
<path d="M7.31348 128.319H158.168Z" fill="white"/>
<path d="M7.31348 128.319H158.168" stroke="#FFF04D" stroke-width="0.711" stroke-miterlimit="10"/>
<path d="M51.1211 24.7888V173.558Z" fill="white"/>
<path d="M51.1211 24.7888V173.558" stroke="#FFF04D" stroke-width="0.711" stroke-miterlimit="10"/>
<path d="M58.6309 24.7888V173.558Z" fill="white"/>
<path d="M58.6309 24.7888V173.558" stroke="#FFF04D" stroke-width="0.711" stroke-miterlimit="10"/>
<path d="M66.1377 34.7417V173.558Z" fill="white"/>
<path d="M66.1377 34.7417V173.558" stroke="#FFF04D" stroke-width="0.711" stroke-miterlimit="10"/>
<path d="M73.6514 24.7888V173.558Z" fill="white"/>
<path d="M73.6514 24.7888V173.558" stroke="#FFF04D" stroke-width="0.711" stroke-miterlimit="10"/>
<path d="M81.1611 34.7417V181.069Z" fill="white"/>
<path d="M81.1611 34.7417V181.069" stroke="#FFF04D" stroke-width="0.711" stroke-miterlimit="10"/>
</g>
<path d="M97.318 551.52C101.27 551.52 105.06 549.95 107.854 547.156C110.648 544.361 112.218 540.571 112.218 536.62V463.307C112.218 459.355 110.648 455.565 107.854 452.771C105.06 449.977 101.27 448.407 97.318 448.407V448.407C93.3662 448.407 89.5764 449.977 86.7821 452.771C83.9878 455.565 82.418 459.355 82.418 463.307V536.618C82.4177 538.575 82.8029 540.512 83.5516 542.32C84.3003 544.128 85.3978 545.771 86.7814 547.155C88.165 548.539 89.8076 549.636 91.6155 550.385C93.4234 551.134 95.3611 551.52 97.318 551.52V551.52Z" fill="#D1BFE6"/>
<path d="M101.728 547.11C105.68 547.11 109.47 545.54 112.264 542.746C115.058 539.951 116.628 536.162 116.628 532.21V458.899C116.628 454.947 115.058 451.157 112.264 448.363C109.47 445.569 105.68 443.999 101.728 443.999V443.999C97.7764 443.999 93.9865 445.569 91.1922 448.363C88.3979 451.157 86.8281 454.947 86.8281 458.899V532.21C86.8281 534.166 87.2135 536.104 87.9623 537.912C88.7111 539.719 89.8086 541.362 91.1922 542.746C92.5758 544.129 94.2184 545.227 96.0261 545.976C97.8339 546.724 99.7714 547.11 101.728 547.11Z" fill="white" stroke="#D1BFE6" stroke-width="0.711" stroke-miterlimit="10"/>
<path d="M233.052 527.146H210.765C210.767 537.013 214.688 546.475 221.665 553.451C228.643 560.428 238.107 564.346 247.974 564.346C252.86 564.346 257.698 563.384 262.212 561.514C266.726 559.644 270.827 556.903 274.282 553.448C277.737 549.994 280.478 545.892 282.348 541.378C284.217 536.864 285.18 532.026 285.18 527.14H262.895C262.911 529.11 262.537 531.063 261.794 532.888C261.051 534.712 259.955 536.372 258.568 537.77C257.181 539.169 255.53 540.279 253.712 541.036C251.893 541.794 249.943 542.184 247.973 542.184C246.003 542.184 244.053 541.794 242.235 541.036C240.416 540.279 238.766 539.169 237.379 537.77C235.991 536.372 234.895 534.712 234.152 532.888C233.41 531.063 233.036 529.11 233.052 527.14V527.146Z" fill="#FFF04D"/>
<path d="M237.462 522.736H215.175C215.177 532.603 219.098 542.065 226.076 549.041C233.054 556.018 242.517 559.937 252.384 559.936C257.27 559.936 262.108 558.974 266.622 557.104C271.136 555.234 275.238 552.493 278.692 549.039C282.147 545.584 284.888 541.482 286.758 536.968C288.627 532.454 289.59 527.616 289.59 522.73H267.305C267.305 526.687 265.733 530.483 262.934 533.281C260.136 536.079 256.341 537.651 252.383 537.651C248.426 537.651 244.631 536.079 241.832 533.281C239.034 530.483 237.462 526.687 237.462 522.73V522.736Z" fill="white" stroke="#FFF04D" stroke-width="0.711" stroke-miterlimit="10"/>
<path d="M300.15 469.043C300.15 473.001 301.722 476.797 304.52 479.596C307.318 482.395 311.113 483.968 315.071 483.969V483.969V454.123C311.115 454.124 307.32 455.696 304.522 458.494C301.724 461.292 300.152 465.086 300.15 469.043V469.043Z" fill="#FFF04D"/>
<path d="M304.561 464.633C304.56 468.591 306.132 472.387 308.93 475.186C311.728 477.985 315.524 479.558 319.482 479.559V479.559V449.713C315.525 449.714 311.73 451.286 308.932 454.084C306.134 456.882 304.562 460.676 304.561 464.633Z" fill="white" stroke="#FFF04D" stroke-width="0.711" stroke-miterlimit="10"/>
<path d="M111.52 227.799C108.568 227.799 105.683 228.674 103.229 230.314C100.775 231.954 98.8627 234.285 97.7333 237.012C96.604 239.739 96.3086 242.739 96.8845 245.634C97.4604 248.528 98.8818 251.187 100.969 253.274C103.056 255.361 105.715 256.782 108.61 257.358C111.504 257.934 114.505 257.638 117.232 256.509C119.958 255.379 122.289 253.467 123.929 251.012C125.568 248.558 126.444 245.673 126.444 242.722C126.444 240.762 126.058 238.821 125.308 237.011C124.558 235.2 123.458 233.555 122.072 232.169C120.687 230.784 119.041 229.684 117.231 228.934C115.42 228.185 113.479 227.799 111.52 227.799Z" fill="#FFF04D"/>
<path d="M115.93 223.399C112.978 223.399 110.093 224.275 107.639 225.914C105.185 227.554 103.273 229.885 102.143 232.612C101.014 235.339 100.719 238.339 101.295 241.234C101.871 244.129 103.292 246.788 105.379 248.874C107.466 250.961 110.125 252.383 113.02 252.958C115.915 253.534 118.915 253.238 121.642 252.109C124.369 250.979 126.699 249.067 128.339 246.613C129.979 244.159 130.854 241.273 130.854 238.322C130.854 236.362 130.468 234.422 129.718 232.611C128.968 230.8 127.868 229.155 126.483 227.769C125.097 226.384 123.452 225.284 121.641 224.535C119.83 223.785 117.89 223.399 115.93 223.399V223.399Z" fill="white" stroke="#FFF04D" stroke-width="0.711" stroke-miterlimit="10"/>
<path d="M187.038 340.936H157.191V370.783H187.038V340.936Z" fill="#D1BFE6"/>
<path d="M191.449 336.525H161.602V366.372H191.449V336.525Z" fill="white" stroke="#D1BFE6" stroke-width="0.711" stroke-miterlimit="10"/>
<path d="M489.494 297.007C485.684 297.007 481.947 298.051 478.689 300.026C475.431 302 472.776 304.83 471.013 308.207C469.036 305.879 466.392 304.214 463.438 303.437C460.485 302.66 457.364 302.808 454.497 303.861C451.63 304.914 449.156 306.822 447.408 309.326C445.66 311.83 444.723 314.811 444.723 317.865C444.723 320.919 445.66 323.899 447.408 326.404C449.156 328.908 451.63 330.816 454.497 331.869C457.364 332.922 460.485 333.07 463.438 332.293C466.392 331.516 469.036 329.851 471.013 327.523C472.726 330.8 475.28 333.563 478.413 335.529C481.546 337.494 485.145 338.591 488.842 338.707C492.538 338.823 496.199 337.954 499.449 336.189C502.699 334.424 505.422 331.827 507.337 328.663C509.253 325.5 510.293 321.884 510.351 318.186C510.408 314.488 509.482 310.841 507.666 307.619C505.85 304.398 503.211 301.717 500.017 299.851C496.824 297.985 493.192 297.002 489.494 297.003V297.007Z" fill="#FFF04D"/>
<path d="M493.904 292.599C490.094 292.599 486.357 293.643 483.099 295.618C479.841 297.592 477.186 300.422 475.423 303.799C473.446 301.471 470.802 299.806 467.848 299.029C464.895 298.252 461.774 298.4 458.907 299.453C456.041 300.506 453.566 302.414 451.818 304.918C450.07 307.422 449.133 310.403 449.133 313.457C449.133 316.511 450.07 319.491 451.818 321.996C453.566 324.5 456.041 326.408 458.907 327.461C461.774 328.514 464.895 328.662 467.848 327.885C470.802 327.108 473.446 325.443 475.423 323.115C477.136 326.392 479.69 329.155 482.823 331.121C485.956 333.086 489.555 334.183 493.252 334.299C496.948 334.415 500.609 333.546 503.859 331.781C507.109 330.016 509.832 327.419 511.747 324.255C513.663 321.092 514.703 317.476 514.761 313.778C514.819 310.08 513.892 306.433 512.076 303.212C510.261 299.99 507.621 297.309 504.427 295.443C501.234 293.577 497.602 292.595 493.904 292.595V292.599Z" fill="white" stroke="#FFF04D" stroke-width="0.711" stroke-miterlimit="10"/>
<path d="M470.604 434.015C470.618 424.375 466.92 415.1 460.278 408.115C453.636 401.129 444.559 396.97 434.931 396.499C434.477 396.442 434.02 396.412 433.563 396.409C433.494 396.409 433.427 396.419 433.363 396.419C433.299 396.419 433.227 396.409 433.163 396.409C432.705 396.412 432.248 396.442 431.794 396.499C422.17 396.983 413.101 401.147 406.462 408.129C399.822 415.112 396.119 424.379 396.119 434.014C396.119 443.65 399.822 452.917 406.462 459.899C413.101 466.881 422.17 471.045 431.794 471.53C432.248 471.587 432.705 471.617 433.163 471.62C433.231 471.62 433.298 471.609 433.363 471.609C433.428 471.609 433.498 471.62 433.563 471.62C434.02 471.617 434.477 471.587 434.931 471.53C444.558 471.058 453.635 466.899 460.277 459.913C466.919 452.928 470.617 443.654 470.604 434.015V434.015ZM434.458 449.033C434.158 449.01 433.865 448.988 433.564 448.988V449.088C433.494 449.088 433.428 449.097 433.364 449.098C433.3 449.099 433.228 449.089 433.164 449.088V448.988C432.864 448.988 432.564 449.01 432.264 449.033C428.439 448.748 424.874 446.992 422.318 444.133C419.761 441.275 418.412 437.536 418.555 433.704C418.697 429.872 420.32 426.244 423.082 423.583C425.843 420.922 429.529 419.436 433.364 419.436C437.199 419.436 440.884 420.922 443.646 423.583C446.407 426.244 448.03 429.872 448.172 433.704C448.315 437.536 446.966 441.275 444.41 444.133C441.853 446.992 438.288 448.748 434.464 449.033H434.458Z" fill="#D1BFE6"/>
<path d="M475.497 429.902C475.511 420.262 471.812 410.987 465.169 404.001C458.526 397.016 449.448 392.857 439.82 392.387C439.366 392.329 438.909 392.299 438.452 392.297C438.383 392.297 438.316 392.307 438.252 392.307C438.188 392.307 438.116 392.297 438.052 392.297C437.594 392.299 437.137 392.329 436.683 392.387C427.058 392.869 417.986 397.032 411.345 404.014C404.703 410.997 400.999 420.265 400.999 429.902C400.999 439.539 404.703 448.807 411.345 455.79C417.986 462.772 427.058 466.935 436.683 467.417C437.137 467.475 437.594 467.505 438.052 467.508C438.12 467.508 438.187 467.497 438.252 467.497C438.317 467.497 438.387 467.508 438.452 467.508C438.909 467.505 439.366 467.475 439.82 467.417C449.448 466.947 458.526 462.788 465.169 455.802C471.812 448.817 475.511 439.542 475.497 429.902ZM439.351 444.919C439.051 444.897 438.758 444.875 438.457 444.875V444.975C438.388 444.975 438.321 444.984 438.257 444.985C438.193 444.986 438.121 444.976 438.057 444.975V444.875C437.757 444.875 437.457 444.897 437.162 444.919C433.337 444.634 429.772 442.878 427.216 440.02C424.659 437.161 423.31 433.423 423.453 429.59C423.595 425.758 425.218 422.13 427.979 419.469C430.741 416.808 434.427 415.322 438.262 415.322C442.097 415.322 445.782 416.808 448.544 419.469C451.305 422.13 452.928 425.758 453.07 429.59C453.213 433.423 451.864 437.161 449.308 440.02C446.751 442.878 443.186 444.634 439.362 444.919H439.351Z" fill="white" stroke="#D1BFE6" stroke-width="0.711" stroke-miterlimit="10"/>
<mask id="mask2" mask-type="alpha" maskUnits="userSpaceOnUse" x="400" y="392" width="76" height="76">
<path d="M475.497 429.902C475.511 420.262 471.812 410.987 465.169 404.001C458.526 397.016 449.448 392.857 439.82 392.387C439.366 392.329 438.909 392.299 438.452 392.297C438.383 392.297 438.316 392.307 438.252 392.307C438.188 392.307 438.116 392.297 438.052 392.297C437.594 392.299 437.137 392.329 436.683 392.387C427.058 392.869 417.986 397.032 411.345 404.014C404.703 410.997 400.999 420.265 400.999 429.902C400.999 439.539 404.703 448.807 411.345 455.79C417.986 462.772 427.058 466.935 436.683 467.417C437.137 467.475 437.594 467.505 438.052 467.508C438.12 467.508 438.187 467.497 438.252 467.497C438.317 467.497 438.387 467.508 438.452 467.508C438.909 467.505 439.366 467.475 439.82 467.417C449.448 466.947 458.526 462.788 465.169 455.802C471.812 448.817 475.511 439.542 475.497 429.902ZM439.351 444.919C439.051 444.897 438.758 444.875 438.457 444.875V444.975C438.388 444.975 438.321 444.984 438.257 444.985C438.193 444.986 438.121 444.976 438.057 444.975V444.875C437.757 444.875 437.457 444.897 437.162 444.919C433.337 444.634 429.772 442.878 427.216 440.02C424.659 437.161 423.31 433.423 423.453 429.59C423.595 425.758 425.218 422.13 427.979 419.469C430.741 416.808 434.427 415.322 438.262 415.322C442.097 415.322 445.782 416.808 448.544 419.469C451.305 422.13 452.928 425.758 453.07 429.59C453.213 433.423 451.864 437.161 449.308 440.02C446.751 442.878 443.186 444.634 439.362 444.919H439.351Z" fill="white"/>
</mask>
<g mask="url(#mask2)">
<path d="M369.924 392.107H520.779Z" fill="white"/>
<path d="M369.924 392.107H520.779" stroke="#D1BFE6" stroke-width="0.711" stroke-miterlimit="10"/>
<path d="M369.924 399.617H520.779Z" fill="white"/>
<path d="M369.924 399.617H520.779" stroke="#D1BFE6" stroke-width="0.711" stroke-miterlimit="10"/>
<path d="M368.821 407.127H520.778Z" fill="white"/>
<path d="M368.821 407.127H520.778" stroke="#D1BFE6" stroke-width="0.711" stroke-miterlimit="10"/>
<path d="M369.924 414.637H520.779Z" fill="white"/>
<path d="M369.924 414.637H520.779" stroke="#D1BFE6" stroke-width="0.711" stroke-miterlimit="10"/>
<path d="M369.924 422.147H520.779Z" fill="white"/>
<path d="M369.924 422.147H520.779" stroke="#D1BFE6" stroke-width="0.711" stroke-miterlimit="10"/>
<path d="M369.924 429.657H520.779Z" fill="white"/>
<path d="M369.924 429.657H520.779" stroke="#D1BFE6" stroke-width="0.711" stroke-miterlimit="10"/>
<path d="M369.924 437.167H520.779Z" fill="white"/>
<path d="M369.924 437.167H520.779" stroke="#D1BFE6" stroke-width="0.711" stroke-miterlimit="10"/>
<path d="M368.651 444.677H519.245Z" fill="white"/>
<path d="M368.651 444.677H519.245" stroke="#D1BFE6" stroke-width="0.711" stroke-miterlimit="10"/>
<path d="M368.651 452.187H515.144Z" fill="white"/>
<path d="M368.651 452.187H515.144" stroke="#D1BFE6" stroke-width="0.711" stroke-miterlimit="10"/>
<path d="M369.924 459.699H511.502Z" fill="white"/>
<path d="M369.924 459.699H511.502" stroke="#D1BFE6" stroke-width="0.711" stroke-miterlimit="10"/>
<path d="M369.924 467.207H520.779Z" fill="white"/>
<path d="M369.924 467.207H520.779" stroke="#D1BFE6" stroke-width="0.711" stroke-miterlimit="10"/>
<path d="M406.223 363.677V512.446Z" fill="white"/>
<path d="M406.223 363.677V512.446" stroke="#D1BFE6" stroke-width="0.711" stroke-miterlimit="10"/>
<path d="M413.736 363.677V512.446Z" fill="white"/>
<path d="M413.736 363.677V512.446" stroke="#D1BFE6" stroke-width="0.711" stroke-miterlimit="10"/>
<path d="M421.242 363.677V512.446Z" fill="white"/>
<path d="M421.242 363.677V512.446" stroke="#D1BFE6" stroke-width="0.711" stroke-miterlimit="10"/>
<path d="M428.753 373.631V512.446Z" fill="white"/>
<path d="M428.753 373.631V512.446" stroke="#D1BFE6" stroke-width="0.711" stroke-miterlimit="10"/>
<path d="M436.263 363.677V512.446Z" fill="white"/>
<path d="M436.263 363.677V512.446" stroke="#D1BFE6" stroke-width="0.711" stroke-miterlimit="10"/>
<path d="M443.772 373.631V519.957Z" fill="white"/>
<path d="M443.772 373.631V519.957" stroke="#D1BFE6" stroke-width="0.711" stroke-miterlimit="10"/>
<path d="M451.282 363.677V519.956Z" fill="white"/>
<path d="M451.282 363.677V519.956" stroke="#D1BFE6" stroke-width="0.711" stroke-miterlimit="10"/>
<path d="M458.793 369.475V512.446Z" fill="white"/>
<path d="M458.793 369.475V512.446" stroke="#D1BFE6" stroke-width="0.711" stroke-miterlimit="10"/>
<path d="M466.303 376.899V512.446Z" fill="white"/>
<path d="M466.303 376.899V512.446" stroke="#D1BFE6" stroke-width="0.711" stroke-miterlimit="10"/>
<path d="M473.812 376.899V512.446Z" fill="white"/>
<path d="M473.812 376.899V512.446" stroke="#D1BFE6" stroke-width="0.711" stroke-miterlimit="10"/>
</g>
<defs>
<filter id="filter0_d" x="32.3604" y="22.4021" width="439.114" height="510.882" filterUnits="userSpaceOnUse" color-interpolation-filters="sRGB">
<feFlood flood-opacity="0" result="BackgroundImageFix"/>
<feColorMatrix in="SourceAlpha" type="matrix" values="0 0 0 0 0 0 0 0 0 0 0 0 0 0 0 0 0 0 127 0"/>
<feOffset/>
<feGaussianBlur stdDeviation="8"/>
<feColorMatrix type="matrix" values="0 0 0 0 0.0392157 0 0 0 0 0.0392157 0 0 0 0 0.0392157 0 0 0 0.102 0"/>
<feBlend mode="normal" in2="BackgroundImageFix" result="effect1_dropShadow"/>
<feBlend mode="normal" in="SourceGraphic" in2="effect1_dropShadow" result="shape"/>
</filter>
<linearGradient id="paint0_linear" x1="291.492" y1="140.681" x2="291.946" y2="419.346" gradientUnits="userSpaceOnUse">
<stop offset="0.204758" stop-color="#E9DEFA"/>
<stop offset="0.625" stop-color="#FBFCDB"/>
<stop offset="0.875" stop-color="#E9DEFA"/>
</linearGradient>
<linearGradient id="paint1_linear" x1="375.431" y1="140.681" x2="375.886" y2="419.346" gradientUnits="userSpaceOnUse">
<stop offset="0.204758" stop-color="#E9DEFA"/>
<stop offset="0.625" stop-color="#FBFCDB"/>
<stop offset="0.875" stop-color="#E9DEFA"/>
</linearGradient>
</defs>
</svg>
