<svg width="16" height="18" viewBox="0 0 16 18" fill="none" xmlns="http://www.w3.org/2000/svg">
<path d="M13.795 0.350586H2.20477C1.22738 0.350586 0.431641 1.14633 0.431641 2.13236V13.8263C0.431641 14.8124 1.22738 15.6081 2.20477 15.6081H12.0132L11.5548 14.008L12.6619 15.0373L13.7085 16.006L15.5681 17.6494V2.13236C15.5681 1.14633 14.7723 0.350586 13.795 0.350586ZM10.4563 11.6467C10.4563 11.6467 10.1449 11.2748 9.88543 10.9461C11.0185 10.6261 11.451 9.91682 11.451 9.91682C11.0963 10.1503 10.759 10.3147 10.4563 10.4271C10.0238 10.6088 9.60865 10.7299 9.20213 10.7991C8.37178 10.9547 7.61064 10.9115 6.96193 10.7904C6.46892 10.6953 6.0451 10.5569 5.69047 10.4185C5.49154 10.3406 5.2753 10.2455 5.05907 10.1244C5.03312 10.1071 5.00717 10.0985 4.98122 10.0812C4.96392 10.0725 4.95527 10.0639 4.94662 10.0552C4.79094 9.96871 4.70444 9.90817 4.70444 9.90817C4.70444 9.90817 5.11961 10.6001 6.21809 10.9288C5.9586 11.2575 5.63858 11.6467 5.63858 11.6467C3.72706 11.5861 3.00051 10.332 3.00051 10.332C3.00051 7.54688 4.24602 5.28939 4.24602 5.28939C5.49154 4.35526 6.6765 4.3812 6.6765 4.3812L6.763 4.485C5.20611 4.93476 4.48821 5.61807 4.48821 5.61807C4.48821 5.61807 4.67849 5.51427 4.99852 5.36723C5.92401 4.96071 6.6592 4.84827 6.96193 4.82232C7.01383 4.81367 7.05708 4.80502 7.10897 4.80502C7.63659 4.73583 8.23339 4.71853 8.85615 4.78773C9.67784 4.88287 10.5601 5.12505 11.4596 5.61807C11.4596 5.61807 10.7763 4.96936 9.30592 4.51959L9.42701 4.3812C9.42701 4.3812 10.612 4.35526 11.8575 5.28939C11.8575 5.28939 13.103 7.54688 13.103 10.332C13.103 10.332 12.3678 11.5861 10.4563 11.6467Z" fill="#0A0A0A"/>
</svg>
