<svg width="18" height="18" viewBox="0 0 18 18" fill="none" xmlns="http://www.w3.org/2000/svg">
<path fill-rule="evenodd" clip-rule="evenodd" d="M9.04314 0.649358C6.89634 0.647253 4.81893 1.38273 3.18319 2.72398C1.54744 4.06524 0.460297 5.9246 0.116568 7.96885C-0.227161 10.0131 0.194997 12.1086 1.30739 13.8799C2.41978 15.6512 4.14969 16.9824 6.18711 17.635C6.64186 17.7153 6.80268 17.4424 6.80268 17.2124C6.80268 16.9824 6.80268 16.4581 6.80268 15.7305C4.27939 16.2601 3.747 14.5589 3.747 14.5589C3.5796 14.0316 3.22398 13.5786 2.74323 13.2803C1.92801 12.7453 2.80978 12.7453 2.80978 12.7453C3.09555 12.7842 3.36838 12.8854 3.60763 13.0411C3.84687 13.1968 4.04625 13.403 4.19066 13.6441C4.31336 13.8587 4.47879 14.0478 4.67746 14.2007C4.87613 14.3535 5.10411 14.4669 5.34834 14.5345C5.59258 14.6021 5.84824 14.6225 6.10067 14.5946C6.35309 14.5666 6.59732 14.4909 6.81932 14.3716C6.85412 13.9315 7.0508 13.5179 7.37389 13.2054C5.36635 12.986 3.25898 12.2371 3.25898 8.92553C3.2452 8.06045 3.57679 7.22339 4.18511 6.58766C3.91418 5.83549 3.94585 5.0126 4.27384 4.28188C4.27384 4.28188 5.0336 4.04649 6.75832 5.1753C8.23934 4.78303 9.80258 4.78303 11.2836 5.1753C13.0083 4.04649 13.7625 4.28188 13.7625 4.28188C14.0951 5.00487 14.1347 5.82185 13.8734 6.57161C14.4818 7.20734 14.8134 8.0444 14.7996 8.90948C14.7996 12.2585 12.6867 12.9914 10.6736 13.1893C10.8894 13.3987 11.0561 13.6503 11.1623 13.9272C11.2685 14.2041 11.3118 14.4998 11.2891 14.7943C11.2891 15.9605 11.2891 16.9021 11.2891 17.1856C11.2891 17.4692 11.45 17.6885 11.9103 17.6029C13.9245 16.9331 15.6285 15.5981 16.7212 13.8337C17.814 12.0693 18.2252 9.98916 17.8821 7.96068C17.5391 5.9322 16.4639 4.08596 14.8465 2.74811C13.2291 1.41026 11.1736 0.666899 9.04314 0.649358Z" fill="#0A0A0A"/>
</svg>
