<svg width="16" height="14" viewBox="0 0 16 14" fill="none" xmlns="http://www.w3.org/2000/svg">
<path d="M5.2172 13.0954C10.8776 13.0954 13.9736 8.40579 13.9736 4.33898C13.9736 4.20578 13.9736 4.07319 13.9646 3.94119C14.5669 3.50553 15.0868 2.96611 15.5 2.34819C14.9383 2.59707 14.3425 2.76028 13.7324 2.83238C14.3748 2.44777 14.8557 1.84285 15.0854 1.13018C14.4813 1.48866 13.8204 1.74129 13.1312 1.87719C12.6672 1.3838 12.0535 1.05709 11.3851 0.947612C10.7167 0.838139 10.0309 0.952006 9.43373 1.27159C8.83657 1.59118 8.36139 2.09867 8.08171 2.71553C7.80204 3.33239 7.73346 4.02423 7.8866 4.68398C6.66305 4.62265 5.46608 4.30468 4.37338 3.75074C3.28069 3.19679 2.3167 2.41925 1.544 1.46858C1.15046 2.14608 1.02992 2.9481 1.20694 3.71135C1.38395 4.4746 1.84521 5.14168 2.4968 5.57679C2.00704 5.56227 1.52797 5.43015 1.1 5.19159C1.1 5.20419 1.1 5.21739 1.1 5.23059C1.10019 5.94112 1.34616 6.62971 1.79617 7.17956C2.24618 7.72942 2.87254 8.10669 3.569 8.24739C3.11592 8.37095 2.64055 8.38901 2.1794 8.30019C2.37606 8.91169 2.75892 9.44643 3.27444 9.82963C3.78997 10.2128 4.41237 10.4253 5.0546 10.4374C3.96484 11.2938 2.61864 11.7588 1.2326 11.7574C0.987742 11.7569 0.743122 11.7421 0.5 11.713C1.90738 12.6162 3.54495 13.0952 5.2172 13.093" fill="#0A0A0A"/>
</svg>
