<svg width="3381" height="1585" viewBox="0 0 3381 1585" fill="none" xmlns="http://www.w3.org/2000/svg">
<g clip-path="url(#clip0_4_26690)">
<path d="M64.5469 775.269H970.047L1690.55 354.949L2411.05 775.269H3445.55" stroke="#333538"/>
<path opacity="0.95" d="M64.3555 741.589H967.375L1690.54 339.539L2413.69 741.589H3445.36" stroke="#333538"/>
<path opacity="0.9" d="M64.1504 707.901H964.69L1690.51 324.131L2416.32 707.901H3445.15" stroke="#333538"/>
<path opacity="0.85" d="M63.9883 674.221H962.048L1690.52 308.721L2418.99 674.221H3444.99" stroke="#333538"/>
<path opacity="0.8" d="M63.8105 640.531H959.381L1690.52 293.311L2421.64 640.531H3444.81" stroke="#333538"/>
<path opacity="0.75" d="M63.6348 606.85H956.725L1690.52 277.9L2424.3 606.85H3444.63" stroke="#333538"/>
<path opacity="0.7" d="M63.4395 573.16H954.049L1690.51 262.49L2426.94 573.16H3444.44" stroke="#333538"/>
<path opacity="0.65" d="M63.2695 539.47H951.4L1690.51 247.07L2429.6 539.47H3444.27" stroke="#333538"/>
<path opacity="0.6" d="M63.0918 505.79H948.742L1690.51 231.66L2432.26 505.79H3444.09" stroke="#333538"/>
<path opacity="0.55" d="M62.9023 472.1H946.072L1690.5 216.25L2434.9 472.1H3443.9" stroke="#333538"/>
<path opacity="0.5" d="M62.7227 438.42H943.413L1690.5 200.84L2437.55 438.42H3443.72" stroke="#333538"/>
<path opacity="0.45" d="M62.5605 404.73H940.771L1690.51 185.43L2440.22 404.73H3443.56" stroke="#333538"/>
<path opacity="0.4" d="M62.3457 371.04H938.066L1690.48 170.02L2442.85 371.04H3443.35" stroke="#333538"/>
<path opacity="0.3" d="M62.2012 337.359H935.441L1690.51 154.609L2445.53 337.359H3443.2" stroke="#333538"/>
<path opacity="0.2" d="M61.9863 303.669H932.746L1690.48 139.199L2448.15 303.669H3442.99" stroke="#333538"/>
<path opacity="0.1" d="M61.8477 269.989H930.128L1690.51 123.789L2450.85 269.989H3442.85" stroke="#333538"/>
</g>
<g clip-path="url(#clip1_4_26690)">
<path d="M64.4922 809.5H969.992L1690.49 1229.82L2410.99 809.5H3445.49" stroke="#333538"/>
<path opacity="0.95" d="M64.252 843.18H967.316L1690.51 1245.25L2413.7 843.18H3445.42" stroke="#333538"/>
<path opacity="0.9" d="M64.1445 876.871H964.685L1690.5 1260.64L2416.31 876.871H3445.14" stroke="#333538"/>
<path opacity="0.85" d="M63.9688 910.547H962.029L1690.5 1276.05L2418.97 910.547H3444.97" stroke="#333538"/>
<path opacity="0.8" d="M63.793 944.241H959.363L1690.5 1291.46L2421.62 944.241H3444.79" stroke="#333538"/>
<path opacity="0.75" d="M63.6172 977.917H956.707L1690.51 1306.87L2424.29 977.917H3444.62" stroke="#333538"/>
<path opacity="0.7" d="M63.4492 1011.61H954.059L1690.52 1322.28L2426.95 1011.61H3444.45" stroke="#333538"/>
<path opacity="0.65" d="M63.2637 1045.3H951.394L1690.5 1337.7L2429.59 1045.3H3444.26" stroke="#333538"/>
<path opacity="0.6" d="M63.0781 1078.98H948.728L1690.5 1353.11L2432.25 1078.98H3444.08" stroke="#333538"/>
<path opacity="0.55" d="M62.916 1112.67H946.086L1690.52 1368.52L2434.92 1112.67H3443.92" stroke="#333538"/>
<path opacity="0.5" d="M62.7363 1146.35H943.426L1690.52 1383.93L2437.57 1146.35H3443.74" stroke="#333538"/>
<path opacity="0.45" d="M62.5527 1180.04H940.763L1690.5 1399.34L2440.21 1180.04H3443.55" stroke="#333538"/>
<path opacity="0.4" d="M60.0918 1213.73H935.812L1688.22 1414.75L2440.59 1213.73H3441.09" stroke="#333538"/>
<path opacity="0.3" d="M62.2109 1247.41H935.451L1690.52 1430.16L2445.54 1247.41H3443.21" stroke="#333538"/>
<path opacity="0.2" d="M59.3477 1281.1H930.108L1687.84 1445.57L2445.51 1281.1H3440.35" stroke="#333538"/>
<path opacity="0.1" d="M61.8184 1314.78H930.098L1690.48 1460.98L2450.82 1314.78H3442.82" stroke="#333538"/>
</g>
<defs>
<clipPath id="clip0_4_26690">
<rect width="3381" height="775.77" fill="white"/>
</clipPath>
<clipPath id="clip1_4_26690">
<rect width="3381" height="775.77" fill="white" transform="matrix(1 0 0 -1 0 1584.77)"/>
</clipPath>
</defs>
</svg>
