<svg width="3381" height="1586" viewBox="0 0 3381 1586" fill="none" xmlns="http://www.w3.org/2000/svg">
<g clip-path="url(#clip0_18_27124)">
<path d="M64.5469 776.039H970.047L1690.55 355.719L2411.05 776.039H3445.55" stroke="#D2D3D5"/>
<path opacity="0.95" d="M64.3555 742.359H967.375L1690.54 340.309L2413.69 742.359H3445.36" stroke="#D2D3D5"/>
<path opacity="0.9" d="M64.1504 708.668H964.69L1690.51 324.898L2416.32 708.668H3445.15" stroke="#D2D3D5"/>
<path opacity="0.85" d="M63.9883 674.992H962.048L1690.52 309.492L2418.99 674.992H3444.99" stroke="#D2D3D5"/>
<path opacity="0.8" d="M63.8105 641.298H959.381L1690.52 294.078L2421.64 641.298H3444.81" stroke="#D2D3D5"/>
<path opacity="0.75" d="M63.6348 607.622H956.725L1690.52 278.672L2424.3 607.622H3444.63" stroke="#D2D3D5"/>
<path opacity="0.7" d="M63.4395 573.928H954.049L1690.51 263.258L2426.94 573.928H3444.44" stroke="#D2D3D5"/>
<path opacity="0.65" d="M63.2695 540.24H951.4L1690.51 247.84L2429.6 540.24H3444.27" stroke="#D2D3D5"/>
<path opacity="0.6" d="M63.0918 506.56H948.742L1690.51 232.43L2432.26 506.56H3444.09" stroke="#D2D3D5"/>
<path opacity="0.55" d="M62.9023 472.87H946.072L1690.5 217.02L2434.9 472.87H3443.9" stroke="#D2D3D5"/>
<path opacity="0.5" d="M62.7227 439.189H943.413L1690.5 201.609L2437.55 439.189H3443.72" stroke="#D2D3D5"/>
<path opacity="0.45" d="M62.5605 405.499H940.771L1690.51 186.199L2440.22 405.499H3443.56" stroke="#D2D3D5"/>
<path opacity="0.4" d="M62.3457 371.809H938.066L1690.48 170.789L2442.85 371.809H3443.35" stroke="#D2D3D5"/>
<path opacity="0.3" d="M62.2012 338.129H935.441L1690.51 155.379L2445.53 338.129H3443.2" stroke="#D2D3D5"/>
<path opacity="0.2" d="M61.9863 304.439H932.746L1690.48 139.969L2448.15 304.439H3442.99" stroke="#D2D3D5"/>
<path opacity="0.1" d="M61.8477 270.759H930.128L1690.51 124.559L2450.85 270.759H3442.85" stroke="#D2D3D5"/>
</g>
<g clip-path="url(#clip1_18_27124)">
<path d="M64.4922 810.27H969.992L1690.49 1230.59L2410.99 810.27H3445.49" stroke="#D2D3D5"/>
<path opacity="0.95" d="M64.252 843.95H967.316L1690.51 1246.02L2413.7 843.95H3445.42" stroke="#D2D3D5"/>
<path opacity="0.9" d="M64.1445 877.64H964.685L1690.5 1261.41L2416.31 877.64H3445.14" stroke="#D2D3D5"/>
<path opacity="0.85" d="M63.9688 911.316H962.029L1690.5 1276.82L2418.97 911.316H3444.97" stroke="#D2D3D5"/>
<path opacity="0.8" d="M63.793 945.01H959.363L1690.5 1292.23L2421.62 945.01H3444.79" stroke="#D2D3D5"/>
<path opacity="0.75" d="M63.6172 978.687H956.707L1690.51 1307.64L2424.29 978.687H3444.62" stroke="#D2D3D5"/>
<path opacity="0.7" d="M63.4492 1012.38H954.059L1690.52 1323.05L2426.95 1012.38H3444.45" stroke="#D2D3D5"/>
<path opacity="0.65" d="M63.2637 1046.07H951.394L1690.5 1338.47L2429.59 1046.07H3444.26" stroke="#D2D3D5"/>
<path opacity="0.6" d="M63.0781 1079.75H948.728L1690.5 1353.88L2432.25 1079.75H3444.08" stroke="#D2D3D5"/>
<path opacity="0.55" d="M62.916 1113.44H946.086L1690.52 1369.29L2434.92 1113.44H3443.92" stroke="#D2D3D5"/>
<path opacity="0.5" d="M62.7363 1147.12H943.426L1690.52 1384.7L2437.57 1147.12H3443.74" stroke="#D2D3D5"/>
<path opacity="0.45" d="M62.5527 1180.81H940.763L1690.5 1400.11L2440.21 1180.81H3443.55" stroke="#D2D3D5"/>
<path opacity="0.4" d="M60.0918 1214.5H935.812L1688.22 1415.52L2440.59 1214.5H3441.09" stroke="#D2D3D5"/>
<path opacity="0.3" d="M62.2109 1248.18H935.451L1690.52 1430.93L2445.54 1248.18H3443.21" stroke="#D2D3D5"/>
<path opacity="0.2" d="M59.3477 1281.87H930.108L1687.84 1446.34L2445.51 1281.87H3440.35" stroke="#D2D3D5"/>
<path opacity="0.1" d="M61.8184 1315.55H930.098L1690.48 1461.75L2450.82 1315.55H3442.82" stroke="#D2D3D5"/>
</g>
<defs>
<clipPath id="clip0_18_27124">
<rect width="3381" height="775.77" fill="white" transform="translate(0 0.769531)"/>
</clipPath>
<clipPath id="clip1_18_27124">
<rect width="3381" height="775.77" fill="white" transform="matrix(1 0 0 -1 0 1585.54)"/>
</clipPath>
</defs>
</svg>
