<svg xmlns="http://www.w3.org/2000/svg" width="52.267" height="41.067" viewBox="0 0 52.267 41.067"><defs><style>.a{fill:none;}.b{fill:#f5da0c;}.c{fill:#fff04d;}.d{fill:#232323;}.e{fill:#15191f;}</style></defs><rect class="a" width="52.267" height="41.067"/><g transform="translate(3.267 4.667)"><path class="b" d="M269.365,443.681s-6.966-1.032-10.647-1.328c-3.535-.284-7.724-.448-12.218-.448s-8.683.164-12.217.448c-3.682.3-10.647,1.732-10.647,1.732v1.8c0,1.6,10.237,2.9,22.864,2.9s22.864-1.3,22.864-2.9Z" transform="translate(-223.634 -417.164)"/><path class="b" d="M241.625,394.889A20.96,20.96,0,0,0,227.7,414.632V417.6a50.728,50.728,0,0,1,9.076-1.316q-.031-.854-.032-1.721C236.747,406.775,238.627,399.767,241.625,394.889Z" transform="translate(-225.789 -392.247)"/><path class="c" d="M311.469,421.867a20.867,20.867,0,0,0-4.783-13.325A43.45,43.45,0,0,1,308.67,421.8q0,1.227-.063,2.426a25.707,25.707,0,0,1,2.829.6Z" transform="translate(-267.649 -399.482)"/><path class="b" d="M311.469,421.867a20.867,20.867,0,0,0-4.783-13.325A43.45,43.45,0,0,1,308.67,421.8q0,1.227-.063,2.426a25.707,25.707,0,0,1,2.829.6Z" transform="translate(-267.649 -399.482)"/><path class="c" d="M275.024,399.941a20.974,20.974,0,0,0-23.2-6.417c-3,4.878-4.879,11.886-4.879,19.675q0,.867.032,1.721c3.12-.241,6.732-.39,10.6-.417,0,0,.879,0,1.278,0a122.242,122.242,0,0,1,18.092,1.127q.061-1.2.063-2.426A43.449,43.449,0,0,0,275.024,399.941Z" transform="translate(-235.987 -390.882)"/><g transform="translate(14.537)"><path class="c" d="M271.318,399.712l-1.328-8.3a1.6,1.6,0,0,0-1.124-1.289,21.047,21.047,0,0,0-11.853,0,1.6,1.6,0,0,0-1.123,1.289l-1.329,8.3" transform="translate(-254.56 -389.267)"/></g><path class="c" d="M246.5,439.148q-.6,0-1.191,0l-.044,0-.044,0c-12.033.084-21.586,1.348-21.586,2.895v2.242a.558.558,0,0,0,.079.378,5.345,5.345,0,0,1,2.06-.946,40.309,40.309,0,0,1,5.781-.968,3.871,3.871,0,0,1,3.033.99,8.159,8.159,0,0,0,5.51,2.141h12.8a8.16,8.16,0,0,0,5.51-2.141h0a3.869,3.869,0,0,1,3.034-.991,40.29,40.29,0,0,1,5.78.968,4.833,4.833,0,0,1,1.954.855c.033.033.071.062.1.092a.562.562,0,0,0,.08-.38v-2.242C269.363,440.446,259.126,439.148,246.5,439.148Z" transform="translate(-223.632 -415.703)"/><path class="d" d="M277.1,424.983l-4.822,2.968v3.855Z" transform="translate(-249.416 -408.196)"/><path class="e" d="M266.845,431.806v-3.855l-4.822-2.968Z" transform="translate(-243.978 -408.196)"/><path class="e" d="M262.023,412.443h0l4.822,2.788V404.644Z" transform="translate(-243.978 -397.417)"/><path class="d" d="M277.1,412.443l-4.822-7.8h0v5.011h0v5.576l4.822-2.788h0Z" transform="translate(-249.416 -397.417)"/></g></svg>