<svg width="156" height="168" viewBox="0 0 156 168" fill="none" xmlns="http://www.w3.org/2000/svg">
<g clip-path="url(#clip0)">
<path d="M155.733 98.9306C155.626 98.8236 155.466 98.7166 155.359 98.6096C154.345 97.593 152.049 96.5764 148.686 95.6668C143.987 94.3827 137.261 93.2591 128.985 92.3495C125.195 91.9215 121.458 93.1521 118.628 95.7203C113.503 100.429 106.776 103.05 99.8355 103.05H56.2174C49.2769 103.05 42.55 100.429 37.4248 95.7203C34.5952 93.1521 30.858 91.9215 27.0675 92.403C18.7923 93.3126 12.0654 94.4362 7.36728 95.7203C4.05721 96.6299 1.4412 97.914 0.373435 98.9306C0.106495 98.5561 0.0531066 98.0745 0.106495 97.6465V89.9953C0.106495 88.6042 2.45557 87.2666 6.61984 86.0359V76.4586C6.61984 46.2818 25.5192 19.3153 53.8683 9.09589L54.1352 7.33022C54.4556 5.24353 55.9504 3.53138 57.9792 2.94282C71.166 -0.963037 85.2071 -0.963037 98.394 2.94282C100.423 3.53138 101.918 5.24353 102.238 7.33022L102.558 9.2564C130.747 19.5293 149.486 46.3888 149.486 76.4586L149.38 85.9824C153.651 87.213 156 88.5507 156 89.9953V97.6465C156.053 98.0745 155.946 98.5561 155.733 98.9306Z" fill="#FFF100"/>
<path d="M6.62012 86.036V76.4586C6.62012 46.2819 25.5195 19.3154 53.922 9.09595C43.6714 25.736 37.4784 49.6527 37.4784 76.2446C37.4784 78.0103 37.5318 79.7759 37.5852 81.5416C23.9179 82.6117 13.0801 84.1633 6.62012 86.036Z" fill="url(#paint0_linear)"/>
<path d="M149.326 85.9825C146.176 85.1264 142.973 84.4308 139.716 83.9493C139.823 81.4345 139.93 78.8663 139.93 76.2446C139.93 59.765 137.474 44.3021 133.149 30.9259C143.72 43.7136 149.486 59.8185 149.433 76.4586L149.326 85.9825Z" fill="url(#paint1_linear)"/>
<path d="M155.359 98.6096C155.465 98.7166 155.572 98.8236 155.732 98.9306C152.422 104.014 118.895 109.364 78.0527 109.364C37.2108 109.364 3.68311 104.014 0.373047 98.9306C1.44081 97.914 4.05683 96.6299 7.36689 95.7203C12.065 94.4362 18.7919 93.3126 27.0671 92.403C30.8576 91.975 34.5948 93.2056 37.4244 95.7738C42.5496 100.482 49.2765 103.104 56.217 103.104H99.8351C106.776 103.104 113.502 100.482 118.628 95.7738C121.457 93.2056 125.194 91.975 128.985 92.403C137.26 93.3126 143.987 94.4362 148.685 95.7203C152.049 96.6299 154.291 97.593 155.359 98.6096Z" fill="url(#paint2_radial)"/>
<path d="M78.0532 22.4722V61.4238L61.3428 50.9903L78.0532 22.4722Z" fill="#0A0A0A"/>
<path d="M94.7632 50.9903L78.0527 61.4238V22.4722L94.7632 50.9903Z" fill="#4B4D4D"/>
<path d="M94.7632 56.6617C94.7632 56.6617 78.3731 80.2039 78.0527 80.6319V67.0417L94.7632 56.6617Z" fill="#4B4D4D"/>
<path d="M78.0532 67.0417V80.6319L61.3428 56.6617L78.0532 67.0417Z" fill="#0A0A0A"/>
</g>
<g filter="url(#filter0_f)">
<ellipse cx="78.0005" cy="150.5" rx="65.813" ry="7.5" fill="#C4C4C4" fill-opacity="0.5"/>
</g>
<defs>
<filter id="filter0_f" x="2.1875" y="133" width="151.626" height="35" filterUnits="userSpaceOnUse" color-interpolation-filters="sRGB">
<feFlood flood-opacity="0" result="BackgroundImageFix"/>
<feBlend mode="normal" in="SourceGraphic" in2="BackgroundImageFix" result="shape"/>
<feGaussianBlur stdDeviation="5" result="effect1_foregroundBlur"/>
</filter>
<linearGradient id="paint0_linear" x1="30.1147" y1="86.1707" x2="30.1147" y2="9.24148" gradientUnits="userSpaceOnUse">
<stop stop-color="#EDCF00"/>
<stop offset="0.33" stop-color="#F0D500"/>
<stop offset="0.77" stop-color="#F9E500"/>
<stop offset="1" stop-color="#FFF100"/>
</linearGradient>
<linearGradient id="paint1_linear" x1="141.172" y1="86.7326" x2="141.172" y2="31.0927" gradientUnits="userSpaceOnUse">
<stop stop-color="#EDCF00"/>
<stop offset="0.59" stop-color="#F7E100"/>
<stop offset="1" stop-color="#FFF100"/>
</linearGradient>
<radialGradient id="paint2_radial" cx="0" cy="0" r="1" gradientUnits="userSpaceOnUse" gradientTransform="translate(78.2514 138.761) scale(58.1183 58.2454)">
<stop stop-color="#FFF100"/>
<stop offset="0.23" stop-color="#F9E500"/>
<stop offset="0.67" stop-color="#F0D500"/>
<stop offset="1" stop-color="#EDCF00"/>
</radialGradient>
<clipPath id="clip0">
<rect width="156" height="158" fill="white"/>
</clipPath>
</defs>
</svg>
