<svg xmlns="http://www.w3.org/2000/svg" width="168" height="41.067" viewBox="0 0 168 41.067"><defs><style>.a{fill:none;}.b{fill:#15191f;}.c{fill:#f0d50c;}.d{fill:#fff04d;}.e{fill:#ffea00;}.f{fill:#6e6f70;}.g{fill:#0a0a0a;}</style></defs><rect class="a" width="168" height="41.067"/><path class="b" d="M1.716,0h2.86V-7.332H12.74V0h2.886V-16.64H12.74v6.994H4.576V-16.64H1.716ZM24.05.182c2.756,0,4.6-1.144,5.226-2.184l.572,2h1.508V-7.566c0-3.588-.78-5.928-6.214-5.928-4.68,0-5.824,2.132-5.824,4.888l2.7-.026c0-1.664.676-2.652,3.146-2.652,2.678,0,3.38,1.118,3.458,3.042l-4.186.416C20.644-7.462,18.9-6.344,18.9-3.9,18.9-1.092,21.19.182,24.05.182ZM24.752-2c-1.95,0-2.99-.7-2.99-1.924,0-1.04.78-1.534,3.094-1.794l3.77-.416v.416C28.626-3.406,27.2-2,24.752-2ZM34.5,0h2.782V-7.384c0-2.158.546-3.692,3.328-3.692.234,0,.494.052.754.052v-2.47h-.442c-2.6,0-3.874,1.144-4.29,2.028l-.65-1.846H34.5ZM48.256.182c3.146,0,4.628-1.17,5.1-2.08L53.976,0h1.508V-18.382h-2.73v6.708c-.572-.884-1.9-1.82-4.524-1.82-4.42,0-5.668,3.2-5.668,6.838S43.862.182,48.256.182Zm.78-2.288c-3.016,0-3.64-1.872-3.64-4.55s.624-4.5,3.666-4.5c3.172,0,3.718,1.924,3.718,4.5C52.78-3.926,52.13-2.106,49.036-2.106ZM58.968,0H61.7l.052-7.462c0-2.522.6-3.692,3.406-3.692,2.834,0,3.25,1.2,3.25,3.692V0h2.756V-7.2c0-3.822-.884-6.292-5.226-6.292-2.548,0-3.718.884-4.238,1.846v-6.734h-2.73ZM79.04.182C81.8.182,83.642-.962,84.266-2l.572,2h1.508V-7.566c0-3.588-.78-5.928-6.214-5.928-4.68,0-5.824,2.132-5.824,4.888l2.7-.026c0-1.664.676-2.652,3.146-2.652,2.678,0,3.38,1.118,3.458,3.042l-4.186.416c-3.8.364-5.538,1.482-5.538,3.926C73.892-1.092,76.18.182,79.04.182ZM79.742-2c-1.95,0-2.99-.7-2.99-1.924,0-1.04.78-1.534,3.094-1.794l3.77-.416v.416C83.616-3.406,82.186-2,79.742-2ZM96.122.1V-2.132c-2.886.13-3.406-.442-3.406-1.69v-7.254h3.406v-2.236H92.638V-16.64H89.882v3.328l-1.9.572v1.664h1.9v7.254C89.882-.676,91.728.364,96.122.1Z" transform="translate(60.571 29.2)"/><rect class="a" width="52.267" height="41.067"/><g transform="translate(3.267 4.667)"><path class="c" d="M269.365,443.681s-6.966-1.032-10.647-1.328c-3.535-.284-7.724-.448-12.218-.448s-8.683.164-12.217.448c-3.682.3-10.647,1.732-10.647,1.732v1.8c0,1.6,10.237,2.9,22.864,2.9s22.864-1.3,22.864-2.9Z" transform="translate(-223.634 -417.164)"/><path class="c" d="M241.625,394.889A20.96,20.96,0,0,0,227.7,414.632V417.6a50.728,50.728,0,0,1,9.076-1.316q-.031-.854-.032-1.721C236.747,406.775,238.627,399.767,241.625,394.889Z" transform="translate(-225.789 -392.247)"/><path class="d" d="M311.469,421.867a20.867,20.867,0,0,0-4.783-13.325A43.45,43.45,0,0,1,308.67,421.8q0,1.227-.063,2.426a25.707,25.707,0,0,1,2.829.6Z" transform="translate(-267.649 -399.482)"/><path class="e" d="M311.469,421.867a20.867,20.867,0,0,0-4.783-13.325A43.45,43.45,0,0,1,308.67,421.8q0,1.227-.063,2.426a25.707,25.707,0,0,1,2.829.6Z" transform="translate(-267.649 -399.482)"/><path class="d" d="M275.024,399.941a20.974,20.974,0,0,0-23.2-6.417c-3,4.878-4.879,11.886-4.879,19.675q0,.867.032,1.721c3.12-.241,6.732-.39,10.6-.417,0,0,.879,0,1.278,0a122.242,122.242,0,0,1,18.092,1.127q.061-1.2.063-2.426A43.449,43.449,0,0,0,275.024,399.941Z" transform="translate(-235.987 -390.882)"/><g transform="translate(14.537)"><path class="d" d="M271.318,399.712l-1.328-8.3a1.6,1.6,0,0,0-1.124-1.289,21.047,21.047,0,0,0-11.853,0,1.6,1.6,0,0,0-1.123,1.289l-1.329,8.3" transform="translate(-254.56 -389.267)"/></g><path class="d" d="M246.5,439.148q-.6,0-1.191,0l-.044,0-.044,0c-12.033.084-21.586,1.348-21.586,2.895v2.242a.558.558,0,0,0,.079.378,5.345,5.345,0,0,1,2.06-.946,40.309,40.309,0,0,1,5.781-.968,3.871,3.871,0,0,1,3.033.99,8.159,8.159,0,0,0,5.51,2.141h12.8a8.16,8.16,0,0,0,5.51-2.141h0a3.869,3.869,0,0,1,3.034-.991,40.29,40.29,0,0,1,5.78.968,4.833,4.833,0,0,1,1.954.855c.033.033.071.062.1.092a.562.562,0,0,0,.08-.38v-2.242C269.363,440.446,259.126,439.148,246.5,439.148Z" transform="translate(-223.632 -415.703)"/><path class="f" d="M277.1,424.983l-4.822,2.968v3.855Z" transform="translate(-249.416 -408.196)"/><path class="g" d="M266.845,431.806v-3.855l-4.822-2.968Z" transform="translate(-243.978 -408.196)"/><path class="g" d="M262.023,412.443h0l4.822,2.788V404.644Z" transform="translate(-243.978 -397.417)"/><path class="f" d="M277.1,412.443l-4.822-7.8h0v5.011h0v5.576l4.822-2.788h0Z" transform="translate(-249.416 -397.417)"/></g></svg>