<svg width="412" height="191" fill="none" xmlns="http://www.w3.org/2000/svg"><g clip-path="url(#a)"><path fill="#181A1F" d="M0 0h412v191H0z"/><g filter="url(#b)"><mask id="c" fill="#fff"><path d="M257.546 135.73h-12.2a19.82 19.82 0 0 0 39.63 0"/></mask><path d="M257.546 135.73h-12.2a19.82 19.82 0 0 0 39.63 0" fill="#2A2D36"/><path d="M245.346 135.73v-.5h-.512l.012.511.5-.011Zm12.2-.5h-12.2v1h12.2v-1Zm-12.7.511a20.32 20.32 0 0 0 6.109 14.073l.699-.715a19.32 19.32 0 0 1-5.808-13.38l-1 .022Zm6.109 14.073a20.32 20.32 0 0 0 14.206 5.791v-1a19.323 19.323 0 0 1-13.507-5.506l-.699.715Zm14.206 5.791c5.31 0 10.409-2.079 14.206-5.791l-.699-.715a19.323 19.323 0 0 1-13.507 5.506v1Zm14.206-5.791a20.324 20.324 0 0 0 6.109-14.073l-1-.022a19.324 19.324 0 0 1-5.808 13.38l.699.715Z" fill="#454A59" mask="url(#c)"/></g><g filter="url(#d)"><g filter="url(#e)"><mask id="f" fill="#fff"><path d="M244.866 68.13a7.87 7.87 0 0 0-6.91 4.12l-.09.19a4.46 4.46 0 0 0-.24.49 7.873 7.873 0 0 0-.025 6.071 7.872 7.872 0 0 0 4.255 4.26c.954.395 1.977.599 3.01.599v12h-12a7.882 7.882 0 0 1-7.875 7.599 7.883 7.883 0 0 1-7.875-7.6H205.076v-12a7.859 7.859 0 0 0 6.91-4.12c0-.06.06-.13.1-.19.04-.06.16-.32.23-.49a7.864 7.864 0 0 0-1.682-8.617 7.86 7.86 0 0 0-5.558-2.302V56.06h12.07a7.88 7.88 0 0 1 15.75 0h12l-.03 12.07Zm27.21-51.83a7.87 7.87 0 1 1-15.74 0h-63.21a7.86 7.86 0 0 0-10.92-7.24l-.48.24-.2.09a7.884 7.884 0 0 0-4.11 6.91h-12v12a7.87 7.87 0 0 1 0 15.74v12h-12.12a7.808 7.808 0 0 0-4.11-6.91l-.19-.1-.49-.23a7.86 7.86 0 0 0-3.06-.62 7.85 7.85 0 0 0-7.92 7.92h-12v12.05a7.882 7.882 0 0 1 7.599 7.875 7.881 7.881 0 0 1-7.599 7.875v24a7.843 7.843 0 0 0-5.561 2.299 7.841 7.841 0 0 0-2.299 5.561c0 1.051.211 2.092.62 3.06.07.17.15.33.23.49.08.16.06.13.1.19a7.866 7.866 0 0 0 6.91 4.12v12h12a7.882 7.882 0 0 1 7.875-7.599 7.883 7.883 0 0 1 7.875 7.599h12.05l.06.14h-.12v12a7.849 7.849 0 0 0-6.91 4.11l-.09.2c-.087.16-.167.32-.24.48a7.864 7.864 0 0 0 1.682 8.618 7.86 7.86 0 0 0 5.558 2.302v12h.26l-.16.06h51.75a7.835 7.835 0 0 0 4.11 6.91l.19.09.49.24a7.864 7.864 0 0 0 8.618-1.682 7.866 7.866 0 0 0 2.302-5.558h12v-12.05a7.882 7.882 0 0 1-7.599-7.875 7.883 7.883 0 0 1 7.599-7.875l.08-12.14 12 .14a7.862 7.862 0 0 0 4.852 7.262 7.862 7.862 0 0 0 3.008.598 16.586 16.586 0 0 0 3.74-1 7.832 7.832 0 0 0 4.11-6.91h12v-12a7.882 7.882 0 0 1-7.599-7.875 7.883 7.883 0 0 1 7.599-7.875V83.88a7.868 7.868 0 0 0 6.92-4.12l.09-.19c.08-.16.17-.32.24-.49.422-.973.646-2.02.66-3.08a7.872 7.872 0 0 0-2.306-5.561 7.856 7.856 0 0 0-5.564-2.3v-24a7.882 7.882 0 0 1-5.39-13.346 7.882 7.882 0 0 1 5.39-2.403v-12l-12.58-.09Z"/></mask><path d="M244.866 68.13a7.87 7.87 0 0 0-6.91 4.12l-.09.19a4.46 4.46 0 0 0-.24.49 7.873 7.873 0 0 0-.025 6.071 7.872 7.872 0 0 0 4.255 4.26c.954.395 1.977.599 3.01.599v12h-12a7.882 7.882 0 0 1-7.875 7.599 7.883 7.883 0 0 1-7.875-7.6H205.076v-12a7.859 7.859 0 0 0 6.91-4.12c0-.06.06-.13.1-.19.04-.06.16-.32.23-.49a7.864 7.864 0 0 0-1.682-8.617 7.86 7.86 0 0 0-5.558-2.302V56.06h12.07a7.88 7.88 0 0 1 15.75 0h12l-.03 12.07Zm27.21-51.83a7.87 7.87 0 1 1-15.74 0h-63.21a7.86 7.86 0 0 0-10.92-7.24l-.48.24-.2.09a7.884 7.884 0 0 0-4.11 6.91h-12v12a7.87 7.87 0 0 1 0 15.74v12h-12.12a7.808 7.808 0 0 0-4.11-6.91l-.19-.1-.49-.23a7.86 7.86 0 0 0-3.06-.62 7.85 7.85 0 0 0-7.92 7.92h-12v12.05a7.882 7.882 0 0 1 7.599 7.875 7.881 7.881 0 0 1-7.599 7.875v24a7.843 7.843 0 0 0-5.561 2.299 7.841 7.841 0 0 0-2.299 5.561c0 1.051.211 2.092.62 3.06.07.17.15.33.23.49.08.16.06.13.1.19a7.866 7.866 0 0 0 6.91 4.12v12h12a7.882 7.882 0 0 1 7.875-7.599 7.883 7.883 0 0 1 7.875 7.599h12.05l.06.14h-.12v12a7.849 7.849 0 0 0-6.91 4.11l-.09.2c-.087.16-.167.32-.24.48a7.864 7.864 0 0 0 1.682 8.618 7.86 7.86 0 0 0 5.558 2.302v12h.26l-.16.06h51.75a7.835 7.835 0 0 0 4.11 6.91l.19.09.49.24a7.864 7.864 0 0 0 8.618-1.682 7.866 7.866 0 0 0 2.302-5.558h12v-12.05a7.882 7.882 0 0 1-7.599-7.875 7.883 7.883 0 0 1 7.599-7.875l.08-12.14 12 .14a7.862 7.862 0 0 0 4.852 7.262 7.862 7.862 0 0 0 3.008.598 16.586 16.586 0 0 0 3.74-1 7.832 7.832 0 0 0 4.11-6.91h12v-12a7.882 7.882 0 0 1-7.599-7.875 7.883 7.883 0 0 1 7.599-7.875V83.88a7.868 7.868 0 0 0 6.92-4.12l.09-.19c.08-.16.17-.32.24-.49.422-.973.646-2.02.66-3.08a7.872 7.872 0 0 0-2.306-5.561 7.856 7.856 0 0 0-5.564-2.3v-24a7.882 7.882 0 0 1-5.39-13.346 7.882 7.882 0 0 1 5.39-2.403v-12l-12.58-.09Z" fill="#2A2D36"/><path d="M244.866 68.13a7.87 7.87 0 0 0-6.91 4.12l-.09.19a4.46 4.46 0 0 0-.24.49 7.873 7.873 0 0 0-.025 6.071 7.872 7.872 0 0 0 4.255 4.26c.954.395 1.977.599 3.01.599v12h-12a7.882 7.882 0 0 1-7.875 7.599 7.883 7.883 0 0 1-7.875-7.6H205.076v-12a7.859 7.859 0 0 0 6.91-4.12c0-.06.06-.13.1-.19.04-.06.16-.32.23-.49a7.864 7.864 0 0 0-1.682-8.617 7.86 7.86 0 0 0-5.558-2.302V56.06h12.07a7.88 7.88 0 0 1 15.75 0h12l-.03 12.07Zm27.21-51.83a7.87 7.87 0 1 1-15.74 0h-63.21a7.86 7.86 0 0 0-10.92-7.24l-.48.24-.2.09a7.884 7.884 0 0 0-4.11 6.91h-12v12a7.87 7.87 0 0 1 0 15.74v12h-12.12a7.808 7.808 0 0 0-4.11-6.91l-.19-.1-.49-.23a7.86 7.86 0 0 0-3.06-.62 7.85 7.85 0 0 0-7.92 7.92h-12v12.05a7.882 7.882 0 0 1 7.599 7.875 7.881 7.881 0 0 1-7.599 7.875v24a7.843 7.843 0 0 0-5.561 2.299 7.841 7.841 0 0 0-2.299 5.561c0 1.051.211 2.092.62 3.06.07.17.15.33.23.49.08.16.06.13.1.19a7.866 7.866 0 0 0 6.91 4.12v12h12a7.882 7.882 0 0 1 7.875-7.599 7.883 7.883 0 0 1 7.875 7.599h12.05l.06.14h-.12v12a7.849 7.849 0 0 0-6.91 4.11l-.09.2c-.087.16-.167.32-.24.48a7.864 7.864 0 0 0 1.682 8.618 7.86 7.86 0 0 0 5.558 2.302v12h.26l-.16.06h51.75a7.835 7.835 0 0 0 4.11 6.91l.19.09.49.24a7.864 7.864 0 0 0 8.618-1.682 7.866 7.866 0 0 0 2.302-5.558h12v-12.05a7.882 7.882 0 0 1-7.599-7.875 7.883 7.883 0 0 1 7.599-7.875l.08-12.14 12 .14a7.862 7.862 0 0 0 4.852 7.262 7.862 7.862 0 0 0 3.008.598 16.586 16.586 0 0 0 3.74-1 7.832 7.832 0 0 0 4.11-6.91h12v-12a7.882 7.882 0 0 1-7.599-7.875 7.883 7.883 0 0 1 7.599-7.875V83.88a7.868 7.868 0 0 0 6.92-4.12l.09-.19c.08-.16.17-.32.24-.49.422-.973.646-2.02.66-3.08a7.872 7.872 0 0 0-2.306-5.561 7.856 7.856 0 0 0-5.564-2.3v-24a7.882 7.882 0 0 1-5.39-13.346 7.882 7.882 0 0 1 5.39-2.403v-12l-12.58-.09Z" stroke="#454A59" mask="url(#f)"/></g><g filter="url(#g)"><path d="M244.766 67.99a7.842 7.842 0 0 0-7.01 4.31c-.08.16-.16.32-.23.49a7.864 7.864 0 0 0-.62 3.06 7.856 7.856 0 0 0 2.299 5.565 7.862 7.862 0 0 0 5.561 2.305v12h12.05a7.87 7.87 0 1 1 15.74 0h12v-12a7.87 7.87 0 0 0 6.91-4.12l.09-.19c.08-.16.17-.32.24-.49a7.864 7.864 0 0 0-1.682-8.617A7.86 7.86 0 0 0 284.556 68V56h-12.02a7.876 7.876 0 0 1-7.875 7.599 7.88 7.88 0 0 1-7.875-7.6h-12v12l-.02-.01Z" fill="#2A2D36"/><path d="M245.036 68V56.25h11.513a8.128 8.128 0 0 0 16.225 0h11.532v12h.25a7.609 7.609 0 0 1 7.01 10.573l-.001.002a3.936 3.936 0 0 1-.156.324 7.08 7.08 0 0 0-.076.15l-.003.004-.087.184a7.616 7.616 0 0 1-6.687 3.984h-.25v12h-11.504a8.116 8.116 0 0 0-8.116-7.87 8.118 8.118 0 0 0-8.116 7.87h-11.554v-12h-.25a7.61 7.61 0 0 1-7.61-7.62c0-1.018.204-2.026.601-2.963v-.002c.066-.16.142-.313.223-.474l.004-.009c.025-.056.054-.11.086-.163l.006-.01a7.593 7.593 0 0 1 6.632-3.99l.328.165v-.404Z" stroke="#454A59" stroke-width=".5"/></g></g><path d="M205.479 132.51V1.81l-55.1 95.63 55.1 35.07Z" fill="url(#h)"/><path d="M205.569 189.22v-45.3l-55.19-35.16 55.19 80.46Z" fill="url(#i)"/><path opacity=".68" fill-rule="evenodd" clip-rule="evenodd" d="M236.638 55.89 205.479 1.81v54.02h11.608a7.842 7.842 0 0 1 2.32-5.552 7.848 7.848 0 0 1 5.57-2.278 7.833 7.833 0 0 1 3.06.63l.49.23.19.1a7.86 7.86 0 0 1 4.09 6.93h3.831Zm6.987 12.126a7.882 7.882 0 0 0-4.269 13.197 7.883 7.883 0 0 0 5.381 2.427l-.06 12.05h-11.68a7.88 7.88 0 0 1-2.326 5.549c-1.479 1.47-3.8 2.243-5.884 2.241a8.029 8.029 0 0 1-3.05-.63l-.49-.24-.19-.1a7.854 7.854 0 0 1-4.09-6.92l-.06.03h-11.428v36.89l55.1-35.07-16.954-29.424Zm-38.146 15.589a7.871 7.871 0 0 0 0-15.71v15.71Zm0 60.315v45.3l55.1-80.46-55.1 35.16Z" fill="url(#j)"/><g filter="url(#k)"><mask id="l" fill="#fff"><path d="M125.527 108.14v-12.2a19.821 19.821 0 0 0 0 39.63"/></mask><path d="M125.527 108.14v-12.2a19.821 19.821 0 0 0 0 39.63" fill="#2A2D36"/><path d="M125.527 95.94h1v-1.023l-1.022.023.022 1Zm-19.375 19.815h1-1Zm20.375-7.615v-12.2h-2v12.2h2Zm-1.022-13.2a20.82 20.82 0 0 0-14.419 6.259l1.43 1.398a18.822 18.822 0 0 1 13.034-5.657l-.045-2Zm-14.419 6.259a20.82 20.82 0 0 0-5.934 14.556h2c0-4.918 1.926-9.641 5.364-13.158l-1.43-1.398Zm-5.934 14.556c0 5.441 2.13 10.665 5.934 14.556l1.43-1.399a18.82 18.82 0 0 1-5.364-13.157h-2Zm5.934 14.556a20.824 20.824 0 0 0 14.419 6.259l.045-2a18.816 18.816 0 0 1-13.034-5.658l-1.43 1.399Z" fill="#292D36" mask="url(#l)"/></g><path d="M217.277 175.53a7.874 7.874 0 0 0 4.11 6.91l.2.09.48.24a7.863 7.863 0 0 0 10.92-7.24h12v-12.05a7.889 7.889 0 0 1-5.753-2.205 7.88 7.88 0 0 1 5.753-13.545v-12h-12a7.846 7.846 0 0 0-4.08-6.93 1.205 1.205 0 0 0-.2-.1l-.48-.23a7.86 7.86 0 0 0-10.92 7.24h-12v12a7.87 7.87 0 1 1 0 15.74v12l11.97.08Z" stroke="#454A59" stroke-width=".5" stroke-miterlimit="10"/><path d="M245.077 107.87v-12h-12a7.88 7.88 0 0 1-15.75 0h-12v12a7.856 7.856 0 0 0-7.87 7.86c0 1.051.211 2.091.62 3.06.07.17.16.33.24.49l.09.19a7.877 7.877 0 0 0 6.91 4.12v12h12a7.869 7.869 0 0 1 13.435-5.565 7.869 7.869 0 0 1 2.305 5.565h12.05v-12a7.859 7.859 0 0 0 7.86-7.86 7.86 7.86 0 0 0-.62-3.06 10.79 10.79 0 0 0-.33-.68 7.807 7.807 0 0 0-6.91-4.11l-.03-.01ZM137.676 95.92a7.873 7.873 0 0 0 4.11 6.92l.2.09.48.23a7.864 7.864 0 0 0 6.069.024 7.856 7.856 0 0 0 4.255-4.255 7.848 7.848 0 0 0 .596-3.01h12v-12a7.87 7.87 0 0 1 0-15.74v-12h-12a7.884 7.884 0 0 0-4.11-6.92l-.2-.09-.49-.23a7.847 7.847 0 0 0-10.312 4.224 7.851 7.851 0 0 0-.598 3.007h-12v12.05a7.875 7.875 0 0 1 7.533 4.795 7.875 7.875 0 0 1-1.781 8.75 7.868 7.868 0 0 1-5.752 2.205v12l12-.05Z" stroke="#454A59" stroke-width=".5" stroke-miterlimit="10"/><path d="M165.522 68.184a7.872 7.872 0 0 0-6.92 4.12l-.09.19c-.08.16-.16.32-.23.49a7.864 7.864 0 0 0-.62 3.06 7.855 7.855 0 0 0 2.299 5.565 7.864 7.864 0 0 0 5.561 2.305v12h12a7.87 7.87 0 1 1 15.74 0h12v-12a7.868 7.868 0 0 0 6.92-4.12l.09-.19a7.87 7.87 0 0 0 .86-3.55 7.872 7.872 0 0 0-2.306-5.561 7.856 7.856 0 0 0-5.564-2.299v-12h-12a7.88 7.88 0 0 1-15.75 0h-12v12l.01-.01Z" stroke="#454A59" stroke-width=".5" stroke-miterlimit="10"/><path d="M193.257 135.73h12v-12a7.883 7.883 0 0 1-5.39-13.347 7.878 7.878 0 0 1 5.39-2.403v-12h-12a7.86 7.86 0 0 0-10.92-7.24c-.168.07-.332.15-.49.24l-.2.09a7.868 7.868 0 0 0-4.11 6.91h-12v12a7.878 7.878 0 0 1 7.599 7.875 7.883 7.883 0 0 1-7.599 7.875v12h12a7.859 7.859 0 0 0 7.86 7.86 7.864 7.864 0 0 0 3.06-.62l.48-.23c.07 0 .14-.06.2-.1a7.87 7.87 0 0 0 4.11-6.91h.01Z" stroke="#454A59" stroke-width=".5" stroke-miterlimit="10"/><path d="M165.476 107.87v-12h-12a7.877 7.877 0 0 1-13.346 5.39 7.88 7.88 0 0 1-2.404-5.39h-12.05v12a7.846 7.846 0 0 0-7.86 7.86c0 1.051.211 2.091.62 3.06.07.17.16.33.24.49l.09.19a7.877 7.877 0 0 0 6.91 4.12v12h12a7.873 7.873 0 0 1 7.87-7.87 7.869 7.869 0 0 1 7.87 7.87h12v-12a7.859 7.859 0 0 0 7.86-7.86c0-1.052-.21-2.092-.62-3.06a10.79 10.79 0 0 0-.33-.68 7.807 7.807 0 0 0-6.91-4.11l.06-.01Z" stroke="#454A59" stroke-width=".5" stroke-miterlimit="10"/><g filter="url(#m)"><path d="M193.257 56.16h12v-12a7.882 7.882 0 0 1-5.39-13.347 7.882 7.882 0 0 1 5.39-2.403v-12h-12a7.848 7.848 0 0 0-4.85-7.265 7.854 7.854 0 0 0-3.01-.595 7.86 7.86 0 0 0-3.06.62c-.168.07-.332.15-.49.24l-.19.09a7.876 7.876 0 0 0-4.12 6.91h-12v12a7.87 7.87 0 1 1 0 15.74v12h12a7.863 7.863 0 0 0 7.83 7.85 7.86 7.86 0 0 0 3.06-.62l.48-.23.2-.1a7.857 7.857 0 0 0 4.11-6.91l.04.02Z" stroke="#454A59" stroke-width=".5"/></g><g filter="url(#n)"><path d="M73.917 95.93a7.83 7.83 0 0 0-4.11-6.93l-.2-.1-.48-.23a7.86 7.86 0 0 0-10.92 7.24h-12v12a7.88 7.88 0 0 1 5.565 2.305 7.874 7.874 0 0 1 0 11.13 7.86 7.86 0 0 1-5.565 2.305v12h12a7.881 7.881 0 0 0 4.11 6.91l.2.09c.16.08.32.17.49.24a7.755 7.755 0 0 0 3 .62 7.86 7.86 0 0 0 7.86-7.86h12v-12a7.876 7.876 0 0 1-7.6-7.875 7.88 7.88 0 0 1 7.6-7.875V96l-11.95-.07Z" fill="#2A2D36"/><path d="m73.667 95.929-.001.25.25.001 11.701.069v11.414a8.128 8.128 0 0 0 0 16.225V135.4h-12v.25a7.608 7.608 0 0 1-7.61 7.61 7.505 7.505 0 0 1-2.902-.6l-.003-.001a3.95 3.95 0 0 1-.323-.156l-.15-.076v-.001l-.01-.004-.19-.086a7.624 7.624 0 0 1-3.972-6.686v-.25h-12v-11.504a8.118 8.118 0 0 0 5.492-13.857 8.12 8.12 0 0 0-5.492-2.375V96.16h12v-.25a7.61 7.61 0 0 1 10.567-7.012l.473.227.195.097a7.58 7.58 0 0 1 3.975 6.707Z" stroke="#454A59" stroke-width=".5"/></g><g filter="url(#o)"><path d="M34.087 16.34a7.87 7.87 0 0 0-4.12-6.91l-.19-.09c-.16-.08-.32-.17-.49-.24a7.86 7.86 0 0 0-10.92 7.24h-12v12.05a7.88 7.88 0 0 1 0 15.75v12h12a7.84 7.84 0 0 0 4.12 6.91l.19.1.49.23a7.86 7.86 0 0 0 10.92-7.24h12v-12a7.87 7.87 0 0 1 0-15.74v-12l-12-.06Z" fill="#2A2D36"/><path d="M33.837 16.34v.249l.249.001 11.751.059v11.505a8.12 8.12 0 0 0 0 16.232V55.89h-12v.25a7.61 7.61 0 0 1-10.568 7.012l-.48-.226-.183-.096h-.001a7.59 7.59 0 0 1-3.988-6.69v-.25h-12V44.378a8.13 8.13 0 0 0 0-16.226V16.59h12v-.25A7.61 7.61 0 0 1 29.19 9.33l.002.001c.111.046.213.099.324.156l.15.077.004.002.184.087a7.62 7.62 0 0 1 3.983 6.687Z" stroke="#454A59" stroke-width=".5"/></g><g filter="url(#p)"><path d="M312.185 16.509a7.876 7.876 0 0 0-4.11-6.91l-.2-.1-.48-.23a7.863 7.863 0 0 0-8.618 1.682 7.86 7.86 0 0 0-2.302 5.558h-12v12a7.878 7.878 0 0 1 8.16 7.875 7.875 7.875 0 0 1-5.06 7.358 7.88 7.88 0 0 1-3.1.517v12h12a7.868 7.868 0 0 0 4.11 6.91l.2.09c.158.09.321.17.49.24a7.767 7.767 0 0 0 3 .62 7.863 7.863 0 0 0 7.86-7.86h12v-12a7.88 7.88 0 0 1 0-15.75v-12h-11.95Z" fill="#2A2D36"/><path d="M311.935 16.509v.25h11.95V28.27a8.13 8.13 0 0 0 0 16.226v11.512h-12v.25a7.612 7.612 0 0 1-7.61 7.61 7.523 7.523 0 0 1-2.903-.6h-.001a4.235 4.235 0 0 1-.463-.227l-.01-.006-.011-.005-.191-.086a7.613 7.613 0 0 1-3.971-6.686l-.001-.25h-11.999V44.514a8.13 8.13 0 1 0 0-16.26V16.759h12v-.25a7.607 7.607 0 0 1 7.61-7.61c1.015 0 2.021.203 2.957.598l.473.226.194.098a7.622 7.622 0 0 1 3.976 6.688Z" stroke="#454A59" stroke-width=".5"/></g><path d="M244.906 16.508v12a7.88 7.88 0 0 1 8.161 7.875c0 1.059-.627 3.08-.627 3.08s-1.02 1.856-1.781 2.59a7.887 7.887 0 0 1-5.753 2.205v12" stroke="#454A59" stroke-width=".5"/><g filter="url(#q)"><path d="M364.006 84.19a7.863 7.863 0 0 0 6.91-4.12l.09-.19a4.28 4.28 0 0 0 .24-.49 7.86 7.86 0 0 0-7.24-10.92v-12h-12a7.876 7.876 0 0 1-7.875 7.6 7.879 7.879 0 0 1-7.875-7.6h-12v12a7.852 7.852 0 0 0-6.91 4.11c0 .06-.06.13-.1.2-.04.07-.16.32-.23.48a7.864 7.864 0 0 0 1.683 8.618 7.86 7.86 0 0 0 5.557 2.302v12h12.05a7.882 7.882 0 0 1 13.347-5.39 7.876 7.876 0 0 1 2.403 5.39h12v-12l-.05.01Z" fill="#2A2D36"/><path d="m363.957 83.945.024.235h-.175v11.75h-11.512a8.133 8.133 0 0 0-8.113-7.6 8.13 8.13 0 0 0-8.112 7.6h-11.563v-12h-.25a7.612 7.612 0 0 1-7.01-10.571c.07-.159.185-.397.218-.455a.521.521 0 0 1 .025-.04l.003-.005.035-.055a.538.538 0 0 0 .06-.142 7.599 7.599 0 0 1 6.669-3.942h.25v-12h11.513a8.129 8.129 0 0 0 16.225 0h11.512v12h.25a7.613 7.613 0 0 1 7.61 7.61 7.596 7.596 0 0 1-.6 2.963v.001a4.194 4.194 0 0 1-.227.463l-.004.008-.004.008-.088.184a7.61 7.61 0 0 1-6.387 3.977v-.059l-.299.06-.05.01Z" stroke="#454A59" stroke-width=".5"/></g><g filter="url(#r)"><path d="M404.047 123.62a7.873 7.873 0 0 0 6.91-4.12l.09-.19c.08-.16.17-.32.24-.49.409-.968.62-2.009.62-3.06a7.857 7.857 0 0 0-2.299-5.564 7.869 7.869 0 0 0-5.561-2.306v-12h-12.05a7.881 7.881 0 0 1-13.347 5.39 7.877 7.877 0 0 1-2.403-5.39h-12v12a7.84 7.84 0 0 0-6.91 4.12 1.72 1.72 0 0 0-.1.19c-.08.16-.16.32-.23.49a7.864 7.864 0 0 0 1.682 8.618 7.86 7.86 0 0 0 5.558 2.302v12h12.05a7.87 7.87 0 1 1 15.74 0h12v-12l.01.01Z" fill="#2A2D36"/><path d="M403.787 123.61v11.75h-11.504a8.123 8.123 0 0 0-8.116-7.87 8.117 8.117 0 0 0-8.116 7.87h-11.554v-12h-.25a7.609 7.609 0 0 1-7.01-10.573l.001-.002c.066-.16.142-.312.222-.473h.001l.004-.009a1.4 1.4 0 0 1 .085-.163h.001l.006-.011a7.59 7.59 0 0 1 6.689-3.989h.251v-12h11.512a8.135 8.135 0 0 0 2.467 5.32 8.134 8.134 0 0 0 11.291 0 8.126 8.126 0 0 0 2.467-5.32h11.563v12h.25a7.61 7.61 0 0 1 7.61 7.62 7.6 7.6 0 0 1-.601 2.963v.002c-.046.111-.099.213-.156.324a6.66 6.66 0 0 0-.077.149l-.002.005-.087.184a7.621 7.621 0 0 1-6.585 3.982l-.362-.362v.603Z" stroke="#454A59" stroke-width=".5"/></g><g filter="url(#s)"><path d="M336.165 175.24a7.852 7.852 0 0 0 4.09 6.92l.19.1.49.24a7.995 7.995 0 0 0 3.05.63 7.881 7.881 0 0 0 7.89-7.84l12 .05.06-12.05a7.878 7.878 0 0 1-5.331-13.372 7.88 7.88 0 0 1 5.401-2.378v-12h-12a7.86 7.86 0 0 0-4.09-6.93l-.19-.1-.49-.23a7.83 7.83 0 0 0-3.06-.63 7.849 7.849 0 0 0-7.89 7.83h-12l-.06 12.05a7.866 7.866 0 0 1 7.835 7.905 7.872 7.872 0 0 1-2.329 5.555 7.874 7.874 0 0 1-5.576 2.28l-.05 12h12l.06-.03Z" fill="#2A2D36"/><path d="m336.415 175.241.002-.406-.363.181-.008.004h-11.689l.047-11.503a8.121 8.121 0 0 0 5.554-13.833 8.125 8.125 0 0 0-5.481-2.399l.057-11.555h12.001v-.249a7.616 7.616 0 0 1 2.247-5.376 7.6 7.6 0 0 1 5.392-2.205h.001a7.575 7.575 0 0 1 2.958.608l.481.226.183.096a7.61 7.61 0 0 1 3.958 6.709l-.001.251h12.001v11.511a8.13 8.13 0 0 0-.071 16.226l-.057 11.562-11.751-.049-.249-.001-.002.25a7.626 7.626 0 0 1-7.638 7.591 7.735 7.735 0 0 1-2.948-.608l-.48-.235-.184-.096-.001-.001a7.6 7.6 0 0 1-3.959-6.699Z" stroke="#454A59" stroke-width=".5"/></g><g filter="url(#t)"><path d="M18.287 175.24a7.849 7.849 0 0 0 4.09 6.92l.2.1.48.24c.97.408 2.009.622 3.06.63a7.88 7.88 0 0 0 7.89-7.84l12 .05.05-12.05a7.88 7.88 0 0 1 .08-15.75v-12h-12a7.858 7.858 0 0 0-4.09-6.93l-.2-.1-.48-.23a7.87 7.87 0 0 0-10.34 4.194 7.86 7.86 0 0 0-.61 3.006h-12l-.06 12.05a7.867 7.867 0 0 1 7.835 7.905 7.872 7.872 0 0 1-7.905 7.835v12h12v-.03Z" fill="#2A2D36"/><path d="M18.537 175.24h-.25v-.22H6.537v-11.503a8.118 8.118 0 0 0 7.905-8.081 8.12 8.12 0 0 0-7.834-8.151l.058-11.555h12.001v-.249a7.611 7.611 0 0 1 7.64-7.581 7.613 7.613 0 0 1 2.957.608l.473.227.194.096a7.612 7.612 0 0 1 3.956 6.708v.251h12v11.511a8.13 8.13 0 0 0-.08 16.225l-.049 11.563-11.75-.049-.25-.001v.25a7.63 7.63 0 0 1-7.64 7.591 7.8 7.8 0 0 1-2.956-.607l-.473-.237-.112.224.112-.224-.196-.098a7.599 7.599 0 0 1-3.956-6.64V175.24Z" stroke="#454A59" stroke-width=".5"/></g><g filter="url(#u)"><path d="M85.837 68.4a7.85 7.85 0 0 0-6.92 4.09c-.037.061-.07.125-.1.19-.08.16-.17.32-.24.49a8 8 0 0 0-.63 3 7.87 7.87 0 0 0 7.84 7.89l-.05 12 12.05.06a7.879 7.879 0 0 1 15.75.07h12v-12a7.855 7.855 0 0 0 6.93-4.09l.2-.1c.09-.17.17-.32.24-.49a7.851 7.851 0 0 0 .63-3.06 7.852 7.852 0 0 0-7.87-7.91v-12l-12-.03a7.867 7.867 0 0 1-7.905 7.835 7.868 7.868 0 0 1-7.835-7.905h-12v12l-.09-.04Z" fill="#2A2D36"/><path d="M86.177 68.44V56.69H97.68a8.12 8.12 0 0 0 16.232.07l11.505.03v12h.251a7.6 7.6 0 0 1 7.619 7.658v.001a7.602 7.602 0 0 1-.61 2.963l-.001.003a4.492 4.492 0 0 1-.192.397l-.129.064-.07.035-.037.069a7.613 7.613 0 0 1-6.71 3.96l-.251-.001v12h-11.511a8.128 8.128 0 0 0-13.735-5.38 8.129 8.129 0 0 0-2.49 5.31l-11.563-.058.05-11.75v-.25l-.25-.001a7.62 7.62 0 0 1-7.59-7.638 7.75 7.75 0 0 1 .61-2.905v-.002c.046-.111.099-.213.156-.324l.077-.15.004-.008c.025-.056.054-.11.086-.163l.006-.01a7.6 7.6 0 0 1 6.647-3.96l.042.018.351.157v-.385Zm46.73 11.07a7.851 7.851 0 0 0 .63-3.06l-.87 3.55.008-.014c.087-.165.164-.31.232-.476Z" stroke="#454A59" stroke-width=".5"/></g><g filter="url(#v)"><path d="M376.275 56.1a7.86 7.86 0 0 0 4.11 6.9l.2.09c.16.086.32.166.48.24a7.864 7.864 0 0 0 8.618-1.683 7.86 7.86 0 0 0 2.302-5.558h12V44.05a7.877 7.877 0 0 1-7.599-7.875 7.878 7.878 0 0 1 7.599-7.875v-12h-12a7.83 7.83 0 0 0-4.12-6.91l-.19-.1-.48-.29a7.856 7.856 0 0 0-3.06-.62 7.849 7.849 0 0 0-7.86 7.86h-12v12a7.87 7.87 0 1 1 0 15.74v12l12 .12Z" fill="#2A2D36"/><path d="M376.525 56.1v-.248l-.247-.003-11.753-.117V44.226a8.12 8.12 0 0 0 0-16.233V16.49h12.001l-.001-.25a7.605 7.605 0 0 1 4.696-7.033 7.602 7.602 0 0 1 2.914-.577c1.012 0 2.014.202 2.947.594l.464.28.006.004.007.004.188.098.001.001a7.595 7.595 0 0 1 3.987 6.69v.25h12v11.512a8.129 8.129 0 0 0-5.319 13.758 8.129 8.129 0 0 0 5.319 2.467V55.84h-12v.25a7.607 7.607 0 0 1-7.61 7.61 7.614 7.614 0 0 1-2.959-.598 8.287 8.287 0 0 1-.462-.231l-.008-.005-.008-.004-.191-.086a7.614 7.614 0 0 1-3.972-6.676Z" stroke="#454A59" stroke-width=".5"/></g><path d="M216.906 16.536a7.87 7.87 0 0 0 15.438 0" stroke="#454A59" stroke-width=".5"/><path d="M145.337 127.528a7.86 7.86 0 0 0-5.565 2.305 7.858 7.858 0 0 0-2.305 5.565h15.75a7.868 7.868 0 0 0-7.88-7.87Z" fill="#2A2D36" stroke="#454A59" stroke-width=".71" stroke-miterlimit="10"/><path d="M212.547 28.38h-14.24a.75.75 0 0 0-.75.75v14.24c0 .414.335.75.75.75h14.24a.75.75 0 0 0 .75-.75V29.13a.75.75 0 0 0-.75-.75Z" fill="#181A1F" stroke="#454A59" stroke-width=".5"/><path d="M41.067 48.284a7.38 7.38 0 1 1 8.2 12.273 7.38 7.38 0 0 1-8.2-12.273Z" fill="url(#w)" stroke="url(#x)"/><path d="M47.517 45a7.87 7.87 0 1 0 0 15.74 7.87 7.87 0 0 0 0-15.74Z" fill="#181A1F" stroke="url(#y)" stroke-width=".5" stroke-miterlimit="10"/><path d="M156.857 147.01v-14.74h14.74v14.74h-14.74Z" fill="#7856A8" stroke="#7856A8"/><path d="M174.428 129.44h-15.74v15.74h15.74v-15.74Z" fill="#fff"/><path d="M174.428 129.44h-15.74v15.74h15.74v-15.74Z" fill="#181A1F"/><path d="M174.428 129.44h-15.74v15.74h15.74v-15.74Z" stroke="#7856A8" stroke-width=".711" stroke-miterlimit="10"/><path d="M355.957 49.17V34.43h14.74v14.74h-14.74Z" fill="#7856A8" stroke="#7856A8"/><path d="M373.517 31.6h-15.74v15.74h15.74V31.6Z" fill="#fff"/><path d="M373.517 31.6h-15.74v15.74h15.74V31.6Z" fill="#181A1F"/><path d="M373.517 31.6h-15.74v15.74h15.74V31.6Z" stroke="#7856A8" stroke-width=".711" stroke-miterlimit="10"/><path d="M320.776 83.43h.002a7.358 7.358 0 0 1 7.388 7.33c0 .984-.197 1.956-.58 2.862a8.054 8.054 0 0 1-.117.255l-.057.116a.968.968 0 0 1-.021.04l-.007.014-.002.003v.002l-.018.028-.003.005a.938.938 0 0 0-.119.239 7.368 7.368 0 0 1-6.436 3.786h-12.61v.627a7.373 7.373 0 0 1-12.625 5.106 7.37 7.37 0 0 1-2.115-5.23l.004-.503h-12.504a7.36 7.36 0 0 1-7.36-7.36 7.32 7.32 0 0 1 .58-2.865l.001-.003c.062-.15.134-.295.213-.435l.012-.02.01-.022.081-.181a7.37 7.37 0 0 1 6.462-3.794h39.821Zm0-.5h-39.82a7.873 7.873 0 0 0-6.91 4.07l-.09.2a4.46 4.46 0 0 0-.24.49l47.06-4.76Z" fill="#7856A8" stroke="#7856A8"/><path d="M323.106 80.61h-39.82a7.812 7.812 0 0 0-7.01 4.3c-.08.16-.16.32-.23.49a7.864 7.864 0 0 0 1.682 8.618 7.86 7.86 0 0 0 5.558 2.302h12a7.87 7.87 0 1 0 15.74.12v-.12h12.08a7.868 7.868 0 0 0 6.91-4.12l.09-.19c.08-.16.17-.32.24-.49.409-.968.62-2.009.62-3.06a7.86 7.86 0 0 0-7.86-7.85Z" fill="#181A1F" stroke="#7856A8" stroke-width=".71" stroke-miterlimit="10"/><path d="M126.907 54.97h-.001a7.345 7.345 0 0 1-6.801-4.542 7.344 7.344 0 0 1-.558-2.817v-.003a7.355 7.355 0 0 1 .565-2.85l.232-.464.005-.01.004-.009.082-.182a7.376 7.376 0 0 1 6.472-3.833h12.58v-.628a7.374 7.374 0 0 1 4.606-6.77 7.369 7.369 0 0 1 10.134 6.894l-.004.504H166.728a7.346 7.346 0 0 1 6.801 4.542c.37.893.559 1.85.558 2.817v.002a7.269 7.269 0 0 1-.58 2.853l-.002.006c-.062.15-.134.294-.215.456l-.005.01-.004.009-.082.182a7.385 7.385 0 0 1-6.472 3.833h-39.82Z" fill="#7856A8" stroke="#7856A8"/><path d="M128.997 52.46h39.82a7.834 7.834 0 0 0 6.91-4.11c0-.06.06-.13.1-.19.04-.06.16-.32.23-.49a7.864 7.864 0 0 0-1.682-8.618 7.861 7.861 0 0 0-5.558-2.302h-12a7.872 7.872 0 0 0-10.827-7.354 7.878 7.878 0 0 0-4.913 7.234v.12h-12.08a7.859 7.859 0 0 0-6.91 4.12l-.09.19a4.45 4.45 0 0 0-.24.49 7.864 7.864 0 0 0-.62 3.06 7.86 7.86 0 0 0 7.86 7.85Z" fill="#fff"/><path d="M128.997 52.46h39.82a7.834 7.834 0 0 0 6.91-4.11c0-.06.06-.13.1-.19.04-.06.16-.32.23-.49a7.864 7.864 0 0 0-1.682-8.618 7.861 7.861 0 0 0-5.558-2.302h-12a7.872 7.872 0 0 0-10.827-7.354 7.878 7.878 0 0 0-4.913 7.234v.12h-12.08a7.859 7.859 0 0 0-6.91 4.12l-.09.19a4.45 4.45 0 0 0-.24.49 7.864 7.864 0 0 0-.62 3.06 7.86 7.86 0 0 0 7.86 7.85Z" fill="#181A1F"/><path d="M128.997 52.46h39.82a7.834 7.834 0 0 0 6.91-4.11c0-.06.06-.13.1-.19.04-.06.16-.32.23-.49a7.864 7.864 0 0 0-1.682-8.618 7.861 7.861 0 0 0-5.558-2.302h-12a7.872 7.872 0 0 0-10.827-7.354 7.878 7.878 0 0 0-4.913 7.234v.12h-12.08a7.859 7.859 0 0 0-6.91 4.12l-.09.19a4.45 4.45 0 0 0-.24.49 7.864 7.864 0 0 0-.62 3.06 7.86 7.86 0 0 0 7.86 7.85Z" stroke="#7856A8" stroke-width=".711" stroke-miterlimit="10"/><path d="M257.299 150.064a7.366 7.366 0 0 1 2.327-.547v14.746a7.367 7.367 0 0 1-6.87-7.362v-.003a7.362 7.362 0 0 1 2.149-5.229 7.348 7.348 0 0 1 2.394-1.605Z" fill="url(#z)" stroke="url(#A)"/><path d="M254.576 154.58a7.875 7.875 0 0 0 4.865 7.274 7.877 7.877 0 0 0 3.015.596v-15.74a7.88 7.88 0 0 0-7.88 7.87Z" fill="#181A1F" stroke="url(#B)" stroke-width=".5" stroke-miterlimit="10"/><path d="M73.589 140.335a7.378 7.378 0 0 1 2.158 5.214 7.389 7.389 0 0 1-6.87 7.353v-14.714a7.377 7.377 0 0 1 4.712 2.147Z" fill="#7856A8" stroke="#7856A8"/><path d="M73.907 147.87a7.87 7.87 0 0 0-7.87-7.87v15.74a7.88 7.88 0 0 0 5.565-2.305 7.87 7.87 0 0 0 2.305-5.565Z" fill="#fff"/><path d="M73.907 147.87a7.87 7.87 0 0 0-7.87-7.87v15.74a7.88 7.88 0 0 0 5.565-2.305 7.87 7.87 0 0 0 2.305-5.565Z" fill="#181A1F"/><path d="M73.907 147.87a7.87 7.87 0 0 0-7.87-7.87v15.74a7.88 7.88 0 0 0 5.565-2.305 7.87 7.87 0 0 0 2.305-5.565Z" stroke="#7856A8" stroke-width=".711" stroke-miterlimit="10"/><path d="M82.406 53.63a8.38 8.38 0 0 0 7.87 8.354v10.76a19.108 19.108 0 0 1-18.62-19.114 19.12 19.12 0 0 1 18.62-19.123v10.768a8.37 8.37 0 0 0-7.87 8.355Z" fill="url(#C)" stroke="url(#D)"/><path d="M85.227 51.3a7.87 7.87 0 0 1 7.87-7.87V31.68a19.62 19.62 0 0 0-19.63 19.62 19.63 19.63 0 0 0 19.63 19.63V59.17a7.87 7.87 0 0 1-7.87-7.87Z" fill="#181A1F" stroke="url(#E)" stroke-width=".5" stroke-miterlimit="10"/><g clip-path="url(#F)"><path d="M85.406 33.34h45.981-45.98Z" fill="#181A1F"/><path d="M85.406 33.34h45.981" stroke="url(#G)" stroke-width=".5" stroke-miterlimit="10"/><path d="M79.406 37.31h51.98-51.98Z" fill="#181A1F"/><path d="M79.406 37.31h51.98" stroke="url(#H)" stroke-width=".5" stroke-miterlimit="10"/><path d="M76.406 41.27h54.98-54.98Z" fill="#181A1F"/><path d="M76.406 41.27h54.98" stroke="url(#I)" stroke-width=".5" stroke-miterlimit="10"/><path d="M74.406 45.23h13.5-13.5Z" fill="#181A1F"/><path d="M74.406 45.23h13.5" stroke="url(#J)" stroke-width=".5" stroke-miterlimit="10"/><path d="M51.816 49.19h33.59-33.59Z" fill="#181A1F"/><path d="M51.816 49.19h33.59" stroke="url(#K)" stroke-width=".5" stroke-miterlimit="10"/><path d="M51.816 53.15h33.59-33.59Z" fill="#181A1F"/><path d="M51.816 53.15h33.59" stroke="url(#L)" stroke-width=".5" stroke-miterlimit="10"/><path d="M51.147 57.11h36.76-36.76Z" fill="#181A1F"/><path d="M51.147 57.11h36.76" stroke="url(#M)" stroke-width=".5" stroke-miterlimit="10"/><path d="M51.147 61.07h77.269-77.27Z" fill="#181A1F"/><path d="M51.147 61.07h77.269" stroke="url(#N)" stroke-width=".5" stroke-miterlimit="10"/><path d="M78.906 65h47.59-47.59Z" fill="#181A1F"/><path d="M78.906 65h47.59" stroke="url(#O)" stroke-width=".5" stroke-miterlimit="10"/><path d="M84.406 69h46.98-46.98Z" fill="#181A1F"/><path d="M84.406 69h46.98" stroke="url(#P)" stroke-width=".5" stroke-miterlimit="10"/><path d="M74.906 42.5v17-17Z" fill="#181A1F"/><path d="M74.906 42.5v17" stroke="url(#Q)" stroke-width=".5" stroke-miterlimit="10"/><path d="M78.906 37.5V65 37.5Z" fill="#181A1F"/><path d="M78.906 37.5V65" stroke="url(#R)" stroke-width=".5" stroke-miterlimit="10"/><path d="M82.848 34.5v33.41V34.5Z" fill="#181A1F"/><path d="M82.848 34.5v33.41" stroke="url(#S)" stroke-width=".5" stroke-miterlimit="10"/><path d="M86.807 32.5v14-14ZM86.807 56v14-14Z" fill="#181A1F"/><path d="M86.807 32.5v14m0 9.5v14" stroke="url(#T)" stroke-width=".5" stroke-miterlimit="10"/><path d="M90.768 31.5v12-12ZM90.768 58.5v12-12Z" fill="#181A1F"/><path d="M90.768 31.5v12m0 15v12" stroke="url(#U)" stroke-width=".5" stroke-miterlimit="10"/></g><path d="M357.416 123.169h.006a19.29 19.29 0 0 1 18.345 19.29v.001a19.298 19.298 0 0 1-5.312 13.317 19.294 19.294 0 0 1-13.033 5.973l-.007.001a5.539 5.539 0 0 1-.657 0l-.016-.001h-.241l-.016.001a5.709 5.709 0 0 1-.667 0l-.004-.001a19.315 19.315 0 0 1-18.257-19.29 19.32 19.32 0 0 1 18.257-19.291h.004c.222-.014.445-.014.667 0l.016.001h.241l.016-.001a5.16 5.16 0 0 1 .658 0Zm-.189 27.71.007-.001a8.323 8.323 0 0 0 5.156-14.288 8.322 8.322 0 0 0-11.975 11.538 8.317 8.317 0 0 0 5.584 2.75l.018.002v.05h1.21v-.051Z" fill="#7856A8" stroke="#7856A8"/><path d="M378.587 140.13a19.78 19.78 0 0 0-18.81-19.79h-1.66a19.817 19.817 0 0 0-18.73 19.79 19.818 19.818 0 0 0 18.73 19.79c.238.031.479.048.72.05h.22c.24-.002.481-.019.72-.05a19.78 19.78 0 0 0 18.81-19.79Zm-19.06 7.92h-.47v.05h-.22v-.1h-.47a7.81 7.81 0 1 1 1.16 0v.05Z" fill="#181A1F" stroke="#7856A8" stroke-width=".71" stroke-miterlimit="10"/><path d="M116.788 90.74c.273.05.545.05.751.05h.005a19.29 19.29 0 0 1 18.332 19.289v.001a19.293 19.293 0 0 1-5.311 13.317 19.294 19.294 0 0 1-13.033 5.973l-.007.001a5.144 5.144 0 0 1-.657 0l-.016-.001h-.241l-.016.001a5.144 5.144 0 0 1-.657 0l-.009-.001a19.309 19.309 0 0 1-13.09-32.634 19.31 19.31 0 0 1 13.09-5.947l.042-.002.817-.047Zm0 0h.048v-.5l-.102.49.054.01Zm.518 27.76h.019l.018-.002a8.318 8.318 0 0 0 5.162-14.287 8.317 8.317 0 0 0-11.548 0 8.32 8.32 0 0 0 5.163 14.287l.018.002h1.168Z" fill="#7856A8" stroke="#7856A8"/><path d="M138.707 108.34a19.79 19.79 0 0 0-18.8-19.79 5.843 5.843 0 0 0-.72 0h-.28a5.843 5.843 0 0 0-.72 0 19.822 19.822 0 0 0-13.305 33.414 19.826 19.826 0 0 0 13.305 6.166c.24.015.48.015.72 0h.22c.24.015.48.015.72 0a19.794 19.794 0 0 0 18.86-19.79Zm-19.07 7.92h-.47v.05h-.26v-.05h-.47a7.822 7.822 0 0 1-7.235-8.089 7.822 7.822 0 0 1 15.63 0 7.824 7.824 0 0 1-7.235 8.089h.04Z" fill="#181A1F"/><g clip-path="url(#V)"><path d="M111.406 89.92h14.5-14.5Z" fill="#181A1F"/><path d="M111.406 89.92h14.5" stroke="#7856A8" stroke-width=".5" stroke-miterlimit="10"/><path d="M105.906 93.88h26.5-26.5Z" fill="#181A1F"/><path d="M105.906 93.88h26.5" stroke="#7856A8" stroke-width=".5" stroke-miterlimit="10"/><path d="M101.906 97.84h34-34Z" fill="#181A1F"/><path d="M101.906 97.84h34" stroke="#7856A8" stroke-width=".5" stroke-miterlimit="10"/><path d="M100.406 101.8h37-37Z" fill="#181A1F"/><path d="M100.406 101.8h37" stroke="#7856A8" stroke-width=".5" stroke-miterlimit="10"/><path d="M126.406 105.77h12-12ZM99.906 105.77h12-12Z" fill="#181A1F"/><path d="M126.406 105.77h12m-38.5 0h12" stroke="#7856A8" stroke-width=".5" stroke-miterlimit="10"/><path d="M126.406 109.73h12.5-12.5ZM98.906 109.73h12.5-12.5Z" fill="#181A1F"/><path d="M126.406 109.73h12.5m-40 0h12.5" stroke="#7856A8" stroke-width=".5" stroke-miterlimit="10"/><path d="M125.406 113.69h12.5-12.5ZM100.217 113.69h13.189-13.189Z" fill="#181A1F"/><path d="M125.406 113.69h12.5m-37.689 0h13.189" stroke="#7856A8" stroke-width=".5" stroke-miterlimit="10"/><path d="M78.576 117.65h57.83-57.83Z" fill="#181A1F"/><path d="M78.576 117.65h57.83" stroke="#7856A8" stroke-width=".5" stroke-miterlimit="10"/><path d="M104.406 121.61h29.5-29.5Z" fill="#181A1F"/><path d="M104.406 121.61h29.5" stroke="#7856A8" stroke-width=".5" stroke-miterlimit="10"/><path d="M108.906 125.57h20-20Z" fill="#181A1F"/><path d="M108.906 125.57h20" stroke="#7856A8" stroke-width=".5" stroke-miterlimit="10"/><path d="M101.688 98.5v19-19Z" fill="#181A1F"/><path d="M101.688 98.5v19" stroke="#7856A8" stroke-width=".5" stroke-miterlimit="10"/><path d="M105.646 94v29-29Z" fill="#181A1F"/><path d="M105.646 94v29" stroke="#7856A8" stroke-width=".5" stroke-miterlimit="10"/><path d="M109.617 91v34.5V91Z" fill="#181A1F"/><path d="M109.617 91v34.5" stroke="#7856A8" stroke-width=".5" stroke-miterlimit="10"/><path d="M113.576 89.5v13-13ZM113.576 114v13-13Z" fill="#181A1F"/><path d="M113.576 89.5v13m0 11.5v13" stroke="#7856A8" stroke-width=".5" stroke-miterlimit="10"/><path d="M117.537 88.5v12-12ZM117.537 116v12-12Z" fill="#181A1F"/><path d="M117.537 88.5v12m0 15.5v12" stroke="#7856A8" stroke-width=".5" stroke-miterlimit="10"/><path d="M121.496 88.5V101 88.5ZM121.496 116v12.5V116Z" fill="#181A1F"/><path d="M121.496 88.5V101m0 15v12.5" stroke="#7856A8" stroke-width=".5" stroke-miterlimit="10"/><path d="M125.457 90v37-37Z" fill="#181A1F"/><path d="M125.457 90v37" stroke="#7856A8" stroke-width=".5" stroke-miterlimit="10"/><path d="M129.416 92v33-33Z" fill="#181A1F"/><path d="M129.416 92v33" stroke="#7856A8" stroke-width=".5" stroke-miterlimit="10"/><path d="M133.377 94.5V122 94.5Z" fill="#181A1F"/><path d="M133.377 94.5V122" stroke="#7856A8" stroke-width=".5" stroke-miterlimit="10"/><path d="M137.348 101v14-14Z" fill="#181A1F"/><path d="M137.348 101v14" stroke="#7856A8" stroke-width=".5" stroke-miterlimit="10"/></g><g clip-path="url(#W)"><path d="M351.406 121.92h15.155-15.155Z" fill="#181A1F"/><path d="M351.406 121.92h15.155" stroke="#7856A8" stroke-width=".5" stroke-miterlimit="10"/><path d="M345.406 125.88h27-27Z" fill="#181A1F"/><path d="M345.406 125.88h27" stroke="#7856A8" stroke-width=".5" stroke-miterlimit="10"/><path d="M342.406 129.84h33.5-33.5Z" fill="#181A1F"/><path d="M342.406 129.84h33.5" stroke="#7856A8" stroke-width=".5" stroke-miterlimit="10"/><path d="M339.406 133.8h38-38Z" fill="#181A1F"/><path d="M339.406 133.8h38" stroke="#7856A8" stroke-width=".5" stroke-miterlimit="10"/><path d="M366.406 137.77h12-12ZM339.406 137.77h12-12Z" fill="#181A1F"/><path d="M366.406 137.77h12m-39 0h12" stroke="#7856A8" stroke-width=".5" stroke-miterlimit="10"/><path d="M366.906 141.73h11.5-11.5ZM339.406 141.73h12-12Z" fill="#181A1F"/><path d="M366.906 141.73h11.5m-39 0h12" stroke="#7856A8" stroke-width=".5" stroke-miterlimit="10"/><path d="M364.407 145.69h13.499-13.499ZM340.406 145.69h13-13Z" fill="#181A1F"/><path d="M364.407 145.69h13.499m-37.5 0h13" stroke="#7856A8" stroke-width=".5" stroke-miterlimit="10"/><path d="M317.576 149.65h58.33-58.33Z" fill="#181A1F"/><path d="M317.576 149.65h58.33" stroke="#7856A8" stroke-width=".5" stroke-miterlimit="10"/><path d="M343.406 153.61h29-29Z" fill="#181A1F"/><path d="M343.406 153.61h29" stroke="#7856A8" stroke-width=".5" stroke-miterlimit="10"/><path d="M347.906 157.57h20-20Z" fill="#181A1F"/><path d="M347.906 157.57h20" stroke="#7856A8" stroke-width=".5" stroke-miterlimit="10"/><path d="M340.688 132.5V147v-14.5Z" fill="#181A1F"/><path d="M340.688 132.5V147" stroke="#7856A8" stroke-width=".5" stroke-miterlimit="10"/><path d="M344.646 127v27-27Z" fill="#181A1F"/><path d="M344.646 127v27" stroke="#7856A8" stroke-width=".5" stroke-miterlimit="10"/><path d="M348.617 123.5v34-34Z" fill="#181A1F"/><path d="M348.617 123.5v34" stroke="#7856A8" stroke-width=".5" stroke-miterlimit="10"/><path d="M352.576 121.5v14-14ZM352.576 146v13-13Z" fill="#181A1F"/><path d="M352.576 121.5v14m0 10.5v13" stroke="#7856A8" stroke-width=".5" stroke-miterlimit="10"/><path d="M356.537 120.5v12-12ZM356.537 148v12-12Z" fill="#181A1F"/><path d="M356.537 120.5v12m0 15.5v12" stroke="#7856A8" stroke-width=".5" stroke-miterlimit="10"/><path d="M360.496 120.5V133v-12.5ZM360.496 148v12.5V148Z" fill="#181A1F"/><path d="M360.496 120.5V133m0 15v12.5" stroke="#7856A8" stroke-width=".5" stroke-miterlimit="10"/><path d="M364.457 122v37-37Z" fill="#181A1F"/><path d="M364.457 122v37" stroke="#7856A8" stroke-width=".5" stroke-miterlimit="10"/><path d="M368.416 122.82v34.68-34.68Z" fill="#181A1F"/><path d="M368.416 122.82v34.68" stroke="#7856A8" stroke-width=".5" stroke-miterlimit="10"/><path d="M372.377 125.753V154.5v-28.747Z" fill="#181A1F"/><path d="M372.377 125.753V154.5" stroke="#7856A8" stroke-width=".5" stroke-miterlimit="10"/><path d="M376.348 131v18.5V131Z" fill="#181A1F"/><path d="M376.348 131v18.5" stroke="#7856A8" stroke-width=".5" stroke-miterlimit="10"/></g><path d="M138.707 108.34a19.79 19.79 0 0 0-18.8-19.79 5.843 5.843 0 0 0-.72 0h-.28a5.843 5.843 0 0 0-.72 0 19.822 19.822 0 0 0-13.305 33.414 19.826 19.826 0 0 0 13.305 6.166c.24.015.48.015.72 0h.22c.24.015.48.015.72 0a19.794 19.794 0 0 0 18.86-19.79Zm-19.07 7.92h-.47v.05h-.26v-.05h-.47a7.822 7.822 0 0 1-7.235-8.089 7.822 7.822 0 0 1 15.63 0 7.824 7.824 0 0 1-7.235 8.089h.04Z" stroke="#7856A8" stroke-miterlimit="10"/><path d="M414.257 97.159v.032a19.3 19.3 0 0 1-19.251 19.339h-.03l-.03.004a5.502 5.502 0 0 1-4.316-9.579 5.5 5.5 0 0 1 4.316-1.339l.021.003.022.001a8.463 8.463 0 0 0 6.168-2.365 8.455 8.455 0 0 0 2.582-6.08 8.46 8.46 0 0 0-2.582-6.08 8.46 8.46 0 0 0-6.159-2.365h-.345a5.277 5.277 0 0 1-5.146-5.399v-.011a5.498 5.498 0 0 1 5.499-5.5 19.3 19.3 0 0 1 19.251 19.339Z" fill="url(#X)" stroke="url(#Y)"/><path d="M417.126 94.58a19.776 19.776 0 0 0-19.75-19.83 5.998 5.998 0 0 0-6 6 5.782 5.782 0 0 0 5.64 5.91h.35a7.94 7.94 0 1 1 0 15.88 6.005 6.005 0 0 0-6.204 8.42 6.004 6.004 0 0 0 6.204 3.49 19.78 19.78 0 0 0 19.75-19.83l.01-.04Z" fill="#181A1F" stroke="url(#Z)" stroke-width=".5" stroke-miterlimit="10"/><path d="M127.435 149.98h.032a8.184 8.184 0 0 1 8.199 8.16 2.109 2.109 0 0 1-3.602 1.492 2.109 2.109 0 0 1-.618-1.492 3.999 3.999 0 0 0-6.828-2.828 4 4 0 0 0-1.172 2.828v.14a2.022 2.022 0 0 1-1.295 1.847 2.02 2.02 0 0 1-.781.133h-.014a2.115 2.115 0 0 1-1.495-.621 2.118 2.118 0 0 1-.615-1.497v-.001a8.168 8.168 0 0 1 8.189-8.161Zm.031-.5h-.03l8.73 8.66a8.684 8.684 0 0 0-8.7-8.66Z" fill="url(#aa)" stroke="url(#ab)"/><path d="M126.307 148.44a8.666 8.666 0 0 0-8.025 5.341 8.655 8.655 0 0 0-.665 3.319 2.62 2.62 0 0 0 2.62 2.62c.332.008.663-.05.973-.169a2.545 2.545 0 0 0 1.402-1.337c.134-.304.207-.632.215-.964v-.15a3.502 3.502 0 0 1 5.975-2.475 3.502 3.502 0 0 1 1.025 2.475 2.61 2.61 0 0 0 5.22 0 8.68 8.68 0 0 0-5.375-8.01 8.678 8.678 0 0 0-3.325-.65h-.04Z" fill="#181A1F" stroke="url(#ac)" stroke-width=".5" stroke-miterlimit="10"/><g clip-path="url(#ad)"><path d="M276.906 83.77h52.5-52.5Z" fill="#181A1F"/><path d="M276.906 83.77h52.5" stroke="#7856A8" stroke-width=".5" stroke-miterlimit="10"/><path d="M261.586 87.69h79.58-79.58Z" fill="#181A1F"/><path d="M261.586 87.69h79.58" stroke="#7856A8" stroke-width=".5" stroke-miterlimit="10"/><path d="M260.906 91.65h69.5-69.5Z" fill="#181A1F"/><path d="M260.906 91.65h69.5" stroke="#7856A8" stroke-width=".5" stroke-miterlimit="10"/><path d="M260.906 95.62h65.5-65.5Z" fill="#181A1F"/><path d="M260.906 95.62h65.5" stroke="#7856A8" stroke-width=".5" stroke-miterlimit="10"/><path d="M295.906 99.58h14.5-14.5Z" fill="#181A1F"/><path d="M295.906 99.58h14.5" stroke="#7856A8" stroke-width=".5" stroke-miterlimit="10"/><path d="M299.906 103.54h6.5-6.5Z" fill="#181A1F"/><path d="M299.906 103.54h6.5" stroke="#7856A8" stroke-width=".5" stroke-miterlimit="10"/><path d="M276.775 84v10.68V84Z" fill="#181A1F"/><path d="M276.775 84v10.68" stroke="#7856A8" stroke-width=".5" stroke-miterlimit="10"/><path d="M280.736 81v15.67V81Z" fill="#181A1F"/><path d="M280.736 81v15.67" stroke="#7856A8" stroke-width=".5" stroke-miterlimit="10"/><path d="M284.695 80.5v16.17V80.5Z" fill="#181A1F"/><path d="M284.695 80.5v16.17" stroke="#7856A8" stroke-width=".5" stroke-miterlimit="10"/><path d="M288.656 80.5v16.17V80.5Z" fill="#181A1F"/><path d="M288.656 80.5v16.17" stroke="#7856A8" stroke-width=".5" stroke-miterlimit="10"/><path d="M292.617 80.5v15-15Z" fill="#181A1F"/><path d="M292.617 80.5v15" stroke="#7856A8" stroke-width=".5" stroke-miterlimit="10"/><path d="M296.576 80.5v22-22Z" fill="#181A1F"/><path d="M296.576 80.5v22" stroke="#7856A8" stroke-width=".5" stroke-miterlimit="10"/><path d="M300.547 80.5V104 80.5Z" fill="#181A1F"/><path d="M300.547 80.5V104" stroke="#7856A8" stroke-width=".5" stroke-miterlimit="10"/><path d="M304.506 80.5v23-23Z" fill="#181A1F"/><path d="M304.506 80.5v23" stroke="#7856A8" stroke-width=".5" stroke-miterlimit="10"/><path d="M308.467 80.5V102 80.5Z" fill="#181A1F"/><path d="M308.467 80.5V102" stroke="#7856A8" stroke-width=".5" stroke-miterlimit="10"/><path d="M312.426 80.5v15-15Z" fill="#181A1F"/><path d="M312.426 80.5v15" stroke="#7856A8" stroke-width=".5" stroke-miterlimit="10"/><path d="M316.387 80.5v15-15Z" fill="#181A1F"/><path d="M316.387 80.5v15" stroke="#7856A8" stroke-width=".5" stroke-miterlimit="10"/><path d="M320.346 80.5v16.17V80.5Z" fill="#181A1F"/><path d="M320.346 80.5v16.17" stroke="#7856A8" stroke-width=".5" stroke-miterlimit="10"/><path d="M324.307 81v15-15Z" fill="#181A1F"/><path d="M324.307 81v15" stroke="#7856A8" stroke-width=".5" stroke-miterlimit="10"/><path d="M328.275 84v9.5V84Z" fill="#181A1F"/><path d="M328.275 84v9.5" stroke="#7856A8" stroke-width=".5" stroke-miterlimit="10"/></g><g filter="url(#ae)"><path d="M264.685 47.883c-1.664 0-3.29.483-4.673 1.39a8.275 8.275 0 0 0-3.098 3.701 8.1 8.1 0 0 0-.479 4.765 8.205 8.205 0 0 0 2.302 4.223 8.462 8.462 0 0 0 4.307 2.257 8.563 8.563 0 0 0 4.859-.469 8.377 8.377 0 0 0 3.775-3.038 8.128 8.128 0 0 0 1.418-4.582 8.165 8.165 0 0 0-2.464-5.832 8.496 8.496 0 0 0-5.947-2.415Z" fill="#2A2D36"/><path d="M260.149 49.482a8.278 8.278 0 0 1 4.536-1.35c2.166 0 4.242.845 5.772 2.345a7.917 7.917 0 0 1 2.389 5.653c0 1.581-.478 3.127-1.374 4.442a8.129 8.129 0 0 1-3.663 2.947 8.313 8.313 0 0 1-4.717.455 8.21 8.21 0 0 1-4.18-2.19 7.953 7.953 0 0 1-2.232-4.094 7.854 7.854 0 0 1 .464-4.619 8.03 8.03 0 0 1 3.005-3.59Z" stroke="#454A59" stroke-width=".5"/></g><path fill="url(#af)" d="M-.094 0h412v191h-412z"/></g><defs><linearGradient id="h" x1="177.974" y1="1.81" x2="177.974" y2="189.22" gradientUnits="userSpaceOnUse"><stop stop-color="#BDABD8"/><stop offset=".458" stop-color="#E6E1DF"/><stop offset="1" stop-color="#BDABD8"/></linearGradient><linearGradient id="i" x1="177.974" y1="1.81" x2="177.974" y2="189.22" gradientUnits="userSpaceOnUse"><stop stop-color="#BDABD8"/><stop offset=".458" stop-color="#E6E1DF"/><stop offset="1" stop-color="#BDABD8"/></linearGradient><linearGradient id="j" x1="233.456" y1="1.81" x2="233.456" y2="189.22" gradientUnits="userSpaceOnUse"><stop stop-color="#BDABD8"/><stop offset=".458" stop-color="#E6E1DF"/><stop offset="1" stop-color="#BDABD8"/></linearGradient><linearGradient id="w" x1="50.172" y1="46.54" x2="37.236" y2="46.582" gradientUnits="userSpaceOnUse"><stop stop-color="#F5DE0A"/><stop offset="1" stop-color="#F5C20A"/></linearGradient><linearGradient id="x" x1="50.172" y1="46.54" x2="37.236" y2="46.582" gradientUnits="userSpaceOnUse"><stop stop-color="#F5DE0A"/><stop offset="1" stop-color="#F5C20A"/></linearGradient><linearGradient id="y" x1="52.516" y1="45" x2="39.596" y2="45.042" gradientUnits="userSpaceOnUse"><stop stop-color="#F5DE0A"/><stop offset="1" stop-color="#F5C20A"/></linearGradient><linearGradient id="z" x1="258.69" y1="149" x2="252.23" y2="149.01" gradientUnits="userSpaceOnUse"><stop stop-color="#F5DE0A"/><stop offset="1" stop-color="#F5C20A"/></linearGradient><linearGradient id="A" x1="258.69" y1="149" x2="252.23" y2="149.01" gradientUnits="userSpaceOnUse"><stop stop-color="#F5DE0A"/><stop offset="1" stop-color="#F5C20A"/></linearGradient><linearGradient id="B" x1="261.019" y1="146.71" x2="254.551" y2="146.72" gradientUnits="userSpaceOnUse"><stop stop-color="#F5DE0A"/><stop offset="1" stop-color="#F5C20A"/></linearGradient><linearGradient id="C" x1="87.198" y1="34" x2="71.093" y2="34.026" gradientUnits="userSpaceOnUse"><stop stop-color="#F5DE0A"/><stop offset="1" stop-color="#F5C20A"/></linearGradient><linearGradient id="D" x1="87.198" y1="34" x2="71.093" y2="34.026" gradientUnits="userSpaceOnUse"><stop stop-color="#F5DE0A"/><stop offset="1" stop-color="#F5C20A"/></linearGradient><linearGradient id="E" x1="89.516" y1="31.68" x2="73.403" y2="31.706" gradientUnits="userSpaceOnUse"><stop stop-color="#F5DE0A"/><stop offset="1" stop-color="#F5C20A"/></linearGradient><linearGradient id="G" x1="123" y1="33.34" x2="86.079" y2="38.847" gradientUnits="userSpaceOnUse"><stop stop-color="#F5DE0A"/><stop offset="1" stop-color="#F5C20A"/></linearGradient><linearGradient id="H" x1="121.905" y1="37.31" x2="80.417" y2="44.306" gradientUnits="userSpaceOnUse"><stop stop-color="#F5DE0A"/><stop offset="1" stop-color="#F5C20A"/></linearGradient><linearGradient id="I" x1="121.358" y1="41.27" x2="77.619" y2="49.072" gradientUnits="userSpaceOnUse"><stop stop-color="#F5DE0A"/><stop offset="1" stop-color="#F5C20A"/></linearGradient><linearGradient id="J" x1="85.444" y1="45.23" x2="74.384" y2="45.714" gradientUnits="userSpaceOnUse"><stop stop-color="#F5DE0A"/><stop offset="1" stop-color="#F5C20A"/></linearGradient><linearGradient id="K" x1="79.279" y1="49.19" x2="52.031" y2="52.159" gradientUnits="userSpaceOnUse"><stop stop-color="#F5DE0A"/><stop offset="1" stop-color="#F5C20A"/></linearGradient><linearGradient id="L" x1="79.279" y1="53.15" x2="52.031" y2="56.119" gradientUnits="userSpaceOnUse"><stop stop-color="#F5DE0A"/><stop offset="1" stop-color="#F5C20A"/></linearGradient><linearGradient id="M" x1="81.201" y1="57.11" x2="51.45" y2="60.658" gradientUnits="userSpaceOnUse"><stop stop-color="#F5DE0A"/><stop offset="1" stop-color="#F5C20A"/></linearGradient><linearGradient id="N" x1="114.322" y1="61.07" x2="54.646" y2="76.03" gradientUnits="userSpaceOnUse"><stop stop-color="#F5DE0A"/><stop offset="1" stop-color="#F5C20A"/></linearGradient><linearGradient id="O" x1="117.815" y1="65" x2="79.661" y2="70.891" gradientUnits="userSpaceOnUse"><stop stop-color="#F5DE0A"/><stop offset="1" stop-color="#F5C20A"/></linearGradient><linearGradient id="P" x1="122.817" y1="69" x2="85.129" y2="74.744" gradientUnits="userSpaceOnUse"><stop stop-color="#F5DE0A"/><stop offset="1" stop-color="#F5C20A"/></linearGradient><linearGradient id="Q" x1="75.724" y1="42.5" x2="74.903" y2="42.5" gradientUnits="userSpaceOnUse"><stop stop-color="#F5DE0A"/><stop offset="1" stop-color="#F5C20A"/></linearGradient><linearGradient id="R" x1="79.724" y1="37.5" x2="78.903" y2="37.5" gradientUnits="userSpaceOnUse"><stop stop-color="#F5DE0A"/><stop offset="1" stop-color="#F5C20A"/></linearGradient><linearGradient id="S" x1="83.665" y1="34.499" x2="82.844" y2="34.5" gradientUnits="userSpaceOnUse"><stop stop-color="#F5DE0A"/><stop offset="1" stop-color="#F5C20A"/></linearGradient><linearGradient id="T" x1="87.624" y1="32.5" x2="86.803" y2="32.5" gradientUnits="userSpaceOnUse"><stop stop-color="#F5DE0A"/><stop offset="1" stop-color="#F5C20A"/></linearGradient><linearGradient id="U" x1="91.585" y1="31.5" x2="90.764" y2="31.5" gradientUnits="userSpaceOnUse"><stop stop-color="#F5DE0A"/><stop offset="1" stop-color="#F5C20A"/></linearGradient><linearGradient id="X" x1="409.926" y1="77.32" x2="388.188" y2="77.367" gradientUnits="userSpaceOnUse"><stop stop-color="#F5DE0A"/><stop offset="1" stop-color="#F5C20A"/></linearGradient><linearGradient id="Y" x1="409.926" y1="77.32" x2="388.188" y2="77.367" gradientUnits="userSpaceOnUse"><stop stop-color="#F5DE0A"/><stop offset="1" stop-color="#F5C20A"/></linearGradient><linearGradient id="Z" x1="412.294" y1="74.75" x2="390.547" y2="74.797" gradientUnits="userSpaceOnUse"><stop stop-color="#F5DE0A"/><stop offset="1" stop-color="#F5C20A"/></linearGradient><linearGradient id="aa" x1="132.989" y1="149.48" x2="118.69" y2="149.552" gradientUnits="userSpaceOnUse"><stop stop-color="#F5DE0A"/><stop offset="1" stop-color="#F5C20A"/></linearGradient><linearGradient id="ab" x1="132.989" y1="149.48" x2="118.69" y2="149.552" gradientUnits="userSpaceOnUse"><stop stop-color="#F5DE0A"/><stop offset="1" stop-color="#F5C20A"/></linearGradient><linearGradient id="ac" x1="131.868" y1="148.44" x2="117.561" y2="148.512" gradientUnits="userSpaceOnUse"><stop stop-color="#F5DE0A"/><stop offset="1" stop-color="#F5C20A"/></linearGradient><linearGradient id="af" x1="412.564" y1="96" x2="-10.222" y2="95.5" gradientUnits="userSpaceOnUse"><stop offset=".035" stop-color="#181A1F"/><stop offset=".156" stop-color="#181A1F" stop-opacity="0"/><stop offset=".472" stop-color="#181A1F" stop-opacity="0"/><stop offset=".82" stop-color="#181A1F" stop-opacity="0"/><stop offset=".931" stop-color="#181A1F" stop-opacity=".864"/><stop offset="1" stop-color="#181A1F"/></linearGradient><filter id="b" x="229.346" y="119.73" width="71.631" height="51.375" filterUnits="userSpaceOnUse" color-interpolation-filters="sRGB"><feFlood flood-opacity="0" result="BackgroundImageFix"/><feColorMatrix in="SourceAlpha" values="0 0 0 0 0 0 0 0 0 0 0 0 0 0 0 0 0 0 127 0" result="hardAlpha"/><feOffset/><feGaussianBlur stdDeviation="8"/><feColorMatrix values="0 0 0 0 0.0392157 0 0 0 0 0.0392157 0 0 0 0 0.0392157 0 0 0 0.102 0"/><feBlend in2="BackgroundImageFix" result="effect1_dropShadow_5925_578787"/><feBlend in="SourceGraphic" in2="effect1_dropShadow_5925_578787" result="shape"/></filter><filter id="d" x="109.666" y="1.44" width="190.859" height="190.95" filterUnits="userSpaceOnUse" color-interpolation-filters="sRGB"><feFlood flood-opacity="0" result="BackgroundImageFix"/><feColorMatrix in="SourceAlpha" values="0 0 0 0 0 0 0 0 0 0 0 0 0 0 0 0 0 0 127 0" result="hardAlpha"/><feOffset dy="1"/><feGaussianBlur stdDeviation="4"/><feColorMatrix values="0 0 0 0 0.0156863 0 0 0 0 0.0156863 0 0 0 0 0.0196078 0 0 0 0.4 0"/><feBlend in2="BackgroundImageFix" result="effect1_dropShadow_5925_578787"/><feBlend in="SourceGraphic" in2="effect1_dropShadow_5925_578787" result="shape"/></filter><filter id="e" x="101.666" y="-7.56" width="206.859" height="206.95" filterUnits="userSpaceOnUse" color-interpolation-filters="sRGB"><feFlood flood-opacity="0" result="BackgroundImageFix"/><feColorMatrix in="SourceAlpha" values="0 0 0 0 0 0 0 0 0 0 0 0 0 0 0 0 0 0 127 0" result="hardAlpha"/><feOffset/><feGaussianBlur stdDeviation="8"/><feColorMatrix values="0 0 0 0 0.0392157 0 0 0 0 0.0392157 0 0 0 0 0.0392157 0 0 0 0.102 0"/><feBlend in2="BackgroundImageFix" result="effect1_dropShadow_5925_578787"/><feBlend in="SourceGraphic" in2="effect1_dropShadow_5925_578787" result="shape"/></filter><filter id="g" x="228.906" y="49.001" width="71.51" height="55.72" filterUnits="userSpaceOnUse" color-interpolation-filters="sRGB"><feFlood flood-opacity="0" result="BackgroundImageFix"/><feColorMatrix in="SourceAlpha" values="0 0 0 0 0 0 0 0 0 0 0 0 0 0 0 0 0 0 127 0" result="hardAlpha"/><feOffset dy="1"/><feGaussianBlur stdDeviation="4"/><feColorMatrix values="0 0 0 0 0.0156863 0 0 0 0 0.0156863 0 0 0 0 0.0196078 0 0 0 0.4 0"/><feBlend in2="BackgroundImageFix" result="effect1_dropShadow_5925_578787"/><feBlend in="SourceGraphic" in2="effect1_dropShadow_5925_578787" result="shape"/></filter><filter id="k" x="98.152" y="88.94" width="35.375" height="55.63" filterUnits="userSpaceOnUse" color-interpolation-filters="sRGB"><feFlood flood-opacity="0" result="BackgroundImageFix"/><feColorMatrix in="SourceAlpha" values="0 0 0 0 0 0 0 0 0 0 0 0 0 0 0 0 0 0 127 0" result="hardAlpha"/><feOffset dy="1"/><feGaussianBlur stdDeviation="4"/><feColorMatrix values="0 0 0 0 0.0156863 0 0 0 0 0.0156863 0 0 0 0 0.0196078 0 0 0 0.4 0"/><feBlend in2="BackgroundImageFix" result="effect1_dropShadow_5925_578787"/><feBlend in="SourceGraphic" in2="effect1_dropShadow_5925_578787" result="shape"/></filter><filter id="m" x="149.287" y="-7.7" width="72.221" height="87.95" filterUnits="userSpaceOnUse" color-interpolation-filters="sRGB"><feFlood flood-opacity="0" result="BackgroundImageFix"/><feColorMatrix in="SourceAlpha" values="0 0 0 0 0 0 0 0 0 0 0 0 0 0 0 0 0 0 127 0" result="hardAlpha"/><feOffset/><feGaussianBlur stdDeviation="8"/><feColorMatrix values="0 0 0 0 0.0392157 0 0 0 0 0.0392157 0 0 0 0 0.0392157 0 0 0 0.102 0"/><feBlend in2="BackgroundImageFix" result="effect1_dropShadow_5925_578787"/><feBlend in="SourceGraphic" in2="effect1_dropShadow_5925_578787" result="shape"/></filter><filter id="n" x="38.207" y="81.05" width="55.66" height="71.46" filterUnits="userSpaceOnUse" color-interpolation-filters="sRGB"><feFlood flood-opacity="0" result="BackgroundImageFix"/><feColorMatrix in="SourceAlpha" values="0 0 0 0 0 0 0 0 0 0 0 0 0 0 0 0 0 0 127 0" result="hardAlpha"/><feOffset dy="1"/><feGaussianBlur stdDeviation="4"/><feColorMatrix values="0 0 0 0 0.0156863 0 0 0 0 0.0156863 0 0 0 0 0.0196078 0 0 0 0.4 0"/><feBlend in2="BackgroundImageFix" result="effect1_dropShadow_5925_578787"/><feBlend in="SourceGraphic" in2="effect1_dropShadow_5925_578787" result="shape"/></filter><filter id="o" x="-1.633" y="1.48" width="55.721" height="71.52" filterUnits="userSpaceOnUse" color-interpolation-filters="sRGB"><feFlood flood-opacity="0" result="BackgroundImageFix"/><feColorMatrix in="SourceAlpha" values="0 0 0 0 0 0 0 0 0 0 0 0 0 0 0 0 0 0 127 0" result="hardAlpha"/><feOffset dy="1"/><feGaussianBlur stdDeviation="4"/><feColorMatrix values="0 0 0 0 0.0156863 0 0 0 0 0.0156863 0 0 0 0 0.0196078 0 0 0 0.4 0"/><feBlend in2="BackgroundImageFix" result="effect1_dropShadow_5925_578787"/><feBlend in="SourceGraphic" in2="effect1_dropShadow_5925_578787" result="shape"/></filter><filter id="p" x="276.475" y="1.649" width="55.66" height="71.47" filterUnits="userSpaceOnUse" color-interpolation-filters="sRGB"><feFlood flood-opacity="0" result="BackgroundImageFix"/><feColorMatrix in="SourceAlpha" values="0 0 0 0 0 0 0 0 0 0 0 0 0 0 0 0 0 0 127 0" result="hardAlpha"/><feOffset dy="1"/><feGaussianBlur stdDeviation="4"/><feColorMatrix values="0 0 0 0 0.0156863 0 0 0 0 0.0156863 0 0 0 0 0.0196078 0 0 0 0.4 0"/><feBlend in2="BackgroundImageFix" result="effect1_dropShadow_5925_578787"/><feBlend in="SourceGraphic" in2="effect1_dropShadow_5925_578787" result="shape"/></filter><filter id="q" x="308.396" y="49.47" width="71.471" height="55.71" filterUnits="userSpaceOnUse" color-interpolation-filters="sRGB"><feFlood flood-opacity="0" result="BackgroundImageFix"/><feColorMatrix in="SourceAlpha" values="0 0 0 0 0 0 0 0 0 0 0 0 0 0 0 0 0 0 127 0" result="hardAlpha"/><feOffset dy="1"/><feGaussianBlur stdDeviation="4"/><feColorMatrix values="0 0 0 0 0.0156863 0 0 0 0 0.0156863 0 0 0 0 0.0196078 0 0 0 0.4 0"/><feBlend in2="BackgroundImageFix" result="effect1_dropShadow_5925_578787"/><feBlend in="SourceGraphic" in2="effect1_dropShadow_5925_578787" result="shape"/></filter><filter id="r" x="348.387" y="88.89" width="71.519" height="55.72" filterUnits="userSpaceOnUse" color-interpolation-filters="sRGB"><feFlood flood-opacity="0" result="BackgroundImageFix"/><feColorMatrix in="SourceAlpha" values="0 0 0 0 0 0 0 0 0 0 0 0 0 0 0 0 0 0 127 0" result="hardAlpha"/><feOffset dy="1"/><feGaussianBlur stdDeviation="4"/><feColorMatrix values="0 0 0 0 0.0156863 0 0 0 0 0.0156863 0 0 0 0 0.0196078 0 0 0 0.4 0"/><feBlend in2="BackgroundImageFix" result="effect1_dropShadow_5925_578787"/><feBlend in="SourceGraphic" in2="effect1_dropShadow_5925_578787" result="shape"/></filter><filter id="s" x="316.105" y="120.65" width="55.9" height="71.48" filterUnits="userSpaceOnUse" color-interpolation-filters="sRGB"><feFlood flood-opacity="0" result="BackgroundImageFix"/><feColorMatrix in="SourceAlpha" values="0 0 0 0 0 0 0 0 0 0 0 0 0 0 0 0 0 0 127 0" result="hardAlpha"/><feOffset dy="1"/><feGaussianBlur stdDeviation="4"/><feColorMatrix values="0 0 0 0 0.0156863 0 0 0 0 0.0156863 0 0 0 0 0.0196078 0 0 0 0.4 0"/><feBlend in2="BackgroundImageFix" result="effect1_dropShadow_5925_578787"/><feBlend in="SourceGraphic" in2="effect1_dropShadow_5925_578787" result="shape"/></filter><filter id="t" x="-1.713" y="120.65" width="55.85" height="71.48" filterUnits="userSpaceOnUse" color-interpolation-filters="sRGB"><feFlood flood-opacity="0" result="BackgroundImageFix"/><feColorMatrix in="SourceAlpha" values="0 0 0 0 0 0 0 0 0 0 0 0 0 0 0 0 0 0 127 0" result="hardAlpha"/><feOffset dy="1"/><feGaussianBlur stdDeviation="4"/><feColorMatrix values="0 0 0 0 0.0156863 0 0 0 0 0.0156863 0 0 0 0 0.0196078 0 0 0 0.4 0"/><feBlend in2="BackgroundImageFix" result="effect1_dropShadow_5925_578787"/><feBlend in="SourceGraphic" in2="effect1_dropShadow_5925_578787" result="shape"/></filter><filter id="u" x="69.947" y="49.44" width="71.59" height="55.75" filterUnits="userSpaceOnUse" color-interpolation-filters="sRGB"><feFlood flood-opacity="0" result="BackgroundImageFix"/><feColorMatrix in="SourceAlpha" values="0 0 0 0 0 0 0 0 0 0 0 0 0 0 0 0 0 0 127 0" result="hardAlpha"/><feOffset dy="1"/><feGaussianBlur stdDeviation="4"/><feColorMatrix values="0 0 0 0 0.0156863 0 0 0 0 0.0156863 0 0 0 0 0.0196078 0 0 0 0.4 0"/><feBlend in2="BackgroundImageFix" result="effect1_dropShadow_5925_578787"/><feBlend in="SourceGraphic" in2="effect1_dropShadow_5925_578787" result="shape"/></filter><filter id="v" x="356.275" y="1.379" width="55.711" height="71.57" filterUnits="userSpaceOnUse" color-interpolation-filters="sRGB"><feFlood flood-opacity="0" result="BackgroundImageFix"/><feColorMatrix in="SourceAlpha" values="0 0 0 0 0 0 0 0 0 0 0 0 0 0 0 0 0 0 127 0" result="hardAlpha"/><feOffset dy="1"/><feGaussianBlur stdDeviation="4"/><feColorMatrix values="0 0 0 0 0.0156863 0 0 0 0 0.0156863 0 0 0 0 0.0196078 0 0 0 0.4 0"/><feBlend in2="BackgroundImageFix" result="effect1_dropShadow_5925_578787"/><feBlend in="SourceGraphic" in2="effect1_dropShadow_5925_578787" result="shape"/></filter><filter id="ae" x="248.273" y="40.883" width="32.822" height="32.495" filterUnits="userSpaceOnUse" color-interpolation-filters="sRGB"><feFlood flood-opacity="0" result="BackgroundImageFix"/><feColorMatrix in="SourceAlpha" values="0 0 0 0 0 0 0 0 0 0 0 0 0 0 0 0 0 0 127 0" result="hardAlpha"/><feOffset dy="1"/><feGaussianBlur stdDeviation="4"/><feColorMatrix values="0 0 0 0 0.0156863 0 0 0 0 0.0156863 0 0 0 0 0.0196078 0 0 0 0.4 0"/><feBlend in2="BackgroundImageFix" result="effect1_dropShadow_5925_578787"/><feBlend in="SourceGraphic" in2="effect1_dropShadow_5925_578787" result="shape"/></filter><clipPath id="a"><path fill="#fff" d="M0 0h412v191H0z"/></clipPath><clipPath id="F"><path fill="#fff" transform="translate(73.906 31)" d="M0 0h19v40H0z"/></clipPath><clipPath id="V"><path fill="#fff" transform="translate(99.906 88)" d="M0 0h39v40H0z"/></clipPath><clipPath id="W"><path fill="#fff" transform="translate(338.906 120)" d="M0 0h40v40H0z"/></clipPath><clipPath id="ad"><path fill="#fff" transform="translate(274.906 80)" d="M0 0h56v24H0z"/></clipPath></defs></svg>