<svg width="520" height="190" fill="none" xmlns="http://www.w3.org/2000/svg" xmlns:xlink="http://www.w3.org/1999/xlink"><g clip-path="url(#a)"><path fill="url(#b)" d="M144.689-21.54h218.4v225.6h-218.4z"/><path d="M339.161 67.15v-24a7.881 7.881 0 0 1-5.39-13.347 7.882 7.882 0 0 1 5.39-2.403v-12h-12.61a7.865 7.865 0 0 1-6.24 7.64 7.4 7.4 0 0 1-1.57.17 7.871 7.871 0 0 1-7.93-7.81h-63.23a7.86 7.86 0 0 0-7.86-7.86 8.005 8.005 0 0 0-1.29.12 7.933 7.933 0 0 0-1.77.5l-.48.24-.2.09a7.879 7.879 0 0 0-4.11 6.91h-12v12a7.87 7.87 0 1 1 0 15.74v12h-12.12a7.83 7.83 0 0 0-4.11-6.92l-.19-.09-.49-.23a7.859 7.859 0 0 0-3.06-.62 7.848 7.848 0 0 0-7.9 7.82h-12v12.05a7.882 7.882 0 0 1 5.39 13.347 7.881 7.881 0 0 1-5.39 2.403v12h-.14a19.82 19.82 0 0 0 0 39.63l.15.07h12a7.882 7.882 0 0 1 7.875-7.599 7.883 7.883 0 0 1 7.875 7.599h12.05l.06.14h-.12v12a7.965 7.965 0 0 0-1 .06h-.08a7.856 7.856 0 0 0-5.84 4l-.09.2c-.087.16-.167.32-.24.48a7.864 7.864 0 0 0 1.682 8.618 7.866 7.866 0 0 0 5.558 2.302v12h.26l-.16.06h51.75a7.873 7.873 0 0 0 4.12 6.91l.19.09c.16.08.32.17.49.24.968.409 2.009.62 3.06.62h.8l.43-.07.35-.05.4-.1.35-.1.47-.17c.085-.026.168-.056.25-.09l.46-.22.23-.11.38-.23.27-.16.33-.25c.09-.07.19-.13.28-.21.098-.081.192-.168.28-.26l.27-.24.25-.27c.09-.1.18-.19.26-.29l.23-.31c.08-.095.153-.195.22-.3.08-.11.14-.23.21-.34.069-.1.133-.203.19-.31.06-.1.1-.21.16-.32.06-.11.12-.24.17-.36l.12-.33c0-.13.1-.26.14-.4.036-.115.066-.232.09-.35 0-.13.08-.26.11-.4s0-.27.06-.41l.06-.37v-.8h12v-12.02a7.882 7.882 0 0 1-7.599-7.875 7.883 7.883 0 0 1 7.599-7.875l.08-12.14v.15a19.82 19.82 0 0 0 39.63 0h.14v-12a7.882 7.882 0 0 1-7.599-7.875 7.883 7.883 0 0 1 7.599-7.875V82.88a7.87 7.87 0 0 0 6.92-4.12l.09-.19c.08-.16.17-.32.24-.49a7.99 7.99 0 0 0 .63-3.08 7.859 7.859 0 0 0-7.84-7.85Z" fill="#fff" stroke="#ECE5F5" stroke-width=".71" stroke-miterlimit="10"/><path fill="url(#c)" d="M156.211-8.1h206.4v206.4h-206.4z"/><path d="M236.491 167.27a.105.105 0 0 1-.07 0l.14-.05s-.04.04-.07.05Zm62.69-100.14a7.86 7.86 0 0 0-6.91 4.12c0 .06-.06.13-.1.19-.04.06-.16.32-.23.49a7.873 7.873 0 0 0-.025 6.071 7.872 7.872 0 0 0 4.255 4.26c.954.395 1.977.599 3.01.599v12h-12a7.87 7.87 0 1 1-15.74 0h-12.05v-12a7.868 7.868 0 0 0 6.91-4.12l.09-.19c.08-.16.17-.32.24-.49a7.864 7.864 0 0 0-1.682-8.618 7.86 7.86 0 0 0-5.558-2.302V55.06h12.07a7.88 7.88 0 0 1 15.75 0h12l-.03 12.07Zm27.21-51.83a7.87 7.87 0 1 1-15.74 0h-63.21a7.86 7.86 0 0 0-10.92-7.24c-.168.07-.332.15-.49.24l-.19.09a7.836 7.836 0 0 0-4.11 6.91h-12v12a7.87 7.87 0 0 1 0 15.74v12h-12.12a7.85 7.85 0 0 0-4.11-6.91 1.213 1.213 0 0 0-.2-.1l-.48-.23a7.86 7.86 0 0 0-3.06-.62 7.847 7.847 0 0 0-7.261 4.844 7.834 7.834 0 0 0-.599 3.006h-12v12.05a7.883 7.883 0 0 1 8.161 7.875 7.893 7.893 0 0 1-2.408 5.67 7.887 7.887 0 0 1-5.753 2.205v24a7.843 7.843 0 0 0-5.561 2.299 7.841 7.841 0 0 0-2.299 5.561c0 1.051.211 2.092.62 3.06.07.17.15.33.23.49.029.065.063.129.1.19a7.847 7.847 0 0 0 6.91 4.12v12h12a7.882 7.882 0 0 1 7.875-7.599 7.883 7.883 0 0 1 7.875 7.599h12l.05.14h-.12v12a7.834 7.834 0 0 0-6.91 4.11c0 .06-.06.13-.1.2-.04.07-.16.32-.23.48a7.864 7.864 0 0 0 1.682 8.618 7.86 7.86 0 0 0 5.558 2.302v12h.25l-.16.06h51.79a7.873 7.873 0 0 0 4.12 6.91l.19.09c.16.08.32.17.49.24a7.874 7.874 0 0 0 6.071.025 7.868 7.868 0 0 0 4.859-7.265h12v-11.98a7.882 7.882 0 0 1-7.599-7.875 7.883 7.883 0 0 1 7.599-7.875l.08-12.14 12 .14a7.862 7.862 0 0 0 4.852 7.262 7.862 7.862 0 0 0 3.008.598 16.572 16.572 0 0 0 3.74-1 7.87 7.87 0 0 0 4.11-6.91h12v-12a7.88 7.88 0 0 1 .02-15.68V82.88a7.84 7.84 0 0 0 6.91-4.12c.037-.061.071-.125.1-.19.08-.16.16-.32.23-.49a7.873 7.873 0 0 0 .025-6.07 7.871 7.871 0 0 0-4.255-4.26 7.859 7.859 0 0 0-3.01-.6v-24a7.882 7.882 0 0 1-5.39-13.347 7.882 7.882 0 0 1 5.39-2.403v-12l-12.61-.1Z" fill="#fff" stroke="#D1BFE6" stroke-width=".75" stroke-miterlimit="10"/><path d="M236.651 167.27a.105.105 0 0 1-.07 0l.14-.05s-.04.04-.07.05Zm62.69-100.14a7.874 7.874 0 0 0-6.91 4.12l-.09.19a4.46 4.46 0 0 0-.24.49 7.846 7.846 0 0 0-.62 3.06 7.855 7.855 0 0 0 4.849 7.27c.955.396 1.978.6 3.011.6v12h-12a7.883 7.883 0 0 1-7.875 7.599 7.88 7.88 0 0 1-7.875-7.599H259.551v-12a7.862 7.862 0 0 0 6.91-4.12c0-.06.06-.13.1-.19.04-.06.16-.32.23-.49a7.857 7.857 0 0 0-1.683-8.618 7.86 7.86 0 0 0-5.557-2.302V55.06h12.07a7.876 7.876 0 0 1 7.875-7.6 7.882 7.882 0 0 1 7.875 7.6h12l-.03 12.07Zm27.21-51.83a7.874 7.874 0 0 1-7.87 7.87 7.87 7.87 0 0 1-7.87-7.87h-63.21a7.86 7.86 0 0 0-7.86-7.86c-1.052 0-2.092.21-3.06.62l-.48.24-.2.09a7.875 7.875 0 0 0-4.11 6.91h-12v12a7.87 7.87 0 0 1 0 15.74v12h-12.12a7.818 7.818 0 0 0-4.11-6.91l-.19-.1-.49-.23a7.864 7.864 0 0 0-3.06-.62 7.848 7.848 0 0 0-7.92 7.92h-12v12.05a7.877 7.877 0 0 1 7.599 7.875 7.878 7.878 0 0 1-7.599 7.875v24a7.848 7.848 0 0 0-7.86 7.86 7.846 7.846 0 0 0 .85 3.55c.08.16.06.13.1.19a7.865 7.865 0 0 0 6.91 4.12v12h12a7.878 7.878 0 0 1 13.346-5.39 7.884 7.884 0 0 1 2.404 5.39h12.05l.06.14h-.12v12a7.856 7.856 0 0 0-6.91 4.11l-.09.2c-.087.16-.167.32-.24.48a7.86 7.86 0 0 0 7.24 10.92v12h.26l-.16.06h51.75a7.84 7.84 0 0 0 4.11 6.91l.19.09.49.24a7.862 7.862 0 0 0 10.321-4.232 7.863 7.863 0 0 0 .599-3.008h12v-12.05a7.88 7.88 0 0 1 0-15.75l.08-12.14 12 .14a7.862 7.862 0 0 0 4.852 7.262 7.855 7.855 0 0 0 3.008.598 16.6 16.6 0 0 0 3.74-1 7.83 7.83 0 0 0 4.11-6.91h12v-12a7.88 7.88 0 0 1 0-15.75V82.88a7.871 7.871 0 0 0 6.92-4.12l.09-.19c.08-.16.17-.32.24-.49.422-.973.646-2.02.66-3.08a7.854 7.854 0 0 0-2.306-5.561 7.869 7.869 0 0 0-5.564-2.299v-24a7.88 7.88 0 0 1 0-15.75v-12l-12.58-.09Z" stroke="#ECE5F5" stroke-width=".71" stroke-miterlimit="10"/><path d="M260 131.51V.81l-55.1 95.63 55.1 35.07Z" fill="url(#d)"/><path opacity=".59" d="m260 .81 55.1 95.63-55.1 35.07V.81Z" fill="url(#e)"/><path d="M260.09 188.22v-45.3l-55.19-35.16 55.19 80.46Z" fill="url(#f)"/><path opacity=".58" d="M260 188.22v-45.3l55.1-35.16-55.1 80.46Z" fill="url(#g)"/><path d="M236.65 167.27a.105.105 0 0 1-.07 0l.14-.05s-.04.04-.07.05Zm62.69-100.14a7.87 7.87 0 0 0-6.91 4.12l-.09.19a4.46 4.46 0 0 0-.24.49 7.864 7.864 0 0 0-.62 3.06 7.855 7.855 0 0 0 2.299 5.564 7.862 7.862 0 0 0 5.561 2.306v12h-12a7.882 7.882 0 0 1-7.875 7.599 7.883 7.883 0 0 1-7.875-7.599H259.55v-12a7.859 7.859 0 0 0 6.91-4.12c0-.06.06-.13.1-.19.04-.06.16-.32.23-.49a7.86 7.86 0 0 0-7.24-10.92V55.06h12.07a7.88 7.88 0 0 1 15.75 0h12l-.03 12.07Z" stroke="#E5E5E5" stroke-width=".71" stroke-miterlimit="10"/><path d="m215.141 152.16.06-.13M179.621 107.14v-12.2a19.821 19.821 0 0 0 0 39.63M271.37 174.53a7.886 7.886 0 0 0 4.11 6.91l.2.09.48.24a7.855 7.855 0 0 0 10.322-4.232 7.862 7.862 0 0 0 .598-3.008h12v-12.05a7.869 7.869 0 0 1-5.752-2.205 7.865 7.865 0 0 1-2.408-5.67 7.875 7.875 0 0 1 5.06-7.358 7.869 7.869 0 0 1 3.1-.517v-12h-12a7.851 7.851 0 0 0-4.08-6.93 1.205 1.205 0 0 0-.2-.1l-.48-.23a7.859 7.859 0 0 0-10.92 7.24h-12v12a7.869 7.869 0 0 1 5.565 13.435 7.869 7.869 0 0 1-5.565 2.305v12l11.97.08ZM299.09 67.15a7.836 7.836 0 0 0-6.91 4.12c-.037.061-.07.125-.1.19-.08.16-.16.32-.23.49a7.864 7.864 0 0 0-.62 3.06 7.855 7.855 0 0 0 2.299 5.564 7.862 7.862 0 0 0 5.561 2.306v12h12.05a7.87 7.87 0 0 1 15.74 0h12v-12a7.873 7.873 0 0 0 6.91-4.12l.09-.19c.08-.16.17-.32.24-.49a7.86 7.86 0 0 0-7.24-10.92v-12h-12.02a7.876 7.876 0 0 1-7.875 7.6 7.882 7.882 0 0 1-7.875-7.6h-12v12l-.02-.01Z" stroke="#ECE5F5" stroke-width=".71" stroke-miterlimit="10"/><path d="M299.171 106.87v-12h-12a7.882 7.882 0 0 1-7.875 7.599 7.88 7.88 0 0 1-7.875-7.599h-12v12a7.874 7.874 0 0 0-3.011.595 7.873 7.873 0 0 0-4.26 4.255 7.864 7.864 0 0 0 .021 6.07c.07.17.16.33.24.49l.09.19a7.873 7.873 0 0 0 6.91 4.12v12h12a7.87 7.87 0 1 1 15.74 0h12.05v-12a7.861 7.861 0 0 0 7.86-7.86 7.864 7.864 0 0 0-.62-3.06 10.79 10.79 0 0 0-.33-.68 7.807 7.807 0 0 0-6.91-4.11l-.03-.01ZM299.171 27.3v-12h-12a7.888 7.888 0 0 1-2.205 5.752 7.882 7.882 0 0 1-11.341 0 7.87 7.87 0 0 1-2.204-5.752h-12v12a7.862 7.862 0 0 0-7.87 7.86 7.827 7.827 0 0 0 .62 3.06c.07.17.16.33.24.49l.09.2a7.88 7.88 0 0 0 6.92 4.11v12h12a7.87 7.87 0 1 1 15.74 0h12.05v-12a7.86 7.86 0 0 0 7.79-7.83 7.864 7.864 0 0 0-.62-3.06c-.07-.16-.15-.32-.23-.48l-.09-.2a7.86 7.86 0 0 0-6.92-4.11l.03-.04ZM219.491 146.76a7.866 7.866 0 0 0-6.92 4.11l-.09.2c-.08.16-.16.32-.23.48a7.864 7.864 0 0 0 1.682 8.618 7.86 7.86 0 0 0 5.558 2.302v12h12a7.87 7.87 0 1 1 15.74 0h12v-12a7.875 7.875 0 0 0 6.92-4.12l.09-.19c.08-.16.16-.32.23-.49a8.045 8.045 0 0 0 .63-3.06 7.87 7.87 0 0 0-2.306-5.561 7.868 7.868 0 0 0-2.553-1.704 7.874 7.874 0 0 0-3.011-.595v-12h-12a7.882 7.882 0 0 1-7.875 7.599 7.883 7.883 0 0 1-7.875-7.599h-12v12l.01.01ZM191.77 94.92a7.872 7.872 0 0 0 4.11 6.92l.2.09.48.23a7.86 7.86 0 0 0 3.06.62 7.847 7.847 0 0 0 7.264-4.85 7.866 7.866 0 0 0 .596-3.01h12v-12a7.869 7.869 0 0 1-5.565-13.435 7.87 7.87 0 0 1 5.565-2.305v-12h-12a7.884 7.884 0 0 0-4.11-6.92l-.2-.09-.49-.23a7.855 7.855 0 0 0-8.608 1.676 7.848 7.848 0 0 0-2.302 5.554h-12v12.05a7.878 7.878 0 0 1 8.16 7.875 7.876 7.876 0 0 1-5.06 7.358 7.878 7.878 0 0 1-3.1.517v12l12-.05Z" stroke="#ECE5F5" stroke-width=".71" stroke-miterlimit="10"/><path d="M219.491 67.15a7.87 7.87 0 0 0-6.92 4.12l-.09.19c-.08.16-.16.32-.23.49a7.873 7.873 0 0 0 1.678 8.624 7.856 7.856 0 0 0 5.562 2.306v12h12a7.87 7.87 0 1 1 15.74 0h12v-12a7.872 7.872 0 0 0 6.92-4.12l.09-.19a7.888 7.888 0 0 0 .86-3.55 7.871 7.871 0 0 0-2.306-5.561 7.857 7.857 0 0 0-5.564-2.299v-12h-12a7.88 7.88 0 0 1-15.75 0h-12v12l.01-.01Z" stroke="#ECE5F5" stroke-width=".71" stroke-miterlimit="10"/><path d="M247.351 134.73h12v-12a7.882 7.882 0 0 1-7.599-7.875 7.883 7.883 0 0 1 7.599-7.875v-12h-12a7.86 7.86 0 0 0-10.92-7.24c-.168.07-.332.15-.49.24l-.2.09a7.868 7.868 0 0 0-4.11 6.91h-12v12a7.882 7.882 0 0 1 7.599 7.875 7.883 7.883 0 0 1-7.599 7.875v12h12a7.86 7.86 0 0 0 7.86 7.86 7.864 7.864 0 0 0 3.06-.62l.48-.23c.07 0 .14-.06.2-.1a7.87 7.87 0 0 0 4.11-6.91h.01Z" stroke="#ECE5F5" stroke-width=".71" stroke-miterlimit="10"/><path d="M219.57 106.87v-12h-12a7.882 7.882 0 0 1-7.875 7.599 7.883 7.883 0 0 1-7.875-7.599h-12.05v12a7.847 7.847 0 0 0-7.264 4.851 7.864 7.864 0 0 0 .024 6.069c.07.17.16.33.24.49l.09.19a7.873 7.873 0 0 0 6.91 4.12v12h12a7.87 7.87 0 1 1 15.74 0h12v-12a7.86 7.86 0 0 0 7.86-7.86 7.864 7.864 0 0 0-.62-3.06 10.79 10.79 0 0 0-.33-.68 7.804 7.804 0 0 0-6.91-4.11l.06-.01ZM247.351 55.16h12v-12a7.882 7.882 0 0 1-5.39-13.347 7.882 7.882 0 0 1 5.39-2.403v-12h-12a7.848 7.848 0 0 0-7.86-7.86 7.86 7.86 0 0 0-3.06.62c-.168.07-.332.15-.49.24l-.19.09a7.868 7.868 0 0 0-4.12 6.91h-12v12a7.874 7.874 0 0 1 7.271 4.858 7.88 7.88 0 0 1 0 6.024 7.875 7.875 0 0 1-7.271 4.858v12h12a7.858 7.858 0 0 0 7.83 7.85 7.86 7.86 0 0 0 3.06-.62l.48-.23.2-.1a7.857 7.857 0 0 0 4.11-6.91l.04.02ZM311.639 134.73h-12.2a19.825 19.825 0 0 0 19.815 19.375 19.82 19.82 0 0 0 19.815-19.375" stroke="#ECE5F5" stroke-width=".71" stroke-miterlimit="10"/><path fill="url(#h)" d="M84.689 77.34h71.52v86.88h-71.52z"/><path d="M128.251 94.93a7.832 7.832 0 0 0-4.11-6.93l-.2-.1-.48-.23a7.86 7.86 0 0 0-10.92 7.24h-12v12a7.88 7.88 0 0 1 5.565 2.305 7.874 7.874 0 0 1 1.706 8.577 7.874 7.874 0 0 1-7.271 4.858v12h12a7.885 7.885 0 0 0 4.11 6.91l.2.09c.16.08.32.17.49.24a7.756 7.756 0 0 0 3 .62 7.86 7.86 0 0 0 7.86-7.86h12v-12a7.882 7.882 0 0 1-7.599-7.875 7.883 7.883 0 0 1 7.599-7.875V95l-11.95-.07Z" fill="#fff" stroke="#ECE5F5" stroke-width=".71" stroke-miterlimit="10"/><path fill="url(#i)" d="M6.451 77.34h71.04v86.88H6.451z"/><path d="M49.85 94.93A7.81 7.81 0 0 0 45.74 88l-.19-.1-.49-.23a7.858 7.858 0 0 0-3.06-.6 7.86 7.86 0 0 0-7.86 7.86h-12v12a7.87 7.87 0 1 1 0 15.74v12h12a7.87 7.87 0 0 0 4.12 6.91l.19.09c.16.08.32.17.49.24a7.864 7.864 0 0 0 8.622-1.682 7.868 7.868 0 0 0 2.309-5.558h12v-12a7.88 7.88 0 0 1 0-15.75V95h-12l-.02-.07Z" fill="#fff" stroke="#ECE5F5" stroke-width=".71" stroke-miterlimit="10"/><path fill="url(#j)" d="M-1.23 45.66h86.88v71.52H-1.23z"/><path d="M61.9 83.19a7.84 7.84 0 0 0 6.91-4.12c.038-.061.071-.125.1-.19a7.86 7.86 0 0 0-7.01-11.41v-12h-12a7.87 7.87 0 0 1-15.74 0h-12v12a7.86 7.86 0 0 0-6.91 4.11l-.09.2c-.08.16-.17.32-.24.48a7.86 7.86 0 0 0 7.24 10.92v12h12.05a7.88 7.88 0 0 1 15.75 0h12v-12l-.06.01Z" fill="#fff" stroke="#ECE5F5" stroke-width=".71" stroke-miterlimit="10"/><path fill="url(#k)" d="M44.85-2.34h71.52v87.36H44.85z"/><path d="M88.421 15.34a7.87 7.87 0 0 0-4.12-6.91l-.19-.09c-.16-.08-.32-.17-.49-.24a7.86 7.86 0 0 0-10.92 7.24h-12v12.05a7.88 7.88 0 0 1 0 15.75v12h12a7.84 7.84 0 0 0 4.12 6.91l.19.1.49.23a7.86 7.86 0 0 0 10.92-7.24h12v-12a7.87 7.87 0 0 1 0-15.74v-12l-12-.06Z" fill="#fff" stroke="#ECE5F5" stroke-width=".71" stroke-miterlimit="10"/><path fill="url(#l)" d="M442.77 37.5h71.04v86.88h-71.04z"/><path d="M486.1 55.06a7.85 7.85 0 0 0-4.1-6.91l-.19-.09a4.323 4.323 0 0 0-.49-.24 7.86 7.86 0 0 0-10.92 7.24h-12v12a7.88 7.88 0 0 1 0 15.75v12h12a7.866 7.866 0 0 0 4.12 6.91l.19.1.49.23a7.86 7.86 0 0 0 10.92-7.24h12v-12a7.877 7.877 0 0 1-7.599-7.875 7.878 7.878 0 0 1 7.599-7.875v-12H486.1Z" fill="#fff" stroke="#ECE5F5" stroke-width=".71" stroke-miterlimit="10"/><path fill="url(#m)" d="M442.77 117.18h71.04v86.88h-71.04z"/><path d="M486.101 134.52a7.865 7.865 0 0 0-4.12-6.91l-.19-.09a4.442 4.442 0 0 0-.49-.24 7.864 7.864 0 0 0-8.618 1.682 7.86 7.86 0 0 0-2.302 5.558h-12v12a7.882 7.882 0 0 1 7.599 7.875 7.883 7.883 0 0 1-7.599 7.875v12h12a7.856 7.856 0 0 0 4.12 6.91l.19.1.49.23a7.864 7.864 0 0 0 8.618-1.682 7.86 7.86 0 0 0 2.302-5.558h12v-11.98a7.882 7.882 0 0 1-7.599-7.875 7.883 7.883 0 0 1 7.599-7.875v-12l-12-.02Z" fill="#fff" stroke="#ECE5F5" stroke-width=".71" stroke-miterlimit="10"/><path fill="url(#n)" d="M323.25-1.86h71.04v86.88h-71.04z"/><path d="M366.521 15.51a7.876 7.876 0 0 0-4.11-6.91l-.2-.1-.48-.23a7.863 7.863 0 0 0-8.618 1.682 7.86 7.86 0 0 0-2.302 5.558h-12v12a7.88 7.88 0 1 1 0 15.75v12h12a7.868 7.868 0 0 0 4.11 6.91l.2.09c.158.09.321.17.49.24a7.765 7.765 0 0 0 3 .62 7.854 7.854 0 0 0 5.557-2.302 7.858 7.858 0 0 0 2.303-5.558h12v-12a7.88 7.88 0 0 1 0-15.75v-12h-11.95Z" fill="#fff" stroke="#ECE5F5" stroke-width=".71" stroke-miterlimit="10"/><path fill="url(#o)" d="M354.93 45.66h86.88v71.52h-86.88z"/><path d="M418.34 83.19a7.862 7.862 0 0 0 6.91-4.12l.09-.19c.09-.158.171-.322.24-.49a7.86 7.86 0 0 0-7.24-10.92v-12h-12a7.876 7.876 0 0 1-7.875 7.6 7.877 7.877 0 0 1-7.875-7.6h-12v12a7.852 7.852 0 0 0-6.91 4.11c0 .06-.06.13-.1.2-.04.07-.16.32-.23.48a7.864 7.864 0 0 0 1.683 8.618 7.859 7.859 0 0 0 5.557 2.302v12h12.05a7.882 7.882 0 0 1 13.347-5.39 7.876 7.876 0 0 1 2.403 5.39h12v-12l-.05.01Z" fill="#fff" stroke="#ECE5F5" stroke-width=".71" stroke-miterlimit="10"/><path fill="url(#p)" d="M395.25 85.5h86.88v71.04h-86.88z"/><path d="M458.381 122.62a7.873 7.873 0 0 0 6.91-4.12l.09-.19c.08-.16.17-.32.24-.49.409-.968.62-2.009.62-3.06a7.857 7.857 0 0 0-2.299-5.564 7.869 7.869 0 0 0-5.561-2.306v-12h-12.05a7.883 7.883 0 0 1-13.347 5.39 7.878 7.878 0 0 1-2.403-5.39h-12v12a7.84 7.84 0 0 0-7.01 4.31 7.846 7.846 0 0 0-.85 3.55 7.86 7.86 0 0 0 7.86 7.86v12h12.05a7.87 7.87 0 1 1 15.74 0h12v-12l.01.01Z" fill="#fff" stroke="#ECE5F5" stroke-width=".71" stroke-miterlimit="10"/><path fill="url(#q)" d="M363.09 117.18h71.04v86.88h-71.04z"/><path d="M390.499 174.24a7.852 7.852 0 0 0 4.09 6.92l.19.1.49.24a7.995 7.995 0 0 0 3.05.63 7.881 7.881 0 0 0 7.89-7.84l12 .05.06-12.05a7.878 7.878 0 0 1-5.331-13.372 7.88 7.88 0 0 1 5.401-2.378v-12h-12a7.859 7.859 0 0 0-4.09-6.93l-.19-.1-.49-.23a7.83 7.83 0 0 0-3.06-.63 7.849 7.849 0 0 0-7.89 7.83h-12l-.06 12.05a7.866 7.866 0 0 1 7.835 7.905 7.872 7.872 0 0 1-2.329 5.555 7.874 7.874 0 0 1-5.576 2.28l-.05 12h12l.06-.03Z" fill="#fff" stroke="#ECE5F5" stroke-width=".71" stroke-miterlimit="10"/><path fill="url(#r)" d="M44.85 117.18h71.52v86.88H44.85z"/><path d="M72.621 174.24a7.849 7.849 0 0 0 4.09 6.92l.2.1.48.24c.97.408 2.009.622 3.06.63a7.88 7.88 0 0 0 7.89-7.84l12 .05.05-12.05a7.88 7.88 0 0 1 .08-15.75v-12h-12a7.859 7.859 0 0 0-4.09-6.93l-.2-.1-.48-.23a7.87 7.87 0 0 0-10.34 4.194 7.86 7.86 0 0 0-.61 3.006h-12l-.06 12.05a7.867 7.867 0 0 1 7.835 7.905 7.872 7.872 0 0 1-7.905 7.835v12h12v-.03Z" fill="#fff" stroke="#ECE5F5" stroke-width=".71" stroke-miterlimit="10"/><path fill="url(#s)" d="M116.85 45.66h86.88v71.52h-86.88z"/><path d="M140.171 67.4a7.849 7.849 0 0 0-6.92 4.09c-.037.061-.07.125-.1.19-.08.16-.17.32-.24.49a8.015 8.015 0 0 0-.63 3 7.872 7.872 0 0 0 7.84 7.89l-.05 12 12.05.06a7.878 7.878 0 0 1 15.75.07h12v-12a7.859 7.859 0 0 0 6.93-4.09l.2-.1c.09-.17.17-.32.24-.49a7.851 7.851 0 0 0 .63-3.06 7.852 7.852 0 0 0-7.87-7.91v-12l-12-.03a7.867 7.867 0 0 1-7.905 7.835 7.868 7.868 0 0 1-7.835-7.905h-12v12l-.09-.04Z" fill="#fff" stroke="#ECE5F5" stroke-width=".71" stroke-miterlimit="10"/><path fill="url(#t)" d="M402.93-2.34h71.04v87.36h-71.04z"/><path d="M430.609 55.1a7.86 7.86 0 0 0 4.11 6.9l.2.09c.16.087.32.167.48.24a7.864 7.864 0 0 0 8.618-1.682 7.86 7.86 0 0 0 2.302-5.558h12V43.05a7.877 7.877 0 0 1-7.599-7.875 7.878 7.878 0 0 1 7.599-7.875v-12h-12a7.837 7.837 0 0 0-4.12-6.91l-.19-.1-.48-.29a7.856 7.856 0 0 0-3.06-.62 7.85 7.85 0 0 0-7.86 7.86h-12v12a7.87 7.87 0 1 1 0 15.74v12l12 .12Z" fill="#fff" stroke="#ECE5F5" stroke-width=".71" stroke-miterlimit="10"/><path d="M319.321 47.26a7.87 7.87 0 1 0 0 15.74 7.87 7.87 0 0 0 0-15.74ZM199.88 126.85a7.88 7.88 0 0 0-5.565 2.305 7.858 7.858 0 0 0-2.305 5.565h15.75a7.872 7.872 0 0 0-7.88-7.87Z" fill="#fff" stroke="#E5E5E5" stroke-width=".71" stroke-miterlimit="10"/><path d="M267.39 27.38h-15.74v15.74h15.74V27.38Z" fill="#FEFEFE" stroke="#E5E5E5" stroke-width=".71" stroke-miterlimit="10"/><path d="M99.26 45.54a7.88 7.88 0 1 0 0 15.759 7.88 7.88 0 0 0 0-15.759Z" fill="#FFF04D"/><path d="M101.61 44a7.871 7.871 0 1 0 .001 15.742A7.871 7.871 0 0 0 101.61 44Z" fill="#fff" stroke="#FFF04D" stroke-width=".71" stroke-miterlimit="10"/><path d="M226.191 130.77h-15.74v15.74h15.74v-15.74Z" fill="#D1BFE6"/><path d="M228.521 128.44h-15.74v15.74h15.74v-15.74Z" fill="#fff" stroke="#D1BFE6" stroke-width=".71" stroke-miterlimit="10"/><path d="M425.291 32.93h-15.74v15.74h15.74V32.93Z" fill="#D1BFE6"/><path d="M427.611 30.6h-15.74v15.74h15.74V30.6Z" fill="#fff" stroke="#D1BFE6" stroke-width=".71" stroke-miterlimit="10"/><path d="M374.869 81.93h-39.82a7.872 7.872 0 0 0-6.91 4.07l-.09.2a4.45 4.45 0 0 0-.24.49 7.86 7.86 0 0 0 7.24 10.92h12a7.877 7.877 0 0 0 4.799 7.311 7.882 7.882 0 0 0 6.023.05 7.864 7.864 0 0 0 4.295-4.224 7.869 7.869 0 0 0 .623-3.007v-.13h12.11a7.873 7.873 0 0 0 6.91-4.11c0-.06.06-.13.1-.2.04-.07.16-.32.23-.48.41-.968.62-2.009.62-3.06a7.854 7.854 0 0 0-4.879-7.243 7.859 7.859 0 0 0-3.011-.587Z" fill="#D1BFE6"/><path d="M377.2 79.61h-39.82a7.809 7.809 0 0 0-6.91 4.11 1.558 1.558 0 0 0-.1.19 7.828 7.828 0 0 0-.85 3.55 7.86 7.86 0 0 0 7.86 7.86h12a7.87 7.87 0 1 0 15.74.12v-.12h12.08a7.87 7.87 0 0 0 6.91-4.12l.09-.19c.08-.16.17-.32.24-.49.409-.968.62-2.009.62-3.06a7.86 7.86 0 0 0-7.86-7.85Z" fill="#fff" stroke="#D1BFE6" stroke-width=".71" stroke-miterlimit="10"/><path d="M313.68 63.23h78.62-78.62Z" fill="#fff"/><path d="M313.68 63.23h78.62" stroke="#D1BFE6" stroke-width=".71" stroke-miterlimit="10"/><path d="M313.68 67.19h78.62-78.62Z" fill="#fff"/><path d="M313.68 67.19h78.62" stroke="#D1BFE6" stroke-width=".71" stroke-miterlimit="10"/><path d="M313.68 71.15h79.58-79.58Z" fill="#fff"/><path d="M313.68 71.15h79.58" stroke="#D1BFE6" stroke-width=".71" stroke-miterlimit="10"/><path d="M313.68 75.12h79.58-79.58Z" fill="#fff"/><path d="M313.68 75.12h79.58" stroke="#D1BFE6" stroke-width=".71" stroke-miterlimit="10"/><path d="M313.1 79.08h80.16-80.16Z" fill="#fff"/><path d="M313.1 79.08h80.16" stroke="#D1BFE6" stroke-width=".71" stroke-miterlimit="10"/><path d="M313.68 83h79.58-79.58Z" fill="#fff"/><path d="M313.68 83h79.58" stroke="#D1BFE6" stroke-width=".71" stroke-miterlimit="10"/><path d="M313.68 87h79.58-79.58Z" fill="#fff"/><path d="M313.68 87h79.58" stroke="#D1BFE6" stroke-width=".71" stroke-miterlimit="10"/><path d="M313.68 91h79.58-79.58Z" fill="#fff"/><path d="M313.68 91h79.58" stroke="#D1BFE6" stroke-width=".71" stroke-miterlimit="10"/><path d="M313.68 94.92h79.58-79.58Z" fill="#fff"/><path d="M313.68 94.92h79.58" stroke="#D1BFE6" stroke-width=".71" stroke-miterlimit="10"/><path d="M313 98.88h79.44H313Z" fill="#fff"/><path d="M313 98.88h79.44" stroke="#D1BFE6" stroke-width=".71" stroke-miterlimit="10"/><path d="M313 102.85h77.27H313Z" fill="#fff"/><path d="M313 102.85h77.27" stroke="#D1BFE6" stroke-width=".71" stroke-miterlimit="10"/><path d="M313.68 106.81h74.68-74.68Z" fill="#fff"/><path d="M313.68 106.81h74.68" stroke="#D1BFE6" stroke-width=".71" stroke-miterlimit="10"/><path d="M313.68 110.77h79.58-79.58Z" fill="#fff"/><path d="M313.68 110.77h79.58" stroke="#D1BFE6" stroke-width=".71" stroke-miterlimit="10"/><path d="M313.68 114.73h83.23-83.23Z" fill="#fff"/><path d="M313.68 114.73h83.23" stroke="#D1BFE6" stroke-width=".71" stroke-miterlimit="10"/><path d="M313.68 118.69h79.58-79.58Z" fill="#fff"/><path d="M313.68 118.69h79.58" stroke="#D1BFE6" stroke-width=".71" stroke-miterlimit="10"/><path d="M313.68 122.65h79.58-79.58Z" fill="#fff"/><path d="M313.68 122.65h79.58" stroke="#D1BFE6" stroke-width=".71" stroke-miterlimit="10"/><path d="M313.68 130.58h79.58-79.58Z" fill="#fff"/><path d="M313.68 130.58h79.58" stroke="#D1BFE6" stroke-width=".71" stroke-miterlimit="10"/><path d="M344.65 134.54h47.69-47.69Z" fill="#fff"/><path d="M344.65 134.54h47.69" stroke="#D1BFE6" stroke-width=".71" stroke-miterlimit="10"/><path d="M313.68 126.61h79.58-79.58Z" fill="#fff"/><path d="M313.68 126.61h79.58" stroke="#D1BFE6" stroke-width=".71" stroke-miterlimit="10"/><path d="M317 74.2v29.7-29.7Z" fill="#fff"/><path d="M317 74.2v29.7" stroke="#D1BFE6" stroke-width=".71" stroke-miterlimit="10"/><path d="M321 74.2v27.71V74.2Z" fill="#fff"/><path d="M321 74.2v27.71" stroke="#D1BFE6" stroke-width=".71" stroke-miterlimit="10"/><path d="M324.91 74.2v29.7-29.7Z" fill="#fff"/><path d="M324.91 74.2v29.7" stroke="#D1BFE6" stroke-width=".71" stroke-miterlimit="10"/><path d="M328.869 74.2v27.71V74.2Z" fill="#fff"/><path d="M328.869 74.2v27.71" stroke="#D1BFE6" stroke-width=".71" stroke-miterlimit="10"/><path d="M332.83 74.2v29.7-29.7Z" fill="#fff"/><path d="M332.83 74.2v29.7" stroke="#D1BFE6" stroke-width=".71" stroke-miterlimit="10"/><path d="M336.789 74.2v29.7-29.7Z" fill="#fff"/><path d="M336.789 74.2v29.7" stroke="#D1BFE6" stroke-width=".71" stroke-miterlimit="10"/><path d="M340.75 74.2v29.7-29.7Z" fill="#fff"/><path d="M340.75 74.2v29.7" stroke="#D1BFE6" stroke-width=".71" stroke-miterlimit="10"/><path d="M344.711 74.2v27.71V74.2Z" fill="#fff"/><path d="M344.711 74.2v27.71" stroke="#D1BFE6" stroke-width=".71" stroke-miterlimit="10"/><path d="M348.67 74.2v29.7-29.7Z" fill="#fff"/><path d="M348.67 74.2v29.7" stroke="#D1BFE6" stroke-width=".71" stroke-miterlimit="10"/><path d="M352.641 74.2v29.21V74.2Z" fill="#fff"/><path d="M352.641 74.2v29.21" stroke="#D1BFE6" stroke-width=".71" stroke-miterlimit="10"/><path d="M356.6 74.2v31.2-31.2Z" fill="#fff"/><path d="M356.6 74.2v31.2" stroke="#D1BFE6" stroke-width=".71" stroke-miterlimit="10"/><path d="M360.561 74.2v28.54V74.2Z" fill="#fff"/><path d="M360.561 74.2v28.54" stroke="#D1BFE6" stroke-width=".71" stroke-miterlimit="10"/><path d="M364.52 74.2v27.06V74.2Z" fill="#fff"/><path d="M364.52 74.2v27.06" stroke="#D1BFE6" stroke-width=".71" stroke-miterlimit="10"/><path d="M368.48 74.2v27.06V74.2Z" fill="#fff"/><path d="M368.48 74.2v27.06" stroke="#D1BFE6" stroke-width=".71" stroke-miterlimit="10"/><path d="M372.439 74.2v29.7-29.7Z" fill="#fff"/><path d="M372.439 74.2v29.7" stroke="#D1BFE6" stroke-width=".71" stroke-miterlimit="10"/><path d="M376.4 74.2v29.7-29.7Z" fill="#fff"/><path d="M376.4 74.2v29.7" stroke="#D1BFE6" stroke-width=".71" stroke-miterlimit="10"/><path d="M380.369 74.2v29.7-29.7Z" fill="#fff"/><path d="M380.369 74.2v29.7" stroke="#D1BFE6" stroke-width=".71" stroke-miterlimit="10"/><path d="M384.33 74.2v29.7-29.7Z" fill="#fff"/><path d="M384.33 74.2v29.7" stroke="#D1BFE6" stroke-width=".71" stroke-miterlimit="10"/><path d="M388.289 74.2v29.7-29.7Z" fill="#fff"/><path d="M388.289 74.2v29.7" stroke="#D1BFE6" stroke-width=".71" stroke-miterlimit="10"/><path d="M181.001 54.47h39.82a7.88 7.88 0 0 0 6.92-4.11l.09-.2a7.777 7.777 0 0 0 .85-3.54 7.848 7.848 0 0 0-4.851-7.264 7.85 7.85 0 0 0-3.009-.596h-12a7.874 7.874 0 0 0-7.805-7.935 7.869 7.869 0 0 0-7.935 7.805v.13h-12.08a7.88 7.88 0 0 0-6.92 4.11l-.09.2-.24.48a7.841 7.841 0 0 0-.61 3.06 7.847 7.847 0 0 0 7.86 7.86Z" fill="#D1BFE6"/><path d="M183.09 51.46h39.82a7.831 7.831 0 0 0 6.91-4.11c0-.06.06-.13.1-.19a7.828 7.828 0 0 0 .85-3.55 7.86 7.86 0 0 0-7.86-7.86h-12a7.87 7.87 0 1 0-15.74-.12v.12h-12.08a7.862 7.862 0 0 0-6.91 4.12l-.09.19a4.46 4.46 0 0 0-.24.49 7.864 7.864 0 0 0-.62 3.06 7.86 7.86 0 0 0 7.86 7.85Z" fill="#fff" stroke="#D1BFE6" stroke-width=".71" stroke-miterlimit="10"/><path d="M306.35 155.9a7.858 7.858 0 0 0 2.301 5.571 7.865 7.865 0 0 0 5.569 2.309V148a7.88 7.88 0 0 0-5.576 2.316 7.879 7.879 0 0 0-2.294 5.584Z" fill="#FFF04D"/><path d="M308.67 153.58a7.875 7.875 0 0 0 4.865 7.274 7.877 7.877 0 0 0 3.015.596v-15.74a7.885 7.885 0 0 0-5.569 2.304 7.885 7.885 0 0 0-2.311 5.566Z" fill="#fff" stroke="#FFF04D" stroke-width=".71" stroke-miterlimit="10"/><path d="M130.341 144.55a7.881 7.881 0 0 0-7.87-7.88v15.75a7.89 7.89 0 0 0 7.87-7.87Z" fill="#D1BFE6"/><path d="M128.001 146.87a7.87 7.87 0 0 0-7.87-7.87v15.74a7.883 7.883 0 0 0 5.565-2.305 7.874 7.874 0 0 0 2.305-5.565Z" fill="#fff" stroke="#D1BFE6" stroke-width=".71" stroke-miterlimit="10"/><path d="M137 52.63a7.87 7.87 0 0 1 7.87-7.87V33a19.624 19.624 0 0 0-18.129 12.119 19.615 19.615 0 0 0-1.491 7.511 19.607 19.607 0 0 0 12.11 18.13 19.611 19.611 0 0 0 7.51 1.49V60.5a7.88 7.88 0 0 1-7.87-7.87Z" fill="#FFF04D"/><path d="M139.321 50.3a7.87 7.87 0 0 1 7.87-7.87V30.68a19.623 19.623 0 0 0-18.136 12.11 19.63 19.63 0 0 0 18.136 27.14V58.17a7.87 7.87 0 0 1-7.87-7.87Z" fill="#fff" stroke="#FFF04D" stroke-width=".71" stroke-miterlimit="10"/><path d="M105.91 20.46h78.62-78.62Z" fill="#fff"/><path d="M105.91 20.46h78.62" stroke="#FFF04D" stroke-width=".71" stroke-miterlimit="10"/><path d="M105.91 24.42h78.62-78.62Z" fill="#fff"/><path d="M105.91 24.42h78.62" stroke="#FFF04D" stroke-width=".71" stroke-miterlimit="10"/><path d="M105.91 28.38h79.57-79.57Z" fill="#fff"/><path d="M105.91 28.38h79.57" stroke="#FFF04D" stroke-width=".71" stroke-miterlimit="10"/><path d="M105.91 32.34h79.57-79.57Z" fill="#fff"/><path d="M105.91 32.34h79.57" stroke="#FFF04D" stroke-width=".71" stroke-miterlimit="10"/><path d="M105.33 36.31h80.15-80.15Z" fill="#fff"/><path d="M105.33 36.31h80.15" stroke="#FFF04D" stroke-width=".71" stroke-miterlimit="10"/><path d="M105.91 40.27h79.57-79.57Z" fill="#fff"/><path d="M105.91 40.27h79.57" stroke="#FFF04D" stroke-width=".71" stroke-miterlimit="10"/><path d="M105.91 44.23h79.57-79.57Z" fill="#fff"/><path d="M105.91 44.23h79.57" stroke="#FFF04D" stroke-width=".71" stroke-miterlimit="10"/><path d="M105.91 48.19h79.57-79.57Z" fill="#fff"/><path d="M105.91 48.19h79.57" stroke="#FFF04D" stroke-width=".71" stroke-miterlimit="10"/><path d="M105.91 52.15h79.57-79.57Z" fill="#fff"/><path d="M105.91 52.15h79.57" stroke="#FFF04D" stroke-width=".71" stroke-miterlimit="10"/><path d="M105.24 56.11h79.43-79.43Z" fill="#fff"/><path d="M105.24 56.11h79.43" stroke="#FFF04D" stroke-width=".71" stroke-miterlimit="10"/><path d="M105.24 60.07h77.27-77.27Z" fill="#fff"/><path d="M105.24 60.07h77.27" stroke="#FFF04D" stroke-width=".71" stroke-miterlimit="10"/><path d="M105.91 64h74.68-74.68Z" fill="#fff"/><path d="M105.91 64h74.68" stroke="#FFF04D" stroke-width=".71" stroke-miterlimit="10"/><path d="M105.91 68h79.57-79.57Z" fill="#fff"/><path d="M105.91 68h79.57" stroke="#FFF04D" stroke-width=".71" stroke-miterlimit="10"/><path d="M105.91 72h83.23-83.23Z" fill="#fff"/><path d="M105.91 72h83.23" stroke="#FFF04D" stroke-width=".71" stroke-miterlimit="10"/><path d="M105.91 75.92h79.57-79.57Z" fill="#fff"/><path d="M105.91 75.92h79.57" stroke="#FFF04D" stroke-width=".71" stroke-miterlimit="10"/><path d="M105.91 79.88h79.57-79.57Z" fill="#fff"/><path d="M105.91 79.88h79.57" stroke="#FFF04D" stroke-width=".71" stroke-miterlimit="10"/><path d="M105.91 87.8h79.57-79.57Z" fill="#fff"/><path d="M105.91 87.8h79.57" stroke="#FFF04D" stroke-width=".71" stroke-miterlimit="10"/><path d="M136.881 91.76h47.69-47.69Z" fill="#fff"/><path d="M136.881 91.76h47.69" stroke="#FFF04D" stroke-width=".71" stroke-miterlimit="10"/><path d="M105.91 83.84h79.57-79.57Z" fill="#fff"/><path d="M105.91 83.84h79.57" stroke="#FFF04D" stroke-width=".71" stroke-miterlimit="10"/><path d="M109.211 13.39v78.47-78.47Z" fill="#fff"/><path d="M109.211 13.39v78.47" stroke="#FFF04D" stroke-width=".71" stroke-miterlimit="10"/><path d="M113.172 18.64v73.22-73.22Z" fill="#fff"/><path d="M113.172 18.64v73.22" stroke="#FFF04D" stroke-width=".71" stroke-miterlimit="10"/><path d="M117.131 13.39v78.47-78.47Z" fill="#fff"/><path d="M117.131 13.39v78.47" stroke="#FFF04D" stroke-width=".71" stroke-miterlimit="10"/><path d="M121.102 18.64v73.22-73.22Z" fill="#fff"/><path d="M121.102 18.64v73.22" stroke="#FFF04D" stroke-width=".71" stroke-miterlimit="10"/><path d="M125.061 13.39v78.47-78.47Z" fill="#fff"/><path d="M125.061 13.39v78.47" stroke="#FFF04D" stroke-width=".71" stroke-miterlimit="10"/><path d="M129 13.39v78.47-78.47Z" fill="#fff"/><path d="M129 13.39v78.47" stroke="#FFF04D" stroke-width=".71" stroke-miterlimit="10"/><path d="M133 13.39v78.47-78.47Z" fill="#fff"/><path d="M133 13.39v78.47" stroke="#FFF04D" stroke-width=".71" stroke-miterlimit="10"/><path d="M136.941 18.64v73.22-73.22Z" fill="#fff"/><path d="M136.941 18.64v73.22" stroke="#FFF04D" stroke-width=".71" stroke-miterlimit="10"/><path d="M140.9 13.39v78.47-78.47Z" fill="#fff"/><path d="M140.9 13.39v78.47" stroke="#FFF04D" stroke-width=".71" stroke-miterlimit="10"/><path d="M144.861 18.64v77.18-77.18Z" fill="#fff"/><path d="M144.861 18.64v77.18" stroke="#FFF04D" stroke-width=".71" stroke-miterlimit="10"/><path d="M148.83 13.39v82.43-82.43Z" fill="#fff"/><path d="M148.83 13.39v82.43" stroke="#FFF04D" stroke-width=".71" stroke-miterlimit="10"/><path d="M152.791 16.44v75.42-75.42Z" fill="#fff"/><path d="M152.791 16.44v75.42" stroke="#FFF04D" stroke-width=".71" stroke-miterlimit="10"/><path d="M156.75 20.36v71.5-71.5Z" fill="#fff"/><path d="M156.75 20.36v71.5" stroke="#FFF04D" stroke-width=".71" stroke-miterlimit="10"/><path d="M160.711 20.36v71.5-71.5Z" fill="#fff"/><path d="M160.711 20.36v71.5" stroke="#FFF04D" stroke-width=".71" stroke-miterlimit="10"/><path d="M164.672 13.39v78.47-78.47Z" fill="#fff"/><path d="M164.672 13.39v78.47" stroke="#FFF04D" stroke-width=".71" stroke-miterlimit="10"/><path d="M168.631 13.39v78.47-78.47Z" fill="#fff"/><path d="M168.631 13.39v78.47" stroke="#FFF04D" stroke-width=".71" stroke-miterlimit="10"/><path d="M172.592 13.39v78.47-78.47Z" fill="#fff"/><path d="M172.592 13.39v78.47" stroke="#FFF04D" stroke-width=".71" stroke-miterlimit="10"/><path d="M176.561 13.39v78.47-78.47Z" fill="#fff"/><path d="M176.561 13.39v78.47" stroke="#FFF04D" stroke-width=".71" stroke-miterlimit="10"/><path d="M180.521 13.39v78.47-78.47Z" fill="#fff"/><path d="M180.521 13.39v78.47" stroke="#FFF04D" stroke-width=".71" stroke-miterlimit="10"/><path d="M430.36 141.46a19.792 19.792 0 0 0-18.82-19.79 5.766 5.766 0 0 0-.72 0h-.21a5.927 5.927 0 0 0-.73 0 19.821 19.821 0 0 0-13.305 33.414 19.821 19.821 0 0 0 13.305 6.166c.243.015.487.015.73 0h.21c.24.015.481.015.72 0a19.791 19.791 0 0 0 18.82-19.79Zm-19.07 7.92h-.47v.05h-.21v-.05h-.48a7.82 7.82 0 1 1 1.16 0Z" fill="#D1BFE6"/><path d="M432.68 139.13a19.776 19.776 0 0 0-18.81-19.79h-1.66a19.821 19.821 0 0 0-13.305 33.414 19.821 19.821 0 0 0 13.305 6.166c.239.032.48.048.72.05h.22c.241-.002.482-.018.72-.05a19.777 19.777 0 0 0 18.81-19.79Zm-19.06 7.92h-.47v.05h-.22v-.1h-.47a7.81 7.81 0 1 1 1.16 0v.05Z" fill="#fff" stroke="#D1BFE6" stroke-width=".71" stroke-miterlimit="10"/><path d="M377.25 111.56h78.62-78.62Z" fill="#fff"/><path d="M377.25 111.56h78.62" stroke="#D1BFE6" stroke-width=".71" stroke-miterlimit="10"/><path d="M377.25 115.52h78.62-78.62Z" fill="#fff"/><path d="M377.25 115.52h78.62" stroke="#D1BFE6" stroke-width=".71" stroke-miterlimit="10"/><path d="M377.25 119.48h79.58-79.58Z" fill="#fff"/><path d="M377.25 119.48h79.58" stroke="#D1BFE6" stroke-width=".71" stroke-miterlimit="10"/><path d="M377.25 123.44h79.58-79.58Z" fill="#fff"/><path d="M377.25 123.44h79.58" stroke="#D1BFE6" stroke-width=".71" stroke-miterlimit="10"/><path d="M376.67 127.41h80.16-80.16Z" fill="#fff"/><path d="M376.67 127.41h80.16" stroke="#D1BFE6" stroke-width=".71" stroke-miterlimit="10"/><path d="M377.25 131.37h79.58-79.58Z" fill="#fff"/><path d="M377.25 131.37h79.58" stroke="#D1BFE6" stroke-width=".71" stroke-miterlimit="10"/><path d="M377.25 135.33h79.58-79.58Z" fill="#fff"/><path d="M377.25 135.33h79.58" stroke="#D1BFE6" stroke-width=".71" stroke-miterlimit="10"/><path d="M377.25 139.29h79.58-79.58Z" fill="#fff"/><path d="M377.25 139.29h79.58" stroke="#D1BFE6" stroke-width=".71" stroke-miterlimit="10"/><path d="M377.25 143.25h79.58-79.58Z" fill="#fff"/><path d="M377.25 143.25h79.58" stroke="#D1BFE6" stroke-width=".71" stroke-miterlimit="10"/><path d="M376.58 147.21H456h-79.42Z" fill="#fff"/><path d="M376.58 147.21H456" stroke="#D1BFE6" stroke-width=".71" stroke-miterlimit="10"/><path d="M376.58 151.17h77.27-77.27Z" fill="#fff"/><path d="M376.58 151.17h77.27" stroke="#D1BFE6" stroke-width=".71" stroke-miterlimit="10"/><path d="M377.25 155.13h74.68-74.68Z" fill="#fff"/><path d="M377.25 155.13h74.68" stroke="#D1BFE6" stroke-width=".71" stroke-miterlimit="10"/><path d="M377.25 159.1h79.58-79.58Z" fill="#fff"/><path d="M377.25 159.1h79.58" stroke="#D1BFE6" stroke-width=".71" stroke-miterlimit="10"/><path d="M377.25 163.06h83.23-83.23Z" fill="#fff"/><path d="M377.25 163.06h83.23" stroke="#D1BFE6" stroke-width=".71" stroke-miterlimit="10"/><path d="M377.25 167h79.58-79.58Z" fill="#fff"/><path d="M377.25 167h79.58" stroke="#D1BFE6" stroke-width=".71" stroke-miterlimit="10"/><path d="M377.25 171h79.58-79.58Z" fill="#fff"/><path d="M377.25 171h79.58" stroke="#D1BFE6" stroke-width=".71" stroke-miterlimit="10"/><path d="M377.25 178.9h79.58-79.58Z" fill="#fff"/><path d="M377.25 178.9h79.58" stroke="#D1BFE6" stroke-width=".71" stroke-miterlimit="10"/><path d="M408.221 182.86h47.69-47.69Z" fill="#fff"/><path d="M408.221 182.86h47.69" stroke="#D1BFE6" stroke-width=".71" stroke-miterlimit="10"/><path d="M377.25 174.94h79.58-79.58Z" fill="#fff"/><path d="M377.25 174.94h79.58" stroke="#D1BFE6" stroke-width=".71" stroke-miterlimit="10"/><path d="M380.551 104.49V183v-78.51Z" fill="#fff"/><path d="M380.551 104.49V183" stroke="#D1BFE6" stroke-width=".71" stroke-miterlimit="10"/><path d="M384.512 109.74V183v-73.26Z" fill="#fff"/><path d="M384.512 109.74V183" stroke="#D1BFE6" stroke-width=".71" stroke-miterlimit="10"/><path d="M388.48 104.49V183v-78.51Z" fill="#fff"/><path d="M388.48 104.49V183" stroke="#D1BFE6" stroke-width=".71" stroke-miterlimit="10"/><path d="M392.441 109.74V183v-73.26Z" fill="#fff"/><path d="M392.441 109.74V183" stroke="#D1BFE6" stroke-width=".71" stroke-miterlimit="10"/><path d="M396.4 104.49V183v-78.51Z" fill="#fff"/><path d="M396.4 104.49V183" stroke="#D1BFE6" stroke-width=".71" stroke-miterlimit="10"/><path d="M400.361 104.49V183v-78.51Z" fill="#fff"/><path d="M400.361 104.49V183" stroke="#D1BFE6" stroke-width=".71" stroke-miterlimit="10"/><path d="M404.32 104.49V183v-78.51Z" fill="#fff"/><path d="M404.32 104.49V183" stroke="#D1BFE6" stroke-width=".71" stroke-miterlimit="10"/><path d="M408.281 109.74V183v-73.26Z" fill="#fff"/><path d="M408.281 109.74V183" stroke="#D1BFE6" stroke-width=".71" stroke-miterlimit="10"/><path d="M412.24 104.49V183v-78.51Z" fill="#fff"/><path d="M412.24 104.49V183" stroke="#D1BFE6" stroke-width=".71" stroke-miterlimit="10"/><path d="M416.211 109.74v77.18-77.18Z" fill="#fff"/><path d="M416.211 109.74v77.18" stroke="#D1BFE6" stroke-width=".71" stroke-miterlimit="10"/><path d="M420.17 104.49v82.43-82.43Z" fill="#fff"/><path d="M420.17 104.49v82.43" stroke="#D1BFE6" stroke-width=".71" stroke-miterlimit="10"/><path d="M424.131 107.54V183v-75.46Z" fill="#fff"/><path d="M424.131 107.54V183" stroke="#D1BFE6" stroke-width=".71" stroke-miterlimit="10"/><path d="M428.09 111.46V183v-71.54Z" fill="#fff"/><path d="M428.09 111.46V183" stroke="#D1BFE6" stroke-width=".71" stroke-miterlimit="10"/><path d="M432.051 111.46V183v-71.54Z" fill="#fff"/><path d="M432.051 111.46V183" stroke="#D1BFE6" stroke-width=".71" stroke-miterlimit="10"/><path d="M436 104.49V183v-78.51Z" fill="#fff"/><path d="M436 104.49V183" stroke="#D1BFE6" stroke-width=".71" stroke-miterlimit="10"/><path d="M440 104.49V183v-78.51Z" fill="#fff"/><path d="M440 104.49V183" stroke="#D1BFE6" stroke-width=".71" stroke-miterlimit="10"/><path d="M443.941 104.49V183v-78.51Z" fill="#fff"/><path d="M443.941 104.49V183" stroke="#D1BFE6" stroke-width=".71" stroke-miterlimit="10"/><path d="M447.9 104.49V183v-78.51Z" fill="#fff"/><path d="M447.9 104.49V183" stroke="#D1BFE6" stroke-width=".71" stroke-miterlimit="10"/><path d="M451.861 104.49V183v-78.51Z" fill="#fff"/><path d="M451.861 104.49V183" stroke="#D1BFE6" stroke-width=".71" stroke-miterlimit="10"/><path d="M190.47 109.08a19.79 19.79 0 0 0-18.82-19.79c-.23 0-.48 0-.72-.05h-.21c-.24 0-.49 0-.72.05a19.809 19.809 0 0 0 0 39.58c.24.015.48.015.72 0h.21c.24.015.48.015.72 0a19.791 19.791 0 0 0 18.82-19.79ZM171.4 117h-1.15a7.82 7.82 0 1 1 1.15 0Z" fill="#D1BFE6"/><path d="M192.801 107.34a19.791 19.791 0 0 0-18.8-19.79 5.804 5.804 0 0 0-.72 0h-.28a5.804 5.804 0 0 0-.72 0 19.817 19.817 0 0 0-18.73 19.79 19.818 19.818 0 0 0 18.73 19.79c.239.015.48.015.72 0h.22c.239.015.48.015.72 0a19.79 19.79 0 0 0 18.86-19.79Zm-19.07 7.92h-.47v.05h-.26v-.05h-.47a7.822 7.822 0 0 1-7.235-8.089 7.817 7.817 0 0 1 7.815-7.53 7.82 7.82 0 0 1 .58 15.619h.04ZM137.359 79.64h78.64-78.64Z" fill="#fff"/><path d="M137.359 79.64h78.64" stroke="#D1BFE6" stroke-width=".71" stroke-miterlimit="10"/><path d="M137.359 83.6h78.64-78.64Z" fill="#fff"/><path d="M137.359 83.6h78.64" stroke="#D1BFE6" stroke-width=".71" stroke-miterlimit="10"/><path d="M137.359 87.56h79.58-79.58Z" fill="#fff"/><path d="M137.359 87.56h79.58" stroke="#D1BFE6" stroke-width=".71" stroke-miterlimit="10"/><path d="M137.359 91.52h79.58-79.58Z" fill="#fff"/><path d="M137.359 91.52h79.58" stroke="#D1BFE6" stroke-width=".71" stroke-miterlimit="10"/><path d="M136.779 95.48h80.16-80.16Z" fill="#fff"/><path d="M136.779 95.48h80.16" stroke="#D1BFE6" stroke-width=".71" stroke-miterlimit="10"/><path d="M137.359 99.44h79.58-79.58Z" fill="#fff"/><path d="M137.359 99.44h79.58" stroke="#D1BFE6" stroke-width=".71" stroke-miterlimit="10"/><path d="M137.359 103.4h79.58-79.58Z" fill="#fff"/><path d="M137.359 103.4h79.58" stroke="#D1BFE6" stroke-width=".71" stroke-miterlimit="10"/><path d="M137.359 107.36h79.58-79.58Z" fill="#fff"/><path d="M137.359 107.36h79.58" stroke="#D1BFE6" stroke-width=".71" stroke-miterlimit="10"/><path d="M137.359 111.33h79.58-79.58Z" fill="#fff"/><path d="M137.359 111.33h79.58" stroke="#D1BFE6" stroke-width=".71" stroke-miterlimit="10"/><path d="M136.689 115.29h79.44-79.44Z" fill="#fff"/><path d="M136.689 115.29h79.44" stroke="#D1BFE6" stroke-width=".71" stroke-miterlimit="10"/><path d="M136.689 119.25h77.31-77.31Z" fill="#fff"/><path d="M136.689 119.25h77.31" stroke="#D1BFE6" stroke-width=".71" stroke-miterlimit="10"/><path d="M137.359 123.21h74.64-74.64Z" fill="#fff"/><path d="M137.359 123.21h74.64" stroke="#D1BFE6" stroke-width=".71" stroke-miterlimit="10"/><path d="M137.359 127.17h79.58-79.58Z" fill="#fff"/><path d="M137.359 127.17h79.58" stroke="#D1BFE6" stroke-width=".71" stroke-miterlimit="10"/><path d="M137.359 131.13h83.23-83.23Z" fill="#fff"/><path d="M137.359 131.13h83.23" stroke="#D1BFE6" stroke-width=".71" stroke-miterlimit="10"/><path d="M137.359 135.09h79.58-79.58Z" fill="#fff"/><path d="M137.359 135.09h79.58" stroke="#D1BFE6" stroke-width=".71" stroke-miterlimit="10"/><path d="M137.359 139.06h79.58-79.58Z" fill="#fff"/><path d="M137.359 139.06h79.58" stroke="#D1BFE6" stroke-width=".71" stroke-miterlimit="10"/><path d="M137.359 147h79.58-79.58Z" fill="#fff"/><path d="M137.359 147h79.58" stroke="#D1BFE6" stroke-width=".71" stroke-miterlimit="10"/><path d="M168.33 150.94H216h-47.67Z" fill="#fff"/><path d="M168.33 150.94H216" stroke="#D1BFE6" stroke-width=".71" stroke-miterlimit="10"/><path d="M137.359 143h79.58-79.58Z" fill="#fff"/><path d="M137.359 143h79.58" stroke="#D1BFE6" stroke-width=".71" stroke-miterlimit="10"/><path d="M140.67 72.56V151 72.56Z" fill="#fff"/><path d="M140.67 72.56V151" stroke="#D1BFE6" stroke-width=".71" stroke-miterlimit="10"/><path d="M144.631 77.81V151 77.81Z" fill="#fff"/><path d="M144.631 77.81V151" stroke="#D1BFE6" stroke-width=".71" stroke-miterlimit="10"/><path d="M148.59 72.56V151 72.56Z" fill="#fff"/><path d="M148.59 72.56V151" stroke="#D1BFE6" stroke-width=".71" stroke-miterlimit="10"/><path d="M152.551 77.81V151 77.81Z" fill="#fff"/><path d="M152.551 77.81V151" stroke="#D1BFE6" stroke-width=".71" stroke-miterlimit="10"/><path d="M156.51 72.56V151 72.56Z" fill="#fff"/><path d="M156.51 72.56V151" stroke="#D1BFE6" stroke-width=".71" stroke-miterlimit="10"/><path d="M160.471 72.56V151 72.56Z" fill="#fff"/><path d="M160.471 72.56V151" stroke="#D1BFE6" stroke-width=".71" stroke-miterlimit="10"/><path d="M164.43 72.56V151 72.56Z" fill="#fff"/><path d="M164.43 72.56V151" stroke="#D1BFE6" stroke-width=".71" stroke-miterlimit="10"/><path d="M168.4 77.81V151 77.81Z" fill="#fff"/><path d="M168.4 77.81V151" stroke="#D1BFE6" stroke-width=".71" stroke-miterlimit="10"/><path d="M172.359 72.56V151 72.56Z" fill="#fff"/><path d="M172.359 72.56V151" stroke="#D1BFE6" stroke-width=".71" stroke-miterlimit="10"/><path d="M176.32 77.81V155 77.81Z" fill="#fff"/><path d="M176.32 77.81V155" stroke="#D1BFE6" stroke-width=".71" stroke-miterlimit="10"/><path d="M180.279 72.56V155 72.56Z" fill="#fff"/><path d="M180.279 72.56V155" stroke="#D1BFE6" stroke-width=".71" stroke-miterlimit="10"/><path d="M184.24 75.62V151 75.62Z" fill="#fff"/><path d="M184.24 75.62V151" stroke="#D1BFE6" stroke-width=".71" stroke-miterlimit="10"/><path d="M188.199 79.53V151 79.53Z" fill="#fff"/><path d="M188.199 79.53V151" stroke="#D1BFE6" stroke-width=".71" stroke-miterlimit="10"/><path d="M192.16 79.53V151 79.53Z" fill="#fff"/><path d="M192.16 79.53V151" stroke="#D1BFE6" stroke-width=".71" stroke-miterlimit="10"/><path d="M196.131 72.56V151 72.56Z" fill="#fff"/><path d="M196.131 72.56V151" stroke="#D1BFE6" stroke-width=".71" stroke-miterlimit="10"/><path d="M200.09 72.56V151 72.56Z" fill="#fff"/><path d="M200.09 72.56V151" stroke="#D1BFE6" stroke-width=".71" stroke-miterlimit="10"/><path d="M204.051 72.56V151 72.56Z" fill="#fff"/><path d="M204.051 72.56V151" stroke="#D1BFE6" stroke-width=".71" stroke-miterlimit="10"/><path d="M208 72.56V151 72.56Z" fill="#fff"/><path d="M208 72.56V151" stroke="#D1BFE6" stroke-width=".71" stroke-miterlimit="10"/><path d="M212 72.56V151 72.56Z" fill="#fff"/><path d="M212 72.56V151" stroke="#D1BFE6" stroke-width=".71" stroke-miterlimit="10"/><path d="M192.801 107.34a19.791 19.791 0 0 0-18.8-19.79 5.804 5.804 0 0 0-.72 0h-.28a5.804 5.804 0 0 0-.72 0 19.817 19.817 0 0 0-18.73 19.79 19.818 19.818 0 0 0 18.73 19.79c.239.015.48.015.72 0h.22c.239.015.48.015.72 0a19.79 19.79 0 0 0 18.86-19.79Zm-19.07 7.92h-.47v.05h-.26v-.05h-.47a7.822 7.822 0 0 1-7.235-8.089 7.817 7.817 0 0 1 7.815-7.53 7.82 7.82 0 0 1 .58 15.619h.04Z" stroke="#D1BFE6" stroke-miterlimit="10"/><path d="M468.851 96.16a19.802 19.802 0 0 0-19.75-19.84 6 6 0 0 0-6 6 5.778 5.778 0 0 0 5.64 5.91h.36a7.948 7.948 0 0 1 7.599 4.838 7.957 7.957 0 0 1 0 6.214 7.93 7.93 0 0 1-1.797 2.613 7.936 7.936 0 0 1-5.802 2.225 6.009 6.009 0 0 0-4.709 1.46 6.005 6.005 0 0 0-1.495 6.96 6 6 0 0 0 6.204 3.49 19.8 19.8 0 0 0 19.75-19.84v-.03Z" fill="#FFF04D"/><path d="M471.22 93.58a19.776 19.776 0 0 0-19.75-19.83 6.002 6.002 0 0 0-6 6 5.782 5.782 0 0 0 5.64 5.91h.35a7.938 7.938 0 0 1 5.614 13.554 7.94 7.94 0 0 1-5.614 2.326 5.997 5.997 0 0 0-6.204 3.49 6.002 6.002 0 0 0 6.204 8.42 19.783 19.783 0 0 0 18.262-12.252 19.776 19.776 0 0 0 1.488-7.578l.01-.04Z" fill="#fff" stroke="#FFF04D" stroke-width=".71" stroke-miterlimit="10"/><path d="M181.53 148.48a8.662 8.662 0 0 0-8.025 5.341 8.655 8.655 0 0 0-.665 3.319 2.608 2.608 0 0 0 2.61 2.62 2.512 2.512 0 0 0 1.81-.695 2.534 2.534 0 0 0 .78-1.845v-.08a3.503 3.503 0 0 1 3.5-3.5 3.503 3.503 0 0 1 3.5 3.5c0 .692.275 1.356.764 1.846a2.614 2.614 0 0 0 3.691 0 2.61 2.61 0 0 0 .765-1.846 8.68 8.68 0 0 0-8.7-8.66h-.03Z" fill="#FFF04D"/><path d="M180.401 147.44a8.666 8.666 0 0 0-8.025 5.341 8.655 8.655 0 0 0-.665 3.319 2.623 2.623 0 0 0 2.62 2.62c.332.008.663-.05.973-.169a2.545 2.545 0 0 0 1.402-1.337c.134-.304.207-.632.215-.964v-.15a3.502 3.502 0 0 1 5.975-2.475 3.502 3.502 0 0 1 1.025 2.475c0 .692.275 1.356.764 1.846a2.614 2.614 0 0 0 3.691 0 2.61 2.61 0 0 0 .765-1.846 8.671 8.671 0 0 0-8.7-8.66h-.04Z" fill="#fff" stroke="#FFF04D" stroke-width=".71" stroke-miterlimit="10"/></g><defs><pattern id="b" patternContentUnits="objectBoundingBox" width="1" height="1"><use xlink:href="#u" transform="scale(.0022)"/></pattern><pattern id="c" patternContentUnits="objectBoundingBox" width="1" height="1"><use xlink:href="#v" transform="scale(.00233)"/></pattern><pattern id="h" patternContentUnits="objectBoundingBox" width="1" height="1"><use xlink:href="#w" transform="scale(.00671 .00552)"/></pattern><pattern id="i" patternContentUnits="objectBoundingBox" width="1" height="1"><use xlink:href="#x" transform="scale(.00676 .00552)"/></pattern><pattern id="j" patternContentUnits="objectBoundingBox" width="1" height="1"><use xlink:href="#y" transform="scale(.00552 .00671)"/></pattern><pattern id="k" patternContentUnits="objectBoundingBox" width="1" height="1"><use xlink:href="#z" transform="scale(.00671 .0055)"/></pattern><pattern id="l" patternContentUnits="objectBoundingBox" width="1" height="1"><use xlink:href="#A" transform="scale(.00676 .00552)"/></pattern><pattern id="m" patternContentUnits="objectBoundingBox" width="1" height="1"><use xlink:href="#B" transform="scale(.00676 .00552)"/></pattern><pattern id="n" patternContentUnits="objectBoundingBox" width="1" height="1"><use xlink:href="#C" transform="scale(.00676 .00552)"/></pattern><pattern id="o" patternContentUnits="objectBoundingBox" width="1" height="1"><use xlink:href="#D" transform="scale(.00552 .00671)"/></pattern><pattern id="p" patternContentUnits="objectBoundingBox" width="1" height="1"><use xlink:href="#E" transform="scale(.00552 .00676)"/></pattern><pattern id="q" patternContentUnits="objectBoundingBox" width="1" height="1"><use xlink:href="#F" transform="scale(.00676 .00552)"/></pattern><pattern id="r" patternContentUnits="objectBoundingBox" width="1" height="1"><use xlink:href="#G" transform="scale(.00671 .00552)"/></pattern><pattern id="s" patternContentUnits="objectBoundingBox" width="1" height="1"><use xlink:href="#H" transform="scale(.00552 .00671)"/></pattern><pattern id="t" patternContentUnits="objectBoundingBox" width="1" height="1"><use xlink:href="#I" transform="scale(.00676 .0055)"/></pattern><linearGradient id="d" x1="232.432" y1="62.99" x2="232.432" y2="136.591" gradientUnits="userSpaceOnUse"><stop stop-color="#E9DEFA"/><stop offset="1" stop-color="#FBFCDB"/></linearGradient><linearGradient id="e" x1="-22475400" y1="154774000" x2="-22475400" y2="154791000" gradientUnits="userSpaceOnUse"><stop stop-color="#E9DEFA"/><stop offset="1" stop-color="#FBFCDB"/></linearGradient><linearGradient id="f" x1="-22554500" y1="58548600" x2="-22554500" y2="58542800" gradientUnits="userSpaceOnUse"><stop stop-color="#E9DEFA"/><stop offset="1" stop-color="#FBFCDB"/></linearGradient><linearGradient id="g" x1="287.401" y1="220.772" x2="287.401" y2="128.848" gradientUnits="userSpaceOnUse"><stop stop-color="#E9DEFA"/><stop offset=".09" stop-color="#EADFF8"/><stop offset="1" stop-color="#FBFCDB"/></linearGradient><clipPath id="a"><path fill="#fff" d="M0 0h520v190H0z"/></clipPath></defs></svg>