<svg width="412" height="191" fill="none" xmlns="http://www.w3.org/2000/svg"><g clip-path="url(#a)"><g filter="url(#b)"><path d="M257.639 135.73h-12.2a19.825 19.825 0 0 0 19.815 19.375 19.82 19.82 0 0 0 19.815-19.375" fill="#fff"/><path d="M257.639 135.73h-12.2a19.825 19.825 0 0 0 19.815 19.375 19.82 19.82 0 0 0 19.815-19.375" stroke="#ECE5F5"/></g><path d="M182.491 168.27a.105.105 0 0 1-.07 0l.14-.05s-.04.04-.07.05Zm62.69-100.14a7.86 7.86 0 0 0-6.91 4.12c0 .06-.06.13-.1.19-.04.06-.16.32-.23.49a7.873 7.873 0 0 0-.025 6.071 7.872 7.872 0 0 0 4.255 4.26c.954.395 1.977.599 3.01.599v12h-12a7.87 7.87 0 1 1-15.74 0h-12.05v-12a7.868 7.868 0 0 0 6.91-4.12l.09-.19c.08-.16.17-.32.24-.49a7.864 7.864 0 0 0-1.682-8.618 7.86 7.86 0 0 0-5.558-2.302V56.06h12.07a7.88 7.88 0 0 1 15.75 0h12l-.03 12.07Zm27.21-51.83a7.87 7.87 0 1 1-15.74 0h-63.21a7.86 7.86 0 0 0-10.92-7.24c-.168.07-.332.15-.49.24l-.19.09a7.836 7.836 0 0 0-4.11 6.91h-12v12a7.87 7.87 0 0 1 0 15.74v12h-12.12a7.85 7.85 0 0 0-4.11-6.91 1.213 1.213 0 0 0-.2-.1l-.48-.23a7.86 7.86 0 0 0-3.06-.62 7.847 7.847 0 0 0-7.261 4.844 7.834 7.834 0 0 0-.599 3.006h-12v12.05a7.883 7.883 0 0 1 8.161 7.875 7.893 7.893 0 0 1-2.408 5.67 7.887 7.887 0 0 1-5.753 2.205v24a7.843 7.843 0 0 0-5.561 2.299 7.841 7.841 0 0 0-2.299 5.561c0 1.051.211 2.092.62 3.06.07.17.15.33.23.49.029.065.063.129.1.19a7.847 7.847 0 0 0 6.91 4.12v12h12a7.882 7.882 0 0 1 7.875-7.599 7.883 7.883 0 0 1 7.875 7.599h12l.05.14h-.12v12a7.834 7.834 0 0 0-6.91 4.11c0 .06-.06.13-.1.2-.04.07-.16.32-.23.48a7.864 7.864 0 0 0 1.682 8.618 7.86 7.86 0 0 0 5.558 2.302v12l.09.06h51.79a7.873 7.873 0 0 0 4.12 6.91l.19.09c.16.08.32.17.49.24a7.874 7.874 0 0 0 6.071.025 7.868 7.868 0 0 0 4.859-7.265h12v-11.98a7.882 7.882 0 0 1-7.599-7.875 7.883 7.883 0 0 1 7.599-7.875l.08-12.14 12 .14a7.862 7.862 0 0 0 4.852 7.262 7.862 7.862 0 0 0 3.008.598 16.572 16.572 0 0 0 3.74-1 7.87 7.87 0 0 0 4.11-6.91h12v-12c-1.942-.199-3.969-.642-5.277-2.092-1.308-1.45-2.67-3.804-2.668-5.757.003-1.952 1.169-4.029 2.481-5.476 1.311-1.446 3.541-2.161 5.484-2.355V83.88a7.84 7.84 0 0 0 6.91-4.12c.037-.061.071-.125.1-.19.08-.16.16-.32.23-.49a7.873 7.873 0 0 0 .025-6.07 7.871 7.871 0 0 0-4.255-4.26 7.859 7.859 0 0 0-3.01-.6v-24a7.882 7.882 0 0 1-5.39-13.347 7.882 7.882 0 0 1 5.39-2.403v-12l-12.61-.1Z" fill="#fff" stroke="#D1BFE6" stroke-width=".75" stroke-miterlimit="10"/><g filter="url(#c)"><path d="M245.2 68.13a7.87 7.87 0 0 0-6.91 4.12l-.09.19a4.46 4.46 0 0 0-.24.49 7.873 7.873 0 0 0-.025 6.071 7.872 7.872 0 0 0 4.255 4.26c.954.395 1.977.599 3.01.599v12h-12a7.882 7.882 0 0 1-7.875 7.599 7.883 7.883 0 0 1-7.875-7.6H205.41v-12a7.859 7.859 0 0 0 6.91-4.12c0-.06.06-.13.1-.19.04-.06.16-.32.23-.49a7.864 7.864 0 0 0-1.682-8.617 7.86 7.86 0 0 0-5.558-2.302V56.06h12.07a7.88 7.88 0 0 1 15.75 0h12l-.03 12.07Zm27.21-51.83a7.87 7.87 0 1 1-15.74 0h-63.21a7.86 7.86 0 0 0-10.92-7.24l-.48.24-.2.09a7.884 7.884 0 0 0-4.11 6.91h-12v12a7.87 7.87 0 0 1 0 15.74v12h-12.12a7.808 7.808 0 0 0-4.11-6.91l-.19-.1-.49-.23a7.86 7.86 0 0 0-3.06-.62 7.85 7.85 0 0 0-7.92 7.92h-12v12.05a7.882 7.882 0 0 1 7.599 7.875 7.881 7.881 0 0 1-7.599 7.875v24a7.843 7.843 0 0 0-5.561 2.299A7.841 7.841 0 0 0 118 115.76c0 1.051.211 2.092.62 3.06.07.17.15.33.23.49.08.16.06.13.1.19a7.866 7.866 0 0 0 6.91 4.12v12h12a7.882 7.882 0 0 1 7.875-7.599 7.883 7.883 0 0 1 7.875 7.599h12.05l.06.14h-.12v12a7.849 7.849 0 0 0-6.91 4.11l-.09.2c-.087.16-.167.32-.24.48a7.864 7.864 0 0 0 1.682 8.618 7.86 7.86 0 0 0 5.558 2.302v12h.26l-.16.06h51.75a7.835 7.835 0 0 0 4.11 6.91l.19.09.49.24a7.864 7.864 0 0 0 8.618-1.682 7.866 7.866 0 0 0 2.302-5.558h12v-12.05a7.882 7.882 0 0 1-7.599-7.875 7.883 7.883 0 0 1 7.599-7.875l.08-12.14 12 .14a7.862 7.862 0 0 0 4.852 7.262 7.862 7.862 0 0 0 3.008.598 16.586 16.586 0 0 0 3.74-1 7.832 7.832 0 0 0 4.11-6.91h12v-12a7.882 7.882 0 0 1-7.599-7.875 7.883 7.883 0 0 1 7.599-7.875V83.88a7.868 7.868 0 0 0 6.92-4.12l.09-.19c.08-.16.17-.32.24-.49.422-.973.646-2.02.66-3.08a7.872 7.872 0 0 0-2.306-5.561 7.856 7.856 0 0 0-5.564-2.3v-24a7.882 7.882 0 0 1-5.39-13.346 7.882 7.882 0 0 1 5.39-2.403v-12l-12.58-.09Z" fill="#fff"/><path d="M245.2 68.13a7.87 7.87 0 0 0-6.91 4.12l-.09.19a4.46 4.46 0 0 0-.24.49 7.873 7.873 0 0 0-.025 6.071 7.872 7.872 0 0 0 4.255 4.26c.954.395 1.977.599 3.01.599v12h-12a7.882 7.882 0 0 1-7.875 7.599 7.883 7.883 0 0 1-7.875-7.6H205.41v-12a7.859 7.859 0 0 0 6.91-4.12c0-.06.06-.13.1-.19.04-.06.16-.32.23-.49a7.864 7.864 0 0 0-1.682-8.617 7.86 7.86 0 0 0-5.558-2.302V56.06h12.07a7.88 7.88 0 0 1 15.75 0h12l-.03 12.07Zm27.21-51.83a7.87 7.87 0 1 1-15.74 0h-63.21a7.86 7.86 0 0 0-10.92-7.24l-.48.24-.2.09a7.884 7.884 0 0 0-4.11 6.91h-12v12a7.87 7.87 0 0 1 0 15.74v12h-12.12a7.808 7.808 0 0 0-4.11-6.91l-.19-.1-.49-.23a7.86 7.86 0 0 0-3.06-.62 7.85 7.85 0 0 0-7.92 7.92h-12v12.05a7.882 7.882 0 0 1 7.599 7.875 7.881 7.881 0 0 1-7.599 7.875v24a7.843 7.843 0 0 0-5.561 2.299A7.841 7.841 0 0 0 118 115.76c0 1.051.211 2.092.62 3.06.07.17.15.33.23.49.08.16.06.13.1.19a7.866 7.866 0 0 0 6.91 4.12v12h12a7.882 7.882 0 0 1 7.875-7.599 7.883 7.883 0 0 1 7.875 7.599h12.05l.06.14h-.12v12a7.849 7.849 0 0 0-6.91 4.11l-.09.2c-.087.16-.167.32-.24.48a7.864 7.864 0 0 0 1.682 8.618 7.86 7.86 0 0 0 5.558 2.302v12h.26l-.16.06h51.75a7.835 7.835 0 0 0 4.11 6.91l.19.09.49.24a7.864 7.864 0 0 0 8.618-1.682 7.866 7.866 0 0 0 2.302-5.558h12v-12.05a7.882 7.882 0 0 1-7.599-7.875 7.883 7.883 0 0 1 7.599-7.875l.08-12.14 12 .14a7.862 7.862 0 0 0 4.852 7.262 7.862 7.862 0 0 0 3.008.598 16.586 16.586 0 0 0 3.74-1 7.832 7.832 0 0 0 4.11-6.91h12v-12a7.882 7.882 0 0 1-7.599-7.875 7.883 7.883 0 0 1 7.599-7.875V83.88a7.868 7.868 0 0 0 6.92-4.12l.09-.19c.08-.16.17-.32.24-.49.422-.973.646-2.02.66-3.08a7.872 7.872 0 0 0-2.306-5.561 7.856 7.856 0 0 0-5.564-2.3v-24a7.882 7.882 0 0 1-5.39-13.346 7.882 7.882 0 0 1 5.39-2.403v-12l-12.58-.09Z" stroke="#EFE9F7"/></g><path d="M244.86 67.99a7.84 7.84 0 0 0-6.91 4.12 1.711 1.711 0 0 0-.1.19c-.08.16-.16.32-.23.49a7.874 7.874 0 0 0-.025 6.071 7.872 7.872 0 0 0 4.255 4.26c.954.396 1.977.6 3.01.6v12h12.05a7.87 7.87 0 1 1 15.74 0h12v-12a7.87 7.87 0 0 0 6.91-4.12l.09-.19c.08-.16.17-.32.24-.49a7.864 7.864 0 0 0-1.682-8.618A7.86 7.86 0 0 0 284.65 68V56h-12.02a7.88 7.88 0 0 1-15.75 0h-12v12l-.02-.01Z" stroke="#EFE9F7"/><path d="M206 132.51V1.81l-55.1 95.63 55.1 35.07Z" fill="url(#d)"/><path d="M206.09 189.22v-45.3l-55.19-35.16 55.19 80.46Z" fill="url(#e)"/><path fill-rule="evenodd" clip-rule="evenodd" d="M237.16 55.89 206 1.81v54.02h11.18a7.86 7.86 0 0 1 2.32-5.552A7.859 7.859 0 0 1 225.07 48a7.829 7.829 0 0 1 3.06.63l.49.23.19.1a7.86 7.86 0 0 1 4.09 6.93h4.26Zm6.951 12.064a7.883 7.883 0 0 0-6.847 7.777 7.879 7.879 0 0 0 7.566 7.909l-.06 12.05-12-.05a7.88 7.88 0 0 1-7.89 7.84 8.033 8.033 0 0 1-3.05-.63l-.49-.24-.19-.1a7.854 7.854 0 0 1-4.09-6.92l-.06.03h-11v36.89l55.1-35.07-16.989-29.486ZM206 83.566a7.871 7.871 0 0 0 0-15.633v15.633Zm0 60.354v45.3l55.1-80.46-55.1 35.16Z" fill="url(#f)" style="mix-blend-mode:darken" opacity=".6"/><path d="m161.141 153.16.06-.13M125.621 108.14v-12.2a19.821 19.821 0 0 0 0 39.63" stroke="#ECE5F5" stroke-width=".71" stroke-miterlimit="10"/><path d="M217.37 175.53a7.885 7.885 0 0 0 4.11 6.91l.2.09.48.24a7.856 7.856 0 0 0 8.618-1.683 7.845 7.845 0 0 0 2.302-5.557h12v-12.05a7.887 7.887 0 0 1-5.752-2.205 7.865 7.865 0 0 1-2.408-5.67 7.88 7.88 0 0 1 8.16-7.875v-12h-12a7.855 7.855 0 0 0-4.08-6.93 1.132 1.132 0 0 0-.2-.1l-.48-.23a7.859 7.859 0 0 0-10.92 7.24h-12v12a7.869 7.869 0 0 1 5.565 13.435 7.873 7.873 0 0 1-5.565 2.305v12l11.97.08Z" stroke="#EFE9F7" stroke-width=".71" stroke-miterlimit="10"/><path d="M245.171 107.87v-12h-12a7.88 7.88 0 0 1-15.75 0h-12v12a7.856 7.856 0 0 0-7.87 7.86c0 1.051.211 2.091.62 3.06.07.17.16.33.24.49l.09.19a7.874 7.874 0 0 0 6.91 4.12v12h12a7.869 7.869 0 0 1 13.435-5.565 7.869 7.869 0 0 1 2.305 5.565h12.05v-12a7.858 7.858 0 0 0 7.86-7.86 7.86 7.86 0 0 0-.62-3.06 10.79 10.79 0 0 0-.33-.68 7.81 7.81 0 0 0-6.91-4.11l-.03-.01Z" stroke="#EFE9F7" stroke-width=".71" stroke-miterlimit="10"/><path d="M137.77 95.92a7.872 7.872 0 0 0 4.11 6.92l.2.09.48.23a7.86 7.86 0 0 0 3.06.62 7.847 7.847 0 0 0 7.264-4.85 7.866 7.866 0 0 0 .596-3.01h12v-12a7.869 7.869 0 1 1 0-15.74v-12h-12a7.884 7.884 0 0 0-4.11-6.92l-.2-.09-.49-.23a7.855 7.855 0 0 0-8.608 1.676 7.847 7.847 0 0 0-2.302 5.554h-12v12.05a7.878 7.878 0 0 1 8.16 7.875 7.875 7.875 0 0 1-5.06 7.358 7.88 7.88 0 0 1-3.1.517v12l12-.05Z" stroke="#ECE5F5" stroke-width=".71" stroke-miterlimit="10"/><path d="M165.491 68.15a7.868 7.868 0 0 0-6.92 4.12l-.09.19c-.08.16-.16.32-.23.49a7.873 7.873 0 0 0 1.678 8.624 7.856 7.856 0 0 0 5.562 2.306v12h12a7.87 7.87 0 1 1 15.74 0h12v-12a7.872 7.872 0 0 0 6.92-4.12l.09-.19a7.888 7.888 0 0 0 .86-3.55 7.871 7.871 0 0 0-2.306-5.562 7.857 7.857 0 0 0-5.564-2.298v-12h-12a7.88 7.88 0 0 1-15.75 0h-12v12l.01-.01Z" stroke="#EFE9F7" stroke-width=".71" stroke-miterlimit="10"/><path d="M193.351 135.73h12v-12a7.883 7.883 0 0 1-5.39-13.347 7.878 7.878 0 0 1 5.39-2.403v-12h-12a7.86 7.86 0 0 0-10.92-7.24c-.168.07-.332.15-.49.24l-.2.09a7.868 7.868 0 0 0-4.11 6.91h-12v12a7.878 7.878 0 0 1 7.599 7.875 7.883 7.883 0 0 1-7.599 7.875v12h12a7.859 7.859 0 0 0 7.86 7.86 7.864 7.864 0 0 0 3.06-.62l.48-.23c.07 0 .14-.06.2-.1a7.87 7.87 0 0 0 4.11-6.91h.01Z" stroke="#EFE9F7" stroke-width=".71" stroke-miterlimit="10"/><path d="M165.57 107.87v-12h-12a7.88 7.88 0 0 1-15.75 0h-12.05v12a7.846 7.846 0 0 0-7.86 7.86c0 1.051.211 2.091.62 3.06.07.17.16.33.24.49l.09.19a7.877 7.877 0 0 0 6.91 4.12v12h12a7.869 7.869 0 0 1 13.435-5.565 7.869 7.869 0 0 1 2.305 5.565h12v-12a7.859 7.859 0 0 0 7.86-7.86 7.86 7.86 0 0 0-.62-3.06 10.79 10.79 0 0 0-.33-.68 7.807 7.807 0 0 0-6.91-4.11l.06-.01Z" stroke="#EFE9F7" stroke-width=".71" stroke-miterlimit="10"/><g filter="url(#g)"><path d="M193.351 56.16h12v-12a7.882 7.882 0 0 1-5.39-13.347 7.882 7.882 0 0 1 5.39-2.403v-12h-12a7.848 7.848 0 0 0-4.851-7.265 7.849 7.849 0 0 0-3.009-.595 7.86 7.86 0 0 0-3.06.62c-.168.07-.332.15-.49.24l-.19.09a7.87 7.87 0 0 0-4.12 6.91h-12v12a7.874 7.874 0 0 1 7.271 4.858 7.88 7.88 0 0 1 0 6.023 7.874 7.874 0 0 1-7.271 4.859v12h12a7.858 7.858 0 0 0 7.83 7.85 7.86 7.86 0 0 0 3.06-.62l.48-.23.2-.1a7.857 7.857 0 0 0 4.11-6.91l.04.02Z" fill="#fff"/><path d="M193.351 56.16h12v-12a7.882 7.882 0 0 1-5.39-13.347 7.882 7.882 0 0 1 5.39-2.403v-12h-12a7.848 7.848 0 0 0-4.851-7.265 7.849 7.849 0 0 0-3.009-.595 7.86 7.86 0 0 0-3.06.62c-.168.07-.332.15-.49.24l-.19.09a7.87 7.87 0 0 0-4.12 6.91h-12v12a7.874 7.874 0 0 1 7.271 4.858 7.88 7.88 0 0 1 0 6.023 7.874 7.874 0 0 1-7.271 4.859v12h12a7.858 7.858 0 0 0 7.83 7.85 7.86 7.86 0 0 0 3.06-.62l.48-.23.2-.1a7.857 7.857 0 0 0 4.11-6.91l.04.02Z" stroke="#EFE9F7"/></g><g filter="url(#h)"><path d="M74.251 95.93a7.83 7.83 0 0 0-4.11-6.93l-.2-.1-.48-.23a7.86 7.86 0 0 0-10.92 7.24h-12v12a7.86 7.86 0 0 1 5.565 2.305 7.871 7.871 0 0 1-5.565 13.435v12h12a7.878 7.878 0 0 0 4.11 6.91l.2.09c.16.08.32.17.49.24a7.773 7.773 0 0 0 3 .62 7.86 7.86 0 0 0 7.86-7.86h12v-12a7.88 7.88 0 0 1 0-15.75V96l-11.95-.07Z" fill="#fff"/><path d="M74.251 95.93a7.83 7.83 0 0 0-4.11-6.93l-.2-.1-.48-.23a7.86 7.86 0 0 0-10.92 7.24h-12v12a7.86 7.86 0 0 1 5.565 2.305 7.871 7.871 0 0 1-5.565 13.435v12h12a7.878 7.878 0 0 0 4.11 6.91l.2.09c.16.08.32.17.49.24a7.773 7.773 0 0 0 3 .62 7.86 7.86 0 0 0 7.86-7.86h12v-12a7.88 7.88 0 0 1 0-15.75V96l-11.95-.07Z" stroke="#EFE9F7"/></g><g filter="url(#i)"><path d="M34.421 16.34a7.87 7.87 0 0 0-4.12-6.91l-.19-.09c-.16-.08-.32-.17-.49-.24a7.86 7.86 0 0 0-10.92 7.24h-12v12.05a7.88 7.88 0 0 1 0 15.75v12h12a7.84 7.84 0 0 0 4.12 6.91l.19.1.49.23a7.86 7.86 0 0 0 10.92-7.24h12v-12a7.87 7.87 0 0 1 0-15.74v-12l-12-.06Z" fill="#fff"/><path d="M34.421 16.34a7.87 7.87 0 0 0-4.12-6.91l-.19-.09c-.16-.08-.32-.17-.49-.24a7.86 7.86 0 0 0-10.92 7.24h-12v12.05a7.88 7.88 0 0 1 0 15.75v12h12a7.84 7.84 0 0 0 4.12 6.91l.19.1.49.23a7.86 7.86 0 0 0 10.92-7.24h12v-12a7.87 7.87 0 0 1 0-15.74v-12l-12-.06Z" stroke="#EFE9F7"/></g><g filter="url(#j)"><path d="M312.519 16.509a7.876 7.876 0 0 0-4.11-6.91l-.2-.1-.48-.23a7.863 7.863 0 0 0-8.618 1.682 7.86 7.86 0 0 0-2.302 5.558h-12v12a7.878 7.878 0 0 1 8.16 7.875 7.875 7.875 0 0 1-5.06 7.358 7.88 7.88 0 0 1-3.1.517v12h12a7.868 7.868 0 0 0 4.11 6.91l.2.09c.158.09.321.17.49.24a7.767 7.767 0 0 0 3 .62 7.854 7.854 0 0 0 5.557-2.302 7.859 7.859 0 0 0 2.303-5.558h12v-12a7.88 7.88 0 0 1 0-15.75v-12h-11.95Z" fill="#fff"/><path d="M312.519 16.509a7.876 7.876 0 0 0-4.11-6.91l-.2-.1-.48-.23a7.863 7.863 0 0 0-8.618 1.682 7.86 7.86 0 0 0-2.302 5.558h-12v12a7.878 7.878 0 0 1 8.16 7.875 7.875 7.875 0 0 1-5.06 7.358 7.88 7.88 0 0 1-3.1.517v12h12a7.868 7.868 0 0 0 4.11 6.91l.2.09c.158.09.321.17.49.24a7.767 7.767 0 0 0 3 .62 7.854 7.854 0 0 0 5.557-2.302 7.859 7.859 0 0 0 2.303-5.558h12v-12a7.88 7.88 0 0 1 0-15.75v-12h-11.95Z" stroke="#EFE9F7"/></g><path d="M245 16.508v12a7.883 7.883 0 0 1 8.161 7.875c0 1.059-.627 3.08-.627 3.08s-1.02 1.856-1.781 2.59A7.887 7.887 0 0 1 245 44.259v12" stroke="#EFE9F7"/><g filter="url(#k)"><path d="M364.34 84.19a7.862 7.862 0 0 0 6.91-4.12l.09-.19a4.28 4.28 0 0 0 .24-.49 7.86 7.86 0 0 0-7.24-10.92v-12h-12a7.876 7.876 0 0 1-7.875 7.6 7.882 7.882 0 0 1-7.875-7.6h-12v12a7.852 7.852 0 0 0-6.91 4.11c0 .06-.06.13-.1.2-.04.07-.16.32-.23.48a7.864 7.864 0 0 0 1.683 8.618 7.86 7.86 0 0 0 5.557 2.302v12h12.05a7.882 7.882 0 0 1 13.347-5.39 7.876 7.876 0 0 1 2.403 5.39h12v-12l-.05.01Z" fill="#fff"/><path d="M364.34 84.19a7.862 7.862 0 0 0 6.91-4.12l.09-.19a4.28 4.28 0 0 0 .24-.49 7.86 7.86 0 0 0-7.24-10.92v-12h-12a7.876 7.876 0 0 1-7.875 7.6 7.882 7.882 0 0 1-7.875-7.6h-12v12a7.852 7.852 0 0 0-6.91 4.11c0 .06-.06.13-.1.2-.04.07-.16.32-.23.48a7.864 7.864 0 0 0 1.683 8.618 7.86 7.86 0 0 0 5.557 2.302v12h12.05a7.882 7.882 0 0 1 13.347-5.39 7.876 7.876 0 0 1 2.403 5.39h12v-12l-.05.01Z" stroke="#EFE9F7"/></g><g filter="url(#l)"><path d="M404.381 123.62a7.874 7.874 0 0 0 6.91-4.12l.09-.19c.08-.16.17-.32.24-.49a7.868 7.868 0 0 0 .024-6.071 7.854 7.854 0 0 0-7.264-4.859v-12h-12.05a7.883 7.883 0 0 1-7.875 7.599 7.877 7.877 0 0 1-7.875-7.6h-12v12.001a7.83 7.83 0 0 0-6.91 4.12 1.635 1.635 0 0 0-.1.19 7.842 7.842 0 0 0-.85 3.55 7.863 7.863 0 0 0 7.86 7.86v12h12.05a7.869 7.869 0 0 1 13.435-5.565 7.869 7.869 0 0 1 2.305 5.565h12v-12l.01.01Z" fill="#fff"/><path d="M404.381 123.62a7.874 7.874 0 0 0 6.91-4.12l.09-.19c.08-.16.17-.32.24-.49a7.868 7.868 0 0 0 .024-6.071 7.854 7.854 0 0 0-7.264-4.859v-12h-12.05a7.883 7.883 0 0 1-7.875 7.599 7.877 7.877 0 0 1-7.875-7.6h-12v12.001a7.83 7.83 0 0 0-6.91 4.12 1.635 1.635 0 0 0-.1.19 7.842 7.842 0 0 0-.85 3.55 7.863 7.863 0 0 0 7.86 7.86v12h12.05a7.869 7.869 0 0 1 13.435-5.565 7.869 7.869 0 0 1 2.305 5.565h12v-12l.01.01Z" stroke="#EFE9F7"/></g><g filter="url(#m)"><path d="M336.499 175.24a7.852 7.852 0 0 0 4.09 6.92l.19.1.49.24a7.995 7.995 0 0 0 3.05.63 7.881 7.881 0 0 0 7.89-7.84l12 .05.06-12.05a7.878 7.878 0 0 1-5.331-13.372 7.88 7.88 0 0 1 5.401-2.378v-12h-12a7.859 7.859 0 0 0-4.09-6.93l-.19-.1-.49-.23a7.83 7.83 0 0 0-3.06-.63 7.849 7.849 0 0 0-7.89 7.83h-12l-.06 12.05a7.866 7.866 0 0 1 7.835 7.905 7.872 7.872 0 0 1-2.329 5.555 7.874 7.874 0 0 1-5.576 2.28l-.05 12h12l.06-.03Z" fill="#fff"/><path d="M336.499 175.24a7.852 7.852 0 0 0 4.09 6.92l.19.1.49.24a7.995 7.995 0 0 0 3.05.63 7.881 7.881 0 0 0 7.89-7.84l12 .05.06-12.05a7.878 7.878 0 0 1-5.331-13.372 7.88 7.88 0 0 1 5.401-2.378v-12h-12a7.859 7.859 0 0 0-4.09-6.93l-.19-.1-.49-.23a7.83 7.83 0 0 0-3.06-.63 7.849 7.849 0 0 0-7.89 7.83h-12l-.06 12.05a7.866 7.866 0 0 1 7.835 7.905 7.872 7.872 0 0 1-2.329 5.555 7.874 7.874 0 0 1-5.576 2.28l-.05 12h12l.06-.03Z" stroke="#EFE9F7"/></g><g filter="url(#n)"><path d="M18.621 175.24a7.849 7.849 0 0 0 4.09 6.92l.2.1.48.24c.97.408 2.009.622 3.06.63a7.88 7.88 0 0 0 7.89-7.84l12 .05.05-12.05a7.88 7.88 0 0 1 .08-15.75v-12h-12a7.859 7.859 0 0 0-4.09-6.93l-.2-.1-.48-.23a7.87 7.87 0 0 0-10.34 4.194 7.86 7.86 0 0 0-.61 3.006h-12l-.06 12.05a7.867 7.867 0 0 1 7.835 7.905 7.872 7.872 0 0 1-7.905 7.835v12h12v-.03Z" fill="#fff"/><path d="M18.621 175.24a7.849 7.849 0 0 0 4.09 6.92l.2.1.48.24c.97.408 2.009.622 3.06.63a7.88 7.88 0 0 0 7.89-7.84l12 .05.05-12.05a7.88 7.88 0 0 1 .08-15.75v-12h-12a7.859 7.859 0 0 0-4.09-6.93l-.2-.1-.48-.23a7.87 7.87 0 0 0-10.34 4.194 7.86 7.86 0 0 0-.61 3.006h-12l-.06 12.05a7.867 7.867 0 0 1 7.835 7.905 7.872 7.872 0 0 1-7.905 7.835v12h12v-.03Z" stroke="#EFE9F7"/></g><g filter="url(#o)"><path d="M86.171 68.4a7.85 7.85 0 0 0-6.92 4.09c-.037.061-.07.125-.1.19-.08.16-.17.32-.24.49a8 8 0 0 0-.63 3 7.87 7.87 0 0 0 7.84 7.89l-.05 12 12.05.06a7.879 7.879 0 0 1 15.75.07h12v-12a7.858 7.858 0 0 0 6.93-4.09l.2-.1c.09-.17.17-.32.24-.49a7.851 7.851 0 0 0 .63-3.06 7.852 7.852 0 0 0-7.87-7.91v-12l-12-.03a7.867 7.867 0 0 1-7.905 7.835 7.868 7.868 0 0 1-7.835-7.905h-12v12l-.09-.04Z" fill="#fff"/><path d="M86.171 68.4a7.85 7.85 0 0 0-6.92 4.09c-.037.061-.07.125-.1.19-.08.16-.17.32-.24.49a8 8 0 0 0-.63 3 7.87 7.87 0 0 0 7.84 7.89l-.05 12 12.05.06a7.879 7.879 0 0 1 15.75.07h12v-12a7.858 7.858 0 0 0 6.93-4.09l.2-.1c.09-.17.17-.32.24-.49a7.851 7.851 0 0 0 .63-3.06 7.852 7.852 0 0 0-7.87-7.91v-12l-12-.03a7.867 7.867 0 0 1-7.905 7.835 7.868 7.868 0 0 1-7.835-7.905h-12v12l-.09-.04Z" stroke="#EFE9F7"/></g><g filter="url(#p)"><path d="M376.609 56.1a7.86 7.86 0 0 0 4.11 6.9l.2.09c.16.087.32.167.48.24a7.864 7.864 0 0 0 8.618-1.682 7.86 7.86 0 0 0 2.302-5.558h12V44.05a7.877 7.877 0 0 1-7.599-7.875 7.878 7.878 0 0 1 7.599-7.875v-12h-12a7.836 7.836 0 0 0-4.12-6.91l-.19-.1-.48-.29a7.856 7.856 0 0 0-3.06-.62 7.849 7.849 0 0 0-7.86 7.86h-12v12a7.869 7.869 0 0 1 5.565 13.435 7.87 7.87 0 0 1-5.565 2.305v12l12 .12Z" fill="#fff"/><path d="M376.609 56.1a7.86 7.86 0 0 0 4.11 6.9l.2.09c.16.087.32.167.48.24a7.864 7.864 0 0 0 8.618-1.682 7.86 7.86 0 0 0 2.302-5.558h12V44.05a7.877 7.877 0 0 1-7.599-7.875 7.878 7.878 0 0 1 7.599-7.875v-12h-12a7.836 7.836 0 0 0-4.12-6.91l-.19-.1-.48-.29a7.856 7.856 0 0 0-3.06-.62 7.849 7.849 0 0 0-7.86 7.86h-12v12a7.869 7.869 0 0 1 5.565 13.435 7.87 7.87 0 0 1-5.565 2.305v12l12 .12Z" stroke="#EFE9F7"/></g><path d="M265.319 48.26a7.87 7.87 0 1 0 0 15.74 7.87 7.87 0 0 0 0-15.74Z" fill="#fff" stroke="#EFE9F7"/><path d="M217 16.536a7.87 7.87 0 0 0 15.438 0" stroke="#EFE9F7"/><path d="M145.88 127.85a7.86 7.86 0 0 0-5.565 2.305 7.86 7.86 0 0 0-2.305 5.565h15.75a7.868 7.868 0 0 0-7.88-7.87Z" fill="#fff" stroke="#E5E5E5" stroke-width=".71" stroke-miterlimit="10"/><path d="M213.39 28.38h-15.74v15.74h15.74V28.38Z" fill="#FEFEFE" stroke="#EFE9F7" stroke-width=".71" stroke-miterlimit="10"/><path d="M45.26 46.54a7.88 7.88 0 1 0 0 15.759 7.88 7.88 0 0 0 0-15.759Z" fill="#FFF04D"/><path d="M47.61 45a7.87 7.87 0 1 0 0 15.74 7.87 7.87 0 0 0 0-15.74Z" fill="#fff" stroke="#FFF04D" stroke-width=".71" stroke-miterlimit="10"/><path d="M172.191 131.77h-15.74v15.74h15.74v-15.74Z" fill="#D1BFE6"/><path d="M174.521 129.44h-15.74v15.74h15.74v-15.74Z" fill="#fff" stroke="#D1BFE6" stroke-width=".71" stroke-miterlimit="10"/><path d="M371.291 33.93h-15.74v15.74h15.74V33.93Z" fill="#D1BFE6"/><path d="M373.611 31.6h-15.74v15.74h15.74V31.6Z" fill="#fff" stroke="#D1BFE6" stroke-width=".71" stroke-miterlimit="10"/><path d="M320.869 82.93h-39.82a7.872 7.872 0 0 0-6.91 4.07l-.09.2a4.46 4.46 0 0 0-.24.49 7.861 7.861 0 0 0 7.24 10.92h12a7.872 7.872 0 0 0 15.117 3.137 7.87 7.87 0 0 0 .623-3.007v-.13h12.11a7.87 7.87 0 0 0 6.91-4.11c0-.06.06-.13.1-.2.04-.07.16-.32.23-.48.41-.968.62-2.01.62-3.06a7.854 7.854 0 0 0-4.879-7.243 7.86 7.86 0 0 0-3.011-.587Z" fill="#D1BFE6"/><path d="M323.2 80.61h-39.82a7.809 7.809 0 0 0-6.91 4.11 1.558 1.558 0 0 0-.1.19 7.828 7.828 0 0 0-.85 3.55 7.86 7.86 0 0 0 7.86 7.86h12a7.87 7.87 0 1 0 15.74.12v-.12h12.08a7.87 7.87 0 0 0 6.91-4.12l.09-.19c.08-.16.17-.32.24-.49.409-.968.62-2.009.62-3.06a7.86 7.86 0 0 0-7.86-7.85Z" fill="#fff" stroke="#D1BFE6" stroke-width=".71" stroke-miterlimit="10"/><path d="M127.001 55.47h39.82a7.88 7.88 0 0 0 6.92-4.11l.09-.2a7.777 7.777 0 0 0 .85-3.54 7.848 7.848 0 0 0-4.851-7.264 7.85 7.85 0 0 0-3.009-.596h-12a7.874 7.874 0 0 0-7.805-7.935 7.869 7.869 0 0 0-7.935 7.805v.13h-12.08a7.88 7.88 0 0 0-6.92 4.11l-.09.2-.24.48a7.841 7.841 0 0 0-.61 3.06 7.847 7.847 0 0 0 7.86 7.86Z" fill="#D1BFE6"/><path d="M129.09 52.46h39.82a7.831 7.831 0 0 0 6.91-4.11c0-.06.06-.13.1-.19a7.828 7.828 0 0 0 .85-3.55 7.86 7.86 0 0 0-7.86-7.86h-12a7.869 7.869 0 1 0-15.74-.12v.12h-12.08a7.861 7.861 0 0 0-6.91 4.12l-.09.19a4.45 4.45 0 0 0-.24.49 7.864 7.864 0 0 0-.62 3.06 7.86 7.86 0 0 0 7.86 7.85Z" fill="#fff" stroke="#D1BFE6" stroke-width=".71" stroke-miterlimit="10"/><path d="M252.35 156.9a7.858 7.858 0 0 0 2.301 5.571 7.865 7.865 0 0 0 5.569 2.309V149a7.88 7.88 0 0 0-5.576 2.316 7.879 7.879 0 0 0-2.294 5.584Z" fill="#FFF04D"/><path d="M254.67 154.58a7.875 7.875 0 0 0 4.865 7.274 7.877 7.877 0 0 0 3.015.596v-15.74a7.885 7.885 0 0 0-5.569 2.304 7.885 7.885 0 0 0-2.311 5.566Z" fill="#fff" stroke="#FFF04D" stroke-width=".71" stroke-miterlimit="10"/><path d="M76.34 145.55a7.882 7.882 0 0 0-7.87-7.88v15.75a7.888 7.888 0 0 0 7.87-7.87Z" fill="#D1BFE6"/><path d="M74 147.87a7.87 7.87 0 0 0-7.87-7.87v15.74a7.88 7.88 0 0 0 5.566-2.305A7.87 7.87 0 0 0 74 147.87Z" fill="#fff" stroke="#D1BFE6" stroke-width=".71" stroke-miterlimit="10"/><path d="M83 53.63a7.87 7.87 0 0 1 7.87-7.87V34a19.62 19.62 0 0 0-19.62 19.63 19.61 19.61 0 0 0 19.62 19.62V61.5A7.88 7.88 0 0 1 83 53.63Z" fill="#FFF04D"/><path d="M85.32 51.3a7.87 7.87 0 0 1 7.87-7.87V31.68a19.62 19.62 0 0 0-13.88 33.5 19.63 19.63 0 0 0 13.88 5.75V59.17a7.87 7.87 0 0 1-7.87-7.87Z" fill="#fff" stroke="#FFF04D" stroke-width=".71" stroke-miterlimit="10"/><g clip-path="url(#q)"><path d="M85.5 33.34h45.98H85.5Z" fill="#fff"/><path d="M85.5 33.34h45.98" stroke="#FFF04D" stroke-width=".5" stroke-miterlimit="10"/><path d="M79.5 37.31h51.98H79.5Z" fill="#fff"/><path d="M79.5 37.31h51.98" stroke="#FFF04D" stroke-width=".5" stroke-miterlimit="10"/><path d="M76.5 41.27h54.98H76.5Z" fill="#fff"/><path d="M76.5 41.27h54.98" stroke="#FFF04D" stroke-width=".5" stroke-miterlimit="10"/><path d="M74.5 45.23H88 74.5Z" fill="#fff"/><path d="M74.5 45.23H88" stroke="#FFF04D" stroke-width=".5" stroke-miterlimit="10"/><path d="M51.91 49.19H85.5 51.91Z" fill="#fff"/><path d="M51.91 49.19H85.5" stroke="#FFF04D" stroke-width=".5" stroke-miterlimit="10"/><path d="M51.91 53.15H85.5 51.91Z" fill="#fff"/><path d="M51.91 53.15H85.5" stroke="#FFF04D" stroke-width=".5" stroke-miterlimit="10"/><path d="M51.24 57.11H88 51.24Z" fill="#fff"/><path d="M51.24 57.11H88" stroke="#FFF04D" stroke-width=".5" stroke-miterlimit="10"/><path d="M51.24 61.07h77.27-77.27Z" fill="#fff"/><path d="M51.24 61.07h77.27" stroke="#FFF04D" stroke-width=".5" stroke-miterlimit="10"/><path d="M79 65h47.59H79Z" fill="#fff"/><path d="M79 65h47.59" stroke="#FFF04D" stroke-width=".5" stroke-miterlimit="10"/><path d="M84.5 69h46.98H84.5Z" fill="#fff"/><path d="M84.5 69h46.98" stroke="#FFF04D" stroke-width=".5" stroke-miterlimit="10"/><path d="M75 42.5v17-17Z" fill="#fff"/><path d="M75 42.5v17" stroke="#FFF04D" stroke-width=".5" stroke-miterlimit="10"/><path d="M79 37.5V65 37.5Z" fill="#fff"/><path d="M79 37.5V65" stroke="#FFF04D" stroke-width=".5" stroke-miterlimit="10"/><path d="M82.941 34.5v58.36V34.5Z" fill="#fff"/><path d="M82.941 34.5v58.36" stroke="#FFF04D" stroke-width=".5" stroke-miterlimit="10"/><path d="M86.9 32.5v14-14ZM86.9 56v14-14Z" fill="#fff"/><path d="M86.9 32.5v14m0 9.5v14" stroke="#FFF04D" stroke-width=".5" stroke-miterlimit="10"/><path d="M90.861 31.5v12-12ZM90.861 58.5v12-12Z" fill="#fff"/><path d="M90.861 31.5v12m0 15v12" stroke="#FFF04D" stroke-width=".5" stroke-miterlimit="10"/></g><path d="M376.36 142.46a19.792 19.792 0 0 0-18.82-19.79 5.766 5.766 0 0 0-.72 0h-.21a5.557 5.557 0 0 0-.73 0 19.817 19.817 0 0 0-18.73 19.79 19.823 19.823 0 0 0 18.73 19.79c.243.015.487.015.73 0h.21c.24.015.481.015.72 0a19.793 19.793 0 0 0 18.82-19.79Zm-19.07 7.92h-.47v.05h-.21v-.05h-.48a7.816 7.816 0 0 1-5.248-2.586 7.82 7.82 0 1 1 6.408 2.586Z" fill="#D1BFE6"/><path d="M378.68 140.13a19.776 19.776 0 0 0-18.81-19.79h-1.66a19.821 19.821 0 0 0-13.305 33.414 19.821 19.821 0 0 0 13.305 6.166c.239.031.48.048.72.05h.22c.241-.002.482-.019.72-.05a19.777 19.777 0 0 0 18.81-19.79Zm-19.06 7.92h-.47v.05h-.22v-.1h-.47a7.81 7.81 0 1 1 1.16 0v.05Z" fill="#fff" stroke="#D1BFE6" stroke-width=".71" stroke-miterlimit="10"/><path d="M136.47 110.08a19.791 19.791 0 0 0-18.82-19.79c-.23 0-.48 0-.72-.05h-.21c-.24 0-.49 0-.72.05a19.81 19.81 0 0 0 0 39.58c.24.015.48.015.72 0h.21c.24.015.48.015.72 0a19.788 19.788 0 0 0 18.82-19.79ZM117.4 118h-1.15a7.82 7.82 0 1 1 1.15 0Z" fill="#D1BFE6"/><path d="M138.801 108.34a19.79 19.79 0 0 0-18.8-19.79 5.843 5.843 0 0 0-.72 0h-.28a5.843 5.843 0 0 0-.72 0 19.818 19.818 0 0 0-18.73 19.79 19.819 19.819 0 0 0 18.73 19.79c.239.015.48.015.72 0h.22c.239.015.48.015.72 0a19.798 19.798 0 0 0 13.396-6.115 19.797 19.797 0 0 0 5.464-13.675Zm-19.07 7.92h-.47v.05h-.26v-.05h-.47a7.822 7.822 0 0 1-7.235-8.089 7.817 7.817 0 0 1 7.815-7.53 7.824 7.824 0 0 1 7.814 7.53 7.82 7.82 0 0 1-7.234 8.089h.04Z" fill="#fff"/><g clip-path="url(#r)"><path d="M111.5 89.92H126h-14.5Z" fill="#fff"/><path d="M111.5 89.92H126" stroke="#D1BFE6" stroke-width=".5" stroke-miterlimit="10"/><path d="M106 93.88h26.5H106Z" fill="#fff"/><path d="M106 93.88h26.5" stroke="#D1BFE6" stroke-width=".5" stroke-miterlimit="10"/><path d="M102 97.84h34-34Z" fill="#fff"/><path d="M102 97.84h34" stroke="#D1BFE6" stroke-width=".5" stroke-miterlimit="10"/><path d="M100.5 101.8h37-37Z" fill="#fff"/><path d="M100.5 101.8h37" stroke="#D1BFE6" stroke-width=".5" stroke-miterlimit="10"/><path d="M126.5 105.77h12-12ZM100 105.77h12-12Z" fill="#fff"/><path d="M126.5 105.77h12m-38.5 0h12" stroke="#D1BFE6" stroke-width=".5" stroke-miterlimit="10"/><path d="M126.5 109.73H139h-12.5ZM99 109.73h12.5H99Z" fill="#fff"/><path d="M126.5 109.73H139m-40 0h12.5" stroke="#D1BFE6" stroke-width=".5" stroke-miterlimit="10"/><path d="M125.499 113.69h12.5-12.5ZM100.311 113.69h13.188-13.188Z" fill="#fff"/><path d="M125.499 113.69h12.5m-37.688 0h13.188" stroke="#D1BFE6" stroke-width=".5" stroke-miterlimit="10"/><path d="M78.67 117.65h57.83-57.83Z" fill="#fff"/><path d="M78.67 117.65h57.83" stroke="#D1BFE6" stroke-width=".5" stroke-miterlimit="10"/><path d="M104.5 121.61H134h-29.5Z" fill="#fff"/><path d="M104.5 121.61H134" stroke="#D1BFE6" stroke-width=".5" stroke-miterlimit="10"/><path d="M109 125.57h20-20Z" fill="#fff"/><path d="M109 125.57h20" stroke="#D1BFE6" stroke-width=".5" stroke-miterlimit="10"/><path d="M101.781 98.5v19-19Z" fill="#fff"/><path d="M101.781 98.5v19" stroke="#D1BFE6" stroke-width=".5" stroke-miterlimit="10"/><path d="M105.74 94v29-29Z" fill="#fff"/><path d="M105.74 94v29" stroke="#D1BFE6" stroke-width=".5" stroke-miterlimit="10"/><path d="M109.711 91v34.5V91Z" fill="#fff"/><path d="M109.711 91v34.5" stroke="#D1BFE6" stroke-width=".5" stroke-miterlimit="10"/><path d="M113.67 89.5v13-13ZM113.67 114v13-13Z" fill="#fff"/><path d="M113.67 89.5v13m0 11.5v13" stroke="#D1BFE6" stroke-width=".5" stroke-miterlimit="10"/><path d="M117.631 88.5v12-12ZM117.631 116v12-12Z" fill="#fff"/><path d="M117.631 88.5v12m0 15.5v12" stroke="#D1BFE6" stroke-width=".5" stroke-miterlimit="10"/><path d="M121.59 88.5V101 88.5ZM121.59 116v12.5V116Z" fill="#fff"/><path d="M121.59 88.5V101m0 15v12.5" stroke="#D1BFE6" stroke-width=".5" stroke-miterlimit="10"/><path d="M125.551 90v37-37Z" fill="#fff"/><path d="M125.551 90v37" stroke="#D1BFE6" stroke-width=".5" stroke-miterlimit="10"/><path d="M129.51 92v33-33Z" fill="#fff"/><path d="M129.51 92v33" stroke="#D1BFE6" stroke-width=".5" stroke-miterlimit="10"/><path d="M133.471 94.5V122 94.5Z" fill="#fff"/><path d="M133.471 94.5V122" stroke="#D1BFE6" stroke-width=".5" stroke-miterlimit="10"/><path d="M137.441 101v14-14Z" fill="#fff"/><path d="M137.441 101v14" stroke="#D1BFE6" stroke-width=".5" stroke-miterlimit="10"/></g><g clip-path="url(#s)"><path d="M351.5 121.92h15.155H351.5Z" fill="#fff"/><path d="M351.5 121.92h15.155" stroke="#D1BFE6" stroke-width=".5" stroke-miterlimit="10"/><path d="M345.5 125.88h27-27Z" fill="#fff"/><path d="M345.5 125.88h27" stroke="#D1BFE6" stroke-width=".5" stroke-miterlimit="10"/><path d="M342.5 129.84H376h-33.5Z" fill="#fff"/><path d="M342.5 129.84H376" stroke="#D1BFE6" stroke-width=".5" stroke-miterlimit="10"/><path d="M339.5 133.8h38-38Z" fill="#fff"/><path d="M339.5 133.8h38" stroke="#D1BFE6" stroke-width=".5" stroke-miterlimit="10"/><path d="M366.5 137.77h12-12ZM339.5 137.77h12-12Z" fill="#fff"/><path d="M366.5 137.77h12m-39 0h12" stroke="#D1BFE6" stroke-width=".5" stroke-miterlimit="10"/><path d="M367 141.73h11.5H367ZM339.5 141.73h12-12Z" fill="#fff"/><path d="M367 141.73h11.5m-39 0h12" stroke="#D1BFE6" stroke-width=".5" stroke-miterlimit="10"/><path d="M364.5 145.69H378h-13.5ZM340.5 145.69h13-13Z" fill="#fff"/><path d="M364.5 145.69H378m-37.5 0h13" stroke="#D1BFE6" stroke-width=".5" stroke-miterlimit="10"/><path d="M317.67 149.65H376h-58.33Z" fill="#fff"/><path d="M317.67 149.65H376" stroke="#D1BFE6" stroke-width=".5" stroke-miterlimit="10"/><path d="M343.5 153.61h29-29Z" fill="#fff"/><path d="M343.5 153.61h29" stroke="#D1BFE6" stroke-width=".5" stroke-miterlimit="10"/><path d="M348 157.57h20-20Z" fill="#fff"/><path d="M348 157.57h20" stroke="#D1BFE6" stroke-width=".5" stroke-miterlimit="10"/><path d="M340.781 132.5V147v-14.5Z" fill="#fff"/><path d="M340.781 132.5V147" stroke="#D1BFE6" stroke-width=".5" stroke-miterlimit="10"/><path d="M344.74 127v27-27Z" fill="#fff"/><path d="M344.74 127v27" stroke="#D1BFE6" stroke-width=".5" stroke-miterlimit="10"/><path d="M348.711 123.5v34-34Z" fill="#fff"/><path d="M348.711 123.5v34" stroke="#D1BFE6" stroke-width=".5" stroke-miterlimit="10"/><path d="M352.67 121.5v14-14ZM352.67 146v13-13Z" fill="#fff"/><path d="M352.67 121.5v14m0 10.5v13" stroke="#D1BFE6" stroke-width=".5" stroke-miterlimit="10"/><path d="M356.631 120.5v12-12ZM356.631 148v12-12Z" fill="#fff"/><path d="M356.631 120.5v12m0 15.5v12" stroke="#D1BFE6" stroke-width=".5" stroke-miterlimit="10"/><path d="M360.59 120.5V133v-12.5ZM360.59 148v12.5V148Z" fill="#fff"/><path d="M360.59 120.5V133m0 15v12.5" stroke="#D1BFE6" stroke-width=".5" stroke-miterlimit="10"/><path d="M364.551 122v37-37Z" fill="#fff"/><path d="M364.551 122v37" stroke="#D1BFE6" stroke-width=".5" stroke-miterlimit="10"/><path d="M368.51 122.82v34.68-34.68Z" fill="#fff"/><path d="M368.51 122.82v34.68" stroke="#D1BFE6" stroke-width=".5" stroke-miterlimit="10"/><path d="M372.471 125.753V154.5v-28.747Z" fill="#fff"/><path d="M372.471 125.753V154.5" stroke="#D1BFE6" stroke-width=".5" stroke-miterlimit="10"/><path d="M376.441 131v18.5V131Z" fill="#fff"/><path d="M376.441 131v18.5" stroke="#D1BFE6" stroke-width=".5" stroke-miterlimit="10"/></g><path d="M138.801 108.34a19.79 19.79 0 0 0-18.8-19.79 5.843 5.843 0 0 0-.72 0h-.28a5.843 5.843 0 0 0-.72 0 19.818 19.818 0 0 0-18.73 19.79 19.819 19.819 0 0 0 18.73 19.79c.239.015.48.015.72 0h.22c.239.015.48.015.72 0a19.798 19.798 0 0 0 13.396-6.115 19.797 19.797 0 0 0 5.464-13.675Zm-19.07 7.92h-.47v.05h-.26v-.05h-.47a7.822 7.822 0 0 1-7.235-8.089 7.817 7.817 0 0 1 7.815-7.53 7.824 7.824 0 0 1 7.814 7.53 7.82 7.82 0 0 1-7.234 8.089h.04Z" stroke="#D1BFE6" stroke-miterlimit="10"/><path d="M414.851 97.16a19.801 19.801 0 0 0-19.75-19.84 6 6 0 0 0-6 6 5.777 5.777 0 0 0 5.64 5.91h.36a7.946 7.946 0 0 1 7.599 4.837 7.957 7.957 0 0 1 0 6.215 7.928 7.928 0 0 1-1.797 2.613 7.936 7.936 0 0 1-5.802 2.225 5.992 5.992 0 0 0-4.709 1.46 6.005 6.005 0 0 0-1.495 6.96 6.01 6.01 0 0 0 3.693 3.265 5.993 5.993 0 0 0 2.511.225 19.8 19.8 0 0 0 19.75-19.84v-.03Z" fill="#FFF04D"/><path d="M417.22 94.58a19.776 19.776 0 0 0-19.75-19.83 6.002 6.002 0 0 0-6 6 5.782 5.782 0 0 0 5.64 5.91h.35a7.938 7.938 0 0 1 5.614 13.554 7.94 7.94 0 0 1-5.614 2.326 5.997 5.997 0 0 0-6.204 3.49 6.002 6.002 0 0 0 6.204 8.42 19.783 19.783 0 0 0 18.262-12.252 19.776 19.776 0 0 0 1.488-7.578l.01-.04Z" fill="#fff" stroke="#FFF04D" stroke-width=".71" stroke-miterlimit="10"/><path d="M127.53 149.48a8.662 8.662 0 0 0-8.025 5.341 8.655 8.655 0 0 0-.665 3.319 2.608 2.608 0 0 0 2.61 2.62 2.512 2.512 0 0 0 1.81-.695 2.534 2.534 0 0 0 .78-1.845v-.08a3.503 3.503 0 0 1 3.5-3.5 3.503 3.503 0 0 1 3.5 3.5c0 .692.275 1.356.764 1.846a2.614 2.614 0 0 0 3.691 0 2.61 2.61 0 0 0 .765-1.846 8.68 8.68 0 0 0-8.7-8.66h-.03Z" fill="#FFF04D"/><path d="M126.401 148.44a8.666 8.666 0 0 0-8.025 5.341 8.655 8.655 0 0 0-.665 3.319 2.623 2.623 0 0 0 2.62 2.62c.332.008.663-.05.973-.169a2.545 2.545 0 0 0 1.402-1.337c.134-.304.207-.632.215-.964v-.15a3.502 3.502 0 0 1 5.975-2.475 3.502 3.502 0 0 1 1.025 2.475c0 .692.275 1.356.764 1.846a2.614 2.614 0 0 0 3.691 0 2.61 2.61 0 0 0 .765-1.846 8.671 8.671 0 0 0-8.7-8.66h-.04Z" fill="#fff" stroke="#FFF04D" stroke-width=".71" stroke-miterlimit="10"/><g clip-path="url(#t)"><path d="M277 83.77h52.5H277Z" fill="#fff"/><path d="M277 83.77h52.5" stroke="#D1BFE6" stroke-width=".5" stroke-miterlimit="10"/><path d="M261.68 87.69h79.58-79.58Z" fill="#fff"/><path d="M261.68 87.69h79.58" stroke="#D1BFE6" stroke-width=".5" stroke-miterlimit="10"/><path d="M261 91.65h69.5H261Z" fill="#fff"/><path d="M261 91.65h69.5" stroke="#D1BFE6" stroke-width=".5" stroke-miterlimit="10"/><path d="M261 95.62h65.5H261Z" fill="#fff"/><path d="M261 95.62h65.5" stroke="#D1BFE6" stroke-width=".5" stroke-miterlimit="10"/><path d="M296 99.58h14.5H296Z" fill="#fff"/><path d="M296 99.58h14.5" stroke="#D1BFE6" stroke-width=".5" stroke-miterlimit="10"/><path d="M300 103.54h6.5-6.5Z" fill="#fff"/><path d="M300 103.54h6.5" stroke="#D1BFE6" stroke-width=".5" stroke-miterlimit="10"/><path d="M276.869 84v10.68V84Z" fill="#fff"/><path d="M276.869 84v10.68" stroke="#D1BFE6" stroke-width=".5" stroke-miterlimit="10"/><path d="M280.83 81v15.67V81Z" fill="#fff"/><path d="M280.83 81v15.67" stroke="#D1BFE6" stroke-width=".5" stroke-miterlimit="10"/><path d="M284.789 80.5v16.17V80.5Z" fill="#fff"/><path d="M284.789 80.5v16.17" stroke="#D1BFE6" stroke-width=".5" stroke-miterlimit="10"/><path d="M288.75 80.5v16.17V80.5Z" fill="#fff"/><path d="M288.75 80.5v16.17" stroke="#D1BFE6" stroke-width=".5" stroke-miterlimit="10"/><path d="M292.711 80.5v15-15Z" fill="#fff"/><path d="M292.711 80.5v15" stroke="#D1BFE6" stroke-width=".5" stroke-miterlimit="10"/><path d="M296.67 80.5v22-22Z" fill="#fff"/><path d="M296.67 80.5v22" stroke="#D1BFE6" stroke-width=".5" stroke-miterlimit="10"/><path d="M300.641 80.5V104 80.5Z" fill="#fff"/><path d="M300.641 80.5V104" stroke="#D1BFE6" stroke-width=".5" stroke-miterlimit="10"/><path d="M304.6 80.5v23-23Z" fill="#fff"/><path d="M304.6 80.5v23" stroke="#D1BFE6" stroke-width=".5" stroke-miterlimit="10"/><path d="M308.561 80.5V102 80.5Z" fill="#fff"/><path d="M308.561 80.5V102" stroke="#D1BFE6" stroke-width=".5" stroke-miterlimit="10"/><path d="M312.52 80.5v15-15Z" fill="#fff"/><path d="M312.52 80.5v15" stroke="#D1BFE6" stroke-width=".5" stroke-miterlimit="10"/><path d="M316.48 80.5v15-15Z" fill="#fff"/><path d="M316.48 80.5v15" stroke="#D1BFE6" stroke-width=".5" stroke-miterlimit="10"/><path d="M320.439 80.5v16.17V80.5Z" fill="#fff"/><path d="M320.439 80.5v16.17" stroke="#D1BFE6" stroke-width=".5" stroke-miterlimit="10"/><path d="M324.4 81v15-15Z" fill="#fff"/><path d="M324.4 81v15" stroke="#D1BFE6" stroke-width=".5" stroke-miterlimit="10"/><path d="M328.369 84v9.5V84Z" fill="#fff"/><path d="M328.369 84v9.5" stroke="#D1BFE6" stroke-width=".5" stroke-miterlimit="10"/></g><path fill="url(#u)" d="M0 0h412v191H0z"/></g><defs><filter id="b" x="234.928" y="125.23" width="60.641" height="40.375" filterUnits="userSpaceOnUse" color-interpolation-filters="sRGB"><feFlood flood-opacity="0" result="BackgroundImageFix"/><feColorMatrix in="SourceAlpha" values="0 0 0 0 0 0 0 0 0 0 0 0 0 0 0 0 0 0 127 0" result="hardAlpha"/><feOffset/><feGaussianBlur stdDeviation="5"/><feColorMatrix values="0 0 0 0 0.0392157 0 0 0 0 0.0392157 0 0 0 0 0.0392157 0 0 0 0.102 0"/><feBlend in2="BackgroundImageFix" result="effect1_dropShadow_3298_154557"/><feBlend in="SourceGraphic" in2="effect1_dropShadow_3298_154557" result="shape"/></filter><filter id="c" x="107.5" y="-2.06" width="195.859" height="195.95" filterUnits="userSpaceOnUse" color-interpolation-filters="sRGB"><feFlood flood-opacity="0" result="BackgroundImageFix"/><feColorMatrix in="SourceAlpha" values="0 0 0 0 0 0 0 0 0 0 0 0 0 0 0 0 0 0 127 0" result="hardAlpha"/><feOffset/><feGaussianBlur stdDeviation="5"/><feColorMatrix values="0 0 0 0 0.904167 0 0 0 0 0.904167 0 0 0 0 0.904167 0 0 0 1 0"/><feBlend in2="BackgroundImageFix" result="effect1_dropShadow_3298_154557"/><feBlend in="SourceGraphic" in2="effect1_dropShadow_3298_154557" result="shape"/></filter><filter id="g" x="155.131" y="-1.95" width="60.721" height="76.45" filterUnits="userSpaceOnUse" color-interpolation-filters="sRGB"><feFlood flood-opacity="0" result="BackgroundImageFix"/><feColorMatrix in="SourceAlpha" values="0 0 0 0 0 0 0 0 0 0 0 0 0 0 0 0 0 0 127 0" result="hardAlpha"/><feOffset/><feGaussianBlur stdDeviation="5"/><feColorMatrix values="0 0 0 0 0.904167 0 0 0 0 0.904167 0 0 0 0 0.904167 0 0 0 1 0"/><feBlend in2="BackgroundImageFix" result="effect1_dropShadow_3298_154557"/><feBlend in="SourceGraphic" in2="effect1_dropShadow_3298_154557" result="shape"/></filter><filter id="h" x="36.041" y="77.55" width="60.66" height="76.46" filterUnits="userSpaceOnUse" color-interpolation-filters="sRGB"><feFlood flood-opacity="0" result="BackgroundImageFix"/><feColorMatrix in="SourceAlpha" values="0 0 0 0 0 0 0 0 0 0 0 0 0 0 0 0 0 0 127 0" result="hardAlpha"/><feOffset/><feGaussianBlur stdDeviation="5"/><feColorMatrix values="0 0 0 0 0.904167 0 0 0 0 0.904167 0 0 0 0 0.904167 0 0 0 1 0"/><feBlend in2="BackgroundImageFix" result="effect1_dropShadow_3298_154557"/><feBlend in="SourceGraphic" in2="effect1_dropShadow_3298_154557" result="shape"/></filter><filter id="i" x="-3.799" y="-2.02" width="60.721" height="76.52" filterUnits="userSpaceOnUse" color-interpolation-filters="sRGB"><feFlood flood-opacity="0" result="BackgroundImageFix"/><feColorMatrix in="SourceAlpha" values="0 0 0 0 0 0 0 0 0 0 0 0 0 0 0 0 0 0 127 0" result="hardAlpha"/><feOffset/><feGaussianBlur stdDeviation="5"/><feColorMatrix values="0 0 0 0 0.904167 0 0 0 0 0.904167 0 0 0 0 0.904167 0 0 0 1 0"/><feBlend in2="BackgroundImageFix" result="effect1_dropShadow_3298_154557"/><feBlend in="SourceGraphic" in2="effect1_dropShadow_3298_154557" result="shape"/></filter><filter id="j" x="274.309" y="-1.851" width="60.66" height="76.47" filterUnits="userSpaceOnUse" color-interpolation-filters="sRGB"><feFlood flood-opacity="0" result="BackgroundImageFix"/><feColorMatrix in="SourceAlpha" values="0 0 0 0 0 0 0 0 0 0 0 0 0 0 0 0 0 0 127 0" result="hardAlpha"/><feOffset/><feGaussianBlur stdDeviation="5"/><feColorMatrix values="0 0 0 0 0.904167 0 0 0 0 0.904167 0 0 0 0 0.904167 0 0 0 1 0"/><feBlend in2="BackgroundImageFix" result="effect1_dropShadow_3298_154557"/><feBlend in="SourceGraphic" in2="effect1_dropShadow_3298_154557" result="shape"/></filter><filter id="k" x="306.23" y="45.97" width="76.471" height="60.71" filterUnits="userSpaceOnUse" color-interpolation-filters="sRGB"><feFlood flood-opacity="0" result="BackgroundImageFix"/><feColorMatrix in="SourceAlpha" values="0 0 0 0 0 0 0 0 0 0 0 0 0 0 0 0 0 0 127 0" result="hardAlpha"/><feOffset/><feGaussianBlur stdDeviation="5"/><feColorMatrix values="0 0 0 0 0.904167 0 0 0 0 0.904167 0 0 0 0 0.904167 0 0 0 1 0"/><feBlend in2="BackgroundImageFix" result="effect1_dropShadow_3298_154557"/><feBlend in="SourceGraphic" in2="effect1_dropShadow_3298_154557" result="shape"/></filter><filter id="l" x="346.221" y="85.39" width="76.519" height="60.72" filterUnits="userSpaceOnUse" color-interpolation-filters="sRGB"><feFlood flood-opacity="0" result="BackgroundImageFix"/><feColorMatrix in="SourceAlpha" values="0 0 0 0 0 0 0 0 0 0 0 0 0 0 0 0 0 0 127 0" result="hardAlpha"/><feOffset/><feGaussianBlur stdDeviation="5"/><feColorMatrix values="0 0 0 0 0.904167 0 0 0 0 0.904167 0 0 0 0 0.904167 0 0 0 1 0"/><feBlend in2="BackgroundImageFix" result="effect1_dropShadow_3298_154557"/><feBlend in="SourceGraphic" in2="effect1_dropShadow_3298_154557" result="shape"/></filter><filter id="m" x="313.938" y="117.15" width="60.902" height="76.48" filterUnits="userSpaceOnUse" color-interpolation-filters="sRGB"><feFlood flood-opacity="0" result="BackgroundImageFix"/><feColorMatrix in="SourceAlpha" values="0 0 0 0 0 0 0 0 0 0 0 0 0 0 0 0 0 0 127 0" result="hardAlpha"/><feOffset/><feGaussianBlur stdDeviation="5"/><feColorMatrix values="0 0 0 0 0.904167 0 0 0 0 0.904167 0 0 0 0 0.904167 0 0 0 1 0"/><feBlend in2="BackgroundImageFix" result="effect1_dropShadow_3298_154557"/><feBlend in="SourceGraphic" in2="effect1_dropShadow_3298_154557" result="shape"/></filter><filter id="n" x="-3.879" y="117.15" width="60.85" height="76.48" filterUnits="userSpaceOnUse" color-interpolation-filters="sRGB"><feFlood flood-opacity="0" result="BackgroundImageFix"/><feColorMatrix in="SourceAlpha" values="0 0 0 0 0 0 0 0 0 0 0 0 0 0 0 0 0 0 127 0" result="hardAlpha"/><feOffset/><feGaussianBlur stdDeviation="5"/><feColorMatrix values="0 0 0 0 0.904167 0 0 0 0 0.904167 0 0 0 0 0.904167 0 0 0 1 0"/><feBlend in2="BackgroundImageFix" result="effect1_dropShadow_3298_154557"/><feBlend in="SourceGraphic" in2="effect1_dropShadow_3298_154557" result="shape"/></filter><filter id="o" x="67.781" y="45.94" width="76.59" height="60.75" filterUnits="userSpaceOnUse" color-interpolation-filters="sRGB"><feFlood flood-opacity="0" result="BackgroundImageFix"/><feColorMatrix in="SourceAlpha" values="0 0 0 0 0 0 0 0 0 0 0 0 0 0 0 0 0 0 127 0" result="hardAlpha"/><feOffset/><feGaussianBlur stdDeviation="5"/><feColorMatrix values="0 0 0 0 0.904167 0 0 0 0 0.904167 0 0 0 0 0.904167 0 0 0 1 0"/><feBlend in2="BackgroundImageFix" result="effect1_dropShadow_3298_154557"/><feBlend in="SourceGraphic" in2="effect1_dropShadow_3298_154557" result="shape"/></filter><filter id="p" x="354.109" y="-2.12" width="60.711" height="76.57" filterUnits="userSpaceOnUse" color-interpolation-filters="sRGB"><feFlood flood-opacity="0" result="BackgroundImageFix"/><feColorMatrix in="SourceAlpha" values="0 0 0 0 0 0 0 0 0 0 0 0 0 0 0 0 0 0 127 0" result="hardAlpha"/><feOffset/><feGaussianBlur stdDeviation="5"/><feColorMatrix values="0 0 0 0 0.904167 0 0 0 0 0.904167 0 0 0 0 0.904167 0 0 0 1 0"/><feBlend in2="BackgroundImageFix" result="effect1_dropShadow_3298_154557"/><feBlend in="SourceGraphic" in2="effect1_dropShadow_3298_154557" result="shape"/></filter><clipPath id="a"><path fill="#fff" d="M0 0h412v191H0z"/></clipPath><clipPath id="q"><path fill="#fff" transform="translate(74 31)" d="M0 0h19v40H0z"/></clipPath><clipPath id="r"><path fill="#fff" transform="translate(100 88)" d="M0 0h39v40H0z"/></clipPath><clipPath id="s"><path fill="#fff" transform="translate(339 120)" d="M0 0h40v40H0z"/></clipPath><clipPath id="t"><path fill="#fff" transform="translate(275 80)" d="M0 0h56v24H0z"/></clipPath><linearGradient id="d" x1="207.063" y1="6.582" x2="207.359" y2="188.976" gradientUnits="userSpaceOnUse"><stop offset=".205" stop-color="#E9DEFA"/><stop offset=".625" stop-color="#FBFCDB"/><stop offset=".875" stop-color="#E9DEFA"/></linearGradient><linearGradient id="e" x1="207.063" y1="6.582" x2="207.359" y2="188.976" gradientUnits="userSpaceOnUse"><stop offset=".205" stop-color="#E9DEFA"/><stop offset=".625" stop-color="#FBFCDB"/><stop offset=".875" stop-color="#E9DEFA"/></linearGradient><linearGradient id="f" x1="262.071" y1="6.582" x2="262.368" y2="188.976" gradientUnits="userSpaceOnUse"><stop offset=".205" stop-color="#E9DEFA"/><stop offset=".625" stop-color="#FBFCDB"/><stop offset=".875" stop-color="#E9DEFA"/></linearGradient><linearGradient id="u" x1="412.658" y1="96" x2="-8.556" y2="96" gradientUnits="userSpaceOnUse"><stop stop-color="#fff"/><stop offset=".344" stop-color="#fff" stop-opacity="0"/><stop offset=".693" stop-color="#fff" stop-opacity="0"/><stop offset="1" stop-color="#fff"/></linearGradient></defs></svg>