<svg width="412" height="191" fill="none" xmlns="http://www.w3.org/2000/svg"><g clip-path="url(#a)"><path fill="#181A1F" d="M0 0h412v191H0z"/><g clip-path="url(#b)"><mask id="c" fill="#fff"><path d="M32.047 1.5h427.63-427.63Z"/></mask><path d="M32.047 1.5h427.63-427.63Z" fill="#2A2D36"/><path d="M32.047 2h427.63V1H32.047v1Z" fill="#2A2D36" mask="url(#c)"/><mask id="d" fill="#fff"><path d="M-46.254 15h481-481Z"/></mask><path d="M-46.254 15h481-481Z" fill="#2A2D36"/><path d="M-46.254 15.5h481v-1h-481v1Z" fill="#2A2D36" mask="url(#d)"/><mask id="e" fill="#fff"><path d="M-34.303 28.49h469.06-469.06Z"/></mask><path d="M-34.303 28.49h469.06-469.06Z" fill="#2A2D36"/><path d="M-34.303 28.99h469.06v-1h-469.06v1Z" fill="#2A2D36" mask="url(#e)"/><mask id="f" fill="#fff"><path d="M-50.523 42h504.58-504.58Z"/></mask><path d="M-50.523 42h504.58-504.58Z" fill="#2A2D36"/><path d="M-50.523 42.5h504.58v-1h-504.58v1Z" fill="#2A2D36" mask="url(#f)"/><mask id="g" fill="#fff"><path d="M-38.664 55.51h472.62-472.62Z"/></mask><path d="M-38.664 55.51h472.62-472.62Z" fill="#2A2D36"/><path d="M-38.664 56.01h472.62v-1h-472.62v1Z" fill="#2A2D36" mask="url(#g)"/><mask id="h" fill="#fff"><path d="M-48.264 69h507.46-507.46Z"/></mask><path d="M-48.264 69h507.46-507.46Z" fill="#2A2D36"/><path d="M-48.264 69.5h507.46v-1h-507.46v1Z" fill="#2A2D36" mask="url(#h)"/><mask id="i" fill="#fff"><path d="M-38.664 82.47h489-489Z"/></mask><path d="M-38.664 82.47h489-489Z" fill="#2A2D36"/><path d="M-38.664 82.97h489v-1h-489v1Z" fill="#2A2D36" mask="url(#i)"/><mask id="j" fill="#fff"><path d="M-38.664 96h501-501Z"/></mask><path d="M-38.664 96h501-501Z" fill="#2A2D36"/><path d="M-38.664 96.5h501v-1h-501v1Z" fill="#2A2D36" mask="url(#j)"/><mask id="k" fill="#fff"><path d="M-46.254 109.451h496.44-496.44Z"/></mask><path d="M-46.254 109.451h496.44-496.44Z" fill="#2A2D36"/><path d="M-46.254 109.951h496.44v-1h-496.44v1Z" fill="#2A2D36" mask="url(#k)"/><mask id="l" fill="#fff"><path d="M-35.914 123h495.21-495.21Z"/></mask><path d="M-35.914 123h495.21-495.21Z" fill="#2A2D36"/><path d="M-35.914 123.5h495.21v-1h-495.21v1Z" fill="#2A2D36" mask="url(#l)"/><mask id="m" fill="#fff"><path d="M-37.154 149.94h490.79-490.79Z"/></mask><path d="M-37.154 149.94h490.79-490.79Z" fill="#2A2D36"/><path d="M-37.154 150.44h490.79v-1h-490.79v1Z" fill="#2A2D36" mask="url(#m)"/><mask id="n" fill="#fff"><path d="M-39.973 163.431h484.65-484.65Z"/></mask><path d="M-39.973 163.431h484.65-484.65Z" fill="#2A2D36"/><path d="M-39.973 163.931h484.65v-1h-484.65v1Z" fill="#2A2D36" mask="url(#n)"/><mask id="o" fill="#fff"><path d="M-46.254 136.44h490.93-490.93Z"/></mask><path d="M-46.254 136.44h490.93-490.93Z" fill="#2A2D36"/><path d="M-46.254 136.94h490.93v-1h-490.93v1Z" fill="#2A2D36" mask="url(#o)"/><mask id="p" fill="#fff"><path d="M-46.254 176.38h496.44-496.44Z"/></mask><path d="M-46.254 176.38h496.44-496.44Z" fill="#2A2D36"/><path d="M-46.254 176.88h496.44v-1h-496.44v1Z" fill="#2A2D36" mask="url(#p)"/><mask id="q" fill="#fff"><path d="M32.047 189.871h427.63-427.63Z"/></mask><path d="M32.047 189.871h427.63-427.63Z" fill="#2A2D36"/><path d="M32.047 190.371h427.63v-1H32.047v1Z" fill="#2A2D36" mask="url(#q)"/><mask id="r" fill="#fff"><path d="M78.527-6.22v194.79V-6.22Z"/></mask><path d="M78.527-6.22v194.79V-6.22Z" fill="#2A2D36"/><path d="M78.027-6.22v194.79h1V-6.22h-1Z" fill="#2A2D36" mask="url(#r)"/><mask id="s" fill="#fff"><path d="M92.018 6.82v181.75V6.82Z"/></mask><path d="M92.018 6.82v181.75V6.82Z" fill="#2A2D36"/><path d="M91.518 6.82v181.75h1V6.82h-1Z" fill="#2A2D36" mask="url(#s)"/><mask id="t" fill="#fff"><path d="M105.508 1.38v181.67V1.38Z"/></mask><path d="M105.508 1.38v181.67V1.38Z" fill="#2A2D36"/><path d="M105.008 1.38v181.67h1V1.38h-1Z" fill="#2A2D36" mask="url(#t)"/><mask id="u" fill="#fff"><path d="M119.008 7.41v181.16V7.41Z"/></mask><path d="M119.008 7.41v181.16V7.41Z" fill="#2A2D36"/><path d="M118.508 7.41v181.16h1V7.41h-1Z" fill="#2A2D36" mask="url(#u)"/><mask id="v" fill="#fff"><path d="M51.537 6.82v181.75V6.82Z"/></mask><path d="M51.537 6.82v181.75V6.82Z" fill="#2A2D36"/><path d="M51.037 6.82v181.75h1V6.82h-1Z" fill="#2A2D36" mask="url(#v)"/><mask id="w" fill="#fff"><path d="M65.027 1.38v181.67V1.38Z"/></mask><path d="M65.027 1.38v181.67V1.38Z" fill="#2A2D36"/><path d="M64.527 1.38v181.67h1V1.38h-1Z" fill="#2A2D36" mask="url(#w)"/><mask id="x" fill="#fff"><path d="M38.037 6.82v181.75V6.82Z"/></mask><path d="M38.037 6.82v181.75V6.82Z" fill="#2A2D36"/><path d="M37.537 6.82v181.75h1V6.82h-1Z" fill="#2A2D36" mask="url(#x)"/><mask id="y" fill="#fff"><path d="M132.496 6.19v176.86V6.19Z"/></mask><path d="M132.496 6.19v176.86V6.19Z" fill="#2A2D36"/><path d="M131.996 6.19v176.86h1V6.19h-1Z" fill="#2A2D36" mask="url(#y)"/><mask id="z" fill="#fff"><path d="M145.996-6.22v194.79V-6.22Z"/></mask><path d="M145.996-6.22v194.79V-6.22Z" fill="#2A2D36"/><path d="M145.496-6.22v194.79h1V-6.22h-1Z" fill="#2A2D36" mask="url(#z)"/><mask id="A" fill="#fff"><path d="M159.486 6.19v181.75V6.19Z"/></mask><path d="M159.486 6.19v181.75V6.19Z" fill="#2A2D36"/><path d="M158.986 6.19v181.75h1V6.19h-1Z" fill="#2A2D36" mask="url(#A)"/><mask id="B" fill="#fff"><path d="M172.977 6.19v182.38V6.19Z"/></mask><path d="M172.977 6.19v182.38V6.19Z" fill="#2A2D36"/><path d="M172.477 6.19v182.38h1V6.19h-1Z" fill="#2A2D36" mask="url(#B)"/><mask id="C" fill="#fff"><path d="M186.477-6.22v194.79V-6.22Z"/></mask><path d="M186.477-6.22v194.79V-6.22Z" fill="#2A2D36"/><path d="M185.977-6.22v194.79h1V-6.22h-1Z" fill="#2A2D36" mask="url(#C)"/><mask id="D" fill="#fff"><path d="M199.967 6.82V182.4 6.82Z"/></mask><path d="M199.967 6.82V182.4 6.82Z" fill="#2A2D36"/><path d="M199.467 6.82V182.4h1V6.82h-1Z" fill="#2A2D36" mask="url(#D)"/><mask id="E" fill="#fff"><path d="M213.457-6.22V182.4-6.22Z"/></mask><path d="M213.457-6.22V182.4-6.22Z" fill="#2A2D36"/><path d="M212.957-6.22V182.4h1V-6.22h-1Z" fill="#2A2D36" mask="url(#E)"/><mask id="F" fill="#fff"><path d="M226.957 1.38v187.19V1.38Z"/></mask><path d="M226.957 1.38v187.19V1.38Z" fill="#2A2D36"/><path d="M226.457 1.38v187.19h1V1.38h-1Z" fill="#2A2D36" mask="url(#F)"/><mask id="G" fill="#fff"><path d="M240.447 11.09v177.48V11.09Z"/></mask><path d="M240.447 11.09v177.48V11.09Z" fill="#2A2D36"/><path d="M239.947 11.09v177.48h1V11.09h-1Z" fill="#2A2D36" mask="url(#G)"/><mask id="H" fill="#fff"><path d="M253.947 11.09v177.48V11.09Z"/></mask><path d="M253.947 11.09v177.48V11.09Z" fill="#2A2D36"/><path d="M253.447 11.09v177.48h1V11.09h-1Z" fill="#2A2D36" mask="url(#H)"/><mask id="I" fill="#fff"><path d="M267.438-6.22v194.79V-6.22Z"/></mask><path d="M267.438-6.22v194.79V-6.22Z" fill="#2A2D36"/><path d="M266.938-6.22v194.79h1V-6.22h-1Z" fill="#2A2D36" mask="url(#I)"/><mask id="J" fill="#fff"><path d="M280.928-6.22V182.4-6.22Z"/></mask><path d="M280.928-6.22V182.4-6.22Z" fill="#2A2D36"/><path d="M280.428-6.22V182.4h1V-6.22h-1Z" fill="#2A2D36" mask="url(#J)"/><mask id="K" fill="#fff"><path d="m294.396-6.22.06 194.79-.06-194.79Z"/></mask><path d="m294.396-6.22.06 194.79-.06-194.79Z" fill="#2A2D36"/><path d="m293.896-6.22.06 194.79h1l-.06-194.79h-1Z" fill="#2A2D36" mask="url(#K)"/><mask id="L" fill="#fff"><path d="M307.918 4.16v184.41V4.16Z"/></mask><path d="M307.918 4.16v184.41V4.16Z" fill="#2A2D36"/><path d="M307.418 4.16v184.41h1V4.16h-1Z" fill="#2A2D36" mask="url(#L)"/><mask id="M" fill="#fff"><path d="M321.418 4.16v184.41V4.16Z"/></mask><path d="M321.418 4.16v184.41V4.16Z" fill="#2A2D36"/><path d="M320.918 4.16v184.41h1V4.16h-1Z" fill="#2A2D36" mask="url(#M)"/><mask id="N" fill="#fff"><path d="m348.357-6.22.06 194.79-.06-194.79Z"/></mask><path d="m348.357-6.22.06 194.79-.06-194.79Z" fill="#2A2D36"/><path d="m347.857-6.22.06 194.79h1l-.06-194.79h-1Z" fill="#2A2D36" mask="url(#N)"/><mask id="O" fill="#fff"><path d="M361.848 4.16v184.41V4.16Z"/></mask><path d="M361.848 4.16v184.41V4.16Z" fill="#2A2D36"/><path d="M361.348 4.16v184.41h1V4.16h-1Z" fill="#2A2D36" mask="url(#O)"/><mask id="P" fill="#fff"><path d="M375.377 4.16v184.41V4.16Z"/></mask><path d="M375.377 4.16v184.41V4.16Z" fill="#2A2D36"/><path d="M374.877 4.16v184.41h1V4.16h-1Z" fill="#2A2D36" mask="url(#P)"/><mask id="Q" fill="#fff"><path d="M402.348 4.16v184.41V4.16Z"/></mask><path d="M402.348 4.16v184.41V4.16Z" fill="#2A2D36"/><path d="M401.848 4.16v184.41h1V4.16h-1Z" fill="#2A2D36" mask="url(#Q)"/><mask id="R" fill="#fff"><path d="M388.848 4.16v184.41V4.16Z"/></mask><path d="M388.848 4.16v184.41V4.16Z" fill="#2A2D36"/><path d="M388.348 4.16v184.41h1V4.16h-1Z" fill="#2A2D36" mask="url(#R)"/><mask id="S" fill="#fff"><path d="m10.707-6.22.06 194.79-.06-194.79Z"/></mask><path d="m10.707-6.22.06 194.79-.06-194.79Z" fill="#2A2D36"/><path d="m10.207-6.22.06 194.79h1l-.06-194.79h-1Z" fill="#2A2D36" mask="url(#S)"/><mask id="T" fill="#fff"><path d="M24.227 4.16v184.41V4.16Z"/></mask><path d="M24.227 4.16v184.41V4.16Z" fill="#2A2D36"/><path d="M23.727 4.16v184.41h1V4.16h-1Z" fill="#2A2D36" mask="url(#T)"/><path d="M321.346 28.57V14.93h13.64v13.64h-13.64Z" stroke="#2A2D36" stroke-width=".5"/><path d="M321.666 28.24V15.25h12.99v12.99h-12.99Z" stroke="#2A2D36" stroke-width=".5"/><g filter="url(#U)" fill="#2A2D36" stroke="#2A2D36"><path d="M335.086 14.82V1.68h13.14v13.14h-13.14Z"/><path d="M335.406 14.49V2h12.49v12.49h-12.49Z"/></g><path d="M334.836 42.06V28.42h13.64v13.64h-13.64Z" stroke="#2A2D36" stroke-width=".5"/><path d="M335.156 41.73V28.74h12.99v12.99h-12.99Z" stroke="#2A2D36" stroke-width=".5"/><g filter="url(#V)" stroke="#2A2D36"><path d="M335.086 55.42V42.28h13.14v13.14h-13.14Z"/><path d="M335.406 55.09V42.6h12.49v12.49h-12.49Z"/></g><path d="M334.766 82.54V68.9h13.64v13.64h-13.64Z" stroke="#2A2D36" stroke-width=".5"/><path d="M335.086 82.21V69.22h12.99v12.99h-12.99ZM334.766 95.91V82.27h13.64v13.64h-13.64Z" stroke="#2A2D36" stroke-width=".5"/><path d="M334.766 109.24V95.6h13.64v13.64h-13.64Z" stroke="#2A2D36" stroke-width=".5"/><path d="M335.086 108.91V95.92h12.99v12.99h-12.99Z" stroke="#2A2D36" stroke-width=".5"/><g filter="url(#W)"><path d="M335.016 122.5v-13.14h13.14v13.14h-13.14Z" stroke="#2A2D36"/><g filter="url(#X)"><path d="M335.336 122.17v-12.49h12.49v12.49h-12.49Z" stroke="#2A2D36"/></g></g><path d="M91.947 163.51v-13.64h13.64v13.64h-13.64Z" stroke="#2A2D36" stroke-width=".5"/><path d="M92.268 163.18v-12.99h12.99v12.99h-12.99ZM78.447 177v-13.64h13.64V177h-13.64Z" stroke="#2A2D36" stroke-width=".5"/><path d="M78.777 176.67v-12.99h12.99v12.99h-12.99ZM64.957 150.01v-13.64h13.64v13.64h-13.64Z" stroke="#2A2D36" stroke-width=".5"/><path d="M65.277 149.68v-12.99h12.99v12.99h-12.99ZM91.947 190.49v-13.64h13.64v13.64h-13.64Z" stroke="#2A2D36" stroke-width=".5"/><path d="M92.268 190.16v-12.99h12.99v12.99h-12.99ZM159.416 163.51v-13.64h13.64v13.64h-13.64Z" stroke="#2A2D36" stroke-width=".5"/><path d="M159.736 163.18v-12.99h12.99v12.99h-12.99ZM145.916 177v-13.64h13.64V177h-13.64Z" stroke="#2A2D36" stroke-width=".5"/><path d="M146.246 176.67v-12.99h12.99v12.99h-12.99ZM159.416 190.49v-13.64h13.64v13.64h-13.64Z" stroke="#2A2D36" stroke-width=".5"/><path d="M159.736 190.16v-12.99h12.99v12.99h-12.99Z" stroke="#2A2D36" stroke-width=".5"/><g filter="url(#Y)"><path d="M320.916 189.92h-12.5v-12.5h12.5v12.5Z" fill="#2A2D36" stroke="#2A2D36"/><mask id="Z" fill="#fff"><path d="M308.236 177.25v12.85h12.86v-12.85h-12.86Zm-.64-.65h14.14v14.14h-14.14V176.6Z"/></mask><path d="M308.236 177.25v12.85h12.86v-12.85h-12.86Zm-.64-.65h14.14v14.14h-14.14V176.6Z" fill="#2A2D36"/><path d="M308.236 177.25v-1h-1v1h1Zm0 12.85h-1v1h1v-1Zm12.86 0v1h1v-1h-1Zm0-12.85h1v-1h-1v1Zm-13.5-.65v-1h-1v1h1Zm14.14 0h1v-1h-1v1Zm0 14.14v1h1v-1h-1Zm-14.14 0h-1v1h1v-1Zm-.36-13.49v12.85h2v-12.85h-2Zm1 13.85h12.86v-2h-12.86v2Zm13.86-1v-12.85h-2v12.85h2Zm-1-13.85h-12.86v2h12.86v-2Zm-13.5 1.35h14.14v-2h-14.14v2Zm13.14-1v14.14h2V176.6h-2Zm1 13.14h-14.14v2h14.14v-2Zm-13.14 1V176.6h-2v14.14h2Z" fill="#2A2D36" mask="url(#Z)"/></g><path d="M362.287 190.17h-12.99v-13h12.99v13Z" fill="#2A2D36" stroke="#2A2D36" stroke-width=".5"/><path d="M349.367 177h-.25v13.35h13.35V177h-13.1Zm-.39-.15h13.62v13.64h-13.62v-13.64ZM375.295 176.628h-13.557v-13.557h13.557v13.557Z" fill="#2A2D36" stroke="#2A2D36" stroke-width=".5"/><path d="M361.832 162.904h-.25v13.891h13.88v-13.891h-13.63Zm-.416-.166h14.213v14.223h-14.213v-14.223ZM348.146 163.18h-12.99v-12.99h12.99v12.99Z" fill="#2A2D36" stroke="#2A2D36" stroke-width=".5"/><path d="M335.226 150.01h-.25v13.35h13.35v-13.35h-13.1Zm-.39-.14h13.64v13.63h-13.64v-13.63ZM334.656 149.69h-12.99v-13h12.99v13Z" fill="#2A2D36" stroke="#2A2D36" stroke-width=".5"/><path d="M321.736 136.51h-.25v13.36h13.35v-13.36h-13.1Zm-.39-.14h13.63v13.64h-13.63v-13.64ZM361.517 149.69h-12.99v-13h12.99v13Z" fill="#2A2D36" stroke="#2A2D36" stroke-width=".5"/><path d="M348.597 136.51h-.25v13.36h13.35v-13.36h-13.1Zm-.4-.14h13.64v13.64h-13.64v-13.64Z" fill="#2A2D36" stroke="#2A2D36" stroke-width=".5"/><g filter="url(#aa)"><path d="M347.896 135.99h-12.49V123.5h12.49v12.49Z" fill="#2A2D36" stroke="#2A2D36"/><mask id="ab" fill="#fff"><path d="M335.226 123.32v12.85h12.85v-12.85h-12.85Zm-.64-.64h14.14v14.13h-14.14v-14.13Z"/></mask><path d="M335.226 123.32v12.85h12.85v-12.85h-12.85Zm-.64-.64h14.14v14.13h-14.14v-14.13Z" fill="#2A2D36"/><path d="M335.226 123.32v-1h-1v1h1Zm0 12.85h-1v1h1v-1Zm12.85 0v1h1v-1h-1Zm0-12.85h1v-1h-1v1Zm-13.49-.64v-1h-1v1h1Zm14.14 0h1v-1h-1v1Zm0 14.13v1h1v-1h-1Zm-14.14 0h-1v1h1v-1Zm-.36-13.49v12.85h2v-12.85h-2Zm1 13.85h12.85v-2h-12.85v2Zm13.85-1v-12.85h-2v12.85h2Zm-1-13.85h-12.85v2h12.85v-2Zm-13.49 1.36h14.14v-2h-14.14v2Zm13.14-1v14.13h2v-14.13h-2Zm1 13.13h-14.14v2h14.14v-2Zm-13.14 1v-14.13h-2v14.13h2Z" fill="#2A2D36" mask="url(#ab)"/></g><path d="M375.008 136.24h-12.99v-12.99h12.99v12.99Z" fill="#2A2D36" stroke="#2A2D36" stroke-width=".5"/><path d="M362.087 123.07h-.25v13.35h13.35v-13.35h-13.1Zm-.39-.14h13.64v13.63h-13.64v-13.63Z" fill="#2A2D36" stroke="#2A2D36" stroke-width=".5"/><g filter="url(#ac)"><path d="M361.267 122.5h-12.49V110h12.49v12.5Z" fill="#2A2D36" stroke="#2A2D36"/><mask id="ad" fill="#fff"><path d="M348.597 109.82v12.86h12.85v-12.86h-12.85Zm-.65-.64h14.14v14.14h-14.14v-14.14Z"/></mask><path d="M348.597 109.82v12.86h12.85v-12.86h-12.85Zm-.65-.64h14.14v14.14h-14.14v-14.14Z" fill="#2A2D36"/><path d="M348.597 109.82v-1h-1v1h1Zm0 12.86h-1v1h1v-1Zm12.85 0v1h1v-1h-1Zm0-12.86h1v-1h-1v1Zm-13.5-.64v-1h-1v1h1Zm14.14 0h1v-1h-1v1Zm0 14.14v1h1v-1h-1Zm-14.14 0h-1v1h1v-1Zm-.35-13.5v12.86h2v-12.86h-2Zm1 13.86h12.85v-2h-12.85v2Zm13.85-1v-12.86h-2v12.86h2Zm-1-13.86h-12.85v2h12.85v-2Zm-13.5 1.36h14.14v-2h-14.14v2Zm13.14-1v14.14h2v-14.14h-2Zm1 13.14h-14.14v2h14.14v-2Zm-13.14 1v-14.14h-2v14.14h2Z" fill="#2A2D36" mask="url(#ad)"/></g><path d="M199.396 163.24h-12.99v-12.99h12.99v12.99Z" fill="#2A2D36" stroke="#2A2D36" stroke-width=".5"/><path d="M186.495 150.06h-.25v13.36h13.733v-13.36h-13.483Zm-.409-.14h14.052v13.64h-14.042l-.01-13.64ZM213.025 176.861h-13v-12.99h13v12.99Z" fill="#2A2D36" stroke="#2A2D36" stroke-width=".5"/><path d="M200.103 163.518h-.25v13.514h13.524v-13.514h-13.274Zm-.398-.148h13.82v13.81h-13.82v-13.81ZM227.336 162.551h-13.311v-13h13.311v13Z" fill="#2A2D36" stroke="#2A2D36" stroke-width=".5"/><path d="M213.938 149.37h-.25v13.35h13.805v-13.35h-13.555Zm-.413-.14h14.13v13.64h-14.13v-13.64ZM51.285 176.06h-13v-12.99h13v12.99Z" fill="#2A2D36" stroke="#2A2D36" stroke-width=".5"/><path d="M38.365 162.89h-.25v13.36h13.35v-13.36h-13.1Zm-.4-.14h13.63v13.63h-13.63v-13.63ZM394.207 165.75h-12.99v-13.03h12.99v13.03Z" fill="#2A2D36" stroke="#2A2D36" stroke-width=".5"/><path d="M381.286 152.54h-.25v13.35h13.351v-13.35h-13.101Zm-.39-.14h13.63v13.63h-13.63V152.4ZM64.775 189.3h-12.99v-12.99h12.99v12.99Z" fill="#2A2D36" stroke="#2A2D36" stroke-width=".5"/><path d="M51.845 176.13h-.25v13.35h13.35v-13.35h-13.1Zm-.39-.14h13.64v13.63h-13.63l-.01-13.63ZM64.775 163.18h-12.99v-12.99h12.99v12.99Z" fill="#2A2D36" stroke="#2A2D36" stroke-width=".5"/><path d="M51.845 150.01h-.25v13.35h13.35v-13.35h-13.1Zm-.39-.14h13.64v13.63h-13.63l-.01-13.63ZM240.227 95.59h-13v-13h13v13Z" fill="#2A2D36" stroke="#2A2D36" stroke-width=".5"/><path d="M227.306 82.42h-.25v13.35h13.35V82.42h-13.1Zm-.4-.15h13.69v13.64h-13.69V82.27ZM414.79 122.403h-25.62V96.478h25.62v25.925Z" fill="#2A2D36" stroke="#2A2D36" stroke-width=".5"/><path d="M389.539 96.612h-.25v25.794h25.37V96.612h-25.12Zm-.99-.72h26.86v27.327h-26.86V95.891ZM414.906 176.86h-13v-12.99h13v12.99Z" fill="#2A2D36" stroke="#2A2D36" stroke-width=".5"/><path d="M401.976 163.69h-.25v13.35h13.37v-13.35h-13.12Zm-.39-.14h13.64v13.63h-13.64v-13.63ZM415.686 55.72v13.03h-13V55.72h13Z" fill="#2A2D36" stroke="#2A2D36" stroke-width=".5"/><path d="M402.505 68.64v.25h13.36V55.54h-13.36v13.1Zm-.14.39V55.39h13.64v13.64h-13.64ZM415.686 28.59v12.99h-13V28.59h13Z" fill="#2A2D36" stroke="#2A2D36" stroke-width=".5"/><path d="M402.505 41.51v.25h13.36V28.41h-13.36v13.1Zm-.14.39V28.25h13.64V41.9h-13.64Z" fill="#2A2D36" stroke="#2A2D36" stroke-width=".5"/><g filter="url(#ae)"><path d="M348.528 69.327h-14.001v-14.01h14.001v14.01Z" fill="#2A2D36"/><path d="M348.028 68.827h-13.001v-13.01h13.001v13.01Z" stroke="#2A2D36"/></g><path d="M334.87 55.408h-.25v13.837h13.836V55.408H334.87Zm-.415-.174h14.165v14.175h-14.175l.01-14.175Z" fill="#2A2D36" stroke="#2A2D36" stroke-width=".5"/><path d="M362.269 56.306h-13.736V42.57h13.736v13.736Z" fill="#2A2D36" stroke="#2A2D36" stroke-width=".5"/><path d="M348.621 42.408h-.25v14.06h14.06v-14.06h-13.81Zm-.426-.176h14.401v14.411h-14.401v-14.41Z" fill="#2A2D36" stroke="#2A2D36" stroke-width=".5"/><g filter="url(#af)"><path d="M362.236 82.932h-14.113V68.82h14.113v14.113Z" fill="#2A2D36"/><path d="M361.736 82.432h-13.113V69.32h13.113v13.113Z" stroke="#2A2D36"/></g><path d="M348.457 68.903h-.25v13.944h13.943V68.903h-13.693Zm-.42-.17h14.272v14.294h-14.272V68.734ZM267.355 14.75h-12.99v-13h12.99v13Z" fill="#2A2D36" stroke="#2A2D36" stroke-width=".5"/><path d="M254.435 1.57h-.25v13.36h13.35V1.57h-13.1Zm-.4-.14h13.64v13.64h-13.64V1.43Z" fill="#2A2D36" stroke="#2A2D36" stroke-width=".5"/><g filter="url(#ag)"><path d="M362.019 41.493h-13.236V28.236h13.236v13.257Z" fill="#2A2D36" stroke="#2A2D36"/><mask id="ah" fill="#fff"><path d="M348.621 28.074v13.56h13.56v-13.56h-13.56Zm-.676-.676h14.901V42.32h-14.901V27.398Z"/></mask><path d="M348.621 28.074v13.56h13.56v-13.56h-13.56Zm-.676-.676h14.901V42.32h-14.901V27.398Z" fill="#2A2D36"/><path d="M348.621 28.074v-1h-1v1h1Zm0 13.56h-1v1h1v-1Zm13.56 0v1h1v-1h-1Zm0-13.56h1v-1h-1v1Zm-14.236-.676v-1h-1v1h1Zm14.901 0h1v-1h-1v1Zm0 14.922v1h1v-1h-1Zm-14.901 0h-1v1h1v-1Zm-.324-14.246v13.56h2v-13.56h-2Zm1 14.56h13.56v-2h-13.56v2Zm14.56-1v-13.56h-2v13.56h2Zm-1-14.56h-13.56v2h13.56v-2Zm-14.236 1.324h14.901v-2h-14.901v2Zm13.901-1V42.32h2V27.398h-2Zm1 13.922h-14.901v2h14.901v-2Zm-13.901 1V27.398h-2V42.32h2Z" fill="#2A2D36" mask="url(#ah)"/></g><path d="M375.137 28.24h-12.991V15.25h12.991v12.99Z" fill="#2A2D36" stroke="#2A2D36" stroke-width=".5"/><path d="M362.216 15.07h-.25v13.35h13.35V15.07h-13.1Zm-.39-.14h13.63v13.63h-13.63V14.93Z" fill="#2A2D36" stroke="#2A2D36" stroke-width=".5"/><g filter="url(#ai)"><path d="M361.896 14.67h-13.5V1.18h13.5v13.49Z" fill="#2A2D36"/><path d="M361.396 14.17h-12.5V1.68h12.5v12.49Z" stroke="#2A2D36"/></g><path d="M348.726 1.25h-.25V14.6h13.35V1.25h-13.1Zm-.4-.14h13.64v13.64h-13.64V1.11ZM375.646 96.364H361.9V82.608h13.746v13.756Z" fill="#2A2D36" stroke="#2A2D36" stroke-width=".5"/><path d="M361.979 82.457h-.25v14.07h14.069v-14.07h-13.819Zm-.426-.186h14.431v14.431h-14.421l-.01-14.431Z" fill="#2A2D36" stroke="#2A2D36" stroke-width=".5"/><g filter="url(#aj)"><mask id="ak" fill="#fff"><path d="M78.845 56.12V69h12.85V56.12h-12.85Zm-.65-.64h14.14v14.14h-14.14V55.48Z"/></mask><path d="M78.845 56.12V69h12.85V56.12h-12.85Zm-.65-.64h14.14v14.14h-14.14V55.48Z" fill="#2A2D36"/><path d="M78.845 56.12v-1h-1v1h1Zm0 12.88h-1v1h1v-1Zm12.85 0v1h1v-1h-1Zm0-12.88h1v-1h-1v1Zm-13.5-.64v-1h-1v1h1Zm14.14 0h1v-1h-1v1Zm0 14.14v1h1v-1h-1Zm-14.14 0h-1v1h1v-1Zm-.35-13.5V69h2V56.12h-2Zm1 13.88h12.85v-2h-12.85v2Zm13.85-1V56.12h-2V69h2Zm-1-13.88h-12.85v2h12.85v-2Zm-13.5 1.36h14.14v-2h-14.14v2Zm13.14-1v14.14h2V55.48h-2Zm1 13.14h-14.14v2h14.14v-2Zm-13.14 1V55.48h-2v14.14h2Z" fill="#2A2D36" mask="url(#ak)"/><path d="M91.515 68.79h-12.49V56.3h12.49v12.49Z" fill="#2A2D36" stroke="#2A2D36"/></g><path d="M91.765 55.55h-12.99V42.56h12.99v12.99Z" fill="#2A2D36" stroke="#2A2D36" stroke-width=".5"/><path d="M78.845 42.38h-.25v13.35h13.35V42.38h-13.1Zm-.4-.14h13.64v13.63h-13.64V42.24Z" fill="#2A2D36" stroke="#2A2D36" stroke-width=".5"/><g filter="url(#al)"><path d="M105.006 55.3h-12.49V42.81h12.49V55.3Z" fill="#2A2D36" stroke="#2A2D36"/><mask id="am" fill="#fff"><path d="M92.335 42.63v12.85h12.85V42.63h-12.85Zm-.64-.64h14.15v14.13h-14.15V41.99Z"/></mask><path d="M92.335 42.63v12.85h12.85V42.63h-12.85Zm-.64-.64h14.15v14.13h-14.15V41.99Z" fill="#2A2D36"/><path d="M92.335 42.63v-1h-1v1h1Zm0 12.85h-1v1h1v-1Zm12.85 0v1h1v-1h-1Zm0-12.85h1v-1h-1v1Zm-13.49-.64v-1h-1v1h1Zm14.15 0h1v-1h-1v1Zm0 14.13v1h1v-1h-1Zm-14.15 0h-1v1h1v-1Zm-.36-13.49v12.85h2V42.63h-2Zm1 13.85h12.85v-2h-12.85v2Zm13.85-1V42.63h-2v12.85h2Zm-1-13.85h-12.85v2h12.85v-2Zm-13.49 1.36h14.15v-2h-14.15v2Zm13.15-1v14.13h2V41.99h-2Zm1 13.13h-14.15v2h14.15v-2Zm-13.15 1V41.99h-2v14.13h2Z" fill="#2A2D36" mask="url(#am)"/></g><path d="M51.285 41.75h-13V28.74h13v13.01Z" fill="#2A2D36" stroke="#2A2D36" stroke-width=".5"/><path d="M38.365 28.56h-.25v13.35h13.35V28.56h-13.1Zm-.4-.14h13.63v13.64h-13.63V28.42Z" fill="#2A2D36" stroke="#2A2D36" stroke-width=".5"/><g filter="url(#an)"><path d="M51.535 28.49h-13.5V15h13.5v13.49Z" fill="#2A2D36"/><path d="M51.035 27.99h-12.5V15.5h12.5v12.49Z" stroke="#2A2D36"/></g><path d="M38.365 15.07h-.25v13.35h13.35V15.07h-13.1Zm-.4-.14h13.63v13.63h-13.63V14.93Z" fill="#2A2D36" stroke="#2A2D36" stroke-width=".5"/><g filter="url(#ao)"><path d="M64.525 27.99h-12.49V15.5h12.49v12.49Z" fill="#2A2D36" stroke="#2A2D36"/><mask id="ap" fill="#fff"><path d="M51.845 15.32v12.85h12.85V15.32h-12.85Zm-.64-.64h14.14v14.13h-14.13l-.01-14.13Z"/></mask><path d="M51.845 15.32v12.85h12.85V15.32h-12.85Zm-.64-.64h14.14v14.13h-14.13l-.01-14.13Z" fill="#2A2D36"/><path d="M51.845 15.32v-1h-1v1h1Zm0 12.85h-1v1h1v-1Zm12.85 0v1h1v-1h-1Zm0-12.85h1v-1h-1v1Zm-13.49-.64v-1h-1v1h1Zm14.14 0h1v-1h-1v1Zm0 14.13v1h1v-1h-1Zm-14.13 0h-1v1h1v-1Zm-.37-13.49v12.85h2V15.32h-2Zm1 13.85h12.85v-2h-12.85v2Zm13.85-1V15.32h-2v12.85h2Zm-1-13.85h-12.85v2h12.85v-2Zm-13.49 1.36h14.14v-2h-14.14v2Zm13.14-1v14.13h2V14.68h-2Zm1 13.13h-14.13v2h14.13v-2Zm-13.13 1-.01-14.13h-2l.01 14.13h2Z" fill="#2A2D36" mask="url(#ap)"/></g><path d="M64.775 95.75h-12.99V82.74h12.99v13.01Z" fill="#2A2D36" stroke="#2A2D36" stroke-width=".5"/><path d="M51.845 82.56h-.25v13.35h13.35V82.56h-13.1Zm-.39-.14h13.64v13.63h-13.63l-.01-13.63ZM51.285 109.21h-13V96.25h13v12.96Z" fill="#2A2D36" stroke="#2A2D36" stroke-width=".5"/><path d="M38.365 96.03h-.25v13.35h13.35V96.03h-13.1Zm-.4-.14h13.63v13.64h-13.63V95.89ZM64.775 122.75h-12.99v-13.04h12.99v13.04Z" fill="#2A2D36" stroke="#2A2D36" stroke-width=".5"/><path d="M51.845 109.53h-.25v13.35h13.35v-13.35h-13.1Zm-.39-.15h13.64v13.64h-13.63l-.01-13.64ZM9.416 95.75h-13V82.74h13v13.01Z" fill="#2A2D36" stroke="#2A2D36" stroke-width=".5"/><path d="M-3.514 82.56h-.25v13.35h13.35V82.56h-13.1Zm-.39-.14h13.64v13.63h-13.64V82.42ZM23.975 149.37h-26.28v-26.28h26.28v26.28Z" fill="#2A2D36" stroke="#2A2D36" stroke-width=".5"/><path d="M-2.164 149v.25h26v-26h-25.75v.23h-.25V149Zm-.74-26.54h27.5v27.55h-27.5v-27.55ZM10.377 176.38h-12.99v-12.99h12.99v12.99Z" fill="#2A2D36" stroke="#2A2D36" stroke-width=".5"/><path d="M-2.543 163.21h-.25v13.35h13.35v-13.35h-13.1Zm-.4-.14h13.64v13.68H-2.904l-.039-13.68ZM10.516 41.75h-13V28.74h13v13.01Z" fill="#2A2D36" stroke="#2A2D36" stroke-width=".5"/><path d="M-2.415 28.56h-.25v13.35h13.36V28.56h-13.11Zm-.39-.14h13.64v13.64h-13.64V28.42ZM10.516 68.44h-13v-13h13v13Z" fill="#2A2D36" stroke="#2A2D36" stroke-width=".5"/><path d="M-2.415 55.26h-.25v13.36h13.36V55.26h-13.11Zm-.39-.14h13.64v13.63h-13.64V55.12ZM105.256 14.75h-12.99v-13h12.99v13Z" fill="#2A2D36" stroke="#2A2D36" stroke-width=".5"/><path d="M92.335 1.57h-.25v13.36h13.35V1.57h-13.1Zm-.39-.14h13.65v13.64h-13.65V1.43ZM118.756 28.24h-13V15.25h13v12.99Z" fill="#2A2D36" stroke="#2A2D36" stroke-width=".5"/><path d="M105.846 15.07h-.25v13.35h13.36V15.07h-13.11Zm-.391-.14h13.641v13.63h-13.66l.019-13.63Z" fill="#2A2D36" stroke="#2A2D36" stroke-width=".5"/><g filter="url(#aq)"><path d="M240.898 69.48h-54.953v-55.1h55.044l-.091 55.1Z" fill="#2A2D36"/><path d="m240.739 14.63-.091 54.6h-54.453v-54.6h54.544Z" stroke="#2A2D36" stroke-width=".5"/></g><g filter="url(#ar)"><path d="M321.961 56.11h-41.606V14.405h41.606V56.11Z" fill="#2A2D36"/><path d="M321.711 55.86h-41.106V14.655h41.106V55.86Z" stroke="#2A2D36" stroke-width=".5"/></g><g filter="url(#as)"><path d="M218.146 122.54h-40.49V82.05h40.49v40.49Z" fill="#2A2D36"/><path d="M217.896 122.29h-39.99V82.3h39.99v39.99Z" stroke="#2A2D36" stroke-width=".5"/></g><path d="M177.976 82.13h-.25v40.34h40.37V82.13h-40.12Zm-.39-.15h40.63v40.63h-40.63V81.98Z" fill="#2A2D36" stroke="#2A2D36" stroke-width=".5"/><g filter="url(#at)"><path d="M123.847 136.51h-40.46V96h40.46v40.51Z" fill="#2A2D36"/><path d="M123.597 136.26h-39.96V96.25h39.96v40.01Z" stroke="#2A2D36" stroke-width=".5"/></g><g filter="url(#au)"><path d="M159.967 56.122h-55.041V14.49h55.041v41.632Z" fill="#2A2D36"/><path d="M159.467 55.622h-54.041V14.99h54.041v40.632Z" stroke="#2A2D36"/></g><g filter="url(#av)"><path d="M213.457 190.42h-13.49v-13.5h13.49v13.5Z" fill="#2A2D36"/><path d="M212.957 189.92h-12.49v-12.5h12.49v12.5Z" stroke="#2A2D36"/></g><path d="M200.286 177h-.25v13.35h13.35V177h-13.1Zm-.39-.15h13.64v13.64h-13.64v-13.64ZM307.668 190.17h-12.99v-13h12.99v13Z" fill="#2A2D36" stroke="#2A2D36" stroke-width=".5"/><path d="M294.747 177h-.25v13.35h13.35V177h-13.1Zm-.39-.15h13.63v13.64h-13.63v-13.64Z" fill="#2A2D36" stroke="#2A2D36" stroke-width=".5"/><path d="M172.906 190.49v-13.64h13.64v13.64h-13.64Z" stroke="#2A2D36" stroke-width=".5"/><g filter="url(#aw)" stroke="#2A2D36"><path d="M213.637 190.24V177.1h13.14v13.14h-13.14Z"/><path d="M213.957 189.91v-12.49h12.49v12.49h-12.49Z"/></g><path d="M321.346 177v-13.64h13.64V177h-13.64Z" stroke="#2A2D36" stroke-width=".5"/><path d="M321.666 176.67v-12.99h12.99v12.99h-12.99Z" stroke="#2A2D36" stroke-width=".5"/><g filter="url(#ax)" stroke="#2A2D36"><path d="M335.086 190.24V177.1h13.14v13.14h-13.14Z"/><path d="M335.406 189.91v-12.49h12.49v12.49h-12.49Z"/></g><path d="M65.506 82.54h-.25v40.34h40.34V82.54h-40.09Zm-.39-.14h40.62v40.62h-40.64l.02-40.62Z" fill="#2A2D36" stroke="#2A2D36" stroke-width=".5"/><path d="M134.398 142.101c.48-5.45 3.8-4.65 10.08-4.1 6.28.55 11 5.41 10.5 10.86-.5 5.45-6 9.42-12.24 8.86-6.24-.56-8.82-10.17-8.34-15.62Z" fill="#27272D"/><path d="M177.228 98s-8.71-1.28-13.33-1.67c-4.41-.36-9.67-.57-15.28-.57-5.61 0-10.88.21-15.29.57-4.62.35-13.26 2.17-13.26 2.17v2.09c0 2 12.76 3.81 28.55 3.81 15.79 0 28.61-1.64 28.61-3.63V98Z" fill="#363233"/><path d="M170.157 142.36h-36.89a8.577 8.577 0 0 1-8.57-8.57V99.21h45.46v43.15Z" fill="url(#ay)"/><path d="M170.157 142.36h-36.89a8.577 8.577 0 0 1-8.57-8.57V99.21h45.46v43.15Z" fill="#000" fill-opacity=".2"/><path d="m142.928 175.33.35 2.53h2.16v-1.07l-.47-1.46h-2.04Z" fill="#15191F"/><path d="m145.038 175.31.05-.23h-6.24c-.09 1.68-.18 2.75-.18 2.75h2.15v-1.25l1.65 1.29h5.38v-1.73l-2.81-.83Z" fill="#060608"/><path d="M141.107 147.271c-.25 3.14-3.59 2.65-3.63 5.81 0 0 1.68 14.56.83 22.23h6.77c1-15.06 6.48-14.53 7.64-25.59 0-2.11-5.61-2.57-11.61-2.45Z" fill="#27272D"/><path d="m142.938 175.311.35 2.21h2.15v-1.09l-.28-1.12h-2.22Z" fill="#060608"/><path d="M166.957 121.14a6.188 6.188 0 0 0 1.425-12.237 6.184 6.184 0 0 0-6.4 2.518 6.182 6.182 0 0 0-1.105 3.419v.1a6.15 6.15 0 0 0 6.08 6.19" fill="url(#az)"/><path d="M136.047 132.79c-12.27-2.86-18.77-8.3-18.77-8.3" stroke="#FF9666" stroke-width="6" stroke-miterlimit="10" stroke-linecap="round"/><path d="M128.848 127.26a39.86 39.86 0 0 0-2.35 5.86 93.234 93.234 0 0 0 10.9 3.61l3.89-5.89c-2.98-.7-10.17-2.69-12.44-3.58Z" fill="#F2EDDC"/><path d="M138.338 134.001a48.632 48.632 0 0 1-2.84 7.07c-1.06 2-2.4 3.769-3.49 5.719l23.43 4.55a27.785 27.785 0 0 1 .47-7.449l-5.38-14.7a72.578 72.578 0 0 0-9.66-.92 45.632 45.632 0 0 0-2.53 5.73Z" fill="#F2EDDC"/><path d="M140.528 130.16c-.21-2.32 1.37-.37 3.43 1.7.09.64 1.49 6.26 1.49 6.26a51.03 51.03 0 0 0 5.17-5.33 10.851 10.851 0 0 0 4.15-.5l.88 8.89s1.39 2.86-.22 10.37a57.6 57.6 0 0 1-13-2.19c-6.92-2.17-11.28-7.6-12.83-9.28 1.35-4 5.8-.27 7-2.47-.28-4.22 4.14-5.14 3.93-7.45Z" fill="#EDCF00"/><mask id="aA" style="mask-type:alpha" maskUnits="userSpaceOnUse" x="129" y="129" width="28" height="23"><path d="M140.53 130.158c-.21-2.32 1.37-.37 3.43 1.7.09.64 1.49 6.26 1.49 6.26a51.128 51.128 0 0 0 5.17-5.33 10.851 10.851 0 0 0 4.15-.5l.88 8.89s1.39 2.86-.22 10.37a57.712 57.712 0 0 1-13-2.19c-6.92-2.17-11.28-7.6-12.83-9.28 1.35-4 5.8-.27 7-2.47-.28-4.22 4.14-5.14 3.93-7.45Z" fill="#F7D600"/></mask><g mask="url(#aA)" stroke-miterlimit="10"><path d="M132.74 138.431c5.11 6.64 14 10.27 23.5 10.07" stroke="#E69C31" stroke-width="2"/><path d="M132.229 137.61c7.4 6.82 18.88 7.15 24.54 7.06" stroke="#E69C31" stroke-width="2"/><path d="M145.997 137.149c-2.75 4.66-4.37 12.38-4.37 12.38" stroke="#AD960C"/></g><path d="M115.848 124.46a3.004 3.004 0 0 0-.36-2.84 2.618 2.618 0 0 0-2.65-1 2.34 2.34 0 0 0-1.74 2.17" stroke="#FF9666" stroke-width="6" stroke-miterlimit="10" stroke-linecap="round"/><path d="M154.287 151.55c-18.62-2.37-19-10.43-21.55-13.12-1.11-1.15-7.48-3.49-9.27-4-4.28-1.17-10.66-7.26-10.66-7.26l-3 3.76a25.663 25.663 0 0 0 6.38 7.1c2.52 2.08 8.63 10.32 19.59 13.28 10.89 8.11 17.16 2.81 18.51.24Z" fill="#27272D"/><path d="m110.547 130.4 2.8-3.89-.24-.2 1-2.74a.433.433 0 0 0-.15-.48l-.78-.56a.411.411 0 0 0-.57.09l-2.33 3.25a.378.378 0 0 0-.08.25v1.08a.429.429 0 0 1-.41.43.447.447 0 0 1-.25-.08.405.405 0 0 0-.454-.02.406.406 0 0 0-.116.11l-.9 1.25a.417.417 0 0 0 0 .52c.29.31.83.88 1.55 1.61.07.07.15.14.22.22.3-.24.5-.56.71-.84Z" fill="#060608"/><path d="M170.017 113.67c0 12.48-8.92 19.84-19.94 19.84-11.02 0-19.94-7.36-19.94-19.84s8.92-25.37 19.94-25.37c11.02 0 19.94 12.9 19.94 25.37Z" fill="url(#aB)"/><path d="M168.738 114.7h-24.77a6.121 6.121 0 0 0-6.12 6.12v9a20.994 20.994 0 0 0 12.19 3.67c8.53 0 15.82-4.41 18.66-12.23l.04-6.56Z" fill="#FF9666"/><path d="M146.847 111.86h-22.15V96.19l31.71 6.08a9.624 9.624 0 0 1-2.824 6.773 9.623 9.623 0 0 1-6.776 2.817" fill="url(#aC)"/><path d="M146.847 111.86h-22.15V96.19l31.71 6.08a9.624 9.624 0 0 1-2.824 6.773 9.623 9.623 0 0 1-6.776 2.817" fill="#000" fill-opacity=".2"/><path d="M161.848 111.86h-7V92.42l19.16-1.6-1.6 11.7c0 5.75-4.77 9.34-10.52 9.34" fill="url(#aD)"/><path d="M161.848 111.86h-7V92.42l19.16-1.6-1.6 11.7c0 5.75-4.77 9.34-10.52 9.34" fill="#000" fill-opacity=".2"/><path d="M131.918 121.14a6.188 6.188 0 0 0 1.425-12.237 6.185 6.185 0 0 0-6.4 2.518 6.19 6.19 0 0 0-1.105 3.419v.1a6.12 6.12 0 0 0 6 6.19" fill="url(#aE)"/><path d="M146.157 114.24a2.847 2.847 0 0 0-1.987.867 2.846 2.846 0 0 0-.803 2.013v2.24a2.791 2.791 0 1 0 5.58.18v-2.42a2.813 2.813 0 0 0-.784-2.012 2.813 2.813 0 0 0-1.976-.868M158.678 114.24a2.849 2.849 0 0 0-2.79 2.88v2.24c-.024.74.247 1.459.754 1.999a2.791 2.791 0 0 0 4.826-1.819v-2.42a2.831 2.831 0 0 0-.783-2.012 2.824 2.824 0 0 0-1.977-.868" fill="#262223"/><path d="M152.388 128.39c.989 0 1.938-.393 2.638-1.092a3.734 3.734 0 0 0 1.092-2.638h-7.46a3.778 3.778 0 0 0 3.73 3.73Z" fill="#fff"/><path d="M130.388 115.66a1.754 1.754 0 0 1-1.187-1.584 1.759 1.759 0 0 1 1.037-1.686 2.837 2.837 0 0 1 2.21-.07c1.53.61 2 1.6 2 3.38a4.121 4.121 0 0 1-1 2.74v-.29c0-1.1-1.6-2-3-2.49" fill="#FF9666"/><path d="M148.687 94c15.78 0 28.61 1.64 28.61 3.63v.07a2.061 2.061 0 0 1-2.06 2.06 3.438 3.438 0 0 1-.57-.07 61.45 61.45 0 0 0-10.63-1.53c-4.4-.35-9.66-.57-15.28-.57-5.62 0-10.88.22-15.28.57a61.485 61.485 0 0 0-10.63 1.54h-.11a1.999 1.999 0 0 1-2.52-1.45 1.43 1.43 0 0 1-.11-.54v-.07c0-2 12.8-3.66 28.61-3.66" fill="#FFF100"/><path d="M120.067 100.45v-2.81c0-1.92 11.95-3.52 27-3.63h1.63c15.78 0 28.61 1.64 28.61 3.63v2.81a.549.549 0 0 1-.1.46s-.11-.07-.15-.11a5.673 5.673 0 0 0-2.45-1.06 34.453 34.453 0 0 0-3.76-.74 4.39 4.39 0 0 0-4.19 1.7 6.157 6.157 0 0 1-4.9 2.42h-15.45a9.338 9.338 0 0 1-5.69-1.92l-2.21-1.67a5.102 5.102 0 0 0-3.09-1c-3 0-5 0-5.36.08-2.433.219-4.847.62-7.22 1.2a6.73 6.73 0 0 0-2.56 1.18.635.635 0 0 1-.1-.5" fill="#FFF100"/><path d="M139.847 68a26.281 26.281 0 0 0-17.38 24.7v3.73a62.884 62.884 0 0 1 11.38-1.64v-2.17c0-9.77 2.35-18.55 6.12-24.66" fill="url(#aF)"/><path d="M174.848 92.7a26.133 26.133 0 0 0-6-16.67c1.68 5.372 2.03 10.842 2 16.471 0 1 .07 2 0 3 1.197.171 2.803.548 3.97.87l.03-3.67Z" fill="url(#aG)"/><path d="M168.848 76a26.182 26.182 0 0 0-29-8c-3.76 6.11-6.11 14.89-6.11 24.63v2.17c3.91-.29 8.42-.5 13.25-.53h1.6c7.572-.09 15.139.385 22.64 1.42 0-1 .07-2 .07-3a53.99 53.99 0 0 0-2.45-16.69Z" fill="#FFF100"/><path d="m159.228 77.73-1.67-10.41a2.004 2.004 0 0 0-1.43-1.6 26.311 26.311 0 0 0-14.82 0 1.94 1.94 0 0 0-1.38 1.6l-1.67 10.41" fill="#FFF100"/><path d="M152.688 94.21v-4.83l-6-3.7 6 8.53ZM158.688 85.68l-6 3.7v4.83l6-8.53ZM152.688 80l6 3.49-6-9.78V80ZM152.688 73.7l-6 9.78 6-3.49V73.7ZM152.688 80v7l6-3.48-6-3.52Z" fill="#F9C838"/><path d="m158.688 85.68-6 3.7v4.83l6-8.53Z" fill="#4B4D4D"/><path d="m146.646 83.48 6 3.48V80l-6 3.48Z" fill="#F9C838"/><path d="M152.688 94.21v-4.83l-6-3.7 6 8.53ZM146.646 83.48l6-9.78V87l-6-3.52Z" fill="#0A0A0A"/><path d="M152.688 80v-6.3l6 9.78-6 3.48V80Z" fill="#4B4D4D"/><path d="M158.848 135.8a83.776 83.776 0 0 0 20.49-10.46" stroke="#FF9666" stroke-width="6" stroke-miterlimit="10" stroke-linecap="round"/><path d="M155.158 141.18c-3.86-.48-.34-8.16-.34-8.16l2.5-.23a73.349 73.349 0 0 0 10.07-4.15l2.77 5.94a90.636 90.636 0 0 1-11.31 4.7 36.71 36.71 0 0 0-3.69 1.9Z" fill="#F2EDDC"/><path d="M130.748 142.1c9.52 13.38 7.56 33.25 7.56 33.25h2.22s2.69-19.23-9.78-33.25Z" fill="#2F2F38"/><path d="M180.588 120.8c2.64-1.84 6.7-.24 10.35 1.23.62.25.44 1.57.2 2.15-4.52 1-7.58 3.15-10.84 3.1-2.19 0-1.13-1.55-1.13-3.1l-1.41-.55c-.01-1.56-.47-.53 2.83-2.83Z" fill="#FF9666"/><path d="M188.85 123.101h5.33" stroke="#FF9666" stroke-width="3" stroke-miterlimit="10" stroke-linecap="round"/><path opacity=".997" d="m104.692 128.251-7.739-4.474a4.442 4.442 0 0 0-.016.167c0 .068-.005.127-.007.187-.004.094-.009.184-.009.286.006.313.035.624.088.932.028.163.089.319.177.458.03.052.057.106.08.161a.984.984 0 0 1 .074.359.453.453 0 0 1-.382.472 12.12 12.12 0 0 1-.356-.073.525.525 0 0 1-.215-.446c0-.106.02-.212.055-.312.024-.071.052-.136.082-.203.061-.133.11-.273.144-.416.086-.314.134-.637.144-.963a2.17 2.17 0 0 0-.05-.441l-.067-.319-7.888-4.561a1.03 1.03 0 0 1-.513-.991v-1.373c-.005-.042-.005-.091-.005-.146a1.031 1.031 0 0 1 .518-.895l15.674-9.369.025-.013-.025.014-15.674 9.368 15.705-9.388.006-.003.392-.234.026-.015a1.024 1.024 0 0 1 .721-.099l.042.013a.97.97 0 0 1 .243.099h-.004l.011.005.158.084c.091.046.176.105.275.167 0 0 13.563 7.782 15.57 8.995l.119.069a.207.207 0 0 1 .024.017l.04.026c.01.006.018.014.025.023.129.093.235.215.31.356.074.141.114.298.118.457v2.268l-.162-.08c-.09.14-.212.255-.356.338l-16.344 9.492a1.024 1.024 0 0 1-1.035 0l.001.001Zm-7.72-4.627c.058-.405.186-1.014.44-.998H97.4c-.244 0-.37.598-.426.998Zm.604-.921-.04-.026a.56.56 0 0 0 .04.026Zm9.931-1.681Zm-14.611-.083c-.112-.097-.156-.191-.325-.544.17.357.213.447.325.544Zm-3.528-3.164c.148.086.282.166.34.207-.057-.041-.192-.121-.34-.209l-.064-.037.064.039Zm-.197-.113.12.067-.119-.067-.064-.035.03.016-.042-.026a6.916 6.916 0 0 1-.168-.097l-.013-.008c.082.051.165.096.239.138l-.014-.008.03.018v.002Zm-.549-.353a1.573 1.573 0 0 1 0 .001v-.001Zm33.388-.127h.005-.005Zm.495-1.092v-.008.008Zm-.005-.024v-.011.011Zm-.005-.024-.003-.014.003.014Zm-.006-.024-.004-.018.004.018Zm-.006-.025-.006-.021.006.021Zm-.007-.023c0-.008-.005-.015-.008-.023l.008.025v-.002Zm-.008-.026-.009-.023.009.023Zm-.09-.195a6.864 6.864 0 0 0 0 .003v-.003Zm-15.996-9.462h-.005l.049.028-.044-.028Zm-.438-.255h.005-.005Z" fill="#2A2D36"/><g opacity=".56"><g opacity=".422" fill-rule="evenodd" clip-rule="evenodd" fill="#AC64FF"><path d="M95.626 121.394c-.915-.59-1.928-1.072-2.333-.573-.132.162-.268.228-.398.114-.111-.098-.154-.187-.324-.543l-.094-.195a3.548 3.548 0 0 0-.26-.446l-.025-.039a3.164 3.164 0 0 0-1.343-1.097l-.134-.07a45.039 45.039 0 0 1-1.008-.565c-.056-.042-.19-.121-.339-.208l-.063-.037a6.857 6.857 0 0 0-.134-.076 2.18 2.18 0 0 1-.668-.483 2.862 2.862 0 0 0-.06-.089.707.707 0 0 1-.15-.45v1.434c0 .032-.004.063-.004.096a1.037 1.037 0 0 0 .518.896l7.892 4.564c-.185-.838-.48-1.85-1.073-2.233ZM122.516 116.254a1.081 1.081 0 0 1-.536.948l-1.275.742-1.254 1.1s-1.933-.573-2.56-.18c-.14.088-.391-.064-.614-.202l-.021-.015c-.229-.14-.755.298-1.005.514a.444.444 0 0 0-.136.312.69.69 0 0 1-.311.586 1.028 1.028 0 0 0-.759-.364 6.763 6.763 0 0 0-2.902.486 65.66 65.66 0 0 0-.947.501.184.184 0 0 0-.012.307.386.386 0 0 1 .11.491.385.385 0 0 1-.122.135l-.079.054s-.856-.471-.888-.513c0 0-.162.057-.238.086a.609.609 0 0 1-.083.025 1.76 1.76 0 0 1-1.235-.16.55.55 0 0 0-.421-.152.543.543 0 0 0-.398.205l-.043.04c-.105.089-.087.583-.078.82v.191c0 .016-.297.234-.297.234a1.34 1.34 0 0 1-.66.221 1.307 1.307 0 0 1-.879-.351l-.037-.026a.698.698 0 0 1-.332-.52s.087-1.008-.676-.613c-.112.058-.207.114-.292.164a.857.857 0 0 1-1.013.078c-.6-.291-2.172.813-2.172.813l-.394.244a2.306 2.306 0 0 1-2.357.264.872.872 0 0 1-.064-.041.634.634 0 0 0-.044-.026c-.346-.186-.491.71-.539 1.125l7.739 4.475a1.033 1.033 0 0 0 1.034 0l16.345-9.492c.144-.083.265-.199.355-.338l.163.08v-2.27l-.073.022Z"/></g><g opacity=".317" fill="#AC64FF"><path opacity=".317" d="M105.16 105.93c.01 0 .021 0 .031-.005-.012.003-.022.002-.031.005ZM105.505 105.904c-.03 0-.059-.008-.089-.008.03 0 .059.006.089.008ZM105.947 106.035a.991.991 0 0 0-.273-.108c.094.027.186.063.273.108ZM104.504 106.276l.013-.009.393-.233-16.105 9.625 15.671-9.369.028-.014ZM122.1 115.374c-.012-.007-.02-.017-.031-.024l-.137-.079c.067.041.126.076.168.103ZM106.424 106.311l-.049-.028.006.004.043.024ZM89.17 117.662l-.164-.093.52.3-.16-.094-.064-.037c-.037-.023-.082-.048-.132-.076ZM91.562 119.045a5.369 5.369 0 0 0-.714-.428l-.134-.07-.306-.169 1.154.667ZM95.589 121.373a8.699 8.699 0 0 0-.726-.419l.726.419ZM122.153 115.414c.084.105.159.218.224.337a1.056 1.056 0 0 1-.363 1.424l.056-.033a1.029 1.029 0 0 0 .517-.842 1.026 1.026 0 0 0-.434-.887v.001Z"/><path d="M116.891 118.864c-.141.088-.391-.064-.614-.202l-.024-.015c-.229-.14-.755.298-1.005.514a.444.444 0 0 0-.136.312.69.69 0 0 1-.311.586 1.042 1.042 0 0 0-.759-.364 6.794 6.794 0 0 0-2.902.486c-.369.191-.683.359-.946.502a.168.168 0 0 0-.064.063.191.191 0 0 0-.026.087.182.182 0 0 0 .077.156.376.376 0 0 1 .11.491.385.385 0 0 1-.122.135l-.079.054s-.856-.47-.888-.513c0 0-.162.057-.238.086a.494.494 0 0 1-.083.025 1.757 1.757 0 0 1-1.234-.159.55.55 0 0 0-.422-.153.549.549 0 0 0-.398.205l-.043.04c-.105.089-.087.584-.078.821v.191c0 .016-.297.233-.297.233a1.34 1.34 0 0 1-.66.222 1.312 1.312 0 0 1-.879-.352l-.037-.026a.705.705 0 0 1-.332-.52s.087-1.007-.676-.612c-.112.057-.207.113-.292.163a.85.85 0 0 1-1.013.078c-.6-.29-2.172.813-2.172.813l-.394.245a2.792 2.792 0 0 1-1.682.472l6.417 3.711a1.03 1.03 0 0 0 1.034 0l13.275-7.708c-.608-.147-1.671-.34-2.107-.067Z"/><path opacity=".317" d="M88.533 117.212c.076.095.168.176.272.239l.175.101a1.717 1.717 0 0 1-.447-.34ZM88.44 117.089c-.01-.012-.016-.024-.024-.035.013.024.03.045.045.068l-.022-.033Z"/></g><path opacity=".318" fill-rule="evenodd" clip-rule="evenodd" d="m114.856 119.161-3.551-2.046a.493.493 0 0 0-.492 0l-3.553 2.046a.49.49 0 0 0 0 .85l3.55 2.045a.496.496 0 0 0 .493 0l.4-.231a.446.446 0 0 0 .107-.047l3.039-1.748a.5.5 0 0 0 .251-.431v-.014a.488.488 0 0 0-.244-.424Z" fill="#AC64FF"/><path opacity=".318" d="M110.939 122.159c.035.02.075.031.115.031.04 0 .08-.011.115-.031l3.189-1.843.337-.199-3.525-2.042a.23.23 0 0 0-.229 0l-3.527 2.02.343.22 3.182 1.844Z" fill="#6800E8"/><path opacity=".318" fill-rule="evenodd" clip-rule="evenodd" d="m103.321 119.221-3.55-2.045a.494.494 0 0 0-.492 0l-3.551 2.045a.488.488 0 0 0-.246.426.49.49 0 0 0 .246.425l3.549 2.045a.496.496 0 0 0 .493 0l.401-.231a.5.5 0 0 0 .106-.046l3.039-1.748a.498.498 0 0 0 .25-.432v-.013a.495.495 0 0 0-.245-.426Z" fill="#AC64FF"/><path opacity=".457" fill-rule="evenodd" clip-rule="evenodd" d="m109.043 122.509-3.55-2.045a.496.496 0 0 0-.492 0l-3.551 2.045a.498.498 0 0 0-.245.425.496.496 0 0 0 .245.425l3.549 2.046a.496.496 0 0 0 .493 0l.401-.231a.5.5 0 0 0 .106-.046l3.039-1.748a.502.502 0 0 0 .25-.432v-.014a.49.49 0 0 0-.245-.425Z" fill="#AC64FF"/><path opacity=".318" d="M105.124 125.507a.23.23 0 0 0 .23 0l3.186-1.843.337-.199-3.525-2.042a.23.23 0 0 0-.229 0l-3.527 2.02.343.22 3.185 1.844Z" fill="#6800E8"/><path opacity=".318" fill-rule="evenodd" clip-rule="evenodd" d="M96.525 125.765a1.909 1.909 0 0 0-.081.202.625.625 0 0 0 .16.757c.116.027.235.051.356.074.267-.049.504-.319.307-.829a1.304 1.304 0 0 0-.081-.16 1.26 1.26 0 0 1-.177-.459 5.216 5.216 0 0 1-.08-1.219c0-.059.006-.119.007-.186.019-.23.15-1.511.556-1.293l.044.026.063.041a2.307 2.307 0 0 0 2.358-.264l.394-.244s1.572-1.104 2.172-.813a.855.855 0 0 0 1.013-.079c.085-.049.18-.105.291-.163.764-.395.677.613.677.613a.692.692 0 0 0 .331.519l.038.027c.239.222.552.347.879.351.236-.014.463-.091.66-.222 0 0 .294-.217.296-.233.002-.016 0-.171 0-.187v-.006c-.009-.237-.027-.732.079-.821l.043-.04a.552.552 0 0 1 .398-.205.566.566 0 0 1 .421.153 1.76 1.76 0 0 0 1.235.159.494.494 0 0 0 .083-.025c.076-.029.235-.089.238-.086.032.043.888.513.888.513l.079-.054a.374.374 0 0 0 .122-.134.398.398 0 0 0 .047-.176.389.389 0 0 0-.157-.316.182.182 0 0 1 .012-.306c.263-.143.578-.312.947-.502a6.791 6.791 0 0 1 2.902-.486 1.045 1.045 0 0 1 .759.364.693.693 0 0 0 .311-.586.444.444 0 0 1 .136-.312c.249-.216.776-.654 1.005-.514l.023.015c.223.137.474.291.615.202.626-.394 2.559.18 2.559.18l1.255-1.1 1.274-.741a1.061 1.061 0 0 0 .399-1.45 1.783 1.783 0 0 0-.244-.358c-1.088-.694-15.752-9.11-15.752-9.11-.099-.064-.191-.117-.276-.166l-.158-.085a1.616 1.616 0 0 0-.291-.115 1.053 1.053 0 0 0-.499.009 1.485 1.485 0 0 0-.223.09l-.03.019-.391.233-.013.009-.025.014-15.672 9.369a1.04 1.04 0 0 0-.518.896.734.734 0 0 0 .154.534c.019.028.039.056.06.09.19.202.417.365.669.482l.133.076.064.037c.147.087.283.167.338.208.292.169.647.37 1.008.565l.135.071a3.154 3.154 0 0 1 1.343 1.096l.025.039c.097.142.183.291.26.446l.093.195c.17.355.213.446.324.543.128.114.267.049.398-.114.405-.501 1.418-.019 2.333.574.67.433.959 1.665 1.14 2.548a2.88 2.88 0 0 1-.095 1.401 2.243 2.243 0 0 1-.146.419Z" fill="url(#aH)"/><path fill-rule="evenodd" clip-rule="evenodd" d="M96.525 125.765a1.909 1.909 0 0 0-.081.202.625.625 0 0 0 .16.757c.116.027.235.051.356.074.267-.049.504-.319.307-.829a1.304 1.304 0 0 0-.081-.16 1.26 1.26 0 0 1-.177-.459 5.216 5.216 0 0 1-.08-1.219c0-.059.006-.119.007-.186.019-.23.15-1.511.556-1.293l.044.026.063.041a2.307 2.307 0 0 0 2.358-.264l.394-.244s1.572-1.104 2.172-.813a.855.855 0 0 0 1.013-.079c.085-.049.18-.105.291-.163.764-.395.677.613.677.613a.692.692 0 0 0 .331.519l.038.027c.239.222.552.347.879.351.236-.014.463-.091.66-.222 0 0 .294-.217.296-.233.002-.016 0-.171 0-.187v-.006c-.009-.237-.027-.732.079-.821l.043-.04a.552.552 0 0 1 .398-.205.566.566 0 0 1 .421.153 1.76 1.76 0 0 0 1.235.159.494.494 0 0 0 .083-.025c.076-.029.235-.089.238-.086.032.043.888.513.888.513l.079-.054a.374.374 0 0 0 .122-.134.398.398 0 0 0 .047-.176.389.389 0 0 0-.157-.316.182.182 0 0 1 .012-.306c.263-.143.578-.312.947-.502a6.791 6.791 0 0 1 2.902-.486 1.045 1.045 0 0 1 .759.364.693.693 0 0 0 .311-.586.444.444 0 0 1 .136-.312c.249-.216.776-.654 1.005-.514l.023.015c.223.137.474.291.615.202.626-.394 2.559.18 2.559.18l1.255-1.1 1.274-.741a1.061 1.061 0 0 0 .399-1.45 1.783 1.783 0 0 0-.244-.358c-1.088-.694-15.752-9.11-15.752-9.11-.099-.064-.191-.117-.276-.166l-.158-.085a1.616 1.616 0 0 0-.291-.115 1.053 1.053 0 0 0-.499.009 1.485 1.485 0 0 0-.223.09l-.03.019-.391.233-.013.009-.025.014-15.672 9.369a1.04 1.04 0 0 0-.518.896.734.734 0 0 0 .154.534c.019.028.039.056.06.09.19.202.417.365.669.482l.133.076.064.037c.147.087.283.167.338.208.292.169.647.37 1.008.565l.135.071a3.154 3.154 0 0 1 1.343 1.096l.025.039c.097.142.183.291.26.446l.093.195c.17.355.213.446.324.543.128.114.267.049.398-.114.405-.501 1.418-.019 2.333.574.67.433.959 1.665 1.14 2.548a2.88 2.88 0 0 1-.095 1.401 2.243 2.243 0 0 1-.146.419Z" fill="#AC64FF"/><path opacity=".278" fill-rule="evenodd" clip-rule="evenodd" d="m109.194 109.268-3.55-2.045a.496.496 0 0 0-.492 0l-3.551 2.045a.486.486 0 0 0-.246.425.493.493 0 0 0 .246.426l3.55 2.045a.496.496 0 0 0 .493 0l.4-.231a.531.531 0 0 0 .107-.046l3.039-1.749a.492.492 0 0 0 .25-.431v-.014a.49.49 0 0 0-.246-.425ZM114.917 112.587l-3.551-2.046a.502.502 0 0 0-.492 0l-3.551 2.046a.49.49 0 0 0 0 .851l3.55 2.045a.496.496 0 0 0 .493 0l.4-.231a.446.446 0 0 0 .107-.047l3.039-1.748a.492.492 0 0 0 .25-.431v-.015a.485.485 0 0 0-.245-.424ZM109.163 115.904l-3.551-2.046a.5.5 0 0 0-.491 0l-3.551 2.046a.486.486 0 0 0-.246.425.496.496 0 0 0 .246.425l3.549 2.045a.486.486 0 0 0 .493 0l.4-.23a.52.52 0 0 0 .108-.047l3.038-1.748a.492.492 0 0 0 .25-.431v-.013a.493.493 0 0 0-.245-.426ZM114.855 119.161l-3.55-2.046a.495.495 0 0 0-.492 0l-3.553 2.046a.49.49 0 0 0 0 .85l3.55 2.045a.486.486 0 0 0 .493 0l.4-.23a.542.542 0 0 0 .107-.047l3.039-1.749a.492.492 0 0 0 .25-.431v-.013a.488.488 0 0 0-.244-.425ZM103.32 119.221l-3.55-2.045a.494.494 0 0 0-.492 0l-3.55 2.045a.491.491 0 0 0 0 .85l3.548 2.046a.496.496 0 0 0 .493 0l.401-.231a.531.531 0 0 0 .107-.046l3.038-1.748a.507.507 0 0 0 .251-.432v-.013a.496.496 0 0 0-.246-.426ZM120.579 115.874l-3.552-2.046a.496.496 0 0 0-.492 0l-3.552 2.045a.49.49 0 0 0 0 .85l3.55 2.046a.496.496 0 0 0 .493 0l.4-.231a.531.531 0 0 0 .107-.046l3.039-1.749a.492.492 0 0 0 .25-.431v-.013a.488.488 0 0 0-.243-.425ZM103.473 112.587l-3.55-2.046a.503.503 0 0 0-.492 0l-3.55 2.046a.488.488 0 0 0-.18.671.504.504 0 0 0 .18.18l3.549 2.045a.495.495 0 0 0 .493 0l.4-.231a.484.484 0 0 0 .107-.047l3.039-1.748a.492.492 0 0 0 .25-.431v-.015a.492.492 0 0 0-.246-.424ZM97.688 115.996l-3.55-2.046a.493.493 0 0 0-.492 0l-3.551 2.046a.488.488 0 0 0-.245.425.494.494 0 0 0 .245.425l3.55 2.045a.485.485 0 0 0 .492 0l.4-.23a.517.517 0 0 0 .107-.047l3.04-1.748a.492.492 0 0 0 .25-.431v-.014a.488.488 0 0 0-.246-.425Z" fill="#2A2D36"/><g opacity=".504" fill="#2A2D36"><path opacity=".504" d="M105.276 112.266a.219.219 0 0 0 .23 0l3.189-1.842.337-.199-3.526-2.042a.23.23 0 0 0-.229 0l-3.527 2.021.343.22 3.183 1.842ZM110.999 115.584a.23.23 0 0 0 .23 0l3.186-1.842.337-.199-3.525-2.042a.227.227 0 0 0-.229 0l-3.527 2.02.343.221 3.185 1.842ZM105.246 118.902c.034.02.074.03.114.03.041 0 .081-.01.115-.03l3.186-1.843.337-.198-3.524-2.042a.223.223 0 0 0-.115-.031c-.04 0-.08.01-.115.031l-3.527 2.02.343.22 3.186 1.843ZM110.937 122.158a.223.223 0 0 0 .115.031c.04 0 .08-.01.115-.031l3.189-1.843.337-.198-3.525-2.043a.227.227 0 0 0-.228 0l-3.528 2.02.343.221 3.182 1.843ZM99.4 122.22a.233.233 0 0 0 .231 0l3.185-1.843.337-.198-3.521-2.043a.23.23 0 0 0-.229 0l-3.53 2.021.343.22 3.184 1.843Z"/><path d="M105.124 125.507a.23.23 0 0 0 .23 0l3.186-1.843.337-.199-3.525-2.042a.23.23 0 0 0-.229 0l-3.527 2.02.343.22 3.185 1.844Z"/><path opacity=".504" d="M116.659 118.872a.233.233 0 0 0 .231 0l3.185-1.843.337-.199-3.525-2.042a.23.23 0 0 0-.229 0l-3.527 2.02.343.221 3.185 1.843ZM99.553 115.584a.232.232 0 0 0 .23 0l3.189-1.842.337-.199-3.523-2.042a.23.23 0 0 0-.23 0l-3.529 2.02.343.221 3.183 1.842ZM93.77 118.993a.233.233 0 0 0 .23 0l3.186-1.842.337-.199-3.525-2.042a.229.229 0 0 0-.228 0l-3.528 2.02.344.221 3.184 1.842Z"/></g></g><path d="m284.936 84.24 4 3.6 3.08-3.4-3.87-3.83-3.21 3.63Z" fill="#D8DFE5"/><path d="m311.246 90.84-2.09-4.72-2.75-.83c-1.67-2.92-2.08-5.89-4.65-8.14-2.57-2.25-4.38-3.62-7.87-3-4.38.79-7.65 6.12-7.65 6.12l5.24 5.7s1.77-2.43 2.71-2.14c.94.29 1 3.26 1.09 4.19.56 3.88-.29 10.26-.34 14.18l16.31-11.36Z" fill="#2F2F38"/><path d="m300.846 66.38-2.29-3.38-4.71 2.21 2.2 3.57 4.8-2.4Z" fill="#D8DFE5"/><path d="M276.006 162.93c2.41-1.68 2.36-5.17 1.93-8-.641.07-1.288.07-1.93 0a2.68 2.68 0 0 1-1.1-.31 6.5 6.5 0 0 1-1.23-1.33 4.11 4.11 0 0 0-4.22-1 10.245 10.245 0 0 0-3.87 2.48 5.481 5.481 0 0 0-1.87 2.69c-.25 1.12.36 2.54 1.4 2.61 1.04.07 2-1.46 3.22-1.41 1.22.05 1.8 1.7 2.65 2.71 1.21 1.43 3.17 1.58 4.95 1.59a.156.156 0 0 1 .07-.03Z" fill="url(#aI)"/><path d="M285.916 150.66a7.413 7.413 0 0 0 3.65 2.54c1.152.43 2.345.742 3.56.93 4.05-7.49 1.45-16.85 1.32-17.29a4 4 0 1 0-7.68 2.2c.02.07 1.9 7.09-.85 11.62Z" fill="#F2EDDC"/><path d="M285.937 150.61a7.692 7.692 0 0 1-.69 1c-1.86 2.21-5.11 3.31-9.67 3.27a68.978 68.978 0 0 1-1.2 8h1.37c7 0 12.2-2.05 15.62-6.13a14.76 14.76 0 0 0 1.81-2.7 16.005 16.005 0 0 1-7.24-3.44Z" fill="url(#aJ)"/><path d="m301.536 65.51-7.7 4s5.34 9.46 3.89 18.67a10.272 10.272 0 0 1-.6 3.37 9.924 9.924 0 0 1-2.88 2.78c-4.53 3.53-4.31 6-5.43 11.47 11.09 0 19.15-.32 25.88-.09-.42-32.07-13.16-40.2-13.16-40.2Z" fill="#27272D"/><path d="M289.296 143.32c22.34 2.44 28.35-15 26.6-30.69a201.591 201.591 0 0 0-32.42-4.69s-2.37 6.45-2.24 10.84" fill="#EDCF00"/><mask id="aK" style="mask-type:alpha" maskUnits="userSpaceOnUse" x="281" y="107" width="36" height="37"><path d="M289.296 143.32c22.34 2.44 28.35-15 26.6-30.69a201.703 201.703 0 0 0-32.42-4.69s-2.37 6.45-2.24 10.84" fill="#F7D600"/></mask><g mask="url(#aK)" stroke="#E69C31" stroke-width="2" stroke-miterlimit="10"><path d="M292.137 113.651c10.63-.57 20 .74 25.78 3.23M293.176 116.88c12.11 0 19.07 2 24.21 4.09"/></g><path d="M242.035 121s8.35-3.21 12.85-4.61c4.33-1.32 9.49-2.69 15-3.92s10.84-2.19 15.29-2.81c4.66-.64 13.7-.79 13.7-.79l.5 2.26c.44 2-11.93 6.43-27.62 9.92-15.69 3.49-28.7 4.67-29.14 2.69l-.58-2.74Z" fill="#262223"/><path d="M292.667 104.93h22.1v7.59c-4.32-2-22.63-2.65-22.63-2.65l.53-4.94Z" fill="#F2EDDC"/><path d="M314.896 104.93h-22.23v2.42h22.23v-2.42Z" fill="#0A0A0A"/><path d="m283.846 136.84 11-4.33s3.76 5.85 2.43 8.31c-1.33 2.46-8.48-.37-8.48-.37l-4.95-3.61Z" fill="#F2EDDC"/><path d="m282.146 136.84 9.35-4.33 2.056 3.235a4 4 0 0 1-1.447 5.649l-9.949 5.476-.01-10.03Z" fill="url(#aL)"/><path d="m279.537 82.25-1.15 1.8 5.36 3.41h2l-.57.9 2.5 1.64s.38-.75 1-2l-9.14-5.75Z" fill="#060608"/><path d="m289.176 88.35-1.45 1.65-2.55-1.62.48-.75 1.05-.8 2.47 1.52ZM301.635 61.6l-1.52.72-.75 1.85-4.68 2.52-1.17-1.28c-.33-1.29-.48-2.12-.48-2.12l2.55-1.2.44.93 1.08-1.64 5.36-2.51.91 1.93-1.74.8Z" fill="#060608"/><path d="m300.626 62.07 2.71-1.27-.91-1.93-3.25 1.52.9 1.93.55-.26" fill="#060608"/><path d="M249.006 124.42c.012.072.039.14.08.2l2.43 6.34 22.62-5a11.81 11.81 0 0 1 8.907 1.579 11.784 11.784 0 0 1 5.173 7.421l1.08 4.86a39.623 39.623 0 0 0 5.55-25.54l-45.79 10.18-.05-.04Z" fill="url(#aM)"/><path d="M257.546 141.56a7.107 7.107 0 0 0 5.461-5.711 7.102 7.102 0 0 0-3.189-7.23 7.108 7.108 0 0 0-10.752 7.551 7.111 7.111 0 0 0 8.48 5.39Z" fill="url(#aN)"/><path d="M256.366 144.12c.236.61.503 1.207.8 1.79a13.477 13.477 0 0 0 6.73 6 17.132 17.132 0 0 0 9.72.13c7.15-1.4 11.94-6.87 15.68-12.33l-1.08-4.86a11.85 11.85 0 0 0-14.09-9l-22.62 5 4.86 13.27Z" fill="#FF9666"/><path d="M270.775 145.67a3.779 3.779 0 0 1-4.5-2.86l7.39-1.65a3.726 3.726 0 0 1-.48 2.834 3.744 3.744 0 0 1-2.35 1.656h-.06" fill="#fff"/><path d="M294.197 133.64a7.121 7.121 0 0 0 3.641-1.969 7.127 7.127 0 0 0-5.101-12.147 7.133 7.133 0 0 0-6.565 4.434 7.133 7.133 0 0 0-.385 4.122v.1a7.068 7.068 0 0 0 8.37 5.46h.04Z" fill="url(#aO)"/><path d="M294.166 126a1.792 1.792 0 0 0 .6-2.45 1.82 1.82 0 0 0-.488-.52 1.823 1.823 0 0 0-.652-.29 2.808 2.808 0 0 0-2.2.42c-1.4.92-1.59 2-1.21 3.76.232.994.81 1.873 1.63 2.48l-.07-.28c-.28-1.11 1.12-2.36 2.4-3.16" fill="#FF9666"/><path d="M273.425 128.6a2.88 2.88 0 0 1 2.171.359 2.867 2.867 0 0 1 1.279 1.791l.48 2.18a2.901 2.901 0 0 1-1.168 3.008 2.9 2.9 0 0 1-4.502-1.748l-.48-2.18a2.894 2.894 0 0 1 .392-2.178 2.9 2.9 0 0 1 1.818-1.262" fill="#262223"/><path fill-rule="evenodd" clip-rule="evenodd" d="M293.247 107.889a13.328 13.328 0 0 0-17-8c-.065.031-.132.058-.2.08l-19.2 7.21a13.561 13.561 0 0 0-5.086 3.512l-6.195.998 2.4 10.8c1.24 5.37 6.46 7.7 11.83 6.45l19.92-4.59-.92-4c.438.411.913.78 1.42 1.1 2.06 1.29 7.48 1 7.48 1 .119-.284.286-.56.49-.824l.053.081c.613.945 1.148 1.77 1.536 2.204l5.88-3.38a49.994 49.994 0 0 0-1-7.9l-.088.019a32.976 32.976 0 0 0-1.27-4.76h-.05Z" fill="url(#aP)"/><path fill-rule="evenodd" clip-rule="evenodd" d="M293.247 107.889a13.328 13.328 0 0 0-17-8c-.065.031-.132.058-.2.08l-19.2 7.21a13.561 13.561 0 0 0-5.086 3.512l-6.195.998 2.4 10.8c1.24 5.37 6.46 7.7 11.83 6.45l19.92-4.59-.92-4c.438.411.913.78 1.42 1.1 2.06 1.29 7.48 1 7.48 1 .119-.284.286-.56.49-.824l.053.081c.613.945 1.148 1.77 1.536 2.204l5.88-3.38a49.994 49.994 0 0 0-1-7.9l-.088.019a32.976 32.976 0 0 0-1.27-4.76h-.05Z" fill="#000" fill-opacity=".2"/><path d="M260.617 131.44a2.882 2.882 0 0 1 3.45 2.16l.48 2.19a2.903 2.903 0 0 1-4.353 3.133 2.903 2.903 0 0 1-1.297-1.803v-.07l-.48-2.19a2.926 2.926 0 0 1 2.21-3.44" fill="#262223"/><path d="M269.565 110.69c-15.68 3.48-28.06 7.94-27.62 9.92v.07a2.08 2.08 0 0 0 .92 1.315 2.094 2.094 0 0 0 1.58.275c.185-.047.366-.11.54-.19a68.045 68.045 0 0 1 10.24-3.88c4.33-1.33 9.49-2.69 15-3.92s10.83-2.19 15.28-2.82a67.674 67.674 0 0 1 10.92-.82h.12a2.1 2.1 0 0 0 2.17-2 2.514 2.514 0 0 0-.05-.54v-.1c-.45-2-13.51-.82-29.19 2.67" fill="#FFF100"/><path d="m299.365 110.76-.62-2.76c-.42-1.91-12.64-.87-27.62 2.35l-1.63.36c-15.62 3.47-28 7.93-27.55 9.91l.62 2.78a.645.645 0 0 0 .21.46c.043-.044.083-.091.12-.14a6.244 6.244 0 0 1 2.19-1.61c1.18-.59 2.37-1.11 3.57-1.6a4.518 4.518 0 0 1 4.54.74 6.187 6.187 0 0 0 5.39 1.32l15.3-3.4a9.381 9.381 0 0 0 5.2-3.16l1.81-2.15a5.178 5.178 0 0 1 2.82-1.72c3-.63 5-1.09 5.36-1.12a50.412 50.412 0 0 1 7.46-.38 6.26 6.26 0 0 1 2.82.61.537.537 0 0 0 0-.48" fill="#FFF100"/><path d="M272.545 82.89a26.64 26.64 0 0 1 22.73 20.7l.82 3.67a63.48 63.48 0 0 0-11.64.88c-.12-.7-.28-1.43-.44-2.16-2.11-9.65-6.42-17.87-11.47-23.09Z" fill="url(#aQ)"/><path d="M243.226 115.15a26.577 26.577 0 0 1 2.26-17.87 55.356 55.356 0 0 0 1.2 17c.22 1 .48 2 .74 3a24.675 24.675 0 0 0-3.34 1.55l-.86-3.68Z" fill="url(#aR)"/><path d="M245.486 97.28a26.69 26.69 0 0 1 27.06-14.39c5.06 5.25 9.36 13.43 11.51 23.12.16.72.31 1.42.44 2.15-4 .56-8.47 1.38-13.27 2.41l-1.59.35a159.258 159.258 0 0 0-22.18 6.39c-.29-1-.55-2-.77-3a55.42 55.42 0 0 1-1.2-17" fill="#FFF100"/><path d="m255.485 96.84-.64-10.67a2.004 2.004 0 0 1 1-1.91 26.93 26.93 0 0 1 14.76-3.26 1.997 1.997 0 0 1 1.74 1.29l4 10" fill="#FFF100"/><path d="m265.636 111.77-1.06-4.77 5.18-5-4.12 9.77Z" fill="#F9C838"/><path d="m257.756 104.64 6.82 2.34 1.06 4.79-7.88-7.13ZM262.496 97.65l-5.24 4.77 3.85-11 1.39 6.23Z" fill="#F9C838"/><path d="m261.105 91.41 8.16 8.34-6.77-2.1-1.39-6.24Z" fill="#F9C838"/><path d="m262.496 97.65 1.54 6.94-6.78-2.17 5.24-4.77Z" fill="#F9C838"/><path d="m257.756 104.64 6.82 2.34 1.06 4.79-7.88-7.13Zm-.5-2.22 5.24-4.77 1.54 6.94-6.78-2.17Zm3.85-11 1.39 6.24-5.24 4.77 3.85-11.01Z" fill="#0A0A0A"/><path d="m269.227 99.76-5.23 4.8-1.53-6.9 6.76 2.1Z" fill="#F9C838"/><path d="m265.636 111.77-1.06-4.77 5.18-5-4.12 9.77ZM262.466 97.66l6.76 2.1-5.23 4.8-1.53-6.9Zm0 0-1.39-6.24 8.16 8.34-6.77-2.1Z" fill="#4B4D4D"/><path d="M288.626 162.93c2.42-1.68 2.36-5.17 1.94-8-.642.07-1.289.07-1.93 0a2.632 2.632 0 0 1-1.1-.31 6.191 6.191 0 0 1-1.23-1.33 4.114 4.114 0 0 0-4.22-1 10.155 10.155 0 0 0-3.87 2.48 5.402 5.402 0 0 0-1.87 2.69c-.25 1.12.35 2.54 1.39 2.61 1.04.07 2-1.46 3.22-1.41 1.22.05 1.8 1.7 2.65 2.71 1.21 1.43 3.17 1.58 4.95 1.59l.07-.03Z" fill="#FF9666"/><path d="M298.535 150.66a7.463 7.463 0 0 0 3.65 2.54c1.153.429 2.345.74 3.56.93 4.05-7.49 1.45-16.85 1.33-17.29a4.005 4.005 0 0 0-1.891-2.453 4.008 4.008 0 0 0-3.075-.367 4.01 4.01 0 0 0-2.88 3.448 4 4 0 0 0 .156 1.572c.02.07 1.91 7.09-.85 11.62Z" fill="#F2EDDC"/><path d="M298.566 150.61a7.6 7.6 0 0 1-.7 1c-1.86 2.21-5.11 3.31-9.67 3.27a66.861 66.861 0 0 1-1.2 8h1.37c7 0 12.2-2.05 15.62-6.13a15.412 15.412 0 0 0 1.86-2.75 15.939 15.939 0 0 1-7.28-3.39Z" fill="#FF9666"/><path d="M242.777 159.22h38.87c.501 0 .982.199 1.336.554a1.887 1.887 0 0 1 0 2.673 1.89 1.89 0 0 1-1.336.553h-38.87a1.892 1.892 0 0 1-.725-3.639c.23-.094.476-.142.725-.141Z" fill="#4A4D54"/><path d="m240.656 161.64-11-37.29a1.863 1.863 0 0 1-.067-.735 1.877 1.877 0 0 1 .693-1.272c.193-.157.415-.273.654-.343a1.868 1.868 0 0 1 1.442.149 1.87 1.87 0 0 1 .908 1.131l11 37.29a1.87 1.87 0 0 1-.149 1.443 1.878 1.878 0 0 1-1.131.907 1.889 1.889 0 0 1-2.35-1.28Z" fill="#4A4D54"/><path d="M242.415 162.58a1.54 1.54 0 1 0 .001-3.079 1.54 1.54 0 0 0-.001 3.079Z" fill="#8E9094"/><path d="M308.472 136.163c1.107-3.357-.095-6.771-2.686-7.626-2.591-.855-5.589 1.173-6.697 4.53-1.107 3.356.095 6.771 2.686 7.625 2.591.855 5.589-1.173 6.697-4.529Z" fill="#F2EDDC"/><path d="M313.287 103.23h-1.65v4.49h1.65v-4.49ZM300.666 103.23h-1.65v4.49h1.65v-4.49Z" fill="#312D2E"/><path d="m282.705 84.24 2.48-.62 5 3.17-1 1.55-6.48-4.1Z" fill="#060608"/><path fill-rule="evenodd" clip-rule="evenodd" d="M155.447 43.51c-21.8 2.84-37.37 6.27-37.6-7.78 0 0 .48-5.44 7.15-5.79a5.805 5.805 0 0 1 5.33-5.38c2.74-.3 5.86 2.53 6.2 5.5 0 0 6.74-1.25 7 5.33.1 2.3-.42 6.19-6.93 6 0 0-3.76-.52-4.27-6.34-1.06 11.27 15.23 10.62 15.47.38.1-4.42-2.74-9-9.12-8.12-3.5-8.81-12.82-8.3-16.28-.14a8.548 8.548 0 0 0-8.7 8.39V36c.23 16 22.55 11.2 41.75 7.51Z" fill="#7856A8"/><path d="M206.377 34.58a2.595 2.595 0 0 0-.67 1.14c-.07.271-.1.55-.09.83v6.62c0 .48 0 1-.06 1.45a.67.67 0 0 1-.7.61h-.13a5.174 5.174 0 0 1-.53-.27 2.477 2.477 0 0 1-.89-.9 2.572 2.572 0 0 1-.36-1.33v-7.94c.007-.617.25-1.207.68-1.65.19-.21.41-.4.63-.61l-.14-.11-.94-.54-.76-.45c-.2-.12-.41-.25-.62-.36-.21-.11-.23-.11-.28-.07a4.57 4.57 0 0 0-.66.59c-.14.17-.21.4-.35.57a1.408 1.408 0 0 0-.27.93v6.8c0 .52 0 1-.07 1.56a.611.611 0 0 1-.59.62h-.1a1.225 1.225 0 0 1-.37-.08 2.284 2.284 0 0 1-1.06-.86 2.083 2.083 0 0 1-.3-.6 4.344 4.344 0 0 1-.22-1.07v-6.23a5.9 5.9 0 0 1 .11-2c.08-.23.14-.48.24-.7.218-.386.511-.726.86-1l.14-.12a4.382 4.382 0 0 1-.44-.22c-.3-.18-.58-.38-.88-.56-.3-.18-.4-.21-.59-.31l-.6-.35a.291.291 0 0 0-.4 0c-.26.238-.498.5-.71.78-.266.363-.41.8-.41 1.25v7.55c-.021 1.4.28 2.785.88 4.05.157.315.331.622.52.92.28.36.51.75.8 1.09.205.212.426.41.66.59.447.397.945.733 1.48 1 .24.124.487.234.74.33.12 0 .24.07.37.09.346.1.713.1 1.06 0 .14 0 .27 0 .35.12.036.092.083.18.14.26.24.27.47.55.73.8s.63.59 1 .87c.099.075.206.139.32.19.31.19.6.4.93.57.25.131.515.232.79.3.242.064.49.107.74.13.11 0 .23-.1.34-.1a1.464 1.464 0 0 0 1.08-.73c.2-.278.349-.59.44-.92.111-.383.168-.78.17-1.18v-7.88a2.574 2.574 0 0 1 .4-1.43c.215-.325.481-.612.79-.85l.17-.12-2.67-1.57a3.458 3.458 0 0 0-.7.5Z" fill="#7856A8"/><path d="m221.937 41.07.91-.52 1.24-.7 1.13-.68.81-.45 1.08-.62c.35-.194.646-.472.86-.81a1.42 1.42 0 0 0-.12-1.59 4.48 4.48 0 0 0-.67-.71 9.992 9.992 0 0 0-4.26-2.06.893.893 0 0 1-.41-.18 7.753 7.753 0 0 0-2.46-2 8.67 8.67 0 0 0-.84-.35 8 8 0 0 0-4.52-.25c-.51.16-7 3.57-7.44 3.79l-.22.12 2.68 1.57c.29-.2 5.44-3.09 5.84-3.28a2.473 2.473 0 0 1 2.31.24c.32.19.57.51.5.81a1.08 1.08 0 0 1-.52.63c-.37.25-.79.44-1.18.67-.39.23-.82.5-1.23.74l-.89.51-.77.44-.92.61-.46.26 2.69 1.58s4.82-2.73 5.08-2.89a4.324 4.324 0 0 1 2.14-.5c.471.034.915.229 1.26.55a.595.595 0 0 1 .239.395.6.6 0 0 1-.119.445.883.883 0 0 1-.14.14c-.44.33-.91.62-1.38.91-.27.17-.56.31-.84.47l-1 .54-1.33.75-.36.23c-.25.15-.51.28-.75.45l-.12.1 2.66 1.56c.235-.12.462-.253.68-.4.28-.23.57-.36.84-.52Z" fill="#7856A8"/><path d="M217.267 40.82a3.156 3.156 0 0 0-.6.8c-.151.382-.219.79-.2 1.2v7.34a1.78 1.78 0 0 1-.27 1.08.44.44 0 0 1-.37.24 1.38 1.38 0 0 1-.88-.28 2.383 2.383 0 0 1-.88-1 1.885 1.885 0 0 1-.33-1 .498.498 0 0 0-.29-.49c-.36-.23-.74-.42-1.11-.63l-1.3-.73c.05.44.07.83.13 1.21s.13.62.22.93c.09.31.14.39.21.58.099.293.212.58.34.86.193.346.407.68.64 1a6.29 6.29 0 0 0 1.38 1.54c.258.23.532.44.82.63.255.17.523.32.8.45a3.44 3.44 0 0 0 1.33.34 2 2 0 0 0 1.07-.21c.341-.212.602-.532.74-.91.245-.55.365-1.148.35-1.75v-7.44c-.035-.8.245-1.583.78-2.18.157-.19.351-.347.57-.46l-2.66-1.56a3.106 3.106 0 0 0-.49.44ZM230.996 56.68a6.19 6.19 0 0 0-.61-1.72 5.062 5.062 0 0 0-.8-1.19 5.482 5.482 0 0 0-.74-.77c-.43-.31-.9-.56-1.36-.83-.46-.27-.71-.41-1.07-.61a5.899 5.899 0 0 1-.68-.41 2.926 2.926 0 0 1-.93-1.07 1.885 1.885 0 0 1-.14-.42 2.158 2.158 0 0 1 0-1.33.567.567 0 0 1 .52-.39c.297-.01.59.07.84.23.42.23.83.5 1.25.74.42.24.87.48 1.3.72.43.24.77.48 1.16.7l1.4.79.16.06V48.25a.136.136 0 0 0-.017-.062.134.134 0 0 0-.043-.047l-1.39-.83c-.3-.18-.6-.35-.91-.51-.31-.16-.42-.21-.63-.33-.21-.12-.68-.41-1-.61-.32-.2-.41-.22-.62-.34-.42-.23-.83-.49-1.27-.69-.29-.148-.6-.253-.92-.31a2.2 2.2 0 0 0-1.34.12c-.222.078-.426.2-.6.36-.369.44-.589.986-.63 1.56v1.49c-.02.139-.02.28 0 .42.08.36.16.71.26 1.06.071.294.168.582.29.86.2.4.42.79.66 1.17.173.299.37.583.59.85a8.01 8.01 0 0 0 1.42 1.42c.37.28.75.55 1.14.8.39.25.51.25.75.39.365.194.688.46.95.78.168.208.309.436.42.68a2.5 2.5 0 0 1 .18 1.48.73.73 0 0 1-.86.56h-.07c-.52-.25-1-.54-1.52-.82-.11-.06-.23-.1-.34-.17-.28-.18-.54-.37-.82-.53l-1.81-1-1-.56a2.034 2.034 0 0 0-.26-.13V58.24a.248.248 0 0 0 .11.18l.66.38 1.23.74 1.42.8 1.11.64c.227.1.445.22.65.36.376.251.792.437 1.23.55.45.169.938.21 1.41.12.4-.074.757-.295 1-.62a2.925 2.925 0 0 0 .54-1.69 5.75 5.75 0 0 0-.09-1.94 7.046 7.046 0 0 1-.18-1.08Z" fill="#7856A8"/><path d="M213.657 45.77v-2.9a.234.234 0 0 0-.1-.17l-1.3-.76c-.13-.08-.26-.18-.4-.25l-.81-.44v3c.01.057.043.107.09.14l1.36.8 1.16.58Z" fill="#7856A8"/><path d="M291.846 24.52Z" fill="#4F00A3"/><path d="M309.697 40.27c-3.91 1.3-8.18-.13-11.36-2.3-3-2.07-5.59-5.53-5.19-9.36.4-3.83 3.57-6.24 7.35-6.5a10.82 10.82 0 0 1 6.15 1.52c2.46 1.31 4.42 4.53 3.21 6.74-2.33 4.27-10.18.85-9.56-3.56.055-.549.312-1.058.72-1.43.57-.46.59.16.45.57a2.906 2.906 0 0 0 1.38 3.18c1.35 1 4.32 1.4 5.09-.56 1.31-3.38-6.14-5.92-8.49-3.66-3.61 3.5.06 7.07 3 8.66 2.47 1.34 7 1.89 8.83-.93 2.19-3.52-1.52-7.5-4.16-9.38.32.18.63.37.93.56a13.232 13.232 0 0 0-16.11.64l-.06.06c-.267.234-.527.474-.78.72a12.182 12.182 0 0 0 .25 16.76 20.606 20.606 0 0 0 5.06 3.74c1.31.7 2.28 1 2.24 1.35-.08.58-1.91 0-2.46-.2a21.2 21.2 0 0 1-5.47-2.78c-.15-.11-.28-.24-.42-.36a13.235 13.235 0 0 0 10.09 4.67 13.42 13.42 0 0 0 13.31-12.39 6.39 6.39 0 0 1-4 4.24Z" fill="#7856A8"/><path d="m291.908 24.45-.06.06.06-.06Z" fill="#4F00A3"/><path d="M309.006 28.82c.38-2.52-1.91-4.26-4-5.05-2.49-.92-5.77-.52-7.59 1.54a5.387 5.387 0 0 0-.57 5.49 9.38 9.38 0 0 0 6.08 5.46 10.77 10.77 0 0 0 6.21.22c2.85-.91 3.78-3.89 3.19-6.61a7.489 7.489 0 0 0-.58-1.71c-.36-.75-1.46-2.28.06-.42.162.207.309.424.44.65.311.516.56 1.066.74 1.64a6.11 6.11 0 0 1-2.12 7 8.71 8.71 0 0 1-6 1 11.448 11.448 0 0 1-7.11-3.86c-1.64-1.94-2.76-4.73-2.09-7.28a5.685 5.685 0 0 1 3.82-3.84 8.583 8.583 0 0 1 6.89.81 6.098 6.098 0 0 1 2.5 2.53c.239.494.368 1.033.38 1.58.009.222-.008.443-.05.66 0 .08-.18.31-.16.12" fill="#7856A8"/><path opacity=".4" d="M193.357 113.336a2.408 2.408 0 0 1-1.18-.319l-2.094-1.2a2.43 2.43 0 0 1-.89-.885 2.426 2.426 0 0 1-.326-1.213l.005-8.946-.005-5.052.012.006 4.277 2.534v10.435l4.526 2.495.01.03-3.167 1.802c-.356.202-.758.31-1.168.313Z" fill="#7856A8"/><path opacity=".8" d="M202.318 108.499v-5.124l-.047-.029-4.562-2.594v.095l.012 10.364" fill="#7856A8"/><path d="m202.241 103.346-4.555-2.594 4.543 2.6.012-.006ZM202.287 98.27h.006l.189-.112-.195.112ZM206.768 100.811l-4.45 2.57v5.118l7.646-4.55a2.32 2.32 0 0 0 1.099-2.098v-2.23a2.38 2.38 0 0 0-1.163-2.098l-3.124-1.805-.006 5.093h-.002Z" fill="#7856A8"/><path opacity=".6" d="m202.316 103.375 4.458-2.57.006-5.087-4.458 2.535" fill="#7856A8"/><path opacity=".6" d="M189.176 90.712c-.2.364-.306.772-.307 1.188v3.776l.012.047 4.278 2.535v10.436l4.559 2.511-.006-10.424 4.609 2.594v-5.158" fill="#7856A8"/><path opacity=".8" d="m202.317 98.254 4.458-2.535-6.878-3.985v-.005l-5.404-3.107a2.28 2.28 0 0 0-2.334 0l-2.085 1.189c-.379.216-.693.53-.91.908" fill="#7856A8"/><path d="M0 .236h412v191H0v-191Z" fill="url(#aS)"/></g><path fill="url(#aT)" d="M0-1h412v191H0z"/></g><defs><filter id="U" x="326.586" y="-5.82" width="30.141" height="30.14" filterUnits="userSpaceOnUse" color-interpolation-filters="sRGB"><feFlood flood-opacity="0" result="BackgroundImageFix"/><feColorMatrix in="SourceAlpha" values="0 0 0 0 0 0 0 0 0 0 0 0 0 0 0 0 0 0 127 0" result="hardAlpha"/><feOffset dy="1"/><feGaussianBlur stdDeviation="4"/><feColorMatrix values="0 0 0 0 0.0156863 0 0 0 0 0.0156863 0 0 0 0 0.0196078 0 0 0 0.4 0"/><feBlend in2="BackgroundImageFix" result="effect1_dropShadow_5925_570157"/><feBlend in="SourceGraphic" in2="effect1_dropShadow_5925_570157" result="shape"/></filter><filter id="V" x="326.586" y="34.78" width="30.141" height="30.14" filterUnits="userSpaceOnUse" color-interpolation-filters="sRGB"><feFlood flood-opacity="0" result="BackgroundImageFix"/><feColorMatrix in="SourceAlpha" values="0 0 0 0 0 0 0 0 0 0 0 0 0 0 0 0 0 0 127 0" result="hardAlpha"/><feOffset dy="1"/><feGaussianBlur stdDeviation="4"/><feColorMatrix values="0 0 0 0 0.0156863 0 0 0 0 0.0156863 0 0 0 0 0.0196078 0 0 0 0.4 0"/><feBlend in2="BackgroundImageFix" result="effect1_dropShadow_5925_570157"/><feBlend in="SourceGraphic" in2="effect1_dropShadow_5925_570157" result="shape"/></filter><filter id="W" x="326.516" y="101.86" width="30.141" height="30.14" filterUnits="userSpaceOnUse" color-interpolation-filters="sRGB"><feFlood flood-opacity="0" result="BackgroundImageFix"/><feColorMatrix in="SourceAlpha" values="0 0 0 0 0 0 0 0 0 0 0 0 0 0 0 0 0 0 127 0" result="hardAlpha"/><feOffset dy="1"/><feGaussianBlur stdDeviation="4"/><feColorMatrix values="0 0 0 0 0.0156863 0 0 0 0 0.0156863 0 0 0 0 0.0196078 0 0 0 0.4 0"/><feBlend in2="BackgroundImageFix" result="effect1_dropShadow_5925_570157"/><feBlend in="SourceGraphic" in2="effect1_dropShadow_5925_570157" result="shape"/></filter><filter id="X" x="326.836" y="102.18" width="29.49" height="29.49" filterUnits="userSpaceOnUse" color-interpolation-filters="sRGB"><feFlood flood-opacity="0" result="BackgroundImageFix"/><feColorMatrix in="SourceAlpha" values="0 0 0 0 0 0 0 0 0 0 0 0 0 0 0 0 0 0 127 0" result="hardAlpha"/><feOffset dy="1"/><feGaussianBlur stdDeviation="4"/><feColorMatrix values="0 0 0 0 0.0156863 0 0 0 0 0.0156863 0 0 0 0 0.0196078 0 0 0 0.4 0"/><feBlend in2="BackgroundImageFix" result="effect1_dropShadow_5925_570157"/><feBlend in="SourceGraphic" in2="effect1_dropShadow_5925_570157" result="shape"/></filter><filter id="Y" x="299.596" y="169.6" width="30.141" height="30.14" filterUnits="userSpaceOnUse" color-interpolation-filters="sRGB"><feFlood flood-opacity="0" result="BackgroundImageFix"/><feColorMatrix in="SourceAlpha" values="0 0 0 0 0 0 0 0 0 0 0 0 0 0 0 0 0 0 127 0" result="hardAlpha"/><feOffset dy="1"/><feGaussianBlur stdDeviation="4"/><feColorMatrix values="0 0 0 0 0.0156863 0 0 0 0 0.0156863 0 0 0 0 0.0196078 0 0 0 0.4 0"/><feBlend in2="BackgroundImageFix" result="effect1_dropShadow_5925_570157"/><feBlend in="SourceGraphic" in2="effect1_dropShadow_5925_570157" result="shape"/></filter><filter id="aa" x="326.586" y="115.68" width="30.141" height="30.13" filterUnits="userSpaceOnUse" color-interpolation-filters="sRGB"><feFlood flood-opacity="0" result="BackgroundImageFix"/><feColorMatrix in="SourceAlpha" values="0 0 0 0 0 0 0 0 0 0 0 0 0 0 0 0 0 0 127 0" result="hardAlpha"/><feOffset dy="1"/><feGaussianBlur stdDeviation="4"/><feColorMatrix values="0 0 0 0 0.0156863 0 0 0 0 0.0156863 0 0 0 0 0.0196078 0 0 0 0.4 0"/><feBlend in2="BackgroundImageFix" result="effect1_dropShadow_5925_570157"/><feBlend in="SourceGraphic" in2="effect1_dropShadow_5925_570157" result="shape"/></filter><filter id="ac" x="339.947" y="102.18" width="30.141" height="30.14" filterUnits="userSpaceOnUse" color-interpolation-filters="sRGB"><feFlood flood-opacity="0" result="BackgroundImageFix"/><feColorMatrix in="SourceAlpha" values="0 0 0 0 0 0 0 0 0 0 0 0 0 0 0 0 0 0 127 0" result="hardAlpha"/><feOffset dy="1"/><feGaussianBlur stdDeviation="4"/><feColorMatrix values="0 0 0 0 0.0156863 0 0 0 0 0.0156863 0 0 0 0 0.0196078 0 0 0 0.4 0"/><feBlend in2="BackgroundImageFix" result="effect1_dropShadow_5925_570157"/><feBlend in="SourceGraphic" in2="effect1_dropShadow_5925_570157" result="shape"/></filter><filter id="ae" x="326.527" y="48.316" width="30" height="30.011" filterUnits="userSpaceOnUse" color-interpolation-filters="sRGB"><feFlood flood-opacity="0" result="BackgroundImageFix"/><feColorMatrix in="SourceAlpha" values="0 0 0 0 0 0 0 0 0 0 0 0 0 0 0 0 0 0 127 0" result="hardAlpha"/><feOffset dy="1"/><feGaussianBlur stdDeviation="4"/><feColorMatrix values="0 0 0 0 0.0156863 0 0 0 0 0.0156863 0 0 0 0 0.0196078 0 0 0 0.4 0"/><feBlend in2="BackgroundImageFix" result="effect1_dropShadow_5925_570157"/><feBlend in="SourceGraphic" in2="effect1_dropShadow_5925_570157" result="shape"/></filter><filter id="af" x="340.123" y="61.819" width="30.113" height="30.113" filterUnits="userSpaceOnUse" color-interpolation-filters="sRGB"><feFlood flood-opacity="0" result="BackgroundImageFix"/><feColorMatrix in="SourceAlpha" values="0 0 0 0 0 0 0 0 0 0 0 0 0 0 0 0 0 0 127 0" result="hardAlpha"/><feOffset dy="1"/><feGaussianBlur stdDeviation="4"/><feColorMatrix values="0 0 0 0 0.0156863 0 0 0 0 0.0156863 0 0 0 0 0.0196078 0 0 0 0.4 0"/><feBlend in2="BackgroundImageFix" result="effect1_dropShadow_5925_570157"/><feBlend in="SourceGraphic" in2="effect1_dropShadow_5925_570157" result="shape"/></filter><filter id="ag" x="339.945" y="20.398" width="30.9" height="30.921" filterUnits="userSpaceOnUse" color-interpolation-filters="sRGB"><feFlood flood-opacity="0" result="BackgroundImageFix"/><feColorMatrix in="SourceAlpha" values="0 0 0 0 0 0 0 0 0 0 0 0 0 0 0 0 0 0 127 0" result="hardAlpha"/><feOffset dy="1"/><feGaussianBlur stdDeviation="4"/><feColorMatrix values="0 0 0 0 0.0156863 0 0 0 0 0.0156863 0 0 0 0 0.0196078 0 0 0 0.4 0"/><feBlend in2="BackgroundImageFix" result="effect1_dropShadow_5925_570157"/><feBlend in="SourceGraphic" in2="effect1_dropShadow_5925_570157" result="shape"/></filter><filter id="ai" x="340.396" y="-5.82" width="29.5" height="29.49" filterUnits="userSpaceOnUse" color-interpolation-filters="sRGB"><feFlood flood-opacity="0" result="BackgroundImageFix"/><feColorMatrix in="SourceAlpha" values="0 0 0 0 0 0 0 0 0 0 0 0 0 0 0 0 0 0 127 0" result="hardAlpha"/><feOffset dy="1"/><feGaussianBlur stdDeviation="4"/><feColorMatrix values="0 0 0 0 0.0156863 0 0 0 0 0.0156863 0 0 0 0 0.0196078 0 0 0 0.4 0"/><feBlend in2="BackgroundImageFix" result="effect1_dropShadow_5925_570157"/><feBlend in="SourceGraphic" in2="effect1_dropShadow_5925_570157" result="shape"/></filter><filter id="aj" x="70.195" y="48.48" width="30.141" height="30.14" filterUnits="userSpaceOnUse" color-interpolation-filters="sRGB"><feFlood flood-opacity="0" result="BackgroundImageFix"/><feColorMatrix in="SourceAlpha" values="0 0 0 0 0 0 0 0 0 0 0 0 0 0 0 0 0 0 127 0" result="hardAlpha"/><feOffset dy="1"/><feGaussianBlur stdDeviation="4"/><feColorMatrix values="0 0 0 0 0.0156863 0 0 0 0 0.0156863 0 0 0 0 0.0196078 0 0 0 0.4 0"/><feBlend in2="BackgroundImageFix" result="effect1_dropShadow_5925_570157"/><feBlend in="SourceGraphic" in2="effect1_dropShadow_5925_570157" result="shape"/></filter><filter id="al" x="83.695" y="34.99" width="30.15" height="30.13" filterUnits="userSpaceOnUse" color-interpolation-filters="sRGB"><feFlood flood-opacity="0" result="BackgroundImageFix"/><feColorMatrix in="SourceAlpha" values="0 0 0 0 0 0 0 0 0 0 0 0 0 0 0 0 0 0 127 0" result="hardAlpha"/><feOffset dy="1"/><feGaussianBlur stdDeviation="4"/><feColorMatrix values="0 0 0 0 0.0156863 0 0 0 0 0.0156863 0 0 0 0 0.0196078 0 0 0 0.4 0"/><feBlend in2="BackgroundImageFix" result="effect1_dropShadow_5925_570157"/><feBlend in="SourceGraphic" in2="effect1_dropShadow_5925_570157" result="shape"/></filter><filter id="an" x="30.035" y="8" width="29.5" height="29.49" filterUnits="userSpaceOnUse" color-interpolation-filters="sRGB"><feFlood flood-opacity="0" result="BackgroundImageFix"/><feColorMatrix in="SourceAlpha" values="0 0 0 0 0 0 0 0 0 0 0 0 0 0 0 0 0 0 127 0" result="hardAlpha"/><feOffset dy="1"/><feGaussianBlur stdDeviation="4"/><feColorMatrix values="0 0 0 0 0.0156863 0 0 0 0 0.0156863 0 0 0 0 0.0196078 0 0 0 0.4 0"/><feBlend in2="BackgroundImageFix" result="effect1_dropShadow_5925_570157"/><feBlend in="SourceGraphic" in2="effect1_dropShadow_5925_570157" result="shape"/></filter><filter id="ao" x="43.205" y="7.68" width="30.141" height="30.13" filterUnits="userSpaceOnUse" color-interpolation-filters="sRGB"><feFlood flood-opacity="0" result="BackgroundImageFix"/><feColorMatrix in="SourceAlpha" values="0 0 0 0 0 0 0 0 0 0 0 0 0 0 0 0 0 0 127 0" result="hardAlpha"/><feOffset dy="1"/><feGaussianBlur stdDeviation="4"/><feColorMatrix values="0 0 0 0 0.0156863 0 0 0 0 0.0156863 0 0 0 0 0.0196078 0 0 0 0.4 0"/><feBlend in2="BackgroundImageFix" result="effect1_dropShadow_5925_570157"/><feBlend in="SourceGraphic" in2="effect1_dropShadow_5925_570157" result="shape"/></filter><filter id="aq" x="165.945" y="-1.621" width="95.045" height="95.101" filterUnits="userSpaceOnUse" color-interpolation-filters="sRGB"><feFlood flood-opacity="0" result="BackgroundImageFix"/><feColorMatrix in="SourceAlpha" values="0 0 0 0 0 0 0 0 0 0 0 0 0 0 0 0 0 0 127 0" result="hardAlpha"/><feOffset dy="4"/><feGaussianBlur stdDeviation="10"/><feColorMatrix values="0 0 0 0 0 0 0 0 0 0 0 0 0 0 0 0 0 0 0.05 0"/><feBlend in2="BackgroundImageFix" result="effect1_dropShadow_5925_570157"/><feColorMatrix in="SourceAlpha" values="0 0 0 0 0 0 0 0 0 0 0 0 0 0 0 0 0 0 127 0" result="hardAlpha"/><feOffset dy="2"/><feGaussianBlur stdDeviation="2.5"/><feColorMatrix values="0 0 0 0 0 0 0 0 0 0 0 0 0 0 0 0 0 0 0.05 0"/><feBlend in2="effect1_dropShadow_5925_570157" result="effect2_dropShadow_5925_570157"/><feBlend in="SourceGraphic" in2="effect2_dropShadow_5925_570157" result="shape"/></filter><filter id="ar" x="260.355" y="-1.595" width="81.606" height="81.705" filterUnits="userSpaceOnUse" color-interpolation-filters="sRGB"><feFlood flood-opacity="0" result="BackgroundImageFix"/><feColorMatrix in="SourceAlpha" values="0 0 0 0 0 0 0 0 0 0 0 0 0 0 0 0 0 0 127 0" result="hardAlpha"/><feOffset dy="4"/><feGaussianBlur stdDeviation="10"/><feColorMatrix values="0 0 0 0 0 0 0 0 0 0 0 0 0 0 0 0 0 0 0.05 0"/><feBlend in2="BackgroundImageFix" result="effect1_dropShadow_5925_570157"/><feColorMatrix in="SourceAlpha" values="0 0 0 0 0 0 0 0 0 0 0 0 0 0 0 0 0 0 127 0" result="hardAlpha"/><feOffset dy="2"/><feGaussianBlur stdDeviation="2.5"/><feColorMatrix values="0 0 0 0 0 0 0 0 0 0 0 0 0 0 0 0 0 0 0.05 0"/><feBlend in2="effect1_dropShadow_5925_570157" result="effect2_dropShadow_5925_570157"/><feBlend in="SourceGraphic" in2="effect2_dropShadow_5925_570157" result="shape"/></filter><filter id="as" x="157.656" y="66.05" width="80.49" height="80.49" filterUnits="userSpaceOnUse" color-interpolation-filters="sRGB"><feFlood flood-opacity="0" result="BackgroundImageFix"/><feColorMatrix in="SourceAlpha" values="0 0 0 0 0 0 0 0 0 0 0 0 0 0 0 0 0 0 127 0" result="hardAlpha"/><feOffset dy="4"/><feGaussianBlur stdDeviation="10"/><feColorMatrix values="0 0 0 0 0 0 0 0 0 0 0 0 0 0 0 0 0 0 0.05 0"/><feBlend in2="BackgroundImageFix" result="effect1_dropShadow_5925_570157"/><feColorMatrix in="SourceAlpha" values="0 0 0 0 0 0 0 0 0 0 0 0 0 0 0 0 0 0 127 0" result="hardAlpha"/><feOffset dy="2"/><feGaussianBlur stdDeviation="2.5"/><feColorMatrix values="0 0 0 0 0 0 0 0 0 0 0 0 0 0 0 0 0 0 0.05 0"/><feBlend in2="effect1_dropShadow_5925_570157" result="effect2_dropShadow_5925_570157"/><feBlend in="SourceGraphic" in2="effect2_dropShadow_5925_570157" result="shape"/></filter><filter id="at" x="63.387" y="80.001" width="80.461" height="80.51" filterUnits="userSpaceOnUse" color-interpolation-filters="sRGB"><feFlood flood-opacity="0" result="BackgroundImageFix"/><feColorMatrix in="SourceAlpha" values="0 0 0 0 0 0 0 0 0 0 0 0 0 0 0 0 0 0 127 0" result="hardAlpha"/><feOffset dy="4"/><feGaussianBlur stdDeviation="10"/><feColorMatrix values="0 0 0 0 0 0 0 0 0 0 0 0 0 0 0 0 0 0 0.05 0"/><feBlend in2="BackgroundImageFix" result="effect1_dropShadow_5925_570157"/><feColorMatrix in="SourceAlpha" values="0 0 0 0 0 0 0 0 0 0 0 0 0 0 0 0 0 0 127 0" result="hardAlpha"/><feOffset dy="2"/><feGaussianBlur stdDeviation="2.5"/><feColorMatrix values="0 0 0 0 0 0 0 0 0 0 0 0 0 0 0 0 0 0 0.05 0"/><feBlend in2="effect1_dropShadow_5925_570157" result="effect2_dropShadow_5925_570157"/><feBlend in="SourceGraphic" in2="effect2_dropShadow_5925_570157" result="shape"/></filter><filter id="au" x="96.926" y="7.49" width="71.041" height="57.632" filterUnits="userSpaceOnUse" color-interpolation-filters="sRGB"><feFlood flood-opacity="0" result="BackgroundImageFix"/><feColorMatrix in="SourceAlpha" values="0 0 0 0 0 0 0 0 0 0 0 0 0 0 0 0 0 0 127 0" result="hardAlpha"/><feOffset dy="1"/><feGaussianBlur stdDeviation="4"/><feColorMatrix values="0 0 0 0 0.0156863 0 0 0 0 0.0156863 0 0 0 0 0.0196078 0 0 0 0.4 0"/><feBlend in2="BackgroundImageFix" result="effect1_dropShadow_5925_570157"/><feBlend in="SourceGraphic" in2="effect1_dropShadow_5925_570157" result="shape"/></filter><filter id="av" x="191.967" y="169.92" width="29.49" height="29.5" filterUnits="userSpaceOnUse" color-interpolation-filters="sRGB"><feFlood flood-opacity="0" result="BackgroundImageFix"/><feColorMatrix in="SourceAlpha" values="0 0 0 0 0 0 0 0 0 0 0 0 0 0 0 0 0 0 127 0" result="hardAlpha"/><feOffset dy="1"/><feGaussianBlur stdDeviation="4"/><feColorMatrix values="0 0 0 0 0.0156863 0 0 0 0 0.0156863 0 0 0 0 0.0196078 0 0 0 0.4 0"/><feBlend in2="BackgroundImageFix" result="effect1_dropShadow_5925_570157"/><feBlend in="SourceGraphic" in2="effect1_dropShadow_5925_570157" result="shape"/></filter><filter id="aw" x="205.137" y="169.6" width="30.141" height="30.14" filterUnits="userSpaceOnUse" color-interpolation-filters="sRGB"><feFlood flood-opacity="0" result="BackgroundImageFix"/><feColorMatrix in="SourceAlpha" values="0 0 0 0 0 0 0 0 0 0 0 0 0 0 0 0 0 0 127 0" result="hardAlpha"/><feOffset dy="1"/><feGaussianBlur stdDeviation="4"/><feColorMatrix values="0 0 0 0 0.0156863 0 0 0 0 0.0156863 0 0 0 0 0.0196078 0 0 0 0.4 0"/><feBlend in2="BackgroundImageFix" result="effect1_dropShadow_5925_570157"/><feBlend in="SourceGraphic" in2="effect1_dropShadow_5925_570157" result="shape"/></filter><filter id="ax" x="326.586" y="169.6" width="30.141" height="30.14" filterUnits="userSpaceOnUse" color-interpolation-filters="sRGB"><feFlood flood-opacity="0" result="BackgroundImageFix"/><feColorMatrix in="SourceAlpha" values="0 0 0 0 0 0 0 0 0 0 0 0 0 0 0 0 0 0 127 0" result="hardAlpha"/><feOffset dy="1"/><feGaussianBlur stdDeviation="4"/><feColorMatrix values="0 0 0 0 0.0156863 0 0 0 0 0.0156863 0 0 0 0 0.0196078 0 0 0 0.4 0"/><feBlend in2="BackgroundImageFix" result="effect1_dropShadow_5925_570157"/><feBlend in="SourceGraphic" in2="effect1_dropShadow_5925_570157" result="shape"/></filter><linearGradient id="ay" x1="115.774" y1="114.424" x2="130.292" y2="91.392" gradientUnits="userSpaceOnUse"><stop stop-color="#461E76"/><stop offset="1" stop-color="#7A3BC4"/></linearGradient><linearGradient id="az" x1="167.067" y1="115.521" x2="167.067" y2="121.141" gradientUnits="userSpaceOnUse"><stop stop-color="#F78250"/><stop offset="1" stop-color="#FF9666"/></linearGradient><linearGradient id="aB" x1="150.077" y1="112.985" x2="150.077" y2="133.51" gradientUnits="userSpaceOnUse"><stop stop-color="#F78250"/><stop offset="1" stop-color="#FF9666"/></linearGradient><linearGradient id="aC" x1="120.047" y1="111.636" x2="130.385" y2="93.356" gradientUnits="userSpaceOnUse"><stop stop-color="#461E76"/><stop offset="1" stop-color="#7A3BC4"/></linearGradient><linearGradient id="aD" x1="174.333" y1="112.973" x2="159.054" y2="113.854" gradientUnits="userSpaceOnUse"><stop stop-color="#461E76"/><stop offset="1" stop-color="#7A3BC4"/></linearGradient><linearGradient id="aE" x1="132.028" y1="115.521" x2="132.028" y2="121.141" gradientUnits="userSpaceOnUse"><stop stop-color="#F78250"/><stop offset="1" stop-color="#FF9666"/></linearGradient><linearGradient id="aF" x1="131.217" y1="67.96" x2="131.217" y2="96.43" gradientUnits="userSpaceOnUse"><stop stop-color="#FFF100"/><stop offset="1" stop-color="#EDCF00"/></linearGradient><linearGradient id="aG" x1="171.848" y1="76.03" x2="171.848" y2="96.37" gradientUnits="userSpaceOnUse"><stop stop-color="#FFF100"/><stop offset="1" stop-color="#EDCF00"/></linearGradient><linearGradient id="aH" x1="105.403" y1="131.92" x2="105.403" y2="107.876" gradientUnits="userSpaceOnUse"><stop stop-color="#5B00CB"/><stop offset="1" stop-color="#5100B4"/></linearGradient><linearGradient id="aI" x1="270.912" y1="158.019" x2="270.912" y2="162.96" gradientUnits="userSpaceOnUse"><stop stop-color="#F78250"/><stop offset="1" stop-color="#FF9666"/></linearGradient><linearGradient id="aJ" x1="283.777" y1="157.309" x2="283.777" y2="162.88" gradientUnits="userSpaceOnUse"><stop stop-color="#F78250"/><stop offset="1" stop-color="#FF9666"/></linearGradient><linearGradient id="aL" x1="288.991" y1="140.351" x2="288.991" y2="146.87" gradientUnits="userSpaceOnUse"><stop stop-color="#F78250"/><stop offset="1" stop-color="#FF9666"/></linearGradient><linearGradient id="aM" x1="272.073" y1="128.225" x2="272.073" y2="139.82" gradientUnits="userSpaceOnUse"><stop stop-color="#F78250"/><stop offset="1" stop-color="#FF9666"/></linearGradient><linearGradient id="aN" x1="256.005" y1="135.273" x2="256.005" y2="141.729" gradientUnits="userSpaceOnUse"><stop stop-color="#F78250"/><stop offset="1" stop-color="#FF9666"/></linearGradient><linearGradient id="aO" x1="292.773" y1="127.314" x2="292.773" y2="133.791" gradientUnits="userSpaceOnUse"><stop stop-color="#F78250"/><stop offset="1" stop-color="#FF9666"/></linearGradient><linearGradient id="aP" x1="296.505" y1="130.865" x2="256.869" y2="135.032" gradientUnits="userSpaceOnUse"><stop stop-color="#461E76"/><stop offset="1" stop-color="#7A3BC4"/></linearGradient><linearGradient id="aQ" x1="284.32" y1="82.89" x2="284.32" y2="108.14" gradientUnits="userSpaceOnUse"><stop stop-color="#FFF100"/><stop offset="1" stop-color="#EDCF00"/></linearGradient><linearGradient id="aR" x1="245.006" y1="97.28" x2="245.006" y2="118.83" gradientUnits="userSpaceOnUse"><stop stop-color="#FFF100"/><stop offset="1" stop-color="#EDCF00"/></linearGradient><linearGradient id="aS" x1="412.658" y1="96.236" x2="-10.129" y2="95.736" gradientUnits="userSpaceOnUse"><stop offset=".035" stop-color="#181A1F"/><stop offset=".156" stop-color="#181A1F" stop-opacity="0"/><stop offset=".472" stop-color="#181A1F" stop-opacity="0"/><stop offset=".82" stop-color="#181A1F" stop-opacity="0"/><stop offset=".931" stop-color="#181A1F" stop-opacity=".864"/><stop offset="1" stop-color="#181A1F"/></linearGradient><linearGradient id="aT" x1="411.094" y1="94" x2="7.094" y2="95" gradientUnits="userSpaceOnUse"><stop offset=".092" stop-color="#181A1F" stop-opacity=".8"/><stop offset=".265" stop-color="#181A1F" stop-opacity="0"/><stop offset=".472" stop-color="#181A1F" stop-opacity="0"/><stop offset=".807" stop-color="#181A1F" stop-opacity="0"/><stop offset=".912" stop-color="#181A1F" stop-opacity=".864"/><stop offset="1" stop-color="#181A1F"/></linearGradient><clipPath id="a"><path fill="#fff" d="M0 0h412v191H0z"/></clipPath><clipPath id="b"><path fill="#fff" transform="translate(-.094 -1)" d="M0 0h412v191H0z"/></clipPath></defs></svg>