<svg width="520" height="190" fill="none" xmlns="http://www.w3.org/2000/svg" xmlns:xlink="http://www.w3.org/1999/xlink"><g clip-path="url(#a)"><path d="M86.201 1.5h427.63M7.9 15h481M19.852 28.49h469.06M3.63 42h504.581M15.49 55.51h472.62M5.89 69h507.461M15.49 82.47h489M15.49 96h501M7.9 109.45h496.44M18.24 123h495.21M17 149.94h490.79M14.182 163.43h484.65M7.9 136.44h490.93M7.9 176.38h496.44M86.201 189.87h427.63M132.682-6.22v194.79M146.172 6.82v181.75M159.662 1.38v181.67M173.162 7.41v181.16M105.691 6.82v181.75M119.182 1.38v181.67M92.191 6.82v181.75M186.65 6.19v176.86M200.15-6.22v194.79M213.641 6.19v181.75M227.131 6.19v182.38M240.631-6.22v194.79M254.121 6.82V182.4M267.611-6.22V182.4M281.111 1.38v187.19M294.602 11.09v177.48M308.102 11.09v177.48M321.592-6.22v194.79M335.082-6.22V182.4M348.551-6.22l.06 194.79M362.072 4.16v184.41M375.572 4.16v184.41M402.512-6.22l.06 194.79M416.002 4.16v184.41M429.531 4.16v184.41M456.502 4.16v184.41M443.002 4.16v184.41M470.002-6.22v194.79M483.512 4.16v184.41M497.002 4.16v184.41M51.371 4.16v184.41M37.912 4.16v184.41M64.861-6.22l.06 194.79M24.361 4.16v184.41M78.38 4.16v184.41" stroke="#F2F2F2"/><path d="M389.39 14.68h-14.14v14.14h14.14V14.68Z" fill="#fff"/><path d="M389.06 15h-13.49v13.49h13.49V15Z" stroke="#F8F2FF"/><path d="M402.88 1.18h-14.14v14.14h14.14V1.18Z" fill="#fff"/><path d="M402.551 1.5h-13.49v13.49h13.49V1.5Z" stroke="#F8F2FF"/><path d="M402.88 28.17h-14.14v14.14h14.14V28.17Z" fill="#fff"/><path d="M402.551 28.49h-13.49v13.49h13.49V28.49Z" stroke="#F8F2FF"/><path d="M402.88 41.78h-14.14v14.14h14.14V41.78Z" fill="#fff"/><path d="M402.551 42.1h-13.49v13.49h13.49V42.1Z" stroke="#F8F2FF"/><path d="M402.81 68.65h-14.14v14.14h14.14V68.65Z" fill="#fff"/><path d="M402.48 68.97h-13.49v13.49h13.49V68.97Z" stroke="#F8F2FF"/><path d="M402.81 82.02h-14.14v14.14h14.14V82.02Z" fill="#fff"/><path d="M402.48 82.34h-13.49v13.49h13.49V82.34Z" stroke="#F8F2FF"/><path d="M402.81 95.35h-14.14v14.14h14.14V95.35Z" fill="#fff"/><path d="M402.48 95.67h-13.49v13.49h13.49V95.67Z" stroke="#F8F2FF"/><path d="M402.81 108.86h-14.14V123h14.14v-14.14Z" fill="#fff"/><path d="M402.48 109.18h-13.49v13.49h13.49v-13.49Z" stroke="#F8F2FF"/><path d="M159.992 149.62h-14.14v14.14h14.14v-14.14Z" fill="#fff"/><path d="M159.662 149.94h-13.49v13.49h13.49v-13.49Z" stroke="#F8F2FF"/><path d="M146.492 163.11h-14.14v14.14h14.14v-14.14Z" fill="#fff"/><path d="M146.172 163.43h-13.49v13.49h13.49v-13.49Z" stroke="#F8F2FF"/><path d="M133.001 136.12h-14.14v14.14h14.14v-14.14Z" fill="#fff"/><path d="M132.672 136.44h-13.49v13.49h13.49v-13.49Z" stroke="#F8F2FF"/><path d="M159.992 176.6h-14.14v14.14h14.14V176.6Z" fill="#fff"/><path d="M159.662 176.92h-13.49v13.49h13.49v-13.49Z" stroke="#F8F2FF"/><path d="M227.46 149.62h-14.14v14.14h14.14v-14.14Z" fill="#fff"/><path d="M227.131 149.94h-13.49v13.49h13.49v-13.49Z" stroke="#F8F2FF"/><path d="M213.96 163.11h-14.14v14.14h14.14v-14.14Z" fill="#fff"/><path d="M213.64 163.43h-13.49v13.49h13.49v-13.49Z" stroke="#F8F2FF"/><path d="M227.46 176.6h-14.14v14.14h14.14V176.6Z" fill="#fff"/><path d="M227.131 176.92h-13.49v13.49h13.49v-13.49Z" stroke="#F8F2FF"/><path d="M375.57 190.42h-13.5v-13.5h13.5v13.5Z" fill="#F8F2FF"/><path d="M362.39 177.25v12.85h12.86v-12.85h-12.86Zm-.64-.65h14.14v14.14h-14.14V176.6Z" fill="#FBFAFC"/><path d="M416.691 190.42h-13.49v-13.5h13.49v13.5Z" fill="#F8F2FF"/><path d="M403.521 177.25v12.85h12.85v-12.85h-12.85Zm-.64-.65h14.12v14.14h-14.12V176.6Z" fill="#FBFAFC"/><path d="M430.502 176.61h-13.5v-13.5h13.5v13.5Z" fill="#F8F2FF"/><path d="M417.331 163.43v12.86h12.85v-12.86h-12.85Zm-.64-.64h14.13v14.14h-14.13v-14.14Z" fill="#FBFAFC"/><path d="M402.551 163.43h-13.49v-13.49h13.49v13.49Z" fill="#F8F2FF"/><path d="M389.38 150.26v12.85h12.85v-12.85h-12.85Zm-.64-.64h14.14v14.13h-14.14v-14.13Z" fill="#FBFAFC"/><path d="M389.06 149.94h-13.49v-13.5h13.49v13.5Z" fill="#F8F2FF"/><path d="M375.89 136.76v12.86h12.85v-12.86h-12.85Zm-.64-.64h14.13v14.14h-14.13v-14.14Z" fill="#FBFAFC"/><path d="M415.922 149.94h-13.49v-13.5h13.49v13.5Z" fill="#F8F2FF"/><path d="M402.752 136.76v12.86h12.85v-12.86h-12.85Zm-.65-.64h14.14v14.14h-14.14v-14.14Z" fill="#FBFAFC"/><path d="M402.551 136.49h-13.49V123h13.49v13.49Z" fill="#F8F2FF"/><path d="M389.38 123.32v12.85h12.85v-12.85h-12.85Zm-.64-.64h14.14v14.13h-14.14v-14.13Z" fill="#FBFAFC"/><path d="M429.412 136.49h-13.49V123h13.49v13.49Z" fill="#F8F2FF"/><path d="M416.242 123.32v12.85h12.85v-12.85h-12.85Zm-.64-.64h14.14v14.13h-14.14v-14.13Z" fill="#FBFAFC"/><path d="M415.922 123h-13.49v-13.5h13.49V123Z" fill="#F8F2FF"/><path d="M402.752 109.82v12.86h12.85v-12.86h-12.85Zm-.65-.64h14.14v14.14h-14.14v-14.14Z" fill="#FBFAFC"/><path d="M253.801 163.49h-13.49V150h13.49v13.49Z" fill="#F8F2FF"/><path d="M240.63 150.31v12.86h12.85v-12.86h-12.85Zm-.64-.64h14.13v14.14H240l-.01-14.14Z" fill="#FBFAFC"/><path d="M267.43 177.11h-13.5v-13.49h13.5v13.49Z" fill="#F8F2FF"/><path d="M254.249 163.94v12.85h12.86v-12.85h-12.86Zm-.64-.64h14.14v14.13h-14.14V163.3Z" fill="#FBFAFC"/><path d="M281.74 162.8h-13.49v-13.5h13.49v13.5Z" fill="#F8F2FF"/><path d="M268.57 149.62v12.85h12.85v-12.85h-12.85Zm-.64-.64h14.13v14.14h-14.13v-14.14Z" fill="#FBFAFC"/><path d="M105.689 176.31h-13.5v-13.49h13.5v13.49Z" fill="#F8F2FF"/><path d="M92.52 163.14V176h12.849v-12.86h-12.85Zm-.65-.64h14.129v14.13h-14.13V162.5Z" fill="#FBFAFC"/><path d="M448.611 166h-13.49v-13.53h13.49V166Z" fill="#F8F2FF"/><path d="M435.441 152.79v12.85h12.85v-12.85h-12.85Zm-.64-.64h14.13v14.13h-14.13v-14.13Z" fill="#FBFAFC"/><path d="M119.179 189.55h-13.49v-13.49h13.49v13.49Z" fill="#F8F2FF"/><path d="M105.999 176.38v12.85h12.85v-12.85h-12.85Zm-.64-.64h14.14v14.13h-14.13l-.01-14.13Z" fill="#FBFAFC"/><path d="M119.179 163.43h-13.49v-13.49h13.49v13.49Z" fill="#F8F2FF"/><path d="M105.999 150.26v12.85h12.85v-12.85h-12.85Zm-.64-.64h14.14v14.13h-14.13l-.01-14.13Z" fill="#FBFAFC"/><path d="M294.631 95.84h-13.5v-13.5h13.5v13.5Z" fill="#F8F2FF"/><path d="M281.461 82.67v12.85h12.85V82.67h-12.85Zm-.65-.65h14.19v14.14h-14.19V82.02Z" fill="#FBFAFC"/><path d="M469.79 122.7h-26.12V96.58h26.12v26.12Z" fill="#F8F2FF"/><path d="M444.291 97.2v24.87h24.87V97.2h-24.87Zm-1.24-1.2h27.36v27.36h-27.36V96Z" fill="#FBFAFC"/><path d="M469.311 177.11h-13.5v-13.49h13.5v13.49Z" fill="#F8F2FF"/><path d="M456.13 163.94v12.85H469v-12.85h-12.87Zm-.64-.64h14.14v14.13h-14.14V163.3Z" fill="#FBFAFC"/><path d="M483.621 162.8h-13.49v-13.5h13.49v13.5Z" fill="#F8F2FF"/><path d="M470.451 149.62v12.85h12.85v-12.85h-12.85Zm-.64-.64h14.13v14.14h-14.13v-14.14Z" fill="#FBFAFC"/><path d="M470.09 55.47V69h-13.5V55.47h13.5Z" fill="#F8F2FF"/><path d="M456.91 68.64h12.86V55.79h-12.86v12.85Zm-.64.64V55.14h14.14v14.14h-14.14Z" fill="#FBFAFC"/><path d="M483.711 41.83v13.49h-13.49V41.83h13.49Z" fill="#F8F2FF"/><path d="M470.54 55h12.85V42.15h-12.85V55Zm-.64.64V41.51H484v14.13h-14.1Z" fill="#FBFAFC"/><path d="M470.09 28.34v13.49h-13.5V28.34h13.5Z" fill="#F8F2FF"/><path d="M456.91 41.51h12.86V28.66h-12.86v12.85Zm-.64.64V28h14.14v14.15h-14.14Z" fill="#FBFAFC"/><path d="M496.51 95.84H483v-13.5h13.5l.01 13.5Z" fill="#F8F2FF"/><path d="M483.339 82.67v12.85h12.85V82.67h-12.85Zm-.65-.65h14.14v14.14h-14.14V82.02Z" fill="#FBFAFC"/><path d="M402.16 69.07h-13.49v-13.5h13.49v13.5Z" fill="#F8F2FF"/><path d="M389 55.9v12.85h12.85V55.9H389Zm-.64-.65h14.13v14.14h-14.14l.01-14.14Z" fill="#FBFAFC"/><path d="M416.691 55.8h-13.49V42.31h13.49V55.8Z" fill="#F8F2FF"/><path d="M403.521 42.63v12.85h12.85V42.63h-12.85Zm-.64-.64h14.12v14.13h-14.12V41.99Z" fill="#FBFAFC"/><path d="M416.691 82.77h-13.49V69.28h13.49v13.49Z" fill="#F8F2FF"/><path d="M403.521 69.6v12.85h12.85V69.6h-12.85Zm-.64-.64h14.12V83.1h-14.12V68.96Z" fill="#FBFAFC"/><path d="M321.76 15h-13.49V1.5h13.49V15Z" fill="#F8F2FF"/><path d="M308.589 1.82v12.86h12.85V1.82h-12.85Zm-.65-.64h14.14v14.14h-14.14V1.18Z" fill="#FBFAFC"/><path d="M416.691 42h-13.49V28.49h13.49V42Z" fill="#F8F2FF"/><path d="M403.521 28.81v12.85h12.85V28.81h-12.85Zm-.64-.64h14.12v14.14h-14.12V28.17Z" fill="#FBFAFC"/><path d="M429.541 28.49h-13.49V15h13.49v13.49Z" fill="#F8F2FF"/><path d="M416.37 15.32v12.85h12.85V15.32h-12.85Zm-.64-.64h14.13v14.13h-14.13V14.68Z" fill="#FBFAFC"/><path d="M416.051 14.67h-13.5V1.18h13.5v13.49Z" fill="#F8F2FF"/><path d="M402.88 1.5v12.85h12.85V1.5h-12.85Zm-.65-.64h14.14V15h-14.14V.86Z" fill="#FBFAFC"/><path d="M430.179 95.84h-13.49v-13.5h13.49v13.5Z" fill="#F8F2FF"/><path d="M416.999 82.67v12.85h12.85V82.67h-12.85Zm-.64-.65h14.14v14.14h-14.13l-.01-14.14Z" fill="#FBFAFC"/><path d="M146.17 69.29h-13.49V55.8h13.49v13.49Z" fill="#F8F2FF"/><path d="M133 56.12V69h12.85V56.12H133Zm-.65-.64h14.14v14.14h-14.14V55.48Z" fill="#FBFAFC"/><path d="M146.17 55.8h-13.49V42.31h13.49V55.8Z" fill="#F8F2FF"/><path d="M133 42.63v12.85h12.85V42.63H133Zm-.65-.64h14.14v14.13h-14.14V41.99Z" fill="#FBFAFC"/><path d="M159.66 55.8h-13.49V42.31h13.49V55.8Z" fill="#F8F2FF"/><path d="M146.49 42.63v12.85h12.85V42.63h-12.85Zm-.64-.64H160v14.13h-14.15V41.99Z" fill="#FBFAFC"/><path d="M105.689 42h-13.5V28.49h13.5V42Z" fill="#F8F2FF"/><path d="M92.52 28.81v12.85h12.849V28.81h-12.85Zm-.65-.64h14.129v14.14h-14.13V28.17Z" fill="#FBFAFC"/><path d="M105.689 28.49h-13.5V15h13.5v13.49Z" fill="#F8F2FF"/><path d="M92.52 15.32v12.85h12.849V15.32h-12.85Zm-.65-.64h14.129v14.13h-14.13V14.68Z" fill="#FBFAFC"/><path d="M119.179 28.49h-13.49V15h13.49v13.49Z" fill="#F8F2FF"/><path d="M105.999 15.32v12.85h12.85V15.32h-12.85Zm-.64-.64h14.14v14.13h-14.13l-.01-14.13Z" fill="#FBFAFC"/><path d="M119.179 96h-13.49V82.49h13.49V96Z" fill="#F8F2FF"/><path d="M105.999 82.81v12.85h12.85V82.81h-12.85Zm-.64-.64h14.14V96.3h-14.13l-.01-14.13Z" fill="#FBFAFC"/><path d="M105.689 109.46h-13.5V96h13.5v13.46Z" fill="#F8F2FF"/><path d="M92.52 96.28v12.85h12.849V96.28h-12.85Zm-.65-.64h14.129v14.14h-14.13V95.64Z" fill="#FBFAFC"/><path d="M119.179 123h-13.49v-13.54h13.49V123Z" fill="#F8F2FF"/><path d="M105.999 109.78v12.85h12.85v-12.85h-12.85Zm-.64-.65h14.14v14.14h-14.13l-.01-14.14Z" fill="#FBFAFC"/><path d="M63.82 96h-13.5V82.49h13.5V96Z" fill="#F8F2FF"/><path d="M50.64 82.81v12.85h12.85V82.81H50.64Zm-.64-.64h14.14V96.3H50V82.17Z" fill="#FBFAFC"/><path d="M51.4 82.47H37.91V69H51.4v13.47Z" fill="#F8F2FF"/><path d="M38.23 69.29v12.86h12.85V69.29H38.23Zm-.64-.64h14.13v14.14H37.59V68.65Z" fill="#FBFAFC"/><path d="M78.38 149.62H51.6v-26.78h26.78v26.78Z" fill="#F8F2FF"/><path d="M52.24 123.48V149h25.5v-25.5h-25.5v-.02ZM51 122.21h28v28.05H51v-28.05Z" fill="#FBFAFC"/><path d="M64.781 176.63h-13.49v-13.49h13.49v13.49Z" fill="#F8F2FF"/><path d="M51.61 163.46v12.85h12.85v-12.85H51.61Zm-.65-.64H65.1V177H51l-.04-14.18Z" fill="#FBFAFC"/><path d="M37.82 176.63H24.33v-13.49h13.49v13.49Z" fill="#F8F2FF"/><path d="M24.65 163.46v12.85H37.5v-12.85H24.65Zm-.64-.64h14.13V177H24l.01-14.18Z" fill="#FBFAFC"/><path d="M51.4 68.69H37.91v-13.5H51.4v13.5Z" fill="#F8F2FF"/><path d="M38.23 55.51v12.86h12.85V55.51H38.23Zm-.64-.64h14.13V69H37.59V54.87Z" fill="#FBFAFC"/><path d="M38.19 55.47h-13.5V42h13.5v13.47Z" fill="#F8F2FF"/><path d="M25 42.3v12.85h12.87V42.3H25Zm-.64-.64h14.15v14.13H24.37l-.01-14.13Z" fill="#FBFAFC"/><path d="M64.92 42h-13.5V28.49h13.5V42Z" fill="#F8F2FF"/><path d="M51.74 28.81v12.85H64.6V28.81H51.74Zm-.64-.64h14.14v14.14H51.1V28.17Z" fill="#FBFAFC"/><path d="M64.92 68.69h-13.5v-13.5h13.5v13.5Z" fill="#F8F2FF"/><path d="M51.74 55.51v12.86H64.6V55.51H51.74Zm-.64-.64h14.14V69H51.1V54.87Z" fill="#FBFAFC"/><path d="M159.66 15h-13.49V1.5h13.49V15Z" fill="#F8F2FF"/><path d="M146.49 1.82v12.86h12.85V1.82h-12.85Zm-.64-.64H160v14.14h-14.15V1.18Z" fill="#FBFAFC"/><path d="M173.16 28.49h-13.5V15h13.5v13.49Z" fill="#F8F2FF"/><path d="M160 15.32v12.85h12.86V15.32H160Zm-.64-.64h14.14v14.13h-14.16l.02-14.13Z" fill="#FBFAFC"/><path fill="url(#b)" d="M225.531 4.88h84.96v85.44h-84.96z"/><path d="M294.912 68.52h-53.91V14.68h54l-.09 53.84Z" fill="#F8F2FF"/><path d="M241.291 15v53.2h53.3V15h-53.3Zm-.65-.64h54.59v54.48h-54.59V14.36Z" fill="#F8F2FF"/><path fill="url(#c)" d="M319.611 4.88h71.52v72h-71.52z"/><path d="M375.421 55.16h-40.48V14.67h40.48v40.49Z" fill="#F8F2FF"/><path d="M335.261 15v39.84h39.84V15h-39.84Zm-.64-.65h41.12v41.13h-41.12V14.35Z" fill="#F8F2FF"/><path d="M272.301 122.54h-40.49V82.05h40.49v40.49Z" fill="#FBFAFC"/><path d="M232.13 82.38v39.84H272V82.38h-39.87Zm-.64-.65h41.13v41.13h-41.13V81.73ZM178.001 136.51h-40.46V96h40.46v40.51Z" fill="#FBFAFC"/><path d="M137.861 96.35v39.84h39.84V96.35h-39.84Zm-.64-.65h41.12v41.13h-41.12V95.7Z" fill="#FBFAFC"/><path fill="url(#d)" d="M143.451 4.88h85.44v72h-85.44z"/><path d="M213.002 55.19h-53.92V14.64h53.92v40.55Z" fill="#F8F2FF"/><path d="M159.402 15v39.87h53.28V15h-53.28Zm-.64-.64h54.56v41.15h-54.56V14.36ZM267.611 190.42h-13.49v-13.5h13.49v13.5Z" fill="#F8F2FF"/><path d="M254.441 177.25v12.85h12.85v-12.85h-12.85Zm-.64-.65h14.14v14.14h-14.14V176.6Z" fill="#FBFAFC"/><path d="M362.072 190.42h-13.49v-13.5h13.49v13.5Z" fill="#F8F2FF"/><path d="M348.902 177.25v12.85h12.85v-12.85h-12.85Zm-.64-.65h14.13v14.14h-14.13V176.6Z" fill="#FBFAFC"/><path d="M240.951 176.6h-14.14v14.14h14.14V176.6Z" fill="#fff"/><path d="M240.621 176.92h-13.49v13.49h13.49v-13.49Z" stroke="#F8F2FF"/><path d="M281.431 176.6h-14.14v14.14h14.14V176.6Z" fill="#fff"/><path d="M281.101 176.92h-13.49v13.49h13.49v-13.49Z" stroke="#F8F2FF"/><path d="M389.39 163.11h-14.14v14.14h14.14v-14.14Z" fill="#fff"/><path d="M389.06 163.43h-13.49v13.49h13.49v-13.49Z" stroke="#F8F2FF"/><path d="M402.88 176.6h-14.14v14.14h14.14V176.6Z" fill="#fff"/><path d="M402.551 176.92h-13.49v13.49h13.49v-13.49Z" stroke="#F8F2FF"/><path d="M321.911 42.31v39.84h39.84V42.31h-39.84Zm-.64-.65h41.121v41.13h-41.121V41.66ZM200.47 69.29v39.84h39.84V69.29h-39.84Zm-.65-.64H241v41.13h-41.18V68.65ZM119.66 82.79v39.84h39.84V82.79h-39.84Zm-.64-.64h41.12v41.12H119l.02-41.12Z" fill="#FBFAFC"/><path d="M188.55 142.1c.48-5.45 3.8-4.65 10.08-4.1 6.28.55 11 5.41 10.5 10.86-.5 5.45-6 9.42-12.24 8.86-6.24-.56-8.82-10.17-8.34-15.62Z" fill="#312D2E"/><path d="M231.381 98s-8.71-1.28-13.33-1.67c-4.41-.36-9.67-.57-15.28-.57-5.61 0-10.88.21-15.29.57-4.62.35-13.26 2.17-13.26 2.17v2.09c0 2 12.76 3.81 28.55 3.81 15.79 0 28.61-1.64 28.61-3.63V98Z" fill="#363233"/><path d="M224.31 142.36h-36.89a8.579 8.579 0 0 1-8.57-8.57V99.21h45.46v43.15Z" fill="#4F00A3"/><path d="m197.08 175.33.35 2.53h2.16v-1.07l-.47-1.46h-2.04Z" fill="#15191F"/><path d="m199.19 175.31.05-.23H193c-.09 1.68-.18 2.75-.18 2.75h2.15v-1.25l1.65 1.29H202v-1.73l-2.81-.83Z" fill="#0A0A0A"/><path d="M195.261 147.27c-.25 3.14-3.59 2.65-3.63 5.81 0 0 1.68 14.56.83 22.23h6.77c1-15.06 6.48-14.53 7.64-25.59 0-2.11-5.61-2.57-11.61-2.45Z" fill="#312D2E"/><path d="m197.09 175.31.35 2.21h2.15v-1.09l-.28-1.12h-2.22Z" fill="#0A0A0A"/><path d="M221.111 121.14a6.188 6.188 0 0 0 4.563-10.488 6.194 6.194 0 0 0-10.643 4.188v.1a6.15 6.15 0 0 0 6.08 6.19" fill="#FB7E51"/><path d="M190.2 132.79c-12.27-2.86-18.77-8.3-18.77-8.3" stroke="#FF8F66" stroke-width="10" stroke-miterlimit="10" stroke-linecap="round"/><path d="M183 127.26a39.815 39.815 0 0 0-2.35 5.86 93.422 93.422 0 0 0 10.9 3.61l3.89-5.89c-2.98-.7-10.17-2.69-12.44-3.58Z" fill="#F2EDDC"/><path d="M192.49 134a48.52 48.52 0 0 1-2.84 7.07c-1.06 2-2.4 3.77-3.49 5.72l23.43 4.55a27.795 27.795 0 0 1 .47-7.45l-5.38-14.7a72.745 72.745 0 0 0-9.66-.92 45.842 45.842 0 0 0-2.53 5.73Z" fill="#F2EDDC"/><path d="M194.68 130.16c-.21-2.32 1.37-.37 3.43 1.7.09.64 1.49 6.26 1.49 6.26a51.026 51.026 0 0 0 5.17-5.33 10.849 10.849 0 0 0 4.15-.5l.88 8.89s1.39 2.86-.22 10.37a57.712 57.712 0 0 1-13-2.19c-6.92-2.17-11.28-7.6-12.83-9.28 1.35-4 5.8-.27 7-2.47-.28-4.22 4.14-5.14 3.93-7.45Z" fill="#EDCF00"/><path d="M186.891 138.43c5.11 6.64 14 10.27 23.5 10.07" stroke="#E69C31" stroke-width="3.5" stroke-miterlimit="10"/><path d="M186.381 137.61c7.4 6.82 18.88 7.15 24.54 7.06" stroke="#E69C31" stroke-width="3.5" stroke-miterlimit="10"/><path d="M200.151 137.15c-2.75 4.66-4.37 12.38-4.37 12.38" stroke="#AD960C" stroke-miterlimit="10"/><path d="M170 124.46c.181-.466.243-.97.181-1.466a3 3 0 0 0-.541-1.374 2.615 2.615 0 0 0-2.65-1 2.341 2.341 0 0 0-1.74 2.17" stroke="#FF8F66" stroke-width="10" stroke-miterlimit="10" stroke-linecap="round"/><path d="M208.441 151.55c-18.62-2.37-19-10.43-21.55-13.12-1.11-1.15-7.48-3.49-9.27-4-4.28-1.17-10.66-7.26-10.66-7.26l-3 3.76a25.663 25.663 0 0 0 6.38 7.1c2.52 2.08 8.63 10.32 19.59 13.28 10.89 8.11 17.16 2.81 18.51.24Z" fill="#312D2E"/><path d="m164.701 130.4 2.8-3.89-.24-.2 1-2.74a.425.425 0 0 0 .002-.264.425.425 0 0 0-.152-.216l-.78-.56a.411.411 0 0 0-.57.09l-2.33 3.25a.377.377 0 0 0-.08.25v1.08a.428.428 0 0 1-.41.43.466.466 0 0 1-.25-.08.392.392 0 0 0-.304-.076.39.39 0 0 0-.266.166l-.9 1.25a.423.423 0 0 0 0 .52c.29.31.83.88 1.55 1.61.07.07.15.14.22.22.3-.24.5-.56.71-.84Z" fill="#0A0A0A"/><path d="M224.171 113.67c0 12.48-8.92 19.84-19.94 19.84-11.02 0-19.94-7.36-19.94-19.84s8.92-25.37 19.94-25.37c11.02 0 19.94 12.9 19.94 25.37Z" fill="url(#e)"/><path d="M222.89 114.7h-24.77c-1.623 0-3.18.645-4.327 1.793A6.117 6.117 0 0 0 192 120.82v9a21.005 21.005 0 0 0 12.19 3.67c8.53 0 15.82-4.41 18.66-12.23l.04-6.56Z" fill="#FF8F66"/><path d="M201 111.86h-22.15V96.19l31.71 6.08a9.632 9.632 0 0 1-9.6 9.59" fill="#4F00A3"/><path d="M216 111.86h-7V92.42l19.16-1.6-1.6 11.7c0 5.75-4.77 9.34-10.52 9.34" fill="#4F00A3"/><path d="M186.071 121.14a6.196 6.196 0 0 0 5.785-3.719 6.191 6.191 0 0 0-10.761-6.001 6.194 6.194 0 0 0-1.104 3.42v.1a6.12 6.12 0 0 0 6 6.19" fill="#FB7E51"/><path d="M200.311 114.24a2.85 2.85 0 0 0-2.79 2.88v2.24a2.79 2.79 0 1 0 5.58.18v-2.42a2.824 2.824 0 0 0-1.685-2.643 2.825 2.825 0 0 0-1.075-.237M212.831 114.24a2.849 2.849 0 0 0-2.79 2.88v2.24a2.791 2.791 0 1 0 5.58.18v-2.42a2.827 2.827 0 0 0-1.686-2.643 2.82 2.82 0 0 0-1.074-.237" fill="#262223"/><path d="M206.541 128.39a3.73 3.73 0 0 0 3.73-3.73h-7.46a3.779 3.779 0 0 0 3.73 3.73Z" fill="#fff"/><path d="M184.54 115.66a1.766 1.766 0 0 1-1.187-1.584 1.762 1.762 0 0 1 1.037-1.686 2.837 2.837 0 0 1 2.21-.07c1.53.61 2 1.6 2 3.38a4.121 4.121 0 0 1-1 2.74v-.29c0-1.1-1.6-2-3-2.49" fill="#FF8F66"/><path d="M202.84 94c15.78 0 28.61 1.64 28.61 3.63v.07a2.058 2.058 0 0 1-2.06 2.06 3.402 3.402 0 0 1-.57-.07 61.488 61.488 0 0 0-10.63-1.53c-4.4-.35-9.66-.57-15.28-.57-5.62 0-10.88.22-15.28.57A61.457 61.457 0 0 0 177 99.7h-.11a2.002 2.002 0 0 1-2.52-1.45 1.41 1.41 0 0 1-.11-.54v-.07c0-2 12.8-3.66 28.61-3.66" fill="#FFF100"/><path d="M174.221 100.45v-2.81c0-1.92 11.95-3.52 27-3.63h1.63c15.78 0 28.61 1.64 28.61 3.63v2.81a.545.545 0 0 1-.1.46s-.11-.07-.15-.11a5.65 5.65 0 0 0-2.45-1.06 34.407 34.407 0 0 0-3.76-.74 4.392 4.392 0 0 0-4.19 1.7 6.16 6.16 0 0 1-4.9 2.42h-15.45a9.34 9.34 0 0 1-5.69-1.92l-2.21-1.67a5.098 5.098 0 0 0-3.09-1c-3 0-5 0-5.36.08-2.433.219-4.847.62-7.22 1.2a6.726 6.726 0 0 0-2.56 1.18.64.64 0 0 1-.1-.5" fill="#FFF100"/><path d="M194.001 68a26.279 26.279 0 0 0-17.38 24.7v3.73a62.905 62.905 0 0 1 11.38-1.64v-2.17c0-9.77 2.35-18.55 6.12-24.66" fill="url(#f)"/><path d="M229 92.7a26.133 26.133 0 0 0-6-16.67 54.64 54.64 0 0 1 2.49 16.6c0 1 0 2-.07 3 1.198.172 2.383.419 3.55.74l.03-3.67Z" fill="url(#g)"/><path d="M223.001 76a26.18 26.18 0 0 0-29-8c-3.76 6.11-6.11 14.89-6.11 24.63v2.17c3.91-.29 8.42-.5 13.25-.53h1.6c7.571-.09 15.139.385 22.64 1.42 0-1 .07-2 .07-3a54.02 54.02 0 0 0-2.45-16.69Z" fill="#FFF100"/><path d="m213.38 77.73-1.67-10.41a2.004 2.004 0 0 0-1.43-1.6 26.311 26.311 0 0 0-14.82 0 1.94 1.94 0 0 0-1.38 1.6l-1.67 10.41" fill="#FFF100"/><path d="M206.84 94.21v-4.83l-6-3.7 6 8.53ZM212.84 85.68l-6 3.7v4.83l6-8.53ZM206.84 80l6 3.49-6-9.78V80ZM206.84 73.7l-6 9.78 6-3.49V73.7ZM206.84 80v7l6-3.48-6-3.52Z" fill="#F9C838"/><path d="m212.84 85.68-6 3.7v4.83l6-8.53Z" fill="#4B4D4D"/><path d="m200.801 83.48 6 3.48V80l-6 3.48Z" fill="#F9C838"/><path d="M206.84 94.21v-4.83l-6-3.7 6 8.53ZM200.801 83.48l6-9.78V87l-6-3.52Z" fill="#0A0A0A"/><path d="M206.84 80v-6.3l6 9.78-6 3.48V80Z" fill="#4B4D4D"/><path d="M213 135.8a83.811 83.811 0 0 0 20.49-10.46" stroke="#FF8F66" stroke-width="10" stroke-miterlimit="10" stroke-linecap="round"/><path d="M209.31 141.18c-3.86-.48-.34-8.16-.34-8.16l2.5-.23a73.474 73.474 0 0 0 10.07-4.15l2.77 5.94a90.636 90.636 0 0 1-11.31 4.7 36.818 36.818 0 0 0-3.69 1.9Z" fill="#F2EDDC"/><path d="M184.9 142.1c9.52 13.38 7.56 33.25 7.56 33.25h2.22s2.69-19.23-9.78-33.25Z" fill="#262223"/><path d="M234.74 120.8c2.64-1.84 6.7-.24 10.35 1.23.62.25.44 1.57.2 2.15-4.52 1-7.58 3.15-10.84 3.1-2.19 0-1.13-1.55-1.13-3.1l-1.41-.55c-.01-1.56-.47-.53 2.83-2.83Z" fill="#FF8F66"/><path d="M245.221 123.1h5.33" stroke="#FF8F66" stroke-width="3" stroke-miterlimit="10" stroke-linecap="round"/><path d="m158.89 128.39-7.81-4.51v.35a2.805 2.805 0 0 0 0 .29c.002.315.029.629.08.94.029.164.09.32.18.46l.09.17a.97.97 0 0 1 .07.36.449.449 0 0 1-.39.47l-.35-.07a.5.5 0 0 1-.22-.45c.002-.105.018-.21.05-.31l.09-.21c.063-.134.11-.275.14-.42.093-.326.143-.662.15-1a2.949 2.949 0 0 0-.05-.44c0-.11 0-.21-.07-.33l-8-4.6a1.006 1.006 0 0 1-.52-.9.418.418 0 0 1 0-.1v-1.38a.752.752 0 0 1 0-.15 1.006 1.006 0 0 1 .52-.9l15.81-9.45-15.81 9.45 15.84-9.47.39-.24c.073-.04.15-.07.23-.09a.943.943 0 0 1 .5 0 .746.746 0 0 1 .25.1l.16.09c.099.048.193.105.28.17 0 0 13.68 7.85 15.7 9.07l.12.07a1 1 0 0 1 .44.82v2.28l-.17-.08a.987.987 0 0 1-.36.34l-16.48 9.58a1 1 0 0 1-1.05 0l.19.09Zm-7.79-4.67c.06-.41.19-1 .44-1-.26-.01-.38.6-.44 1Zm-1.3-2.2 11.95-.4-11.95.4ZM147 121c-.12-.09-.16-.19-.33-.55.16.38.2.47.33.55Zm-3.56-3.19.34.21-.34-.21h-.07.07Zm-.2-.11.12.07-.12-.07h-.06l-.17-.1.24.14-.01-.04Zm-.55-.36h-.06.06Zm34.09-1.4Z" fill="#fff"/><g opacity=".32"><g opacity=".42" fill-rule="evenodd" clip-rule="evenodd" fill="#4F00A3"><path opacity=".42" d="M149.741 121.47c-.92-.59-1.94-1.08-2.35-.57-.14.16-.27.23-.4.11-.13-.12-.16-.19-.33-.55l-.1-.19a3.204 3.204 0 0 0-1.62-1.56l-.13-.07-1-.57-.34-.21h-.07l-.13-.07a2.33 2.33 0 0 1-.67-.49.363.363 0 0 1-.06-.09.7.7 0 0 1-.16-.46v1.55a1 1 0 0 0 .52.9l8 4.61a3.707 3.707 0 0 0-1.16-2.34ZM176.861 116.29a1.06 1.06 0 0 1-.54.95l-1.32.76-1.27 1.11s-2-.58-2.58-.18c-.14.09-.39-.06-.62-.2-.23-.14-.76.3-1 .52a.46.46 0 0 0-.13.31.72.72 0 0 1-.32.6 1.009 1.009 0 0 0-.76-.37 6.829 6.829 0 0 0-2.93.49c-.37.19-.69.36-.95.51a.173.173 0 0 0-.055.046.163.163 0 0 0-.033.064.183.183 0 0 0 .018.14.391.391 0 0 1-.01.64h-.08s-.86-.47-.89-.52l-.24.09h-.09a1.73 1.73 0 0 1-1.24-.16.579.579 0 0 0-.8 0c-.11.09-.09.59-.08.82v.19l-.3.23c-.201.131-.431.21-.67.23a1.312 1.312 0 0 1-.88-.36.7.7 0 0 1-.33-.53s.08-1-.69-.62l-.29.17a.86.86 0 0 1-1 .08c-.61-.3-2.19.82-2.19.82l-.4.24a2.356 2.356 0 0 1-2.38.27h-.06c-.35-.19-.49.72-.54 1.14l7.81 4.51a.996.996 0 0 0 1 0l16.48-9.57a.998.998 0 0 0 .36-.35l.17.09v-2.29l-.17.13Z"/></g><g opacity=".32" fill="#4F00A3"><path opacity=".32" d="M160.151 106a1.265 1.265 0 0 0-.27-.11l.27.11ZM158.7 106.23l.4-.24-16.25 9.71 15.81-9.45.04-.02ZM176.45 115.4l-.13-.08.13.08ZM143.23 117.71l-.16-.1.52.31-.16-.1h-.07a.721.721 0 0 0-.13-.11ZM145.64 119.1a6.455 6.455 0 0 0-.72-.43l-.13-.07-.31-.17 1.16.67ZM149.701 121.45c-.23-.15-.48-.29-.73-.42l.73.42ZM176.499 115.44c.083.107.157.221.22.34a1.056 1.056 0 0 1-.36 1.44.997.997 0 0 0 .39-1.41.99.99 0 0 0-.3-.34l.05-.03ZM142.59 117.26c.078.093.169.174.27.24l.18.1a1.89 1.89 0 0 1-.45-.34ZM142.49 117.13l.05.06-.05-.06Z"/></g><path opacity=".32" fill-rule="evenodd" clip-rule="evenodd" d="m169.141 119.22-3.58-2.06a.5.5 0 0 0-.5 0l-3.58 2.06a.476.476 0 0 0-.234.302.488.488 0 0 0 .054.378.517.517 0 0 0 .18.18l3.58 2.06a.477.477 0 0 0 .49 0l.41-.23h.11l3.06-1.76a.498.498 0 0 0 .25-.44.505.505 0 0 0-.24-.49Z" fill="#6200D9"/><path opacity=".32" d="M165.191 122.24a.198.198 0 0 0 .115.036.198.198 0 0 0 .115-.036l3.21-1.85.34-.2-3.55-2.06a.198.198 0 0 0-.115-.036.198.198 0 0 0-.115.036l-3.56 2 .35.23 3.21 1.88Z" fill="#6800E8"/><path opacity=".32" fill-rule="evenodd" clip-rule="evenodd" d="m157.5 119.28-3.58-2.06a.498.498 0 0 0-.5 0l-3.58 2.06a.505.505 0 0 0-.23.303.506.506 0 0 0 .05.377.618.618 0 0 0 .18.18l3.58 2.06a.498.498 0 0 0 .5 0l.4-.23h.11l3.07-1.76a.513.513 0 0 0 .25-.44.5.5 0 0 0-.25-.49Z" fill="#6200D9"/><path opacity=".46" fill-rule="evenodd" clip-rule="evenodd" d="m163.27 122.6-3.58-2.07a.534.534 0 0 0-.49 0l-3.59 2.07a.514.514 0 0 0-.18.68c.05.07.111.13.18.18l3.58 2.06a.498.498 0 0 0 .5 0l.41-.23.1-.05 3.07-1.76a.513.513 0 0 0 .25-.44.479.479 0 0 0-.25-.44Z" fill="#4F00A3"/><path opacity=".32" d="M159.322 125.62a.242.242 0 0 0 .23 0l3.22-1.86.34-.2-3.56-2.06a.245.245 0 0 0-.23 0l-3.56 2 .35.22 3.21 1.9Z" fill="#6800E8"/><path opacity=".32" fill-rule="evenodd" clip-rule="evenodd" d="M150.651 125.88a1.334 1.334 0 0 0-.08.21.62.62 0 0 0 .16.76l.36.07c.27 0 .51-.32.31-.83a.84.84 0 0 0-.09-.16 1.465 1.465 0 0 1-.17-.47 5.07 5.07 0 0 1-.08-1.23v-.18c0-.24.15-1.53.56-1.31h.06a2.35 2.35 0 0 0 2.38-.27l.4-.24s1.58-1.12 2.19-.82a.863.863 0 0 0 1-.08l.29-.17c.77-.4.69.62.69.62a.7.7 0 0 0 .33.53c.239.224.552.353.88.36.239-.02.469-.099.67-.23 0 0 .3-.22.3-.23v-.19c0-.24 0-.74.08-.83a.58.58 0 0 1 .8-.08 1.73 1.73 0 0 0 1.24.16h.09l.24-.09.89.52.08-.06a.379.379 0 0 0 .11-.53l-.09-.1a.172.172 0 0 1-.053-.051.171.171 0 0 1-.029-.068.184.184 0 0 1 .001-.074.186.186 0 0 1 .031-.067h.06l.95-.5a6.694 6.694 0 0 1 2.93-.49 1.096 1.096 0 0 1 .77.36.72.72 0 0 0 .31-.59.412.412 0 0 1 .14-.31c.25-.22.78-.66 1-.52.23.14.48.3.62.21.64-.4 2.58.18 2.58.18l1.44-1.09 1.28-.75a1.056 1.056 0 0 0 .54-1.054 1.063 1.063 0 0 0-.13-.396 1.755 1.755 0 0 0-.25-.36c-1.1-.7-15.89-9.19-15.89-9.19l-.28-.17-.15-.08a1.806 1.806 0 0 0-.3-.12 1.057 1.057 0 0 0-.5 0c-.08.021-.157.051-.23.09l-.39.24-15.81 9.45a.999.999 0 0 0-.52.9.742.742 0 0 0 .16.54l.06.09c.192.202.419.368.67.49l.14.07h.06l.34.21 1 .57.13.07a3.204 3.204 0 0 1 1.36 1.11c.102.143.192.293.27.45l.09.19c.17.36.21.45.33.55.12.1.27 0 .4-.11.41-.51 1.43 0 2.35.58.68.43 1 1.68 1.15 2.57.086.47.055.954-.09 1.41-.03.181-.077.358-.14.53Z" fill="url(#h)"/><path opacity=".39" fill-rule="evenodd" clip-rule="evenodd" d="M150.651 125.88a1.334 1.334 0 0 0-.08.21.62.62 0 0 0 .16.76l.36.07c.27 0 .51-.32.31-.83a.84.84 0 0 0-.09-.16 1.465 1.465 0 0 1-.17-.47 5.07 5.07 0 0 1-.08-1.23v-.18c0-.24.15-1.53.56-1.31h.06a2.35 2.35 0 0 0 2.38-.27l.4-.24s1.58-1.12 2.19-.82a.863.863 0 0 0 1-.08l.29-.17c.77-.4.69.62.69.62a.7.7 0 0 0 .33.53c.239.224.552.353.88.36.239-.02.469-.099.67-.23 0 0 .3-.22.3-.23v-.19c0-.24 0-.74.08-.83a.58.58 0 0 1 .8-.08 1.73 1.73 0 0 0 1.24.16h.09l.24-.09.89.52.08-.06a.379.379 0 0 0 .11-.53l-.09-.1a.172.172 0 0 1-.053-.051.171.171 0 0 1-.029-.068.184.184 0 0 1 .001-.074.186.186 0 0 1 .031-.067h.06l.95-.5a6.694 6.694 0 0 1 2.93-.49 1.096 1.096 0 0 1 .77.36.72.72 0 0 0 .31-.59.412.412 0 0 1 .14-.31c.25-.22.78-.66 1-.52.23.14.48.3.62.21.64-.4 2.58.18 2.58.18l1.44-1.09 1.28-.75a1.056 1.056 0 0 0 .54-1.054 1.063 1.063 0 0 0-.13-.396 1.755 1.755 0 0 0-.25-.36c-1.1-.7-15.89-9.19-15.89-9.19l-.28-.17-.15-.08a1.806 1.806 0 0 0-.3-.12 1.057 1.057 0 0 0-.5 0c-.08.021-.157.051-.23.09l-.39.24-15.81 9.45a.999.999 0 0 0-.52.9.742.742 0 0 0 .16.54l.06.09c.192.202.419.368.67.49l.14.07h.06l.34.21 1 .57.13.07a3.204 3.204 0 0 1 1.36 1.11c.102.143.192.293.27.45l.09.19c.17.36.21.45.33.55.12.1.27 0 .4-.11.41-.51 1.43 0 2.35.58.68.43 1 1.68 1.15 2.57.086.47.055.954-.09 1.41-.03.181-.077.358-.14.53Z" fill="#4F00A3"/><path opacity=".28" fill-rule="evenodd" clip-rule="evenodd" d="m163.432 109.24-3.58-2.06a.5.5 0 0 0-.5 0l-3.58 2.06a.476.476 0 0 0-.234.302.488.488 0 0 0 .054.378.446.446 0 0 0 .18.18l3.58 2.06a.498.498 0 0 0 .5 0l.4-.23.11-.05 3.06-1.76a.493.493 0 0 0 .26-.43.503.503 0 0 0-.25-.45ZM169.201 112.59l-3.58-2.06a.498.498 0 0 0-.5 0l-3.58 2.06a.484.484 0 0 0-.234.302.507.507 0 0 0 .054.378.517.517 0 0 0 .18.18l3.58 2.06a.498.498 0 0 0 .5 0l.4-.23h.11l3.06-1.76a.508.508 0 0 0 .26-.44.5.5 0 0 0-.25-.49ZM163.402 115.94l-3.59-2.07a.48.48 0 0 0-.49 0l-3.58 2.07a.475.475 0 0 0-.245.489.469.469 0 0 0 .065.181.388.388 0 0 0 .18.18l3.58 2.07a.531.531 0 0 0 .49 0l.41-.24h.11l3.06-1.77a.478.478 0 0 0 .25-.43.483.483 0 0 0-.24-.48ZM169.141 119.22l-3.58-2.06a.5.5 0 0 0-.5 0l-3.58 2.06a.476.476 0 0 0-.234.302.488.488 0 0 0 .054.378.446.446 0 0 0 .18.18l3.58 2.06a.477.477 0 0 0 .49 0l.41-.23h.11l3.06-1.76a.498.498 0 0 0 .25-.44.505.505 0 0 0-.24-.49ZM157.501 119.28l-3.58-2.06a.5.5 0 0 0-.5 0l-3.58 2.06a.506.506 0 0 0-.18.68.618.618 0 0 0 .18.18l3.58 2.06a.498.498 0 0 0 .5 0l.4-.23h.11l3.07-1.76a.529.529 0 0 0 .25-.44.51.51 0 0 0-.25-.49ZM174.91 115.91l-3.58-2.07a.498.498 0 0 0-.5 0l-3.58 2.06a.484.484 0 0 0-.234.302.507.507 0 0 0 .054.378.392.392 0 0 0 .18.18l3.58 2.06a.498.498 0 0 0 .5 0l.4-.23h.11l3.06-1.77a.478.478 0 0 0 .25-.43.482.482 0 0 0-.24-.48ZM157.66 112.59l-3.59-2.06a.48.48 0 0 0-.49 0l-3.58 2.06a.484.484 0 0 0-.234.302.507.507 0 0 0 .054.378.517.517 0 0 0 .18.18l3.58 2.06a.48.48 0 0 0 .49 0l.41-.23h.11l3.06-1.76a.5.5 0 0 0 .25-.44.496.496 0 0 0-.24-.49ZM151.82 116l-3.58-2a.542.542 0 0 0-.5 0l-3.58 2a.502.502 0 0 0-.18.67.665.665 0 0 0 .18.19l3.58 2.06a.498.498 0 0 0 .5 0l.4-.23h.11l3.07-1.76a.513.513 0 0 0 .25-.44.473.473 0 0 0-.048-.284.473.473 0 0 0-.202-.206Z" fill="#fff"/><g opacity=".5" fill="#fff"><path opacity=".5" d="M159.48 112.27a.242.242 0 0 0 .23 0l3.21-1.86.34-.2-3.55-2.06a.242.242 0 0 0-.23 0l-3.56 2 .35.22 3.21 1.9ZM165.251 115.61a.245.245 0 0 0 .23 0l3.21-1.86.34-.2-3.55-2.06a.24.24 0 0 0-.23 0l-3.56 2 .34.22 3.22 1.9ZM159.451 119a.24.24 0 0 0 .23 0l3.21-1.86.34-.2-3.55-2.06a.265.265 0 0 0-.24 0l-3.55 2 .34.22 3.22 1.9ZM165.191 122.24a.198.198 0 0 0 .115.036.198.198 0 0 0 .115-.036l3.21-1.85.34-.21-3.55-2.06a.242.242 0 0 0-.23 0l-3.56 2 .35.22 3.21 1.9ZM153.55 122.31a.245.245 0 0 0 .23 0l3.22-1.86.34-.2-3.56-2.06a.196.196 0 0 0-.115-.036.198.198 0 0 0-.115.036l-3.56 2 .35.23 3.21 1.89ZM159.32 125.62a.242.242 0 0 0 .23 0l3.22-1.86.34-.2-3.56-2.06a.242.242 0 0 0-.23 0l-3.56 2 .35.22 3.21 1.9ZM171.001 118.93a.245.245 0 0 0 .23 0l3.21-1.86.34-.2-3.55-2.06a.24.24 0 0 0-.23 0l-3.56 2 .35.22 3.21 1.9ZM153.7 115.61a.252.252 0 0 0 .24 0l3.21-1.86.34-.2-3.55-2.06a.24.24 0 0 0-.23 0l-3.56 2 .34.22 3.21 1.9ZM147.871 119.05a.24.24 0 0 0 .23 0l3.22-1.86.34-.2-3.56-2.06a.245.245 0 0 0-.23 0l-3.56 2 .35.22 3.21 1.9Z"/></g></g><path d="m339.09 84.24 4 3.6 3.08-3.4-3.87-3.83-3.21 3.63Z" fill="#D8DFE5"/><path d="m365.401 90.84-2.09-4.72-2.75-.83c-1.67-2.92-2.08-5.89-4.65-8.14-2.57-2.25-4.38-3.62-7.87-3-4.38.79-7.65 6.12-7.65 6.12l5.24 5.7s1.77-2.43 2.71-2.14c.94.29 1 3.26 1.09 4.19.56 3.88-.29 10.26-.34 14.18l16.31-11.36Z" fill="#262223"/><path d="M355 66.38 352.71 63 348 65.21l2.2 3.57 4.8-2.4Z" fill="#D8DFE5"/><path d="M330.16 162.93c2.41-1.68 2.36-5.17 1.93-8-.641.07-1.288.07-1.93 0a2.67 2.67 0 0 1-1.1-.31 6.5 6.5 0 0 1-1.23-1.33 4.105 4.105 0 0 0-4.22-1 10.253 10.253 0 0 0-3.87 2.48 5.485 5.485 0 0 0-1.87 2.69c-.25 1.12.36 2.54 1.4 2.61 1.04.07 2-1.46 3.22-1.41 1.22.05 1.8 1.7 2.65 2.71 1.21 1.43 3.17 1.58 4.95 1.59a.168.168 0 0 1 .07-.03Z" fill="#FB7E51"/><path d="M340.07 150.66a7.413 7.413 0 0 0 3.65 2.54c1.152.43 2.345.742 3.56.93 4.05-7.49 1.45-16.85 1.32-17.29a4 4 0 1 0-7.68 2.2c.02.07 1.9 7.09-.85 11.62Z" fill="#F2EDDC"/><path d="M340.091 150.61a7.529 7.529 0 0 1-.69 1c-1.86 2.21-5.11 3.31-9.67 3.27a68.978 68.978 0 0 1-1.2 8h1.37c7 0 12.2-2.05 15.62-6.13a14.76 14.76 0 0 0 1.81-2.7 16.01 16.01 0 0 1-7.24-3.44Z" fill="#FB7E51"/><path d="m355.691 65.51-7.7 4s5.34 9.46 3.89 18.67a10.325 10.325 0 0 1-.6 3.37 9.948 9.948 0 0 1-2.88 2.78c-4.53 3.53-4.31 6-5.43 11.47 11.09 0 19.15-.32 25.88-.09-.42-32.07-13.16-40.2-13.16-40.2Z" fill="#312D2E"/><path d="M343.45 143.32c22.34 2.44 28.35-15 26.6-30.69a201.591 201.591 0 0 0-32.42-4.69s-2.37 6.45-2.24 10.84" fill="#EDCF00"/><path d="M346.291 113.65c10.63-.57 20 .74 25.78 3.23M347.33 116.88c12.11 0 19.07 2 24.21 4.09" stroke="#E69C31" stroke-width="4" stroke-miterlimit="10"/><path d="M296.189 121s8.35-3.21 12.85-4.61c4.33-1.32 9.49-2.69 15-3.92s10.84-2.19 15.29-2.81c4.66-.64 13.7-.79 13.7-.79l.5 2.26c.44 2-11.93 6.43-27.62 9.92-15.69 3.49-28.7 4.67-29.14 2.69l-.58-2.74Z" fill="#262223"/><path d="M346.821 104.93h22.1v7.59c-4.32-2-22.63-2.65-22.63-2.65l.53-4.94Z" fill="#F2EDDC"/><path d="M369.05 104.93h-22.23v2.42h22.23v-2.42Z" fill="#0A0A0A"/><path d="m338 136.84 11-4.33s3.76 5.85 2.43 8.31c-1.33 2.46-8.48-.37-8.48-.37l-4.95-3.61Z" fill="#F2EDDC"/><path d="m336.301 136.84 9.35-4.33 4.34 6.83-13.68 7.53-.01-10.03Z" fill="#FB7E51"/><path d="m333.691 82.25-1.15 1.8 5.36 3.41h2l-.57.9 2.5 1.64s.38-.75 1-2l-9.14-5.75Z" fill="#262223"/><path d="M343.33 88.35 341.88 90l-2.55-1.62.48-.75 1.05-.8 2.47 1.52Z" fill="#0F0D0B"/><path d="m355.789 61.6-1.52.72-.75 1.85-4.68 2.52-1.17-1.28a33.61 33.61 0 0 1-.48-2.12l2.55-1.2.44.93 1.08-1.64 5.36-2.51.91 1.93-1.74.8Z" fill="#262223"/><path d="m354.78 62.07 2.71-1.27-.91-1.93-3.25 1.52.9 1.93.55-.26" fill="#0F0D0B"/><path d="M347.399 107.89a13.33 13.33 0 0 0-17-8 1.62 1.62 0 0 1-.199.08l-19.201 7.21a13.561 13.561 0 0 0-7.79 17.24l45.771-10.17a33.009 33.009 0 0 0-1.53-6.36" fill="#4F00A3"/><path d="M303.16 124.42c.012.072.039.14.08.2l2.43 6.34 22.62-5a11.792 11.792 0 0 1 8.908 1.578 11.784 11.784 0 0 1 3.325 3.196 11.781 11.781 0 0 1 1.847 4.226l1.08 4.86a39.618 39.618 0 0 0 5.55-25.54l-45.79 10.18-.05-.04Z" fill="url(#i)"/><path d="M311.7 141.56a7.107 7.107 0 0 0 5.462-5.711 7.11 7.11 0 1 0-5.462 5.711Z" fill="url(#j)"/><path d="M310.52 144.12c.236.61.503 1.207.8 1.79a13.481 13.481 0 0 0 6.73 6 17.132 17.132 0 0 0 9.72.13c7.15-1.4 11.94-6.87 15.68-12.33l-1.08-4.86a11.85 11.85 0 0 0-14.09-9l-22.62 5 4.86 13.27Z" fill="#FF8F66"/><path d="M324.93 145.67a3.778 3.778 0 0 1-4.5-2.86l7.39-1.65a3.752 3.752 0 0 1-1.49 3.897 3.737 3.737 0 0 1-1.34.593h-.06" fill="#fff"/><path d="M302.711 122.88c.13.59 0 1.34 6.37 0l28.36-6.3c2-.44 5.14 5.82 6.49 7.33l5.88-3.38a50.009 50.009 0 0 0-1-7.9l-46.1 10.25Z" fill="#4F00A3"/><path d="M348.351 133.64a7.135 7.135 0 0 0 5.576-5.629 7.134 7.134 0 0 0-3.068-7.305 7.126 7.126 0 0 0-7.923.039 7.134 7.134 0 0 0-2.995 7.335v.1a7.074 7.074 0 0 0 8.37 5.46h.04Z" fill="#FB7E51"/><path d="M348.32 126a1.786 1.786 0 0 0 .6-2.45 1.805 1.805 0 0 0-1.14-.81 2.803 2.803 0 0 0-2.2.42c-1.4.92-1.59 2-1.21 3.76.232.994.81 1.873 1.63 2.48l-.07-.28c-.28-1.11 1.12-2.36 2.4-3.16" fill="#FF8F66"/><path d="M327.579 128.6a2.865 2.865 0 0 1 2.989 1.127c.22.307.377.655.461 1.023l.48 2.18a2.9 2.9 0 0 1-2.205 3.465 2.895 2.895 0 0 1-2.189-.385 2.91 2.91 0 0 1-1.276-1.82l-.48-2.18a2.883 2.883 0 0 1 2.21-3.44" fill="#262223"/><path d="m345.801 105.74-20.41 1.64-5.13 1-20.54 3.31 2.4 10.8c1.24 5.37 6.46 7.7 11.83 6.45l19.92-4.59-.92-4c.437.411.913.779 1.42 1.1 2.06 1.29 7.48 1 7.48 1 .8-1.91 3.75-3.43 5.8-3.74l-1-.39c.97-.22-.85-12.58-.85-12.58Z" fill="url(#k)"/><path d="M314.771 131.44a2.878 2.878 0 0 1 3.45 2.16l.48 2.19a2.903 2.903 0 0 1-5.65 1.33v-.07l-.48-2.19a2.927 2.927 0 0 1 2.21-3.44" fill="#262223"/><path d="M323.719 110.69c-15.68 3.48-28.06 7.94-27.62 9.92v.07a2.087 2.087 0 0 0 1.683 1.61 2.1 2.1 0 0 0 .817-.02c.186-.047.366-.11.54-.19a67.978 67.978 0 0 1 10.24-3.88c4.33-1.33 9.49-2.69 15-3.92s10.83-2.19 15.28-2.82a67.674 67.674 0 0 1 10.92-.82h.12a2.099 2.099 0 0 0 2.17-2 2.452 2.452 0 0 0-.05-.54v-.1c-.45-2-13.51-.82-29.19 2.67" fill="#FFF100"/><path d="m353.52 110.76-.62-2.76c-.42-1.91-12.64-.87-27.62 2.35l-1.63.36c-15.62 3.47-28 7.93-27.55 9.91l.62 2.78a.644.644 0 0 0 .21.46 6.226 6.226 0 0 1 2.31-1.75c1.18-.59 2.37-1.11 3.57-1.6a4.513 4.513 0 0 1 4.54.74 6.193 6.193 0 0 0 5.39 1.32l15.3-3.4a9.394 9.394 0 0 0 5.2-3.16l1.81-2.15a5.171 5.171 0 0 1 2.82-1.72c3-.63 5-1.09 5.36-1.12a50.135 50.135 0 0 1 7.46-.38c.974-.019 1.94.19 2.82.61a.542.542 0 0 0 0-.48" fill="#FFF100"/><path d="M326.699 82.89a26.64 26.64 0 0 1 22.73 20.7l.82 3.67a63.48 63.48 0 0 0-11.64.88c-.12-.7-.28-1.43-.44-2.16-2.11-9.65-6.42-17.87-11.47-23.09Z" fill="url(#l)"/><path d="M297.38 115.15a26.584 26.584 0 0 1 2.26-17.87 55.388 55.388 0 0 0 1.2 17c.22 1 .48 2 .74 3-1.15.433-2.267.951-3.34 1.55l-.86-3.68Z" fill="url(#m)"/><path d="M299.641 97.28a26.688 26.688 0 0 1 27.06-14.39c5.06 5.25 9.36 13.43 11.51 23.12.16.72.31 1.42.44 2.15-4 .56-8.47 1.38-13.27 2.41l-1.59.35a159.219 159.219 0 0 0-22.18 6.39c-.29-1-.55-2-.77-3a55.357 55.357 0 0 1-1.2-17" fill="#FFF100"/><path d="M309.64 96.84 309 86.17a2.003 2.003 0 0 1 1-1.91A26.929 26.929 0 0 1 324.76 81a2.002 2.002 0 0 1 1.74 1.29l4 10" fill="#FFF100"/><path d="m319.79 111.77-1.06-4.77 5.18-5-4.12 9.77Z" fill="#F9C838"/><path d="m311.91 104.64 6.82 2.34 1.06 4.79-7.88-7.13ZM316.65 97.65l-5.24 4.77 3.85-11 1.39 6.23ZM315.26 91.41l8.16 8.34-6.77-2.1-1.39-6.24ZM316.65 97.65l1.54 6.94-6.78-2.17 5.24-4.77Z" fill="#F9C838"/><path d="m311.91 104.64 6.82 2.34 1.06 4.79-7.88-7.13Zm-.5-2.22 5.24-4.77 1.54 6.94-6.78-2.17Zm3.85-11 1.39 6.24-5.24 4.77 3.85-11.01Z" fill="#0A0A0A"/><path d="m323.381 99.76-5.23 4.8-1.53-6.9 6.76 2.1Z" fill="#F9C838"/><path d="m319.79 111.77-1.06-4.77 5.18-5-4.12 9.77ZM316.62 97.66l6.76 2.1-5.23 4.8-1.53-6.9Zm0 0-1.39-6.24 8.16 8.34-6.77-2.1Z" fill="#4B4D4D"/><path d="M342.78 162.93c2.42-1.68 2.36-5.17 1.94-8-.642.07-1.289.07-1.93 0a2.617 2.617 0 0 1-1.1-.31 6.216 6.216 0 0 1-1.23-1.33 4.117 4.117 0 0 0-4.22-1 10.182 10.182 0 0 0-3.87 2.48 5.413 5.413 0 0 0-1.87 2.69c-.25 1.12.35 2.54 1.39 2.61 1.04.07 2-1.46 3.22-1.41 1.22.05 1.8 1.7 2.65 2.71 1.21 1.43 3.17 1.58 4.95 1.59l.07-.03Z" fill="#FF8F66"/><path d="M352.689 150.66a7.467 7.467 0 0 0 3.65 2.54c1.153.429 2.346.74 3.56.93 4.05-7.49 1.45-16.85 1.33-17.29a3.988 3.988 0 0 0-1.891-2.453 4.003 4.003 0 0 0-5.491 1.571 4.017 4.017 0 0 0-.308 3.082c.02.07 1.91 7.09-.85 11.62Z" fill="#F2EDDC"/><path d="M352.72 150.61a7.6 7.6 0 0 1-.7 1c-1.86 2.21-5.11 3.31-9.67 3.27a66.861 66.861 0 0 1-1.2 8h1.37c7 0 12.2-2.05 15.62-6.13A15.36 15.36 0 0 0 360 154a15.939 15.939 0 0 1-7.28-3.39Z" fill="#FF8F66"/><path d="M296.931 159.22h38.87c.501 0 .982.199 1.336.554a1.887 1.887 0 0 1 0 2.672 1.887 1.887 0 0 1-1.336.554h-38.87c-.501 0-.982-.199-1.336-.554a1.887 1.887 0 0 1-.554-1.336 1.874 1.874 0 0 1 1.165-1.749c.23-.094.476-.142.725-.141Z" fill="#7C8A98"/><path d="m294.81 161.64-11-37.29a1.901 1.901 0 0 1 .153-1.441 1.886 1.886 0 0 1 1.127-.909 1.87 1.87 0 0 1 1.443.149 1.89 1.89 0 0 1 .907 1.131l11 37.29a1.87 1.87 0 0 1-.149 1.443 1.89 1.89 0 0 1-1.866.974 1.879 1.879 0 0 1-1.272-.693 1.882 1.882 0 0 1-.343-.654Z" fill="#7C8A98"/><path d="M296.569 162.58a1.54 1.54 0 1 0 .001-3.079 1.54 1.54 0 0 0-.001 3.079Z" fill="#566068"/><path d="M362.626 136.163c1.108-3.357-.095-6.771-2.686-7.626-2.591-.855-5.589 1.173-6.696 4.53-1.108 3.356.095 6.771 2.686 7.625 2.59.855 5.589-1.173 6.696-4.529Z" fill="#F2EDDC"/><path d="M367.441 103.23h-1.65v4.49h1.65v-4.49ZM354.82 103.23h-1.65v4.49h1.65v-4.49Z" fill="#312D2E"/><path d="m336.859 84.24 2.48-.62 5 3.17-1 1.55-6.48-4.1Z" fill="#262223"/><path opacity=".2" fill-rule="evenodd" clip-rule="evenodd" d="M209.602 43.51c-21.8 2.84-37.37 6.27-37.6-7.78 0 0 .48-5.44 7.15-5.79a5.799 5.799 0 0 1 5.33-5.38c2.74-.3 5.86 2.53 6.2 5.5 0 0 6.74-1.25 7 5.33.1 2.3-.42 6.19-6.93 6 0 0-3.76-.52-4.27-6.34-1.06 11.27 15.23 10.62 15.47.38.1-4.42-2.74-9-9.12-8.12-3.5-8.81-12.82-8.3-16.28-.14a8.55 8.55 0 0 0-8.7 8.39V36c.23 16 22.55 11.2 41.75 7.51Z" fill="#4F00A3"/><g opacity=".2" fill="#4F00A3"><path opacity=".2" d="M260.531 34.58a2.595 2.595 0 0 0-.67 1.14c-.07.27-.1.55-.09.83v6.62c0 .48 0 1-.06 1.45a.67.67 0 0 1-.7.61h-.13a5.194 5.194 0 0 1-.53-.27 2.486 2.486 0 0 1-.89-.9 2.581 2.581 0 0 1-.36-1.33v-7.94a2.411 2.411 0 0 1 .68-1.65c.19-.21.41-.4.63-.61l-.14-.11-.94-.54-.76-.45c-.2-.12-.41-.25-.62-.36-.21-.11-.23-.11-.28-.07a4.672 4.672 0 0 0-.66.59c-.14.17-.21.4-.35.57a1.408 1.408 0 0 0-.27.93v6.8c0 .52 0 1-.07 1.56a.61.61 0 0 1-.59.62h-.1a1.225 1.225 0 0 1-.37-.08 2.289 2.289 0 0 1-1.06-.86 2.11 2.11 0 0 1-.3-.6 4.346 4.346 0 0 1-.22-1.07v-6.23a5.925 5.925 0 0 1 .11-2c.08-.23.14-.48.24-.7.219-.386.511-.726.86-1l.14-.12a4.513 4.513 0 0 1-.44-.22c-.3-.18-.58-.38-.88-.56-.3-.18-.4-.21-.59-.31l-.6-.35a.289.289 0 0 0-.4 0c-.26.238-.497.499-.71.78a2.12 2.12 0 0 0-.41 1.25v7.55c-.021 1.4.28 2.785.88 4.05.158.315.331.622.52.92.28.36.51.75.8 1.09.206.212.426.41.66.59.447.397.945.733 1.48 1 .24.124.487.234.74.33.12 0 .24.07.37.09.346.1.714.1 1.06 0 .14 0 .27 0 .35.12.037.092.083.179.14.26.24.27.47.55.73.8s.63.59 1 .87c.099.075.207.139.32.19.31.19.6.4.93.57.251.13.516.231.79.3.243.064.49.107.74.13.11 0 .23-.1.34-.1a1.46 1.46 0 0 0 1.08-.73c.2-.278.349-.59.44-.92.111-.384.168-.78.17-1.18v-7.88a2.574 2.574 0 0 1 .4-1.43c.215-.325.482-.612.79-.85l.17-.12-2.67-1.57a3.482 3.482 0 0 0-.7.5Z"/><path opacity=".2" d="m276.092 41.07.91-.52 1.24-.7 1.13-.68.81-.45 1.08-.62c.35-.194.645-.472.86-.81a1.427 1.427 0 0 0-.12-1.59 4.527 4.527 0 0 0-.67-.71 10.004 10.004 0 0 0-4.26-2.06.888.888 0 0 1-.41-.18 7.763 7.763 0 0 0-2.46-2 8.775 8.775 0 0 0-.84-.35 8 8 0 0 0-4.52-.25c-.51.16-7 3.57-7.44 3.79l-.22.12 2.68 1.57c.29-.2 5.44-3.09 5.84-3.28a2.47 2.47 0 0 1 2.31.24c.32.19.57.51.5.81-.085.27-.271.496-.52.63-.37.25-.79.44-1.18.67-.39.23-.82.5-1.23.74l-.89.51-.77.44-.92.61-.46.26 2.69 1.58s4.82-2.73 5.08-2.89a4.317 4.317 0 0 1 2.14-.5c.47.034.915.228 1.26.55a.593.593 0 0 1 .12.84.98.98 0 0 1-.14.14c-.44.33-.91.62-1.38.91-.27.17-.56.31-.84.47l-1 .54-1.33.75-.36.23c-.25.15-.51.28-.75.45l-.12.1 2.66 1.56a6.8 6.8 0 0 0 .68-.4c.28-.23.57-.36.84-.52Z"/><g opacity=".2"><path opacity=".2" d="M271.421 40.82a3.182 3.182 0 0 0-.6.8c-.151.381-.219.79-.2 1.2v7.34c.028.38-.066.758-.27 1.08a.437.437 0 0 1-.37.24 1.383 1.383 0 0 1-.88-.28 2.39 2.39 0 0 1-.88-1 1.884 1.884 0 0 1-.33-1 .493.493 0 0 0-.29-.49c-.36-.23-.74-.42-1.11-.63l-1.3-.73c.05.44.07.83.13 1.21s.13.62.22.93c.09.31.14.39.21.58.099.292.212.58.34.86.193.346.407.68.64 1a6.308 6.308 0 0 0 1.38 1.54c.258.23.532.44.82.63.256.17.523.32.8.45.416.202.869.317 1.33.34.37.03.74-.042 1.07-.21.342-.212.602-.533.74-.91.245-.55.365-1.148.35-1.75v-7.44c-.035-.8.245-1.584.78-2.18.157-.19.351-.347.57-.46l-2.66-1.56a3.16 3.16 0 0 0-.49.44ZM285.151 56.68a6.222 6.222 0 0 0-.61-1.72 5.093 5.093 0 0 0-.8-1.19 5.482 5.482 0 0 0-.74-.77c-.43-.31-.9-.56-1.36-.83-.46-.27-.71-.41-1.07-.61a5.815 5.815 0 0 1-.68-.41 2.908 2.908 0 0 1-.93-1.07 1.835 1.835 0 0 1-.14-.42 2.158 2.158 0 0 1 0-1.33.558.558 0 0 1 .52-.39c.296-.01.589.07.84.23.42.23.83.5 1.25.74.42.24.87.48 1.3.72.43.24.77.48 1.16.7l1.4.79.16.06V48.25a.15.15 0 0 0-.017-.062.156.156 0 0 0-.043-.048l-1.39-.83c-.3-.18-.6-.35-.91-.51-.31-.16-.42-.21-.63-.33-.21-.12-.68-.41-1-.61-.32-.2-.41-.22-.62-.34-.42-.23-.83-.49-1.27-.69-.29-.148-.6-.252-.92-.31a2.2 2.2 0 0 0-1.34.12c-.223.078-.427.2-.6.36-.369.44-.59.987-.63 1.56v1.49c-.02.14-.02.28 0 .42.08.36.16.71.26 1.06.071.295.168.582.29.86.2.4.42.79.66 1.17.172.3.369.584.59.85a7.943 7.943 0 0 0 1.42 1.42c.37.28.75.55 1.14.8.39.25.51.25.75.39.365.195.688.46.95.78.167.208.309.437.42.68.208.464.271.98.18 1.48a.73.73 0 0 1-.86.56h-.07c-.52-.25-1-.54-1.52-.82-.11-.06-.23-.1-.34-.17-.28-.18-.54-.37-.82-.53l-1.81-1-1-.56a2.174 2.174 0 0 0-.26-.13V58.24a.248.248 0 0 0 .11.18l.66.38 1.23.74 1.42.8 1.11.64c.227.1.444.22.65.36.375.252.791.438 1.23.55.45.17.937.21 1.41.12a1.614 1.614 0 0 0 1-.62c.35-.494.539-1.084.54-1.69a5.776 5.776 0 0 0-.09-1.94 6.81 6.81 0 0 1-.18-1.08Z"/><path opacity=".2" d="M267.811 45.77v-2.9a.228.228 0 0 0-.1-.17l-1.3-.76c-.13-.08-.26-.18-.4-.25l-.81-.44v3a.223.223 0 0 0 .09.14l1.36.8 1.16.58Z"/></g></g><g opacity=".2" fill="#4F00A3"><g opacity=".2"><path opacity=".2" d="M346.001 24.52ZM363.851 40.27c-3.91 1.3-8.18-.13-11.36-2.3-3-2.07-5.59-5.53-5.19-9.36.4-3.83 3.57-6.24 7.35-6.5a10.818 10.818 0 0 1 6.15 1.52c2.46 1.31 4.42 4.53 3.21 6.74-2.33 4.27-10.18.85-9.56-3.56.056-.55.312-1.058.72-1.43.57-.46.59.16.45.57a2.91 2.91 0 0 0 1.38 3.18c1.35 1 4.32 1.4 5.09-.56 1.31-3.38-6.14-5.92-8.49-3.66-3.61 3.5.06 7.07 3 8.66 2.47 1.34 7 1.89 8.83-.93 2.19-3.52-1.52-7.5-4.16-9.38.32.18.63.37.93.56a13.228 13.228 0 0 0-16.11.64l-.06.06c-.267.233-.527.473-.78.72a12.179 12.179 0 0 0 .25 16.76 20.606 20.606 0 0 0 5.06 3.74c1.31.7 2.28 1 2.24 1.35-.08.58-1.91 0-2.46-.2a21.217 21.217 0 0 1-5.47-2.78c-.15-.11-.28-.24-.42-.36a13.244 13.244 0 0 0 10.09 4.67 13.417 13.417 0 0 0 13.31-12.39 6.397 6.397 0 0 1-4 4.24ZM346.062 24.45l-.06.06.06-.06Z"/></g><path opacity=".2" d="M363.16 28.82c.38-2.52-1.91-4.26-4-5.05-2.49-.92-5.77-.52-7.59 1.54a5.396 5.396 0 0 0-.57 5.49 9.383 9.383 0 0 0 6.08 5.46 10.77 10.77 0 0 0 6.21.22c2.85-.91 3.78-3.89 3.19-6.61a7.44 7.44 0 0 0-.58-1.71c-.36-.75-1.46-2.28.06-.42.162.206.309.424.44.65.311.515.56 1.066.74 1.64a6.105 6.105 0 0 1-2.12 7 8.71 8.71 0 0 1-6 1 11.453 11.453 0 0 1-7.11-3.86c-1.64-1.94-2.76-4.73-2.09-7.28a5.685 5.685 0 0 1 3.82-3.84 8.582 8.582 0 0 1 6.89.81 6.092 6.092 0 0 1 2.5 2.53c.239.493.369 1.032.38 1.58.009.221-.008.443-.05.66 0 .08-.18.31-.16.12"/></g><path opacity=".17" d="M246.491 113.38a2.215 2.215 0 0 1-1.12-.3l-2-1.14a2.287 2.287 0 0 1-1.16-2V96.63l4.09 2.37v10l4.31 2.37-3 1.72a2.265 2.265 0 0 1-1.12.29Z" fill="#4F00A3"/><path opacity=".3" d="M255.001 108.78v-4.87h-.05l-4.34-2.47v10" fill="#4F00A3"/><path opacity=".39" d="m259.25 101.46-4.25 2.45v4.87l7.27-4.33a2.214 2.214 0 0 0 1-2v-2.12a2.266 2.266 0 0 0-1.11-2l-3-1.71v4.84h.09Z" fill="#4F00A3"/><path opacity=".24" d="m255 103.91 4.24-2.45v-4.84L255 99" fill="#4F00A3"/><path opacity=".23" d="M242.511 91.86a2.374 2.374 0 0 0-.29 1.13v3.64l4.08 2.37v10l4.34 2.39v-9.92l4.39 2.47V99" fill="#4F00A3"/><path opacity=".27" d="m255.001 99 4.25-2.42-6.55-3.79-5.14-3a2.201 2.201 0 0 0-2.22 0l-2 1.13c-.36.21-.66.51-.87.87" fill="#4F00A3"/></g><defs><linearGradient id="e" x1="209.76" y1="118.832" x2="209.76" y2="139.237" gradientUnits="userSpaceOnUse"><stop stop-color="#FB7E51"/><stop offset="1" stop-color="#FF8F66"/></linearGradient><linearGradient id="f" x1="205.9" y1="39.072" x2="205.9" y2="67.424" gradientUnits="userSpaceOnUse"><stop stop-color="#FFF100"/><stop offset="1" stop-color="#EDCF00"/></linearGradient><linearGradient id="g" x1="-216796" y1="3574050" x2="-216796" y2="3574460" gradientUnits="userSpaceOnUse"><stop stop-color="#FFF100"/><stop offset="1" stop-color="#EDCF00"/></linearGradient><linearGradient id="h" x1="159.208" y1="142.055" x2="159.208" y2="117.768" gradientUnits="userSpaceOnUse"><stop stop-color="#5B00CB"/><stop offset="1" stop-color="#5100B4"/></linearGradient><linearGradient id="i" x1="-16886600" y1="5647150" x2="-16886500" y2="5647660" gradientUnits="userSpaceOnUse"><stop stop-color="#FB7E51"/><stop offset="1" stop-color="#FF8F66"/></linearGradient><linearGradient id="j" x1="-1472060" y1="1727210" x2="-1472060" y2="1727410" gradientUnits="userSpaceOnUse"><stop stop-color="#FB7E51"/><stop offset="1" stop-color="#FF8F66"/></linearGradient><linearGradient id="k" x1="321.367" y1="143.407" x2="317.847" y2="131.827" gradientUnits="userSpaceOnUse"><stop stop-color="#4F00A3"/><stop offset="1" stop-color="#23004E"/></linearGradient><linearGradient id="l" x1="-4244350" y1="5520030" x2="-4244350" y2="5520680" gradientUnits="userSpaceOnUse"><stop stop-color="#FFF100"/><stop offset="1" stop-color="#EDCF00"/></linearGradient><linearGradient id="m" x1="-130059" y1="4013470" x2="-130059" y2="4013930" gradientUnits="userSpaceOnUse"><stop stop-color="#FFF100"/><stop offset="1" stop-color="#EDCF00"/></linearGradient><pattern id="b" patternContentUnits="objectBoundingBox" width="1" height="1"><use xlink:href="#n" transform="scale(.00565)"/></pattern><pattern id="c" patternContentUnits="objectBoundingBox" width="1" height="1"><use xlink:href="#o" transform="scale(.00671)"/></pattern><pattern id="d" patternContentUnits="objectBoundingBox" width="1" height="1"><use xlink:href="#p" transform="scale(.00562 .00667)"/></pattern><clipPath id="a"><path fill="#fff" d="M0 0h520v190H0z"/></clipPath></defs></svg>