<svg width="360" height="602" viewBox="0 0 360 602" fill="none" xmlns="http://www.w3.org/2000/svg">
<g clip-path="url(#clip0)">
<path d="M370.518 569.16L350.202 582.52V594.21L370.518 580.85V569.16Z" stroke="#F6F1FD" stroke-width="1.18" stroke-linecap="round" stroke-linejoin="round"/>
<path d="M370.518 542.44L350.202 555.78V567.49L370.518 554.13V542.44Z" stroke="#F6F1FD" stroke-width="1.18" stroke-linecap="round" stroke-linejoin="round"/>
<path d="M329.857 580.93L309.542 594.29V605.98L329.857 592.61V580.93Z" stroke="#F6F1FD" stroke-width="1.18" stroke-linecap="round" stroke-linejoin="round"/>
<path d="M329.867 580.93L350.183 594.29V605.98L329.867 592.61V580.93Z" stroke="#F6F1FD" stroke-width="1.18" stroke-linecap="round" stroke-linejoin="round"/>
<path d="M370.489 619.34L350.173 605.98V594.29L370.489 607.65V619.34Z" stroke="#F6F1FD" stroke-width="1.18" stroke-linecap="round" stroke-linejoin="round"/>
<path d="M257.293 536.78L268.725 544.3V555.95L248.39 542.59L257.293 536.78Z" stroke="#F6F1FD" stroke-width="1.18" stroke-linecap="round" stroke-linejoin="round"/>
<path d="M248.39 504.18L268.706 517.54V529.23L248.39 515.87V504.18Z" stroke="#F6F1FD" stroke-width="1.18" stroke-linecap="round" stroke-linejoin="round"/>
<path d="M289.255 503.94L268.939 517.3V528.99L289.255 515.63V503.94Z" stroke="#F6F1FD" stroke-width="1.18" stroke-linecap="round" stroke-linejoin="round"/>
<path d="M248.39 542.59L268.706 529.23L259.823 523.39L248.39 530.9V542.59Z" stroke="#F6F1FD" stroke-width="1.18" stroke-linecap="round" stroke-linejoin="round"/>
<path d="M309.542 544.12L329.857 557.49V569.18L309.542 555.78V544.12Z" stroke="#F6F1FD" stroke-width="1.18" stroke-linecap="round" stroke-linejoin="round"/>
<path d="M329.867 503.98L350.183 517.35V529.03L329.867 515.67V503.98Z" stroke="#F6F1FD" stroke-width="1.18" stroke-linecap="round" stroke-linejoin="round"/>
<path d="M329.867 542.39L350.183 529.03L341.29 523.19L329.857 530.71L329.867 542.39Z" stroke="#F6F1FD" stroke-width="1.18" stroke-linecap="round" stroke-linejoin="round"/>
<path d="M329.867 492.23L350.183 505.59V517.28L329.867 503.92V492.23Z" stroke="#F6F1FD" stroke-width="1.18" stroke-linecap="round" stroke-linejoin="round"/>
<path d="M361.606 498.08L350.173 505.59V517.28L370.489 503.92L361.606 498.08Z" stroke="#F6F1FD" stroke-width="1.18" stroke-linecap="round" stroke-linejoin="round"/>
<path d="M370.489 503.92L350.173 490.56V478.78L370.489 492.2V503.92Z" stroke="#F6F1FD" stroke-width="1.18" stroke-linecap="round" stroke-linejoin="round"/>
<path d="M289.255 492.23L309.571 505.59V517.28L289.255 503.92V492.23Z" stroke="#F6F1FD" stroke-width="1.18" stroke-linecap="round" stroke-linejoin="round"/>
<path d="M320.974 498.08L309.542 505.59V517.28L329.857 503.92L320.974 498.08Z" stroke="#F6F1FD" stroke-width="1.18" stroke-linecap="round" stroke-linejoin="round"/>
<path d="M329.857 503.92L309.542 490.56V478.78L329.857 492.2V503.92Z" stroke="#F6F1FD" stroke-width="1.18" stroke-linecap="round" stroke-linejoin="round"/>
<path d="M329.867 453.78L350.183 467.14V478.78L329.867 465.42V453.78Z" stroke="#F6F1FD" stroke-width="1.18" stroke-linecap="round" stroke-linejoin="round"/>
<path d="M370.489 453.78L350.173 467.14V478.78L370.489 465.42V453.78Z" stroke="#F6F1FD" stroke-width="1.18" stroke-linecap="round" stroke-linejoin="round"/>
<path d="M329.75 388.87L309.435 402.23V413.92L329.75 400.55V388.87Z" stroke="#F6F1FD" stroke-width="1.18" stroke-linecap="round" stroke-linejoin="round"/>
<path d="M361.499 421.43L350.066 428.95V440.64L370.392 427.28L361.499 421.43Z" stroke="#F6F1FD" stroke-width="1.18" stroke-linecap="round" stroke-linejoin="round"/>
<path d="M329.75 388.87L350.066 402.23V413.92L329.75 400.55V388.87Z" stroke="#F6F1FD" stroke-width="1.18" stroke-linecap="round" stroke-linejoin="round"/>
<path d="M370.392 427.28L350.076 413.92V402.23L370.392 415.59V427.28Z" stroke="#F6F1FD" stroke-width="1.18" stroke-linecap="round" stroke-linejoin="round"/>
<path d="M338.643 382.96L350.066 390.48V402.17L329.75 388.78L338.643 382.96Z" stroke="#F6F1FD" stroke-width="1.18" stroke-linecap="round" stroke-linejoin="round"/>
<path d="M309.435 352.07L329.75 365.43V377.12L309.435 363.78V352.07Z" stroke="#F6F1FD" stroke-width="1.18" stroke-linecap="round" stroke-linejoin="round"/>
<path d="M370.392 350.39L350.076 363.78V375.44L370.392 362.08V350.39Z" stroke="#F6F1FD" stroke-width="1.18" stroke-linecap="round" stroke-linejoin="round"/>
<path d="M370.392 377.12L350.076 390.48V402.17L370.392 388.78V377.12Z" stroke="#F6F1FD" stroke-width="1.18" stroke-linecap="round" stroke-linejoin="round"/>
<path d="M329.75 388.78L350.066 375.41L341.183 369.57L329.75 377.09V388.78Z" stroke="#F6F1FD" stroke-width="1.18" stroke-linecap="round" stroke-linejoin="round"/>
<path d="M338.643 344.49L350.066 352.01V363.7L329.75 350.33L338.643 344.49Z" stroke="#F6F1FD" stroke-width="1.18" stroke-linecap="round" stroke-linejoin="round"/>
<path d="M361.499 344.49L350.066 352.01V363.7L370.392 350.33L361.499 344.49Z" stroke="#F6F1FD" stroke-width="1.18" stroke-linecap="round" stroke-linejoin="round"/>
<path d="M329.75 311.92L350.066 325.28V336.97L329.75 323.61V311.92Z" stroke="#F6F1FD" stroke-width="1.18" stroke-linecap="round" stroke-linejoin="round"/>
<path d="M329.75 350.33L350.066 336.97L341.183 331.13L329.75 338.65V350.33Z" stroke="#F6F1FD" stroke-width="1.18" stroke-linecap="round" stroke-linejoin="round"/>
<path d="M329.75 300.17L350.066 313.53V325.22L329.75 311.86V300.17Z" stroke="#F6F1FD" stroke-width="1.18" stroke-linecap="round" stroke-linejoin="round"/>
<path d="M361.499 306.02L350.066 313.54V325.22L370.392 311.86L361.499 306.02Z" stroke="#F6F1FD" stroke-width="1.18" stroke-linecap="round" stroke-linejoin="round"/>
<path d="M370.392 311.86L350.076 298.5V286.78L370.392 300.2V311.86Z" stroke="#F6F1FD" stroke-width="1.18" stroke-linecap="round" stroke-linejoin="round"/>
<path d="M289.119 300.17L309.435 313.53V325.22L289.119 311.86V300.17Z" stroke="#F6F1FD" stroke-width="1.18" stroke-linecap="round" stroke-linejoin="round"/>
<path d="M320.867 306.02L309.435 313.54V325.22L329.75 311.86L320.867 306.02Z" stroke="#F6F1FD" stroke-width="1.18" stroke-linecap="round" stroke-linejoin="round"/>
<path d="M329.75 311.86L309.435 298.5V286.78L329.75 300.2V311.86Z" stroke="#F6F1FD" stroke-width="1.18" stroke-linecap="round" stroke-linejoin="round"/>
<path d="M329.76 261.7L350.076 275.06V286.78L329.76 273.42V261.7Z" stroke="#F6F1FD" stroke-width="1.18" stroke-linecap="round" stroke-linejoin="round"/>
<path d="M370.392 261.7L350.076 275.06V286.78L370.392 273.42V261.7Z" stroke="#F6F1FD" stroke-width="1.18" stroke-linecap="round" stroke-linejoin="round"/>
<path d="M370.392 234.98L350.076 248.34V260.03L370.392 246.67V234.98Z" stroke="#F6F1FD" stroke-width="1.18" stroke-linecap="round" stroke-linejoin="round"/>
<path d="M277.667 484.9L289.09 492.42V504.11L268.823 490.78L277.667 484.9Z" stroke="#F6F1FD" stroke-width="1.18" stroke-linecap="round" stroke-linejoin="round"/>
<path d="M268.823 452.34L289.138 465.7V477.39L268.823 464.02V452.34Z" stroke="#F6F1FD" stroke-width="1.18" stroke-linecap="round" stroke-linejoin="round"/>
<path d="M329.731 453.78L309.415 467.14V478.84L329.731 465.48V453.78Z" stroke="#F6F1FD" stroke-width="1.18" stroke-linecap="round" stroke-linejoin="round"/>
<path d="M268.823 490.78L289.138 477.42L280.255 471.57L268.823 479.06V490.78Z" stroke="#F6F1FD" stroke-width="1.18" stroke-linecap="round" stroke-linejoin="round"/>
<path d="M309.415 490.78L289.09 477.42L297.983 471.57L309.415 479.09V490.78Z" stroke="#F6F1FD" stroke-width="1.18" stroke-linecap="round" stroke-linejoin="round"/>
<path d="M259.891 484.9L248.458 492.42V504.11L268.823 490.78L259.891 484.9Z" stroke="#F6F1FD" stroke-width="1.18" stroke-linecap="round" stroke-linejoin="round"/>
<path d="M268.823 452.34L248.507 465.7V477.39L268.823 464.02V452.34Z" stroke="#F6F1FD" stroke-width="1.18" stroke-linecap="round" stroke-linejoin="round"/>
<path d="M268.823 490.78L248.507 477.42L257.39 471.57L268.823 479.06V490.78Z" stroke="#F6F1FD" stroke-width="1.18" stroke-linecap="round" stroke-linejoin="round"/>
<path d="M309.415 413.86L329.731 427.23V438.91L309.415 425.55V413.86Z" stroke="#F6F1FD" stroke-width="1.18" stroke-linecap="round" stroke-linejoin="round"/>
<path d="M228.143 413.86L248.458 427.23V438.91L228.143 425.55V413.86Z" stroke="#F6F1FD" stroke-width="1.18" stroke-linecap="round" stroke-linejoin="round"/>
<path d="M268.823 413.86L248.507 427.23V438.91L268.823 425.55V413.86Z" stroke="#F6F1FD" stroke-width="1.18" stroke-linecap="round" stroke-linejoin="round"/>
<path d="M228.143 452.27L248.458 438.91L239.575 433.06L228.143 440.58V452.27Z" stroke="#F6F1FD" stroke-width="1.18" stroke-linecap="round" stroke-linejoin="round"/>
<path d="M268.823 452.27L248.507 438.91L257.39 433.06L268.823 440.59V452.27Z" stroke="#F6F1FD" stroke-width="1.18" stroke-linecap="round" stroke-linejoin="round"/>
<path d="M329.857 273.27L309.542 286.63V298.32L329.857 284.96V273.27Z" stroke="#F6F1FD" stroke-width="1.18" stroke-linecap="round" stroke-linejoin="round"/>
<path d="M361.606 305.78L350.173 313.3V325.04L370.489 311.67L361.606 305.78Z" stroke="#F6F1FD" stroke-width="1.18" stroke-linecap="round" stroke-linejoin="round"/>
<path d="M329.867 273.26L350.183 286.63V298.32L329.867 284.96V273.26Z" stroke="#F6F1FD" stroke-width="1.18" stroke-linecap="round" stroke-linejoin="round"/>
<path d="M370.489 311.68L350.173 298.31V286.63L370.489 299.99V311.68Z" stroke="#F6F1FD" stroke-width="1.18" stroke-linecap="round" stroke-linejoin="round"/>
<path d="M257.303 344.47L268.735 351.99V363.68L248.39 350.31L257.303 344.47Z" stroke="#F6F1FD" stroke-width="1.18" stroke-linecap="round" stroke-linejoin="round"/>
<path d="M248.39 311.9L268.716 325.27V336.95L248.39 323.59V311.9Z" stroke="#F6F1FD" stroke-width="1.18" stroke-linecap="round" stroke-linejoin="round"/>
<path d="M289.255 311.66L268.939 325.03V336.71L289.255 323.35V311.66Z" stroke="#F6F1FD" stroke-width="1.18" stroke-linecap="round" stroke-linejoin="round"/>
<path d="M248.39 350.31L268.716 336.95L259.823 331.11L248.39 338.63V350.31Z" stroke="#F6F1FD" stroke-width="1.18" stroke-linecap="round" stroke-linejoin="round"/>
<path d="M257.293 229.09L268.725 236.61V248.29L248.39 234.93L257.293 229.09Z" stroke="#F6F1FD" stroke-width="1.18" stroke-linecap="round" stroke-linejoin="round"/>
<path d="M248.39 196.52L268.725 209.88V221.57L248.39 208.21V196.52Z" stroke="#F6F1FD" stroke-width="1.18" stroke-linecap="round" stroke-linejoin="round"/>
<path d="M289.255 196.28L268.939 209.64V221.33L289.255 207.97V196.28Z" stroke="#F6F1FD" stroke-width="1.18" stroke-linecap="round" stroke-linejoin="round"/>
<path d="M248.39 234.93L268.706 221.57L259.823 215.73L248.39 223.24V234.93Z" stroke="#F6F1FD" stroke-width="1.18" stroke-linecap="round" stroke-linejoin="round"/>
<path d="M338.75 267.36L350.183 274.88V286.57L329.867 273.2L338.75 267.36Z" stroke="#F6F1FD" stroke-width="1.18" stroke-linecap="round" stroke-linejoin="round"/>
<path d="M309.542 236.471L329.857 249.781V261.521L309.542 248.151V236.471Z" stroke="#F6F1FD" stroke-width="1.18" stroke-linecap="round" stroke-linejoin="round"/>
<path d="M370.489 234.78L350.173 248.14V259.84L370.489 246.48V234.78Z" stroke="#F6F1FD" stroke-width="1.18" stroke-linecap="round" stroke-linejoin="round"/>
<path d="M370.489 261.52L350.173 274.88V286.57L370.489 273.2V261.52Z" stroke="#F6F1FD" stroke-width="1.18" stroke-linecap="round" stroke-linejoin="round"/>
<path d="M329.867 273.21L350.183 259.85L341.29 254L329.857 261.52L329.867 273.21Z" stroke="#F6F1FD" stroke-width="1.18" stroke-linecap="round" stroke-linejoin="round"/>
<path d="M338.75 228.89L350.173 236.41V248.09L329.857 234.73L338.75 228.89Z" stroke="#F6F1FD" stroke-width="1.18" stroke-linecap="round" stroke-linejoin="round"/>
<path d="M361.606 228.89L350.173 236.41V248.09L370.489 234.73L361.606 228.89Z" stroke="#F6F1FD" stroke-width="1.18" stroke-linecap="round" stroke-linejoin="round"/>
<path d="M329.867 196.32L350.183 209.68V221.37L329.867 208.01V196.32Z" stroke="#F6F1FD" stroke-width="1.18" stroke-linecap="round" stroke-linejoin="round"/>
<path d="M329.867 234.73L350.183 221.37L341.29 215.53L329.857 223.04L329.867 234.73Z" stroke="#F6F1FD" stroke-width="1.18" stroke-linecap="round" stroke-linejoin="round"/>
<path d="M329.867 184.57L350.183 197.93V209.62L329.867 196.26V184.57Z" stroke="#F6F1FD" stroke-width="1.18" stroke-linecap="round" stroke-linejoin="round"/>
<path d="M361.606 190.42L350.173 197.93V209.62L370.489 196.26L361.606 190.42Z" stroke="#F6F1FD" stroke-width="1.18" stroke-linecap="round" stroke-linejoin="round"/>
<path d="M370.489 196.26L350.173 182.9V171.15L370.489 184.57V196.26Z" stroke="#F6F1FD" stroke-width="1.18" stroke-linecap="round" stroke-linejoin="round"/>
<path d="M289.255 184.57L309.571 197.93V209.62L289.255 196.26V184.57Z" stroke="#F6F1FD" stroke-width="1.18" stroke-linecap="round" stroke-linejoin="round"/>
<path d="M320.974 190.42L309.542 197.93V209.62L329.857 196.26L320.974 190.42Z" stroke="#F6F1FD" stroke-width="1.18" stroke-linecap="round" stroke-linejoin="round"/>
<path d="M329.857 196.26L309.542 182.9V171.15L329.857 184.57V196.26Z" stroke="#F6F1FD" stroke-width="1.18" stroke-linecap="round" stroke-linejoin="round"/>
<path d="M329.867 146.1L350.183 159.46V171.15L329.867 157.78V146.1Z" stroke="#F6F1FD" stroke-width="1.18" stroke-linecap="round" stroke-linejoin="round"/>
<path d="M370.489 146.1L350.173 159.46V171.15L370.489 157.78V146.1Z" stroke="#F6F1FD" stroke-width="1.18" stroke-linecap="round" stroke-linejoin="round"/>
<path d="M370.489 119.381L350.173 132.781V144.431L370.489 131.071V119.381Z" stroke="#F6F1FD" stroke-width="1.18" stroke-linecap="round" stroke-linejoin="round"/>
<path d="M228.114 337.12L248.39 350.48V362.17L228.114 348.78V337.12Z" stroke="#F6F1FD" stroke-width="1.18" stroke-linecap="round" stroke-linejoin="round"/>
<path d="M196.375 369.69L207.798 377.2V388.89L187.482 375.53L196.375 369.69Z" stroke="#F6F1FD" stroke-width="1.18" stroke-linecap="round" stroke-linejoin="round"/>
<path d="M187.482 337.12L207.798 350.48V362.17L187.482 348.78V337.12Z" stroke="#F6F1FD" stroke-width="1.18" stroke-linecap="round" stroke-linejoin="round"/>
<path d="M228.114 337.12L207.798 350.48V362.17L228.114 348.78V337.12Z" stroke="#F6F1FD" stroke-width="1.18" stroke-linecap="round" stroke-linejoin="round"/>
<path d="M187.482 375.53L207.798 362.17L198.915 356.32L187.482 363.84V375.53Z" stroke="#F6F1FD" stroke-width="1.18" stroke-linecap="round" stroke-linejoin="round"/>
<path d="M228.114 375.53L207.798 362.17L216.691 356.32L228.123 363.84L228.114 375.53Z" stroke="#F6F1FD" stroke-width="1.18" stroke-linecap="round" stroke-linejoin="round"/>
<path d="M228.094 298.49L248.39 311.85V323.54L228.094 310.18V298.49Z" stroke="#F6F1FD" stroke-width="1.18" stroke-linecap="round" stroke-linejoin="round"/>
<path d="M196.375 331.22L207.798 338.73V350.42L187.482 337.06L196.375 331.22Z" stroke="#F6F1FD" stroke-width="1.18" stroke-linecap="round" stroke-linejoin="round"/>
<path d="M187.482 298.65L207.798 312.01V323.7L187.482 310.34V298.65Z" stroke="#F6F1FD" stroke-width="1.18" stroke-linecap="round" stroke-linejoin="round"/>
<path d="M228.114 298.65L207.798 312.01V323.7L228.114 310.34V298.65Z" stroke="#F6F1FD" stroke-width="1.18" stroke-linecap="round" stroke-linejoin="round"/>
<path d="M187.482 337.06L207.798 323.7L198.915 317.85L187.482 325.37V337.06Z" stroke="#F6F1FD" stroke-width="1.18" stroke-linecap="round" stroke-linejoin="round"/>
<path d="M146.841 325.37L167.166 338.73V350.42L146.841 337.06V325.37Z" stroke="#F6F1FD" stroke-width="1.18" stroke-linecap="round" stroke-linejoin="round"/>
<path d="M178.599 331.22L167.167 338.73V350.42L187.482 337.06L178.599 331.22Z" stroke="#F6F1FD" stroke-width="1.18" stroke-linecap="round" stroke-linejoin="round"/>
<path d="M187.482 337.06L167.167 323.7V311.95L187.482 325.37V337.06Z" stroke="#F6F1FD" stroke-width="1.18" stroke-linecap="round" stroke-linejoin="round"/>
<path d="M268.657 555.94L288.973 569.3V580.99L268.657 567.63V555.94Z" stroke="#F6F1FD" stroke-width="1.18" stroke-linecap="round" stroke-linejoin="round"/>
<path d="M236.9 588.51L248.332 596.03V607.71L228.016 594.35L236.9 588.51Z" stroke="#F6F1FD" stroke-width="1.18" stroke-linecap="round" stroke-linejoin="round"/>
<path d="M228.016 555.94L248.332 569.3V580.99L228.016 567.63V555.94Z" stroke="#F6F1FD" stroke-width="1.18" stroke-linecap="round" stroke-linejoin="round"/>
<path d="M268.648 555.94L248.332 569.3V580.99L268.648 567.63V555.94Z" stroke="#F6F1FD" stroke-width="1.18" stroke-linecap="round" stroke-linejoin="round"/>
<path d="M228.016 594.35L248.332 580.99L239.449 575.15L228.016 582.66V594.35Z" stroke="#F6F1FD" stroke-width="1.18" stroke-linecap="round" stroke-linejoin="round"/>
<path d="M196.268 588.51L207.701 596.03V607.71L187.385 594.35L196.268 588.51Z" stroke="#F6F1FD" stroke-width="1.18" stroke-linecap="round" stroke-linejoin="round"/>
<path d="M187.385 555.94L207.701 569.3V580.99L187.385 567.63V555.94Z" stroke="#F6F1FD" stroke-width="1.18" stroke-linecap="round" stroke-linejoin="round"/>
<path d="M228.016 555.94L207.701 569.3V580.99L228.016 567.63V555.94Z" stroke="#F6F1FD" stroke-width="1.18" stroke-linecap="round" stroke-linejoin="round"/>
<path d="M187.385 594.35L207.701 580.99L198.817 575.15L187.385 582.66V594.35Z" stroke="#F6F1FD" stroke-width="1.18" stroke-linecap="round" stroke-linejoin="round"/>
<path d="M228.016 517.471L207.701 530.781V542.521L228.016 529.161V517.471Z" stroke="#F6F1FD" stroke-width="1.18" stroke-linecap="round" stroke-linejoin="round"/>
<path d="M228.016 555.88L207.701 542.52L216.584 536.68L228.016 544.19V555.88Z" stroke="#F6F1FD" stroke-width="1.18" stroke-linecap="round" stroke-linejoin="round"/>
<path d="M175.962 228.66L187.395 236.18V247.87L167.079 234.51L175.962 228.66Z" stroke="#F6F1FD" stroke-width="1.18" stroke-linecap="round" stroke-linejoin="round"/>
<path d="M198.827 228.66L187.395 236.18V247.87L207.71 234.51L198.827 228.66Z" stroke="#F6F1FD" stroke-width="1.18" stroke-linecap="round" stroke-linejoin="round"/>
<path d="M268.823 144.32L289.158 157.68V169.37L268.823 156.01V144.32Z" stroke="#F6F1FD" stroke-width="1.18" stroke-linecap="round" stroke-linejoin="round"/>
<path d="M237.094 176.89L248.517 184.41V196.09L228.201 182.73L237.094 176.89Z" stroke="#F6F1FD" stroke-width="1.18" stroke-linecap="round" stroke-linejoin="round"/>
<path d="M228.201 144.32L248.517 157.68V169.37L228.201 156.01V144.32Z" stroke="#F6F1FD" stroke-width="1.18" stroke-linecap="round" stroke-linejoin="round"/>
<path d="M268.823 144.32L248.517 157.68V169.37L268.823 156.01V144.32Z" stroke="#F6F1FD" stroke-width="1.18" stroke-linecap="round" stroke-linejoin="round"/>
<path d="M228.201 182.73L248.517 169.37L239.634 163.53L228.201 171.04V182.73Z" stroke="#F6F1FD" stroke-width="1.18" stroke-linecap="round" stroke-linejoin="round"/>
<path d="M196.453 176.89L207.886 184.41V196.09L187.57 182.73L196.453 176.89Z" stroke="#F6F1FD" stroke-width="1.18" stroke-linecap="round" stroke-linejoin="round"/>
<path d="M187.57 144.32L207.886 157.68V169.37L187.57 156.01V144.32Z" stroke="#F6F1FD" stroke-width="1.18" stroke-linecap="round" stroke-linejoin="round"/>
<path d="M228.201 144.32L207.885 157.68V169.37L228.201 156.01V144.32Z" stroke="#F6F1FD" stroke-width="1.18" stroke-linecap="round" stroke-linejoin="round"/>
<path d="M187.57 182.73L207.886 169.37L199.002 163.53L187.57 171.04V182.73Z" stroke="#F6F1FD" stroke-width="1.18" stroke-linecap="round" stroke-linejoin="round"/>
<path d="M228.201 105.85L207.885 119.21V130.9L228.201 117.53V105.85Z" stroke="#F6F1FD" stroke-width="1.18" stroke-linecap="round" stroke-linejoin="round"/>
<path d="M228.201 144.26L207.885 130.9L216.769 125.06L228.201 132.57V144.26Z" stroke="#F6F1FD" stroke-width="1.18" stroke-linecap="round" stroke-linejoin="round"/>
<path d="M135.127 536.53L146.549 544.05V555.73L126.234 542.37L135.127 536.53Z" stroke="#F6F1FD" stroke-width="1.18" stroke-linecap="round" stroke-linejoin="round"/>
<path d="M126.234 503.96L146.559 517.32V529.01L126.234 515.65V503.96Z" stroke="#F6F1FD" stroke-width="1.18" stroke-linecap="round" stroke-linejoin="round"/>
<path d="M187.19 505.41L166.875 518.78V530.47L187.19 517.1V505.41Z" stroke="#F6F1FD" stroke-width="1.18" stroke-linecap="round" stroke-linejoin="round"/>
<path d="M126.234 542.37L146.559 529.01L137.666 523.17L126.234 530.68V542.37Z" stroke="#F6F1FD" stroke-width="1.18" stroke-linecap="round" stroke-linejoin="round"/>
<path d="M166.875 542.37L146.559 529.01L155.442 523.17L166.875 530.68V542.37Z" stroke="#F6F1FD" stroke-width="1.18" stroke-linecap="round" stroke-linejoin="round"/>
<path d="M117.35 536.53L105.918 544.05V555.73L126.243 542.37L117.35 536.53Z" stroke="#F6F1FD" stroke-width="1.18" stroke-linecap="round" stroke-linejoin="round"/>
<path d="M126.243 503.96L105.918 517.32V529.01L126.243 515.65V503.96Z" stroke="#F6F1FD" stroke-width="1.18" stroke-linecap="round" stroke-linejoin="round"/>
<path d="M126.243 542.37L105.918 529.01L114.811 523.17L126.243 530.68V542.37Z" stroke="#F6F1FD" stroke-width="1.18" stroke-linecap="round" stroke-linejoin="round"/>
<path d="M135.127 498.06L146.549 505.57V517.26L126.234 503.9L135.127 498.06Z" stroke="#F6F1FD" stroke-width="1.18" stroke-linecap="round" stroke-linejoin="round"/>
<path d="M157.982 498.06L146.559 505.57V517.26L166.875 503.9L157.982 498.06Z" stroke="#F6F1FD" stroke-width="1.18" stroke-linecap="round" stroke-linejoin="round"/>
<path d="M207.526 465.49L187.19 478.85V490.54L207.526 477.18V465.49Z" stroke="#F6F1FD" stroke-width="1.18" stroke-linecap="round" stroke-linejoin="round"/>
<path d="M126.234 503.9L146.559 490.54L137.666 484.69L126.234 492.21V503.9Z" stroke="#F6F1FD" stroke-width="1.18" stroke-linecap="round" stroke-linejoin="round"/>
<path d="M126.243 465.491L105.918 478.851V490.541L126.243 477.181V465.491Z" stroke="#F6F1FD" stroke-width="1.18" stroke-linecap="round" stroke-linejoin="round"/>
<path d="M126.243 503.9L105.918 490.54L114.811 484.7L126.243 492.21V503.9Z" stroke="#F6F1FD" stroke-width="1.18" stroke-linecap="round" stroke-linejoin="round"/>
<path d="M196.25 446.28L207.682 453.78V465.49L187.366 452.13L196.25 446.28Z" stroke="#F6F1FD" stroke-width="1.18" stroke-linecap="round" stroke-linejoin="round"/>
<path d="M187.366 413.71L207.682 427.08V438.78L187.366 425.41V413.71Z" stroke="#F6F1FD" stroke-width="1.18" stroke-linecap="round" stroke-linejoin="round"/>
<path d="M227.958 413.71L207.681 427.08V438.78L227.958 425.4V413.71Z" stroke="#F6F1FD" stroke-width="1.18" stroke-linecap="round" stroke-linejoin="round"/>
<path d="M187.366 452.13L207.681 438.78L198.769 432.92L187.336 440.44L187.366 452.13Z" stroke="#F6F1FD" stroke-width="1.18" stroke-linecap="round" stroke-linejoin="round"/>
<path d="M155.617 446.28L167.05 453.78V465.49L146.734 452.13L155.617 446.28Z" stroke="#F6F1FD" stroke-width="1.18" stroke-linecap="round" stroke-linejoin="round"/>
<path d="M146.734 413.71L167.05 427.08V438.78L146.734 425.41V413.71Z" stroke="#F6F1FD" stroke-width="1.18" stroke-linecap="round" stroke-linejoin="round"/>
<path d="M187.365 413.71L167.05 427.08V438.78L187.365 425.41V413.71Z" stroke="#F6F1FD" stroke-width="1.18" stroke-linecap="round" stroke-linejoin="round"/>
<path d="M146.734 452.13L167.05 438.78L158.157 432.93L146.734 440.45V452.13Z" stroke="#F6F1FD" stroke-width="1.18" stroke-linecap="round" stroke-linejoin="round"/>
<path d="M187.365 375.25L167.05 388.61V400.3L187.365 386.93V375.25Z" stroke="#F6F1FD" stroke-width="1.18" stroke-linecap="round" stroke-linejoin="round"/>
<path d="M187.365 413.66L167.05 400.3L175.933 394.45L187.365 401.97V413.66Z" stroke="#F6F1FD" stroke-width="1.18" stroke-linecap="round" stroke-linejoin="round"/>
<path d="M94.6607 382.45L106.093 389.97V401.66L85.8066 388.3L94.6607 382.45Z" stroke="#F6F1FD" stroke-width="1.18" stroke-linecap="round" stroke-linejoin="round"/>
<path d="M85.8066 349.89L106.122 363.25V374.94L85.8066 361.58V349.89Z" stroke="#F6F1FD" stroke-width="1.18" stroke-linecap="round" stroke-linejoin="round"/>
<path d="M126.438 349.89L106.122 363.25V374.94L126.438 361.58V349.89Z" stroke="#F6F1FD" stroke-width="1.18" stroke-linecap="round" stroke-linejoin="round"/>
<path d="M85.8066 388.3L106.122 374.94L97.2293 369.09L85.8066 376.61V388.3Z" stroke="#F6F1FD" stroke-width="1.18" stroke-linecap="round" stroke-linejoin="round"/>
<path d="M54.0585 382.45L65.4714 389.97V401.66L45.1558 388.3L54.0585 382.45Z" stroke="#F6F1FD" stroke-width="1.18" stroke-linecap="round" stroke-linejoin="round"/>
<path d="M45.1658 349.89L65.4717 363.25V374.94L45.1658 361.58V349.89Z" stroke="#F6F1FD" stroke-width="1.18" stroke-linecap="round" stroke-linejoin="round"/>
<path d="M85.8066 349.89L65.4714 363.25V374.94L85.8066 361.58V349.89Z" stroke="#F6F1FD" stroke-width="1.18" stroke-linecap="round" stroke-linejoin="round"/>
<path d="M45.1655 388.3L65.4714 374.94L56.5882 369.09L45.1558 376.61L45.1655 388.3Z" stroke="#F6F1FD" stroke-width="1.18" stroke-linecap="round" stroke-linejoin="round"/>
<path d="M85.8066 311.42L65.4714 324.78V336.47L85.7871 323.1L85.8066 311.42Z" stroke="#F6F1FD" stroke-width="1.18" stroke-linecap="round" stroke-linejoin="round"/>
<path d="M85.8066 349.78L65.4714 336.47L74.3547 330.62L85.7871 338.14L85.8066 349.78Z" stroke="#F6F1FD" stroke-width="1.18" stroke-linecap="round" stroke-linejoin="round"/>
<path d="M135.321 305.51L146.754 313.03V324.72L126.438 311.36L135.321 305.51Z" stroke="#F6F1FD" stroke-width="1.18" stroke-linecap="round" stroke-linejoin="round"/>
<path d="M126.438 272.94L146.754 286.31V297.99L126.438 284.63V272.94Z" stroke="#F6F1FD" stroke-width="1.18" stroke-linecap="round" stroke-linejoin="round"/>
<path d="M187.385 274.4L167.069 287.78V299.45L187.385 286.09V274.4Z" stroke="#F6F1FD" stroke-width="1.18" stroke-linecap="round" stroke-linejoin="round"/>
<path d="M126.438 311.36L146.754 297.99L137.87 292.15L126.438 299.67V311.36Z" stroke="#F6F1FD" stroke-width="1.18" stroke-linecap="round" stroke-linejoin="round"/>
<path d="M167.069 311.36L146.754 297.99L155.637 292.15L167.069 299.67V311.36Z" stroke="#F6F1FD" stroke-width="1.18" stroke-linecap="round" stroke-linejoin="round"/>
<path d="M117.555 305.51L106.122 313.03V324.72L126.438 311.36L117.555 305.51Z" stroke="#F6F1FD" stroke-width="1.18" stroke-linecap="round" stroke-linejoin="round"/>
<path d="M126.438 272.94L106.122 286.31V297.99L126.438 284.63V272.94Z" stroke="#F6F1FD" stroke-width="1.18" stroke-linecap="round" stroke-linejoin="round"/>
<path d="M126.438 311.36L106.122 297.99L115.006 292.15L126.438 299.67V311.36Z" stroke="#F6F1FD" stroke-width="1.18" stroke-linecap="round" stroke-linejoin="round"/>
<path d="M45.1655 272.94L65.4714 286.31V297.99L45.1558 284.63L45.1655 272.94Z" stroke="#F6F1FD" stroke-width="1.18" stroke-linecap="round" stroke-linejoin="round"/>
<path d="M85.8066 272.94L65.4714 286.31V297.99L85.7871 284.63L85.8066 272.94Z" stroke="#F6F1FD" stroke-width="1.18" stroke-linecap="round" stroke-linejoin="round"/>
<path d="M45.1655 311.36L65.4714 297.99L56.5882 292.15L45.1558 299.67L45.1655 311.36Z" stroke="#F6F1FD" stroke-width="1.18" stroke-linecap="round" stroke-linejoin="round"/>
<path d="M85.8066 311.36L65.4714 297.99L74.3547 292.15L85.7871 299.67L85.8066 311.36Z" stroke="#F6F1FD" stroke-width="1.18" stroke-linecap="round" stroke-linejoin="round"/>
<path d="M135.321 267.04L146.754 274.56V286.24L126.438 272.88L135.321 267.04Z" stroke="#F6F1FD" stroke-width="1.18" stroke-linecap="round" stroke-linejoin="round"/>
<path d="M158.186 267.04L146.754 274.56V286.24L167.069 272.88L158.186 267.04Z" stroke="#F6F1FD" stroke-width="1.18" stroke-linecap="round" stroke-linejoin="round"/>
<path d="M126.438 272.88L146.754 259.52L137.87 253.68L126.438 261.19V272.88Z" stroke="#F6F1FD" stroke-width="1.18" stroke-linecap="round" stroke-linejoin="round"/>
<path d="M85.8066 234.47L106.122 247.78V259.52L85.8066 246.16V234.47Z" stroke="#F6F1FD" stroke-width="1.18" stroke-linecap="round" stroke-linejoin="round"/>
<path d="M126.438 234.47L106.122 247.78V259.52L126.438 246.16V234.47Z" stroke="#F6F1FD" stroke-width="1.18" stroke-linecap="round" stroke-linejoin="round"/>
<path d="M85.8066 272.88L106.122 259.52L97.2293 253.68L85.8066 261.2V272.88Z" stroke="#F6F1FD" stroke-width="1.18" stroke-linecap="round" stroke-linejoin="round"/>
<path d="M126.438 272.88L106.122 259.52L115.006 253.68L126.438 261.2V272.88Z" stroke="#F6F1FD" stroke-width="1.18" stroke-linecap="round" stroke-linejoin="round"/>
<path d="M45.1655 234.47L65.4714 247.78V259.52L45.1558 246.16L45.1655 234.47Z" stroke="#F6F1FD" stroke-width="1.18" stroke-linecap="round" stroke-linejoin="round"/>
<path d="M155.812 215.27L167.244 222.78V234.47L146.929 221.11L155.812 215.27Z" stroke="#F6F1FD" stroke-width="1.18" stroke-linecap="round" stroke-linejoin="round"/>
<path d="M146.929 182.69L167.244 196.06V207.78L146.929 194.42V182.69Z" stroke="#F6F1FD" stroke-width="1.18" stroke-linecap="round" stroke-linejoin="round"/>
<path d="M146.929 221.11L167.244 207.78L158.361 201.94L146.929 209.45V221.11Z" stroke="#F6F1FD" stroke-width="1.18" stroke-linecap="round" stroke-linejoin="round"/>
<path d="M187.56 144.23L167.244 157.59V169.28L187.56 155.92V144.23Z" stroke="#F6F1FD" stroke-width="1.18" stroke-linecap="round" stroke-linejoin="round"/>
<path d="M187.56 182.64L167.244 169.28L176.137 163.43L187.56 170.95V182.64Z" stroke="#F6F1FD" stroke-width="1.18" stroke-linecap="round" stroke-linejoin="round"/>
<path d="M54.0393 240.23L65.4717 247.78V259.44L45.156 246.07L54.0393 240.23Z" stroke="#F6F1FD" stroke-width="1.18" stroke-linecap="round" stroke-linejoin="round"/>
<path d="M45.146 207.66L65.4714 221.03V232.71L45.1557 219.35L45.146 207.66Z" stroke="#F6F1FD" stroke-width="1.18" stroke-linecap="round" stroke-linejoin="round"/>
<path d="M85.7871 207.66L65.4714 221.03V232.71L85.7968 219.35L85.7871 207.66Z" stroke="#F6F1FD" stroke-width="1.18" stroke-linecap="round" stroke-linejoin="round"/>
<path d="M45.146 246.08L65.4714 232.71L56.5882 226.87L45.1557 234.39L45.146 246.08Z" stroke="#F6F1FD" stroke-width="1.18" stroke-linecap="round" stroke-linejoin="round"/>
<path d="M13.3979 240.23L24.8303 247.78V259.44L4.51465 246.07L13.3979 240.23Z" stroke="#F6F1FD" stroke-width="1.18" stroke-linecap="round" stroke-linejoin="round"/>
<path d="M4.51465 207.66L24.8303 221.03V232.71L4.51465 219.35V207.66Z" stroke="#F6F1FD" stroke-width="1.18" stroke-linecap="round" stroke-linejoin="round"/>
<path d="M45.146 207.66L24.8303 221.03V232.71L45.146 219.35V207.66Z" stroke="#F6F1FD" stroke-width="1.18" stroke-linecap="round" stroke-linejoin="round"/>
<path d="M4.51465 246.08L24.8303 232.71L15.9471 226.87L4.51465 234.39V246.08Z" stroke="#F6F1FD" stroke-width="1.18" stroke-linecap="round" stroke-linejoin="round"/>
<path d="M45.146 169.19L24.8303 182.55V194.24L45.146 180.88V169.19Z" stroke="#F6F1FD" stroke-width="1.18" stroke-linecap="round" stroke-linejoin="round"/>
<path d="M45.146 207.6L24.8303 194.24L33.7136 188.4L45.146 195.92V207.6Z" stroke="#F6F1FD" stroke-width="1.18" stroke-linecap="round" stroke-linejoin="round"/>
<path d="M94.6609 163.29L106.103 170.78V182.49L85.7874 169.13L94.6609 163.29Z" stroke="#F6F1FD" stroke-width="1.18" stroke-linecap="round" stroke-linejoin="round"/>
<path d="M85.7773 130.72L106.103 144.08V155.78L85.7773 142.42V130.72Z" stroke="#F6F1FD" stroke-width="1.18" stroke-linecap="round" stroke-linejoin="round"/>
<path d="M146.734 132.17L126.418 145.54V157.22L146.734 143.86V132.17Z" stroke="#F6F1FD" stroke-width="1.18" stroke-linecap="round" stroke-linejoin="round"/>
<path d="M85.7773 169.13L106.103 155.78L97.2098 149.94L85.7773 157.45V169.13Z" stroke="#F6F1FD" stroke-width="1.18" stroke-linecap="round" stroke-linejoin="round"/>
<path d="M126.418 169.13L106.103 155.78L114.986 149.94L126.418 157.45V169.13Z" stroke="#F6F1FD" stroke-width="1.18" stroke-linecap="round" stroke-linejoin="round"/>
<path d="M76.8941 163.29L65.4714 170.78V182.49L85.7968 169.13L76.8941 163.29Z" stroke="#F6F1FD" stroke-width="1.18" stroke-linecap="round" stroke-linejoin="round"/>
<path d="M85.7871 130.72L65.4714 144.08V155.78L85.7968 142.42L85.7871 130.72Z" stroke="#F6F1FD" stroke-width="1.18" stroke-linecap="round" stroke-linejoin="round"/>
<path d="M85.7871 169.13L65.4714 155.78L74.3644 149.94L85.7968 157.45L85.7871 169.13Z" stroke="#F6F1FD" stroke-width="1.18" stroke-linecap="round" stroke-linejoin="round"/>
<path d="M4.51465 130.72L24.8303 144.08V155.78L4.51465 142.42V130.72Z" stroke="#F6F1FD" stroke-width="1.18" stroke-linecap="round" stroke-linejoin="round"/>
<path d="M45.146 130.72L24.8303 144.08V155.78L45.146 142.42V130.72Z" stroke="#F6F1FD" stroke-width="1.18" stroke-linecap="round" stroke-linejoin="round"/>
<path d="M4.51465 169.13L24.8303 155.78L15.9471 149.94L4.51465 157.45V169.13Z" stroke="#F6F1FD" stroke-width="1.18" stroke-linecap="round" stroke-linejoin="round"/>
<path d="M45.146 169.13L24.8303 155.78L33.7136 149.94L45.146 157.45V169.13Z" stroke="#F6F1FD" stroke-width="1.18" stroke-linecap="round" stroke-linejoin="round"/>
<path d="M94.6606 124.78L106.093 132.3V144.02L85.7773 130.66L94.6606 124.78Z" stroke="#F6F1FD" stroke-width="1.18" stroke-linecap="round" stroke-linejoin="round"/>
<path d="M117.525 124.78L106.103 132.3V144.02L126.418 130.66L117.525 124.78Z" stroke="#F6F1FD" stroke-width="1.18" stroke-linecap="round" stroke-linejoin="round"/>
<path d="M167.05 92.2498L146.734 105.61V117.3L167.05 103.94V92.2498Z" stroke="#F6F1FD" stroke-width="1.18" stroke-linecap="round" stroke-linejoin="round"/>
<path d="M85.7773 130.66L106.103 117.3L97.2098 111.45L85.7773 118.97V130.66Z" stroke="#F6F1FD" stroke-width="1.18" stroke-linecap="round" stroke-linejoin="round"/>
<path d="M45.146 92.2502L65.4714 105.62V117.3L45.1557 103.94L45.146 92.2502Z" stroke="#F6F1FD" stroke-width="1.18" stroke-linecap="round" stroke-linejoin="round"/>
<path d="M85.7871 92.2502L65.4714 105.62V117.3L85.7968 103.94L85.7871 92.2502Z" stroke="#F6F1FD" stroke-width="1.18" stroke-linecap="round" stroke-linejoin="round"/>
<path d="M45.146 130.66L65.4714 117.3L56.5882 111.45L45.1557 118.97L45.146 130.66Z" stroke="#F6F1FD" stroke-width="1.18" stroke-linecap="round" stroke-linejoin="round"/>
<path d="M85.7871 130.66L65.4714 117.3L74.3644 111.45L85.7968 118.97L85.7871 130.66Z" stroke="#F6F1FD" stroke-width="1.18" stroke-linecap="round" stroke-linejoin="round"/>
<path d="M4.51465 92.2498L24.8303 105.62V117.3L4.51465 103.94V92.2498Z" stroke="#F6F1FD" stroke-width="1.18" stroke-linecap="round" stroke-linejoin="round"/>
<path d="M-5.62378 324.91L14.6919 338.27V349.96L-5.62378 336.6V324.91Z" stroke="#F6F1FD" stroke-width="1.18" stroke-linecap="round" stroke-linejoin="round"/>
<path d="M26.1243 330.78L14.6919 338.3V349.96L35.0076 336.6L26.1243 330.78Z" stroke="#F6F1FD" stroke-width="1.18" stroke-linecap="round" stroke-linejoin="round"/>
<path d="M35.0076 336.6L14.6919 323.24V311.49L35.0076 324.91V336.6Z" stroke="#F6F1FD" stroke-width="1.18" stroke-linecap="round" stroke-linejoin="round"/>
<path d="M155.792 73.04L167.225 80.5601V92.25L146.909 78.89L155.792 73.04Z" stroke="#F6F1FD" stroke-width="1.18" stroke-linecap="round" stroke-linejoin="round"/>
<path d="M146.909 40.4803L167.225 53.8403V65.5303L146.909 52.1603V40.4803Z" stroke="#F6F1FD" stroke-width="1.18" stroke-linecap="round" stroke-linejoin="round"/>
<path d="M187.541 40.4803L167.225 53.8403V65.5303L187.541 52.1603V40.4803Z" stroke="#F6F1FD" stroke-width="1.18" stroke-linecap="round" stroke-linejoin="round"/>
<path d="M146.909 78.8901L167.225 65.5302L158.342 59.6802L146.909 67.2001V78.8901Z" stroke="#F6F1FD" stroke-width="1.18" stroke-linecap="round" stroke-linejoin="round"/>
<path d="M115.161 73.04L126.594 80.5601V92.25L106.278 78.89L115.161 73.04Z" stroke="#F6F1FD" stroke-width="1.18" stroke-linecap="round" stroke-linejoin="round"/>
<path d="M106.268 40.4803L126.584 53.8403V65.5303L106.268 52.1603V40.4803Z" stroke="#F6F1FD" stroke-width="1.18" stroke-linecap="round" stroke-linejoin="round"/>
<path d="M146.909 40.4803L126.594 53.8403V65.5303L146.909 52.1603V40.4803Z" stroke="#F6F1FD" stroke-width="1.18" stroke-linecap="round" stroke-linejoin="round"/>
<path d="M106.268 78.8901L126.584 65.5302L117.7 59.6802L106.268 67.2001V78.8901Z" stroke="#F6F1FD" stroke-width="1.18" stroke-linecap="round" stroke-linejoin="round"/>
<path d="M146.909 1.99976L126.594 15.3698V27.0498L146.909 13.6898V1.99976Z" stroke="#F6F1FD" stroke-width="1.18" stroke-linecap="round" stroke-linejoin="round"/>
<path d="M146.909 40.4199L126.594 27.0499L135.477 21.2099L146.909 28.7299V40.4199Z" stroke="#F6F1FD" stroke-width="1.18" stroke-linecap="round" stroke-linejoin="round"/>
<path d="M4.51465 157.47L-15.801 170.78V182.52L4.51465 169.16V157.47Z" stroke="#F6F1FD" stroke-width="1.18" stroke-linecap="round" stroke-linejoin="round"/>
<path d="M74.2282 511.44L85.651 518.96V530.64L65.2866 517.28L74.2282 511.44Z" stroke="#F6F1FD" stroke-width="1.18" stroke-linecap="round" stroke-linejoin="round"/>
<path d="M65.2866 478.87L85.6023 492.23V503.92L65.2866 490.56V478.87Z" stroke="#F6F1FD" stroke-width="1.18" stroke-linecap="round" stroke-linejoin="round"/>
<path d="M105.918 478.87L85.6023 492.23V503.92L105.918 490.56V478.87Z" stroke="#F6F1FD" stroke-width="1.18" stroke-linecap="round" stroke-linejoin="round"/>
<path d="M65.2866 517.28L85.6023 503.92L76.7191 498.08L65.2866 505.59V517.28Z" stroke="#F6F1FD" stroke-width="1.18" stroke-linecap="round" stroke-linejoin="round"/>
<path d="M13.2231 536.49L24.6555 544.01V555.69L4.33984 542.33L13.2231 536.49Z" stroke="#F6F1FD" stroke-width="1.18" stroke-linecap="round" stroke-linejoin="round"/>
<path d="M4.33984 503.92L24.6555 517.28V528.97L4.33984 515.61V503.92Z" stroke="#F6F1FD" stroke-width="1.18" stroke-linecap="round" stroke-linejoin="round"/>
<path d="M44.9709 503.921L24.6553 517.281V528.971L44.9709 515.611V503.921Z" stroke="#F6F1FD" stroke-width="1.18" stroke-linecap="round" stroke-linejoin="round"/>
<path d="M4.33956 542.331L24.6552 528.971L15.7623 523.131L4.32983 530.641L4.33956 542.331Z" stroke="#F6F1FD" stroke-width="1.18" stroke-linecap="round" stroke-linejoin="round"/>
<path d="M65.2866 478.87L44.9709 492.23V503.92L65.2866 490.56V478.87Z" stroke="#F6F1FD" stroke-width="1.18" stroke-linecap="round" stroke-linejoin="round"/>
<path d="M309.289 402.23L288.973 415.59V427.28L309.289 413.92V402.23Z" stroke="#F6F1FD" stroke-width="1.18" stroke-linecap="round" stroke-linejoin="round"/>
<path d="M288.973 388.87L268.657 402.23V413.92L288.973 400.55V388.87Z" stroke="#F6F1FD" stroke-width="1.18" stroke-linecap="round" stroke-linejoin="round"/>
<path d="M268.823 363.78L248.507 377.14V388.78L268.823 375.44V363.78Z" stroke="#F6F1FD" stroke-width="1.18" stroke-linecap="round" stroke-linejoin="round"/>
<path d="M309.289 363.78L288.973 377.14V388.78L309.289 375.41V363.78Z" stroke="#F6F1FD" stroke-width="1.18" stroke-linecap="round" stroke-linejoin="round"/>
<path d="M309.542 248.15L289.255 261.51V273.2L309.571 259.84L309.542 248.15Z" stroke="#F6F1FD" stroke-width="1.18" stroke-linecap="round" stroke-linejoin="round"/>
</g>
<defs>
<clipPath id="clip0">
<rect width="360" height="602" fill="white"/>
</clipPath>
</defs>
</svg>
