<svg width="536" height="793" viewBox="0 0 536 793" fill="none" xmlns="http://www.w3.org/2000/svg">
<path d="M394.115 655.474L373.448 668.157V679.254L394.115 666.571V655.474Z" stroke="#F6F1FD" stroke-width="1.18" stroke-linecap="round" stroke-linejoin="round"/>
<path d="M527.167 686.393L538.797 693.522V704.629L518.13 691.975L527.167 686.393Z" stroke="#F6F1FD" stroke-width="1.18" stroke-linecap="round" stroke-linejoin="round"/>
<path d="M518.129 655.474L538.796 668.157V679.254L518.129 666.571V655.474Z" stroke="#F6F1FD" stroke-width="1.18" stroke-linecap="round" stroke-linejoin="round"/>
<path d="M518.129 691.974L538.796 679.292L529.749 673.738L518.08 680.839L518.129 691.974Z" stroke="#F6F1FD" stroke-width="1.18" stroke-linecap="round" stroke-linejoin="round"/>
<path d="M476.785 655.474L497.452 668.157V679.254L476.785 666.571V655.474Z" stroke="#F6F1FD" stroke-width="1.18" stroke-linecap="round" stroke-linejoin="round"/>
<path d="M518.129 655.474L497.462 668.157V679.254L518.129 666.571V655.474Z" stroke="#F6F1FD" stroke-width="1.18" stroke-linecap="round" stroke-linejoin="round"/>
<path d="M476.785 691.974L497.452 679.292L488.385 673.7L476.755 680.839L476.785 691.974Z" stroke="#F6F1FD" stroke-width="1.18" stroke-linecap="round" stroke-linejoin="round"/>
<path d="M426.403 686.393L414.783 693.522V704.629L435.45 691.975L426.403 686.393Z" stroke="#F6F1FD" stroke-width="1.18" stroke-linecap="round" stroke-linejoin="round"/>
<path d="M394.105 655.474L414.783 668.157V679.254L394.105 666.571V655.474Z" stroke="#F6F1FD" stroke-width="1.18" stroke-linecap="round" stroke-linejoin="round"/>
<path d="M435.45 691.974L414.783 679.254V668.157L435.45 680.839V691.974Z" stroke="#F6F1FD" stroke-width="1.18" stroke-linecap="round" stroke-linejoin="round"/>
<path d="M527.166 649.864L538.797 657.003V668.1L518.129 655.417L527.166 649.864Z" stroke="#F6F1FD" stroke-width="1.18" stroke-linecap="round" stroke-linejoin="round"/>
<path d="M518.129 618.945L538.796 631.628V642.735L518.129 630.043V618.945Z" stroke="#F6F1FD" stroke-width="1.18" stroke-linecap="round" stroke-linejoin="round"/>
<path d="M518.129 655.417L538.796 642.735L529.749 637.181L518.08 644.32L518.129 655.417Z" stroke="#F6F1FD" stroke-width="1.18" stroke-linecap="round" stroke-linejoin="round"/>
<path d="M485.832 649.864L497.452 657.003V668.1L476.785 655.417L485.832 649.864Z" stroke="#F6F1FD" stroke-width="1.18" stroke-linecap="round" stroke-linejoin="round"/>
<path d="M509.082 649.864L497.452 657.003V668.1L518.129 655.417L509.082 649.864Z" stroke="#F6F1FD" stroke-width="1.18" stroke-linecap="round" stroke-linejoin="round"/>
<path d="M476.784 618.945L497.452 631.628V642.735L476.784 630.043V618.945Z" stroke="#F6F1FD" stroke-width="1.18" stroke-linecap="round" stroke-linejoin="round"/>
<path d="M518.129 618.945L497.462 631.628V642.735L518.129 630.043V618.945Z" stroke="#F6F1FD" stroke-width="1.18" stroke-linecap="round" stroke-linejoin="round"/>
<path d="M476.785 655.417L497.452 642.735L488.385 637.181L476.755 644.32L476.785 655.417Z" stroke="#F6F1FD" stroke-width="1.18" stroke-linecap="round" stroke-linejoin="round"/>
<path d="M518.129 655.417L497.462 642.735L506.499 637.181L518.129 644.32V655.417Z" stroke="#F6F1FD" stroke-width="1.18" stroke-linecap="round" stroke-linejoin="round"/>
<path d="M467.748 649.864L456.117 657.003V668.1L476.785 655.417L467.748 649.864Z" stroke="#F6F1FD" stroke-width="1.18" stroke-linecap="round" stroke-linejoin="round"/>
<path d="M435.45 618.945L456.117 631.628V642.735L435.45 630.043V618.945Z" stroke="#F6F1FD" stroke-width="1.18" stroke-linecap="round" stroke-linejoin="round"/>
<path d="M476.785 618.945L456.117 631.628V642.735L476.785 630.043V618.945Z" stroke="#F6F1FD" stroke-width="1.18" stroke-linecap="round" stroke-linejoin="round"/>
<path d="M435.45 655.417L456.117 642.735L447.08 637.181L435.45 644.32V655.417Z" stroke="#F6F1FD" stroke-width="1.18" stroke-linecap="round" stroke-linejoin="round"/>
<path d="M476.785 655.417L456.117 642.735L465.154 637.181L476.785 644.32V655.417Z" stroke="#F6F1FD" stroke-width="1.18" stroke-linecap="round" stroke-linejoin="round"/>
<path d="M373.448 620.54L394.115 633.223V644.32L373.448 631.637V620.54Z" stroke="#F6F1FD" stroke-width="1.18" stroke-linecap="round" stroke-linejoin="round"/>
<path d="M414.763 584.021L394.095 596.703V607.801L414.763 595.146V584.021Z" stroke="#F6F1FD" stroke-width="1.18" stroke-linecap="round" stroke-linejoin="round"/>
<path d="M527.166 613.345L538.797 620.483V631.581L518.129 618.879L527.166 613.345Z" stroke="#F6F1FD" stroke-width="1.18" stroke-linecap="round" stroke-linejoin="round"/>
<path d="M518.129 582.426L538.796 595.147V606.206L518.129 593.523V582.426Z" stroke="#F6F1FD" stroke-width="1.18" stroke-linecap="round" stroke-linejoin="round"/>
<path d="M518.129 618.879L538.796 606.187L529.749 600.643L518.08 607.801L518.129 618.879Z" stroke="#F6F1FD" stroke-width="1.18" stroke-linecap="round" stroke-linejoin="round"/>
<path d="M485.832 613.345L497.452 620.483V631.581L476.785 618.879L485.832 613.345Z" stroke="#F6F1FD" stroke-width="1.18" stroke-linecap="round" stroke-linejoin="round"/>
<path d="M509.082 613.345L497.452 620.483V631.581L518.129 618.879L509.082 613.345Z" stroke="#F6F1FD" stroke-width="1.18" stroke-linecap="round" stroke-linejoin="round"/>
<path d="M476.784 582.426L497.452 595.147V606.206L476.784 593.523V582.426Z" stroke="#F6F1FD" stroke-width="1.18" stroke-linecap="round" stroke-linejoin="round"/>
<path d="M518.129 582.426L497.462 595.147V606.206L518.129 593.523V582.426Z" stroke="#F6F1FD" stroke-width="1.18" stroke-linecap="round" stroke-linejoin="round"/>
<path d="M476.785 618.879L497.452 606.187L488.385 600.662L476.755 607.801L476.785 618.879Z" stroke="#F6F1FD" stroke-width="1.18" stroke-linecap="round" stroke-linejoin="round"/>
<path d="M518.129 618.879L497.462 606.187L506.499 600.643L518.129 607.782V618.879Z" stroke="#F6F1FD" stroke-width="1.18" stroke-linecap="round" stroke-linejoin="round"/>
<path d="M444.487 613.345L456.117 620.483V631.581L435.45 618.879L444.487 613.345Z" stroke="#F6F1FD" stroke-width="1.18" stroke-linecap="round" stroke-linejoin="round"/>
<path d="M467.748 613.345L456.117 620.483V631.581L476.785 618.879L467.748 613.345Z" stroke="#F6F1FD" stroke-width="1.18" stroke-linecap="round" stroke-linejoin="round"/>
<path d="M435.45 582.426L456.117 595.147V606.206L435.45 593.523V582.426Z" stroke="#F6F1FD" stroke-width="1.18" stroke-linecap="round" stroke-linejoin="round"/>
<path d="M476.785 582.426L456.117 595.147V606.206L476.785 593.523V582.426Z" stroke="#F6F1FD" stroke-width="1.18" stroke-linecap="round" stroke-linejoin="round"/>
<path d="M435.45 618.879L456.117 606.187L447.08 600.643L435.45 607.782V618.879Z" stroke="#F6F1FD" stroke-width="1.18" stroke-linecap="round" stroke-linejoin="round"/>
<path d="M476.785 618.879L456.117 606.206L465.154 600.662L476.785 607.801V618.879Z" stroke="#F6F1FD" stroke-width="1.18" stroke-linecap="round" stroke-linejoin="round"/>
<path d="M352.781 571.272L373.448 583.964V595.052L352.781 582.369V571.272Z" stroke="#F6F1FD" stroke-width="1.18" stroke-linecap="round" stroke-linejoin="round"/>
<path d="M435.45 534.752L414.783 547.435V558.532L435.45 545.85V534.752Z" stroke="#F6F1FD" stroke-width="1.18" stroke-linecap="round" stroke-linejoin="round"/>
<path d="M435.45 509.387L414.783 522.051V533.167L435.45 520.485V509.387Z" stroke="#F6F1FD" stroke-width="1.18" stroke-linecap="round" stroke-linejoin="round"/>
<path d="M394.086 545.926L373.418 558.608V569.706L394.086 557.013V545.926Z" stroke="#F6F1FD" stroke-width="1.18" stroke-linecap="round" stroke-linejoin="round"/>
<path d="M527.136 576.844L538.767 583.964V595.071L518.08 582.388L527.136 576.844Z" stroke="#F6F1FD" stroke-width="1.18" stroke-linecap="round" stroke-linejoin="round"/>
<path d="M518.08 545.926L538.747 558.608V569.706L518.08 557.013V545.926Z" stroke="#F6F1FD" stroke-width="1.18" stroke-linecap="round" stroke-linejoin="round"/>
<path d="M518.08 582.388L538.747 569.696L529.7 564.152L518.08 571.291V582.388Z" stroke="#F6F1FD" stroke-width="1.18" stroke-linecap="round" stroke-linejoin="round"/>
<path d="M485.802 576.844L497.432 583.973V595.07L476.765 582.388L485.802 576.844Z" stroke="#F6F1FD" stroke-width="1.18" stroke-linecap="round" stroke-linejoin="round"/>
<path d="M509.062 576.844L497.432 583.973V595.071L518.08 582.388L509.062 576.844Z" stroke="#F6F1FD" stroke-width="1.18" stroke-linecap="round" stroke-linejoin="round"/>
<path d="M476.765 545.925L497.432 558.608V569.705L476.765 557.013V545.925Z" stroke="#F6F1FD" stroke-width="1.18" stroke-linecap="round" stroke-linejoin="round"/>
<path d="M518.08 545.926L497.412 558.608V569.706L518.08 557.013V545.926Z" stroke="#F6F1FD" stroke-width="1.18" stroke-linecap="round" stroke-linejoin="round"/>
<path d="M476.765 582.388L497.432 569.705L488.385 564.152L476.755 571.291L476.765 582.388Z" stroke="#F6F1FD" stroke-width="1.18" stroke-linecap="round" stroke-linejoin="round"/>
<path d="M518.08 582.388L497.432 569.705L506.469 564.152L518.08 571.291V582.388Z" stroke="#F6F1FD" stroke-width="1.18" stroke-linecap="round" stroke-linejoin="round"/>
<path d="M444.467 576.844L456.098 583.973V595.071L435.42 582.388L444.467 576.844Z" stroke="#F6F1FD" stroke-width="1.18" stroke-linecap="round" stroke-linejoin="round"/>
<path d="M467.718 576.844L456.097 583.964V595.071L476.764 582.388L467.718 576.844Z" stroke="#F6F1FD" stroke-width="1.18" stroke-linecap="round" stroke-linejoin="round"/>
<path d="M435.42 545.926L456.097 558.608V569.706L435.42 557.013V545.926Z" stroke="#F6F1FD" stroke-width="1.18" stroke-linecap="round" stroke-linejoin="round"/>
<path d="M476.764 545.926L456.097 558.608V569.706L476.764 557.013V545.926Z" stroke="#F6F1FD" stroke-width="1.18" stroke-linecap="round" stroke-linejoin="round"/>
<path d="M435.42 582.388L456.097 569.705L447.05 564.152L435.42 571.291V582.388Z" stroke="#F6F1FD" stroke-width="1.18" stroke-linecap="round" stroke-linejoin="round"/>
<path d="M476.764 582.388L456.097 569.696L465.134 564.152L476.764 571.291V582.388Z" stroke="#F6F1FD" stroke-width="1.18" stroke-linecap="round" stroke-linejoin="round"/>
<path d="M426.383 576.844L414.753 583.973V595.071L435.42 582.388L426.383 576.844Z" stroke="#F6F1FD" stroke-width="1.18" stroke-linecap="round" stroke-linejoin="round"/>
<path d="M394.095 545.926L414.763 558.608V569.706L394.095 557.013V545.926Z" stroke="#F6F1FD" stroke-width="1.18" stroke-linecap="round" stroke-linejoin="round"/>
<path d="M435.42 582.388L414.753 569.705V558.608L435.42 571.291V582.388Z" stroke="#F6F1FD" stroke-width="1.18" stroke-linecap="round" stroke-linejoin="round"/>
<path d="M320.275 613.515L331.906 620.654V631.751L311.209 619.059L320.275 613.515Z" stroke="#F6F1FD" stroke-width="1.18" stroke-linecap="round" stroke-linejoin="round"/>
<path d="M311.208 582.597L331.886 595.279V606.377L311.208 593.694V582.597Z" stroke="#F6F1FD" stroke-width="1.18" stroke-linecap="round" stroke-linejoin="round"/>
<path d="M352.781 582.378L332.114 595.061V606.158L352.781 593.466V582.378Z" stroke="#F6F1FD" stroke-width="1.18" stroke-linecap="round" stroke-linejoin="round"/>
<path d="M311.208 619.069L331.886 606.377L322.859 600.842L311.208 607.971V619.069Z" stroke="#F6F1FD" stroke-width="1.18" stroke-linecap="round" stroke-linejoin="round"/>
<path d="M320.266 504.014L331.896 511.153V522.212L311.209 509.53L320.266 504.014Z" stroke="#F6F1FD" stroke-width="1.18" stroke-linecap="round" stroke-linejoin="round"/>
<path d="M311.208 473.067L331.876 485.75V496.847L311.208 484.165V473.067Z" stroke="#F6F1FD" stroke-width="1.18" stroke-linecap="round" stroke-linejoin="round"/>
<path d="M352.781 472.84L332.114 485.522V496.619L352.781 483.937V472.84Z" stroke="#F6F1FD" stroke-width="1.18" stroke-linecap="round" stroke-linejoin="round"/>
<path d="M311.208 509.53L331.876 496.847L322.839 491.303L311.208 498.432V509.53Z" stroke="#F6F1FD" stroke-width="1.18" stroke-linecap="round" stroke-linejoin="round"/>
<path d="M527.136 540.315L538.767 547.454V558.551L518.08 545.859L527.136 540.315Z" stroke="#F6F1FD" stroke-width="1.18" stroke-linecap="round" stroke-linejoin="round"/>
<path d="M518.08 509.397L538.767 522.051V533.177L518.08 520.494V509.397Z" stroke="#F6F1FD" stroke-width="1.18" stroke-linecap="round" stroke-linejoin="round"/>
<path d="M518.08 545.869L538.747 533.177L529.7 527.633L518.08 534.771V545.869Z" stroke="#F6F1FD" stroke-width="1.18" stroke-linecap="round" stroke-linejoin="round"/>
<path d="M485.802 540.315L497.432 547.454V558.551L476.765 545.859L485.802 540.315Z" stroke="#F6F1FD" stroke-width="1.18" stroke-linecap="round" stroke-linejoin="round"/>
<path d="M509.062 540.315L497.432 547.454V558.551L518.08 545.859L509.062 540.315Z" stroke="#F6F1FD" stroke-width="1.18" stroke-linecap="round" stroke-linejoin="round"/>
<path d="M476.765 509.397L497.432 522.051V533.177L476.765 520.494V509.397Z" stroke="#F6F1FD" stroke-width="1.18" stroke-linecap="round" stroke-linejoin="round"/>
<path d="M518.08 509.397L497.432 522.051V533.177L518.08 520.494V509.397Z" stroke="#F6F1FD" stroke-width="1.18" stroke-linecap="round" stroke-linejoin="round"/>
<path d="M476.765 545.869L497.432 533.177L488.385 527.633L476.755 534.771L476.765 545.869Z" stroke="#F6F1FD" stroke-width="1.18" stroke-linecap="round" stroke-linejoin="round"/>
<path d="M518.08 545.869L497.412 533.177L506.449 527.633L518.08 534.771V545.869Z" stroke="#F6F1FD" stroke-width="1.18" stroke-linecap="round" stroke-linejoin="round"/>
<path d="M467.718 540.315L456.097 547.454V558.551L476.764 545.869L467.718 540.315Z" stroke="#F6F1FD" stroke-width="1.18" stroke-linecap="round" stroke-linejoin="round"/>
<path d="M435.42 509.397L456.097 522.051V533.177L435.42 520.494V509.397Z" stroke="#F6F1FD" stroke-width="1.18" stroke-linecap="round" stroke-linejoin="round"/>
<path d="M476.764 509.397L456.097 522.051V533.177L476.764 520.494V509.397Z" stroke="#F6F1FD" stroke-width="1.18" stroke-linecap="round" stroke-linejoin="round"/>
<path d="M435.42 545.869L456.097 533.177L447.05 527.633L435.42 534.771V545.869Z" stroke="#F6F1FD" stroke-width="1.18" stroke-linecap="round" stroke-linejoin="round"/>
<path d="M476.764 545.869L456.097 533.177L465.134 527.633L476.764 534.771V545.869Z" stroke="#F6F1FD" stroke-width="1.18" stroke-linecap="round" stroke-linejoin="round"/>
<path d="M373.418 510.982L394.086 523.674V534.771L373.418 522.051V510.982Z" stroke="#F6F1FD" stroke-width="1.18" stroke-linecap="round" stroke-linejoin="round"/>
<path d="M527.136 503.796L538.767 510.934V522.051L518.08 509.339L527.136 503.796Z" stroke="#F6F1FD" stroke-width="1.18" stroke-linecap="round" stroke-linejoin="round"/>
<path d="M518.08 472.877L538.747 485.569V496.657L518.08 483.975V472.877Z" stroke="#F6F1FD" stroke-width="1.18" stroke-linecap="round" stroke-linejoin="round"/>
<path d="M518.08 509.34L538.747 496.657L529.7 491.113L518.08 498.252V509.34Z" stroke="#F6F1FD" stroke-width="1.18" stroke-linecap="round" stroke-linejoin="round"/>
<path d="M485.802 503.796L497.432 510.934V522.051L476.765 509.368L485.802 503.796Z" stroke="#F6F1FD" stroke-width="1.18" stroke-linecap="round" stroke-linejoin="round"/>
<path d="M509.062 503.796L497.432 510.935V522.051L518.08 509.34L509.062 503.796Z" stroke="#F6F1FD" stroke-width="1.18" stroke-linecap="round" stroke-linejoin="round"/>
<path d="M476.765 472.877L497.432 485.569V496.657L476.765 483.975V472.877Z" stroke="#F6F1FD" stroke-width="1.18" stroke-linecap="round" stroke-linejoin="round"/>
<path d="M518.08 472.878L497.412 485.57V496.657L518.08 483.975V472.878Z" stroke="#F6F1FD" stroke-width="1.18" stroke-linecap="round" stroke-linejoin="round"/>
<path d="M476.765 509.34L497.432 496.657L488.385 491.113L476.755 498.252L476.765 509.34Z" stroke="#F6F1FD" stroke-width="1.18" stroke-linecap="round" stroke-linejoin="round"/>
<path d="M518.08 509.34L497.412 496.657L506.449 491.113L518.08 498.252V509.34Z" stroke="#F6F1FD" stroke-width="1.18" stroke-linecap="round" stroke-linejoin="round"/>
<path d="M444.467 503.796L456.098 510.934V522.051L435.42 509.368L444.467 503.796Z" stroke="#F6F1FD" stroke-width="1.18" stroke-linecap="round" stroke-linejoin="round"/>
<path d="M467.718 503.796L456.097 510.935V522.051L476.764 509.368L467.718 503.796Z" stroke="#F6F1FD" stroke-width="1.18" stroke-linecap="round" stroke-linejoin="round"/>
<path d="M435.42 472.877L456.097 485.569V496.657L435.42 483.975V472.877Z" stroke="#F6F1FD" stroke-width="1.18" stroke-linecap="round" stroke-linejoin="round"/>
<path d="M476.764 472.878L456.097 485.57V496.657L476.764 483.975V472.878Z" stroke="#F6F1FD" stroke-width="1.18" stroke-linecap="round" stroke-linejoin="round"/>
<path d="M435.42 509.34L456.097 496.657L447.05 491.113L435.42 498.252V509.34Z" stroke="#F6F1FD" stroke-width="1.18" stroke-linecap="round" stroke-linejoin="round"/>
<path d="M476.764 509.34L456.097 496.657L465.134 491.113L476.764 498.252V509.34Z" stroke="#F6F1FD" stroke-width="1.18" stroke-linecap="round" stroke-linejoin="round"/>
<path d="M394.095 472.877L414.763 485.569V496.657L394.095 483.975V472.877Z" stroke="#F6F1FD" stroke-width="1.18" stroke-linecap="round" stroke-linejoin="round"/>
<path d="M394.095 509.34L414.763 496.657L405.716 491.113L394.085 498.252L394.095 509.34Z" stroke="#F6F1FD" stroke-width="1.18" stroke-linecap="round" stroke-linejoin="round"/>
<path d="M527.136 467.276L538.767 474.405V485.503L518.08 472.82L527.136 467.276Z" stroke="#F6F1FD" stroke-width="1.18" stroke-linecap="round" stroke-linejoin="round"/>
<path d="M518.08 436.358L538.747 449.041V460.138L518.08 447.455V436.358Z" stroke="#F6F1FD" stroke-width="1.18" stroke-linecap="round" stroke-linejoin="round"/>
<path d="M518.08 472.821L538.747 460.138L529.7 454.594L518.08 461.723V472.821Z" stroke="#F6F1FD" stroke-width="1.18" stroke-linecap="round" stroke-linejoin="round"/>
<path d="M485.802 467.276L497.432 474.405V485.503L476.765 472.82L485.802 467.276Z" stroke="#F6F1FD" stroke-width="1.18" stroke-linecap="round" stroke-linejoin="round"/>
<path d="M509.062 467.277L497.432 474.406V485.503L518.08 472.821L509.062 467.277Z" stroke="#F6F1FD" stroke-width="1.18" stroke-linecap="round" stroke-linejoin="round"/>
<path d="M476.765 436.358L497.432 449.041V460.138L476.765 447.455V436.358Z" stroke="#F6F1FD" stroke-width="1.18" stroke-linecap="round" stroke-linejoin="round"/>
<path d="M518.08 436.358L497.412 449.041V460.138L518.08 447.455V436.358Z" stroke="#F6F1FD" stroke-width="1.18" stroke-linecap="round" stroke-linejoin="round"/>
<path d="M476.765 472.821L497.432 460.138L488.385 454.594L476.755 461.723L476.765 472.821Z" stroke="#F6F1FD" stroke-width="1.18" stroke-linecap="round" stroke-linejoin="round"/>
<path d="M518.08 472.821L497.412 460.138L506.449 454.594L518.08 461.724V472.821Z" stroke="#F6F1FD" stroke-width="1.18" stroke-linecap="round" stroke-linejoin="round"/>
<path d="M444.467 467.276L456.098 474.405V485.503L435.42 472.82L444.467 467.276Z" stroke="#F6F1FD" stroke-width="1.18" stroke-linecap="round" stroke-linejoin="round"/>
<path d="M467.718 467.277L456.097 474.406V485.503L476.764 472.821L467.718 467.277Z" stroke="#F6F1FD" stroke-width="1.18" stroke-linecap="round" stroke-linejoin="round"/>
<path d="M435.42 436.358L456.097 449.041V460.138L435.42 447.455V436.358Z" stroke="#F6F1FD" stroke-width="1.18" stroke-linecap="round" stroke-linejoin="round"/>
<path d="M476.764 436.358L456.097 449.041V460.138L476.764 447.455V436.358Z" stroke="#F6F1FD" stroke-width="1.18" stroke-linecap="round" stroke-linejoin="round"/>
<path d="M435.42 472.821L456.097 460.138L447.05 454.594L435.42 461.723V472.821Z" stroke="#F6F1FD" stroke-width="1.18" stroke-linecap="round" stroke-linejoin="round"/>
<path d="M476.764 472.821L456.097 460.138L465.134 454.594L476.764 461.724V472.821Z" stroke="#F6F1FD" stroke-width="1.18" stroke-linecap="round" stroke-linejoin="round"/>
<path d="M394.095 461.723L414.763 474.405V485.503L394.095 472.82V461.723Z" stroke="#F6F1FD" stroke-width="1.18" stroke-linecap="round" stroke-linejoin="round"/>
<path d="M426.383 467.277L414.753 474.406V485.503L435.42 472.821L426.383 467.277Z" stroke="#F6F1FD" stroke-width="1.18" stroke-linecap="round" stroke-linejoin="round"/>
<path d="M435.42 472.821L414.753 460.138V448.956L435.42 461.695V472.821Z" stroke="#F6F1FD" stroke-width="1.18" stroke-linecap="round" stroke-linejoin="round"/>
<path d="M352.781 461.723L373.448 474.405V485.503L352.781 472.82V461.723Z" stroke="#F6F1FD" stroke-width="1.18" stroke-linecap="round" stroke-linejoin="round"/>
<path d="M385.049 467.277L373.418 474.406V485.503L394.086 472.821L385.049 467.277Z" stroke="#F6F1FD" stroke-width="1.18" stroke-linecap="round" stroke-linejoin="round"/>
<path d="M394.086 472.821L373.418 460.138V448.956L394.086 461.695V472.821Z" stroke="#F6F1FD" stroke-width="1.18" stroke-linecap="round" stroke-linejoin="round"/>
<path d="M527.136 430.757L538.767 437.886V448.955L518.08 436.301L527.136 430.757Z" stroke="#F6F1FD" stroke-width="1.18" stroke-linecap="round" stroke-linejoin="round"/>
<path d="M509.062 430.757L497.432 437.887V448.955L518.08 436.301L509.062 430.757Z" stroke="#F6F1FD" stroke-width="1.18" stroke-linecap="round" stroke-linejoin="round"/>
<path d="M476.765 399.839L497.432 412.521V423.619L476.765 410.936V399.839Z" stroke="#F6F1FD" stroke-width="1.18" stroke-linecap="round" stroke-linejoin="round"/>
<path d="M518.08 399.839L497.412 412.521V423.619L518.08 410.936V399.839Z" stroke="#F6F1FD" stroke-width="1.18" stroke-linecap="round" stroke-linejoin="round"/>
<path d="M476.765 436.301L497.432 423.618L488.385 418.065L476.755 425.223L476.765 436.301Z" stroke="#F6F1FD" stroke-width="1.18" stroke-linecap="round" stroke-linejoin="round"/>
<path d="M518.08 436.301L497.412 423.618L506.449 418.065L518.08 425.223V436.301Z" stroke="#F6F1FD" stroke-width="1.18" stroke-linecap="round" stroke-linejoin="round"/>
<path d="M444.467 430.757L456.098 437.886V448.955L435.42 436.273L444.467 430.757Z" stroke="#F6F1FD" stroke-width="1.18" stroke-linecap="round" stroke-linejoin="round"/>
<path d="M435.42 436.301L456.097 423.618V412.521L435.42 425.223V436.301Z" stroke="#F6F1FD" stroke-width="1.18" stroke-linecap="round" stroke-linejoin="round"/>
<path d="M394.095 425.222L414.763 437.905V448.955L394.095 436.272V425.222Z" stroke="#F6F1FD" stroke-width="1.18" stroke-linecap="round" stroke-linejoin="round"/>
<path d="M435.42 425.223L414.753 437.906V448.955L435.42 436.273V425.223Z" stroke="#F6F1FD" stroke-width="1.18" stroke-linecap="round" stroke-linejoin="round"/>
<path d="M393.977 363.604L373.31 376.287V387.384L393.977 374.692V363.604Z" stroke="#F6F1FD" stroke-width="1.18" stroke-linecap="round" stroke-linejoin="round"/>
<path d="M526.988 394.513L538.618 401.652V412.749L517.99 400.066L526.988 394.513Z" stroke="#F6F1FD" stroke-width="1.18" stroke-linecap="round" stroke-linejoin="round"/>
<path d="M517.99 363.604L538.658 376.287V387.384L517.99 374.692V363.604Z" stroke="#F6F1FD" stroke-width="1.18" stroke-linecap="round" stroke-linejoin="round"/>
<path d="M517.99 400.066L538.658 387.384L529.621 381.83L517.99 388.969V400.066Z" stroke="#F6F1FD" stroke-width="1.18" stroke-linecap="round" stroke-linejoin="round"/>
<path d="M485.693 394.513L497.294 401.652V412.749L476.656 400.066L485.693 394.513Z" stroke="#F6F1FD" stroke-width="1.18" stroke-linecap="round" stroke-linejoin="round"/>
<path d="M508.953 394.513L497.293 401.652V412.749L517.961 400.066L508.953 394.513Z" stroke="#F6F1FD" stroke-width="1.18" stroke-linecap="round" stroke-linejoin="round"/>
<path d="M476.656 363.604L497.294 376.287V387.384L476.626 374.692L476.656 363.604Z" stroke="#F6F1FD" stroke-width="1.18" stroke-linecap="round" stroke-linejoin="round"/>
<path d="M517.99 363.604L497.293 376.287V387.384L517.961 374.692L517.99 363.604Z" stroke="#F6F1FD" stroke-width="1.18" stroke-linecap="round" stroke-linejoin="round"/>
<path d="M476.656 400.066L497.294 387.384L488.257 381.83L476.626 388.969L476.656 400.066Z" stroke="#F6F1FD" stroke-width="1.18" stroke-linecap="round" stroke-linejoin="round"/>
<path d="M517.99 400.066L497.293 387.384L506.33 381.83L517.961 388.969L517.99 400.066Z" stroke="#F6F1FD" stroke-width="1.18" stroke-linecap="round" stroke-linejoin="round"/>
<path d="M444.359 394.513L455.989 401.652V412.749L435.322 400.066L444.359 394.513Z" stroke="#F6F1FD" stroke-width="1.18" stroke-linecap="round" stroke-linejoin="round"/>
<path d="M467.599 394.513L455.969 401.652V412.749L476.636 400.066L467.599 394.513Z" stroke="#F6F1FD" stroke-width="1.18" stroke-linecap="round" stroke-linejoin="round"/>
<path d="M435.322 363.604L455.989 376.287V387.384L435.322 374.692V363.604Z" stroke="#F6F1FD" stroke-width="1.18" stroke-linecap="round" stroke-linejoin="round"/>
<path d="M476.656 363.604L455.989 376.287V387.384L476.656 374.692V363.604Z" stroke="#F6F1FD" stroke-width="1.18" stroke-linecap="round" stroke-linejoin="round"/>
<path d="M435.321 400.066L455.989 387.384L446.942 381.83L435.312 388.969L435.321 400.066Z" stroke="#F6F1FD" stroke-width="1.18" stroke-linecap="round" stroke-linejoin="round"/>
<path d="M476.656 400.066L455.989 387.384L465.026 381.83L476.656 388.969V400.066Z" stroke="#F6F1FD" stroke-width="1.18" stroke-linecap="round" stroke-linejoin="round"/>
<path d="M426.274 394.513L414.644 401.652V412.749L435.321 400.066L426.274 394.513Z" stroke="#F6F1FD" stroke-width="1.18" stroke-linecap="round" stroke-linejoin="round"/>
<path d="M393.977 363.604L414.644 376.287V387.384L393.977 374.692V363.604Z" stroke="#F6F1FD" stroke-width="1.18" stroke-linecap="round" stroke-linejoin="round"/>
<path d="M435.321 400.066L414.654 387.384V376.287L435.321 388.969V400.066Z" stroke="#F6F1FD" stroke-width="1.18" stroke-linecap="round" stroke-linejoin="round"/>
<path d="M526.988 357.993L538.618 365.132V376.229L517.99 363.518L526.988 357.993Z" stroke="#F6F1FD" stroke-width="1.18" stroke-linecap="round" stroke-linejoin="round"/>
<path d="M517.99 327.075L538.658 339.786V350.855L517.99 338.172V327.075Z" stroke="#F6F1FD" stroke-width="1.18" stroke-linecap="round" stroke-linejoin="round"/>
<path d="M517.99 363.519L538.658 350.826L529.621 345.283L517.99 352.421V363.519Z" stroke="#F6F1FD" stroke-width="1.18" stroke-linecap="round" stroke-linejoin="round"/>
<path d="M485.693 357.993L497.294 365.132V376.229L476.656 363.518L485.693 357.993Z" stroke="#F6F1FD" stroke-width="1.18" stroke-linecap="round" stroke-linejoin="round"/>
<path d="M508.953 357.994L497.293 365.132V376.23L517.99 363.519L508.953 357.994Z" stroke="#F6F1FD" stroke-width="1.18" stroke-linecap="round" stroke-linejoin="round"/>
<path d="M476.656 327.075L497.293 339.786V350.855L476.656 338.172V327.075Z" stroke="#F6F1FD" stroke-width="1.18" stroke-linecap="round" stroke-linejoin="round"/>
<path d="M517.99 327.075L497.293 339.786V350.855L517.961 338.172L517.99 327.075Z" stroke="#F6F1FD" stroke-width="1.18" stroke-linecap="round" stroke-linejoin="round"/>
<path d="M476.656 363.519L497.294 350.855L488.257 345.311L476.626 352.45L476.656 363.519Z" stroke="#F6F1FD" stroke-width="1.18" stroke-linecap="round" stroke-linejoin="round"/>
<path d="M517.99 363.519L497.293 350.855L506.33 345.311L517.961 352.45L517.99 363.519Z" stroke="#F6F1FD" stroke-width="1.18" stroke-linecap="round" stroke-linejoin="round"/>
<path d="M467.599 357.994L455.969 365.132V376.23L476.656 363.519L467.599 357.994Z" stroke="#F6F1FD" stroke-width="1.18" stroke-linecap="round" stroke-linejoin="round"/>
<path d="M435.321 327.075L455.989 339.786V350.855L435.321 338.172V327.075Z" stroke="#F6F1FD" stroke-width="1.18" stroke-linecap="round" stroke-linejoin="round"/>
<path d="M476.656 327.075L455.989 339.786V350.855L476.656 338.172V327.075Z" stroke="#F6F1FD" stroke-width="1.18" stroke-linecap="round" stroke-linejoin="round"/>
<path d="M435.321 363.519L455.989 350.826L446.942 345.283L435.312 352.421L435.321 363.519Z" stroke="#F6F1FD" stroke-width="1.18" stroke-linecap="round" stroke-linejoin="round"/>
<path d="M476.656 363.519L455.989 350.827L465.026 345.283L476.656 352.422V363.519Z" stroke="#F6F1FD" stroke-width="1.18" stroke-linecap="round" stroke-linejoin="round"/>
<path d="M403.024 357.994L414.644 365.132V376.23L393.977 363.519L403.024 357.994Z" stroke="#F6F1FD" stroke-width="1.18" stroke-linecap="round" stroke-linejoin="round"/>
<path d="M373.31 328.67L393.977 341.352V352.45L373.31 339.786V328.67Z" stroke="#F6F1FD" stroke-width="1.18" stroke-linecap="round" stroke-linejoin="round"/>
<path d="M435.321 327.075L414.654 339.786V350.855L435.321 338.172V327.075Z" stroke="#F6F1FD" stroke-width="1.18" stroke-linecap="round" stroke-linejoin="round"/>
<path d="M435.321 352.45L414.654 365.132V376.23L435.321 363.519V352.45Z" stroke="#F6F1FD" stroke-width="1.18" stroke-linecap="round" stroke-linejoin="round"/>
<path d="M393.977 363.519L414.644 350.827L405.607 345.283L393.977 352.422V363.519Z" stroke="#F6F1FD" stroke-width="1.18" stroke-linecap="round" stroke-linejoin="round"/>
<path d="M526.988 321.474L538.618 328.613V339.71L517.951 327.018L526.988 321.474Z" stroke="#F6F1FD" stroke-width="1.18" stroke-linecap="round" stroke-linejoin="round"/>
<path d="M517.99 290.556L538.658 303.238V314.336L517.99 301.653V290.556Z" stroke="#F6F1FD" stroke-width="1.18" stroke-linecap="round" stroke-linejoin="round"/>
<path d="M517.99 327.018L538.658 314.335L529.621 308.792L517.99 315.93V327.018Z" stroke="#F6F1FD" stroke-width="1.18" stroke-linecap="round" stroke-linejoin="round"/>
<path d="M485.693 321.474L497.294 328.613V339.71L476.626 327.018L485.693 321.474Z" stroke="#F6F1FD" stroke-width="1.18" stroke-linecap="round" stroke-linejoin="round"/>
<path d="M508.953 321.474L497.293 328.613V339.71L517.961 327.018L508.953 321.474Z" stroke="#F6F1FD" stroke-width="1.18" stroke-linecap="round" stroke-linejoin="round"/>
<path d="M476.656 290.556L497.294 303.238V314.336L476.626 301.653L476.656 290.556Z" stroke="#F6F1FD" stroke-width="1.18" stroke-linecap="round" stroke-linejoin="round"/>
<path d="M517.99 290.556L497.293 303.238V314.336L517.961 301.653L517.99 290.556Z" stroke="#F6F1FD" stroke-width="1.18" stroke-linecap="round" stroke-linejoin="round"/>
<path d="M476.656 327.018L497.294 314.335L488.257 308.792L476.626 315.93L476.656 327.018Z" stroke="#F6F1FD" stroke-width="1.18" stroke-linecap="round" stroke-linejoin="round"/>
<path d="M517.99 327.018L497.293 314.335L506.33 308.792L517.961 315.93L517.99 327.018Z" stroke="#F6F1FD" stroke-width="1.18" stroke-linecap="round" stroke-linejoin="round"/>
<path d="M444.359 321.474L455.989 328.613V339.71L435.322 327.018L444.359 321.474Z" stroke="#F6F1FD" stroke-width="1.18" stroke-linecap="round" stroke-linejoin="round"/>
<path d="M467.599 321.474L455.969 328.613V339.71L476.636 327.018L467.599 321.474Z" stroke="#F6F1FD" stroke-width="1.18" stroke-linecap="round" stroke-linejoin="round"/>
<path d="M435.322 290.556L455.989 303.238V314.336L435.322 301.653V290.556Z" stroke="#F6F1FD" stroke-width="1.18" stroke-linecap="round" stroke-linejoin="round"/>
<path d="M476.656 290.556L455.989 303.238V314.336L476.656 301.653V290.556Z" stroke="#F6F1FD" stroke-width="1.18" stroke-linecap="round" stroke-linejoin="round"/>
<path d="M435.321 327.018L455.989 314.335L446.942 308.792L435.312 315.93L435.321 327.018Z" stroke="#F6F1FD" stroke-width="1.18" stroke-linecap="round" stroke-linejoin="round"/>
<path d="M476.656 327.018L455.989 314.335L465.026 308.792L476.656 315.93V327.018Z" stroke="#F6F1FD" stroke-width="1.18" stroke-linecap="round" stroke-linejoin="round"/>
<path d="M403.024 321.474L414.644 328.613V339.71L393.977 327.018L403.024 321.474Z" stroke="#F6F1FD" stroke-width="1.18" stroke-linecap="round" stroke-linejoin="round"/>
<path d="M426.274 321.474L414.644 328.613V339.71L435.321 327.018L426.274 321.474Z" stroke="#F6F1FD" stroke-width="1.18" stroke-linecap="round" stroke-linejoin="round"/>
<path d="M393.977 290.556L414.644 303.238V314.336L393.977 301.653V290.556Z" stroke="#F6F1FD" stroke-width="1.18" stroke-linecap="round" stroke-linejoin="round"/>
<path d="M393.977 327.018L414.644 314.335L405.607 308.792L393.977 315.93V327.018Z" stroke="#F6F1FD" stroke-width="1.18" stroke-linecap="round" stroke-linejoin="round"/>
<path d="M526.988 284.955L538.618 292.094V303.181L517.951 290.499L526.988 284.955Z" stroke="#F6F1FD" stroke-width="1.18" stroke-linecap="round" stroke-linejoin="round"/>
<path d="M517.99 254.037L538.658 266.691V277.816L517.99 265.134V254.037Z" stroke="#F6F1FD" stroke-width="1.18" stroke-linecap="round" stroke-linejoin="round"/>
<path d="M517.99 290.499L538.658 277.816L529.621 272.273L517.99 279.402V290.499Z" stroke="#F6F1FD" stroke-width="1.18" stroke-linecap="round" stroke-linejoin="round"/>
<path d="M485.693 284.955L497.294 292.084V303.181L476.626 290.499L485.693 284.955Z" stroke="#F6F1FD" stroke-width="1.18" stroke-linecap="round" stroke-linejoin="round"/>
<path d="M508.953 284.955L497.293 292.094V303.181L517.961 290.499L508.953 284.955Z" stroke="#F6F1FD" stroke-width="1.18" stroke-linecap="round" stroke-linejoin="round"/>
<path d="M476.656 254.037L497.294 266.691V277.816L476.626 265.134L476.656 254.037Z" stroke="#F6F1FD" stroke-width="1.18" stroke-linecap="round" stroke-linejoin="round"/>
<path d="M517.99 254.037L497.293 266.691V277.816L517.961 265.134L517.99 254.037Z" stroke="#F6F1FD" stroke-width="1.18" stroke-linecap="round" stroke-linejoin="round"/>
<path d="M476.656 290.499L497.294 277.816L488.257 272.273L476.626 279.402L476.656 290.499Z" stroke="#F6F1FD" stroke-width="1.18" stroke-linecap="round" stroke-linejoin="round"/>
<path d="M517.99 290.499L497.293 277.816L506.33 272.273L517.961 279.402L517.99 290.499Z" stroke="#F6F1FD" stroke-width="1.18" stroke-linecap="round" stroke-linejoin="round"/>
<path d="M444.359 284.955L455.989 292.094V303.181L435.322 290.499L444.359 284.955Z" stroke="#F6F1FD" stroke-width="1.18" stroke-linecap="round" stroke-linejoin="round"/>
<path d="M467.599 284.955L455.969 292.094V303.181L476.636 290.499L467.599 284.955Z" stroke="#F6F1FD" stroke-width="1.18" stroke-linecap="round" stroke-linejoin="round"/>
<path d="M435.322 254.037L455.989 266.691V277.816L435.322 265.134V254.037Z" stroke="#F6F1FD" stroke-width="1.18" stroke-linecap="round" stroke-linejoin="round"/>
<path d="M476.656 254.037L455.989 266.691V277.816L476.656 265.134V254.037Z" stroke="#F6F1FD" stroke-width="1.18" stroke-linecap="round" stroke-linejoin="round"/>
<path d="M435.321 290.499L455.989 277.816L446.942 272.273L435.312 279.402L435.321 290.499Z" stroke="#F6F1FD" stroke-width="1.18" stroke-linecap="round" stroke-linejoin="round"/>
<path d="M476.656 290.499L455.989 277.816L465.026 272.273L476.656 279.402V290.499Z" stroke="#F6F1FD" stroke-width="1.18" stroke-linecap="round" stroke-linejoin="round"/>
<path d="M393.977 279.402L414.644 292.084V303.181L393.977 290.499V279.402Z" stroke="#F6F1FD" stroke-width="1.18" stroke-linecap="round" stroke-linejoin="round"/>
<path d="M426.274 284.955L414.644 292.094V303.181L435.321 290.499L426.274 284.955Z" stroke="#F6F1FD" stroke-width="1.18" stroke-linecap="round" stroke-linejoin="round"/>
<path d="M435.321 290.499L414.654 277.816V266.691L435.321 279.43V290.499Z" stroke="#F6F1FD" stroke-width="1.18" stroke-linecap="round" stroke-linejoin="round"/>
<path d="M352.642 279.402L373.309 292.084V303.181L352.642 290.499V279.402Z" stroke="#F6F1FD" stroke-width="1.18" stroke-linecap="round" stroke-linejoin="round"/>
<path d="M384.94 284.955L373.31 292.094V303.181L393.977 290.499L384.94 284.955Z" stroke="#F6F1FD" stroke-width="1.18" stroke-linecap="round" stroke-linejoin="round"/>
<path d="M393.977 290.499L373.31 277.816V266.691L393.977 279.43V290.499Z" stroke="#F6F1FD" stroke-width="1.18" stroke-linecap="round" stroke-linejoin="round"/>
<path d="M526.988 248.436L538.618 255.565V266.691L517.951 254.008L526.988 248.436Z" stroke="#F6F1FD" stroke-width="1.18" stroke-linecap="round" stroke-linejoin="round"/>
<path d="M508.953 248.436L497.293 255.565V266.691L517.961 254.008L508.953 248.436Z" stroke="#F6F1FD" stroke-width="1.18" stroke-linecap="round" stroke-linejoin="round"/>
<path d="M476.656 217.517L497.294 230.2V241.297L476.626 228.614L476.656 217.517Z" stroke="#F6F1FD" stroke-width="1.18" stroke-linecap="round" stroke-linejoin="round"/>
<path d="M517.99 217.517L497.293 230.2V241.297L517.961 228.614L517.99 217.517Z" stroke="#F6F1FD" stroke-width="1.18" stroke-linecap="round" stroke-linejoin="round"/>
<path d="M476.656 253.979L497.294 241.297L488.257 235.744L476.626 242.882L476.656 253.979Z" stroke="#F6F1FD" stroke-width="1.18" stroke-linecap="round" stroke-linejoin="round"/>
<path d="M517.99 253.979L497.293 241.297L506.33 235.744L517.961 242.882L517.99 253.979Z" stroke="#F6F1FD" stroke-width="1.18" stroke-linecap="round" stroke-linejoin="round"/>
<path d="M393.987 242.882L414.654 255.565V266.691L393.987 254.008V242.882Z" stroke="#F6F1FD" stroke-width="1.18" stroke-linecap="round" stroke-linejoin="round"/>
<path d="M435.321 242.882L414.654 255.565V266.691L435.321 254.008V242.882Z" stroke="#F6F1FD" stroke-width="1.18" stroke-linecap="round" stroke-linejoin="round"/>
<path d="M435.321 217.517L414.654 230.2V241.297L435.321 228.614V217.517Z" stroke="#F6F1FD" stroke-width="1.18" stroke-linecap="round" stroke-linejoin="round"/>
<path d="M340.992 454.765L352.613 461.904V473.001L331.995 460.347L340.992 454.765Z" stroke="#F6F1FD" stroke-width="1.18" stroke-linecap="round" stroke-linejoin="round"/>
<path d="M331.995 423.856L352.662 436.538V447.635L331.995 434.943V423.856Z" stroke="#F6F1FD" stroke-width="1.18" stroke-linecap="round" stroke-linejoin="round"/>
<path d="M393.957 425.223L373.29 437.905V449.012L393.957 436.329V425.223Z" stroke="#F6F1FD" stroke-width="1.18" stroke-linecap="round" stroke-linejoin="round"/>
<path d="M331.995 460.346L352.662 447.664L343.625 442.11L331.995 449.221V460.346Z" stroke="#F6F1FD" stroke-width="1.18" stroke-linecap="round" stroke-linejoin="round"/>
<path d="M373.29 460.346L352.613 447.664L361.66 442.11L373.29 449.249V460.346Z" stroke="#F6F1FD" stroke-width="1.18" stroke-linecap="round" stroke-linejoin="round"/>
<path d="M322.908 454.765L311.278 461.904V473.001L331.995 460.347L322.908 454.765Z" stroke="#F6F1FD" stroke-width="1.18" stroke-linecap="round" stroke-linejoin="round"/>
<path d="M331.995 423.856L311.328 436.538V447.635L331.995 434.943V423.856Z" stroke="#F6F1FD" stroke-width="1.18" stroke-linecap="round" stroke-linejoin="round"/>
<path d="M331.995 460.346L311.328 447.664L320.365 442.11L331.995 449.221V460.346Z" stroke="#F6F1FD" stroke-width="1.18" stroke-linecap="round" stroke-linejoin="round"/>
<path d="M373.29 387.327L393.957 400.019V411.107L373.29 398.424V387.327Z" stroke="#F6F1FD" stroke-width="1.18" stroke-linecap="round" stroke-linejoin="round"/>
<path d="M290.611 387.327L311.278 400.019V411.107L290.611 398.424V387.327Z" stroke="#F6F1FD" stroke-width="1.18" stroke-linecap="round" stroke-linejoin="round"/>
<path d="M331.995 387.327L311.327 400.019V411.107L331.995 398.424V387.327Z" stroke="#F6F1FD" stroke-width="1.18" stroke-linecap="round" stroke-linejoin="round"/>
<path d="M290.611 423.789L311.278 411.107L302.241 405.553L290.611 412.692V423.789Z" stroke="#F6F1FD" stroke-width="1.18" stroke-linecap="round" stroke-linejoin="round"/>
<path d="M331.995 423.789L311.327 411.107L320.364 405.553L331.995 412.702V423.789Z" stroke="#F6F1FD" stroke-width="1.18" stroke-linecap="round" stroke-linejoin="round"/>
<path d="M394.086 253.865L373.418 266.548V277.645L394.086 264.963V253.865Z" stroke="#F6F1FD" stroke-width="1.18" stroke-linecap="round" stroke-linejoin="round"/>
<path d="M426.383 284.727L414.753 291.866V303.01L435.42 290.318L426.383 284.727Z" stroke="#F6F1FD" stroke-width="1.18" stroke-linecap="round" stroke-linejoin="round"/>
<path d="M394.095 253.856L414.763 266.548V277.645L394.095 264.962V253.856Z" stroke="#F6F1FD" stroke-width="1.18" stroke-linecap="round" stroke-linejoin="round"/>
<path d="M435.42 290.328L414.753 277.636V266.548L435.42 279.231V290.328Z" stroke="#F6F1FD" stroke-width="1.18" stroke-linecap="round" stroke-linejoin="round"/>
<path d="M320.275 321.455L331.906 328.594V339.691L311.209 326.999L320.275 321.455Z" stroke="#F6F1FD" stroke-width="1.18" stroke-linecap="round" stroke-linejoin="round"/>
<path d="M311.208 290.537L331.886 303.229V314.317L311.208 301.634V290.537Z" stroke="#F6F1FD" stroke-width="1.18" stroke-linecap="round" stroke-linejoin="round"/>
<path d="M352.781 290.309L332.114 303.001V314.089L352.781 301.406V290.309Z" stroke="#F6F1FD" stroke-width="1.18" stroke-linecap="round" stroke-linejoin="round"/>
<path d="M311.208 326.999L331.886 314.316L322.839 308.773L311.208 315.911V326.999Z" stroke="#F6F1FD" stroke-width="1.18" stroke-linecap="round" stroke-linejoin="round"/>
<path d="M320.266 211.925L331.896 219.064V230.152L311.209 217.469L320.266 211.925Z" stroke="#F6F1FD" stroke-width="1.18" stroke-linecap="round" stroke-linejoin="round"/>
<path d="M311.208 181.007L331.896 193.69V204.787L311.208 192.104V181.007Z" stroke="#F6F1FD" stroke-width="1.18" stroke-linecap="round" stroke-linejoin="round"/>
<path d="M352.781 180.779L332.114 193.462V204.559L352.781 191.877V180.779Z" stroke="#F6F1FD" stroke-width="1.18" stroke-linecap="round" stroke-linejoin="round"/>
<path d="M311.208 217.469L331.876 204.787L322.839 199.243L311.208 206.372V217.469Z" stroke="#F6F1FD" stroke-width="1.18" stroke-linecap="round" stroke-linejoin="round"/>
<path d="M518.08 217.327L538.747 230.01V241.117L518.08 228.434V217.327Z" stroke="#F6F1FD" stroke-width="1.18" stroke-linecap="round" stroke-linejoin="round"/>
<path d="M518.08 253.809L538.747 241.126L529.7 235.573L518.08 242.711V253.809Z" stroke="#F6F1FD" stroke-width="1.18" stroke-linecap="round" stroke-linejoin="round"/>
<path d="M485.802 248.255L497.432 255.393V266.49L476.765 253.798L485.802 248.255Z" stroke="#F6F1FD" stroke-width="1.18" stroke-linecap="round" stroke-linejoin="round"/>
<path d="M509.062 248.255L497.432 255.394V266.491L518.08 253.799L509.062 248.255Z" stroke="#F6F1FD" stroke-width="1.18" stroke-linecap="round" stroke-linejoin="round"/>
<path d="M476.765 217.327L497.432 230.009V241.116L476.765 228.434V217.327Z" stroke="#F6F1FD" stroke-width="1.18" stroke-linecap="round" stroke-linejoin="round"/>
<path d="M518.08 217.327L497.412 230.01V241.116L518.08 228.434V217.327Z" stroke="#F6F1FD" stroke-width="1.18" stroke-linecap="round" stroke-linejoin="round"/>
<path d="M476.765 253.808L497.432 241.126L488.385 235.572L476.755 242.711L476.765 253.808Z" stroke="#F6F1FD" stroke-width="1.18" stroke-linecap="round" stroke-linejoin="round"/>
<path d="M518.08 253.808L497.412 241.126L506.449 235.572L518.08 242.711V253.808Z" stroke="#F6F1FD" stroke-width="1.18" stroke-linecap="round" stroke-linejoin="round"/>
<path d="M435.42 217.327L456.097 230.01V241.117L435.42 228.434V217.327Z" stroke="#F6F1FD" stroke-width="1.18" stroke-linecap="round" stroke-linejoin="round"/>
<path d="M476.764 217.327L456.097 230.01V241.117L476.764 228.434V217.327Z" stroke="#F6F1FD" stroke-width="1.18" stroke-linecap="round" stroke-linejoin="round"/>
<path d="M435.42 253.809L456.098 241.126L447.051 235.573L435.42 242.711V253.809Z" stroke="#F6F1FD" stroke-width="1.18" stroke-linecap="round" stroke-linejoin="round"/>
<path d="M476.764 253.809L456.097 241.126L465.134 235.573L476.764 242.711V253.809Z" stroke="#F6F1FD" stroke-width="1.18" stroke-linecap="round" stroke-linejoin="round"/>
<path d="M403.132 248.255L414.763 255.394V266.491L394.095 253.799L403.132 248.255Z" stroke="#F6F1FD" stroke-width="1.18" stroke-linecap="round" stroke-linejoin="round"/>
<path d="M373.418 218.931L394.086 231.566V242.711L373.418 230.019V218.931Z" stroke="#F6F1FD" stroke-width="1.18" stroke-linecap="round" stroke-linejoin="round"/>
<path d="M435.42 217.327L414.753 230.01V241.116L435.42 228.434V217.327Z" stroke="#F6F1FD" stroke-width="1.18" stroke-linecap="round" stroke-linejoin="round"/>
<path d="M435.42 242.711L414.753 255.394V266.491L435.42 253.799V242.711Z" stroke="#F6F1FD" stroke-width="1.18" stroke-linecap="round" stroke-linejoin="round"/>
<path d="M394.095 253.808L414.763 241.126L405.716 235.572L394.085 242.711L394.095 253.808Z" stroke="#F6F1FD" stroke-width="1.18" stroke-linecap="round" stroke-linejoin="round"/>
<path d="M527.136 211.736L538.767 218.874V229.962L518.08 217.28L527.136 211.736Z" stroke="#F6F1FD" stroke-width="1.18" stroke-linecap="round" stroke-linejoin="round"/>
<path d="M518.08 180.817L538.767 193.5V204.597L518.08 191.915V180.817Z" stroke="#F6F1FD" stroke-width="1.18" stroke-linecap="round" stroke-linejoin="round"/>
<path d="M518.08 217.28L538.747 204.597L529.7 199.053L518.08 206.182V217.28Z" stroke="#F6F1FD" stroke-width="1.18" stroke-linecap="round" stroke-linejoin="round"/>
<path d="M485.802 211.736L497.432 218.874V229.962L476.765 217.28L485.802 211.736Z" stroke="#F6F1FD" stroke-width="1.18" stroke-linecap="round" stroke-linejoin="round"/>
<path d="M509.062 211.736L497.432 218.874V229.962L518.08 217.28L509.062 211.736Z" stroke="#F6F1FD" stroke-width="1.18" stroke-linecap="round" stroke-linejoin="round"/>
<path d="M476.765 180.817L497.432 193.5V204.597L476.765 191.914V180.817Z" stroke="#F6F1FD" stroke-width="1.18" stroke-linecap="round" stroke-linejoin="round"/>
<path d="M518.08 180.817L497.432 193.5V204.597L518.08 191.915V180.817Z" stroke="#F6F1FD" stroke-width="1.18" stroke-linecap="round" stroke-linejoin="round"/>
<path d="M476.765 217.28L497.432 204.597L488.385 199.053L476.755 206.182L476.765 217.28Z" stroke="#F6F1FD" stroke-width="1.18" stroke-linecap="round" stroke-linejoin="round"/>
<path d="M518.08 217.28L497.412 204.597L506.449 199.053L518.08 206.182V217.28Z" stroke="#F6F1FD" stroke-width="1.18" stroke-linecap="round" stroke-linejoin="round"/>
<path d="M444.467 211.736L456.098 218.874V229.962L435.42 217.28L444.467 211.736Z" stroke="#F6F1FD" stroke-width="1.18" stroke-linecap="round" stroke-linejoin="round"/>
<path d="M467.718 211.736L456.097 218.874V229.962L476.764 217.28L467.718 211.736Z" stroke="#F6F1FD" stroke-width="1.18" stroke-linecap="round" stroke-linejoin="round"/>
<path d="M435.42 180.817L456.097 193.5V204.597L435.42 191.915V180.817Z" stroke="#F6F1FD" stroke-width="1.18" stroke-linecap="round" stroke-linejoin="round"/>
<path d="M476.764 180.817L456.097 193.5V204.597L476.764 191.915V180.817Z" stroke="#F6F1FD" stroke-width="1.18" stroke-linecap="round" stroke-linejoin="round"/>
<path d="M435.42 217.28L456.097 204.597L447.05 199.053L435.42 206.182V217.28Z" stroke="#F6F1FD" stroke-width="1.18" stroke-linecap="round" stroke-linejoin="round"/>
<path d="M476.764 217.28L456.097 204.597L465.134 199.053L476.764 206.182V217.28Z" stroke="#F6F1FD" stroke-width="1.18" stroke-linecap="round" stroke-linejoin="round"/>
<path d="M403.132 211.736L414.753 218.874V229.962L394.085 217.28L403.132 211.736Z" stroke="#F6F1FD" stroke-width="1.18" stroke-linecap="round" stroke-linejoin="round"/>
<path d="M426.383 211.736L414.753 218.874V229.962L435.42 217.28L426.383 211.736Z" stroke="#F6F1FD" stroke-width="1.18" stroke-linecap="round" stroke-linejoin="round"/>
<path d="M394.095 180.817L414.763 193.5V204.597L394.095 191.915V180.817Z" stroke="#F6F1FD" stroke-width="1.18" stroke-linecap="round" stroke-linejoin="round"/>
<path d="M394.095 217.28L414.763 204.597L405.716 199.053L394.085 206.182L394.095 217.28Z" stroke="#F6F1FD" stroke-width="1.18" stroke-linecap="round" stroke-linejoin="round"/>
<path d="M527.136 175.216L538.767 182.345V193.443L518.08 180.76L527.136 175.216Z" stroke="#F6F1FD" stroke-width="1.18" stroke-linecap="round" stroke-linejoin="round"/>
<path d="M518.08 144.298L538.747 156.98V168.078L518.08 155.395V144.298Z" stroke="#F6F1FD" stroke-width="1.18" stroke-linecap="round" stroke-linejoin="round"/>
<path d="M518.08 180.76L538.747 168.078L529.7 162.524L518.08 169.663V180.76Z" stroke="#F6F1FD" stroke-width="1.18" stroke-linecap="round" stroke-linejoin="round"/>
<path d="M485.802 175.216L497.432 182.345V193.443L476.765 180.76L485.802 175.216Z" stroke="#F6F1FD" stroke-width="1.18" stroke-linecap="round" stroke-linejoin="round"/>
<path d="M509.062 175.216L497.432 182.346V193.443L518.08 180.76L509.062 175.216Z" stroke="#F6F1FD" stroke-width="1.18" stroke-linecap="round" stroke-linejoin="round"/>
<path d="M476.765 144.298L497.432 156.98V168.078L476.765 155.395V144.298Z" stroke="#F6F1FD" stroke-width="1.18" stroke-linecap="round" stroke-linejoin="round"/>
<path d="M518.08 144.298L497.412 156.98V168.078L518.08 155.395V144.298Z" stroke="#F6F1FD" stroke-width="1.18" stroke-linecap="round" stroke-linejoin="round"/>
<path d="M476.765 180.76L497.432 168.078L488.385 162.524L476.755 169.663L476.765 180.76Z" stroke="#F6F1FD" stroke-width="1.18" stroke-linecap="round" stroke-linejoin="round"/>
<path d="M518.08 180.76L497.412 168.078L506.449 162.524L518.08 169.663V180.76Z" stroke="#F6F1FD" stroke-width="1.18" stroke-linecap="round" stroke-linejoin="round"/>
<path d="M444.468 175.216L456.098 182.345V193.443L435.421 180.76L444.468 175.216Z" stroke="#F6F1FD" stroke-width="1.18" stroke-linecap="round" stroke-linejoin="round"/>
<path d="M467.718 175.216L456.097 182.346V193.443L476.764 180.76L467.718 175.216Z" stroke="#F6F1FD" stroke-width="1.18" stroke-linecap="round" stroke-linejoin="round"/>
<path d="M435.42 144.298L456.097 156.98V168.078L435.42 155.395V144.298Z" stroke="#F6F1FD" stroke-width="1.18" stroke-linecap="round" stroke-linejoin="round"/>
<path d="M476.764 144.298L456.097 156.98V168.078L476.764 155.395V144.298Z" stroke="#F6F1FD" stroke-width="1.18" stroke-linecap="round" stroke-linejoin="round"/>
<path d="M435.42 180.76L456.097 168.078L447.05 162.524L435.42 169.663V180.76Z" stroke="#F6F1FD" stroke-width="1.18" stroke-linecap="round" stroke-linejoin="round"/>
<path d="M476.764 180.76L456.097 168.078L465.134 162.524L476.764 169.663V180.76Z" stroke="#F6F1FD" stroke-width="1.18" stroke-linecap="round" stroke-linejoin="round"/>
<path d="M394.095 169.663L414.763 182.345V193.443L394.095 180.76V169.663Z" stroke="#F6F1FD" stroke-width="1.18" stroke-linecap="round" stroke-linejoin="round"/>
<path d="M426.383 175.216L414.753 182.346V193.443L435.42 180.76L426.383 175.216Z" stroke="#F6F1FD" stroke-width="1.18" stroke-linecap="round" stroke-linejoin="round"/>
<path d="M435.42 180.76L414.753 168.078V156.923L435.42 169.663V180.76Z" stroke="#F6F1FD" stroke-width="1.18" stroke-linecap="round" stroke-linejoin="round"/>
<path d="M352.781 169.663L373.448 182.345V193.443L352.781 180.76V169.663Z" stroke="#F6F1FD" stroke-width="1.18" stroke-linecap="round" stroke-linejoin="round"/>
<path d="M385.049 175.216L373.418 182.346V193.443L394.086 180.76L385.049 175.216Z" stroke="#F6F1FD" stroke-width="1.18" stroke-linecap="round" stroke-linejoin="round"/>
<path d="M394.086 180.76L373.418 168.078V156.923L394.086 169.663V180.76Z" stroke="#F6F1FD" stroke-width="1.18" stroke-linecap="round" stroke-linejoin="round"/>
<path d="M527.136 138.687L538.767 145.826V156.923L518.08 144.231L527.136 138.687Z" stroke="#F6F1FD" stroke-width="1.18" stroke-linecap="round" stroke-linejoin="round"/>
<path d="M509.062 138.687L497.432 145.826V156.923L518.08 144.231L509.062 138.687Z" stroke="#F6F1FD" stroke-width="1.18" stroke-linecap="round" stroke-linejoin="round"/>
<path d="M476.765 107.778L497.432 120.499V131.558L476.765 118.875V107.778Z" stroke="#F6F1FD" stroke-width="1.18" stroke-linecap="round" stroke-linejoin="round"/>
<path d="M518.08 107.778L497.432 120.499V131.558L518.08 118.875V107.778Z" stroke="#F6F1FD" stroke-width="1.18" stroke-linecap="round" stroke-linejoin="round"/>
<path d="M476.765 144.231L497.432 131.549L488.385 126.005L476.755 133.143L476.765 144.231Z" stroke="#F6F1FD" stroke-width="1.18" stroke-linecap="round" stroke-linejoin="round"/>
<path d="M518.08 144.231L497.412 131.549L506.449 125.995L518.08 133.144V144.231Z" stroke="#F6F1FD" stroke-width="1.18" stroke-linecap="round" stroke-linejoin="round"/>
<path d="M444.467 138.687L456.098 145.826V156.923L435.42 144.231L444.467 138.687Z" stroke="#F6F1FD" stroke-width="1.18" stroke-linecap="round" stroke-linejoin="round"/>
<path d="M435.42 144.231L456.097 131.549V120.499L435.42 133.182V144.231Z" stroke="#F6F1FD" stroke-width="1.18" stroke-linecap="round" stroke-linejoin="round"/>
<path d="M394.095 133.143L414.763 145.826V156.923L394.095 144.231V133.143Z" stroke="#F6F1FD" stroke-width="1.18" stroke-linecap="round" stroke-linejoin="round"/>
<path d="M435.42 133.144L414.753 145.826V156.923L435.42 144.231V133.144Z" stroke="#F6F1FD" stroke-width="1.18" stroke-linecap="round" stroke-linejoin="round"/>
<path d="M435.42 107.778L414.753 120.499V131.558L435.42 118.875V107.778Z" stroke="#F6F1FD" stroke-width="1.18" stroke-linecap="round" stroke-linejoin="round"/>
<path d="M290.581 314.478L311.209 327.161V338.258L290.581 325.547V314.478Z" stroke="#F6F1FD" stroke-width="1.18" stroke-linecap="round" stroke-linejoin="round"/>
<path d="M258.293 345.397L269.914 352.526V363.623L249.246 350.94L258.293 345.397Z" stroke="#F6F1FD" stroke-width="1.18" stroke-linecap="round" stroke-linejoin="round"/>
<path d="M249.246 314.478L269.914 327.161V338.258L249.246 325.547V314.478Z" stroke="#F6F1FD" stroke-width="1.18" stroke-linecap="round" stroke-linejoin="round"/>
<path d="M290.581 314.478L269.914 327.161V338.258L290.581 325.547V314.478Z" stroke="#F6F1FD" stroke-width="1.18" stroke-linecap="round" stroke-linejoin="round"/>
<path d="M249.246 350.94L269.914 338.258L260.877 332.704L249.246 339.843V350.94Z" stroke="#F6F1FD" stroke-width="1.18" stroke-linecap="round" stroke-linejoin="round"/>
<path d="M290.581 350.94L269.914 338.258L278.961 332.704L290.591 339.843L290.581 350.94Z" stroke="#F6F1FD" stroke-width="1.18" stroke-linecap="round" stroke-linejoin="round"/>
<path d="M290.561 277.807L311.209 290.489V301.586L290.561 288.904V277.807Z" stroke="#F6F1FD" stroke-width="1.18" stroke-linecap="round" stroke-linejoin="round"/>
<path d="M258.293 308.877L269.914 316.006V327.104L249.246 314.421L258.293 308.877Z" stroke="#F6F1FD" stroke-width="1.18" stroke-linecap="round" stroke-linejoin="round"/>
<path d="M249.246 277.959L269.914 290.641V301.739L249.246 289.056V277.959Z" stroke="#F6F1FD" stroke-width="1.18" stroke-linecap="round" stroke-linejoin="round"/>
<path d="M290.581 277.959L269.914 290.641V301.739L290.581 289.056V277.959Z" stroke="#F6F1FD" stroke-width="1.18" stroke-linecap="round" stroke-linejoin="round"/>
<path d="M249.246 314.421L269.914 301.738L260.877 296.185L249.246 303.324V314.421Z" stroke="#F6F1FD" stroke-width="1.18" stroke-linecap="round" stroke-linejoin="round"/>
<path d="M207.902 303.324L228.579 316.006V327.104L207.902 314.421V303.324Z" stroke="#F6F1FD" stroke-width="1.18" stroke-linecap="round" stroke-linejoin="round"/>
<path d="M240.209 308.877L228.579 316.006V327.104L249.246 314.421L240.209 308.877Z" stroke="#F6F1FD" stroke-width="1.18" stroke-linecap="round" stroke-linejoin="round"/>
<path d="M249.246 314.421L228.579 301.738V290.584L249.246 303.324V314.421Z" stroke="#F6F1FD" stroke-width="1.18" stroke-linecap="round" stroke-linejoin="round"/>
<path d="M228.559 655.417L249.226 668.1V679.197L228.559 666.514V655.417Z" stroke="#F6F1FD" stroke-width="1.18" stroke-linecap="round" stroke-linejoin="round"/>
<path d="M196.004 711.834L207.635 718.963V730.06L186.967 717.378L196.004 711.834Z" stroke="#F6F1FD" stroke-width="1.18" stroke-linecap="round" stroke-linejoin="round"/>
<path d="M186.957 680.915L207.625 693.598V704.695L186.957 691.975V680.915Z" stroke="#F6F1FD" stroke-width="1.18" stroke-linecap="round" stroke-linejoin="round"/>
<path d="M228.302 680.915L207.635 693.598V704.695L228.302 691.975V680.915Z" stroke="#F6F1FD" stroke-width="1.18" stroke-linecap="round" stroke-linejoin="round"/>
<path d="M186.957 717.378L207.625 704.695L198.588 699.142L186.957 706.28V717.378Z" stroke="#F6F1FD" stroke-width="1.18" stroke-linecap="round" stroke-linejoin="round"/>
<path d="M186.967 644.396L166.29 657.078V668.176L186.967 655.493V644.396Z" stroke="#F6F1FD" stroke-width="1.18" stroke-linecap="round" stroke-linejoin="round"/>
<path d="M186.967 680.858L166.29 668.176L175.337 662.622L186.967 669.761V680.858Z" stroke="#F6F1FD" stroke-width="1.18" stroke-linecap="round" stroke-linejoin="round"/>
<path d="M237.339 638.814L248.969 645.953V657.021L228.302 644.339L237.339 638.814Z" stroke="#F6F1FD" stroke-width="1.18" stroke-linecap="round" stroke-linejoin="round"/>
<path d="M228.302 607.877L248.969 620.559V631.656L228.302 618.964V607.877Z" stroke="#F6F1FD" stroke-width="1.18" stroke-linecap="round" stroke-linejoin="round"/>
<path d="M290.304 609.253L269.636 621.936V633.033L290.304 620.35V609.253Z" stroke="#F6F1FD" stroke-width="1.18" stroke-linecap="round" stroke-linejoin="round"/>
<path d="M228.302 644.33L248.969 631.647L239.942 626.103L228.312 633.232L228.302 644.33Z" stroke="#F6F1FD" stroke-width="1.18" stroke-linecap="round" stroke-linejoin="round"/>
<path d="M269.637 644.33L248.969 631.647L258.006 626.103L269.637 633.232V644.33Z" stroke="#F6F1FD" stroke-width="1.18" stroke-linecap="round" stroke-linejoin="round"/>
<path d="M219.255 638.814L207.635 645.953V657.021L228.302 644.339L219.255 638.814Z" stroke="#F6F1FD" stroke-width="1.18" stroke-linecap="round" stroke-linejoin="round"/>
<path d="M228.302 607.877L207.635 620.559V631.656L228.302 618.964V607.877Z" stroke="#F6F1FD" stroke-width="1.18" stroke-linecap="round" stroke-linejoin="round"/>
<path d="M228.302 644.33L207.635 631.647L216.672 626.103L228.302 633.232V644.33Z" stroke="#F6F1FD" stroke-width="1.18" stroke-linecap="round" stroke-linejoin="round"/>
<path d="M237.339 602.266L248.969 609.386V620.492L228.302 607.81L237.339 602.266Z" stroke="#F6F1FD" stroke-width="1.18" stroke-linecap="round" stroke-linejoin="round"/>
<path d="M260.6 602.266L248.969 609.386V620.493L269.637 607.81L260.6 602.266Z" stroke="#F6F1FD" stroke-width="1.18" stroke-linecap="round" stroke-linejoin="round"/>
<path d="M310.971 571.348L290.303 584.03V595.147L310.971 582.464V571.348Z" stroke="#F6F1FD" stroke-width="1.18" stroke-linecap="round" stroke-linejoin="round"/>
<path d="M228.302 607.82L248.969 595.146L239.942 589.584L228.322 596.722L228.302 607.82Z" stroke="#F6F1FD" stroke-width="1.18" stroke-linecap="round" stroke-linejoin="round"/>
<path d="M186.957 571.348L207.625 584.04V595.146L186.957 582.464V571.348Z" stroke="#F6F1FD" stroke-width="1.18" stroke-linecap="round" stroke-linejoin="round"/>
<path d="M228.302 571.348L207.635 584.04V595.146L228.302 582.464V571.348Z" stroke="#F6F1FD" stroke-width="1.18" stroke-linecap="round" stroke-linejoin="round"/>
<path d="M186.957 607.82L207.625 595.146L198.588 589.603L186.957 596.741V607.82Z" stroke="#F6F1FD" stroke-width="1.18" stroke-linecap="round" stroke-linejoin="round"/>
<path d="M228.302 607.82L207.635 595.146L216.672 589.603L228.302 596.741V607.82Z" stroke="#F6F1FD" stroke-width="1.18" stroke-linecap="round" stroke-linejoin="round"/>
<path d="M135.309 792.22L155.976 804.941V816L135.309 803.308V792.22Z" stroke="#F6F1FD" stroke-width="1.18" stroke-linecap="round" stroke-linejoin="round"/>
<path d="M176.644 803.317L155.976 790.625V779.471L176.644 792.22V803.317Z" stroke="#F6F1FD" stroke-width="1.18" stroke-linecap="round" stroke-linejoin="round"/>
<path d="M331.826 522.203L352.494 534.885V545.983L331.826 533.3V522.203Z" stroke="#F6F1FD" stroke-width="1.18" stroke-linecap="round" stroke-linejoin="round"/>
<path d="M299.519 553.121L311.149 560.26V571.348L290.482 558.665L299.519 553.121Z" stroke="#F6F1FD" stroke-width="1.18" stroke-linecap="round" stroke-linejoin="round"/>
<path d="M290.482 522.203L311.149 534.885V545.983L290.482 533.3V522.203Z" stroke="#F6F1FD" stroke-width="1.18" stroke-linecap="round" stroke-linejoin="round"/>
<path d="M331.816 522.203L311.149 534.885V545.983L331.816 533.3V522.203Z" stroke="#F6F1FD" stroke-width="1.18" stroke-linecap="round" stroke-linejoin="round"/>
<path d="M290.482 558.665L311.149 545.982L302.112 540.439L290.482 547.568V558.665Z" stroke="#F6F1FD" stroke-width="1.18" stroke-linecap="round" stroke-linejoin="round"/>
<path d="M258.184 553.121L269.815 560.26V571.348L249.147 558.665L258.184 553.121Z" stroke="#F6F1FD" stroke-width="1.18" stroke-linecap="round" stroke-linejoin="round"/>
<path d="M249.147 522.203L269.815 534.885V545.983L249.147 533.3V522.203Z" stroke="#F6F1FD" stroke-width="1.18" stroke-linecap="round" stroke-linejoin="round"/>
<path d="M290.482 522.203L269.815 534.885V545.983L290.482 533.3V522.203Z" stroke="#F6F1FD" stroke-width="1.18" stroke-linecap="round" stroke-linejoin="round"/>
<path d="M249.147 558.665L269.815 545.982L260.778 540.439L249.147 547.568V558.665Z" stroke="#F6F1FD" stroke-width="1.18" stroke-linecap="round" stroke-linejoin="round"/>
<path d="M290.482 485.683L269.814 498.318V509.463L290.482 496.781V485.683Z" stroke="#F6F1FD" stroke-width="1.18" stroke-linecap="round" stroke-linejoin="round"/>
<path d="M290.482 522.146L269.814 509.463L278.851 503.919L290.482 511.048V522.146Z" stroke="#F6F1FD" stroke-width="1.18" stroke-linecap="round" stroke-linejoin="round"/>
<path d="M331.826 657.107L352.494 669.789V680.887L331.826 668.242V657.107Z" stroke="#F6F1FD" stroke-width="1.18" stroke-linecap="round" stroke-linejoin="round"/>
<path d="M364.114 662.651L352.494 669.789V680.887L373.161 668.242L364.114 662.651Z" stroke="#F6F1FD" stroke-width="1.18" stroke-linecap="round" stroke-linejoin="round"/>
<path d="M373.161 668.242L352.494 655.522V644.367L373.161 657.107V668.242Z" stroke="#F6F1FD" stroke-width="1.18" stroke-linecap="round" stroke-linejoin="round"/>
<path d="M237.527 211.517L249.157 218.656V229.753L228.49 217.071L237.527 211.517Z" stroke="#F6F1FD" stroke-width="1.18" stroke-linecap="round" stroke-linejoin="round"/>
<path d="M260.788 211.517L249.157 218.656V229.753L269.825 217.071L260.788 211.517Z" stroke="#F6F1FD" stroke-width="1.18" stroke-linecap="round" stroke-linejoin="round"/>
<path d="M331.995 131.454L352.682 144.136V155.234L331.995 142.551V131.454Z" stroke="#F6F1FD" stroke-width="1.18" stroke-linecap="round" stroke-linejoin="round"/>
<path d="M299.717 162.372L311.337 169.511V180.599L290.67 167.916L299.717 162.372Z" stroke="#F6F1FD" stroke-width="1.18" stroke-linecap="round" stroke-linejoin="round"/>
<path d="M290.67 131.454L311.337 144.136V155.234L290.67 142.551V131.454Z" stroke="#F6F1FD" stroke-width="1.18" stroke-linecap="round" stroke-linejoin="round"/>
<path d="M331.995 131.454L311.337 144.136V155.234L331.995 142.551V131.454Z" stroke="#F6F1FD" stroke-width="1.18" stroke-linecap="round" stroke-linejoin="round"/>
<path d="M290.67 167.916L311.337 155.234L302.3 149.69L290.67 156.819V167.916Z" stroke="#F6F1FD" stroke-width="1.18" stroke-linecap="round" stroke-linejoin="round"/>
<path d="M258.372 162.372L270.003 169.511V180.599L249.335 167.916L258.372 162.372Z" stroke="#F6F1FD" stroke-width="1.18" stroke-linecap="round" stroke-linejoin="round"/>
<path d="M249.335 131.454L270.003 144.136V155.234L249.335 142.551V131.454Z" stroke="#F6F1FD" stroke-width="1.18" stroke-linecap="round" stroke-linejoin="round"/>
<path d="M290.67 131.454L270.003 144.136V155.234L290.67 142.551V131.454Z" stroke="#F6F1FD" stroke-width="1.18" stroke-linecap="round" stroke-linejoin="round"/>
<path d="M249.335 167.916L270.003 155.234L260.966 149.69L249.335 156.819V167.916Z" stroke="#F6F1FD" stroke-width="1.18" stroke-linecap="round" stroke-linejoin="round"/>
<path d="M290.67 94.9348L270.003 107.617V118.715L290.67 106.023V94.9348Z" stroke="#F6F1FD" stroke-width="1.18" stroke-linecap="round" stroke-linejoin="round"/>
<path d="M290.67 131.397L270.003 118.714L279.04 113.171L290.67 120.3V131.397Z" stroke="#F6F1FD" stroke-width="1.18" stroke-linecap="round" stroke-linejoin="round"/>
<path d="M195.985 503.777L207.605 510.916V522.003L186.938 509.321L195.985 503.777Z" stroke="#F6F1FD" stroke-width="1.18" stroke-linecap="round" stroke-linejoin="round"/>
<path d="M186.938 472.858L207.615 485.541V496.638L186.938 483.956V472.858Z" stroke="#F6F1FD" stroke-width="1.18" stroke-linecap="round" stroke-linejoin="round"/>
<path d="M248.95 474.235L228.282 486.927V498.024L248.95 485.332V474.235Z" stroke="#F6F1FD" stroke-width="1.18" stroke-linecap="round" stroke-linejoin="round"/>
<path d="M186.938 509.321L207.615 496.638L198.568 491.094L186.938 498.224V509.321Z" stroke="#F6F1FD" stroke-width="1.18" stroke-linecap="round" stroke-linejoin="round"/>
<path d="M228.282 509.321L207.615 496.638L216.652 491.094L228.282 498.224V509.321Z" stroke="#F6F1FD" stroke-width="1.18" stroke-linecap="round" stroke-linejoin="round"/>
<path d="M177.901 503.777L166.27 510.916V522.003L186.948 509.321L177.901 503.777Z" stroke="#F6F1FD" stroke-width="1.18" stroke-linecap="round" stroke-linejoin="round"/>
<path d="M186.948 472.858L166.27 485.541V496.638L186.948 483.956V472.858Z" stroke="#F6F1FD" stroke-width="1.18" stroke-linecap="round" stroke-linejoin="round"/>
<path d="M186.948 509.321L166.27 496.638L175.317 491.094L186.948 498.224V509.321Z" stroke="#F6F1FD" stroke-width="1.18" stroke-linecap="round" stroke-linejoin="round"/>
<path d="M195.985 467.258L207.605 474.387V485.484L186.938 472.802L195.985 467.258Z" stroke="#F6F1FD" stroke-width="1.18" stroke-linecap="round" stroke-linejoin="round"/>
<path d="M219.235 467.258L207.615 474.387V485.484L228.282 472.802L219.235 467.258Z" stroke="#F6F1FD" stroke-width="1.18" stroke-linecap="round" stroke-linejoin="round"/>
<path d="M269.637 436.339L248.949 449.022V460.119L269.637 447.436V436.339Z" stroke="#F6F1FD" stroke-width="1.18" stroke-linecap="round" stroke-linejoin="round"/>
<path d="M186.938 472.801L207.615 460.119L198.568 454.565L186.938 461.704V472.801Z" stroke="#F6F1FD" stroke-width="1.18" stroke-linecap="round" stroke-linejoin="round"/>
<path d="M186.948 436.339L166.27 449.022V460.119L186.948 447.436V436.339Z" stroke="#F6F1FD" stroke-width="1.18" stroke-linecap="round" stroke-linejoin="round"/>
<path d="M186.948 472.802L166.27 460.119L175.317 454.575L186.948 461.704V472.802Z" stroke="#F6F1FD" stroke-width="1.18" stroke-linecap="round" stroke-linejoin="round"/>
<path d="M93.9545 657.202L114.622 669.884V680.982L93.9545 668.299V657.202Z" stroke="#F6F1FD" stroke-width="1.18" stroke-linecap="round" stroke-linejoin="round"/>
<path d="M126.252 662.755L114.622 669.885V680.982L135.289 668.299L126.252 662.755Z" stroke="#F6F1FD" stroke-width="1.18" stroke-linecap="round" stroke-linejoin="round"/>
<path d="M135.289 668.299L114.622 655.617V644.463L135.289 657.202V668.299Z" stroke="#F6F1FD" stroke-width="1.18" stroke-linecap="round" stroke-linejoin="round"/>
<path d="M258.164 418.103L269.795 425.223V436.339L249.127 423.657L258.164 418.103Z" stroke="#F6F1FD" stroke-width="1.18" stroke-linecap="round" stroke-linejoin="round"/>
<path d="M249.127 387.185L269.795 399.877V410.983L249.127 398.291V387.185Z" stroke="#F6F1FD" stroke-width="1.18" stroke-linecap="round" stroke-linejoin="round"/>
<path d="M290.423 387.185L269.795 399.877V410.983L290.423 398.282V387.185Z" stroke="#F6F1FD" stroke-width="1.18" stroke-linecap="round" stroke-linejoin="round"/>
<path d="M249.128 423.656L269.795 410.983L260.728 405.421L249.098 412.559L249.128 423.656Z" stroke="#F6F1FD" stroke-width="1.18" stroke-linecap="round" stroke-linejoin="round"/>
<path d="M216.83 418.103L228.46 425.223V436.339L207.793 423.657L216.83 418.103Z" stroke="#F6F1FD" stroke-width="1.18" stroke-linecap="round" stroke-linejoin="round"/>
<path d="M207.793 387.185L228.46 399.877V410.983L207.793 398.291V387.185Z" stroke="#F6F1FD" stroke-width="1.18" stroke-linecap="round" stroke-linejoin="round"/>
<path d="M249.127 387.185L228.46 399.877V410.983L249.127 398.291V387.185Z" stroke="#F6F1FD" stroke-width="1.18" stroke-linecap="round" stroke-linejoin="round"/>
<path d="M207.793 423.656L228.46 410.983L219.413 405.43L207.793 412.569V423.656Z" stroke="#F6F1FD" stroke-width="1.18" stroke-linecap="round" stroke-linejoin="round"/>
<path d="M249.128 350.675L228.46 363.357V374.455L249.128 361.763V350.675Z" stroke="#F6F1FD" stroke-width="1.18" stroke-linecap="round" stroke-linejoin="round"/>
<path d="M249.128 387.137L228.46 374.455L237.497 368.901L249.128 376.04V387.137Z" stroke="#F6F1FD" stroke-width="1.18" stroke-linecap="round" stroke-linejoin="round"/>
<path d="M154.818 357.509L166.449 364.648V375.745L145.811 363.063L154.818 357.509Z" stroke="#F6F1FD" stroke-width="1.18" stroke-linecap="round" stroke-linejoin="round"/>
<path d="M145.811 326.601L166.478 339.283V350.38L145.811 337.698V326.601Z" stroke="#F6F1FD" stroke-width="1.18" stroke-linecap="round" stroke-linejoin="round"/>
<path d="M187.145 326.601L166.478 339.283V350.38L187.145 337.698V326.601Z" stroke="#F6F1FD" stroke-width="1.18" stroke-linecap="round" stroke-linejoin="round"/>
<path d="M145.811 363.063L166.478 350.38L157.431 344.827L145.811 351.966V363.063Z" stroke="#F6F1FD" stroke-width="1.18" stroke-linecap="round" stroke-linejoin="round"/>
<path d="M113.513 357.509L125.124 364.648V375.745L104.456 363.063L113.513 357.509Z" stroke="#F6F1FD" stroke-width="1.18" stroke-linecap="round" stroke-linejoin="round"/>
<path d="M104.466 326.6L125.124 339.283V350.38L104.466 337.698V326.6Z" stroke="#F6F1FD" stroke-width="1.18" stroke-linecap="round" stroke-linejoin="round"/>
<path d="M145.811 326.6L125.124 339.283V350.38L145.811 337.698V326.6Z" stroke="#F6F1FD" stroke-width="1.18" stroke-linecap="round" stroke-linejoin="round"/>
<path d="M104.466 363.063L125.124 350.38L116.087 344.827L104.456 351.965L104.466 363.063Z" stroke="#F6F1FD" stroke-width="1.18" stroke-linecap="round" stroke-linejoin="round"/>
<path d="M145.811 290.081L125.124 302.764V313.861L145.791 301.169L145.811 290.081Z" stroke="#F6F1FD" stroke-width="1.18" stroke-linecap="round" stroke-linejoin="round"/>
<path d="M145.811 326.496L125.124 313.861L134.161 308.308L145.791 315.446L145.811 326.496Z" stroke="#F6F1FD" stroke-width="1.18" stroke-linecap="round" stroke-linejoin="round"/>
<path d="M196.182 284.471L207.813 291.609V302.707L187.146 290.024L196.182 284.471Z" stroke="#F6F1FD" stroke-width="1.18" stroke-linecap="round" stroke-linejoin="round"/>
<path d="M187.146 253.552L207.813 266.244V277.332L187.146 264.649V253.552Z" stroke="#F6F1FD" stroke-width="1.18" stroke-linecap="round" stroke-linejoin="round"/>
<path d="M249.147 254.938L228.48 267.64V278.718L249.147 266.035V254.938Z" stroke="#F6F1FD" stroke-width="1.18" stroke-linecap="round" stroke-linejoin="round"/>
<path d="M187.146 290.024L207.813 277.332L198.776 271.788L187.146 278.927V290.024Z" stroke="#F6F1FD" stroke-width="1.18" stroke-linecap="round" stroke-linejoin="round"/>
<path d="M228.48 290.024L207.813 277.332L216.85 271.788L228.48 278.927V290.024Z" stroke="#F6F1FD" stroke-width="1.18" stroke-linecap="round" stroke-linejoin="round"/>
<path d="M178.108 284.471L166.478 291.609V302.707L187.145 290.024L178.108 284.471Z" stroke="#F6F1FD" stroke-width="1.18" stroke-linecap="round" stroke-linejoin="round"/>
<path d="M187.145 253.552L166.478 266.244V277.332L187.145 264.649V253.552Z" stroke="#F6F1FD" stroke-width="1.18" stroke-linecap="round" stroke-linejoin="round"/>
<path d="M187.145 290.024L166.478 277.332L175.515 271.788L187.145 278.927V290.024Z" stroke="#F6F1FD" stroke-width="1.18" stroke-linecap="round" stroke-linejoin="round"/>
<path d="M104.466 253.552L125.124 266.244V277.332L104.456 264.649L104.466 253.552Z" stroke="#F6F1FD" stroke-width="1.18" stroke-linecap="round" stroke-linejoin="round"/>
<path d="M145.811 253.552L125.124 266.244V277.332L145.791 264.649L145.811 253.552Z" stroke="#F6F1FD" stroke-width="1.18" stroke-linecap="round" stroke-linejoin="round"/>
<path d="M104.466 290.024L125.124 277.332L116.087 271.788L104.456 278.926L104.466 290.024Z" stroke="#F6F1FD" stroke-width="1.18" stroke-linecap="round" stroke-linejoin="round"/>
<path d="M145.811 290.024L125.124 277.332L134.161 271.788L145.791 278.927L145.811 290.024Z" stroke="#F6F1FD" stroke-width="1.18" stroke-linecap="round" stroke-linejoin="round"/>
<path d="M196.182 247.951L207.813 255.09V266.177L187.146 253.495L196.182 247.951Z" stroke="#F6F1FD" stroke-width="1.18" stroke-linecap="round" stroke-linejoin="round"/>
<path d="M219.443 247.951L207.813 255.09V266.178L228.48 253.495L219.443 247.951Z" stroke="#F6F1FD" stroke-width="1.18" stroke-linecap="round" stroke-linejoin="round"/>
<path d="M187.146 253.495L207.813 240.812L198.776 235.268L187.146 242.398V253.495Z" stroke="#F6F1FD" stroke-width="1.18" stroke-linecap="round" stroke-linejoin="round"/>
<path d="M145.811 217.033L166.478 229.668V240.812L145.811 228.13V217.033Z" stroke="#F6F1FD" stroke-width="1.18" stroke-linecap="round" stroke-linejoin="round"/>
<path d="M187.145 217.033L166.478 229.668V240.813L187.145 228.13V217.033Z" stroke="#F6F1FD" stroke-width="1.18" stroke-linecap="round" stroke-linejoin="round"/>
<path d="M145.811 253.495L166.478 240.813L157.431 235.269L145.811 242.407V253.495Z" stroke="#F6F1FD" stroke-width="1.18" stroke-linecap="round" stroke-linejoin="round"/>
<path d="M187.145 253.495L166.478 240.813L175.515 235.269L187.145 242.408V253.495Z" stroke="#F6F1FD" stroke-width="1.18" stroke-linecap="round" stroke-linejoin="round"/>
<path d="M104.466 217.032L125.124 229.668V240.812L104.456 228.13L104.466 217.032Z" stroke="#F6F1FD" stroke-width="1.18" stroke-linecap="round" stroke-linejoin="round"/>
<path d="M217.028 198.806L228.658 205.935V217.033L207.991 204.35L217.028 198.806Z" stroke="#F6F1FD" stroke-width="1.18" stroke-linecap="round" stroke-linejoin="round"/>
<path d="M207.991 167.878L228.658 180.57V191.696L207.991 179.013V167.878Z" stroke="#F6F1FD" stroke-width="1.18" stroke-linecap="round" stroke-linejoin="round"/>
<path d="M207.991 204.35L228.658 191.696L219.621 186.152L207.991 193.281V204.35Z" stroke="#F6F1FD" stroke-width="1.18" stroke-linecap="round" stroke-linejoin="round"/>
<path d="M249.326 131.369L228.658 144.051V155.148L249.326 142.466V131.369Z" stroke="#F6F1FD" stroke-width="1.18" stroke-linecap="round" stroke-linejoin="round"/>
<path d="M249.326 167.831L228.658 155.148L237.705 149.595L249.326 156.734V167.831Z" stroke="#F6F1FD" stroke-width="1.18" stroke-linecap="round" stroke-linejoin="round"/>
<path d="M113.494 222.501L125.124 229.668V240.737L104.457 228.045L113.494 222.501Z" stroke="#F6F1FD" stroke-width="1.18" stroke-linecap="round" stroke-linejoin="round"/>
<path d="M104.447 191.582L125.124 204.274V215.362L104.456 202.679L104.447 191.582Z" stroke="#F6F1FD" stroke-width="1.18" stroke-linecap="round" stroke-linejoin="round"/>
<path d="M145.791 191.582L125.124 204.274V215.362L145.801 202.679L145.791 191.582Z" stroke="#F6F1FD" stroke-width="1.18" stroke-linecap="round" stroke-linejoin="round"/>
<path d="M104.447 228.054L125.124 215.362L116.087 209.818L104.456 216.957L104.447 228.054Z" stroke="#F6F1FD" stroke-width="1.18" stroke-linecap="round" stroke-linejoin="round"/>
<path d="M72.1489 222.501L83.7792 229.668V240.737L63.1119 228.045L72.1489 222.501Z" stroke="#F6F1FD" stroke-width="1.18" stroke-linecap="round" stroke-linejoin="round"/>
<path d="M63.1119 191.582L83.7792 204.274V215.362L63.1119 202.679V191.582Z" stroke="#F6F1FD" stroke-width="1.18" stroke-linecap="round" stroke-linejoin="round"/>
<path d="M104.446 191.582L83.7792 204.274V215.362L104.446 202.679V191.582Z" stroke="#F6F1FD" stroke-width="1.18" stroke-linecap="round" stroke-linejoin="round"/>
<path d="M63.1119 228.054L83.7792 215.362L74.7422 209.818L63.1119 216.957V228.054Z" stroke="#F6F1FD" stroke-width="1.18" stroke-linecap="round" stroke-linejoin="round"/>
<path d="M104.446 155.063L83.7792 167.746V178.843L104.446 166.16V155.063Z" stroke="#F6F1FD" stroke-width="1.18" stroke-linecap="round" stroke-linejoin="round"/>
<path d="M104.446 191.525L83.7792 178.843L92.8162 173.299L104.446 180.437V191.525Z" stroke="#F6F1FD" stroke-width="1.18" stroke-linecap="round" stroke-linejoin="round"/>
<path d="M154.818 149.462L166.458 156.572V167.688L145.791 155.006L154.818 149.462Z" stroke="#F6F1FD" stroke-width="1.18" stroke-linecap="round" stroke-linejoin="round"/>
<path d="M145.781 118.544L166.458 131.226V142.333L145.781 129.65V118.544Z" stroke="#F6F1FD" stroke-width="1.18" stroke-linecap="round" stroke-linejoin="round"/>
<path d="M207.793 119.92L187.125 132.612V143.7L207.793 131.017V119.92Z" stroke="#F6F1FD" stroke-width="1.18" stroke-linecap="round" stroke-linejoin="round"/>
<path d="M145.781 155.006L166.458 142.333L157.411 136.789L145.781 143.918V155.006Z" stroke="#F6F1FD" stroke-width="1.18" stroke-linecap="round" stroke-linejoin="round"/>
<path d="M187.126 155.006L166.458 142.333L175.495 136.789L187.126 143.918V155.006Z" stroke="#F6F1FD" stroke-width="1.18" stroke-linecap="round" stroke-linejoin="round"/>
<path d="M136.744 149.462L125.124 156.572V167.688L145.801 155.006L136.744 149.462Z" stroke="#F6F1FD" stroke-width="1.18" stroke-linecap="round" stroke-linejoin="round"/>
<path d="M145.791 118.544L125.124 131.226V142.333L145.801 129.65L145.791 118.544Z" stroke="#F6F1FD" stroke-width="1.18" stroke-linecap="round" stroke-linejoin="round"/>
<path d="M145.791 155.006L125.124 142.333L134.171 136.789L145.801 143.918L145.791 155.006Z" stroke="#F6F1FD" stroke-width="1.18" stroke-linecap="round" stroke-linejoin="round"/>
<path d="M63.1119 118.544L83.7792 131.226V142.333L63.1119 129.65V118.544Z" stroke="#F6F1FD" stroke-width="1.18" stroke-linecap="round" stroke-linejoin="round"/>
<path d="M104.446 118.544L83.7792 131.226V142.333L104.446 129.65V118.544Z" stroke="#F6F1FD" stroke-width="1.18" stroke-linecap="round" stroke-linejoin="round"/>
<path d="M63.1119 155.006L83.7792 142.333L74.7422 136.789L63.1119 143.918V155.006Z" stroke="#F6F1FD" stroke-width="1.18" stroke-linecap="round" stroke-linejoin="round"/>
<path d="M104.446 155.006L83.7792 142.333L92.8162 136.789L104.446 143.918V155.006Z" stroke="#F6F1FD" stroke-width="1.18" stroke-linecap="round" stroke-linejoin="round"/>
<path d="M154.818 112.905L166.448 120.043V131.169L145.781 118.486L154.818 112.905Z" stroke="#F6F1FD" stroke-width="1.18" stroke-linecap="round" stroke-linejoin="round"/>
<path d="M178.079 112.905L166.458 120.043V131.169L187.126 118.487L178.079 112.905Z" stroke="#F6F1FD" stroke-width="1.18" stroke-linecap="round" stroke-linejoin="round"/>
<path d="M228.46 82.0243L207.793 94.7069V105.804L228.46 93.1216V82.0243Z" stroke="#F6F1FD" stroke-width="1.18" stroke-linecap="round" stroke-linejoin="round"/>
<path d="M145.781 118.487L166.458 105.804L157.411 100.251L145.781 107.389V118.487Z" stroke="#F6F1FD" stroke-width="1.18" stroke-linecap="round" stroke-linejoin="round"/>
<path d="M104.447 82.0243L125.124 94.7164V105.804L104.456 93.1216L104.447 82.0243Z" stroke="#F6F1FD" stroke-width="1.18" stroke-linecap="round" stroke-linejoin="round"/>
<path d="M145.791 82.0243L125.124 94.7164V105.804L145.801 93.1216L145.791 82.0243Z" stroke="#F6F1FD" stroke-width="1.18" stroke-linecap="round" stroke-linejoin="round"/>
<path d="M104.447 118.487L125.124 105.804L116.087 100.251L104.456 107.389L104.447 118.487Z" stroke="#F6F1FD" stroke-width="1.18" stroke-linecap="round" stroke-linejoin="round"/>
<path d="M145.791 118.487L125.124 105.804L134.171 100.251L145.801 107.389L145.791 118.487Z" stroke="#F6F1FD" stroke-width="1.18" stroke-linecap="round" stroke-linejoin="round"/>
<path d="M63.1119 82.0243L83.7792 94.7164V105.804L63.1119 93.1216V82.0243Z" stroke="#F6F1FD" stroke-width="1.18" stroke-linecap="round" stroke-linejoin="round"/>
<path d="M52.798 302.887L73.4653 315.57V326.667L52.798 313.984V302.887Z" stroke="#F6F1FD" stroke-width="1.18" stroke-linecap="round" stroke-linejoin="round"/>
<path d="M85.0956 308.46L73.4653 315.598V326.667L94.1326 313.984L85.0956 308.46Z" stroke="#F6F1FD" stroke-width="1.18" stroke-linecap="round" stroke-linejoin="round"/>
<path d="M94.1326 313.984L73.4653 301.302V290.148L94.1326 302.887V313.984Z" stroke="#F6F1FD" stroke-width="1.18" stroke-linecap="round" stroke-linejoin="round"/>
<path d="M217.008 63.7883L228.638 70.927V82.0242L207.971 69.3416L217.008 63.7883Z" stroke="#F6F1FD" stroke-width="1.18" stroke-linecap="round" stroke-linejoin="round"/>
<path d="M207.971 32.8794L228.638 45.5619V56.6592L207.971 43.9671V32.8794Z" stroke="#F6F1FD" stroke-width="1.18" stroke-linecap="round" stroke-linejoin="round"/>
<path d="M249.305 32.8794L228.638 45.5619V56.6592L249.305 43.9671V32.8794Z" stroke="#F6F1FD" stroke-width="1.18" stroke-linecap="round" stroke-linejoin="round"/>
<path d="M207.971 69.3416L228.638 56.659L219.601 51.1056L207.971 58.2443V69.3416Z" stroke="#F6F1FD" stroke-width="1.18" stroke-linecap="round" stroke-linejoin="round"/>
<path d="M175.674 63.7883L187.304 70.927V82.0242L166.637 69.3416L175.674 63.7883Z" stroke="#F6F1FD" stroke-width="1.18" stroke-linecap="round" stroke-linejoin="round"/>
<path d="M166.627 32.8794L187.294 45.5619V56.6592L166.627 43.9671V32.8794Z" stroke="#F6F1FD" stroke-width="1.18" stroke-linecap="round" stroke-linejoin="round"/>
<path d="M207.971 32.8794L187.304 45.5619V56.6592L207.971 43.9671V32.8794Z" stroke="#F6F1FD" stroke-width="1.18" stroke-linecap="round" stroke-linejoin="round"/>
<path d="M166.627 69.3416L187.294 56.659L178.257 51.1056L166.627 58.2443V69.3416Z" stroke="#F6F1FD" stroke-width="1.18" stroke-linecap="round" stroke-linejoin="round"/>
<path d="M207.971 -3.64976L187.304 9.04237V20.1301L207.971 7.4475V-3.64976Z" stroke="#F6F1FD" stroke-width="1.18" stroke-linecap="round" stroke-linejoin="round"/>
<path d="M207.971 32.8223L187.304 20.1302L196.341 14.5863L207.971 21.725V32.8223Z" stroke="#F6F1FD" stroke-width="1.18" stroke-linecap="round" stroke-linejoin="round"/>
<path d="M30.8143 174.846L42.4446 181.985V193.082L21.7773 180.4L30.8143 174.846Z" stroke="#F6F1FD" stroke-width="1.18" stroke-linecap="round" stroke-linejoin="round"/>
<path d="M21.7773 143.937L42.4446 156.572V167.717L21.7773 155.034V143.937Z" stroke="#F6F1FD" stroke-width="1.18" stroke-linecap="round" stroke-linejoin="round"/>
<path d="M63.1119 143.937L42.4446 156.572V167.717L63.1119 155.034V143.937Z" stroke="#F6F1FD" stroke-width="1.18" stroke-linecap="round" stroke-linejoin="round"/>
<path d="M21.7773 180.399L42.4446 167.707L33.3978 162.163L21.7773 169.302V180.399Z" stroke="#F6F1FD" stroke-width="1.18" stroke-linecap="round" stroke-linejoin="round"/>
<path d="M21.7773 143.937L1.10999 156.572V167.717L21.7773 155.034V143.937Z" stroke="#F6F1FD" stroke-width="1.18" stroke-linecap="round" stroke-linejoin="round"/>
<path d="M134.032 479.959L145.652 487.098V498.186L124.936 485.503L134.032 479.959Z" stroke="#F6F1FD" stroke-width="1.18" stroke-linecap="round" stroke-linejoin="round"/>
<path d="M124.936 449.04L145.603 461.723V472.82L124.936 460.138V449.04Z" stroke="#F6F1FD" stroke-width="1.18" stroke-linecap="round" stroke-linejoin="round"/>
<path d="M166.27 449.04L145.603 461.723V472.82L166.27 460.138V449.04Z" stroke="#F6F1FD" stroke-width="1.18" stroke-linecap="round" stroke-linejoin="round"/>
<path d="M124.936 485.503L145.603 472.821L136.566 467.277L124.936 474.406V485.503Z" stroke="#F6F1FD" stroke-width="1.18" stroke-linecap="round" stroke-linejoin="round"/>
<path d="M71.9708 503.739L83.6011 510.878V521.965L62.9338 509.283L71.9708 503.739Z" stroke="#F6F1FD" stroke-width="1.18" stroke-linecap="round" stroke-linejoin="round"/>
<path d="M62.9337 472.821L83.601 485.503V496.6L62.9337 483.918V472.821Z" stroke="#F6F1FD" stroke-width="1.18" stroke-linecap="round" stroke-linejoin="round"/>
<path d="M104.268 472.821L83.601 485.503V496.6L104.268 483.918V472.821Z" stroke="#F6F1FD" stroke-width="1.18" stroke-linecap="round" stroke-linejoin="round"/>
<path d="M62.9337 509.283L83.601 496.6L74.5541 491.056L62.9238 498.185L62.9337 509.283Z" stroke="#F6F1FD" stroke-width="1.18" stroke-linecap="round" stroke-linejoin="round"/>
<path d="M124.936 449.04L104.268 461.723V472.82L124.936 460.138V449.04Z" stroke="#F6F1FD" stroke-width="1.18" stroke-linecap="round" stroke-linejoin="round"/>
<path d="M373.161 376.287L352.494 388.969V400.066L373.161 387.384V376.287Z" stroke="#F6F1FD" stroke-width="1.18" stroke-linecap="round" stroke-linejoin="round"/>
<path d="M352.494 363.604L331.826 376.287V387.384L352.494 374.692V363.604Z" stroke="#F6F1FD" stroke-width="1.18" stroke-linecap="round" stroke-linejoin="round"/>
<path d="M331.995 339.786L311.327 352.469V363.519L331.995 350.855V339.786Z" stroke="#F6F1FD" stroke-width="1.18" stroke-linecap="round" stroke-linejoin="round"/>
<path d="M373.161 339.786L352.494 352.469V363.519L373.161 350.826V339.786Z" stroke="#F6F1FD" stroke-width="1.18" stroke-linecap="round" stroke-linejoin="round"/>
<path d="M373.418 230.019L352.781 242.702V253.799L373.448 241.117L373.418 230.019Z" stroke="#F6F1FD" stroke-width="1.18" stroke-linecap="round" stroke-linejoin="round"/>
</svg>
