<svg xmlns="http://www.w3.org/2000/svg" xmlns:xlink="http://www.w3.org/1999/xlink" width="471" height="325" viewBox="0 0 471 325"><defs><style>.a,.c,.d{fill:#fff;}.a{stroke:#707070;}.b{clip-path:url(#a);}.c,.d{stroke:#f2f2f2;stroke-linecap:round;stroke-linejoin:round;}.c{stroke-width:1.02px;}</style><clipPath id="a"><rect class="a" width="471" height="325" transform="translate(-2.113 88.953)"/></clipPath></defs><g class="b" transform="translate(2.113 -88.953)"><g transform="translate(0 153.934)"><path class="c" d="M62,873.84l23.215,16.375v14.32L62,888.16Z" transform="translate(-15.562 -612.542)"/><path class="c" d="M62,987.45l23.215,16.375v14.32L62,1001.77Z" transform="translate(-15.562 -819.923)"/><path class="c" d="M62,987.45l23.215,16.375v14.32L62,1001.77Z" transform="translate(-15.562 -880.542)"/><path class="c" d="M248.04,873.59l23.215,16.367v14.32L248.04,887.91Z" transform="translate(-62.28 -612.078)"/><path class="c" d="M527.09,910.68l23.215,16.375v14.32L527.09,925Z" transform="translate(-318.355 -828.579)"/><path class="c" d="M527.09,910.68l23.215,16.375v14.32L527.09,925Z" transform="translate(-260.355 -860.541)"/><path class="c" d="M186.03,930.77l23.215,16.367v14.329L186.03,945.09Z" transform="translate(-46.708 -716.461)"/><path class="c" d="M186.03,987.45l23.215,16.375v14.32L186.03,1001.77Z" transform="translate(-46.708 -819.923)"/><path class="c" d="M-.01,987.45l23.215,16.375v14.32L-.01,1001.77Z" transform="translate(0.01 -819.923)"/><path class="c" d="M-.01,987.45l23.215,16.375v14.32L-.01,1001.77Z" transform="translate(0.01 -880.542)"/><path class="c" d="M124.01,873.59l23.215,16.367v14.32L124.01,887.91Z" transform="translate(-31.134 -612.078)"/><path class="c" d="M124.01,987.45l23.215,16.375v14.32L124.01,1001.77Z" transform="translate(-31.134 -819.923)"/><path class="c" d="M124.01,987.45l23.215,16.375v14.32L124.01,1001.77Z" transform="translate(-31.134 -880.542)"/><path class="c" d="M434.07,873.59l23.215,16.367v14.32L434.07,887.91Z" transform="translate(-108.996 -612.078)"/><path class="c" d="M372.06,987.45l23.215,16.375v14.32L372.06,1001.77Z" transform="translate(-197.424 -849.681)"/><path class="c" d="M-.01,930.52,23.205,946.9v14.32L-.01,944.84Z" transform="translate(0.01 -716.005)"/><path class="c" d="M-.01,930.52,23.205,946.9v14.32L-.01,944.84Z" transform="translate(0.01 -776.623)"/><path class="c" d="M310.05,930.52,333.265,946.9v14.32L310.05,944.84Z" transform="translate(-77.852 -716.005)"/><path class="c" d="M310.05,930.52,333.265,946.9v14.32L310.05,944.84Z" transform="translate(-193.852 -667.51)"/><path class="c" d="M30.99,967.52l23.215,16.367v14.328L30.99,981.84Z" transform="translate(-7.775 -783.544)"/><path class="c" d="M30.99,967.52l23.215,16.367v14.328L30.99,981.84Z" transform="translate(-7.775 -844.162)"/><path class="c" d="M124.01,947.27l23.215,16.375v14.32L124.01,961.59Z" transform="translate(-31.134 -746.58)"/><path class="c" d="M124.01,947.27l23.215,16.375v14.32L124.01,961.59Z" transform="translate(-31.134 -807.198)"/><path class="c" d="M403.06,910.68l23.215,16.375v14.32L403.06,925Z" transform="translate(-101.209 -679.789)"/><path class="c" d="M248.04,930.52,271.255,946.9v14.32L248.04,944.84Z" transform="translate(-62.28 -716.005)"/><path class="c" d="M372.06,930.52,395.275,946.9v14.32L372.06,944.84Z" transform="translate(-93.424 -716.005)"/><path class="d" d="M372.06,930.52,395.275,946.9v14.32L372.06,944.84Z" transform="translate(-81.424 -803.074)"/><path class="c" d="M465.07,910.68l23.215,16.375v14.32L465.07,925Z" transform="translate(-336.781 -817.558)"/><path class="c" d="M465.07,910.68l23.215,16.375v14.32L465.07,925Z" transform="translate(-395.781 -850.622)"/><path class="c" d="M465.07,967.52l23.215,16.367v14.328L465.07,981.84Z" transform="translate(-116.781 -783.544)"/><path class="c" d="M589.1,967.52l23.215,16.367v14.328L589.1,981.84Z" transform="translate(-333.927 -832.038)"/><path class="c" d="M682.12,987.45l23.215,16.375v14.32L682.12,1001.77Z" transform="translate(-566.286 -771.429)"/><path class="c" d="M744.13,987.45l23.215,16.375v14.32L744.13,1001.77Z" transform="translate(-453.858 -906.993)"/><path class="c" d="M558.1,987.45l23.215,16.375v14.32L558.1,1001.77Z" transform="translate(-326.142 -868.418)"/><path class="c" d="M558.1,987.45l23.215,16.375v14.32L558.1,1001.77Z" transform="translate(-407.142 -987.45)"/><path class="c" d="M581.315,967.52,558.1,983.887v14.328l23.215-16.375Z" transform="translate(-326.142 -832.038)"/><path class="c" d="M581.315,967.52,558.1,983.887v14.328l23.215-16.375Z" transform="translate(-407.142 -951.07)"/><path class="c" d="M496.07,930.77l23.215,16.367v14.329L496.07,945.09Z" transform="translate(-124.566 -716.461)"/><path class="c" d="M488.285,930.77,465.07,947.137v14.329l23.215-16.375Z" transform="translate(-336.781 -854.229)"/><path class="c" d="M488.285,930.77,465.07,947.137v14.329l23.215-16.375Z" transform="translate(-418.781 -885.09)"/><path class="c" d="M488.285,930.77,465.07,947.137v14.329l23.215-16.375Z" transform="translate(-197.781 -864.149)"/><path class="c" d="M309.8,947.65l23.215,16.375v14.32L309.8,961.97Z" transform="translate(-77.789 -747.273)"/><path class="c" d="M309.8,947.65l23.215,16.375v14.32L309.8,961.97Z" transform="translate(-193.789 -698.779)"/><path class="c" d="M93,967.74l23.215,16.367v14.329L93,982.06Z" transform="translate(-23.347 -783.945)"/><path class="c" d="M93,967.74l23.215,16.367v14.329L93,982.06Z" transform="translate(-23.347 -844.563)"/><path class="c" d="M271,967.74,247.78,984.107v14.329L271,982.06Z" transform="translate(-62.215 -783.945)"/><path class="c" d="M62,947.65l23.215,16.375v14.32L62,961.97Z" transform="translate(-15.562 -747.273)"/><path class="c" d="M62,947.65l23.215,16.375v14.32L62,961.97Z" transform="translate(-15.562 -807.892)"/><path class="c" d="M155.13,967.74l23.215,16.367v14.329L155.13,982.06Z" transform="translate(-38.949 -783.945)"/><path class="c" d="M155.13,967.74l23.215,16.367v14.329L155.13,982.06Z" transform="translate(-38.949 -844.563)"/><path class="c" d="M147.345,967.74,124.13,984.107v14.329l23.215-16.376Z" transform="translate(-31.164 -783.945)"/><path class="c" d="M147.345,967.74,124.13,984.107v14.329l23.215-16.376Z" transform="translate(-31.164 -844.563)"/><path class="c" d="M209.245,967.74,186.03,984.107v14.329l23.215-16.376Z" transform="translate(-46.708 -783.945)"/><path class="c" d="M332.885,967.74,309.67,984.107v14.329l23.215-16.376Z" transform="translate(-134.757 -861.096)"/><path class="c" d="M332.885,967.74,309.67,984.107v14.329l23.215-16.376Z" transform="translate(-193.757 -735.451)"/><path class="c" d="M519.285,967.74,496.07,984.107v14.329l23.215-16.376Z" transform="translate(-124.566 -783.945)"/><path class="c" d="M85.205,967.74,61.99,984.107v14.329L85.205,982.06Z" transform="translate(-15.559 -783.945)"/><path class="c" d="M85.205,967.74,61.99,984.107v14.329L85.205,982.06Z" transform="translate(-15.559 -844.563)"/><path class="c" d="M116.215,947.65,93,964.026v14.32l23.215-16.375Z" transform="translate(-23.347 -747.273)"/><path class="c" d="M116.215,947.65,93,964.026v14.32l23.215-16.375Z" transform="translate(-23.347 -807.892)"/><path class="c" d="M54.205,930.77,30.99,947.137v14.329L54.205,945.09Z" transform="translate(-7.775 -716.461)"/><path class="c" d="M54.205,930.77,30.99,947.137v14.329L54.205,945.09Z" transform="translate(-7.775 -777.079)"/><path class="c" d="M23.205,967.74-.01,984.107v14.329L23.205,982.06Z" transform="translate(0.01 -783.945)"/><path class="c" d="M23.205,967.74-.01,984.107v14.329L23.205,982.06Z" transform="translate(0.01 -844.563)"/><path class="c" d="M54.205,987.45,30.99,1003.825v14.32l23.215-16.376Z" transform="translate(-7.775 -819.923)"/><path class="c" d="M54.205,987.45,30.99,1003.825v14.32l23.215-16.376Z" transform="translate(-7.775 -880.542)"/><path class="c" d="M116.215,987.45,93,1003.825v14.32l23.215-16.376Z" transform="translate(-23.347 -819.923)"/><path class="c" d="M116.215,987.45,93,1003.825v14.32l23.215-16.376Z" transform="translate(-23.347 -880.542)"/><path class="c" d="M457.285,967.52,434.07,983.887v14.328l23.215-16.375Z" transform="translate(-224.996 -915.802)"/><path class="c" d="M426.275,930.77,403.06,947.137v14.329l23.215-16.375Z" transform="translate(-101.209 -716.461)"/><path class="c" d="M364.275,892.09,341.06,908.465v14.32l23.215-16.367Z" transform="translate(-85.639 -645.855)"/><path class="c" d="M364.265,930.77,341.05,947.137v14.329l23.215-16.375Z" transform="translate(-85.637 -716.461)"/><path class="c" d="M364.265,930.77,341.05,947.137v14.329l23.215-16.375Z" transform="translate(-201.637 -667.966)"/><path class="c" d="M116.215,873.97,93,890.345v14.32L116.215,888.3Z" transform="translate(-23.347 -612.779)"/><path class="c" d="M395.275,967.52,372.06,983.887v14.328l23.215-16.375Z" transform="translate(-197.424 -813.302)"/><path class="c" d="M395.275,967.52,372.06,983.887v14.328l23.215-16.375Z" transform="translate(-81.424 -870.613)"/><path class="c" d="M364.265,987.45l-23.215,16.375v14.32l23.215-16.376Z" transform="translate(-189.637 -880.542)"/><path class="c" d="M496.07,873.97l23.215,16.375v14.32L496.07,888.3Z" transform="translate(-124.566 -612.779)"/><path class="c" d="M488.285,873.97,465.07,890.345v14.32L488.285,888.3Z" transform="translate(-116.781 -612.779)"/><path class="c" d="M496.33,987.45l23.215,16.375v14.32L496.33,1001.77Z" transform="translate(-124.631 -819.923)"/><path class="c" d="M434.07,987.45l23.215,16.375v14.32L434.07,1001.77Z" transform="translate(-224.996 -952.181)"/><path class="c" d="M558.1,930.52,581.315,946.9v14.32L558.1,944.84Z" transform="translate(-140.142 -716.005)"/><path class="c" d="M558.1,930.52,581.315,946.9v14.32L558.1,944.84Z" transform="translate(-140.142 -863.693)"/><path class="c" d="M527.09,967.52l23.215,16.367v14.328L527.09,981.84Z" transform="translate(-132.355 -783.544)"/></g></g></svg>