<svg width="496" height="792" viewBox="0 0 496 792" fill="none" xmlns="http://www.w3.org/2000/svg">
<path d="M224.1 169.1L244.98 155.74V144.05L224.1 157.41V169.1Z" stroke="white" stroke-width="1.18" stroke-linecap="round" stroke-linejoin="round"/>
<path d="M57.0499 169.1L36.1699 155.74V144.05L57.0499 157.41V169.1Z" stroke="white" stroke-width="1.18" stroke-linecap="round" stroke-linejoin="round"/>
<path d="M191.47 136.53L203.22 129.02V117.32L182.34 130.65L191.47 136.53Z" stroke="white" stroke-width="1.18" stroke-linecap="round" stroke-linejoin="round"/>
<path d="M182.34 169.1L203.22 155.74V144.05L182.34 157.41V169.1Z" stroke="white" stroke-width="1.18" stroke-linecap="round" stroke-linejoin="round"/>
<path d="M182.34 130.65L203.22 144.01L194.08 149.86L182.29 142.38L182.34 130.65Z" stroke="white" stroke-width="1.18" stroke-linecap="round" stroke-linejoin="round"/>
<path d="M140.57 169.1L161.45 155.74V144.05L140.57 157.41V169.1Z" stroke="white" stroke-width="1.18" stroke-linecap="round" stroke-linejoin="round"/>
<path d="M182.34 169.1L161.46 155.74V144.05L182.34 157.41V169.1Z" stroke="white" stroke-width="1.18" stroke-linecap="round" stroke-linejoin="round"/>
<path d="M140.57 130.65L161.45 144.01L152.29 149.9L140.54 142.38L140.57 130.65Z" stroke="white" stroke-width="1.18" stroke-linecap="round" stroke-linejoin="round"/>
<path d="M89.6697 136.53L77.9297 129.02V117.32L98.8097 130.65L89.6697 136.53Z" stroke="white" stroke-width="1.18" stroke-linecap="round" stroke-linejoin="round"/>
<path d="M57.04 169.1L77.9301 155.74V144.05L57.04 157.41V169.1Z" stroke="white" stroke-width="1.18" stroke-linecap="round" stroke-linejoin="round"/>
<path d="M98.8097 130.65L77.9297 144.05V155.74L98.8097 142.38V130.65Z" stroke="white" stroke-width="1.18" stroke-linecap="round" stroke-linejoin="round"/>
<path d="M256.729 175.01L244.979 167.49V155.8L265.859 169.16L256.729 175.01Z" stroke="white" stroke-width="1.18" stroke-linecap="round" stroke-linejoin="round"/>
<path d="M224.1 207.58L244.98 194.22V182.52L224.1 195.89V207.58Z" stroke="white" stroke-width="1.18" stroke-linecap="round" stroke-linejoin="round"/>
<path d="M265.859 169.16L244.979 182.52V194.21L265.859 180.85V169.16Z" stroke="white" stroke-width="1.18" stroke-linecap="round" stroke-linejoin="round"/>
<path d="M295.88 173.32L307.62 165.8V154.12L286.74 167.48L295.88 173.32Z" stroke="white" stroke-width="1.18" stroke-linecap="round" stroke-linejoin="round"/>
<path d="M286.74 205.89L307.62 192.53V180.84L286.74 194.2V205.89Z" stroke="white" stroke-width="1.18" stroke-linecap="round" stroke-linejoin="round"/>
<path d="M328.51 205.89L307.62 192.53V180.84L328.51 194.2V205.89Z" stroke="white" stroke-width="1.18" stroke-linecap="round" stroke-linejoin="round"/>
<path d="M286.74 167.48L307.62 180.84L298.49 186.65L286.74 179.14V167.48Z" stroke="white" stroke-width="1.18" stroke-linecap="round" stroke-linejoin="round"/>
<path d="M191.47 175.01L203.22 167.49V155.8L182.34 169.16L191.47 175.01Z" stroke="white" stroke-width="1.18" stroke-linecap="round" stroke-linejoin="round"/>
<path d="M214.96 175.01L203.22 167.49V155.8L224.1 169.16L214.96 175.01Z" stroke="white" stroke-width="1.18" stroke-linecap="round" stroke-linejoin="round"/>
<path d="M182.34 207.58L203.22 194.22V182.52L182.34 195.89V207.58Z" stroke="white" stroke-width="1.18" stroke-linecap="round" stroke-linejoin="round"/>
<path d="M224.1 207.58L203.22 194.22V182.52L224.1 195.89V207.58Z" stroke="white" stroke-width="1.18" stroke-linecap="round" stroke-linejoin="round"/>
<path d="M182.34 169.16L203.22 182.52L194.08 188.37L182.29 180.85L182.34 169.16Z" stroke="white" stroke-width="1.18" stroke-linecap="round" stroke-linejoin="round"/>
<path d="M224.1 169.16L203.22 182.52L212.35 188.37L224.1 180.85V169.16Z" stroke="white" stroke-width="1.18" stroke-linecap="round" stroke-linejoin="round"/>
<path d="M149.71 175.01L161.45 167.49V155.8L140.57 169.16L149.71 175.01Z" stroke="white" stroke-width="1.18" stroke-linecap="round" stroke-linejoin="round"/>
<path d="M173.2 175.01L161.45 167.49V155.8L182.34 169.16L173.2 175.01Z" stroke="white" stroke-width="1.18" stroke-linecap="round" stroke-linejoin="round"/>
<path d="M140.57 207.58L161.45 194.22V182.52L140.57 195.89V207.58Z" stroke="white" stroke-width="1.18" stroke-linecap="round" stroke-linejoin="round"/>
<path d="M182.34 207.58L161.46 194.22V182.52L182.34 195.89V207.58Z" stroke="white" stroke-width="1.18" stroke-linecap="round" stroke-linejoin="round"/>
<path d="M140.57 169.16L161.45 182.52L152.29 188.37L140.54 180.85L140.57 169.16Z" stroke="white" stroke-width="1.18" stroke-linecap="round" stroke-linejoin="round"/>
<path d="M182.34 169.16L161.46 182.52L170.59 188.37L182.34 180.85V169.16Z" stroke="white" stroke-width="1.18" stroke-linecap="round" stroke-linejoin="round"/>
<path d="M131.439 175.01L119.689 167.49V155.8L140.569 169.16L131.439 175.01Z" stroke="white" stroke-width="1.18" stroke-linecap="round" stroke-linejoin="round"/>
<path d="M98.8096 207.58L119.69 194.22V182.52L98.8096 195.89V207.58Z" stroke="white" stroke-width="1.18" stroke-linecap="round" stroke-linejoin="round"/>
<path d="M140.569 207.58L119.689 194.22V182.52L140.569 195.89V207.58Z" stroke="white" stroke-width="1.18" stroke-linecap="round" stroke-linejoin="round"/>
<path d="M98.8096 169.16L119.69 182.52L110.56 188.37L98.8096 180.85V169.16Z" stroke="white" stroke-width="1.18" stroke-linecap="round" stroke-linejoin="round"/>
<path d="M140.569 169.16L119.689 182.52L128.819 188.37L140.569 180.85V169.16Z" stroke="white" stroke-width="1.18" stroke-linecap="round" stroke-linejoin="round"/>
<path d="M36.1699 205.9L57.0499 192.54V180.85L36.1699 194.21V205.9Z" stroke="white" stroke-width="1.18" stroke-linecap="round" stroke-linejoin="round"/>
<path d="M77.9103 244.37L57.0303 231.01V219.32L77.9103 232.65V244.37Z" stroke="white" stroke-width="1.18" stroke-linecap="round" stroke-linejoin="round"/>
<path d="M233.23 213.48L244.98 205.96V194.27L224.1 207.65L233.23 213.48Z" stroke="white" stroke-width="1.18" stroke-linecap="round" stroke-linejoin="round"/>
<path d="M224.1 246.05L244.98 232.65V221L224.1 234.36V246.05Z" stroke="white" stroke-width="1.18" stroke-linecap="round" stroke-linejoin="round"/>
<path d="M286.739 244.59L265.859 231.23V219.54L286.739 232.9V244.59Z" stroke="white" stroke-width="1.18" stroke-linecap="round" stroke-linejoin="round"/>
<path d="M224.1 207.65L244.98 221.02L235.85 226.86L224.1 219.34V207.65Z" stroke="white" stroke-width="1.18" stroke-linecap="round" stroke-linejoin="round"/>
<path d="M265.859 207.65L244.979 221.02L254.109 226.86L265.859 219.34V207.65Z" stroke="white" stroke-width="1.18" stroke-linecap="round" stroke-linejoin="round"/>
<path d="M191.47 213.48L203.22 205.96V194.27L182.34 207.65L191.47 213.48Z" stroke="white" stroke-width="1.18" stroke-linecap="round" stroke-linejoin="round"/>
<path d="M214.96 213.48L203.22 205.96V194.27L224.1 207.65L214.96 213.48Z" stroke="white" stroke-width="1.18" stroke-linecap="round" stroke-linejoin="round"/>
<path d="M182.34 246.05L203.22 232.65V221L182.34 234.36V246.05Z" stroke="white" stroke-width="1.18" stroke-linecap="round" stroke-linejoin="round"/>
<path d="M224.1 246.05L203.22 232.65V221L224.1 234.36V246.05Z" stroke="white" stroke-width="1.18" stroke-linecap="round" stroke-linejoin="round"/>
<path d="M182.34 207.65L203.22 221.02L194.08 226.86L182.29 219.32L182.34 207.65Z" stroke="white" stroke-width="1.18" stroke-linecap="round" stroke-linejoin="round"/>
<path d="M224.1 207.65L203.22 221.02L212.35 226.86L224.1 219.34V207.65Z" stroke="white" stroke-width="1.18" stroke-linecap="round" stroke-linejoin="round"/>
<path d="M149.71 213.48L161.45 205.96V194.27L140.57 207.65L149.71 213.48Z" stroke="white" stroke-width="1.18" stroke-linecap="round" stroke-linejoin="round"/>
<path d="M173.2 213.48L161.45 205.96V194.27L182.34 207.65L173.2 213.48Z" stroke="white" stroke-width="1.18" stroke-linecap="round" stroke-linejoin="round"/>
<path d="M140.57 246.05L161.45 232.65V221L140.57 234.36V246.05Z" stroke="white" stroke-width="1.18" stroke-linecap="round" stroke-linejoin="round"/>
<path d="M182.34 246.05L161.46 232.65V221L182.34 234.36V246.05Z" stroke="white" stroke-width="1.18" stroke-linecap="round" stroke-linejoin="round"/>
<path d="M140.57 207.65L161.45 221.02L152.29 226.84L140.54 219.32L140.57 207.65Z" stroke="white" stroke-width="1.18" stroke-linecap="round" stroke-linejoin="round"/>
<path d="M182.34 207.65L161.46 221.02L170.59 226.86L182.34 219.34V207.65Z" stroke="white" stroke-width="1.18" stroke-linecap="round" stroke-linejoin="round"/>
<path d="M107.94 213.48L119.69 205.96V194.27L98.8096 207.65L107.94 213.48Z" stroke="white" stroke-width="1.18" stroke-linecap="round" stroke-linejoin="round"/>
<path d="M131.439 213.48L119.689 205.96V194.27L140.569 207.65L131.439 213.48Z" stroke="white" stroke-width="1.18" stroke-linecap="round" stroke-linejoin="round"/>
<path d="M98.8096 246.05L119.69 232.65V221L98.8096 234.36V246.05Z" stroke="white" stroke-width="1.18" stroke-linecap="round" stroke-linejoin="round"/>
<path d="M140.569 246.05L119.689 232.65V221L140.569 234.36V246.05Z" stroke="white" stroke-width="1.18" stroke-linecap="round" stroke-linejoin="round"/>
<path d="M98.8096 207.65L119.69 221.02L110.56 226.86L98.8096 219.34V207.65Z" stroke="white" stroke-width="1.18" stroke-linecap="round" stroke-linejoin="round"/>
<path d="M140.569 207.65L119.689 221L128.819 226.84L140.569 219.32V207.65Z" stroke="white" stroke-width="1.18" stroke-linecap="round" stroke-linejoin="round"/>
<path d="M233.23 251.95L244.98 244.43V232.75L224.1 246.11L233.23 251.95Z" stroke="white" stroke-width="1.18" stroke-linecap="round" stroke-linejoin="round"/>
<path d="M256.729 251.95L244.979 244.43V232.75L265.859 246.11L256.729 251.95Z" stroke="white" stroke-width="1.18" stroke-linecap="round" stroke-linejoin="round"/>
<path d="M265.859 284.52L286.739 271.16V259.46L265.859 272.83V284.52Z" stroke="white" stroke-width="1.18" stroke-linecap="round" stroke-linejoin="round"/>
<path d="M307.619 284.52L286.739 271.16V259.46L307.619 272.83V284.52Z" stroke="white" stroke-width="1.18" stroke-linecap="round" stroke-linejoin="round"/>
<path d="M15.29 257.8L36.17 244.43V232.75L15.29 246.11V257.8Z" stroke="white" stroke-width="1.18" stroke-linecap="round" stroke-linejoin="round"/>
<path d="M98.8097 296.27L77.9297 282.91V271.22L98.8097 284.58V296.27Z" stroke="white" stroke-width="1.18" stroke-linecap="round" stroke-linejoin="round"/>
<path d="M98.8097 322.99L77.9297 309.65V297.94L98.8097 311.3V322.99Z" stroke="white" stroke-width="1.18" stroke-linecap="round" stroke-linejoin="round"/>
<path d="M233.21 251.93L244.95 244.42V232.73L224.07 246.09L233.21 251.93Z" stroke="white" stroke-width="1.18" stroke-linecap="round" stroke-linejoin="round"/>
<path d="M224.07 284.5L244.95 271.14V259.45L224.07 272.82V284.5Z" stroke="white" stroke-width="1.18" stroke-linecap="round" stroke-linejoin="round"/>
<path d="M57.0197 284.5L36.1396 271.14V259.45L57.0197 272.82V284.5Z" stroke="white" stroke-width="1.18" stroke-linecap="round" stroke-linejoin="round"/>
<path d="M224.07 246.09L244.95 259.45L235.82 265.3L224.07 257.78V246.09Z" stroke="white" stroke-width="1.18" stroke-linecap="round" stroke-linejoin="round"/>
<path d="M191.44 251.93L203.19 244.43V232.73L182.29 246.09L191.44 251.93Z" stroke="white" stroke-width="1.18" stroke-linecap="round" stroke-linejoin="round"/>
<path d="M182.29 284.501L203.17 271.141V259.451L182.29 272.821V284.501Z" stroke="white" stroke-width="1.18" stroke-linecap="round" stroke-linejoin="round"/>
<path d="M224.07 284.501L203.19 271.141V259.451L224.07 272.821V284.501Z" stroke="white" stroke-width="1.18" stroke-linecap="round" stroke-linejoin="round"/>
<path d="M182.29 246.09L203.17 259.46L194.03 265.3L182.29 257.78V246.09Z" stroke="white" stroke-width="1.18" stroke-linecap="round" stroke-linejoin="round"/>
<path d="M224.07 246.09L203.19 259.45L212.32 265.3L224.07 257.78V246.09Z" stroke="white" stroke-width="1.18" stroke-linecap="round" stroke-linejoin="round"/>
<path d="M149.68 251.93L161.43 244.42V232.73L140.55 246.09L149.68 251.93Z" stroke="white" stroke-width="1.18" stroke-linecap="round" stroke-linejoin="round"/>
<path d="M173.18 251.93L161.43 244.42V232.73L182.29 246.09L173.18 251.93Z" stroke="white" stroke-width="1.18" stroke-linecap="round" stroke-linejoin="round"/>
<path d="M140.55 284.501L161.43 271.141V259.451L140.55 272.821V284.501Z" stroke="white" stroke-width="1.18" stroke-linecap="round" stroke-linejoin="round"/>
<path d="M182.29 284.501L161.41 271.141V259.451L182.29 272.821V284.501Z" stroke="white" stroke-width="1.18" stroke-linecap="round" stroke-linejoin="round"/>
<path d="M140.55 246.09L161.43 259.45L152.29 265.3L140.54 257.78L140.55 246.09Z" stroke="white" stroke-width="1.18" stroke-linecap="round" stroke-linejoin="round"/>
<path d="M182.29 246.09L161.43 259.45L170.56 265.3L182.29 257.78V246.09Z" stroke="white" stroke-width="1.18" stroke-linecap="round" stroke-linejoin="round"/>
<path d="M107.92 251.93L119.67 244.42V232.73L98.7803 246.09L107.92 251.93Z" stroke="white" stroke-width="1.18" stroke-linecap="round" stroke-linejoin="round"/>
<path d="M131.41 251.93L119.67 244.43V232.73L140.55 246.09L131.41 251.93Z" stroke="white" stroke-width="1.18" stroke-linecap="round" stroke-linejoin="round"/>
<path d="M98.7803 284.501L119.67 271.141V259.451L98.7803 272.821V284.501Z" stroke="white" stroke-width="1.18" stroke-linecap="round" stroke-linejoin="round"/>
<path d="M140.55 284.501L119.67 271.141V259.451L140.55 272.821V284.501Z" stroke="white" stroke-width="1.18" stroke-linecap="round" stroke-linejoin="round"/>
<path d="M98.7803 246.09L119.67 259.45L110.53 265.3L98.7803 257.78V246.09Z" stroke="white" stroke-width="1.18" stroke-linecap="round" stroke-linejoin="round"/>
<path d="M140.55 246.09L119.67 259.46L128.8 265.3L140.55 257.78V246.09Z" stroke="white" stroke-width="1.18" stroke-linecap="round" stroke-linejoin="round"/>
<path d="M89.6504 251.93L77.9004 244.42V232.73L98.7804 246.09L89.6504 251.93Z" stroke="white" stroke-width="1.18" stroke-linecap="round" stroke-linejoin="round"/>
<path d="M57.0303 284.501L77.9103 271.141V259.451L57.0303 272.821V284.501Z" stroke="white" stroke-width="1.18" stroke-linecap="round" stroke-linejoin="round"/>
<path d="M98.7804 246.09L77.9004 259.45V271.14L98.7804 257.78V246.09Z" stroke="white" stroke-width="1.18" stroke-linecap="round" stroke-linejoin="round"/>
<path d="M256.7 290.41L244.96 282.89V271.2L265.84 284.57L256.7 290.41Z" stroke="white" stroke-width="1.18" stroke-linecap="round" stroke-linejoin="round"/>
<path d="M224.07 322.98L244.95 309.65V297.93L224.07 311.29V322.98Z" stroke="white" stroke-width="1.18" stroke-linecap="round" stroke-linejoin="round"/>
<path d="M265.84 284.56L244.96 297.93V309.65L265.84 296.29V284.56Z" stroke="white" stroke-width="1.18" stroke-linecap="round" stroke-linejoin="round"/>
<path d="M295.85 315.761L307.6 308.251V296.561L286.72 309.931L295.85 315.761Z" stroke="white" stroke-width="1.18" stroke-linecap="round" stroke-linejoin="round"/>
<path d="M286.72 348.331L307.6 334.971V323.281L286.72 336.651V348.331Z" stroke="white" stroke-width="1.18" stroke-linecap="round" stroke-linejoin="round"/>
<path d="M328.48 348.331L307.6 334.971V323.281L328.48 336.651V348.331Z" stroke="white" stroke-width="1.18" stroke-linecap="round" stroke-linejoin="round"/>
<path d="M286.72 309.92L307.6 323.28L298.47 329.13L286.72 321.65V309.92Z" stroke="white" stroke-width="1.18" stroke-linecap="round" stroke-linejoin="round"/>
<path d="M15.2902 246.1L-5.58984 232.74V221.05L15.2902 234.42V246.1Z" stroke="white" stroke-width="1.18" stroke-linecap="round" stroke-linejoin="round"/>
<path d="M15.2902 361.49L-5.58984 348.13V336.44L15.2902 349.8V361.49Z" stroke="white" stroke-width="1.18" stroke-linecap="round" stroke-linejoin="round"/>
<path d="M191.44 290.41L203.19 282.89V271.2L182.29 284.57L191.44 290.41Z" stroke="white" stroke-width="1.18" stroke-linecap="round" stroke-linejoin="round"/>
<path d="M214.94 290.41L203.19 282.89V271.2L224.07 284.57L214.94 290.41Z" stroke="white" stroke-width="1.18" stroke-linecap="round" stroke-linejoin="round"/>
<path d="M182.29 322.98L203.19 309.65V297.93L182.29 311.29V322.98Z" stroke="white" stroke-width="1.18" stroke-linecap="round" stroke-linejoin="round"/>
<path d="M224.07 322.98L203.19 309.65V297.93L224.07 311.29V322.98Z" stroke="white" stroke-width="1.18" stroke-linecap="round" stroke-linejoin="round"/>
<path d="M182.29 284.56L203.17 297.93L194.03 303.77L182.29 296.25V284.56Z" stroke="white" stroke-width="1.18" stroke-linecap="round" stroke-linejoin="round"/>
<path d="M224.07 284.56L203.19 297.93L212.32 303.77L224.07 296.25V284.56Z" stroke="white" stroke-width="1.18" stroke-linecap="round" stroke-linejoin="round"/>
<path d="M149.68 290.41L161.43 282.89V271.2L140.55 284.57L149.68 290.41Z" stroke="white" stroke-width="1.18" stroke-linecap="round" stroke-linejoin="round"/>
<path d="M173.18 290.41L161.43 282.89V271.2L182.29 284.57L173.18 290.41Z" stroke="white" stroke-width="1.18" stroke-linecap="round" stroke-linejoin="round"/>
<path d="M140.55 322.98L161.43 309.65V297.93L140.55 311.29V322.98Z" stroke="white" stroke-width="1.18" stroke-linecap="round" stroke-linejoin="round"/>
<path d="M182.29 322.98L161.43 309.65V297.93L182.29 311.29V322.98Z" stroke="white" stroke-width="1.18" stroke-linecap="round" stroke-linejoin="round"/>
<path d="M140.55 284.56L161.43 297.93L152.29 303.77L140.54 296.25L140.55 284.56Z" stroke="white" stroke-width="1.18" stroke-linecap="round" stroke-linejoin="round"/>
<path d="M182.29 284.56L161.41 297.93L170.54 303.77L182.29 296.25V284.56Z" stroke="white" stroke-width="1.18" stroke-linecap="round" stroke-linejoin="round"/>
<path d="M131.41 290.41L119.67 282.89V271.2L140.55 284.56L131.41 290.41Z" stroke="white" stroke-width="1.18" stroke-linecap="round" stroke-linejoin="round"/>
<path d="M98.7803 322.98L119.67 309.65V297.93L98.7803 311.29V322.98Z" stroke="white" stroke-width="1.18" stroke-linecap="round" stroke-linejoin="round"/>
<path d="M140.55 322.98L119.67 309.65V297.93L140.55 311.29V322.98Z" stroke="white" stroke-width="1.18" stroke-linecap="round" stroke-linejoin="round"/>
<path d="M98.7803 284.56L119.67 297.93L110.53 303.77L98.7803 296.25V284.56Z" stroke="white" stroke-width="1.18" stroke-linecap="round" stroke-linejoin="round"/>
<path d="M140.55 284.56L119.67 297.93L128.8 303.77L140.55 296.25V284.56Z" stroke="white" stroke-width="1.18" stroke-linecap="round" stroke-linejoin="round"/>
<path d="M36.1396 321.31L57.0197 307.94V296.25L36.1396 309.65V321.31Z" stroke="white" stroke-width="1.18" stroke-linecap="round" stroke-linejoin="round"/>
<path d="M233.21 328.88L244.95 321.36V309.65L224.07 323.01L233.21 328.88Z" stroke="white" stroke-width="1.18" stroke-linecap="round" stroke-linejoin="round"/>
<path d="M224.07 361.45L244.95 348.08V336.4L224.07 349.76V361.45Z" stroke="white" stroke-width="1.18" stroke-linecap="round" stroke-linejoin="round"/>
<path d="M286.72 359.99L265.84 346.65V334.94L286.72 348.31V359.99Z" stroke="white" stroke-width="1.18" stroke-linecap="round" stroke-linejoin="round"/>
<path d="M224.07 323.041L244.95 336.401L235.82 342.241L224.07 334.721V323.041Z" stroke="white" stroke-width="1.18" stroke-linecap="round" stroke-linejoin="round"/>
<path d="M265.84 323.041L244.95 336.401L254.09 342.241L265.84 334.721V323.041Z" stroke="white" stroke-width="1.18" stroke-linecap="round" stroke-linejoin="round"/>
<path d="M191.44 328.88L203.19 321.36V309.65L182.29 323.04L191.44 328.88Z" stroke="white" stroke-width="1.18" stroke-linecap="round" stroke-linejoin="round"/>
<path d="M214.94 328.88L203.19 321.36V309.65L224.07 323.01L214.94 328.88Z" stroke="white" stroke-width="1.18" stroke-linecap="round" stroke-linejoin="round"/>
<path d="M182.29 361.45L203.17 348.08V336.4L182.29 349.76V361.45Z" stroke="white" stroke-width="1.18" stroke-linecap="round" stroke-linejoin="round"/>
<path d="M224.07 361.45L203.19 348.08V336.4L224.07 349.76V361.45Z" stroke="white" stroke-width="1.18" stroke-linecap="round" stroke-linejoin="round"/>
<path d="M182.29 323.041L203.17 336.401L194.03 342.241L182.29 334.721V323.041Z" stroke="white" stroke-width="1.18" stroke-linecap="round" stroke-linejoin="round"/>
<path d="M224.07 323.041L203.19 336.401L212.32 342.241L224.07 334.721V323.041Z" stroke="white" stroke-width="1.18" stroke-linecap="round" stroke-linejoin="round"/>
<path d="M149.68 328.88L161.43 321.36V309.65L140.55 323.01L149.68 328.88Z" stroke="white" stroke-width="1.18" stroke-linecap="round" stroke-linejoin="round"/>
<path d="M173.18 328.88L161.43 321.36V309.65L182.29 323.04L173.18 328.88Z" stroke="white" stroke-width="1.18" stroke-linecap="round" stroke-linejoin="round"/>
<path d="M140.55 361.45L161.43 348.08V336.4L140.55 349.76V361.45Z" stroke="white" stroke-width="1.18" stroke-linecap="round" stroke-linejoin="round"/>
<path d="M182.29 361.45L161.41 348.08V336.4L182.29 349.76V361.45Z" stroke="white" stroke-width="1.18" stroke-linecap="round" stroke-linejoin="round"/>
<path d="M140.55 323.041L161.43 336.401L152.29 342.241L140.54 334.721L140.55 323.041Z" stroke="white" stroke-width="1.18" stroke-linecap="round" stroke-linejoin="round"/>
<path d="M182.29 323.041L161.41 336.401L170.54 342.241L182.29 334.721V323.041Z" stroke="white" stroke-width="1.18" stroke-linecap="round" stroke-linejoin="round"/>
<path d="M107.92 328.88L119.67 321.36V309.65L98.7803 323.01L107.92 328.88Z" stroke="white" stroke-width="1.18" stroke-linecap="round" stroke-linejoin="round"/>
<path d="M131.41 328.88L119.67 321.36V309.65L140.55 323.01L131.41 328.88Z" stroke="white" stroke-width="1.18" stroke-linecap="round" stroke-linejoin="round"/>
<path d="M98.7803 361.45L119.67 348.08V336.4L98.7803 349.76V361.45Z" stroke="white" stroke-width="1.18" stroke-linecap="round" stroke-linejoin="round"/>
<path d="M140.55 361.45L119.67 348.08V336.4L140.55 349.76V361.45Z" stroke="white" stroke-width="1.18" stroke-linecap="round" stroke-linejoin="round"/>
<path d="M98.7803 323.041L119.67 336.401L110.53 342.241L98.7803 334.721V323.041Z" stroke="white" stroke-width="1.18" stroke-linecap="round" stroke-linejoin="round"/>
<path d="M140.55 323.041L119.67 336.401L128.8 342.241L140.55 334.721V323.041Z" stroke="white" stroke-width="1.18" stroke-linecap="round" stroke-linejoin="round"/>
<path d="M57.0293 361.449L77.9093 348.079V336.399L57.0293 349.759V361.449Z" stroke="white" stroke-width="1.18" stroke-linecap="round" stroke-linejoin="round"/>
<path d="M57.0295 323.039L77.9095 336.399L68.7695 342.239L57.0195 334.719L57.0295 323.039Z" stroke="white" stroke-width="1.18" stroke-linecap="round" stroke-linejoin="round"/>
<path d="M233.21 367.35L244.95 359.84V348.15L224.07 361.51L233.21 367.35Z" stroke="white" stroke-width="1.18" stroke-linecap="round" stroke-linejoin="round"/>
<path d="M256.7 367.35L244.96 359.84V348.15L265.84 361.51L256.7 367.35Z" stroke="white" stroke-width="1.18" stroke-linecap="round" stroke-linejoin="round"/>
<path d="M265.84 399.921L286.72 386.561V374.871L265.84 388.231V399.921Z" stroke="white" stroke-width="1.18" stroke-linecap="round" stroke-linejoin="round"/>
<path d="M307.601 399.921L286.721 386.561V374.871L307.601 388.231V399.921Z" stroke="white" stroke-width="1.18" stroke-linecap="round" stroke-linejoin="round"/>
<path d="M224.07 361.51L244.95 374.87L235.82 380.71L224.07 373.2V361.51Z" stroke="white" stroke-width="1.18" stroke-linecap="round" stroke-linejoin="round"/>
<path d="M191.44 367.35L203.19 359.84V348.15L182.29 361.51L191.44 367.35Z" stroke="white" stroke-width="1.18" stroke-linecap="round" stroke-linejoin="round"/>
<path d="M214.94 367.35L203.19 359.84V348.15L224.07 361.51L214.94 367.35Z" stroke="white" stroke-width="1.18" stroke-linecap="round" stroke-linejoin="round"/>
<path d="M182.29 399.921L203.17 386.561V374.871L182.29 388.231V399.921Z" stroke="white" stroke-width="1.18" stroke-linecap="round" stroke-linejoin="round"/>
<path d="M224.07 399.921L203.19 386.561V374.871L224.07 388.231V399.921Z" stroke="white" stroke-width="1.18" stroke-linecap="round" stroke-linejoin="round"/>
<path d="M182.29 361.51L203.17 374.87L194.03 380.71L182.29 373.2V361.51Z" stroke="white" stroke-width="1.18" stroke-linecap="round" stroke-linejoin="round"/>
<path d="M224.07 361.51L203.19 374.87L212.32 380.71L224.07 373.2V361.51Z" stroke="white" stroke-width="1.18" stroke-linecap="round" stroke-linejoin="round"/>
<path d="M149.68 367.35L161.43 359.84V348.15L140.55 361.51L149.68 367.35Z" stroke="white" stroke-width="1.18" stroke-linecap="round" stroke-linejoin="round"/>
<path d="M173.18 367.35L161.43 359.84V348.15L182.29 361.51L173.18 367.35Z" stroke="white" stroke-width="1.18" stroke-linecap="round" stroke-linejoin="round"/>
<path d="M140.55 399.921L161.43 386.561V374.871L140.55 388.231V399.921Z" stroke="white" stroke-width="1.18" stroke-linecap="round" stroke-linejoin="round"/>
<path d="M182.29 399.921L161.41 386.561V374.871L182.29 388.231V399.921Z" stroke="white" stroke-width="1.18" stroke-linecap="round" stroke-linejoin="round"/>
<path d="M140.55 361.51L161.43 374.87L152.29 380.71L140.54 373.2L140.55 361.51Z" stroke="white" stroke-width="1.18" stroke-linecap="round" stroke-linejoin="round"/>
<path d="M182.29 361.51L161.41 374.87L170.54 380.71L182.29 373.2V361.51Z" stroke="white" stroke-width="1.18" stroke-linecap="round" stroke-linejoin="round"/>
<path d="M107.92 367.35L119.67 359.84V348.15L98.7803 361.51L107.92 367.35Z" stroke="white" stroke-width="1.18" stroke-linecap="round" stroke-linejoin="round"/>
<path d="M131.41 367.35L119.67 359.84V348.15L140.55 361.51L131.41 367.35Z" stroke="white" stroke-width="1.18" stroke-linecap="round" stroke-linejoin="round"/>
<path d="M98.7803 399.921L119.67 386.561V374.871L98.7803 388.231V399.921Z" stroke="white" stroke-width="1.18" stroke-linecap="round" stroke-linejoin="round"/>
<path d="M140.55 399.921L119.67 386.561V374.871L140.55 388.231V399.921Z" stroke="white" stroke-width="1.18" stroke-linecap="round" stroke-linejoin="round"/>
<path d="M98.7803 361.51L119.67 374.87L110.53 380.71L98.7803 373.2V361.51Z" stroke="white" stroke-width="1.18" stroke-linecap="round" stroke-linejoin="round"/>
<path d="M140.55 361.51L119.67 374.87L128.8 380.71L140.55 373.2V361.51Z" stroke="white" stroke-width="1.18" stroke-linecap="round" stroke-linejoin="round"/>
<path d="M57.0303 373.2L77.9103 359.84V348.15L57.0303 361.51V373.2Z" stroke="white" stroke-width="1.18" stroke-linecap="round" stroke-linejoin="round"/>
<path d="M89.6504 367.35L77.9004 359.84V348.15L98.7804 361.51L89.6504 367.35Z" stroke="white" stroke-width="1.18" stroke-linecap="round" stroke-linejoin="round"/>
<path d="M98.7804 361.51L77.9004 374.87V386.65L98.7804 373.23V361.51Z" stroke="white" stroke-width="1.18" stroke-linecap="round" stroke-linejoin="round"/>
<path d="M15.29 373.2L36.17 359.84V348.15L15.29 361.51V373.2Z" stroke="white" stroke-width="1.18" stroke-linecap="round" stroke-linejoin="round"/>
<path d="M47.8896 367.35L36.1396 359.84V348.15L57.0197 361.51L47.8896 367.35Z" stroke="white" stroke-width="1.18" stroke-linecap="round" stroke-linejoin="round"/>
<path d="M57.0197 361.51L36.1396 374.87V386.65L57.0197 373.23V361.51Z" stroke="white" stroke-width="1.18" stroke-linecap="round" stroke-linejoin="round"/>
<path d="M224.07 411.65L244.95 398.29V386.65L224.07 400.01V411.65Z" stroke="white" stroke-width="1.18" stroke-linecap="round" stroke-linejoin="round"/>
<path d="M256.7 405.82L244.96 398.31V386.65L265.84 400.01L256.7 405.82Z" stroke="white" stroke-width="1.18" stroke-linecap="round" stroke-linejoin="round"/>
<path d="M265.84 399.98L244.96 413.34L245.37 424.77L265.84 411.65V399.98Z" stroke="white" stroke-width="1.18" stroke-linecap="round" stroke-linejoin="round"/>
<path d="M191.44 405.82L203.19 398.31V386.65L182.29 399.98L191.44 405.82Z" stroke="white" stroke-width="1.18" stroke-linecap="round" stroke-linejoin="round"/>
<path d="M214.94 405.82L203.19 398.31V386.65L224.07 400.01L214.94 405.82Z" stroke="white" stroke-width="1.18" stroke-linecap="round" stroke-linejoin="round"/>
<path d="M224.07 438.39L203.19 425.03V413.34L224.07 426.7V438.39Z" stroke="white" stroke-width="1.18" stroke-linecap="round" stroke-linejoin="round"/>
<path d="M173.18 405.82L161.43 398.31V386.65L182.29 399.98L173.18 405.82Z" stroke="white" stroke-width="1.18" stroke-linecap="round" stroke-linejoin="round"/>
<path d="M140.55 438.39L161.43 425.03V413.34L140.55 426.7V438.39Z" stroke="white" stroke-width="1.18" stroke-linecap="round" stroke-linejoin="round"/>
<path d="M182.29 438.39L161.41 425.03V413.34L182.29 426.7V438.39Z" stroke="white" stroke-width="1.18" stroke-linecap="round" stroke-linejoin="round"/>
<path d="M140.55 399.98L161.43 413.34L152.29 419.19L140.54 411.65L140.55 399.98Z" stroke="white" stroke-width="1.18" stroke-linecap="round" stroke-linejoin="round"/>
<path d="M182.29 399.98L161.41 413.34L170.54 419.19L182.29 411.65V399.98Z" stroke="white" stroke-width="1.18" stroke-linecap="round" stroke-linejoin="round"/>
<path d="M107.92 405.82L119.67 398.31V386.65L98.7803 400.01L107.92 405.82Z" stroke="white" stroke-width="1.18" stroke-linecap="round" stroke-linejoin="round"/>
<path d="M98.7803 399.98L119.67 413.34V425.03L98.7803 411.65V399.98Z" stroke="white" stroke-width="1.18" stroke-linecap="round" stroke-linejoin="round"/>
<path d="M57.0303 411.65L77.9103 398.29V386.65L57.0303 400.01V411.65Z" stroke="white" stroke-width="1.18" stroke-linecap="round" stroke-linejoin="round"/>
<path d="M98.7804 411.65L77.9004 398.29V386.65L98.7804 400.01V411.65Z" stroke="white" stroke-width="1.18" stroke-linecap="round" stroke-linejoin="round"/>
<path d="M233.1 444L244.85 436.48V424.79L223.96 438.15L233.1 444Z" stroke="white" stroke-width="1.18" stroke-linecap="round" stroke-linejoin="round"/>
<path d="M223.96 476.56L244.85 463.2V451.51L223.96 464.88V476.56Z" stroke="white" stroke-width="1.18" stroke-linecap="round" stroke-linejoin="round"/>
<path d="M56.9103 476.56L36.0303 463.2V451.51L56.9103 464.88V476.56Z" stroke="white" stroke-width="1.18" stroke-linecap="round" stroke-linejoin="round"/>
<path d="M223.96 438.15L244.85 451.51L235.71 457.36L223.96 449.84V438.15Z" stroke="white" stroke-width="1.18" stroke-linecap="round" stroke-linejoin="round"/>
<path d="M191.29 444L203.04 436.48V424.79L182.2 438.15L191.29 444Z" stroke="white" stroke-width="1.18" stroke-linecap="round" stroke-linejoin="round"/>
<path d="M182.2 476.56L203.08 463.2V451.51L182.2 464.88V476.56Z" stroke="white" stroke-width="1.18" stroke-linecap="round" stroke-linejoin="round"/>
<path d="M223.96 476.56L203.08 463.2V451.51L223.96 464.88V476.56Z" stroke="white" stroke-width="1.18" stroke-linecap="round" stroke-linejoin="round"/>
<path d="M182.2 438.15L203.08 451.51L193.95 457.36L182.2 449.84V438.15Z" stroke="white" stroke-width="1.18" stroke-linecap="round" stroke-linejoin="round"/>
<path d="M223.96 438.15L203.08 451.51L212.22 457.36L223.97 449.84L223.96 438.15Z" stroke="white" stroke-width="1.18" stroke-linecap="round" stroke-linejoin="round"/>
<path d="M149.57 444L161.29 436.48V424.79L140.44 438.15L149.57 444Z" stroke="white" stroke-width="1.18" stroke-linecap="round" stroke-linejoin="round"/>
<path d="M173.07 444L161.29 436.48V424.79L182.17 438.15L173.07 444Z" stroke="white" stroke-width="1.18" stroke-linecap="round" stroke-linejoin="round"/>
<path d="M140.44 476.56L161.29 463.2V451.51L140.41 464.88L140.44 476.56Z" stroke="white" stroke-width="1.18" stroke-linecap="round" stroke-linejoin="round"/>
<path d="M182.2 476.56L161.29 463.2V451.51L182.17 464.88L182.2 476.56Z" stroke="white" stroke-width="1.18" stroke-linecap="round" stroke-linejoin="round"/>
<path d="M140.44 438.15L161.29 451.51L152.16 457.36L140.41 449.84L140.44 438.15Z" stroke="white" stroke-width="1.18" stroke-linecap="round" stroke-linejoin="round"/>
<path d="M182.2 438.15L161.29 451.51L170.42 457.36L182.17 449.84L182.2 438.15Z" stroke="white" stroke-width="1.18" stroke-linecap="round" stroke-linejoin="round"/>
<path d="M107.811 444L119.561 436.48V424.79L98.6807 438.15L107.811 444Z" stroke="white" stroke-width="1.18" stroke-linecap="round" stroke-linejoin="round"/>
<path d="M131.291 444L119.541 436.48V424.79L140.421 438.15L131.291 444Z" stroke="white" stroke-width="1.18" stroke-linecap="round" stroke-linejoin="round"/>
<path d="M98.6807 476.56L119.561 463.2V451.51L98.6807 464.88V476.56Z" stroke="white" stroke-width="1.18" stroke-linecap="round" stroke-linejoin="round"/>
<path d="M140.441 476.56L119.561 463.2V451.51L140.441 464.88V476.56Z" stroke="white" stroke-width="1.18" stroke-linecap="round" stroke-linejoin="round"/>
<path d="M98.6809 438.15L119.561 451.51L110.421 457.36L98.6709 449.84L98.6809 438.15Z" stroke="white" stroke-width="1.18" stroke-linecap="round" stroke-linejoin="round"/>
<path d="M140.441 438.15L119.561 451.51L128.691 457.36L140.441 449.84V438.15Z" stroke="white" stroke-width="1.18" stroke-linecap="round" stroke-linejoin="round"/>
<path d="M89.54 444L77.79 436.48V424.79L98.6801 438.15L89.54 444Z" stroke="white" stroke-width="1.18" stroke-linecap="round" stroke-linejoin="round"/>
<path d="M56.9102 476.56L77.7902 463.2V451.51L56.9102 464.88V476.56Z" stroke="white" stroke-width="1.18" stroke-linecap="round" stroke-linejoin="round"/>
<path d="M98.6798 438.15L77.7998 451.51V463.2L98.6798 449.84V438.15Z" stroke="white" stroke-width="1.18" stroke-linecap="round" stroke-linejoin="round"/>
<path d="M256.59 482.47L244.85 474.95V463.26L265.73 476.65L256.59 482.47Z" stroke="white" stroke-width="1.18" stroke-linecap="round" stroke-linejoin="round"/>
<path d="M223.96 515.04L244.85 501.65V489.99L223.96 503.35V515.04Z" stroke="white" stroke-width="1.18" stroke-linecap="round" stroke-linejoin="round"/>
<path d="M265.73 476.65L244.85 490.02V501.65L265.73 488.29V476.65Z" stroke="white" stroke-width="1.18" stroke-linecap="round" stroke-linejoin="round"/>
<path d="M295.74 480.78L307.49 473.26V461.58L286.61 474.94L295.74 480.78Z" stroke="white" stroke-width="1.18" stroke-linecap="round" stroke-linejoin="round"/>
<path d="M286.61 513.35L307.49 499.99V488.3L286.61 501.65V513.35Z" stroke="white" stroke-width="1.18" stroke-linecap="round" stroke-linejoin="round"/>
<path d="M328.37 513.35L307.49 499.99V488.3L328.37 501.65V513.35Z" stroke="white" stroke-width="1.18" stroke-linecap="round" stroke-linejoin="round"/>
<path d="M286.61 474.94L307.49 488.3L298.36 494.15L286.61 486.65V474.94Z" stroke="white" stroke-width="1.18" stroke-linecap="round" stroke-linejoin="round"/>
<path d="M191.29 482.47L203.04 474.95V463.26L182.2 476.65L191.29 482.47Z" stroke="white" stroke-width="1.18" stroke-linecap="round" stroke-linejoin="round"/>
<path d="M214.83 482.47L203.08 474.95V463.26L223.96 476.65L214.83 482.47Z" stroke="white" stroke-width="1.18" stroke-linecap="round" stroke-linejoin="round"/>
<path d="M182.2 515.04L203.08 501.65V489.99L182.2 503.35V515.04Z" stroke="white" stroke-width="1.18" stroke-linecap="round" stroke-linejoin="round"/>
<path d="M223.96 515.04L203.08 501.65V489.99L223.96 503.35V515.04Z" stroke="white" stroke-width="1.18" stroke-linecap="round" stroke-linejoin="round"/>
<path d="M182.2 476.65L203.08 490.02L193.95 495.86L182.2 488.34V476.65Z" stroke="white" stroke-width="1.18" stroke-linecap="round" stroke-linejoin="round"/>
<path d="M223.96 476.65L203.08 490.02L212.22 495.86L223.97 488.34L223.96 476.65Z" stroke="white" stroke-width="1.18" stroke-linecap="round" stroke-linejoin="round"/>
<path d="M149.57 482.47L161.29 474.95V463.26L140.44 476.65L149.57 482.47Z" stroke="white" stroke-width="1.18" stroke-linecap="round" stroke-linejoin="round"/>
<path d="M173.07 482.47L161.29 474.95V463.26L182.2 476.65L173.07 482.47Z" stroke="white" stroke-width="1.18" stroke-linecap="round" stroke-linejoin="round"/>
<path d="M140.44 515.04L161.29 501.65V489.99L140.44 503.35V515.04Z" stroke="white" stroke-width="1.18" stroke-linecap="round" stroke-linejoin="round"/>
<path d="M182.2 515.04L161.29 501.65V489.99L182.17 503.35L182.2 515.04Z" stroke="white" stroke-width="1.18" stroke-linecap="round" stroke-linejoin="round"/>
<path d="M140.44 476.65L161.29 489.99L152.16 495.83L140.41 488.31L140.44 476.65Z" stroke="white" stroke-width="1.18" stroke-linecap="round" stroke-linejoin="round"/>
<path d="M182.2 476.65L161.29 489.99L170.42 495.83L182.17 488.31L182.2 476.65Z" stroke="white" stroke-width="1.18" stroke-linecap="round" stroke-linejoin="round"/>
<path d="M131.291 482.47L119.541 474.95V463.26L140.441 476.65L131.291 482.47Z" stroke="white" stroke-width="1.18" stroke-linecap="round" stroke-linejoin="round"/>
<path d="M98.6807 515.04L119.561 501.65V489.99L98.6807 503.35V515.04Z" stroke="white" stroke-width="1.18" stroke-linecap="round" stroke-linejoin="round"/>
<path d="M140.441 515.04L119.561 501.65V489.99L140.441 503.35V515.04Z" stroke="white" stroke-width="1.18" stroke-linecap="round" stroke-linejoin="round"/>
<path d="M98.6809 476.65L119.561 490.02L110.421 495.86L98.6709 488.34L98.6809 476.65Z" stroke="white" stroke-width="1.18" stroke-linecap="round" stroke-linejoin="round"/>
<path d="M140.441 476.65L119.561 490.02L128.691 495.86L140.441 488.34V476.65Z" stroke="white" stroke-width="1.18" stroke-linecap="round" stroke-linejoin="round"/>
<path d="M66.0502 482.47L77.7902 474.95V463.26L56.9102 476.65L66.0502 482.47Z" stroke="white" stroke-width="1.18" stroke-linecap="round" stroke-linejoin="round"/>
<path d="M36.0303 513.36L56.9103 500V488.31L36.0303 501.65V513.36Z" stroke="white" stroke-width="1.18" stroke-linecap="round" stroke-linejoin="round"/>
<path d="M98.6808 515.04L77.8008 501.65V489.99L98.6808 503.35V515.04Z" stroke="white" stroke-width="1.18" stroke-linecap="round" stroke-linejoin="round"/>
<path d="M98.6808 488.31L77.8008 474.95V463.26L98.6808 476.65V488.31Z" stroke="white" stroke-width="1.18" stroke-linecap="round" stroke-linejoin="round"/>
<path d="M56.9102 476.65L77.7902 490.02L68.6602 495.86L56.9102 488.34V476.65Z" stroke="white" stroke-width="1.18" stroke-linecap="round" stroke-linejoin="round"/>
<path d="M233.1 520.94L244.85 513.42V501.73L223.96 515.1L233.1 520.94Z" stroke="white" stroke-width="1.18" stroke-linecap="round" stroke-linejoin="round"/>
<path d="M223.96 553.51L244.85 540.15V528.46L223.96 541.82V553.51Z" stroke="white" stroke-width="1.18" stroke-linecap="round" stroke-linejoin="round"/>
<path d="M286.61 552.05L265.73 538.65V527L286.61 540.37V552.05Z" stroke="white" stroke-width="1.18" stroke-linecap="round" stroke-linejoin="round"/>
<path d="M223.96 515.1L244.85 528.46L235.71 534.3L223.96 526.78V515.1Z" stroke="white" stroke-width="1.18" stroke-linecap="round" stroke-linejoin="round"/>
<path d="M265.73 515.1L244.85 528.46L253.98 534.3L265.73 526.78V515.1Z" stroke="white" stroke-width="1.18" stroke-linecap="round" stroke-linejoin="round"/>
<path d="M191.29 520.94L203.04 513.42V501.73L182.16 515.1L191.29 520.94Z" stroke="white" stroke-width="1.18" stroke-linecap="round" stroke-linejoin="round"/>
<path d="M214.83 520.94L203.08 513.42V501.73L223.96 515.1L214.83 520.94Z" stroke="white" stroke-width="1.18" stroke-linecap="round" stroke-linejoin="round"/>
<path d="M182.2 553.51L203.08 540.15V528.46L182.2 541.82V553.51Z" stroke="white" stroke-width="1.18" stroke-linecap="round" stroke-linejoin="round"/>
<path d="M223.96 553.51L203.08 540.15V528.46L223.96 541.82V553.51Z" stroke="white" stroke-width="1.18" stroke-linecap="round" stroke-linejoin="round"/>
<path d="M182.2 515.1L203.08 528.46L193.95 534.3L182.2 526.78V515.1Z" stroke="white" stroke-width="1.18" stroke-linecap="round" stroke-linejoin="round"/>
<path d="M223.96 515.1L203.08 528.46L212.22 534.3L223.97 526.78L223.96 515.1Z" stroke="white" stroke-width="1.18" stroke-linecap="round" stroke-linejoin="round"/>
<path d="M149.57 520.94L161.29 513.42V501.73L140.41 515.1L149.57 520.94Z" stroke="white" stroke-width="1.18" stroke-linecap="round" stroke-linejoin="round"/>
<path d="M173.07 520.94L161.29 513.42V501.73L182.17 515.1L173.07 520.94Z" stroke="white" stroke-width="1.18" stroke-linecap="round" stroke-linejoin="round"/>
<path d="M140.44 553.51L161.29 540.15V528.46L140.41 541.82L140.44 553.51Z" stroke="white" stroke-width="1.18" stroke-linecap="round" stroke-linejoin="round"/>
<path d="M182.2 553.51L161.29 540.15V528.46L182.17 541.82L182.2 553.51Z" stroke="white" stroke-width="1.18" stroke-linecap="round" stroke-linejoin="round"/>
<path d="M140.44 515.1L161.29 528.46L152.16 534.3L140.41 526.78L140.44 515.1Z" stroke="white" stroke-width="1.18" stroke-linecap="round" stroke-linejoin="round"/>
<path d="M182.2 515.1L161.29 528.46L170.42 534.3L182.17 526.78L182.2 515.1Z" stroke="white" stroke-width="1.18" stroke-linecap="round" stroke-linejoin="round"/>
<path d="M107.811 520.94L119.561 513.42V501.73L98.6807 515.1L107.811 520.94Z" stroke="white" stroke-width="1.18" stroke-linecap="round" stroke-linejoin="round"/>
<path d="M131.291 520.94L119.541 513.42V501.73L140.421 515.1L131.291 520.94Z" stroke="white" stroke-width="1.18" stroke-linecap="round" stroke-linejoin="round"/>
<path d="M98.6807 553.51L119.561 540.15V528.46L98.6807 541.82V553.51Z" stroke="white" stroke-width="1.18" stroke-linecap="round" stroke-linejoin="round"/>
<path d="M140.441 553.51L119.561 540.15V528.46L140.441 541.82V553.51Z" stroke="white" stroke-width="1.18" stroke-linecap="round" stroke-linejoin="round"/>
<path d="M98.6809 515.1L119.561 528.46L110.421 534.3L98.6709 526.78L98.6809 515.1Z" stroke="white" stroke-width="1.18" stroke-linecap="round" stroke-linejoin="round"/>
<path d="M140.441 515.1L119.561 528.46L128.691 534.3L140.441 526.78V515.1Z" stroke="white" stroke-width="1.18" stroke-linecap="round" stroke-linejoin="round"/>
<path d="M66.0502 520.94L77.7902 513.42V501.73L56.9102 515.1L66.0502 520.94Z" stroke="white" stroke-width="1.18" stroke-linecap="round" stroke-linejoin="round"/>
<path d="M89.54 520.94L77.79 513.42V501.73L98.6801 515.1L89.54 520.94Z" stroke="white" stroke-width="1.18" stroke-linecap="round" stroke-linejoin="round"/>
<path d="M56.9102 553.51L77.7902 540.15V528.46L56.9102 541.82V553.51Z" stroke="white" stroke-width="1.18" stroke-linecap="round" stroke-linejoin="round"/>
<path d="M56.9102 515.1L77.7902 528.46L68.6602 534.3L56.9102 526.78V515.1Z" stroke="white" stroke-width="1.18" stroke-linecap="round" stroke-linejoin="round"/>
<path d="M233.1 559.41L244.85 551.89V540.21L223.96 553.57L233.1 559.41Z" stroke="white" stroke-width="1.18" stroke-linecap="round" stroke-linejoin="round"/>
<path d="M256.59 559.41L244.85 551.89V540.21L265.73 553.57L256.59 559.41Z" stroke="white" stroke-width="1.18" stroke-linecap="round" stroke-linejoin="round"/>
<path d="M265.73 591.98L286.61 578.65V566.93L265.73 580.29V591.98Z" stroke="white" stroke-width="1.18" stroke-linecap="round" stroke-linejoin="round"/>
<path d="M307.49 591.98L286.61 578.65V566.93L307.49 580.29V591.98Z" stroke="white" stroke-width="1.18" stroke-linecap="round" stroke-linejoin="round"/>
<path d="M223.96 553.57L244.85 566.93L235.71 572.77L223.96 565.26V553.57Z" stroke="white" stroke-width="1.18" stroke-linecap="round" stroke-linejoin="round"/>
<path d="M191.29 559.41L203.04 551.89V540.21L182.16 553.57L191.29 559.41Z" stroke="white" stroke-width="1.18" stroke-linecap="round" stroke-linejoin="round"/>
<path d="M214.83 559.41L203.08 551.89V540.21L223.96 553.57L214.83 559.41Z" stroke="white" stroke-width="1.18" stroke-linecap="round" stroke-linejoin="round"/>
<path d="M182.2 591.98L203.08 578.65V566.93L182.2 580.29V591.98Z" stroke="white" stroke-width="1.18" stroke-linecap="round" stroke-linejoin="round"/>
<path d="M223.96 591.98L203.08 578.65V566.93L223.96 580.29V591.98Z" stroke="white" stroke-width="1.18" stroke-linecap="round" stroke-linejoin="round"/>
<path d="M182.2 553.57L203.08 566.93L193.95 572.77L182.2 565.26V553.57Z" stroke="white" stroke-width="1.18" stroke-linecap="round" stroke-linejoin="round"/>
<path d="M223.96 553.57L203.08 566.93L212.22 572.77L223.97 565.26L223.96 553.57Z" stroke="white" stroke-width="1.18" stroke-linecap="round" stroke-linejoin="round"/>
<path d="M149.57 559.41L161.29 551.9V540.21L140.41 553.57L149.57 559.41Z" stroke="white" stroke-width="1.18" stroke-linecap="round" stroke-linejoin="round"/>
<path d="M173.07 559.41L161.29 551.89V540.21L182.17 553.57L173.07 559.41Z" stroke="white" stroke-width="1.18" stroke-linecap="round" stroke-linejoin="round"/>
<path d="M140.44 591.98L161.29 578.65V566.93L140.41 580.29L140.44 591.98Z" stroke="white" stroke-width="1.18" stroke-linecap="round" stroke-linejoin="round"/>
<path d="M182.2 591.98L161.29 578.65V566.93L182.17 580.29L182.2 591.98Z" stroke="white" stroke-width="1.18" stroke-linecap="round" stroke-linejoin="round"/>
<path d="M140.44 553.57L161.29 566.93L152.16 572.77L140.41 565.26L140.44 553.57Z" stroke="white" stroke-width="1.18" stroke-linecap="round" stroke-linejoin="round"/>
<path d="M182.2 553.57L161.29 566.93L170.42 572.77L182.17 565.26L182.2 553.57Z" stroke="white" stroke-width="1.18" stroke-linecap="round" stroke-linejoin="round"/>
<path d="M107.811 559.41L119.561 551.89V540.21L98.6807 553.57L107.811 559.41Z" stroke="white" stroke-width="1.18" stroke-linecap="round" stroke-linejoin="round"/>
<path d="M131.291 559.41L119.541 551.89V540.21L140.421 553.57L131.291 559.41Z" stroke="white" stroke-width="1.18" stroke-linecap="round" stroke-linejoin="round"/>
<path d="M98.6807 591.98L119.561 578.65V566.93L98.6807 580.29V591.98Z" stroke="white" stroke-width="1.18" stroke-linecap="round" stroke-linejoin="round"/>
<path d="M140.441 591.98L119.561 578.65V566.93L140.441 580.29V591.98Z" stroke="white" stroke-width="1.18" stroke-linecap="round" stroke-linejoin="round"/>
<path d="M98.6809 553.57L119.561 566.93L110.421 572.77L98.6709 565.26L98.6809 553.57Z" stroke="white" stroke-width="1.18" stroke-linecap="round" stroke-linejoin="round"/>
<path d="M140.441 553.57L119.561 566.93L128.691 572.77L140.441 565.26V553.57Z" stroke="white" stroke-width="1.18" stroke-linecap="round" stroke-linejoin="round"/>
<path d="M56.9102 565.26L77.7902 551.9V540.21L56.9102 553.57V565.26Z" stroke="white" stroke-width="1.18" stroke-linecap="round" stroke-linejoin="round"/>
<path d="M89.54 559.41L77.79 551.89V540.21L98.6801 553.57L89.54 559.41Z" stroke="white" stroke-width="1.18" stroke-linecap="round" stroke-linejoin="round"/>
<path d="M98.6798 553.57L77.7998 566.93V578.65L98.6798 565.23V553.57Z" stroke="white" stroke-width="1.18" stroke-linecap="round" stroke-linejoin="round"/>
<path d="M411.881 682.5L432.761 669.14V657.45L411.881 670.82V682.5Z" stroke="white" stroke-width="1.18" stroke-linecap="round" stroke-linejoin="round"/>
<path d="M379.29 649.94L391.04 642.42V630.73L370.16 644.09L379.29 649.94Z" stroke="white" stroke-width="1.18" stroke-linecap="round" stroke-linejoin="round"/>
<path d="M370.12 682.5L391 669.14V657.45L370.12 670.82V682.5Z" stroke="white" stroke-width="1.18" stroke-linecap="round" stroke-linejoin="round"/>
<path d="M411.88 682.5L391 669.14V657.45L411.88 670.82V682.5Z" stroke="white" stroke-width="1.18" stroke-linecap="round" stroke-linejoin="round"/>
<path d="M370.12 644.09L391 657.45L381.86 663.3L370.12 655.78V644.09Z" stroke="white" stroke-width="1.18" stroke-linecap="round" stroke-linejoin="round"/>
<path d="M337.49 649.94L349.29 642.42V630.73L328.41 644.09L337.49 649.94Z" stroke="white" stroke-width="1.18" stroke-linecap="round" stroke-linejoin="round"/>
<path d="M328.36 682.5L349.29 669.14V657.45L328.41 670.82L328.36 682.5Z" stroke="white" stroke-width="1.18" stroke-linecap="round" stroke-linejoin="round"/>
<path d="M370.12 682.5L349.23 669.14V657.45L370.12 670.82V682.5Z" stroke="white" stroke-width="1.18" stroke-linecap="round" stroke-linejoin="round"/>
<path d="M328.36 644.09L349.29 657.45L340.15 663.3L328.41 655.78L328.36 644.09Z" stroke="white" stroke-width="1.18" stroke-linecap="round" stroke-linejoin="round"/>
<path d="M370.12 720.97L349.23 707.65V695.93L370.12 709.29V720.97Z" stroke="white" stroke-width="1.18" stroke-linecap="round" stroke-linejoin="round"/>
<path d="M370.12 682.56L349.23 695.93L358.37 701.77L370.12 694.25V682.56Z" stroke="white" stroke-width="1.18" stroke-linecap="round" stroke-linejoin="round"/>
<path d="M421.011 726.88L432.761 719.36V707.65L411.881 721.02L421.011 726.88Z" stroke="white" stroke-width="1.18" stroke-linecap="round" stroke-linejoin="round"/>
<path d="M411.881 759.45L432.761 746.09V734.4L411.881 747.76V759.45Z" stroke="white" stroke-width="1.18" stroke-linecap="round" stroke-linejoin="round"/>
<path d="M474.521 757.99L453.641 744.65V732.94L474.521 746.31V757.99Z" stroke="white" stroke-width="1.18" stroke-linecap="round" stroke-linejoin="round"/>
<path d="M411.881 721.04L432.761 734.4L423.631 740.24L411.881 732.72V721.04Z" stroke="white" stroke-width="1.18" stroke-linecap="round" stroke-linejoin="round"/>
<path d="M453.641 721.04L432.761 734.4L441.891 740.24L453.641 732.72V721.04Z" stroke="white" stroke-width="1.18" stroke-linecap="round" stroke-linejoin="round"/>
<path d="M402.75 726.88L391 719.36V707.65L411.88 721.02L402.75 726.88Z" stroke="white" stroke-width="1.18" stroke-linecap="round" stroke-linejoin="round"/>
<path d="M411.88 759.45L391 746.09V734.4L411.88 747.76V759.45Z" stroke="white" stroke-width="1.18" stroke-linecap="round" stroke-linejoin="round"/>
<path d="M411.88 721.04L391 734.4L400.13 740.24L411.88 732.72V721.04Z" stroke="white" stroke-width="1.18" stroke-linecap="round" stroke-linejoin="round"/>
<path d="M328.36 759.45L349.29 746.09V734.4L328.41 747.76L328.36 759.45Z" stroke="white" stroke-width="1.18" stroke-linecap="round" stroke-linejoin="round"/>
<path d="M370.12 759.45L349.23 746.09V734.4L370.12 747.76V759.45Z" stroke="white" stroke-width="1.18" stroke-linecap="round" stroke-linejoin="round"/>
<path d="M328.36 721.04L349.29 734.4L340.15 740.24L328.41 732.72L328.36 721.04Z" stroke="white" stroke-width="1.18" stroke-linecap="round" stroke-linejoin="round"/>
<path d="M370.12 721.04L349.23 734.4L358.37 740.24L370.12 732.72V721.04Z" stroke="white" stroke-width="1.18" stroke-linecap="round" stroke-linejoin="round"/>
<path d="M295.721 726.88L307.471 719.36V707.65L286.591 721.04L295.721 726.88Z" stroke="white" stroke-width="1.18" stroke-linecap="round" stroke-linejoin="round"/>
<path d="M319.221 726.88L307.471 719.36V707.65L328.351 721.02L319.221 726.88Z" stroke="white" stroke-width="1.18" stroke-linecap="round" stroke-linejoin="round"/>
<path d="M286.591 759.45L307.471 746.09V734.4L286.591 747.76V759.45Z" stroke="white" stroke-width="1.18" stroke-linecap="round" stroke-linejoin="round"/>
<path d="M328.351 759.45L307.471 746.09V734.4L328.351 747.76V759.45Z" stroke="white" stroke-width="1.18" stroke-linecap="round" stroke-linejoin="round"/>
<path d="M286.591 721.04L307.471 734.4L298.341 740.24L286.591 732.72V721.04Z" stroke="white" stroke-width="1.18" stroke-linecap="round" stroke-linejoin="round"/>
<path d="M328.351 721.04L307.471 734.4L316.601 740.24L328.351 732.72V721.04Z" stroke="white" stroke-width="1.18" stroke-linecap="round" stroke-linejoin="round"/>
<path d="M421.011 765.35L432.761 757.84V746.15L411.881 759.51L421.011 765.35Z" stroke="white" stroke-width="1.18" stroke-linecap="round" stroke-linejoin="round"/>
<path d="M444.511 765.35L432.761 757.84V746.15L453.641 759.51L444.511 765.35Z" stroke="white" stroke-width="1.18" stroke-linecap="round" stroke-linejoin="round"/>
<path d="M453.641 797.92L474.521 784.56V772.87L453.641 786.23V797.92Z" stroke="white" stroke-width="1.18" stroke-linecap="round" stroke-linejoin="round"/>
<path d="M495.401 797.92L474.521 784.56V772.87L495.401 786.23V797.92Z" stroke="white" stroke-width="1.18" stroke-linecap="round" stroke-linejoin="round"/>
<path d="M411.881 759.51L432.761 772.87L423.631 778.71L411.881 771.2V759.51Z" stroke="white" stroke-width="1.18" stroke-linecap="round" stroke-linejoin="round"/>
<path d="M370.12 797.92L391 784.56V772.87L370.12 786.23V797.92Z" stroke="white" stroke-width="1.18" stroke-linecap="round" stroke-linejoin="round"/>
<path d="M411.88 797.92L391 784.56V772.87L411.88 786.23V797.92Z" stroke="white" stroke-width="1.18" stroke-linecap="round" stroke-linejoin="round"/>
<path d="M370.12 759.51L391 772.87L381.86 778.71L370.12 771.19V759.51Z" stroke="white" stroke-width="1.18" stroke-linecap="round" stroke-linejoin="round"/>
<path d="M411.88 759.51L391 772.87L400.13 778.71L411.88 771.2V759.51Z" stroke="white" stroke-width="1.18" stroke-linecap="round" stroke-linejoin="round"/>
<path d="M328.36 797.92L349.29 784.56V772.87L328.41 786.23L328.36 797.92Z" stroke="white" stroke-width="1.18" stroke-linecap="round" stroke-linejoin="round"/>
<path d="M295.721 765.35L307.471 757.84V746.15L286.591 759.51L295.721 765.35Z" stroke="white" stroke-width="1.18" stroke-linecap="round" stroke-linejoin="round"/>
<path d="M319.221 765.35L307.471 757.84V746.15L328.351 759.51L319.221 765.35Z" stroke="white" stroke-width="1.18" stroke-linecap="round" stroke-linejoin="round"/>
<path d="M286.591 797.92L307.471 784.56V772.87L286.591 786.23V797.92Z" stroke="white" stroke-width="1.18" stroke-linecap="round" stroke-linejoin="round"/>
<path d="M328.351 797.92L307.471 784.56V772.87L328.351 786.23V797.92Z" stroke="white" stroke-width="1.18" stroke-linecap="round" stroke-linejoin="round"/>
<path d="M286.591 759.51L307.471 772.87L298.341 778.71L286.591 771.2V759.51Z" stroke="white" stroke-width="1.18" stroke-linecap="round" stroke-linejoin="round"/>
<path d="M244.83 771.2L265.71 757.84V746.15L244.83 759.51V771.2Z" stroke="white" stroke-width="1.18" stroke-linecap="round" stroke-linejoin="round"/>
<path d="M277.46 765.35L265.71 757.84V746.15L286.59 759.51L277.46 765.35Z" stroke="white" stroke-width="1.18" stroke-linecap="round" stroke-linejoin="round"/>
<path d="M286.59 759.51L265.71 772.87V784.65L286.59 771.23V759.51Z" stroke="white" stroke-width="1.18" stroke-linecap="round" stroke-linejoin="round"/>
<path d="M15.1504 565.26L36.0304 551.9V540.21L15.1504 553.57V565.26Z" stroke="white" stroke-width="1.18" stroke-linecap="round" stroke-linejoin="round"/>
<path d="M47.7803 559.41L36.0303 551.89V540.21L56.9103 553.57L47.7803 559.41Z" stroke="white" stroke-width="1.18" stroke-linecap="round" stroke-linejoin="round"/>
<path d="M56.9103 553.57L36.0303 566.93V578.65L56.9103 565.23V553.57Z" stroke="white" stroke-width="1.18" stroke-linecap="round" stroke-linejoin="round"/>
<path d="M317.931 565.26L338.811 551.9V540.21L317.931 553.57V565.26Z" stroke="white" stroke-width="1.18" stroke-linecap="round" stroke-linejoin="round"/>
<path d="M350.561 559.41L338.811 551.89V540.21L359.701 553.57L350.561 559.41Z" stroke="white" stroke-width="1.18" stroke-linecap="round" stroke-linejoin="round"/>
<path d="M359.701 553.57L338.811 566.93V578.65L359.701 565.23V553.57Z" stroke="white" stroke-width="1.18" stroke-linecap="round" stroke-linejoin="round"/>
<path d="M286.61 244.5L307.49 231.14V219.46L286.61 232.82V244.5Z" stroke="white" stroke-width="1.18" stroke-linecap="round" stroke-linejoin="round"/>
<path d="M328.37 232.82L307.49 246.18V257.93L328.37 244.5V232.82Z" stroke="white" stroke-width="1.18" stroke-linecap="round" stroke-linejoin="round"/>
<path d="M223.96 603.73L244.85 590.37V578.65L223.96 592.01V603.73Z" stroke="white" stroke-width="1.18" stroke-linecap="round" stroke-linejoin="round"/>
<path d="M256.59 597.88L244.85 590.37V578.65L265.73 592.01L256.59 597.88Z" stroke="white" stroke-width="1.18" stroke-linecap="round" stroke-linejoin="round"/>
<path d="M265.73 592.04L244.85 605.4L245.26 616.83L265.73 603.73V592.04Z" stroke="white" stroke-width="1.18" stroke-linecap="round" stroke-linejoin="round"/>
<path d="M191.29 597.88L203.04 590.37V578.65L182.16 592.01L191.29 597.88Z" stroke="white" stroke-width="1.18" stroke-linecap="round" stroke-linejoin="round"/>
<path d="M214.83 597.88L203.08 590.37V578.65L223.96 592.01L214.83 597.88Z" stroke="white" stroke-width="1.18" stroke-linecap="round" stroke-linejoin="round"/>
<path d="M223.96 630.45L203.08 617.09V605.4L223.96 618.76V630.45Z" stroke="white" stroke-width="1.18" stroke-linecap="round" stroke-linejoin="round"/>
<path d="M173.07 597.88L161.29 590.37V578.65L182.17 592.01L173.07 597.88Z" stroke="white" stroke-width="1.18" stroke-linecap="round" stroke-linejoin="round"/>
<path d="M140.44 630.45L161.29 617.09V605.4L140.41 618.76L140.44 630.45Z" stroke="white" stroke-width="1.18" stroke-linecap="round" stroke-linejoin="round"/>
<path d="M182.2 630.45L161.29 617.09V605.4L182.17 618.76L182.2 630.45Z" stroke="white" stroke-width="1.18" stroke-linecap="round" stroke-linejoin="round"/>
<path d="M140.44 592.04L161.29 605.4L152.16 611.25L140.41 603.73L140.44 592.04Z" stroke="white" stroke-width="1.18" stroke-linecap="round" stroke-linejoin="round"/>
<path d="M182.2 592.04L161.29 605.4L170.42 611.25L182.17 603.73L182.2 592.04Z" stroke="white" stroke-width="1.18" stroke-linecap="round" stroke-linejoin="round"/>
<path d="M56.9209 603.73L77.8009 590.37V578.65L56.9209 592.01V603.73Z" stroke="white" stroke-width="1.18" stroke-linecap="round" stroke-linejoin="round"/>
<path d="M98.6808 603.73L77.8008 590.37V578.65L98.6808 592.01V603.73Z" stroke="white" stroke-width="1.18" stroke-linecap="round" stroke-linejoin="round"/>
<path d="M98.6808 630.45L77.8008 617.09V605.4L98.6808 618.76V630.45Z" stroke="white" stroke-width="1.18" stroke-linecap="round" stroke-linejoin="round"/>
<path d="M3.38004 380.53L15.12 373.01V361.32L-5.70996 374.65L3.38004 380.53Z" stroke="white" stroke-width="1.18" stroke-linecap="round" stroke-linejoin="round"/>
<path d="M-5.70996 413.09L15.17 399.73V388.04L-5.70996 401.41V413.09Z" stroke="white" stroke-width="1.18" stroke-linecap="round" stroke-linejoin="round"/>
<path d="M56.8898 411.65L36.0098 398.29V386.59L56.8898 399.95V411.65Z" stroke="white" stroke-width="1.18" stroke-linecap="round" stroke-linejoin="round"/>
<path d="M-5.70996 374.65L15.17 388.01L6.04004 393.86L-5.70996 386.37V374.65Z" stroke="white" stroke-width="1.18" stroke-linecap="round" stroke-linejoin="round"/>
<path d="M36.0101 374.65L15.1201 388.01L24.2601 393.86L36.0101 386.34V374.65Z" stroke="white" stroke-width="1.18" stroke-linecap="round" stroke-linejoin="round"/>
<path d="M36.0107 451.57L56.8907 438.2V426.52L36.0107 439.88V451.57Z" stroke="white" stroke-width="1.18" stroke-linecap="round" stroke-linejoin="round"/>
<path d="M57.0197 592.159L36.1396 578.799V567.109L57.0197 580.469V592.159Z" stroke="white" stroke-width="1.18" stroke-linecap="round" stroke-linejoin="round"/>
<path d="M89.6504 559.651L77.9004 552.131V540.391L98.7804 553.761L89.6504 559.651Z" stroke="white" stroke-width="1.18" stroke-linecap="round" stroke-linejoin="round"/>
<path d="M57.0303 592.171L77.9103 578.801V567.111L57.0303 580.471V592.171Z" stroke="white" stroke-width="1.18" stroke-linecap="round" stroke-linejoin="round"/>
<path d="M98.7804 553.75L77.9004 567.12V578.801L98.7804 565.44V553.75Z" stroke="white" stroke-width="1.18" stroke-linecap="round" stroke-linejoin="round"/>
<path d="M224.07 630.65L244.95 617.29V605.59L224.07 618.95V630.65Z" stroke="white" stroke-width="1.18" stroke-linecap="round" stroke-linejoin="round"/>
<path d="M295.85 623.421L307.6 615.911V604.221L286.72 617.581L295.85 623.421Z" stroke="white" stroke-width="1.18" stroke-linecap="round" stroke-linejoin="round"/>
<path d="M286.72 655.99L307.6 642.65V630.94L286.72 644.3V655.99Z" stroke="white" stroke-width="1.18" stroke-linecap="round" stroke-linejoin="round"/>
<path d="M328.48 655.99L307.6 642.65V630.94L328.48 644.3V655.99Z" stroke="white" stroke-width="1.18" stroke-linecap="round" stroke-linejoin="round"/>
<path d="M286.72 617.581L307.6 630.941L298.47 636.791L286.72 629.271V617.581Z" stroke="white" stroke-width="1.18" stroke-linecap="round" stroke-linejoin="round"/>
<path d="M15.2902 553.77L-5.58984 540.4V528.72L15.2902 542.08V553.77Z" stroke="white" stroke-width="1.18" stroke-linecap="round" stroke-linejoin="round"/>
<path d="M15.2902 669.151L-5.58984 655.791V644.101L15.2902 657.461V669.151Z" stroke="white" stroke-width="1.18" stroke-linecap="round" stroke-linejoin="round"/>
<path d="M182.29 630.651L203.17 617.291V605.591L182.29 618.951V630.651Z" stroke="white" stroke-width="1.18" stroke-linecap="round" stroke-linejoin="round"/>
<path d="M224.07 630.651L203.19 617.281V605.591L224.07 618.951V630.651Z" stroke="white" stroke-width="1.18" stroke-linecap="round" stroke-linejoin="round"/>
<path d="M182.29 592.221L203.17 605.581L194.03 611.431L182.29 603.911V592.221Z" stroke="white" stroke-width="1.18" stroke-linecap="round" stroke-linejoin="round"/>
<path d="M224.07 592.221L203.19 605.581L212.32 611.431L224.07 603.911V592.221Z" stroke="white" stroke-width="1.18" stroke-linecap="round" stroke-linejoin="round"/>
<path d="M149.68 598.069L161.43 590.549V578.859L140.55 592.229L149.68 598.069Z" stroke="white" stroke-width="1.18" stroke-linecap="round" stroke-linejoin="round"/>
<path d="M173.18 598.069L161.43 590.549V578.859L182.29 592.229L173.18 598.069Z" stroke="white" stroke-width="1.18" stroke-linecap="round" stroke-linejoin="round"/>
<path d="M140.55 630.649L161.43 617.289V605.589L140.55 618.949V630.649Z" stroke="white" stroke-width="1.18" stroke-linecap="round" stroke-linejoin="round"/>
<path d="M182.29 630.649L161.41 617.289V605.589L182.29 618.949V630.649Z" stroke="white" stroke-width="1.18" stroke-linecap="round" stroke-linejoin="round"/>
<path d="M140.55 592.219L161.43 605.579L152.29 611.429L140.54 603.909L140.55 592.219Z" stroke="white" stroke-width="1.18" stroke-linecap="round" stroke-linejoin="round"/>
<path d="M182.29 592.219L161.41 605.579L170.54 611.429L182.29 603.909V592.219Z" stroke="white" stroke-width="1.18" stroke-linecap="round" stroke-linejoin="round"/>
<path d="M98.7803 630.651L119.67 617.291V605.591L98.7803 618.951V630.651Z" stroke="white" stroke-width="1.18" stroke-linecap="round" stroke-linejoin="round"/>
<path d="M140.55 630.651L119.67 617.291V605.591L140.55 618.951V630.651Z" stroke="white" stroke-width="1.18" stroke-linecap="round" stroke-linejoin="round"/>
<path d="M98.7803 592.221L119.67 605.581L110.53 611.431L98.7803 603.911V592.221Z" stroke="white" stroke-width="1.18" stroke-linecap="round" stroke-linejoin="round"/>
<path d="M140.55 592.221L119.67 605.581L128.8 611.431L140.55 603.911V592.221Z" stroke="white" stroke-width="1.18" stroke-linecap="round" stroke-linejoin="round"/>
<path d="M66.1593 598.069L77.9093 590.549V578.859L57.0293 592.229L66.1593 598.069Z" stroke="white" stroke-width="1.18" stroke-linecap="round" stroke-linejoin="round"/>
<path d="M36.1396 628.959L57.0197 615.649V603.909L36.1396 617.279V628.959Z" stroke="white" stroke-width="1.18" stroke-linecap="round" stroke-linejoin="round"/>
<path d="M98.7794 630.649L77.8994 617.289V605.589L98.7794 618.949V630.649Z" stroke="white" stroke-width="1.18" stroke-linecap="round" stroke-linejoin="round"/>
<path d="M98.7794 603.909L77.8994 590.549V578.859L98.7794 592.229V603.909Z" stroke="white" stroke-width="1.18" stroke-linecap="round" stroke-linejoin="round"/>
<path d="M57.0295 592.219L77.9095 605.579L68.7695 611.429L57.0195 603.909L57.0295 592.219Z" stroke="white" stroke-width="1.18" stroke-linecap="round" stroke-linejoin="round"/>
<path d="M233.21 636.54L244.95 629.02V617.34L224.07 630.7L233.21 636.54Z" stroke="white" stroke-width="1.18" stroke-linecap="round" stroke-linejoin="round"/>
<path d="M224.07 669.11L244.95 655.75V644.06L224.07 657.42V669.11Z" stroke="white" stroke-width="1.18" stroke-linecap="round" stroke-linejoin="round"/>
<path d="M286.72 667.65L265.84 654.28V642.65L286.72 656.01V667.65Z" stroke="white" stroke-width="1.18" stroke-linecap="round" stroke-linejoin="round"/>
<path d="M224.07 630.7L244.95 644.06L235.82 649.9L224.07 642.39V630.7Z" stroke="white" stroke-width="1.18" stroke-linecap="round" stroke-linejoin="round"/>
<path d="M265.84 630.7L244.95 644.06L254.09 649.9L265.84 642.39V630.7Z" stroke="white" stroke-width="1.18" stroke-linecap="round" stroke-linejoin="round"/>
<path d="M191.44 636.54L203.19 629.02V617.34L182.29 630.7L191.44 636.54Z" stroke="white" stroke-width="1.18" stroke-linecap="round" stroke-linejoin="round"/>
<path d="M214.94 636.54L203.19 629.02V617.34L224.07 630.7L214.94 636.54Z" stroke="white" stroke-width="1.18" stroke-linecap="round" stroke-linejoin="round"/>
<path d="M182.29 669.11L203.19 655.75V644.06L182.29 657.42V669.11Z" stroke="white" stroke-width="1.18" stroke-linecap="round" stroke-linejoin="round"/>
<path d="M224.07 669.11L203.19 655.75V644.06L224.07 657.42V669.11Z" stroke="white" stroke-width="1.18" stroke-linecap="round" stroke-linejoin="round"/>
<path d="M182.29 630.7L203.17 644.06L194.03 649.9L182.29 642.39V630.7Z" stroke="white" stroke-width="1.18" stroke-linecap="round" stroke-linejoin="round"/>
<path d="M224.07 630.7L203.19 644.06L212.32 649.9L224.07 642.39V630.7Z" stroke="white" stroke-width="1.18" stroke-linecap="round" stroke-linejoin="round"/>
<path d="M149.68 636.54L161.43 629.02V617.34L140.55 630.7L149.68 636.54Z" stroke="white" stroke-width="1.18" stroke-linecap="round" stroke-linejoin="round"/>
<path d="M173.18 636.54L161.43 629.02V617.34L182.29 630.7L173.18 636.54Z" stroke="white" stroke-width="1.18" stroke-linecap="round" stroke-linejoin="round"/>
<path d="M140.55 669.11L161.43 655.75V644.06L140.55 657.42V669.11Z" stroke="white" stroke-width="1.18" stroke-linecap="round" stroke-linejoin="round"/>
<path d="M182.29 669.11L161.43 655.75V644.06L182.29 657.42V669.11Z" stroke="white" stroke-width="1.18" stroke-linecap="round" stroke-linejoin="round"/>
<path d="M140.55 630.7L161.43 644.06L152.29 649.9L140.54 642.39L140.55 630.7Z" stroke="white" stroke-width="1.18" stroke-linecap="round" stroke-linejoin="round"/>
<path d="M182.29 630.7L161.41 644.06L170.54 649.9L182.29 642.39V630.7Z" stroke="white" stroke-width="1.18" stroke-linecap="round" stroke-linejoin="round"/>
<path d="M107.92 636.54L119.67 629.02V617.34L98.7803 630.7L107.92 636.54Z" stroke="white" stroke-width="1.18" stroke-linecap="round" stroke-linejoin="round"/>
<path d="M131.41 636.54L119.67 629.02V617.34L140.55 630.7L131.41 636.54Z" stroke="white" stroke-width="1.18" stroke-linecap="round" stroke-linejoin="round"/>
<path d="M98.7803 669.11L119.67 655.75V644.06L98.7803 657.42V669.11Z" stroke="white" stroke-width="1.18" stroke-linecap="round" stroke-linejoin="round"/>
<path d="M140.55 669.11L119.67 655.75V644.06L140.55 657.42V669.11Z" stroke="white" stroke-width="1.18" stroke-linecap="round" stroke-linejoin="round"/>
<path d="M98.7803 630.7L119.67 644.06L110.53 649.9L98.7803 642.39V630.7Z" stroke="white" stroke-width="1.18" stroke-linecap="round" stroke-linejoin="round"/>
<path d="M140.55 630.7L119.67 644.06L128.8 649.9L140.55 642.39V630.7Z" stroke="white" stroke-width="1.18" stroke-linecap="round" stroke-linejoin="round"/>
<path d="M66.1595 636.54L77.8995 629.02V617.34L57.0195 630.7L66.1595 636.54Z" stroke="white" stroke-width="1.18" stroke-linecap="round" stroke-linejoin="round"/>
<path d="M89.6494 636.54L77.8994 629.02V617.34L98.7794 630.7L89.6494 636.54Z" stroke="white" stroke-width="1.18" stroke-linecap="round" stroke-linejoin="round"/>
<path d="M57.0293 669.11L77.9093 655.75V644.06L57.0293 657.42V669.11Z" stroke="white" stroke-width="1.18" stroke-linecap="round" stroke-linejoin="round"/>
<path d="M57.0295 630.7L77.9095 644.06L68.7695 649.9L57.0195 642.39L57.0295 630.7Z" stroke="white" stroke-width="1.18" stroke-linecap="round" stroke-linejoin="round"/>
<path d="M233.21 675.011L244.95 667.501V655.811L224.07 669.171L233.21 675.011Z" stroke="white" stroke-width="1.18" stroke-linecap="round" stroke-linejoin="round"/>
<path d="M256.7 675.011L244.96 667.501V655.811L265.84 669.171L256.7 675.011Z" stroke="white" stroke-width="1.18" stroke-linecap="round" stroke-linejoin="round"/>
<path d="M265.84 707.581L286.72 694.221V682.531L265.84 695.891V707.581Z" stroke="white" stroke-width="1.18" stroke-linecap="round" stroke-linejoin="round"/>
<path d="M307.601 707.581L286.721 694.221V682.531L307.601 695.891V707.581Z" stroke="white" stroke-width="1.18" stroke-linecap="round" stroke-linejoin="round"/>
<path d="M224.07 669.17L244.95 682.53L235.82 688.38L224.07 680.86V669.17Z" stroke="white" stroke-width="1.18" stroke-linecap="round" stroke-linejoin="round"/>
<path d="M191.44 675.011L203.19 667.501V655.811L182.29 669.171L191.44 675.011Z" stroke="white" stroke-width="1.18" stroke-linecap="round" stroke-linejoin="round"/>
<path d="M214.94 675.011L203.19 667.501V655.811L224.07 669.171L214.94 675.011Z" stroke="white" stroke-width="1.18" stroke-linecap="round" stroke-linejoin="round"/>
<path d="M182.29 707.581L203.17 694.221V682.531L182.29 695.891V707.581Z" stroke="white" stroke-width="1.18" stroke-linecap="round" stroke-linejoin="round"/>
<path d="M224.07 707.581L203.19 694.221V682.531L224.07 695.891V707.581Z" stroke="white" stroke-width="1.18" stroke-linecap="round" stroke-linejoin="round"/>
<path d="M182.29 669.17L203.17 682.53L194.03 688.38L182.29 680.86V669.17Z" stroke="white" stroke-width="1.18" stroke-linecap="round" stroke-linejoin="round"/>
<path d="M224.07 669.17L203.19 682.53L212.32 688.38L224.07 680.86V669.17Z" stroke="white" stroke-width="1.18" stroke-linecap="round" stroke-linejoin="round"/>
<path d="M149.68 675.011L161.43 667.501V655.811L140.55 669.171L149.68 675.011Z" stroke="white" stroke-width="1.18" stroke-linecap="round" stroke-linejoin="round"/>
<path d="M173.18 675.011L161.43 667.501V655.811L182.29 669.171L173.18 675.011Z" stroke="white" stroke-width="1.18" stroke-linecap="round" stroke-linejoin="round"/>
<path d="M140.55 707.581L161.43 694.221V682.531L140.55 695.891V707.581Z" stroke="white" stroke-width="1.18" stroke-linecap="round" stroke-linejoin="round"/>
<path d="M182.29 707.581L161.41 694.221V682.531L182.29 695.891V707.581Z" stroke="white" stroke-width="1.18" stroke-linecap="round" stroke-linejoin="round"/>
<path d="M140.55 669.17L161.43 682.53L152.29 688.38L140.54 680.86L140.55 669.17Z" stroke="white" stroke-width="1.18" stroke-linecap="round" stroke-linejoin="round"/>
<path d="M182.29 669.17L161.41 682.53L170.54 688.38L182.29 680.86V669.17Z" stroke="white" stroke-width="1.18" stroke-linecap="round" stroke-linejoin="round"/>
<path d="M107.92 675.011L119.67 667.501V655.811L98.7803 669.171L107.92 675.011Z" stroke="white" stroke-width="1.18" stroke-linecap="round" stroke-linejoin="round"/>
<path d="M131.41 675.011L119.67 667.501V655.811L140.55 669.171L131.41 675.011Z" stroke="white" stroke-width="1.18" stroke-linecap="round" stroke-linejoin="round"/>
<path d="M98.7803 707.581L119.67 694.221V682.531L98.7803 695.891V707.581Z" stroke="white" stroke-width="1.18" stroke-linecap="round" stroke-linejoin="round"/>
<path d="M140.55 707.581L119.67 694.221V682.531L140.55 695.891V707.581Z" stroke="white" stroke-width="1.18" stroke-linecap="round" stroke-linejoin="round"/>
<path d="M98.7803 669.17L119.67 682.53L110.53 688.38L98.7803 680.86V669.17Z" stroke="white" stroke-width="1.18" stroke-linecap="round" stroke-linejoin="round"/>
<path d="M140.55 669.17L119.67 682.53L128.8 688.38L140.55 680.86V669.17Z" stroke="white" stroke-width="1.18" stroke-linecap="round" stroke-linejoin="round"/>
<path d="M57.0303 680.861L77.9103 667.501V655.811L57.0303 669.171V680.861Z" stroke="white" stroke-width="1.18" stroke-linecap="round" stroke-linejoin="round"/>
<path d="M89.6504 675.011L77.9004 667.501V655.811L98.7804 669.171L89.6504 675.011Z" stroke="white" stroke-width="1.18" stroke-linecap="round" stroke-linejoin="round"/>
<path d="M98.7804 669.17L77.9004 682.53V694.28L98.7804 680.86V669.17Z" stroke="white" stroke-width="1.18" stroke-linecap="round" stroke-linejoin="round"/>
<path d="M15.29 680.861L36.17 667.501V655.811L15.29 669.171V680.861Z" stroke="white" stroke-width="1.18" stroke-linecap="round" stroke-linejoin="round"/>
<path d="M47.8896 675.011L36.1396 667.501V655.811L57.0197 669.171L47.8896 675.011Z" stroke="white" stroke-width="1.18" stroke-linecap="round" stroke-linejoin="round"/>
<path d="M57.0197 669.17L36.1396 682.53V694.28L57.0197 680.86V669.17Z" stroke="white" stroke-width="1.18" stroke-linecap="round" stroke-linejoin="round"/>
<path d="M224.07 719.329L244.95 705.969V694.279L224.07 707.649V719.329Z" stroke="white" stroke-width="1.18" stroke-linecap="round" stroke-linejoin="round"/>
<path d="M256.7 713.489L244.96 705.969V694.279L265.84 707.649L256.7 713.489Z" stroke="white" stroke-width="1.18" stroke-linecap="round" stroke-linejoin="round"/>
<path d="M265.84 707.649L244.96 721.009L245.37 732.439L265.84 719.339V707.649Z" stroke="white" stroke-width="1.18" stroke-linecap="round" stroke-linejoin="round"/>
<path d="M191.44 713.489L203.19 705.969V694.279L182.29 707.649L191.44 713.489Z" stroke="white" stroke-width="1.18" stroke-linecap="round" stroke-linejoin="round"/>
<path d="M214.94 713.489L203.19 705.969V694.279L224.07 707.649L214.94 713.489Z" stroke="white" stroke-width="1.18" stroke-linecap="round" stroke-linejoin="round"/>
<path d="M224.07 746.049L203.19 732.649V720.999L224.07 734.359V746.049Z" stroke="white" stroke-width="1.18" stroke-linecap="round" stroke-linejoin="round"/>
<path d="M173.18 713.489L161.43 705.969V694.279L182.29 707.649L173.18 713.489Z" stroke="white" stroke-width="1.18" stroke-linecap="round" stroke-linejoin="round"/>
<path d="M140.55 746.049L161.43 732.649V720.999L140.55 734.359V746.049Z" stroke="white" stroke-width="1.18" stroke-linecap="round" stroke-linejoin="round"/>
<path d="M182.29 746.049L161.43 732.649V720.999L182.29 734.359V746.049Z" stroke="white" stroke-width="1.18" stroke-linecap="round" stroke-linejoin="round"/>
<path d="M140.55 707.649L161.43 721.009L152.29 726.849L140.54 719.329L140.55 707.649Z" stroke="white" stroke-width="1.18" stroke-linecap="round" stroke-linejoin="round"/>
<path d="M182.29 707.649L161.41 721.009L170.54 726.859L182.29 719.329V707.649Z" stroke="white" stroke-width="1.18" stroke-linecap="round" stroke-linejoin="round"/>
<path d="M107.92 713.489L119.67 705.969V694.279L98.7803 707.649L107.92 713.489Z" stroke="white" stroke-width="1.18" stroke-linecap="round" stroke-linejoin="round"/>
<path d="M98.7803 707.649L119.67 721.009V732.649L98.7803 719.289V707.649Z" stroke="white" stroke-width="1.18" stroke-linecap="round" stroke-linejoin="round"/>
<path d="M57.0303 719.329L77.9103 705.969V694.279L57.0303 707.649V719.329Z" stroke="white" stroke-width="1.18" stroke-linecap="round" stroke-linejoin="round"/>
<path d="M98.7804 719.329L77.9004 705.969V694.279L98.7804 707.649V719.329Z" stroke="white" stroke-width="1.18" stroke-linecap="round" stroke-linejoin="round"/>
<path d="M98.7804 746.049L77.9004 732.649V720.999L98.7804 734.359V746.049Z" stroke="white" stroke-width="1.18" stroke-linecap="round" stroke-linejoin="round"/>
<path d="M-5.87988 309.49L15.0001 296.13V284.44L-5.87988 297.8V309.49Z" stroke="white" stroke-width="1.18" stroke-linecap="round" stroke-linejoin="round"/>
<path d="M-5.87988 167.38L15.0001 154.02V142.33L-5.87988 155.65V167.38Z" stroke="white" stroke-width="1.18" stroke-linecap="round" stroke-linejoin="round"/>
<path d="M26.74 161.54L15 154.02V142.33L35.88 155.65L26.74 161.54Z" stroke="white" stroke-width="1.18" stroke-linecap="round" stroke-linejoin="round"/>
<path d="M35.88 155.65L15 169.05V180.8L35.88 167.38V155.65Z" stroke="white" stroke-width="1.18" stroke-linecap="round" stroke-linejoin="round"/>
<path d="M-5.70996 721.111L15.19 707.751V696.061L-5.70996 709.421V721.111Z" stroke="white" stroke-width="1.18" stroke-linecap="round" stroke-linejoin="round"/>
<path d="M35.88 463.2L15 449.84V438.15L35.88 451.51V463.2Z" stroke="white" stroke-width="1.18" stroke-linecap="round" stroke-linejoin="round"/>
<path d="M15.0001 476.56L-5.87988 463.2V451.51L15.0001 464.88V476.56Z" stroke="white" stroke-width="1.18" stroke-linecap="round" stroke-linejoin="round"/>
<path d="M35.88 501.65L15 488.29V476.65L35.88 490.02V501.65Z" stroke="white" stroke-width="1.18" stroke-linecap="round" stroke-linejoin="round"/>
<path d="M36.14 617.28L15.29 603.92V592.23L36.17 605.59L36.14 617.28Z" stroke="white" stroke-width="1.18" stroke-linecap="round" stroke-linejoin="round"/>
</svg>
