<svg xmlns="http://www.w3.org/2000/svg" xmlns:xlink="http://www.w3.org/1999/xlink" width="217" height="325" viewBox="0 0 217 325"><defs><style>.a,.c,.d{fill:#fff;stroke:#f2f2f2;}.b{clip-path:url(#a);}.c,.d{stroke-linecap:round;stroke-linejoin:round;}.c{stroke-width:1.02px;}</style><clipPath id="a"><rect class="a" width="217" height="325" transform="translate(0 89)"/></clipPath></defs><g class="b" transform="translate(0 -89)"><g transform="translate(41.113 9.763)"><path class="c" d="M62,904.536,85.215,888.16V873.84L62,890.215Z" transform="translate(-15.562 -694.888)"/><path class="c" d="M62,1018.146l23.215-16.376V987.45L62,1003.825Z" transform="translate(-15.562 -714.727)"/><path class="c" d="M62,1018.146l23.215-16.376V987.45L62,1003.825Z" transform="translate(-15.562 -654.109)"/><path class="c" d="M248.04,904.278l23.215-16.367V873.59L248.04,889.957Z" transform="translate(-62.28 -694.844)"/><path class="c" d="M527.09,941.376,550.305,925V910.68L527.09,927.055Z" transform="translate(-248.355 -779.574)"/><path class="c" d="M527.09,941.376,550.305,925V910.68L527.09,927.055Z" transform="translate(-318.355 -552.531)"/><path class="c" d="M527.09,941.376,550.305,925V910.68L527.09,927.055Z" transform="translate(-260.355 -520.569)"/><path class="c" d="M186.03,961.466,209.245,945.1V930.77L186.03,947.146Z" transform="translate(-46.708 -704.829)"/><path class="c" d="M186.03,1018.146l23.215-16.376V987.45l-23.215,16.375Z" transform="translate(-46.708 -714.727)"/><path class="c" d="M186.03,1018.146l23.215-16.376V987.45l-23.215,16.375Z" transform="translate(418.292 -714.727)"/><path class="c" d="M-.01,1018.146l23.215-16.376V987.45L-.01,1003.825Z" transform="translate(0.01 -654.109)"/><path class="c" d="M124.01,904.278l23.215-16.367V873.59L124.01,889.957Z" transform="translate(-31.134 -694.844)"/><path class="c" d="M124.01,1018.146l23.215-16.376V987.45l-23.215,16.375Z" transform="translate(-31.134 -714.727)"/><path class="c" d="M124.01,1018.146l23.215-16.376V987.45l-23.215,16.375Z" transform="translate(-31.134 -654.109)"/><path class="c" d="M434.07,904.278l23.215-16.367V873.59L434.07,889.957Z" transform="translate(-108.996 -694.844)"/><path class="c" d="M279.04,771.826l23.215-16.376V741.13L279.04,757.5Z" transform="translate(-70.065 -671.714)"/><path class="c" d="M372.06,1018.146l23.215-16.376V987.45l-23.215,16.375Z" transform="translate(-197.424 -684.969)"/><path class="c" d="M-.01,961.216,23.205,944.84V930.52L-.01,946.9Z" transform="translate(0.01 -704.786)"/><path class="c" d="M310.05,961.216l23.215-16.376V930.52L310.05,946.9Z" transform="translate(-77.852 -704.786)"/><path class="c" d="M310.05,961.216l23.215-16.376V930.52L310.05,946.9Z" transform="translate(-193.852 -753.28)"/><path class="c" d="M30.99,998.216l23.215-16.367V967.52L30.99,983.9Z" transform="translate(-7.775 -711.247)"/><path class="c" d="M30.99,998.216l23.215-16.367V967.52L30.99,983.9Z" transform="translate(-7.775 -650.628)"/><path class="c" d="M124.01,977.966l23.215-16.376V947.27L124.01,963.646Z" transform="translate(-31.134 -707.711)"/><path class="c" d="M124.01,977.966l23.215-16.376V947.27L124.01,963.646Z" transform="translate(-31.134 -647.092)"/><path class="c" d="M403.06,941.376,426.275,925V910.68L403.06,927.055Z" transform="translate(-101.209 -701.321)"/><path class="c" d="M248.04,961.216l23.215-16.376V930.52L248.04,946.9Z" transform="translate(-62.28 -704.786)"/><path class="c" d="M372.06,961.216l23.215-16.376V930.52L372.06,946.9Z" transform="translate(-93.424 -704.786)"/><path class="d" d="M372.06,961.216l23.215-16.376V930.52L372.06,946.9Z" transform="translate(-81.424 -617.716)"/><path class="c" d="M465.07,941.376,488.285,925V910.68L465.07,927.055Z" transform="translate(-336.781 -563.552)"/><path class="c" d="M465.07,941.376,488.285,925V910.68L465.07,927.055Z" transform="translate(-395.781 -530.488)"/><path class="c" d="M465.07,998.216l23.215-16.367V967.52L465.07,983.9Z" transform="translate(-116.781 -711.247)"/><path class="c" d="M589.1,998.216l23.215-16.367V967.52L589.1,983.9Z" transform="translate(-333.927 -662.752)"/><path class="c" d="M682.12,1018.146l23.215-16.376V987.45l-23.215,16.375Z" transform="translate(-566.286 -763.221)"/><path class="c" d="M744.13,1018.146l23.215-16.376V987.45l-23.215,16.375Z" transform="translate(-453.858 -627.657)"/><path class="c" d="M929.66,1018.146l23.215-16.376V987.45l-23.215,16.375Z" transform="translate(-558.448 -855.802)"/><path class="c" d="M620.11,1018.146l23.215-16.376V987.45l-23.215,16.375Z" transform="translate(-155.714 -714.727)"/><path class="c" d="M558.1,1018.146l23.215-16.376V987.45L558.1,1003.825Z" transform="translate(-326.142 -666.232)"/><path class="c" d="M558.1,1018.146l23.215-16.376V987.45L558.1,1003.825Z" transform="translate(-407.142 -547.2)"/><path class="c" d="M581.315,998.216,558.1,981.849V967.52L581.315,983.9Z" transform="translate(-326.142 -662.752)"/><path class="c" d="M581.315,998.216,558.1,981.849V967.52L581.315,983.9Z" transform="translate(-407.142 -543.72)"/><path class="c" d="M496.07,961.466,519.285,945.1V930.77L496.07,947.146Z" transform="translate(-124.565 -704.829)"/><path class="c" d="M488.285,961.466,465.07,945.1V930.77l23.215,16.375Z" transform="translate(-336.781 -567.061)"/><path class="c" d="M488.285,961.466,465.07,945.1V930.77l23.215,16.375Z" transform="translate(-418.781 -536.2)"/><path class="c" d="M488.285,961.466,465.07,945.1V930.77l23.215,16.375Z" transform="translate(-197.781 -557.141)"/><path class="c" d="M488.285,961.466,465.07,945.1V930.77l23.215,16.375Z" transform="translate(408.219 -930.77)"/><path class="c" d="M309.8,978.346l23.215-16.376V947.65L309.8,964.025Z" transform="translate(-77.789 -707.777)"/><path class="c" d="M309.8,978.346l23.215-16.376V947.65L309.8,964.025Z" transform="translate(-193.789 -756.271)"/><path class="c" d="M93,998.436l23.215-16.367V967.74L93,984.116Z" transform="translate(-23.347 -711.285)"/><path class="c" d="M93,998.436l23.215-16.367V967.74L93,984.116Z" transform="translate(-23.347 -650.667)"/><path class="c" d="M271,998.436,247.78,982.068V967.74L271,984.116Z" transform="translate(-62.215 -711.285)"/><path class="c" d="M62,978.346,85.215,961.97V947.65L62,964.025Z" transform="translate(-15.562 -707.777)"/><path class="c" d="M62,978.346,85.215,961.97V947.65L62,964.025Z" transform="translate(-15.562 -647.159)"/><path class="c" d="M155.13,998.436l23.215-16.367V967.74L155.13,984.116Z" transform="translate(-38.949 -711.285)"/><path class="c" d="M155.13,998.436l23.215-16.367V967.74L155.13,984.116Z" transform="translate(-38.949 -650.667)"/><path class="c" d="M147.345,998.436,124.13,982.068V967.74l23.215,16.376Z" transform="translate(-31.164 -711.285)"/><path class="c" d="M147.345,998.436,124.13,982.068V967.74l23.215,16.376Z" transform="translate(-31.164 -650.667)"/><path class="c" d="M209.245,998.436,186.03,982.068V967.74l23.215,16.376Z" transform="translate(-46.708 -711.285)"/><path class="c" d="M209.245,998.436,186.03,982.068V967.74l23.215,16.376Z" transform="translate(418.292 -711.285)"/><path class="c" d="M332.885,998.436,309.67,982.068V967.74l23.215,16.376Z" transform="translate(-134.757 -634.135)"/><path class="c" d="M332.885,998.436,309.67,982.068V967.74l23.215,16.376Z" transform="translate(-193.757 -759.78)"/><path class="c" d="M519.285,998.436,496.07,982.068V967.74l23.215,16.376Z" transform="translate(-124.565 -711.285)"/><path class="c" d="M85.205,998.436,61.99,982.068V967.74l23.215,16.376Z" transform="translate(-15.559 -711.285)"/><path class="c" d="M85.205,998.436,61.99,982.068V967.74l23.215,16.376Z" transform="translate(-15.559 -650.667)"/><path class="c" d="M116.215,978.346,93,961.97V947.65l23.215,16.375Z" transform="translate(-23.347 -707.777)"/><path class="c" d="M116.215,978.346,93,961.97V947.65l23.215,16.375Z" transform="translate(-23.347 -647.159)"/><path class="c" d="M54.205,961.466,30.99,945.1V930.77l23.215,16.375Z" transform="translate(-7.775 -704.829)"/><path class="c" d="M54.205,961.466,30.99,945.1V930.77l23.215,16.375Z" transform="translate(-7.775 -644.211)"/><path class="c" d="M23.205,998.436-.01,982.068V967.74l23.215,16.376Z" transform="translate(0.01 -711.285)"/><path class="c" d="M54.205,1018.146,30.99,1001.77V987.45l23.215,16.375Z" transform="translate(-7.775 -714.727)"/><path class="c" d="M54.205,1018.146,30.99,1001.77V987.45l23.215,16.375Z" transform="translate(-7.775 -654.109)"/><path class="c" d="M116.215,1018.146,93,1001.77V987.45l23.215,16.375Z" transform="translate(-23.347 -714.727)"/><path class="c" d="M116.215,1018.146,93,1001.77V987.45l23.215,16.375Z" transform="translate(-23.347 -654.109)"/><path class="c" d="M457.285,998.216,434.07,981.849V967.52L457.285,983.9Z" transform="translate(-224.996 -578.989)"/><path class="c" d="M426.275,961.466,403.06,945.1V930.77l23.215,16.375Z" transform="translate(-101.209 -704.829)"/><path class="c" d="M364.275,922.786,341.06,906.41V892.09l23.215,16.367Z" transform="translate(-85.639 -698.075)"/><path class="c" d="M364.265,961.466,341.05,945.1V930.77l23.215,16.375Z" transform="translate(-85.637 -704.829)"/><path class="c" d="M364.265,961.466,341.05,945.1V930.77l23.215,16.375Z" transform="translate(-201.637 -753.324)"/><path class="c" d="M116.215,904.666,93,888.29V873.97l23.215,16.367Z" transform="translate(-23.347 -694.911)"/><path class="c" d="M395.275,998.216,372.06,981.849V967.52L395.275,983.9Z" transform="translate(-197.424 -681.489)"/><path class="c" d="M395.275,998.216,372.06,981.849V967.52L395.275,983.9Z" transform="translate(-81.424 -624.177)"/><path class="c" d="M364.265,1018.146,341.05,1001.77V987.45l23.215,16.375Z" transform="translate(-189.637 -654.109)"/><path class="c" d="M496.07,904.666l23.215-16.375V873.97L496.07,890.337Z" transform="translate(-124.565 -694.911)"/><path class="c" d="M620.11,904.666l23.215-16.375V873.97L620.11,890.337Z" transform="translate(-155.714 -470.072)"/><path class="c" d="M488.285,904.666,465.07,888.29V873.97l23.215,16.367Z" transform="translate(-116.781 -694.911)"/><path class="c" d="M496.33,1018.146l23.215-16.376V987.45l-23.215,16.375Z" transform="translate(-124.631 -714.727)"/><path class="c" d="M434.07,1018.146l23.215-16.376V987.45l-23.215,16.375Z" transform="translate(-224.996 -582.469)"/><path class="c" d="M558.1,961.216l23.215-16.376V930.52L558.1,946.9Z" transform="translate(-140.142 -704.786)"/><path class="c" d="M558.1,961.216l23.215-16.376V930.52L558.1,946.9Z" transform="translate(-47.142 -711.398)"/><path class="c" d="M558.1,961.216l23.215-16.376V930.52L558.1,946.9Z" transform="translate(-140.142 -557.098)"/><path class="c" d="M527.09,998.216l23.215-16.367V967.52L527.09,983.9Z" transform="translate(-132.355 -711.247)"/><path class="c" d="M527.09,998.216l23.215-16.367V967.52L527.09,983.9Z" transform="translate(-86.355 -664.956)"/></g></g></svg>