<svg xmlns="http://www.w3.org/2000/svg" width="200" height="54.112" viewBox="0 0 200 54.112"><defs><style>.a{fill:none;stroke:#6e6f70;stroke-width:2px;}.a,.b,.c{opacity:0.5;}.b,.d{fill:#6e6f70;}</style></defs><g transform="translate(1 1.036)"><g transform="translate(-1.1 -1.1)"><path class="a" d="M23.3,53.013,45.612,39.878V7.146L23.3,1.1,1.1,7.146V39.774Z"/><path class="b" d="M34.533,38.241,24.943,10.2H21.19L11.6,38.241h4.065l4.482-13.656,2.919-8.965,3.857,12.092.1.313H20.982l7.506,4.587,1.876,5.525,4.17.1Z" transform="translate(0.446 0.386)"/><g class="c" transform="translate(61.144 15.694)"><path class="d" d="M134.493,32.292H132.2V15.3h2.085c.208,0,.417.313.521.521,2.189,3.753,4.274,7.506,6.359,11.258.1.208.208.313.417.73V15.3h2.293V32.292h-1.981c-.208,0-.521-.313-.625-.521-2.189-3.753-4.378-7.61-6.463-11.362-.1-.1-.1-.313-.313-.417Z" transform="translate(-55.581 -15.092)"/><path class="d" d="M178.975,32.192c-.1,0-.208,0-.208.1-2.085.1-2.085.1-3.023-1.668-1.876-3.44-3.857-6.776-5.733-10.216-.1-.208-.208-.313-.417-.73V32.192H167.3V15.2h1.981c.208,0,.521.313.625.521,2.085,3.753,4.274,7.506,6.359,11.258a5.981,5.981,0,0,0,.417.73V15.2h2.293C178.975,20.933,178.975,26.563,178.975,32.192Z" transform="translate(-54.092 -15.096)"/><path class="d" d="M86.7,32.192h-.208c-2.4.1-2.4.1-3.44-1.981-.73-1.459-1.459-2.919-2.085-4.378-.1-.313-.313-.417-.73-.417H76.9V32.3H74.5V15.3a1.322,1.322,0,0,0,.625-.1h7.4a2.853,2.853,0,0,1,3.127,3.127v3.649c0,1.981-.313,2.606-2.189,3.44C84.507,27.709,85.55,29.9,86.7,32.192Zm-9.8-9.069h5.316c.625,0,.938-.521.938-1.147V18.64c0-.834-.417-1.147-1.251-1.251h-5Z" transform="translate(-58.03 -15.096)"/><path class="d" d="M163.858,23.852v5.421a2.794,2.794,0,0,1-3.023,3.023h-5.212a2.794,2.794,0,0,1-3.023-3.023V18.223a2.794,2.794,0,0,1,3.023-3.023h5.212a2.793,2.793,0,0,1,3.023,3.023Zm-2.4-.1V18.64a1.106,1.106,0,0,0-1.251-1.251h-3.961c-.938,0-1.251.417-1.251,1.355v9.9c0,.938.417,1.251,1.355,1.355h3.753c1.042,0,1.459-.313,1.459-1.355C161.461,27.084,161.461,25.416,161.461,23.748Z" transform="translate(-54.716 -15.096)"/><path class="d" d="M117.5,23.744V18.323a2.745,2.745,0,0,1,3.023-3.023h5.212a2.794,2.794,0,0,1,3.023,3.023V29.477a2.716,2.716,0,0,1-3.023,2.919h-5.316a2.736,2.736,0,0,1-2.919-2.919Zm8.861,0v-5c0-.938-.417-1.251-1.251-1.251h-3.961A1.106,1.106,0,0,0,119.9,18.74V28.852a1.106,1.106,0,0,0,1.251,1.251H124.9c1.042,0,1.355-.313,1.355-1.355C126.361,26.975,126.361,25.412,126.361,23.744Z" transform="translate(-56.205 -15.092)"/><path class="d" d="M112.148,25.733h-3.232V23.544h5.525c0,.1.1.313.1.417v5.212a2.794,2.794,0,0,1-3.023,3.023h-5a2.736,2.736,0,0,1-2.919-2.919V18.019a2.766,2.766,0,0,1,2.815-2.919h5.212a2.736,2.736,0,0,1,2.919,2.919c0,1.772,0,1.772-1.668,1.981-.208,0-.417.1-.73.1V18.54a1.106,1.106,0,0,0-1.251-1.251h-3.649c-.938,0-1.251.417-1.251,1.251V28.652a1.106,1.106,0,0,0,1.251,1.251H111a1.043,1.043,0,0,0,1.147-1.147Z" transform="translate(-56.795 -15.1)"/><path class="d" d="M182.5,32.292V15.3h9.9v2.189H184.9v5h6.776v2.293H184.9V30.1H192.4v2.189Z" transform="translate(-53.447 -15.092)"/><path class="d" d="M102.164,32.292h-2.085c-.1,0-.313-.208-.417-.313s-.1-.313-.208-.417A4.777,4.777,0,0,0,96.327,27.7a18.671,18.671,0,0,1-2.293-1.355h3.649c-.834-2.606-1.564-5-2.4-7.714-.208.73-.417,1.355-.625,1.981-1.251,3.753-2.4,7.506-3.649,11.258a.61.61,0,0,1-.834.521H88.3c.521-1.668,1.147-3.232,1.668-4.9,1.251-3.857,2.606-7.61,3.857-11.467.208-.521.417-.73.938-.73,1.564,0,1.668,0,2.085,1.459l5,14.7C102.06,31.666,102.06,31.979,102.164,32.292Z" transform="translate(-57.444 -15.092)"/><path class="d" d="M64.642,26.146h3.336c-.834-2.5-1.564-5-2.4-7.61a5.081,5.081,0,0,1-.313.73c-1.355,4.17-2.71,8.235-3.961,12.4-.1.521-.313.625-.834.625H58.7c0-.208.1-.313.1-.521,1.772-5.316,3.544-10.633,5.421-15.949a.812.812,0,0,1,.938-.625c1.564,0,1.564,0,2.085,1.564,1.668,5,3.336,9.9,5,14.907a4.346,4.346,0,0,1,.208.625H70.375a.448.448,0,0,1-.417-.417c-.313-.73-.521-1.564-.834-2.4a2.509,2.509,0,0,0-.625-.834c-1.251-.834-2.5-1.564-3.753-2.4A.1.1,0,0,1,64.642,26.146Z" transform="translate(-58.7 -15.096)"/></g></g></g></svg>