<svg xmlns="http://www.w3.org/2000/svg" width="165.539" height="35.212" viewBox="0 0 165.539 35.212"><defs><style>.a{opacity:0.5;}.b{fill:#6e6f70;}</style></defs><g class="a" transform="translate(-25.45 -261.65)"><path class="b" d="M47.247,278.567h-.3a4.669,4.669,0,0,0-3.364,1.406,6.8,6.8,0,0,1-9.623-.276l-.165-.165a7.094,7.094,0,0,1-.221-9.485,6.984,6.984,0,0,1,9.9-.276l.083.083a4.692,4.692,0,0,0,3.254,1.406h.386a1.294,1.294,0,0,0,1.3-1.3,1.281,1.281,0,0,0-.165-.634,1,1,0,0,1,.3-1.3l2.757-2.757a2.106,2.106,0,1,0-2.978-2.978l-2.371,2.316A2.088,2.088,0,0,1,43.58,265a11.1,11.1,0,0,0-9.789,0,2.138,2.138,0,0,1-2.454-.386l-2.289-2.344a2.106,2.106,0,0,0-2.978,2.978l2.344,2.344a2.088,2.088,0,0,1,.386,2.454,11.1,11.1,0,0,0,0,9.789,2.138,2.138,0,0,1-.386,2.454l-2.344,2.289a2.106,2.106,0,0,0,2.978,2.978l2.344-2.344a2.088,2.088,0,0,1,2.454-.386,11.1,11.1,0,0,0,9.789,0,2.138,2.138,0,0,1,2.454.386l2.344,2.344a2.106,2.106,0,0,0,2.978-2.978l-2.757-2.757a.941.941,0,0,1-.3-1.3V280.5a1.314,1.314,0,0,0-.524-1.765A1.019,1.019,0,0,0,47.247,278.567Z" transform="translate(0 0)"/><path class="b" d="M61.934,302.615h.3a4.669,4.669,0,0,0,3.364-1.406,6.8,6.8,0,0,1,9.623.276l.165.165a7.094,7.094,0,0,1,.221,9.485,6.984,6.984,0,0,1-9.9.276l-.083-.083a4.692,4.692,0,0,0-3.254-1.406h-.386a1.294,1.294,0,0,0-1.3,1.3,1.281,1.281,0,0,0,.165.634,1,1,0,0,1-.276,1.324l-2.757,2.757a2.106,2.106,0,1,0,2.978,2.978l2.344-2.344a2.088,2.088,0,0,1,2.454-.386,11.1,11.1,0,0,0,9.789,0,2.138,2.138,0,0,1,2.454.386l2.344,2.316a2.106,2.106,0,1,0,2.978-2.978l-2.344-2.344a2.088,2.088,0,0,1-.386-2.454,11.1,11.1,0,0,0,0-9.789,2.138,2.138,0,0,1,.386-2.454l2.289-2.316a2.106,2.106,0,1,0-2.978-2.978l-2.344,2.344a2.088,2.088,0,0,1-2.454.386,11.1,11.1,0,0,0-9.789,0,2.138,2.138,0,0,1-2.454-.386l-2.344-2.344a2.106,2.106,0,0,0-2.978,2.978l2.785,2.757a.913.913,0,0,1,.248,1.3,1.314,1.314,0,0,0,.524,1.765A.83.83,0,0,0,61.934,302.615Z" transform="translate(-22.959 -22.669)"/><path class="b" d="M228.511,296.317a8.107,8.107,0,1,0,8.107,8.107,8.12,8.12,0,0,0-8.107-8.107Zm0,13.87a5.735,5.735,0,1,1,5.735-5.735,5.731,5.731,0,0,1-5.735,5.735Zm19.3-13.87a8.188,8.188,0,0,0-5.79,2.206v-1.048a1.21,1.21,0,0,0-1.1-1.241,1.192,1.192,0,0,0-1.241,1.1v13.9a1.21,1.21,0,0,0,1.1,1.241,1.192,1.192,0,0,0,1.241-1.1v-7.059a5.484,5.484,0,0,1,4.881-5.625,5.76,5.76,0,0,1,6.37,5.074,4.884,4.884,0,0,1,.028.634v6.866a1.231,1.231,0,0,0,1.1,1.241,1.192,1.192,0,0,0,1.241-1.1v-6.783A8.179,8.179,0,0,0,247.813,296.317Zm19.053,0a8.188,8.188,0,0,0-5.79,2.206v-1.048a1.21,1.21,0,0,0-1.1-1.241,1.192,1.192,0,0,0-1.241,1.1v13.9a1.255,1.255,0,0,0,1.1,1.268,1.192,1.192,0,0,0,1.241-1.1v-7.059a5.484,5.484,0,0,1,4.881-5.625,5.76,5.76,0,0,1,6.37,5.074,4.879,4.879,0,0,1,.028.634v6.866a1.231,1.231,0,0,0,1.1,1.241,1.192,1.192,0,0,0,1.241-1.1v-6.811a8.2,8.2,0,0,0-7.831-8.3Zm52.225,13.87h-1.075A2.024,2.024,0,0,1,316,308.174v-9.21h2.757a1.186,1.186,0,0,0,0-2.371H316V291.63a1.21,1.21,0,0,0-1.1-1.241,1.193,1.193,0,0,0-1.268,1.075v5.156H311.7a1.186,1.186,0,0,0,0,2.371h1.93v9.265a4.307,4.307,0,0,0,4.3,4.3h1.213a1.171,1.171,0,0,0,1.186-1.158v-.055A1.234,1.234,0,0,0,319.091,310.187Zm-15.965-5.653,4.881-6.066a1.176,1.176,0,0,0-1.82-1.489l-4.6,5.708-4.6-5.708a1.18,1.18,0,0,0-1.654-.165,1.147,1.147,0,0,0-.165,1.627l4.881,6.066-4.881,6.066a1.176,1.176,0,0,0,1.82,1.489l4.6-5.708,4.6,5.708a1.18,1.18,0,0,0,1.654.165,1.147,1.147,0,0,0,.165-1.627Zm-87.078,4.081a5.736,5.736,0,1,1-1.847-9.541,5.847,5.847,0,0,1,1.682,1.02,1.229,1.229,0,0,0,1.572.276,1.206,1.206,0,0,0,.5-1.324c-.165-.579-.827-.965-1.268-1.3a8.1,8.1,0,1,0-.11,13.484,3.586,3.586,0,0,0,1.379-1.268,1.234,1.234,0,0,0-.358-1.406A1.143,1.143,0,0,0,216.048,308.615Zm77.51-4.66a7.419,7.419,0,0,0-.386-2.068,8.1,8.1,0,1,0-5.156,10.23,7.336,7.336,0,0,0,2.123-1.075c.634-.441,1.434-1.048,1.186-1.93a1.139,1.139,0,0,0-1.434-.772,1.081,1.081,0,0,0-.386.221,7.212,7.212,0,0,1-2.564,1.461,5.748,5.748,0,0,1-6.976-4h10.643c.827,0,1.82.165,2.454-.414A1.913,1.913,0,0,0,293.558,303.955Zm-12.381-.3h-1.406a1.961,1.961,0,0,1,.11-.552,5.735,5.735,0,0,1,6.7-4.522,5.651,5.651,0,0,1,4.577,5.046h-9.982Z" transform="translate(-129.343 -20.812)"/></g></svg>