<svg xmlns="http://www.w3.org/2000/svg" width="219.371" height="36.794" viewBox="0 0 219.371 36.794"><defs><style>.a{opacity:0.5;}.b{fill:#6e6f70;}</style></defs><g class="a" transform="translate(0)"><g transform="translate(0)"><g transform="translate(0)"><path class="b" d="M13.034,10.928,1.251,25.066A18.4,18.4,0,1,1,36.794,18.4,18.357,18.357,0,0,1,30.3,32.424H6.494a19.252,19.252,0,0,1-2.815-2.989H24.688V21.469l6.632,7.966h1.794L24.679,19.317l-2.327,2.8ZM24.679,7.359a4.6,4.6,0,1,0,4.6,4.6A4.6,4.6,0,0,0,24.679,7.359ZM13.034,4.029a2.3,2.3,0,1,0,2.3,2.3A2.3,2.3,0,0,0,13.034,4.029ZM8.343,33.8H28.451a18.4,18.4,0,0,1-20.108,0ZM21.46,23.189,17.4,28.055H2.741a18.49,18.49,0,0,1-1.49-2.989H13.034V13.08Z" transform="translate(0 0)"/><path class="b" d="M47.432,8.022h7.455c6.017,0,9.577,3.627,9.577,9.978s-3.546,10.076-9.577,10.076H47.432Zm3.6,3.03V25.046H54.51c4.049,0,6.282-2.46,6.282-7.032,0-4.489-2.262-6.963-6.282-6.963Zm22.519,4.322a3.645,3.645,0,0,0-3.672,3.641h7.232A3.472,3.472,0,0,0,73.553,15.373Zm3.574,8.186h3.267c-.447,2.807-3.155,4.739-6.715,4.739-4.509,0-7.3-2.974-7.3-7.755s2.806-7.866,7.176-7.866c4.272,0,6.98,2.9,6.98,7.5v1.14H69.853v.208a3.768,3.768,0,0,0,3.9,4.072A3.314,3.314,0,0,0,77.127,23.559Zm19.1-5.295H92.945A3.2,3.2,0,0,0,89.538,15.5c-2.29,0-3.783,1.918-3.783,4.975,0,3.155,1.508,5,3.8,5a3.15,3.15,0,0,0,3.406-2.682h3.281c-.293,3.321-2.9,5.5-6.715,5.5-4.426,0-7.3-2.974-7.3-7.824,0-4.753,2.862-7.8,7.274-7.8C93.489,12.677,95.988,15.137,96.225,18.264Zm8.7-2.891a3.645,3.645,0,0,0-3.672,3.641h7.232A3.472,3.472,0,0,0,104.923,15.373Zm3.574,8.186h3.267c-.447,2.807-3.155,4.739-6.715,4.739-4.509,0-7.3-2.974-7.3-7.755s2.806-7.866,7.176-7.866c4.272,0,6.98,2.9,6.98,7.5v1.14h-10.68v.208a3.768,3.768,0,0,0,3.9,4.072A3.314,3.314,0,0,0,108.5,23.559Zm5.738,4.517V12.886h3.337v2.641h.07A4.863,4.863,0,0,1,122.43,12.7c3.379,0,5.305,2.126,5.305,5.642v9.728h-3.476V19.028c0-2.168-1.033-3.391-3.127-3.391-2.136,0-3.42,1.5-3.42,3.724v8.714ZM131.6,9.495h3.476v3.391h2.89v2.682h-2.89v8a1.613,1.613,0,0,0,1.843,1.848,10.086,10.086,0,0,0,1.033-.069v2.654a9.941,9.941,0,0,1-1.829.139c-3.239,0-4.523-1.167-4.523-4.1V15.568h-2.08V12.886h2.08Zm8.823,18.581V12.886h3.337v2.641h.07a3.621,3.621,0,0,1,3.658-2.807,3.912,3.912,0,0,1,1.117.139V16a4.563,4.563,0,0,0-1.438-.195c-2.038,0-3.267,1.32-3.267,3.46v8.811Zm15.231-2.488c2.108,0,3.714-1.306,3.714-3.155V21.28l-3.49.222c-1.9.125-2.9.848-2.9,2.085S154.037,25.588,155.657,25.588Zm-1.019,2.654c-3,0-5.152-1.821-5.152-4.517s2.08-4.253,5.919-4.489L159.37,19V17.889c0-1.612-1.089-2.488-2.96-2.488a2.74,2.74,0,0,0-2.946,2.043h-3.211c.084-2.779,2.68-4.767,6.268-4.767,3.811,0,6.282,1.973,6.282,4.989V28.075h-3.337V25.629h-.084A5.27,5.27,0,0,1,154.638,28.242Zm11.2-.167V7.09h3.476V28.075Zm12.076-2.488c2.108,0,3.714-1.306,3.714-3.155V21.28l-3.49.222c-1.9.125-2.9.848-2.9,2.085S176.291,25.588,177.91,25.588Zm-1.019,2.654c-3,0-5.152-1.821-5.152-4.517s2.08-4.253,5.919-4.489L181.624,19V17.889c0-1.612-1.089-2.488-2.96-2.488a2.74,2.74,0,0,0-2.946,2.043h-3.211c.084-2.779,2.68-4.767,6.268-4.767,3.811,0,6.282,1.973,6.282,4.989V28.075h-3.337V25.629h-.084A5.27,5.27,0,0,1,176.891,28.242Zm11.085-.167V12.886h3.337v2.641h.07a4.863,4.863,0,0,1,4.789-2.821c3.379,0,5.305,2.126,5.305,5.642v9.728H198V19.028c0-2.168-1.033-3.391-3.127-3.391-2.136,0-3.42,1.5-3.42,3.724v8.714Zm22.1.167c-3.811,0-6.352-3.044-6.352-7.769s2.555-7.755,6.338-7.755a5.044,5.044,0,0,1,4.747,2.724h.084V7.09h3.476V28.075h-3.406V25.491h-.07A5.12,5.12,0,0,1,210.076,28.242ZM211.1,15.6c-2.3,0-3.811,1.918-3.811,4.892s1.508,4.878,3.811,4.878,3.811-1.932,3.811-4.878S213.385,15.6,211.1,15.6Z" transform="translate(1.002 0.319)"/></g></g></g></svg>