<svg xmlns="http://www.w3.org/2000/svg" width="112" height="59.115" viewBox="0 0 112 59.115"><defs><style>.a{opacity:0.5;}.b{fill:#6e6f70;}</style></defs><g class="a"><g transform="translate(49.504 14.183)"><path class="b" d="M11.483,14.2a2.1,2.1,0,0,1-1.037.239c-.135,0-.445-.013-.957-.066v1.449a5.119,5.119,0,0,0,1.347.159,2.8,2.8,0,0,0,1.751-.545,4.307,4.307,0,0,0,1.239-1.688L17.788,4.82l-1.873.027-2.4,5.848L11.187,4.847H9.314L12.561,12.5l-.337.758A2.086,2.086,0,0,1,11.483,14.2Z" transform="translate(-1.19 -0.634)"/><path class="b" d="M22.045,11.212a2.988,2.988,0,0,0,1.186.957,3.908,3.908,0,0,0,1.644.346,3.647,3.647,0,0,0,2.829-1.2,4.239,4.239,0,0,0,1.132-2.99,4.135,4.135,0,0,0-1.145-2.99,3.821,3.821,0,0,0-2.87-1.2l.067-.013a3.378,3.378,0,0,0-2.735,1.156V.075H20.414v12.24h1.617v-1.1ZM22.785,6.4a2.473,2.473,0,0,1,1.738-.691,2.4,2.4,0,0,1,1.792.731,2.548,2.548,0,0,1,.714,1.874,2.589,2.589,0,0,1-.714,1.9,2.34,2.34,0,0,1-1.751.758h-.027a2.375,2.375,0,0,1-2.465-2.6A2.545,2.545,0,0,1,22.785,6.4Z" transform="translate(-2.497 -0.075)"/><path class="b" d="M4.175,26.48H4.162a3.21,3.21,0,0,0-2.438.983v-.8H.107V34.72H1.845V29.909a1.77,1.77,0,0,1,.512-1.329A1.83,1.83,0,0,1,3.7,28.062,1.779,1.779,0,0,1,5,28.58a1.855,1.855,0,0,1,.5,1.356V34.72H7.234V29.7a3.278,3.278,0,0,0-.808-2.312A2.95,2.95,0,0,0,4.175,26.48Z" transform="translate(-0.107 -3.183)"/><path class="b" d="M14.174,26.465a4.18,4.18,0,0,0-4.2,4.213,4,4,0,0,0,1.239,2.99,4.329,4.329,0,0,0,3.125,1.209,4.607,4.607,0,0,0,3.247-1.289l-.822-1.17a3.52,3.52,0,0,1-2.371.944A2.847,2.847,0,0,1,12.6,32.8a2.38,2.38,0,0,1-.889-1.568h6.062a4.17,4.17,0,0,0,.162-1.076,3.561,3.561,0,0,0-1.078-2.645A3.629,3.629,0,0,0,14.174,26.465Zm-2.425,3.442a2.528,2.528,0,0,1,.849-1.435,2.319,2.319,0,0,1,1.5-.545,2.132,2.132,0,0,1,1.468.545,1.917,1.917,0,0,1,.606,1.435Z" transform="translate(-1.268 -3.181)"/><path class="b" d="M36.124,13.067a4.607,4.607,0,0,0,3.247-1.289l-.822-1.17a3.52,3.52,0,0,1-2.371.944,2.847,2.847,0,0,1-1.792-.558A2.38,2.38,0,0,1,33.5,9.426h6.062a3.723,3.723,0,0,0,.162-1.076A3.561,3.561,0,0,0,38.643,5.7a3.651,3.651,0,0,0-2.681-1.05,4.18,4.18,0,0,0-4.2,4.213A4,4,0,0,0,33,11.858,4.275,4.275,0,0,0,36.124,13.067ZM34.373,6.674a2.319,2.319,0,0,1,1.5-.545,2.132,2.132,0,0,1,1.468.545,1.917,1.917,0,0,1,.606,1.435H33.524A2.486,2.486,0,0,1,34.373,6.674Z" transform="translate(-3.832 -0.614)"/><path class="b" d="M24.955,33.056a1.852,1.852,0,0,1-1.186-.306,1.289,1.289,0,0,1-.391-1.076V27.9h2.411V26.411H23.379v-2.1H21.628v2.1h-1.32V27.9h1.32V31.82a2.62,2.62,0,0,0,.795,2.087,3.258,3.258,0,0,0,2.2.691,6.923,6.923,0,0,0,1.441-.186V32.963c-.485.053-.822.093-1.078.093Z" transform="translate(-2.484 -2.928)"/><path class="b" d="M37.6,31.836,35.095,26.48H34.5L32.036,31.9l-2.142-5.236H28.049l3.61,8.187h.593L34.8,29.524l2.546,5.329h.606l3.6-8.187H39.7Z" transform="translate(-3.395 -3.183)"/><path class="b" d="M48.2,26.48a4.206,4.206,0,0,0-3.045,1.209,4.195,4.195,0,0,0,0,5.954,4.4,4.4,0,0,0,6.089,0,4.148,4.148,0,0,0-.027-5.967A4.231,4.231,0,0,0,48.2,26.48Zm1.765,6.034a2.578,2.578,0,0,1-3.6,0,2.612,2.612,0,0,1,1.805-4.465h.013a2.494,2.494,0,0,1,2.506,2.6A2.6,2.6,0,0,1,49.962,32.514Z" transform="translate(-5.262 -3.183)"/><path class="b" d="M59.961,26.6h0Z" transform="translate(-7.151 -3.197)"/><path class="b" d="M57.073,27.717v-1.05H55.456v8.054h1.738V30.415a2.07,2.07,0,0,1,.674-1.635,2.491,2.491,0,0,1,1.684-.585h.525V26.681a2.39,2.39,0,0,0-.647-.08A2.84,2.84,0,0,0,57.073,27.717Z" transform="translate(-6.621 -3.197)"/><path class="b" d="M44.336,8.619a2.07,2.07,0,0,1,.674-1.635A2.491,2.491,0,0,1,46.694,6.4h.525V4.885a2.388,2.388,0,0,0-.647-.08A2.859,2.859,0,0,0,44.2,5.935V4.885H42.585v8.04h1.738V8.619Z" transform="translate(-5.106 -0.632)"/><path class="b" d="M47.1,4.79h0Z" transform="translate(-5.638 -0.63)"/><rect class="b" width="1.738" height="12.28" transform="translate(55.073 19.244)"/><path class="b" d="M66.6,30.213l3.274-3.522H67.736L64.557,30.2,68.1,34.732h2.088Z" transform="translate(-7.692 -3.208)"/><path class="b" d="M7.459,4.88H5.3L2.138,8.4l3.543,4.532H7.769L4.185,8.416Z" transform="translate(-0.346 -0.641)"/><rect class="b" width="1.738" height="12.28" transform="translate(0 0.013)"/></g><path class="b" d="M20,31.8,42.084,44.434a1.163,1.163,0,0,0,1.739-1V20.156a1.159,1.159,0,0,0-1.739-1Z" transform="translate(-2.354 -2.236)"/><path class="b" d="M41.475,11.325,26.391.237a1.2,1.2,0,0,0-1.882.675L19,25.587,41.338,13.23a1.124,1.124,0,0,0,.137-1.905" transform="translate(-2.236 0)"/><path class="b" d="M26.377,63.356l15.1-11.09a1.129,1.129,0,0,0-.124-1.906L19,38l5.509,24.681a1.191,1.191,0,0,0,1.868.675" transform="translate(-2.236 -4.472)"/><path class="b" d="M11.909,29.241,17.619,2.4a1.143,1.143,0,0,0-1.811-1.162L1.19,12.512A3.059,3.059,0,0,0,0,14.941V43.527a3.059,3.059,0,0,0,1.19,2.43L15.808,57.225a1.143,1.143,0,0,0,1.811-1.162Z" transform="translate(0 -0.118)"/></g></svg>