<svg xmlns="http://www.w3.org/2000/svg" width="137.094" height="16.528" viewBox="0 0 137.094 16.528"><defs><style>.a{opacity:0.503;}.b,.c{fill:#6e6f70;fill-rule:evenodd;}.c{opacity:0.5;isolation:isolate;}</style></defs><g class="a"><path class="b" d="M61.389.847l-5.441,9.5v6.5H53.932v-6.5l-5.44-9.5h2.239L55.007,8.5,59.262.847Zm14.266,16H73.214L66.855,3.983V16.842H64.907v-16h2.486l6.337,12.927V.847h1.926v16ZM92.763,2.72H87.389V16.842H85.352V2.72h-5.4V.847H92.763Zm15.354,14.123h-2.038V9.465h-6.74v7.377H97.324v-16h2.015V7.525h6.74V.847h2.038v16Zm15.714,0h-10.5v-16h10.5V2.7h-8.509V7.571h6.426v1.9h-6.426v5.527h8.509v1.85ZM140.548,2.72h-5.374V16.842h-2.038V2.72h-5.4V.847h12.808ZM153.5,16.842h-9.046V15.173h3.515V2.494h-3.515V.847H153.5V2.494h-3.515V15.173H153.5v1.67Zm16.835,0h-2.261l-3.986-6.5-3.941,6.5h-2.217l5.038-8.077L157.934.847h2.284L164.181,7.1,168.1.847h2.217L165.3,8.765Z" transform="translate(-33.244 -0.581)"/><path class="c" d="M2.431,16.8.8,15.614,11.036,1.072l1.627,1.187L2.432,16.8Z" transform="translate(-0.551 -0.735)"/><path class="b" d="M7.15,7.245H7.7a4.643,4.643,0,0,1,0,9.284H1a1.02,1.02,0,0,1,0-2.039H7.7a2.6,2.6,0,0,0,0-5.2H4.553A4.6,4.6,0,0,1,0,4.642,4.6,4.6,0,0,1,4.553,0h6.7a1.01,1.01,0,0,1,1,1.02,1.01,1.01,0,0,1-1,1.02h-6.7A2.578,2.578,0,0,0,2,4.642a2.578,2.578,0,0,0,2.553,2.6h2.6Z"/></g></svg>