<svg width="200" height="73" fill="none" xmlns="http://www.w3.org/2000/svg"><g clip-path="url(#a)"><path d="M20.133 50.824V.822L.033 37.406l20.1 13.418Z" fill="#FFE94D"/><path d="m20.133.822 20.1 36.584-20.1 13.418V.822Z" fill="#FF9C92"/><path d="M.033 41.739 20.166 55.19v17.33" fill="#53D3E0"/><path d="m40.233 41.739-20.1 13.452v17.33" fill="#5A9DED"/><path opacity=".75" d="M20.133 25.42 0 37.405l20.133 13.417V25.42Z" fill="#88D848"/><path opacity=".75" d="m20.133 25.42 20.1 11.985-20.1 13.417V25.42Z" fill="#CC71C3"/><path d="M53.267 24.198a3.93 3.93 0 0 0 .29 1.532c.197.483.489.918.856 1.277.367.359.802.633 1.276.805.474.172.978.238 1.478.194a3.15 3.15 0 0 0 1.825-.419A3.36 3.36 0 0 0 60.3 26.19h3.4a6.897 6.897 0 0 1-2.486 3.798A6.353 6.353 0 0 1 57 31.292c-3.633 0-7.267-2.586-7.267-8.211 0-5.451 3.433-8.247 7.3-8.247 3.667 0 6.8 2.55 6.8 7.792v1.572H53.267Zm.1-2.83h6.867a3.29 3.29 0 0 0-.212-1.314 3.168 3.168 0 0 0-.711-1.104 2.99 2.99 0 0 0-1.083-.699 2.88 2.88 0 0 0-1.261-.167 3.369 3.369 0 0 0-2.425.889 3.694 3.694 0 0 0-1.175 2.395Zm22 9.574h-2.4c-2.867 0-4.633-.944-4.633-5.171v-7.233H65.6v-3.425h2.767v-3.564L72 10.501v4.612h3v3.425h-3v7.128c0 1.083.3 1.887 1.8 1.887h1.533l.033 3.389h.001Zm16.8-10.203v10.203h-3.633v-9.889a2.768 2.768 0 0 0-.16-1.15 2.663 2.663 0 0 0-.617-.968 2.507 2.507 0 0 0-.952-.599 2.418 2.418 0 0 0-1.104-.113c-2.167 0-3.333 1.573-3.333 4.159v8.56h-3.633V9.07H82.4v8.386a4.84 4.84 0 0 1 1.921-2.041 4.535 4.535 0 0 1 2.679-.58c3.4-.034 5.167 2.131 5.167 5.905Zm7.033 3.46a3.93 3.93 0 0 0 .29 1.53c.197.484.489.92.856 1.278.367.359.802.633 1.276.805.474.172.978.238 1.478.194a3.148 3.148 0 0 0 1.824-.419 3.355 3.355 0 0 0 1.309-1.397h3.4a6.899 6.899 0 0 1-2.486 3.798 6.352 6.352 0 0 1-4.214 1.304c-3.633 0-7.267-2.586-7.267-8.211 0-5.451 3.433-8.247 7.3-8.247 3.667 0 6.8 2.55 6.8 7.792v1.572H99.2Zm.1-2.831h6.867a3.3 3.3 0 0 0-.212-1.314 3.182 3.182 0 0 0-.711-1.104 2.999 2.999 0 0 0-1.083-.699 2.88 2.88 0 0 0-1.261-.167 3.389 3.389 0 0 0-2.42.895 3.714 3.714 0 0 0-1.18 2.389Zm22.7-2.726h-.967c-2.533 0-3.933 1.468-3.933 4.578v7.723h-3.633V15.114h3.633v2.34a4.147 4.147 0 0 1 1.587-1.91 3.862 3.862 0 0 1 2.346-.605h1L122 18.642Zm5.267 5.556a3.927 3.927 0 0 0 .29 1.532c.197.483.489.918.856 1.277.367.359.802.633 1.276.805.474.172.978.238 1.478.194a3.148 3.148 0 0 0 1.824-.419 3.355 3.355 0 0 0 1.309-1.397h3.4a6.899 6.899 0 0 1-2.486 3.798A6.352 6.352 0 0 1 131 31.292c-3.633 0-7.267-2.586-7.267-8.211 0-5.451 3.433-8.247 7.3-8.247 3.667 0 6.8 2.55 6.8 7.792v1.572h-10.566Zm.1-2.83h6.867a3.3 3.3 0 0 0-.212-1.314 3.17 3.17 0 0 0-.712-1.105 2.98 2.98 0 0 0-1.083-.698 2.877 2.877 0 0 0-1.261-.167 3.37 3.37 0 0 0-2.425.889 3.691 3.691 0 0 0-1.175 2.395h.001Zm27.167 9.574h-3.567v-2.27a4.706 4.706 0 0 1-1.777 1.823 4.428 4.428 0 0 1-2.423.587c-3.167 0-5.433-2.131-5.433-6.185v-9.819h3.633v9.574c0 2.131 1.067 3.075 2.633 3.075 1.7 0 3.267-1.329 3.267-4.962v-7.687h3.633l.033 15.864h.001ZM180.8 20.285v10.692h-3.633V21.02c0-1.887-.833-2.76-2.4-2.76-1.733 0-2.9 1.083-2.9 3.808v8.91h-3.633V21.02c0-1.887-.933-2.76-2.433-2.76-1.7 0-2.9 1.118-2.9 3.773v8.945h-3.633V15.114h3.6v2.34a4.14 4.14 0 0 1 1.577-1.985 3.847 3.847 0 0 1 2.39-.635 4.219 4.219 0 0 1 2.501.629 4.52 4.52 0 0 1 1.732 1.992 4.745 4.745 0 0 1 1.855-2.019 4.443 4.443 0 0 1 2.612-.602 4.628 4.628 0 0 1 2.074.274 4.8 4.8 0 0 1 1.769 1.166c.502.52.889 1.148 1.135 1.84a5.31 5.31 0 0 1 .287 2.171ZM56.433 42.16c-1.3 0-1.533.699-1.533 1.607v1.048h2.767v3.425H54.9v12.404h-3.633V48.239H49v-3.425h2.267v-.839c0-4.263 1.8-5.17 4.6-5.17h2.2v3.388l-1.633-.034h-.001Zm18.3 10.587c0 5.171-3.1 8.247-7.533 8.247-4.4 0-7.5-3.075-7.5-8.247 0-5.136 3.1-8.21 7.5-8.21 4.433-.036 7.533 3.038 7.533 8.21Zm-11.3 0c0 3.18 1.633 4.717 3.833 4.717 2.367 0 3.733-1.747 3.733-4.717 0-3.145-1.633-4.682-3.833-4.682-2.366 0-3.733 1.711-3.733 4.682Zm28 7.896H87.9v-2.271a4.71 4.71 0 0 1-1.777 1.823 4.43 4.43 0 0 1-2.423.588c-3.167 0-5.433-2.131-5.433-6.185v-9.819H81.9v9.575c0 2.131 1.067 3.075 2.633 3.075 1.7 0 3.267-1.329 3.267-4.962V44.78h3.633v15.863Zm18.133-10.238v10.238h-3.633v-9.888a2.778 2.778 0 0 0-.161-1.15 2.66 2.66 0 0 0-.616-.968 2.509 2.509 0 0 0-.951-.599 2.419 2.419 0 0 0-1.105-.113c-2.167 0-3.333 1.572-3.333 4.159v8.56h-3.633V44.849h3.633v2.306a4.943 4.943 0 0 1 1.937-2.002 4.637 4.637 0 0 1 2.663-.584c3.433-.07 5.2 2.096 5.2 5.835h-.001Zm18.7 10.238h-3.6v-2.41a5.183 5.183 0 0 1-2.013 2.12 4.861 4.861 0 0 1-2.787.64c-3.7 0-6.8-2.726-6.8-8.282 0-5.485 3.1-8.176 6.8-8.176a5.26 5.26 0 0 1 2.657.555 5.544 5.544 0 0 1 2.077 1.822v-8.142h3.633l.033 21.873Zm-3.567-7.932c0-3.284-2-4.822-3.967-4.822-2.133 0-3.933 1.573-3.933 4.822 0 3.18 1.8 4.788 3.933 4.788 1.968 0 3.968-1.538 3.968-4.788h-.001Zm20.4-2.69v10.657h-3.567v-2.306a5.484 5.484 0 0 1-2.026 1.993 5.17 5.17 0 0 1-2.706.663c-2.4 0-4.867-1.363-4.867-4.717 0-3.949 3.433-4.647 4.833-4.856l3.133-.454c.454.018.896-.152 1.233-.471.336-.32.54-.766.567-1.241 0-1.258-1.067-1.747-2.467-1.747-2.033 0-3 .978-3.167 2.34h-3.5c.4-3.669 3.4-5.346 6.833-5.346 3.533-.034 5.7 1.748 5.7 5.486l.001-.001Zm-3.533 3.983v-.839a7.184 7.184 0 0 1-1.8.454l-1.8.244c-.933.105-2.433.56-2.433 2.132 0 1.223.9 1.816 2.2 1.816a3.52 3.52 0 0 0 1.446-.238c.461-.18.884-.457 1.241-.812.358-.355.644-.782.841-1.256.197-.473.3-.983.305-1.5v-.001Zm15.834 6.64H155c-2.867 0-4.633-.944-4.633-5.172V48.24H147.6v-3.425h2.767V41.25L154 40.202v4.612h3v3.425h-3v7.128c0 1.083.3 1.887 1.8 1.887h1.533l.067 3.389Zm3.167-22.294h3.867v4.333h-3.867v-4.333Zm.1 22.294h3.633V44.813h-3.633v15.828Zm22.233-7.897c0 5.171-3.1 8.247-7.533 8.247-4.4 0-7.5-3.075-7.5-8.247 0-5.136 3.1-8.21 7.5-8.21 4.467-.035 7.533 3.04 7.533 8.21Zm-11.267 0c0 3.18 1.633 4.717 3.833 4.717 2.367 0 3.733-1.747 3.733-4.717 0-3.145-1.633-4.682-3.833-4.682-2.366 0-3.733 1.711-3.733 4.682ZM200 50.406v10.236h-3.633v-9.888a2.778 2.778 0 0 0-.161-1.15 2.66 2.66 0 0 0-.616-.968 2.509 2.509 0 0 0-.951-.599 2.419 2.419 0 0 0-1.105-.113c-2.167 0-3.333 1.572-3.333 4.159v8.56h-3.633V44.849h3.632v2.306a4.943 4.943 0 0 1 1.937-2.002 4.637 4.637 0 0 1 2.663-.584c3.433-.07 5.233 2.096 5.2 5.835v.001Z" fill="#fff"/></g><defs><clipPath id="a"><path fill="#fff" transform="translate(0 .822)" d="M0 0h200v71.7H0z"/></clipPath></defs></svg>