<svg width="201" height="73" fill="none" xmlns="http://www.w3.org/2000/svg"><g clip-path="url(#a)"><path d="M20.633 50.71V.707L.533 37.292l20.1 13.417Z" fill="#FFE94D"/><path d="m20.633.708 20.1 36.584-20.1 13.417V.708Z" fill="#FF9C92"/><path d="m.533 41.624 20.133 13.452v17.331" fill="#53D3E0"/><path d="m40.733 41.624-20.1 13.452v17.331" fill="#5A9DED"/><path opacity=".75" d="M20.633 25.306.5 37.291l20.133 13.417V25.306Z" fill="#88D848"/><path opacity=".75" d="m20.633 25.306 20.1 11.985-20.1 13.417V25.306Z" fill="#CC71C3"/><path d="M53.767 24.084a3.93 3.93 0 0 0 .29 1.531c.197.484.489.92.856 1.278s.802.633 1.276.805c.474.172.978.238 1.478.194a3.15 3.15 0 0 0 1.825-.42 3.36 3.36 0 0 0 1.308-1.396h3.4a6.897 6.897 0 0 1-2.486 3.798 6.352 6.352 0 0 1-4.214 1.303c-3.633 0-7.267-2.586-7.267-8.21 0-5.451 3.433-8.247 7.3-8.247 3.667 0 6.8 2.55 6.8 7.792v1.572H53.767Zm.1-2.83h6.867a3.29 3.29 0 0 0-.212-1.314 3.167 3.167 0 0 0-.711-1.105 2.989 2.989 0 0 0-1.083-.698 2.88 2.88 0 0 0-1.261-.168 3.37 3.37 0 0 0-2.425.89 3.694 3.694 0 0 0-1.175 2.395Zm22 9.573h-2.4c-2.867 0-4.633-.943-4.633-5.17v-7.234H66.1V15h2.767v-3.564l3.633-1.049V15h3v3.424h-3v7.129c0 1.082.3 1.886 1.8 1.886h1.533l.033 3.39h.001Zm16.8-10.202v10.202h-3.633V20.94a2.768 2.768 0 0 0-.16-1.15 2.662 2.662 0 0 0-.617-.969 2.51 2.51 0 0 0-.952-.598 2.418 2.418 0 0 0-1.104-.113c-2.167 0-3.333 1.572-3.333 4.158v8.561h-3.633V8.955H82.9v8.386a4.84 4.84 0 0 1 1.921-2.041 4.535 4.535 0 0 1 2.679-.58c3.4-.035 5.167 2.131 5.167 5.905Zm7.033 3.459a3.93 3.93 0 0 0 .29 1.531c.197.484.489.92.856 1.278s.802.633 1.276.805c.474.172.978.238 1.478.194a3.148 3.148 0 0 0 1.824-.42 3.355 3.355 0 0 0 1.309-1.396h3.4a6.9 6.9 0 0 1-2.486 3.798 6.351 6.351 0 0 1-4.214 1.303c-3.633 0-7.267-2.586-7.267-8.21 0-5.451 3.433-8.247 7.3-8.247 3.667 0 6.8 2.55 6.8 7.792v1.572H99.7Zm.1-2.83h6.867a3.3 3.3 0 0 0-.212-1.314 3.181 3.181 0 0 0-.711-1.105 2.998 2.998 0 0 0-1.083-.698 2.88 2.88 0 0 0-1.261-.168 3.389 3.389 0 0 0-2.42.896 3.713 3.713 0 0 0-1.18 2.389Zm22.7-2.726h-.967c-2.533 0-3.933 1.468-3.933 4.578v7.722h-3.633V15h3.633v2.34a4.147 4.147 0 0 1 1.587-1.91 3.861 3.861 0 0 1 2.346-.605h1l-.033 3.703Zm5.267 5.556a3.927 3.927 0 0 0 .29 1.531c.197.484.489.92.856 1.278s.802.633 1.276.805c.474.172.978.238 1.478.194a3.148 3.148 0 0 0 1.824-.42 3.355 3.355 0 0 0 1.309-1.396h3.4a6.9 6.9 0 0 1-2.486 3.798 6.351 6.351 0 0 1-4.214 1.303c-3.633 0-7.267-2.586-7.267-8.21 0-5.451 3.433-8.247 7.3-8.247 3.667 0 6.8 2.55 6.8 7.792v1.572h-10.566Zm.1-2.83h6.867a3.3 3.3 0 0 0-.212-1.314 3.17 3.17 0 0 0-.712-1.105 2.98 2.98 0 0 0-1.083-.698 2.877 2.877 0 0 0-1.261-.168 3.37 3.37 0 0 0-2.425.89 3.691 3.691 0 0 0-1.175 2.395h.001Zm27.167 9.573h-3.567v-2.27a4.706 4.706 0 0 1-1.777 1.823 4.428 4.428 0 0 1-2.423.588c-3.167 0-5.433-2.131-5.433-6.185v-9.819h3.633v9.574c0 2.13 1.067 3.074 2.633 3.074 1.7 0 3.267-1.328 3.267-4.961v-7.687H155l.033 15.863h.001ZM181.3 20.171v10.692h-3.633v-9.958c0-1.887-.833-2.76-2.4-2.76-1.733 0-2.9 1.082-2.9 3.808v8.91h-3.633v-9.958c0-1.887-.933-2.76-2.433-2.76-1.7 0-2.9 1.118-2.9 3.773v8.945h-3.633V15h3.6v2.34a4.14 4.14 0 0 1 1.577-1.986 3.847 3.847 0 0 1 2.39-.634 4.22 4.22 0 0 1 2.501.628 4.52 4.52 0 0 1 1.732 1.993 4.745 4.745 0 0 1 1.855-2.02 4.444 4.444 0 0 1 2.612-.601 4.63 4.63 0 0 1 2.074.274 4.802 4.802 0 0 1 1.769 1.166c.502.52.889 1.148 1.135 1.84a5.31 5.31 0 0 1 .287 2.17ZM56.933 42.045c-1.3 0-1.533.699-1.533 1.606V44.7h2.767v3.424H55.4v12.404h-3.633V48.124H49.5V44.7h2.267v-.839c0-4.263 1.8-5.17 4.6-5.17h2.2v3.388l-1.633-.034h-.001Zm18.3 10.587c0 5.17-3.1 8.246-7.533 8.246-4.4 0-7.5-3.074-7.5-8.246 0-5.137 3.1-8.211 7.5-8.211 4.433-.036 7.533 3.039 7.533 8.21Zm-11.3 0c0 3.18 1.633 4.717 3.833 4.717 2.367 0 3.733-1.747 3.733-4.717 0-3.145-1.633-4.683-3.833-4.683-2.366 0-3.733 1.712-3.733 4.683Zm28 7.896H88.4v-2.271a4.71 4.71 0 0 1-1.777 1.823 4.43 4.43 0 0 1-2.423.588c-3.167 0-5.433-2.131-5.433-6.185v-9.819H82.4v9.575c0 2.13 1.067 3.074 2.633 3.074 1.7 0 3.267-1.328 3.267-4.961v-7.687h3.633v15.863Zm18.133-10.238v10.238h-3.633V50.64a2.778 2.778 0 0 0-.161-1.15 2.66 2.66 0 0 0-.616-.969 2.51 2.51 0 0 0-.951-.598 2.42 2.42 0 0 0-1.105-.113c-2.167 0-3.333 1.572-3.333 4.158v8.56h-3.633V44.734h3.633v2.306a4.943 4.943 0 0 1 1.937-2.002 4.637 4.637 0 0 1 2.663-.583c3.433-.07 5.2 2.096 5.2 5.835h-.001Zm18.7 10.238h-3.6v-2.41a5.183 5.183 0 0 1-2.013 2.12 4.861 4.861 0 0 1-2.787.64c-3.7 0-6.8-2.726-6.8-8.282 0-5.485 3.1-8.176 6.8-8.176a5.26 5.26 0 0 1 2.657.554 5.545 5.545 0 0 1 2.077 1.822v-8.142h3.633l.033 21.874Zm-3.567-7.932c0-3.284-2-4.822-3.967-4.822-2.133 0-3.933 1.573-3.933 4.822 0 3.18 1.8 4.788 3.933 4.788 1.968 0 3.968-1.538 3.968-4.788h-.001Zm20.4-2.69v10.657h-3.567v-2.306a5.483 5.483 0 0 1-2.026 1.992 5.17 5.17 0 0 1-2.706.664c-2.4 0-4.867-1.363-4.867-4.717 0-3.949 3.433-4.647 4.833-4.857l3.133-.453c.454.017.896-.152 1.233-.472.336-.32.54-.765.567-1.24 0-1.258-1.067-1.748-2.467-1.748-2.033 0-3 .978-3.167 2.341h-3.5c.4-3.669 3.4-5.346 6.833-5.346 3.533-.035 5.7 1.747 5.7 5.485h.001Zm-3.533 3.983v-.839a7.185 7.185 0 0 1-1.8.454l-1.8.244c-.933.105-2.433.559-2.433 2.131 0 1.224.9 1.817 2.2 1.817a3.52 3.52 0 0 0 1.446-.238c.461-.18.884-.457 1.241-.812.358-.355.644-.782.841-1.256.197-.474.3-.984.305-1.5v-.001Zm15.834 6.64h-2.4c-2.867 0-4.633-.944-4.633-5.172v-7.233H148.1V44.7h2.767v-3.564l3.633-1.049V44.7h3v3.424h-3v7.128c0 1.083.3 1.887 1.8 1.887h1.533l.067 3.39Zm3.167-22.294h3.867v4.333h-3.867v-4.333Zm.1 22.293h3.633V44.7h-3.633v15.828Zm22.233-7.896c0 5.17-3.1 8.246-7.533 8.246-4.4 0-7.5-3.074-7.5-8.246 0-5.137 3.1-8.211 7.5-8.211 4.467-.035 7.533 3.04 7.533 8.21Zm-11.267 0c0 3.18 1.633 4.717 3.833 4.717 2.367 0 3.733-1.747 3.733-4.717 0-3.145-1.633-4.683-3.833-4.683-2.366 0-3.733 1.712-3.733 4.683Zm28.367-2.34v10.236h-3.633V50.64a2.778 2.778 0 0 0-.161-1.15 2.66 2.66 0 0 0-.616-.969 2.51 2.51 0 0 0-.951-.598 2.42 2.42 0 0 0-1.105-.113c-2.167 0-3.333 1.572-3.333 4.158v8.56h-3.633V44.734h3.632v2.306a4.943 4.943 0 0 1 1.937-2.002 4.637 4.637 0 0 1 2.663-.583c3.433-.07 5.233 2.096 5.2 5.835v.001Z" fill="#181A1F"/></g><defs><clipPath id="a"><path fill="#fff" transform="translate(.5 .708)" d="M0 0h200v71.7H0z"/></clipPath></defs></svg>