<svg xmlns="http://www.w3.org/2000/svg" width="132" height="28" viewBox="0 0 132 28" fill="none">
  <path d="M60.1049 21.3943V15.1698H53.1118V21.3943H50.6606V7.26465H53.1118V13.2039H60.1049V7.26465H62.5788V21.3943H60.1049Z" fill="#0A0A0A"/>
  <path d="M74.7734 21.3962L74.283 19.6966C73.7472 20.5801 72.1652 21.5562 69.8039 21.5562C67.3519 21.5562 65.3911 20.4738 65.3911 18.0886C65.3911 16.0137 66.8841 15.0628 70.1372 14.755L73.7263 14.4014C73.6591 12.7588 73.057 11.8079 70.7594 11.8079C68.6416 11.8079 68.063 12.6473 68.063 14.0599L65.741 14.0833C65.741 11.7422 66.7218 9.93359 70.7332 9.93359C75.3903 9.93359 76.0614 11.922 76.0614 14.9668V21.3919L74.7734 21.3962ZM73.7263 16.1858L70.4976 16.5394C68.5151 16.7615 67.8458 17.18 67.8458 18.0635C67.8458 19.1009 68.7376 19.6974 70.4086 19.6974C72.5029 19.6974 73.7298 18.5053 73.7298 16.5402L73.7263 16.1858Z" fill="#0A0A0A"/>
  <path d="M83.9997 11.9888C81.6157 11.9888 81.1428 13.2977 81.1428 15.1235V21.3938H78.7632V10.0894H80.0337L80.5966 11.6568C80.9535 10.9073 82.0442 9.93555 84.2728 9.93555H84.6524V12.0337C84.422 12.0337 84.2004 11.9888 83.9997 11.9888Z" fill="#0A0A0A"/>
  <path d="M95.4549 21.3949L94.9192 19.7825C94.5178 20.5554 93.2481 21.5505 90.5474 21.5505C86.7812 21.5505 85.666 18.8342 85.666 15.7427C85.666 12.6511 86.7358 9.93656 90.5238 9.93656C92.7751 9.93656 93.9122 10.7311 94.4026 11.4823V5.78516H96.7429V21.3949H95.4549ZM91.242 11.9206C88.6355 11.9206 88.1006 13.4664 88.1006 15.7401C88.1006 18.0137 88.6364 19.6044 91.221 19.6044C93.8729 19.6044 94.4296 18.0587 94.4296 15.7401C94.4296 13.5572 93.9628 11.9232 91.2429 11.9232L91.242 11.9206Z" fill="#0A0A0A"/>
  <path d="M107.825 21.3949V15.058C107.825 12.9382 107.468 11.9232 105.038 11.9232C102.632 11.9232 102.118 12.9166 102.118 15.058L102.074 21.3949H99.7349V5.78516H102.075V11.4996C102.52 10.6878 103.523 9.93224 105.708 9.93224C109.43 9.93224 110.187 12.0304 110.187 15.2758V21.3905L107.825 21.3949Z" fill="#0A0A0A"/>
  <path d="M121.911 21.3962L121.42 19.6966C120.884 20.5801 119.302 21.5562 116.937 21.5562C114.485 21.5562 112.524 20.4738 112.524 18.0886C112.524 16.0137 114.017 15.0628 117.271 14.755L120.858 14.4014C120.795 12.7588 120.194 11.8079 117.891 11.8079C115.775 11.8079 115.195 12.6473 115.195 14.0599L112.873 14.0833C112.873 11.7422 113.854 9.93359 117.865 9.93359C122.522 9.93359 123.193 11.922 123.193 14.9668V21.3919L121.911 21.3962ZM120.863 16.1858L117.635 16.5394C115.652 16.7615 114.983 17.18 114.983 18.0635C114.983 19.1009 115.875 19.6974 117.546 19.6974C119.64 19.6974 120.867 18.5053 120.867 16.5402L120.863 16.1858Z" fill="#0A0A0A"/>
  <path d="M128.664 11.9892V18.1489C128.664 19.2088 129.109 19.6947 131.584 19.5849V21.4799C127.818 21.7003 126.236 20.8168 126.236 18.1446V11.9892H124.606V10.5766L126.234 10.0908V7.26465H128.596V10.0908H131.582V11.9858L128.664 11.9892Z" fill="#0A0A0A"/>
  <path d="M40.2957 24.8722V22.9357C40.2957 22.576 39.6901 22.2328 38.6029 21.9233L38.629 19.513C38.6291 15.8001 37.4771 12.1769 35.3292 9.13422C33.1813 6.09157 30.1413 3.77656 26.621 2.50281L26.5434 2.01954C26.5032 1.76121 26.3901 1.51943 26.2169 1.32221C26.0438 1.12498 25.8178 0.980391 25.5652 0.905183C22.1902 -0.0764671 18.6015 -0.0764671 15.2265 0.905183C14.9731 0.979633 14.7463 1.12379 14.5724 1.3209C14.3984 1.51801 14.2845 1.75998 14.2439 2.01868L14.1697 2.46909C10.628 3.73084 7.56574 6.04484 5.40098 9.09514C3.23622 12.1454 2.07451 15.7834 2.07448 19.5122V21.9328C1.00204 22.2414 0.405172 22.5812 0.405172 22.9382V24.8748C0.388083 24.9882 0.41287 25.1039 0.474981 25.2007C1.00848 24.8061 1.62113 24.5293 2.27169 24.3889C3.92955 23.9888 5.61467 23.7091 7.31363 23.5521C7.78997 23.4984 8.27238 23.546 8.72864 23.6918C9.1849 23.8377 9.60449 24.0782 9.95939 24.3976C11.272 25.5874 12.9866 26.2474 14.7657 26.2476H25.9352C27.7145 26.2477 29.4293 25.5873 30.7415 24.3967C31.0957 24.0758 31.5149 23.8336 31.9712 23.6861C32.4275 23.5387 32.9102 23.4894 33.3873 23.5417C35.0858 23.6976 36.7707 23.9762 38.4283 24.3751C39.0448 24.4919 39.627 24.7445 40.1317 25.1142C40.1605 25.1428 40.1945 25.167 40.2189 25.1938C40.2819 25.0988 40.3091 24.985 40.2957 24.8722Z" fill="#FFF100"/>
  <path d="M9.98531 20.7969C9.97135 20.3526 9.96175 19.9074 9.96175 19.4587C9.96699 12.7267 11.5543 6.6889 14.1704 2.47266C10.6291 3.73406 7.56696 6.04747 5.40208 9.0971C3.2372 12.1467 2.07503 15.784 2.07422 19.5123V21.9329C4.67134 21.319 7.31913 20.9388 9.98531 20.7969Z" fill="url(#paint0_linear_2691_212173)"/>
  <path d="M38.6276 19.5124C38.6336 15.3098 37.1583 11.237 34.4565 7.99707C35.6278 11.7049 36.2112 15.5703 36.1861 19.4554C36.1861 20.1115 36.1686 20.7599 36.1381 21.4031C36.9668 21.5307 37.7878 21.7039 38.5971 21.9218L38.6276 19.5124Z" fill="url(#paint1_linear_2691_212173)"/>
  <path d="M38.4286 24.3826C36.7707 23.9825 35.0856 23.7028 33.3866 23.5457C32.91 23.4928 32.4274 23.5412 31.9712 23.6878C31.5149 23.8343 31.0955 24.0756 30.7409 24.3956C29.4286 25.5858 27.7138 26.2459 25.9345 26.2456H14.7695C12.9911 26.2453 11.2771 25.5856 9.96488 24.3964C9.61094 24.0751 9.19178 23.8325 8.73548 23.6847C8.27918 23.537 7.79628 23.4875 7.31912 23.5397C5.62018 23.6964 3.93506 23.9759 2.27718 24.3757C1.62722 24.5178 1.01492 24.7944 0.480469 25.1875C1.32777 26.473 9.90467 27.8225 20.3551 27.8225C30.8055 27.8225 39.378 26.4687 40.2279 25.1883C40.1982 25.1624 40.1651 25.1373 40.1407 25.1097C39.6297 24.7476 39.0456 24.4996 38.4286 24.3826Z" fill="url(#paint2_radial_2691_212173)"/>
  <path d="M20.3485 5.85449L16.0728 13.0715L20.3485 15.7022V5.85709V5.85449Z" fill="black"/>
  <path d="M20.3506 5.85742V15.7008L24.6264 13.0735L20.3506 5.85742Z" fill="#6C6F74"/>
  <path d="M20.3506 17.1303V20.5624C20.4309 20.4483 24.6264 14.4987 24.6264 14.4961L20.3506 17.1303Z" fill="#6C6F74"/>
  <path d="M20.3505 17.1318L16.0747 14.502L20.3505 20.5657V17.1301V17.1318Z" fill="black"/>
  <defs>
    <linearGradient id="paint0_linear_2691_212173" x1="8.12229" y1="21.9329" x2="8.12229" y2="2.47266" gradientUnits="userSpaceOnUse">
      <stop stop-color="#EDCF00"/>
      <stop offset="0.33" stop-color="#F0D500"/>
      <stop offset="0.77" stop-color="#F9E500"/>
      <stop offset="1" stop-color="#FFF100"/>
    </linearGradient>
    <linearGradient id="paint1_linear_2691_212173" x1="36.5421" y1="22.075" x2="36.5421" y2="7.99707" gradientUnits="userSpaceOnUse">
      <stop stop-color="#EDCF00"/>
      <stop offset="0.59" stop-color="#F7E100"/>
      <stop offset="1" stop-color="#FFF100"/>
    </linearGradient>
    <radialGradient id="paint2_radial_2691_212173" cx="0" cy="0" r="1" gradientUnits="userSpaceOnUse" gradientTransform="translate(2.6355 35.2279) scale(14.8301 14.7291)">
      <stop stop-color="#FFF100"/>
      <stop offset="0.23" stop-color="#F9E500"/>
      <stop offset="0.67" stop-color="#F0D500"/>
      <stop offset="1" stop-color="#EDCF00"/>
    </radialGradient>
  </defs>
</svg>