<svg xmlns="http://www.w3.org/2000/svg" width="164" height="36" viewBox="0 0 164 36" fill="none">
  <path d="M74.6408 27.2426V19.461H65.8983V27.2426H62.834V9.57837H65.8983V17.0033H74.6408V9.57837H77.7335V27.2426H74.6408Z" fill="white"/>
  <path d="M92.9783 27.2458L92.3653 25.121C91.6955 26.2255 89.7176 27.4457 86.7657 27.4457C83.7002 27.4457 81.249 26.0926 81.249 23.1107C81.249 20.5169 83.1155 19.328 87.1824 18.9433L91.6693 18.5012C91.5853 16.4478 90.8325 15.2589 87.9602 15.2589C85.3126 15.2589 84.5893 16.3083 84.5893 18.0743L81.6865 18.1035C81.6865 15.1768 82.9126 12.9158 87.9275 12.9158C93.7496 12.9158 94.5885 15.4016 94.5885 19.2081V27.2404L92.9783 27.2458ZM91.6693 20.732L87.6329 21.174C85.1544 21.4517 84.3177 21.9748 84.3177 23.0794C84.3177 24.3763 85.4326 25.1221 87.5217 25.1221C90.1398 25.1221 91.6736 23.6317 91.6736 21.1751L91.6693 20.732Z" fill="white"/>
  <path d="M104.512 15.4848C101.532 15.4848 100.941 17.1211 100.941 19.4037V27.2426H97.9658V13.1103H99.5542L100.258 15.0698C100.704 14.1328 102.068 12.918 104.854 12.918H105.328V15.541C105.04 15.541 104.763 15.4848 104.512 15.4848Z" fill="white"/>
  <path d="M118.833 27.2438L118.164 25.2281C117.662 26.1943 116.074 27.4383 112.698 27.4383C107.99 27.4383 106.596 24.0425 106.596 20.1776C106.596 16.3128 107.933 12.9191 112.669 12.9191C115.483 12.9191 116.905 13.9124 117.518 14.8516V7.72925H120.444V27.2438H118.833ZM113.566 15.3995C110.308 15.3995 109.639 17.332 109.639 20.1744C109.639 23.0168 110.309 25.0055 113.54 25.0055C116.856 25.0055 117.552 23.073 117.552 20.1744C117.552 17.4454 116.968 15.4028 113.568 15.4028L113.566 15.3995Z" fill="white"/>
  <path d="M134.297 27.2438V19.3217C134.297 16.6716 133.851 15.4028 130.813 15.4028C127.805 15.4028 127.163 16.6446 127.163 19.3217L127.108 27.2438H124.184V7.72925H127.109V14.8732C127.666 13.8583 128.919 12.9137 131.651 12.9137C136.303 12.9137 137.25 15.5368 137.25 19.594V27.2384L134.297 27.2438Z" fill="white"/>
  <path d="M151.907 27.2458L151.294 25.121C150.624 26.2255 148.646 27.4457 145.689 27.4457C142.623 27.4457 140.172 26.0926 140.172 23.1107C140.172 20.5169 142.038 19.328 146.106 18.9433L150.591 18.5012C150.512 16.4478 149.761 15.2589 146.882 15.2589C144.237 15.2589 143.511 16.3083 143.511 18.0743L140.608 18.1035C140.608 15.1768 141.834 12.9158 146.849 12.9158C152.671 12.9158 153.51 15.4016 153.51 19.2081V27.2404L151.907 27.2458ZM150.598 20.732L146.561 21.174C144.083 21.4517 143.246 21.9748 143.246 23.0794C143.246 24.3763 144.361 25.1221 146.45 25.1221C149.068 25.1221 150.602 23.6317 150.602 21.1751L150.598 20.732Z" fill="white"/>
  <path d="M160.35 15.4848V23.1854C160.35 24.5104 160.906 25.1178 164 24.9805V27.3496C159.292 27.6252 157.314 26.5206 157.314 23.1799V15.4848H155.277V13.7188L157.312 13.1114V9.57837H160.265V13.1114H163.998V15.4805L160.35 15.4848Z" fill="white"/>
  <path d="M49.8758 31.5918V29.1708C49.8758 28.7212 49.1188 28.2922 47.7595 27.9052L47.7922 24.892C47.7923 20.2503 46.3521 15.7207 43.667 11.9169C40.9818 8.11317 37.1813 5.21905 32.7804 3.62667L32.6833 3.02251C32.6332 2.69956 32.4917 2.39729 32.2752 2.15073C32.0588 1.90418 31.7763 1.72341 31.4604 1.62939C27.2411 0.402181 22.7547 0.402181 18.5355 1.62939C18.2187 1.72247 17.9352 1.90269 17.7177 2.1491C17.5003 2.39552 17.3579 2.69802 17.3071 3.02143L17.2144 3.58452C12.7867 5.16189 8.95839 8.05475 6.25211 11.8681C3.54582 15.6814 2.09351 20.2294 2.09347 24.891V27.9171C0.752762 28.303 0.00658807 28.7277 0.00658807 29.1741V31.595C-0.0147762 31.7368 0.0162113 31.8815 0.0938598 32.0025C0.760816 31.5091 1.52672 31.1631 2.34002 30.9876C4.41259 30.4874 6.51926 30.1378 8.64322 29.9414C9.23871 29.8743 9.8418 29.9339 10.4122 30.1162C10.9826 30.2985 11.5071 30.5992 11.9508 30.9984C13.5918 32.4859 15.7353 33.311 17.9595 33.3113H31.923C34.1474 33.3113 36.2912 32.4858 37.9316 30.9974C38.3744 30.5962 38.8985 30.2934 39.4689 30.1091C40.0393 29.9247 40.6429 29.8632 41.2392 29.9285C43.3627 30.1234 45.469 30.4716 47.5413 30.9703C48.3121 31.1164 49.0398 31.4322 49.6708 31.8944C49.7068 31.9301 49.7493 31.9603 49.7798 31.9938C49.8585 31.8752 49.8925 31.7328 49.8758 31.5918Z" fill="#FFF100"/>
  <path d="M11.9838 26.497C11.9664 25.9415 11.9544 25.3849 11.9544 24.824C11.9609 16.408 13.9453 8.85982 17.2158 3.58887C12.7886 5.16581 8.96051 8.05793 6.25408 11.8704C3.54766 15.6829 2.09477 20.23 2.09375 24.891V27.9172C5.34055 27.1497 8.65069 26.6744 11.9838 26.497Z" fill="url(#paint0_linear_2691_141852)"/>
  <path d="M47.7897 24.8911C47.7971 19.6372 45.9529 14.5455 42.5752 10.4951C44.0394 15.1304 44.7688 19.9628 44.7373 24.8197C44.7373 25.6401 44.7155 26.4506 44.6774 27.2547C45.7134 27.4142 46.7397 27.6307 47.7515 27.9032L47.7897 24.8911Z" fill="url(#paint1_linear_2691_141852)"/>
  <path d="M47.5415 30.9791C45.4689 30.4789 43.3623 30.1292 41.2383 29.9329C40.6424 29.8667 40.0392 29.9273 39.4688 30.1105C38.8984 30.2937 38.374 30.5953 37.9307 30.9953C36.2901 32.4834 34.1464 33.3085 31.9221 33.3082H17.964C15.7407 33.3078 13.5981 32.4831 11.9575 30.9964C11.5151 30.5947 10.9911 30.2914 10.4206 30.1066C9.85017 29.9219 9.24646 29.8601 8.64995 29.9253C6.52601 30.1213 4.41935 30.4706 2.34674 30.9705C1.53419 31.1481 0.768736 31.494 0.100586 31.9853C1.15985 33.5924 11.8823 35.2795 24.9469 35.2795C38.0114 35.2795 48.7284 33.587 49.7909 31.9864C49.7539 31.954 49.7124 31.9226 49.6819 31.888C49.0431 31.4354 48.3129 31.1253 47.5415 30.9791Z" fill="url(#paint2_radial_2691_141852)"/>
  <path d="M24.9391 7.81689L19.5938 16.8392L24.9391 20.128V7.82014V7.81689Z" fill="black"/>
  <path d="M24.9414 7.82007V20.1258L30.2868 16.8413L24.9414 7.82007Z" fill="#6C6F74"/>
  <path d="M24.9414 21.9135V26.2042C25.0418 26.0615 30.2868 18.6236 30.2868 18.6204L24.9414 21.9135Z" fill="#6C6F74"/>
  <path d="M24.9411 21.9144L19.5957 18.6267L24.9411 26.2073V21.9123V21.9144Z" fill="black"/>
  <defs>
    <linearGradient id="paint0_linear_2691_141852" x1="9.65476" y1="27.9172" x2="9.65476" y2="3.58887" gradientUnits="userSpaceOnUse">
      <stop stop-color="#EDCF00"/>
      <stop offset="0.33" stop-color="#F0D500"/>
      <stop offset="0.77" stop-color="#F9E500"/>
      <stop offset="1" stop-color="#FFF100"/>
    </linearGradient>
    <linearGradient id="paint1_linear_2691_141852" x1="45.1824" y1="28.0947" x2="45.1824" y2="10.4951" gradientUnits="userSpaceOnUse">
      <stop stop-color="#EDCF00"/>
      <stop offset="0.59" stop-color="#F7E100"/>
      <stop offset="1" stop-color="#FFF100"/>
    </linearGradient>
    <radialGradient id="paint2_radial_2691_141852" cx="0" cy="0" r="1" gradientUnits="userSpaceOnUse" gradientTransform="translate(2.7947 44.5374) scale(18.5398 18.4136)">
      <stop stop-color="#FFF100"/>
      <stop offset="0.23" stop-color="#F9E500"/>
      <stop offset="0.67" stop-color="#F0D500"/>
      <stop offset="1" stop-color="#EDCF00"/>
    </radialGradient>
  </defs>
</svg>