<svg width="165" height="41" fill="none" xmlns="http://www.w3.org/2000/svg"><path d="M75.547 29.84v-7.782h-8.743v7.782H63.74V12.176h3.064V19.6h8.743v-7.425h3.093V29.84h-3.093ZM93.885 29.843l-.613-2.125c-.67 1.105-2.648 2.325-5.6 2.325-3.065 0-5.516-1.353-5.516-4.335 0-2.594 1.866-3.783 5.933-4.167l4.487-.442c-.084-2.054-.837-3.243-3.71-3.243-2.647 0-3.37 1.05-3.37 2.816l-2.903.029c0-2.927 1.226-5.188 6.241-5.188 5.822 0 6.661 2.486 6.661 6.292v8.033l-1.61.005Zm-1.31-6.514-4.036.442c-2.478.278-3.315.801-3.315 1.906 0 1.297 1.115 2.042 3.204 2.042 2.618 0 4.152-1.49 4.152-3.947l-.004-.443ZM105.419 18.082c-2.981 0-3.572 1.636-3.572 3.919v7.839h-2.975V15.708h1.589l.703 1.96c.446-.938 1.81-2.153 4.596-2.153h.475v2.623c-.288 0-.565-.056-.816-.056ZM119.74 29.841l-.67-2.016c-.501.967-2.089 2.21-5.465 2.21-4.708 0-6.103-3.395-6.103-7.26 0-3.865 1.338-7.259 6.073-7.259 2.815 0 4.236.994 4.849 1.933v-7.123h2.926v19.515h-1.61Zm-5.267-11.844c-3.258 0-3.927 1.932-3.927 4.775 0 2.842.67 4.83 3.901 4.83 3.315 0 4.011-1.932 4.011-4.83 0-2.73-.583-4.772-3.984-4.772l-.001-.003ZM135.204 29.841v-7.922c0-2.65-.447-3.919-3.485-3.919-3.007 0-3.65 1.242-3.65 3.919l-.054 7.922h-2.925V10.326h2.926v7.144c.556-1.014 1.809-1.959 4.541-1.959 4.653 0 5.6 2.623 5.6 6.68v7.645l-2.953.005ZM152.813 29.843l-.613-2.125c-.67 1.105-2.648 2.325-5.605 2.325-3.066 0-5.517-1.353-5.517-4.335 0-2.594 1.867-3.783 5.935-4.167l4.484-.442c-.078-2.054-.83-3.243-3.709-3.243-2.645 0-3.371 1.05-3.371 2.816l-2.903.029c0-2.927 1.227-5.188 6.241-5.188 5.823 0 6.662 2.486 6.662 6.292v8.033l-1.604.005Zm-1.309-6.514-4.037.442c-2.478.278-3.315.801-3.315 1.906 0 1.297 1.115 2.042 3.204 2.042 2.618 0 4.152-1.49 4.152-3.947l-.004-.443ZM161.256 18.082v7.7c0 1.326.557 1.933 3.65 1.796v2.369c-4.708.276-6.686-.829-6.686-4.17v-7.695h-2.036v-1.766l2.034-.607v-3.533h2.953v3.533h3.733v2.369l-3.648.004Z" fill="#fff"/><path d="M50.782 34.189v-2.421c0-.45-.757-.879-2.116-1.266l.033-3.013c0-4.642-1.44-9.171-4.126-12.975a22.825 22.825 0 0 0-10.886-8.29l-.097-.604a1.722 1.722 0 0 0-.408-.872 1.747 1.747 0 0 0-.815-.521 23.148 23.148 0 0 0-12.925 0c-.317.093-.6.273-.818.52-.217.246-.36.548-.41.872l-.093.563a22.831 22.831 0 0 0-10.962 8.283A22.498 22.498 0 0 0 3 27.488v3.026c-1.34.386-2.087.81-2.087 1.257v2.421A.59.59 0 0 0 1 34.6a5.852 5.852 0 0 1 2.247-1.015c2.072-.5 4.179-.85 6.303-1.046a4.25 4.25 0 0 1 3.307 1.057 8.95 8.95 0 0 0 6.009 2.312H32.83a8.943 8.943 0 0 0 6.008-2.314 4.253 4.253 0 0 1 3.308-1.069c2.123.196 4.23.544 6.302 1.042a5.26 5.26 0 0 1 2.13.925c.035.035.078.066.108.099a.6.6 0 0 0 .096-.402Z" fill="#FFF100"/><path d="M12.89 29.094a53.064 53.064 0 0 1-.03-1.673c.007-8.416 1.992-15.964 5.262-21.235A22.831 22.831 0 0 0 7.16 14.468 22.498 22.498 0 0 0 3 27.488v3.026a55.9 55.9 0 0 1 9.89-1.42Z" fill="url(#a)"/><path d="M48.697 27.488a22.425 22.425 0 0 0-5.215-14.396 46.55 46.55 0 0 1 2.162 14.325c0 .82-.022 1.63-.06 2.435a28.49 28.49 0 0 1 3.074.648l.038-3.012Z" fill="url(#b)"/><path d="M48.448 33.576c-2.073-.5-4.18-.85-6.303-1.046a4.252 4.252 0 0 0-3.308 1.062 8.943 8.943 0 0 1-6.009 2.313H18.87a8.948 8.948 0 0 1-6.006-2.312 4.249 4.249 0 0 0-3.308-1.071c-2.124.196-4.23.546-6.303 1.045a5.929 5.929 0 0 0-2.246 1.015c1.06 1.608 11.782 3.295 24.846 3.295 13.065 0 23.782-1.693 24.844-3.294-.037-.032-.078-.063-.109-.098a5.463 5.463 0 0 0-2.14-.909Z" fill="url(#c)"/><path d="M25.846 10.414 20.5 19.436l5.346 3.29V10.413Z" fill="#0A0A0A"/><path d="M25.848 10.417v12.306l5.345-3.284-5.345-9.022ZM25.848 24.51v4.291c.1-.142 5.345-7.58 5.345-7.583l-5.345 3.293Z" fill="#4B4D4D"/><path d="m25.848 24.512-5.346-3.288 5.346 7.58V24.51v.002Z" fill="#0A0A0A"/><defs><linearGradient id="a" x1="10.561" y1="30.514" x2="10.561" y2="6.186" gradientUnits="userSpaceOnUse"><stop stop-color="#EDCF00"/><stop offset=".33" stop-color="#F0D500"/><stop offset=".77" stop-color="#F9E500"/><stop offset="1" stop-color="#FFF100"/></linearGradient><linearGradient id="b" x1="46.089" y1="30.692" x2="46.089" y2="13.092" gradientUnits="userSpaceOnUse"><stop stop-color="#EDCF00"/><stop offset=".59" stop-color="#F7E100"/><stop offset="1" stop-color="#FFF100"/></linearGradient><radialGradient id="c" cx="0" cy="0" r="1" gradientUnits="userSpaceOnUse" gradientTransform="matrix(18.5398 0 0 18.4136 3.701 47.135)"><stop stop-color="#FFF100"/><stop offset=".23" stop-color="#F9E500"/><stop offset=".67" stop-color="#F0D500"/><stop offset="1" stop-color="#EDCF00"/></radialGradient></defs></svg>