<svg xmlns="http://www.w3.org/2000/svg" width="164" height="36" viewBox="0 0 164 36" fill="none">
  <path d="M74.6408 27.2423V19.4608H65.8983V27.2423H62.834V9.57812H65.8983V17.0031H74.6408V9.57812H77.7335V27.2423H74.6408Z" fill="#0A0A0A"/>
  <path d="M92.9783 27.2451L92.3653 25.1203C91.6955 26.2248 89.7176 27.445 86.7657 27.445C83.7002 27.445 81.249 26.0919 81.249 23.11C81.249 20.5161 83.1155 19.3273 87.1824 18.9425L91.6693 18.5005C91.5853 16.447 90.8325 15.2582 87.9602 15.2582C85.3126 15.2582 84.5893 16.3076 84.5893 18.0736L81.6865 18.1028C81.6865 15.176 82.9126 12.915 87.9275 12.915C93.7496 12.915 94.5885 15.4008 94.5885 19.2073V27.2397L92.9783 27.2451ZM91.6693 20.7312L87.6329 21.1733C85.1544 21.451 84.3177 21.9741 84.3177 23.0787C84.3177 24.3756 85.4326 25.1213 87.5217 25.1213C90.1398 25.1213 91.6736 23.6309 91.6736 21.1743L91.6693 20.7312Z" fill="#0A0A0A"/>
  <path d="M104.512 15.4848C101.532 15.4848 100.941 17.1211 100.941 19.4037V27.2426H97.9658V13.1103H99.5542L100.258 15.0698C100.704 14.1328 102.068 12.918 104.854 12.918H105.328V15.541C105.04 15.541 104.763 15.4848 104.512 15.4848Z" fill="#0A0A0A"/>
  <path d="M118.833 27.243L118.164 25.2274C117.662 26.1936 116.074 27.4376 112.698 27.4376C107.99 27.4376 106.596 24.0418 106.596 20.1769C106.596 16.312 107.933 12.9184 112.669 12.9184C115.483 12.9184 116.905 13.9116 117.518 14.8508V7.72852H120.444V27.243H118.833ZM113.566 15.3988C110.308 15.3988 109.639 17.3312 109.639 20.1737C109.639 23.0161 110.309 25.0047 113.54 25.0047C116.856 25.0047 117.552 23.0723 117.552 20.1737C117.552 17.4447 116.968 15.402 113.568 15.402L113.566 15.3988Z" fill="#0A0A0A"/>
  <path d="M134.297 27.243V19.3209C134.297 16.6709 133.851 15.402 130.813 15.402C127.805 15.402 127.163 16.6438 127.163 19.3209L127.108 27.243H124.184V7.72852H127.109V14.8724C127.666 13.8576 128.919 12.913 131.651 12.913C136.303 12.913 137.25 15.536 137.25 19.5933V27.2376L134.297 27.243Z" fill="#0A0A0A"/>
  <path d="M151.907 27.2451L151.294 25.1203C150.624 26.2248 148.646 27.445 145.689 27.445C142.623 27.445 140.172 26.0919 140.172 23.11C140.172 20.5161 142.038 19.3273 146.106 18.9425L150.591 18.5005C150.512 16.447 149.761 15.2582 146.882 15.2582C144.237 15.2582 143.511 16.3076 143.511 18.0736L140.608 18.1028C140.608 15.176 141.834 12.915 146.849 12.915C152.671 12.915 153.51 15.4008 153.51 19.2073V27.2397L151.907 27.2451ZM150.598 20.7312L146.561 21.1733C144.083 21.451 143.246 21.9741 143.246 23.0787C143.246 24.3756 144.361 25.1213 146.45 25.1213C149.068 25.1213 150.602 23.6309 150.602 21.1743L150.598 20.7312Z" fill="#0A0A0A"/>
  <path d="M160.35 15.4846V23.1851C160.35 24.5101 160.906 25.1175 164 24.9803V27.3493C159.292 27.6249 157.314 26.5204 157.314 23.1797V15.4846H155.277V13.7186L157.312 13.1112V9.57812H160.265V13.1112H163.998V15.4803L160.35 15.4846Z" fill="#0A0A0A"/>
  <path d="M49.8758 31.5908V29.1699C49.8758 28.7203 49.1188 28.2912 47.7595 27.9043L47.7922 24.8911C47.7923 20.2493 46.3521 15.7197 43.667 11.916C40.9818 8.11219 37.1813 5.21807 32.7804 3.62569L32.6833 3.02154C32.6332 2.69858 32.4917 2.39632 32.2752 2.14976C32.0588 1.9032 31.7763 1.72244 31.4604 1.62842C27.2411 0.401205 22.7547 0.401205 18.5355 1.62842C18.2187 1.72149 17.9352 1.90171 17.7177 2.14813C17.5003 2.39455 17.3579 2.69704 17.3071 3.02046L17.2144 3.58354C12.7867 5.16091 8.95839 8.05377 6.25211 11.8671C3.54582 15.6805 2.09351 20.2284 2.09347 24.89V27.9162C0.752762 28.302 0.00658807 28.7267 0.00658807 29.1731V31.594C-0.0147762 31.7358 0.0162113 31.8805 0.0938598 32.0015C0.760816 31.5081 1.52672 31.1621 2.34002 30.9866C4.41259 30.4864 6.51926 30.1368 8.64322 29.9405C9.23871 29.8734 9.8418 29.9329 10.4122 30.1152C10.9826 30.2975 11.5071 30.5983 11.9508 30.9975C13.5918 32.4849 15.7353 33.31 17.9595 33.3103H31.923C34.1474 33.3104 36.2912 32.4848 37.9316 30.9964C38.3744 30.5953 38.8985 30.2924 39.4689 30.1081C40.0393 29.9237 40.6429 29.8622 41.2392 29.9275C43.3627 30.1224 45.469 30.4707 47.5413 30.9694C48.3121 31.1154 49.0398 31.4312 49.6708 31.8934C49.7068 31.9291 49.7493 31.9593 49.7798 31.9929C49.8585 31.8742 49.8925 31.7318 49.8758 31.5908Z" fill="#FFF100"/>
  <path d="M11.9838 26.496C11.9664 25.9405 11.9544 25.3839 11.9544 24.823C11.9609 16.407 13.9453 8.85884 17.2158 3.58789C12.7886 5.16483 8.96051 8.05695 6.25408 11.8695C3.54766 15.6819 2.09477 20.229 2.09375 24.89V27.9162C5.34055 27.1487 8.65069 26.6734 11.9838 26.496Z" fill="url(#paint0_linear_2943_273094)"/>
  <path d="M47.7897 24.8901C47.7971 19.6362 45.9529 14.5445 42.5752 10.4941C44.0394 15.1295 44.7688 19.9618 44.7373 24.8188C44.7373 25.6391 44.7155 26.4497 44.6774 27.2538C45.7134 27.4132 46.7397 27.6297 47.7515 27.9022L47.7897 24.8901Z" fill="url(#paint1_linear_2943_273094)"/>
  <path d="M47.5415 30.9784C45.4689 30.4782 43.3623 30.1285 41.2383 29.9322C40.6424 29.866 40.0392 29.9265 39.4688 30.1098C38.8984 30.293 38.374 30.5946 37.9307 30.9946C36.2901 32.4826 34.1464 33.3078 31.9221 33.3074H17.964C15.7407 33.307 13.5981 32.4824 11.9575 30.9957C11.5151 30.594 10.9911 30.2906 10.4206 30.1059C9.85017 29.9212 9.24646 29.8594 8.64995 29.9246C6.52601 30.1206 4.41935 30.4699 2.34674 30.9697C1.53419 31.1474 0.768736 31.4932 0.100586 31.9846C1.15985 33.5917 11.8823 35.2788 24.9469 35.2788C38.0114 35.2788 48.7284 33.5863 49.7909 31.9857C49.7539 31.9532 49.7124 31.9219 49.6819 31.8873C49.0431 31.4347 48.3129 31.1246 47.5415 30.9784Z" fill="url(#paint2_radial_2943_273094)"/>
  <path d="M24.9391 7.81543L19.5938 16.8378L24.9391 20.1266V7.81867V7.81543Z" fill="black"/>
  <path d="M24.9414 7.81934V20.1251L30.2868 16.8406L24.9414 7.81934Z" fill="#6C6F74"/>
  <path d="M24.9414 21.9123V26.203C25.0418 26.0603 30.2868 18.6224 30.2868 18.6191L24.9414 21.9123Z" fill="#6C6F74"/>
  <path d="M24.9411 21.9137L19.5957 18.626L24.9411 26.2065V21.9115V21.9137Z" fill="black"/>
  <defs>
    <linearGradient id="paint0_linear_2943_273094" x1="9.65476" y1="27.9162" x2="9.65476" y2="3.58789" gradientUnits="userSpaceOnUse">
      <stop stop-color="#EDCF00"/>
      <stop offset="0.33" stop-color="#F0D500"/>
      <stop offset="0.77" stop-color="#F9E500"/>
      <stop offset="1" stop-color="#FFF100"/>
    </linearGradient>
    <linearGradient id="paint1_linear_2943_273094" x1="45.1824" y1="28.0937" x2="45.1824" y2="10.4941" gradientUnits="userSpaceOnUse">
      <stop stop-color="#EDCF00"/>
      <stop offset="0.59" stop-color="#F7E100"/>
      <stop offset="1" stop-color="#FFF100"/>
    </linearGradient>
    <radialGradient id="paint2_radial_2943_273094" cx="0" cy="0" r="1" gradientUnits="userSpaceOnUse" gradientTransform="translate(2.7947 44.5367) scale(18.5398 18.4136)">
      <stop stop-color="#FFF100"/>
      <stop offset="0.23" stop-color="#F9E500"/>
      <stop offset="0.67" stop-color="#F0D500"/>
      <stop offset="1" stop-color="#EDCF00"/>
    </radialGradient>
  </defs>
</svg>