<svg width="152" height="32" fill="none" xmlns="http://www.w3.org/2000/svg"><path d="M69.353 24.323V17.19H61.34v7.133H58.53V8.131h2.81v6.806h8.013V8.131h2.835v16.192h-2.835ZM86.164 24.326l-.562-1.948c-.614 1.013-2.427 2.131-5.133 2.131-2.81 0-5.057-1.24-5.057-3.973 0-2.378 1.711-3.468 5.44-3.82l4.112-.406c-.077-1.882-.767-2.972-3.4-2.972-2.427 0-3.09.962-3.09 2.581l-2.66.027c0-2.683 1.123-4.756 5.72-4.756 5.337 0 6.106 2.279 6.106 5.768v7.363l-1.476.005Zm-1.2-5.97-3.7.404c-2.272.255-3.039.734-3.039 1.747 0 1.189 1.022 1.872 2.937 1.872 2.4 0 3.806-1.366 3.806-3.618l-.004-.406ZM96.736 13.545c-2.732 0-3.274 1.5-3.274 3.592v7.186h-2.727V11.368h1.456l.645 1.797c.41-.86 1.66-1.973 4.213-1.973h.435v2.405c-.264 0-.518-.052-.748-.052ZM109.864 24.324l-.614-1.848c-.46.886-1.915 2.027-5.01 2.027-4.316 0-5.593-3.113-5.593-6.656 0-3.543 1.225-6.654 5.566-6.654 2.58 0 3.883.91 4.445 1.772v-6.53h2.682v17.89h-1.476Zm-4.828-10.857c-2.987 0-3.6 1.771-3.6 4.377 0 2.605.614 4.428 3.576 4.428 3.039 0 3.677-1.771 3.677-4.428 0-2.502-.535-4.374-3.652-4.374l-.001-.003ZM124.04 24.324v-7.262c0-2.429-.409-3.592-3.194-3.592-2.757 0-3.346 1.138-3.346 3.592l-.05 7.262h-2.681V6.436h2.682v6.548c.51-.93 1.659-1.796 4.163-1.796 4.265 0 5.133 2.405 5.133 6.124v7.007l-2.707.005ZM140.182 24.326l-.562-1.948c-.614 1.013-2.427 2.131-5.138 2.131-2.81 0-5.057-1.24-5.057-3.973 0-2.378 1.711-3.468 5.44-3.82l4.111-.406c-.072-1.882-.761-2.972-3.4-2.972-2.425 0-3.09.962-3.09 2.581l-2.661.027c0-2.683 1.124-4.756 5.721-4.756 5.337 0 6.106 2.279 6.106 5.768v7.363l-1.47.005Zm-1.2-5.97-3.7.404c-2.272.255-3.039.734-3.039 1.747 0 1.189 1.022 1.872 2.937 1.872 2.4 0 3.806-1.366 3.806-3.618l-.004-.406ZM147.921 13.545v7.06c0 1.214.51 1.77 3.346 1.645v2.171c-4.316.253-6.129-.76-6.129-3.822v-7.054h-1.867v-1.619l1.865-.556V8.13h2.707v3.24h3.422v2.171l-3.344.004Z" fill="#0A0A0A"/><path d="M46.653 28.31v-2.22c0-.412-.694-.805-1.94-1.16l.03-2.762a20.62 20.62 0 0 0-3.782-11.894 20.924 20.924 0 0 0-9.98-7.6l-.088-.553a1.579 1.579 0 0 0-.374-.799 1.602 1.602 0 0 0-.747-.478 21.219 21.219 0 0 0-11.848 0c-.29.085-.55.25-.75.476-.2.226-.33.504-.376.8l-.085.516a20.928 20.928 0 0 0-10.05 7.594 20.623 20.623 0 0 0-3.811 11.937v2.774c-1.23.354-1.913.744-1.913 1.153v2.219c-.02.13.008.263.08.373a5.363 5.363 0 0 1 2.059-.93c1.9-.458 3.83-.779 5.778-.959a3.895 3.895 0 0 1 3.032.969 8.204 8.204 0 0 0 5.508 2.12h12.8c2.039 0 4.004-.757 5.508-2.121a3.899 3.899 0 0 1 3.032-.98c1.946.179 3.877.498 5.777.955a4.823 4.823 0 0 1 1.952.847c.033.033.072.06.1.091a.55.55 0 0 0 .088-.368Z" fill="#FFF100"/><path d="M11.918 23.64c-.016-.51-.027-1.02-.027-1.534.006-7.715 1.825-14.634 4.823-19.466a20.929 20.929 0 0 0-10.049 7.592 20.623 20.623 0 0 0-3.813 11.935v2.774a51.254 51.254 0 0 1 9.066-1.301Z" fill="url(#a)"/><path d="M44.74 22.167a20.556 20.556 0 0 0-4.78-13.196 42.668 42.668 0 0 1 1.983 13.131c0 .752-.02 1.495-.055 2.232.95.146 1.89.345 2.818.595l.035-2.762Z" fill="url(#b)"/><path d="M44.512 27.748a40.537 40.537 0 0 0-5.778-.959 3.9 3.9 0 0 0-3.032.974 8.197 8.197 0 0 1-5.508 2.12H17.4a8.203 8.203 0 0 1-5.506-2.119 3.895 3.895 0 0 0-3.032-.982c-1.947.18-3.878.5-5.778.958a5.436 5.436 0 0 0-2.059.93c.971 1.474 10.8 3.02 22.776 3.02 11.976 0 21.8-1.551 22.774-3.018-.034-.03-.072-.059-.1-.09a5.01 5.01 0 0 0-1.962-.834Z" fill="url(#c)"/><path d="m23.794 6.516-4.9 8.27 4.9 3.015V6.516Z" fill="#0A0A0A"/><path d="M23.796 6.519v11.28l4.9-3.01-4.9-8.27ZM23.796 19.438v3.933c.092-.13 4.9-6.949 4.9-6.952l-4.9 3.019Z" fill="#4B4D4D"/><path d="m23.796 19.439-4.9-3.014 4.9 6.95v-3.938.002Z" fill="#0A0A0A"/><defs><linearGradient id="a" x1="9.783" y1="24.941" x2="9.783" y2="2.64" gradientUnits="userSpaceOnUse"><stop stop-color="#EDCF00"/><stop offset=".33" stop-color="#F0D500"/><stop offset=".77" stop-color="#F9E500"/><stop offset="1" stop-color="#FFF100"/></linearGradient><linearGradient id="b" x1="42.351" y1="25.104" x2="42.351" y2="8.971" gradientUnits="userSpaceOnUse"><stop stop-color="#EDCF00"/><stop offset=".59" stop-color="#F7E100"/><stop offset="1" stop-color="#FFF100"/></linearGradient><radialGradient id="c" cx="0" cy="0" r="1" gradientUnits="userSpaceOnUse" gradientTransform="matrix(16.995 0 0 16.8793 3.494 40.177)"><stop stop-color="#FFF100"/><stop offset=".23" stop-color="#F9E500"/><stop offset=".67" stop-color="#F0D500"/><stop offset="1" stop-color="#EDCF00"/></radialGradient></defs></svg>
