<svg width="155" height="42" viewBox="0 0 155 42" fill="none" xmlns="http://www.w3.org/2000/svg">
<path fill-rule="evenodd" clip-rule="evenodd" d="M22.5037 19.8516L0.504501 19.8532C0.266545 19.8532 0.118496 19.5948 0.238837 19.3894L11.062 0.923359C11.2831 0.546182 11.6874 0.314454 12.1246 0.314454L33.2323 0.314454C33.4693 0.314454 33.6174 0.570939 33.4991 0.776258L22.5037 19.8516ZM30.3183 2.306C30.3865 2.2666 30.3586 2.16233 30.2798 2.16233L12.8168 2.16233C12.5968 2.16233 12.3934 2.27973 12.2834 2.47031L3.5446 17.6092C3.50521 17.6774 3.58156 17.7538 3.64977 17.7144L30.3183 2.306Z" fill="#D2D3D5"/>
<path d="M33.2335 41.5645C33.4705 41.5645 33.6187 41.3079 33.5003 41.1026L22.5049 22.0307L0.495888 22.0307C0.258136 22.0307 0.110077 22.2888 0.230023 22.4941L11.0144 40.954C11.2352 41.3321 11.6401 41.5644 12.0778 41.5644L33.2335 41.5645Z" fill="#D2D3D5"/>
<path fill-rule="evenodd" clip-rule="evenodd" d="M24.3776 20.9819L35.314 2.03596C35.4325 1.83064 35.7288 1.83064 35.8473 2.03596L46.4288 20.367C46.6488 20.7481 46.6488 21.2177 46.4288 21.5989L35.8479 39.9288C35.7294 40.1341 35.4331 40.1341 35.3146 39.9288L24.3776 20.9819ZM35.5812 36.4078C35.5812 36.4866 35.6855 36.5145 35.7248 36.4463L44.4732 21.2909C44.5832 21.1003 44.5832 20.8655 44.4732 20.675L35.7243 5.51871C35.685 5.45049 35.5807 5.47843 35.5807 5.55721L35.5812 36.4078Z" fill="#D2D3D5"/>
<path d="M56.9062 17.843L56.9062 6.90025L58.9024 6.90025L64.4696 15.4327L64.0999 15.4327L64.0999 6.90025L65.963 6.90025L65.963 17.843L63.9669 17.843L58.3997 9.31061L58.7694 9.31061L58.7694 17.843L56.9062 17.843Z" fill="#E5E6E7"/>
<path d="M72.954 17.9835C71.9633 17.9835 71.0983 17.7839 70.3589 17.3846C69.6196 16.9853 69.0429 16.3717 68.6289 15.5436C68.2198 14.7155 68.0153 13.6581 68.0153 12.3716C68.0153 11.0851 68.2198 10.0278 68.6289 9.19971C69.0429 8.37161 69.6196 7.75792 70.3589 7.35866C71.0983 6.9594 71.9633 6.75977 72.954 6.75977C73.9496 6.75977 74.8171 6.9594 75.5564 7.35866C76.2958 7.75792 76.87 8.37407 77.2791 9.2071C77.6882 10.0352 77.8927 11.09 77.8927 12.3716C77.8927 13.6532 77.6882 14.7105 77.2791 15.5436C76.87 16.3717 76.2933 16.9853 75.549 17.3846C74.8097 17.7839 73.9447 17.9835 72.954 17.9835ZM72.954 16.3643C73.5553 16.3643 74.0728 16.2336 74.5066 15.9724C74.9403 15.7112 75.273 15.2922 75.5047 14.7155C75.7413 14.1338 75.8596 13.3673 75.8596 12.416C75.8596 11.4351 75.7413 10.6489 75.5047 10.0574C75.2681 9.46588 74.9329 9.03951 74.4992 8.77826C74.0654 8.51209 73.5504 8.379 72.954 8.379C72.3625 8.379 71.8475 8.50962 71.4088 8.77087C70.975 9.02719 70.6399 9.44617 70.4033 10.0278C70.1667 10.6045 70.0484 11.371 70.0484 12.3273C70.0484 13.3131 70.1667 14.1018 70.4033 14.6933C70.6399 15.2848 70.975 15.7112 71.4088 15.9724C71.8425 16.2336 72.3576 16.3643 72.954 16.3643Z" fill="#E5E6E7"/>
<path d="M79.9816 17.843L79.9816 6.90025L82.377 6.90025L85.8297 14.5824L85.5561 14.5824L88.9422 6.90025L91.3377 6.90025L91.3377 17.843L89.4893 17.843L89.4893 8.63039L89.9182 8.63039L86.4877 16.2829L84.8316 16.2829L81.3197 8.63039L81.8299 8.63039L81.8299 17.843L79.9816 17.843Z" fill="#E5E6E7"/>
<path d="M93.8214 17.843L93.8214 6.90025L95.7954 6.90025L95.7954 17.843L93.8214 17.843Z" fill="#E5E6E7"/>
<path d="M103.282 17.9835C102.429 17.9835 101.665 17.88 100.99 17.673C100.32 17.461 99.7502 17.1332 99.282 16.6896C98.8138 16.241 98.4564 15.6619 98.21 14.9521C97.9635 14.2423 97.8403 13.3895 97.8403 12.3938C97.8403 11.1172 98.0572 10.0623 98.4909 9.22928C98.9296 8.39625 99.5629 7.77764 100.391 7.37345C101.219 6.96433 102.222 6.75977 103.4 6.75977C103.819 6.75977 104.223 6.78441 104.613 6.8337C105.002 6.87807 105.384 6.94708 105.759 7.04073L105.759 8.68954C105.399 8.59589 105.034 8.52688 104.664 8.48251C104.3 8.43815 103.925 8.41597 103.541 8.41597C102.737 8.41597 102.067 8.54659 101.53 8.80784C100.992 9.06909 100.588 9.49053 100.317 10.0722C100.051 10.6489 99.9178 11.4129 99.9178 12.3642C99.9178 13.3451 100.053 14.1264 100.324 14.7081C100.596 15.2848 100.992 15.6988 101.515 15.9502C102.042 16.2016 102.69 16.3273 103.459 16.3273C103.844 16.3273 104.223 16.2977 104.598 16.2386C104.972 16.1794 105.359 16.0882 105.759 15.965L105.759 17.6138C105.404 17.7272 105.014 17.8159 104.59 17.88C104.167 17.949 103.73 17.9835 103.282 17.9835Z" fill="#E5E6E7"/>
<path d="M56.9062 34.9787L56.9062 24.0359L64.233 24.0359L64.233 25.6625L58.8803 25.6625L58.8803 34.9787L56.9062 34.9787ZM58.1927 30.3871L58.1927 28.7605L63.4863 28.7605L63.4863 30.3871L58.1927 30.3871Z" fill="#E5E6E7"/>
<path d="M70.2393 35.1191C69.2486 35.1191 68.3835 34.9195 67.6442 34.5202C66.9049 34.121 66.3282 33.5073 65.9142 32.6792C65.5051 31.8511 65.3005 30.7938 65.3005 29.5073C65.3005 28.2208 65.5051 27.1634 65.9142 26.3353C66.3282 25.5072 66.9049 24.8936 67.6442 24.4943C68.3835 24.095 69.2486 23.8954 70.2393 23.8954C71.2349 23.8954 72.1024 24.095 72.8417 24.4943C73.581 24.8936 74.1552 25.5097 74.5643 26.3427C74.9734 27.1708 75.178 28.2257 75.178 29.5073C75.178 30.7889 74.9734 31.8462 74.5643 32.6792C74.1552 33.5073 73.5786 34.121 72.8343 34.5202C72.095 34.9195 71.23 35.1191 70.2393 35.1191ZM70.2393 33.4999C70.8406 33.4999 71.3581 33.3693 71.7919 33.108C72.2256 32.8468 72.5583 32.4278 72.7899 31.8511C73.0265 31.2695 73.1448 30.503 73.1448 29.5516C73.1448 28.5707 73.0265 27.7845 72.7899 27.193C72.5534 26.6015 72.2182 26.1751 71.7845 25.9139C71.3507 25.6477 70.8357 25.5146 70.2393 25.5146C69.6478 25.5146 69.1327 25.6453 68.6941 25.9065C68.2603 26.1628 67.9252 26.5818 67.6886 27.1634C67.452 27.7402 67.3337 28.5066 67.3337 29.4629C67.3337 30.4487 67.452 31.2374 67.6886 31.8289C67.9252 32.4204 68.2603 32.8468 68.6941 33.108C69.1278 33.3693 69.6429 33.4999 70.2393 33.4999Z" fill="#E5E6E7"/>
<path d="M81.6067 35.1191C80.5864 35.1191 79.751 34.9565 79.1004 34.6311C78.4497 34.3009 77.9667 33.8006 77.6513 33.1302C77.3408 32.4599 77.1855 31.612 77.1855 30.5868L77.1855 24.0359L79.1669 24.0359L79.1669 30.779C79.1669 31.7254 79.3665 32.413 79.7658 32.8419C80.165 33.2658 80.7786 33.4777 81.6067 33.4777C82.4347 33.4777 83.0459 33.2658 83.4402 32.8419C83.8395 32.413 84.0391 31.7254 84.0391 30.779L84.0391 24.0359L85.9835 24.0359L85.9835 30.5868C85.9835 31.612 85.8283 32.4599 85.5177 33.1302C85.2072 33.8006 84.7291 34.3009 84.0834 34.6312C83.4378 34.9565 82.6122 35.1191 81.6067 35.1191Z" fill="#E5E6E7"/>
<path d="M88.3775 34.9787L88.3775 24.0359L90.3736 24.0359L95.9408 32.5683L95.5711 32.5683L95.5711 24.0359L97.4342 24.0359L97.4342 34.9787L95.4381 34.9787L89.8709 26.4462L90.2406 26.4463L90.2406 34.9787L88.3775 34.9787Z" fill="#E5E6E7"/>
<path d="M102.747 35.0822C102.451 35.0822 102.146 35.0748 101.83 35.06C101.52 35.0501 101.202 35.0329 100.876 35.0082C100.551 34.9836 100.223 34.9515 99.8931 34.9121L99.8931 24.2577C100.213 24.1887 100.556 24.1295 100.921 24.0802C101.29 24.026 101.663 23.9866 102.037 23.9619C102.417 23.9324 102.786 23.9176 103.146 23.9176C105.068 23.9176 106.518 24.3735 107.493 25.2854C108.474 26.1924 108.965 27.5997 108.965 29.5073C108.965 30.8086 108.735 31.8708 108.277 32.694C107.819 33.5122 107.129 34.1161 106.207 34.5055C105.285 34.8899 104.132 35.0822 102.747 35.0822ZM103.235 33.4555C104.058 33.4555 104.743 33.3249 105.29 33.0637C105.842 32.7975 106.254 32.3736 106.525 31.7919C106.796 31.2103 106.932 30.4463 106.932 29.4999C106.932 28.5584 106.796 27.7968 106.525 27.2152C106.254 26.6336 105.845 26.2097 105.298 25.9435C104.755 25.6724 104.08 25.5368 103.272 25.5368C103.055 25.5368 102.823 25.5491 102.577 25.5738C102.335 25.5935 102.099 25.6231 101.867 25.6625L101.867 33.389C102.089 33.4136 102.308 33.4309 102.525 33.4408C102.747 33.4506 102.984 33.4555 103.235 33.4555Z" fill="#E5E6E7"/>
<path d="M109.849 34.9787L113.523 24.0359L116.385 24.0359L120.059 34.9787L118.1 34.9787L114.825 24.9157L115.054 24.9157L111.786 34.9787L109.849 34.9787ZM112.17 31.8363L112.599 30.2467L117.301 30.2467L117.73 31.8363L112.17 31.8363Z" fill="#E5E6E7"/>
<path d="M122.89 34.9787L122.89 25.6995L119.371 25.6995L119.371 24.0359L128.391 24.0359L128.391 25.6995L124.871 25.6995L124.871 34.9787L122.89 34.9787Z" fill="#E5E6E7"/>
<path d="M129.863 34.9787L129.863 24.0359L131.837 24.0359L131.837 34.9787L129.863 34.9787Z" fill="#E5E6E7"/>
<path d="M138.82 35.1191C137.83 35.1191 136.964 34.9195 136.225 34.5202C135.486 34.121 134.909 33.5073 134.495 32.6792C134.086 31.8511 133.881 30.7938 133.881 29.5073C133.881 28.2208 134.086 27.1634 134.495 26.3353C134.909 25.5072 135.486 24.8936 136.225 24.4943C136.964 24.095 137.83 23.8954 138.82 23.8954C139.816 23.8954 140.683 24.095 141.423 24.4943C142.162 24.8936 142.736 25.5097 143.145 26.3427C143.554 27.1708 143.759 28.2257 143.759 29.5073C143.759 30.7889 143.554 31.8462 143.145 32.6792C142.736 33.5073 142.16 34.121 141.415 34.5202C140.676 34.9195 139.811 35.1191 138.82 35.1191ZM138.82 33.4999C139.422 33.4999 139.939 33.3693 140.373 33.108C140.807 32.8468 141.139 32.4278 141.371 31.8511C141.607 31.2695 141.726 30.503 141.726 29.5516C141.726 28.5707 141.607 27.7845 141.371 27.193C141.134 26.6015 140.799 26.1751 140.365 25.9139C139.932 25.6477 139.417 25.5146 138.82 25.5146C138.229 25.5146 137.714 25.6453 137.275 25.9065C136.841 26.1628 136.506 26.5818 136.27 27.1634C136.033 27.7402 135.915 28.5067 135.915 29.4629C135.915 30.4487 136.033 31.2374 136.27 31.8289C136.506 32.4204 136.841 32.8468 137.275 33.108C137.709 33.3693 138.224 33.4999 138.82 33.4999Z" fill="#E5E6E7"/>
<path d="M145.818 34.9787L145.818 24.0359L147.814 24.0359L153.382 32.5683L153.012 32.5683L153.012 24.0359L154.875 24.0359L154.875 34.9787L152.879 34.9787L147.312 26.4463L147.681 26.4463L147.681 34.9787L145.818 34.9787Z" fill="#E5E6E7"/>
</svg>
