<svg width="500" height="359" fill="none" xmlns="http://www.w3.org/2000/svg"><path d="M237.842 330c34.518 0 62.5-27.982 62.5-62.5s-27.982-62.5-62.5-62.5-62.5 27.982-62.5 62.5 27.982 62.5 62.5 62.5Z" fill="#fff" stroke="#D1BFE6" stroke-width="1.025"/><mask id="a" style="mask-type:alpha" maskUnits="userSpaceOnUse" x="179" y="209" width="117" height="117"><path d="M237.842 325c31.756 0 57.5-25.744 57.5-57.5s-25.744-57.5-57.5-57.5c-31.757 0-57.5 25.744-57.5 57.5s25.743 57.5 57.5 57.5Z" fill="#fff" stroke="#D1BFE6" stroke-width="1.025"/></mask><g mask="url(#a)"><path d="M276.183 265.766c0 2.7-17.224 4.859-38.48 4.859-21.256 0-38.49-2.184-38.49-4.859v-3.037s11.733-2.429 17.928-2.915c5.952-.474 13-.753 20.564-.753s14.576.279 20.564.753c6.195.5 17.928 2.235 17.928 2.235l-.014 3.717Z" fill="#15191F"/><path d="M260.746 322.462c3.333-.153 6.205-1.74 8.973-3.479-1.539-6.292-9.394-10.992-15.137-10.225.358 1.125 3.137 10.225 3.137 10.225s3.078.92 3.027 3.479Z" fill="#F2EDDC"/><path d="M258.56 326.47a6.703 6.703 0 0 0 2.135-4.169 20.28 20.28 0 0 0 8.871-3.836c.299.944.472 1.925.513 2.915-.007.036-.017.071-.025.107.132 4.482-2.614 8.815-10.688 12.468-.51.345-1.01.7-1.492 1.085-.206-2.664.331-8.212.686-8.57Z" fill="url(#b)"/><path d="M248.943 302.838c-18.515.893-25.93 5.8-25.93 5.8a40.191 40.191 0 0 0-1.417 8.575.945.945 0 0 1 .615.189c.85.613.945 1.649.8 3.156-.285 2.048-1.511 10.46-1.558 12.675h35.9l.094-18.282s-2.645-12.251-8.5-12.11" fill="#F2EDDC"/><path d="M222.736 322.485s7.497-3.111 1.828-14.656c1.319-1.266 4.625-1.953 6.125-1.266 2.671.402 5.395 1.687 6.813 3.625.284.848 7.404 7.383 7.404 7.383s2.955-3.582 3.238-6.39l-3.006-.29 3.935-7.111c5.243 2.261 9.195 3.624 9.244 17.382 0 0-.047 9.283-.8 12.015a119.273 119.273 0 0 1-15.115 1.179c-9.824 0-20.877-1.179-20.877-1.179l1.211-10.692Z" fill="#EDCF00"/><path d="M244.916 317.603c1.211 7-.389 16.838-.389 16.838" stroke="#AD960C" stroke-miterlimit="10"/><path d="M241.687 326.574a93.304 93.304 0 0 0 16.956-1.242l-.578-2.73c-7.067 1.489-24.046 1.837-35.329-.118l-.312 1.844c6.639 1.03 12.545 2.3 19.263 2.246Z" fill="url(#c)"/><path d="M217.584 311.612a7.142 7.142 0 0 1 1.8 1.094 15.658 15.658 0 0 1 3.882 5.061 14.152 14.152 0 0 0-4.554 10.9 5.216 5.216 0 0 0 .453 2.451 7.31 7.31 0 0 0 1.638 1.618c1.219.944 2.6 1.808 4.063 2.722.3.186.593.374.889.558a32.73 32.73 0 0 0-6.872 5.563c-1.083-.693-2.171-1.42-3.224-2.236a14.391 14.391 0 0 1-3.729-4 13.196 13.196 0 0 1-1.6-6.543 22.283 22.283 0 0 1 1.744-9.389 22.288 22.288 0 0 1 5.512-7.8" fill="#FF8F66"/><path d="M217.584 311.612a7.154 7.154 0 0 1 1.8 1.094 15.658 15.658 0 0 1 3.882 5.061 14.152 14.152 0 0 0-4.554 10.9 5.216 5.216 0 0 0 .453 2.451 7.33 7.33 0 0 0 1.638 1.618c1.219.944 2.6 1.808 4.064 2.722.3.186.593.374.888.558a32.724 32.724 0 0 0-6.871 5.563c-1.083-.693-2.172-1.42-3.225-2.236a14.391 14.391 0 0 1-3.729-4 13.185 13.185 0 0 1-1.6-6.543 22.3 22.3 0 0 1 7.256-17.189" fill="url(#d)"/><path d="M221.752 308.563c1.347-.477 3.116 8.05.929 10.496-1.417.959-2.429 3.489-3.595 5.984-.038-.021-5.706-1.189-7.949-2.863 1.184-6.3 6.595-12.193 10.615-13.617Z" fill="#F2EDDC"/><path d="M224.489 307.861c1.42-.168 3.431 7.365.755 9.267-1.594.623-3.608 3.1-4.834 5.041-.034-.029-5.3-2.42-7.117-4.548 2.554-5.88 6.961-9.259 11.196-9.76Z" fill="#F2EDDC"/><path d="M206.156 268.514h62.008a17.927 17.927 0 0 0-15.013-20.017l-26.879-3.887h-.292a17.609 17.609 0 0 0-13.003 3.568 17.593 17.593 0 0 0-6.662 11.724 43.792 43.792 0 0 0-.159 8.612Z" fill="url(#e)"/><path d="M206.156 268.526a52.32 52.32 0 0 0 14.369 31.423v-6.62a15.622 15.622 0 0 1 15.693-15.645h30.609l1.312-8.891v-.279l-61.983.012Z" fill="#FB7E51"/><path d="M271.444 283.612a9.425 9.425 0 0 0-16.096-6.661 9.423 9.423 0 0 0 1.442 14.504 9.43 9.43 0 0 0 11.897-1.182 9.43 9.43 0 0 0 2.757-6.661Z" fill="#FB7E51"/><path d="M266.829 277.976v-.292H236.22a15.61 15.61 0 0 0-14.497 9.644 15.616 15.616 0 0 0-1.184 6.001v6.571c6.413 5.964 14.163 11.661 23.795 11.442a22.87 22.87 0 0 0 12.511-2.952 17.942 17.942 0 0 0 6.948-9.717c.219-.84.389-1.692.51-2.551l2.526-18.146Zm-27.257 9.826a3.83 3.83 0 0 1-3.82 3.612 3.826 3.826 0 0 1-3.82-3.612v-2.976a3.826 3.826 0 0 1 7.64 0v2.976Zm5.344 14.09a5.006 5.006 0 0 1-3.541-1.471 5.005 5.005 0 0 1-1.459-3.546h10.021a5.02 5.02 0 0 1-3.099 4.636 5.024 5.024 0 0 1-1.921.381h-.001Zm11.818-14.09a3.817 3.817 0 0 1-3.814 3.814 3.816 3.816 0 0 1-3.814-3.814v-2.976a3.816 3.816 0 0 1 7.338-1.46c.191.463.29.959.29 1.46v2.976Z" fill="#FB7E51"/><path d="M256.733 284.827v2.976a3.813 3.813 0 1 1-7.628 0v-2.976a3.813 3.813 0 1 1 7.628 0ZM239.572 284.826v2.976a3.826 3.826 0 0 1-7.64 0v-2.976a3.823 3.823 0 0 1 3.82-3.612 3.824 3.824 0 0 1 3.82 3.612ZM244.927 301.904a5.028 5.028 0 0 1-4.646-3.094 5.028 5.028 0 0 1-.383-1.922h10.033a4.987 4.987 0 0 1-3.085 4.621 4.993 4.993 0 0 1-1.915.379l-.004.016Z" fill="#2E3033"/><path d="M244.927 301.904a5.028 5.028 0 0 1-4.646-3.094 5.028 5.028 0 0 1-.383-1.922h10.033a4.987 4.987 0 0 1-3.085 4.621 4.993 4.993 0 0 1-1.915.379l-.004.016Z" fill="#fff"/><path d="M256.733 284.827v2.976a3.813 3.813 0 1 1-7.628 0v-2.976a3.813 3.813 0 1 1 7.628 0ZM239.572 284.826v2.976a3.826 3.826 0 0 1-7.64 0v-2.976a3.823 3.823 0 0 1 3.82-3.612 3.824 3.824 0 0 1 3.82 3.612Z" fill="#15191F"/><path d="M206.825 276.836a65.745 65.745 0 0 1-.983-10.459h48.6v-2.793l19.106-1.678 2.087 2.429c.086 6.938-5.7 11.3-12.691 11.3h-8.5v-3.962a4.146 4.146 0 0 0-2.7 1.956 4.13 4.13 0 0 1-3.583 2.054h-26.32a7.507 7.507 0 0 0-6.513 3.826l-8.503-2.673Z" fill="url(#f)"/><path d="M221.74 283.941v-.158a9.508 9.508 0 0 0-16.249-6.633 9.51 9.51 0 0 0 6.699 16.222 9.51 9.51 0 0 0 9.55-9.431Z" fill="#FB7E51"/><path d="M214.355 286.782v.377a5.625 5.625 0 0 0 1.373-3.644c0-2.369-.571-3.644-2.624-4.518a3.774 3.774 0 0 0-2.952.109 2.371 2.371 0 0 0-1.387 2.274 2.372 2.372 0 0 0 1.606 2.126c1.786.604 3.984 1.818 3.984 3.276ZM237.033 310.443a29.082 29.082 0 0 1-6.073-2.429 36.822 36.822 0 0 1-5.49-3.644 52.162 52.162 0 0 1-4.859-4.458v-6.583a15.598 15.598 0 0 1 9.627-14.454 15.62 15.62 0 0 1 5.981-1.191h30.609v.292l-2.526 18.1c-.12.859-.291 1.711-.51 2.551a17.892 17.892 0 0 1-6.948 9.717 22.501 22.501 0 0 1-11.976 2.952h-1.13a25.547 25.547 0 0 1-6.705-.853Zm8.5-8.5a5.002 5.002 0 0 0 3.536-1.48 5 5 0 0 0 1.444-3.549h-10.65a5.042 5.042 0 0 0 5.029 5.017h.571l.07.012Zm-9.462-20.88h-.292a3.828 3.828 0 0 0-3.814 3.814v2.976a3.829 3.829 0 0 0 3.814 3.814h.583a3.83 3.83 0 0 0 3.814-3.814v-3.024a3.836 3.836 0 0 0-3.814-3.814l-.291.048Zm17.454 0h-.583a3.795 3.795 0 0 0-3.514 2.355 3.801 3.801 0 0 0-.286 1.459v2.976a3.813 3.813 0 0 0 3.814 3.814h.571a3.81 3.81 0 0 0 2.697-1.118 3.81 3.81 0 0 0 1.117-2.696v-3.024a3.829 3.829 0 0 0-1.12-2.694 3.829 3.829 0 0 0-2.694-1.12l-.002.048Z" fill="#FF8F66"/><path d="M199.211 261.568v.109c-.002.241.026.482.085.717a2.78 2.78 0 0 0 3.389 1.98h.121a86.85 86.85 0 0 1 14.333-2.065c5.94-.474 13-.753 20.564-.753s14.576.279 20.564.753a86.85 86.85 0 0 1 14.333 2.065h.061c.246.063.499.097.753.1a2.78 2.78 0 0 0 2.782-2.782v-.109c0-2.7-17.236-4.859-38.492-4.859-21.256 0-38.493 2.147-38.493 4.844Z" fill="#FFF100"/><path d="M199.343 265.976a8.999 8.999 0 0 1 3.474-1.6 67.425 67.425 0 0 1 9.717-1.628c.425 0 3.195-.085 7.288-.109a6.765 6.765 0 0 1 4.154 1.4l2.952 2.259a12.58 12.58 0 0 0 7.64 2.587h20.75a8.314 8.314 0 0 0 6.6-3.256 5.974 5.974 0 0 1 5.648-2.271c1.709.254 3.403.594 5.077 1.02a8.1 8.1 0 0 1 3.292 1.445l.182.158c.11-.195.157-.42.134-.644v-3.778c0-2.7-17.236-4.859-38.492-4.859h-2.15c-20.26.134-36.342 2.271-36.342 4.859v3.838c-.028.197-.002.397.076.579Z" fill="#FFF100"/><path d="m217.707 254.735.031 2.937a86.215 86.215 0 0 0-15.357 2.215v-5a35.316 35.316 0 0 1 23.491-33.221c-.025.273-8.165 19.951-8.165 33.069Z" fill="url(#g)"/><path d="M272.916 259.867a42.495 42.495 0 0 0-4.761-1.008c.073-1.348.109-2.709.109-4.093a73.387 73.387 0 0 0-3.34-22.337 35.225 35.225 0 0 1 8.053 22.459l-.061 4.979Z" fill="url(#h)"/><path d="M268.262 254.766c0 1.385 0 2.745-.109 4.093a205.644 205.644 0 0 0-30.451-1.895h-2.15c-6.511 0-12.6.3-17.843.7v-2.9c0-13.118 3.17-24.925 8.223-33.148a35.293 35.293 0 0 1 39.051 10.81 73.314 73.314 0 0 1 3.279 22.34Z" fill="#FFF100"/><path d="m223.686 234.771 2.235-13.993a2.695 2.695 0 0 1 1.883-2.174 35.31 35.31 0 0 1 19.957 0 2.712 2.712 0 0 1 1.895 2.174l2.235 13.993M235.004 245.448l8.114 5v6.5l-8.114-11.5Z" fill="#FFF100"/><path d="M243.082 256.951v-6.5l8.126-5-8.126 11.5ZM243.082 229.343l8.114 13.142-8.114-4.7v-8.442Z" fill="#FFF100"/><path d="m243.083 237.785-8.077 4.7 8.114-13.142-.037 8.442Z" fill="#FFF100"/><path d="m251.196 242.485-8.114 4.689v-9.4l8.114 4.711Z" fill="#FFF100"/><path d="m243.082 250.455 8.128-5.006-8.128 11.5v-6.494Zm0-12.67v-8.442l8.114 13.143-8.114 4.69v-9.391Z" fill="#4B4D4D"/><path d="M243.083 237.784v9.389l-8.077-4.689 8.077-4.7Z" fill="#FFF100"/><path d="m235.004 245.449 8.114 5.006v6.5l-8.114-11.506Zm0-2.964 8.078-4.7v9.391l-8.078-4.691Zm8.114-13.143-.035 8.442-8.078 4.7 8.113-13.142Z" fill="#0A0A0A"/></g><path d="M253.298 280.818c1.034 0 2.026.411 2.757 1.143a3.896 3.896 0 0 1 1.143 2.757v3.037a3.938 3.938 0 0 1-3.9 3.911 3.956 3.956 0 0 1-3.911-3.911v-3.037a3.933 3.933 0 0 1 3.911-3.9ZM235.757 280.818a3.924 3.924 0 0 1 3.9 3.9v3.037a3.911 3.911 0 0 1-3.9 3.911 3.956 3.956 0 0 1-3.911-3.911v-3.037a3.911 3.911 0 0 1 3.911-3.9Z" fill="#2E3033"/><path d="M246.191 286.856a8.67 8.67 0 0 1 5.357-8.014 8.68 8.68 0 0 1 9.454 1.885 8.677 8.677 0 0 1-1.329 13.346 8.674 8.674 0 0 1-13.482-7.217Zm8.66-7.288a7.287 7.287 0 0 0-7.288 7.288 7.29 7.29 0 0 0 12.442 5.153 7.287 7.287 0 0 0-5.154-12.441ZM226.502 286.855c0-4.761 3.037-8.624 7.8-8.624a8.65 8.65 0 0 1 0 17.3c-3.063-.004-7.8-3.915-7.8-8.676Zm7.8-7.288a7.288 7.288 0 0 0-7.288 7.288 7.284 7.284 0 0 0 4.499 6.734 7.287 7.287 0 0 0 9.937-5.312 7.288 7.288 0 0 0-7.148-8.71Z" fill="#FB7E51"/><path d="M262.163 284.39a7.798 7.798 0 0 1-13.585 6.626 7.803 7.803 0 0 1-1.732-6.419c.401-.657 13.762-1.519 15.317-.207Z" fill="#F49F7D"/><path d="M246.842 284.595a7.8 7.8 0 0 1 15.317-.206c-1.55-1.312-14.899-.445-15.317.206Z" fill="#EC8C68"/><path d="M241.831 284.39a7.822 7.822 0 1 1-15.329 3.134 7.419 7.419 0 0 1 0-2.879c.377-.704 13.762-1.567 15.329-.255Z" fill="#F49F7D"/><path d="M226.502 284.596a7.822 7.822 0 0 1 15.365-.243c-1.598-1.276-14.988-.415-15.365.243Z" fill="#EC8C68"/><path d="M253.298 280.818c1.034 0 2.026.411 2.757 1.143a3.896 3.896 0 0 1 1.143 2.757v3.037a3.938 3.938 0 0 1-3.9 3.911 3.956 3.956 0 0 1-3.911-3.911v-3.037a3.933 3.933 0 0 1 3.911-3.9ZM235.757 280.818a3.924 3.924 0 0 1 3.9 3.9v3.037a3.911 3.911 0 0 1-3.9 3.911 3.956 3.956 0 0 1-3.911-3.911v-3.037a3.911 3.911 0 0 1 3.911-3.9Z" fill="#29221D"/><path d="M262.37 285.907a7.808 7.808 0 0 0-7.804-7.504 7.808 7.808 0 0 0-7.804 7.504M242.038 285.907a7.808 7.808 0 0 0-7.804-7.504 7.811 7.811 0 0 0-7.804 7.504" stroke="#2E3033" stroke-width="1.486" stroke-miterlimit="10"/><path d="M246.847 285.907a2.429 2.429 0 1 0-4.859 0" stroke="#2E3033" stroke-width="1.486" stroke-miterlimit="10"/><g filter="url(#i)"><path d="M299.119 266.326h-4.362a6.697 6.697 0 0 1-4.74-1.965 6.705 6.705 0 0 1-1.96-4.74v-19.544a6.694 6.694 0 0 1 4.136-6.19 6.694 6.694 0 0 1 2.564-.51H426.8a6.698 6.698 0 0 1 6.7 6.7v19.544a6.707 6.707 0 0 1-1.961 4.74 6.694 6.694 0 0 1-4.739 1.965H309.656l-10.537 10.543v-10.543Z" fill="#fff"/></g><path d="M299.117 266.325h-4.362a6.697 6.697 0 0 1-4.74-1.965 6.705 6.705 0 0 1-1.96-4.74v-19.544a6.694 6.694 0 0 1 4.136-6.19 6.694 6.694 0 0 1 2.564-.51h132.043a6.694 6.694 0 0 1 6.19 4.136c.336.813.51 1.684.51 2.564v19.544a6.707 6.707 0 0 1-1.961 4.74 6.694 6.694 0 0 1-4.739 1.965H309.654l-10.537 10.543v-10.543Z" fill="#F2F2F2" fill-opacity=".4"/><path d="M314.946 253.167h-.769v-2.958h-2.624v2.958h-.764v-6.4h.765v2.751h2.623v-2.751h.769v6.4Zm3.489.088a2.401 2.401 0 0 1-.921-.171 2.099 2.099 0 0 1-1.185-1.208 2.484 2.484 0 0 1-.167-.918v-.191a2.712 2.712 0 0 1 .185-1.031c.112-.286.278-.547.49-.769.197-.205.433-.368.694-.481.252-.11.525-.167.8-.167.309-.007.617.054.9.178.248.112.467.281.639.492.175.219.304.47.38.74.086.3.128.611.125.923v.365h-3.4c.007.209.049.416.125.611.071.184.175.354.308.5a1.42 1.42 0 0 0 1.069.462 1.66 1.66 0 0 0 .773-.176 1.67 1.67 0 0 0 .563-.466l.5.387a2.016 2.016 0 0 1-.711.637 2.317 2.317 0 0 1-.527.2 2.514 2.514 0 0 1-.64.083Zm-.105-4.263a1.22 1.22 0 0 0-.866.354 1.494 1.494 0 0 0-.3.426 2.037 2.037 0 0 0-.169.582h2.565v-.062a1.793 1.793 0 0 0-.09-.47 1.3 1.3 0 0 0-.226-.417 1.13 1.13 0 0 0-.376-.3 1.189 1.189 0 0 0-.538-.113Zm6.521-.668a3.887 3.887 0 0 1 .472.029c.075.01.144.022.207.037a.938.938 0 0 1 .156.048l-.11.8a4.271 4.271 0 0 0-.45-.077 4.151 4.151 0 0 0-.446-.024 1.528 1.528 0 0 0-.925.259 1.5 1.5 0 0 0-.521.725v3.046h-.817v-4.755h.773l.04.756c.186-.254.425-.464.7-.617.282-.154.6-.232.921-.227Zm3.261 4.179h3.028v.664h-4.065v-.6l2.839-3.485h-2.8v-.672h3.867v.576l-2.869 3.517Zm4.557-6.086h2.43v6.05h1.551v.7h-3.981v-.7h1.617v-5.342h-1.617v-.708Zm5.4 2h2.43v4.05h1.551v.7h-3.981v-.7h1.617v-3.347h-1.617v-.703Zm1.508-1.25a.501.501 0 0 1 .121-.341.458.458 0 0 1 .367-.138.461.461 0 0 1 .365.138.492.492 0 0 1 .123.341.463.463 0 0 1-.123.33.482.482 0 0 1-.365.132.478.478 0 0 1-.367-.132.466.466 0 0 1-.121-.33Zm5.792 5.429a1.324 1.324 0 0 0 .8-.266c.105-.08.194-.18.261-.294a.751.751 0 0 0 .1-.367h.769a1.262 1.262 0 0 1-.165.6 1.731 1.731 0 0 1-.428.505 2.172 2.172 0 0 1-1.34.477 2.184 2.184 0 0 1-.945-.193 1.956 1.956 0 0 1-.675-.521 2.224 2.224 0 0 1-.406-.756 2.985 2.985 0 0 1-.136-.9v-.184a2.985 2.985 0 0 1 .136-.9c.085-.277.223-.534.406-.758.184-.221.414-.399.675-.521.297-.134.62-.2.945-.193a2.16 2.16 0 0 1 .776.134c.225.083.432.206.611.365a1.65 1.65 0 0 1 .545 1.224h-.769a.985.985 0 0 0-.094-.406 1.106 1.106 0 0 0-.611-.565 1.26 1.26 0 0 0-.459-.083 1.235 1.235 0 0 0-.635.152 1.24 1.24 0 0 0-.415.4 1.672 1.672 0 0 0-.226.547 2.791 2.791 0 0 0-.068.611v.185c0 .208.023.414.068.617a1.7 1.7 0 0 0 .224.549c.104.164.245.302.413.4.198.104.42.153.643.141Zm4.188-3.476c.161-.241.376-.44.628-.582.257-.141.546-.214.839-.213.231-.003.461.034.679.108.198.068.377.184.521.336.152.166.265.363.332.578.083.268.122.548.116.828v2.992h-.813v-3a1.203 1.203 0 0 0-.279-.87 1.059 1.059 0 0 0-.8-.281 1.354 1.354 0 0 0-.71.191c-.21.126-.387.3-.516.508v3.452h-.813v-6.75h.813l.003 2.703Zm10.705 2.324.1.681.119-.681.76-3.032h.523l.756 3.032.127.747.119-.747.527-3.032h.721L363 253.167h-.642l-.743-2.914-.123-.738-.119.738-.733 2.914h-.641l-1.011-4.755h.721l.553 3.032Zm4.807-3.032h2.43v4.055h1.551v.7h-3.981v-.7h1.617v-3.347h-1.617v-.708Zm1.513-1.245a.501.501 0 0 1 .121-.341.458.458 0 0 1 .367-.138.461.461 0 0 1 .365.138.495.495 0 0 1 .122.341.463.463 0 0 1-.123.33.482.482 0 0 1-.365.132.478.478 0 0 1-.367-.132.471.471 0 0 1-.12-.33Zm3.887-.75h2.43v6.05h1.551v.7h-3.981v-.7h1.617v-5.342h-1.617v-.708Zm5.4 0h2.43v6.05h1.551v.7h-3.981v-.7h1.62v-5.342h-1.62v-.708Zm6.7 4.531-.6.576v1.643h-.817v-6.75h.817v4.131l.532-.571 1.56-1.564h.989l-1.923 1.981 2.219 2.773h-1.032l-1.745-2.219Zm3.749-.2a2.954 2.954 0 0 1 .149-.956c.092-.281.237-.541.428-.767.187-.217.419-.392.679-.512a2.1 2.1 0 0 1 .9-.187c.312-.005.622.059.907.187.261.119.494.294.681.512.191.226.336.486.428.767.102.308.152.631.149.956v.1c.003.324-.047.646-.149.954-.092.28-.237.54-.428.765a1.98 1.98 0 0 1-.679.51c-.283.127-.59.19-.9.185a2.151 2.151 0 0 1-.907-.195 1.963 1.963 0 0 1-.681-.51 2.3 2.3 0 0 1-.428-.765 2.946 2.946 0 0 1-.149-.954v-.09Zm.813.1c-.001.226.027.451.083.67.05.2.136.39.253.56.11.158.255.289.424.382.182.097.387.145.593.141a1.195 1.195 0 0 0 1.007-.528c.117-.17.203-.36.253-.56.056-.219.084-.444.083-.67v-.1a2.536 2.536 0 0 0-.086-.666c-.052-.2-.138-.39-.255-.56a1.183 1.183 0 0 0-1.013-.528 1.165 1.165 0 0 0-.589.143 1.28 1.28 0 0 0-.42.385c-.117.17-.203.36-.253.56a2.625 2.625 0 0 0-.083.666l.003.105Zm5.19-2.43.022.448c.091-.161.222-.296.38-.391.173-.098.37-.148.569-.145a.855.855 0 0 1 .875.51c.092-.151.219-.277.371-.367a1.1 1.1 0 0 1 .56-.143 1.014 1.014 0 0 1 .8.321c.208.279.308.624.281.971v3.545h-.773v-3.56c0-.4-.183-.598-.549-.593a.708.708 0 0 0-.25.04.502.502 0 0 0-.286.266.714.714 0 0 0-.053.187v3.66h-.773v-3.564a.671.671 0 0 0-.126-.436.48.48 0 0 0-.4-.149.665.665 0 0 0-.4.1.583.583 0 0 0-.207.268v3.781h-.773v-4.755l.732.006Zm5.4 0 .022.448c.091-.161.222-.296.38-.391.173-.098.37-.148.569-.145a.855.855 0 0 1 .875.51c.092-.151.219-.277.371-.367a1.1 1.1 0 0 1 .56-.143 1.014 1.014 0 0 1 .8.321c.208.279.308.624.281.971v3.545h-.773v-3.56c0-.4-.183-.598-.549-.593a.708.708 0 0 0-.25.04.502.502 0 0 0-.286.266.714.714 0 0 0-.053.187v3.66h-.769v-3.564a.669.669 0 0 0-.13-.436.48.48 0 0 0-.4-.149.665.665 0 0 0-.4.1.583.583 0 0 0-.207.268v3.781h-.773v-4.755l.732.006Zm7.128 4.837a2.401 2.401 0 0 1-.921-.171 2.099 2.099 0 0 1-1.185-1.208 2.484 2.484 0 0 1-.167-.918v-.191a2.712 2.712 0 0 1 .185-1.031c.112-.286.278-.547.49-.769.197-.205.433-.368.694-.481.252-.11.525-.167.8-.167.309-.007.617.054.9.178.248.112.467.281.639.492.175.219.304.47.38.74.086.3.128.611.125.923v.365h-3.4c.007.209.049.416.125.611.071.184.175.354.308.5a1.419 1.419 0 0 0 1.068.459c.27.007.537-.051.779-.171a1.67 1.67 0 0 0 .563-.466l.5.387a2.016 2.016 0 0 1-.711.637 2.317 2.317 0 0 1-.527.2 2.507 2.507 0 0 1-.645.081Zm-.105-4.263a1.22 1.22 0 0 0-.866.354 1.494 1.494 0 0 0-.3.426 2.037 2.037 0 0 0-.169.582h2.558v-.062a1.793 1.793 0 0 0-.09-.47 1.3 1.3 0 0 0-.226-.417 1.13 1.13 0 0 0-.376-.3 1.189 1.189 0 0 0-.531-.113Zm4.135-.58.057.7c.164-.238.381-.434.633-.575.259-.141.549-.214.844-.213.231-.003.46.032.679.105.198.067.376.18.521.33.152.163.265.357.332.569.083.265.122.542.116.82v3.019h-.813v-3a1.767 1.767 0 0 0-.07-.536.847.847 0 0 0-.209-.356.82.82 0 0 0-.338-.2 1.584 1.584 0 0 0-.459-.062 1.27 1.27 0 0 0-.719.2 1.51 1.51 0 0 0-.494.538v3.416h-.81v-4.755h.73Z" fill="#6E6F70"/><path d="M146.318 110.796a69.996 69.996 0 0 1 64.672 43.212 70 70 0 1 1-64.672-43.212Z" fill="#fff" stroke="#D1BFE6" stroke-width="1.025"/><mask id="j" style="mask-type:alpha" maskUnits="userSpaceOnUse" x="80" y="115" width="132" height="132"><path d="M146.318 115.796a65 65 0 1 1 0 130.001 65 65 0 0 1 0-130.001Z" fill="#fff" stroke="#D1BFE6" stroke-width="1.025"/></mask><g mask="url(#j)"><path d="M103.68 175.404s13.129-1.957 20.089-2.539c6.7-.529 14.605-.846 23.041-.846s16.4.317 23.041.846c6.96.582 20.089 3.279 20.089 3.279v3.438c0 3.015-19.35 5.5-43.183 5.5s-43.077-2.486-43.077-5.5v-4.178Z" fill="#262223"/><path d="M120.121 241.979c-3.72-.172-6.927-1.952-10.017-3.9 1.718-7.062 8.93-12.632 15.341-11.771-.4 1.263-1.946 11.771-1.946 11.771s-3.435 1.033-3.378 3.9Z" fill="#F2EDDC"/><path d="M122.561 246.482a7.541 7.541 0 0 1-2.383-4.679 22.565 22.565 0 0 1-9.9-4.306 12.638 12.638 0 0 0-.573 3.272c.008.041.019.08.028.12-.147 5.031 2.918 9.894 11.931 13.994.569.387 1.128.787 1.666 1.219.226-2.991-.368-9.218-.769-9.62Z" fill="url(#k)"/><path d="M117.775 256.564a6.504 6.504 0 0 1-.513-7.148c1.432-3.1 4.121-3.88 6.867-2.272a12.906 12.906 0 0 1 3.321 3.047c.973 1.148 2 2.47 1.946 3.962a5.753 5.753 0 0 1-2.347 4.651c-.859.632-3.664 2.123-5.038 2.123a5.515 5.515 0 0 1-2.862-.631 3.804 3.804 0 0 1-1.6-1.551 2.029 2.029 0 0 1 .172-2.123c0-.058 0-.058.057-.058" fill="url(#l)"/><path d="M118.291 257.592a.574.574 0 0 0 .458.287c.52.247 1.085.383 1.66.4a.65.65 0 0 0 .631-.671v-.019a.598.598 0 0 0-.287-.516c-.9-.515-3.737-2.09-4.286-5.063a6.997 6.997 0 0 1 .683-2.689c1.432-3.1 4.066-3.847 6.812-2.239a14.112 14.112 0 0 1 3.493 3.158c.972 1.148 2 2.469 1.946 3.962a5.754 5.754 0 0 1-2.347 4.651 13.509 13.509 0 0 1-5.038 2.124 5.386 5.386 0 0 1-2.862-.631 3.801 3.801 0 0 1-1.6-1.552 2.008 2.008 0 0 1-.057-1.723c.226.116.512.346.8.517" fill="url(#m)"/><path d="M133.303 219.955c20.668 1 28.946 6.506 28.946 6.506a45.373 45.373 0 0 1 1.582 9.625 1.054 1.054 0 0 0-.687.212c-.949.688-1.054 1.851-.9 3.543.318 2.3 1.687 11.741 1.74 14.227h-40.07l-.105-20.52s2.953-13.751 9.491-13.592" fill="#F2EDDC"/><path d="M162.564 242.47s-9.883-4.648-3.56-17.606c-1.054-.793-10.169 2.649-13.807 5.082-.316.952-7.709 6.7-7.709 6.7s-3.018-3.47-3.33-6.627l3.071-.875-5.906-6.558c-5.853 2.538-8.751 2.644-8.805 18.087 0 0 .053 10.42.9 13.486 5.59.801 11.225 1.242 16.872 1.323 10.967 0 23.3-1.323 23.3-1.323l-1.026-11.689Z" fill="#EDCF00"/><path d="M137.503 236.563c-1.352 7.853.722 18.866.722 18.866" stroke="#AD960C" stroke-miterlimit="10"/><path d="M140.772 247.16c-7.675 0-14.753-.51-18.928-1.394l.645-3.064c7.889 1.671 27.558 1.923 40.153-.272l.534 3.084a138.308 138.308 0 0 1-22.404 1.646Z" fill="url(#n)"/><path d="M168.303 229.803a7.958 7.958 0 0 0-2.011 1.227 17.542 17.542 0 0 0-4.334 5.68c3.791 3.264 5.15 8.246 5.084 12.232a5.898 5.898 0 0 1-.5 2.751 8.206 8.206 0 0 1-1.829 1.816c-1.36 1.06-2.9 2.029-4.536 3.056-.333.208-.661.42-.991.626 2.888 1.53 5.409 4.07 7.67 6.245 1.209-.778 2.425-1.594 3.601-2.51a16.124 16.124 0 0 0 4.162-4.486 14.862 14.862 0 0 0 1.79-7.344 25.096 25.096 0 0 0-8.1-19.293" fill="#FF8F66"/><path d="M173.869 256.075c-1.186 2.022-3.04 3.1-4.356 4.126-1.227.956 1.482-1.948.221-1.14.334.223-3.326 4.23-2.98 4.445 1.241-.8 2.489-1.632 3.7-2.572a16.15 16.15 0 0 0 4.161-4.486 14.863 14.863 0 0 0 1.791-7.344 27.66 27.66 0 0 0-.121-3.047c.125 5.894-1.485 8.432-2.412 10.019" fill="#FB7E51"/><path d="M168.303 229.803a7.946 7.946 0 0 0-2.012 1.227 17.525 17.525 0 0 0-4.333 5.68c3.791 3.264 5.149 8.246 5.083 12.232a5.898 5.898 0 0 1-.5 2.751 8.248 8.248 0 0 1-1.829 1.816c-1.36 1.06-2.9 2.029-4.536 3.056-.333.208-.662.42-.992.626 2.888 1.53 5.41 4.07 7.67 6.245 1.209-.778 2.425-1.594 3.6-2.51a16.143 16.143 0 0 0 4.163-4.486 14.885 14.885 0 0 0 1.791-7.344 25.082 25.082 0 0 0-8.1-19.293" fill="url(#o)"/><path d="M164.439 226.844c-1.493-.554-4.252 8.684-1.845 11.462 1.567 1.097 3.104 4.325 3.925 6.767.043-.023 6.407-1.242 8.936-3.088-1.231-7.09-6.551-13.488-11.016-15.141Z" fill="#F2EDDC"/><path d="M160.593 225.592c-1.585-.188-3.83 8.267-.843 10.4 1.78.7 4.028 3.477 5.4 5.658.038-.033 5.916-2.717 7.945-5.1-2.853-6.603-7.772-10.396-12.502-10.958Z" fill="#F2EDDC"/><path d="m116.64 209.469-1.744-12.019-.08-.157-.2-1.777-.227-1.566h.05l-.382-3.393-.1-.9c-.15-1.834.077-3.68.668-5.424a11.16 11.16 0 0 0 1.073 1.7l.049.062c.121.155.246.306.377.456l.089.101c.123.136.25.27.383.399l.122.117a8.17 8.17 0 0 0 .55.484c.135.111.274.219.419.324.055.041.111.08.168.12 2.324 2.115 25.235 2.967 33.908 3.9 5.16.556 14.532.118 14.985.649.294.344.323 9.126.438 9.564 1.9 7.231 1.44 8.434-.666 15.605v.011l.007.713c-7.1 6.788-15.737 13.275-26.549 13.121-5.746.111-10.449-.952-14.058-3.189a19.988 19.988 0 0 1-7.913-10.868 27.613 27.613 0 0 1-.609-2.85l-.758-5.183Z" fill="#FF8F66"/><path d="M162.797 206.89c0-8.127-4.039-11.673-15.474-11.673-8.491 0-30.8-.148-32.707.3 0 0-1-15.432-.244-21.777.019-.032 13.86-9.709 13.874-9.738-.093-.05 12.123-2.9 16.267-2.2l18.924-3.458c16.162-.712 19.854 14.276 19.485 19.648l-1.954 13.312a10.612 10.612 0 0 1-5.451 19.741h-.013c-.888 0-1.773-.113-2.633-.336a69.23 69.23 0 0 1-6.38 7.753l-3.366 3.065c.003-6.667-.328-7.159-.328-14.637Z" fill="url(#p)"/><path d="M114.148 172.427ZM112.753 183.61ZM147.73 147.46c-.506.006-1.012.014-1.531.039.519-.025 1.025-.031 1.531-.039ZM125.242 181.015a9.576 9.576 0 0 1-.176-.235l.2.232-.024.003Z" fill="#2B154D"/><path d="M109.286 199.505a10.565 10.565 0 0 1 4.773-8.948l.383 3.393h-.051l.227 1.565.2 1.778.08.157 1.744 12.018a10.605 10.605 0 0 1-7.356-9.963Z" fill="url(#q)"/><path d="m118.306 188.29.2.119c.154.09.314.176.478.259a8.856 8.856 0 0 0 .734.336l.236.1c.181.069.37.132.561.193.083.026.163.054.247.078.2.058.409.109.62.158.082.019.163.04.247.058.225.046.46.085.7.12.078.012.153.026.232.036.264.034.539.058.817.078.059 0 .114.011.173.014.341.02.693.027 1.056.023a18.26 18.26 0 0 0 2.3-.179c-5.558-3.655-5.331-9.8-4.493-13.657.098.385.22.764.366 1.133.153.374.327.739.521 1.093.168 4.024 1.435 9.04 7 12.448-6.288.9-10.13-.589-12.455-2.7h.008c.148.099.299.196.452.29Z" fill="url(#r)"/><path d="M114.373 183.715ZM117.266 187.55ZM116.717 187.064ZM115.746 185.991ZM116.213 186.546ZM122.323 189.707ZM123.547 189.835ZM123.374 189.821ZM118.506 188.409ZM117.861 187.998ZM119.201 188.777ZM120.514 189.294ZM121.38 189.529Z" fill="#2B154D"/><path d="M127.477 183.965a13.394 13.394 0 0 0 9.134 5.155c1.22.099 2.445.12 3.669.064a40.848 40.848 0 0 1 7.875.416 16.806 16.806 0 0 1 7.254 2.945c-.834-3.074-3.499-5.379-6.432-6.6a15.829 15.829 0 0 0-7.142-1.166c-2.605.183-5.357.989-7.731-.1" fill="url(#s)"/><path d="M181.753 191.817a10.486 10.486 0 0 0-6.082-1.985h-.075a10.459 10.459 0 0 0-4.4.958 6.512 6.512 0 0 0-6.307-3.645 10.38 10.38 0 0 0-2.414.279c-.1-.1-10.4-10.2-12.063-10.653a19.186 19.186 0 0 0-5.123-.586h-.036a28.059 28.059 0 0 0-5.036.431c-.4.074-.806.159-1.2.242-.815.188-1.641.331-2.472.428-.428.042-.883.062-1.389.062-.585 0-1.172-.028-1.669-.055a16.945 16.945 0 0 1-6.256-1.241 12.68 12.68 0 0 1-3.617-2.875 14.615 14.615 0 0 0-3.145-2.648 14.03 14.03 0 0 0-1.352-.655c-1.5-.657-2.252-.982-1.294-3.72 1.047-3 3.585-6.321 7.542-9.879a34.206 34.206 0 0 1 22.79-8.758c1.123 0 2.245.057 3.362.169a.914.914 0 0 0 .128.006c.127-.002.253-.013.378-.033.076-.01.154-.02.231-.027-.546-.052-1.1-.094-1.658-.125.192.007.353.014.512.025a3.654 3.654 0 0 1 1.506-1.357 9.338 9.338 0 0 1 3.126-.731l2.7-.314.113-.013 2.587-.3a4.757 4.757 0 0 1-3.906 2.822 14.961 14.961 0 0 0 5.151-.472 6.51 6.51 0 0 1-1.353 2.43 33.028 33.028 0 0 1 9.145 5.111 35.009 35.009 0 0 1 6.583 6.873 35.922 35.922 0 0 1 4.17 7.43 28.155 28.155 0 0 1 1.906 6.78 28.477 28.477 0 0 1-.2 6.76l-.04.364c-.1 2.981-.38 5.953-.84 8.9l-.003.002Z" fill="url(#t)"/><path d="M177.828 199.865a2.657 2.657 0 0 0 .214-4.921 4.252 4.252 0 0 0-3.323-.073c-2.31.923-2.927 2.463-2.9 5.107a6.378 6.378 0 0 0 1.571 4.162v-.423c-.068-1.693 2.343-3.092 4.443-3.853" fill="#FF8F66"/><path d="M139.181 221.082a5.599 5.599 0 0 1-5.589-5.606h11.23a5.578 5.578 0 0 1-5.551 5.606h-.091" fill="#fff"/><path d="m180.827 168.696-31.364-4.649-8.092-.327-32.144-2.169-.147 17.19c0 8.567 7.065 13.909 15.606 13.909h31.664v-6.344a14.46 14.46 0 0 0 1.766 2.159c2.658 2.682 10.919 4.185 10.919 4.185 1.884-2.622 6.857-3.886 10.07-3.637l-1.455-.966c1.626 0 3.177-19.351 3.177-19.351Z" fill="url(#u)"/><path d="M149.265 196.521a4.27 4.27 0 0 1 3.047 1.243 4.285 4.285 0 0 1 1.262 3.04v3.331a4.31 4.31 0 0 1-8.619 0v-3.331a4.31 4.31 0 0 1 4.31-4.283Z" fill="#2E3033"/><path d="M129.792 196.521a4.27 4.27 0 0 1 3.047 1.243 4.27 4.27 0 0 1 1.262 3.04v3.331a4.309 4.309 0 1 1-8.619 0v-3.331a4.346 4.346 0 0 1 4.31-4.283Z" fill="#262223"/><path d="M146.861 169.325c-23.832 0-43.183 2.486-43.183 5.5v.106a3.121 3.121 0 0 0 3.111 3.12c.284-.009.566-.044.844-.106h.053a100.371 100.371 0 0 1 16.081-2.327c6.7-.529 14.605-.846 23.041-.846s16.4.317 23.041.846c5.414.34 10.792 1.118 16.081 2.327l.158.053a3.112 3.112 0 0 0 2.358-.326 3.115 3.115 0 0 0 1.442-1.895c.061-.26.096-.526.105-.793v-.106c-.001-3.067-19.298-5.553-43.132-5.553Z" fill="#FFF100"/><path d="M189.993 179.056v-4.231c0-2.909-18.032-5.342-40.757-5.5h-2.478c-23.727 0-43.077 2.486-43.077 5.5v4.231a.918.918 0 0 0 .158.74c.053-.053.158-.106.211-.159a9.36 9.36 0 0 1 3.691-1.639c1.9-.476 3.8-.846 5.694-1.164a6.637 6.637 0 0 1 6.327 2.539 9.18 9.18 0 0 0 7.382 3.649h23.252a13.79 13.79 0 0 0 8.542-2.909l3.322-2.539a7.696 7.696 0 0 1 4.64-1.587c4.534.053 7.645.053 8.12.106 3.678.351 7.326.969 10.914 1.851a9.601 9.601 0 0 1 3.9 1.8.767.767 0 0 0 .159-.688Z" fill="#FFF100"/><path d="M160.125 129.921a39.623 39.623 0 0 1 26.258 37.391v5.606c-3.585-1.058-9.6-1.9-17.136-2.486.053-1.058.053-2.168.053-3.279.054-14.702-3.533-28.03-9.175-37.232Z" fill="url(#v)"/><path d="M107.293 167.311a39.61 39.61 0 0 1 9.016-25.227 82.637 82.637 0 0 0-3.744 25.121c0 1.534.053 3.067.105 4.6a36.852 36.852 0 0 0-5.325 1.164l-.052-5.658Z" fill="url(#w)"/><path d="M116.309 142.084a39.493 39.493 0 0 1 43.815-12.164c5.642 9.255 9.227 22.53 9.227 37.285 0 1.111 0 2.168-.053 3.279-5.905-.476-12.707-.74-19.983-.793h-2.425c-13.92 0-26.258.846-34.166 2.115a67.291 67.291 0 0 1-.158-4.6 82.642 82.642 0 0 1 3.743-25.122Z" fill="#FFF100"/><path d="m130.936 144.676 2.531-15.707a2.956 2.956 0 0 1 2.109-2.433 39.7 39.7 0 0 1 22.356-.053 2.958 2.958 0 0 1 2.109 2.433l2.531 15.76" fill="#FFF100"/><path d="M140.826 169.636v-7.3l9.122-5.606-9.122 12.906Z" fill="#F9C838"/><path d="m131.705 156.732 9.122 5.606v7.3l-9.122-12.906Z" fill="#F9C838"/><path d="m131.703 156.732 9.122 5.608v7.3l-9.122-12.908Zm0-3.385 9.122-14.753v20.1l-9.122-5.347Z" fill="#0A0A0A"/><path d="m140.826 162.341 9.122-5.608-9.122 12.906v-7.298Zm0-14.39v-9.358l9.122 14.756-.054-.029v.029l-9.119 5.29.051-10.688Z" fill="#4B4D4D"/><path d="m140.827 158.691-9.122-5.342 9.122 5.342Z" fill="#312D2E"/></g><g filter="url(#x)"><path d="M69.367 194.604H14.732a8.095 8.095 0 0 1-5.711-2.367 8.076 8.076 0 0 1-2.365-5.713V162.95a8.078 8.078 0 0 1 8.076-8.076h72.756a8.08 8.08 0 0 1 8.08 8.076v23.574a8.079 8.079 0 0 1-8.08 8.08h-5.415v12.706l-12.706-12.706Z" fill="#fff"/></g><path d="M69.363 194.603H14.728a8.095 8.095 0 0 1-5.711-2.367 8.076 8.076 0 0 1-2.365-5.713v-23.574a8.078 8.078 0 0 1 8.076-8.076h72.756a8.08 8.08 0 0 1 8.08 8.076v23.574a8.079 8.079 0 0 1-8.08 8.08H82.07v12.706l-12.706-12.706Z" fill="#F2F2F2" fill-opacity=".4"/><path d="M41.274 178.424h-1.281v-4.929H35.62v4.929h-1.274V167.76h1.274v4.585h4.373v-4.585h1.28v10.664Zm5.815.146a4.047 4.047 0 0 1-1.534-.286 3.49 3.49 0 0 1-1.2-.8c-.337-.35-.601-.764-.776-1.216a4.125 4.125 0 0 1-.276-1.528v-.308a4.531 4.531 0 0 1 .31-1.717 3.93 3.93 0 0 1 .817-1.282 3.56 3.56 0 0 1 1.157-.8c.418-.183.87-.279 1.326-.28a3.52 3.52 0 0 1 1.5.3c.414.187.779.468 1.066.82.29.364.507.782.634 1.231.143.5.213 1.018.209 1.538v.608h-5.664c.012.348.082.692.209 1.018.118.306.292.588.513.831a2.377 2.377 0 0 0 1.78.765 2.77 2.77 0 0 0 1.289-.293c.366-.187.686-.452.938-.776l.828.645c-.141.21-.307.404-.494.575a3.472 3.472 0 0 1-.685.487 3.897 3.897 0 0 1-.88.341c-.348.087-.707.13-1.066.127h-.001Zm-.176-7.1a2.005 2.005 0 0 0-1.435.589 2.496 2.496 0 0 0-.494.71 3.37 3.37 0 0 0-.282.97h4.263v-.1a3.017 3.017 0 0 0-.15-.784 2.174 2.174 0 0 0-.377-.7 1.87 1.87 0 0 0-.626-.5 1.966 1.966 0 0 0-.9-.189v.004Zm6.592-.967h4v7.972c.008.458-.063.914-.21 1.349a2.616 2.616 0 0 1-.607.985 2.633 2.633 0 0 1-.974.608c-.42.145-.863.216-1.307.209-.278 0-.538-.009-.78-.026a7.29 7.29 0 0 1-.765-.1l.1-1.113c.083.014.188.028.315.04a11.729 11.729 0 0 0 .759.044h.282c.243.001.484-.033.718-.1.219-.063.42-.177.586-.333.173-.173.305-.383.385-.614.103-.306.151-.627.143-.948v-6.8h-2.644l-.001-1.173Zm2.454-2.087a.83.83 0 0 1 .2-.56.751.751 0 0 1 .608-.231.771.771 0 0 1 .615.231c.136.154.21.354.205.56a.79.79 0 0 1-.205.553.813.813 0 0 1-.615.223.781.781 0 0 1-.608-.223.802.802 0 0 1-.2-.557v.004Zm9.412 6.558h-1.358v-7.214h1.362l-.004 7.214Zm-1.494 2.74a.847.847 0 0 1 .209-.586.793.793 0 0 1 .626-.234.814.814 0 0 1 .634.234.83.83 0 0 1 .216.586.784.784 0 0 1-.216.564.843.843 0 0 1-.633.227.807.807 0 0 1-.626-.227.801.801 0 0 1-.21-.564Z" fill="#6E6F70"/><path d="M448.557 358.262c27.614 0 50-22.386 50-50 0-27.615-22.386-50-50-50-27.615 0-50 22.385-50 50 0 27.614 22.385 50 50 50Z" fill="#fff" stroke="#D1BFE6" stroke-width="1.025"/><mask id="y" style="mask-type:alpha" maskUnits="userSpaceOnUse" x="403" y="262" width="92" height="92"><path d="M448.557 353.262c24.852 0 45-20.147 45-45s-20.148-45-45-45c-24.853 0-45 20.147-45 45s20.147 45 45 45Z" fill="#fff" stroke="#D1BFE6" stroke-width="1.025"/></mask><g mask="url(#y)"><path d="M416.873 304.37s10.069-1.494 15.4-1.919c5.114-.413 11.175-.656 17.673-.656 6.498 0 12.559.243 17.673.656 5.32.425 15.341 2.49 15.341 2.49v2.429c0 2.32-14.758 4.385-33.026 4.385-18.268 0-33.063-1.883-33.063-4.191l.002-3.194Z" fill="#363233"/><path d="M425.037 342.534h42.658a9.9 9.9 0 0 0 9.9-9.9v-26.9h-52.558v36.8Z" fill="url(#z)"/><path d="M431.668 353.638c-2.854-.131-5.314-1.49-7.684-2.979 1.317-5.388 6.85-9.636 11.767-8.979-.306.963-1.493 8.979-1.493 8.979s-2.634.788-2.591 2.979" fill="#F2EDDC"/><path d="M433.539 357.074a5.74 5.74 0 0 1-1.828-3.57 17.358 17.358 0 0 1-7.6-3.285 9.57 9.57 0 0 0-.439 2.5c.006.031.014.061.022.092-.114 3.838 2.238 7.548 9.152 10.676.436.3.865.6 1.278.929.178-2.285-.278-7.035-.585-7.342Z" fill="url(#A)"/><path d="M441.777 336.838c15.854.765 22.2 4.963 22.2 4.963a34.415 34.415 0 0 1 1.213 7.343.813.813 0 0 0-.527.162c-.728.525-.809 1.412-.688 2.7.244 1.754 1.294 8.957 1.334 10.853h-30.736l-.081-15.654s2.265-10.491 7.28-10.369" fill="#F2EDDC"/><path d="M464.324 353.965s-7.444-3.618-2.59-13.5c-.808-.6-7.8 2.021-10.591 3.877-.243.727-5.913 5.115-5.913 5.115s-2.315-2.647-2.554-5.055l2.355-.668-4.53-5c-4.49 1.936-6.714 2.017-6.755 13.8 0 0 .041 7.949.688 10.288 4.288.611 8.611.948 12.942 1.009 8.412 0 17.876-1.009 17.876-1.009l-.928-8.857Z" fill="#EDCF00"/><path d="M445.307 348.777c-1.037 5.991.245 15.122.245 15.122" stroke="#AD960C" stroke-miterlimit="10"/><path d="M447.986 357.164a80.045 80.045 0 0 1-14.519-1.064l.495-2.337c6.052 1.275 21.139 1.467 30.8-.207l.41 2.353a106.669 106.669 0 0 1-17.186 1.255Z" fill="url(#B)"/><path d="M468.627 344.352a6.068 6.068 0 0 0-1.543.936 13.395 13.395 0 0 0-3.324 4.334 12.123 12.123 0 0 1 3.9 9.331c.042.72-.09 1.441-.387 2.099-.391.533-.863 1-1.4 1.386-1.043.809-2.227 1.548-3.479 2.331l-.761.478a28.003 28.003 0 0 1 5.885 4.763 37.437 37.437 0 0 0 2.761-1.914 12.34 12.34 0 0 0 3.193-3.422 11.307 11.307 0 0 0 1.374-5.6 19.087 19.087 0 0 0-6.214-14.718" fill="#FF8F66"/><path d="M468.627 344.353a6.068 6.068 0 0 0-1.543.936 13.395 13.395 0 0 0-3.324 4.334 12.12 12.12 0 0 1 3.9 9.33 4.471 4.471 0 0 1-.388 2.1c-.391.533-.864 1-1.4 1.385-1.044.809-2.228 1.549-3.48 2.332l-.761.478a28.024 28.024 0 0 1 5.884 4.762c.928-.593 1.86-1.215 2.761-1.913a12.34 12.34 0 0 0 3.193-3.422 11.306 11.306 0 0 0 1.373-5.6 19.101 19.101 0 0 0-6.213-14.718" fill="url(#C)"/><path d="M466.655 343.132c-1.153-.408-4.264 5.501-2.391 7.601 1.213.822 2.424 3.268 3.078 5.122.033-.018 4.885-1.018 6.806-2.45-1.013-5.397-4.051-9.053-7.493-10.273Z" fill="#F2EDDC"/><path d="M462.715 341.14c-1.216-.144-2.938 6.307-.646 7.935 1.365.533 3.089 2.653 4.139 4.316.029-.025 4.538-2.073 6.094-3.894-2.187-5.035-5.961-7.929-9.587-8.357Z" fill="#F2EDDC"/><path d="M428.74 331.079a7.156 7.156 0 0 1-5.251-12.126 7.154 7.154 0 0 1 12.296 4.838v.109a7.094 7.094 0 0 1-2.034 5.05 7.097 7.097 0 0 1-5.011 2.129Z" fill="#FB7E51"/><path d="M425.23 322.48c0 14.406 10.324 22.884 23.078 22.884s23.078-8.5 23.078-22.884-10.325-29.309-23.078-29.309-23.078 14.855-23.078 29.309Z" fill="#FB7E51"/><path d="M426.697 323.695h28.617a7.068 7.068 0 0 1 7.069 7.057v10.41a24.28 24.28 0 0 1-14.1 4.227c-9.875 0-18.293-5.1-21.584-14.114v-7.579l-.002-.001Z" fill="#FF8F66"/><path d="M452.004 319.54h-17.289c-6.667 0-12.193-4.176-12.193-10.822l-1.846-13.492 22.153 1.845 5.059 10.041 29.681-5.7v18.134h-25.565v-.006Z" fill="url(#D)"/><path d="M469.273 331.079a7.158 7.158 0 0 1-6.672-4.31 7.153 7.153 0 1 1 13.717-2.978v.109a7.109 7.109 0 0 1-7.045 7.179Z" fill="#FB7E51"/><path d="M452.729 323.112a3.299 3.299 0 0 1 3.292 3.28v2.551a3.315 3.315 0 0 1-3.292 3.292 3.299 3.299 0 0 1-3.28-3.292v-2.551a3.264 3.264 0 0 1 .945-2.318 3.256 3.256 0 0 1 2.31-.962h.025ZM437.96 323.112a3.275 3.275 0 0 1 2.319.961 3.28 3.28 0 0 1 .961 2.319v2.551a3.302 3.302 0 0 1-3.28 3.292 3.3 3.3 0 0 1-3.28-3.292v-2.551a3.244 3.244 0 0 1 .944-2.318 3.26 3.26 0 0 1 2.311-.962h.025Z" fill="#29221D"/><path d="M445.588 339.486a4.324 4.324 0 0 1-4.324-4.324h8.624a4.298 4.298 0 0 1-2.641 3.991 4.296 4.296 0 0 1-1.647.333h-.012Z" fill="#fff"/><path d="M471.047 324.752a2.026 2.026 0 0 0 1.385-1.827 2.027 2.027 0 0 0-1.203-1.951 3.207 3.207 0 0 0-2.526-.1c-1.773.692-2.271 1.846-2.271 3.887a4.943 4.943 0 0 0 1.215 3.182v-.328c-.061-1.26 1.785-2.304 3.4-2.863Z" fill="#FF8F66"/><path d="M449.887 299.754c-18.22 0-33.075 1.883-33.075 4.2v.085a2.43 2.43 0 0 0 2.429 2.429c.219-.003.436-.036.644-.1h.062a74.178 74.178 0 0 1 12.299-1.773c5.114-.413 11.175-.644 17.673-.644 6.498 0 12.559.231 17.673.644 4.143.247 8.257.84 12.3 1.773h.109a2.432 2.432 0 0 0 2.916-1.7c.048-.199.073-.403.073-.607v-.085c-.028-2.339-14.774-4.222-33.103-4.222Z" fill="#FFF100"/><path d="M482.963 307.176v-3.243c0-2.235-13.823-4.069-31.228-4.19h-1.846c-18.22 0-33.075 1.871-33.075 4.19v3.243a.772.772 0 0 0 .121.547l.146-.134a6.868 6.868 0 0 1 2.83-1.215 40.667 40.667 0 0 1 4.36-.887 5.135 5.135 0 0 1 4.859 1.956 7.138 7.138 0 0 0 5.66 2.794h17.831a10.754 10.754 0 0 0 6.559-2.223l2.551-1.943a5.795 5.795 0 0 1 3.559-1.215c3.474 0 5.855 0 6.219.085 2.815.268 5.608.739 8.357 1.409a7.647 7.647 0 0 1 2.976 1.36.785.785 0 0 0 .121-.534Z" fill="#FFF100"/><path d="M460.055 269.656a30.366 30.366 0 0 1 20.139 28.532v4.288a72.88 72.88 0 0 0-13.13-1.858v-2.49c.048-11.285-2.673-21.415-7.009-28.472Z" fill="url(#E)"/><path d="M419.631 298.187a30.16 30.16 0 0 1 6.911-19.276 62.927 62.927 0 0 0-2.867 19.179c0 1.215.11 2.301.195 3.455-1.376.208-2.849.551-4.191.917l-.048-4.275Z" fill="url(#F)"/><path d="M426.492 278.935a30.367 30.367 0 0 1 33.561-9.28c4.336 7.057 7.057 17.187 7.057 28.459v2.49c-4.506-.352-9.717-.571-15.329-.607h-1.846a176.279 176.279 0 0 0-26.176 1.628c0-1.154-.085-2.332-.085-3.51a62.967 62.967 0 0 1 2.818-19.18Z" fill="#FFF100"/><path d="m437.693 280.94 1.931-12.013a2.304 2.304 0 0 1 1.616-1.858 30.296 30.296 0 0 1 17.151 0 2.326 2.326 0 0 1 1.628 1.858l1.919 12.013M445.26 299.986v-5.577l6.972-4.3-6.972 9.877ZM438.287 290.109l6.972 4.3v5.575l-6.972-9.875Z" fill="#FFF100"/><path d="m445.259 283.539-6.972 4.033 6.972-11.248v7.215ZM445.26 276.324l6.972 11.284-6.972-4.033v-7.251Z" fill="#FFF100"/><path d="M445.259 283.539v8.065l-6.972-4.033 6.972-4.032Z" fill="#FFF100"/><path d="m438.289 290.11 6.972 4.3v5.576l-6.972-9.876Zm0-2.538 6.972-4.033v8.066l-6.972-4.033Zm6.972-11.247v7.215l-6.972 4.033 6.972-11.248Z" fill="#0A0A0A"/><path d="m452.232 287.572-6.972 4.033v-8.065l6.972 4.032Z" fill="#FFF100"/><path d="m445.26 294.409 6.972-4.3-6.972 9.875v-5.575Zm0-10.832v-7.252l6.938 11.229.034.02-.016.009.016.026-.03-.018-6.942 4.016v-8.03Z" fill="#6E6F70"/></g><g filter="url(#G)"><path d="M393.361 316.769h-81.137a6.161 6.161 0 0 1-6.162-6.162v-15.4c0-.809.16-1.61.47-2.357a6.146 6.146 0 0 1 3.335-3.334 6.149 6.149 0 0 1 2.357-.469h93.159a6.159 6.159 0 0 1 5.693 3.803c.31.747.47 1.548.47 2.357v15.4a6.165 6.165 0 0 1-6.163 6.162h-3.155v8.867l-8.867-8.867Z" fill="#fff"/></g><path d="M393.357 316.773h-81.136a6.161 6.161 0 0 1-6.162-6.161v-15.4a6.157 6.157 0 0 1 6.162-6.16h93.159a6.157 6.157 0 0 1 4.357 1.803 6.176 6.176 0 0 1 1.805 4.357v15.4a6.166 6.166 0 0 1-6.162 6.161h-3.156v8.868l-8.867-8.868Z" fill="#F2F2F2" fill-opacity=".4"/><path d="M333.412 305.892v-6.4h1.9c.261.001.521.035.773.1.241.062.468.167.671.31.196.136.356.317.47.527.123.237.181.502.171.769a1.314 1.314 0 0 1-.292.828 1.51 1.51 0 0 1-.314.288c-.12.082-.248.152-.382.211.166.047.323.119.468.213a1.497 1.497 0 0 1 .607.776c.059.171.088.351.086.532a1.67 1.67 0 0 1-.171.791 1.714 1.714 0 0 1-.47.573 2.163 2.163 0 0 1-.673.355 2.714 2.714 0 0 1-.8.127h-2.044Zm.817-2.993v2.3h1.253c.165-.003.328-.032.483-.086.147-.05.283-.125.404-.221.118-.098.213-.219.279-.356.07-.15.104-.314.1-.479a1.125 1.125 0 0 0-.09-.483 1.028 1.028 0 0 0-.261-.358 1.168 1.168 0 0 0-.388-.224 1.585 1.585 0 0 0-.483-.088l-1.297-.005Zm0-.677h1.134a1.62 1.62 0 0 0 .448-.073c.141-.044.273-.111.391-.2.114-.086.208-.195.277-.319a.884.884 0 0 0 .106-.438.937.937 0 0 0-.1-.457.897.897 0 0 0-.277-.31 1.18 1.18 0 0 0-.4-.178 1.988 1.988 0 0 0-.467-.055h-1.112v2.03Zm4.72-1.085h2.43v4.055h1.551v.7h-3.981v-.7h1.617v-3.347h-1.617v-.708Zm1.507-1.245a.5.5 0 0 1 .121-.341.452.452 0 0 1 .367-.138.46.46 0 0 1 .365.138c.084.093.13.215.127.341a.465.465 0 0 1-.123.33.482.482 0 0 1-.365.132.478.478 0 0 1-.367-.132.47.47 0 0 1-.125-.33Zm5.867 6.088a2.44 2.44 0 0 1-.921-.171 2.099 2.099 0 0 1-1.185-1.208 2.49 2.49 0 0 1-.161-.919v-.19a2.709 2.709 0 0 1 .185-1.031c.112-.286.278-.547.49-.769.197-.205.433-.369.694-.481.252-.111.525-.167.8-.167.31-.007.617.053.9.178.248.112.467.28.639.492.175.218.304.47.38.74.086.3.128.611.125.923v.365h-3.4c.007.209.049.415.125.611.071.184.175.354.308.5.132.142.291.257.468.336.189.083.394.125.6.123.268.005.534-.056.773-.176.22-.112.412-.272.563-.466l.5.387a2.055 2.055 0 0 1-.711.637 2.317 2.317 0 0 1-.527.2 2.55 2.55 0 0 1-.645.086Zm-.105-4.263a1.212 1.212 0 0 0-.866.354 1.48 1.48 0 0 0-.3.426c-.085.184-.142.38-.169.582h2.558v-.062a1.793 1.793 0 0 0-.09-.47 1.3 1.3 0 0 0-.226-.417 1.13 1.13 0 0 0-.376-.3 1.175 1.175 0 0 0-.531-.113Zm4.135-.58.057.7c.165-.24.383-.437.637-.578a1.74 1.74 0 0 1 .844-.213c.231-.003.46.032.679.105.198.066.376.179.521.33.152.162.265.357.332.569.083.265.122.542.116.82v3.022h-.813v-3a1.776 1.776 0 0 0-.07-.538.81.81 0 0 0-.547-.556 1.518 1.518 0 0 0-.459-.062 1.27 1.27 0 0 0-.719.2c-.206.136-.376.32-.494.538v3.418h-.813v-4.755h.729Zm6.535 3.586.075.294.079-.294 1.332-3.586h.831l-1.94 4.755h-.62l-1.955-4.755h.835l1.363 3.586Zm5.638 1.257a2.44 2.44 0 0 1-.921-.171 2.099 2.099 0 0 1-1.185-1.208 2.49 2.49 0 0 1-.164-.919v-.19a2.709 2.709 0 0 1 .185-1.031c.112-.286.278-.547.49-.769.197-.205.433-.369.694-.481.252-.111.525-.167.8-.167.31-.007.617.053.9.178.248.112.467.28.639.492.175.218.304.47.38.74.086.3.128.611.125.923v.365h-3.4c.007.209.049.415.125.611.071.184.175.354.308.5.132.142.291.257.468.336.189.083.394.125.6.123.268.005.534-.056.773-.176.22-.112.412-.272.563-.466l.5.387a2.055 2.055 0 0 1-.711.637 2.317 2.317 0 0 1-.527.2 2.527 2.527 0 0 1-.642.086Zm-.105-4.263a1.212 1.212 0 0 0-.866.354 1.48 1.48 0 0 0-.3.426c-.085.184-.142.38-.169.582h2.558v-.062a1.793 1.793 0 0 0-.09-.47 1.3 1.3 0 0 0-.226-.417 1.13 1.13 0 0 0-.376-.3 1.164 1.164 0 0 0-.532-.113h.001Zm4.135-.58.057.7c.165-.24.383-.437.637-.578a1.74 1.74 0 0 1 .844-.213c.231-.003.46.032.679.105.198.066.376.179.521.33.152.162.265.357.332.569.083.265.122.542.116.82v3.022h-.813v-3a1.763 1.763 0 0 0-.07-.536.81.81 0 0 0-.547-.556 1.518 1.518 0 0 0-.459-.062 1.27 1.27 0 0 0-.719.2c-.206.136-.376.32-.494.538v3.416h-.814v-4.755h.73Zm4.8 0h2.43v4.055h1.55v.7h-3.98v-.7h1.617v-3.347h-1.617v-.708Zm1.51-1.245a.5.5 0 0 1 .121-.341.452.452 0 0 1 .367-.138.46.46 0 0 1 .365.138.49.49 0 0 1 .123.341.465.465 0 0 1-.123.33.482.482 0 0 1-.365.132.478.478 0 0 1-.367-.132.474.474 0 0 1-.121-.33Zm3.608 3.586a3.4 3.4 0 0 1 .134-.978c.079-.277.209-.537.382-.767.161-.21.365-.38.6-.5.244-.123.514-.184.787-.18.256-.006.51.043.745.143.213.095.402.237.552.415v-2.469h.813v6.75h-.747l-.035-.5a1.565 1.565 0 0 1-.567.439 1.863 1.863 0 0 1-.769.149 1.654 1.654 0 0 1-.78-.185 1.81 1.81 0 0 1-.6-.51 2.484 2.484 0 0 1-.382-.767 3.226 3.226 0 0 1-.136-.951l.003-.089Zm.813.092c-.001.221.024.443.075.659.045.195.123.38.231.549.101.155.239.284.4.376.178.096.378.143.58.138a1.39 1.39 0 0 0 .374-.048 1.135 1.135 0 0 0 .542-.352c.072-.086.134-.18.185-.279v-2.21a1.356 1.356 0 0 0-.426-.477 1.13 1.13 0 0 0-.668-.187 1.146 1.146 0 0 0-.587.141 1.164 1.164 0 0 0-.4.38c-.108.17-.186.357-.231.554a2.822 2.822 0 0 0-.075.661v.095Zm4.513-.1a2.954 2.954 0 0 1 .149-.956c.092-.281.237-.542.428-.767.187-.218.419-.392.679-.512a2.1 2.1 0 0 1 .9-.187c.312-.005.622.059.907.187.261.119.494.294.681.512.191.225.336.486.428.767.102.308.152.631.149.956v.1c.003.324-.047.646-.149.954-.092.28-.237.539-.428.765a1.971 1.971 0 0 1-.679.51c-.283.126-.59.189-.9.185a2.16 2.16 0 0 1-.909-.192 1.988 1.988 0 0 1-.681-.51 2.31 2.31 0 0 1-.428-.765 2.946 2.946 0 0 1-.149-.954l.002-.093Zm.813.1c-.001.226.027.451.083.67.05.2.136.389.253.56.11.158.255.289.424.382.182.097.387.145.593.141a1.19 1.19 0 0 0 1.012-.525c.117-.171.203-.36.253-.56.056-.219.084-.444.083-.67v-.1a2.536 2.536 0 0 0-.086-.666 1.766 1.766 0 0 0-.255-.56 1.265 1.265 0 0 0-.422-.385 1.172 1.172 0 0 0-.591-.143 1.165 1.165 0 0 0-.589.143 1.269 1.269 0 0 0-.42.385c-.117.17-.203.359-.253.56a2.62 2.62 0 0 0-.083.666l-.002.102Z" fill="#6E6F70"/><path d="M285.119 207.158c56.885 0 103-46.114 103-103 0-56.885-46.115-103-103-103s-103 46.115-103 103c0 56.886 46.115 103 103 103Z" fill="#fff" stroke="#D1BFE6"/><mask id="H" style="mask-type:alpha" maskUnits="userSpaceOnUse" x="186" y="5" width="198" height="198"><path d="M285.119 202.158c54.124 0 98-43.876 98-98s-43.876-98-98-98-98 43.876-98 98 43.876 98 98 98Z" fill="#fff" stroke="#D1BFE6"/></mask><g mask="url(#H)"><path d="M356.782 98.338s-20.694-3.041-31.674-3.97c-10.474-.845-22.974-1.351-36.32-1.351s-25.846.507-36.32 1.35c-10.98.846-31.505 5.153-31.505 5.153v4.983c0 4.73 30.323 9.038 67.825 9.038s67.994-3.885 67.994-8.615v-6.588Z" fill="url(#I)"/><path d="M339.985 203.684h-87.674a20.368 20.368 0 0 1-20.356-20.356v-82.184h108.03v102.54Z" fill="url(#J)"/><path d="M327.154 202.759c5.405-.264 10.135-3.6 14.612-6.585-2.45-10.622-17.836-20.288-27.127-18.97.591 1.93 6.433 18.005 6.433 18.005s6 1.932 6.082 7.55" fill="#F2EDDC"/><path d="M327.152 202.757c0 1.664-.76 2.985-3.211 5.619-.59.614-1.435 10.186-.759 13.96 17.568-7.727 20.947-17.3 18.328-26.953-4.053 3.337-9.122 6.5-14.358 7.374" fill="#FB7E51"/><path d="M332.219 216.54a35.302 35.302 0 0 0 5.152-5 25.946 25.946 0 0 0 4.983-11.149 22.876 22.876 0 0 0-.76-4.829c-4.223 3.336-9.207 6.495-14.443 7.287-.338 1.579-.76 2.983-3.21 5.617-.591.614-1.689 10.536-1.267 15.013 2.872-2.458 6.166-4.214 9.207-6.409.07-.199.186-.38.338-.527" fill="#FF8F66"/><path d="M300.615 172.083c-32.6 1.52-33.11 6.166-33.11 6.166-4.169 3.952-11.808 16.506-7.179 15.035s7.312-.458 7.628-.221c1.436 1.1 1.2 4.323.95 6.942a49.64 49.64 0 0 1-2.7 10.558c0 3.885-1.958 7.047-2.042 11.017l58-.084s.421-19.68.591-26.269" fill="#F2EDDC"/><path d="M268.424 201.848c5.02-1.137 13.916-14.583.641-26.789-1.554-1.429 15.457 2.872 21.2 6.757.507 1.437 10.755 10.86 10.755 10.86s5.452-9.715-.817-19.286c6.81-1.208 19.17.257 24.24 21.1.372 1.529-2.532 7.557-2.416 9.3 0 0 2.848 12.642 1.581 17.457a189.97 189.97 0 0 1-25.065 1.96c-17.231 0-36.658-2.028-36.658-2.028a52.682 52.682 0 0 1 6.539-19.331Z" fill="#EDCF00"/><path d="M301.02 191.515c2.716 12.544 0 31.774 0 31.774" stroke="#AD960C" stroke-miterlimit="10"/><path d="M297.744 208.719a212.174 212.174 0 0 1-34.859-2.71l.856-4.926c20.772 3.607 47.9 3.249 60.206.653l1.033 4.892c-6.267 1.322-16.213 2.091-27.236 2.091Z" fill="url(#K)"/><path d="M243.525 189.079c-1.507 2-2.39 4.401-2.539 6.9.082 0 .082.082.164.082a15.527 15.527 0 0 0 8.6 3.734 56.81 56.81 0 0 0 6.471.162c-.164-5.44 5.144-8.374 10.875-7.237.737-3.329 1.55-15.639 1.55-15.639s-17.421-.264-25.12 12" fill="#F2EDDC"/><path d="M264.491 210.31c.025-.066.064-.133.085-.2l-.024-.014c.008-.023.013-.046.02-.068-5.825-3.193-8.207-6.741-8.354-9.979a7.427 7.427 0 0 1 0-.578v-.082a29.719 29.719 0 0 1-12.688-2.437v.033a29.48 29.48 0 0 1-2.543-1.249c-.9 7.635 4.259 16.241 10.4 19.815a5.66 5.66 0 0 0 2.5.688.873.873 0 0 1-.269.509l-.02.019a.877.877 0 0 1-.573.242h-.328c0 .326 6.552 3.493 10.32 4.143a34.488 34.488 0 0 1 1.474-10.842Z" fill="url(#L)"/><path d="M247.755 153.181a14.533 14.533 0 0 1-13.1-14.619v-.254a14.752 14.752 0 0 1 11.206-14.037c4.465-25.677 23.532-49.057 46.4-49.057 23.156 0 42.411 23.973 46.558 50.021a14.705 14.705 0 0 1 8.484 14.33 14.7 14.7 0 0 1-10.339 13.055c-6.491 19.15-24.045 30.031-44.7 30.031-20.454.001-37.866-10.669-44.509-29.47Z" fill="url(#M)"/><path d="M332.947 137.971h-55.208a14.532 14.532 0 0 0-10.273 4.255 14.52 14.52 0 0 0-4.255 10.273v21.454a49.97 49.97 0 0 0 28.971 8.7c20.272 0 38.155-11.368 44.912-29.95 0 0 1.29-8.387 0-14.732-.074.033-4.147 0-4.147 0Z" fill="#FF8F66"/><path d="M231.957 131.212V93.958l71.456 13.699V85.011l45.529-3.801-3.8 27.791c0 13.682-11.318 22.213-25 22.213h-16.725v-10.131a23.144 23.144 0 0 1-2.829 3.447 22.656 22.656 0 0 1-7.378 4.949 22.662 22.662 0 0 1-8.714 1.735h-22.4a14.802 14.802 0 0 0-12.489-7.352h-.312a14.48 14.48 0 0 0-7.4 2.028 14.83 14.83 0 0 0-5.257 5.322h-4.681Z" fill="url(#N)"/><path d="M297.754 170.488a8.866 8.866 0 0 0 8.869-8.869h-17.738a8.976 8.976 0 0 0 8.869 8.869Z" fill="#fff"/><path d="M245.47 140.25c-3.548-1.267-3.885-6.335-.338-7.771a6.64 6.64 0 0 1 5.237-.169c3.632 1.436 4.646 3.8 4.646 8.024a9.73 9.73 0 0 1-2.449 6.5v-.676c-.001-2.614-3.801-4.73-7.096-5.908Z" fill="#FF8F66"/><path d="M282.966 136.868a6.76 6.76 0 0 0-6.628 6.847v5.306a6.762 6.762 0 0 0 6.628 6.847 6.76 6.76 0 0 0 6.628-6.847v-5.306a6.693 6.693 0 0 0-1.886-4.805 6.698 6.698 0 0 0-4.742-2.042ZM312.711 136.868a6.762 6.762 0 0 0-6.628 6.847v5.306a6.757 6.757 0 0 0 6.628 6.847 6.76 6.76 0 0 0 6.628-6.847v-5.306a6.712 6.712 0 0 0-6.628-6.847Z" fill="#262223"/><path d="M288.956 88.796c37.5 0 67.994 3.885 67.994 8.615v.169a4.9 4.9 0 0 1-4.9 4.9 7.396 7.396 0 0 1-1.351-.169h-.084c-5.49-1.52-14.359-2.787-25.255-3.632-10.474-.845-22.974-1.351-36.32-1.351s-25.846.507-36.32 1.35c-10.98.846-19.765 2.113-25.255 3.633l-.253.084a4.902 4.902 0 0 1-6-3.463 3.379 3.379 0 0 1-.253-1.267v-.17c.003-4.814 30.41-8.7 67.997-8.7Z" fill="#FFF100"/><path d="M220.962 104.084v-6.673c0-4.561 28.38-8.362 64.193-8.615h3.885c37.5 0 67.994 3.885 67.994 8.615v6.673a1.286 1.286 0 0 1-.253 1.1c-.084-.084-.253-.169-.338-.253-.929-.929-2.872-1.774-5.828-2.534a79.699 79.699 0 0 0-8.953-1.774 10.43 10.43 0 0 0-9.967 4.054 14.676 14.676 0 0 1-11.656 5.744h-36.742a22.288 22.288 0 0 1-13.514-4.561l-5.237-3.97a12.017 12.017 0 0 0-7.348-2.45c-7.1.085-11.994.085-12.754.17a115.193 115.193 0 0 0-17.146 2.872 15.719 15.719 0 0 0-6.081 2.787 1.554 1.554 0 0 1-.255-1.185Z" fill="#FFF100"/><path d="M268.036 26.883a62.426 62.426 0 0 0-41.388 58.787v8.865c5.659-1.6 15.119-3.041 26.944-3.885-.084-1.69-.084-3.38-.084-5.152 0-23.224 5.574-44.087 14.528-58.615Z" fill="url(#O)"/><path d="M351.233 85.672c.016-14.453-5.136-28.594-14.325-39.75 3.985 12.768 5.957 26.19 5.891 39.563 0 2.45-.056 4.682-.141 7.047 2.849.42 5.798 1.163 8.575 1.924v-8.784Z" fill="url(#P)"/><path d="M336.959 45.974a62.175 62.175 0 0 0-68.923-19.09c-8.953 14.529-14.528 35.392-14.528 58.534 0 1.69 0 3.463.084 5.152a486.336 486.336 0 0 1 31.505-1.266h3.8c21.876 0 41.388 1.35 53.8 3.379.084-2.366.169-4.815.169-7.18a127.807 127.807 0 0 0-5.907-39.53Z" fill="#FFF100"/><path d="m314.005 50.111-3.97-24.748a4.735 4.735 0 0 0-3.379-3.8 62.464 62.464 0 0 0-35.222 0 4.635 4.635 0 0 0-3.294 3.8l-3.97 24.748" fill="#FFF100"/><path d="M298.463 89.272V77.789l-14.359-8.784 14.359 20.267ZM312.738 69l-14.275 8.789v11.487L312.738 69ZM298.463 55.485l14.359 8.278-14.359-23.228v14.95ZM298.463 40.535l-14.359 23.228 14.359-8.278v-14.95Z" fill="#F9C838"/><path d="M298.463 55.485V72.04l14.359-8.278-14.359-8.277Z" fill="#F9C838"/><path d="m312.738 69-14.275 8.789v11.487L312.738 69Z" fill="#4B4D4D"/><path d="m284.104 63.763 14.359 8.278V55.485l-14.359 8.278Z" fill="#F9C838"/><path d="M298.463 89.272V77.789l-14.359-8.784 14.359 20.267ZM284.104 63.763l14.359-23.228V72.04l-14.359-8.277Z" fill="#0A0A0A"/><path d="M298.463 55.485v-14.95l14.359 23.228-14.359 8.278V55.485Z" fill="#4B4D4D"/></g><g filter="url(#Q)"><path d="M380.635 122.997h-7.59a11.675 11.675 0 0 1-11.674-11.678V77.304a11.681 11.681 0 0 1 11.674-11.675h85.25a11.677 11.677 0 0 1 10.786 7.207c.586 1.416.888 2.935.888 4.468v34.015a11.669 11.669 0 0 1-3.418 8.257 11.67 11.67 0 0 1-8.256 3.421h-59.3l-18.365 18.364.005-18.364Z" fill="#fff"/></g><path d="M380.639 122.993h-7.59a11.67 11.67 0 0 1-10.786-7.21 11.665 11.665 0 0 1-.888-4.468V77.3a11.681 11.681 0 0 1 11.674-11.675h85.25a11.677 11.677 0 0 1 10.786 7.207c.586 1.417.888 2.935.888 4.468v34.015a11.684 11.684 0 0 1-3.418 8.257 11.68 11.68 0 0 1-8.256 3.421h-59.3l-18.365 18.364.005-18.364Z" fill="#F2F2F2" fill-opacity=".4"/><path d="M408.493 102.329h-1.709v-6.572h-5.83v6.572h-1.7V88.11h1.7v6.113h5.83V88.11h1.709v14.219Zm3.369-10.566h5.4v9h3.447v1.566h-8.847v-1.562h3.594v-7.432h-3.594v-1.572Zm3.359-2.773a1.11 1.11 0 0 1 .269-.757 1.023 1.023 0 0 1 .815-.308 1.026 1.026 0 0 1 .811.308c.183.209.281.48.273.757.008.27-.09.533-.273.732a1.063 1.063 0 0 1-.811.293 1.052 1.052 0 0 1-.815-.293 1.042 1.042 0 0 1-.268-.733l-.001.001Zm13.4 8.74h-1.817v-9.619h1.816l.001 9.619Zm-1.993 3.652a1.13 1.13 0 0 1 .278-.781 1.068 1.068 0 0 1 .835-.312 1.09 1.09 0 0 1 .845.313c.195.212.3.492.292.78a1.057 1.057 0 0 1-.288.752 1.118 1.118 0 0 1-.845.3 1.087 1.087 0 0 1-.835-.3 1.072 1.072 0 0 1-.282-.752Z" fill="#6E6F70"/><defs><linearGradient id="b" x1="265.583" y1="330.681" x2="262.585" y2="327.224" gradientUnits="userSpaceOnUse"><stop stop-color="#FB7E51"/><stop offset="1" stop-color="#FF8F66"/></linearGradient><linearGradient id="c" x1="254.015" y1="324.661" x2="233.914" y2="303.707" gradientUnits="userSpaceOnUse"><stop stop-color="#E69C31"/><stop offset="1" stop-color="#E67731"/></linearGradient><linearGradient id="d" x1="209.932" y1="328.214" x2="217.536" y2="327.821" gradientUnits="userSpaceOnUse"><stop stop-color="#FB7E51"/><stop offset="1" stop-color="#FF8F66"/></linearGradient><linearGradient id="e" x1="268.313" y1="266.783" x2="210.744" y2="278.041" gradientUnits="userSpaceOnUse"><stop stop-color="#4F00A3"/><stop offset="1" stop-color="#23004E"/></linearGradient><linearGradient id="f" x1="275.636" y1="278.241" x2="214.177" y2="296.633" gradientUnits="userSpaceOnUse"><stop stop-color="#4F00A3"/><stop offset="1" stop-color="#23004E"/></linearGradient><linearGradient id="g" x1="214.126" y1="221.666" x2="214.126" y2="259.887" gradientUnits="userSpaceOnUse"><stop stop-color="#FFF100"/><stop offset="1" stop-color="#EDCF00"/></linearGradient><linearGradient id="h" x1="268.95" y1="232.429" x2="268.95" y2="259.867" gradientUnits="userSpaceOnUse"><stop stop-color="#FFF100"/><stop offset="1" stop-color="#EDCF00"/></linearGradient><linearGradient id="k" x1="114.724" y1="251.209" x2="118.091" y2="247.347" gradientUnits="userSpaceOnUse"><stop stop-color="#FB7E51"/><stop offset="1" stop-color="#FF8F66"/></linearGradient><linearGradient id="l" x1="118.84" y1="255.005" x2="122.162" y2="253.768" gradientUnits="userSpaceOnUse"><stop stop-color="#FB7E51"/><stop offset="1" stop-color="#FF8F66"/></linearGradient><linearGradient id="m" x1="116.726" y1="258.483" x2="122.471" y2="254.567" gradientUnits="userSpaceOnUse"><stop stop-color="#FB7E51"/><stop offset="1" stop-color="#FF8F66"/></linearGradient><linearGradient id="n" x1="127.01" y1="245.005" x2="149.515" y2="221.612" gradientUnits="userSpaceOnUse"><stop stop-color="#E69C31"/><stop offset="1" stop-color="#E67731"/></linearGradient><linearGradient id="o" x1="176.852" y1="248.435" x2="168.361" y2="247.999" gradientUnits="userSpaceOnUse"><stop stop-color="#FB7E51"/><stop offset="1" stop-color="#FF8F66"/></linearGradient><linearGradient id="p" x1="158.994" y1="193.589" x2="159.992" y2="224.128" gradientUnits="userSpaceOnUse"><stop stop-color="#FB7E51"/><stop offset="1" stop-color="#FF8F66"/></linearGradient><linearGradient id="q" x1="112.964" y1="190.557" x2="105.997" y2="192.069" gradientUnits="userSpaceOnUse"><stop stop-color="#FB7F52"/><stop offset="1" stop-color="#FF8F66"/></linearGradient><linearGradient id="r" x1="-1443.27" y1="319.361" x2="-1445.06" y2="334.793" gradientUnits="userSpaceOnUse"><stop stop-color="#FB7E51"/><stop offset="1" stop-color="#FF8F66"/></linearGradient><linearGradient id="s" x1="141.443" y1="188.787" x2="141.435" y2="167.182" gradientUnits="userSpaceOnUse"><stop stop-color="#FB7E51"/><stop offset="1" stop-color="#FF8F66"/></linearGradient><linearGradient id="t" x1="165.316" y1="191.817" x2="143.983" y2="148.325" gradientUnits="userSpaceOnUse"><stop stop-color="#4F00A3"/><stop offset="1" stop-color="#23004E"/></linearGradient><linearGradient id="u" x1="154.926" y1="186.461" x2="153.718" y2="167.935" gradientUnits="userSpaceOnUse"><stop stop-color="#4F00A3"/><stop offset="1" stop-color="#23004E"/></linearGradient><linearGradient id="v" x1="173.254" y1="129.921" x2="173.254" y2="172.918" gradientUnits="userSpaceOnUse"><stop stop-color="#FFF100"/><stop offset="1" stop-color="#EDCF00"/></linearGradient><linearGradient id="w" x1="111.801" y1="142.084" x2="111.801" y2="172.969" gradientUnits="userSpaceOnUse"><stop stop-color="#FFF100"/><stop offset="1" stop-color="#EDCF00"/></linearGradient><linearGradient id="z" x1="451.316" y1="305.734" x2="451.316" y2="342.534" gradientUnits="userSpaceOnUse"><stop stop-color="#4F00A3"/><stop offset="1" stop-color="#23004E"/></linearGradient><linearGradient id="A" x1="427.522" y1="360.682" x2="430.09" y2="357.721" gradientUnits="userSpaceOnUse"><stop stop-color="#FB7E51"/><stop offset="1" stop-color="#FF8F66"/></linearGradient><linearGradient id="B" x1="437.43" y1="355.525" x2="454.64" y2="337.583" gradientUnits="userSpaceOnUse"><stop stop-color="#E69C31"/><stop offset="1" stop-color="#E67731"/></linearGradient><linearGradient id="C" x1="475.182" y1="358.567" x2="468.67" y2="358.231" gradientUnits="userSpaceOnUse"><stop stop-color="#FB7E51"/><stop offset="1" stop-color="#FF8F66"/></linearGradient><linearGradient id="D" x1="429.096" y1="319.546" x2="429.252" y2="303.026" gradientUnits="userSpaceOnUse"><stop stop-color="#4F00A3"/><stop offset="1" stop-color="#23004E"/></linearGradient><linearGradient id="E" x1="470.124" y1="269.656" x2="470.124" y2="302.476" gradientUnits="userSpaceOnUse"><stop stop-color="#FFF100"/><stop offset="1" stop-color="#EDCF00"/></linearGradient><linearGradient id="F" x1="423.086" y1="278.911" x2="423.086" y2="302.462" gradientUnits="userSpaceOnUse"><stop stop-color="#FFF100"/><stop offset="1" stop-color="#EDCF00"/></linearGradient><linearGradient id="I" x1="288.872" y1="93.017" x2="288.872" y2="113.541" gradientUnits="userSpaceOnUse"><stop stop-color="#262223"/><stop offset="1"/></linearGradient><linearGradient id="J" x1="284.242" y1="129.034" x2="285.799" y2="203.687" gradientUnits="userSpaceOnUse"><stop stop-color="#4F00A3"/><stop offset="1" stop-color="#23004E"/></linearGradient><linearGradient id="K" x1="325.787" y1="206.468" x2="319.375" y2="178.639" gradientUnits="userSpaceOnUse"><stop stop-color="#E69C31"/><stop offset="1" stop-color="#E67731"/></linearGradient><linearGradient id="L" x1="244.628" y1="213.35" x2="251.24" y2="209.546" gradientUnits="userSpaceOnUse"><stop stop-color="#FB7E51"/><stop offset="1" stop-color="#FF8F66"/></linearGradient><linearGradient id="M" x1="290.995" y1="131.619" x2="290.995" y2="182.651" gradientUnits="userSpaceOnUse"><stop stop-color="#FB7E51"/><stop offset="1" stop-color="#FF8F66"/></linearGradient><linearGradient id="N" x1="276.294" y1="129.114" x2="276.252" y2="95.411" gradientUnits="userSpaceOnUse"><stop stop-color="#4F00A3"/><stop offset="1" stop-color="#23004E"/></linearGradient><linearGradient id="O" x1="247.342" y1="26.883" x2="247.342" y2="94.535" gradientUnits="userSpaceOnUse"><stop stop-color="#FFF100"/><stop offset="1" stop-color="#EDCF00"/></linearGradient><linearGradient id="P" x1="344.138" y1="46.058" x2="344.138" y2="94.456" gradientUnits="userSpaceOnUse"><stop stop-color="#FFF100"/><stop offset="1" stop-color="#EDCF00"/></linearGradient><filter id="i" x="282.057" y="230.377" width="157.443" height="55.492" filterUnits="userSpaceOnUse" color-interpolation-filters="sRGB"><feFlood flood-opacity="0" result="BackgroundImageFix"/><feColorMatrix in="SourceAlpha" values="0 0 0 0 0 0 0 0 0 0 0 0 0 0 0 0 0 0 127 0" result="hardAlpha"/><feOffset dy="3"/><feGaussianBlur stdDeviation="3"/><feColorMatrix values="0 0 0 0 0.0392157 0 0 0 0 0.0392157 0 0 0 0 0.0392157 0 0 0 0.102 0"/><feBlend in2="BackgroundImageFix" result="effect1_dropShadow_5862_207993"/><feBlend in="SourceGraphic" in2="effect1_dropShadow_5862_207993" result="shape"/></filter><filter id="x" x=".656" y="151.874" width="100.91" height="64.436" filterUnits="userSpaceOnUse" color-interpolation-filters="sRGB"><feFlood flood-opacity="0" result="BackgroundImageFix"/><feColorMatrix in="SourceAlpha" values="0 0 0 0 0 0 0 0 0 0 0 0 0 0 0 0 0 0 127 0" result="hardAlpha"/><feOffset dy="3"/><feGaussianBlur stdDeviation="3"/><feColorMatrix values="0 0 0 0 0 0 0 0 0 0 0 0 0 0 0 0 0 0 0.102 0"/><feBlend in2="BackgroundImageFix" result="effect1_dropShadow_5862_207993"/><feBlend in="SourceGraphic" in2="effect1_dropShadow_5862_207993" result="shape"/></filter><filter id="G" x="300.062" y="286.047" width="117.482" height="48.589" filterUnits="userSpaceOnUse" color-interpolation-filters="sRGB"><feFlood flood-opacity="0" result="BackgroundImageFix"/><feColorMatrix in="SourceAlpha" values="0 0 0 0 0 0 0 0 0 0 0 0 0 0 0 0 0 0 127 0" result="hardAlpha"/><feOffset dy="3"/><feGaussianBlur stdDeviation="3"/><feColorMatrix values="0 0 0 0 0.0392157 0 0 0 0 0.0392157 0 0 0 0 0.0392157 0 0 0 0.102 0"/><feBlend in2="BackgroundImageFix" result="effect1_dropShadow_5862_207993"/><feBlend in="SourceGraphic" in2="effect1_dropShadow_5862_207993" result="shape"/></filter><filter id="Q" x="355.371" y="62.629" width="120.598" height="87.732" filterUnits="userSpaceOnUse" color-interpolation-filters="sRGB"><feFlood flood-opacity="0" result="BackgroundImageFix"/><feColorMatrix in="SourceAlpha" values="0 0 0 0 0 0 0 0 0 0 0 0 0 0 0 0 0 0 127 0" result="hardAlpha"/><feOffset dy="3"/><feGaussianBlur stdDeviation="3"/><feColorMatrix values="0 0 0 0 0.0392157 0 0 0 0 0.0392157 0 0 0 0 0.0392157 0 0 0 0.102 0"/><feBlend in2="BackgroundImageFix" result="effect1_dropShadow_5862_207993"/><feBlend in="SourceGraphic" in2="effect1_dropShadow_5862_207993" result="shape"/></filter></defs></svg>