<svg width="517" height="375" fill="none" xmlns="http://www.w3.org/2000/svg"><g filter="url(#a)"><path d="M247.189 336.842c34.518 0 62.5-27.982 62.5-62.5s-27.982-62.5-62.5-62.5c-34.517 0-62.5 27.982-62.5 62.5s27.983 62.5 62.5 62.5Z" fill="#20232A"/><path d="M247.189 336.842c34.518 0 62.5-27.982 62.5-62.5s-27.982-62.5-62.5-62.5c-34.517 0-62.5 27.982-62.5 62.5s27.983 62.5 62.5 62.5Z" stroke="#282C34" stroke-width="1.025"/></g><mask id="b" style="mask-type:alpha" maskUnits="userSpaceOnUse" x="189" y="216" width="117" height="117"><path d="M247.189 331.842c31.757 0 57.5-25.744 57.5-57.5 0-31.757-25.743-57.5-57.5-57.5-31.756 0-57.5 25.743-57.5 57.5 0 31.756 25.744 57.5 57.5 57.5Z" fill="#fff" stroke="#D1BFE6" stroke-width="1.025"/></mask><g mask="url(#b)"><path d="M285.531 272.607c0 2.7-17.224 4.859-38.48 4.859-21.256 0-38.49-2.184-38.49-4.859v-3.037s11.733-2.429 17.928-2.915c5.952-.474 13-.753 20.564-.753s14.576.279 20.564.753c6.195.5 17.928 2.235 17.928 2.235l-.014 3.717Z" fill="#15191F"/><path d="M270.093 329.303c3.333-.153 6.205-1.74 8.973-3.479-1.539-6.292-9.393-10.991-15.136-10.224.358 1.125 3.136 10.224 3.136 10.224s3.078.92 3.027 3.479Z" fill="#F2EDDC"/><path d="M267.908 333.312a6.703 6.703 0 0 0 2.135-4.169 20.275 20.275 0 0 0 8.87-3.836c.3.944.472 1.925.514 2.915-.007.036-.018.071-.026.107.132 4.482-2.614 8.815-10.688 12.468-.51.345-1.01.7-1.492 1.085-.206-2.664.332-8.212.687-8.57Z" fill="url(#c)"/><path d="M258.291 309.68c-18.515.893-25.93 5.8-25.93 5.8a40.18 40.18 0 0 0-1.417 8.575.945.945 0 0 1 .615.189c.85.613.945 1.649.8 3.156-.285 2.048-1.511 10.46-1.558 12.675h35.9l.094-18.282s-2.645-12.251-8.5-12.11" fill="#F2EDDC"/><path d="M232.084 329.327s7.497-3.111 1.828-14.656c1.319-1.266 4.625-1.953 6.125-1.266 2.67.402 5.394 1.687 6.813 3.625.284.848 7.404 7.382 7.404 7.382s2.954-3.581 3.237-6.389l-3.005-.291 3.935-7.11c5.243 2.261 9.195 3.623 9.244 17.381 0 0-.047 9.283-.8 12.015a118.919 118.919 0 0 1-15.115 1.179c-9.824 0-20.877-1.179-20.877-1.179l1.211-10.691Z" fill="#EDCF00"/><path d="M254.264 324.445c1.211 7-.389 16.838-.389 16.838" stroke="#AD960C" stroke-miterlimit="10"/><path d="M251.035 333.416a93.31 93.31 0 0 0 16.956-1.242l-.578-2.73c-7.067 1.489-24.046 1.837-35.329-.118l-.313 1.844c6.64 1.029 12.545 2.3 19.264 2.246Z" fill="url(#d)"/><path d="M226.931 318.454a7.148 7.148 0 0 1 1.801 1.094 15.645 15.645 0 0 1 3.881 5.061 14.162 14.162 0 0 0-4.554 10.9 5.217 5.217 0 0 0 .454 2.451 7.347 7.347 0 0 0 1.637 1.618c1.219.944 2.6 1.808 4.063 2.722.3.186.593.374.889.558a32.718 32.718 0 0 0-6.871 5.563c-1.083-.693-2.172-1.42-3.225-2.236a14.42 14.42 0 0 1-3.729-4 13.195 13.195 0 0 1-1.599-6.543 22.305 22.305 0 0 1 7.255-17.189" fill="#FF8F66"/><path d="M226.932 318.454a7.142 7.142 0 0 1 1.8 1.094 15.672 15.672 0 0 1 3.882 5.061 14.152 14.152 0 0 0-4.554 10.9c-.05.842.106 1.683.453 2.451a7.33 7.33 0 0 0 1.638 1.618c1.219.944 2.6 1.808 4.064 2.722.3.186.593.374.888.558a32.693 32.693 0 0 0-6.871 5.563c-1.083-.693-2.172-1.42-3.225-2.236a14.405 14.405 0 0 1-3.729-4 13.185 13.185 0 0 1-1.6-6.543 22.29 22.29 0 0 1 7.256-17.189" fill="url(#e)"/><path d="M231.1 315.405c1.347-.477 3.115 8.05.928 10.496-1.417.959-2.428 3.489-3.595 5.984-.038-.021-5.706-1.189-7.949-2.863 1.184-6.3 6.596-12.193 10.616-13.617Z" fill="#F2EDDC"/><path d="M233.836 314.703c1.42-.168 3.432 7.365.756 9.267-1.594.623-3.608 3.1-4.834 5.041-.034-.029-5.3-2.42-7.117-4.548 2.554-5.88 6.96-9.259 11.195-9.76Z" fill="#F2EDDC"/><path d="M215.504 275.355h62.008a17.93 17.93 0 0 0-15.013-20.017l-26.879-3.887h-.292a17.608 17.608 0 0 0-17.502 8.767 17.598 17.598 0 0 0-2.163 6.525 43.718 43.718 0 0 0-.159 8.612Z" fill="url(#f)"/><path d="M215.504 275.355h62.008a17.93 17.93 0 0 0-15.013-20.017l-26.879-3.887h-.292a17.608 17.608 0 0 0-17.502 8.767 17.598 17.598 0 0 0-2.163 6.525 43.718 43.718 0 0 0-.159 8.612Z" fill="#000" fill-opacity=".2"/><path d="M215.504 275.367a52.315 52.315 0 0 0 14.369 31.423v-6.62a15.63 15.63 0 0 1 4.592-11.087 15.61 15.61 0 0 1 11.101-4.558h30.609l1.312-8.891v-.279l-61.983.012Z" fill="#FB7E51"/><path d="M280.791 290.453a9.425 9.425 0 0 0-18.672-1.831 9.43 9.43 0 0 0 4.018 9.675 9.425 9.425 0 0 0 14.654-7.844Z" fill="#FB7E51"/><path d="M276.177 284.818v-.292h-30.609a15.606 15.606 0 0 0-15.681 15.645v6.571c6.413 5.964 14.163 11.661 23.795 11.442a22.882 22.882 0 0 0 12.511-2.952 17.945 17.945 0 0 0 6.948-9.717c.219-.84.389-1.692.51-2.551l2.526-18.146Zm-27.257 9.826a3.824 3.824 0 0 1-6.449 2.565 3.82 3.82 0 0 1-1.191-2.565v-2.976a3.821 3.821 0 0 1 3.82-3.612 3.824 3.824 0 0 1 3.82 3.612v2.976Zm5.344 14.09a4.993 4.993 0 0 1-3.542-1.471 5.004 5.004 0 0 1-1.458-3.546h10.021a5.02 5.02 0 0 1-3.099 4.636 5.043 5.043 0 0 1-1.921.381h-.001Zm11.818-14.09a3.813 3.813 0 0 1-7.628 0v-2.976a3.81 3.81 0 0 1 3.814-3.814 3.802 3.802 0 0 1 2.697 1.117 3.811 3.811 0 0 1 1.117 2.697v2.976Z" fill="#FB7E51"/><path d="M266.081 291.669v2.975a3.814 3.814 0 1 1-7.628 0v-2.975a3.814 3.814 0 1 1 7.628 0ZM248.919 291.667v2.976a3.821 3.821 0 0 1-3.82 3.612 3.824 3.824 0 0 1-3.82-3.612v-2.976a3.824 3.824 0 0 1 6.449-2.565 3.82 3.82 0 0 1 1.191 2.565ZM254.275 308.745a4.994 4.994 0 0 1-1.923-.378 4.999 4.999 0 0 1-2.723-2.715 5.014 5.014 0 0 1-.383-1.923h10.033a4.992 4.992 0 0 1-5 5l-.004.016Z" fill="#2E3033"/><path d="M254.275 308.745a4.994 4.994 0 0 1-1.923-.378 4.999 4.999 0 0 1-2.723-2.715 5.014 5.014 0 0 1-.383-1.923h10.033a4.992 4.992 0 0 1-5 5l-.004.016Z" fill="#fff"/><path d="M266.081 291.669v2.975a3.814 3.814 0 1 1-7.628 0v-2.975a3.814 3.814 0 1 1 7.628 0ZM248.919 291.667v2.976a3.821 3.821 0 0 1-3.82 3.612 3.824 3.824 0 0 1-3.82-3.612v-2.976a3.824 3.824 0 0 1 6.449-2.565 3.82 3.82 0 0 1 1.191 2.565Z" fill="#15191F"/><path d="M216.172 283.678a65.861 65.861 0 0 1-.983-10.459h48.6v-2.793l19.107-1.678 2.086 2.429c.086 6.938-5.699 11.3-12.69 11.3h-8.5v-3.962a4.144 4.144 0 0 0-2.701 1.956 4.127 4.127 0 0 1-1.515 1.508 4.13 4.13 0 0 1-2.068.545h-26.32a7.517 7.517 0 0 0-6.513 3.827l-8.503-2.673Z" fill="url(#g)"/><path d="M216.172 283.678a65.861 65.861 0 0 1-.983-10.459h48.6v-2.793l19.107-1.678 2.086 2.429c.086 6.938-5.699 11.3-12.69 11.3h-8.5v-3.962a4.144 4.144 0 0 0-2.701 1.956 4.127 4.127 0 0 1-1.515 1.508 4.13 4.13 0 0 1-2.068.545h-26.32a7.517 7.517 0 0 0-6.513 3.827l-8.503-2.673Z" fill="#000" fill-opacity=".2"/><path d="M231.088 290.782v-.158a9.512 9.512 0 1 0 0 .158Z" fill="#FB7E51"/><path d="M223.703 293.623V294a5.621 5.621 0 0 0 1.373-3.644c0-2.369-.571-3.644-2.624-4.518a3.792 3.792 0 0 0-2.952.109 2.368 2.368 0 0 0 .219 4.4c1.786.604 3.984 1.818 3.984 3.276ZM246.381 317.284a29.006 29.006 0 0 1-6.073-2.429 36.668 36.668 0 0 1-5.49-3.644 51.639 51.639 0 0 1-4.859-4.458v-6.583a15.61 15.61 0 0 1 9.627-14.453 15.6 15.6 0 0 1 5.981-1.192h30.609v.292l-2.526 18.1a22.53 22.53 0 0 1-.51 2.551 17.885 17.885 0 0 1-6.948 9.717 22.492 22.492 0 0 1-11.976 2.952h-1.13a25.458 25.458 0 0 1-6.705-.853Zm8.5-8.5a4.974 4.974 0 0 0 1.915-.387 4.99 4.99 0 0 0 3.065-4.642h-10.65a5.04 5.04 0 0 0 5.029 5.017h.571l.07.012Zm-9.462-20.88h-.292a3.825 3.825 0 0 0-3.814 3.814v2.976a3.825 3.825 0 0 0 3.814 3.814h.583a3.824 3.824 0 0 0 3.814-3.814v-3.024a3.838 3.838 0 0 0-3.814-3.814l-.291.048Zm17.454 0h-.583a3.796 3.796 0 0 0-2.692 1.118 3.804 3.804 0 0 0-1.108 2.696v2.976a3.814 3.814 0 0 0 3.814 3.814h.571a3.81 3.81 0 0 0 3.814-3.814v-3.024a3.825 3.825 0 0 0-3.814-3.814l-.002.048Z" fill="#FF8F66"/><path d="M208.559 268.409v.109c-.003.242.026.483.085.717a2.778 2.778 0 0 0 3.389 1.98h.121a86.956 86.956 0 0 1 14.333-2.065c5.94-.474 13-.753 20.564-.753s14.576.279 20.564.753c4.827.289 9.621.979 14.333 2.065h.061c.246.064.499.098.753.1a2.784 2.784 0 0 0 2.782-2.782v-.109c0-2.7-17.236-4.859-38.492-4.859-21.256 0-38.493 2.147-38.493 4.844Z" fill="#FFF100"/><path d="M208.691 272.818a8.986 8.986 0 0 1 3.474-1.6 67.402 67.402 0 0 1 9.717-1.628c.425 0 3.195-.085 7.288-.109a6.767 6.767 0 0 1 4.154 1.4l2.952 2.259a12.585 12.585 0 0 0 7.64 2.587h20.75a8.314 8.314 0 0 0 6.6-3.256 5.973 5.973 0 0 1 5.648-2.271c1.708.253 3.403.594 5.077 1.02a8.111 8.111 0 0 1 3.292 1.445l.182.158c.11-.196.157-.421.134-.644v-3.778c0-2.7-17.236-4.859-38.492-4.859h-2.15c-20.26.134-36.342 2.271-36.342 4.859v3.838c-.029.196-.002.397.076.579Z" fill="#FFF100"/><path d="m227.055 261.577.03 2.937a86.1 86.1 0 0 0-15.356 2.215v-5a35.32 35.32 0 0 1 23.491-33.221c-.026.272-8.165 19.951-8.165 33.069Z" fill="url(#h)"/><path d="M282.263 266.709a42.226 42.226 0 0 0-4.761-1.008c.073-1.348.109-2.709.109-4.093a73.356 73.356 0 0 0-3.34-22.337 35.217 35.217 0 0 1 8.053 22.459l-.061 4.979Z" fill="url(#i)"/><path d="M277.61 261.607c0 1.385 0 2.745-.109 4.093a205.924 205.924 0 0 0-30.451-1.895h-2.15c-6.511 0-12.6.3-17.843.7v-2.9c0-13.118 3.17-24.925 8.223-33.148a35.301 35.301 0 0 1 39.051 10.81 73.354 73.354 0 0 1 3.279 22.34Z" fill="#FFF100"/><path d="m233.033 241.613 2.235-13.993a2.696 2.696 0 0 1 1.883-2.174 35.31 35.31 0 0 1 19.957 0 2.702 2.702 0 0 1 1.895 2.174l2.235 13.993M244.352 252.29l8.114 5v6.5l-8.114-11.5Z" fill="#FFF100"/><path d="M252.43 263.793v-6.5l8.126-5-8.126 11.5ZM252.43 236.185l8.114 13.142-8.114-4.7v-8.442Z" fill="#FFF100"/><path d="m252.431 244.627-8.077 4.7 8.114-13.142-.037 8.442Z" fill="#FFF100"/><path d="m260.544 249.327-8.114 4.689v-9.4l8.114 4.711Z" fill="#FFF100"/><path d="m252.43 257.297 8.128-5.006-8.128 11.5v-6.494Zm0-12.67v-8.442l8.114 13.143-8.114 4.69v-9.391Z" fill="#4B4D4D"/><path d="M252.431 244.626v9.389l-8.077-4.689 8.077-4.7Z" fill="#FFF100"/><path d="m244.352 252.291 8.114 5.006v6.5l-8.114-11.506Zm0-2.964 8.078-4.7v9.391l-8.078-4.691Zm8.114-13.143-.035 8.442-8.078 4.7 8.113-13.142Z" fill="#0A0A0A"/></g><path d="M262.645 287.66a3.9 3.9 0 0 1 3.9 3.9v3.037a3.932 3.932 0 0 1-3.9 3.911 3.964 3.964 0 0 1-3.911-3.911v-3.037a3.937 3.937 0 0 1 3.911-3.9ZM245.104 287.66a3.922 3.922 0 0 1 3.9 3.9v3.037a3.91 3.91 0 0 1-3.9 3.911 3.964 3.964 0 0 1-3.911-3.911v-3.037a3.912 3.912 0 0 1 3.911-3.9Z" fill="#2E3033"/><path d="M255.539 293.697a8.67 8.67 0 0 1 14.81-6.128 8.672 8.672 0 0 1-6.15 14.801 8.669 8.669 0 0 1-8.66-8.673Zm8.66-7.288a7.288 7.288 0 0 0-7.288 7.288 7.284 7.284 0 0 0 4.499 6.734 7.287 7.287 0 0 0 9.937-5.312 7.288 7.288 0 0 0-7.148-8.71ZM235.85 293.697c0-4.761 3.037-8.624 7.8-8.624a8.65 8.65 0 0 1 0 17.3c-3.063-.004-7.8-3.915-7.8-8.676Zm7.8-7.288a7.289 7.289 0 0 0-7.288 7.288 7.284 7.284 0 0 0 4.499 6.733 7.284 7.284 0 0 0 7.942-1.579 7.3 7.3 0 0 0 1.995-3.732 7.296 7.296 0 0 0-3.099-7.482 7.297 7.297 0 0 0-4.049-1.228Z" fill="#FB7E51"/><path d="M271.511 291.231a7.813 7.813 0 0 1-1.558 6.464 7.793 7.793 0 0 1-9.309 2.215 7.78 7.78 0 0 1-2.719-2.053 7.818 7.818 0 0 1-1.584-3.015 7.81 7.81 0 0 1-.147-3.404c.401-.657 13.762-1.519 15.317-.207Z" fill="#F49F7D"/><path d="M256.189 291.437a7.8 7.8 0 0 1 15.317-.206c-1.55-1.312-14.899-.445-15.317.206Z" fill="#EC8C68"/><path d="M251.179 291.231a7.82 7.82 0 0 1-6.097 9.232 7.824 7.824 0 0 1-9.232-6.098 7.419 7.419 0 0 1 0-2.879c.377-.704 13.762-1.567 15.329-.255Z" fill="#F49F7D"/><path d="M235.85 291.438a7.82 7.82 0 0 1 15.365-.243c-1.598-1.276-14.988-.415-15.365.243Z" fill="#EC8C68"/><path d="M262.645 287.66a3.9 3.9 0 0 1 3.9 3.9v3.037a3.932 3.932 0 0 1-3.9 3.911 3.964 3.964 0 0 1-3.911-3.911v-3.037a3.937 3.937 0 0 1 3.911-3.9ZM245.104 287.66a3.922 3.922 0 0 1 3.9 3.9v3.037a3.91 3.91 0 0 1-3.9 3.911 3.964 3.964 0 0 1-3.911-3.911v-3.037a3.912 3.912 0 0 1 3.911-3.9Z" fill="#29221D"/><path d="M271.717 292.749a7.813 7.813 0 0 0-2.39-5.324 7.815 7.815 0 0 0-10.827 0 7.81 7.81 0 0 0-2.391 5.324M251.385 292.749a7.813 7.813 0 0 0-2.39-5.324 7.815 7.815 0 0 0-10.827 0 7.81 7.81 0 0 0-2.391 5.324" stroke="#2E3033" stroke-width="1.486" stroke-miterlimit="10"/><path d="M256.195 292.749a2.428 2.428 0 0 0-4.147-1.718 2.428 2.428 0 0 0-.712 1.718" stroke="#2E3033" stroke-width="1.486" stroke-miterlimit="10"/><g filter="url(#j)"><g filter="url(#k)"><path d="M308.466 273.168h-4.362a6.7 6.7 0 0 1-6.7-6.705v-19.544c0-.88.174-1.752.51-2.565a6.714 6.714 0 0 1 3.626-3.625 6.694 6.694 0 0 1 2.564-.51h132.043a6.694 6.694 0 0 1 4.738 1.962 6.695 6.695 0 0 1 1.962 4.738v19.544a6.698 6.698 0 0 1-6.7 6.705H319.003l-10.537 10.543v-10.543Z" fill="#282C34"/></g></g><path d="M324.294 260.009h-.769v-2.958h-2.624v2.958h-.764v-6.4h.765v2.751h2.623v-2.751h.769v6.4Zm3.489.088a2.436 2.436 0 0 1-.921-.171 2.08 2.08 0 0 1-.719-.479 2.183 2.183 0 0 1-.466-.729 2.464 2.464 0 0 1-.167-.918v-.191a2.709 2.709 0 0 1 .185-1.031c.112-.286.278-.547.49-.769.197-.205.433-.369.694-.481.252-.11.524-.167.8-.167.309-.007.616.053.9.178.248.112.467.281.639.492.174.219.304.47.38.74.085.3.127.611.125.923v.365h-3.4c.007.209.049.416.125.611.07.184.175.354.308.5a1.42 1.42 0 0 0 1.069.462 1.66 1.66 0 0 0 .773-.176 1.68 1.68 0 0 0 .563-.466l.5.387a2.072 2.072 0 0 1-1.238.837 2.514 2.514 0 0 1-.64.083Zm-.105-4.263a1.2 1.2 0 0 0-.466.09c-.15.06-.286.15-.4.264a1.48 1.48 0 0 0-.3.426c-.085.184-.142.38-.169.582h2.565v-.062a1.835 1.835 0 0 0-.09-.47 1.32 1.32 0 0 0-.226-.417 1.14 1.14 0 0 0-.376-.3 1.178 1.178 0 0 0-.538-.113Zm6.521-.668a3.887 3.887 0 0 1 .472.029c.074.01.143.022.207.037a.877.877 0 0 1 .156.048l-.11.8a4.316 4.316 0 0 0-.45-.077 3.692 3.692 0 0 0-.446-.024 1.52 1.52 0 0 0-.925.259 1.494 1.494 0 0 0-.521.725v3.046h-.817v-4.755h.773l.04.756c.186-.254.425-.464.7-.617a1.86 1.86 0 0 1 .921-.227Zm3.261 4.179h3.028v.664h-4.065v-.6l2.839-3.485h-2.8v-.672h3.867v.576l-2.869 3.517Zm4.557-6.086h2.43v6.05h1.551v.7h-3.981v-.7h1.617v-5.342h-1.617v-.708Zm5.4 2h2.43v4.05h1.551v.7h-3.981v-.7h1.617v-3.347h-1.617v-.703Zm1.508-1.25a.495.495 0 0 1 .121-.341.45.45 0 0 1 .367-.138.472.472 0 0 1 .365.138.501.501 0 0 1 .123.341.468.468 0 0 1-.123.33.486.486 0 0 1-.365.132.476.476 0 0 1-.367-.132.468.468 0 0 1-.121-.33Zm5.792 5.429c.145 0 .29-.024.428-.07.134-.044.26-.111.372-.196.105-.08.194-.18.261-.294a.751.751 0 0 0 .1-.367h.769c-.004.21-.061.417-.165.6a1.76 1.76 0 0 1-.428.505 2.21 2.21 0 0 1-.615.347c-.232.086-.478.13-.725.13a2.178 2.178 0 0 1-.945-.193 1.956 1.956 0 0 1-.675-.521 2.233 2.233 0 0 1-.406-.756 2.924 2.924 0 0 1-.136-.9v-.184a2.954 2.954 0 0 1 .136-.9c.085-.277.223-.534.406-.758.184-.221.414-.399.675-.521a2.15 2.15 0 0 1 .945-.193c.264-.003.527.042.776.134.224.082.432.206.611.365.169.153.306.339.4.547.097.212.146.443.145.677h-.769a.981.981 0 0 0-.094-.406 1.099 1.099 0 0 0-.611-.565 1.243 1.243 0 0 0-.459-.083 1.223 1.223 0 0 0-.635.152 1.24 1.24 0 0 0-.415.4 1.642 1.642 0 0 0-.226.547c-.045.2-.068.405-.068.611v.185c0 .207.022.414.068.617.042.194.117.38.224.549.103.164.245.301.413.4.197.104.42.153.643.141Zm4.188-3.476c.161-.241.376-.44.628-.582.257-.141.545-.215.839-.213.231-.003.46.033.679.108.198.068.377.183.521.336.151.166.265.363.332.578.082.268.121.547.116.828v2.992h-.813v-3a1.201 1.201 0 0 0-.279-.87 1.048 1.048 0 0 0-.8-.281 1.352 1.352 0 0 0-.71.191c-.21.125-.387.3-.516.508v3.452h-.813v-6.75h.813l.003 2.703Zm10.705 2.324.1.681.119-.681.76-3.032h.523l.756 3.032.127.747.119-.747.527-3.032h.721l-1.014 4.755h-.642l-.743-2.914-.123-.738-.119.738-.733 2.914h-.641l-1.011-4.755h.721l.553 3.032Zm4.807-3.032h2.43v4.055h1.551v.7h-3.981v-.7h1.617v-3.347h-1.617v-.708Zm1.513-1.245a.495.495 0 0 1 .121-.341.45.45 0 0 1 .367-.138.472.472 0 0 1 .365.138.495.495 0 0 1 .122.341.468.468 0 0 1-.123.33.486.486 0 0 1-.365.132.476.476 0 0 1-.367-.132.464.464 0 0 1-.12-.33Zm3.887-.75h2.43v6.05h1.551v.7h-3.981v-.7h1.617v-5.342h-1.617v-.708Zm5.4 0h2.43v6.05h1.551v.7h-3.981v-.7h1.62v-5.342h-1.62v-.708Zm6.7 4.531-.6.576v1.643h-.817v-6.75h.817v4.131l.532-.571 1.56-1.564h.989l-1.923 1.981 2.219 2.773h-1.032l-1.745-2.219Zm3.749-.2a2.954 2.954 0 0 1 .149-.956c.092-.281.237-.542.428-.767.187-.218.418-.392.679-.512.282-.128.59-.192.9-.187.312-.005.622.059.907.187.261.119.493.294.681.512.191.225.336.486.428.767.101.308.152.631.149.956v.1c.003.324-.047.646-.149.954a2.3 2.3 0 0 1-.428.765 1.99 1.99 0 0 1-.679.51c-.283.126-.59.189-.9.185a2.148 2.148 0 0 1-.907-.195 1.966 1.966 0 0 1-.681-.51 2.283 2.283 0 0 1-.428-.765 2.946 2.946 0 0 1-.149-.954v-.09Zm.813.1c-.001.226.026.451.083.67.05.2.136.39.253.56.11.158.255.289.424.382.182.097.386.145.593.141a1.195 1.195 0 0 0 1.007-.528c.117-.17.202-.36.253-.56.056-.219.084-.444.083-.67v-.1a2.536 2.536 0 0 0-.086-.666c-.052-.2-.138-.39-.255-.56a1.276 1.276 0 0 0-.422-.385 1.172 1.172 0 0 0-.591-.143 1.162 1.162 0 0 0-.589.143 1.28 1.28 0 0 0-.42.385c-.117.17-.203.36-.253.56a2.62 2.62 0 0 0-.083.666l.003.105Zm5.19-2.43.022.448c.091-.161.221-.296.38-.391.173-.098.37-.148.569-.145a.856.856 0 0 1 .875.51c.092-.151.219-.277.371-.367.17-.097.364-.146.56-.143a1.004 1.004 0 0 1 .8.321c.208.279.307.624.281.971v3.545h-.773v-3.56c0-.4-.183-.598-.549-.593a.708.708 0 0 0-.25.04.485.485 0 0 0-.286.266.668.668 0 0 0-.053.187v3.66h-.773v-3.564a.671.671 0 0 0-.126-.436.488.488 0 0 0-.4-.149.662.662 0 0 0-.4.1.583.583 0 0 0-.207.268v3.781h-.773v-4.755l.732.006Zm5.4 0 .022.448c.091-.161.221-.296.38-.391.173-.098.37-.148.569-.145a.856.856 0 0 1 .875.51c.092-.151.219-.277.371-.367.17-.097.364-.146.56-.143a1.004 1.004 0 0 1 .8.321c.208.279.307.624.281.971v3.545h-.773v-3.56c0-.4-.183-.598-.549-.593a.708.708 0 0 0-.25.04.485.485 0 0 0-.286.266.668.668 0 0 0-.053.187v3.66h-.769v-3.564a.68.68 0 0 0-.13-.436.488.488 0 0 0-.4-.149.662.662 0 0 0-.4.1.583.583 0 0 0-.207.268v3.781h-.773v-4.755l.732.006Zm7.128 4.837a2.436 2.436 0 0 1-.921-.171 2.08 2.08 0 0 1-.719-.479 2.183 2.183 0 0 1-.466-.729 2.464 2.464 0 0 1-.167-.918v-.191a2.709 2.709 0 0 1 .185-1.031c.112-.286.278-.547.49-.769.197-.205.433-.369.694-.481.252-.11.524-.167.8-.167.309-.007.616.053.9.178.248.112.467.281.639.492.174.219.304.47.38.74.085.3.127.611.125.923v.365h-3.4c.007.209.049.416.125.611.07.184.175.354.308.5.131.143.29.257.468.336.189.083.393.125.6.123.269.007.537-.051.779-.171a1.68 1.68 0 0 0 .563-.466l.5.387a2.072 2.072 0 0 1-1.238.837 2.557 2.557 0 0 1-.645.081Zm-.105-4.263a1.2 1.2 0 0 0-.466.09c-.15.06-.286.15-.4.264a1.48 1.48 0 0 0-.3.426c-.085.184-.142.38-.169.582h2.558v-.062a1.835 1.835 0 0 0-.09-.47 1.32 1.32 0 0 0-.226-.417 1.14 1.14 0 0 0-.376-.3 1.175 1.175 0 0 0-.531-.113Zm4.135-.58.057.7c.164-.238.381-.434.633-.575.259-.141.549-.214.844-.213.23-.003.46.032.679.105.197.066.376.18.521.33.151.163.265.357.332.569.082.265.122.542.116.82v3.019h-.813v-3a1.799 1.799 0 0 0-.07-.536.868.868 0 0 0-.209-.356.82.82 0 0 0-.338-.2 1.55 1.55 0 0 0-.459-.062 1.268 1.268 0 0 0-.719.2 1.5 1.5 0 0 0-.494.538v3.416h-.81v-4.755h.73Z" fill="#E5E6E7"/><g filter="url(#l)"><path d="M155.666 117.638a69.998 69.998 0 0 1 49.497 119.497 69.994 69.994 0 0 1-76.285 15.174 70 70 0 0 1 26.788-134.671Z" fill="#20232A"/><path d="M155.666 117.638a69.998 69.998 0 0 1 49.497 119.497 69.994 69.994 0 0 1-76.285 15.174 70 70 0 0 1 26.788-134.671Z" stroke="#282C34" stroke-width="1.025"/></g><mask id="m" style="mask-type:alpha" maskUnits="userSpaceOnUse" x="90" y="122" width="132" height="132"><path d="M155.666 122.638a65 65 0 1 1 0 130.001 65 65 0 0 1 0-130.001Z" fill="#fff" stroke="#D1BFE6" stroke-width="1.025"/></mask><g mask="url(#m)"><path d="M113.027 182.245s13.129-1.957 20.089-2.539c6.7-.529 14.605-.846 23.041-.846s16.4.317 23.041.846c6.96.582 20.089 3.279 20.089 3.279v3.438c0 3.015-19.35 5.5-43.183 5.5s-43.077-2.486-43.077-5.5v-4.178Z" fill="#262223"/><path d="M129.468 248.821c-3.72-.172-6.927-1.952-10.017-3.9 1.718-7.062 8.93-12.632 15.341-11.771-.4 1.263-1.946 11.771-1.946 11.771s-3.435 1.033-3.378 3.9Z" fill="#F2EDDC"/><path d="M131.909 253.324a7.536 7.536 0 0 1-2.383-4.679 22.577 22.577 0 0 1-9.9-4.306 12.547 12.547 0 0 0-.573 3.272c.008.041.019.08.028.12-.147 5.031 2.918 9.894 11.931 13.994.569.387 1.128.787 1.666 1.219.226-2.991-.368-9.218-.769-9.62Z" fill="url(#n)"/><path d="M127.122 263.405a6.5 6.5 0 0 1-.513-7.147c1.432-3.1 4.121-3.881 6.867-2.273a12.89 12.89 0 0 1 3.321 3.047c.973 1.148 2 2.47 1.946 3.962a5.74 5.74 0 0 1-2.347 4.651c-.859.632-3.664 2.124-5.038 2.124a5.51 5.51 0 0 1-2.862-.632 3.802 3.802 0 0 1-1.6-1.55 2.04 2.04 0 0 1 .172-2.124c0-.058 0-.058.057-.058" fill="url(#o)"/><path d="M127.638 264.434a.582.582 0 0 0 .458.287c.52.247 1.085.383 1.66.4a.651.651 0 0 0 .631-.671v-.019a.603.603 0 0 0-.287-.516c-.9-.515-3.737-2.09-4.286-5.063a7.033 7.033 0 0 1 .683-2.689c1.432-3.1 4.066-3.847 6.812-2.239a14.075 14.075 0 0 1 3.493 3.158c.972 1.148 2 2.469 1.946 3.962a5.746 5.746 0 0 1-2.347 4.651 13.502 13.502 0 0 1-5.038 2.124 5.398 5.398 0 0 1-2.862-.631 3.807 3.807 0 0 1-1.6-1.552 2.021 2.021 0 0 1-.057-1.723c.226.116.512.346.8.517" fill="url(#p)"/><path d="M142.65 226.797c20.668 1 28.946 6.506 28.946 6.506a45.289 45.289 0 0 1 1.582 9.625 1.054 1.054 0 0 0-.687.212c-.949.688-1.054 1.851-.9 3.543.318 2.3 1.687 11.741 1.74 14.227h-40.07l-.105-20.52s2.953-13.751 9.491-13.592" fill="#F2EDDC"/><path d="M171.912 249.312s-9.884-4.648-3.561-17.606c-1.054-.793-10.169 2.649-13.807 5.082-.316.952-7.709 6.7-7.709 6.7s-3.018-3.47-3.33-6.627l3.071-.875-5.905-6.558c-5.853 2.538-8.752 2.644-8.806 18.087 0 0 .053 10.42.9 13.486 5.59.8 11.226 1.242 16.872 1.323 10.967 0 23.3-1.323 23.3-1.323l-1.025-11.689Z" fill="#EDCF00"/><path d="M146.85 243.405c-1.352 7.853.722 18.866.722 18.866" stroke="#AD960C" stroke-miterlimit="10"/><path d="M150.119 254.001c-7.675 0-14.753-.51-18.928-1.394l.645-3.064c7.889 1.671 27.559 1.923 40.154-.272l.533 3.084a138.074 138.074 0 0 1-22.404 1.646Z" fill="url(#q)"/><path d="M177.651 236.645a7.942 7.942 0 0 0-2.012 1.226 17.568 17.568 0 0 0-4.333 5.681c3.791 3.264 5.149 8.246 5.083 12.232a5.888 5.888 0 0 1-.5 2.751 8.218 8.218 0 0 1-1.828 1.815c-1.36 1.06-2.9 2.029-4.536 3.056-.333.208-.662.42-.992.626 2.888 1.53 5.41 4.07 7.671 6.245 1.209-.778 2.424-1.594 3.6-2.51a16.1 16.1 0 0 0 4.163-4.486 14.867 14.867 0 0 0 1.79-7.343 25.09 25.09 0 0 0-8.1-19.293" fill="#FF8F66"/><path d="M183.216 262.916c-1.186 2.022-3.04 3.1-4.356 4.126-1.227.956 1.482-1.948.221-1.14.334.223-3.326 4.23-2.98 4.445 1.241-.8 2.489-1.632 3.7-2.572a16.11 16.11 0 0 0 4.162-4.486 14.858 14.858 0 0 0 1.791-7.344 27.435 27.435 0 0 0-.122-3.047c.125 5.894-1.484 8.432-2.411 10.019" fill="#FB7E51"/><path d="M177.65 236.645a7.942 7.942 0 0 0-2.012 1.226 17.568 17.568 0 0 0-4.333 5.681c3.791 3.264 5.149 8.246 5.083 12.232a5.876 5.876 0 0 1-.5 2.751 8.202 8.202 0 0 1-1.829 1.815c-1.36 1.06-2.9 2.029-4.536 3.056-.333.208-.662.42-.992.626 2.888 1.53 5.41 4.07 7.67 6.245 1.209-.778 2.425-1.594 3.6-2.51a16.086 16.086 0 0 0 4.163-4.486 14.857 14.857 0 0 0 1.791-7.343 25.09 25.09 0 0 0-8.1-19.293" fill="url(#r)"/><path d="M173.787 233.686c-1.493-.554-4.252 8.684-1.846 11.461 1.567 1.098 3.105 4.326 3.925 6.768.044-.023 6.408-1.242 8.937-3.088-1.231-7.09-6.551-13.488-11.016-15.141Z" fill="#F2EDDC"/><path d="M169.941 232.434c-1.585-.188-3.83 8.267-.843 10.4 1.78.7 4.027 3.477 5.399 5.658.038-.033 5.917-2.717 7.946-5.1-2.853-6.603-7.772-10.396-12.502-10.958Z" fill="#F2EDDC"/><path d="m125.988 216.31-1.744-12.018-.08-.157-.2-1.778-.227-1.565h.05a2696.386 2696.386 0 0 0-.482-4.293 13.46 13.46 0 0 1 .668-5.424c.305.598.664 1.167 1.073 1.7l.049.061c.121.155.246.307.377.457l.089.1c.123.136.25.271.383.4l.122.116a8.186 8.186 0 0 0 .55.484c.135.111.274.22.419.325.055.041.111.08.168.12 2.324 2.115 25.235 2.967 33.908 3.9 5.16.556 14.532.118 14.985.649.294.344.323 9.126.438 9.564 1.9 7.231 1.44 8.434-.666 15.605v.011l.007.712c-7.1 6.788-15.737 13.276-26.549 13.122-5.746.111-10.449-.952-14.058-3.189a19.979 19.979 0 0 1-7.913-10.868 27.408 27.408 0 0 1-.609-2.85l-.758-5.184Z" fill="#FF9666"/><path d="M172.145 213.732c0-8.127-4.039-11.673-15.474-11.673-8.491 0-30.8-.148-32.707.3 0 0-1-15.432-.244-21.777.019-.032 13.86-9.709 13.874-9.738-.093-.05 12.123-2.9 16.267-2.2l18.924-3.458c16.162-.712 19.854 14.276 19.485 19.648l-1.954 13.312a10.61 10.61 0 0 1 1 17.583 10.61 10.61 0 0 1-6.451 2.158h-.013c-.888 0-1.773-.113-2.633-.336a69.34 69.34 0 0 1-6.38 7.753l-3.366 3.065c.003-6.667-.328-7.159-.328-14.637Z" fill="url(#s)"/><path d="M123.495 179.269ZM122.1 190.451ZM157.078 154.302c-.506.006-1.012.014-1.531.039.519-.025 1.025-.031 1.531-.039ZM134.59 187.857a9.576 9.576 0 0 1-.176-.235l.2.232-.024.003Z" fill="#2B154D"/><path d="M118.633 206.346a10.562 10.562 0 0 1 4.3-8.616c.155-.115.313-.226.474-.332l.382 3.394h-.051l.227 1.564.2 1.778.08.158 1.745 12.017a10.599 10.599 0 0 1-7.357-9.963Z" fill="url(#t)"/><path d="m127.653 195.132.201.119a8.992 8.992 0 0 0 .695.368c.167.079.34.155.516.227l.237.1c.181.069.369.132.56.193.083.026.163.054.247.078.2.058.409.109.62.158.082.019.163.04.247.058.225.046.461.085.701.12.078.012.152.026.231.036.264.034.539.058.817.078.059 0 .114.011.173.014.342.019.694.027 1.056.023.77-.011 1.538-.071 2.3-.179-5.558-3.655-5.331-9.8-4.493-13.657.099.385.221.764.366 1.133.154.374.328.739.521 1.093.168 4.024 1.435 9.04 7 12.448-6.288.9-10.13-.589-12.455-2.7h.008c.149.099.3.196.452.29Z" fill="url(#u)"/><path d="M123.721 190.557ZM126.613 194.392ZM126.064 193.906ZM125.094 192.833ZM125.561 193.388ZM131.671 196.549ZM132.895 196.677ZM132.721 196.663ZM127.854 195.251ZM127.209 194.84ZM128.549 195.619ZM129.862 196.135ZM130.728 196.371Z" fill="#2B154D"/><path d="M136.824 190.807a13.4 13.4 0 0 0 9.134 5.155c1.221.098 2.446.12 3.669.064 2.632-.116 5.27.023 7.875.416a16.81 16.81 0 0 1 7.255 2.945c-.834-3.074-3.5-5.379-6.433-6.6a15.795 15.795 0 0 0-7.141-1.166c-2.605.183-5.358.989-7.732-.1" fill="url(#v)"/><path d="M191.101 198.659a10.488 10.488 0 0 0-6.082-1.985h-.075a10.459 10.459 0 0 0-4.4.958 6.514 6.514 0 0 0-6.307-3.645 10.38 10.38 0 0 0-2.414.279c-.1-.1-10.4-10.2-12.063-10.653a19.191 19.191 0 0 0-5.123-.586h-.036a27.967 27.967 0 0 0-5.036.431c-.4.074-.806.159-1.2.242-.816.188-1.641.331-2.472.428-.428.042-.883.062-1.389.062-.585 0-1.172-.028-1.669-.055a16.945 16.945 0 0 1-6.256-1.241 12.669 12.669 0 0 1-3.617-2.875 14.586 14.586 0 0 0-3.145-2.648c-.439-.242-.89-.461-1.352-.655-1.5-.657-2.252-.982-1.294-3.72 1.047-3 3.585-6.321 7.542-9.879a34.197 34.197 0 0 1 22.79-8.758c1.123 0 2.245.057 3.362.169.042.004.085.006.128.006.126-.003.253-.014.378-.033.076-.01.154-.02.231-.027-.546-.052-1.1-.094-1.658-.125.192.007.353.014.512.025a3.648 3.648 0 0 1 1.506-1.357 9.309 9.309 0 0 1 3.126-.731l2.7-.314.113-.013 2.587-.3a4.773 4.773 0 0 1-3.906 2.822 15.003 15.003 0 0 0 5.151-.472 6.51 6.51 0 0 1-1.353 2.43 33.002 33.002 0 0 1 9.145 5.111 35.009 35.009 0 0 1 6.583 6.873 35.968 35.968 0 0 1 4.17 7.43 28.187 28.187 0 0 1 1.906 6.78 28.479 28.479 0 0 1-.2 6.76l-.04.364a73.94 73.94 0 0 1-.84 8.9l-.003.002Z" fill="url(#w)"/><path d="M191.101 198.659a10.488 10.488 0 0 0-6.082-1.985h-.075a10.459 10.459 0 0 0-4.4.958 6.514 6.514 0 0 0-6.307-3.645 10.38 10.38 0 0 0-2.414.279c-.1-.1-10.4-10.2-12.063-10.653a19.191 19.191 0 0 0-5.123-.586h-.036a27.967 27.967 0 0 0-5.036.431c-.4.074-.806.159-1.2.242-.816.188-1.641.331-2.472.428-.428.042-.883.062-1.389.062-.585 0-1.172-.028-1.669-.055a16.945 16.945 0 0 1-6.256-1.241 12.669 12.669 0 0 1-3.617-2.875 14.586 14.586 0 0 0-3.145-2.648c-.439-.242-.89-.461-1.352-.655-1.5-.657-2.252-.982-1.294-3.72 1.047-3 3.585-6.321 7.542-9.879a34.197 34.197 0 0 1 22.79-8.758c1.123 0 2.245.057 3.362.169.042.004.085.006.128.006.126-.003.253-.014.378-.033.076-.01.154-.02.231-.027-.546-.052-1.1-.094-1.658-.125.192.007.353.014.512.025a3.648 3.648 0 0 1 1.506-1.357 9.309 9.309 0 0 1 3.126-.731l2.7-.314.113-.013 2.587-.3a4.773 4.773 0 0 1-3.906 2.822 15.003 15.003 0 0 0 5.151-.472 6.51 6.51 0 0 1-1.353 2.43 33.002 33.002 0 0 1 9.145 5.111 35.009 35.009 0 0 1 6.583 6.873 35.968 35.968 0 0 1 4.17 7.43 28.187 28.187 0 0 1 1.906 6.78 28.479 28.479 0 0 1-.2 6.76l-.04.364a73.94 73.94 0 0 1-.84 8.9l-.003.002Z" fill="#000" fill-opacity=".2"/><path d="M187.176 206.706a2.655 2.655 0 0 0 .214-4.92 4.256 4.256 0 0 0-3.323-.073c-2.31.923-2.927 2.463-2.9 5.107a6.37 6.37 0 0 0 1.571 4.161v-.422c-.068-1.693 2.343-3.093 4.443-3.854" fill="#FF9666"/><path d="M148.529 227.923a5.602 5.602 0 0 1-5.59-5.606h11.23a5.569 5.569 0 0 1-3.418 5.171c-.675.284-1.4.432-2.132.435h-.091" fill="#fff"/><path d="m190.175 175.538-31.364-4.649-8.092-.327-32.144-2.169-.147 17.19c0 8.567 7.065 13.909 15.606 13.909h31.664v-6.344a14.398 14.398 0 0 0 1.766 2.159c2.658 2.682 10.919 4.185 10.919 4.185 1.884-2.622 6.857-3.886 10.07-3.637l-1.455-.966c1.626 0 3.177-19.351 3.177-19.351Z" fill="url(#x)"/><path d="m190.175 175.538-31.364-4.649-8.092-.327-32.144-2.169-.147 17.19c0 8.567 7.065 13.909 15.606 13.909h31.664v-6.344a14.398 14.398 0 0 0 1.766 2.159c2.658 2.682 10.919 4.185 10.919 4.185 1.884-2.622 6.857-3.886 10.07-3.637l-1.455-.966c1.626 0 3.177-19.351 3.177-19.351Z" fill="#000" fill-opacity=".2"/><path d="M158.613 203.362a4.271 4.271 0 0 1 3.047 1.244 4.29 4.29 0 0 1 1.262 3.039v3.331a4.313 4.313 0 0 1-4.31 4.245 4.307 4.307 0 0 1-4.309-4.245v-3.331a4.309 4.309 0 0 1 4.31-4.283Z" fill="#2E3033"/><path d="M139.14 203.362a4.271 4.271 0 0 1 3.047 1.244 4.274 4.274 0 0 1 1.262 3.039v3.331a4.309 4.309 0 1 1-8.619 0v-3.331a4.349 4.349 0 0 1 4.31-4.283Z" fill="#262223"/><path d="M156.208 176.167c-23.832 0-43.183 2.486-43.183 5.5v.106c.001.826.328 1.618.911 2.203a3.127 3.127 0 0 0 2.2.917c.284-.009.567-.045.844-.106h.053a100.404 100.404 0 0 1 16.081-2.327c6.7-.529 14.605-.846 23.041-.846s16.4.317 23.041.846c5.415.34 10.793 1.118 16.081 2.327l.158.053a3.119 3.119 0 0 0 3.8-2.221c.061-.26.096-.526.105-.793v-.106c-.001-3.067-19.298-5.553-43.132-5.553Z" fill="#FFF100"/><path d="M199.341 185.898v-4.231c0-2.909-18.032-5.342-40.757-5.5h-2.478c-23.727 0-43.077 2.486-43.077 5.5v4.231a.918.918 0 0 0 .158.74c.053-.053.158-.106.211-.159a9.36 9.36 0 0 1 3.691-1.639c1.9-.476 3.8-.846 5.694-1.164a6.633 6.633 0 0 1 6.327 2.539 9.18 9.18 0 0 0 7.382 3.649h23.252a13.79 13.79 0 0 0 8.542-2.909l3.322-2.539a7.687 7.687 0 0 1 4.64-1.587c4.534.053 7.645.053 8.12.106 3.678.35 7.326.969 10.914 1.851a9.594 9.594 0 0 1 3.9 1.8.752.752 0 0 0 .163-.325.756.756 0 0 0-.004-.363Z" fill="#FFF100"/><path d="M169.473 136.763a39.623 39.623 0 0 1 26.258 37.391v5.606c-3.585-1.058-9.6-1.9-17.136-2.486.053-1.058.053-2.168.053-3.279.054-14.702-3.533-28.03-9.175-37.232Z" fill="url(#y)"/><path d="M116.641 174.153a39.608 39.608 0 0 1 9.016-25.227 82.632 82.632 0 0 0-3.744 25.121c0 1.534.053 3.067.105 4.6a36.794 36.794 0 0 0-5.325 1.164l-.052-5.658Z" fill="url(#z)"/><path d="M125.657 148.926a39.486 39.486 0 0 1 43.815-12.164c5.642 9.255 9.227 22.53 9.227 37.285 0 1.111 0 2.168-.053 3.279-5.905-.476-12.707-.74-19.983-.793h-2.425c-13.92 0-26.258.846-34.166 2.115a66.679 66.679 0 0 1-.158-4.6 82.612 82.612 0 0 1 3.743-25.122Z" fill="#FFF100"/><path d="m140.283 151.518 2.531-15.707a2.961 2.961 0 0 1 2.109-2.433 39.7 39.7 0 0 1 22.356-.053 2.961 2.961 0 0 1 2.109 2.433l2.531 15.76" fill="#FFF100"/><path d="M150.174 176.478v-7.3l9.122-5.606-9.122 12.906Z" fill="#F9C838"/><path d="m141.053 163.574 9.122 5.606v7.3l-9.122-12.906Z" fill="#F9C838"/><path d="m141.051 163.574 9.122 5.608v7.3l-9.122-12.908Zm0-3.385 9.122-14.753v20.1l-9.122-5.347Z" fill="#0A0A0A"/><path d="m150.174 169.183 9.122-5.608-9.122 12.906v-7.298Zm0-14.39v-9.358l9.122 14.756-.054-.029v.029l-9.119 5.29.051-10.688Z" fill="#4B4D4D"/><path d="m150.175 165.532-9.122-5.342 9.122 5.342Z" fill="#312D2E"/></g><g filter="url(#A)"><g filter="url(#B)"><path d="M78.715 201.445H24.08a8.076 8.076 0 0 1-8.076-8.079v-23.574a8.078 8.078 0 0 1 8.076-8.076h72.756a8.08 8.08 0 0 1 5.712 2.364 8.084 8.084 0 0 1 2.367 5.712v23.574a8.08 8.08 0 0 1-8.08 8.079h-5.414v12.706l-12.706-12.706Z" fill="#282C34"/></g></g><path d="M50.621 185.265h-1.28v-4.929h-4.374v4.929h-1.274v-10.664h1.274v4.585h4.373v-4.585h1.281v10.664Zm5.815.146a4.008 4.008 0 0 1-1.534-.286 3.474 3.474 0 0 1-1.2-.8 3.642 3.642 0 0 1-.776-1.216 4.116 4.116 0 0 1-.276-1.528v-.308a4.533 4.533 0 0 1 .31-1.717c.187-.476.464-.911.817-1.282a3.559 3.559 0 0 1 1.157-.8c.419-.183.87-.278 1.326-.28a3.55 3.55 0 0 1 1.5.3c.414.188.78.468 1.066.82.292.364.507.783.634 1.231.143.5.214 1.018.21 1.538v.608h-5.665c.012.349.083.693.21 1.018.117.307.291.589.512.831a2.361 2.361 0 0 0 1.78.765 2.746 2.746 0 0 0 2.227-1.069l.828.645c-.14.211-.306.404-.494.575-.207.19-.437.354-.685.487-.278.15-.573.264-.879.341a4.173 4.173 0 0 1-1.067.127Zm-.176-7.1c-.266-.001-.53.05-.776.15-.246.102-.47.251-.659.439a2.522 2.522 0 0 0-.494.71 3.385 3.385 0 0 0-.282.97h4.263v-.1a3.038 3.038 0 0 0-.15-.784 2.197 2.197 0 0 0-.377-.7 1.896 1.896 0 0 0-.626-.5 1.98 1.98 0 0 0-.899-.189v.004Zm6.592-.967h4v7.972c.008.459-.062.915-.209 1.349a2.6 2.6 0 0 1-.608.985c-.275.273-.608.48-.974.608-.42.146-.862.216-1.307.209-.278 0-.538-.008-.78-.026a6.792 6.792 0 0 1-.765-.1l.1-1.113c.084.015.189.028.315.04a9.481 9.481 0 0 0 .76.044h.281c.243.002.485-.032.718-.1.22-.062.42-.177.586-.333.174-.172.306-.382.385-.614.103-.305.152-.626.143-.948v-6.8h-2.644v-1.173Zm2.454-2.087a.832.832 0 0 1 .2-.56.76.76 0 0 1 .608-.231.787.787 0 0 1 .615.231c.137.154.21.354.205.56a.786.786 0 0 1-.205.553.802.802 0 0 1-.615.223.78.78 0 0 1-.608-.223.798.798 0 0 1-.2-.557v.004Zm9.412 6.558H73.36v-7.214h1.362l-.004 7.214Zm-1.494 2.74a.85.85 0 0 1 .21-.586.804.804 0 0 1 .625-.234.83.83 0 0 1 .634.234c.146.16.223.37.216.586a.788.788 0 0 1-.216.564.83.83 0 0 1-.633.227.808.808 0 0 1-.626-.227.797.797 0 0 1-.21-.564Z" fill="#E5E6E7"/><g filter="url(#C)"><path d="M457.904 365.104c27.615 0 50-22.386 50-50 0-27.615-22.385-50-50-50-27.614 0-50 22.385-50 50 0 27.614 22.386 50 50 50Z" fill="#20232A"/><path d="M457.904 365.104c27.615 0 50-22.386 50-50 0-27.615-22.385-50-50-50-27.614 0-50 22.385-50 50 0 27.614 22.386 50 50 50Z" stroke="#282C34" stroke-width="1.025"/></g><mask id="D" style="mask-type:alpha" maskUnits="userSpaceOnUse" x="412" y="269" width="92" height="92"><path d="M457.904 360.104c24.853 0 45-20.148 45-45 0-24.853-20.147-45-45-45s-45 20.147-45 45c0 24.852 20.147 45 45 45Z" fill="#fff" stroke="#D1BFE6" stroke-width="1.025"/></mask><g mask="url(#D)"><path d="M426.221 311.212s10.069-1.494 15.4-1.919c5.114-.413 11.175-.656 17.673-.656 6.498 0 12.559.243 17.673.656 5.32.425 15.341 2.49 15.341 2.49v2.429c0 2.32-14.758 4.385-33.026 4.385-18.268 0-33.063-1.883-33.063-4.191l.002-3.194Z" fill="#363233"/><path d="M434.385 349.376h42.658a9.901 9.901 0 0 0 9.9-9.9v-26.9h-52.558v36.8Z" fill="url(#E)"/><path d="M434.385 349.376h42.658a9.901 9.901 0 0 0 9.9-9.9v-26.9h-52.558v36.8Z" fill="#000" fill-opacity=".2"/><path d="M441.016 360.48c-2.854-.131-5.314-1.49-7.684-2.979 1.317-5.388 6.85-9.636 11.767-8.979-.306.963-1.493 8.979-1.493 8.979s-2.634.788-2.591 2.979" fill="#F2EDDC"/><path d="M442.886 363.916a5.743 5.743 0 0 1-1.827-3.57 17.385 17.385 0 0 1-7.601-3.285 9.562 9.562 0 0 0-.438 2.5c.006.031.014.061.022.092-.114 3.838 2.238 7.548 9.152 10.676.436.3.864.6 1.277.929.178-2.285-.278-7.035-.585-7.342Z" fill="url(#F)"/><path d="M451.125 343.68c15.854.765 22.2 4.963 22.2 4.963a34.457 34.457 0 0 1 1.213 7.343.811.811 0 0 0-.527.162c-.728.525-.809 1.412-.688 2.7.244 1.754 1.294 8.957 1.334 10.853h-30.736l-.081-15.654s2.265-10.491 7.28-10.369" fill="#F2EDDC"/><path d="M473.672 360.807s-7.444-3.618-2.59-13.5c-.808-.6-7.8 2.021-10.591 3.877-.243.727-5.913 5.115-5.913 5.115s-2.315-2.647-2.554-5.055l2.355-.668-4.53-5c-4.49 1.936-6.714 2.017-6.755 13.8 0 0 .041 7.949.688 10.288 4.288.611 8.611.948 12.942 1.009 8.412 0 17.876-1.009 17.876-1.009l-.928-8.857Z" fill="#EDCF00"/><path d="M454.655 355.619c-1.037 5.991.245 15.122.245 15.122" stroke="#AD960C" stroke-miterlimit="10"/><path d="M457.333 364.005a79.968 79.968 0 0 1-14.519-1.063l.496-2.338c6.052 1.275 21.138 1.467 30.799-.207l.411 2.353a106.445 106.445 0 0 1-17.187 1.255Z" fill="url(#G)"/><path d="M477.975 351.193a6.126 6.126 0 0 0-1.543.936 13.392 13.392 0 0 0-3.324 4.334 12.114 12.114 0 0 1 3.9 9.331 4.485 4.485 0 0 1-.387 2.1c-.391.533-.864 1-1.4 1.385-1.043.809-2.227 1.548-3.479 2.331l-.762.478a28.009 28.009 0 0 1 5.885 4.763 37.437 37.437 0 0 0 2.761-1.914 12.344 12.344 0 0 0 3.194-3.422 11.305 11.305 0 0 0 1.374-5.6 19.1 19.1 0 0 0-6.215-14.718" fill="#FF8F66"/><path d="M477.975 351.194a6.126 6.126 0 0 0-1.543.936 13.403 13.403 0 0 0-3.324 4.334 12.12 12.12 0 0 1 3.9 9.331 4.473 4.473 0 0 1-.388 2.1c-.391.533-.864 1-1.401 1.385-1.044.809-2.227 1.548-3.479 2.331l-.761.478a28.054 28.054 0 0 1 5.884 4.763 37.018 37.018 0 0 0 2.761-1.914 12.34 12.34 0 0 0 3.193-3.422 11.292 11.292 0 0 0 1.372-5.6 19.099 19.099 0 0 0-6.212-14.718" fill="url(#H)"/><path d="M476.003 349.974c-1.153-.408-4.264 5.5-2.391 7.6 1.213.822 2.424 3.269 3.078 5.123.033-.018 4.885-1.019 6.806-2.451-1.013-5.397-4.051-9.052-7.493-10.272Z" fill="#F2EDDC"/><path d="M472.063 347.982c-1.216-.144-2.938 6.307-.646 7.935 1.365.533 3.089 2.653 4.139 4.316.029-.025 4.538-2.073 6.094-3.894-2.187-5.035-5.961-7.929-9.587-8.357Z" fill="#F2EDDC"/><path d="M438.088 337.92a7.15 7.15 0 0 1-7.146-8.433 7.153 7.153 0 0 1 14.191 1.145v.109a7.095 7.095 0 0 1-2.034 5.051 7.095 7.095 0 0 1-5.011 2.128Z" fill="#FB7E51"/><path d="M434.578 329.322c0 14.406 10.324 22.884 23.078 22.884s23.078-8.5 23.078-22.884-10.325-29.309-23.078-29.309-23.078 14.855-23.078 29.309Z" fill="#FB7E51"/><path d="M436.045 330.537h28.617a7.067 7.067 0 0 1 7.069 7.057v10.41a24.297 24.297 0 0 1-14.1 4.227c-9.875 0-18.293-5.1-21.584-14.114v-7.579l-.002-.001Z" fill="#FF8F66"/><path d="M461.351 326.382h-17.289c-6.667 0-12.193-4.176-12.193-10.822l-1.846-13.493 22.153 1.846 5.059 10.041 29.681-5.7v18.134h-25.565v-.006Z" fill="url(#I)"/><path d="M461.351 326.382h-17.289c-6.667 0-12.193-4.176-12.193-10.822l-1.846-13.493 22.153 1.846 5.059 10.041 29.681-5.7v18.134h-25.565v-.006Z" fill="#000" fill-opacity=".2"/><path d="M478.621 337.92a7.147 7.147 0 0 1-6.672-4.31 7.152 7.152 0 0 1 9.183-9.5 7.15 7.15 0 0 1 4.534 6.522v.109a7.095 7.095 0 0 1-2.034 5.051 7.09 7.09 0 0 1-5.011 2.128Z" fill="#FB7E51"/><path d="M462.077 329.954a3.3 3.3 0 0 1 3.292 3.28v2.551a3.315 3.315 0 0 1-3.292 3.292 3.3 3.3 0 0 1-3.28-3.292v-2.551a3.261 3.261 0 0 1 2.004-3.03c.396-.165.821-.25 1.251-.25h.025ZM447.307 329.954a3.28 3.28 0 0 1 3.28 3.28v2.551a3.3 3.3 0 0 1-3.28 3.292 3.3 3.3 0 0 1-3.28-3.292v-2.551a3.264 3.264 0 0 1 .945-2.318 3.25 3.25 0 0 1 2.31-.962h.025Z" fill="#29221D"/><path d="M454.935 346.328a4.324 4.324 0 0 1-4.324-4.324h8.624a4.3 4.3 0 0 1-4.288 4.324h-.012Z" fill="#fff"/><path d="M480.394 331.594a2.024 2.024 0 0 0 1.386-1.827 2.033 2.033 0 0 0-1.204-1.951 3.201 3.201 0 0 0-2.526-.1c-1.773.692-2.271 1.846-2.271 3.887a4.948 4.948 0 0 0 1.215 3.182v-.328c-.061-1.26 1.785-2.304 3.4-2.863Z" fill="#FF8F66"/><path d="M459.235 306.596c-18.22 0-33.075 1.883-33.075 4.2v.085c0 .644.256 1.262.712 1.717a2.426 2.426 0 0 0 1.717.712c.218-.003.435-.037.644-.1h.061a74.19 74.19 0 0 1 12.3-1.773c5.114-.413 11.175-.644 17.673-.644 6.498 0 12.559.231 17.673.644 4.142.247 8.257.84 12.3 1.773h.109a2.432 2.432 0 0 0 2.915-1.7 2.49 2.49 0 0 0 .073-.607v-.085c-.028-2.339-14.773-4.222-33.102-4.222Z" fill="#FFF100"/><path d="M492.31 314.018v-3.243c0-2.235-13.823-4.069-31.228-4.19h-1.846c-18.22 0-33.075 1.871-33.075 4.19v3.243a.777.777 0 0 0 .121.547l.146-.134a6.86 6.86 0 0 1 2.83-1.215 40.717 40.717 0 0 1 4.36-.887 5.138 5.138 0 0 1 4.859 1.956 7.134 7.134 0 0 0 5.66 2.794h17.831a10.75 10.75 0 0 0 6.559-2.223l2.551-1.943a5.797 5.797 0 0 1 3.559-1.215c3.474 0 5.855 0 6.219.085 2.816.268 5.609.739 8.357 1.409a7.634 7.634 0 0 1 2.976 1.36.774.774 0 0 0 .121-.534Z" fill="#FFF100"/><path d="M469.402 276.498a30.368 30.368 0 0 1 20.139 28.532v4.288a72.88 72.88 0 0 0-13.13-1.858v-2.49c.048-11.285-2.673-21.415-7.009-28.472Z" fill="url(#J)"/><path d="M428.979 305.029a30.155 30.155 0 0 1 6.911-19.276 62.922 62.922 0 0 0-2.867 19.179c0 1.215.109 2.301.194 3.455-1.376.208-2.848.551-4.19.917l-.048-4.275Z" fill="url(#K)"/><path d="M435.84 285.777a30.363 30.363 0 0 1 33.561-9.28c4.336 7.057 7.057 17.187 7.057 28.459v2.49c-4.506-.352-9.717-.571-15.329-.607h-1.846a176.27 176.27 0 0 0-26.176 1.628c0-1.154-.085-2.332-.085-3.51a62.936 62.936 0 0 1 2.818-19.18Z" fill="#FFF100"/><path d="m447.041 287.782 1.931-12.013c.066-.431.252-.835.538-1.164.287-.328.66-.569 1.078-.694a30.296 30.296 0 0 1 17.151 0 2.328 2.328 0 0 1 1.628 1.858l1.919 12.013M454.607 306.828v-5.577l6.972-4.3-6.972 9.877ZM447.635 296.951l6.972 4.3v5.575l-6.972-9.875Z" fill="#FFF100"/><path d="m454.607 290.381-6.972 4.033 6.972-11.248v7.215ZM454.607 283.166l6.972 11.284-6.972-4.033v-7.251Z" fill="#FFF100"/><path d="M454.607 290.381v8.065l-6.972-4.033 6.972-4.032Z" fill="#FFF100"/><path d="m447.637 296.952 6.972 4.3v5.576l-6.972-9.876Zm0-2.538 6.972-4.033v8.066l-6.972-4.033Zm6.972-11.247v7.215l-6.972 4.033 6.972-11.248Z" fill="#0A0A0A"/><path d="m461.579 294.414-6.972 4.033v-8.065l6.972 4.032Z" fill="#FFF100"/><path d="m454.607 301.251 6.972-4.3-6.972 9.875v-5.575Zm0-10.832v-7.252l6.938 11.229.034.02-.016.009.016.026-.03-.018-6.942 4.016v-8.03Z" fill="#6E6F70"/></g><g filter="url(#L)"><g filter="url(#M)"><path d="M402.708 323.61h-81.136a6.164 6.164 0 0 1-6.162-6.161v-15.4a6.176 6.176 0 0 1 1.805-4.357 6.172 6.172 0 0 1 4.357-1.803h93.159a6.172 6.172 0 0 1 4.357 1.803 6.16 6.16 0 0 1 1.805 4.357v15.4a6.161 6.161 0 0 1-6.162 6.161h-3.156v8.868l-8.867-8.868Z" fill="#282C34"/></g></g><path d="M342.76 312.733v-6.4h1.9c.261.002.52.036.773.1.24.063.467.168.671.31.195.137.356.318.47.527.122.238.181.503.171.769a1.31 1.31 0 0 1-.292.828c-.09.111-.196.208-.314.288a2.298 2.298 0 0 1-.382.211c.165.048.323.12.468.213.14.091.264.204.367.334.104.133.185.283.24.442.058.172.087.351.086.532.008.274-.05.546-.171.791a1.716 1.716 0 0 1-.47.573c-.202.158-.43.278-.673.355a2.655 2.655 0 0 1-.8.127h-2.044Zm.817-2.993v2.3h1.253c.164-.002.328-.031.483-.086.146-.049.283-.124.404-.221.117-.097.212-.218.279-.356a1.08 1.08 0 0 0 .1-.479 1.131 1.131 0 0 0-.09-.483 1.037 1.037 0 0 0-.261-.358 1.214 1.214 0 0 0-.388-.224 1.66 1.66 0 0 0-.483-.088l-1.297-.005Zm0-.677h1.134c.152-.003.303-.027.448-.073a1.26 1.26 0 0 0 .391-.2c.113-.085.208-.194.277-.319a.89.89 0 0 0 .106-.438.954.954 0 0 0-.1-.457.915.915 0 0 0-.277-.31 1.23 1.23 0 0 0-.4-.178 2.099 2.099 0 0 0-.467-.055h-1.112v2.03Zm4.72-1.085h2.43v4.055h1.551v.7h-3.981v-.7h1.617v-3.347h-1.617v-.708Zm1.507-1.245a.498.498 0 0 1 .121-.341.463.463 0 0 1 .367-.138.464.464 0 0 1 .365.138.5.5 0 0 1 .127.341.462.462 0 0 1-.123.33.469.469 0 0 1-.365.132.46.46 0 0 1-.367-.132.468.468 0 0 1-.125-.33Zm5.867 6.088a2.401 2.401 0 0 1-.921-.171 2.066 2.066 0 0 1-.719-.479 2.18 2.18 0 0 1-.466-.729 2.463 2.463 0 0 1-.161-.919v-.19a2.716 2.716 0 0 1 .185-1.031c.112-.285.278-.547.49-.769.197-.204.433-.368.694-.481.252-.11.524-.167.8-.167.309-.007.616.054.9.178.248.113.467.281.639.492a2.1 2.1 0 0 1 .38.74c.085.3.127.611.125.923v.365h-3.4c.007.21.049.416.125.611.07.185.175.354.308.5a1.424 1.424 0 0 0 1.068.459 1.647 1.647 0 0 0 1.336-.642l.5.387a2.072 2.072 0 0 1-1.238.837 2.469 2.469 0 0 1-.645.086Zm-.105-4.263a1.22 1.22 0 0 0-.866.354 1.508 1.508 0 0 0-.3.426 2.046 2.046 0 0 0-.169.582h2.558v-.062a1.835 1.835 0 0 0-.09-.47 1.33 1.33 0 0 0-.226-.417 1.153 1.153 0 0 0-.376-.3 1.189 1.189 0 0 0-.531-.113Zm4.135-.58.057.7c.165-.239.383-.437.637-.578.259-.141.549-.214.844-.213.23-.003.46.033.679.105.197.067.376.18.521.33.151.163.265.357.332.569.082.266.122.543.116.82v3.022h-.813v-3a1.784 1.784 0 0 0-.07-.538.868.868 0 0 0-.209-.356.83.83 0 0 0-.338-.2 1.584 1.584 0 0 0-.459-.062 1.286 1.286 0 0 0-.719.2 1.508 1.508 0 0 0-.494.538v3.418h-.813v-4.755h.729Zm6.535 3.586.075.294.079-.294 1.332-3.586h.831l-1.94 4.755h-.62l-1.955-4.755h.835l1.363 3.586Zm5.638 1.257a2.401 2.401 0 0 1-.921-.171 2.066 2.066 0 0 1-.719-.479 2.18 2.18 0 0 1-.466-.729 2.466 2.466 0 0 1-.164-.919v-.19a2.716 2.716 0 0 1 .185-1.031c.112-.285.278-.547.49-.769.197-.204.433-.368.694-.481.252-.11.524-.167.8-.167.309-.007.616.054.9.178.248.113.467.281.639.492a2.1 2.1 0 0 1 .38.74c.085.3.127.611.125.923v.365h-3.4c.007.21.049.416.125.611.07.185.175.354.308.5a1.424 1.424 0 0 0 1.068.459 1.647 1.647 0 0 0 1.336-.642l.5.387a2.072 2.072 0 0 1-1.238.837c-.21.056-.425.085-.642.086Zm-.105-4.263a1.22 1.22 0 0 0-.866.354 1.508 1.508 0 0 0-.3.426 2.046 2.046 0 0 0-.169.582h2.558v-.062a1.835 1.835 0 0 0-.09-.47 1.33 1.33 0 0 0-.226-.417 1.153 1.153 0 0 0-.376-.3 1.193 1.193 0 0 0-.532-.113h.001Zm4.135-.58.057.7c.165-.239.383-.437.637-.578.259-.141.549-.214.844-.213.23-.003.46.033.679.105.197.067.376.18.521.33.151.163.265.357.332.569.082.266.122.543.116.82v3.022h-.813v-3a1.799 1.799 0 0 0-.07-.536.868.868 0 0 0-.209-.356.83.83 0 0 0-.338-.2 1.584 1.584 0 0 0-.459-.062 1.286 1.286 0 0 0-.719.2 1.508 1.508 0 0 0-.494.538v3.416h-.814v-4.755h.73Zm4.8 0h2.43v4.055h1.55v.7h-3.98v-.7h1.617v-3.347h-1.617v-.708Zm1.51-1.245a.498.498 0 0 1 .121-.341.463.463 0 0 1 .367-.138.464.464 0 0 1 .365.138.501.501 0 0 1 .123.341.462.462 0 0 1-.123.33.469.469 0 0 1-.365.132.46.46 0 0 1-.367-.132.466.466 0 0 1-.121-.33Zm3.608 3.586c-.004-.33.042-.66.134-.978.079-.277.208-.537.382-.767a1.705 1.705 0 0 1 1.387-.68c.255-.005.509.044.745.143.213.096.401.237.552.415v-2.469h.813v6.75h-.747l-.035-.5a1.551 1.551 0 0 1-.567.439 1.847 1.847 0 0 1-.769.149 1.64 1.64 0 0 1-.78-.185 1.767 1.767 0 0 1-.6-.51 2.451 2.451 0 0 1-.382-.767 3.19 3.19 0 0 1-.136-.951l.003-.089Zm.813.092c-.001.222.024.443.075.659.044.195.122.381.231.549.101.156.238.285.4.376.178.097.378.144.58.138.126.002.252-.014.374-.048a1.12 1.12 0 0 0 .542-.352c.072-.085.134-.179.185-.279v-2.21a1.394 1.394 0 0 0-.426-.477 1.147 1.147 0 0 0-.668-.187 1.164 1.164 0 0 0-.587.141 1.174 1.174 0 0 0-.4.38c-.109.17-.187.358-.231.554a2.834 2.834 0 0 0-.075.661v.095Zm4.513-.1a2.962 2.962 0 0 1 .149-.956c.092-.28.237-.541.428-.767.187-.217.418-.392.679-.512.282-.128.59-.191.9-.187.312-.005.622.059.907.187.261.12.493.295.681.512.191.226.336.487.428.767.101.309.152.632.149.956v.1c.003.324-.047.647-.149.954a2.29 2.29 0 0 1-.428.765 1.965 1.965 0 0 1-.679.51c-.283.127-.59.19-.9.185a2.14 2.14 0 0 1-.909-.192 1.954 1.954 0 0 1-.681-.51 2.273 2.273 0 0 1-.428-.765 2.942 2.942 0 0 1-.149-.954l.002-.093Zm.813.1c-.001.226.026.452.083.67.05.201.136.39.253.56a1.199 1.199 0 0 0 1.017.523c.206.005.409-.045.59-.143.168-.093.312-.224.422-.382a1.74 1.74 0 0 0 .253-.56 2.65 2.65 0 0 0 .083-.67v-.1a2.547 2.547 0 0 0-.086-.666 1.787 1.787 0 0 0-.255-.56 1.286 1.286 0 0 0-.422-.385 1.193 1.193 0 0 0-.591-.143 1.173 1.173 0 0 0-1.009.528c-.117.171-.203.36-.253.56a2.63 2.63 0 0 0-.083.666l-.002.102Z" fill="#E5E6E7"/><g filter="url(#N)"><path d="M294.467 214c56.885 0 103-46.115 103-103s-46.115-103-103-103c-56.886 0-103 46.115-103 103s46.114 103 103 103Z" fill="#20232A"/><path d="M294.467 214c56.885 0 103-46.115 103-103s-46.115-103-103-103c-56.886 0-103 46.115-103 103s46.114 103 103 103Z" stroke="#282C34"/></g><mask id="O" style="mask-type:alpha" maskUnits="userSpaceOnUse" x="195" y="12" width="198" height="198"><path d="M294.467 209c54.124 0 98-43.876 98-98s-43.876-98-98-98-98 43.876-98 98 43.876 98 98 98Z" fill="#fff" stroke="#D1BFE6"/></mask><g mask="url(#O)"><path d="M366.13 105.179s-20.694-3.041-31.674-3.97c-10.474-.845-22.974-1.35-36.32-1.35s-25.846.506-36.32 1.35c-10.98.845-31.505 5.152-31.505 5.152v4.983c0 4.73 30.323 9.038 67.825 9.038s67.994-3.885 67.994-8.615v-6.588Z" fill="url(#P)"/><path d="M349.333 210.525h-87.674a20.367 20.367 0 0 1-20.356-20.356v-82.184h108.03v102.54Z" fill="url(#Q)"/><path d="M349.333 210.525h-87.674a20.367 20.367 0 0 1-20.356-20.356v-82.184h108.03v102.54Z" fill="#000" fill-opacity=".2"/><path d="M336.501 209.601c5.405-.264 10.135-3.6 14.612-6.585-2.45-10.622-17.836-20.288-27.127-18.97.591 1.93 6.433 18.005 6.433 18.005s6 1.932 6.082 7.55" fill="#F2EDDC"/><path d="M336.499 209.599c0 1.664-.76 2.985-3.211 5.619-.59.614-1.435 10.186-.759 13.96 17.568-7.727 20.947-17.3 18.328-26.953-4.053 3.337-9.122 6.5-14.358 7.374" fill="#FB7E51"/><path d="M341.567 223.382a35.402 35.402 0 0 0 5.152-5 25.962 25.962 0 0 0 4.983-11.15 22.997 22.997 0 0 0-.76-4.828c-4.223 3.335-9.207 6.495-14.443 7.287-.338 1.579-.76 2.983-3.21 5.617-.591.614-1.689 10.536-1.267 15.013 2.872-2.458 6.166-4.214 9.207-6.409.07-.199.186-.38.338-.527" fill="#FF8F66"/><path d="M309.963 178.925c-32.6 1.52-33.11 6.166-33.11 6.166-4.169 3.952-11.808 16.506-7.179 15.035s7.312-.458 7.628-.221c1.436 1.1 1.2 4.323.95 6.942a49.64 49.64 0 0 1-2.7 10.558c0 3.885-1.958 7.047-2.042 11.017l58-.084s.421-19.68.591-26.269" fill="#F2EDDC"/><path d="M277.771 208.69c5.02-1.137 13.916-14.583.641-26.789-1.554-1.429 15.457 2.872 21.2 6.757.507 1.437 10.755 10.86 10.755 10.86s5.452-9.715-.817-19.286c6.81-1.208 19.17.257 24.24 21.1.372 1.529-2.532 7.557-2.416 9.3 0 0 2.848 12.642 1.581 17.457a190.126 190.126 0 0 1-25.065 1.96c-17.231 0-36.658-2.028-36.658-2.028a52.695 52.695 0 0 1 6.539-19.331Z" fill="#EDCF00"/><path d="M310.367 198.356c2.716 12.544 0 31.774 0 31.774" stroke="#AD960C" stroke-miterlimit="10"/><path d="M307.092 215.561a212.194 212.194 0 0 1-34.86-2.71l.856-4.926c20.772 3.607 47.9 3.249 60.206.653l1.033 4.892c-6.267 1.322-16.212 2.091-27.235 2.091Z" fill="url(#R)"/><path d="M252.873 195.921c-1.507 2-2.39 4.401-2.539 6.9.082 0 .082.082.164.082a15.53 15.53 0 0 0 8.6 3.734c2.152.177 4.313.231 6.471.162-.164-5.44 5.143-8.374 10.874-7.237.737-3.329 1.551-15.64 1.551-15.64s-17.421-.264-25.12 12" fill="#F2EDDC"/><path d="M273.839 217.152c.025-.066.064-.133.085-.2l-.024-.014c.008-.023.013-.046.02-.068-5.825-3.193-8.207-6.741-8.354-9.979a7.427 7.427 0 0 1 0-.578v-.082a29.749 29.749 0 0 1-12.688-2.437v.033a29.48 29.48 0 0 1-2.543-1.249c-.9 7.635 4.259 16.241 10.4 19.815.769.42 1.624.655 2.5.688a.879.879 0 0 1-.269.509l-.02.019a.89.89 0 0 1-.573.242h-.328c0 .326 6.552 3.493 10.32 4.143a34.46 34.46 0 0 1 1.474-10.842Z" fill="url(#S)"/><path d="M257.103 160.022a14.53 14.53 0 0 1-13.1-14.619v-.254a14.749 14.749 0 0 1 11.206-14.037c4.465-25.676 23.532-49.056 46.4-49.056 23.156 0 42.411 23.973 46.558 50.021a14.697 14.697 0 0 1 8.483 14.33 14.698 14.698 0 0 1-10.338 13.055c-6.491 19.15-24.045 30.031-44.7 30.031-20.454.001-37.866-10.67-44.509-29.471Z" fill="url(#T)"/><path d="M342.295 144.813h-55.208a14.536 14.536 0 0 0-13.423 8.968 14.51 14.51 0 0 0-1.105 5.56v21.454a49.978 49.978 0 0 0 28.971 8.7c20.272 0 38.155-11.368 44.912-29.95 0 0 1.29-8.388 0-14.732-.074.033-4.147 0-4.147 0Z" fill="#FF8F66"/><path d="M241.305 138.054V100.8l71.456 13.699V91.853l45.529-3.801-3.8 27.791c0 13.682-11.318 22.213-25 22.213h-16.725v-10.131a23.144 23.144 0 0 1-2.829 3.447 22.666 22.666 0 0 1-16.092 6.684h-22.4a14.802 14.802 0 0 0-12.489-7.352h-.312a14.487 14.487 0 0 0-7.4 2.027 14.825 14.825 0 0 0-5.257 5.323h-4.681Z" fill="url(#U)"/><path d="M241.305 138.054V100.8l71.456 13.699V91.853l45.529-3.801-3.8 27.791c0 13.682-11.318 22.213-25 22.213h-16.725v-10.131a23.144 23.144 0 0 1-2.829 3.447 22.666 22.666 0 0 1-16.092 6.684h-22.4a14.802 14.802 0 0 0-12.489-7.352h-.312a14.487 14.487 0 0 0-7.4 2.027 14.825 14.825 0 0 0-5.257 5.323h-4.681Z" fill="#000" fill-opacity=".2"/><path d="M307.101 177.33a8.87 8.87 0 0 0 8.195-5.475 8.861 8.861 0 0 0 .674-3.394h-17.738a8.982 8.982 0 0 0 8.869 8.869Z" fill="#fff"/><path d="M254.818 147.092c-3.548-1.267-3.885-6.335-.338-7.771a6.64 6.64 0 0 1 5.237-.169c3.632 1.436 4.646 3.8 4.646 8.024a9.733 9.733 0 0 1-2.449 6.5V153c-.001-2.614-3.801-4.73-7.096-5.908Z" fill="#FF8F66"/><path d="M292.314 143.71a6.762 6.762 0 0 0-6.628 6.847v5.306a6.762 6.762 0 0 0 6.628 6.847 6.762 6.762 0 0 0 6.628-6.847v-5.306a6.69 6.69 0 0 0-1.886-4.805 6.71 6.71 0 0 0-4.742-2.042ZM322.058 143.71a6.758 6.758 0 0 0-6.628 6.847v5.306a6.762 6.762 0 0 0 6.628 6.847 6.762 6.762 0 0 0 6.628-6.847v-5.306a6.69 6.69 0 0 0-1.886-4.805 6.71 6.71 0 0 0-4.742-2.042Z" fill="#262223"/><path d="M298.304 95.638c37.5 0 67.994 3.885 67.994 8.615v.169a4.902 4.902 0 0 1-4.9 4.9 7.485 7.485 0 0 1-1.351-.169h-.084c-5.49-1.52-14.359-2.787-25.255-3.632-10.474-.845-22.974-1.351-36.32-1.351s-25.846.507-36.32 1.351c-10.98.845-19.765 2.112-25.255 3.632l-.253.084a4.898 4.898 0 0 1-6-3.463 3.385 3.385 0 0 1-.253-1.267v-.169c.003-4.815 30.41-8.7 67.997-8.7Z" fill="#FFF100"/><path d="M230.31 110.926v-6.673c0-4.561 28.38-8.362 64.193-8.615h3.885c37.5 0 67.994 3.885 67.994 8.615v6.673a1.272 1.272 0 0 1-.253 1.1c-.084-.084-.253-.169-.338-.253-.929-.93-2.872-1.774-5.828-2.534a79.699 79.699 0 0 0-8.953-1.774 10.43 10.43 0 0 0-9.967 4.054 14.691 14.691 0 0 1-11.656 5.744h-36.742a22.29 22.29 0 0 1-13.514-4.561l-5.237-3.97a12.018 12.018 0 0 0-7.348-2.449c-7.1.084-11.994.084-12.754.169a115.18 115.18 0 0 0-17.146 2.872 15.691 15.691 0 0 0-6.081 2.787 1.531 1.531 0 0 1-.255-1.185Z" fill="#FFF100"/><path d="M277.384 33.725a62.426 62.426 0 0 0-41.388 58.787v8.865c5.659-1.6 15.119-3.041 26.944-3.885-.084-1.69-.084-3.38-.084-5.152 0-23.224 5.574-44.087 14.528-58.615Z" fill="url(#V)"/><path d="M360.581 92.513c.016-14.452-5.136-28.594-14.325-39.748 3.985 12.766 5.957 26.188 5.89 39.562 0 2.45-.055 4.682-.14 7.047 2.848.42 5.798 1.162 8.575 1.923v-8.784Z" fill="url(#W)"/><path d="M346.306 52.815a62.171 62.171 0 0 0-68.923-19.089c-8.953 14.528-14.528 35.391-14.528 58.534 0 1.69 0 3.463.084 5.152a486.336 486.336 0 0 1 31.505-1.267h3.8c21.876 0 41.388 1.351 53.8 3.38.084-2.366.169-4.815.169-7.18a127.747 127.747 0 0 0-5.907-39.53Z" fill="#FFF100"/><path d="m323.353 56.953-3.97-24.748a4.729 4.729 0 0 0-3.379-3.8 62.464 62.464 0 0 0-35.222 0 4.63 4.63 0 0 0-3.294 3.8l-3.97 24.748" fill="#FFF100"/><path d="M307.81 96.114V84.63l-14.359-8.784 14.359 20.267ZM322.086 75.842l-14.275 8.789v11.487l14.275-20.276ZM307.811 62.327l14.359 8.278-14.359-23.228v14.95ZM307.81 47.377l-14.359 23.228 14.359-8.278v-14.95Z" fill="#F9C838"/><path d="M307.811 62.327v16.555l14.359-8.278-14.359-8.277Z" fill="#F9C838"/><path d="m322.086 75.842-14.275 8.789v11.487l14.275-20.276Z" fill="#4B4D4D"/><path d="m293.451 70.605 14.359 8.278V62.327l-14.359 8.278Z" fill="#F9C838"/><path d="M307.81 96.114V84.63l-14.359-8.784 14.359 20.267ZM293.451 70.605l14.359-23.228v31.505l-14.359-8.277Z" fill="#0A0A0A"/><path d="M307.811 62.327v-14.95l14.359 23.228-14.359 8.278V62.327Z" fill="#4B4D4D"/></g><g filter="url(#X)"><g filter="url(#Y)"><path d="M389.983 129.839h-7.59a11.676 11.676 0 0 1-11.674-11.678V84.145a11.681 11.681 0 0 1 11.674-11.675h85.25a11.668 11.668 0 0 1 8.255 3.42 11.662 11.662 0 0 1 3.419 8.255v34.016a11.691 11.691 0 0 1-3.419 8.257 11.683 11.683 0 0 1-8.255 3.421h-59.3l-18.365 18.364.005-18.364Z" fill="#282C34"/></g></g><path d="M417.841 109.171h-1.709v-6.572h-5.83v6.572h-1.7v-14.22h1.7v6.114h5.83v-6.113h1.709v14.219Zm3.369-10.566h5.4v9h3.447v1.566h-8.847v-1.562h3.594v-7.432h-3.594v-1.572Zm3.359-2.773a1.11 1.11 0 0 1 .269-.757 1.015 1.015 0 0 1 .815-.308 1.026 1.026 0 0 1 .811.308c.183.209.28.479.273.757.008.27-.09.533-.273.732a1.058 1.058 0 0 1-.811.293 1.052 1.052 0 0 1-.815-.293 1.042 1.042 0 0 1-.268-.733h-.001Zm13.4 8.74h-1.817v-9.62h1.816l.001 9.62Zm-1.993 3.652c-.01-.286.089-.565.278-.781a1.055 1.055 0 0 1 .835-.312 1.09 1.09 0 0 1 .845.313c.195.212.299.492.292.78a1.06 1.06 0 0 1-.288.752 1.127 1.127 0 0 1-.391.239 1.13 1.13 0 0 1-.454.061 1.087 1.087 0 0 1-.835-.3 1.063 1.063 0 0 1-.282-.752Z" fill="#E5E6E7"/><defs><linearGradient id="c" x1="274.931" y1="337.522" x2="271.933" y2="334.066" gradientUnits="userSpaceOnUse"><stop stop-color="#FB7E51"/><stop offset="1" stop-color="#FF8F66"/></linearGradient><linearGradient id="d" x1="263.363" y1="331.503" x2="243.262" y2="310.549" gradientUnits="userSpaceOnUse"><stop stop-color="#E69C31"/><stop offset="1" stop-color="#E67731"/></linearGradient><linearGradient id="e" x1="219.28" y1="335.055" x2="226.884" y2="334.663" gradientUnits="userSpaceOnUse"><stop stop-color="#FB7E51"/><stop offset="1" stop-color="#FF8F66"/></linearGradient><linearGradient id="f" x1="278.718" y1="276.627" x2="230.182" y2="284.587" gradientUnits="userSpaceOnUse"><stop stop-color="#461E76"/><stop offset="1" stop-color="#7A3BC4"/></linearGradient><linearGradient id="g" x1="286.168" y1="287.282" x2="233.636" y2="300.464" gradientUnits="userSpaceOnUse"><stop stop-color="#461E76"/><stop offset="1" stop-color="#7A3BC4"/></linearGradient><linearGradient id="h" x1="223.474" y1="228.508" x2="223.474" y2="266.729" gradientUnits="userSpaceOnUse"><stop stop-color="#FFF100"/><stop offset="1" stop-color="#EDCF00"/></linearGradient><linearGradient id="i" x1="278.298" y1="239.271" x2="278.298" y2="266.709" gradientUnits="userSpaceOnUse"><stop stop-color="#FFF100"/><stop offset="1" stop-color="#EDCF00"/></linearGradient><linearGradient id="n" x1="124.071" y1="258.051" x2="127.439" y2="254.189" gradientUnits="userSpaceOnUse"><stop stop-color="#FB7E51"/><stop offset="1" stop-color="#FF8F66"/></linearGradient><linearGradient id="o" x1="128.188" y1="261.847" x2="131.509" y2="260.61" gradientUnits="userSpaceOnUse"><stop stop-color="#FB7E51"/><stop offset="1" stop-color="#FF8F66"/></linearGradient><linearGradient id="p" x1="126.073" y1="265.324" x2="131.818" y2="261.409" gradientUnits="userSpaceOnUse"><stop stop-color="#FB7E51"/><stop offset="1" stop-color="#FF8F66"/></linearGradient><linearGradient id="q" x1="136.358" y1="251.847" x2="158.863" y2="228.453" gradientUnits="userSpaceOnUse"><stop stop-color="#E69C31"/><stop offset="1" stop-color="#E67731"/></linearGradient><linearGradient id="r" x1="186.2" y1="255.277" x2="177.708" y2="254.841" gradientUnits="userSpaceOnUse"><stop stop-color="#FB7E51"/><stop offset="1" stop-color="#FF8F66"/></linearGradient><linearGradient id="s" x1="159.476" y1="199.672" x2="159.476" y2="228.369" gradientUnits="userSpaceOnUse"><stop stop-color="#F78250"/><stop offset="1" stop-color="#FF9666"/></linearGradient><linearGradient id="t" x1="122.311" y1="207.724" x2="122.311" y2="216.309" gradientUnits="userSpaceOnUse"><stop stop-color="#F78250"/><stop offset="1" stop-color="#FF9666"/></linearGradient><linearGradient id="u" x1="-1433.93" y1="326.203" x2="-1435.71" y2="341.635" gradientUnits="userSpaceOnUse"><stop stop-color="#FB7E51"/><stop offset="1" stop-color="#FF8F66"/></linearGradient><linearGradient id="v" x1="150.791" y1="195.629" x2="150.783" y2="174.024" gradientUnits="userSpaceOnUse"><stop stop-color="#FB7E51"/><stop offset="1" stop-color="#FF8F66"/></linearGradient><linearGradient id="w" x1="189.281" y1="183.222" x2="201.676" y2="179.657" gradientUnits="userSpaceOnUse"><stop stop-color="#7A3BC4"/><stop offset="1" stop-color="#461E76"/></linearGradient><linearGradient id="x" x1="90.233" y1="163.486" x2="144.762" y2="144.912" gradientUnits="userSpaceOnUse"><stop stop-color="#461E76"/><stop offset="1" stop-color="#7A3BC4"/></linearGradient><linearGradient id="y" x1="182.602" y1="136.763" x2="182.602" y2="179.76" gradientUnits="userSpaceOnUse"><stop stop-color="#FFF100"/><stop offset="1" stop-color="#EDCF00"/></linearGradient><linearGradient id="z" x1="121.149" y1="148.926" x2="121.149" y2="179.811" gradientUnits="userSpaceOnUse"><stop stop-color="#FFF100"/><stop offset="1" stop-color="#EDCF00"/></linearGradient><linearGradient id="E" x1="487.913" y1="344.604" x2="477.68" y2="335.946" gradientUnits="userSpaceOnUse"><stop stop-color="#461E76"/><stop offset="1" stop-color="#7A3BC4"/></linearGradient><linearGradient id="F" x1="436.87" y1="367.524" x2="439.438" y2="364.563" gradientUnits="userSpaceOnUse"><stop stop-color="#FB7E51"/><stop offset="1" stop-color="#FF8F66"/></linearGradient><linearGradient id="G" x1="446.778" y1="362.367" x2="463.988" y2="344.425" gradientUnits="userSpaceOnUse"><stop stop-color="#E69C31"/><stop offset="1" stop-color="#E67731"/></linearGradient><linearGradient id="H" x1="484.53" y1="365.409" x2="478.017" y2="365.073" gradientUnits="userSpaceOnUse"><stop stop-color="#FB7E51"/><stop offset="1" stop-color="#FF8F66"/></linearGradient><linearGradient id="I" x1="476.731" y1="324.667" x2="425.384" y2="320.975" gradientUnits="userSpaceOnUse"><stop stop-color="#7A3BC4"/><stop offset="1" stop-color="#461E76"/></linearGradient><linearGradient id="J" x1="479.472" y1="276.498" x2="479.472" y2="309.318" gradientUnits="userSpaceOnUse"><stop stop-color="#FFF100"/><stop offset="1" stop-color="#EDCF00"/></linearGradient><linearGradient id="K" x1="432.434" y1="285.753" x2="432.434" y2="309.304" gradientUnits="userSpaceOnUse"><stop stop-color="#FFF100"/><stop offset="1" stop-color="#EDCF00"/></linearGradient><linearGradient id="P" x1="298.22" y1="99.858" x2="298.22" y2="120.382" gradientUnits="userSpaceOnUse"><stop stop-color="#262223"/><stop offset="1"/></linearGradient><linearGradient id="Q" x1="228.208" y1="184.161" x2="242.976" y2="138.169" gradientUnits="userSpaceOnUse"><stop stop-color="#461E76"/><stop offset="1" stop-color="#7A3BC4"/></linearGradient><linearGradient id="R" x1="335.135" y1="213.31" x2="328.722" y2="185.481" gradientUnits="userSpaceOnUse"><stop stop-color="#E69C31"/><stop offset="1" stop-color="#E67731"/></linearGradient><linearGradient id="S" x1="253.976" y1="220.191" x2="260.588" y2="216.388" gradientUnits="userSpaceOnUse"><stop stop-color="#FB7E51"/><stop offset="1" stop-color="#FF8F66"/></linearGradient><linearGradient id="T" x1="300.343" y1="138.46" x2="300.343" y2="189.493" gradientUnits="userSpaceOnUse"><stop stop-color="#FB7E51"/><stop offset="1" stop-color="#FF8F66"/></linearGradient><linearGradient id="U" x1="360.275" y1="140.701" x2="268.688" y2="154.262" gradientUnits="userSpaceOnUse"><stop stop-color="#461E76"/><stop offset="1" stop-color="#7A3BC4"/></linearGradient><linearGradient id="V" x1="256.69" y1="33.725" x2="256.69" y2="101.377" gradientUnits="userSpaceOnUse"><stop stop-color="#FFF100"/><stop offset="1" stop-color="#EDCF00"/></linearGradient><linearGradient id="W" x1="353.486" y1="52.899" x2="353.486" y2="101.297" gradientUnits="userSpaceOnUse"><stop stop-color="#FFF100"/><stop offset="1" stop-color="#EDCF00"/></linearGradient><filter id="a" x="176.178" y="204.329" width="142.023" height="142.025" filterUnits="userSpaceOnUse" color-interpolation-filters="sRGB"><feFlood flood-opacity="0" result="BackgroundImageFix"/><feColorMatrix in="SourceAlpha" values="0 0 0 0 0 0 0 0 0 0 0 0 0 0 0 0 0 0 127 0" result="hardAlpha"/><feOffset dy="1"/><feGaussianBlur stdDeviation="4"/><feColorMatrix values="0 0 0 0 0.0156863 0 0 0 0 0.0156863 0 0 0 0 0.0196078 0 0 0 0.4 0"/><feBlend in2="BackgroundImageFix" result="effect1_dropShadow_5862_207995"/><feBlend in="SourceGraphic" in2="effect1_dropShadow_5862_207995" result="shape"/></filter><filter id="j" x="291.404" y="237.219" width="157.443" height="55.492" filterUnits="userSpaceOnUse" color-interpolation-filters="sRGB"><feFlood flood-opacity="0" result="BackgroundImageFix"/><feColorMatrix in="SourceAlpha" values="0 0 0 0 0 0 0 0 0 0 0 0 0 0 0 0 0 0 127 0" result="hardAlpha"/><feOffset dy="3"/><feGaussianBlur stdDeviation="3"/><feColorMatrix values="0 0 0 0 0.0392157 0 0 0 0 0.0392157 0 0 0 0 0.0392157 0 0 0 0.102 0"/><feBlend in2="BackgroundImageFix" result="effect1_dropShadow_5862_207995"/><feBlend in="SourceGraphic" in2="effect1_dropShadow_5862_207995" result="shape"/></filter><filter id="k" x="281.404" y="224.219" width="177.443" height="75.492" filterUnits="userSpaceOnUse" color-interpolation-filters="sRGB"><feFlood flood-opacity="0" result="BackgroundImageFix"/><feColorMatrix in="SourceAlpha" values="0 0 0 0 0 0 0 0 0 0 0 0 0 0 0 0 0 0 127 0" result="hardAlpha"/><feOffset/><feGaussianBlur stdDeviation="8"/><feColorMatrix values="0 0 0 0 0.0392157 0 0 0 0 0.0392157 0 0 0 0 0.0392157 0 0 0 0.102 0"/><feBlend in2="BackgroundImageFix" result="effect1_dropShadow_5862_207995"/><feBlend in="SourceGraphic" in2="effect1_dropShadow_5862_207995" result="shape"/></filter><filter id="l" x="77.154" y="110.125" width="157.023" height="157.025" filterUnits="userSpaceOnUse" color-interpolation-filters="sRGB"><feFlood flood-opacity="0" result="BackgroundImageFix"/><feColorMatrix in="SourceAlpha" values="0 0 0 0 0 0 0 0 0 0 0 0 0 0 0 0 0 0 127 0" result="hardAlpha"/><feOffset dy="1"/><feGaussianBlur stdDeviation="4"/><feColorMatrix values="0 0 0 0 0.0156863 0 0 0 0 0.0156863 0 0 0 0 0.0196078 0 0 0 0.4 0"/><feBlend in2="BackgroundImageFix" result="effect1_dropShadow_5862_207995"/><feBlend in="SourceGraphic" in2="effect1_dropShadow_5862_207995" result="shape"/></filter><filter id="A" x="10.004" y="158.716" width="100.91" height="64.436" filterUnits="userSpaceOnUse" color-interpolation-filters="sRGB"><feFlood flood-opacity="0" result="BackgroundImageFix"/><feColorMatrix in="SourceAlpha" values="0 0 0 0 0 0 0 0 0 0 0 0 0 0 0 0 0 0 127 0" result="hardAlpha"/><feOffset dy="3"/><feGaussianBlur stdDeviation="3"/><feColorMatrix values="0 0 0 0 0 0 0 0 0 0 0 0 0 0 0 0 0 0 0.102 0"/><feBlend in2="BackgroundImageFix" result="effect1_dropShadow_5862_207995"/><feBlend in="SourceGraphic" in2="effect1_dropShadow_5862_207995" result="shape"/></filter><filter id="B" x=".004" y="145.716" width="120.91" height="84.436" filterUnits="userSpaceOnUse" color-interpolation-filters="sRGB"><feFlood flood-opacity="0" result="BackgroundImageFix"/><feColorMatrix in="SourceAlpha" values="0 0 0 0 0 0 0 0 0 0 0 0 0 0 0 0 0 0 127 0" result="hardAlpha"/><feOffset/><feGaussianBlur stdDeviation="8"/><feColorMatrix values="0 0 0 0 0.0392157 0 0 0 0 0.0392157 0 0 0 0 0.0392157 0 0 0 0.102 0"/><feBlend in2="BackgroundImageFix" result="effect1_dropShadow_5862_207995"/><feBlend in="SourceGraphic" in2="effect1_dropShadow_5862_207995" result="shape"/></filter><filter id="C" x="399.393" y="257.591" width="117.023" height="117.025" filterUnits="userSpaceOnUse" color-interpolation-filters="sRGB"><feFlood flood-opacity="0" result="BackgroundImageFix"/><feColorMatrix in="SourceAlpha" values="0 0 0 0 0 0 0 0 0 0 0 0 0 0 0 0 0 0 127 0" result="hardAlpha"/><feOffset dy="1"/><feGaussianBlur stdDeviation="4"/><feColorMatrix values="0 0 0 0 0.0156863 0 0 0 0 0.0156863 0 0 0 0 0.0196078 0 0 0 0.4 0"/><feBlend in2="BackgroundImageFix" result="effect1_dropShadow_5862_207995"/><feBlend in="SourceGraphic" in2="effect1_dropShadow_5862_207995" result="shape"/></filter><filter id="L" x="309.41" y="292.889" width="117.482" height="48.589" filterUnits="userSpaceOnUse" color-interpolation-filters="sRGB"><feFlood flood-opacity="0" result="BackgroundImageFix"/><feColorMatrix in="SourceAlpha" values="0 0 0 0 0 0 0 0 0 0 0 0 0 0 0 0 0 0 127 0" result="hardAlpha"/><feOffset dy="3"/><feGaussianBlur stdDeviation="3"/><feColorMatrix values="0 0 0 0 0.0392157 0 0 0 0 0.0392157 0 0 0 0 0.0392157 0 0 0 0.102 0"/><feBlend in2="BackgroundImageFix" result="effect1_dropShadow_5862_207995"/><feBlend in="SourceGraphic" in2="effect1_dropShadow_5862_207995" result="shape"/></filter><filter id="M" x="299.41" y="279.889" width="137.482" height="68.589" filterUnits="userSpaceOnUse" color-interpolation-filters="sRGB"><feFlood flood-opacity="0" result="BackgroundImageFix"/><feColorMatrix in="SourceAlpha" values="0 0 0 0 0 0 0 0 0 0 0 0 0 0 0 0 0 0 127 0" result="hardAlpha"/><feOffset/><feGaussianBlur stdDeviation="8"/><feColorMatrix values="0 0 0 0 0.0392157 0 0 0 0 0.0392157 0 0 0 0 0.0392157 0 0 0 0.102 0"/><feBlend in2="BackgroundImageFix" result="effect1_dropShadow_5862_207995"/><feBlend in="SourceGraphic" in2="effect1_dropShadow_5862_207995" result="shape"/></filter><filter id="N" x="182.967" y=".5" width="223" height="223" filterUnits="userSpaceOnUse" color-interpolation-filters="sRGB"><feFlood flood-opacity="0" result="BackgroundImageFix"/><feColorMatrix in="SourceAlpha" values="0 0 0 0 0 0 0 0 0 0 0 0 0 0 0 0 0 0 127 0" result="hardAlpha"/><feOffset dy="1"/><feGaussianBlur stdDeviation="4"/><feColorMatrix values="0 0 0 0 0.0156863 0 0 0 0 0.0156863 0 0 0 0 0.0196078 0 0 0 0.4 0"/><feBlend in2="BackgroundImageFix" result="effect1_dropShadow_5862_207995"/><feBlend in="SourceGraphic" in2="effect1_dropShadow_5862_207995" result="shape"/></filter><filter id="X" x="364.719" y="69.471" width="120.598" height="87.732" filterUnits="userSpaceOnUse" color-interpolation-filters="sRGB"><feFlood flood-opacity="0" result="BackgroundImageFix"/><feColorMatrix in="SourceAlpha" values="0 0 0 0 0 0 0 0 0 0 0 0 0 0 0 0 0 0 127 0" result="hardAlpha"/><feOffset dy="3"/><feGaussianBlur stdDeviation="3"/><feColorMatrix values="0 0 0 0 0.0392157 0 0 0 0 0.0392157 0 0 0 0 0.0392157 0 0 0 0.102 0"/><feBlend in2="BackgroundImageFix" result="effect1_dropShadow_5862_207995"/><feBlend in="SourceGraphic" in2="effect1_dropShadow_5862_207995" result="shape"/></filter><filter id="Y" x="354.719" y="56.471" width="140.598" height="107.732" filterUnits="userSpaceOnUse" color-interpolation-filters="sRGB"><feFlood flood-opacity="0" result="BackgroundImageFix"/><feColorMatrix in="SourceAlpha" values="0 0 0 0 0 0 0 0 0 0 0 0 0 0 0 0 0 0 127 0" result="hardAlpha"/><feOffset/><feGaussianBlur stdDeviation="8"/><feColorMatrix values="0 0 0 0 0.0392157 0 0 0 0 0.0392157 0 0 0 0 0.0392157 0 0 0 0.102 0"/><feBlend in2="BackgroundImageFix" result="effect1_dropShadow_5862_207995"/><feBlend in="SourceGraphic" in2="effect1_dropShadow_5862_207995" result="shape"/></filter></defs></svg>