<?xml version="1.0" encoding="UTF-8"?>
<svg width="127px" height="28px" viewBox="0 0 127 28" version="1.1" xmlns="http://www.w3.org/2000/svg" xmlns:xlink="http://www.w3.org/1999/xlink">
    <!-- Generator: Sketch 51.3 (57544) - http://www.bohemiancoding.com/sketch -->
    <title>logoZeppelin-long</title>
    <desc>Created with Sketch.</desc>
    <defs></defs>
    <g id="Page-1" stroke="none" stroke-width="1" fill="none" fill-rule="evenodd" fill-opacity="0.57">
        <g id="Buidler-Web-v1" transform="translate(-497.000000, -2143.000000)" fill="#8B8B8B" fill-rule="nonzero">
            <g id="Used-By" transform="translate(360.000000, 2050.000000)">
                <g id="Group-2" transform="translate(137.000000, 78.000000)">
                    <g id="logoZeppelin-long" transform="translate(0.000000, 15.000000)">
                        <polygon id="Shape" points="0.52533049 0 23.2661834 0 19.9869296 5.58366738 0.52533049 5.58366738"></polygon>
                        <g id="_Group_" transform="translate(8.123667, 21.392324)">
                            <path d="M3.34965885,1.62473348 L0.0731130064,5.68656716 L15.0585714,5.68656716 L15.0585714,0.0731130064 L7.21923241,0.0731130064 C5.77812384,0.074954519 4.39281278,0.630436141 3.34965885,1.62473348 Z" id="_Path_"></path>
                        </g>
                        <path d="M19.6267804,6.19565032 L14.2110021,7.00801706 C12.4438787,7.32970369 10.9040302,8.40403955 9.99211087,9.95149254 L0,27.0788913 L7.42773987,27.0788913 L19.6267804,6.19565032 Z" id="_Path_2"></path>
                        <polygon id="Shape" points="33.4207676 19.3722388 33.4207676 18.0751599 40.1904904 8.83584222 33.4207676 8.83584222 33.4207676 7.53876333 41.836887 7.53876333 41.836887 8.83584222 35.1159062 18.0751599 41.8341791 18.0751599 41.8341791 19.3722388"></polygon>
                        <path d="M50.3207036,19.7269723 C49.2455041,19.7597445 48.1908698,19.4276063 47.3284861,18.7846269 C46.5449795,18.2007771 45.947671,17.402171 45.6089765,16.485629 C45.2701344,15.5295465 45.1023891,14.5212418 45.1134328,13.506951 C45.1134328,11.7016915 45.5530135,10.1970078 46.4321748,8.99289979 C47.3113362,7.78879176 48.6002914,7.18764037 50.2990405,7.18944563 C53.8355437,7.18944563 55.6037953,9.35034115 55.6037953,13.6721322 L55.6037953,13.7912793 L46.6190192,13.7912793 C46.6497086,15.174108 46.9683369,16.2933689 47.5749041,17.1490618 C48.1814712,18.0047548 49.1517982,18.4326013 50.4858849,18.4326013 C51.3009861,18.4487308 52.0979942,18.1913239 52.7496802,17.7014712 C53.3677522,17.2554781 53.7897431,16.5880535 53.9276119,15.8384435 L55.3898721,15.8384435 C55.2089033,16.9747336 54.6125554,18.0033856 53.7163966,18.7250533 C52.8516773,19.3929993 51.7197797,19.7269723 50.3207036,19.7269723 Z M46.6677612,12.5835608 L54.0927932,12.5835608 C54.0927932,11.3108529 53.7741649,10.3089339 53.1369083,9.57780384 C52.4996517,8.84667377 51.5609168,8.48562189 50.3207036,8.49464819 C49.1581166,8.49464819 48.2554869,8.89180526 47.6128145,9.6861194 C46.9708212,10.5128486 46.6366791,11.5372957 46.6677612,12.5835608 Z" id="Shape"></path>
                        <path d="M60.1503412,23.8971215 L60.1503412,7.53876333 L61.5421962,7.53876333 L61.5421962,9.32867804 L61.5882303,9.32867804 C62.3735181,7.89891258 63.6074129,7.18402985 65.2899147,7.18402985 C66.7519327,7.13005383 68.1412063,7.8226506 68.9780597,9.02268657 C69.8771934,10.2857126 70.3444682,11.8053054 70.3103412,13.3553092 C70.3299654,14.9334123 69.8566521,16.478307 68.9563966,17.7745842 C68.1548821,19.0210518 66.7604848,19.7582957 65.2790832,19.7188486 C64.5390818,19.7395185 63.8081598,19.551862 63.1696375,19.1772708 C62.5219089,18.7482917 61.9779681,18.1802991 61.5773987,17.5146269 L61.5313646,17.5146269 L61.5313646,23.8781663 L60.1503412,23.8971215 Z M65.2953305,18.4271855 C66.4036098,18.4589711 67.432854,17.8555123 67.9463539,16.8728571 C68.555406,15.8202864 68.8688258,14.622742 68.8534968,13.4067591 C68.8697587,12.2094823 68.5558972,11.0308621 67.9463539,10.0002345 C67.4212795,9.03306238 66.395253,8.44511463 65.2953305,8.48110874 C64.1493618,8.43878254 63.0673738,9.00917275 62.4547548,9.97857143 C61.7768656,11.0095637 61.4275241,12.221873 61.4528358,13.4555011 C61.4275241,14.6891291 61.7768656,15.9014385 62.4547548,16.9324307 C63.0658942,17.899265 64.1440935,18.4692881 65.2872068,18.4298934 L65.2953305,18.4271855 Z" id="Shape"></path>
                        <path d="M74.6917058,23.8971215 L74.6917058,7.53876333 L76.0916844,7.53876333 L76.0916844,9.32867804 L76.1377186,9.32867804 C76.9230064,7.89891258 78.1569012,7.18402985 79.839403,7.18402985 C81.3014209,7.13005383 82.6906946,7.8226506 83.527548,9.02268657 C84.4266817,10.2857126 84.8939565,11.8053054 84.8598294,13.3553092 C84.8794537,14.9334123 84.4061404,16.478307 83.5058849,17.7745842 C82.7043704,19.0210518 81.3099731,19.7582957 79.8285714,19.7188486 C79.0885701,19.7395185 78.357648,19.551862 77.7191258,19.1772708 C77.0713972,18.7482917 76.5274564,18.1802991 76.126887,17.5146269 L76.0916844,17.5146269 L76.0916844,23.8781663 L74.6917058,23.8971215 Z M79.8366951,18.4271855 C80.9449744,18.4589711 81.9742186,17.8555123 82.4877186,16.8728571 C83.099137,15.8218843 83.41536,14.625289 83.4029851,13.409467 C83.419247,12.2121902 83.1053855,11.03357 82.4958422,10.0029424 C81.9707678,9.03577027 80.9447413,8.44782252 79.8448188,8.48381663 C78.69885,8.44149043 77.6168621,9.01188064 77.0042431,9.98127932 C76.3263538,11.0122716 75.9770124,12.2245809 76.0023241,13.458209 C75.9770124,14.691837 76.3263538,15.9041463 77.0042431,16.9351386 C77.6150554,17.8992329 78.6906112,18.4679176 79.8312793,18.4298934 L79.8366951,18.4271855 Z" id="Shape"></path>
                        <path d="M93.9502132,19.7269723 C92.8750137,19.7597445 91.8203793,19.4276063 90.9579957,18.7846269 C90.1744891,18.2007771 89.5771806,17.402171 89.2384861,16.485629 C88.899644,15.5295465 88.7318987,14.5212418 88.7429424,13.506951 C88.7429424,11.7016915 89.1825231,10.1970078 90.0616844,8.99289979 C90.9408458,7.78879176 92.229801,7.18764037 93.9285501,7.18944563 C97.4650533,7.18944563 99.2333049,9.35034115 99.2333049,13.6721322 L99.2333049,13.7912793 L90.2485288,13.7912793 C90.2792182,15.174108 90.5978465,16.2933689 91.2044136,17.1490618 C91.8109808,18.0047548 92.7813077,18.4326013 94.1153945,18.4326013 C94.9304957,18.4487308 95.7275038,18.1913239 96.3791898,17.7014712 C96.9972618,17.2554781 97.4192527,16.5880535 97.5571215,15.8384435 L99.0193817,15.8384435 C98.8384129,16.9747336 98.242065,18.0033856 97.3459062,18.7250533 C96.4793817,19.3929993 95.347484,19.7269723 93.9502132,19.7269723 Z M90.2972708,12.5835608 L97.7223028,12.5835608 C97.7223028,11.3108529 97.4036745,10.3089339 96.7664179,9.57780384 C96.1291613,8.84667377 95.1904264,8.48562189 93.9502132,8.49464819 C92.7876262,8.49464819 91.8849964,8.89180526 91.2423241,9.6861194 C90.6003308,10.5128486 90.2661887,11.5372957 90.2972708,12.5835608 Z" id="Shape"></path>
                        <polygon id="Shape" points="103.982942 19.3722388 103.982942 2.35315565 105.336887 2.35315565 105.336887 19.3722388"></polygon>
                        <path d="M110.481876,4.3569936 L110.481876,2.33149254 L112.320533,2.33149254 L112.320533,4.35970149 L110.481876,4.3569936 Z M110.83661,19.3722388 L110.83661,7.53876333 L112.190554,7.53876333 L112.190554,19.3722388 L110.83661,19.3722388 Z" id="Shape"></path>
                        <path d="M117.709232,19.3722388 L117.709232,7.53876333 L119.101087,7.53876333 L119.101087,9.28264392 L119.147122,9.32867804 C119.869225,7.89891258 121.078749,7.18402985 122.775693,7.18402985 C124.111585,7.18402985 125.125238,7.63534471 125.816652,8.53797441 C126.508067,9.44060412 126.853774,10.5878465 126.853774,11.9797015 L126.853774,19.3722388 L125.461919,19.3722388 L125.461919,11.7359915 C125.501675,10.8758114 125.211044,10.032981 124.649552,9.38012793 C124.009257,8.75199532 123.131852,8.42612017 122.236766,8.48400098 C121.341681,8.54188179 120.513552,8.97804554 119.959488,9.68341151 C119.366326,10.5228928 119.060469,11.5316502 119.087548,12.5591898 L119.087548,19.3722388 L117.709232,19.3722388 Z" id="Shape"></path>
                    </g>
                </g>
            </g>
        </g>
    </g>
</svg>