<svg xmlns="http://www.w3.org/2000/svg" xmlns:xlink="http://www.w3.org/1999/xlink" width="445.027" height="396.031" viewBox="0 0 445.027 396.031"><defs><style>.a,.d{fill:none;}.b{isolation:isolate;}.c{fill:#fff;}.e{clip-path:url(#a);}.f{fill:#f0d50c;}.g{fill:#fff04d;}.h{fill:#fad360;}.i{fill:#0a0a0a;}.j{fill:#15191f;}.k,.l{stroke:none;}.l{fill:#f2f2f2;}</style><clipPath id="a"><path class="a" d="M140.621,261.6H123.076a11.512,11.512,0,0,0-23.024,0H82.431v-17.56a11.5,11.5,0,0,1-11.5-11.5h0a11.45,11.45,0,0,1,.906-4.482,5.956,5.956,0,0,1,.338-.706l.138-.292a11.512,11.512,0,0,1,10.115-6.017V203.467H99.975a11.528,11.528,0,0,0,23.024,0h17.621v17.5a11.512,11.512,0,0,1,11.5,11.5h0a11.389,11.389,0,0,1-.906,4.467c-.107.246-.23.491-.353.721a2.32,2.32,0,0,1-.138.276,11.451,11.451,0,0,1-10.1,6.017v17.683h0Zm-65.85,50.162a11.512,11.512,0,0,0-6.017-10.1,2.489,2.489,0,0,0-.292-.138l-.706-.353a11.451,11.451,0,0,0-4.482-.906h0a11.5,11.5,0,0,0-11.435,11.5H34.263V329.38a11.528,11.528,0,0,1,0,23.024v17.545H51.839a11.481,11.481,0,0,0,6.017,10.115l.276.138a7.711,7.711,0,0,0,.721.338,11.39,11.39,0,0,0,4.467.906h0a11.5,11.5,0,0,0,11.5-11.5h17.5V352.328a11.512,11.512,0,1,1,0-23.024V311.8H74.771ZM167.206,336.7a11.5,11.5,0,0,0-6.017-10.115l-.276-.138-.721-.338a11.39,11.39,0,0,0-4.467-.906h0a11.5,11.5,0,0,0-11.5,11.5h-17.5v17.621a11.528,11.528,0,0,1,0,23.024v17.514H144.3a11.528,11.528,0,0,0,6.017,10.115l.292.138.706.338a11.451,11.451,0,0,0,4.482.906h0a11.5,11.5,0,0,0,11.5-11.5h17.514V377.24a11.512,11.512,0,1,1,0-23.024V336.732H167.206Zm1.121-238.533a11.451,11.451,0,0,0,6.017,10.1l.276.138.721.353a11.435,11.435,0,0,0,4.467.906h0a11.5,11.5,0,0,0,11.5-11.5h17.514V80.548a11.528,11.528,0,0,1,0-23.024V39.963h-17.5a11.512,11.512,0,0,0-5.94-10.146l-.292-.138a5.954,5.954,0,0,0-.706-.338,11.436,11.436,0,0,0-4.467-.906h0a11.5,11.5,0,0,0-11.5,11.5H150.813V57.554a11.512,11.512,0,1,1,0,23.024V98.123H168.4ZM277.478,341.46v-17.5H259.856a11.528,11.528,0,0,1-23.024,0H219.149v17.575a11.512,11.512,0,0,0-10.115,6.016l-.138.292c-.107.23-.23.476-.338.721a11.389,11.389,0,0,0-.906,4.467h0a11.5,11.5,0,0,0,11.5,11.435v17.5h17.621a11.512,11.512,0,1,1,23.024,0h17.56v-17.5a11.527,11.527,0,0,0,10.115-6.017,2.517,2.517,0,0,1,.138-.292l.338-.706a11.51,11.51,0,0,0,.906-4.482h0a11.5,11.5,0,0,0-11.374-11.512Zm-63.532-23.608h0V300.262a11.5,11.5,0,0,0,10.115-6.017l.138-.292c.107-.23.23-.46.338-.706a11.436,11.436,0,0,0,.906-4.467h0a11.5,11.5,0,0,0-11.5-11.5v-17.5H196.294a11.512,11.512,0,1,1-23.024,0h-17.56v17.591a11.5,11.5,0,0,0-10.115,6.017l-.138.292c-.107.23-.23.46-.338.706a11.435,11.435,0,0,0-.906,4.467h0a11.5,11.5,0,0,0,11.5,11.5v17.514h17.621a11.512,11.512,0,1,1,23.024,0h17.56ZM477.79,40.9h0a11.389,11.389,0,0,1-.906,4.467c-.107.246-.23.491-.353.721a2.5,2.5,0,0,1-.138.292,11.481,11.481,0,0,1-10.115,6.032V69.987H448.7a11.512,11.512,0,0,0-23.024,0H408.21V86.626a11.5,11.5,0,0,1,11.5,11.5h0a11.39,11.39,0,0,1-.906,4.467c-.107.246-.23.491-.353.721a2.335,2.335,0,0,1-.138.276,11.451,11.451,0,0,1-10.1,6.017V127.2h0v17.314a11.528,11.528,0,0,0,0,23.024v17.621H390.589a11.512,11.512,0,0,1-11.5,11.5h0a11.39,11.39,0,0,1-4.467-.906l-.721-.353-.276-.138a11.481,11.481,0,0,1-6.017-10.1H350v16.3a11.528,11.528,0,0,0,0,23.024V241.8h17.667a11.5,11.5,0,0,1,11.5-11.5h0a11.451,11.451,0,0,1,4.482.906,5.945,5.945,0,0,1,.706.338l.292.138a11.512,11.512,0,0,1,6.017,10.115H408.2V224.45a11.512,11.512,0,0,0,0-23.024V183.912h17.514a11.5,11.5,0,0,1,11.5-11.5h0a11.451,11.451,0,0,1,4.482.906l.706.338.292.138a11.528,11.528,0,0,1,6.017,10.115h17.575v17.545a11.528,11.528,0,0,0,0,23.024V242.1h-17.5a11.5,11.5,0,0,1-11.666,11.543h0a11.39,11.39,0,0,1-4.467-.906l-.721-.338-.276-.138a11.5,11.5,0,0,1-6.017-10.115H408.149v17.33a11.528,11.528,0,0,0,0,23.024v17.621h-17.56a11.512,11.512,0,0,1-11.5,11.5h0a11.39,11.39,0,0,1-4.467-.906l-.721-.353-.276-.138a11.481,11.481,0,0,1-6.017-10.1h-17.56v10.315h0v7.491a11.512,11.512,0,0,0,0,23.024v17.621H332.429a11.5,11.5,0,0,1-11.5,11.5h0a11.39,11.39,0,0,1-4.467-.906l-.721-.338-.292-.138a11.5,11.5,0,0,1-6-10.115H291.845V340.923a11.528,11.528,0,0,0,0-23.024V300.277h.169V300.2H274.408a11.5,11.5,0,0,1-11.5,11.5h0a11.45,11.45,0,0,1-4.482-.906l-.706-.353a2.5,2.5,0,0,1-.292-.138,11.512,11.512,0,0,1-6.017-10.1H233.9V282.548a11.512,11.512,0,1,0,0-23.024V242.21H216.785a11.5,11.5,0,0,1-11.451,11.435h0a11.512,11.512,0,0,1-4.482-.906l-.706-.338-.292-.138a11.527,11.527,0,0,1-6.017-10.115H176.17V224.558a11.512,11.512,0,0,0,0-23.024V183.912h-.123v-17.5a11.512,11.512,0,0,1-11.5-11.5h0a11.956,11.956,0,0,1,.906-4.467c.107-.246.23-.476.353-.721l.138-.276a11.481,11.481,0,0,1,10.1-6.017V125.783h17.545a11.512,11.512,0,0,0,23.024,0H233.7V109.62a11.5,11.5,0,0,1-11.5-11.5h0a11.451,11.451,0,0,1,.906-4.482c.107-.246.23-.476.353-.706a2.5,2.5,0,0,1,.138-.292,11.482,11.482,0,0,1,10.1-6.017V69.051h17.683a11.512,11.512,0,0,0,23.024,0h17.345V52.412A11.512,11.512,0,0,1,280.241,40.9h0a11.512,11.512,0,0,1,.906-4.482,7.369,7.369,0,0,1,.338-.706l.138-.292A11.512,11.512,0,0,1,291.738,29.4V11.827h17.545a11.528,11.528,0,0,0,23.024,0h17.621v17.5a11.512,11.512,0,0,1,11.5,11.5h0a11.39,11.39,0,0,1-.906,4.467c-.107.246-.23.491-.353.721a2.493,2.493,0,0,1-.138.292,11.512,11.512,0,0,1-10.1,6.017V69.081h17.5a11.528,11.528,0,0,0,23.024,0h17.468V52.412a11.5,11.5,0,0,1-11.5-11.512h0a11.513,11.513,0,0,1,.906-4.482,7.384,7.384,0,0,1,.338-.706l.138-.292A11.512,11.512,0,0,1,407.919,29.4V11.827h17.545a11.528,11.528,0,0,0,23.024,0h17.621v17.5A11.512,11.512,0,0,1,477.79,40.9ZM234.33,184.142h17.053a11.512,11.512,0,0,0,23.024,0h17.345V167.549a11.512,11.512,0,0,1-11.512-11.5h0a11.391,11.391,0,0,1,.906-4.467,6.152,6.152,0,0,1,.338-.721l.138-.292a11.5,11.5,0,0,1,10.115-6V127.18H274.515a11.528,11.528,0,0,0-23.024,0H234.422v16.24a11.5,11.5,0,0,1,11.5,11.5h0a12.035,12.035,0,0,1-.906,4.482c-.107.246-.23.476-.353.706l-.138.292a11.512,11.512,0,0,1-10.1,6.017v17.575h-.077ZM349.974,69.956H332.46a11.512,11.512,0,0,0-23.024,0H292.091v16.67a11.5,11.5,0,0,1,11.481,11.5h0a11.388,11.388,0,0,1-.906,4.467c-.107.246-.215.491-.338.721l-.138.276a11.481,11.481,0,0,1-10.115,6.017V126.98h17.3a11.528,11.528,0,0,0,23.024,0h17.545V109.62a11.5,11.5,0,0,1-11.5-11.5h0a11.449,11.449,0,0,1,.906-4.482c.107-.246.215-.476.338-.706l.138-.292a11.512,11.512,0,0,1,10.115-6.017V69.956Z" transform="translate(-34.263 -11.827)"/></clipPath></defs><g transform="translate(0.75 0.749)"><g class="b" transform="translate(0 0)"><g transform="translate(0 0)"><path class="c" d="M140.621,261.6H123.076a11.512,11.512,0,1,0-23.024,0H82.431v-17.56a11.5,11.5,0,0,1-11.5-11.5h0a11.45,11.45,0,0,1,.906-4.482,5.956,5.956,0,0,1,.338-.706l.138-.292a11.512,11.512,0,0,1,10.115-6.017V203.467H99.975a11.528,11.528,0,0,0,23.024,0h17.621v17.5a11.512,11.512,0,0,1,11.5,11.5h0a11.39,11.39,0,0,1-.906,4.467c-.107.246-.23.491-.353.721a2.321,2.321,0,0,1-.138.276,11.451,11.451,0,0,1-10.1,6.017v17.683h0Zm-65.85,50.162a11.512,11.512,0,0,0-6.017-10.1,2.484,2.484,0,0,0-.292-.138l-.706-.353a11.451,11.451,0,0,0-4.482-.906h0a11.5,11.5,0,0,0-11.435,11.5H34.263V329.38a11.528,11.528,0,0,1,0,23.024v17.545H51.839a11.482,11.482,0,0,0,6.017,10.115l.276.138a7.713,7.713,0,0,0,.721.338,11.391,11.391,0,0,0,4.467.906h0a11.5,11.5,0,0,0,11.5-11.5h17.5V352.327a11.512,11.512,0,0,1,0-23.024V311.8H74.771ZM167.206,336.7a11.5,11.5,0,0,0-6.017-10.115l-.276-.138-.721-.338a11.39,11.39,0,0,0-4.467-.906h0a11.5,11.5,0,0,0-11.5,11.5h-17.5v17.621a11.528,11.528,0,0,1,0,23.024v17.514H144.3a11.528,11.528,0,0,0,6.017,10.115l.292.138.706.338a11.451,11.451,0,0,0,4.482.906h0a11.5,11.5,0,0,0,11.5-11.5h17.514V377.24a11.512,11.512,0,1,1,0-23.024V336.732H167.206Zm1.121-238.533a11.451,11.451,0,0,0,6.017,10.1l.276.138.721.353a11.435,11.435,0,0,0,4.467.906h0a11.5,11.5,0,0,0,11.5-11.5h17.514V80.548a11.528,11.528,0,0,1,0-23.024V39.963h-17.5a11.512,11.512,0,0,0-5.94-10.146l-.292-.138a5.949,5.949,0,0,0-.706-.338,11.435,11.435,0,0,0-4.467-.906h0a11.5,11.5,0,0,0-11.5,11.5H150.813V57.554a11.512,11.512,0,0,1,0,23.024V98.123H168.4ZM277.478,341.46v-17.5H259.856a11.528,11.528,0,0,1-23.024,0H219.149v17.575a11.512,11.512,0,0,0-10.115,6.016l-.138.292c-.107.23-.23.476-.338.721a11.389,11.389,0,0,0-.906,4.467h0a11.5,11.5,0,0,0,11.5,11.435v17.5h17.621a11.512,11.512,0,1,1,23.024,0h17.56v-17.5a11.527,11.527,0,0,0,10.115-6.017,2.512,2.512,0,0,1,.138-.292l.338-.706a11.511,11.511,0,0,0,.906-4.482h0a11.5,11.5,0,0,0-11.374-11.512Zm-63.532-23.608h0V300.262a11.5,11.5,0,0,0,10.115-6.017l.138-.292c.108-.23.23-.46.338-.706a11.437,11.437,0,0,0,.906-4.467h0a11.5,11.5,0,0,0-11.5-11.5v-17.5H196.294a11.512,11.512,0,1,1-23.024,0h-17.56v17.591a11.5,11.5,0,0,0-10.115,6.017l-.138.292c-.107.23-.23.46-.338.706a11.434,11.434,0,0,0-.906,4.467h0a11.5,11.5,0,0,0,11.5,11.5v17.514h17.621a11.512,11.512,0,0,1,23.024,0h17.56ZM477.79,40.9h0a11.389,11.389,0,0,1-.906,4.467c-.107.246-.23.491-.353.721a2.518,2.518,0,0,1-.138.292,11.482,11.482,0,0,1-10.115,6.032V69.987H448.7a11.512,11.512,0,1,0-23.024,0H408.21V86.626a11.5,11.5,0,0,1,11.5,11.5h0a11.389,11.389,0,0,1-.906,4.467c-.107.246-.23.491-.353.721a2.327,2.327,0,0,1-.138.276,11.451,11.451,0,0,1-10.1,6.017V127.2h0v17.314a11.528,11.528,0,0,0,0,23.024v17.621H390.589a11.512,11.512,0,0,1-11.5,11.5h0a11.39,11.39,0,0,1-4.467-.906l-.722-.353-.276-.138a11.481,11.481,0,0,1-6.017-10.1H350v16.3a11.528,11.528,0,0,0,0,23.024V241.8h17.667a11.5,11.5,0,0,1,11.5-11.5h0a11.451,11.451,0,0,1,4.482.906,5.944,5.944,0,0,1,.706.338l.292.138a11.512,11.512,0,0,1,6.017,10.115h17.529V224.45a11.512,11.512,0,1,0,0-23.024V183.912h17.514a11.5,11.5,0,0,1,11.5-11.5h0a11.451,11.451,0,0,1,4.482.906l.706.338.292.138a11.528,11.528,0,0,1,6.017,10.115h17.575v17.545a11.528,11.528,0,0,0,0,23.024V242.1h-17.5a11.5,11.5,0,0,1-11.666,11.543h0a11.391,11.391,0,0,1-4.467-.906l-.721-.338-.276-.138a11.5,11.5,0,0,1-6.017-10.115H408.149v17.33a11.528,11.528,0,0,0,0,23.024v17.621h-17.56a11.512,11.512,0,0,1-11.5,11.5h0a11.389,11.389,0,0,1-4.467-.906l-.722-.353-.276-.138a11.481,11.481,0,0,1-6.017-10.1h-17.56v10.315h0v7.491a11.512,11.512,0,1,0,0,23.024v17.621H332.429a11.5,11.5,0,0,1-11.5,11.5h0a11.39,11.39,0,0,1-4.467-.906l-.721-.338-.292-.138a11.5,11.5,0,0,1-6-10.115H291.845V340.923a11.528,11.528,0,0,0,0-23.024V300.277h.169V300.2H274.408a11.5,11.5,0,0,1-11.5,11.5h0a11.45,11.45,0,0,1-4.482-.906l-.706-.353a2.5,2.5,0,0,1-.292-.138,11.512,11.512,0,0,1-6.017-10.1H233.9V282.548a11.512,11.512,0,1,0,0-23.024V242.21H216.785a11.5,11.5,0,0,1-11.451,11.435h0a11.511,11.511,0,0,1-4.482-.906l-.706-.338-.292-.138a11.527,11.527,0,0,1-6.017-10.115H176.17V224.557a11.512,11.512,0,1,0,0-23.024V183.912h-.123v-17.5a11.512,11.512,0,0,1-11.5-11.5h0a11.956,11.956,0,0,1,.906-4.467c.107-.246.23-.476.353-.721l.138-.276a11.482,11.482,0,0,1,10.1-6.017V125.783h17.545a11.512,11.512,0,1,0,23.024,0H233.7V109.62a11.5,11.5,0,0,1-11.5-11.5h0a11.451,11.451,0,0,1,.906-4.482c.107-.246.23-.476.353-.706a2.5,2.5,0,0,1,.138-.292,11.481,11.481,0,0,1,10.1-6.017V69.051h17.683a11.512,11.512,0,0,0,23.024,0h17.345V52.412A11.512,11.512,0,0,1,280.241,40.9h0a11.512,11.512,0,0,1,.906-4.482,7.361,7.361,0,0,1,.338-.706l.138-.292A11.512,11.512,0,0,1,291.738,29.4V11.827h17.545a11.528,11.528,0,0,0,23.024,0h17.621v17.5a11.512,11.512,0,0,1,11.5,11.5h0a11.389,11.389,0,0,1-.906,4.467c-.108.246-.23.491-.353.721a2.493,2.493,0,0,1-.138.292,11.512,11.512,0,0,1-10.1,6.017V69.081h17.5a11.528,11.528,0,0,0,23.024,0h17.468V52.412a11.5,11.5,0,0,1-11.5-11.512h0a11.513,11.513,0,0,1,.906-4.482,7.384,7.384,0,0,1,.338-.706l.138-.292A11.512,11.512,0,0,1,407.919,29.4V11.827h17.545a11.528,11.528,0,0,0,23.024,0h17.621v17.5A11.512,11.512,0,0,1,477.79,40.9ZM234.33,184.142h17.053a11.512,11.512,0,0,0,23.024,0h17.345V167.549a11.512,11.512,0,0,1-11.512-11.5h0a11.389,11.389,0,0,1,.906-4.467,6.158,6.158,0,0,1,.338-.721l.138-.292a11.5,11.5,0,0,1,10.115-6V127.18H274.515a11.527,11.527,0,0,0-23.024,0H234.422v16.24a11.5,11.5,0,0,1,11.5,11.5h0a12.036,12.036,0,0,1-.906,4.482c-.107.246-.23.476-.353.706l-.138.292a11.512,11.512,0,0,1-10.1,6.017v17.575h-.077ZM349.974,69.956H332.46a11.512,11.512,0,0,0-23.024,0H292.091v16.67a11.5,11.5,0,0,1,11.481,11.5h0a11.39,11.39,0,0,1-.906,4.467c-.107.246-.215.491-.338.721l-.138.276a11.481,11.481,0,0,1-10.115,6.017V126.98h17.3a11.528,11.528,0,0,0,23.024,0h17.545V109.62a11.5,11.5,0,0,1-11.5-11.5h0a11.45,11.45,0,0,1,.906-4.482c.107-.246.215-.476.338-.706l.138-.292a11.512,11.512,0,0,1,10.115-6.017V69.956Z" transform="translate(-34.263 -11.827)"/><g class="d" transform="translate(-34.263 -11.826)"><path class="k" d="M140.621,261.6H123.076a11.512,11.512,0,1,0-23.024,0H82.431v-17.56a11.5,11.5,0,0,1-11.5-11.5h0a11.45,11.45,0,0,1,.906-4.482,5.956,5.956,0,0,1,.338-.706l.138-.292a11.512,11.512,0,0,1,10.115-6.017V203.467H99.975a11.528,11.528,0,0,0,23.024,0h17.621v17.5a11.512,11.512,0,0,1,11.5,11.5h0a11.39,11.39,0,0,1-.906,4.467c-.107.246-.23.491-.353.721a2.321,2.321,0,0,1-.138.276,11.451,11.451,0,0,1-10.1,6.017v17.683h0Zm-65.85,50.162a11.512,11.512,0,0,0-6.017-10.1,2.484,2.484,0,0,0-.292-.138l-.706-.353a11.451,11.451,0,0,0-4.482-.906h0a11.5,11.5,0,0,0-11.435,11.5H34.263V329.38a11.528,11.528,0,0,1,0,23.024v17.545H51.839a11.482,11.482,0,0,0,6.017,10.115l.276.138a7.713,7.713,0,0,0,.721.338,11.391,11.391,0,0,0,4.467.906h0a11.5,11.5,0,0,0,11.5-11.5h17.5V352.327a11.512,11.512,0,0,1,0-23.024V311.8H74.771ZM167.206,336.7a11.5,11.5,0,0,0-6.017-10.115l-.276-.138-.721-.338a11.39,11.39,0,0,0-4.467-.906h0a11.5,11.5,0,0,0-11.5,11.5h-17.5v17.621a11.528,11.528,0,0,1,0,23.024v17.514H144.3a11.528,11.528,0,0,0,6.017,10.115l.292.138.706.338a11.451,11.451,0,0,0,4.482.906h0a11.5,11.5,0,0,0,11.5-11.5h17.514V377.24a11.512,11.512,0,1,1,0-23.024V336.732H167.206Zm1.121-238.533a11.451,11.451,0,0,0,6.017,10.1l.276.138.721.353a11.435,11.435,0,0,0,4.467.906h0a11.5,11.5,0,0,0,11.5-11.5h17.514V80.548a11.528,11.528,0,0,1,0-23.024V39.963h-17.5a11.512,11.512,0,0,0-5.94-10.146l-.292-.138a5.949,5.949,0,0,0-.706-.338,11.435,11.435,0,0,0-4.467-.906h0a11.5,11.5,0,0,0-11.5,11.5H150.813V57.554a11.512,11.512,0,0,1,0,23.024V98.123H168.4ZM277.478,341.46v-17.5H259.856a11.528,11.528,0,0,1-23.024,0H219.149v17.575a11.512,11.512,0,0,0-10.115,6.016l-.138.292c-.107.23-.23.476-.338.721a11.389,11.389,0,0,0-.906,4.467h0a11.5,11.5,0,0,0,11.5,11.435v17.5h17.621a11.512,11.512,0,1,1,23.024,0h17.56v-17.5a11.527,11.527,0,0,0,10.115-6.017,2.512,2.512,0,0,1,.138-.292l.338-.706a11.511,11.511,0,0,0,.906-4.482h0a11.5,11.5,0,0,0-11.374-11.512Zm-63.532-23.608h0V300.262a11.5,11.5,0,0,0,10.115-6.017l.138-.292c.108-.23.23-.46.338-.706a11.437,11.437,0,0,0,.906-4.467h0a11.5,11.5,0,0,0-11.5-11.5v-17.5H196.294a11.512,11.512,0,1,1-23.024,0h-17.56v17.591a11.5,11.5,0,0,0-10.115,6.017l-.138.292c-.107.23-.23.46-.338.706a11.434,11.434,0,0,0-.906,4.467h0a11.5,11.5,0,0,0,11.5,11.5v17.514h17.621a11.512,11.512,0,0,1,23.024,0h17.56ZM477.79,40.9h0a11.389,11.389,0,0,1-.906,4.467c-.107.246-.23.491-.353.721a2.518,2.518,0,0,1-.138.292,11.482,11.482,0,0,1-10.115,6.032V69.987H448.7a11.512,11.512,0,1,0-23.024,0H408.21V86.626a11.5,11.5,0,0,1,11.5,11.5h0a11.389,11.389,0,0,1-.906,4.467c-.107.246-.23.491-.353.721a2.327,2.327,0,0,1-.138.276,11.451,11.451,0,0,1-10.1,6.017V127.2h0v17.314a11.528,11.528,0,0,0,0,23.024v17.621H390.589a11.512,11.512,0,0,1-11.5,11.5h0a11.39,11.39,0,0,1-4.467-.906l-.722-.353-.276-.138a11.481,11.481,0,0,1-6.017-10.1H350v16.3a11.528,11.528,0,0,0,0,23.024V241.8h17.667a11.5,11.5,0,0,1,11.5-11.5h0a11.451,11.451,0,0,1,4.482.906,5.944,5.944,0,0,1,.706.338l.292.138a11.512,11.512,0,0,1,6.017,10.115h17.529V224.45a11.512,11.512,0,1,0,0-23.024V183.912h17.514a11.5,11.5,0,0,1,11.5-11.5h0a11.451,11.451,0,0,1,4.482.906l.706.338.292.138a11.528,11.528,0,0,1,6.017,10.115h17.575v17.545a11.528,11.528,0,0,0,0,23.024V242.1h-17.5a11.5,11.5,0,0,1-11.666,11.543h0a11.391,11.391,0,0,1-4.467-.906l-.721-.338-.276-.138a11.5,11.5,0,0,1-6.017-10.115H408.149v17.33a11.528,11.528,0,0,0,0,23.024v17.621h-17.56a11.512,11.512,0,0,1-11.5,11.5h0a11.389,11.389,0,0,1-4.467-.906l-.722-.353-.276-.138a11.481,11.481,0,0,1-6.017-10.1h-17.56v10.315h0v7.491a11.512,11.512,0,1,0,0,23.024v17.621H332.429a11.5,11.5,0,0,1-11.5,11.5h0a11.39,11.39,0,0,1-4.467-.906l-.721-.338-.292-.138a11.5,11.5,0,0,1-6-10.115H291.845V340.923a11.528,11.528,0,0,0,0-23.024V300.277h.169V300.2H274.408a11.5,11.5,0,0,1-11.5,11.5h0a11.45,11.45,0,0,1-4.482-.906l-.706-.353a2.5,2.5,0,0,1-.292-.138,11.512,11.512,0,0,1-6.017-10.1H233.9V282.548a11.512,11.512,0,1,0,0-23.024V242.21H216.785a11.5,11.5,0,0,1-11.451,11.435h0a11.511,11.511,0,0,1-4.482-.906l-.706-.338-.292-.138a11.527,11.527,0,0,1-6.017-10.115H176.17V224.557a11.512,11.512,0,1,0,0-23.024V183.912h-.123v-17.5a11.512,11.512,0,0,1-11.5-11.5h0a11.956,11.956,0,0,1,.906-4.467c.107-.246.23-.476.353-.721l.138-.276a11.482,11.482,0,0,1,10.1-6.017V125.783h17.545a11.512,11.512,0,1,0,23.024,0H233.7V109.62a11.5,11.5,0,0,1-11.5-11.5h0a11.451,11.451,0,0,1,.906-4.482c.107-.246.23-.476.353-.706a2.5,2.5,0,0,1,.138-.292,11.481,11.481,0,0,1,10.1-6.017V69.051h17.683a11.512,11.512,0,0,0,23.024,0h17.345V52.412A11.512,11.512,0,0,1,280.241,40.9h0a11.512,11.512,0,0,1,.906-4.482,7.361,7.361,0,0,1,.338-.706l.138-.292A11.512,11.512,0,0,1,291.738,29.4V11.827h17.545a11.528,11.528,0,0,0,23.024,0h17.621v17.5a11.512,11.512,0,0,1,11.5,11.5h0a11.389,11.389,0,0,1-.906,4.467c-.108.246-.23.491-.353.721a2.493,2.493,0,0,1-.138.292,11.512,11.512,0,0,1-10.1,6.017V69.081h17.5a11.528,11.528,0,0,0,23.024,0h17.468V52.412a11.5,11.5,0,0,1-11.5-11.512h0a11.513,11.513,0,0,1,.906-4.482,7.384,7.384,0,0,1,.338-.706l.138-.292A11.512,11.512,0,0,1,407.919,29.4V11.827h17.545a11.528,11.528,0,0,0,23.024,0h17.621v17.5A11.512,11.512,0,0,1,477.79,40.9ZM234.33,184.142h17.053a11.512,11.512,0,0,0,23.024,0h17.345V167.549a11.512,11.512,0,0,1-11.512-11.5h0a11.389,11.389,0,0,1,.906-4.467,6.158,6.158,0,0,1,.338-.721l.138-.292a11.5,11.5,0,0,1,10.115-6V127.18H274.515a11.527,11.527,0,0,0-23.024,0H234.422v16.24a11.5,11.5,0,0,1,11.5,11.5h0a12.036,12.036,0,0,1-.906,4.482c-.107.246-.23.476-.353.706l-.138.292a11.512,11.512,0,0,1-10.1,6.017v17.575h-.077ZM349.974,69.956H332.46a11.512,11.512,0,0,0-23.024,0H292.091v16.67a11.5,11.5,0,0,1,11.481,11.5h0a11.39,11.39,0,0,1-.906,4.467c-.107.246-.215.491-.338.721l-.138.276a11.481,11.481,0,0,1-10.115,6.017V126.98h17.3a11.528,11.528,0,0,0,23.024,0h17.545V109.62a11.5,11.5,0,0,1-11.5-11.5h0a11.45,11.45,0,0,1,.906-4.482c.107-.246.215-.476.338-.706l.138-.292a11.512,11.512,0,0,1,10.115-6.017V69.956Z"/><path class="l" d="M 155.7829742431641 406.3580932617188 C 155.7891693115234 406.3580932617188 155.7953643798828 406.3580627441406 155.8015747070312 406.3580627441406 C 162.1510772705078 406.3580627441406 167.2984008789062 401.2108459472656 167.2984008789062 394.8612365722656 L 184.8122863769531 394.8612365722656 L 184.8122863769531 377.2398986816406 C 178.4542999267578 377.2398986816406 173.3001251220703 372.0856628417969 173.3001251220703 365.7276611328125 C 173.3001251220703 359.3696899414062 178.4542999267578 354.215576171875 184.8123474121094 354.215576171875 L 184.8122863769531 336.7323303222656 L 167.206298828125 336.7323303222656 L 167.206298828125 336.7015686035156 C 167.2093963623047 332.48095703125 164.8996887207031 328.5979614257812 161.1892395019531 326.586181640625 L 160.9130096435547 326.447998046875 L 160.1915740966797 326.1103515625 C 158.7838439941406 325.5127563476562 157.2700500488281 325.2047119140625 155.7408752441406 325.2047119140625 C 155.7354431152344 325.2047119140625 155.730224609375 325.2047119140625 155.7247924804688 325.2047424316406 C 149.3752899169922 325.2047424316406 144.2279052734375 330.35205078125 144.2279052734375 336.7016296386719 L 126.7294006347656 336.7016296386719 L 126.7294006347656 354.3229064941406 C 132.8566284179688 354.639404296875 137.662353515625 359.6997375488281 137.662353515625 365.8351135253906 C 137.662353515625 371.9705200195312 132.8566284179688 377.0308532714844 126.7294006347656 377.3472900390625 L 126.7294006347656 394.8612365722656 L 144.3046875 394.8612365722656 C 144.3082885742188 399.0800170898438 146.6162414550781 402.9598999023438 150.3217926025391 404.9766235351562 L 150.6133422851562 405.1146850585938 L 151.3194580078125 405.4524536132812 C 152.731689453125 406.0501403808594 154.2495269775391 406.3580932617188 155.7829742431641 406.3580932617188 M 277.3549499511719 381.9676208496094 L 277.3549499511719 364.468994140625 C 281.57373046875 364.465576171875 285.45361328125 362.1576232910156 287.4703979492188 358.4519958496094 C 287.5101318359375 358.3519592285156 287.5562438964844 358.2545776367188 287.6084594726562 358.1604614257812 L 287.9461669921875 357.4542846679688 C 288.5447387695312 356.0357971191406 288.8527221679688 354.5117797851562 288.851806640625 352.97216796875 C 288.8605041503906 346.6642761230469 283.7852478027344 341.5274047851562 277.4777221679688 341.4599609375 L 277.4777221679688 341.4600219726562 L 277.4777221679688 323.9614562988281 L 259.8564147949219 323.9614562988281 C 259.5399169921875 330.0887451171875 254.4796295166016 334.8943481445312 248.34423828125 334.8943481445312 C 242.2089080810547 334.8943481445312 237.1485748291016 330.0887451171875 236.8320159912109 323.9614562988281 L 219.1492919921875 323.9614562988281 L 219.1492919921875 341.5367431640625 C 214.9302368164062 341.5367736816406 211.0486755371094 343.8453979492188 209.0342864990234 347.55322265625 L 208.8957977294922 347.8455200195312 C 208.7883453369141 348.07568359375 208.6655731201172 348.3212280273438 208.5580749511719 348.56689453125 C 207.9583435058594 349.9795227050781 207.6502990722656 351.4988403320312 207.6524658203125 353.0335693359375 L 207.6525115966797 353.0335693359375 C 207.6862945556641 359.359130859375 212.82373046875 364.4691162109375 219.1493530273438 364.4689636230469 L 219.1492919921875 381.9676208496094 L 236.7706756591797 381.9676208496094 C 236.7706756591797 375.609619140625 241.9248504638672 370.4553527832031 248.2828521728516 370.4553527832031 C 254.6408538818359 370.4553527832031 259.7950744628906 375.609619140625 259.7950744628906 381.9676208496094 L 277.3549499511719 381.9676208496094 M 63.32023620605469 381.4456787109375 C 69.66979217529297 381.4456176757812 74.81707000732422 376.29833984375 74.81707000732422 369.9487915039062 L 92.31562805175781 369.9487915039062 L 92.31562805175781 352.3275146484375 C 85.95762634277344 352.3275146484375 80.80345916748047 347.1732788085938 80.80345916748047 340.8152770996094 C 80.80345916748047 334.457275390625 85.95762634277344 329.3030700683594 92.31562805175781 329.3030700683594 L 92.31562805175781 311.8045654296875 L 74.77101135253906 311.8045654296875 L 74.77101135253906 311.7584533691406 C 74.76518249511719 307.5442199707031 72.45712280273438 303.6700744628906 68.75401306152344 301.6585083007812 C 68.65985107421875 301.6061096191406 68.56246185302734 301.5599975585938 68.46234893798828 301.5203552246094 L 67.75623321533203 301.1672973632812 C 66.34406280517578 300.5695495605469 64.82617950439453 300.2616577148438 63.29278182983398 300.2616577148438 C 63.28657913208008 300.2616577148438 63.2803840637207 300.2616577148438 63.2741813659668 300.2616882324219 C 56.94862747192383 300.2954406738281 51.83862686157227 305.4328308105469 51.83873748779297 311.7585144042969 L 34.26345825195312 311.7585144042969 L 34.26345825195312 329.3797912597656 C 40.39068222045898 329.6963500976562 45.19640350341797 334.7566833496094 45.19640350341797 340.8920593261719 C 45.19640350341797 347.0274658203125 40.39068222045898 352.0877990722656 34.26345825195312 352.404296875 L 34.26345825195312 369.9487915039062 L 51.83873748779297 369.9487915039062 C 51.83229064941406 374.1703491210938 54.14301300048828 378.0550231933594 57.85579299926758 380.0641784667969 L 58.1320686340332 380.2023315429688 C 58.36656951904297 380.3273010253906 58.60734939575195 380.4400024414062 58.853515625 380.5401306152344 C 60.26118087768555 381.1376647949219 61.77497482299805 381.4456176757812 63.30415344238281 381.4456176757812 C 63.30958557128906 381.4456176757812 63.31480407714844 381.4456176757812 63.32023620605469 381.4456176757812 L 63.32023620605469 381.4456787109375 M 320.9167785644531 370.0716857910156 C 320.9219360351562 370.0716857910156 320.9273071289062 370.0716857910156 320.9324645996094 370.0716857910156 L 320.9324645996094 370.0715637207031 C 327.2818908691406 370.0715637207031 332.4292297363281 364.9242858886719 332.4292297363281 358.5747985839844 L 350.0506286621094 358.5747985839844 L 350.0506286621094 340.9534606933594 C 343.6926879882812 340.9534606933594 338.5383911132812 335.7992858886719 338.5383911132812 329.4412841796875 C 338.5383911132812 323.0832214355469 343.6926879882812 317.9290771484375 350.0506286621094 317.9290771484375 L 350.0506286621094 310.4383850097656 L 350.0506286621094 300.1235656738281 L 367.6106262207031 300.1235656738281 C 367.6098022460938 304.3395690917969 369.9196166992188 308.2169494628906 373.627685546875 310.2235717773438 L 373.9039001464844 310.3616638183594 L 374.6254577636719 310.7147216796875 C 376.0333862304688 311.3125 377.5469970703125 311.6203918457031 379.0764465332031 311.620361328125 C 379.0816040039062 311.620361328125 379.0869750976562 311.620361328125 379.0921325683594 311.6203308105469 L 379.0921325683594 311.6203918457031 C 385.438232421875 311.6119079589844 390.5804443359375 306.4695739746094 390.5889587402344 300.1235656738281 L 408.1488952636719 300.1235656738281 L 408.1488952636719 282.5022277832031 C 402.0216674804688 282.1857299804688 397.2159729003906 277.1253356933594 397.2159729003906 270.9900207519531 C 397.2159729003906 264.8546142578125 402.0216674804688 259.7942810058594 408.1488952636719 259.4778442382812 L 408.1488952636719 242.1481170654297 L 425.6320190429688 242.1481170654297 C 425.6288452148438 246.3687896728516 427.9385681152344 250.2518920898438 431.6491394042969 252.2635040283203 L 431.9254150390625 252.4016723632812 L 432.6467895507812 252.7392883300781 C 434.0547790527344 253.3369903564453 435.5685424804688 253.6449890136719 437.097900390625 253.6449584960938 C 437.1030578613281 253.6449584960938 437.1084289550781 253.6449584960938 437.1135559082031 253.6449584960938 C 437.1700744628906 253.6457824707031 437.2264099121094 253.6461944580078 437.2828369140625 253.6461944580078 C 440.3083190917969 253.6461639404297 443.2149047851562 252.4530334472656 445.3688354492188 250.3217926025391 C 447.5629577636719 248.1507263183594 448.7919006347656 245.1886138916016 448.779296875 242.1021270751953 L 466.2778625488281 242.1021270751953 L 466.2778625488281 224.4807891845703 C 460.150634765625 224.1641693115234 455.3451232910156 219.1038970947266 455.3451232910156 212.9685668945312 C 455.3451232910156 206.8332824707031 460.150634765625 201.77294921875 466.2778625488281 201.4563446044922 L 466.2778625488281 183.9117279052734 L 448.70263671875 183.9117279052734 C 448.6989440917969 179.6929473876953 446.3910217285156 175.8131256103516 442.6855163574219 173.7963409423828 L 442.3938598632812 173.6582336425781 L 441.6878051757812 173.3205108642578 C 440.2754821777344 172.7227172851562 438.7578735351562 172.4148864746094 437.2243347167969 172.4148864746094 C 437.2182312011719 172.4148864746094 437.2118530273438 172.4148864746094 437.2057495117188 172.4149017333984 C 430.8561706542969 172.4149017333984 425.7088623046875 177.5622253417969 425.7088623046875 183.9117279052734 L 408.2102355957031 183.9117279052734 L 408.2102355957031 185.1550598144531 L 408.1949462890625 185.1550598144531 L 408.1949462890625 201.4256134033203 C 414.5530090332031 201.4256134033203 419.7071838378906 206.5797882080078 419.7071838378906 212.9378356933594 C 419.7071838378906 219.2957916259766 414.5530090332031 224.4500122070312 408.1949462890625 224.4500122070312 L 408.1949462890625 241.7950592041016 L 390.6657409667969 241.7950592041016 C 390.66552734375 237.5753479003906 388.356689453125 233.6938934326172 384.6486206054688 231.6796264648438 L 384.3569641113281 231.5415649414062 C 384.1293029785156 231.4135589599609 383.8934020996094 231.30078125 383.6509704589844 231.2038421630859 C 382.2385864257812 230.6060638427734 380.7208862304688 230.2981567382812 379.1874389648438 230.2981567382812 C 379.1813354492188 230.2981567382812 379.1749572753906 230.2981719970703 379.1688537597656 230.2981719970703 L 379.1687927246094 230.2981719970703 C 372.8193054199219 230.2981719970703 367.6719665527344 235.4455718994141 367.6720275878906 241.7950592041016 L 350.1580810546875 241.7950592041016 L 350.0045776367188 241.7950592041016 L 350.004638671875 224.4807891845703 C 343.8775024414062 224.1641693115234 339.0719604492188 219.1038970947266 339.0719604492188 212.9685668945312 C 339.0719604492188 206.8332824707031 343.8775024414062 201.77294921875 350.0045776367188 201.4563446044922 L 350.0045776367188 185.1551208496094 L 367.6106262207031 185.1551208496094 C 367.6098022460938 189.3711242675781 369.9196166992188 193.2485046386719 373.627685546875 195.255126953125 L 373.9039001464844 195.3932800292969 L 374.6254577636719 195.7462921142578 C 376.0333862304688 196.3440551757812 377.5469970703125 196.6519927978516 379.0764465332031 196.6519622802734 C 379.0816040039062 196.6519622802734 379.0869750976562 196.6519622802734 379.0921325683594 196.6519470214844 C 385.438232421875 196.6435089111328 390.5804443359375 191.5010681152344 390.5889587402344 185.1550598144531 L 408.1949462890625 185.1550598144531 L 408.1949462890625 183.9117279052734 L 408.2102355957031 183.9117279052734 L 408.2102355957031 167.5337371826172 C 402.0831298828125 167.2171783447266 397.2775573730469 162.1568450927734 397.2775573730469 156.0215606689453 C 397.2775573730469 149.88623046875 402.0831298828125 144.8259582519531 408.2102355957031 144.5093994140625 L 408.2102355957031 127.1950073242188 L 408.2102355957031 109.6044006347656 C 408.2171936035156 109.6044082641602 408.2237548828125 109.6044158935547 408.230712890625 109.6044158935547 C 412.4405212402344 109.6042785644531 416.3119812011719 107.2939987182617 418.3102416992188 103.5873413085938 C 418.3623352050781 103.4983978271484 418.4085693359375 103.406120300293 418.4484558105469 103.3110656738281 C 418.5711669921875 103.0807876586914 418.6939697265625 102.8352279663086 418.8014526367188 102.5896224975586 C 419.4012451171875 101.1768951416016 419.7091674804688 99.65756225585938 419.7070007324219 98.12290191650391 L 419.7070007324219 98.12284088134766 C 419.7070007324219 91.77334594726562 414.5596923828125 86.62606811523438 408.2102355957031 86.62606811523438 L 408.2102355957031 69.98706817626953 L 425.6781311035156 69.98706817626953 C 425.6781311035156 63.62906646728516 430.8323059082031 58.47489929199219 437.1903076171875 58.47489929199219 C 443.5482482910156 58.47489929199219 448.7025146484375 63.62906646728516 448.7025146484375 69.98706817626953 L 466.2778625488281 69.98706817626953 L 466.2778625488281 52.41178894042969 C 466.2811889648438 52.41178894042969 466.2839050292969 52.41179275512695 466.2872619628906 52.41179275512695 C 470.5082397460938 52.41179275512695 474.3897094726562 50.09516906738281 476.3932495117188 46.37939834594727 C 476.4454040527344 46.28528594970703 476.4916381835938 46.18784332275391 476.5313415527344 46.08778762817383 C 476.6541137695312 45.85750961303711 476.77685546875 45.61195373535156 476.88427734375 45.3663444519043 C 477.484130859375 43.95362091064453 477.7921142578125 42.43434143066406 477.7899475097656 40.89956665039062 C 477.8067932128906 37.80623245239258 476.5780029296875 34.83628845214844 474.380615234375 32.65906524658203 C 472.2234497070312 30.52157592773438 469.3106689453125 29.32476615905762 466.2782897949219 29.32476615905762 C 466.221923828125 29.32476615905762 466.1654052734375 29.32518005371094 466.1089477539062 29.32600975036621 L 466.1089477539062 11.82745361328125 L 448.4876403808594 11.82745361328125 C 448.1711730957031 17.95467567443848 443.1107788085938 22.76034355163574 436.9755249023438 22.76034355163574 C 430.8400268554688 22.76034355163574 425.7797241210938 17.95467567443848 425.4632263183594 11.82745361328125 L 407.9186401367188 11.82745361328125 L 407.9186401367188 29.40278625488281 C 403.6989440917969 29.40300941467285 399.8174438476562 31.71184349060059 397.8032836914062 35.4197883605957 L 397.6651306152344 35.71145248413086 C 397.5401916503906 35.94067764282227 397.4274597167969 36.17634201049805 397.3275146484375 36.41751098632812 C 396.7289733886719 37.83595275878906 396.4210205078125 39.36006546020508 396.4217834472656 40.89956665039062 C 396.417724609375 43.95139694213867 397.6271667480469 46.87961959838867 399.7837219238281 49.03900909423828 C 401.9403076171875 51.19839859008789 404.8669128417969 52.41178894042969 407.9186401367188 52.41178894042969 L 407.9186401367188 69.08145141601562 L 390.4508056640625 69.08145141601562 C 390.13427734375 75.20867919921875 385.0739440917969 80.01439666748047 378.9385681152344 80.01439666748047 C 372.8031921386719 80.01439666748047 367.7428588867188 75.20867919921875 367.4263916015625 69.08145141601562 L 349.9278564453125 69.08145141601562 L 349.9278564453125 52.31967544555664 C 354.1422424316406 52.3138427734375 358.0164184570312 50.00584411621094 360.0278930664062 46.30261993408203 C 360.0801696777344 46.2085075378418 360.1264038085938 46.11106491088867 360.1660766601562 46.01100921630859 C 360.2888488769531 45.78073120117188 360.4115600585938 45.53517532348633 360.5190734863281 45.28956604003906 C 361.1188049316406 43.87689971923828 361.4268493652344 42.35756683349609 361.4246826171875 40.82284164428711 L 361.4247436523438 40.82284164428711 C 361.4162292480469 34.47678756713867 356.2738952636719 29.33445358276367 349.9278564453125 29.32600975036621 L 349.9278564453125 11.82745361328125 L 332.3065185546875 11.82745361328125 C 331.9900817871094 17.95467567443848 326.9297485351562 22.76034355163574 320.7943420410156 22.76034355163574 C 314.6589050292969 22.76034355163574 309.5985107421875 17.95467567443848 309.2820739746094 11.82745361328125 L 291.7374572753906 11.82745361328125 L 291.7375793457031 29.40278625488281 C 287.5177917480469 29.40300941467285 283.6363525390625 31.71184349060059 281.6221313476562 35.4197883605957 L 281.4839477539062 35.71139907836914 C 281.3590087890625 35.94067764282227 281.2462463378906 36.17634201049805 281.1463623046875 36.41751098632812 C 280.5477905273438 37.83595275878906 280.2398376464844 39.36006546020508 280.2406921386719 40.89956665039062 L 280.24072265625 40.89956665039062 C 280.24072265625 47.25762176513672 285.3949584960938 52.41178894042969 291.7528991699219 52.41178894042969 L 291.7528991699219 69.05072784423828 L 274.4078979492188 69.05072784423828 C 274.4078979492188 75.40872955322266 269.2537231445312 80.56295013427734 262.8956909179688 80.56295013427734 C 256.5376892089844 80.56295013427734 251.3834533691406 75.40872955322266 251.3834533691406 69.05072784423828 L 233.70068359375 69.05072784423828 L 233.70068359375 86.62606811523438 C 233.6999053955078 86.62606811523438 233.6991729736328 86.62606811523438 233.6983947753906 86.62606811523438 C 229.4831848144531 86.62606811523438 225.6068115234375 88.93579864501953 223.6006317138672 92.64306640625 C 223.5483551025391 92.73722839355469 223.5022430419922 92.83461761474609 223.4625091552734 92.93473052978516 C 223.3396759033203 93.16495513916016 223.2169036865234 93.39523315429688 223.1094665527344 93.64078521728516 C 222.5093536376953 95.05873107910156 222.2012939453125 96.58317565917969 222.2038421630859 98.12290191650391 C 222.2038421630859 104.4723968505859 227.3511199951172 109.6197280883789 233.7007293701172 109.6197280883789 L 233.7007293701172 125.782844543457 L 216.6166229248047 125.782844543457 C 216.6166229248047 132.1408996582031 211.4624633789062 137.2950592041016 205.1044006347656 137.2950592041016 C 198.7463989257812 137.2950592041016 193.5921783447266 132.1408996582031 193.5921783447266 125.782844543457 L 176.0476226806641 125.782844543457 L 176.0476226806641 143.4348907470703 C 176.0468597412109 143.4348907470703 176.0461120605469 143.4348907470703 176.0453491210938 143.4348907470703 C 171.8301849365234 143.4348907470703 167.9537658691406 145.7446899414062 165.9475708007812 149.4519500732422 L 165.8094635009766 149.7282257080078 C 165.6866302490234 149.9738464355469 165.5639038085938 150.2040710449219 165.4564666748047 150.4496765136719 C 164.8709106445312 151.8667297363281 164.5635070800781 153.3831787109375 164.5507965087891 154.9163970947266 C 164.5592346191406 161.262451171875 169.7016296386719 166.4048461914062 176.0476226806641 166.4132385253906 L 176.0476226806641 183.9117279052734 L 176.1704559326172 183.9117279052734 L 176.1704559326172 201.5331268310547 C 182.5284576416016 201.5331268310547 187.6826782226562 206.6872863769531 187.6826782226562 213.0453491210938 C 187.6826782226562 219.4032897949219 182.5284576416016 224.5574493408203 176.1704559326172 224.5574493408203 L 176.1704559326172 242.1481170654297 L 193.8377990722656 242.1481781005859 C 193.8414001464844 246.3670043945312 196.1492919921875 250.2468414306641 199.8548431396484 252.2635040283203 L 200.1465148925781 252.4016723632812 L 200.8526306152344 252.7393493652344 C 202.2690277099609 253.3370513916016 203.7906799316406 253.6449737548828 205.3279724121094 253.6449584960938 C 205.3301391601562 253.6449584960938 205.3324584960938 253.6449584960938 205.3346252441406 253.6449584960938 C 211.6423492431641 253.6197814941406 216.7518463134766 248.5171813964844 216.7854614257812 242.2095031738281 L 233.7927856445312 242.2095031738281 L 233.9002380371094 242.2095031738281 L 233.9002990722656 259.5238342285156 C 240.2582855224609 259.5238342285156 245.4124603271484 264.6780700683594 245.4124603271484 271.0360717773438 C 245.4124603271484 277.3940734863281 240.2582855224609 282.5481872558594 233.9002380371094 282.5481872558594 L 233.9002380371094 300.2002868652344 L 251.4141845703125 300.2002868652344 C 251.4200744628906 304.4145202636719 253.7280731201172 308.2886657714844 257.4312438964844 310.30029296875 C 257.5253601074219 310.3525695800781 257.6227416992188 310.398681640625 257.7227783203125 310.4383850097656 L 258.4288940429688 310.7914428710938 C 259.841064453125 311.38916015625 261.3587036132812 311.6971435546875 262.8919677734375 311.6971435546875 C 262.8982543945312 311.6971435546875 262.9046630859375 311.6971435546875 262.9109497070312 311.6971130371094 L 262.910888671875 311.6971130371094 C 269.2605285644531 311.6971130371094 274.4078979492188 306.5498352050781 274.4078979492188 300.2002868652344 L 291.7375793457031 300.2002868652344 L 292.0137329101562 300.2002868652344 L 292.0137329101562 300.2770080566406 L 291.844970703125 300.2770080566406 L 291.844970703125 317.8984069824219 C 297.9720764160156 318.2149658203125 302.7776184082031 323.2752380371094 302.7776184082031 329.4105529785156 C 302.7776184082031 335.5458984375 297.9720764160156 340.6061096191406 291.844970703125 340.9227294921875 L 291.844970703125 358.5747985839844 L 309.4508361816406 358.5747985839844 C 309.4447326660156 362.7921142578125 311.7481689453125 366.6744079589844 315.4525756835938 368.690185546875 L 315.7442321777344 368.8282775878906 L 316.4656677246094 369.166015625 C 317.8736572265625 369.7637329101562 319.3872680664062 370.0717163085938 320.9167785644531 370.0716857910156 M 234.3453979492188 183.9885101318359 L 234.4221801757812 183.9885101318359 L 234.4222412109375 166.4132385253906 C 238.6364593505859 166.4073944091797 242.5106811523438 164.0993499755859 244.5222320556641 160.3961791992188 L 244.660400390625 160.1045684814453 C 244.7831268310547 159.8742828369141 244.9058990478516 159.6440582275391 245.0133972167969 159.3984527587891 C 245.5989074707031 157.9760589599609 245.9062957763672 156.4545593261719 245.9189605712891 154.9163970947266 C 245.9189605712891 148.5668487548828 240.7717437744141 143.4195098876953 234.4221801757812 143.4195098876953 L 234.4221801757812 127.1796798706055 L 251.4909515380859 127.1796798706055 C 251.8074035644531 121.0524520874023 256.8677368164062 116.2467346191406 263.0031127929688 116.2467346191406 C 269.1385803222656 116.2467346191406 274.1988525390625 121.0524520874023 274.5152282714844 127.1796798706055 L 291.7374572753906 127.1796798706055 L 291.7374572753906 144.5707244873047 C 291.7317810058594 144.5707244873047 291.7262268066406 144.5707244873047 291.7205810546875 144.5707244873047 C 287.5097961425781 144.5707244873047 283.6351928710938 146.8729858398438 281.6221313476562 150.5724487304688 L 281.4839477539062 150.8640594482422 C 281.3558959960938 151.0970153808594 281.2431335449219 151.3380126953125 281.146240234375 151.5855102539062 C 280.5465087890625 152.9981689453125 280.2384643554688 154.5175628662109 280.2406921386719 156.0522918701172 L 280.24072265625 156.0522918701172 C 280.2491149902344 162.4042358398438 285.4009094238281 167.5491180419922 291.7528991699219 167.5491180419922 L 291.7528991699219 184.1420135498047 L 274.4078979492188 184.1420593261719 C 274.4078979492188 190.5000152587891 269.2537231445312 195.6542358398438 262.8956909179688 195.6542358398438 C 256.5376892089844 195.6542358398438 251.3834533691406 190.5000152587891 251.3834533691406 184.1420135498047 L 234.3300628662109 184.1420135498047 L 234.3453979492188 183.9885101318359 M 292.0751953125 109.6044006347656 C 292.0811157226562 109.6044082641602 292.0870361328125 109.6044082641602 292.0929565429688 109.6044082641602 C 296.3076782226562 109.6044082641602 300.1842651367188 107.2949676513672 302.1906127929688 103.5873413085938 L 302.3287353515625 103.3110656738281 C 302.4515075683594 103.0807876586914 302.5590209960938 102.8352279663086 302.6664733886719 102.5896224975586 C 303.2661743164062 101.1769561767578 303.5741882324219 99.65762329101562 303.572021484375 98.12290191650391 C 303.572021484375 91.77934265136719 298.4341125488281 86.63450622558594 292.090576171875 86.62606811523438 L 292.090576171875 69.95639801025391 L 309.4355773925781 69.95639801025391 C 309.4355773925781 63.5984001159668 314.5897827148438 58.44417572021484 320.9477844238281 58.44417572021484 C 327.3057861328125 58.44417572021484 332.4600219726562 63.5984001159668 332.4600219726562 69.95639801025391 L 349.9737854003906 69.95639801025391 L 349.9432983398438 69.95639801025391 L 349.9432983398438 86.62606811523438 C 345.7235107421875 86.62628936767578 341.8420104980469 88.93511962890625 339.8278503417969 92.64306640625 L 339.6896362304688 92.93473052978516 C 339.5668334960938 93.16495513916016 339.45947265625 93.39523315429688 339.3520812988281 93.64078521728516 C 338.7518615722656 95.05873107910156 338.44384765625 96.58317565917969 338.4464111328125 98.12290191650391 L 338.4464111328125 98.12295532226562 C 338.4464111328125 104.4723968505859 343.5936279296875 109.6197280883789 349.9432983398438 109.6197280883789 L 349.9432983398438 126.9801177978516 L 332.398681640625 126.9801177978516 C 332.0819702148438 133.107177734375 327.0216674804688 137.9126129150391 320.8864135742188 137.9126129150391 C 314.7512512207031 137.9126129150391 309.69091796875 133.107177734375 309.3741760253906 126.9801177978516 L 292.0751953125 126.9801177978516 L 292.0751953125 109.6044006347656 M 196.3551330566406 317.8677368164062 L 213.9151306152344 317.86767578125 L 213.9457855224609 317.852294921875 L 213.9457855224609 300.2616882324219 C 213.9483642578125 300.2616882324219 213.9515838623047 300.2616882324219 213.9541625976562 300.2616882324219 C 218.1717834472656 300.2616882324219 222.0506896972656 297.9527587890625 224.0611877441406 294.2445678710938 L 224.1992950439453 293.9529418945312 C 224.3067932128906 293.7227172851562 224.4295196533203 293.4925231933594 224.5370178222656 293.2468872070312 C 225.1355133056641 291.8338317871094 225.4435119628906 290.3146667480469 225.442626953125 288.7801208496094 L 225.4426879882812 288.7801208496094 C 225.4426879882812 282.4305725097656 220.2952880859375 277.2833557128906 213.9457397460938 277.2833557128906 L 213.9457397460938 259.7847900390625 L 196.2937316894531 259.7847900390625 C 196.2937927246094 266.1427917480469 191.1396331787109 271.2969970703125 184.7815704345703 271.2969970703125 C 178.4235687255859 271.2969970703125 173.2694091796875 266.1427917480469 173.2694091796875 259.7847900390625 L 155.7094573974609 259.7847900390625 L 155.7094573974609 277.3753356933594 C 155.7068786621094 277.3753356933594 155.7038269042969 277.3753356933594 155.7012481689453 277.3753356933594 C 151.4835662841797 277.3753356933594 147.6045684814453 279.684326171875 145.5940704345703 283.3924560546875 L 145.4559020996094 283.6841125488281 C 145.3484649658203 283.9142761230469 145.2256774902344 284.1446228027344 145.1182403564453 284.3901672363281 C 144.5196838378906 285.80322265625 144.2116851806641 287.3223571777344 144.2125701904297 288.8569030761719 L 144.2125701904297 288.8569641113281 C 144.2125701904297 295.2064514160156 149.3599090576172 300.3537902832031 155.7094573974609 300.3537902832031 L 155.7094573974609 317.86767578125 L 173.3307952880859 317.86767578125 C 173.3307952880859 311.5097351074219 178.4849548339844 306.3554992675781 184.8429565429688 306.3554992675781 C 191.2009582519531 306.3554992675781 196.3551330566406 311.5097351074219 196.3551330566406 317.8677368164062 M 140.620849609375 261.6267395019531 L 140.620849609375 243.9440155029297 C 140.6277923583984 243.9440155029297 140.6346588134766 243.9440307617188 140.6416168212891 243.9440307617188 C 144.8514404296875 243.9440002441406 148.7226409912109 241.6336669921875 150.7208404541016 237.927001953125 C 150.7730102539062 237.8380584716797 150.8191833496094 237.7457275390625 150.8590087890625 237.6506805419922 C 150.9818420410156 237.4204559326172 151.1045684814453 237.1748352050781 151.2120666503906 236.9292297363281 C 151.8117980957031 235.5165710449219 152.1197967529297 233.9972381591797 152.11767578125 232.4625701904297 L 152.1177368164062 232.4625701904297 C 152.1092376708984 226.1165161132812 146.9668426513672 220.97412109375 140.6207885742188 220.9656829833984 L 140.6207885742188 203.4671173095703 L 122.9994583129883 203.4671173095703 C 122.6829605102539 209.5943908691406 117.6226806640625 214.4000701904297 111.4872894287109 214.4000701904297 C 105.3519058227539 214.4000701904297 100.2915725708008 209.5943908691406 99.97506713867188 203.4671173095703 L 82.43051147460938 203.4671173095703 L 82.43051147460938 221.0424499511719 C 78.21079254150391 221.0426788330078 74.329345703125 223.3515167236328 72.31512451171875 227.0594482421875 L 72.17695617675781 227.3511199951172 C 72.049072265625 227.5787811279297 71.93623352050781 227.8147277832031 71.83929443359375 228.0572357177734 C 71.23912811279297 229.4751739501953 70.93112945556641 230.9995574951172 70.93367767333984 232.5392913818359 C 70.93367767333984 238.8887939453125 76.08095550537109 244.0361175537109 82.43051147460938 244.0361175537109 L 82.43051147460938 261.5960693359375 L 100.0518493652344 261.5960693359375 C 100.0518493652344 255.2380676269531 105.2060165405273 250.0838928222656 111.5640182495117 250.0838928222656 C 117.9220123291016 250.0838928222656 123.0761795043945 255.2380676269531 123.0761795043945 261.5960693359375 L 140.6207885742188 261.5960693359375 L 140.620849609375 261.6267395019531 M 179.8082885742188 109.6657867431641 C 186.1577911376953 109.6657333374023 191.3051300048828 104.5184555053711 191.3051300048828 98.16889953613281 L 208.8190155029297 98.16889953613281 L 208.8190155029297 80.54762268066406 C 202.6918487548828 80.23111724853516 197.8861236572266 75.17078399658203 197.8861236572266 69.035400390625 C 197.8861236572266 62.90000915527344 202.6918487548828 57.83967590332031 208.8190765380859 57.52323150634766 L 208.8190155029297 39.96328735351562 L 191.3204650878906 39.96328735351562 C 191.3468475341797 35.74889755249023 189.0682373046875 31.85695457458496 185.3801879882812 29.81717681884766 L 185.0885162353516 29.6790657043457 C 184.8608551025391 29.55112075805664 184.6250152587891 29.4383430480957 184.3824615478516 29.34134292602539 C 182.9714660644531 28.7436637878418 181.4546813964844 28.43572998046875 179.92236328125 28.43572998046875 C 179.9201202392578 28.43572998046875 179.9179840087891 28.43572998046875 179.9157409667969 28.43573188781738 C 173.5661773681641 28.43573188781738 168.4188537597656 33.58306503295898 168.4188537597656 39.93256378173828 L 150.8128967285156 39.93256378173828 L 150.8128967285156 57.55389785766602 C 157.1709594726562 57.55389785766602 162.3251190185547 62.70806503295898 162.3251190185547 69.06612396240234 C 162.3251190185547 75.42411804199219 157.1709594726562 80.57834625244141 150.8129577636719 80.57834625244141 L 150.8128967285156 98.12290191650391 L 168.403564453125 98.12290191650391 L 168.3268432617188 98.16889953613281 C 168.3192443847656 102.3867874145508 170.6310729980469 106.2673950195312 174.3437957763672 108.2688980102539 L 174.6201324462891 108.4070663452148 L 175.3415679931641 108.760124206543 C 176.7525482177734 109.3577423095703 178.2693481445312 109.6657180786133 179.8016662597656 109.6657333374023 C 179.8039093017578 109.6657333374023 179.8060455322266 109.6657333374023 179.8082885742188 109.6657333374023 L 179.8082885742188 109.6657867431641 M 155.8015747070312 407.1080627441406 L 155.782958984375 407.1080627441406 C 154.1401214599609 407.1080627441406 152.5400695800781 406.7833862304688 151.0271301269531 406.1431274414062 L 151.0112915039062 406.1364440917969 L 150.9957885742188 406.1289978027344 L 150.2896881103516 405.7912292480469 L 150.0008544921875 405.6544494628906 L 149.9817962646484 405.6454467773438 L 149.9632873535156 405.6354064941406 C 146.2347259521484 403.6061401367188 143.8374481201172 399.8126525878906 143.5780792236328 395.6112365722656 L 126.7294006347656 395.6112365722656 L 125.9794006347656 395.6112365722656 L 125.9794006347656 394.8612365722656 L 125.9794006347656 377.3472900390625 L 125.9794006347656 376.635009765625 L 126.6907348632812 376.5982971191406 C 132.4224548339844 376.3022766113281 136.912353515625 371.5745239257812 136.912353515625 365.8351135253906 C 136.912353515625 360.0957336425781 132.4224548339844 355.3679504394531 126.6907348632812 355.0718994140625 L 125.9794006347656 355.0351867675781 L 125.9794006347656 354.3229064941406 L 125.9794006347656 336.7016296386719 L 125.9794006347656 335.9516296386719 L 126.7294006347656 335.9516296386719 L 143.5003356933594 335.9516296386719 C 143.6796722412109 332.9623718261719 144.9293975830078 330.1773071289062 147.0649566650391 328.0417785644531 C 149.3780670166016 325.7286071777344 152.4535675048828 324.4547424316406 155.7247924804688 324.4547424316406 L 155.7408447265625 324.4547424316406 C 157.3798980712891 324.4547424316406 158.9759063720703 324.7795104980469 160.484619140625 325.4199523925781 L 160.4971771240234 325.42529296875 L 160.509521484375 325.4310607910156 L 161.23095703125 325.7687377929688 L 161.2397918701172 325.7728881835938 L 161.2485198974609 325.7772216796875 L 161.5247344970703 325.9154052734375 L 161.5358428955078 325.9209594726562 L 161.5467376708984 325.9268493652344 C 165.2915802001953 327.957275390625 167.6921081542969 331.7646179199219 167.9358062744141 335.9823303222656 L 184.8122863769531 335.9823303222656 L 185.5622863769531 335.9823303222656 L 185.5622863769531 336.7323303222656 L 185.5623474121094 354.215576171875 L 185.5623474121094 354.965576171875 L 184.8123474121094 354.965576171875 C 181.9376220703125 354.965576171875 179.2350158691406 356.0850219726562 177.2022857666016 358.11767578125 C 175.1695709228516 360.150390625 174.0501251220703 362.8529968261719 174.0501251220703 365.7276611328125 C 174.0501251220703 368.6023559570312 175.1695709228516 371.3050231933594 177.2022857666016 373.3377380371094 C 179.2350158691406 375.3704528808594 181.9376220703125 376.4898986816406 184.8122863769531 376.4898986816406 L 185.5622863769531 376.4898986816406 L 185.5622863769531 377.2398986816406 L 185.5622863769531 394.8612365722656 L 185.5622863769531 395.6112365722656 L 184.8122863769531 395.6112365722656 L 168.0259704589844 395.6112365722656 C 167.8466339111328 398.6004943847656 166.5969085693359 401.3855590820312 164.4614105224609 403.5210571289062 C 162.1482391357422 405.8341674804688 159.0727996826172 407.1080627441406 155.8015747070312 407.1080627441406 Z M 278.1049499511719 382.7176208496094 L 277.3549499511719 382.7176208496094 L 259.7950744628906 382.7176208496094 L 259.0450744628906 382.7176208496094 L 259.0450744628906 381.9676208496094 C 259.0450744628906 379.0929565429688 257.9256286621094 376.3902893066406 255.8928985595703 374.3575744628906 C 253.8601226806641 372.3248291015625 251.1575164794922 371.2053527832031 248.2828521728516 371.2053527832031 C 245.4081878662109 371.2053527832031 242.70556640625 372.3248291015625 240.6728515625 374.3575744628906 C 238.6401214599609 376.3902893066406 237.5206756591797 379.0929565429688 237.5206756591797 381.9676208496094 L 237.5206756591797 382.7176208496094 L 236.7706756591797 382.7176208496094 L 219.1492919921875 382.7176208496094 L 218.3992919921875 382.7176208496094 L 218.3992919921875 381.9676208496094 L 218.3993530273438 365.1965026855469 C 215.4220428466797 365.0177917480469 212.6450653076172 363.7762451171875 210.5125732421875 361.6551818847656 C 208.2020111083984 359.3569030761719 206.9199066162109 356.2964477539062 206.9025115966797 353.0375671386719 C 206.9001312255859 351.3897399902344 207.224853515625 349.7879638671875 207.8677368164062 348.2737731933594 L 207.8693542480469 348.27001953125 L 207.8709564208984 348.2662353515625 C 207.9467926025391 348.0928955078125 208.0271759033203 347.9250183105469 208.1049041748047 347.7626342773438 C 208.1429595947266 347.6831665039062 208.1804656982422 347.6048278808594 208.2161865234375 347.5282897949219 L 208.3565216064453 347.2320556640625 L 208.3654022216797 347.2134094238281 L 208.3752899169922 347.1951904296875 C 210.4028015136719 343.463134765625 214.1960754394531 341.0657348632812 218.3992919921875 340.8095703125 L 218.3992919921875 323.9614562988281 L 218.3992919921875 323.2114562988281 L 219.1492919921875 323.2114562988281 L 236.8320159912109 323.2114562988281 L 237.5442962646484 323.2114562988281 L 237.5810089111328 323.9227294921875 C 237.8771209716797 329.6545104980469 242.6049041748047 334.1443481445312 248.34423828125 334.1443481445312 C 254.0835723876953 334.1443481445312 258.8113403320312 329.6545104980469 259.1073913574219 323.9227905273438 L 259.1441345214844 323.2114562988281 L 259.8564147949219 323.2114562988281 L 277.4777221679688 323.2114562988281 L 278.2277221679688 323.2114562988281 L 278.2277221679688 323.9614562988281 L 278.2277221679688 340.7400207519531 C 281.1972351074219 340.9484252929688 283.95751953125 342.2138061523438 286.0668334960938 344.3487854003906 C 288.3508911132812 346.6605529785156 289.6062927246094 349.723388671875 289.601806640625 352.9732360839844 C 289.602783203125 354.6203308105469 289.2782287597656 356.2265625 288.6371765136719 357.745849609375 L 288.6303405761719 357.7620239257812 L 288.622802734375 357.7778930664062 L 288.2850646972656 358.4840698242188 L 288.2752990722656 358.5045166015625 L 288.2642517089844 358.5243530273438 C 288.227783203125 358.5900573730469 288.1952514648438 358.6588439941406 288.1674499511719 358.7287292480469 L 288.1507873535156 358.7707824707031 L 288.1291809082031 358.8105163574219 C 286.0998229980469 362.5391845703125 282.306396484375 364.9364013671875 278.1049499511719 365.1956176757812 L 278.1049499511719 381.9676208496094 L 278.1049499511719 382.7176208496094 Z M 63.32023620605469 382.1956787109375 L 63.31640243530273 382.1956787109375 L 63.31256866455078 382.1956176757812 L 63.30418014526367 382.1956176757812 C 61.6662712097168 382.1956176757812 60.07146835327148 381.8713989257812 58.56383514404297 381.23193359375 C 58.30026245117188 381.1244812011719 58.03933334350586 381.0023498535156 57.78811645507812 380.8688659667969 L 57.52034759521484 380.7349548339844 L 57.50951385498047 380.7295532226562 L 57.49884796142578 380.7237854003906 C 53.7595100402832 378.7002258300781 51.36117553710938 374.9063110351562 51.11048889160156 370.6987915039062 L 34.26345825195312 370.6987915039062 L 33.51345825195312 370.6987915039062 L 33.51345825195312 369.9487915039062 L 33.51345825195312 352.404296875 L 33.51345825195312 351.6920166015625 L 34.22479248046875 351.6552734375 C 39.95651626586914 351.3592224121094 44.44640350341797 346.6314392089844 44.44640350341797 340.8920593261719 C 44.44640350341797 335.1527404785156 39.95651626586914 330.4248962402344 34.22473526000977 330.1287841796875 L 33.51345825195312 330.0920715332031 L 33.51345825195312 329.3797912597656 L 33.51345825195312 311.7585144042969 L 33.51345825195312 311.0085144042969 L 34.26345825195312 311.0085144042969 L 51.11118698120117 311.0085144042969 C 51.28995513916016 308.0311584472656 52.53151321411133 305.2541809082031 54.65256881713867 303.1217346191406 C 56.95084762573242 300.8111877441406 60.01129150390625 299.529052734375 63.27017974853516 299.5116882324219 L 63.29279327392578 299.5116882324219 C 64.935791015625 299.5116882324219 66.53585052490234 299.8363342285156 68.04856872558594 300.4766235351562 L 68.07040405273438 300.48583984375 L 68.09162902832031 300.4964599609375 L 68.77059936523438 300.8359375 C 68.88733673095703 300.8836669921875 69.00198364257812 300.9385375976562 69.11201477050781 300.9994506835938 L 69.11201477050781 300.9994506835938 C 72.85207366943359 303.0310974121094 75.25320434570312 306.8392944335938 75.49999237060547 311.0545654296875 L 92.31562805175781 311.0545654296875 L 93.06562805175781 311.0545654296875 L 93.06562805175781 311.8045654296875 L 93.06562805175781 329.3030700683594 L 93.06562805175781 330.0530700683594 L 92.31562805175781 330.0530700683594 C 89.44095611572266 330.0530700683594 86.73834991455078 331.1725158691406 84.70562744140625 333.2052307128906 C 82.67290496826172 335.2379455566406 81.55345916748047 337.9406127929688 81.55345916748047 340.8152770996094 C 81.55345916748047 343.68994140625 82.67290496826172 346.3926086425781 84.70562744140625 348.4253540039062 C 86.73834991455078 350.4580688476562 89.44095611572266 351.5775146484375 92.31562805175781 351.5775146484375 L 93.06562805175781 351.5775146484375 L 93.06562805175781 352.3275146484375 L 93.06562805175781 369.9487915039062 L 93.06562805175781 370.6987915039062 L 92.31562805175781 370.6987915039062 L 75.54463195800781 370.6987915039062 C 75.36530303955078 373.6880493164062 74.11557769775391 376.4731140136719 71.98007202148438 378.6086120605469 C 69.66696166992188 380.9217224121094 66.59151458740234 382.1956176757812 63.32023620605469 382.1956787109375 Z M 320.9324645996094 370.8216857910156 L 320.9167785644531 370.8216857910156 C 319.2777404785156 370.8217468261719 317.6815795898438 370.4969482421875 316.1726379394531 369.8563842773438 L 316.1600646972656 369.85107421875 L 316.1476745605469 369.8452758789062 L 315.4262390136719 369.507568359375 L 315.1315612792969 369.3680114746094 L 315.1125793457031 369.3590087890625 L 315.0940551757812 369.3489685058594 C 311.3651428222656 367.31982421875 308.9732666015625 363.5264282226562 308.72265625 359.3247985839844 L 291.844970703125 359.3247985839844 L 291.094970703125 359.3247985839844 L 291.094970703125 358.5747985839844 L 291.094970703125 340.9227294921875 L 291.094970703125 340.2105102539062 L 291.8062438964844 340.1737365722656 C 297.537841796875 339.8775634765625 302.0276184082031 335.1497802734375 302.0276184082031 329.4105529785156 C 302.0276184082031 323.6712951660156 297.537841796875 318.9435119628906 291.8062438964844 318.6473999023438 L 291.094970703125 318.6106872558594 L 291.094970703125 317.8984069824219 L 291.094970703125 300.9502868652344 L 275.1354675292969 300.9502868652344 C 274.9561462402344 303.9395446777344 273.7063903808594 306.724609375 271.5708618164062 308.860107421875 C 269.2576904296875 311.1732177734375 266.1821899414062 312.4471130371094 262.910888671875 312.4471130371094 L 262.8919677734375 312.4471130371094 C 261.2494506835938 312.4471740722656 259.6495056152344 312.1224975585938 258.1365661621094 311.4821166992188 L 258.11474609375 311.472900390625 L 258.093505859375 311.4622802734375 L 257.4139099121094 311.1224670410156 C 257.2974243164062 311.0747985839844 257.1830444335938 311.02001953125 257.0732421875 310.9593505859375 L 257.0732421875 310.9593505859375 C 253.3466644287109 308.9350280761719 250.9494171142578 305.1474609375 250.68798828125 300.9502868652344 L 233.9002380371094 300.9502868652344 L 233.1502380371094 300.9502868652344 L 233.1502380371094 300.2002868652344 L 233.1502380371094 282.5481872558594 L 233.1502380371094 281.7981872558594 L 233.9002380371094 281.7981872558594 C 236.7749633789062 281.7981872558594 239.4775695800781 280.6787414550781 241.5102996826172 278.6460571289062 C 243.5430145263672 276.6133422851562 244.6624603271484 273.9107360839844 244.6624603271484 271.0360717773438 C 244.6624603271484 268.1614074707031 243.5430145263672 265.458740234375 241.5102996826172 263.4259948730469 C 239.4775695800781 261.3932800292969 236.7749633789062 260.2738342285156 233.9002990722656 260.2738342285156 L 233.1502990722656 260.2738342285156 L 233.1502990722656 259.5238342285156 L 233.1502380371094 242.9595031738281 L 217.5092315673828 242.9595031738281 C 217.3158264160156 245.9284515380859 216.0653991699219 248.6941070556641 213.9427947998047 250.8138427734375 C 211.6434020996094 253.1101684570312 208.5873413085938 254.3820037841797 205.3376312255859 254.3949584960938 L 205.3279571533203 254.3949584960938 C 203.6816253662109 254.3949584960938 202.0777893066406 254.0704040527344 200.5610198974609 253.4303436279297 L 200.5449066162109 253.4235076904297 L 200.5290679931641 253.4159545898438 L 199.8229522705078 253.0782928466797 L 199.5337982177734 252.9412841796875 L 199.5147857666016 252.9322814941406 L 199.4963531494141 252.9222869873047 C 195.7677764892578 250.8930969238281 193.3705444335938 247.0995941162109 193.1111907958984 242.8981781005859 L 176.1704559326172 242.8981170654297 L 175.4204559326172 242.8981170654297 L 175.4204559326172 242.1481170654297 L 175.4204559326172 224.5574493408203 L 175.4204559326172 223.8074493408203 L 176.1704559326172 223.8074493408203 C 179.0451202392578 223.8074493408203 181.7477874755859 222.6880035400391 183.780517578125 220.6552886962891 C 185.813232421875 218.6226196289062 186.9326782226562 215.9200134277344 186.9326782226562 213.0453491210938 C 186.9326782226562 210.1706237792969 185.813232421875 207.4680023193359 183.780517578125 205.4352874755859 C 181.7477874755859 203.4025573730469 179.0451202392578 202.2831268310547 176.1704559326172 202.2831268310547 L 175.4204559326172 202.2831268310547 L 175.4204559326172 201.5331268310547 L 175.4204559326172 184.6617279052734 L 175.2976226806641 184.6617279052734 L 175.2976226806641 183.9117279052734 L 175.2976226806641 167.1398773193359 C 172.3100738525391 166.9570770263672 169.526611328125 165.7061004638672 167.3922882080078 163.5717926025391 C 165.0806274414062 161.2601165771484 163.8051300048828 158.1865692138672 163.8007965087891 154.9174041748047 L 163.8007965087891 154.9137878417969 L 163.8007965087891 154.9101715087891 C 163.8144073486328 153.2730712890625 164.1382293701172 151.6759490966797 164.7632904052734 150.1632385253906 L 164.7662353515625 150.1561279296875 L 164.7693481445312 150.1490631103516 C 164.8585662841797 149.9451141357422 164.9552917480469 149.7546691894531 165.0488433837891 149.5705108642578 C 165.0786285400391 149.5119018554688 165.1086273193359 149.4527893066406 165.1386871337891 149.3927917480469 L 165.2767333984375 149.1166229248047 L 165.2821807861328 149.1057281494141 L 165.2879638671875 149.0950164794922 C 167.3083343505859 145.3614501953125 171.096435546875 142.9632873535156 175.2976226806641 142.7076110839844 L 175.2976226806641 125.782844543457 L 175.2976226806641 125.032844543457 L 176.0476226806641 125.032844543457 L 193.5921783447266 125.032844543457 L 194.3421783447266 125.032844543457 L 194.3421783447266 125.782844543457 C 194.3421783447266 128.6575622558594 195.4616241455078 131.3601684570312 197.4943542480469 133.3928985595703 C 199.5270690917969 135.4256134033203 202.229736328125 136.5450592041016 205.1044006347656 136.5450592041016 C 207.9791259765625 136.5450592041016 210.6817321777344 135.4256134033203 212.7144622802734 133.3928985595703 C 214.7471771240234 131.3601684570312 215.8666229248047 128.6575622558594 215.8666229248047 125.782844543457 L 215.8666229248047 125.032844543457 L 216.6166229248047 125.032844543457 L 232.9507293701172 125.032844543457 L 232.9507293701172 110.3472900390625 C 229.9614715576172 110.16796875 227.1763458251953 108.9182357788086 225.0408477783203 106.7827301025391 C 222.7277374267578 104.4695663452148 221.4538421630859 101.3941192626953 221.4538421630859 98.12290191650391 C 221.4511260986328 96.47456359863281 221.7757415771484 94.86779022216797 222.4187927246094 93.34845733642578 L 222.4205169677734 93.34428405761719 L 222.4223480224609 93.34011840820312 C 222.5361022949219 93.08014678955078 222.6608734130859 92.84408569335938 222.7823944091797 92.61616516113281 C 222.8294982910156 92.50214385986328 222.8834228515625 92.39006042480469 222.9430389404297 92.28237152099609 C 224.9639129638672 88.55088806152344 228.7508392333984 86.15436553955078 232.95068359375 85.89877319335938 L 232.95068359375 69.05072784423828 L 232.95068359375 68.30072784423828 L 233.70068359375 68.30072784423828 L 251.3834533691406 68.30072784423828 L 252.1334533691406 68.30072784423828 L 252.1334533691406 69.05072784423828 C 252.1334533691406 71.92539978027344 253.2528991699219 74.62806701660156 255.2856292724609 76.66078948974609 C 257.318359375 78.69351196289062 260.0210266113281 79.81295013427734 262.8956909179688 79.81295013427734 C 265.7704162597656 79.81295013427734 268.4730224609375 78.69351196289062 270.5057373046875 76.66078948974609 C 272.5384521484375 74.62806701660156 273.6578979492188 71.92539978027344 273.6578979492188 69.05072784423828 L 273.6578979492188 68.30072784423828 L 274.4078979492188 68.30072784423828 L 291.0028991699219 68.30072784423828 L 291.0028991699219 53.13937759399414 C 288.0097045898438 52.95995330810547 285.2206115722656 51.70859909057617 283.0822448730469 49.57028579711914 C 280.7662353515625 47.25423049926758 279.49072265625 44.17495346069336 279.49072265625 40.89956665039062 C 279.4898071289062 39.2512321472168 279.8143615722656 37.6450080871582 280.4553527832031 36.12589645385742 C 280.5600280761719 35.8731575012207 280.6816101074219 35.61805725097656 280.8150329589844 35.37162780761719 L 280.9443359375 35.09867477416992 L 280.9532470703125 35.07995223999023 L 280.9630737304688 35.06178665161133 C 282.990478515625 31.32955169677734 286.7839965820312 28.93197631835938 290.9875793457031 28.67563438415527 L 290.9874572753906 11.82745361328125 L 290.9874572753906 11.07745361328125 L 291.7374572753906 11.07745361328125 L 309.2820739746094 11.07745361328125 L 309.9943542480469 11.07745361328125 L 310.0310668945312 11.78878688812256 C 310.3270568847656 17.52050971984863 315.0549011230469 22.01034355163574 320.7943420410156 22.01034355163574 C 326.5337219238281 22.01034355163574 331.2615051269531 17.52050971984863 331.5575256347656 11.78878688812256 L 331.59423828125 11.07745361328125 L 332.3065185546875 11.07745361328125 L 349.9278564453125 11.07745361328125 L 350.6778564453125 11.07745361328125 L 350.6778564453125 11.82745361328125 L 350.6778564453125 28.59936714172363 C 353.6654052734375 28.78217697143555 356.4489135742188 30.0331974029541 358.5831909179688 32.16751098632812 C 360.8948364257812 34.47912216186523 362.1703491210938 37.55261993408203 362.1747436523438 40.82184219360352 C 362.177001953125 42.46673202514648 361.8522338867188 44.06850814819336 361.20947265625 45.58261871337891 L 361.2077941894531 45.58645248413086 L 361.2061157226562 45.59028625488281 C 361.1065368652344 45.81779098510742 360.9856872558594 46.06601333618164 360.8465576171875 46.32873153686523 C 360.7998657226562 46.44180679321289 360.746337890625 46.55319595336914 360.6869506835938 46.66061782836914 L 360.6869506835938 46.66062164306641 C 358.6627502441406 50.38719177246094 354.8751525878906 52.78449249267578 350.6778564453125 53.04587173461914 L 350.6778564453125 68.33145141601562 L 367.4263916015625 68.33145141601562 L 368.138671875 68.33145141601562 L 368.1754150390625 69.04278564453125 C 368.4714050292969 74.77450561523438 373.1991882324219 79.26439666748047 378.9385681152344 79.26439666748047 C 384.6779479980469 79.26439666748047 389.4057312011719 74.77450561523438 389.7017822265625 69.04278564453125 L 389.738525390625 68.33145141601562 L 390.4508056640625 68.33145141601562 L 407.1686401367188 68.33145141601562 L 407.1686401367188 53.13912963867188 C 405.8131103515625 53.05694580078125 404.4908752441406 52.75148773193359 403.2282409667969 52.22800827026367 C 401.7337341308594 51.60834121704102 400.3963012695312 50.71372985839844 399.2530822753906 49.56900787353516 C 398.1098022460938 48.42423248291016 397.2169494628906 47.08562088012695 396.5993347167969 45.59028625488281 C 395.9817504882812 44.09495544433594 395.6696166992188 42.51645278930664 395.6717834472656 40.89856338500977 C 395.6709594726562 39.25112152099609 395.9955139160156 37.6448974609375 396.6365051269531 36.12589645385742 C 396.7415161132812 35.87257766723633 396.863037109375 35.61750411987305 396.9962463378906 35.37160491943359 L 397.1255187988281 35.09873199462891 L 397.1343383789062 35.08000946044922 L 397.1442260742188 35.06178665161133 C 399.1716003417969 31.32955169677734 402.9650573730469 28.93197631835938 407.1686401367188 28.67563438415527 L 407.1686401367188 11.82745361328125 L 407.1686401367188 11.07745361328125 L 407.9186401367188 11.07745361328125 L 425.4632263183594 11.07745361328125 L 426.1755065917969 11.07745361328125 L 426.2122497558594 11.78878688812256 C 426.50830078125 17.52050971984863 431.2361145019531 22.01034355163574 436.9755249023438 22.01034355163574 C 442.7149047851562 22.01034355163574 447.442626953125 17.52050971984863 447.7386169433594 11.78878688812256 L 447.7753601074219 11.07745361328125 L 448.4876403808594 11.07745361328125 L 466.1089477539062 11.07745361328125 L 466.8589477539062 11.07745361328125 L 466.8589477539062 11.82745361328125 L 466.8589477539062 28.58833694458008 C 468.2640991210938 28.65407752990723 469.6352844238281 28.95881271362305 470.9429626464844 29.49673080444336 C 472.4312438964844 30.10895347595215 473.7654724121094 30.99367523193359 474.9085083007812 32.12628555297852 C 476.0733032226562 33.28039932250977 476.9817810058594 34.63384246826172 477.6086120605469 36.14906311035156 C 478.2354431152344 37.66404724121094 478.5487670898438 39.26348876953125 478.5399475097656 40.90299987792969 C 478.5416870117188 42.54647064208984 478.2169189453125 44.14678573608398 477.5746154785156 45.65945434570312 L 477.5730590820312 45.66323089599609 L 477.5714111328125 45.66695404052734 C 477.470458984375 45.89776229858398 477.3526000976562 46.13980484008789 477.211669921875 46.40582656860352 C 477.1652526855469 46.51821517944336 477.1119995117188 46.62904739379883 477.0530700683594 46.73598098754883 C 475.0334167480469 50.4810905456543 471.2388610839844 52.88582611083984 467.0278625488281 53.1395263671875 L 467.0278625488281 69.98706817626953 L 467.0278625488281 70.73706817626953 L 466.2778625488281 70.73706817626953 L 448.7025146484375 70.73706817626953 L 447.9525146484375 70.73706817626953 L 447.9525146484375 69.98706817626953 C 447.9525146484375 67.11239624023438 446.8330078125 64.4097900390625 444.80029296875 62.3770637512207 C 442.767578125 60.34434127807617 440.0649719238281 59.22489929199219 437.1903076171875 59.22489929199219 C 434.3156127929688 59.22489929199219 431.6130065917969 60.34434127807617 429.5802917480469 62.3770637512207 C 427.5475769042969 64.4097900390625 426.4281311035156 67.11239624023438 426.4281311035156 69.98706817626953 L 426.4281311035156 70.73706817626953 L 425.6781311035156 70.73706817626953 L 408.9602355957031 70.73706817626953 L 408.9602355957031 85.89850616455078 C 411.9494323730469 86.07783508300781 414.7344970703125 87.32756042480469 416.8700256347656 89.46306610107422 C 419.1831359863281 91.77617645263672 420.4570007324219 94.85162353515625 420.4570007324219 98.12284088134766 C 420.4593505859375 99.76689910888672 420.1345825195312 101.3687286376953 419.4917907714844 102.8827285766602 L 419.4901733398438 102.8865661621094 L 419.488525390625 102.8903427124023 C 419.3869934082031 103.1223831176758 419.26806640625 103.3663558959961 419.1255187988281 103.6352615356445 C 419.0782470703125 103.744140625 419.024169921875 103.8512802124023 418.9644165039062 103.9543533325195 C 416.947021484375 107.6875305175781 413.1611938476562 110.082893371582 408.9602355957031 110.3327255249023 L 408.9602355957031 127.1950073242188 L 408.9602355957031 144.5093994140625 L 408.9602355957031 145.2216796875 L 408.2489624023438 145.2583923339844 C 402.517333984375 145.5545043945312 398.0275573730469 150.2822875976562 398.0275573730469 156.0215606689453 C 398.0275573730469 161.7608489990234 402.517333984375 166.4886169433594 408.2489624023438 166.7847290039062 L 408.9602355957031 166.8214569091797 L 408.9602355957031 167.5337371826172 L 408.9602355957031 183.1617279052734 L 424.9812927246094 183.1617279052734 C 425.1606140136719 180.1725158691406 426.4103393554688 177.387451171875 428.5458984375 175.2518920898438 C 430.8590087890625 172.9387817382812 433.9344482421875 171.6649017333984 437.2057495117188 171.6649017333984 L 437.2243347167969 171.6649017333984 C 438.8672790527344 171.6649017333984 440.4673461914062 171.9895629882812 441.9801330566406 172.6298370361328 L 441.9959716796875 172.6365051269531 L 442.0114135742188 172.6439056396484 L 442.7174682617188 172.9816131591797 L 443.0065002441406 173.1185150146484 L 443.0255126953125 173.1275024414062 L 443.0440673828125 173.1375579833984 C 446.7725219726562 175.1668701171875 449.1697998046875 178.9603576660156 449.42919921875 183.1617279052734 L 466.2778625488281 183.1617279052734 L 467.0278625488281 183.1617279052734 L 467.0278625488281 183.9117279052734 L 467.0278625488281 201.4563446044922 L 467.0278625488281 202.1685638427734 L 466.3165588378906 202.2053375244141 C 460.5848999023438 202.5015106201172 456.0951232910156 207.2292938232422 456.0951232910156 212.9685668945312 C 456.0951232910156 218.7078399658203 460.5848999023438 223.4356231689453 466.3165588378906 223.7317810058594 L 467.0278625488281 223.7685699462891 L 467.0278625488281 224.4807891845703 L 467.0278625488281 242.1021270751953 L 467.0278625488281 242.8521270751953 L 466.2778625488281 242.8521270751953 L 449.5095520019531 242.8521270751953 C 449.431640625 244.2249298095703 449.1248168945312 245.5641174316406 448.5943603515625 246.8426818847656 C 447.9672241210938 248.3540649414062 447.0595092773438 249.7040100097656 445.8963623046875 250.8549041748047 C 444.7549133300781 251.9843444824219 443.4230041503906 252.8665161132812 441.9378051757812 253.4768981933594 C 440.4534606933594 254.0868988037109 438.8873596191406 254.3961791992188 437.2828369140625 254.3961791992188 C 437.2240905761719 254.3961791992188 437.1653747558594 254.3957977294922 437.1065673828125 254.3949584960938 L 437.097900390625 254.3949584960938 C 435.4588623046875 254.3950042724609 433.8626708984375 254.0702362060547 432.3537292480469 253.4296722412109 L 432.3411865234375 253.4243469238281 L 432.3289184570312 253.4185638427734 L 431.6075134277344 253.0809478759766 L 431.5986938476562 253.0768432617188 L 431.5899658203125 253.0724487304688 L 431.3136901855469 252.9342803955078 L 431.3025817871094 252.9287261962891 L 431.2916870117188 252.9228363037109 C 427.5556640625 250.8974304199219 425.1576538085938 247.1039428710938 424.904296875 242.8981170654297 L 408.8988952636719 242.8981170654297 L 408.8988952636719 259.4778442382812 L 408.8988952636719 260.1901245117188 L 408.1875610351562 260.2268371582031 C 402.4558410644531 260.5228576660156 397.9659729003906 265.2506103515625 397.9659729003906 270.9900207519531 C 397.9659729003906 276.7294006347656 402.4558410644531 281.4571838378906 408.1875610351562 281.7532348632812 L 408.8988952636719 281.7899475097656 L 408.8988952636719 282.5022277832031 L 408.8988952636719 300.1235656738281 L 408.8988952636719 300.8735656738281 L 408.1488952636719 300.8735656738281 L 391.3155822753906 300.8735656738281 C 391.1327514648438 303.8611145019531 389.8817749023438 306.6445922851562 387.7474670410156 308.7789001464844 C 385.4358520507812 311.0905151367188 382.3623352050781 312.3659973144531 379.0931396484375 312.3703918457031 L 379.0885620117188 312.3703918457031 L 379.0840759277344 312.3703308105469 L 379.0764465332031 312.3703308105469 C 377.4372253417969 312.3703918457031 375.841064453125 312.0456237792969 374.3323364257812 311.4050598144531 L 374.3138427734375 311.397216796875 L 374.2958374023438 311.3883972167969 L 373.5742797851562 311.0353393554688 L 373.5714111328125 311.0339660644531 L 373.5685119628906 311.0325012207031 L 373.2922973632812 310.8944091796875 L 373.2814025878906 310.8889465332031 L 373.270751953125 310.8831787109375 C 369.5370483398438 308.8627014160156 367.1390380859375 305.07470703125 366.8833312988281 300.8735656738281 L 350.8006286621094 300.8735656738281 L 350.8006286621094 310.4383850097656 L 350.8006286621094 317.9290771484375 L 350.8006286621094 318.6790771484375 L 350.0506286621094 318.6790771484375 C 347.1759643554688 318.6790771484375 344.4733581542969 319.7985229492188 342.4406127929688 321.8312377929688 C 340.4078979492188 323.8639526367188 339.2883911132812 326.5665588378906 339.2883911132812 329.4412841796875 C 339.2883911132812 332.3159484863281 340.4078979492188 335.0185546875 342.4406127929688 337.0513000488281 C 344.4733581542969 339.0840148925781 347.1759643554688 340.2034606933594 350.0506286621094 340.2034606933594 L 350.8006286621094 340.2034606933594 L 350.8006286621094 340.9534606933594 L 350.8006286621094 358.5747985839844 L 350.8006286621094 359.3247985839844 L 350.0506286621094 359.3247985839844 L 333.1567993164062 359.3247985839844 C 332.9774780273438 362.3139953613281 331.7277526855469 365.0990600585938 329.5922241210938 367.2345581054688 C 327.4567260742188 369.3700561523438 324.6716613769531 370.6198120117188 321.6824645996094 370.7991333007812 L 321.6824645996094 370.8215637207031 L 320.9324645996094 370.8216857910156 Z M 391.3928833007812 241.0450592041016 L 407.4449462890625 241.0450592041016 L 407.4449462890625 224.4500122070312 L 407.4449462890625 223.7000122070312 L 408.1949462890625 223.7000122070312 C 411.0696716308594 223.7000122070312 413.7722778320312 222.58056640625 415.8050231933594 220.5478363037109 C 417.8377380371094 218.5151214599609 418.9571838378906 215.8125152587891 418.9571838378906 212.9378356933594 C 418.9571838378906 210.0631256103516 417.8377380371094 207.3605041503906 415.8050231933594 205.3277893066406 C 413.7722778320312 203.2950592041016 411.0696716308594 202.1756134033203 408.1949462890625 202.1756134033203 L 407.4449462890625 202.1756134033203 L 407.4449462890625 201.4256134033203 L 407.4449462890625 185.9050598144531 L 391.3155822753906 185.9050598144531 C 391.1327514648438 188.8926239013672 389.8817749023438 191.6760864257812 387.7474670410156 193.8103942871094 C 385.4358520507812 196.1221160888672 382.3623352050781 197.3976135253906 379.0931396484375 197.4019470214844 L 379.0764465332031 197.4019470214844 C 377.4372863769531 197.4020080566406 375.8411254882812 197.0772247314453 374.3323364257812 196.4366149902344 L 374.3139038085938 196.4287872314453 L 374.2958374023438 196.4200134277344 L 373.5742797851562 196.0670166015625 L 373.5713500976562 196.0655059814453 L 373.5683898925781 196.0640716552734 L 373.2921752929688 195.9259033203125 L 373.2813415527344 195.9205169677734 L 373.270751953125 195.9147338867188 C 369.5370483398438 193.8942718505859 367.1390380859375 190.1062774658203 366.8833312988281 185.9051208496094 L 350.7545776367188 185.9051208496094 L 350.7545776367188 201.4563446044922 L 350.7545776367188 202.1685638427734 L 350.0433044433594 202.2053375244141 C 344.3116760253906 202.5015106201172 339.8219604492188 207.2292938232422 339.8219604492188 212.9685668945312 C 339.8219604492188 218.7078399658203 344.3117370605469 223.4356231689453 350.0433349609375 223.7317810058594 L 350.754638671875 223.7685699462891 L 350.754638671875 224.4807891845703 L 350.7545776367188 241.0450592041016 L 366.9444274902344 241.0450592041016 C 367.1237182617188 238.0558471679688 368.3734436035156 235.2707824707031 370.5090026855469 233.1352386474609 C 372.8221130371094 230.8220672607422 375.8975830078125 229.5481719970703 379.1687927246094 229.5481719970703 L 379.1874694824219 229.5481719970703 C 380.8276977539062 229.5481719970703 382.4253540039062 229.8718414306641 383.9361267089844 230.5101470947266 C 384.1979675292969 230.6151580810547 384.455078125 230.7377319335938 384.7010192871094 230.8746337890625 L 384.9695129394531 231.0017242431641 L 384.9883422851562 231.0106201171875 L 385.0066223144531 231.0205688476562 C 388.7389221191406 233.0480346679688 391.1365356445312 236.8415069580078 391.3928833007812 241.0450592041016 Z M 235.1721801757812 183.3920135498047 L 251.3834533691406 183.3920135498047 L 252.1334533691406 183.3920135498047 L 252.1334533691406 184.1420135498047 C 252.1334533691406 187.0166778564453 253.2528991699219 189.7193450927734 255.2856292724609 191.7520599365234 C 257.318359375 193.7847900390625 260.0210266113281 194.9042358398438 262.8956909179688 194.9042358398438 C 265.7704162597656 194.9042358398438 268.4730224609375 193.7847900390625 270.5057373046875 191.7520599365234 C 272.5384521484375 189.7193450927734 273.6578979492188 187.0167388916016 273.6578979492188 184.1420593261719 L 273.6578979492188 183.3920593261719 L 274.4078979492188 183.3920593261719 L 291.0028991699219 183.3920135498047 L 291.0028991699219 168.2767028808594 C 288.0126037597656 168.0974426269531 285.2256164550781 166.8481292724609 283.0880126953125 164.7133483886719 C 280.7725830078125 162.4010620117188 279.4950561523438 159.3255157470703 279.49072265625 156.0532836914062 C 279.4883117675781 154.4117279052734 279.8117065429688 152.8130340576172 280.4520568847656 151.3014373779297 C 280.556640625 151.0355682373047 280.6788330078125 150.7739868164062 280.8153991699219 150.5235137939453 L 280.9443359375 150.2513427734375 L 280.9533386230469 150.2323913574219 L 280.9633483886719 150.2139587402344 C 282.9918212890625 146.4861145019531 286.7860717773438 144.0931396484375 290.9874572753906 143.8425598144531 L 290.9874572753906 127.9296798706055 L 274.5152282714844 127.9296798706055 L 273.8029479980469 127.9296798706055 L 273.7662353515625 127.2183456420898 C 273.4703063964844 121.4866180419922 268.7425842285156 116.9967346191406 263.0031127929688 116.9967346191406 C 257.2637329101562 116.9967346191406 252.5359649658203 121.4866180419922 252.2399597167969 127.2183456420898 L 252.2032318115234 127.9296798706055 L 251.4909515380859 127.9296798706055 L 235.1721801757812 127.9296798706055 L 235.1721801757812 142.6919555664062 C 238.1614379882812 142.8712768554688 240.9465026855469 144.1210021972656 243.0820159912109 146.2565612792969 C 245.3950653076172 148.5696716308594 246.6689605712891 151.6451263427734 246.6689605712891 154.9163970947266 L 246.6689605712891 154.9195098876953 L 246.6689605712891 154.9225616455078 C 246.6554107666016 156.5641174316406 246.3317413330078 158.1660614013672 245.7069549560547 159.6839599609375 L 245.7037963867188 159.6915588378906 L 245.7004547119141 159.6991729736328 C 245.5839385986328 159.9654998779297 245.4552459716797 160.2077789306641 245.3305053710938 160.4418792724609 L 245.2000122070312 160.71728515625 L 245.1911773681641 160.7360076904297 L 245.1812896728516 160.7541809082031 C 243.156982421875 164.4808044433594 239.3694000244141 166.8780517578125 235.1722412109375 167.1394348144531 L 235.1721801757812 183.3920135498047 Z M 292.8251953125 126.2301177978516 L 309.3741760253906 126.2301177978516 L 310.0863952636719 126.2301177978516 L 310.1231689453125 126.9413986206055 C 310.4194641113281 132.6729583740234 315.1472473144531 137.1626129150391 320.8864135742188 137.1626129150391 C 326.6256408691406 137.1626129150391 331.3533935546875 132.6729583740234 331.6496887207031 126.9413986206055 L 331.6864624023438 126.2301177978516 L 332.398681640625 126.2301177978516 L 349.1932983398438 126.2301177978516 L 349.1932983398438 110.3472900390625 C 346.2040405273438 110.16796875 343.4189147949219 108.9182357788086 341.2834167480469 106.7827301025391 C 338.9703063964844 104.4696197509766 337.6964111328125 101.394172668457 337.6964111328125 98.12295532226562 C 337.6936950683594 96.47439575195312 338.0183410644531 94.86756134033203 338.6614074707031 93.34839630126953 L 338.6631164550781 93.34434509277344 L 338.6649169921875 93.34028625488281 C 338.7928771972656 93.04766082763672 338.9027404785156 92.81754302978516 339.0197448730469 92.5970458984375 L 339.1501159667969 92.3218994140625 L 339.1589660644531 92.30323028564453 L 339.1687927246094 92.28506469726562 C 341.1961364746094 88.55282592773438 344.9896850585938 86.15525054931641 349.1932983398438 85.89891052246094 L 349.1932983398438 70.70639801025391 L 332.4600219726562 70.70639801025391 L 331.7100219726562 70.70639801025391 L 331.7100219726562 69.95639801025391 C 331.7100219726562 67.08173370361328 330.590576171875 64.37906646728516 328.557861328125 62.34634399414062 C 326.5251159667969 60.31362152099609 323.8224487304688 59.19417572021484 320.9477844238281 59.19417572021484 C 318.0731201171875 59.19417572021484 315.3704528808594 60.31362152099609 313.3377380371094 62.34634399414062 C 311.3050231933594 64.37906646728516 310.1855773925781 67.08173370361328 310.1855773925781 69.95639801025391 L 310.1855773925781 70.70639801025391 L 309.4355773925781 70.70639801025391 L 292.840576171875 70.70639801025391 L 292.840576171875 85.89944458007812 C 295.8268737792969 86.08245086669922 298.6087341308594 87.33390045166016 300.7407836914062 89.46884155273438 C 303.0501708984375 91.78134155273438 304.322021484375 94.85472869873047 304.322021484375 98.12290191650391 C 304.3243408203125 99.766845703125 303.9996337890625 101.3686218261719 303.3568420410156 102.8826751708984 L 303.355224609375 102.8864517211914 L 303.3535766601562 102.8902282714844 C 303.2435302734375 103.1417388916016 303.1298217773438 103.4017639160156 302.9947814941406 103.6559753417969 L 302.8614501953125 103.9226760864258 L 302.8560180664062 103.9335632324219 L 302.8502502441406 103.9442901611328 C 300.8273620605469 107.6824340820312 297.0325012207031 110.0818939208984 292.8251953125 110.3326187133789 L 292.8251953125 126.2301177978516 Z M 196.3551330566406 318.6177368164062 L 195.6051330566406 318.6177368164062 L 195.6051330566406 317.8677368164062 C 195.6051330566406 314.9930725097656 194.4856872558594 312.2904052734375 192.4529571533203 310.2576904296875 C 190.4202423095703 308.2249450683594 187.7176208496094 307.1054992675781 184.8429565429688 307.1054992675781 C 181.9682922363281 307.1054992675781 179.2656860351562 308.2249450683594 177.2329559326172 310.2576904296875 C 175.2002410888672 312.2904052734375 174.0807952880859 314.9930114746094 174.0807952880859 317.86767578125 L 174.0807952880859 318.61767578125 L 173.3307952880859 318.61767578125 L 155.7094573974609 318.61767578125 L 154.9594573974609 318.61767578125 L 154.9594573974609 317.86767578125 L 154.9594573974609 301.0813598632812 C 151.9701995849609 300.9020080566406 149.1851348876953 299.6522827148438 147.0496215820312 297.5167846679688 C 144.7364654541016 295.20361328125 143.4625701904297 292.128173828125 143.4625701904297 288.8569641113281 C 143.4616241455078 287.2130737304688 143.7862854003906 285.6116638183594 144.4276275634766 284.0976257324219 L 144.4293518066406 284.0935668945312 L 144.4311218261719 284.0895080566406 C 144.5024566650391 283.926513671875 144.576904296875 283.7756652832031 144.6488494873047 283.6297912597656 C 144.6923980712891 283.54150390625 144.7355651855469 283.4541625976562 144.7762908935547 283.3669128417969 L 144.9162902832031 283.0714111328125 L 144.9250183105469 283.0528869628906 L 144.9347381591797 283.0349426269531 C 146.9599456787109 279.2997131347656 150.7539520263672 276.9012451171875 154.9594573974609 276.6476745605469 L 154.9594573974609 259.7847900390625 L 154.9594573974609 259.0347900390625 L 155.7094573974609 259.0347900390625 L 173.2694091796875 259.0347900390625 L 174.0194091796875 259.0347900390625 L 174.0194091796875 259.7847900390625 C 174.0194091796875 262.6594543457031 175.1388549804688 265.3621215820312 177.1715698242188 267.3948364257812 C 179.2042999267578 269.4275512695312 181.9069061279297 270.5469970703125 184.7815704345703 270.5469970703125 C 187.6562957763672 270.5469970703125 190.3589019775391 269.4275512695312 192.3916320800781 267.3948364257812 C 194.4242858886719 265.3621215820312 195.5437316894531 262.6594543457031 195.5437316894531 259.7847900390625 L 195.5437316894531 259.0347900390625 L 196.2937316894531 259.0347900390625 L 213.9457397460938 259.0347900390625 L 214.6957397460938 259.0347900390625 L 214.6957397460938 259.7847900390625 L 214.6957397460938 276.5557861328125 C 217.6849975585938 276.735107421875 220.4700622558594 277.9848327636719 222.6056213378906 280.1203002929688 C 224.9187927246094 282.4334106445312 226.1926879882812 285.5088500976562 226.1926879882812 288.7801208496094 C 226.1935729980469 290.4240112304688 225.868896484375 292.025390625 225.2276306152344 293.5393981933594 L 225.2259063720703 293.5435180664062 L 225.2240753173828 293.547607421875 C 225.1527404785156 293.7106628417969 225.0782928466797 293.8615112304688 225.0062866210938 294.0073852539062 C 224.9627380371094 294.0956726074219 224.9196319580078 294.1829528808594 224.8788452148438 294.2702941894531 L 224.739013671875 294.5655517578125 L 224.7302398681641 294.5840759277344 L 224.7205200195312 294.60205078125 C 222.6953582763672 298.3372497558594 218.9012451171875 300.7357788085938 214.6957855224609 300.9893493652344 L 214.6957855224609 317.852294921875 L 214.6957855224609 318.3150634765625 L 214.2821807861328 318.5226135253906 L 214.2515106201172 318.5379943847656 L 214.0927429199219 318.61767578125 L 213.9151306152344 318.61767578125 L 196.3551330566406 318.6177368164062 Z M 140.6207885742188 262.3460693359375 L 123.0761795043945 262.3460693359375 L 122.3261795043945 262.3460693359375 L 122.3261795043945 261.5960693359375 C 122.3261795043945 258.7214050292969 121.2067337036133 256.018798828125 119.1740112304688 253.9860687255859 C 117.1412887573242 251.9533386230469 114.4386825561523 250.8338928222656 111.5640182495117 250.8338928222656 C 108.6893463134766 250.8338928222656 105.9867401123047 251.9533386230469 103.9540176391602 253.9860687255859 C 101.9212951660156 256.018798828125 100.8018493652344 258.7214050292969 100.8018493652344 261.5960693359375 L 100.8018493652344 262.3460693359375 L 100.0518493652344 262.3460693359375 L 82.43051147460938 262.3460693359375 L 81.68051147460938 262.3460693359375 L 81.68051147460938 261.5960693359375 L 81.68051147460938 244.7636871337891 C 78.69126129150391 244.5843505859375 75.90618896484375 243.3346252441406 73.77068328857422 241.1991271972656 C 71.45757293701172 238.8859558105469 70.18367767333984 235.8105163574219 70.18367767333984 232.5392913818359 C 70.18096160888672 230.8930511474609 70.50467681884766 229.2884521484375 71.14601135253906 227.7710876464844 C 71.25078582763672 227.5098266601562 71.37325286865234 227.2529296875 71.51017761230469 227.0068511962891 L 71.63734436035156 226.7384033203125 L 71.64617919921875 226.7196807861328 L 71.65606689453125 226.7014465332031 C 73.68347930908203 222.9692230224609 77.47695922851562 220.5716400146484 81.68051147460938 220.3153076171875 L 81.68051147460938 203.4671173095703 L 81.68051147460938 202.7171173095703 L 82.43051147460938 202.7171173095703 L 99.97506713867188 202.7171173095703 L 100.6873474121094 202.7171173095703 L 100.7240676879883 203.4284515380859 C 101.0201263427734 209.1601715087891 105.7479019165039 213.6500701904297 111.4872894287109 213.6500701904297 C 117.2266235351562 213.6500701904297 121.9544067382812 209.1601715087891 122.2504577636719 203.4284515380859 L 122.2871780395508 202.7171173095703 L 122.9994583129883 202.7171173095703 L 140.6207885742188 202.7171173095703 L 141.3707885742188 202.7171173095703 L 141.3707885742188 203.4671173095703 L 141.3707885742188 220.2390289306641 C 144.3583526611328 220.4218444824219 147.1418609619141 221.6728668212891 149.2761840820312 223.8071746826172 C 151.5878448486328 226.1188354492188 152.8633422851562 229.1923370361328 152.8677368164062 232.4615631103516 C 152.8699645996094 234.1065673828125 152.5451812744141 235.7083435058594 151.9024658203125 237.2222900390625 L 151.9007873535156 237.2261199951172 L 151.8991241455078 237.2299499511719 C 151.7985229492188 237.4598236083984 151.6764678955078 237.7102355957031 151.5361938476562 237.9746704101562 C 151.4887237548828 238.0841369628906 151.4344787597656 238.1916046142578 151.3746032714844 238.2947845458984 C 149.3571166992188 242.0276031494141 145.5713348388672 244.4226531982422 141.370849609375 244.6723785400391 L 141.370849609375 261.6267395019531 L 140.6207885742188 261.6274108886719 L 140.6207885742188 262.3460693359375 Z M 179.8082885742188 110.4157867431641 L 179.7989044189453 110.4157867431641 L 179.79638671875 110.4157257080078 C 178.1561584472656 110.4149322509766 176.5590515136719 110.0902862548828 175.049072265625 109.4507293701172 L 175.0302429199219 109.4427871704102 L 175.0119018554688 109.4337844848633 L 174.2904663085938 109.0807342529297 L 174.2875671386719 109.079345703125 L 174.2847442626953 109.0778961181641 L 174.0084075927734 108.9397354125977 L 173.9980773925781 108.9345626831055 L 173.9878997802734 108.9290618896484 C 170.2332916259766 106.9049758911133 167.8307647705078 103.0965042114258 167.5957946777344 98.87290191650391 L 150.8128967285156 98.87290191650391 L 150.0628967285156 98.87290191650391 L 150.0628967285156 98.12290191650391 L 150.0629577636719 80.57834625244141 L 150.0629577636719 79.82834625244141 L 150.8129577636719 79.82834625244141 C 153.6876220703125 79.82834625244141 156.3902435302734 78.70890045166016 158.4229583740234 76.67617797851562 C 160.4556884765625 74.64345550537109 161.5751190185547 71.94078826904297 161.5751190185547 69.06612396240234 C 161.5751190185547 66.19139862060547 160.4556884765625 63.48878860473633 158.4229583740234 61.4560661315918 C 156.3902435302734 59.42334365844727 153.6876220703125 58.30389785766602 150.8128967285156 58.30389785766602 L 150.0628967285156 58.30389785766602 L 150.0628967285156 57.55389785766602 L 150.0628967285156 39.93256378173828 L 150.0628967285156 39.18256378173828 L 150.8128967285156 39.18256378173828 L 167.6912841796875 39.18256378173828 C 167.8706207275391 36.19335556030273 169.1203460693359 33.40828704833984 171.2559051513672 31.27273178100586 C 173.5690155029297 28.95962142944336 176.6444549560547 27.68573188781738 179.9157409667969 27.68573188781738 L 179.9223480224609 27.68573188781738 C 181.5615386962891 27.68573188781738 183.1579132080078 28.00931167602539 184.6674346923828 28.64755058288574 C 184.9291687011719 28.75254249572754 185.1863708496094 28.8751163482666 185.4325408935547 29.01213264465332 L 185.7011871337891 29.13934326171875 L 185.7225189208984 29.14945411682129 L 185.7431793212891 29.16084289550781 C 189.4529113769531 31.21260643005371 191.8209381103516 35.01617813110352 192.0520782470703 39.21328735351562 L 208.8190155029297 39.21328735351562 L 209.5690155029297 39.21328735351562 L 209.5690155029297 39.96328735351562 L 209.5690765380859 57.52323150634766 L 209.5690765380859 58.23550796508789 L 208.8577423095703 58.27223205566406 C 203.1260070800781 58.56823348999023 198.6361236572266 63.2960090637207 198.6361236572266 69.035400390625 C 198.6361236572266 74.77478790283203 203.1259613037109 79.5025634765625 208.8576812744141 79.79862213134766 L 209.5690155029297 79.83534240722656 L 209.5690155029297 80.54762268066406 L 209.5690155029297 98.16889953613281 L 209.5690155029297 98.91889953613281 L 208.8190155029297 98.91889953613281 L 192.0326843261719 98.91889953613281 C 191.8533630371094 101.9081497192383 190.6036376953125 104.693229675293 188.4681243896484 106.8287353515625 C 186.1549530029297 109.141845703125 183.0795135498047 110.4157333374023 179.8082885742188 110.4157867431641 Z"/></g><g class="e" transform="translate(0 0)"><path d="M0,0H496.84V429.6H0Z" transform="translate(-24.04 -20.074)"/><g transform="translate(72.741 45.809)"><rect class="a" width="387.643" height="303.565"/><g transform="translate(24.228 34.496)"><path class="f" d="M562.788,455.079s-51.662-7.655-78.963-9.852c-26.214-2.105-57.288-3.322-90.614-3.322s-64.4,1.217-90.61,3.322c-27.305,2.2-78.964,12.842-78.964,12.842v13.362c0,11.877,75.921,21.5,169.574,21.5s169.577-9.628,169.577-21.5Z" transform="translate(-223.618 -258.412)"/><path class="f" d="M330.96,394.889A155.455,155.455,0,0,0,227.7,541.313v22.021c14.034-4.061,37.69-7.471,67.31-9.757q-.23-6.333-.237-12.762C294.776,483.045,308.723,431.066,330.96,394.889Z" transform="translate(-213.511 -375.291)"/><path class="g" d="M342.159,507.372a154.761,154.761,0,0,0-35.473-98.83c9.363,28.969,14.718,62.538,14.718,98.332q0,9.1-.464,17.994a190.731,190.731,0,0,1,20.982,4.458Z" transform="translate(-17.163 -341.35)"/><path class="h" d="M342.159,507.372a154.761,154.761,0,0,0-35.473-98.83c9.363,28.969,14.718,62.538,14.718,98.332q0,9.1-.464,17.994a190.731,190.731,0,0,1,20.982,4.458Z" transform="translate(-17.163 -341.35)"/><path class="g" d="M455.2,448.884A155.554,155.554,0,0,0,283.128,401.29c-22.237,36.178-36.184,88.156-36.184,145.925q0,6.432.237,12.762c23.144-1.788,49.926-2.894,78.612-3.1,0,0,6.519-.031,9.478-.031,54.611,0,103.17,3.273,134.185,8.359q.449-8.895.464-17.995C469.919,511.422,464.565,477.852,455.2,448.884Z" transform="translate(-165.678 -381.693)"/><g transform="translate(107.815)"><path class="g" d="M378.844,466.735l-9.851-61.593a11.9,11.9,0,0,0-8.335-9.559,156.1,156.1,0,0,0-87.912,0,11.89,11.89,0,0,0-8.332,9.559l-9.855,61.593" transform="translate(-254.56 -389.267)"/></g><path class="g" d="M393.224,439.148q-4.444,0-8.833.028l-.324-.028-.324.034c-89.244.624-160.1,10-160.1,21.47V477.28a4.139,4.139,0,0,0,.586,2.806c2.269-2.231,8.049-5.051,15.275-7.014,10.186-2.768,24.879-5.208,42.874-7.181a28.708,28.708,0,0,1,22.5,7.345,60.51,60.51,0,0,0,40.866,15.881H440.7a60.521,60.521,0,0,0,40.866-15.878h0a28.692,28.692,0,0,1,22.5-7.348c17.994,1.973,32.688,4.413,42.87,7.181,7.258,1.97,12.236,4.1,14.492,6.341.244.244.53.457.777.683a4.166,4.166,0,0,0,.6-2.817V460.653C562.8,448.777,486.878,439.148,393.224,439.148Z" transform="translate(-223.632 -265.265)"/><path class="i" d="M308.047,424.983,272.282,447v28.588Z" transform="translate(-102.689 -300.478)"/><path class="j" d="M297.787,475.586V447l-35.765-22.014Z" transform="translate(-128.194 -300.478)"/><path class="j" d="M262.023,462.489h0l35.765,20.68V404.644Z" transform="translate(-128.194 -351.041)"/><path class="i" d="M308.047,462.489l-35.765-57.845h0v37.166h0v41.359l35.765-20.679h0Z" transform="translate(-102.689 -351.041)"/></g></g></g></g></g></g></svg>