<svg xmlns="http://www.w3.org/2000/svg" width="340" height="236.786" viewBox="0 0 340 236.786"><defs><style>.a,.m{fill:none;}.b{stroke:#9b9fa8;stroke-miterlimit:10;}.c,.j,.l{fill:#0a0a0a;}.d{fill:#f2f2f2;font-size:77px;}.d,.e,.j{font-family:RobotoMono-Regular, Roboto Mono;}.e{fill:#cccdcd;}.e,.j{font-size:4px;}.f{fill:#80788a;}.g{fill:#f2c756;}.h{fill:#62656a;}.i{fill:#e18562;}.k{font-family:RobotoMono-Regular;}.l,.m,.n{stroke:#d4d4d4;}.n{fill:#fff04d;}</style></defs><rect class="a" width="340" height="236.786"/><rect class="b" width="243.281" height="151.296" rx="5.663" transform="translate(48.218 45.489)"/><g transform="translate(56.223 52.286)"><circle class="c" cx="1.645" cy="1.645" r="1.645"/><circle class="c" cx="1.645" cy="1.645" r="1.645" transform="translate(4.936)"/><circle class="c" cx="1.645" cy="1.645" r="1.645" transform="translate(9.872)"/></g><text class="d" transform="translate(99.85 134.126)"><tspan x="0" y="0">&lt;/&gt;</tspan></text><text class="e" transform="translate(65.074 155.762)"><tspan x="0" y="0">at </tspan><tspan class="f" y="0">ERC721Mock</tspan><tspan y="0">.</tspan><tspan class="g" y="0">&lt;unrecognized-selector&gt;</tspan><tspan class="h" y="0"> </tspan><tspan y="0">(</tspan><tspan class="i" y="0">contracts/mocks/ERC721Mock.sol:9</tspan><tspan y="0">)</tspan><tspan x="0" y="9">at </tspan><tspan class="f" y="9">ERC721Mock</tspan><tspan y="9">.</tspan><tspan class="g" y="9">_checkOnERC721Received</tspan><tspan class="h" y="9"> </tspan><tspan y="9">(</tspan><tspan class="i" y="9">contracts/token/ERC721/ERC721.sol:334</tspan><tspan y="9">)</tspan><tspan x="0" y="18">at</tspan><tspan class="h" y="18"> </tspan><tspan class="f" y="18">ERC721Mock</tspan><tspan y="18">.</tspan><tspan class="g" y="18">_safeTransferFrom</tspan><tspan class="h" y="18"> </tspan><tspan y="18">(</tspan><tspan class="i" y="18">contracts/token/ERC721/ERC721.sol:196</tspan><tspan y="18">)</tspan></text><text class="j" transform="translate(54.53 115.578)"><tspan x="0" y="0">1</tspan><tspan x="0" y="9">2</tspan><tspan x="0" y="18">3</tspan><tspan x="0" y="27">4</tspan><tspan x="0" y="36">5</tspan><tspan x="0" y="45">6</tspan><tspan x="0" y="54">7</tspan><tspan class="k"><tspan x="0" y="63"></tspan></tspan></text><g transform="translate(243.96 19.913)"><path class="l" d="M729.04,20031.008a29.782,29.782,0,0,1,26.638-29.611v-2.756h-2.93a2.776,2.776,0,0,1,0-5.553h12.133a2.776,2.776,0,1,1,0,5.553h-2.93v2.756a29.613,29.613,0,0,1,11.421,3.631l.844-1.217a2.3,2.3,0,0,1,3.207-.584l3.967,2.754a2.308,2.308,0,0,1,.579,3.207l-1.189,1.715a29.777,29.777,0,1,1-51.739,20.105Z" transform="translate(-729.04 -19993.086)"/><circle class="m" cx="24.608" cy="24.608" r="24.608" transform="translate(5.168 13.318)"/><g transform="translate(11.091 19.242)"><path class="n" d="M354.753,51.592a18.688,18.688,0,0,0-15.994,28.35L354.753,70.3Z" transform="translate(-336.068 -51.592)"/><path class="m" d="M355.608,51.592V70.3l-15.994,9.645a18.686,18.686,0,1,0,15.994-28.35Z" transform="translate(-336.923 -51.592)"/></g></g></svg>