<svg width="626" height="707" viewBox="0 0 626 707" fill="none" xmlns="http://www.w3.org/2000/svg">
<rect width="55.3998" height="55.3998" transform="matrix(0.866023 0.500004 -0.866023 0.500004 288.866 1.00195)" fill="#FBFBFB" stroke="#B6B6B7" stroke-width="0.752692" stroke-linejoin="round"/>
<rect width="55.3998" height="18.0051" transform="matrix(0.866023 0.500004 0 1 240.89 28.7031)" fill="#FBFBFB" stroke="#B6B6B7" stroke-width="0.752691" stroke-linejoin="round"/>
<rect width="55.3998" height="18.0051" transform="matrix(0.866023 -0.500004 0 1 288.867 56.4062)" fill="#F2F2F2" stroke="#B6B6B7" stroke-width="0.752691" stroke-linejoin="round"/>
<rect width="55.3998" height="55.3998" transform="matrix(0.866023 0.500004 -0.866023 0.500004 240.885 28.7422)" fill="#FBFBFB" stroke="#B6B6B7" stroke-width="0.752692" stroke-linejoin="round"/>
<rect width="55.3998" height="18.0051" transform="matrix(0.866023 0.500004 0 1 192.909 56.4434)" fill="#FBFBFB" stroke="#B6B6B7" stroke-width="0.752691" stroke-linejoin="round"/>
<rect width="55.3998" height="18.0051" transform="matrix(0.866023 -0.500004 0 1 240.885 84.1465)" fill="#F2F2F2" stroke="#B6B6B7" stroke-width="0.752691" stroke-linejoin="round"/>
<rect width="55.3998" height="55.3998" transform="matrix(0.866023 0.500004 -0.866023 0.500004 192.903 56.4219)" fill="#FBFBFB" stroke="#B6B6B7" stroke-width="0.752692" stroke-linejoin="round"/>
<rect width="55.3998" height="18.0051" transform="matrix(0.866023 0.500004 0 1 144.928 84.123)" fill="#FBFBFB" stroke="#B6B6B7" stroke-width="0.752691" stroke-linejoin="round"/>
<rect width="55.3998" height="18.0051" transform="matrix(0.866023 -0.500004 0 1 192.903 111.824)" fill="#FBFBFB" stroke="#B6B6B7" stroke-width="0.752691" stroke-linejoin="round"/>
<rect width="55.3998" height="55.3998" transform="matrix(0.866023 0.500004 -0.866023 0.500004 240.893 84.127)" fill="#FBFBFB" stroke="#B6B6B7" stroke-width="0.752692" stroke-linejoin="round"/>
<rect width="55.3998" height="18.0051" transform="matrix(0.866023 0.500004 0 1 192.916 111.828)" fill="white" stroke="#B6B6B7" stroke-width="0.752691" stroke-linejoin="round"/>
<rect width="55.3998" height="18.0051" transform="matrix(0.866023 -0.500004 0 1 240.892 139.531)" fill="#FBFBFB" stroke="#B6B6B7" stroke-width="0.752691" stroke-linejoin="round"/>
<rect width="55.3998" height="55.3998" transform="matrix(0.866023 0.500004 -0.866023 0.500004 288.874 111.822)" fill="#FBFBFB" stroke="#B6B6B7" stroke-width="0.752692" stroke-linejoin="round"/>
<rect width="55.3998" height="18.0051" transform="matrix(0.866023 0.500004 0 1 240.898 139.523)" fill="white" stroke="#B6B6B7" stroke-width="0.752691" stroke-linejoin="round"/>
<rect width="55.3998" height="18.0051" transform="matrix(0.866023 -0.500004 0 1 288.875 167.227)" fill="#FBFBFB" stroke="#B6B6B7" stroke-width="0.752691" stroke-linejoin="round"/>
<rect width="55.3998" height="55.3998" transform="matrix(0.866023 0.500004 -0.866023 0.500004 144.932 84.127)" fill="#FBFBFB" stroke="#B6B6B7" stroke-width="0.752692" stroke-linejoin="round"/>
<rect width="55.3998" height="18.0051" transform="matrix(0.866023 0.500004 0 1 96.9561 111.828)" fill="#FBFBFB" stroke="#B6B6B7" stroke-width="0.752691" stroke-linejoin="round"/>
<rect width="55.3998" height="18.0051" transform="matrix(0.866023 -0.500004 0 1 144.932 139.531)" fill="white" stroke="#B6B6B7" stroke-width="0.752691" stroke-linejoin="round"/>
<rect width="55.3998" height="55.3998" transform="matrix(0.866023 0.500004 -0.866023 0.500004 96.959 111.82)" fill="#FBFBFB" stroke="#B6B6B7" stroke-width="0.752692" stroke-linejoin="round"/>
<rect width="55.3998" height="18.0051" transform="matrix(0.866023 0.500004 0 1 48.9834 139.521)" fill="#FBFBFB" stroke="#B6B6B7" stroke-width="0.752691" stroke-linejoin="round"/>
<rect width="55.3998" height="18.0051" transform="matrix(0.866023 -0.500004 0 1 96.959 167.225)" fill="white" stroke="#B6B6B7" stroke-width="0.752691" stroke-linejoin="round"/>
<rect width="55.3998" height="55.3998" transform="matrix(0.866023 0.500004 -0.866023 0.500004 48.9775 139.518)" fill="#FBFBFB" stroke="#B6B6B7" stroke-width="0.752692" stroke-linejoin="round"/>
<rect width="55.3998" height="18.0051" transform="matrix(0.866023 0.500004 0 1 1.00195 167.219)" fill="#F2F2F2" stroke="#B6B6B7" stroke-width="0.752691" stroke-linejoin="round"/>
<rect width="55.3998" height="18.0051" transform="matrix(0.866023 -0.500004 0 1 48.9775 194.922)" fill="white" stroke="#B6B6B7" stroke-width="0.752691" stroke-linejoin="round"/>
<path d="M432.885 448.252V157.377" stroke="#D2D3D5" stroke-width="0.752692" stroke-linejoin="round"/>
<path d="M384.883 455.055V184.307" stroke="#D2D3D5" stroke-width="0.752692" stroke-linejoin="round"/>
<path d="M336.854 455.045V212.52" stroke="#D2D3D5" stroke-width="0.752692" stroke-linejoin="round"/>
<path d="M288.878 458.306V240.041" stroke="#D2D3D5" stroke-width="0.752692" stroke-linejoin="round"/>
<path d="M240.885 321.717V267.545" stroke="#D2D3D5" stroke-width="0.752692" stroke-linejoin="round"/>
<path d="M192.85 349.91V295.738" stroke="#D2D3D5" stroke-width="0.752692" stroke-linejoin="round"/>
<rect width="55.3998" height="55.3998" transform="matrix(0.866023 0.500004 -0.866023 0.500004 432.802 84.123)" fill="#FBFBFB" stroke="#B6B6B7" stroke-width="0.752692" stroke-linejoin="round"/>
<rect width="55.3998" height="18.0051" transform="matrix(0.866023 0.500004 0 1 384.826 111.824)" fill="#FBFBFB" stroke="#B6B6B7" stroke-width="0.752691" stroke-linejoin="round"/>
<rect width="55.3998" height="18.0051" transform="matrix(0.866023 -0.500004 0 1 432.803 139.525)" fill="white" stroke="#B6B6B7" stroke-width="0.752691" stroke-linejoin="round"/>
<rect width="55.3998" height="55.3998" transform="matrix(0.866023 0.500004 -0.866023 0.500004 384.822 111.844)" fill="#FBFBFB" stroke="#B6B6B7" stroke-width="0.752692" stroke-linejoin="round"/>
<rect width="55.3998" height="18.0051" transform="matrix(0.866023 0.500004 0 1 336.847 139.545)" fill="#FBFBFB" stroke="#B6B6B7" stroke-width="0.752691" stroke-linejoin="round"/>
<rect width="55.3998" height="18.0051" transform="matrix(0.866023 -0.500004 0 1 384.822 167.248)" fill="white" stroke="#B6B6B7" stroke-width="0.752691" stroke-linejoin="round"/>
<rect width="55.3998" height="55.3998" transform="matrix(0.866023 0.500004 -0.866023 0.500004 336.844 139.529)" fill="#FBFBFB" stroke="#B6B6B7" stroke-width="0.752692" stroke-linejoin="round"/>
<rect width="55.3998" height="18.0051" transform="matrix(0.866023 0.500004 0 1 288.868 167.232)" fill="#FBFBFB" stroke="#B6B6B7" stroke-width="0.752691" stroke-linejoin="round"/>
<rect width="55.3998" height="18.0051" transform="matrix(0.866023 -0.500004 0 1 336.844 194.939)" fill="white" stroke="#B6B6B7" stroke-width="0.752691" stroke-linejoin="round"/>
<rect width="55.3998" height="55.3998" transform="matrix(0.866023 0.500004 -0.866023 0.500004 288.871 167.238)" fill="#FBFBFB" stroke="#B6B6B7" stroke-width="0.752692" stroke-linejoin="round"/>
<rect width="55.3998" height="18.0051" transform="matrix(0.866023 0.500004 0 1 240.896 194.939)" fill="#FBFBFB" stroke="#B6B6B7" stroke-width="0.752691" stroke-linejoin="round"/>
<rect width="55.3998" height="18.0051" transform="matrix(0.866023 -0.500004 0 1 288.871 222.641)" fill="white" stroke="#B6B6B7" stroke-width="0.752691" stroke-linejoin="round"/>
<rect width="55.3998" height="55.3998" transform="matrix(0.866023 0.500004 -0.866023 0.500004 240.897 194.943)" fill="#FBFBFB" stroke="#B6B6B7" stroke-width="0.752692" stroke-linejoin="round"/>
<rect width="55.3998" height="18.0051" transform="matrix(0.866023 0.500004 0 1 192.922 222.645)" fill="#FBFBFB" stroke="#B6B6B7" stroke-width="0.752691" stroke-linejoin="round"/>
<rect width="55.3998" height="18.0051" transform="matrix(0.866023 -0.500004 0 1 240.898 250.348)" fill="white" stroke="#B6B6B7" stroke-width="0.752691" stroke-linejoin="round"/>
<rect width="55.3998" height="55.3998" transform="matrix(0.866023 0.500004 -0.866023 0.500004 192.917 222.641)" fill="#FBFBFB" stroke="#B6B6B7" stroke-width="0.752692" stroke-linejoin="round"/>
<rect width="55.3998" height="18.0051" transform="matrix(0.866023 0.500004 0 1 144.94 250.342)" fill="#FBFBFB" stroke="#B6B6B7" stroke-width="0.752691" stroke-linejoin="round"/>
<rect width="55.3998" height="18.0051" transform="matrix(0.866023 -0.500004 0 1 192.917 278.043)" fill="white" stroke="#B6B6B7" stroke-width="0.752691" stroke-linejoin="round"/>
<rect width="55.3998" height="55.3998" transform="matrix(0.866023 0.500004 -0.866023 0.500004 432.817 209.977)" fill="#FBFBFB" stroke="#B6B6B7" stroke-width="0.752692" stroke-linejoin="round"/>
<rect width="55.3998" height="18.0051" transform="matrix(0.866023 0.500004 0 1 384.842 237.678)" fill="#FBFBFB" stroke="#B6B6B7" stroke-width="0.752691" stroke-linejoin="round"/>
<rect width="55.3998" height="18.0051" transform="matrix(0.866023 -0.500004 0 1 432.818 265.379)" fill="white" stroke="#B6B6B7" stroke-width="0.752691" stroke-linejoin="round"/>
<rect width="55.3998" height="55.3998" transform="matrix(0.866023 0.500004 -0.866023 0.500004 384.837 237.705)" fill="#FBFBFB" stroke="#B6B6B7" stroke-width="0.752692" stroke-linejoin="round"/>
<rect width="55.3998" height="18.0051" transform="matrix(0.866023 0.500004 0 1 336.861 265.406)" fill="#FBFBFB" stroke="#B6B6B7" stroke-width="0.752691" stroke-linejoin="round"/>
<rect width="55.3998" height="18.0051" transform="matrix(0.866023 -0.500004 0 1 384.837 293.107)" fill="white" stroke="#B6B6B7" stroke-width="0.752691" stroke-linejoin="round"/>
<rect width="55.3998" height="55.3998" transform="matrix(0.866023 0.500004 -0.866023 0.500004 336.858 265.396)" fill="#FBFBFB" stroke="#B6B6B7" stroke-width="0.752692" stroke-linejoin="round"/>
<rect width="55.3998" height="18.0051" transform="matrix(0.866023 0.500004 0 1 288.882 293.098)" fill="#FBFBFB" stroke="#B6B6B7" stroke-width="0.752691" stroke-linejoin="round"/>
<rect width="55.3998" height="18.0051" transform="matrix(0.866023 -0.500004 0 1 336.857 320.801)" fill="#FBFBFB" stroke="#B6B6B7" stroke-width="0.752691" stroke-linejoin="round"/>
<rect width="55.3998" height="55.3998" transform="matrix(0.866023 0.500004 -0.866023 0.500004 384.842 293.092)" fill="#FBFBFB" stroke="#B6B6B7" stroke-width="0.752692" stroke-linejoin="round"/>
<rect width="55.3998" height="18.0051" transform="matrix(0.866023 0.500004 0 1 336.865 320.793)" fill="white" stroke="#B6B6B7" stroke-width="0.752691" stroke-linejoin="round"/>
<rect width="55.3998" height="18.0051" transform="matrix(0.866023 -0.500004 0 1 384.842 348.494)" fill="#FBFBFB" stroke="#B6B6B7" stroke-width="0.752691" stroke-linejoin="round"/>
<rect width="55.3998" height="55.3998" transform="matrix(0.866023 0.500004 -0.866023 0.500004 432.823 320.814)" fill="#FBFBFB" stroke="#B6B6B7" stroke-width="0.752692" stroke-linejoin="round"/>
<rect width="55.3998" height="18.0051" transform="matrix(0.866023 0.500004 0 1 384.848 348.516)" fill="white" stroke="#B6B6B7" stroke-width="0.752691" stroke-linejoin="round"/>
<rect width="55.3998" height="18.0051" transform="matrix(0.866023 -0.500004 0 1 432.824 376.219)" fill="#FBFBFB" stroke="#B6B6B7" stroke-width="0.752691" stroke-linejoin="round"/>
<rect width="55.3998" height="55.3998" transform="matrix(0.866023 0.500004 -0.866023 0.500004 288.885 293.092)" fill="#FBFBFB" stroke="#B6B6B7" stroke-width="0.752692" stroke-linejoin="round"/>
<rect width="55.3998" height="18.0051" transform="matrix(0.866023 0.500004 0 1 240.909 320.793)" fill="#FBFBFB" stroke="#B6B6B7" stroke-width="0.752691" stroke-linejoin="round"/>
<rect width="55.3998" height="18.0051" transform="matrix(0.866023 -0.500004 0 1 288.885 348.494)" fill="white" stroke="#B6B6B7" stroke-width="0.752691" stroke-linejoin="round"/>
<rect width="55.3998" height="55.3998" transform="matrix(0.866023 0.500004 -0.866023 0.500004 240.939 320.814)" fill="#FBFBFB" stroke="#B6B6B7" stroke-width="0.752692" stroke-linejoin="round"/>
<rect width="55.3998" height="18.0051" transform="matrix(0.866023 0.500004 0 1 192.964 348.516)" fill="#FBFBFB" stroke="#B6B6B7" stroke-width="0.752691" stroke-linejoin="round"/>
<rect width="55.3998" height="18.0051" transform="matrix(0.866023 -0.500004 0 1 240.939 376.219)" fill="white" stroke="#B6B6B7" stroke-width="0.752691" stroke-linejoin="round"/>
<rect width="55.3998" height="55.3998" transform="matrix(0.866023 0.500004 -0.866023 0.500004 192.931 348.502)" fill="#FBFBFB" stroke="#B6B6B7" stroke-width="0.752692" stroke-linejoin="round"/>
<rect width="55.3998" height="18.0051" transform="matrix(0.866023 0.500004 0 1 144.955 376.203)" fill="white" stroke="#B6B6B7" stroke-width="0.752691" stroke-linejoin="round"/>
<rect width="55.3998" height="18.0051" transform="matrix(0.866023 -0.500004 0 1 192.93 403.898)" fill="white" stroke="#B6B6B7" stroke-width="0.752691" stroke-linejoin="round"/>
<rect width="55.3998" height="55.3998" transform="matrix(0.866023 0.500004 -0.866023 0.500004 528.78 632.594)" fill="white" stroke="#B6B6B7" stroke-width="0.752692" stroke-linejoin="round"/>
<rect width="55.3998" height="18.0051" transform="matrix(0.866023 0.500004 0 1 480.805 660.295)" fill="#F2F2F2" stroke="#B6B6B7" stroke-width="0.752691" stroke-linejoin="round"/>
<rect width="55.3998" height="18.0051" transform="matrix(0.866023 -0.500004 0 1 528.778 687.996)" fill="#F2F2F2" stroke="#B6B6B7" stroke-width="0.752691" stroke-linejoin="round"/>
<rect width="55.3998" height="55.3998" transform="matrix(0.866023 0.500004 -0.866023 0.500004 528.78 468.168)" fill="#FBFBFB" stroke="#B6B6B7" stroke-width="0.752692" stroke-linejoin="round"/>
<rect width="55.3998" height="18.0051" transform="matrix(0.866023 0.500004 0 1 480.805 495.869)" fill="#FBFBFB" stroke="#B6B6B7" stroke-width="0.752691" stroke-linejoin="round"/>
<rect width="55.3998" height="18.0051" transform="matrix(0.866023 -0.500004 0 1 528.779 523.572)" fill="white" stroke="#B6B6B7" stroke-width="0.752691" stroke-linejoin="round"/>
<rect width="55.3998" height="55.3998" transform="matrix(0.866023 0.500004 -0.866023 0.500004 528.78 544.521)" fill="white" stroke="#B6B6B7" stroke-width="0.752692" stroke-linejoin="round"/>
<rect width="55.3998" height="18.0051" transform="matrix(0.866023 0.500004 0 1 480.804 572.223)" fill="#FBFBFB" stroke="#B6B6B7" stroke-width="0.752691" stroke-linejoin="round"/>
<rect width="55.3998" height="18.0051" transform="matrix(0.866023 -0.500004 0 1 528.779 599.926)" fill="white" stroke="#B6B6B7" stroke-width="0.752691" stroke-linejoin="round"/>
<rect width="55.3998" height="55.3998" transform="matrix(0.866023 0.500004 -0.866023 0.500004 336.854 587.875)" fill="white" stroke="#B6B6B7" stroke-width="0.752692" stroke-linejoin="round"/>
<rect width="55.3998" height="18.0051" transform="matrix(0.866023 0.500004 0 1 288.878 615.576)" fill="#F2F2F2" stroke="#B6B6B7" stroke-width="0.752691" stroke-linejoin="round"/>
<rect width="55.3998" height="18.0051" transform="matrix(0.866023 -0.500004 0 1 336.854 643.279)" fill="#F2F2F2" stroke="#B6B6B7" stroke-width="0.752691" stroke-linejoin="round"/>
<rect width="55.3998" height="55.3998" transform="matrix(0.866023 0.500004 -0.866023 0.500004 576.758 291.861)" fill="#FBFBFB" stroke="#B6B6B7" stroke-width="0.752692" stroke-linejoin="round"/>
<rect width="55.3998" height="18.0051" transform="matrix(0.866023 0.500004 0 1 528.781 319.562)" fill="#FBFBFB" stroke="#B6B6B7" stroke-width="0.752691" stroke-linejoin="round"/>
<rect width="55.3998" height="18.0051" transform="matrix(0.866023 -0.500004 0 1 576.758 347.266)" fill="#F2F2F2" stroke="#B6B6B7" stroke-width="0.752691" stroke-linejoin="round"/>
<rect width="55.3998" height="55.3998" transform="matrix(0.866023 0.500004 -0.866023 0.500004 528.78 319.584)" fill="#FBFBFB" stroke="#B6B6B7" stroke-width="0.752692" stroke-linejoin="round"/>
<rect width="55.3998" height="18.0051" transform="matrix(0.866023 0.500004 0 1 480.805 347.283)" fill="#FBFBFB" stroke="#B6B6B7" stroke-width="0.752691" stroke-linejoin="round"/>
<rect width="55.3998" height="18.0051" transform="matrix(0.866023 -0.500004 0 1 528.779 374.986)" fill="white" stroke="#B6B6B7" stroke-width="0.752691" stroke-linejoin="round"/>
<rect width="55.3998" height="55.3998" transform="matrix(0.866023 0.500004 -0.866023 0.500004 528.779 440.645)" fill="#FBFBFB" stroke="#B6B6B7" stroke-width="0.752692" stroke-linejoin="round"/>
<rect width="55.3998" height="18.0051" transform="matrix(0.866023 0.500004 0 1 480.803 468.346)" fill="white" stroke="#B6B6B7" stroke-width="0.752691" stroke-linejoin="round"/>
<rect width="55.3998" height="18.0051" transform="matrix(0.866023 -0.500004 0 1 528.778 496.049)" fill="white" stroke="#B6B6B7" stroke-width="0.752691" stroke-linejoin="round"/>
<rect width="55.3998" height="55.3998" transform="matrix(0.866023 0.500004 -0.866023 0.500004 480.798 347.279)" fill="#FBFBFB" stroke="#B6B6B7" stroke-width="0.752692" stroke-linejoin="round"/>
<rect width="55.3998" height="18.0051" transform="matrix(0.866023 0.500004 0 1 432.822 374.98)" fill="#FBFBFB" stroke="#B6B6B7" stroke-width="0.752691" stroke-linejoin="round"/>
<rect width="55.3998" height="18.0051" transform="matrix(0.866023 -0.500004 0 1 480.797 402.684)" fill="white" stroke="#B6B6B7" stroke-width="0.752691" stroke-linejoin="round"/>
<rect width="55.3998" height="55.3998" transform="matrix(0.866023 0.500004 -0.866023 0.500004 432.827 374.965)" fill="#FBFBFB" stroke="#B6B6B7" stroke-width="0.752692" stroke-linejoin="round"/>
<rect width="55.3998" height="18.0051" transform="matrix(0.866023 0.500004 0 1 384.851 402.666)" fill="#FBFBFB" stroke="#B6B6B7" stroke-width="0.752691" stroke-linejoin="round"/>
<rect width="55.3998" height="18.0051" transform="matrix(0.866023 -0.500004 0 1 432.827 430.365)" fill="white" stroke="#B6B6B7" stroke-width="0.752691" stroke-linejoin="round"/>
<rect width="55.3998" height="55.3998" transform="matrix(0.866023 0.500004 -0.866023 0.500004 384.853 402.689)" fill="#FBFBFB" stroke="#B6B6B7" stroke-width="0.752692" stroke-linejoin="round"/>
<rect width="55.3998" height="18.0051" transform="matrix(0.866023 0.500004 0 1 336.877 430.391)" fill="#FBFBFB" stroke="#B6B6B7" stroke-width="0.752691" stroke-linejoin="round"/>
<rect width="55.3998" height="18.0051" transform="matrix(0.866023 -0.500004 0 1 384.854 458.096)" fill="white" stroke="#B6B6B7" stroke-width="0.752691" stroke-linejoin="round"/>
<rect width="55.3998" height="55.3998" transform="matrix(0.866023 0.500004 -0.866023 0.500004 336.869 430.383)" fill="#FBFBFB" stroke="#B6B6B7" stroke-width="0.752692" stroke-linejoin="round"/>
<rect width="55.3998" height="18.0051" transform="matrix(0.866023 0.500004 0 1 288.895 458.084)" fill="#FBFBFB" stroke="#B6B6B7" stroke-width="0.752691" stroke-linejoin="round"/>
<rect width="55.3998" height="18.0051" transform="matrix(0.866023 -0.500004 0 1 336.869 485.785)" fill="white" stroke="#B6B6B7" stroke-width="0.752691" stroke-linejoin="round"/>
<rect width="55.3998" height="55.3998" transform="matrix(0.866023 0.500004 -0.866023 0.500004 336.854 532.818)" fill="#FBFBFB" stroke="#B6B6B7" stroke-width="0.752692" stroke-linejoin="round"/>
<rect width="55.3998" height="18.0051" transform="matrix(0.866023 0.500004 0 1 288.878 560.52)" fill="#FBFBFB" stroke="#B6B6B7" stroke-width="0.752691" stroke-linejoin="round"/>
<rect width="55.3998" height="18.0051" transform="matrix(0.866023 -0.500004 0 1 336.854 588.221)" fill="white" stroke="#B6B6B7" stroke-width="0.752691" stroke-linejoin="round"/>
<rect width="55.3998" height="55.3998" transform="matrix(0.866023 0.500004 -0.866023 0.500004 336.854 503.932)" fill="#FBFBFB" stroke="#B6B6B7" stroke-width="0.752692" stroke-linejoin="round"/>
<rect width="55.3998" height="18.0051" transform="matrix(0.866023 0.500004 0 1 288.879 531.633)" fill="#FBFBFB" stroke="#B6B6B7" stroke-width="0.752691" stroke-linejoin="round"/>
<rect width="55.3998" height="18.0051" transform="matrix(0.866023 -0.500004 0 1 336.854 559.334)" fill="white" stroke="#B6B6B7" stroke-width="0.752691" stroke-linejoin="round"/>
</svg>
