<svg width="971" height="253" fill="none" xmlns="http://www.w3.org/2000/svg"><path fill-rule="evenodd" clip-rule="evenodd" d="M135.839 118.965H2.239c-1.45 0-2.356-1.57-1.631-2.826l64.68-112.03A7.535 7.535 0 0 1 71.814.342h129.249c1.45 0 2.356 1.57 1.631 2.825l-66.855 115.798Zm47.399-106.442c.417-.24.246-.878-.236-.878H76.165c-1.346 0-2.59.718-3.263 1.883L19.439 106.13c-.241.417.226.884.643.643l163.156-94.25ZM148.894 126.493l66.908-115.887c.725-1.256 2.538-1.256 3.263 0l64.736 112.126a7.537 7.537 0 0 1 0 7.536l-64.732 112.12c-.725 1.256-2.538 1.256-3.263 0l-66.912-115.895Zm68.543 94.357c0 .482.638.653.879.236l53.521-92.702a3.768 3.768 0 0 0 0-3.768l-53.524-92.707c-.241-.418-.879-.247-.879.235l.003 188.706Z" fill="#F3F3F3"/><path d="M201.071 252.658c1.45 0 2.356-1.569 1.631-2.825l-66.856-115.798H2.24c-1.45 0-2.357 1.57-1.632 2.826l64.68 112.03a7.536 7.536 0 0 0 6.526 3.767h129.257Z" fill="#F3F3F3"/><path d="M349.955 215.599v-70.26h47.046v10.444H362.63v59.816h-12.675Zm8.26-29.481v-10.444h33.991v10.444h-33.991ZM434.618 216.501c-6.362 0-11.916-1.282-16.663-3.846-4.748-2.563-8.451-6.503-11.109-11.82-2.627-5.317-3.94-12.106-3.94-20.366 0-8.261 1.313-15.049 3.94-20.366 2.658-5.317 6.361-9.257 11.109-11.821 4.747-2.563 10.301-3.845 16.663-3.845 6.393 0 11.963 1.282 16.71 3.845 4.747 2.564 8.434 6.52 11.061 11.868 2.627 5.317 3.941 12.09 3.941 20.319 0 8.228-1.314 15.017-3.941 20.366-2.627 5.317-6.329 9.257-11.108 11.82-4.748 2.564-10.302 3.846-16.663 3.846Zm0-10.397c3.861 0 7.184-.839 9.969-2.516 2.785-1.677 4.921-4.367 6.409-8.07 1.519-3.735 2.279-8.656 2.279-14.764 0-6.298-.76-11.346-2.279-15.144s-3.671-6.536-6.457-8.213c-2.785-1.709-6.092-2.564-9.921-2.564-3.798 0-7.105.839-9.922 2.516-2.785 1.646-4.937 4.336-6.457 8.071-1.519 3.703-2.278 8.624-2.278 14.764 0 6.33.759 11.393 2.278 15.191 1.52 3.798 3.672 6.536 6.457 8.213 2.785 1.677 6.092 2.516 9.922 2.516ZM506.659 216.501c-6.551 0-11.915-1.045-16.093-3.133-4.178-2.121-7.279-5.333-9.305-9.638-1.994-4.304-2.991-9.747-2.991-16.33v-42.061h12.723v43.295c0 6.077 1.282 10.492 3.846 13.245 2.563 2.722 6.503 4.083 11.82 4.083s9.242-1.361 11.774-4.083c2.563-2.753 3.845-7.168 3.845-13.245v-43.295h12.485V187.4c0 6.583-.997 12.026-2.991 16.33-1.993 4.305-5.063 7.517-9.209 9.638-4.146 2.088-9.447 3.133-15.904 3.133ZM549.185 215.599v-70.26h12.818l35.747 54.784h-2.373v-54.784h11.963v70.26h-12.818l-35.747-54.784h2.374v54.784h-11.964ZM640.503 216.263c-1.899 0-3.861-.047-5.886-.142a139.66 139.66 0 0 1-6.124-.332 146.593 146.593 0 0 1-6.314-.618v-68.408a86.026 86.026 0 0 1 6.598-1.139 89.703 89.703 0 0 1 7.169-.76 91.644 91.644 0 0 1 7.121-.285c12.343 0 21.648 2.928 27.914 8.783 6.298 5.823 9.447 14.859 9.447 27.107 0 8.355-1.472 15.175-4.415 20.461-2.943 5.253-7.374 9.13-13.292 11.63-5.919 2.469-13.324 3.703-22.218 3.703Zm3.134-10.444c5.285 0 9.684-.838 13.197-2.516 3.545-1.709 6.187-4.431 7.928-8.165 1.741-3.735 2.611-8.64 2.611-14.717 0-6.045-.87-10.934-2.611-14.669-1.741-3.734-4.367-6.456-7.88-8.165-3.482-1.741-7.818-2.611-13.008-2.611-1.393 0-2.88.079-4.463.237-1.55.127-3.069.317-4.557.57v49.609c1.424.158 2.833.269 4.225.332 1.424.064 2.943.095 4.558.095ZM685.156 215.599l23.594-70.26h18.372l23.594 70.26h-12.58l-21.031-64.611h1.472l-20.983 64.611h-12.438Zm14.907-20.176 2.753-10.207h18.382l3.299 10.207h-24.434ZM767.944 215.599V156.02h-22.597v-10.681h57.917v10.681h-22.597v59.579h-12.723ZM811.766 215.599v-70.26h12.676v70.26h-12.676ZM868.335 216.501c-6.362 0-11.916-1.282-16.663-3.846-4.747-2.563-8.45-6.503-11.109-11.82-2.627-5.317-3.94-12.106-3.94-20.366 0-8.261 1.313-15.049 3.94-20.366 2.659-5.317 6.362-9.257 11.109-11.821 4.747-2.563 10.301-3.845 16.663-3.845 6.393 0 11.963 1.282 16.71 3.845 4.748 2.564 8.435 6.52 11.062 11.868 2.626 5.317 3.94 12.09 3.94 20.319 0 8.228-1.314 15.017-3.94 20.366-2.627 5.317-6.33 9.257-11.109 11.82-4.747 2.564-10.302 3.846-16.663 3.846Zm0-10.397c3.861 0 7.184-.839 9.969-2.516 2.785-1.677 4.922-4.367 6.409-8.07 1.519-3.735 2.279-8.656 2.279-14.764 0-6.298-.76-11.346-2.279-15.144s-3.671-6.536-6.456-8.213c-2.785-1.709-6.093-2.564-9.922-2.564-3.798 0-7.105.839-9.922 2.516-2.785 1.646-4.937 4.336-6.456 8.071-1.519 3.703-2.279 8.624-2.279 14.764 0 6.33.76 11.393 2.279 15.191s3.671 6.536 6.456 8.213c2.785 1.677 6.092 2.516 9.922 2.516ZM912.32 215.599v-70.26h12.818l35.747 54.784h-2.374v-54.784h11.963v70.26h-12.817l-35.747-54.784h2.373v54.784H912.32ZM349.974 107.661v-70.26h12.818l35.747 54.784h-2.373V37.401h11.963v70.26h-12.818l-35.747-54.784h2.374v54.784h-11.964ZM452.069 108.563c-6.362 0-11.916-1.282-16.663-3.845-4.748-2.564-8.451-6.504-11.109-11.82-2.627-5.318-3.94-12.106-3.94-20.367 0-8.26 1.313-15.049 3.94-20.366 2.658-5.317 6.361-9.257 11.109-11.82 4.747-2.564 10.301-3.846 16.663-3.846 6.393 0 11.963 1.282 16.71 3.846 4.747 2.563 8.434 6.52 11.061 11.868 2.627 5.317 3.941 12.09 3.941 20.318 0 8.229-1.314 15.017-3.941 20.366-2.627 5.317-6.329 9.257-11.108 11.821-4.748 2.563-10.302 3.845-16.663 3.845Zm0-10.396c3.861 0 7.184-.84 9.969-2.516 2.785-1.678 4.921-4.368 6.409-8.07 1.519-3.735 2.279-8.657 2.279-14.765 0-6.298-.76-11.346-2.279-15.144s-3.671-6.535-6.457-8.213c-2.785-1.709-6.092-2.563-9.921-2.563-3.798 0-7.105.838-9.922 2.516-2.785 1.646-4.937 4.336-6.457 8.07-1.519 3.703-2.278 8.625-2.278 14.764 0 6.33.759 11.394 2.278 15.192 1.52 3.798 3.672 6.535 6.457 8.213 2.785 1.677 6.092 2.516 9.922 2.516ZM496.244 107.661v-70.26h15.381l22.17 49.325h-1.757L553.781 37.4h15.381v70.26h-11.868V48.51h2.753L538.02 97.644h-10.634l-22.55-49.134h3.276v59.151h-11.868ZM584.161 107.661v-70.26h12.675v70.26h-12.675ZM643.957 108.563c-5.475 0-10.381-.664-14.716-1.994-4.305-1.361-7.96-3.465-10.967-6.314-3.006-2.88-5.301-6.598-6.883-11.156-1.583-4.557-2.374-10.032-2.374-16.425 0-8.197 1.393-14.97 4.178-20.319 2.817-5.348 6.883-9.32 12.2-11.915 5.317-2.627 11.758-3.94 19.322-3.94 2.69 0 5.285.157 7.785.474 2.501.285 4.953.728 7.359 1.33V48.89a52.908 52.908 0 0 0-7.026-1.33 59.728 59.728 0 0 0-7.216-.427c-5.159 0-9.463.839-12.913 2.516-3.45 1.678-6.045 4.384-7.785 8.118-1.709 3.703-2.564 8.609-2.564 14.717 0 6.298.87 11.314 2.611 15.049 1.741 3.703 4.288 6.361 7.643 7.975 3.387 1.614 7.548 2.421 12.486 2.421 2.468 0 4.905-.19 7.31-.57 2.406-.38 4.89-.965 7.454-1.756v10.587c-2.279.727-4.779 1.297-7.501 1.709a52.238 52.238 0 0 1-8.403.664Z" fill="#fff"/></svg>