<svg width="195" height="52" fill="none" xmlns="http://www.w3.org/2000/svg"><path fill-rule="evenodd" clip-rule="evenodd" d="M27.528 24.286H.808a.377.377 0 0 1-.326-.566L13.418 1.316c.269-.467.766-.754 1.305-.754h25.85c.29 0 .47.314.326.565l-13.371 23.16Zm9.48-21.289c.083-.048.049-.175-.048-.175H15.593a.754.754 0 0 0-.653.376L4.248 21.718c-.049.084.045.177.128.13l32.631-18.85ZM30.139 25.791 43.52 2.614a.377.377 0 0 1 .653 0L57.12 25.039c.27.466.27 1.041 0 1.507L44.174 48.97a.377.377 0 0 1-.653 0L30.14 25.791Zm13.708 18.872c0 .096.128.13.176.047l10.704-18.54a.753.753 0 0 0 0-.754L44.023 6.874c-.049-.083-.176-.049-.176.048v37.74Z" fill="#121212"/><path d="M40.574 51.024c.29 0 .471-.314.326-.565L27.53 27.3H.807a.377.377 0 0 0-.326.566l12.936 22.406c.269.466.766.753 1.305.753h25.851ZM70.35 43.612V29.56h9.41v2.09h-6.874v11.962H70.35Zm1.653-5.896v-2.089H78.8v2.09h-6.798ZM87.283 43.793c-1.272 0-2.383-.257-3.332-.77-.95-.512-1.69-1.3-2.222-2.364-.526-1.063-.788-2.42-.788-4.073 0-1.652.262-3.01.788-4.073.531-1.063 1.272-1.851 2.222-2.364.949-.513 2.06-.77 3.332-.77 1.279 0 2.393.257 3.342.77.95.513 1.687 1.304 2.213 2.374.525 1.063.788 2.418.788 4.063 0 1.646-.263 3.004-.788 4.074-.526 1.063-1.266 1.85-2.222 2.364-.95.512-2.06.769-3.333.769Zm0-2.08c.772 0 1.437-.167 1.994-.503.557-.335.984-.873 1.282-1.614.304-.747.456-1.731.456-2.953 0-1.26-.152-2.269-.456-3.029-.304-.76-.734-1.307-1.291-1.642-.558-.342-1.219-.513-1.985-.513-.76 0-1.42.168-1.984.503-.557.33-.988.868-1.292 1.615-.303.74-.455 1.724-.455 2.952 0 1.266.152 2.279.455 3.039.304.76.735 1.307 1.292 1.642.557.336 1.218.503 1.984.503ZM101.691 43.793c-1.31 0-2.383-.21-3.218-.627a4.018 4.018 0 0 1-1.861-1.927c-.399-.861-.598-1.95-.598-3.267V29.56h2.544v8.66c0 1.215.257 2.098.77 2.648.512.545 1.3.817 2.363.817 1.064 0 1.849-.272 2.355-.817.513-.55.769-1.433.769-2.649V29.56h2.497v8.412c0 1.317-.199 2.406-.598 3.267a3.982 3.982 0 0 1-1.842 1.927c-.829.418-1.889.627-3.181.627ZM110.197 43.612V29.56h2.563l7.15 10.957h-.475V29.56h2.393v14.052h-2.564l-7.149-10.956h.474v10.956h-2.392ZM128.46 43.745c-.379 0-.772-.01-1.177-.028a27.958 27.958 0 0 1-2.488-.19V29.845a17.35 17.35 0 0 1 1.32-.228c.475-.07.953-.12 1.434-.152.487-.038.962-.057 1.424-.057 2.469 0 4.33.586 5.583 1.757 1.259 1.165 1.889 2.972 1.889 5.421 0 1.671-.294 3.035-.883 4.092-.588 1.051-1.475 1.827-2.658 2.327-1.184.493-2.665.74-4.444.74Zm.627-2.089c1.057 0 1.937-.167 2.639-.503.709-.342 1.238-.886 1.586-1.633.348-.747.522-1.728.522-2.943 0-1.21-.174-2.187-.522-2.934-.348-.747-.873-1.291-1.576-1.633-.696-.348-1.564-.522-2.602-.522a8.97 8.97 0 0 0-.892.047c-.31.026-.614.064-.912.114v9.922c.285.032.567.054.845.066.285.013.589.02.912.02ZM137.391 43.612l4.719-14.052h3.674l4.719 14.052h-2.516l-4.206-12.922h.294l-4.197 12.922h-2.487Zm2.981-4.035.551-2.041h3.676l.66 2.041h-4.887ZM153.948 43.612V31.697h-4.519V29.56h11.583v2.137h-4.519v11.915h-2.545ZM162.713 43.612V29.56h2.535v14.052h-2.535ZM174.027 43.793c-1.273 0-2.384-.257-3.333-.77-.949-.512-1.69-1.3-2.222-2.364-.525-1.063-.788-2.42-.788-4.073 0-1.652.263-3.01.788-4.073.532-1.063 1.273-1.851 2.222-2.364.949-.513 2.06-.77 3.333-.77 1.278 0 2.392.257 3.342.77.949.513 1.687 1.304 2.212 2.374.525 1.063.788 2.418.788 4.063 0 1.646-.263 3.004-.788 4.074-.525 1.063-1.266 1.85-2.222 2.364-.949.512-2.06.769-3.332.769Zm0-2.08c.772 0 1.436-.167 1.993-.503.557-.335.985-.873 1.282-1.614.304-.747.456-1.731.456-2.953 0-1.26-.152-2.269-.456-3.029-.304-.76-.734-1.307-1.291-1.642-.557-.342-1.219-.513-1.984-.513-.76 0-1.421.168-1.985.503-.557.33-.987.868-1.291 1.615-.304.74-.456 1.724-.456 2.952 0 1.266.152 2.279.456 3.039.304.76.734 1.307 1.291 1.642.557.336 1.219.503 1.985.503ZM182.824 43.612V29.56h2.563l7.15 10.957h-.475V29.56h2.392v14.052h-2.563l-7.149-10.956h.474v10.956h-2.392ZM70.355 22.025V7.973h2.563l7.15 10.957h-.475V7.973h2.392v14.052h-2.563l-7.15-10.957h.475v10.957h-2.392ZM90.773 22.205c-1.272 0-2.383-.256-3.332-.769-.95-.512-1.69-1.3-2.222-2.364-.525-1.063-.788-2.421-.788-4.073 0-1.652.263-3.01.788-4.073.532-1.064 1.272-1.852 2.222-2.364.95-.513 2.06-.77 3.332-.77 1.279 0 2.393.257 3.342.77.95.512 1.687 1.303 2.213 2.373.525 1.064.788 2.418.788 4.064s-.263 3.003-.788 4.073c-.526 1.063-1.266 1.852-2.222 2.364-.95.513-2.06.77-3.333.77Zm0-2.079c.773 0 1.437-.168 1.994-.503.557-.336.984-.874 1.282-1.614.304-.747.456-1.732.456-2.953 0-1.26-.152-2.27-.456-3.029-.304-.76-.734-1.307-1.291-1.643-.557-.341-1.219-.512-1.985-.512-.76 0-1.42.168-1.984.503-.557.33-.987.867-1.291 1.614-.304.74-.456 1.725-.456 2.953 0 1.266.152 2.279.456 3.038.303.76.734 1.307 1.291 1.643.557.335 1.218.503 1.984.503ZM99.608 22.025V7.973h3.077l4.434 9.865h-.352l4.349-9.865h3.076v14.052h-2.374v-11.83h.551l-4.405 9.826h-2.127l-4.51-9.826h.655v11.83h-2.374ZM117.192 22.025V7.973h2.535v14.052h-2.535ZM129.151 22.205c-1.095 0-2.076-.133-2.943-.398-.861-.273-1.592-.694-2.194-1.263-.601-.576-1.06-1.32-1.376-2.232-.317-.911-.475-2.006-.475-3.285 0-1.639.279-2.994.836-4.063.563-1.07 1.376-1.864 2.44-2.383 1.063-.526 2.351-.789 3.864-.789.538 0 1.057.032 1.557.095.5.057.991.146 1.472.266v2.118c-.462-.12-.931-.21-1.405-.266-.469-.057-.95-.086-1.444-.086-1.031 0-1.892.168-2.582.503-.69.336-1.209.877-1.557 1.624-.342.74-.513 1.722-.513 2.943 0 1.26.174 2.263.522 3.01.348.74.858 1.272 1.529 1.595.677.323 1.51.484 2.497.484a9.35 9.35 0 0 0 1.462-.113c.481-.076.978-.194 1.491-.352v2.117a9.7 9.7 0 0 1-1.5.342c-.545.089-1.105.133-1.681.133Z" fill="#121212"/></svg>